<svg width="602" height="602" viewBox="0 0 602 602" fill="none" xmlns="http://www.w3.org/2000/svg">
    <g>
        <path d="M274.151 201.657C341.054 183.66 405.55 177.337 456.169 181.901L457.246 169.951L456.169 181.901C486.646 184.648 511.812 191.419 529.932 200.523C548.346 209.775 557.755 220.492 560.382 230.243L560.382 230.243C563.158 240.546 560.151 255.449 548.018 273.727C536.082 291.707 516.338 311.287 489.372 329.866L489.372 329.867C448.709 357.885 391.132 382.504 327.487 399.626C262.081 417.222 198.787 425.65 149 421.277L149 421.277C117.431 418.505 91.3911 411.182 72.6439 401.457C53.5865 391.571 43.7063 380.131 40.9672 369.962L40.9671 369.962C38.3309 360.176 40.8792 346.349 51.6438 329.439C62.2661 312.752 80.0286 294.535 104.588 277.014L97.8644 267.589L104.588 277.014C146.144 247.367 206.573 219.838 274.151 201.657ZM274.151 201.657L271.035 190.074L274.151 201.657Z" stroke="#E91E63" stroke-width="24" stroke-miterlimit="10" />
        <path d="M373.214 228.061C422.25 277.002 459.972 329.696 481.328 375.816L492.217 370.774L481.328 375.816C494.187 403.584 500.906 428.765 502.082 449.01C503.276 469.583 498.7 483.091 491.568 490.242L491.568 490.242C484.033 497.797 469.624 502.645 447.729 501.277C426.19 499.931 399.363 492.621 369.79 478.558L369.789 478.557C325.195 457.352 275.087 419.798 228.438 373.24L220.3 381.393L228.438 373.24C180.498 325.394 141.553 274.793 120.448 229.489L120.448 229.489C107.065 200.763 100.386 174.55 99.4349 153.451C98.4677 132.003 103.435 117.726 110.872 110.269L110.872 110.269C118.029 103.093 131.277 98.3862 151.304 99.2534C171.065 100.109 195.723 106.383 223.176 118.892L228.151 107.972L223.176 118.892C269.627 140.057 323.681 178.626 373.214 228.061ZM373.214 228.061L381.691 219.567L373.214 228.061Z" stroke="#E91E63" stroke-width="24" stroke-miterlimit="10" />
        <path d="M325.98 494.55L335.791 501.459L325.98 494.55C308.361 519.57 289.913 537.979 272.968 549.119C255.747 560.441 241.761 563.231 232.002 560.63L232.002 560.63C221.691 557.883 210.288 547.829 200.526 528.183C190.922 508.857 183.839 481.97 181.232 449.328L181.232 449.327C177.299 400.106 184.769 337.934 201.765 274.257L190.171 271.162L201.765 274.257C219.232 208.817 243.582 149.791 272.265 108.861L272.265 108.861C290.451 82.9083 309.814 64.0181 327.61 52.6448C345.701 41.0834 360.55 38.2467 370.727 40.9587L370.727 40.9587C380.52 43.5684 391.221 52.6881 400.483 70.4646C409.622 88.0061 416.518 112.497 419.411 142.525C424.307 193.336 417.931 259.431 399.885 327.044C382.018 393.981 355.243 452.995 325.98 494.55Z" stroke="#E91E63" stroke-width="24" stroke-miterlimit="10" />
    </g>
    <path d="M301.007 269.002C299.593 267.588 297.77 265.95 296.208 264.701C294.64 263.447 292.769 262.105 290.593 260.675C288.4 259.235 286.028 258.088 283.538 257.264C281.011 256.422 278.531 256 276.102 256C267.323 256 260.445 258.43 255.467 263.29C250.488 268.149 248 274.891 248 283.513C248 292.174 252.488 300.992 261.463 309.968C261.463 309.968 285.955 331.935 301.007 346.011C316.06 331.935 340.552 309.968 340.552 309.968C349.527 300.992 354.015 292.174 354.015 283.513C354.015 274.891 351.527 268.149 346.548 263.29C341.57 258.43 334.692 256 325.913 256C323.484 256 321.004 256.422 318.477 257.264C315.987 258.088 313.615 259.235 311.422 260.675C309.246 262.105 307.375 263.447 305.807 264.701C304.245 265.95 302.422 267.588 301.007 269.002Z" fill="#E91E63" />
</svg>