<?xml version="1.0"?><svg xmlns="http://www.w3.org/2000/svg" width="40" height="40" viewBox="0 0 40 40"><path fill="#444" d="m27 25l9.6 7.5-2.5 2.5-6.3-5h-11.4c-2.4 0-4.4-1.7-4.9-4.1l-2.3-9.8c-0.3-2 1-4 3.1-4.4h0c1.2-0.1 2.3 0.2 2.9 0.7l2.8 2.1c2.1 1.7 5.1 2.7 7.8 2.1v3.6c-3.1 0.6-6-0.5-8.6-2l1.7 6.8h8.1z m-0.4 6.6v3.4h-11.7c-4.1 0-7.6-3-8.3-7l-3.2-16.4h3.2l3.3 15.8c0.4 2.4 2.5 4.2 5 4.2h11.7z m-17.7-22.2c-1.5-1.1-1.8-3.1-0.8-4.6s3.2-1.9 4.6-0.9c1.5 1.1 1.9 3.2 0.9 4.7-1.1 1.5-3.2 1.8-4.7 0.8z"></path></svg>