<?xml version="1.0"?><svg xmlns="http://www.w3.org/2000/svg" width="40" height="40" viewBox="0 0 40 40"><path d="m10 30c0 0.9 0.8 1.7 1.7 1.7h1.6v5.8c0 1.4 1.1 2.5 2.5 2.5s2.5-1.1 2.5-2.5v-5.8h3.4v5.8c0 1.4 1.1 2.5 2.5 2.5s2.5-1.1 2.5-2.5v-5.8h1.6c1 0 1.7-0.8 1.7-1.7v-16.7h-20v16.7z m-4.2-16.7c-1.3 0-2.5 1.2-2.5 2.5v11.7c0 1.4 1.2 2.5 2.5 2.5s2.5-1.1 2.5-2.5v-11.7c0-1.3-1.1-2.5-2.5-2.5z m28.4 0c-1.4 0-2.5 1.2-2.5 2.5v11.7c0 1.4 1.1 2.5 2.5 2.5s2.5-1.1 2.5-2.5v-11.7c0-1.4-1.1-2.5-2.5-2.5z m-8.3-9.7l2.2-2.2c0.3-0.3 0.3-0.8 0-1.2-0.4-0.3-0.9-0.3-1.2 0l-2.5 2.5c-1.3-0.6-2.8-1-4.4-1-1.6 0-3.1 0.4-4.4 1l-2.5-2.4c-0.3-0.4-0.9-0.4-1.2 0-0.3 0.3-0.3 0.8 0 1.1l2.2 2.2c-2.5 1.8-4.1 4.7-4.1 8.1h20c0-3.3-1.6-6.3-4.1-8.1z m-9.2 4.7h-1.7v-1.6h1.7v1.6z m8.3 0h-1.7v-1.6h1.7v1.6z"></path></svg>