<?xml version="1.0"?><svg xmlns="http://www.w3.org/2000/svg" width="40" height="40" viewBox="0 0 40 40"><path d="m17.5 25l-3.75-5-2.8900000000000006 3.75-2.1099999999999994-2.5-2.8899999999999997 3.75h11.64z m2.5-10v10q0 1.3283333333333331-1.0166666666666657 2.3433333333333337t-2.3416666666666686 1.0166666666666657h-10q-1.3283333333333331 0-2.3049999999999997-1.0166666666666657t-0.9766666666666657-2.3433333333333337v-10q0-1.3283333333333331 0.9766666666666666-2.3433333333333337t2.3050000000000006-1.0166666666666657h9.999999999999998q1.3283333333333331 0 2.3433333333333337 1.0166666666666657t1.0150000000000006 2.3433333333333337z m3.3599999999999994 13.36v-3.3599999999999994h13.283333333333331v3.3599999999999994h-13.283333333333331z m13.280000000000001-16.720000000000002v3.360000000000003h-13.283333333333331v-3.3599999999999994h13.283333333333331z m0 10h-13.283333333333331v-3.283333333333335h13.283333333333331v3.2833333333333314z"></path></svg>