<?xml version="1.0"?><svg xmlns="http://www.w3.org/2000/svg" width="40" height="40" viewBox="0 0 40 40"><path d="m18.3 28.3c0 1 0.8 1.7 1.7 1.7s1.7-0.7 1.7-1.7-0.8-1.6-1.7-1.6-1.7 0.7-1.7 1.6z m0-23.3v6.7h3.4v-3.2c5.6 0.8 10 5.6 10 11.5 0 6.4-5.2 11.7-11.7 11.7s-11.7-5.2-11.7-11.7c0-2.8 1-5.4 2.7-7.4l9 9.1 2.4-2.4-11.4-11.3v0c-3.6 2.8-6 7.1-6 12 0 8.3 6.7 15 15 15 8.3 0 15-6.7 15-15s-6.7-15-15-15h-1.7z m11.7 15c0-0.9-0.7-1.7-1.7-1.7s-1.6 0.8-1.6 1.7 0.7 1.7 1.6 1.7 1.7-0.8 1.7-1.7z m-20 0c0 0.9 0.8 1.7 1.7 1.7s1.6-0.8 1.6-1.7-0.7-1.7-1.6-1.7-1.7 0.8-1.7 1.7z"></path></svg>