<?xml version="1.0"?><svg xmlns="http://www.w3.org/2000/svg" width="40" height="40" viewBox="0 0 40 40"><path d="m16.7 15c-0.9 0-1.7 0.8-1.7 1.7s0.8 1.6 1.7 1.6 1.6-0.7 1.6-1.6-0.7-1.7-1.6-1.7z m0 6.7c-0.9 0-1.7 0.7-1.7 1.6s0.8 1.7 1.7 1.7 1.6-0.7 1.6-1.7-0.7-1.6-1.6-1.6z m-5-5.9c-0.5 0-0.9 0.4-0.9 0.9s0.4 0.8 0.9 0.8 0.8-0.4 0.8-0.8-0.4-0.9-0.8-0.9z m5 11.7c-0.5 0-0.9 0.4-0.9 0.8s0.4 0.9 0.9 0.9 0.8-0.4 0.8-0.9-0.4-0.8-0.8-0.8z m-5-5c-0.5 0-0.9 0.4-0.9 0.8s0.4 0.9 0.9 0.9 0.8-0.4 0.8-0.9-0.4-0.8-0.8-0.8z m5-10c0.4 0 0.8-0.4 0.8-0.8s-0.4-0.9-0.8-0.9-0.9 0.4-0.9 0.9 0.4 0.8 0.9 0.8z m6.6 2.5c-0.9 0-1.6 0.8-1.6 1.7s0.7 1.6 1.6 1.6 1.7-0.7 1.7-1.6-0.7-1.7-1.7-1.7z m0-2.5c0.5 0 0.9-0.4 0.9-0.8s-0.4-0.9-0.9-0.9-0.8 0.4-0.8 0.9 0.4 0.8 0.8 0.8z m5 10c-0.4 0-0.8 0.4-0.8 0.8s0.4 0.9 0.8 0.9 0.9-0.4 0.9-0.9-0.4-0.8-0.9-0.8z m0-6.7c-0.4 0-0.8 0.4-0.8 0.9s0.4 0.8 0.8 0.8 0.9-0.4 0.9-0.8-0.4-0.9-0.9-0.9z m-8.3-12.5c-9.2 0-16.7 7.5-16.7 16.7s7.5 16.7 16.7 16.7 16.7-7.5 16.7-16.7-7.5-16.7-16.7-16.7z m0 30c-7.4 0-13.3-5.9-13.3-13.3s5.9-13.3 13.3-13.3 13.3 5.9 13.3 13.3-5.9 13.3-13.3 13.3z m3.3-5.8c-0.4 0-0.8 0.4-0.8 0.8s0.4 0.9 0.8 0.9 0.9-0.4 0.9-0.9-0.4-0.8-0.9-0.8z m0-5.8c-0.9 0-1.6 0.7-1.6 1.6s0.7 1.7 1.6 1.7 1.7-0.7 1.7-1.7-0.7-1.6-1.7-1.6z"></path></svg>