<?xml version="1.0"?><svg xmlns="http://www.w3.org/2000/svg" width="40" height="40" viewBox="0 0 40 40"><path d="m8.3 29.2c1.4 0 2.5-1.1 2.5-2.5s-1.1-2.5-2.5-2.5-2.5 1.1-2.5 2.5 1.2 2.5 2.5 2.5z m6.7-7.5c0.9 0 1.7-0.8 1.7-1.7s-0.8-1.7-1.7-1.7-1.7 0.8-1.7 1.7 0.8 1.7 1.7 1.7z m0-6.7c0.9 0 1.7-0.7 1.7-1.7s-0.8-1.6-1.7-1.6-1.7 0.7-1.7 1.6 0.8 1.7 1.7 1.7z m-10 20h30v-3.3h-30v3.3z m3.3-19.2c1.4 0 2.5-1.1 2.5-2.5s-1.1-2.5-2.5-2.5-2.5 1.2-2.5 2.5 1.2 2.5 2.5 2.5z m0 6.7c1.4 0 2.5-1.1 2.5-2.5s-1.1-2.5-2.5-2.5-2.5 1.1-2.5 2.5 1.2 2.5 2.5 2.5z m6.7 5.8c0.9 0 1.7-0.7 1.7-1.6s-0.8-1.7-1.7-1.7-1.7 0.8-1.7 1.7 0.8 1.6 1.7 1.6z m13.3-0.8c0.5 0 0.9-0.4 0.9-0.8s-0.4-0.9-0.9-0.9-0.8 0.4-0.8 0.9 0.4 0.8 0.8 0.8z m-23.3-22.5v3.3h30v-3.3h-30z m23.3 9.2c0.5 0 0.9-0.4 0.9-0.9s-0.4-0.8-0.9-0.8-0.8 0.4-0.8 0.8 0.4 0.9 0.8 0.9z m0 6.6c0.5 0 0.9-0.3 0.9-0.8s-0.4-0.8-0.9-0.8-0.8 0.3-0.8 0.8 0.4 0.8 0.8 0.8z m-6.6-5.8c0.9 0 1.6-0.7 1.6-1.7s-0.7-1.6-1.6-1.6-1.7 0.7-1.7 1.6 0.8 1.7 1.7 1.7z m0 6.7c0.9 0 1.6-0.8 1.6-1.7s-0.7-1.7-1.6-1.7-1.7 0.8-1.7 1.7 0.8 1.7 1.7 1.7z m0 6.6c0.9 0 1.6-0.7 1.6-1.6s-0.7-1.7-1.6-1.7-1.7 0.8-1.7 1.7 0.8 1.6 1.7 1.6z"></path></svg>