<?xml version="1.0"?><svg xmlns="http://www.w3.org/2000/svg" width="40" height="40" viewBox="0 0 40 40"><path d="m25 21.64v-3.2833333333333314h3.3599999999999994v3.2833333333333314h-3.3599999999999994z m0 13.36v-3.3599999999999994h3.3599999999999994v3.3599999999999994h-3.3599999999999994z m0-26.64v-3.3599999999999994h3.3599999999999994v3.3599999999999994h-3.3599999999999994z m6.640000000000004 6.640000000000001v-3.3599999999999994h3.359999999999996v3.3599999999999994h-3.3599999999999994z m0-10h3.359999999999996v3.3599999999999994h-3.3599999999999994v-3.3599999999999994z m0 16.64v-3.2833333333333314h3.359999999999996v3.2833333333333314h-3.3599999999999994z m0 13.36v-3.3599999999999994h3.359999999999996v3.3599999999999994h-3.3599999999999994z m-13.280000000000001 0v-30h3.283333333333335v30h-3.2833333333333314z m13.280000000000001-6.640000000000001v-3.3599999999999994h3.359999999999996v3.3599999999999994h-3.3599999999999994z m-20-20v-3.3599999999999994h3.359999999999996v3.3599999999999994h-3.3599999999999994z m-6.640000000000004 20v-3.3599999999999994h3.3599999999999994v3.3599999999999994h-3.3599999999999994z m0 6.640000000000001v-3.3599999999999994h3.3599999999999994v3.3599999999999994h-3.3599999999999994z m0-13.36v-3.2833333333333314h3.3599999999999994v3.2833333333333314h-3.3599999999999994z m6.640000000000001 0v-3.2833333333333314h3.3599999999999994v3.2833333333333314h-3.3599999999999994z m0 13.36v-3.3599999999999994h3.3599999999999994v3.3599999999999994h-3.3599999999999994z m-6.640000000000001-26.64v-3.3599999999999994h3.3599999999999994v3.3599999999999994h-3.3599999999999994z m0 6.640000000000001v-3.3599999999999994h3.3599999999999994v3.3599999999999994h-3.3599999999999994z"></path></svg>