<?xml version="1.0"?><svg xmlns="http://www.w3.org/2000/svg" width="40" height="40" viewBox="0 0 40 40"><path d="m11.7 35h3.3v-3.3h-3.3v3.3z m0-13.3h3.3v-3.4h-3.3v3.4z m6.6 0h3.4v-3.4h-3.4v3.4z m0 13.3h3.4v-3.3h-3.4v3.3z m-13.3-6.7h3.3v-3.3h-3.3v3.3z m0 6.7h3.3v-3.3h-3.3v3.3z m0-13.3h3.3v-3.4h-3.3v3.4z m0-6.7h3.3v-3.3h-3.3v3.3z m13.3 13.3h3.4v-3.3h-3.4v3.3z m13.4-13.3h3.3v-3.3h-3.3v3.3z m0 6.7h3.3v-3.4h-3.3v3.4z m-26.7-16.7v3.3h30v-3.3h-30z m26.7 23.3h3.3v-3.3h-3.3v3.3z m-6.7 6.7h3.3v-3.3h-3.3v3.3z m-6.7-20h3.4v-3.3h-3.4v3.3z m13.4 20h3.3v-3.3h-3.3v3.3z m-6.7-13.3h3.3v-3.4h-3.3v3.4z"></path></svg>