<?xml version="1.0"?><svg xmlns="http://www.w3.org/2000/svg" width="40" height="40" viewBox="0 0 40 40"><path d="m15 18.3h-3.3v3.4h3.3v-3.4z m6.7 6.7h-3.4v3.3h3.4v-3.3z m-6.7-20h-3.3v3.3h3.3v-3.3z m6.7 13.3h-3.4v3.4h3.4v-3.4z m-13.4-13.3h-3.3v3.3h3.3v-3.3z m13.4 6.7h-3.4v3.3h3.4v-3.3z m6.6 6.6h-3.3v3.4h3.3v-3.4z m-6.6-13.3h-3.4v3.3h3.4v-3.3z m6.6 0h-3.3v3.3h3.3v-3.3z m3.4 16.7h3.3v-3.4h-3.3v3.4z m0 6.6h3.3v-3.3h-3.3v3.3z m-23.4-16.6h-3.3v3.3h3.3v-3.3z m23.4-6.7v3.3h3.3v-3.3h-3.3z m0 10h3.3v-3.3h-3.3v3.3z m-23.4 3.3h-3.3v3.4h3.3v-3.4z m-3.3 16.7h30v-3.3h-30v3.3z m3.3-10h-3.3v3.3h3.3v-3.3z"></path></svg>