<?xml version="1.0"?><svg xmlns="http://www.w3.org/2000/svg" width="40" height="40" viewBox="0 0 40 40"><path fill="#444" d="m25 21.6v-3.2h3.4v3.2h-3.4z m6.6 13.4v-3.4h3.4v3.4h-3.4z m-13.2-20v-3.4h3.2v3.4h-3.2z m6.6 20v-3.4h3.4v3.4h-3.4z m6.6-6.6v-3.4h3.4v3.4h-3.4z m-26.6-23.4h30v3.4h-30v-3.4z m26.6 16.6v-3.2h3.4v3.2h-3.4z m0-6.6v-3.4h3.4v3.4h-3.4z m-13.2 13.4v-3.4h3.2v3.4h-3.2z m-13.4-13.4v-3.4h3.4v3.4h-3.4z m0 6.6v-3.2h3.4v3.2h-3.4z m0 13.4v-3.4h3.4v3.4h-3.4z m0-6.6v-3.4h3.4v3.4h-3.4z m13.4 6.6v-3.4h3.2v3.4h-3.2z m0-13.4v-3.2h3.2v3.2h-3.2z m-6.8 0v-3.2h3.4v3.2h-3.4z m0 13.4v-3.4h3.4v3.4h-3.4z"></path></svg>