<?xml version="1.0"?><svg xmlns="http://www.w3.org/2000/svg" width="40" height="40" viewBox="0 0 40 40"><path d="m18.3 35h3.4v-3.3h-3.4v3.3z m0-6.7h3.4v-3.3h-3.4v3.3z m0-20h3.4v-3.3h-3.4v3.3z m0 6.7h3.4v-3.3h-3.4v3.3z m0 6.7h3.4v-3.4h-3.4v3.4z m-6.6 13.3h3.3v-3.3h-3.3v3.3z m0-26.7h3.3v-3.3h-3.3v3.3z m0 13.4h3.3v-3.4h-3.3v3.4z m-6.7 13.3h3.3v-30h-3.3v30z m26.7-20h3.3v-3.3h-3.3v3.3z m-6.7 20h3.3v-3.3h-3.3v3.3z m6.7-6.7h3.3v-3.3h-3.3v3.3z m0-23.3v3.3h3.3v-3.3h-3.3z m0 16.7h3.3v-3.4h-3.3v3.4z m0 13.3h3.3v-3.3h-3.3v3.3z m-6.7-13.3h3.3v-3.4h-3.3v3.4z m0-13.4h3.3v-3.3h-3.3v3.3z"></path></svg>