<?xml version="1.0"?><svg xmlns="http://www.w3.org/2000/svg" width="40" height="40" viewBox="0 0 40 40"><path d="m5 35h3.3v-3.3h-3.3v3.3z m6.7 0h3.3v-3.3h-3.3v3.3z m-3.4-23.3h-3.3v3.3h3.3v-3.3z m-3.3 16.6h3.3v-3.3h-3.3v3.3z m10-23.3h-3.3v3.3h3.3v-3.3z m-6.7 0h-3.3v3.3h3.3v-3.3z m20 0h-3.3v3.3h3.3v-3.3z m3.4 10h3.3v-3.3h-3.3v3.3z m0-10v3.3h3.3v-3.3h-3.3z m-6.7 30h3.3v-3.3h-3.3v3.3z m-3.3-30h-3.4v13.3h-13.3v3.4h13.3v13.3h3.4v-13.3h13.3v-3.4h-13.3v-13.3z m10 30h3.3v-3.3h-3.3v3.3z m0-6.7h3.3v-3.3h-3.3v3.3z"></path></svg>