<?xml version="1.0"?><svg xmlns="http://www.w3.org/2000/svg" width="40" height="40" viewBox="0 0 40 40"><path fill="#444" d="m25 21.6v-3.2h3.4v3.2h-3.4z m0 13.4v-3.4h3.4v3.4h-3.4z m0-26.6v-3.4h3.4v3.4h-3.4z m6.6 6.6v-3.4h3.4v3.4h-3.4z m0-10h3.4v3.4h-3.4v-3.4z m0 16.6v-3.2h3.4v3.2h-3.4z m0 13.4v-3.4h3.4v3.4h-3.4z m-13.2 0v-30h3.2v30h-3.2z m13.2-6.6v-3.4h3.4v3.4h-3.4z m-20-20v-3.4h3.4v3.4h-3.4z m-6.6 20v-3.4h3.4v3.4h-3.4z m0 6.6v-3.4h3.4v3.4h-3.4z m0-13.4v-3.2h3.4v3.2h-3.4z m6.6 0v-3.2h3.4v3.2h-3.4z m0 13.4v-3.4h3.4v3.4h-3.4z m-6.6-26.6v-3.4h3.4v3.4h-3.4z m0 6.6v-3.4h3.4v3.4h-3.4z"></path></svg>