<?xml version="1.0"?><svg xmlns="http://www.w3.org/2000/svg" width="40" height="40" viewBox="0 0 40 40"><path fill="#444" d="m31.6 35v-3.4h3.4v3.4h-3.4z m-6.6 0v-3.4h3.4v3.4h-3.4z m-6.6-6.6v-3.4h3.2v3.4h-3.2z m13.2-13.4v-3.4h3.4v3.4h-3.4z m0-10h3.4v3.4h-3.4v-3.4z m-26.6 16.6v-3.2h30v3.2h-30z m13.4 13.4v-3.4h3.2v3.4h-3.2z m13.2-6.6v-3.4h3.4v3.4h-3.4z m-10-23.4v3.4h-3.2v-3.4h3.2z m0 6.6v3.4h-3.2v-3.4h3.2z m6.8-6.6v3.4h-3.4v-3.4h3.4z m-13.4 0v3.4h-3.4v-3.4h3.4z m-6.6 0v3.4h-3.4v-3.4h3.4z m3.2 30v-3.4h3.4v3.4h-3.4z m-6.6-6.6v-3.4h3.4v3.4h-3.4z m3.4-16.8v3.4h-3.4v-3.4h3.4z m-3.4 23.4v-3.4h3.4v3.4h-3.4z"></path></svg>