<?xml version="1.0"?><svg xmlns="http://www.w3.org/2000/svg" width="40" height="40" viewBox="0 0 40 40"><path d="m5 15h3.3v-3.3h-3.3v3.3z m0-6.7h3.3v-3.3h-3.3v3.3z m6.7 26.7h3.3v-3.3h-3.3v3.3z m0-13.3h3.3v-3.4h-3.3v3.4z m-6.7 0h3.3v-3.4h-3.3v3.4z m0 13.3h3.3v-3.3h-3.3v3.3z m0-6.7h3.3v-3.3h-3.3v3.3z m6.7-20h3.3v-3.3h-3.3v3.3z m20 20h3.3v-3.3h-3.3v3.3z m-13.4 6.7h3.4v-30h-3.4v30z m13.4 0h3.3v-3.3h-3.3v3.3z m0-13.3h3.3v-3.4h-3.3v3.4z m0-16.7v3.3h3.3v-3.3h-3.3z m0 10h3.3v-3.3h-3.3v3.3z m-6.7-6.7h3.3v-3.3h-3.3v3.3z m0 26.7h3.3v-3.3h-3.3v3.3z m0-13.3h3.3v-3.4h-3.3v3.4z"></path></svg>