<?xml version="1.0"?><svg xmlns="http://www.w3.org/2000/svg" width="40" height="40" viewBox="0 0 40 40"><path d="m33.3 13.3h-4.6c-0.8-1.3-1.8-2.4-3.1-3.2l2.7-2.7-2.3-2.4-3.6 3.6c-0.8-0.2-1.6-0.3-2.4-0.3-0.8 0-1.6 0.1-2.4 0.3l-3.6-3.6-2.3 2.4 2.7 2.7c-1.3 0.8-2.3 1.9-3.1 3.2h-4.6v3.4h3.5c-0.1 0.5-0.2 1.1-0.2 1.6v1.7h-3.3v3.3h3.3v1.7c0 0.6 0.1 1.1 0.2 1.7h-3.5v3.3h4.7c1.7 3 4.9 5 8.6 5s6.9-2 8.6-5h4.7v-3.3h-3.4c0-0.6 0.1-1.1 0.1-1.7v-1.7h3.3v-3.3h-3.3v-1.7c0-0.5-0.1-1.1-0.1-1.6h3.4v-3.4z m-10 13.4h-6.6v-3.4h6.6v3.4z m0-6.7h-6.6v-3.3h6.6v3.3z"></path></svg>