<?xml version="1.0"?><svg xmlns="http://www.w3.org/2000/svg" width="40" height="40" viewBox="0 0 40 40"><path d="m20 15c-2.7 0-5.2 0.4-7.7 1.2v5.2c0 0.6-0.3 1.2-0.9 1.5-1.6 0.8-3.1 1.8-4.4 3-0.3 0.4-0.7 0.5-1.2 0.5-0.5 0-0.9-0.2-1.2-0.5l-4.1-4.1c-0.3-0.3-0.5-0.7-0.5-1.2 0-0.4 0.2-0.8 0.5-1.2 5.1-4.8 11.9-7.7 19.5-7.7s14.4 2.9 19.5 7.8c0.3 0.3 0.5 0.7 0.5 1.1 0 0.5-0.2 0.9-0.5 1.2l-4.1 4.2c-0.3 0.3-0.7 0.4-1.2 0.4-0.4 0-0.9-0.1-1.2-0.4-1.3-1.3-2.8-2.3-4.4-3.1-0.6-0.3-0.9-0.8-0.9-1.5v-5.2c-2.4-0.8-5-1.2-7.7-1.2z"></path></svg>