<?xml version="1.0"?><svg xmlns="http://www.w3.org/2000/svg" width="40" height="40" viewBox="0 0 40 40"><path d="m15.7 17.5l7.9-13.8c-1.1-0.2-2.3-0.4-3.6-0.4-4 0-7.7 1.5-10.5 3.8l6.1 10.6 0.1-0.2z m20.2-2.5c-1.5-4.9-5.3-8.8-10-10.6l-6.1 10.6h16.1z m0.4 1.7h-12.5l0.5 0.8 8 13.8c2.7-3 4.4-6.9 4.4-11.3 0-1.1-0.1-2.2-0.4-3.3z m-22.1 3.3l-6.5-11.2c-2.7 2.9-4.4 6.9-4.4 11.2 0 1.1 0.2 2.3 0.4 3.3h12.5l-2-3.3z m-10.1 5c1.5 4.9 5.2 8.8 10 10.6l6.1-10.6h-16.1z m18.8 0l-6.5 11.3c1.2 0.2 2.4 0.4 3.6 0.4 4 0 7.7-1.4 10.5-3.8l-6.1-10.6-1.5 2.7z"></path></svg>