<?xml version="1.0"?><svg xmlns="http://www.w3.org/2000/svg" width="40" height="40" viewBox="0 0 40 40"><path d="m8.3 25h-3.3v6.7c0 1.8 1.5 3.3 3.3 3.3h6.7v-3.3h-6.7v-6.7z m0-16.7h6.7v-3.3h-6.7c-1.8 0-3.3 1.5-3.3 3.3v6.7h3.3v-6.7z m23.4-3.3h-6.7v3.3h6.7v6.7h3.3v-6.7c0-1.8-1.5-3.3-3.3-3.3z m0 26.7h-6.7v3.3h6.7c1.8 0 3.3-1.5 3.3-3.3v-6.7h-3.3v6.7z m-11.7-18.4c-3.7 0-6.7 3-6.7 6.7s3 6.7 6.7 6.7 6.7-3 6.7-6.7-3-6.7-6.7-6.7z m0 10c-1.8 0-3.3-1.5-3.3-3.3s1.5-3.3 3.3-3.3 3.3 1.5 3.3 3.3-1.5 3.3-3.3 3.3z"></path></svg>