<?xml version="1.0"?><svg xmlns="http://www.w3.org/2000/svg" width="40" height="40" viewBox="0 0 40 40"><path fill="#444" d="m20 23.4c1.8 0 3.4-1.6 3.4-3.4s-1.6-3.4-3.4-3.4-3.4 1.6-3.4 3.4 1.6 3.4 3.4 3.4z m0-10c3.7 0 6.6 2.9 6.6 6.6s-2.9 6.6-6.6 6.6-6.6-2.9-6.6-6.6 2.9-6.6 6.6-6.6z m11.6 18.2v-6.6h3.4v6.6c0 1.8-1.6 3.4-3.4 3.4h-6.6v-3.4h6.6z m0-26.6c1.8 0 3.4 1.6 3.4 3.4v6.6h-3.4v-6.6h-6.6v-3.4h6.6z m-23.2 3.4v6.6h-3.4v-6.6c0-1.8 1.6-3.4 3.4-3.4h6.6v3.4h-6.6z m0 16.6v6.6h6.6v3.4h-6.6c-1.8 0-3.4-1.6-3.4-3.4v-6.6h3.4z"></path></svg>