<?xml version="1.0"?><svg xmlns="http://www.w3.org/2000/svg" width="40" height="40" viewBox="0 0 40 40"><path d="m31.7 6.7h-23.4c-1.8 0-3.3 1.5-3.3 3.3v20c0 1.8 1.5 3.3 3.3 3.3h23.4c1.8 0 3.3-1.5 3.3-3.3v-20c0-1.8-1.5-3.3-3.3-3.3z m-13.4 11.6h-2.5v-0.8h-3.3v5h3.3v-0.8h2.5v1.6c0 1-0.7 1.7-1.6 1.7h-5c-0.9 0-1.7-0.7-1.7-1.7v-6.6c0-0.9 0.8-1.7 1.7-1.7h5c0.9 0 1.6 0.8 1.6 1.7v1.6z m11.7 0h-2.5v-0.8h-3.3v5h3.3v-0.8h2.5v1.6c0 1-0.7 1.7-1.7 1.7h-5c-0.9 0-1.6-0.7-1.6-1.7v-6.6c0-0.9 0.7-1.7 1.6-1.7h5c1 0 1.7 0.8 1.7 1.7v1.6z"></path></svg>