<?xml version="1.0"?><svg xmlns="http://www.w3.org/2000/svg" xmlns:xlink="http://www.w3.org/1999/xlink" width="40" height="40" viewBox="0 0 40 40"><defs><path id="a" d="m0 0h40v40h-40z"></path></defs><clipPath id="b"><use xlink:href="#a" overflow="visible"></use></clipPath><path d="m36.7 16.7v-6.7c0-1.8-1.5-3.3-3.4-3.3h-26.6c-1.9 0-3.3 1.4-3.3 3.3v6.7c1.8 0 3.3 1.5 3.3 3.3s-1.5 3.3-3.4 3.3v6.7c0 1.8 1.5 3.3 3.4 3.3h26.6c1.9 0 3.4-1.5 3.4-3.3v-6.7c-1.9 0-3.4-1.5-3.4-3.3s1.5-3.3 3.4-3.3z m-15 12.5h-3.4v-3.4h3.4v3.4z m0-7.5h-3.4v-3.4h3.4v3.4z m0-7.5h-3.4v-3.4h3.4v3.4z" clip-path="url(#b)"></path></svg>