<?xml version="1.0"?><svg xmlns="http://www.w3.org/2000/svg" width="40" height="40" viewBox="0 0 40 40"><path fill="#444" d="m20 1.6c1.8 0 3.4 1.6 3.4 3.4s-1.6 3.4-3.4 3.4-3.4-1.6-3.4-3.4 1.6-3.4 3.4-3.4z m0 10c1.8 0 3.4 1.6 3.4 3.4s-1.6 3.4-3.4 3.4-3.4-1.6-3.4-3.4 1.6-3.4 3.4-3.4z m10 0c1.8 0 3.4 1.6 3.4 3.4s-1.6 3.4-3.4 3.4-3.4-1.6-3.4-3.4 1.6-3.4 3.4-3.4z m0 10c1.8 0 3.4 1.6 3.4 3.4s-1.6 3.4-3.4 3.4-3.4-1.6-3.4-3.4 1.6-3.4 3.4-3.4z m-10 0c1.8 0 3.4 1.6 3.4 3.4s-1.6 3.4-3.4 3.4-3.4-1.6-3.4-3.4 1.6-3.4 3.4-3.4z m10-13.2c-1.8 0-3.4-1.6-3.4-3.4s1.6-3.4 3.4-3.4 3.4 1.6 3.4 3.4-1.6 3.4-3.4 3.4z m-20 13.2c1.8 0 3.4 1.6 3.4 3.4s-1.6 3.4-3.4 3.4-3.4-1.6-3.4-3.4 1.6-3.4 3.4-3.4z m0-10c1.8 0 3.4 1.6 3.4 3.4s-1.6 3.4-3.4 3.4-3.4-1.6-3.4-3.4 1.6-3.4 3.4-3.4z m0-10c1.8 0 3.4 1.6 3.4 3.4s-1.6 3.4-3.4 3.4-3.4-1.6-3.4-3.4 1.6-3.4 3.4-3.4z m10 30c1.8 0 3.4 1.6 3.4 3.4s-1.6 3.4-3.4 3.4-3.4-1.6-3.4-3.4 1.6-3.4 3.4-3.4z"></path></svg>