<?xml version="1.0"?><svg xmlns="http://www.w3.org/2000/svg" width="40" height="40" viewBox="0 0 40 40"><path d="m25.8 9.2c1.9 0 3.4-1.5 3.4-3.4s-1.5-3.3-3.4-3.3-3.3 1.5-3.3 3.3 1.5 3.4 3.3 3.4z m-17.5 10.8c-4.6 0-8.3 3.7-8.3 8.3s3.7 8.4 8.3 8.4 8.4-3.7 8.4-8.4-3.7-8.3-8.4-8.3z m0 14.2c-3.1 0-5.8-2.7-5.8-5.9s2.7-5.8 5.8-5.8 5.9 2.7 5.9 5.8-2.7 5.9-5.9 5.9z m9.7-16.7l4-4 1.3 1.3c2.2 2.2 5 3.5 8.5 3.5v-3.3c-2.5 0-4.5-1-6-2.5l-3.1-3.2c-0.9-0.6-1.7-1-2.7-1s-1.8 0.4-2.3 1l-4.7 4.7c-0.7 0.7-1 1.5-1 2.3 0 1 0.3 1.9 1 2.4l5.3 4.6v8.4h3.4v-10.4l-3.7-3.8z m13.7 2.5c-4.7 0-8.4 3.7-8.4 8.3s3.7 8.4 8.4 8.4 8.3-3.7 8.3-8.4-3.7-8.3-8.3-8.3z m0 14.2c-3.2 0-5.9-2.7-5.9-5.9s2.7-5.8 5.9-5.8 5.8 2.7 5.8 5.8-2.7 5.9-5.8 5.9z"></path></svg>