<?xml version="1.0"?><svg xmlns="http://www.w3.org/2000/svg" width="40" height="40" viewBox="0 0 40 40"><path d="m33.3 21.7h-26.6c-0.9 0-1.7 0.7-1.7 1.6v10c0 1 0.8 1.7 1.7 1.7h26.6c1 0 1.7-0.7 1.7-1.7v-10c0-0.9-0.7-1.6-1.7-1.6z m-21.6 10c-1.9 0-3.4-1.5-3.4-3.4s1.5-3.3 3.4-3.3 3.3 1.5 3.3 3.3-1.5 3.4-3.3 3.4z m21.6-26.7h-26.6c-0.9 0-1.7 0.8-1.7 1.7v10c0 0.9 0.8 1.6 1.7 1.6h26.6c1 0 1.7-0.7 1.7-1.6v-10c0-0.9-0.7-1.7-1.7-1.7z m-21.6 10c-1.9 0-3.4-1.5-3.4-3.3s1.5-3.4 3.4-3.4 3.3 1.5 3.3 3.4-1.5 3.3-3.3 3.3z"></path></svg>