<?xml version="1.0"?><svg xmlns="http://www.w3.org/2000/svg" width="40" height="40" viewBox="0 0 40 40"><path fill="#444" d="m11.6 15c1.8 0 3.4-1.6 3.4-3.4s-1.6-3.2-3.4-3.2-3.2 1.4-3.2 3.2 1.4 3.4 3.2 3.4z m21.8-10c0.9 0 1.6 0.7 1.6 1.6v10c0 1-0.7 1.8-1.6 1.8h-26.8c-0.9 0-1.6-0.8-1.6-1.8v-10c0-0.9 0.7-1.6 1.6-1.6h26.8z m-21.8 26.6c1.8 0 3.4-1.4 3.4-3.2s-1.6-3.4-3.4-3.4-3.2 1.6-3.2 3.4 1.4 3.2 3.2 3.2z m21.8-10c0.9 0 1.6 0.8 1.6 1.8v10c0 0.9-0.7 1.6-1.6 1.6h-26.8c-0.9 0-1.6-0.7-1.6-1.6v-10c0-1 0.7-1.8 1.6-1.8h26.8z"></path></svg>