<?xml version="1.0"?><svg xmlns="http://www.w3.org/2000/svg" width="40" height="40" viewBox="0 0 40 40"><path d="m20 11.7v-6.7h-16.7v30h33.4v-23.3h-16.7z m-10 20h-3.3v-3.4h3.3v3.4z m0-6.7h-3.3v-3.3h3.3v3.3z m0-6.7h-3.3v-3.3h3.3v3.3z m0-6.6h-3.3v-3.4h3.3v3.4z m6.7 20h-3.4v-3.4h3.4v3.4z m0-6.7h-3.4v-3.3h3.4v3.3z m0-6.7h-3.4v-3.3h3.4v3.3z m0-6.6h-3.4v-3.4h3.4v3.4z m16.6 20h-13.3v-3.4h3.3v-3.3h-3.3v-3.3h3.3v-3.4h-3.3v-3.3h13.3v16.7z m-3.3-13.4h-3.3v3.4h3.3v-3.4z m0 6.7h-3.3v3.3h3.3v-3.3z"></path></svg>