<?xml version="1.0"?><svg xmlns="http://www.w3.org/2000/svg" width="40" height="40" viewBox="0 0 40 40"><path d="m26.9 20.8c0 1.7-0.2 3.1-0.5 4.3-0.3 1.2-0.8 2.1-1.4 2.8-0.6 0.8-1.3 1.3-2.1 1.6-0.9 0.3-1.8 0.5-2.9 0.5-1 0-1.9-0.2-2.8-0.5-0.8-0.3-1.6-0.9-2.2-1.6-0.6-0.7-1.1-1.7-1.4-2.8-0.3-1.2-0.5-2.6-0.5-4.3v-3.4c0-1.6 0.2-3 0.5-4.2 0.3-1.2 0.8-2.1 1.4-2.8 0.6-0.7 1.3-1.3 2.2-1.6 0.8-0.3 1.8-0.5 2.8-0.5 1.1 0 2 0.2 2.8 0.5 0.9 0.3 1.6 0.9 2.2 1.6 0.6 0.7 1.1 1.6 1.4 2.8 0.3 1.1 0.5 2.6 0.5 4.2v3.4z m-3.5-3.9c0-1.1-0.1-2-0.2-2.7-0.2-0.7-0.4-1.3-0.7-1.8-0.3-0.4-0.6-0.7-1.1-0.9-0.4-0.2-0.9-0.3-1.4-0.3-0.5 0-1 0.1-1.4 0.3s-0.8 0.5-1.1 0.9c-0.3 0.5-0.5 1.1-0.7 1.8s-0.2 1.6-0.2 2.7v4.4c0 1.1 0.1 2 0.3 2.7 0.1 0.8 0.3 1.4 0.6 1.9s0.7 0.8 1.1 1 0.9 0.3 1.4 0.3c0.6 0 1.1-0.1 1.5-0.3s0.8-0.6 1-1c0.3-0.5 0.5-1.1 0.7-1.9 0.1-0.7 0.2-1.6 0.2-2.7v-4.4z"></path></svg>