<?xml version="1.0"?><svg xmlns="http://www.w3.org/2000/svg" width="40" height="40" viewBox="0 0 40 40"><path d="m15 19.6c-1.2 0-2.1 0.9-2.1 2.1s0.9 2.1 2.1 2.1 2.1-1 2.1-2.1-1-2.1-2.1-2.1z m10 0c-1.1 0-2.1 0.9-2.1 2.1s1 2.1 2.1 2.1 2.1-1 2.1-2.1-1-2.1-2.1-2.1z m-5-16.3c-9.2 0-16.7 7.5-16.7 16.7s7.5 16.7 16.7 16.7 16.7-7.5 16.7-16.7-7.5-16.7-16.7-16.7z m0 30c-7.4 0-13.3-5.9-13.3-13.3 0-0.5 0-1 0-1.4 4-1.8 7.1-5 8.7-9 3.1 4.3 8 7.1 13.6 7.1 1.3 0 2.6-0.2 3.8-0.5 0.3 1.2 0.5 2.5 0.5 3.8 0 7.4-5.9 13.3-13.3 13.3z"></path></svg>