<?xml version="1.0"?><svg xmlns="http://www.w3.org/2000/svg" width="40" height="40" viewBox="0 0 40 40"><path fill="#444" d="m35 19.1v-1.6c0-1.4-1.1-2.5-2.5-2.5h-5.9v10h2.5v-3.4h2l1.4 3.4h2.5l-1.5-3.5c0.9-0.4 1.5-1.3 1.5-2.4z m-14 5.9l3-10h-2.5l-1.7 5.7-1.7-5.7h-2.5l2.9 10h2.5z m-7.6-2.5v-5c0-1.4-1.1-2.5-2.5-2.5h-5.9v10h5.9c1.4 0 2.5-1.1 2.5-2.5z m21.6-17.5c1.9 0 3.4 1.5 3.4 3.4v23.2c0 1.8-1.5 3.4-3.4 3.4h-30c-1.9 0-3.4-1.6-3.4-3.4v-23.2c0-1.9 1.5-3.4 3.4-3.4h30z m-27.5 12.5h3.4v5h-3.4v-5z m21.6 0h3.4v1.6h-3.4v-1.6z"></path></svg>