<?xml version="1.0"?><svg xmlns="http://www.w3.org/2000/svg" width="40" height="40" viewBox="0 0 40 40"><path d="m31.2 20.7c-0.5-0.3-1-0.5-1.5-0.7 0.5-0.2 1-0.4 1.5-0.7 3.2-1.8 5-5.2 5-8.6-3-1.7-6.8-1.9-10 0-0.5 0.2-0.9 0.6-1.3 0.9 0.1-0.5 0.1-1.1 0.1-1.6 0-3.7-2-6.9-5-8.7-3 1.8-5 5-5 8.7 0 0.5 0.1 1.1 0.1 1.6-0.4-0.3-0.8-0.7-1.3-0.9-3.2-1.9-7-1.7-10 0 0 3.4 1.8 6.8 5 8.6 0.5 0.3 1 0.5 1.5 0.7-0.5 0.2-1 0.4-1.5 0.7-3.2 1.8-5 5.2-5 8.6 3 1.7 6.8 1.9 10 0 0.5-0.3 0.9-0.6 1.3-0.9-0.1 0.5-0.1 1.1-0.1 1.6 0 3.7 2 6.9 5 8.7 3-1.8 5-5 5-8.7 0-0.5-0.1-1.1-0.1-1.6 0.4 0.4 0.8 0.7 1.3 0.9 3.2 1.9 7 1.7 10 0 0-3.4-1.8-6.8-5-8.6z m-11.2 6c-3.7 0-6.7-3-6.7-6.7s3-6.7 6.7-6.7 6.7 3 6.7 6.7-3 6.7-6.7 6.7z"></path></svg>