<?xml version="1.0"?><svg xmlns="http://www.w3.org/2000/svg" width="40" height="40" viewBox="0 0 40 40"><path fill="#444" d="m35 15v-10h-23.4v23.4h23.4v-10h-3.4v3.2h-3.2v-3.2h-3.4v-3.4h3.4v-3.4h3.2v3.4h3.4z m0-13.4c1.8 0 3.4 1.6 3.4 3.4v23.4c0 1.8-1.6 3.2-3.4 3.2h-23.4c-1.8 0-3.2-1.4-3.2-3.2v-23.4c0-1.8 1.4-3.4 3.2-3.4h23.4z m-16.6 13.4h1.6v-1.6h-1.6v1.6z m5 5c0 1.9-1.6 3.4-3.4 3.4h-5v-3.4h5v-1.6h-1.6c-1.8 0-3.4-1.5-3.4-3.4v-1.6c0-1.9 1.6-3.4 3.4-3.4h1.6c1.8 0 3.4 1.5 3.4 3.4v6.6z m-18.4-11.6v26.6h26.6v3.4h-26.6c-1.8 0-3.4-1.6-3.4-3.4v-26.6h3.4z"></path></svg>