<?xml version="1.0"?><svg xmlns="http://www.w3.org/2000/svg" xmlns:xlink="http://www.w3.org/1999/xlink" width="40" height="40" viewBox="0 0 40 40"><defs><path id="a" d="m40 40h-40v-40h40v40z"></path></defs><clipPath id="b"><use xlink:href="#a" overflow="visible"></use></clipPath><path d="m6.7 21.7c0 7.3 6 13.3 13.3 13.3s13.3-6 13.3-13.3h-3.3c0 5.5-4.5 10-10 10s-10-4.5-10-10 4.5-10 10-10v6.6l8.3-8.3-8.3-8.3v6.6c-7.3 0-13.3 6-13.3 13.4z m11.3 5h-1.3v-5.5l-1.7 0.5v-1.2l3-1h0.2v7.2z m7.2-3c0 0.5 0 1-0.2 1.3l-0.5 1s-0.5 0.5-0.8 0.5-0.7 0.2-1 0.2-0.7 0-1-0.2-0.5-0.3-0.9-0.5-0.3-0.5-0.5-1-0.1-0.8-0.1-1.3v-1.2c0-0.5 0-1 0.1-1.3l0.5-1s0.5-0.5 0.9-0.5 0.6-0.2 1-0.2 0.6 0 1 0.2 0.5 0.3 0.8 0.5 0.3 0.5 0.5 1 0.2 0.8 0.2 1.3v1.2z m-1.4-1.4v-0.8s-0.1-0.3-0.1-0.5-0.2-0.2-0.4-0.3-0.3-0.2-0.5-0.2-0.3 0-0.5 0.2l-0.3 0.3s-0.2 0.3-0.2 0.5v3.3s0.2 0.4 0.2 0.5 0.2 0.2 0.3 0.4 0.4 0.1 0.5 0.1 0.4 0 0.5-0.1l0.4-0.4s0.1-0.3 0.1-0.5v-2.5z" clip-path="url(#b)"></path></svg>