<?xml version="1.0"?><svg xmlns="http://www.w3.org/2000/svg" width="40" height="40" viewBox="0 0 40 40"><path d="m7.7 11.5c1.1-1.2 2.3-2.3 2.8-2.1 0.8 0.4 0 1.8-0.5 2.6-0.4 0.7-4.8 6.5-4.8 10.5 0 2.1 0.8 3.9 2.3 5 1.2 0.9 2.9 1.2 4.4 0.7 1.8-0.5 3.2-2.3 5.1-4.6 2-2.5 4.7-5.7 6.8-5.7 2.7 0 2.7 1.7 2.9 3-6.3 1-9 6.1-9 8.9 0 2.9 2.4 5.2 5.4 5.2 2.7 0 7.1-2.2 7.8-10.2h4.1v-4.2h-4.1c-0.3-2.7-1.8-7-6.7-7-3.8 0-7 3.2-8.3 4.8-0.9 1.2-3.4 4.1-3.8 4.5-0.4 0.5-1.1 1.4-1.8 1.4-0.8 0-1.2-1.4-0.6-3.2 0.5-1.8 2.3-4.8 3-5.9 1.3-1.9 2.2-3.2 2.2-5.4 0-3.6-2.7-4.8-4.2-4.8-2.2 0-4.1 1.7-4.5 2.1-0.6 0.6-1.1 1.1-1.5 1.5l3 2.9z m15.4 19.4c-0.5 0-1.2-0.4-1.2-1.2 0-1 1.2-3.7 4.8-4.6-0.5 4.5-2.4 5.8-3.6 5.8z"></path></svg>