<?xml version="1.0"?><svg xmlns="http://www.w3.org/2000/svg" width="40" height="40" viewBox="0 0 40 40"><path d="m33.36 13.360000000000001v-6.716666666666668h-6.716666666666669v6.716666666666668h6.716666666666669z m0 9.999999999999998v-6.716666666666669h-6.716666666666669v6.716666666666669h6.716666666666669z m0 10v-6.716666666666669h-6.716666666666669v6.716666666666669h6.716666666666669z m-10-20v-6.716666666666668h-6.716666666666669v6.716666666666668h6.716666666666669z m0 10v-6.716666666666669h-6.716666666666669v6.716666666666669h6.716666666666669z m0 10v-6.716666666666669h-6.716666666666669v6.716666666666669h6.716666666666669z m-10-20v-6.716666666666668h-6.716666666666668v6.716666666666668h6.716666666666668z m0 10v-6.716666666666669h-6.716666666666668v6.716666666666669h6.716666666666668z m0 10v-6.716666666666669h-6.716666666666668v6.716666666666669h6.716666666666668z m20-30q1.3283333333333331 0 2.3049999999999997 0.9766666666666666t0.9750000000000014 2.3049999999999997v26.71666666666667q0 1.3299999999999983-0.9766666666666666 2.306666666666665t-2.306666666666665 0.9750000000000014h-26.713333333333335q-1.330000000000001 0-2.3066666666666675-0.9766666666666666t-0.9766666666666666-2.306666666666665v-26.713333333333335q0-1.330000000000001 0.9766666666666666-2.3066666666666675t2.3050000000000006-0.9766666666666666h26.71666666666667z"></path></svg>