<?xml version="1.0"?><svg xmlns="http://www.w3.org/2000/svg" width="40" height="40" viewBox="0 0 40 40"><path d="m29.6 20l6.6-6.6c0.6-0.6 0.6-1.7 0-2.3l-7.2-7.3c-0.7-0.6-1.7-0.6-2.4 0l-6.6 6.7-6.7-6.7c-0.3-0.3-0.7-0.5-1.1-0.5-0.5 0-0.9 0.2-1.2 0.5l-7.2 7.3c-0.7 0.6-0.7 1.7 0 2.3l6.6 6.6-6.6 6.7c-0.7 0.6-0.7 1.7 0 2.3l7.2 7.3c0.6 0.6 1.7 0.6 2.3 0l6.7-6.7 6.6 6.7c0.3 0.3 0.8 0.4 1.2 0.4 0.4 0 0.8-0.1 1.2-0.4l7.2-7.3c0.7-0.6 0.7-1.7 0-2.3l-6.6-6.7z m-9.6-5c0.9 0 1.7 0.8 1.7 1.7s-0.8 1.6-1.7 1.6-1.7-0.7-1.7-1.6 0.8-1.7 1.7-1.7z m-7.9 3.3l-6-6.1 6.1-6 6 6-6.1 6.1z m4.6 3.4c-0.9 0-1.7-0.8-1.7-1.7s0.8-1.7 1.7-1.7 1.6 0.8 1.6 1.7-0.7 1.7-1.6 1.7z m3.3 3.3c-0.9 0-1.7-0.7-1.7-1.7s0.8-1.6 1.7-1.6 1.7 0.7 1.7 1.6-0.8 1.7-1.7 1.7z m3.3-6.7c1 0 1.7 0.8 1.7 1.7s-0.7 1.7-1.7 1.7-1.6-0.8-1.6-1.7 0.7-1.7 1.6-1.7z m4.5 15.6l-6.1-6 6.1-6.1 6 6-6 6.1z"></path></svg>