<?xml version="1.0"?><svg xmlns="http://www.w3.org/2000/svg" width="40" height="40" viewBox="0 0 40 40"><path d="m28.3 33.3c-0.4 0-0.9-0.1-1.2-0.2-1.2-0.6-2-1.5-2.9-4-0.8-2.6-2.4-3.8-4-5-1.3-1-2.6-2-3.8-4.2-0.9-1.6-1.4-3.3-1.4-4.9 0-4.7 3.7-8.3 8.3-8.3s8.4 3.6 8.4 8.3h3.3c0-6.6-5.1-11.7-11.7-11.7s-11.6 5.2-11.6 11.7c0 2.1 0.6 4.4 1.8 6.5 1.5 2.8 3.3 4.1 4.7 5.3 1.4 1 2.3 1.7 2.9 3.4 1 3 2.2 4.7 4.5 5.9 0.9 0.4 1.8 0.6 2.7 0.6 3.7 0 6.7-3 6.7-6.7h-3.3c0 1.8-1.5 3.3-3.4 3.3z m-15.6-28.9l-2.3-2.4c-3.3 3.4-5.4 7.9-5.4 13s2.1 9.6 5.4 13l2.3-2.4c-2.7-2.7-4.4-6.4-4.4-10.6s1.7-7.9 4.4-10.6z m6.5 10.6c0 2.3 1.8 4.2 4.1 4.2s4.2-1.9 4.2-4.2-1.9-4.2-4.2-4.2-4.1 1.9-4.1 4.2z"></path></svg>