<?xml version="1.0"?><svg xmlns="http://www.w3.org/2000/svg" width="40" height="40" viewBox="0 0 40 40"><path fill="#444" d="m20 38.4l-6.6-6.8h13.2z m11.6-25v-3.4h-3.2v3.4h3.2z m0 5v-3.4h-3.2v3.4h3.2z m-5-5v-3.4h-3.2v3.4h3.2z m0 5v-3.4h-3.2v3.4h3.2z m0 6.6v-3.4h-13.2v3.4h13.2z m-15-11.6v-3.4h-3.2v3.4h3.2z m0 5v-3.4h-3.2v3.4h3.2z m1.8-3.4v3.4h3.2v-3.4h-3.2z m0-5v3.4h3.2v-3.4h-3.2z m5 5v3.4h3.2v-3.4h-3.2z m0-5v3.4h3.2v-3.4h-3.2z m15-5c1.8 0 3.2 1.6 3.2 3.4v16.6c0 1.8-1.4 3.4-3.2 3.4h-26.8c-1.8 0-3.2-1.6-3.2-3.4v-16.6c0-1.8 1.4-3.4 3.2-3.4h26.8z"></path></svg>