<?xml version="1.0"?><svg xmlns="http://www.w3.org/2000/svg" width="40" height="40" viewBox="0 0 40 40"><path fill="#444" d="m20 16.64q1.3283333333333331 0 2.3433333333333337 1.0166666666666657t1.0166666666666657 2.3416666666666686-1.0166666666666657 2.3416666666666686-2.3433333333333337 1.0166666666666657-2.3433333333333337-1.0166666666666657-1.0166666666666657-2.3400000000000034 1.0166666666666657-2.344999999999999 2.3433333333333337-1.0166666666666657z m10 0q1.3283333333333331 0 2.3433333333333337 1.0166666666666657t1.0166666666666657 2.3416666666666686-1.0166666666666657 2.3416666666666686-2.3433333333333337 1.0166666666666657-2.3433333333333337-1.0166666666666657-1.0166666666666657-2.3433333333333337 1.0166666666666657-2.344999999999999 2.3433333333333337-1.0133333333333354z m-20 0q1.3283333333333331 0 2.3433333333333337 1.0166666666666657t1.0166666666666657 2.3416666666666686-1.0166666666666657 2.3416666666666686-2.3433333333333337 1.0166666666666657-2.3433333333333337-1.0166666666666657-1.0166666666666657-2.3400000000000034 1.0166666666666666-2.344999999999999 2.343333333333333-1.0166666666666657z"></path></svg>