<?xml version="1.0"?><svg xmlns="http://www.w3.org/2000/svg" width="40" height="40" viewBox="0 0 40 40"><path d="m33.3 5h-26.6c-1.9 0-3.3 1.5-3.3 3.3l-0.1 16.7c0 1.8 1.5 3.3 3.4 3.3h26.6c1.9 0 3.4-1.5 3.4-3.3v-16.7c0-1.8-1.5-3.3-3.4-3.3z m-15 5h3.4v3.3h-3.4v-3.3z m0 5h3.4v3.3h-3.4v-3.3z m-5-5h3.4v3.3h-3.4v-3.3z m0 5h3.4v3.3h-3.4v-3.3z m-1.6 3.3h-3.4v-3.3h3.4v3.3z m0-5h-3.4v-3.3h3.4v3.3z m15 11.7h-13.4v-3.3h13.4v3.3z m0-6.7h-3.4v-3.3h3.4v3.3z m0-5h-3.4v-3.3h3.4v3.3z m5 5h-3.4v-3.3h3.4v3.3z m0-5h-3.4v-3.3h3.4v3.3z m-11.7 25l6.7-6.6h-13.4l6.7 6.6z"></path></svg>