<?xml version="1.0"?><svg xmlns="http://www.w3.org/2000/svg" width="40" height="40" viewBox="0 0 40 40"><path fill="#444" d="m31.6 16.6v-3.2h-3.2v3.2h3.2z m0 5v-3.2h-3.2v3.2h3.2z m-5-5v-3.2h-3.2v3.2h3.2z m0 5v-3.2h-3.2v3.2h3.2z m0 6.8v-3.4h-13.2v3.4h13.2z m-15-11.8v-3.2h-3.2v3.2h3.2z m0 5v-3.2h-3.2v3.2h3.2z m1.8-3.2v3.2h3.2v-3.2h-3.2z m0-5v3.2h3.2v-3.2h-3.2z m5 5v3.2h3.2v-3.2h-3.2z m0-5v3.2h3.2v-3.2h-3.2z m15-5c1.8 0 3.2 1.4 3.2 3.2v16.8c0 1.8-1.4 3.2-3.2 3.2h-26.8c-1.8 0-3.2-1.4-3.2-3.2v-16.8c0-1.8 1.4-3.2 3.2-3.2h26.8z"></path></svg>