<?xml version="1.0"?><svg xmlns="http://www.w3.org/2000/svg" width="40" height="40" viewBox="0 0 40 40"><path d="m20 3.3c-9.2 0-16.7 7.5-16.7 16.7s7.5 16.7 16.7 16.7c9.2 0 16.7-7.5 16.7-16.7s-7.5-16.7-16.7-16.7z m11.5 10h-4.9c-0.5-2-1.3-4-2.3-5.9 3.1 1.1 5.6 3.2 7.2 5.9z m-11.5-6.6c1.4 2 2.5 4.2 3.2 6.6h-6.4c0.7-2.3 1.8-4.6 3.2-6.6z m-12.9 16.6c-0.3-1-0.4-2.2-0.4-3.3s0.1-2.3 0.4-3.3h5.6c-0.1 1.1-0.2 2.2-0.2 3.3 0 1.1 0.1 2.2 0.2 3.3h-5.6z m1.4 3.4h4.9c0.5 2.1 1.3 4.1 2.3 5.9-3.1-1-5.6-3.2-7.2-5.9z m4.9-13.4h-4.9c1.6-2.7 4.1-4.9 7.2-5.9-1 1.9-1.8 3.9-2.3 5.9z m6.6 20c-1.4-2-2.5-4.2-3.2-6.6h6.4c-0.7 2.4-1.8 4.6-3.2 6.6z m3.9-10h-7.8c-0.1-1.1-0.3-2.2-0.3-3.3 0-1.1 0.2-2.2 0.3-3.3h7.8c0.2 1.1 0.3 2.2 0.3 3.3 0 1.1-0.1 2.2-0.3 3.3z m0.4 9.3c1-1.8 1.8-3.8 2.3-5.9h4.9c-1.6 2.7-4.1 4.9-7.2 5.9z m3-9.3c0.1-1.1 0.2-2.2 0.2-3.3 0-1.1-0.1-2.2-0.2-3.3h5.6c0.3 1 0.4 2.2 0.4 3.3s-0.1 2.3-0.4 3.3h-5.6z"></path></svg>