<?xml version="1.0"?><svg xmlns="http://www.w3.org/2000/svg" width="40" height="40" viewBox="0 0 40 40"><path fill="#444" d="m20 33.4c5.5 0 10-4.5 10-10s-4.5-10-10-10-10 4.4-10 10 4.5 10 10 10z m-8.4-26.8c-0.9 0-1.6 0.8-1.6 1.8s0.7 1.6 1.6 1.6 1.8-0.7 1.8-1.6-0.8-1.8-1.8-1.8z m5 0c-0.9 0-1.6 0.8-1.6 1.8s0.7 1.6 1.6 1.6 1.8-0.7 1.8-1.6-0.8-1.8-1.8-1.8z m13.4-3.2c1.9 0 3.4 1.4 3.4 3.2v26.8c0 1.8-1.5 3.2-3.4 3.2h-20c-1.9 0-3.4-1.4-3.4-3.2v-26.8c0-1.8 1.5-3.2 3.4-3.2h20z m-14.7 24.6l9.4-9.4c2.6 2.6 2.6 6.9 0 9.4s-6.8 2.6-9.4 0z"></path></svg>