<?xml version="1.0"?><svg xmlns="http://www.w3.org/2000/svg" width="40" height="40" viewBox="0 0 40 40"><path d="m20 36.7c8.3 0 15-6.7 15-15-8.3 0-15 6.7-15 15z m-10.7-19.6c0 2.3 1.9 4.2 4.2 4.2 0.9 0 1.7-0.3 2.4-0.8l-0.1 0.3c0 2.3 1.9 4.2 4.2 4.2s4.2-1.9 4.2-4.2l-0.1-0.3c0.7 0.5 1.5 0.8 2.4 0.8 2.3 0 4.2-1.9 4.2-4.2 0-1.7-1-3.1-2.4-3.8 1.4-0.6 2.4-2 2.4-3.7 0-2.3-1.9-4.2-4.2-4.2-0.9 0-1.7 0.3-2.4 0.8l0.1-0.4c0-2.3-1.9-4.1-4.2-4.1s-4.2 1.8-4.2 4.1l0.1 0.4c-0.7-0.5-1.5-0.8-2.4-0.8-2.3 0-4.2 1.9-4.2 4.2 0 1.7 1 3.1 2.4 3.7-1.4 0.7-2.4 2.1-2.4 3.8z m10.7-7.9c2.3 0 4.2 1.8 4.2 4.1s-1.9 4.2-4.2 4.2-4.2-1.9-4.2-4.2 1.9-4.1 4.2-4.1z m-15 12.5c0 8.3 6.7 15 15 15 0-8.3-6.7-15-15-15z"></path></svg>