<?xml version="1.0"?><svg xmlns="http://www.w3.org/2000/svg" width="40" height="40" viewBox="0 0 40 40"><path d="m20 3.3c-9.2 0-16.7 7.5-16.7 16.7s7.5 16.7 16.7 16.7c9.2 0 16.7-7.5 16.7-16.7s-7.5-16.7-16.7-16.7z m0 30c-7.4 0-13.3-5.9-13.3-13.3s5.9-13.3 13.3-13.3 13.3 5.9 13.3 13.3-5.9 13.3-13.3 13.3z m5.8-15c1.4 0 2.5-1.1 2.5-2.5s-1.1-2.5-2.5-2.5-2.5 1.2-2.5 2.5 1.2 2.5 2.5 2.5z m-11.6 0c1.4 0 2.5-1.1 2.5-2.5s-1.1-2.5-2.5-2.5-2.5 1.2-2.5 2.5 1.1 2.5 2.5 2.5z m5.8 5c-3.9 0-7.2 2.5-8.5 5.9h17c-1.3-3.4-4.6-5.9-8.5-5.9z"></path></svg>