<?xml version="1.0"?><svg xmlns="http://www.w3.org/2000/svg" width="40" height="40" viewBox="0 0 40 40"><path d="m11 6l-2.4-2.4c-4 3-6.6 7.7-6.9 13.1h3.4c0.2-4.4 2.5-8.3 5.9-10.7z m22.3 10.7h3.3c-0.2-5.4-2.9-10.1-6.9-13.1l-2.3 2.4c3.4 2.4 5.6 6.3 5.9 10.7z m-3.3 0.8c0-5.1-3.6-9.4-8.3-10.5v-1.2c0-1.3-1.2-2.5-2.5-2.5s-2.5 1.2-2.5 2.5v1.2c-4.8 1.1-8.4 5.4-8.4 10.5v9.2l-3.3 3.3v1.7h28.3v-1.7l-3.3-3.3v-9.2z m-10.8 19.2c0.2 0 0.4 0 0.6-0.1 1.1-0.2 2-1 2.4-2 0.2-0.4 0.3-0.8 0.3-1.3h-6.7c0 1.9 1.5 3.4 3.4 3.4z"></path></svg>