<?xml version="1.0"?><svg xmlns="http://www.w3.org/2000/svg" width="40" height="40" viewBox="0 0 40 40"><path d="m20 5c-8.3 0-15 6.7-15 15s6.7 15 15 15c1.4 0 2.5-1.1 2.5-2.5 0-0.6-0.2-1.2-0.6-1.7-0.4-0.4-0.7-1-0.7-1.6 0-1.4 1.1-2.5 2.5-2.5h3c4.6 0 8.3-3.8 8.3-8.4 0-7.3-6.7-13.3-15-13.3z m-9.2 15c-1.4 0-2.5-1.1-2.5-2.5s1.2-2.5 2.5-2.5 2.5 1.1 2.5 2.5-1.1 2.5-2.5 2.5z m5-6.7c-1.3 0-2.5-1.1-2.5-2.5s1.2-2.5 2.5-2.5 2.5 1.2 2.5 2.5-1.1 2.5-2.5 2.5z m8.4 0c-1.4 0-2.5-1.1-2.5-2.5s1.1-2.5 2.5-2.5 2.5 1.2 2.5 2.5-1.1 2.5-2.5 2.5z m5 6.7c-1.4 0-2.5-1.1-2.5-2.5s1.1-2.5 2.5-2.5 2.5 1.1 2.5 2.5-1.1 2.5-2.5 2.5z"></path></svg>