<?xml version="1.0"?><svg xmlns="http://www.w3.org/2000/svg" width="40" height="40" viewBox="0 0 40 40"><path d="m20 10c4.1 0 7.9 0.3 12.1 1.1 0.8 2.9 1.2 5.9 1.2 8.9 0 3-0.4 6-1.2 8.9-4.3 0.8-8 1.1-12.1 1.1s-7.9-0.3-12.2-1.1c-0.7-2.9-1.1-5.9-1.1-8.9 0-3 0.4-6 1.2-8.9 4.3-0.8 8-1.1 12.1-1.1m0-3.3c-4.6 0-8.7 0.4-13.2 1.2l-1.6 0.2-0.4 1.5c-1 3.5-1.5 7-1.5 10.4s0.5 6.9 1.5 10.4l0.4 1.5 1.6 0.2c4.5 0.8 8.6 1.2 13.2 1.2s8.7-0.4 13.3-1.2l1.5-0.2 0.4-1.5c1-3.5 1.5-7 1.5-10.4s-0.5-6.9-1.5-10.4l-0.4-1.5-1.5-0.2c-4.6-0.8-8.7-1.2-13.3-1.2z"></path></svg>