<?xml version="1.0"?><svg xmlns="http://www.w3.org/2000/svg" width="40" height="40" viewBox="0 0 40 40"><path d="m33.2 35.2c-1.8-4.9-2.7-10-2.7-15.2 0-5.1 0.9-10.3 2.7-15.2 0.1-0.2 0.1-0.4 0.1-0.5 0-0.6-0.3-1-1-1h-24.6c-0.7 0-1 0.4-1 1 0 0.2 0 0.3 0.1 0.5 1.8 4.9 2.7 10.1 2.7 15.2 0 5.1-0.9 10.3-2.7 15.2-0.1 0.2-0.1 0.4-0.1 0.5 0 0.6 0.4 1 1 1h24.6c0.7 0 1.1-0.4 1.1-1-0.1-0.1-0.1-0.3-0.2-0.5z m-22.3-1.9c1.3-4.3 1.9-8.8 1.9-13.3 0-4.5-0.6-9-1.9-13.3h18.2c-1.3 4.3-1.9 8.8-1.9 13.3 0 4.5 0.6 9 1.9 13.3h-18.2z"></path></svg>