<?xml version="1.0"?><svg xmlns="http://www.w3.org/2000/svg" width="40" height="40" viewBox="0 0 40 40"><path d="m19.7 20.8v-1.6l1.8-1.4c0.2-0.1 0.2-0.3 0.2-0.5l-1.7-2.8c-0.2-0.2-0.3-0.3-0.5-0.2l-2.2 0.7c-0.5-0.3-1-0.7-1.5-0.8l-0.3-2.2c0-0.2-0.2-0.3-0.5-0.3h-3.3c-0.2 0-0.4 0.1-0.5 0.3l-0.4 2.2c-0.5 0.1-1 0.5-1.5 0.8l-2.1-0.8c-0.2 0-0.4 0-0.5 0.1l-1.7 2.9c-0.2 0.1 0 0.3 0.2 0.5l1.8 1.3v1.7l-1.8 1.3c-0.2 0.3-0.2 0.5-0.2 0.7l1.7 2.8c0.1 0.2 0.3 0.3 0.5 0.2l2.3-0.7c0.5 0.3 1 0.7 1.5 0.8l0.3 2.2c-0.1 0.2 0.2 0.3 0.4 0.3h3.3c0.2 0 0.3-0.1 0.5-0.3l0.3-2.2c0.5-0.1 1-0.5 1.5-0.8l2.2 0.8c0.2 0 0.3 0 0.5-0.1l1.7-2.9c0.1-0.1 0-0.3-0.2-0.5l-1.8-1.5z m-6.4 2.5c-1.8 0-3.3-1.5-3.3-3.3s1.5-3.3 3.3-3.3 3.4 1.5 3.4 3.3-1.5 3.3-3.4 3.3z m18.4-21.6h-16.7c-1.8 0-3.3 1.5-3.3 3.3v5h3.3v-3.3h16.7v26.6h-16.7v-3.3h-3.3v5c0 1.8 1.5 3.3 3.3 3.3h16.7c1.8 0 3.3-1.5 3.3-3.3v-30c0-1.8-1.5-3.3-3.3-3.3z"></path></svg>