<?xml version="1.0"?><svg xmlns="http://www.w3.org/2000/svg" width="40" height="40" viewBox="0 0 40 40"><path fill="#444" d="m33.4 25.9c0.9 0 1.6 0.7 1.6 1.6v5.9c0 0.9-0.7 1.6-1.6 1.6-15.7 0-28.4-12.7-28.4-28.4 0-0.9 0.7-1.6 1.6-1.6h5.9c0.9 0 1.6 0.7 1.6 1.6 0 2.2 0.4 4.1 1 6 0.1 0.5 0.1 1.2-0.4 1.7l-3.7 3.7c2.4 4.7 6.3 8.6 11 11l3.7-3.7c0.5-0.5 1.2-0.5 1.7-0.4 1.9 0.7 3.9 1 6 1z m-3.4-13.9v3.2l1.6-1.6z m0-7.2v3.2l1.6-1.6z m-5.5 11.1l-1.1-1.2 4.6-4.7-4.6-4.7 1.1-1.2 3.9 3.9v-6.4h0.7l4.8 4.8-3.6 3.6 3.6 3.6-4.8 4.8h-0.7v-6.4z"></path></svg>