<?xml version="1.0"?><svg xmlns="http://www.w3.org/2000/svg" width="40" height="40" viewBox="0 0 40 40"><path fill="#444" d="m11.6 5v3.4h-3.2v-3.4h3.2z m6.8 0v3.4h-3.4v-3.4h3.4z m-13.4 13.4v3.2h-3.4v-3.2h3.4z m0-13.4v3.4h-3.4c0-1.7 1.8-3.4 3.4-3.4z m26.6 26.6v3.4h-3.2v-3.4h3.2z m0-26.6v3.4h-3.2v-3.4h3.2z m-6.6 26.6v3.4h-3.4v-3.4h3.4z m-20-20v3.4h-3.4v-3.4h3.4z m0 23.4c-1.8 0-3.4-1.6-3.4-3.4v-6.6h16.8v10h-13.4z m30-30c1.6 0 3.4 1.7 3.4 3.4h-3.4v-3.4z m3.4 6.6v3.4h-3.4v-3.4h3.4z m-13.4-6.6v3.4h-3.4v-3.4h3.4z m13.4 26.6c0 1.7-1.8 3.4-3.4 3.4v-3.4h3.4z m0-13.2v3.2h-3.4v-3.2h3.4z m0 6.6v3.4h-3.4v-3.4h3.4z"></path></svg>