<?xml version="1.0"?><svg xmlns="http://www.w3.org/2000/svg" width="40" height="40" viewBox="0 0 40 40"><path fill="#444" d="m23.4 19.1v-5h1.6v5h-1.6z m-16.8-9.1v23.4h23.4v3.2h-23.4c-1.8 0-3.2-1.4-3.2-3.2v-23.4h3.2z m8.4 5.9v-1.8h1.6v1.8h-1.6z m19.1-1.8v-2.5h-5v10h2.5v-3.2h2.5v-2.5h-2.5v-1.8h2.5z m-6.6 5v-5c0-1.4-1.1-2.5-2.5-2.5h-4.1v10h4.1c1.4 0 2.5-1.1 2.5-2.5z m-8.4-3.2v-1.8c0-1.4-1.1-2.5-2.5-2.5h-4.1v10h2.5v-3.2h1.6c1.4 0 2.5-1.1 2.5-2.5z m14.3-12.5c1.8 0 3.2 1.4 3.2 3.2v20c0 1.8-1.4 3.4-3.2 3.4h-20c-1.8 0-3.4-1.6-3.4-3.4v-20c0-1.8 1.6-3.2 3.4-3.2h20z"></path></svg>