<?xml version="1.0"?><svg xmlns="http://www.w3.org/2000/svg" width="40" height="40" viewBox="0 0 40 40"><path fill="#444" d="m5.5 4.1l1.6 1.8 27.9 27.9-2.1 2.1-12.5-12.6h-0.1l-0.3 0.1c-1.8 0-3.4-1.6-3.4-3.4l0.1-0.3-2.6-2.7c-0.5 1-0.7 1.9-0.7 3 0 2.5 1.3 4.6 3.2 5.8l-1.6 2.9c-3-1.7-5-5-5-8.7 0-2 0.5-3.8 1.6-5.4l-2.4-2.4c-1.5 2.2-2.6 4.8-2.6 7.8 0 4.9 2.7 9.2 6.7 11.6l-1.7 2.9c-5-2.9-8.2-8.3-8.2-14.5 0-3.8 1.2-7.4 3.4-10.2l-3.4-3.6z m14.5 2.5c-2.3 0-4.4 0.6-6.2 1.6l-2.5-2.4c2.5-1.6 5.5-2.4 8.7-2.4 9.2 0 16.6 7.4 16.6 16.6 0 3.2-0.8 6.2-2.4 8.7l-2.5-2.4c1-1.9 1.7-4 1.7-6.3 0-7.3-6.1-13.4-13.4-13.4z m9.3 17.2l-2.7-2.8c0-0.3 0-0.7 0-1 0-3.7-2.9-6.6-6.6-6.6-0.3 0-0.7 0-1 0l-2.7-2.7c1.1-0.5 2.4-0.7 3.7-0.7 5.5 0 10 4.5 10 10 0 1.3-0.2 2.6-0.7 3.8z"></path></svg>