<?xml version="1.0"?><svg xmlns="http://www.w3.org/2000/svg" width="40" height="40" viewBox="0 0 40 40"><path d="m5 36.64000000000001v-33.28333333333334l2.5 2.4999999999999973 2.5-2.5 2.5 2.5 2.5-2.5 2.5 2.5 2.5-2.5 2.5 2.5 2.5-2.5 2.5 2.5 2.5-2.5 2.5 2.5 2.5-2.5v33.28333333333333l-2.5-2.5-2.5 2.5-2.5-2.5-2.5 2.5-2.5-2.5-2.5 2.5-2.5-2.5-2.5 2.5-2.5-2.5-2.5 2.5-2.5-2.5z m25-21.640000000000008v-3.3599999999999994h-20v3.3599999999999994h20z m0 6.640000000000001v-3.2833333333333314h-20v3.2833333333333314h20z m0 6.719999999999999v-3.3599999999999994h-20v3.3599999999999994h20z"></path></svg>