<?xml version="1.0"?><svg xmlns="http://www.w3.org/2000/svg" width="40" height="40" viewBox="0 0 40 40"><path d="m33.3 10h-3.6c0.2-0.5 0.3-1.1 0.3-1.7 0-2.7-2.2-5-5-5-1.7 0-3.3 0.9-4.2 2.3l-0.8 1.1-0.8-1.1c-0.9-1.4-2.4-2.3-4.2-2.3-2.8 0-5 2.3-5 5 0 0.6 0.1 1.2 0.3 1.7h-3.6c-1.9 0-3.3 1.5-3.3 3.3l-0.1 18.4c0 1.8 1.5 3.3 3.4 3.3h26.6c1.9 0 3.4-1.5 3.4-3.3v-18.4c0-1.8-1.5-3.3-3.4-3.3z m-8.3-3.3c0.9 0 1.7 0.7 1.7 1.6s-0.8 1.7-1.7 1.7-1.7-0.8-1.7-1.7 0.8-1.6 1.7-1.6z m-10 0c0.9 0 1.7 0.7 1.7 1.6s-0.8 1.7-1.7 1.7-1.7-0.7-1.7-1.7 0.8-1.6 1.7-1.6z m18.3 25h-26.6v-3.4h26.6v3.4z m0-8.4h-26.6v-10h8.4l-3.4 4.8 2.7 1.9 3.9-5.4 1.7-2.3 1.7 2.3 3.9 5.4 2.7-1.9-3.4-4.8h8.4v10z"></path></svg>