<?xml version="1.0"?><svg xmlns="http://www.w3.org/2000/svg" xmlns:xlink="http://www.w3.org/1999/xlink" width="40" height="40" viewBox="0 0 40 40"><defs><path id="a" d="m0 0h40v40h-40v-40z"></path></defs><clipPath id="b"><use xlink:href="#a" overflow="visible"></use></clipPath><path d="m20 8.3v-6.6l-8.3 8.3 8.3 8.3v-6.6c5.5 0 10 4.5 10 10s-4.5 10-10 10-10-4.5-10-10h-3.3c0 7.3 6 13.3 13.3 13.3s13.3-6 13.3-13.3-6-13.4-13.3-13.4z m-1.8 18.4h-1.5v-5.5l-1.7 0.5v-1.2l3-1h0.2v7.2z m7.1-3c0 0.5 0 1-0.1 1.3l-0.5 1s-0.5 0.5-0.9 0.5-0.6 0.2-1 0.2-0.6 0-1-0.2-0.5-0.3-0.8-0.5-0.3-0.5-0.5-1-0.2-0.8-0.2-1.3v-1.2c0-0.5 0-1 0.2-1.3l0.5-1s0.5-0.5 0.8-0.5 0.7-0.2 1-0.2 0.7 0 1 0.2c0.4 0.1 0.5 0.3 0.9 0.5s0.3 0.5 0.5 1 0.1 0.8 0.1 1.3v1.2z m-1.5-1.4v-0.8s-0.1-0.3-0.1-0.5-0.2-0.2-0.4-0.3-0.3-0.2-0.5-0.2-0.3 0-0.5 0.2l-0.3 0.3s-0.2 0.3-0.2 0.5v3.3s0.2 0.4 0.2 0.5 0.2 0.2 0.3 0.4 0.4 0.1 0.5 0.1 0.4 0 0.5-0.1l0.4-0.4s0.1-0.3 0.1-0.5v-2.5z" clip-path="url(#b)"></path></svg>