<?xml version="1.0"?><svg xmlns="http://www.w3.org/2000/svg" xmlns:xlink="http://www.w3.org/1999/xlink" width="40" height="40" viewBox="0 0 40 40"><defs><path id="a" d="m0 0h40v40h-40v-40z"></path></defs><clipPath id="b"><use xlink:href="#a" overflow="visible"></use></clipPath><path d="m20 8.3v-6.6l-8.3 8.3 8.3 8.3v-6.6c5.5 0 10 4.5 10 10s-4.5 10-10 10-10-4.5-10-10h-3.3c0 7.3 6 13.3 13.3 13.3s13.3-6 13.3-13.3-6-13.4-13.3-13.4z m-4 14.2h0.7c0.3 0 0.6-0.2 0.8-0.3s0.3-0.4 0.3-0.7v-0.3s-0.1-0.2-0.1-0.4-0.2-0.1-0.4-0.1h-0.8s-0.2 0.1-0.3 0.1-0.2 0.2-0.2 0.4v0.3h-1.7c0-0.3 0-0.5 0.2-0.8s0.3-0.5 0.5-0.7 0.5-0.3 0.7-0.3 0.6-0.2 0.8-0.2c0.3 0 0.7 0 1 0.2s0.5 0.1 0.8 0.3 0.4 0.3 0.5 0.7 0.2 0.5 0.2 0.8v0.5s-0.2 0.3-0.2 0.5-0.1 0.3-0.3 0.3-0.3 0.2-0.5 0.4c0.3 0.1 0.7 0.3 0.8 0.6s0.4 0.7 0.4 1c0 0.4 0 0.7-0.2 0.9s-0.3 0.5-0.5 0.6-0.5 0.4-0.8 0.4-0.7 0.1-1 0.1c-0.4 0-0.7 0-0.9-0.1s-0.5-0.2-0.8-0.4-0.3-0.3-0.5-0.6-0.2-0.7-0.2-1h1.4v0.3s0.1 0.2 0.1 0.3 0.2 0.2 0.4 0.2h0.8s0.2-0.2 0.3-0.2 0.2-0.1 0.2-0.3v-0.8s-0.2-0.2-0.2-0.4-0.1-0.1-0.3-0.1h-1v-1.2z m9.5 1.2c0 0.5 0 1-0.2 1.3l-0.5 1s-0.5 0.5-0.8 0.5-0.7 0.2-1 0.2-0.7 0-1-0.2-0.5-0.3-0.8-0.5-0.4-0.5-0.5-1-0.2-0.8-0.2-1.3v-1.2c0-0.5 0-1 0.2-1.3l0.5-1s0.5-0.5 0.8-0.5 0.7-0.2 1-0.2 0.7 0 1 0.2 0.5 0.3 0.8 0.5 0.4 0.5 0.5 1 0.2 0.8 0.2 1.3v1.2z m-1.3-1.4v-0.8c0-0.2-0.2-0.3-0.2-0.5s-0.2-0.2-0.3-0.3-0.4-0.2-0.5-0.2-0.4 0-0.5 0.2l-0.4 0.3s-0.1 0.3-0.1 0.5v3.3s0.1 0.4 0.1 0.5 0.2 0.2 0.4 0.4 0.3 0.1 0.5 0.1 0.3 0 0.5-0.1l0.3-0.4s0.2-0.3 0.2-0.5v-2.5z" clip-path="url(#b)"></path></svg>