<?xml version="1.0"?><svg xmlns="http://www.w3.org/2000/svg" xmlns:xlink="http://www.w3.org/1999/xlink" width="40" height="40" viewBox="0 0 40 40"><defs><path id="a" d="m0 0h40v40h-40v-40z"></path></defs><clipPath id="b"><use xlink:href="#a" overflow="visible"></use></clipPath><path d="m20 8.3v-6.6l-8.3 8.3 8.3 8.3v-6.6c5.5 0 10 4.5 10 10s-4.5 10-10 10-10-4.5-10-10h-3.3c0 7.3 6 13.3 13.3 13.3s13.3-6 13.3-13.3-6-13.4-13.3-13.4z m-2.2 14.9l0.4-3.7h4v1.2h-2.9l-0.1 1.5s0.1 0 0.1-0.2 0.2 0 0.2-0.2 0.2 0 0.3 0h0.4c0.3 0 0.6 0 0.8 0.2s0.5 0.3 0.7 0.5 0.3 0.5 0.5 0.8 0.1 0.7 0.1 1c0 0.4 0 0.7-0.1 0.9s-0.2 0.5-0.5 0.8-0.5 0.3-0.7 0.5-0.7 0.2-1 0.2c-0.3 0-0.7 0-0.8-0.2s-0.5-0.2-0.9-0.3-0.3-0.4-0.5-0.7-0.1-0.5-0.1-0.8h1.3c0 0.3 0.2 0.5 0.3 0.6s0.4 0.2 0.7 0.2c0.2 0 0.3 0 0.5-0.2l0.3-0.3s0.2-0.3 0.2-0.5v-1l-0.2-0.3-0.3-0.4s-0.3-0.1-0.5-0.1h-0.3s-0.2 0-0.4 0.1-0.1 0-0.1 0.2-0.2 0.2-0.2 0.2h-1.2z" clip-path="url(#b)"></path></svg>