<?xml version="1.0"?><svg xmlns="http://www.w3.org/2000/svg" width="40" height="40" viewBox="0 0 40 40"><path fill="#444" d="m20 33.4c7.3 0 13.4-6.1 13.4-13.4s-6.1-13.4-13.4-13.4-13.4 6.1-13.4 13.4 6.1 13.4 13.4 13.4z m0-30c9.2 0 16.6 7.4 16.6 16.6s-7.4 16.6-16.6 16.6-16.6-7.4-16.6-16.6 7.4-16.6 16.6-16.6z m-8.4 12.5c0-1.4 1.1-2.5 2.5-2.5s2.5 1.1 2.5 2.5-1.1 2.5-2.5 2.5-2.5-1.1-2.5-2.5z m11.8 0c0-1.4 1.1-2.5 2.5-2.5s2.5 1.1 2.5 2.5-1.1 2.5-2.5 2.5-2.5-1.1-2.5-2.5z m-8.4 7.5h10v2.5h-10v-2.5z"></path></svg>