<?xml version="1.0"?><svg xmlns="http://www.w3.org/2000/svg" width="40" height="40" viewBox="0 0 40 40"><path fill="#444" d="m20 23.4c3.9 0 7.2 2.3 8.5 5.7h-17c1.3-3.4 4.6-5.7 8.5-5.7z m-7-3.4l-1.7-1.8 1.7-1.7-1.7-1.8 1.7-1.7 1.8 1.7 1.8-1.7 1.8 1.7-1.8 1.8 1.8 1.7-1.8 1.8-1.8-1.8z m14-7l1.8 1.7-1.8 1.8 1.8 1.7-1.8 1.8-1.8-1.8-1.8 1.8-1.8-1.8 1.8-1.7-1.8-1.8 1.8-1.7 1.8 1.7z m-7 20.4c7.3 0 13.4-6.1 13.4-13.4s-6.1-13.4-13.4-13.4-13.4 6.1-13.4 13.4 6.1 13.4 13.4 13.4z m0-30c9.2 0 16.6 7.4 16.6 16.6s-7.4 16.6-16.6 16.6-16.6-7.4-16.6-16.6 7.4-16.6 16.6-16.6z"></path></svg>