<?xml version="1.0"?><svg xmlns="http://www.w3.org/2000/svg" width="40" height="40" viewBox="0 0 40 40"><path d="m25 15h-10c-0.9 0-1.7 0.8-1.7 1.7v20c0 0.9 0.8 1.6 1.7 1.6h10c0.9 0 1.7-0.7 1.7-1.6v-20c0-0.9-0.8-1.7-1.7-1.7z m-5 10c-1.8 0-3.3-1.5-3.3-3.3s1.5-3.4 3.3-3.4 3.3 1.5 3.3 3.4-1.5 3.3-3.3 3.3z m-8.2-14.9l2.3 2.3c1.5-1.5 3.6-2.4 5.9-2.4s4.4 0.9 5.9 2.4l2.4-2.3c-2.2-2.1-5.1-3.4-8.3-3.4s-6.1 1.3-8.2 3.4z m8.2-10.1c-5.1 0-9.7 2.1-13 5.4l2.4 2.3c2.7-2.7 6.4-4.4 10.6-4.4s7.9 1.7 10.6 4.4l2.4-2.3c-3.4-3.3-7.9-5.4-13-5.4z"></path></svg>