<?xml version="1.0"?><svg xmlns="http://www.w3.org/2000/svg" width="40" height="40" viewBox="0 0 40 40"><path d="m13.3 19.2c0-1.4-1.1-2.5-2.5-2.5s-2.5 1.1-2.5 2.5 1.2 2.5 2.5 2.5 2.5-1.1 2.5-2.5z m11.7-8.4c0-1.3-1.1-2.5-2.5-2.5h-5c-1.4 0-2.5 1.2-2.5 2.5s1.1 2.5 2.5 2.5h5c1.4 0 2.5-1.1 2.5-2.5z m-10.8 14.2c-1.4 0-2.5 1.1-2.5 2.5s1.1 2.5 2.5 2.5 2.5-1.1 2.5-2.5-1.1-2.5-2.5-2.5z m5.8-23.3c-10.1 0-18.3 8.2-18.3 18.3s8.2 18.3 18.3 18.3 18.3-8.2 18.3-18.3-8.2-18.3-18.3-18.3z m0 33.3c-8.3 0-15-6.7-15-15s6.7-15 15-15 15 6.7 15 15-6.7 15-15 15z m9.2-18.3c-1.4 0-2.5 1.1-2.5 2.5s1.1 2.5 2.5 2.5 2.5-1.2 2.5-2.5-1.1-2.5-2.5-2.5z m-3.4 8.3c-1.3 0-2.5 1.1-2.5 2.5s1.2 2.5 2.5 2.5 2.5-1.1 2.5-2.5-1.1-2.5-2.5-2.5z"></path></svg>