<?xml version="1.0"?><svg xmlns="http://www.w3.org/2000/svg" width="40" height="40" viewBox="0 0 40 40"><path d="m30.3 1.7h-14c-1.6 0-3 1.3-3 3v24c0 1.6 1.4 3 3 3l14 0c1.7 0 3-1.4 3-3v-24c0-1.7-1.3-3-3-3z m-7 3.3c1.9 0 3.4 1.5 3.4 3.3s-1.5 3.4-3.4 3.4-3.3-1.5-3.3-3.4 1.5-3.3 3.3-3.3z m0 22.5c-3.6 0-6.6-3-6.6-6.7s3-6.6 6.6-6.6 6.7 2.9 6.7 6.6-3 6.7-6.7 6.7z"></path><circle cx="23.333333333333336" cy="20.833333333333336" r="4.166666666666667"></circle><path d="m10 8.3h-3.3v26.7c0 1.8 1.5 3.3 3.3 3.3h16.7v-3.3h-16.7v-26.7z"></path></svg>