<?xml version="1.0"?><svg xmlns="http://www.w3.org/2000/svg" width="40" height="40" viewBox="0 0 40 40"><path d="m9.8 16.7h10.5c-1.3-0.5-2.5-1-3.3-1.5-1.2-0.7-1.7-1.7-1.7-2.7 0-0.5 0.2-1 0.4-1.5 0.1-0.5 0.5-0.8 1-1.2 0.5-0.3 1-0.6 1.6-0.8 0.7-0.2 1.4-0.3 2.4-0.3 0.8 0 1.6 0.1 2.3 0.3 0.7 0.2 1.2 0.5 1.7 1 0.5 0.3 0.8 0.8 1 1.5 0.1 0.5 0.3 1.2 0.3 1.8h6.7c0-1.5-0.4-2.8-0.9-4s-1.3-2.3-2.3-3.1c-1-0.9-2.3-1.7-3.8-2-1.7-0.7-3.4-0.9-5.2-0.9s-3.3 0.2-4.8 0.7c-1.5 0.5-2.7 1-3.9 1.8-1 0.9-1.8 1.7-2.3 2.9-0.7 1.1-1 2.3-1 3.6 0 1.4 0.3 2.7 0.8 3.7 0.2 0.3 0.4 0.5 0.5 0.7z m28.5 3.3h-36.6v3.3h19.8c0.3 0.2 0.8 0.4 1.2 0.5 0.8 0.4 1.5 0.9 2 1.2 0.5 0.3 0.8 0.8 1 1.3 0.1 0.5 0.1 1 0.1 1.5 0 0.5-0.1 1-0.3 1.5-0.2 0.5-0.5 0.9-1 1.2-0.3 0.3-1 0.5-1.5 0.8-0.7 0.2-1.3 0.4-2.3 0.4-1 0-1.9-0.2-2.7-0.4s-1.5-0.5-2-1c-0.5-0.5-1-1-1.3-1.6-0.4-0.7-0.5-1.7-0.5-2.7h-6.7c0 1.2 0.2 2.5 0.5 3.5 0.3 1 0.8 1.8 1.5 2.7s1.3 1.5 2.2 2c0.8 0.5 1.6 1 2.6 1.5 1 0.3 2 0.6 3 0.8 1 0.2 2.2 0.3 3.2 0.3 1.8 0 3.3-0.1 4.8-0.6 1.5-0.4 2.7-1 3.7-1.9 1-0.8 1.8-1.6 2.3-2.8 0.5-1.2 0.9-2.3 0.9-3.8 0-1.4-0.2-2.5-0.7-3.7-0.2-0.3-0.2-0.5-0.3-0.7h7.1v-3.3z"></path></svg>