<?xml version="1.0"?><svg xmlns="http://www.w3.org/2000/svg" width="40" height="40" viewBox="0 0 40 40"><path fill="#444" d="m33.4 6.6l-4 4c2.4 2.4 4 5.7 4 9.4 0 2.6-0.8 5-2.1 7l-2.5-2.4c0.7-1.4 1.2-3 1.2-4.6 0-2.7-1.2-5.2-3-7l-3.6 3.6v-10h10z m-28.6 2.4l2.1-2.1 26.1 26.2-2.1 2.1-3.9-3.9c-1.1 0.7-2.4 1.3-3.7 1.6v-3.4c0.4-0.2 0.9-0.4 1.3-0.7l-13.4-13.4c-0.7 1.4-1.2 3-1.2 4.6 0 2.7 1.2 5.2 3 7l3.6-3.6v10h-10l4-4c-2.4-2.4-4-5.7-4-9.4 0-2.6 0.8-5 2.1-7z m11.8 1.5c-0.4 0.2-0.8 0.4-1.2 0.7l-2.4-2.5c1.1-0.7 2.3-1.3 3.6-1.6v3.4z"></path></svg>