<?xml version="1.0"?><svg xmlns="http://www.w3.org/2000/svg" width="40" height="40" viewBox="0 0 40 40"><path d="m1.7 15h3.3v-3.3h-3.3v3.3z m0 6.7h3.3v-3.4h-3.3v3.4z m0-13.4h3.3v-3.3c-1.8 0-3.3 1.5-3.3 3.3z m13.3 26.7h3.3v-3.3h-3.3v3.3z m-13.3-6.7h3.3v-3.3h-3.3v3.3z m3.3 6.7v-3.3h-3.3c0 1.8 1.5 3.3 3.3 3.3z m30-30h-13.3v10h16.6v-6.7c0-1.8-1.5-3.3-3.3-3.3z m0 23.3h3.3v-3.3h-3.3v3.3z m-20-20h3.3v-3.3h-3.3v3.3z m-6.7 26.7h3.4v-3.3h-3.4v3.3z m0-26.7h3.4v-3.3h-3.4v3.3z m26.7 26.7c1.8 0 3.3-1.5 3.3-3.3h-3.3v3.3z m0-13.3h3.3v-3.4h-3.3v3.4z m-13.3 13.3h3.3v-3.3h-3.3v3.3z m6.6 0h3.4v-3.3h-3.4v3.3z"></path></svg>