<?xml version="1.0"?><svg xmlns="http://www.w3.org/2000/svg" width="40" height="40" viewBox="0 0 40 40"><path fill="#444" d="m37.5 16.6c1.4 0 2.5 1.1 2.5 2.5v10.9c0 0.7-0.2 1.3-0.7 1.8l-8.3 8.2-1.3-1.3c-0.3-0.3-0.6-0.8-0.6-1.4 0.4-1.9 0.8-3.8 1.2-5.7h-8.7c-0.9 0-1.6-0.7-1.6-1.6v-2.1c0-0.3 0.1-0.6 0.2-0.9l3.8-8.8c0.4-0.9 1.2-1.6 2.3-1.6h11.2z m-17.5-6.6v2.1c0 0.3-0.1 0.6-0.2 0.9l-3.8 8.8c-0.4 0.9-1.2 1.6-2.3 1.6h-11.2c-1.4 0-2.5-1.1-2.5-2.5v-10.9c0-0.7 0.2-1.3 0.7-1.8l8.3-8.2 1.3 1.3c0.3 0.3 0.6 0.8 0.6 1.4-0.4 1.9-0.8 3.8-1.2 5.7h8.7c0.9 0 1.6 0.7 1.6 1.6z"></path></svg>