<?xml version="1.0"?><svg xmlns="http://www.w3.org/2000/svg" width="40" height="40" viewBox="0 0 40 40"><path d="m20 10c0-0.9-0.7-1.7-1.7-1.7h-8.6l1.1-5.3 0-0.4c0-0.5-0.2-0.9-0.5-1.3l-1.3-1.3-8.3 8.2c-0.4 0.5-0.7 1.1-0.7 1.8v10.8c0 1.4 1.1 2.5 2.5 2.5h11.3c1 0 1.9-0.6 2.3-1.5l3.7-8.8c0.1-0.3 0.2-0.6 0.2-0.9v-2.1z m17.5 6.7h-11.2c-1.1 0-2 0.6-2.4 1.5l-3.7 8.8c-0.1 0.3-0.2 0.6-0.2 0.9v2.1c0 0.9 0.8 1.7 1.7 1.7h8.6l-1.1 5.3 0 0.4c0 0.5 0.2 1 0.5 1.3l1.3 1.3 8.3-8.2c0.4-0.5 0.7-1.1 0.7-1.8v-10.8c0-1.4-1.1-2.5-2.5-2.5z"></path></svg>