<?xml version="1.0"?><svg xmlns="http://www.w3.org/2000/svg" width="40" height="40" viewBox="0 0 40 40"><path fill="#444" d="m8.4 16.6h23.2l-2.5-7.5h-18.2z m20.7 8.4c1.4 0 2.5-1.1 2.5-2.5s-1.1-2.5-2.5-2.5-2.5 1.1-2.5 2.5 1.1 2.5 2.5 2.5z m-18.2 0c1.4 0 2.5-1.1 2.5-2.5s-1.1-2.5-2.5-2.5-2.5 1.1-2.5 2.5 1.1 2.5 2.5 2.5z m20.7-16.6l3.4 10v13.2c0 1-0.7 1.8-1.6 1.8h-1.8c-0.9 0-1.6-0.8-1.6-1.8v-1.6h-20v1.6c0 1-0.7 1.8-1.6 1.8h-1.8c-0.9 0-1.6-0.8-1.6-1.8v-13.2l3.4-10c0.4-1.1 1.4-1.8 2.5-1.8h18.2c1.1 0 2.2 0.7 2.5 1.8z"></path></svg>