<?xml version="1.0"?><svg xmlns="http://www.w3.org/2000/svg" width="40" height="40" viewBox="0 0 40 40"><path d="m31.7 7.6l-2.3 2.3c-2.6-2-5.9-3.2-9.4-3.2-3.1 0-5.9 0.9-8.2 2.4l2.4 2.5c1.7-1 3.7-1.6 5.8-1.6 6.4 0 11.7 5.2 11.7 11.7 0 2.1-0.6 4.1-1.6 5.8l2.4 2.4c1.6-2.3 2.5-5.2 2.5-8.2 0-3.6-1.2-6.8-3.3-9.4l2.4-2.4-2.4-2.3z m-6.7-5.9h-10v3.3h10v-3.3z m-6.7 14l3.4 3.4v-5.8h-3.4v2.4z m-13.3-9l-2.1 2.1 4.6 4.6c-1.6 2.4-2.5 5.2-2.5 8.3 0 8.3 6.7 15 15 15 3.1 0 5.9-0.9 8.3-2.5l4.2 4.1 2.1-2.1-12.9-12.8-16.7-16.7z m15 26.6c-6.4 0-11.7-5.2-11.7-11.6 0-2.2 0.6-4.2 1.6-5.9l16 15.9c-1.8 1.1-3.8 1.6-5.9 1.6z"></path></svg>