<?xml version="1.0"?><svg xmlns="http://www.w3.org/2000/svg" width="40" height="40" viewBox="0 0 40 40"><path d="m0 12.9v2.8l5-1.7v16h3.3v-20h-0.4l-7.9 2.9z m39.6 11.1c-0.2-0.5-0.5-0.9-1-1.3-0.5-0.3-1-0.6-1.7-0.9s-1.4-0.4-2.2-0.6c-0.6-0.1-1.1-0.2-1.5-0.4-0.4-0.1-0.7-0.2-0.9-0.4-0.2-0.1-0.4-0.3-0.5-0.5-0.1-0.2-0.1-0.4-0.1-0.6 0-0.3 0-0.5 0.1-0.7 0.1-0.2 0.3-0.4 0.5-0.6 0.2-0.2 0.4-0.3 0.7-0.4s0.7-0.1 1.1-0.1c0.4 0 0.8 0 1.1 0.1 0.3 0.2 0.6 0.3 0.8 0.5 0.2 0.2 0.4 0.5 0.5 0.7 0.1 0.3 0.2 0.6 0.2 0.8h3.2c0-0.6-0.1-1.2-0.4-1.8-0.3-0.5-0.6-1-1.1-1.4-0.5-0.5-1.1-0.8-1.9-1-0.7-0.3-1.5-0.4-2.4-0.4-0.8 0-1.6 0.1-2.3 0.3-0.7 0.3-1.3 0.6-1.8 1-0.5 0.4-0.8 0.9-1.1 1.4-0.3 0.5-0.4 1.1-0.4 1.7s0.2 1.1 0.4 1.6c0.3 0.4 0.6 0.9 1.1 1.2 0.4 0.4 1 0.6 1.6 0.9 0.6 0.2 1.4 0.4 2.1 0.6 0.7 0.1 1.2 0.3 1.6 0.4s0.7 0.3 1 0.5c0.2 0.2 0.3 0.4 0.4 0.6 0.1 0.2 0.1 0.4 0.1 0.6 0 0.6-0.2 1-0.6 1.3-0.5 0.3-1.1 0.5-2 0.5-0.4 0-0.7 0-1.1-0.1-0.3-0.1-0.6-0.3-0.9-0.4-0.3-0.2-0.5-0.5-0.7-0.8-0.2-0.3-0.3-0.7-0.3-1.1h-3.1c0 0.6 0.1 1.2 0.4 1.8 0.2 0.5 0.6 1 1.1 1.5 0.6 0.5 1.2 0.8 2 1.1 0.7 0.3 1.6 0.4 2.6 0.4 0.9 0 1.7-0.1 2.4-0.3 0.7-0.2 1.3-0.5 1.8-0.9 0.6-0.4 0.9-0.8 1.2-1.4 0.3-0.5 0.4-1.1 0.4-1.7 0-0.7-0.1-1.3-0.4-1.7z m-16.6-12.2c-0.5-0.7-1.2-1.2-2-1.5-0.8-0.3-1.7-0.5-2.7-0.5-0.9 0-1.8 0.2-2.6 0.5-0.8 0.3-1.5 0.8-2.1 1.5-0.5 0.6-1 1.5-1.3 2.6-0.3 1.1-0.4 2.4-0.4 4v3.2c0 1.6 0.1 2.9 0.4 4 0.3 1.1 0.8 2 1.4 2.6 0.5 0.7 1.2 1.2 2 1.5 0.8 0.3 1.7 0.5 2.7 0.5 0.9 0 1.8-0.2 2.6-0.5 0.8-0.3 1.5-0.8 2-1.5 0.6-0.6 1-1.5 1.3-2.6 0.3-1.1 0.5-2.4 0.5-4v-3.2c0-1.6-0.2-2.9-0.5-4-0.3-1.1-0.7-2-1.3-2.6z m-1.5 10.2c0 1-0.1 1.9-0.2 2.6-0.1 0.7-0.3 1.3-0.6 1.7-0.3 0.4-0.6 0.7-1 0.9-0.4 0.2-0.8 0.3-1.3 0.3-0.5 0-1-0.1-1.4-0.3s-0.7-0.5-1-0.9c-0.3-0.4-0.5-1-0.6-1.7-0.2-0.7-0.3-1.6-0.3-2.6v-4.1c0-1 0.1-1.9 0.3-2.6 0.1-0.6 0.3-1.2 0.6-1.6 0.3-0.4 0.6-0.7 1-0.9 0.4-0.2 0.8-0.3 1.3-0.3 0.6 0 1 0.1 1.4 0.3 0.4 0.1 0.7 0.4 1 0.9 0.3 0.4 0.5 0.9 0.6 1.6 0.1 0.7 0.2 1.6 0.2 2.6v4.1z"></path></svg>