<?xml version="1.0"?><svg xmlns="http://www.w3.org/2000/svg" width="40" height="40" viewBox="0 0 40 40"><path fill="#231F20" d="m31.8 8.2l-2.4 2.4c2.4 2.4 3.9 5.7 3.9 9.4 0 7.4-5.9 13.3-13.3 13.3s-13.3-5.9-13.3-13.3c0-6.8 5.1-12.4 11.6-13.2v3.4c-4.7 0.8-8.3 4.8-8.3 9.8 0 5.5 4.5 10 10 10s10-4.5 10-10c0-2.8-1.1-5.3-2.9-7.1l-2.4 2.4c1.2 1.2 2 2.9 2 4.7 0 3.7-3 6.7-6.7 6.7s-6.7-3-6.7-6.7c0-3.1 2.2-5.7 5-6.4v3.5c-1 0.6-1.6 1.7-1.6 2.9 0 1.8 1.5 3.3 3.3 3.3s3.3-1.5 3.3-3.3c0-1.2-0.6-2.3-1.6-2.9v-13.8h-1.7c-9.2 0-16.7 7.5-16.7 16.7s7.5 16.7 16.7 16.7 16.7-7.5 16.7-16.7c0-4.6-1.9-8.8-4.9-11.8z"></path></svg>