<?xml version="1.0"?><svg xmlns="http://www.w3.org/2000/svg" width="40" height="40" viewBox="0 0 40 40"><path d="m33.3 16.7h-5v-1.9c2.9-0.8 5-3.4 5-6.5h-5v-1.6c0-0.9-0.7-1.7-1.6-1.7h-13.4c-0.9 0-1.6 0.8-1.6 1.7v1.6h-5c0 3.1 2.1 5.7 5 6.5v1.9h-5c0 3.1 2.1 5.7 5 6.4v1.9h-5c0 3.1 2.1 5.7 5 6.4v1.9c0 1 0.7 1.7 1.6 1.7h13.4c0.9 0 1.6-0.7 1.6-1.7v-1.9c2.9-0.7 5-3.3 5-6.4h-5v-1.9c2.9-0.7 5-3.3 5-6.4z m-13.3 15c-1.9 0-3.3-1.5-3.3-3.4s1.5-3.3 3.3-3.3c1.8 0 3.3 1.5 3.3 3.3s-1.5 3.4-3.3 3.4z m0-8.4c-1.9 0-3.3-1.5-3.3-3.3s1.5-3.3 3.3-3.3c1.8 0 3.3 1.5 3.3 3.3s-1.5 3.3-3.3 3.3z m0-8.3c-1.9 0-3.3-1.5-3.3-3.3 0-1.9 1.5-3.4 3.3-3.4 1.8 0 3.3 1.5 3.3 3.4 0 1.8-1.5 3.3-3.3 3.3z"></path></svg>