<?xml version="1.0"?><svg xmlns="http://www.w3.org/2000/svg" width="40" height="40" viewBox="0 0 40 40"><path d="m33.36 5q0.7033333333333331 0 1.1716666666666669 0.4666666666666668t0.46666666666666856 1.1733333333333338v10q0 0.7033333333333331-0.46666666666666856 1.211666666666666t-1.173333333333332 0.5100000000000016h-28.358333333333334q-0.7033333333333331 0-1.1716666666666669-0.5083333333333329t-0.4666666666666668-1.2100000000000009v-10q0-0.7033333333333331 0.4666666666666668-1.1716666666666669t1.1716666666666669-0.47166666666666757h28.36z m0 16.64q0.7033333333333331 0 1.1716666666666669 0.5083333333333329t0.46666666666666856 1.2100000000000009v10q0 0.7033333333333331-0.46666666666666856 1.1716666666666669t-1.173333333333332 0.46666666666666856h-28.358333333333334q-0.7033333333333331 0-1.1716666666666669-0.46666666666666856t-0.4666666666666668-1.173333333333332v-10q0-0.7033333333333331 0.4666666666666668-1.211666666666666t1.1716666666666669-0.5066666666666677h28.36z"></path></svg>