<?xml version="1.0"?><svg xmlns="http://www.w3.org/2000/svg" width="40" height="40" viewBox="0 0 40 40"><path d="m36.7 6.7v-0.9c0-2.3-1.9-4.1-4.2-4.1s-4.2 1.8-4.2 4.1v0.9c-0.9 0-1.6 0.7-1.6 1.6v6.7c0 0.9 0.7 1.7 1.6 1.7h8.4c0.9 0 1.6-0.8 1.6-1.7v-6.7c0-0.9-0.7-1.6-1.6-1.6z m-1.4 0h-5.6v-0.9c0-1.5 1.2-2.8 2.8-2.8s2.8 1.3 2.8 2.8v0.9z m-3.8 13.3c0.1 0.6 0.2 1.1 0.2 1.7 0 3.4-1.4 6.6-3.5 8.9-0.5-1.3-1.7-2.3-3.2-2.3h-1.7v-5c0-0.9-0.7-1.6-1.6-1.6h-10v-3.4h3.3c0.9 0 1.7-0.7 1.7-1.6v-3.4h3.3c1.8 0 3.3-1.5 3.3-3.3v-4.2c-1.5-0.5-3.2-0.8-5-0.8-9.2 0-16.6 7.5-16.6 16.7s7.4 16.6 16.6 16.6 16.7-7.4 16.7-16.6c0-0.6 0-1.1-0.1-1.7h-3.4z m-14.8 14.9c-6.6-0.8-11.7-6.4-11.7-13.2 0-1.1 0.1-2.1 0.3-3l8 8v1.6c0 1.9 1.5 3.4 3.4 3.4v3.2z"></path></svg>