<?xml version="1.0"?><svg xmlns="http://www.w3.org/2000/svg" width="40" height="40" viewBox="0 0 40 40"><path d="m20 18.3c-1.8 0-3.3 1.5-3.3 3.4s1.5 3.3 3.3 3.3 3.3-1.5 3.3-3.3-1.5-3.4-3.3-3.4z m10 3.4c0-5.5-4.5-10-10-10s-10 4.5-10 10c0 3.7 2 6.9 5 8.6l1.7-2.9c-2-1.1-3.4-3.3-3.4-5.7 0-3.7 3-6.7 6.7-6.7s6.7 3 6.7 6.7c0 2.4-1.4 4.6-3.4 5.7l1.7 2.9c3-1.7 5-4.9 5-8.6z m-10-16.7c-9.2 0-16.7 7.5-16.7 16.7 0 6.1 3.4 11.5 8.4 14.4l1.6-2.9c-3.9-2.3-6.6-6.6-6.6-11.5 0-7.4 5.9-13.4 13.3-13.4s13.3 6 13.3 13.4c0 4.9-2.6 9.2-6.6 11.5l1.6 2.9c5-2.9 8.4-8.3 8.4-14.4 0-9.2-7.5-16.7-16.7-16.7z"></path></svg>