<?xml version="1.0"?><svg xmlns="http://www.w3.org/2000/svg" width="40" height="40" viewBox="0 0 40 40"><path d="m35.55714285714286 34.53142857142857l-0.1328571428571408 0.134285714285717q-2.5242857142857105 2.5428571428571445-5.781428571428574 3.905714285714282-3.437142857142856 1.4285714285714306-7.075714285714287 1.4285714285714306-3.6828571428571415 0-7.075714285714287-1.4285714285714306-3.3028571428571425-1.4057142857142821-5.78142857142857-3.905714285714282-2.522857142857143-2.5-3.9057142857142857-5.75714285714286-0.9371428571428568-2.3000000000000007-1.2057142857142855-4.219999999999999-0.09142857142857164-0.6257142857142846 1.0714285714285712-0.8028571428571425 1.137142857142857-0.17857142857142705 1.2485714285714282 0.4471428571428575 0.02285714285714313 0.022857142857141355 0.02285714285714313 0.08999999999999986 0.40000000000000036 2.008571428571429 1.0285714285714285 3.548571428571428 1.1142857142857139 2.767142857142858 3.3914285714285715 5.042857142857141 2.185714285714287 2.1885714285714286 5.0428571428571445 3.394285714285715 2.94857142857143 1.25 6.161428571428573 1.25 3.1914285714285704 0 6.16-1.2485714285714309 2.8571428571428577-1.2285714285714278 5.021428571428569-3.392857142857146l0.134285714285717-0.1328571428571408q0.22142857142856798-0.2228571428571442 0.5571428571428569-0.134285714285717 0.2671428571428578 0.06714285714285495 0.7371428571428567 0.4914285714285711 0.8028571428571425 0.8257142857142838 0.38000000000000256 1.2942857142857136z m-10.534285714285716-13.728571428571428l-1.4714285714285715 1.4714285714285715 1.404285714285713 1.4071428571428584q0.4671428571428571 0.46857142857142975-0.15714285714285836 1.0942857142857143-0.379999999999999 0.379999999999999-0.7142857142857153 0.379999999999999-0.2228571428571442 0-0.4242857142857126-0.2242857142857133l-1.3857142857142861-1.361428571428572-1.4714285714285715 1.4714285714285715q-0.1114285714285721 0.11428571428571388-0.33428571428571274 0.11428571428571388-0.3357142857142854 0-0.6928571428571431-0.35714285714285765l-0.04285714285714448-0.04571428571428626q-0.4028571428571439-0.33428571428571274-0.4028571428571439-0.6471428571428568 0-0.15714285714285836 0.17857142857142705-0.379999999999999l1.4714285714285715-1.4528571428571446-1.4714285714285715-1.4714285714285715q-0.35714285714285765-0.35714285714285765 0.31428571428571317-1.0057142857142871 0.3999999999999986-0.4028571428571439 0.6900000000000013-0.4028571428571439 0.13571428571428612 0 0.2914285714285718 0.1114285714285721l1.451428571428572 1.4714285714285715 1.451428571428572-1.4499999999999993q0.3999999999999986-0.3785714285714299 1.071428571428573 0.2914285714285718 0.6028571428571432 0.6028571428571432 0.24571428571428555 0.9828571428571422z m10.514285714285712 1.2714285714285722q0 2.635714285714286-1.028571428571425 5.0914285714285725-1.0042857142857144 2.3428571428571416-2.814285714285713 4.151428571428571-1.7857142857142847 1.7857142857142883-4.171428571428571 2.814285714285713t-5.0914285714285725 1.0257142857142867-5.09-1.028571428571425-4.175714285714285-2.8114285714285714q-1.8285714285714292-1.8285714285714292-2.789999999999999-4.151428571428571-0.3342857142857145-0.7142857142857153-0.3342857142857145-0.8928571428571423h-0.02285714285714313q-0.1999999999999993-0.6000000000000014 0.9600000000000009-0.9814285714285731 1.1142857142857139-0.35714285714285765 1.3399999999999999 0.2671428571428578 0.8257142857142856 2.210000000000001 2.1657142857142855 3.7285714285714278h0.02285714285714313v-7.614285714285714q0.06714285714285673-3.0342857142857156 2.277142857142856-5.177142857142858 2.3428571428571416-2.3000000000000007 5.647142857142857-2.3000000000000007 3.2814285714285703 0 5.602857142857143 2.3000000000000007t2.321428571428573 5.557142857142857q0 3.282857142857143-2.3328571428571436 5.604285714285712t-5.5914285714285725 2.3200000000000003q-1.2942857142857136 0-2.5-0.35714285714285765-0.6257142857142846-0.24571428571428555-0.28999999999999915-1.361428571428572 0.35714285714285765-1.1371428571428588 0.9828571428571422-0.9571428571428555l0.31428571428571317 0.06571428571428584q0.3114285714285714 0.0671428571428585 0.7242857142857133 0.13428571428571345t0.6814285714285724 0.0671428571428585q2.321428571428573 0 3.928571428571427-1.595714285714287t1.6071428571428577-3.895714285714284q0-2.2542857142857144-1.6071428571428577-3.8171428571428585-1.5857142857142854-1.5828571428571436-3.9057142857142857-1.5828571428571436-2.388571428571428 0-3.9714285714285715 1.7857142857142847-1.428571428571427 1.6071428571428577-1.428571428571427 3.571428571428573v9.21857142857143q2.4542857142857137 1.4957142857142856 5.399999999999999 1.4957142857142856 2.1428571428571423 0 4.12857142857143-0.8142857142857132t3.4857142857142875-2.3099999999999987 2.308571428571426-3.460000000000001 0.8142857142857167-4.085714285714285q0-4.418571428571429-3.147142857142857-7.565714285714286-3.1242857142857154-3.1257142857142863-7.565714285714286-3.1257142857142863-4.464285714285715 0-7.59 3.1242857142857137-1.1814285714285724 1.1828571428571433-1.717142857142857 1.942857142857143l-0.042857142857142705 0.04285714285714448q-0.17999999999999972 0.24571428571428555-0.2914285714285718 0.345714285714287t-0.4800000000000004 0.21000000000000085-0.8599999999999994-0.0671428571428585q-0.468571428571428-0.1114285714285721-0.814285714285715-0.36857142857142833t-0.3457142857142852-0.5914285714285725v-15.178571428571432q0-0.3342857142857151 0.23428571428571487-0.5914285714285722t0.6142857142857139-0.2571428571428571h19.57285714285714q0.6714285714285708 0 0.6714285714285708 1.2257142857142855t-0.6714285714285708 1.2285714285714286h-18.099999999999998v10.780000000000001h0.02142857142857224q0.8928571428571423-0.935714285714285 2.2785714285714267-1.8757142857142863t2.4071428571428566-1.3571428571428577q2.4328571428571415-1.0285714285714285 5.157142857142858-1.0285714285714285 2.6999999999999993 0 5.088571428571427 1.0285714285714285t4.174285714285713 2.814285714285715q1.808571428571426 1.807142857142857 2.8142857142857167 4.15 1.0257142857142867 2.5 1.0257142857142867 5.111428571428572z m-0.6928571428571431-12.967142857142857q0.20285714285714107 0.17857142857142883 0.20285714285714107 0.40000000000000036t-0.12285714285714278 0.40285714285714214-0.36857142857142833 0.468571428571428q-0.5799999999999983 0.5800000000000001-0.8714285714285737 0.5800000000000001-0.20000000000000284 0-0.3571428571428541-0.1542857142857148-2.364285714285714-2.031428571428572-4.618571428571428-2.968571428571428-2.8571428571428577-1.25-6.16-1.25-2.9685714285714297 0-5.848571428571429 1.0928571428571434-0.6042857142857159 0.22285714285714242-1.0057142857142853-0.8257142857142856-0.1999999999999993-0.5571428571428569-0.17857142857142883-0.8485714285714288 0.0685714285714294-0.35714285714285676 0.35714285714285765-0.4471428571428575 2.9028571428571475-1.2714285714285714 6.675714285714292-1.2714285714285714 3.66 0 7.0528571428571425 1.4285714285714288 3.0571428571428605 1.2928571428571427 5.245714285714289 3.3914285714285706z"></path></svg>