<?xml version="1.0"?><svg viewBox="0 0 40 40" xmlns="http://www.w3.org/2000/svg" height="40" width="40"><path d="m24.1 23.4l0 0q-0.2-0.3-0.6-0.6t-1.1-1-1.6-1.1-1.6-0.4q-0.9 0-1.5 0.4t-0.9 0.9-0.4 1-0.1 0.8q0 0.4 0.1 0.9t0.4 1 0.9 0.9 1.5 0.4q0.7 0 1.6-0.4t1.7-1.1 1-1 0.6-0.6z m12.4 0q0-0.3-0.1-0.8t-0.4-1-0.9-0.9-1.4-0.4q-0.8 0-1.7 0.4t-1.6 1.1-1.1 1-0.6 0.6l0 0 0 0.1q0.3 0.3 0.6 0.6t1.1 1 1.6 1.1 1.7 0.4q0.8 0 1.4-0.4t0.9-0.9 0.4-1 0.1-0.9z m3.5 0q0 1.2-0.4 2.4t-1.2 2.2-2 1.6-2.8 0.6q-1.2 0-2.3-0.4t-2-1-1.4-1.2-1.1-1.1-0.4-0.4-0.4 0.4-0.9 1.1-1.5 1.2-2 1-2.5 0.4q-1.1 0-2.1-0.4t-1.7-0.9-1.1-1.2-0.7-1-0.3-0.6q0 0.2-0.1 0.5t-0.4 0.8-0.9 0.9-1.1 0.9-1.7 0.7-2.2 0.3q-1.2 0-2.3-0.3t-1.7-0.6-1.2-1-0.8-1.1-0.5-1.1-0.2-1-0.1-0.6h3.8q0 1 0.8 1.9t2.2 0.9q1.4 0 2.3-1.2t1-2.6q0-1.3-0.9-2.3t-2.4-1q-0.1 0-0.2 0t-0.6 0.1-0.7 0.2-0.7 0.4-0.6 0.7h-3.4l1.8-10.1h10.4v3h-7.7q-0.5 2.8-0.7 4.3 0 0 0.3-0.2t0.5-0.5 1.1-0.5 1.9-0.2 2 0.3 1.4 0.9 0.9 1 0.6 0.9 0.1 0.3 0.3-0.4 0.6-1.1 1.1-1.2 1.6-1.1 2.3-0.4 2.5 0.4 2 1.1 1.4 1.2 1 1.1 0.4 0.4q0 0 0.4-0.4t0.9-1.1 1.5-1.2 2-1.1 2.4-0.4q1.6 0 2.9 0.6t2 1.6 1.1 2.2 0.4 2.4z"></path></svg>