<?xml version="1.0"?><svg viewBox="0 0 40 40" xmlns="http://www.w3.org/2000/svg" height="40" width="40"><path d="m38.9 28.4v2.7q0 0.5-0.4 0.9t-0.9 0.4h-35.2q-0.5 0-0.9-0.4t-0.4-0.9v-2.7q0-0.6 0.4-1t0.9-0.4h35.2q0.5 0 0.9 0.4t0.4 1z m-8.1-8.1v2.7q0 0.5-0.4 0.9t-0.9 0.4h-19q-0.5 0-0.9-0.4t-0.4-0.9v-2.7q0-0.6 0.4-1t0.9-0.4h19q0.5 0 0.9 0.4t0.4 1z m5.4-8.1v2.7q0 0.5-0.4 0.9t-0.9 0.4h-29.8q-0.5 0-0.9-0.4t-0.4-0.9v-2.7q0-0.6 0.4-1t0.9-0.4h29.8q0.5 0 0.9 0.4t0.4 1z m-8.1-8.1v2.7q0 0.5-0.4 0.9t-0.9 0.4h-13.6q-0.5 0-0.9-0.4t-0.4-0.9v-2.7q0-0.6 0.4-1t0.9-0.4h13.6q0.5 0 0.9 0.4t0.4 1z"></path></svg>