<?xml version="1.0"?><svg xmlns="http://www.w3.org/2000/svg" width="40" height="40" viewBox="0 0 40 40"><path d="m40 30v2.857142857142854q0 0.5799999999999983-0.42428571428571615 1.0042857142857144t-1.0042857142857144 0.42428571428571615h-37.14285714285714q-0.5800000000000021 0-1.0042857142857162-0.42428571428571615t-0.4242857142857144-1.0042857142857073v-2.8571428571428577q0-0.5800000000000018 0.42428571428571427-1.0042857142857144t1.0042857142857144-0.42428571428571615h37.142857142857146q0.5799999999999983 0 1.0042857142857144 0.4242857142857126t0.42428571428570905 1.0042857142857144z m0-8.57142857142857v2.8571428571428577q0 0.5800000000000018-0.42428571428571615 1.0042857142857144t-1.0042857142857144 0.4242857142857126h-28.57142857142857q-0.5800000000000001 0-1.0042857142857144-0.4242857142857126t-0.4242857142857144-1.004285714285718v-2.8571428571428577q0-0.5800000000000018 0.4242857142857144-1.0042857142857144t1.0042857142857144-0.4242857142857126h28.57142857142857q0.5799999999999983 0 1.0042857142857144 0.4242857142857126t0.42428571428571615 1.004285714285718z m0-8.571428571428571v2.8571428571428577q0 0.5800000000000001-0.42428571428571615 1.0042857142857127t-1.0042857142857144 0.4242857142857126h-34.285714285714285q-0.5799999999999992 0-1.0042857142857136-0.4242857142857126t-0.42428571428571393-1.0042857142857144v-2.8571428571428577q0-0.5800000000000001 0.4242857142857144-1.0042857142857144t1.004285714285714-0.4242857142857144h34.285714285714285q0.5799999999999983 0 1.0042857142857144 0.4242857142857144t0.42428571428571615 1.0042857142857144z m0-8.571428571428571v2.8571428571428577q0 0.5800000000000001-0.42428571428571615 1.0042857142857144t-1.0042857142857144 0.4242857142857108h-25.71428571428571q-0.5800000000000001 0-1.0042857142857144-0.4242857142857144t-0.4242857142857144-1.0042857142857136v-2.8571428571428577q0-0.5800000000000001 0.4242857142857144-1.0042857142857144t1.0042857142857144-0.42428571428571393h25.71428571428571q0.5799999999999983 0 1.0042857142857144 0.4242857142857144t0.42428571428571615 1.004285714285714z"></path></svg>