<?xml version="1.0"?><svg viewBox="0 0 40 40" xmlns="http://www.w3.org/2000/svg" height="40" width="40"><path d="m31.1 26.9v2.2q0 0.4-0.3 0.8t-0.8 0.3h-28.9q-0.4 0-0.8-0.3t-0.3-0.8v-2.2q0-0.5 0.3-0.8t0.8-0.3h28.9q0.5 0 0.8 0.3t0.3 0.8z m-6.7-6.7v2.2q0 0.5-0.3 0.8t-0.8 0.3h-15.5q-0.5 0-0.8-0.3t-0.3-0.8v-2.2q0-0.4 0.3-0.8t0.8-0.3h15.5q0.5 0 0.8 0.3t0.3 0.8z m4.5-6.7v2.3q0 0.4-0.3 0.7t-0.8 0.4h-24.5q-0.4 0-0.7-0.4t-0.4-0.7v-2.3q0-0.4 0.4-0.7t0.7-0.4h24.5q0.4 0 0.8 0.4t0.3 0.7z m-6.7-6.6v2.2q0 0.4-0.3 0.8t-0.8 0.3h-11.1q-0.5 0-0.8-0.3t-0.3-0.8v-2.2q0-0.5 0.3-0.8t0.8-0.3h11.1q0.5 0 0.8 0.3t0.3 0.8z"></path></svg>