<?xml version="1.0"?><svg xmlns="http://www.w3.org/2000/svg" width="40" height="40" viewBox="0 0 40 40"><path d="m34.620000000000005 32.94714285714286q0.33428571428571274-0.134285714285717 0.5799999999999983-0.06714285714285495t0.24571428571428555 0.39000000000000057-0.33428571428571274 0.7457142857142856q-0.28999999999999915 0.3571428571428541-0.9828571428571422 0.971428571428568t-2.1314285714285717 1.5171428571428578-3.147142857142857 1.6514285714285677-4.1971428571428575 1.2942857142857136-5.124285714285719 0.5500000000000043q-2.654285714285713 0-5.311428571428571-0.6928571428571431t-4.6657142857142855-1.7071428571428555-3.8514285714285714-2.3214285714285694-2.957142857142857-2.3428571428571416-1.8714285714285719-1.95571428571429q-0.1785714285714286-0.1999999999999993-0.22285714285714286-0.36857142857142833t0.02285714285714291-0.2685714285714269 0.1785714285714286-0.15714285714285836 0.2571428571428571-0.04285714285714448 0.2571428571428571 0.10000000000000142q4.2857142857142865 2.611428571428572 6.6971428571428575 3.705714285714283 8.685714285714287 3.9285714285714306 17.835714285714285 2.008571428571429 4.242857142857144-0.8928571428571459 8.728571428571431-3.0142857142857125z m4.621428571428574-2.5671428571428585q0.24285714285714022 0.35714285714285765 0.054285714285711606 1.5514285714285698t-0.6357142857142861 2.28857142857143q-0.7571428571428598 1.8528571428571396-1.8971428571428604 2.767142857142858-0.38000000000000256 0.3142857142857167-0.5799999999999983 0.20285714285714107t0-0.5357142857142847q0.46714285714286063-1.0042857142857144 0.9914285714285711-2.71142857142857t0.14571428571428413-2.1999999999999993q-0.11142857142856855-0.15714285714285836-0.345714285714287-0.25714285714285623t-0.6028571428571396-0.13428571428571345-0.6571428571428584-0.05714285714285694-0.7828571428571465 0-0.7028571428571411 0.04571428571428626-0.691428571428574 0.0671428571428585-0.5028571428571453 0.04285714285714448q-0.134285714285717 0.024285714285714022-0.28999999999999915 0.034285714285715585t-0.24571428571428555 0.02142857142857224-0.1885714285714286 0.022857142857141355-0.15714285714285836 0.014285714285716011h-0.22142857142857153l-0.0671428571428585-0.014285714285716011-0.04285714285714448-0.03142857142857025-0.035714285714277594-0.06857142857143472q-0.13428571428571345-0.35714285714285765 1.048571428571428-0.8914285714285697t2.299999999999997-0.6714285714285708q1.0257142857142867-0.15428571428571303 2.4085714285714275-0.02142857142857224t1.6971428571428575 0.5371428571428574z m-8.795714285714286-9.888571428571428q0 0.6914285714285704 0.3000000000000007 1.428571428571427t0.7142857142857153 1.2942857142857136 0.8385714285714272 1.0285714285714285 0.7371428571428567 0.7142857142857153l0.28999999999999915 0.24285714285714377-5.068571428571428 5q-0.8928571428571423-0.8242857142857147-1.7628571428571433-1.6857142857142868t-1.2942857142857136-1.3042857142857152l-0.4242857142857126-0.4471428571428575q-0.24571428571428555-0.24571428571428555-0.5571428571428569-0.7371428571428567-0.8500000000000014 1.3171428571428585-2.177142857142858 2.28857142857143t-2.8428571428571416 1.4171428571428564-3.12857142857143 0.514285714285716-3.0671428571428567-0.47142857142857153-2.6228571428571428-1.4600000000000009-1.8528571428571432-2.522857142857145-0.6914285714285713-3.62857142857143q0-1.8742857142857154 0.6257142857142854-3.435714285714287t1.6071428571428577-2.6000000000000014 2.3771428571428483-1.8557142857142779 2.734285714285715-1.2714285714285722 2.8999999999999986-0.7714285714285722 2.668571428571429-0.4142857142857146 2.2214285714285715-0.14285714285714235v-2.8342857142857127q0-1.451428571428572-0.46857142857142975-2.1657142857142855-0.7571428571428562-1.1814285714285715-2.6999999999999993-1.1814285714285715-0.13571428571428612 0-0.3714285714285701 0.02285714285714313t-0.9028571428571439 0.265714285714286-1.25 0.6571428571428575-1.25 1.3285714285714283-1.0714285714285712 2.1428571428571423l-6.562857142857142-0.5999999999999996q0-1.3428571428571425 0.4914285714285711-2.6571428571428575t1.4971428571428582-2.5214285714285722 2.41-2.12 3.379999999999999-1.4614285714285717 4.25714285714286-0.5471428571428572q2.232857142857142 0 4.039999999999999 0.5571428571428572t2.8900000000000006 1.3742857142857143 1.807142857142857 1.8528571428571428 1.0042857142857144 1.9185714285714286 0.27857142857142847 1.6399999999999997v13.14857142857143z m-15 0.46857142857142975q0 1.9200000000000017 1.562857142857144 2.9685714285714297 1.4714285714285715 0.9828571428571422 3.102857142857143 0.4914285714285711 1.8742857142857154-0.5571428571428569 2.5428571428571445-2.7457142857142856 0.31428571428571317-1.0042857142857144 0.31428571428571317-2.2542857142857144v-3.614285714285714q-1.3185714285714276 0.042857142857142705-2.4785714285714278 0.2657142857142851t-2.3771428571428572 0.7471428571428582-1.9400000000000013 1.5857142857142854-0.725714285714286 2.554285714285715z"></path></svg>