<?xml version="1.0"?><svg viewBox="0 0 40 40" xmlns="http://www.w3.org/2000/svg" height="40" width="40"><path d="m26.9 29.2q0.3-0.1 0.5-0.1t0.2 0.3q0 0.3-0.3 0.6-0.2 0.3-0.8 0.8t-1.6 1.1q-1.1 0.7-2.5 1.3t-3.2 1q-2 0.5-4 0.5-2.1 0-4.1-0.6t-3.7-1.3q-1.5-0.8-3-1.8t-2.3-1.8q-0.8-0.9-1.4-1.6-0.2-0.1-0.2-0.2t0-0.3q0.1 0 0.2-0.1t0.2 0q0.1 0 0.2 0.1 3.3 2 5.2 2.8 6.7 3.1 13.8 1.6 3.3-0.7 6.8-2.3z m3.6-2q0.2 0.2 0.1 1.2t-0.5 1.8q-0.6 1.4-1.5 2.1-0.3 0.3-0.5 0.2t0-0.5q0.4-0.7 0.8-2.1t0.1-1.7q-0.1-0.1-0.2-0.2t-0.5-0.1q-0.3 0-0.5 0t-0.6 0q-0.4 0-0.6 0t-0.5 0.1q-0.4 0-0.4 0-0.1 0-0.2 0t-0.2 0q-0.1 0.1-0.2 0.1t-0.1 0h-0.2q0 0 0 0t-0.1-0.1l0 0q-0.1-0.3 0.8-0.7t1.8-0.5q0.8-0.2 1.9 0t1.3 0.4z m-6.8-7.7q0 0.5 0.2 1.1t0.6 1q0.3 0.4 0.6 0.8t0.6 0.6l0.2 0.1-3.9 3.9q-0.7-0.6-1.4-1.3t-1-1l-0.3-0.3q-0.2-0.2-0.5-0.6-0.6 1-1.7 1.8t-2.2 1.1q-1.1 0.3-2.4 0.4t-2.4-0.4q-1.1-0.4-2-1.1t-1.5-2q-0.5-1.2-0.5-2.8 0-1.5 0.5-2.7t1.2-2q0.8-0.8 1.9-1.5t2.1-0.9q1-0.4 2.3-0.6t2-0.4q0.9 0 1.8-0.1v-2.2q0-1.1-0.4-1.7-0.6-0.9-2.1-0.9-0.1 0-0.3 0t-0.7 0.2q-0.5 0.2-1 0.5t-0.9 1.1q-0.6 0.7-0.9 1.6l-5.1-0.4q0-1.1 0.4-2.1t1.2-1.9q0.8-1 1.8-1.7t2.7-1.1q1.5-0.5 3.3-0.5 1.7 0 3.1 0.5t2.3 1q0.8 0.7 1.4 1.5t0.8 1.5q0.2 0.7 0.2 1.3v10.2z m-11.7 0.3q0 1.5 1.2 2.4 1.2 0.7 2.4 0.3 1.5-0.4 2-2.1 0.3-0.8 0.3-1.8v-2.8q-1.1 0.1-2 0.2t-1.8 0.6q-1 0.4-1.5 1.3t-0.6 1.9z"></path></svg>