<?xml version="1.0"?><svg viewBox="0 0 40 40" xmlns="http://www.w3.org/2000/svg" height="40" width="40"><path d="m10.5 29.6q0.6-0.7 0.6-1.6t-0.6-1.6q-0.7-0.6-1.6-0.6t-1.6 0.6q-0.6 0.7-0.6 1.6t0.6 1.6q0.7 0.6 1.6 0.6t1.6-0.6z m-6.1-10.5h6.7v-4.4h-2.7q-0.3 0-0.4 0.1l-3.4 3.4q-0.1 0.2-0.2 0.4v0.5z m21.6 10.5q0.7-0.7 0.7-1.6t-0.7-1.6q-0.6-0.6-1.6-0.6t-1.5 0.6q-0.7 0.7-0.7 1.6t0.7 1.6q0.6 0.6 1.5 0.6t1.6-0.6z m2.9-13.3v-3.3q0-0.3-0.2-0.4t-0.4-0.2h-3.9v-3.9q0-0.2-0.1-0.4t-0.4-0.1h-3.3q-0.3 0-0.4 0.1t-0.2 0.4v3.9h-3.9q-0.2 0-0.4 0.2t-0.1 0.4v3.3q0 0.3 0.1 0.4t0.4 0.2h3.9v3.9q0 0.2 0.2 0.4t0.4 0.1h3.3q0.2 0 0.4-0.1t0.1-0.4v-3.9h3.9q0.3 0 0.4-0.2t0.2-0.4z m4.4-9.4v20q0 0.4-0.3 0.8t-0.8 0.3h-3.3q0 1.8-1.3 3.1t-3.2 1.3q-1.8 0-3.1-1.3t-1.3-3.1h-6.7q0 1.8-1.3 3.1t-3.1 1.3q-1.9 0-3.2-1.3t-1.3-3.1h-2.2q-0.4 0-0.8-0.3t-0.3-0.8q0-0.5 0.3-0.8t0.8-0.3v-7.3q0-0.4 0.2-1t0.6-0.9l3.4-3.4q0.4-0.3 0.9-0.5t1-0.3h2.8v-5.5q0-0.5 0.3-0.8t0.8-0.3h20q0.5 0 0.8 0.3t0.3 0.8z"></path></svg>