<?xml version="1.0"?><svg viewBox="0 0 40 40" xmlns="http://www.w3.org/2000/svg" height="40" width="40"><path d="m21.4 5.4q0-0.5-0.5-0.9t-0.9-0.4-0.9 0.4-0.5 0.9 0.5 0.9 0.9 0.5 0.9-0.5 0.5-0.9z m17.5 19.6v7.4q0 0.5-0.4 0.6-0.2 0.1-0.3 0.1-0.2 0-0.5-0.2l-1.9-2q-2.5 3-6.7 4.8t-9.1 1.8-9.1-1.8-6.7-4.8l-1.9 2q-0.2 0.2-0.5 0.2-0.1 0-0.3-0.1-0.4-0.1-0.4-0.6v-7.4q0-0.3 0.2-0.5t0.5-0.2h7.4q0.5 0 0.6 0.4 0.2 0.4-0.1 0.8l-2.1 2.1q1.4 1.9 4 3.2t5.7 1.8v-13.7h-4.1q-0.5 0-0.9-0.4t-0.4-0.9v-2.7q0-0.6 0.4-1t0.9-0.4h4.1v-3.4q-1.2-0.8-2-2t-0.7-2.7q0-2.2 1.6-3.8t3.8-1.6 3.8 1.6 1.6 3.8q0 1.5-0.7 2.7t-2 2v3.4h4.1q0.5 0 0.9 0.4t0.4 1v2.7q0 0.5-0.4 0.9t-0.9 0.4h-4.1v13.7q3.1-0.5 5.7-1.8t4-3.2l-2.1-2.1q-0.3-0.4-0.1-0.8 0.1-0.4 0.6-0.4h7.4q0.3 0 0.5 0.2t0.2 0.5z"></path></svg>