<?xml version="1.0"?><svg xmlns="http://www.w3.org/2000/svg" width="40" height="40" viewBox="0 0 40 40"><path d="m21.42857142857143 5.714285714285714q0-0.5800000000000001-0.4242857142857126-1.0042857142857144t-1.004285714285718-0.4242857142857144-1.0042857142857144 0.4242857142857144-0.4242857142857126 1.0042857142857144 0.4242857142857126 1.0042857142857144 1.0042857142857144 0.4242857142857144 1.0042857142857144-0.4242857142857144 0.42428571428571615-1.0042857142857144z m18.57142857142857 20.714285714285715v7.857142857142854q0 0.4914285714285711-0.4471428571428575 0.6714285714285708-0.1785714285714306 0.04285714285714448-0.2671428571428578 0.04285714285714448-0.28999999999999915 0-0.5142857142857125-0.20000000000000284l-2.0742857142857147-2.07714285714286q-2.6571428571428584 3.191428571428574-7.109999999999999 5.057142857142857t-9.587142857142858 1.8628571428571519-9.585714285714285-1.8642857142857139-7.111428571428571-5.057142857142857l-2.0742857142857147 2.078571428571422q-0.20285714285714285 0.20000000000000284-0.5142857142857142 0.20000000000000284-0.08999999999999997 0-0.2671428571428571-0.04285714285714448-0.4471428571428573-0.18142857142856883-0.4471428571428573-0.6714285714285708v-7.857142857142858q0-0.31428571428571317 0.2-0.514285714285716t0.5142857142857142-0.19999999999999574h7.857142857142857q0.4914285714285711 0 0.6714285714285708 0.4471428571428575 0.17714285714285793 0.4242857142857126-0.15714285714285658 0.7814285714285703l-2.232857142857142 2.232857142857142q1.4957142857142856 2.0314285714285703 4.228571428571428 3.4257142857142853t6.061428571428571 1.8414285714285725v-14.442857142857143h-4.285714285714285q-0.5800000000000001 0-1.0042857142857144-0.4228571428571435t-0.4242857142857144-1.0057142857142836v-2.8571428571428577q0-0.5785714285714292 0.4242857142857144-1.0028571428571436t1.0042857142857144-0.42571428571428527h4.285714285714285v-3.635714285714286q-1.2942857142857136-0.757142857142858-2.0757142857142856-2.064285714285715t-0.7814285714285703-2.871428571428571q0-2.3642857142857143 1.6742857142857144-4.038571428571428t4.039999999999999-1.6757142857142862 4.039999999999999 1.6757142857142857 1.6742857142857162 4.038571428571428q0 1.564285714285715-0.7814285714285703 2.871428571428572t-2.0757142857142874 2.061428571428573v3.638571428571428h4.285714285714285q0.5800000000000018 0 1.0042857142857144 0.42571428571428527t0.42428571428571615 1.0028571428571436v2.8571428571428577q0 0.581428571428571-0.4242857142857126 1.0057142857142871t-1.004285714285718 0.42285714285713993h-4.285714285714285v14.442857142857143q3.3257142857142874-0.4471428571428575 6.059999999999999-1.8428571428571416t4.228571428571428-3.4242857142857126l-2.2314285714285695-2.2328571428571458q-0.33428571428571274-0.35714285714285765-0.15714285714285836-0.7814285714285703 0.18142857142857238-0.4471428571428575 0.6714285714285744-0.4471428571428575h7.857142857142861q0.3142857142857167 0 0.5142857142857125 0.1999999999999993t0.20000000000000284 0.514285714285716z"></path></svg>