<?xml version="1.0"?><svg viewBox="0 0 40 40" xmlns="http://www.w3.org/2000/svg" height="40" width="40"><path d="m15.5 10.2q0.4 0 0.6-0.3t0.3-0.5-0.3-0.6-0.6-0.3-0.5 0.3-0.3 0.6 0.3 0.5 0.5 0.3z m9 0q0.3 0 0.5-0.3t0.3-0.5-0.3-0.6-0.5-0.3-0.6 0.3-0.3 0.6 0.3 0.5 0.6 0.3z m-17.2 3.9q0.9 0 1.5 0.6t0.7 1.5v9.1q0 0.9-0.6 1.5t-1.6 0.7-1.5-0.7-0.7-1.5v-9.1q0-0.9 0.7-1.5t1.5-0.6z m22.4 0.4v14q0 1-0.7 1.7t-1.6 0.6h-1.6v4.8q0 0.9-0.6 1.6t-1.6 0.6-1.5-0.6-0.6-1.6v-4.8h-3v4.8q0 0.9-0.6 1.6t-1.5 0.6q-0.9 0-1.5-0.6t-0.7-1.6l0-4.8h-1.6q-0.9 0-1.6-0.6t-0.7-1.7v-14h19.4z m-4.9-8.6q2.2 1.2 3.6 3.3t1.3 4.5h-19.5q0-2.5 1.4-4.5t3.6-3.3l-1.5-2.7q-0.1-0.3 0.1-0.5 0.3-0.1 0.4 0.2l1.6 2.8q2-0.9 4.2-0.9t4.2 0.9l1.6-2.8q0.1-0.3 0.4-0.2 0.2 0.2 0.1 0.5z m10.1 10.3v9.1q0 0.9-0.7 1.5t-1.5 0.7q-0.9 0-1.5-0.7t-0.7-1.5v-9.1q0-0.9 0.7-1.5t1.5-0.6q0.9 0 1.5 0.6t0.7 1.5z"></path></svg>