<?xml version="1.0"?><svg xmlns="http://www.w3.org/2000/svg" width="40" height="40" viewBox="0 0 40 40"><path d="m15.29 10.781428571428572q0.35714285714285765 0 0.6142857142857139-0.257142857142858t0.25714285714285623-0.6142857142857139-0.25714285714285623-0.6142857142857139-0.6142857142857139-0.25714285714285623-0.6028571428571432 0.25714285714285623-0.24285714285714377 0.6142857142857139 0.24285714285714377 0.6142857142857139 0.6042857142857141 0.25714285714285623z m9.420000000000002 0q0.35714285714285765 0 0.6028571428571432-0.257142857142858t0.24285714285714377-0.6142857142857139-0.24285714285714377-0.6142857142857139-0.6042857142857159-0.25714285714285623-0.6142857142857139 0.25714285714285623-0.25714285714285623 0.6142857142857139 0.25714285714285623 0.6142857142857139 0.6142857142857139 0.25714285714285623z m-18.124285714285715 4.107142857142858q0.9357142857142868 0 1.6057142857142868 0.6714285714285708t0.6714285714285708 1.6057142857142868v9.600000000000001q0 0.9571428571428555-0.6600000000000001 1.62857142857143t-1.6185714285714283 0.6714285714285708-1.6314285714285717-0.6714285714285708-0.6714285714285717-1.62857142857143v-9.600000000000001q0-0.937142857142856 0.6714285714285717-1.6071428571428577t1.6285714285714281-0.668571428571429z m23.660000000000004 0.4242857142857144v14.864285714285714q0 1.0285714285714285-0.7142857142857153 1.7428571428571438t-1.7185714285714297 0.7142857142857153h-1.6757142857142853v5.065714285714286q0 0.96142857142857-0.6714285714285708 1.6314285714285717t-1.62857142857143 0.6714285714285708-1.62857142857143-0.6714285714285708-0.6714285714285708-1.6285714285714263v-5.068571428571431h-3.0799999999999983v5.067142857142855q0 0.96142857142857-0.668571428571429 1.6314285714285717t-1.62857142857143 0.6714285714285708q-0.9385714285714286 0-1.6085714285714285-0.6714285714285708t-0.6714285714285708-1.6285714285714263l-0.02142857142857224-5.068571428571431h-1.6500000000000004q-1.0285714285714285 0-1.7428571428571438-0.7142857142857153t-0.7142857142857135-1.7428571428571438v-14.864285714285712h20.491428571428578z m-5.178571428571427-9.042857142857143q2.388571428571428 1.2285714285714286 3.8171428571428585 3.428571428571429t1.428571428571427 4.80857142857143h-20.648571428571433q0-2.611428571428572 1.4285714285714288-4.8100000000000005t3.84-3.428571428571429l-1.5857142857142854-2.9228571428571426q-0.1542857142857148-0.29000000000000004 0.11428571428571388-0.44714285714285706 0.28857142857142826-0.132857142857143 0.4457142857142866 0.13571428571428568l1.6071428571428559 2.9485714285714257q2.121428571428572-0.9371428571428568 4.4885714285714275-0.9371428571428568t4.485714285714284 0.9371428571428568l1.6085714285714303-2.9471428571428575q0.15714285714285836-0.2671428571428569 0.4471428571428575-0.13428571428571434 0.2685714285714269 0.15714285714285703 0.11428571428571388 0.4485714285714284z m10.647142857142853 10.897142857142855v9.600000000000001q0 0.9571428571428555-0.6714285714285708 1.62857142857143t-1.6285714285714263 0.6714285714285708q-0.9371428571428595 0-1.6071428571428577-0.6714285714285708t-0.6714285714285708-1.62857142857143v-9.600000000000001q0-0.9600000000000009 0.6714285714285708-1.6185714285714283t1.6071428571428577-0.6571428571428566q0.9600000000000009 0 1.6285714285714263 0.6571428571428566t0.6714285714285708 1.6185714285714283z"></path></svg>