<?xml version="1.0"?><svg xmlns="http://www.w3.org/2000/svg" width="40" height="40" viewBox="0 0 40 40"><path d="m26.985714285714288 8.437142857142858l-2.5428571428571445 7.321428571428571 2.611428571428572 0.47142857142857153q3.6828571428571415-10.06857142857143 3.6828571428571415-11.564285714285715 0-1.25-0.8485714285714288-1.25-1.2714285714285722 0-2.8999999999999986 5.022857142857143z m-6.671428571428571 15.334285714285715l0.7357142857142875 1.9657142857142844q0.8257142857142838-0.937142857142856 1.5857142857142854-1.4957142857142856l-0.7385714285714293-0.12428571428571544-0.8599999999999994-0.15714285714285836-0.725714285714286-0.1885714285714286z m-6.52-20q0 2.1885714285714286 3.548571428571428 11.631428571428572 0.3999999999999986-0.22285714285714242 1.0942857142857143-0.22285714285714242 0.33428571428571274 0 1.6742857142857126 0.1114285714285721l-2.6999999999999993-7.834285714285716q-1.6771428571428597-4.91-2.748571428571431-4.91-0.4242857142857144 0-0.6471428571428568 0.3900000000000001t-0.22285714285714242 0.8371428571428572z m-1.7628571428571451 16.942857142857143q0 0.8028571428571425 1.1500000000000004 2.6571428571428584t2.6228571428571428 3.4142857142857146 2.232857142857142 1.562857142857144q0.31428571428571317 0 0.5685714285714276-0.28999999999999915t0.25714285714285623-0.6000000000000014q0-0.5371428571428574-0.7142857142857153-2.2785714285714285-0.28999999999999915-0.7142857142857153-0.7142857142857153-1.6071428571428577t-1.0599999999999987-1.985714285714284-1.3714285714285719-1.8099999999999987-1.3857142857142861-0.7142857142857153q-0.4471428571428575 0-1.0142857142857142 0.6028571428571432t-0.5714285714285712 1.048571428571428z m-3.5285714285714285 7.477142857142859q0 0.9142857142857146 0.5600000000000005 2.321428571428573 1.3171428571428567 3.235714285714284 4.095714285714287 5.065714285714289t6.285714285714288 1.8285714285714292q5.065714285714286 0 8.525714285714287-3.7928571428571445 3.3928571428571423-3.7714285714285722 3.3928571428571423-9.528571428571428 0-0.96142857142857-0.022857142857141355-1.4971428571428582t-0.25714285714285623-1.3857142857142861-0.6814285714285724-1.2485714285714273q-1.25-1.0942857142857143-4.7214285714285715-1.6857142857142868t-6.03857142857143-0.5914285714285725q-0.8257142857142838 0-1.0942857142857143 0.24571428571428555-0.2671428571428578 0.1114285714285721-0.2671428571428578 0.7814285714285703 0 0.7571428571428562 0.4800000000000004 1.3399999999999999t1.2399999999999984 0.894285714285715 1.7285714285714278 0.524285714285714 1.9542857142857137 0.25714285714285623 1.8971428571428568 0.08999999999999986 1.562857142857144 0h0.5142857142857125q0.5342857142857156 0 0.8914285714285697 0.4242857142857126 0.33428571428571274 0.4242857142857126 0.4242857142857126 1.2285714285714278-0.6257142857142846 0.6242857142857154-2.1428571428571423 1.2042857142857137-1.3628571428571412 0.4914285714285711-2.0771428571428565 1.0285714285714285-1.428571428571427 1.0257142857142867-2.421428571428571 2.5428571428571445t-0.9914285714285711 3.057142857142857q0 0.6928571428571431 0.4142857142857146 1.977142857142855t0.4114285714285728 1.952857142857141l-0.0671428571428585 0.2671428571428578q-0.08999999999999986 0.2671428571428578-0.08999999999999986 0.3142857142857167-3.057142857142857-0.2242857142857133-3.2571428571428562-4.822857142857142-0.17999999999999972 0.04285714285714448-0.9171428571428564 0.04285714285714448 0.04285714285714448 0.15714285714285836 0.04285714285714448 0.47142857142857153 0 1.1814285714285688-0.9028571428571439 1.9957142857142856t-2.1099999999999994 0.8142857142857167q-1.8285714285714292 0-3.717142857142857-1.7428571428571402t-1.8857142857142861-3.547142857142859q0-0.7571428571428562 0.7385714285714293-1.4957142857142856 1.1600000000000001 1.428571428571427 1.3399999999999999 1.6971428571428575 1.718571428571428 2.321428571428573 2.968571428571428 2.321428571428573 0.2671428571428578 0 0.5914285714285707-0.19000000000000128t0.32428571428571473-0.4571428571428555q0-0.7571428571428562-1.9528571428571428-3.2371428571428567t-2.5999999999999996-2.4785714285714278q-0.9600000000000009 0-1.5628571428571423 0.9928571428571438t-0.6028571428571432 2.0199999999999996z m-2.5428571428571427 0.1999999999999993q0-2.252857142857142 0.9485714285714284-3.637142857142859t3.047142857142857-1.9642857142857153q-0.6285714285714281-1.6514285714285712-0.6285714285714281-2.321428571428573 0-1.3857142857142861 1.362857142857143-2.7457142857142856t2.7228571428571424-1.361428571428572q0.6471428571428568 0 1.5628571428571423 0.33428571428571274-3.638571428571428-10.314285714285715-3.638571428571428-12.657142857142857 0-1.7857142857142856 0.9142857142857146-2.911428571428571t2.6599999999999966-1.1271428571428537q2.9242857142857126 0 7.2542857142857144 12.968571428571428 0.13428571428571345 0.3800000000000008 0.17857142857142705 0.5142857142857142 0.13428571428571345-0.35714285714285765 0.6471428571428568-1.7757142857142867t0.9714285714285715-2.645714285714286 1.2057142857142864-2.845714285714285 1.4400000000000013-2.742857142857143 1.5742857142857147-1.9328571428571428 1.707142857142859-0.8028571428571429q1.5857142857142854 0 2.5 1.0942857142857143t0.914285714285711 2.724285714285714q0 2.41-3.547142857142859 12.277142857142856 1.3599999999999994 0.3357142857142854 2.2428571428571438 1.0285714285714285t1.3042857142857152 1.7428571428571438 0.5799999999999983 2.0857142857142854 0.15428571428571303 2.467142857142857q0 3.3485714285714288-1.048571428571428 6.25t-2.9471428571428575 5.022857142857145-4.708571428571428 3.348571428571425-6.205714285714286 1.2285714285714278q-2.4771428571428586 0-4.977142857142857-0.9385714285714286-3.3257142857142856-1.2714285714285722-5.757142857142858-4.274285714285718t-2.4371428571428506-6.3999999999999915z"></path></svg>