<?xml version="1.0"?><svg viewBox="0 0 40 40" xmlns="http://www.w3.org/2000/svg" height="40" width="40"><path d="m26.6 8l-2.4 6.9 2.4 0.4q3.5-9.5 3.5-10.9 0-1.2-0.8-1.2-1.2 0-2.7 4.8z m-6.3 14.5l0.7 1.8q0.7-0.9 1.5-1.4l-0.7-0.1-0.8-0.2-0.7-0.1z m-6.2-18.9q0 2 3.4 11 0.3-0.3 1-0.3 0.3 0 1.6 0.2l-2.6-7.5q-1.6-4.6-2.6-4.6-0.4 0-0.6 0.4t-0.2 0.8z m-1.7 16q0 0.7 1.1 2.5t2.5 3.2 2.1 1.5q0.3 0 0.6-0.3t0.2-0.6q0-0.5-0.7-2.1-0.3-0.7-0.7-1.5t-1-1.9-1.3-1.7-1.3-0.7q-0.4 0-0.9 0.6t-0.6 1z m-3.3 7q0 0.9 0.5 2.2 1.3 3.1 3.9 4.8t5.9 1.8q4.8 0 8.1-3.6 3.2-3.6 3.2-9 0-0.9 0-1.5t-0.3-1.3-0.6-1.1q-1.2-1.1-4.5-1.6t-5.7-0.6q-0.7 0-1 0.2-0.3 0.1-0.3 0.8 0 0.7 0.5 1.2t1.2 0.9 1.6 0.5 1.9 0.2 1.7 0.1 1.5 0h0.5q0.5 0 0.9 0.4 0.3 0.4 0.4 1.2-0.6 0.6-2.1 1.1-1.3 0.5-1.9 1-1.4 1-2.3 2.4t-1 2.9q0 0.6 0.4 1.8t0.4 1.9l0 0.2q-0.1 0.3-0.1 0.3-2.9-0.2-3.1-4.5-0.2 0-0.9 0 0.1 0.2 0.1 0.5 0 1.1-0.9 1.9t-2 0.7q-1.7 0-3.5-1.6t-1.8-3.4q0-0.7 0.7-1.4 1.1 1.4 1.3 1.6 1.6 2.2 2.8 2.2 0.2 0 0.6-0.2t0.3-0.4q0-0.7-1.9-3.1t-2.4-2.3q-1 0-1.5 0.9t-0.6 1.9z m-2.4 0.2q0-2.1 0.9-3.4t2.9-1.9q-0.6-1.5-0.6-2.2 0-1.3 1.3-2.5t2.5-1.3q0.7 0 1.5 0.3-3.4-9.8-3.4-12 0-1.7 0.9-2.7t2.5-1.1q2.7 0 6.8 12.3 0.1 0.3 0.2 0.4 0.1-0.3 0.6-1.6t0.9-2.5 1.2-2.7 1.3-2.6 1.5-1.8 1.6-0.8q1.5 0 2.4 1t0.8 2.6q0 2.3-3.3 11.6 1.3 0.3 2.1 1t1.2 1.6 0.6 2 0.1 2.3q0 3.2-1 5.9t-2.7 4.8-4.5 3.1-5.9 1.2q-2.3 0-4.7-0.9-3.1-1.2-5.4-4t-2.3-6.1z"></path></svg>