<?xml version="1.0"?><svg viewBox="0 0 40 40" xmlns="http://www.w3.org/2000/svg" height="40" width="40"><path d="m16.5 10.1l-1.9 5.7 2 0.4q2.9-7.9 2.9-9 0-1-0.7-1-1 0-2.3 3.9z m-5.1 11.9l0.5 1.6q0.7-0.8 1.3-1.2l-0.6-0.1q-0.4-0.1-0.7-0.1t-0.5-0.2z m-5.1-15.5q0 1.7 2.7 9 0.4-0.2 0.9-0.2 0.3 0 1.3 0.1l-2.1-6.1q-1.3-3.8-2.1-3.8-0.4 0-0.5 0.3t-0.2 0.7z m-1.4 13.2q0 0.6 0.9 2t2 2.7q1.2 1.2 1.8 1.2 0.2 0 0.4-0.2t0.2-0.5q0-0.4-0.5-1.8-0.3-0.5-0.6-1.2t-0.8-1.6q-0.5-0.8-1.1-1.4t-1.1-0.5q-0.3 0-0.7 0.4t-0.5 0.9z m-2.7 5.8q0 0.7 0.4 1.8 1 2.5 3.2 3.9t4.9 1.4q3.9 0 6.6-2.9 2.6-2.9 2.6-7.4 0-0.8 0-1.2t-0.2-1.1q-0.2-0.6-0.5-0.9-1-0.9-3.7-1.3t-4.7-0.5q-0.6 0-0.8 0.2-0.2 0.1-0.2 0.6 0 0.6 0.3 1t1 0.7q0.6 0.3 1.4 0.4t1.5 0.2q0.7 0.1 1.5 0.1t1.2 0h0.4q0.4 0 0.7 0.3 0.2 0.4 0.3 1-0.5 0.5-1.7 0.9-1 0.4-1.6 0.8-1.1 0.8-1.9 2t-0.7 2.4q0 0.5 0.3 1.5t0.3 1.5l-0.1 0.2q0 0.3 0 0.3-2.4-0.2-2.6-3.8-0.1 0.1-0.7 0.1 0.1 0.1 0.1 0.3 0 1-0.7 1.6t-1.7 0.6q-1.4 0-2.9-1.3t-1.4-2.8q0-0.6 0.5-1.2 0.9 1.2 1.1 1.4 1.3 1.8 2.3 1.8 0.2 0 0.4-0.2t0.3-0.3q0-0.6-1.5-2.5t-2-2q-0.8 0-1.3 0.8t-0.4 1.6z m-2 0.1q0-1.7 0.7-2.8t2.4-1.5q-0.5-1.3-0.5-1.8 0-1.1 1.1-2.2t2.1-1q0.5 0 1.2 0.2-2.8-8-2.8-9.8 0-1.4 0.7-2.3t2.1-0.9q2.2 0 5.6 10.1 0.1 0.3 0.1 0.4 0.1-0.3 0.5-1.4t0.8-2q0.3-1 0.9-2.2t1.2-2.2q0.5-0.8 1.2-1.5t1.3-0.6q1.2 0 1.9 0.9t0.8 2.1q0 1.9-2.8 9.5 1.1 0.3 1.7 0.8t1.1 1.4q0.3 0.8 0.4 1.6t0.1 1.9q0 2.6-0.8 4.9t-2.3 3.9q-1.5 1.6-3.6 2.6t-4.9 1q-1.9 0-3.8-0.8-2.6-1-4.5-3.3t-1.9-5z"></path></svg>