<?xml version="1.0"?><svg xmlns="http://www.w3.org/2000/svg" width="40" height="40" viewBox="0 0 40 40"><path d="m21.852857142857143 30.714285714285715q0 0.28999999999999915-0.2228571428571442 0.5142857142857125l-1.1142857142857139 1.1142857142857139q-0.2228571428571442 0.2228571428571442-0.514285714285716 0.2228571428571442t-0.5114285714285707-0.2228571428571442l-10.4-10.399999999999999q-0.2271428571428551-0.22571428571428598-0.2271428571428551-0.5142857142857125t0.22285714285714242-0.5142857142857125l10.402857142857144-10.4q0.2228571428571442-0.22285714285714242 0.514285714285716-0.22285714285714242t0.5114285714285707 0.22285714285714242l1.1142857142857139 1.1142857142857139q0.2242857142857133 0.2242857142857151 0.2242857142857133 0.5142857142857142t-0.2228571428571442 0.5142857142857142l-8.772857142857141 8.77142857142857 8.771428571428569 8.771428571428572q0.2242857142857133 0.2242857142857133 0.2242857142857133 0.5142857142857125z m8.571428571428573 0q0 0.28999999999999915-0.2228571428571442 0.5142857142857125l-1.1142857142857139 1.1142857142857139q-0.2228571428571442 0.2228571428571442-0.5142857142857125 0.2228571428571442t-0.5114285714285707-0.2228571428571442l-10.400000000000002-10.399999999999999q-0.2242857142857133-0.2242857142857133-0.2242857142857133-0.5142857142857125t0.2228571428571442-0.5142857142857125l10.402857142857144-10.4q0.2228571428571442-0.22285714285714242 0.5142857142857125-0.22285714285714242t0.5114285714285707 0.22285714285714242l1.1142857142857139 1.1142857142857139q0.2242857142857133 0.2242857142857151 0.2242857142857133 0.5142857142857142t-0.2228571428571442 0.5142857142857142l-8.775714285714283 8.77142857142857 8.771428571428572 8.771428571428572q0.2242857142857133 0.2242857142857133 0.2242857142857133 0.5142857142857125z"></path></svg>