<?xml version="1.0"?><svg xmlns="http://www.w3.org/2000/svg" width="40" height="40" viewBox="0 0 40 40"><path d="m31.13857142857143 29.285714285714285q0 0.28999999999999915-0.2228571428571442 0.5142857142857125l-1.1142857142857139 1.1142857142857139q-0.2228571428571442 0.2228571428571442-0.5142857142857125 0.2228571428571442t-0.5114285714285707-0.2228571428571442l-8.771428571428569-8.771428571428572-8.774285714285716 8.771428571428572q-0.22285714285714242 0.2228571428571442-0.5142857142857142 0.2228571428571442t-0.5114285714285707-0.2228571428571442l-1.1142857142857139-1.1142857142857139q-0.2242857142857151-0.2242857142857133-0.2242857142857151-0.5142857142857125t0.22285714285714242-0.5142857142857125l10.402857142857144-10.399999999999999q0.2228571428571442-0.2228571428571442 0.5142857142857125-0.2228571428571442t0.5114285714285707 0.2228571428571442l10.400000000000002 10.399999999999999q0.2242857142857133 0.2242857142857133 0.2242857142857133 0.5142857142857125z m0-8.57142857142857q0 0.28999999999999915-0.2228571428571442 0.5142857142857125l-1.1142857142857139 1.1142857142857139q-0.2228571428571442 0.2228571428571442-0.5142857142857125 0.2228571428571442t-0.5114285714285707-0.2228571428571442l-8.772857142857145-8.77142857142857-8.774285714285718 8.771428571428574q-0.22285714285714242 0.2228571428571442-0.5142857142857142 0.2228571428571442t-0.5114285714285707-0.2228571428571442l-1.1142857142857139-1.1142857142857139q-0.2242857142857151-0.2242857142857133-0.2242857142857151-0.514285714285716t0.22285714285714242-0.5142857142857125l10.402857142857146-10.4q0.2228571428571442-0.22285714285714242 0.5142857142857125-0.22285714285714242t0.5114285714285707 0.22285714285714242l10.400000000000002 10.4q0.2242857142857133 0.2242857142857133 0.2242857142857133 0.5142857142857125z"></path></svg>