<?xml version="1.0"?><svg xmlns="http://www.w3.org/2000/svg" width="40" height="40" viewBox="0 0 40 40"><path d="m31.13857142857143 19.285714285714285q0 0.28999999999999915-0.2228571428571442 0.5142857142857125l-10.399999999999999 10.399999999999999q-0.2228571428571442 0.2228571428571442-0.5142857142857125 0.2228571428571442t-0.5114285714285707-0.2228571428571442l-10.4-10.399999999999999q-0.2242857142857151-0.2242857142857133-0.2242857142857151-0.5142857142857125t0.22285714285714242-0.5142857142857125l1.1171428571428574-1.1142857142857139q0.22285714285714242-0.2228571428571442 0.5142857142857142-0.2228571428571442t0.5114285714285707 0.2228571428571442l8.768571428571425 8.771428571428572 8.774285714285718-8.771428571428572q0.2228571428571442-0.2228571428571442 0.5142857142857125-0.2228571428571442t0.5114285714285707 0.2228571428571442l1.1142857142857139 1.1142857142857139q0.2242857142857133 0.2242857142857133 0.2242857142857133 0.5142857142857125z m0-8.571428571428571q0 0.2900000000000009-0.2228571428571442 0.5142857142857142l-10.399999999999999 10.399999999999999q-0.2228571428571442 0.2228571428571442-0.5142857142857125 0.2228571428571442t-0.5114285714285707-0.2228571428571442l-10.4-10.4q-0.2242857142857151-0.2242857142857151-0.2242857142857151-0.5142857142857142t0.22285714285714242-0.5142857142857142l1.1171428571428574-1.1142857142857139q0.22285714285714242-0.22285714285714242 0.5142857142857142-0.22285714285714242t0.5114285714285707 0.22285714285714242l8.768571428571425 8.771428571428574 8.774285714285718-8.77142857142857q0.2228571428571442-0.22285714285714242 0.5142857142857125-0.22285714285714242t0.5114285714285707 0.22285714285714242l1.1142857142857139 1.1142857142857139q0.2242857142857133 0.2242857142857151 0.2242857142857133 0.5142857142857142z"></path></svg>