<?xml version="1.0"?><svg xmlns="http://www.w3.org/2000/svg" width="40" height="40" viewBox="0 0 40 40"><path fill="#444" d="m22.3 21.4q0 0.3-0.2 0.5l-10.4 10.4q-0.3 0.3-0.6 0.3t-0.5-0.3l-1.1-1.1q-0.2-0.2-0.2-0.5t0.2-0.5l8.8-8.8-8.8-8.7q-0.2-0.3-0.2-0.6t0.2-0.5l1.1-1.1q0.3-0.2 0.5-0.2t0.6 0.2l10.4 10.4q0.2 0.2 0.2 0.5z m8.6 0q0 0.3-0.3 0.5l-10.4 10.4q-0.2 0.3-0.5 0.3t-0.5-0.3l-1.1-1.1q-0.2-0.2-0.2-0.5t0.2-0.5l8.8-8.8-8.8-8.7q-0.2-0.3-0.2-0.6t0.2-0.5l1.1-1.1q0.2-0.2 0.5-0.2t0.5 0.2l10.4 10.4q0.3 0.2 0.3 0.5z"></path></svg>