<?xml version="1.0"?><svg xmlns="http://www.w3.org/2000/svg" width="40" height="40" viewBox="0 0 40 40"><path d="m21.852857142857143 21.42857142857143q0 0.28999999999999915-0.2228571428571442 0.5142857142857125l-10.4 10.399999999999999q-0.22285714285714242 0.2228571428571442-0.5142857142857142 0.2228571428571442t-0.5114285714285707-0.2228571428571442l-1.1142857142857139-1.1142857142857139q-0.2242857142857151-0.2242857142857133-0.2242857142857151-0.5142857142857125t0.22285714285714242-0.5142857142857125l8.772857142857145-8.771428571428572-8.772857142857143-8.771428571428574q-0.22571428571428598-0.2257142857142842-0.22571428571428598-0.5142857142857142t0.22285714285714242-0.5142857142857142l1.1171428571428574-1.1142857142857139q0.22285714285714242-0.22285714285714242 0.5142857142857142-0.22285714285714242t0.5114285714285707 0.22285714285714242l10.399999999999999 10.4q0.2242857142857133 0.2242857142857133 0.2242857142857133 0.514285714285716z m8.571428571428573 0q0 0.28999999999999915-0.2228571428571442 0.5142857142857125l-10.399999999999999 10.399999999999999q-0.2228571428571442 0.2228571428571442-0.5142857142857125 0.2228571428571442t-0.5114285714285707-0.2228571428571442l-1.1142857142857139-1.1142857142857139q-0.2242857142857133-0.2242857142857133-0.2242857142857133-0.5142857142857125t0.2228571428571442-0.5142857142857125l8.772857142857138-8.771428571428572-8.771428571428572-8.77142857142857q-0.2242857142857133-0.2242857142857151-0.2242857142857133-0.5142857142857142t0.2228571428571442-0.5142857142857142l1.1171428571428557-1.1142857142857139q0.2228571428571442-0.22285714285714242 0.514285714285716-0.22285714285714242t0.5114285714285707 0.22285714285714242l10.400000000000002 10.4q0.2242857142857133 0.2242857142857133 0.2242857142857133 0.5142857142857125z"></path></svg>