<?xml version="1.0"?><svg xmlns="http://www.w3.org/2000/svg" width="40" height="40" viewBox="0 0 40 40"><path d="m24.285714285714285 18.571428571428573q0-0.5800000000000018-0.4242857142857126-1.0042857142857144t-1.0042857142857144-0.42428571428571615h-5.714285714285715q-0.5800000000000018 0-1.0042857142857144 0.4242857142857126t-0.4242857142857126 1.004285714285718 0.4242857142857126 1.0042857142857144 1.0042857142857144 0.4242857142857126h5.714285714285715q0.5800000000000018 0 1.0042857142857144-0.4242857142857126t0.4242857142857126-1.0042857142857144z m12.857142857142854-4.285714285714285v21.428571428571434q0 0.5799999999999983-0.42428571428571615 1.0042857142857144t-1.0042857142857073 0.42428571428570905h-31.42857142857143q-0.5799999999999992 0-1.0042857142857136-0.42428571428571615t-0.42428571428571393-1.0042857142857144v-21.42857142857143q0-0.5799999999999983 0.4242857142857144-1.0042857142857127t1.004285714285714-0.4242857142857144h31.42857142857143q0.5799999999999983 0 1.0042857142857144 0.4242857142857144t0.42428571428571615 1.0042857142857144z m1.4285714285714306-10v5.714285714285715q0 0.5800000000000001-0.42428571428571615 1.0042857142857144t-1.0042857142857073 0.4242857142857108h-34.28571428571429q-0.579999999999997 0-1.0042857142857111-0.4242857142857144t-0.4242857142857144-1.0042857142857144v-5.714285714285714q0-0.5800000000000001 0.42428571428571416-1.0042857142857144t1.0042857142857144-0.42428571428571393h34.285714285714285q0.5799999999999983 0 1.0042857142857144 0.4242857142857144t0.42428571428571615 1.004285714285714z"></path></svg>