<?xml version="1.0"?><svg viewBox="0 0 40 40" xmlns="http://www.w3.org/2000/svg" height="40" width="40"><path d="m19.4 18.7q-0.1 0.4-0.5 0.4h-3.3v6.1q0 0.3-0.2 0.4t-0.4 0.2h-3.3q-0.3 0-0.4-0.2t-0.2-0.4v-6.1h-3.3q-0.3 0-0.4-0.2t-0.2-0.4q0-0.2 0.2-0.4l5.5-5.5q0.2-0.2 0.4-0.2t0.4 0.2l5.6 5.5q0.2 0.3 0.1 0.6z m-1.3-7.8q-2.2-1.2-4.8-1.2t-4.7 1.2q-2.2 1.3-3.4 3.5t-1.3 4.7q0 2.6 1.3 4.7t3.4 3.5q2.2 1.2 4.7 1.2t4.8-1.2q2.1-1.3 3.4-3.5t1.3-4.7q0-2.6-1.3-4.7t-3.4-3.5z m6.8 1.5q1.8 3.1 1.8 6.7t-1.8 6.7q-1.8 3.1-4.9 4.8t-6.7 1.8q-3.6 0-6.7-1.8t-4.8-4.8q-1.8-3.1-1.8-6.7t1.8-6.7q1.8-3.1 4.8-4.8t6.7-1.8q3.7 0 6.7 1.8t4.9 4.8z"></path></svg>