<?xml version="1.0"?><svg viewBox="0 0 40 40" xmlns="http://www.w3.org/2000/svg" height="40" width="40"><path d="m30.8 18.3q0.3 0.3 0.3 0.8t-0.3 0.8l-4.5 4.4q-0.3 0.4-0.7 0.4t-0.8-0.4q-0.4-0.3-0.4-0.8v-2.2h-6.6v6.7h2.2q0.5 0 0.8 0.3t0.3 0.8q0 0.4-0.3 0.8l-4.5 4.4q-0.3 0.4-0.7 0.4t-0.8-0.4l-4.5-4.4q-0.3-0.4-0.3-0.8t0.3-0.8q0.4-0.3 0.8-0.3h2.2v-6.7h-6.6v2.2q0 0.5-0.4 0.8t-0.7 0.4q-0.5 0-0.8-0.4l-4.5-4.4q-0.3-0.4-0.3-0.8t0.3-0.8l4.5-4.4q0.3-0.4 0.8-0.4t0.7 0.4q0.4 0.3 0.4 0.8v2.2h6.6v-6.7h-2.2q-0.4 0-0.8-0.3t-0.3-0.8q0-0.5 0.3-0.8l4.5-4.4q0.3-0.4 0.8-0.4t0.7 0.4l4.5 4.4q0.3 0.3 0.3 0.8t-0.3 0.8q-0.3 0.3-0.8 0.3h-2.2v6.7h6.6v-2.2q0-0.5 0.4-0.8t0.8-0.4q0.4 0 0.7 0.4l4.5 4.4z"></path></svg>