<?xml version="1.0"?><svg xmlns="http://www.w3.org/2000/svg" width="40" height="40" viewBox="0 0 40 40"><path d="m36.42857142857143 21.42857142857143q0 1.2057142857142864-0.8257142857142838 2.0314285714285703l-14.531428571428574 14.53142857142857q-0.8714285714285701 0.8257142857142838-2.0314285714285703 0.8257142857142838-1.138571428571428 0-2.008571428571429-0.8257142857142838l-1.6742857142857162-1.674285714285709q-0.8485714285714288-0.8485714285714252-0.8485714285714288-2.0314285714285703t0.8485714285714288-2.0314285714285703l6.539999999999999-6.540000000000006h-15.714285714285715q-1.1600000000000001 0-1.8857142857142861-0.8371428571428581t-0.7257142857142838-2.0199999999999996v-2.8571428571428577q0-1.1828571428571415 0.7257142857142855-2.0199999999999996t1.8857142857142861-0.8371428571428581h15.714285714285717l-6.540000000000003-6.562857142857142q-0.8485714285714305-0.8028571428571425-0.8485714285714305-2.008571428571429t0.8485714285714288-2.008571428571429l1.6742857142857144-1.6742857142857144q0.8485714285714288-0.8485714285714288 2.008571428571429-0.8485714285714288 1.1828571428571415 0 2.0314285714285703 0.8485714285714288l14.53142857142857 14.531428571428574q0.825714285714291 0.7800000000000011 0.825714285714291 2.008571428571429z"></path></svg>