<?xml version="1.0"?><svg xmlns="http://www.w3.org/2000/svg" width="40" height="40" viewBox="0 0 40 40"><path d="m37.38857142857143 21.674285714285716q0 1.138571428571428-0.8257142857142838 2.008571428571429l-1.6742857142857162 1.6742857142857126q-0.8485714285714252 0.8485714285714288-2.0314285714285703 0.8485714285714288-1.2057142857142864 0-2.008571428571429-0.8485714285714288l-6.562857142857148-6.539999999999999v15.714285714285719q0 1.1599999999999966-0.8371428571428581 1.8857142857142861t-2.019999999999996 0.7257142857142824h-2.8571428571428577q-1.1828571428571415 0-2.0199999999999996-0.7257142857142824t-0.8371428571428581-1.8857142857142932v-15.714285714285715l-6.562857142857144 6.540000000000003q-0.8028571428571425 0.8485714285714288-2.008571428571429 0.8485714285714288t-2.008571428571429-0.8485714285714288l-1.6742857142857144-1.6742857142857126q-0.8485714285714288-0.8485714285714288-0.8485714285714288-2.008571428571429 0-1.1828571428571415 0.8485714285714288-2.0314285714285703l14.531428571428572-14.531428571428574q0.7800000000000011-0.8257142857142865 2.008571428571429-0.8257142857142865 1.2057142857142864 0 2.0314285714285703 0.8257142857142856l14.531428571428577 14.53142857142857q0.8257142857142838 0.8714285714285701 0.8257142857142838 2.0314285714285703z"></path></svg>