<?xml version="1.0"?><svg xmlns="http://www.w3.org/2000/svg" width="40" height="40" viewBox="0 0 40 40"><path d="m40 20q0 0.5799999999999983-0.42428571428571615 1.0042857142857144l-5.714285714285715 5.714285714285715q-0.42428571428570905 0.4242857142857126-1.0042857142857073 0.4242857142857126t-1.0042857142857144-0.4242857142857126-0.42428571428571615-1.0042857142857144v-2.8571428571428577h-22.85714285714286v2.8571428571428577q1.7763568394002505e-15 0.5799999999999983-0.4242857142857126 1.0042857142857144t-1.0042857142857136 0.4242857142857126-1.0042857142857144-0.4242857142857126l-5.714285714285714-5.714285714285715q-0.4242857142857144-0.4242857142857126-0.4242857142857144-1.0042857142857144t0.42428571428571427-1.0042857142857144l5.714285714285714-5.714285714285715q0.4242857142857144-0.4242857142857126 1.0042857142857144-0.4242857142857126t1.0042857142857136 0.4242857142857144 0.4242857142857144 1.0042857142857144v2.857142857142856h22.85714285714286v-2.8571428571428577q0-0.5800000000000001 0.4242857142857126-1.0042857142857144t1.004285714285718-0.4242857142857126 1.0042857142857144 0.4242857142857144l5.714285714285715 5.7142857142857135q0.42428571428570905 0.4242857142857126 0.42428571428570905 1.0042857142857144z"></path></svg>