<?xml version="1.0"?><svg viewBox="0 0 40 40" xmlns="http://www.w3.org/2000/svg" height="40" width="40"><path d="m27.4 18.5q-0.2 0.4-0.6 0.4h-4.1v7.4q0 0.3-0.2 0.5t-0.5 0.2h-4q-0.3 0-0.5-0.2t-0.2-0.5v-7.4h-4.1q-0.2 0-0.4-0.2t-0.2-0.5q0-0.2 0.2-0.5l6.7-6.7q0.2-0.2 0.5-0.2t0.5 0.2l6.7 6.7q0.4 0.4 0.2 0.8z m-7.4-11.1q-3.1 0-5.8 1.6t-4.1 4.1-1.6 5.8 1.6 5.8 4.1 4.1 5.8 1.6 5.8-1.6 4.1-4.1 1.6-5.8-1.6-5.8-4.1-4.1-5.8-1.6z m16.2 11.5q0 4.4-2.2 8.1t-5.9 5.9-8.1 2.2-8.1-2.2-5.9-5.9-2.2-8.1 2.2-8.1 5.9-5.9 8.1-2.2 8.1 2.2 5.9 5.9 2.2 8.1z"></path></svg>