<?xml version="1.0"?><svg xmlns="http://www.w3.org/2000/svg" width="40" height="40" viewBox="0 0 40 40"><path d="m27.814285714285713 19.552857142857142q-0.18142857142856883 0.4471428571428575-0.6714285714285708 0.4471428571428575h-4.285714285714285v7.857142857142858q0 0.31428571428571317-0.1999999999999993 0.514285714285716t-0.5142857142857125 0.1999999999999993h-4.285714285714285q-0.31428571428571317 0-0.5142857142857125-0.1999999999999993t-0.2000000000000064-0.514285714285716v-7.857142857142858h-4.285714285714285q-0.31428571428571495 0-0.5142857142857142-0.1999999999999993t-0.1999999999999993-0.514285714285716q0-0.2671428571428578 0.22285714285714242-0.5357142857142847l7.120000000000001-7.12142857142857q0.245714285714282-0.20000000000000107 0.5142857142857125-0.20000000000000107t0.5114285714285707 0.1999999999999993l7.142857142857142 7.142857142857144q0.33428571428571274 0.35714285714285765 0.15714285714285836 0.7828571428571429z m-7.814285714285713-11.695714285714285q-3.3028571428571425 0-6.094285714285714 1.6285714285714281t-4.42 4.4228571428571435-1.6285714285714281 6.091428571428571 1.6285714285714281 6.095714285714287 4.42 4.420000000000002 6.094285714285714 1.6314285714285717 6.094285714285714-1.62857142857143 4.419999999999998-4.421428571428571 1.6285714285714334-6.09714285714286-1.62857142857143-6.092857142857142-4.419999999999998-4.42-6.094285714285718-1.6300000000000008z m17.142857142857146 12.142857142857142q0 4.665714285714287-2.299999999999997 8.604285714285716t-6.237142857142857 6.238571428571426-8.605714285714292 2.3000000000000043-8.6-2.3000000000000043-6.242857142857143-6.238571428571426-2.295714285714286-8.604285714285716 2.3000000000000003-8.604285714285714 6.234285714285714-6.238571428571428 8.604285714285714-2.3000000000000003 8.605714285714285 2.3000000000000003 6.238571428571426 6.238571428571428 2.298571428571435 8.604285714285714z"></path></svg>