<?xml version="1.0"?><svg xmlns="http://www.w3.org/2000/svg" width="40" height="40" viewBox="0 0 40 40"><path d="m36.42857142857143 20v2.8571428571428577q0 1.1828571428571415-0.7257142857142824 2.0199999999999996t-1.8857142857142861 0.8371428571428581h-15.714285714285715l6.539999999999999 6.5628571428571405q0.8485714285714288 0.8028571428571425 0.8485714285714288 2.008571428571429t-0.8485714285714288 2.008571428571429l-1.6742857142857126 1.6971428571428575q-0.8257142857142874 0.8257142857142838-2.008571428571429 0.8257142857142838-1.1600000000000001 0-2.0314285714285703-0.8257142857142838l-14.531428571428577-14.552857142857142q-0.8257142857142852-0.8242857142857147-0.8257142857142852-2.009999999999998 0-1.1571428571428584 0.8257142857142852-2.0285714285714285l14.531428571428574-14.511428571428574q0.8485714285714288-0.8485714285714279 2.0314285714285703-0.8485714285714279 1.1600000000000001 0 2.008571428571429 0.847142857142857l1.6742857142857126 1.6557142857142857q0.8485714285714288 0.847142857142857 0.8485714285714288 2.0285714285714285t-0.8485714285714288 2.032857142857143l-6.539999999999999 6.538571428571428h15.714285714285712q1.1599999999999966 0 1.8857142857142861 0.8385714285714272t0.7257142857142895 2.0185714285714305z"></path></svg>