<?xml version="1.0"?><svg viewBox="0 0 40 40" xmlns="http://www.w3.org/2000/svg" height="40" width="40"><path d="m28.1 18.9q0 0.3-0.2 0.5l-6.7 6.7q-0.2 0.2-0.5 0.2-0.3 0-0.5-0.2t-0.2-0.4v-4.1h-7.4q-0.3 0-0.5-0.2t-0.2-0.5v-4q0-0.3 0.2-0.5t0.5-0.2h7.4v-4q0-0.3 0.2-0.5t0.5-0.2q0.2 0 0.5 0.2l6.7 6.7q0.2 0.2 0.2 0.5z m3.4 0q0-3.1-1.6-5.8t-4.1-4.1-5.8-1.6-5.8 1.6-4.1 4.1-1.6 5.8 1.6 5.8 4.1 4.1 5.8 1.6 5.8-1.6 4.1-4.1 1.6-5.8z m4.7 0q0 4.4-2.2 8.1t-5.9 5.9-8.1 2.2-8.1-2.2-5.9-5.9-2.2-8.1 2.2-8.1 5.9-5.9 8.1-2.2 8.1 2.2 5.9 5.9 2.2 8.1z"></path></svg>