<?xml version="1.0"?><svg xmlns="http://www.w3.org/2000/svg" width="40" height="40" viewBox="0 0 40 40"><path d="m40 20q0 0.5799999999999983-0.42428571428571615 1.0042857142857144l-5.714285714285715 5.714285714285715q-0.42428571428570905 0.4242857142857126-1.0042857142857073 0.4242857142857126t-1.0042857142857144-0.4242857142857126-0.42428571428571615-1.0042857142857144v-2.8571428571428577h-8.57142857142857v8.571428571428573h2.8571428571428577q0.5800000000000018 0 1.0042857142857144 0.4242857142857126t0.42428571428570905 1.004285714285718-0.4242857142857126 1.0042857142857144l-5.714285714285715 5.714285714285715q-0.4242857142857126 0.42428571428570905-1.0042857142857144 0.42428571428570905t-1.0042857142857144-0.42428571428571615l-5.714285714285715-5.714285714285715q-0.4242857142857126-0.42428571428570905-0.4242857142857126-1.0042857142857073t0.4242857142857144-1.0042857142857144 1.0042857142857144-0.42428571428571615h2.857142857142856v-8.57142857142857h-8.571428571428571v2.8571428571428577q0 0.5800000000000018-0.4242857142857144 1.0042857142857144t-1.0042857142857136 0.42428571428570905-1.0042857142857144-0.4242857142857126l-5.714285714285714-5.714285714285715q-0.4242857142857144-0.4242857142857126-0.4242857142857144-1.0042857142857144t0.42428571428571427-1.0042857142857144l5.714285714285714-5.714285714285715q0.4242857142857144-0.4242857142857126 1.0042857142857144-0.4242857142857126t1.0042857142857136 0.4242857142857144 0.4242857142857144 1.0042857142857144v2.857142857142856h8.571428571428571v-8.571428571428571h-2.8571428571428577q-0.5800000000000001 0-1.0042857142857144-0.4242857142857144t-0.4242857142857126-1.0042857142857136 0.4242857142857144-1.0042857142857144l5.7142857142857135-5.714285714285714q0.4242857142857126-0.4242857142857144 1.0042857142857144-0.4242857142857144t1.0042857142857144 0.42428571428571427l5.714285714285715 5.714285714285714q0.4242857142857126 0.4242857142857144 0.4242857142857126 1.0042857142857144t-0.4242857142857126 1.0042857142857136-1.0042857142857144 0.4242857142857144h-2.8571428571428577v8.571428571428571h8.571428571428573v-2.8571428571428577q0-0.5800000000000001 0.4242857142857126-1.0042857142857144t1.004285714285718-0.4242857142857126 1.0042857142857144 0.4242857142857144l5.714285714285715 5.7142857142857135q0.42428571428570905 0.4242857142857126 0.42428571428570905 1.0042857142857144z"></path></svg>