<?xml version="1.0"?><svg xmlns="http://www.w3.org/2000/svg" width="40" height="40" viewBox="0 0 40 40"><path d="m27.142857142857142 7.142857142857143q0 0.5800000000000001-0.4242857142857126 1.0042857142857136t-1.0042857142857144 0.4242857142857144h-2.8571428571428577v22.85714285714286h2.8571428571428577q0.5799999999999983 0 1.0042857142857144 0.4242857142857126t0.4242857142857126 1.004285714285718-0.4242857142857126 1.0042857142857144l-5.714285714285715 5.714285714285715q-0.42428571428571615 0.42428571428570905-1.0042857142857144 0.42428571428570905t-1.0042857142857144-0.42428571428571615l-5.714285714285715-5.714285714285715q-0.4242857142857126-0.42428571428570905-0.4242857142857126-1.0042857142857073t0.4242857142857144-1.0042857142857144 1.0042857142857144-0.42428571428571615h2.857142857142856v-22.85714285714286h-2.857142857142856q-0.5800000000000001 1.7763568394002505e-15-1.0042857142857144-0.4242857142857126t-0.4242857142857144-1.0042857142857136 0.4242857142857144-1.0042857142857144l5.7142857142857135-5.714285714285714q0.42428571428571615-0.4242857142857144 1.0042857142857144-0.4242857142857144t1.0042857142857144 0.42428571428571427l5.714285714285715 5.714285714285714q0.4242857142857126 0.4242857142857144 0.4242857142857126 1.0042857142857144z"></path></svg>