<?xml version="1.0"?><svg viewBox="0 0 40 40" xmlns="http://www.w3.org/2000/svg" height="40" width="40"><path d="m22.3 12.9l-6.2 6.2 6.2 6.2 2.5-2.5q0.5-0.6 1.2-0.3 0.7 0.3 0.7 1v7.8q0 0.5-0.4 0.8t-0.7 0.3h-7.8q-0.8 0-1-0.7-0.3-0.6 0.2-1.2l2.5-2.5-6.2-6.1-6.1 6.1 2.5 2.5q0.5 0.6 0.2 1.2-0.3 0.7-1 0.7h-7.8q-0.4 0-0.8-0.3t-0.3-0.8v-7.8q0-0.7 0.7-1 0.7-0.3 1.2 0.3l2.5 2.5 6.2-6.2-6.2-6.2-2.5 2.5q-0.3 0.4-0.8 0.4-0.2 0-0.4-0.1-0.7-0.3-0.7-1v-7.8q0-0.5 0.3-0.8t0.8-0.3h7.8q0.7 0 1 0.7 0.3 0.6-0.2 1.2l-2.5 2.5 6.1 6.1 6.2-6.1-2.5-2.5q-0.5-0.6-0.2-1.2 0.2-0.7 1-0.7h7.8q0.4 0 0.7 0.3t0.4 0.8v7.8q0 0.7-0.7 1-0.2 0.1-0.4 0.1-0.5 0-0.8-0.4l-2.5-2.5z"></path></svg>