<?xml version="1.0"?><svg viewBox="0 0 40 40" xmlns="http://www.w3.org/2000/svg" height="40" width="40"><path d="m22.2 20.2v-2.2q0-0.5-0.3-0.8t-0.8-0.3h-8.7l3.3-3.3q0.3-0.3 0.3-0.8t-0.3-0.8l-1.6-1.5q-0.3-0.4-0.8-0.4t-0.8 0.4l-6.2 6.2-1.6 1.6q-0.3 0.3-0.3 0.8t0.3 0.8l1.6 1.6 6.2 6.2q0.3 0.4 0.8 0.4t0.8-0.4l1.6-1.5q0.3-0.4 0.3-0.8t-0.3-0.8l-3.3-3.3h8.7q0.5 0 0.8-0.3t0.3-0.8z m2.7-7.8q1.8 3.1 1.8 6.7t-1.8 6.7q-1.8 3.1-4.9 4.8t-6.7 1.8q-3.6 0-6.7-1.8t-4.8-4.8q-1.8-3.1-1.8-6.7t1.8-6.7q1.8-3.1 4.8-4.8t6.7-1.8q3.7 0 6.7 1.8t4.9 4.8z"></path></svg>