<?xml version="1.0"?><svg viewBox="0 0 40 40" xmlns="http://www.w3.org/2000/svg" height="40" width="40"><path d="m33.7 22.2q1 0.5 1.3 1.6t-0.3 2l-1.3 2.4q-0.6 0.9-1.7 1.2t-2-0.2l-5.6-3.3v6.5q0 1.1-0.9 1.9t-1.8 0.8h-2.8q-1 0-1.8-0.8t-0.9-1.9v-6.5l-5.6 3.3q-0.9 0.5-2 0.2t-1.7-1.2l-1.3-2.4q-0.6-0.9-0.3-2t1.3-1.6l5.6-3.3-5.6-3.2q-1-0.6-1.3-1.7t0.3-2l1.3-2.4q0.6-0.9 1.7-1.2t2 0.2l5.6 3.3v-6.5q0-1.1 0.9-1.9t1.8-0.8h2.8q1 0 1.8 0.8t0.9 1.9v6.5l5.6-3.3q0.9-0.5 2-0.2t1.7 1.2l1.3 2.4q0.6 0.9 0.3 2t-1.3 1.7l-5.6 3.2z"></path></svg>