<svg viewBox="0 0 1664 1896.0833" xmlns="http://www.w3.org/2000/svg"><path d="m1482 1050q46 26 59.5 77.5t-12.5 97.5l-64 110q-26 46-77.5 59.5t-97.5-12.5l-266-153v307q0 52-38 90t-90 38h-128q-52 0-90-38t-38-90v-307l-266 153q-46 26-97.5 12.5t-77.5-59.5l-64-110q-26-46-12.5-97.5t59.5-77.5l266-154-266-154q-46-26-59.5-77.5t12.5-97.5l64-110q26-46 77.5-59.5t97.5 12.5l266 153v-307q0-52 38-90t90-38h128q52 0 90 38t38 90v307l266-153q46-26 97.5-12.5t77.5 59.5l64 110q26 46 12.5 97.5t-59.5 77.5l-266 154z"/></svg>