<?xml version="1.0"?><svg xmlns="http://www.w3.org/2000/svg" width="40" height="40" viewBox="0 0 40 40"><path d="m34.50857142857143 23.437142857142856q1.028571428571425 0.5800000000000018 1.3285714285714292 1.7285714285714278t-0.278571428571432 2.177142857142858l-1.4285714285714306 2.4571428571428555q-0.5785714285714292 1.0257142857142867-1.7285714285714278 1.3285714285714292t-2.1757142857142853-0.28000000000000114l-5.939999999999998-3.414285714285711v6.8514285714285705q0 1.1600000000000037-0.8471428571428561 2.008571428571429t-2.009999999999998 0.8485714285714323h-2.8571428571428577q-1.1571428571428584 0-2.0071428571428562-0.8485714285714252t-0.8500000000000014-2.008571428571436v-6.852857142857143l-5.935714285714287 3.4142857142857146q-1.0285714285714285 0.581428571428571-2.1757142857142853 0.28000000000000114t-1.7285714285714286-1.3285714285714292l-1.4285714285714288-2.4571428571428555q-0.5814285714285714-1.0285714285714285-0.28000000000000025-2.1757142857142853t1.3285714285714292-1.7285714285714278l5.937142857142856-3.4371428571428595-5.937142857142857-3.437142857142856q-1.0285714285714285-0.5800000000000001-1.3285714285714283-1.7285714285714278t0.2771428571428576-2.1771428571428597l1.4285714285714288-2.4571428571428573q0.581428571428571-1.0257142857142867 1.7314285714285713-1.3285714285714292t2.1757142857142853 0.27999999999999936l5.935714285714287 3.4142857142857164v-6.851428571428571q0-1.1600000000000001 0.8500000000000014-2.0085714285714285t2.0071428571428562-0.8485714285714288h2.8571428571428577q1.1614285714285728 0 2.0100000000000016 0.8485714285714283t0.8471428571428525 2.008571428571429v6.852857142857142l5.938571428571429-3.4142857142857146q1.0285714285714285-0.581428571428571 2.1757142857142853-0.27999999999999936t1.7285714285714278 1.3285714285714292l1.4285714285714306 2.4571428571428573q0.5814285714285745 1.0285714285714285 0.28000000000000114 2.1757142857142853t-1.3285714285714292 1.7285714285714295l-5.937142857142856 3.437142857142856z"></path></svg>