<?xml version="1.0"?><svg xmlns="http://www.w3.org/2000/svg" width="40" height="40" viewBox="0 0 40 40"><path d="m24.55428571428572 17.3q0-2.411428571428571-1.1942857142857157-3.774285714285714t-3.2928571428571445-1.361428571428572q-1.4057142857142857 0-2.767142857142858 0.6814285714285706t-2.4571428571428573 1.8857142857142861-1.7714285714285705 3.0571428571428587-0.6828571428571433 4.018571428571427q0 2.5 1.194285714285714 3.861428571428572t3.3599999999999994 1.361428571428572q2.1428571428571423 0 3.9285714285714306-1.4828571428571422t2.734285714285715-3.7057142857142864 0.9485714285714302-4.5428571428571445z m12.588571428571427 2.6999999999999993q0 2.4771428571428586-0.8257142857142838 4.397142857142857t-2.200000000000003 3.014285714285716-2.934285714285714 1.6614285714285728-3.2371428571428567 0.6142857142857139q-0.13428571428571345 0-0.345714285714287 0.014285714285716011t-0.36857142857142833 0.010000000000001563q-2.120000000000001 0-3.171428571428571-1.1828571428571415-0.6242857142857154-0.7385714285714293-0.7357142857142875-1.8542857142857159-1.1600000000000001 1.4714285714285715-2.935714285714287 2.457142857142859t-3.87142857142857 0.9814285714285731q-3.595714285714285 0-5.571428571428571-2.1328571428571443t-1.974285714285715-6.014285714285716q0-3.505714285714287 1.4714285714285715-6.474285714285713t3.997142857142858-4.699999999999999 5.491428571428571-1.7285714285714278q1.942857142857143 0 3.460000000000001 0.7928571428571427t2.3657142857142865 2.2214285714285715l0.04285714285714448-0.4242857142857144 0.24714285714285822-1.25q0.022857142857141355-0.13428571428571345 0.12285714285714278-0.2671428571428578t0.21000000000000085-0.13428571428571345h2.6342857142857135q0.11428571428571388 0 0.2914285714285718 0.24571428571428555 0.1114285714285721 0.1114285714285721 0.0671428571428585 0.35714285714285765l-2.677142857142858 13.705714285714286q-0.1114285714285721 0.5357142857142847-0.1114285714285721 1.071428571428573 0 0.8714285714285701 0.27857142857142847 1.1600000000000001t0.9928571428571438 0.28999999999999915q0.6257142857142846-0.022857142857141355 1.2714285714285722-0.12285714285714278t1.6314285714285717-0.5357142857142847 1.7185714285714297-1.1142857142857139 1.2714285714285722-2 0.5371428571428538-3.057142857142857q0-6.517142857142858-3.885714285714286-10.4t-10.400000000000006-3.8871428571428686q-2.902857142857144 0-5.548571428571428 1.1385714285714288t-4.551428571428572 3.047142857142857-3.0500000000000007 4.557142857142855-1.1357142857142852 5.5428571428571445 1.137142857142857 5.547142857142859 3.047142857142858 4.5528571428571425 4.551428571428572 3.047142857142859 5.547142857142857 1.1385714285714315q5.088571428571427 0 9.038571428571426-3.2142857142857153 0.24571428571428555-0.1999999999999993 0.5357142857142847-0.17857142857142705t0.46857142857142975 0.2671428571428578l0.9142857142857146 1.0942857142857143q0.17999999999999972 0.2671428571428578 0.15714285714285836 0.5357142857142847-0.04285714285714448 0.28999999999999915-0.2671428571428578 0.4914285714285711-2.277142857142856 1.8514285714285705-5.078571428571429 2.857142857142854t-5.771428571428572 1.0028571428571453q-3.4814285714285695 0-6.65-1.3614285714285685t-5.468571428571429-3.661428571428573-3.657142857142855-5.461428571428577-1.3614285714285717-6.654285714285713 1.3614285714285717-6.651428571428571 3.660000000000001-5.465714285714289 5.46857142857143-3.661428571428572 6.65285714285714-1.3614285714285703q7.677142857142858 0 12.408571428571427 4.732857142857143t4.734285714285718 12.41z"></path></svg>