<?xml version="1.0"?><svg viewBox="0 0 40 40" xmlns="http://www.w3.org/2000/svg" height="40" width="40"><path d="m24.3 16.3q0-2.2-1.1-3.5t-3.1-1.3q-1.4 0-2.7 0.6t-2.3 1.8-1.7 2.9-0.6 3.8q0 2.4 1.1 3.7t3.2 1.2q2 0 3.7-1.4t2.6-3.5 0.9-4.3z m11.9 2.6q0 2.3-0.8 4.2t-2.1 2.8-2.7 1.6-3.1 0.6q-0.1 0-0.3 0t-0.4 0q-2 0-3-1.1-0.6-0.7-0.7-1.8-1.1 1.4-2.7 2.3t-3.7 1q-3.4 0-5.3-2.1t-1.8-5.6q0-3.4 1.4-6.2t3.7-4.4 5.2-1.6q1.9 0 3.3 0.7t2.2 2.1l0.1-0.4 0.2-1.2q0-0.1 0.1-0.2t0.2-0.1h2.5q0.1 0 0.3 0.2 0.1 0.1 0.1 0.3l-2.6 13q-0.1 0.5-0.1 1 0 0.8 0.3 1.1t0.9 0.3q0.6-0.1 1.2-0.2t1.6-0.5 1.6-1 1.2-1.9 0.5-2.9q0-6.2-3.7-9.8t-9.8-3.7q-2.7 0-5.2 1.1t-4.3 2.9-2.9 4.3-1.1 5.2 1.1 5.2 2.9 4.3 4.3 2.9 5.2 1.1q4.8 0 8.5-3 0.3-0.2 0.6-0.2t0.4 0.3l0.9 1q0.1 0.2 0.1 0.5 0 0.3-0.2 0.5-2.2 1.7-4.8 2.7t-5.5 0.9q-3.3 0-6.3-1.3t-5.2-3.4-3.4-5.2-1.3-6.3 1.3-6.3 3.4-5.2 5.2-3.4 6.3-1.3q7.3 0 11.7 4.5t4.5 11.7z"></path></svg>