<?xml version="1.0"?><svg viewBox="0 0 40 40" xmlns="http://www.w3.org/2000/svg" height="40" width="40"><path d="m9.4 22.7q0-1.3-0.9-2.2t-2.2-0.9-2.3 0.9-0.9 2.2 0.9 2.2 2.3 1 2.2-1 0.9-2.2z m0.7-6.2h19.8l-1.7-7q-0.1-0.1-0.3-0.3t-0.4-0.2h-15q-0.2 0-0.4 0.2t-0.3 0.3z m26.8 6.2q0-1.3-0.9-2.2t-2.2-0.9-2.3 0.9-0.9 2.2 0.9 2.2 2.3 1 2.2-1 0.9-2.2z m3.1-1.8v7.5q0 0.2-0.2 0.4t-0.4 0.2h-1.9v2.5q0 1.5-1.1 2.6t-2.6 1.1-2.7-1.1-1.1-2.6v-2.5h-20v2.5q0 1.5-1.1 2.6t-2.6 1.1-2.7-1.1-1.1-2.6v-2.5h-1.9q-0.2 0-0.4-0.2t-0.2-0.4v-7.5q0-1.9 1.3-3.1t3.1-1.3h0.5l2.1-8.2q0.4-1.8 2-3.1t3.5-1.2h15q1.9 0 3.5 1.2t2 3.1l2.1 8.2h0.5q1.8 0 3.1 1.3t1.3 3.1z"></path></svg>