<?xml version="1.0"?><svg viewBox="0 0 40 40" xmlns="http://www.w3.org/2000/svg" height="40" width="40"><path d="m30 11.3l-6.7 12.2h13.4z m-22.2 0l-6.7 12.2h13.3z m14.2-3.3q-0.2 0.7-0.8 1.2t-1.2 0.8v22.4h10.6q0.2 0 0.4 0.2t0.1 0.4v1.1q0 0.2-0.1 0.4t-0.4 0.2h-23.4q-0.2 0-0.4-0.2t-0.1-0.4v-1.1q0-0.3 0.1-0.4t0.4-0.2h10.6v-22.4q-0.7-0.2-1.3-0.8t-0.8-1.2h-8.5q-0.2 0-0.4-0.2t-0.1-0.4v-1.1q0-0.2 0.1-0.4t0.4-0.1h8.5q0.4-1 1.3-1.6t1.9-0.7 1.9 0.7 1.2 1.6h8.6q0.2 0 0.4 0.1t0.1 0.4v1.1q0 0.3-0.1 0.4t-0.4 0.2h-8.6z m-3.1 0.3q0.6 0 1-0.4t0.4-1-0.4-1-1-0.4-1 0.4-0.4 1 0.4 1 1 0.4z m18.9 15.2q0 1.3-0.8 2.3t-2.1 1.6-2.5 0.9-2.4 0.2-2.4-0.2-2.5-0.9-2.1-1.6-0.8-2.3q0-0.2 0.6-1.4t1.6-3 1.9-3.4 1.8-3.2 0.9-1.7q0.3-0.6 1-0.6t1 0.6q0 0.1 0.9 1.7t1.8 3.2 1.9 3.4 1.6 3 0.6 1.4z m-22.2 0q0 1.3-0.9 2.3t-2 1.6-2.5 0.9-2.4 0.2-2.4-0.2-2.6-0.9-2-1.6-0.8-2.3q0-0.2 0.6-1.4t1.6-3 1.9-3.4 1.7-3.2 1-1.7q0.3-0.6 1-0.6t1 0.6q0 0.1 0.9 1.7t1.8 3.2 1.9 3.4 1.5 3 0.7 1.4z"></path></svg>