<?xml version="1.0"?><svg xmlns="http://www.w3.org/2000/svg" width="40" height="40" viewBox="0 0 40 40"><path d="m31.764705882352942 11.764705882352942l-7.0588235294117645 12.941176470588236h14.117647058823533z m-23.529411764705884 0l-7.058823529411764 12.941176470588236h14.117647058823529z m15.091764705882355-3.5294117647058822q-0.2588235294117638 0.7352941176470598-0.8352941176470594 1.3141176470588238t-1.3152941176470598 0.8352941176470576v23.73294117647059h11.176470588235293q0.2588235294117638 0 0.4235294117647044 0.1647058823529406t0.1647058823529406 0.4235294117647044v1.176470588235297q0 0.2588235294117638-0.1647058823529406 0.4235294117647044t-0.4235294117647044 0.1647058823529406h-24.705882352941178q-0.2588235294117647 0-0.42352941176470615-0.1647058823529406t-0.16470588235293881-0.4235294117647044v-1.176470588235297q0-0.2588235294117638 0.16470588235294148-0.4235294117647044t0.42352941176470615-0.1647058823529406h11.176470588235293v-23.731764705882355q-0.735294117647058-0.2588235294117638-1.314117647058822-0.8352941176470576t-0.8352941176470594-1.3152941176470563h-9.027058823529412q-0.25882352941176556 0-0.42352941176470704-0.1647058823529406t-0.16470588235294148-0.42352941176470704v-1.1764705882352944q0-0.2588235294117647 0.16470588235294148-0.42352941176470615t0.42352941176470615-0.1647058823529406h9.025882352941174q0.38588235294117723-1.0470588235294116 1.2870588235294136-1.7000000000000002t2.039999999999999-0.6529411764705886 2.039999999999999 0.6529411764705886 1.2870588235294136 1.7000000000000002h9.025882352941174q0.2588235294117638 0 0.4235294117647044 0.16470588235294148t0.1647058823529406 0.42352941176470615v1.1764705882352944q0 0.2588235294117647-0.1647058823529406 0.42352941176470615t-0.4235294117647044 0.1647058823529406h-9.025882352941174z m-3.3270588235294127 0.2941176470588225q0.6070588235294103 0 1.038823529411765-0.43176470588235283t0.4317647058823546-1.038823529411765-0.4317647058823546-1.038823529411765-1.038823529411765-0.43176470588235194-1.038823529411765 0.43176470588235283-0.43176470588235105 1.038823529411764 0.4317647058823546 1.038823529411765 1.038823529411765 0.43176470588235283z m20 16.176470588235297q0 1.3411764705882305-0.8552941176470554 2.4082352941176453t-2.1600000000000037 1.6729411764705873-2.656470588235294 0.9082352941176488-2.563529411764705 0.3047058823529376-2.5647058823529427-0.30352941176470694-2.658823529411766-0.909411764705883-2.158823529411766-1.674117647058825-0.8552941176470519-2.4070588235294075q0-0.2023529411764713 0.6435294117647068-1.4894117647058813t1.6905882352941184-3.208235294117646 1.9670588235294133-3.594117647058823 1.8752941176470586-3.382352941176471 1.029411764705884-1.8388235294117656q0.3294117647058812-0.6070588235294121 1.029411764705884-0.6070588235294121t1.029411764705884 0.6070588235294121q0.07411764705882007 0.1294117647058819 1.029411764705884 1.8388235294117656t1.8752941176470586 3.382352941176471 1.9670588235294133 3.594117647058823 1.6905882352941148 3.208235294117646 0.6458823529411646 1.4894117647058813z m-23.529411764705884-3.552713678800501e-15q0 1.341176470588234-0.855294117647059 2.408235294117649t-2.16 1.6729411764705873-2.656470588235294 0.9082352941176488-2.563529411764703 0.3047058823529376-2.564705882352941-0.30352941176470694-2.6588235294117646-0.909411764705883-2.1588235294117646-1.674117647058825-0.8552941176470602-2.4070588235294075q-3.0791341698588326e-17-0.2023529411764713 0.6435294117647059-1.4894117647058813t1.690588235294118-3.208235294117646 1.9670588235294115-3.594117647058823 1.8752941176470586-3.382352941176471 1.0294117647058822-1.8388235294117656q0.32941176470588207-0.6070588235294121 1.0294117647058822-0.6070588235294121t1.0294117647058822 0.6070588235294121q0.07411764705882362 0.1294117647058819 1.0294117647058822 1.8388235294117656t1.8752941176470586 3.382352941176471 1.9670588235294115 3.594117647058823 1.6905882352941184 3.208235294117646 0.6458823529411788 1.4894117647058813z"></path></svg>