<?xml version="1.0"?><svg viewBox="0 0 40 40" xmlns="http://www.w3.org/2000/svg" height="40" width="40"><path d="m22.8 19q0-2.8-1.5-5.1l-13.1 13.1q2.4 1.5 5.1 1.5 2 0 3.7-0.7t3-2q1.3-1.3 2-3.1t0.8-3.7z m-17.4 5.2l13.1-13.1q-2.3-1.5-5.2-1.5-2.5 0-4.7 1.2t-3.4 3.5q-1.3 2.2-1.3 4.7 0 2.9 1.5 5.2z m20.2-10.4q1.1 2.5 1.1 5.2t-1.1 5.3q-1.1 2.4-2.8 4.2t-4.3 2.9q-2.5 1-5.2 1t-5.1-1q-2.5-1.1-4.3-2.9t-2.8-4.2q-1.1-2.5-1.1-5.3t1.1-5.2q1-2.4 2.8-4.2t4.3-2.9q2.4-1 5.1-1t5.2 1q2.5 1.1 4.3 2.9t2.8 4.2z"></path></svg>