<?xml version="1.0"?><svg xmlns="http://www.w3.org/2000/svg" width="40" height="40" viewBox="0 0 40 40"><path d="m20 1.3333333333333333l20 8v2.666666666666666h-2.6666666666666643q0 0.5413333333333341-0.4266666666666694 0.9373333333333331t-1.0106666666666655 0.395999999999999h-31.792q-0.5840000000000001 0-1.0106666666666664-0.3960000000000008t-0.4266666666666663-0.9373333333333314h-2.6666666666666665v-2.666666666666668z m-14.666666666666668 13.333333333333332h5.333333333333334v15.999999999999998h2.666666666666666v-15.999999999999998h5.333333333333332v15.999999999999998h2.666666666666668v-15.999999999999998h5.333333333333332v15.999999999999998h2.666666666666668v-15.999999999999998h5.333333333333332v15.999999999999998h1.2293333333333365q0.5840000000000032 0 1.0106666666666655 0.3960000000000008t0.4266666666666623 0.9373333333333349v1.3333333333333357h-34.666666666666664v-1.3333333333333357q2.220446049250313e-15-0.5413333333333341 0.42666666666666897-0.9373333333333349t1.010666666666666-0.3960000000000008h1.2293333333333338v-15.999999999999998z m33.22933333333333 20q0.5840000000000103 0 1.0106666666666726 0.3960000000000008t0.4266666666666694 0.9373333333333349v2.6666666666666643h-40v-2.6666666666666643q0-0.5413333333333341 0.42666666666666664-0.9373333333333349t1.0106666666666668-0.3960000000000008h37.12533333333333z"></path></svg>