<?xml version="1.0"?><svg xmlns="http://www.w3.org/2000/svg" width="40" height="40" viewBox="0 0 40 40"><path d="m1.4057142857142857 34.285714285714285h-1.4057142857142857v-31.428571428571427h1.4057142857142857v31.428571428571427z m1.4071428571428575-0.022857142857141355h-0.7142857142857144v-31.405714285714286h0.7142857142857144v31.405714285714286z m2.095714285714286 0h-0.6914285714285713v-31.405714285714286h0.6914285714285713v31.405714285714286z m3.5057142857142853 0h-0.6899999999999995v-31.405714285714286h0.6914285714285722v31.405714285714286z m3.505714285714287 0h-1.3857142857142861v-31.405714285714286h1.3857142857142861v31.405714285714286z m2.814285714285715 0h-0.6928571428571431v-31.405714285714286h0.6899999999999995v31.405714285714286z m1.4042857142857148 0h-0.6914285714285722v-31.405714285714286h0.6914285714285722v31.405714285714286z m1.4057142857142857 0h-0.6900000000000013v-31.405714285714286h0.6914285714285704v31.405714285714286z m3.505714285714287 0h-1.4057142857142857v-31.405714285714286h1.4057142857142857v31.405714285714286z m3.5042857142857144 0h-1.4057142857142857v-31.405714285714286h1.4057142857142857v31.405714285714286z m2.814285714285713 0h-1.4071428571428584v-31.405714285714286h1.4057142857142857v31.405714285714286z m2.8114285714285714 0h-1.4057142857142857v-31.405714285714286h1.4071428571428584v31.405714285714286z m2.099999999999998 0h-1.4071428571428584v-31.405714285714286h1.4057142857142821v31.405714285714286z m4.217142857142861 0h-2.1000000000000014v-31.405714285714286h2.1000000000000014v31.405714285714286z m1.4057142857142821 0h-0.7142857142857153v-31.405714285714286h0.7142857142857153v31.405714285714286z m2.097142857142856 0.022857142857141355h-1.4057142857142821v-31.428571428571427h1.4057142857142821v31.428571428571427z"></path></svg>