<?xml version="1.0"?><svg viewBox="0 0 40 40" xmlns="http://www.w3.org/2000/svg" height="40" width="40"><path d="m1.1 30.2h-1.1v-24.4h1.1v24.4z m1.1 0h-0.6v-24.4h0.6v24.4z m1.6 0h-0.5v-24.4h0.5v24.4z m2.7 0h-0.5v-24.4h0.5v24.4z m2.8 0h-1.1v-24.4h1.1v24.4z m2.2 0h-0.6v-24.4h0.6v24.4z m1.1 0h-0.6v-24.4h0.6v24.4z m1 0h-0.5v-24.4h0.5v24.4z m2.8 0h-1.1v-24.4h1.1v24.4z m2.7 0h-1.1v-24.4h1.1v24.4z m2.2 0h-1.1v-24.4h1.1v24.4z m2.2 0h-1.1v-24.4h1.1v24.4z m1.6 0h-1.1v-24.4h1.1v24.4z m3.3 0h-1.6v-24.4h1.6v24.4z m1.1 0h-0.6v-24.4h0.6v24.4z m1.6 0h-1.1v-24.4h1.1v24.4z"></path></svg>