<?xml version="1.0"?><svg viewBox="0 0 40 40" xmlns="http://www.w3.org/2000/svg" height="40" width="40"><path d="m4.4 25.8v-13.4h8.9v13.4h-8.9z m33.4-12.3q0.8999999999999986 0 1.5 0.6999999999999993t0.7000000000000028 1.5999999999999996v6.6q0 0.8999999999999986-0.7000000000000028 1.6000000000000014t-1.5 0.6999999999999993v2.6999999999999993q0 1.1999999999999993-0.7999999999999972 2t-2 0.8000000000000007h-32.2q-1.1999999999999973 0-1.9999999999999973-0.8000000000000007t-0.8-2v-16.599999999999998q0-1.1999999999999993 0.8-2t2-0.8000000000000007h32.2q1.1000000000000014 0 2 0.8000000000000007t0.7999999999999972 2v2.6999999999999993z m0 8.899999999999999v-6.6h-2.200000000000003v-5q0-0.3000000000000007-0.20000000000000284-0.40000000000000036t-0.3999999999999986-0.1999999999999993h-32.199999999999996q-0.29999999999999716 0-0.39999999999999725 0.1999999999999993t-0.20000000000000018 0.40000000000000036v16.6q0 0.3000000000000007 0.20000000000000018 0.3999999999999986t0.3999999999999999 0.1999999999999993h32.2q0.20000000000000284 0 0.3999999999999986-0.1999999999999993t0.20000000000000284-0.3999999999999986v-5h2.200000000000003z"></path></svg>