<?xml version="1.0"?><svg viewBox="0 0 40 40" xmlns="http://www.w3.org/2000/svg" height="40" width="40"><path d="m30.1 2.7q2.5 0 4.3 1.8t1.8 4.3v20.2q0 2.5-1.8 4.3t-4.3 1.8h-20.2q-2.5 0-4.3-1.8t-1.8-4.3v-20.2q0-2.5 1.8-4.3t4.3-1.8h20.2z m-15.8 7.7h-7.8v16.6h8.1q2.4 0 4.1-1.2t1.7-3.6q0-3.3-3-4.2 2.2-1.1 2.2-3.4 0-1.2-0.4-2.1t-1.2-1.3-1.6-0.6-2.1-0.2z m-0.4 6.8h-3.8v-3.9h3.5q2.5 0 2.5 1.9 0 2-2.2 2z m0.2 7h-4v-4.6h4q2.7 0 2.7 2.4 0 2.2-2.7 2.2z m13.7 0.7q-1.5 0-2.2-0.8t-0.8-2.3h8.7q0-0.2 0-0.6 0-2.8-1.6-4.7t-4.3-1.8q-2.7 0-4.4 1.8t-1.7 4.6q0 2.8 1.6 4.5t4.5 1.8q4.4 0 5.7-4.1h-2.9q-0.3 0.7-1 1.2t-1.6 0.4z m-0.2-7.7q2.3 0 2.6 2.5h-5.4q0.1-1.1 0.8-1.8t2-0.7z m-3.5-5.6h6.8v1.6h-6.8v-1.6z"></path></svg>