<?xml version="1.0"?><svg xmlns="http://www.w3.org/2000/svg" width="40" height="40" viewBox="0 0 40 40"><path d="m30.714285714285715 2.857142857142857q2.6571428571428584 0 4.5428571428571445 1.8857142857142857t1.8857142857142861 4.542857142857144v21.42857142857143q0 2.6571428571428584-1.8857142857142861 4.5428571428571445t-4.5428571428571445 1.8857142857142861h-21.42857142857143q-2.6571428571428575 0-4.542857142857144-1.8857142857142861t-1.885714285714284-4.5428571428571445v-21.42857142857143q0-2.6571428571428575 1.8857142857142857-4.542857142857144t4.542857142857144-1.885714285714284h21.42857142857143z m-16.71857142857143 8.19142857142857h-8.28142857142857v17.56571428571429h8.528571428571428q2.6099999999999994 0 4.395714285714288-1.2814285714285703t1.7857142857142847-3.8057142857142843q0-3.5285714285714285-3.1914285714285704-4.465714285714284 2.388571428571428-1.1600000000000001 2.388571428571428-3.66 0-1.2714285714285722-0.43571428571428683-2.154285714285715t-1.2614285714285707-1.3499999999999996-1.7628571428571433-0.6600000000000001-2.1657142857142855-0.1899999999999995z m-0.4914285714285693 7.100000000000001h-3.928571428571429v-4.110000000000001h3.638571428571428q2.6571428571428584 0 2.6571428571428584 2.008571428571427 0 2.1000000000000014-2.3671428571428574 2.1000000000000014z m0.1999999999999993 7.477142857142859h-4.128571428571428v-4.842857142857142h4.21857142857143q2.767142857142858 0 2.767142857142858 2.5214285714285722 0 2.321428571428573-2.8571428571428577 2.321428571428573z m14.51 0.7142857142857153q-1.5171428571428578 0-2.321428571428573-0.8485714285714288t-0.8028571428571425-2.388571428571428h9.174285714285713q0.022857142857141355-0.2228571428571442 0.022857142857141355-0.6714285714285708 0-2.945714285714285-1.6614285714285728-4.920000000000002t-4.5428571428571445-1.975714285714286q-2.8571428571428577 0-4.685714285714287 1.9200000000000017t-1.831428571428571 4.82q0 3.014285714285716 1.7628571428571433 4.842857142857145t4.752857142857142 1.831428571428571q4.575714285714287 0 5.959999999999997-4.262857142857143h-3.081428571428571q-0.24571428571428555 0.7571428571428562-1.0599999999999987 1.2057142857142864t-1.6857142857142868 0.4471428571428575z m-0.2228571428571442-8.17142857142857q2.5228571428571414 0 2.767142857142858 2.7242857142857133h-5.668571428571429q0.08999999999999986-1.25 0.8714285714285701-1.985714285714284t2.0285714285714285-0.7385714285714293z m-3.617142857142859-5.935714285714287h7.120000000000001v1.718571428571428h-7.120000000000001v-1.7185714285714297z"></path></svg>