<?xml version="1.0"?><svg viewBox="0 0 40 40" xmlns="http://www.w3.org/2000/svg" height="40" width="40"><path d="m17.8 33.3q0.3 0 0.3-0.3t-0.3-0.3q-1 0-1.8-0.7t-0.7-1.8q0-0.3-0.3-0.3t-0.3 0.3q0 1.3 0.9 2.2t2.2 0.9z m-9.1-8.6l15.3-13.2q-0.8-1.5-2.3-2.5t-3.9-1q-1.6 0-3 0.5t-2.1 1.4q-0.8 0.9-1.2 1.8t-0.4 1.8q0 6.7-2.4 11.2z m23.5 3.3q0 0.9-0.6 1.5t-1.6 0.7h-7.8q0 1.8-1.3 3.1t-3.1 1.4q-1.9 0-3.2-1.3t-1.3-3.2l2.6-2.2h13.2q-2.9-3.3-4-8l1.9-1.7q1.1 6.2 5.2 9.7z m1.5-24.2l1.5 1.7q0.1 0.2 0.1 0.4t-0.2 0.4l-32.5 28.1q-0.2 0.2-0.4 0.2t-0.4-0.2l-1.4-1.7q-0.2-0.2-0.1-0.4t0.1-0.4l3.3-2.8q-0.4-0.5-0.4-1.1 0.9-0.7 1.6-1.5t1.5-2.1q0.8-1.3 1.3-2.8t0.9-3.5q0.3-2.1 0.3-4.6 0-2.6 2-4.9t5.4-2.7q-0.2-0.3-0.2-0.7 0-0.7 0.5-1.2t1.2-0.5q0.7 0 1.2 0.5t0.4 1.2q0 0.4-0.1 0.7 2.2 0.3 3.8 1.4t2.6 2.8l7.2-6.4q0.2-0.1 0.4-0.1t0.4 0.2z"></path></svg>