<?xml version="1.0"?><svg xmlns="http://www.w3.org/2000/svg" width="40" height="40" viewBox="0 0 40 40"><path d="m20.357142857142858 37.85714285714286q0-0.3571428571428541-0.35714285714285765-0.3571428571428541-1.3171428571428585 0-2.265714285714285-0.9485714285714266t-0.9485714285714302-2.265714285714296q0-0.3571428571428541-0.35714285714285765-0.3571428571428541t-0.35714285714285765 0.3571428571428541q0 1.6285714285714263 1.1499999999999986 2.778571428571432t2.778571428571432 1.1499999999999986q0.35714285714285765 0 0.35714285714285765-0.3571428571428541z m18.21428571428571-6.428571428571431q0 1.1599999999999966-0.8485714285714252 2.008571428571429t-2.008571428571429 0.8485714285714252h-10q0 2.365714285714283-1.6742857142857126 4.039999999999999t-4.040000000000003 1.6742857142857162-4.039999999999999-1.6742857142857162-1.6742857142857144-4.039999999999999h-10q-1.160000000000001 0-2.0085714285714293-0.8485714285714252t-0.8485714285714285-2.008571428571429q1.114285714285714-0.937142857142856 2.031428571428571-1.9642857142857153t1.8971428571428577-2.6671428571428564 1.6628571428571428-3.53857142857143 1.1142857142857148-4.597142857142856 0.43714285714285595-5.804285714285715q0-3.3928571428571423 2.611428571428572-6.305714285714285t6.852857142857141-3.5385714285714283q-0.17857142857142705-0.4271428571428584-0.17857142857142705-0.8700000000000014 0-0.8928571428571428 0.6257142857142846-1.5171428571428573t1.5171428571428578-0.6257142857142854 1.5171428571428578 0.6257142857142858 0.6257142857142846 1.517142857142857q0 0.44714285714285706-0.17857142857142705 0.8714285714285714 4.242857142857144 0.6242857142857146 6.852857142857143 3.5371428571428574t2.611428571428572 6.305714285714286q0 3.102857142857143 0.43571428571428683 5.8028571428571425t1.1142857142857174 4.600000000000001 1.664285714285711 3.5371428571428574 1.8971428571428604 2.6671428571428564 2.031428571428563 1.9642857142857153z"></path></svg>