<?xml version="1.0"?><svg viewBox="0 0 40 40" xmlns="http://www.w3.org/2000/svg" height="40" width="40"><path d="m20.3 35.8q0-0.4-0.3-0.4-1.2 0-2.1-0.9t-0.9-2.1q0-0.3-0.4-0.3t-0.3 0.3q0 1.5 1.1 2.6t2.6 1.1q0.3 0 0.3-0.3z m17.3-6.1q0 1.1-0.8 1.9t-1.9 0.8h-9.5q0 2.2-1.6 3.8t-3.8 1.6-3.8-1.6-1.6-3.8h-9.5q-1 0-1.9-0.8t-0.8-1.9q1.1-0.9 2-1.9t1.8-2.5 1.5-3.3 1.1-4.4 0.4-5.4q0-3.3 2.5-6t6.4-3.4q-0.1-0.4-0.1-0.8 0-0.8 0.6-1.4t1.4-0.6 1.4 0.6 0.6 1.4q0 0.4-0.1 0.8 4 0.6 6.4 3.4t2.5 6q0 2.9 0.4 5.4t1.1 4.4 1.5 3.3 1.8 2.5 2 1.9z"></path></svg>