<?xml version="1.0"?><svg viewBox="0 0 40 40" xmlns="http://www.w3.org/2000/svg" height="40" width="40"><path d="m30.4 18.1q1.2 7 5.9 10.9 0 1-0.8 1.7t-1.7 0.8h-8.8q0 2.1-1.5 3.5t-3.5 1.5-3.5-1.5-1.5-3.5z m-10.4 16.8q0.3 0 0.3-0.3t-0.3-0.3q-1.2 0-2-0.8t-0.8-2q0-0.3-0.3-0.3t-0.3 0.3q0 1.4 1 2.4t2.4 1z m19.6-31.2q0.1 0.2 0.1 0.4t-0.2 0.5l-36.6 31.6q-0.1 0.2-0.4 0.2t-0.4-0.2l-1.7-1.9q-0.1-0.2-0.1-0.5t0.2-0.4l3.6-3.1q-0.3-0.7-0.3-1.3 0.9-0.8 1.7-1.7t1.7-2.4 1.4-3.1 1-4 0.4-5.1q0-2.9 2.3-5.5t6-3.1q-0.2-0.4-0.2-0.7 0-0.8 0.6-1.4t1.3-0.5 1.3 0.5 0.6 1.4q0 0.3-0.2 0.7 2.4 0.4 4.3 1.6t2.9 3.1l8.2-7.1q0.1-0.1 0.4-0.1t0.4 0.2z"></path></svg>