<?xml version="1.0"?><svg viewBox="0 0 40 40" xmlns="http://www.w3.org/2000/svg" height="40" width="40"><path d="m38.9 29.7v8.1h-37.8v-8.1q0.9 0 1.8-0.3t1.2-0.6 1-0.8q0.7-0.5 1.1-0.8t1.2-0.2 1.2 0.2 1.1 0.8q0.6 0.6 1 0.8t1.2 0.6 1.8 0.3q1 0 1.8-0.3t1.2-0.6 1-0.8q0.5-0.4 0.7-0.5t0.7-0.3 0.9-0.2q0.7 0 1.2 0.2t1.1 0.8q0.6 0.5 1 0.8t1.2 0.6 1.8 0.3 1.8-0.3 1.2-0.6 1-0.8q0.7-0.5 1.1-0.8t1.2-0.2q0.7 0 1.2 0.2t1.1 0.8q0.6 0.5 1 0.8t1.2 0.6 1.8 0.3z m0-6.7v4q-0.7 0-1.2-0.2t-1.1-0.8q-0.6-0.6-1-0.8t-1.2-0.6-1.8-0.3q-1 0-1.8 0.3t-1.2 0.6-1 0.8q-0.5 0.4-0.7 0.5t-0.7 0.4-0.9 0.1q-0.7 0-1.2-0.2t-1.1-0.8q-0.6-0.6-1-0.8t-1.2-0.6-1.8-0.3q-0.9 0-1.8 0.3t-1.2 0.6-1 0.8q-0.5 0.4-0.7 0.5t-0.7 0.4-0.9 0.1q-0.7 0-1.2-0.2t-1.1-0.8q-0.6-0.5-1-0.8t-1.2-0.6-1.8-0.3q-1 0-1.8 0.3t-1.2 0.6-1 0.8q-0.7 0.5-1.1 0.8t-1.2 0.2v-4q0-1.7 1.2-2.9t2.8-1.2h1.4v-9.4h5.4v9.4h5.4v-9.4h5.4v9.4h5.4v-9.4h5.4v9.4h1.4q1.6 0 2.8 1.2t1.2 2.9z m-27-18.3q0 1.6-0.8 2.5t-1.9 0.9q-1.1 0-1.9-0.8t-0.8-1.9q0-0.6 0.2-1.1t0.5-0.7 0.6-0.6 0.7-0.6 0.5-1 0.2-1.4q0.8 0 1.7 1.6t1 3.1z m10.8 0q0 1.6-0.8 2.5t-1.9 0.9q-1.1 0-1.9-0.8t-0.8-1.9q0-0.6 0.2-1.1t0.5-0.7 0.6-0.6 0.7-0.6 0.5-1 0.2-1.4q0.8 0 1.8 1.6t0.9 3.1z m10.8 0q0 1.6-0.8 2.5t-1.9 0.9q-1.1 0-1.9-0.8t-0.8-1.9q0-0.6 0.2-1.1t0.5-0.7 0.7-0.6 0.6-0.6 0.5-1 0.2-1.4q0.8 0 1.8 1.6t0.9 3.1z"></path></svg>