<?xml version="1.0"?><svg xmlns="http://www.w3.org/2000/svg" width="40" height="40" viewBox="0 0 40 40"><path d="m40 31.42857142857143v8.57142857142857h-40v-8.57142857142857q1.0042857142857142 0 1.8971428571428572-0.31428571428571317t1.3171428571428572-0.6142857142857139 1.048571428571429-0.8357142857142854q0.6714285714285717-0.6028571428571432 1.1500000000000004-0.8485714285714288t1.258571428571428-0.24428571428571644 1.2385714285714284 0.24285714285714377 1.1714285714285708 0.8500000000000014q0.6457142857142859 0.5571428571428569 1.0471428571428572 0.8485714285714288t1.2942857142857136 0.6000000000000014 1.918571428571429 0.31428571428571317q1.0042857142857144 0 1.8971428571428568-0.32428571428571473t1.2957142857142845-0.6028571428571432 1.071428571428573-0.8357142857142854q0.46857142857142975-0.4242857142857126 0.725714285714286-0.6028571428571432t0.6914285714285704-0.33428571428571274 0.9771428571428586-0.15571428571428925q0.7800000000000011 0 1.2600000000000016 0.24571428571428555t1.1499999999999986 0.8485714285714288q0.6257142857142846 0.5357142857142847 1.048571428571428 0.8371428571428581t1.3185714285714276 0.6142857142857139 1.8971428571428568 0.31428571428571317 1.8999999999999986-0.31428571428571317 1.3142857142857132-0.6142857142857139 1.0500000000000007-0.8371428571428581q0.6714285714285708-0.6028571428571432 1.1500000000000021-0.8485714285714288t1.2614285714285742-0.24571428571428555q0.7571428571428598 0 1.2385714285714258 0.24571428571428555t1.1499999999999986 0.8485714285714288q0.6257142857142881 0.5357142857142847 1.048571428571428 0.8371428571428581t1.3142857142857167 0.6142857142857139 1.8999999999999986 0.31428571428571317z m0-7.142857142857142v4.285714285714285q-0.7814285714285703 0-1.2385714285714258-0.24571428571428555t-1.1714285714285708-0.8485714285714288q-0.6471428571428604-0.5571428571428569-1.048571428571428-0.8485714285714288t-1.2957142857142827-0.6028571428571432-1.8971428571428604-0.31428571428571317q-1.028571428571425 0-1.9200000000000017 0.31428571428571317t-1.2928571428571445 0.6028571428571432-1.048571428571428 0.8485714285714288q-0.48999999999999844 0.4242857142857126-0.7357142857142875 0.6028571428571432t-0.6914285714285704 0.33428571428571274-0.9814285714285731 0.15714285714285836q-0.7814285714285703 0-1.2614285714285707-0.24714285714285822t-1.1499999999999986-0.8485714285714288q-0.6471428571428568-0.5571428571428569-1.048571428571428-0.8485714285714288t-1.2928571428571445-0.6042857142857159-1.9200000000000017-0.31428571428571317q-1.0028571428571418 0-1.8957142857142841 0.3257142857142874t-1.2942857142857136 0.6028571428571432-1.0714285714285712 0.8371428571428581q-0.468571428571428 0.4242857142857126-0.725714285714286 0.6028571428571432t-0.6928571428571431 0.33428571428571274-0.9714285714285715 0.15428571428571303q-0.781428571428572 0-1.2614285714285725-0.24571428571428555t-1.1500000000000004-0.8485714285714288q-0.6257142857142863-0.5357142857142847-1.048571428571428-0.8371428571428581t-1.322857142857142-0.6114285714285685-1.895714285714286-0.31428571428571317q-1.0285714285714285 0-1.92 0.31428571428571317t-1.2957142857142858 0.6028571428571432-1.0485714285714285 0.8485714285714288q-0.6714285714285713 0.6028571428571432-1.1514285714285715 0.8485714285714288t-1.2599999999999996 0.24571428571428555v-4.285714285714285q0-1.7857142857142847 1.2514285714285716-3.0357142857142847t3.034285714285714-1.2500000000000036h1.4285714285714288v-10h5.714285714285714v10h5.7142857142857135v-10h5.714285714285715v10h5.714285714285715v-10h5.714285714285712v10h1.4285714285714306q1.7857142857142847 0 3.037142857142854 1.25t1.2485714285714309 3.0357142857142883z m-28.57142857142857-19.28571428571429q-1.7763568394002505e-15 1.7185714285714289-0.8028571428571443 2.645714285714286t-2.054285714285715 0.9257142857142853q-1.1814285714285715 0-2.0185714285714287-0.8371428571428572t-0.8385714285714281-2.0199999999999996q0-0.6471428571428568 0.2142857142857144-1.1385714285714288t0.5228571428571431-0.7571428571428571 0.6914285714285713-0.6285714285714286 0.6914285714285713-0.6999999999999997 0.524285714285714-0.9942857142857142 0.21285714285714263-1.495714285714286q0.8471428571428579 0 1.8514285714285723 1.6514285714285712t1.0057142857142853 3.3485714285714288z m11.428571428571427 0q0 1.7185714285714289-0.8028571428571425 2.645714285714286t-2.054285714285715 0.9257142857142853q-1.1814285714285724 0-2.018571428571427-0.8371428571428572t-0.8385714285714307-2.0199999999999996q0-0.6471428571428568 0.2142857142857153-1.1385714285714288t0.5228571428571414-0.7571428571428571 0.6914285714285704-0.6285714285714286 0.6914285714285704-0.6999999999999997 0.524285714285714-0.9942857142857142 0.2128571428571462-1.495714285714286q0.8471428571428561 0 1.8514285714285705 1.6514285714285712t1.0057142857142871 3.3485714285714288z m11.428571428571427 0q0 1.7185714285714289-0.8028571428571425 2.645714285714286t-2.0542857142857116 0.9257142857142853q-1.1814285714285724 0-2.018571428571427-0.8371428571428572t-0.8385714285714307-2.0199999999999996q0-0.6471428571428568 0.2142857142857153-1.1385714285714288t0.5228571428571414-0.7571428571428571 0.6914285714285704-0.6285714285714286 0.6914285714285704-0.6999999999999997 0.524285714285714-0.9942857142857142 0.2128571428571462-1.495714285714286q0.8471428571428561 0 1.8514285714285705 1.6514285714285712t1.0057142857142836 3.3485714285714288z"></path></svg>