<?xml version="1.0"?><svg xmlns="http://www.w3.org/2000/svg" width="40" height="40" viewBox="0 0 40 40"><path d="m22.47714285714286 19.174285714285716q0.17857142857142705 1.4057142857142857-1.12857142857143 2.2542857142857144t-2.485714285714284 0.13428571428571345q-0.8714285714285701-0.379999999999999-1.1957142857142848-1.2942857142857136t-0.011428571428570677-1.8285714285714292 1.1571428571428584-1.2957142857142863q0.8042857142857152-0.3999999999999986 1.620000000000001-0.2657142857142851t1.428571428571427 0.7928571428571445 0.6142857142857139 1.5057142857142871z m2.4785714285714278-0.46857142857142975q-0.31428571428571317-2.388571428571428-2.524285714285714-3.66t-4.397142857142857-0.28999999999999915q-1.4057142857142857 0.6242857142857137-2.2428571428571438 1.9742857142857133t-0.7714285714285722 2.8900000000000006q0.09142857142857075 2.0314285714285703 1.7314285714285695 3.460000000000001t3.694285714285712 1.25q2.0314285714285703-0.17857142857142705 3.3928571428571423-1.8757142857142846t1.1142857142857139-3.7514285714285727z m5.332857142857144-12.100000000000001q-0.4471428571428575-0.5999999999999996-1.25-0.9914285714285711t-1.2942857142857136-0.4914285714285711-1.5857142857142854-0.27857142857142847q-6.494285714285713-1.0471428571428572-12.632857142857143 0.045714285714285374-0.9614285714285717 0.15714285714285747-1.474285714285715 0.2671428571428569t-1.2285714285714278 0.4900000000000002-1.1142857142857139 0.96q0.6714285714285708 0.6257142857142854 1.6971428571428575 1.0142857142857142t1.6400000000000006 0.4928571428571429 1.9528571428571428 0.25714285714285623q5.091428571428571 0.6471428571428568 9.999999999999998 0.02285714285714313 1.4071428571428584-0.17857142857142883 2-0.2671428571428578t1.6171428571428557-0.4814285714285713 1.6742857142857126-1.0385714285714283z m1.2714285714285722 23.104285714285712q-0.17714285714285793 0.5800000000000018-0.34285714285714164 1.707142857142859t-0.31428571428571317 1.875714285714288-0.6357142857142861 1.5628571428571405-1.2942857142857136 1.259999999999998q-1.9200000000000017 1.0714285714285694-4.228571428571428 1.595714285714287t-4.510000000000002 0.490000000000002-4.497142857142858-0.41428571428571104q-1.0285714285714285-0.17714285714285438-1.8185714285714276-0.3999999999999986t-1.7042857142857173-0.6014285714285776-1.6314285714285717-0.971428571428568-1.1600000000000001-1.3714285714285737q-0.5571428571428569-2.142857142857146-1.2714285714285722-6.517142857142858l0.13285714285714256-0.35714285714285765 0.40000000000000036-0.1999999999999993q4.977142857142857 3.3000000000000007 11.305714285714288 3.3000000000000007t11.32857142857143-3.3000000000000007q0.46857142857142975 0.13285714285714434 0.5357142857142847 0.5114285714285707t-0.11428571428571388 1.0042857142857144-0.17714285714285793 0.8242857142857147z m4.0428571428571445-21.451428571428572q-0.5814285714285745 3.7285714285714278-2.4785714285714278 14.62142857142857-0.11142857142856855 0.6714285714285708-0.6028571428571396 1.25t-0.9714285714285715 0.8928571428571423-1.217142857142857 0.6914285714285704q-5.625714285714288 2.8114285714285714-13.614285714285714 1.9628571428571426-5.537142857142857-0.6028571428571432-8.795714285714286-3.102857142857143-0.3342857142857145-0.2671428571428578-0.5685714285714285-0.5914285714285725t-0.38142857142857167-0.7814285714285703-0.20000000000000018-0.7571428571428562-0.13571428571428612-0.8814285714285717-0.12285714285714278-0.7814285714285703q-0.20000000000000018-1.1142857142857139-0.5914285714285716-3.3485714285714288t-0.6228571428571499-3.6042857142857088-0.524285714285714-3.2957142857142863-0.4900000000000002-3.5271428571428576q0.06428571428571406-0.5771428571428565 0.3857142857142861-1.08t0.7028571428571428-0.8371428571428572 1.0042857142857144-0.6685714285714282 1.0285714285714285-0.5028571428571427 1.071428571428572-0.41428571428571415q2.7885714285714283-1.0257142857142858 6.985714285714286-1.4285714285714284 8.46-0.8242857142857143 15.090000000000003 1.1171428571428574 3.460000000000001 1.0285714285714285 4.799999999999997 2.7228571428571424 0.3571428571428541 0.4471428571428575 0.3671428571428592 1.1385714285714288t-0.12285714285714278 1.2057142857142855z"></path></svg>