<?xml version="1.0"?><svg viewBox="0 0 40 40" xmlns="http://www.w3.org/2000/svg" height="40" width="40"><path d="m14.1 18.5q0.2 1-0.8 1.7t-2 0.1q-0.6-0.3-0.9-1t0-1.4q0.2-0.7 0.9-1 0.6-0.3 1.3-0.2t1.1 0.6q0.4 0.5 0.4 1.2z m2-0.4q-0.3-1.9-2-2.9t-3.4-0.2q-1.1 0.5-1.8 1.6t-0.5 2.2q0 1.6 1.3 2.7t2.9 1q1.5-0.2 2.6-1.5t0.9-2.9z m4.1-9.4q-0.3-0.5-0.9-0.8t-1.1-0.4q-0.3-0.1-1.2-0.2-5-0.8-9.8 0-0.8 0.2-1.2 0.3t-0.9 0.3q-0.6 0.3-0.9 0.8 0.5 0.5 1.3 0.8t1.3 0.4q0.5 0 1.5 0.2 4 0.5 7.8 0 1.1-0.2 1.6-0.2t1.2-0.4q0.8-0.3 1.3-0.8z m1 17.9q-0.1 0.5-0.3 1.4t-0.2 1.4q-0.1 0.6-0.5 1.3t-1 0.9q-1.5 0.9-3.3 1.3t-3.5 0.4q-1.7-0.1-3.5-0.4-0.8-0.1-1.4-0.3t-1.3-0.4q-0.7-0.3-1.3-0.8t-0.9-1.1q-0.4-1.6-1-5l0.1-0.3 0.3-0.2q3.9 2.6 8.8 2.6t8.8-2.6q0.4 0.1 0.4 0.4t0 0.8q-0.2 0.5-0.2 0.6z m3.2-16.6q-0.5 2.9-2 11.3-0.1 0.6-0.4 1t-0.8 0.7q-0.4 0.2-0.9 0.5-4.4 2.2-10.6 1.6-4.3-0.5-6.9-2.4-0.2-0.3-0.4-0.5t-0.3-0.6q-0.1-0.4-0.2-0.6t-0.1-0.7q0-0.4-0.1-0.6-0.1-0.9-0.4-2.6t-0.5-2.8q-0.2-1.1-0.4-2.6t-0.4-2.7q0.1-0.5 0.3-0.8t0.6-0.7q0.2-0.3 0.7-0.5t0.8-0.4q0.3-0.1 0.9-0.3 2.1-0.8 5.4-1.1 6.6-0.7 11.7 0.8 2.7 0.8 3.8 2.1 0.2 0.4 0.3 0.9t-0.1 1z"></path></svg>