<?xml version="1.0"?><svg viewBox="0 0 40 40" xmlns="http://www.w3.org/2000/svg" height="40" width="40"><path d="m21.7 18.4q0-1-0.9-1.4t-1.6-0.1q-0.9 0.5-0.9 1.6t0.9 1.5q0.8 0.4 1.7-0.1t0.8-1.5z m1.7-0.4q0.1 1.4-0.8 2.6t-2.3 1.3-2.5-0.9-1.2-2.4q0-1 0.5-1.9t1.6-1.4q1.4-0.6 3 0.2t1.7 2.5z m3.6-8.2q-0.4 0.4-1.1 0.7t-1.1 0.3-1.4 0.2q-3.3 0.4-6.8 0-0.9-0.1-1.3-0.2t-1.2-0.3-1.1-0.7q0.3-0.4 0.8-0.7t0.8-0.3 1-0.2q4.2-0.7 8.6 0 0.7 0.1 1.1 0.2t0.9 0.3 0.8 0.7z m0.9 15.7q0-0.1 0.1-0.6t0.1-0.6-0.4-0.4q-3.4 2.3-7.7 2.3t-7.7-2.3l-0.3 0.1-0.1 0.3q0.6 3.3 0.9 4.4 1 1.7 4.3 2.3 5.2 1 9-1.1 0.7-0.4 1.1-1.1t0.4-1.8 0.3-1.5z m2.7-14.6q0.2-1.1-0.1-1.6-0.9-1.2-3.3-1.9-4.6-1.3-10.3-0.7-2.8 0.2-4.7 1-0.8 0.3-1.3 0.5t-1 0.7-0.6 1.1q0.2 1.5 0.4 3t0.6 3.6 0.5 2.9q0 0.1 0.1 0.6t0.2 0.8 0.2 0.5 0.5 0.6q2.2 1.7 6 2.1 5.4 0.6 9.2-1.3 0.6-0.3 0.9-0.5t0.6-0.6 0.4-0.8q1.1-5.7 1.7-10z m5.6-2.1v20.2q0 2.5-1.8 4.3t-4.3 1.8h-20.2q-2.5 0-4.3-1.8t-1.8-4.3v-20.2q0-2.5 1.8-4.3t4.3-1.8h20.2q2.5 0 4.3 1.8t1.8 4.3z"></path></svg>