<?xml version="1.0"?><svg xmlns="http://www.w3.org/2000/svg" width="40" height="40" viewBox="0 0 40 40"><path d="m21.785714285714285 19.419999999999998q0-0.9600000000000009-0.9142857142857146-1.4714285714285715t-1.7199999999999989-0.024285714285714022q-0.9600000000000009 0.4471428571428575-0.9485714285714302 1.6185714285714283t0.9714285714285715 1.5742857142857147q0.8714285714285701 0.514285714285716 1.8085714285714296-0.08999999999999986t0.8028571428571425-1.6085714285714303z m1.7857142857142847-0.35714285714285765q0.17857142857142705 1.4714285714285715-0.8028571428571425 2.6999999999999993t-2.4571428571428555 1.3628571428571412-2.654285714285713-0.8928571428571423-1.25-2.522857142857145q-0.04285714285714448-1.0942857142857143 0.5685714285714276-2.0757142857142874t1.6185714285714283-1.428571428571427q1.562857142857144-0.6914285714285722 3.1571428571428584 0.2228571428571442t1.8200000000000003 2.6342857142857135z m3.838571428571427-8.72857142857143q-0.4471428571428575 0.468571428571428-1.1942857142857157 0.757142857142858t-1.1814285714285724 0.35714285714285765-1.4171428571428564 0.17999999999999972q-3.4571428571428555 0.4471428571428575-7.231428571428573 0-0.9828571428571422-0.13428571428571345-1.4057142857142857-0.21142857142857174t-1.1714285714285708-0.35714285714285765-1.217142857142857-0.725714285714286q0.28999999999999915-0.4242857142857144 0.8028571428571425-0.6914285714285722t0.8914285714285786-0.34571428571428164 1.0471428571428572-0.1899999999999995q4.420000000000002-0.781428571428572 9.107142857142858-0.02285714285714313 0.7371428571428567 0.10999999999999943 1.138571428571428 0.1885714285714286t0.9600000000000009 0.35714285714285765 0.8714285714285701 0.7028571428571428z m0.9385714285714286 16.652857142857144q0-0.15428571428571303 0.12285714285714278-0.5899999999999999t0.0671428571428585-0.7142857142857153-0.39000000000000057-0.36857142857142833q-3.594285714285707 2.362857142857141-8.148571428571426 2.362857142857141t-8.167142857142855-2.362857142857141l-0.2671428571428578 0.13285714285714434-0.1114285714285721 0.2671428571428578q0.5800000000000001 3.437142857142856 0.9142857142857146 4.685714285714287 1.0500000000000007 1.8099999999999987 4.554285714285713 2.4114285714285693 5.557142857142857 1.028571428571432 9.552857142857146-1.1828571428571415 0.7571428571428562-0.4242857142857126 1.0942857142857143-1.1499999999999986t0.5014285714285656-1.9071428571428584 0.27857142857142847-1.5857142857142854z m2.8999999999999986-15.468571428571428q0.20285714285714107-1.1828571428571433-0.17714285714285793-1.6742857142857144-0.9600000000000009-1.2285714285714278-3.460000000000001-1.9642857142857144-4.821428571428573-1.4057142857142857-10.87142857142857-0.8028571428571434-2.945714285714285 0.2671428571428569-5.042857142857143 1.0285714285714285-0.8485714285714288 0.33285714285714363-1.3285714285714292 0.5571428571428569t-1.048571428571428 0.757142857142858-0.6571428571428566 1.2071428571428573q0.17714285714285793 1.5171428571428578 0.4228571428571435 3.08t0.6471428571428568 3.8171428571428567 0.5357142857142865 3.057142857142857q0.02285714285714313 0.11428571428571388 0.1114285714285721 0.6928571428571431t0.15714285714285658 0.8042857142857152 0.2657142857142851 0.6028571428571432 0.4914285714285711 0.6257142857142846q2.3428571428571434 1.7857142857142847 6.34 2.232857142857142 5.78142857142857 0.6257142857142846 9.82142857142857-1.4057142857142857 0.5342857142857156-0.28999999999999915 0.879999999999999-0.514285714285716t0.6914285714285704-0.6457142857142841 0.43571428571428683-0.8928571428571423q1.071428571428573-5.960000000000001 1.7857142857142847-10.557142857142857z m5.894285714285722-2.232857142857142v21.42857142857143q0 2.6571428571428584-1.8857142857142861 4.5428571428571445t-4.5428571428571445 1.8857142857142861h-21.42857142857143q-2.6571428571428575 0-4.542857142857144-1.8857142857142861t-1.885714285714284-4.5428571428571445v-21.42857142857143q0-2.6571428571428575 1.8857142857142857-4.542857142857144t4.542857142857144-1.885714285714284h21.42857142857143q2.6571428571428584 0 4.5428571428571445 1.8857142857142857t1.8857142857142861 4.542857142857144z"></path></svg>