<?xml version="1.0"?><svg xmlns="http://www.w3.org/2000/svg" width="40" height="40" viewBox="0 0 40 40"><path d="m31.04857142857143 14.285714285714286q0.3999999999999986 4.062857142857142-2.9242857142857126 5.757142857142858 2.611428571428572 0.6285714285714299 3.905714285714282 2.3000000000000007t1.0057142857142836 4.777142857142856q-0.15714285714285836 1.5857142857142854-0.7257142857142824 2.789999999999999t-1.4400000000000013 1.985714285714284-2.1657142857142873 1.307142857142857-2.71142857142857 0.7714285714285722-3.247142857142858 0.33285714285714363v5.692857142857143h-3.435714285714287v-5.604285714285716q-1.7857142857142847 0-2.722857142857144-0.022857142857141355v5.627142857142857h-3.4414285714285686v-5.692857142857143q-0.40000000000000036 0-1.2057142857142864-0.01142857142857423t-1.2257142857142842-0.00999999999999801h-4.464285714285715l0.6914285714285713-4.085714285714285h2.475714285714285q1.1142857142857139 0 1.2942857142857136-1.138571428571428v-8.971428571428572h0.35714285714285765q-0.13571428571428612-0.024285714285714022-0.35714285714285765-0.024285714285714022v-6.405714285714286q-0.28999999999999915-1.5171428571428578-1.9871428571428549-1.5171428571428578h-2.475714285714287v-3.66l4.732857142857143 0.02285714285714313q1.4285714285714288 0 2.1657142857142855-0.02285714285714313v-5.625714285714285h3.4385714285714286v5.514285714285714q1.8285714285714292-0.04571428571428626 2.7214285714285715-0.04571428571428626v-5.468571428571428h3.437142857142856v5.625714285714286q1.764285714285716 0.15714285714285658 3.12857142857143 0.5028571428571436t2.5214285714285722 1.0042857142857144 1.8428571428571416 1.7428571428571438 0.8142857142857132 2.554285714285715z m-4.800000000000001 12.165714285714285q0-0.8028571428571425-0.33285714285714363-1.428571428571427t-0.8242857142857147-1.0285714285714285-1.282857142857143-0.6799999999999997-1.46142857142857-0.4142857142857146-1.6514285714285712-0.1999999999999993-1.5399999999999991-0.0671428571428585-1.4400000000000013 0.022857142857141355-1.0599999999999987 0.02142857142857224v7.5428571428571445q0.17857142857142705 0 0.8257142857142838 0.014285714285716011t1.071428571428573 0.010000000000001563 1.1828571428571415-0.03285714285714292 1.3057142857142843-0.09142857142857252 1.2714285714285722-0.19000000000000128 1.2399999999999984-0.31428571428571317 1.0599999999999987-0.4671428571428571 0.8814285714285717-0.6714285714285708 0.5471428571428554-0.8914285714285732 0.21142857142856997-1.138571428571428z m-1.5828571428571436-10.625714285714286q0-0.7371428571428567-0.27857142857142847-1.305714285714286t-0.6799999999999997-0.9371428571428577-1.071428571428573-0.6257142857142863-1.2285714285714278-0.36857142857142833-1.37142857142857-0.17857142857142883-1.2942857142857136-0.05714285714285694-1.2057142857142864 0.024285714285714022-0.8814285714285717 0.011428571428570677v6.852857142857141q0.1114285714285721 0 0.7714285714285722 0.010000000000001563t1.0371428571428574 0 1.1142857142857139-0.04285714285714448 1.2285714285714278-0.12428571428571544 1.1499999999999986-0.24571428571428555 1.0828571428571436-0.4142857142857146 0.8257142857142838-0.6000000000000014 0.6028571428571432-0.8614285714285721 0.1999999999999993-1.138571428571428z"></path></svg>