<?xml version="1.0"?><svg xmlns="http://www.w3.org/2000/svg" width="40" height="40" viewBox="0 0 40 40"><path d="m16.674285714285716 33.95142857142857q1.6514285714285712 0.7142857142857153 3.1257142857142846 0.7142857142857153 8.392857142857142 0 8.392857142857142-7.477142857142859 0-2.5428571428571445-0.9142857142857146-4.017142857142858-0.6042857142857159-0.9828571428571422-1.3742857142857154-1.6514285714285712t-1.5071428571428562-1.03857142857143-1.7971428571428554-0.5571428571428569-1.8757142857142846-0.235714285714284-2.1099999999999994-0.04285714285714448q-1.62857142857143 0-2.2542857142857144 0.22142857142857153 0 1.1828571428571415-0.011428571428570677 3.548571428571428t-0.011428571428570677 3.5285714285714285q0 0.17857142857142705-0.022857142857141355 1.5071428571428562t-0.011428571428570677 2.154285714285713 0.10000000000000142 1.8642857142857174 0.2671428571428578 1.4857142857142875z m-0.31428571428571317-16.652857142857144q0.9385714285714286 0.15428571428571303 2.434285714285714 0.15428571428571303 1.8285714285714292 0 3.1914285714285704-0.28999999999999915t2.4571428571428555-0.9928571428571438 1.6614285714285728-1.9971428571428564 0.5685714285714276-3.1714285714285726q0-1.5614285714285714-0.6457142857142841-2.732857142857142t-1.7628571428571433-1.831428571428571-2.41-0.9714285714285715-2.767142857142858-0.31428571428571406q-1.1142857142857139 0-2.8999999999999986 0.2914285714285718 0 1.1142857142857148 0.08857142857142719 3.371428571428571t0.08999999999999986 3.3914285714285715q0 0.6028571428571432-0.011428571428570677 1.7857142857142865t-0.01142857142857423 1.7657142857142851q0 1.0285714285714285 0.02142857142857224 1.5399999999999991z m-12.074285714285718 19.844285714285718l0.04285714285714359-2.1000000000000014q0.3357142857142854-0.08857142857142719 1.9000000000000004-0.3571428571428541t2.3642857142857148-0.6000000000000014q0.15714285714285658-0.2685714285714269 0.27857142857142847-0.6042857142857159t0.1899999999999995-0.7471428571428547 0.12285714285714278-0.7257142857142824 0.06571428571428584-0.8371428571428581 0.011428571428570677-0.7571428571428562v-1.4628571428571426q0-21.919999999999998-0.4914285714285711-22.88-0.08999999999999986-0.17857142857142883-0.4914285714285711-0.32428571428571473t-0.9928571428571429-0.24714285714286532-1.1028571428571432-0.15428571428571392-1.0828571428571427-0.09999999999999964-0.6814285714285715-0.06714285714285673l-0.08999999999999986-1.852857142857144q2.185714285714286-0.042857142857142705 7.590000000000001-0.2571428571428571t8.324285714285715-0.2114285714285713q0.514285714285716 0 1.5285714285714285 0.011428571428571566t1.508571428571429 0.011428571428571566q1.562857142857144 0 3.047142857142859 0.29000000000000004t2.867142857142859 0.9357142857142855 2.41 1.5857142857142863 1.6514285714285712 2.331428571428571 0.6257142857142881 3.0685714285714294q0 1.1600000000000001-0.36857142857142833 2.1314285714285717t-0.8714285714285737 1.6071428571428577-1.4385714285714286 1.282857142857143-1.62857142857143 1.0042857142857144-1.8771428571428572 0.8928571428571423q3.435714285714287 0.7814285714285703 5.724285714285717 2.991428571428571t2.2928571428571374 5.537142857142857q0 2.232857142857142-0.7828571428571465 4.007142857142856t-2.085714285714289 2.9142857142857146-3.081428571428571 1.9071428571428584-3.650000000000002 1.0828571428571436-3.9285714285714306 0.3142857142857167q-0.9828571428571422 0-2.9471428571428575-0.06857142857143117t-2.9471428571428575-0.06714285714285495q-2.3657142857142865 0-6.852857142857143 0.24571428571428555t-5.157142857142847 0.2685714285714269z"></path></svg>