<?xml version="1.0"?><svg viewBox="0 0 40 40" xmlns="http://www.w3.org/2000/svg" height="40" width="40"><path d="m16.9 32.1q1.5 0.7 2.9 0.7 7.9 0 7.9-7.1 0-2.4-0.8-3.8-0.6-0.9-1.3-1.6t-1.4-0.9-1.7-0.6-1.8-0.2-2 0q-1.5 0-2.1 0.2 0 1.1 0 3.3t-0.1 3.4q0 0.1 0 1.4t0 2 0.1 1.8 0.3 1.4z m-0.3-15.8q0.8 0.2 2.3 0.2 1.7 0 3-0.3t2.3-0.9 1.6-1.9 0.5-3q0-1.5-0.6-2.6t-1.7-1.7-2.2-0.9-2.7-0.3q-1 0-2.7 0.2 0 1.1 0.1 3.2t0.1 3.2q0 0.6 0 1.7t-0.1 1.7q0 1 0.1 1.4z m-11.5 18.8l0.1-2q0.3-0.1 1.8-0.3t2.2-0.6q0.2-0.2 0.3-0.6t0.2-0.7 0.1-0.6 0-0.8 0.1-0.8v-1.3q0-20.8-0.5-21.7-0.1-0.1-0.5-0.3t-0.9-0.2-1.1-0.1-1-0.1-0.6-0.1l-0.1-1.8q2.1 0 7.2-0.2t7.8-0.2q0.5 0 1.5 0t1.4 0q1.5 0 2.9 0.3t2.7 0.9 2.3 1.5 1.5 2.2 0.6 2.9q0 1.1-0.3 2t-0.8 1.5-1.4 1.2-1.5 1-1.8 0.8q3.2 0.8 5.4 2.9t2.2 5.2q0 2.1-0.8 3.8t-2 2.7-2.9 1.8-3.4 1-3.7 0.3q-1 0-2.8 0t-2.8-0.1q-2.2 0-6.5 0.3t-4.9 0.2z"></path></svg>