<?xml version="1.0"?><svg xmlns="http://www.w3.org/2000/svg" width="40" height="40" viewBox="0 0 40 40"><path d="m12.745714285714287 13.147142857142857q-0.22285714285714242-0.5571428571428569-0.757142857142858-0.781428571428572t-1.0957142857142852 0q-2.41 0.9828571428571422-4.262857142857143 2.8342857142857145t-2.832857142857143 4.262857142857143q-0.22285714285714286 0.5571428571428569 0 1.0942857142857143t0.7814285714285716 0.7571428571428562q0.29000000000000004 0.11428571428571388 0.5357142857142856 0.11428571428571388 0.9357142857142859 0 1.338571428571429-0.894285714285715 0.7571428571428571-1.8757142857142846 2.2-3.314285714285713t3.314285714285713-2.1999999999999993q0.5571428571428569-0.24285714285714377 0.7799999999999994-0.7799999999999994t0-1.0942857142857143z m21.028571428571432-7.945714285714287l1.0257142857142867 1.0285714285714285-5.4471428571428575 5.424285714285714 1.5185714285714234 1.5171428571428596q0.4228571428571435 0.4228571428571435 0.4228571428571435 1.0142857142857142t-0.4242857142857126 1.0142857142857142l-1.428571428571427 1.4285714285714288q1.9871428571428567 3.597142857142856 1.9871428571428567 7.657142857142855 0 3.1914285714285704-1.2385714285714293 6.104285714285716t-3.3471428571428596 5.0242857142857105-5.024285714285714 3.347142857142856-6.104285714285712 1.2385714285714329-6.104285714285714-1.2385714285714258-5.024285714285716-3.347142857142863-3.345714285714285-5.025714285714283-1.2400000000000002-6.102857142857143 1.2385714285714287-6.104285714285716 3.347142857142857-5.0242857142857105 5.024285714285714-3.347142857142856 6.104285714285716-1.238571428571431q4.062857142857144 0 7.657142857142858 1.9857142857142858l1.428571428571427-1.4285714285714288q0.4228571428571435-0.4228571428571435 1.014285714285716-0.4228571428571435t1.0142857142857125 0.4242857142857144l1.518571428571427 1.5185714285714287z m0.17714285714285438-1.2485714285714287q-0.2228571428571442 0.22285714285714286-0.4914285714285711 0.22285714285714286-0.28999999999999915 0-0.5142857142857125-0.22285714285714286l-2.0285714285714285-2.0085714285714285q-0.20285714285714462-0.2242857142857131-0.20285714285714462-0.5157142857142845t0.1999999999999993-0.5114285714285715q0.2242857142857133-0.20000000000000007 0.514285714285716-0.20000000000000007t0.5142857142857125 0.19999999999999996l2.00714285714286 2.031428571428571q0.2228571428571442 0.20000000000000018 0.2228571428571442 0.5028571428571427t-0.22142857142856798 0.5028571428571427z m5.134285714285717 5.132857142857146q-0.24714285714285467 0.1999999999999993-0.5142857142857125 0.1999999999999993t-0.5142857142857125-0.1999999999999993l-2.00714285714286-2.032857142857143q-0.2228571428571442-0.20000000000000018-0.2228571428571442-0.5028571428571427t0.22142857142856798-0.5028571428571427q0.20000000000000284-0.22285714285714242 0.5028571428571453-0.22285714285714242t0.5028571428571453 0.22285714285714242l2.028571428571432 2.008571428571429q0.20285714285714107 0.22142857142857153 0.20285714285714107 0.5114285714285707t-0.20000000000000284 0.5142857142857142z m0.914285714285711-4.085714285714287q0 0.31428571428571406-0.20000000000000284 0.5142857142857142t-0.5142857142857125 0.20000000000000018h-2.142857142857139q-0.3142857142857167 0-0.5142857142857125-0.20000000000000018t-0.20000000000000284-0.5142857142857142 0.20000000000000284-0.5142857142857142 0.5142857142857125-0.20000000000000018h2.142857142857146q0.3142857142857167 0 0.5142857142857125 0.20000000000000018t0.20000000000000284 0.5142857142857142z m-4.285714285714285-4.285714285714286v2.142857142857143q0 0.3142857142857145-0.20000000000000284 0.5142857142857142t-0.5142857142857125 0.20000000000000018-0.5142857142857125-0.20000000000000018-0.20000000000000284-0.5142857142857142v-2.142857142857143q0-0.3142857142857144 0.20000000000000284-0.5142857142857143t0.5142857142857125-0.20000000000000007 0.5142857142857125 0.2 0.20000000000000284 0.5142857142857142z m3.3714285714285737 1.2285714285714286l-2.0328571428571394 2.007142857142857q-0.2228571428571442 0.2228571428571433-0.4914285714285711 0.2228571428571433-0.28999999999999915 0-0.5142857142857125-0.22142857142857153-0.22142857142856798-0.20000000000000018-0.22142857142856798-0.5028571428571427t0.2228571428571442-0.5028571428571427l2.0085714285714147-2.031428571428572q0.2228571428571442-0.20285714285714307 0.5142857142857125-0.20285714285714307t0.5114285714285742 0.19999999999999996q0.20000000000000284 0.2242857142857142 0.20000000000000284 0.5142857142857142t-0.20000000000000284 0.5142857142857142z"></path></svg>