<?xml version="1.0"?><svg viewBox="0 0 40 40" xmlns="http://www.w3.org/2000/svg" height="40" width="40"><path d="m9.9 14.6q0.2-0.4 0-0.8t-0.6-0.6q-0.4-0.2-0.8 0-1.9 0.7-3.3 2.2t-2.2 3.3q-0.2 0.4 0 0.8t0.6 0.6q0.2 0.1 0.4 0.1 0.7 0 1-0.7 0.6-1.4 1.7-2.6t2.6-1.7q0.4-0.2 0.6-0.6z m16.4-7l0.8 0.8-4.3 4.2 1.2 1.2q0.3 0.3 0.3 0.8t-0.3 0.8l-1.1 1.1q1.5 2.8 1.5 5.9 0 2.5-0.9 4.8t-2.6 3.9q-1.7 1.6-3.9 2.6t-4.8 1q-2.5 0-4.7-1t-3.9-2.6q-1.7-1.7-2.6-3.9t-1-4.8q0-2.5 1-4.7t2.6-3.9q1.6-1.7 3.9-2.6t4.7-1q3.2 0 6 1.6l1.1-1.2q0.3-0.3 0.8-0.3t0.8 0.3l1.1 1.2 4.3-4.2z m0.1-1q-0.2 0.2-0.4 0.2-0.2 0-0.4-0.2l-1.6-1.5q-0.1-0.2-0.1-0.4t0.1-0.4q0.2-0.2 0.4-0.2t0.4 0.2l1.6 1.5q0.2 0.2 0.2 0.4t-0.2 0.4z m4 4q-0.2 0.2-0.4 0.2t-0.4-0.2l-1.6-1.6q-0.1-0.1-0.1-0.4t0.1-0.4q0.2-0.1 0.4-0.1t0.4 0.1l1.6 1.6q0.2 0.2 0.2 0.4t-0.2 0.4z m0.6-3.6q0.1 0.2 0.1 0.4t-0.1 0.4q-0.2 0.2-0.4 0.2h-1.7q-0.3 0-0.4-0.2t-0.2-0.4q0-0.2 0.2-0.4t0.4-0.1h1.7q0.2 0 0.4 0.1z m-3.2-2.9v1.7q0 0.2-0.2 0.4t-0.4 0.1q-0.2 0-0.4-0.1t-0.1-0.4v-1.7q0-0.2 0.1-0.4t0.4-0.2q0.3 0 0.4 0.2t0.2 0.4z m2.6 1l-1.6 1.5q-0.2 0.2-0.4 0.2-0.2 0-0.4-0.2-0.1-0.1-0.1-0.4t0.1-0.4l1.6-1.5q0.2-0.2 0.4-0.2t0.4 0.2q0.2 0.1 0.2 0.4t-0.2 0.4z"></path></svg>