<?xml version="1.0"?><svg xmlns="http://www.w3.org/2000/svg" width="40" height="40" viewBox="0 0 40 40"><path d="m31.42857142857143 5.714285714285714h-22.85714285714286v27.722857142857137l11.42857142857143-10.96 1.985714285714284 1.8971428571428568 9.442857142857147 9.062857142857151v-27.722857142857144z m0.2685714285714269-2.857142857142857q0.5142857142857125 0 0.9828571428571422 0.20000000000000018 0.7371428571428567 0.29142857142857137 1.1714285714285708 0.9171428571428573t0.4357142857142833 1.3857142857142857v28.771428571428572q0 0.7571428571428598-0.43428571428571416 1.3857142857142861t-1.1714285714285708 0.914285714285711q-0.42428571428571615 0.1785714285714306-0.9828571428571422 0.1785714285714306-1.071428571428573 0-1.8528571428571432-0.7142857142857153l-9.845714285714283-9.464285714285715-9.842857142857143 9.464285714285715q-0.8042857142857134 0.7371428571428567-1.854285714285714 0.7371428571428567-0.5142857142857142 0-0.9828571428571431-0.20000000000000284-0.7371428571428575-0.29142857142856826-1.1714285714285717-0.9171428571428564t-0.4342857142857133-1.3828571428571337v-28.77285714285715q0-0.7599999999999998 0.43428571428571416-1.3857142857142857t1.1714285714285717-0.9142857142857141q0.468571428571428-0.2028571428571424 0.982857142857144-0.2028571428571424h23.392857142857146z"></path></svg>