<?xml version="1.0"?><svg xmlns="http://www.w3.org/2000/svg" width="40" height="40" viewBox="0 0 40 40"><path d="m14.285714285714286 5.714285714285714h11.428571428571429v-2.857142857142857h-11.428571428571429v2.857142857142857z m25.714285714285715 14.285714285714285v10.714285714285715q0 1.471428571428568-1.048571428571428 2.5228571428571414t-2.5228571428571414 1.048571428571428h-32.85714285714286q-1.4714285714285715 0-2.522857142857143-1.048571428571428t-1.0485714285714263-2.5228571428571414v-10.714285714285715h15v3.571428571428573q0 0.5800000000000018 0.4242857142857144 1.0042857142857144t1.0042857142857127 0.4242857142857126h7.142857142857142q0.5799999999999983 0 1.0042857142857144-0.4242857142857126t0.4242857142857126-1.0042857142857144v-3.571428571428573h15.000000000000004z m-17.142857142857142 0v2.8571428571428577h-5.714285714285715v-2.8571428571428577h5.714285714285715z m17.142857142857142-10.714285714285715v8.57142857142857h-40v-8.571428571428571q0-1.4714285714285715 1.0485714285714285-2.522857142857143t2.522857142857143-1.0485714285714254h7.857142857142858v-3.5714285714285716q0-0.8928571428571428 0.6257142857142863-1.5171428571428573t1.517142857142856-0.6257142857142854h12.85714285714286q0.8928571428571423 0 1.5171428571428578 0.6257142857142858t0.6257142857142846 1.517142857142857v3.5714285714285716h7.857142857142858q1.471428571428575 0 2.5228571428571414 1.048571428571429t1.048571428571428 2.522857142857143z"></path></svg>