<?xml version="1.0"?><svg viewBox="0 0 40 40" xmlns="http://www.w3.org/2000/svg" height="40" width="40"><path d="m36.9 20.3q0 0.5-0.4 0.9t-1 0.4h-4.7q0 3.6-1.4 6.1l4.4 4.4q0.4 0.4 0.4 1t-0.4 0.9q-0.4 0.4-1 0.4t-0.9-0.4l-4.2-4.1q-0.1 0.1-0.3 0.2t-0.9 0.6-1.4 0.8-1.7 0.6-2 0.3v-18.9h-2.8v18.9q-1 0-2.1-0.3t-1.8-0.7-1.4-0.8-0.9-0.7l-0.4-0.3-3.8 4.4q-0.4 0.4-1 0.4-0.5 0-0.9-0.3-0.4-0.4-0.5-0.9t0.4-1l4.2-4.8q-1.2-2.4-1.2-5.8h-4.7q-0.6 0-1-0.4t-0.4-0.9 0.4-1 1-0.4h4.7v-6.2l-3.7-3.6q-0.4-0.5-0.4-1t0.4-0.9 1-0.4 0.9 0.4l3.7 3.6h17.8l3.7-3.6q0.4-0.4 0.9-0.4t1 0.4 0.4 0.9-0.4 1l-3.7 3.6v6.2h4.7q0.6 0 1 0.4t0.4 1z m-10.1-12.2h-13.6q0-2.8 2-4.8t4.8-1.9 4.8 1.9 2 4.8z"></path></svg>