<?xml version="1.0"?><svg viewBox="0 0 40 40" xmlns="http://www.w3.org/2000/svg" height="40" width="40"><path d="m32 0q0.5 0 0.9 0.4t0.4 1v35.1q0 0.5-0.4 0.9t-0.9 0.4h-27q-0.6 0-1-0.4t-0.4-0.9v-35.1q0-0.6 0.4-1t1-0.4h27z m-17.6 6.1v1.3q0 0.3 0.2 0.5t0.5 0.2h1.4q0.2 0 0.4-0.2t0.2-0.5v-1.3q0-0.3-0.2-0.5t-0.4-0.2h-1.4q-0.3 0-0.5 0.2t-0.2 0.5z m0 5.4v1.3q0 0.3 0.2 0.5t0.5 0.2h1.4q0.2 0 0.4-0.2t0.2-0.5v-1.3q0-0.3-0.2-0.5t-0.4-0.2h-1.4q-0.3 0-0.5 0.2t-0.2 0.5z m0 5.4v1.3q0 0.3 0.2 0.5t0.5 0.2h1.4q0.2 0 0.4-0.2t0.2-0.5v-1.3q0-0.3-0.2-0.5t-0.4-0.2h-1.4q-0.3 0-0.5 0.2t-0.2 0.5z m0 5.4v1.3q0 0.3 0.2 0.5t0.5 0.2h1.4q0.2 0 0.4-0.2t0.2-0.5v-1.3q0-0.3-0.2-0.5t-0.4-0.2h-1.4q-0.3 0-0.5 0.2t-0.2 0.5z m-2.7 6.7v-1.3q0-0.3-0.2-0.5t-0.4-0.2h-1.4q-0.3 0-0.5 0.2t-0.2 0.5v1.3q0 0.3 0.2 0.5t0.5 0.2h1.4q0.2 0 0.4-0.2t0.2-0.5z m0-5.4v-1.3q0-0.3-0.2-0.5t-0.4-0.2h-1.4q-0.3 0-0.5 0.2t-0.2 0.5v1.3q0 0.3 0.2 0.5t0.5 0.2h1.4q0.2 0 0.4-0.2t0.2-0.5z m0-5.4v-1.3q0-0.3-0.2-0.5t-0.4-0.2h-1.4q-0.3 0-0.5 0.2t-0.2 0.5v1.3q0 0.3 0.2 0.5t0.5 0.2h1.4q0.2 0 0.4-0.2t0.2-0.5z m0-5.4v-1.3q0-0.3-0.2-0.5t-0.4-0.2h-1.4q-0.3 0-0.5 0.2t-0.2 0.5v1.3q0 0.3 0.2 0.5t0.5 0.2h1.4q0.2 0 0.4-0.2t0.2-0.5z m0-5.4v-1.3q0-0.3-0.2-0.5t-0.4-0.2h-1.4q-0.3 0-0.5 0.2t-0.2 0.5v1.3q0 0.3 0.2 0.5t0.5 0.2h1.4q0.2 0 0.4-0.2t0.2-0.5z m10.8 27v-4q0-0.3-0.2-0.5t-0.4-0.2h-6.8q-0.3 0-0.5 0.2t-0.2 0.5v4q0 0.3 0.2 0.5t0.5 0.2h6.8q0.2 0 0.4-0.2t0.2-0.5z m0-10.8v-1.3q0-0.3-0.2-0.5t-0.4-0.2h-1.4q-0.3 0-0.5 0.2t-0.2 0.5v1.3q0 0.3 0.2 0.5t0.5 0.2h1.4q0.2 0 0.4-0.2t0.2-0.5z m0-5.4v-1.3q0-0.3-0.2-0.5t-0.4-0.2h-1.4q-0.3 0-0.5 0.2t-0.2 0.5v1.3q0 0.3 0.2 0.5t0.5 0.2h1.4q0.2 0 0.4-0.2t0.2-0.5z m0-5.4v-1.3q0-0.3-0.2-0.5t-0.4-0.2h-1.4q-0.3 0-0.5 0.2t-0.2 0.5v1.3q0 0.3 0.2 0.5t0.5 0.2h1.4q0.2 0 0.4-0.2t0.2-0.5z m0-5.4v-1.3q0-0.3-0.2-0.5t-0.4-0.2h-1.4q-0.3 0-0.5 0.2t-0.2 0.5v1.3q0 0.3 0.2 0.5t0.5 0.2h1.4q0.2 0 0.4-0.2t0.2-0.5z m5.4 21.6v-1.3q0-0.3-0.2-0.5t-0.4-0.2h-1.4q-0.3 0-0.5 0.2t-0.2 0.5v1.3q0 0.3 0.2 0.5t0.5 0.2h1.4q0.2 0 0.4-0.2t0.2-0.5z m0-5.4v-1.3q0-0.3-0.2-0.5t-0.4-0.2h-1.4q-0.3 0-0.5 0.2t-0.2 0.5v1.3q0 0.3 0.2 0.5t0.5 0.2h1.4q0.2 0 0.4-0.2t0.2-0.5z m0-5.4v-1.3q0-0.3-0.2-0.5t-0.4-0.2h-1.4q-0.3 0-0.5 0.2t-0.2 0.5v1.3q0 0.3 0.2 0.5t0.5 0.2h1.4q0.2 0 0.4-0.2t0.2-0.5z m0-5.4v-1.3q0-0.3-0.2-0.5t-0.4-0.2h-1.4q-0.3 0-0.5 0.2t-0.2 0.5v1.3q0 0.3 0.2 0.5t0.5 0.2h1.4q0.2 0 0.4-0.2t0.2-0.5z m0-5.4v-1.3q0-0.3-0.2-0.5t-0.4-0.2h-1.4q-0.3 0-0.5 0.2t-0.2 0.5v1.3q0 0.3 0.2 0.5t0.5 0.2h1.4q0.2 0 0.4-0.2t0.2-0.5z"></path></svg>