<?xml version="1.0"?><svg xmlns="http://www.w3.org/2000/svg" width="40" height="40" viewBox="0 0 40 40"><path d="m12.857142857142858 29.285714285714285v1.428571428571427q0 0.28999999999999915-0.21142857142857174 0.5028571428571418t-0.5028571428571436 0.21142857142857707h-1.4285714285714288q-0.2900000000000009 0-0.5028571428571436-0.21142857142856997t-0.21142857142856997-0.5028571428571453v-1.428571428571427q0-0.28999999999999915 0.21142857142857174-0.5028571428571418t0.5028571428571436-0.21142857142857352h1.4285714285714288q0.2900000000000009 0 0.5028571428571436 0.21142857142856997t0.21142857142856997 0.5028571428571418z m0-5.714285714285715v1.428571428571427q0 0.28999999999999915-0.21142857142857174 0.5028571428571418t-0.5028571428571436 0.21142857142857707h-1.4285714285714288q-0.2900000000000009 0-0.5028571428571436-0.21142857142856997t-0.21142857142856997-0.5028571428571453v-1.428571428571427q0-0.28999999999999915 0.21142857142857174-0.5028571428571418t0.5028571428571436-0.21142857142857352h1.4285714285714288q0.2900000000000009 0 0.5028571428571436 0.21142857142856997t0.21142857142856997 0.5028571428571453z m5.714285714285715 0v1.428571428571427q0 0.28999999999999915-0.21142857142856997 0.5028571428571418t-0.5028571428571453 0.21142857142857707h-1.428571428571427q-0.28999999999999915 0-0.5028571428571436-0.21142857142856997t-0.21142857142857174-0.5028571428571453v-1.428571428571427q0-0.28999999999999915 0.21142857142857174-0.5028571428571418t0.5028571428571436-0.21142857142857352h1.428571428571427q0.28999999999999915 0 0.5028571428571418 0.21142857142856997t0.21142857142857352 0.5028571428571453z m-5.714285714285715-5.714285714285715v1.428571428571427q0 0.28999999999999915-0.21142857142857174 0.5028571428571418t-0.5028571428571436 0.21142857142857707h-1.4285714285714288q-0.2900000000000009 0-0.5028571428571436-0.21142857142856997t-0.21142857142856997-0.5028571428571453v-1.428571428571427q0-0.28999999999999915 0.21142857142857174-0.5028571428571418t0.5028571428571436-0.21142857142857352h1.4285714285714288q0.2900000000000009 0 0.5028571428571436 0.21142857142856997t0.21142857142856997 0.5028571428571453z m17.142857142857142 11.42857142857143v1.428571428571427q0 0.28999999999999915-0.21142857142856997 0.5028571428571418t-0.5028571428571453 0.21142857142857707h-1.428571428571427q-0.28999999999999915 0-0.5028571428571418-0.21142857142856997t-0.21142857142857352-0.5028571428571453v-1.428571428571427q0-0.28999999999999915 0.21142857142856997-0.5028571428571418t0.5028571428571453-0.21142857142857352h1.428571428571427q0.28999999999999915 0 0.5028571428571418 0.21142857142856997t0.21142857142857352 0.5028571428571418z m-5.714285714285715-5.714285714285715v1.428571428571427q0 0.28999999999999915-0.21142857142856997 0.5028571428571418t-0.5028571428571418 0.21142857142857707h-1.428571428571427q-0.28999999999999915 0-0.5028571428571418-0.21142857142856997t-0.21142857142857352-0.5028571428571453v-1.428571428571427q0-0.28999999999999915 0.21142857142856997-0.5028571428571418t0.5028571428571418-0.21142857142857352h1.428571428571427q0.28999999999999915 0 0.5028571428571418 0.21142857142856997t0.21142857142857352 0.5028571428571453z m-5.714285714285715-5.714285714285715v1.428571428571427q0 0.28999999999999915-0.21142857142856997 0.5028571428571418t-0.5028571428571418 0.21142857142857707h-1.428571428571427q-0.28999999999999915 0-0.5028571428571436-0.21142857142856997t-0.21142857142857174-0.5028571428571453v-1.428571428571427q0-0.28999999999999915 0.21142857142857174-0.5028571428571418t0.5028571428571436-0.21142857142857352h1.428571428571427q0.28999999999999915 0 0.5028571428571418 0.21142857142856997t0.21142857142857352 0.5028571428571453z m-5.714285714285715-5.714285714285715v1.4285714285714288q0 0.2900000000000009-0.21142857142857174 0.5028571428571436t-0.50285714285714 0.2114285714285753h-1.4285714285714288q-0.2900000000000009 0-0.5028571428571436-0.21142857142857174t-0.21142857142856997-0.5028571428571436v-1.4285714285714288q0-0.28999999999999915 0.21142857142857174-0.5028571428571436t0.5028571428571436-0.21142857142856997h1.4285714285714288q0.2900000000000009 0 0.5028571428571436 0.21142857142857174t0.21142857142856997 0.5028571428571418z m17.142857142857142 11.42857142857143v1.428571428571427q0 0.28999999999999915-0.21142857142856997 0.5028571428571418t-0.5028571428571418 0.21142857142857707h-1.428571428571427q-0.28999999999999915 0-0.5028571428571418-0.21142857142856997t-0.21142857142857352-0.5028571428571453v-1.428571428571427q0-0.28999999999999915 0.21142857142856997-0.5028571428571418t0.5028571428571453-0.21142857142857352h1.428571428571427q0.28999999999999915 0 0.5028571428571418 0.21142857142856997t0.21142857142857352 0.5028571428571453z m-5.714285714285715-5.714285714285715v1.428571428571427q0 0.28999999999999915-0.21142857142856997 0.5028571428571418t-0.5028571428571382 0.21142857142857707h-1.428571428571427q-0.28999999999999915 0-0.5028571428571418-0.21142857142856997t-0.21142857142857352-0.5028571428571453v-1.428571428571427q0-0.28999999999999915 0.21142857142856997-0.5028571428571418t0.5028571428571418-0.21142857142857352h1.428571428571427q0.28999999999999915 0 0.5028571428571418 0.21142857142856997t0.21142857142857352 0.5028571428571453z m-5.714285714285715-5.714285714285715v1.4285714285714288q0 0.2900000000000009-0.21142857142856997 0.5028571428571436t-0.5028571428571382 0.2114285714285753h-1.428571428571427q-0.28999999999999915 0-0.5028571428571436-0.21142857142857174t-0.21142857142857174-0.5028571428571436v-1.4285714285714288q0-0.28999999999999915 0.21142857142857174-0.5028571428571436t0.5028571428571436-0.21142857142856997h1.428571428571427q0.28999999999999915 0 0.5028571428571418 0.21142857142857174t0.21142857142857352 0.5028571428571418z m-5.714285714285715-5.714285714285714v1.4285714285714288q0 0.29000000000000004-0.21142857142857174 0.5028571428571427t-0.5028571428571365 0.2114285714285753h-1.4285714285714288q-0.2900000000000009 0-0.5028571428571436-0.21142857142857174t-0.21142857142856997-0.5028571428571418v-1.4285714285714288q0-0.29000000000000004 0.21142857142857174-0.5028571428571427t0.5028571428571436-0.21142857142857174h1.4285714285714288q0.2900000000000009 0 0.5028571428571436 0.21142857142857174t0.21142857142856997 0.5028571428571427z m17.142857142857142 11.42857142857143v1.428571428571427q0 0.28999999999999915-0.21142857142856997 0.5028571428571418t-0.5028571428571382 0.21142857142857707h-1.428571428571427q-0.28999999999999915 0-0.5028571428571418-0.21142857142856997t-0.21142857142857352-0.5028571428571453v-1.428571428571427q0-0.28999999999999915 0.21142857142856997-0.5028571428571418t0.5028571428571453-0.21142857142857352h1.428571428571427q0.28999999999999915 0 0.5028571428571418 0.21142857142856997t0.21142857142857352 0.5028571428571453z m-5.714285714285715-5.714285714285715v1.4285714285714288q0 0.2900000000000009-0.21142857142856997 0.5028571428571436t-0.5028571428571347 0.2114285714285753h-1.428571428571427q-0.28999999999999915 0-0.5028571428571418-0.21142857142857174t-0.21142857142857352-0.5028571428571436v-1.4285714285714288q0-0.28999999999999915 0.21142857142856997-0.5028571428571436t0.5028571428571418-0.21142857142856997h1.428571428571427q0.28999999999999915 0 0.5028571428571418 0.21142857142857174t0.21142857142857352 0.5028571428571418z m-5.714285714285715-5.714285714285714v1.4285714285714288q0 0.29000000000000004-0.21142857142856997 0.5028571428571427t-0.5028571428571347 0.2114285714285753h-1.428571428571427q-0.28999999999999915 0-0.5028571428571436-0.21142857142857174t-0.21142857142857174-0.5028571428571418v-1.4285714285714288q0-0.29000000000000004 0.21142857142857174-0.5028571428571427t0.5028571428571436-0.21142857142857174h1.428571428571427q0.28999999999999915 0 0.5028571428571418 0.21142857142857174t0.21142857142857352 0.5028571428571427z m11.42857142857143 5.714285714285714v1.4285714285714288q0 0.2900000000000009-0.21142857142856997 0.5028571428571436t-0.5028571428571382 0.2114285714285753h-1.428571428571427q-0.28999999999999915 0-0.5028571428571418-0.21142857142857174t-0.21142857142857352-0.5028571428571436v-1.4285714285714288q0-0.28999999999999915 0.21142857142856997-0.5028571428571436t0.5028571428571453-0.21142857142856997h1.428571428571427q0.28999999999999915 0 0.5028571428571418 0.21142857142857174t0.21142857142857352 0.5028571428571418z m-5.714285714285715-5.714285714285714v1.4285714285714288q0 0.29000000000000004-0.21142857142856997 0.5028571428571427t-0.5028571428571347 0.2114285714285753h-1.428571428571427q-0.28999999999999915 0-0.5028571428571418-0.21142857142857174t-0.21142857142857352-0.5028571428571418v-1.4285714285714288q0-0.29000000000000004 0.21142857142856997-0.5028571428571427t0.5028571428571418-0.21142857142857174h1.428571428571427q0.28999999999999915 0 0.5028571428571418 0.21142857142857174t0.21142857142857352 0.5028571428571427z m5.714285714285715 0v1.4285714285714288q0 0.29000000000000004-0.21142857142856997 0.5028571428571427t-0.5028571428571382 0.2114285714285753h-1.428571428571427q-0.28999999999999915 0-0.5028571428571418-0.21142857142857174t-0.21142857142857352-0.5028571428571418v-1.4285714285714288q0-0.29000000000000004 0.21142857142856997-0.5028571428571427t0.5028571428571453-0.21142857142857174h1.428571428571427q0.28999999999999915 0 0.5028571428571418 0.21142857142857174t0.21142857142857352 0.5028571428571427z m-5.714285714285708 30.714285714285722h8.57142857142857v-34.28571428571429h-25.71428571428571v34.285714285714285h8.571428571428573v-5q0-0.28999999999999915 0.21142857142857174-0.5028571428571418t0.5028571428571436-0.21142857142856641h7.142857142857142q0.28999999999999915 0 0.5028571428571418 0.21142857142856997t0.21142857142856997 0.5028571428571453v5z m11.42857142857143-35.714285714285715v37.142857142857146q0 0.5799999999999983-0.42428571428571615 1.0042857142857144t-1.0042857142857144 0.42428571428570905h-28.57142857142857q-0.580000000000001 0-1.0042857142857153-0.42428571428571615t-0.4242857142857144-1.0042857142857144v-37.14285714285714q0-0.5800000000000021 0.4242857142857144-1.0042857142857162t1.0042857142857144-0.4242857142857144h28.57142857142857q0.5799999999999983 0 1.0042857142857144 0.42428571428571427t0.42428571428571615 1.0042857142857144z"></path></svg>