<?xml version="1.0"?><svg viewBox="0 0 40 40" xmlns="http://www.w3.org/2000/svg" height="40" width="40"><path d="m11.7 27.7v1.3q0 0.3-0.2 0.5t-0.4 0.2h-1.4q-0.3 0-0.5-0.2t-0.2-0.5v-1.3q0-0.3 0.2-0.5t0.5-0.2h1.4q0.2 0 0.4 0.2t0.2 0.5z m0-5.4v1.3q0 0.3-0.2 0.5t-0.4 0.2h-1.4q-0.3 0-0.5-0.2t-0.2-0.5v-1.3q0-0.3 0.2-0.5t0.5-0.2h1.4q0.2 0 0.4 0.2t0.2 0.5z m5.4 0v1.3q0 0.3-0.2 0.5t-0.4 0.2h-1.4q-0.3 0-0.5-0.2t-0.2-0.5v-1.3q0-0.3 0.2-0.5t0.5-0.2h1.4q0.2 0 0.4 0.2t0.2 0.5z m-5.4-5.4v1.3q0 0.3-0.2 0.5t-0.4 0.2h-1.4q-0.3 0-0.5-0.2t-0.2-0.5v-1.3q0-0.3 0.2-0.5t0.5-0.2h1.4q0.2 0 0.4 0.2t0.2 0.5z m16.2 10.8v1.3q0 0.3-0.2 0.5t-0.4 0.2h-1.4q-0.3 0-0.5-0.2t-0.2-0.5v-1.3q0-0.3 0.2-0.5t0.5-0.2h1.4q0.2 0 0.4 0.2t0.2 0.5z m-5.4-5.4v1.3q0 0.3-0.2 0.5t-0.4 0.2h-1.4q-0.3 0-0.5-0.2t-0.2-0.5v-1.3q0-0.3 0.2-0.5t0.5-0.2h1.4q0.2 0 0.4 0.2t0.2 0.5z m-5.4-5.4v1.3q0 0.3-0.2 0.5t-0.4 0.2h-1.4q-0.3 0-0.5-0.2t-0.2-0.5v-1.3q0-0.3 0.2-0.5t0.5-0.2h1.4q0.2 0 0.4 0.2t0.2 0.5z m-5.4-5.4v1.3q0 0.3-0.2 0.5t-0.4 0.2h-1.4q-0.3 0-0.5-0.2t-0.2-0.5v-1.3q0-0.3 0.2-0.5t0.5-0.2h1.4q0.2 0 0.4 0.2t0.2 0.5z m16.2 10.8v1.3q0 0.3-0.2 0.5t-0.4 0.2h-1.4q-0.3 0-0.5-0.2t-0.2-0.5v-1.3q0-0.3 0.2-0.5t0.5-0.2h1.4q0.2 0 0.4 0.2t0.2 0.5z m-5.4-5.4v1.3q0 0.3-0.2 0.5t-0.4 0.2h-1.4q-0.3 0-0.5-0.2t-0.2-0.5v-1.3q0-0.3 0.2-0.5t0.5-0.2h1.4q0.2 0 0.4 0.2t0.2 0.5z m-5.4-5.4v1.3q0 0.3-0.2 0.5t-0.4 0.2h-1.4q-0.3 0-0.5-0.2t-0.2-0.5v-1.3q0-0.3 0.2-0.5t0.5-0.2h1.4q0.2 0 0.4 0.2t0.2 0.5z m-5.4-5.4v1.3q0 0.3-0.2 0.5t-0.4 0.2h-1.4q-0.3 0-0.5-0.2t-0.2-0.5v-1.3q0-0.3 0.2-0.5t0.5-0.2h1.4q0.2 0 0.4 0.2t0.2 0.5z m16.2 10.8v1.3q0 0.3-0.2 0.5t-0.4 0.2h-1.4q-0.3 0-0.5-0.2t-0.2-0.5v-1.3q0-0.3 0.2-0.5t0.5-0.2h1.4q0.2 0 0.4 0.2t0.2 0.5z m-5.4-5.4v1.3q0 0.3-0.2 0.5t-0.4 0.2h-1.4q-0.3 0-0.5-0.2t-0.2-0.5v-1.3q0-0.3 0.2-0.5t0.5-0.2h1.4q0.2 0 0.4 0.2t0.2 0.5z m-5.4-5.4v1.3q0 0.3-0.2 0.5t-0.4 0.2h-1.4q-0.3 0-0.5-0.2t-0.2-0.5v-1.3q0-0.3 0.2-0.5t0.5-0.2h1.4q0.2 0 0.4 0.2t0.2 0.5z m10.8 5.4v1.3q0 0.3-0.2 0.5t-0.4 0.2h-1.4q-0.3 0-0.5-0.2t-0.2-0.5v-1.3q0-0.3 0.2-0.5t0.5-0.2h1.4q0.2 0 0.4 0.2t0.2 0.5z m-5.4-5.4v1.3q0 0.3-0.2 0.5t-0.4 0.2h-1.4q-0.3 0-0.5-0.2t-0.2-0.5v-1.3q0-0.3 0.2-0.5t0.5-0.2h1.4q0.2 0 0.4 0.2t0.2 0.5z m5.4 0v1.3q0 0.3-0.2 0.5t-0.4 0.2h-1.4q-0.3 0-0.5-0.2t-0.2-0.5v-1.3q0-0.3 0.2-0.5t0.5-0.2h1.4q0.2 0 0.4 0.2t0.2 0.5z m-5.4 29h8.1v-32.4h-24.3v32.4h8.1v-4.7q0-0.3 0.2-0.5t0.5-0.2h6.8q0.2 0 0.4 0.2t0.2 0.5v4.7z m10.8-33.7v35.1q0 0.5-0.4 0.9t-0.9 0.4h-27q-0.6 0-1-0.4t-0.4-0.9v-35.1q0-0.6 0.4-1t1-0.4h27q0.5 0 0.9 0.4t0.4 1z"></path></svg>