<?xml version="1.0"?><svg xmlns="http://www.w3.org/2000/svg" width="40" height="40" viewBox="0 0 40 40"><path d="m34.285714285714285 0q0.5799999999999983 0 1.0042857142857144 0.42428571428571427t0.42428571428571615 1.0042857142857144v37.142857142857146q0 0.5799999999999983-0.42428571428571615 1.0042857142857144t-1.0042857142857144 0.42428571428570905h-28.57142857142857q-0.580000000000001 0-1.0042857142857153-0.42428571428571615t-0.4242857142857144-1.0042857142857144v-37.14285714285714q0-0.5800000000000021 0.4242857142857144-1.0042857142857162t1.0042857142857144-0.4242857142857144h28.57142857142857z m-18.57142857142857 6.428571428571429v1.4285714285714288q0 0.31428571428571495 0.1999999999999993 0.5142857142857142t0.514285714285716 0.1999999999999993h1.428571428571427q0.31428571428571317 0 0.514285714285716-0.1999999999999993t0.1999999999999993-0.5142857142857142v-1.4285714285714288q0-0.31428571428571406-0.1999999999999993-0.5142857142857142t-0.514285714285716-0.20000000000000018h-1.428571428571427q-0.31428571428571317 0-0.5142857142857142 0.20000000000000018t-0.20000000000000107 0.5142857142857142z m0 5.7142857142857135v1.4285714285714288q0 0.31428571428571495 0.1999999999999993 0.5142857142857142t0.514285714285716 0.1999999999999993h1.428571428571427q0.31428571428571317 0 0.514285714285716-0.1999999999999993t0.1999999999999993-0.5142857142857142v-1.4285714285714288q0-0.31428571428571495-0.1999999999999993-0.5142857142857142t-0.514285714285716-0.1999999999999993h-1.428571428571427q-0.31428571428571317 0-0.5142857142857142 0.1999999999999993t-0.20000000000000107 0.5142857142857142z m0 5.714285714285715v1.428571428571427q0 0.31428571428571317 0.1999999999999993 0.5142857142857125t0.514285714285716 0.1999999999999993h1.428571428571427q0.31428571428571317 0 0.514285714285716-0.1999999999999993t0.1999999999999993-0.5142857142857125v-1.428571428571427q0-0.31428571428571317-0.1999999999999993-0.514285714285716t-0.514285714285716-0.1999999999999993h-1.428571428571427q-0.31428571428571317 0-0.5142857142857142 0.1999999999999993t-0.20000000000000107 0.514285714285716z m0 5.714285714285715v1.428571428571427q0 0.31428571428571317 0.1999999999999993 0.5142857142857125t0.514285714285716 0.1999999999999993h1.428571428571427q0.31428571428571317 0 0.514285714285716-0.1999999999999993t0.1999999999999993-0.5142857142857125v-1.428571428571427q0-0.31428571428571317-0.1999999999999993-0.514285714285716t-0.514285714285716-0.1999999999999993h-1.428571428571427q-0.31428571428571317 0-0.5142857142857142 0.1999999999999993t-0.20000000000000107 0.514285714285716z m-2.8571428571428577 7.142857142857142v-1.428571428571427q0-0.31428571428571317-0.1999999999999993-0.514285714285716t-0.514285714285716-0.1999999999999993h-1.4285714285714288q-0.31428571428571495 0-0.5142857142857142 0.1999999999999993t-0.1999999999999993 0.5142857142857125v1.428571428571427q0 0.31428571428571317 0.1999999999999993 0.514285714285716t0.5142857142857142 0.1999999999999993h1.4285714285714288q0.31428571428571495 0 0.5142857142857142-0.1999999999999993t0.20000000000000107-0.5142857142857125z m0-5.714285714285715v-1.428571428571427q0-0.31428571428571317-0.1999999999999993-0.514285714285716t-0.514285714285716-0.1999999999999993h-1.4285714285714288q-0.31428571428571495 0-0.5142857142857142 0.1999999999999993t-0.1999999999999993 0.514285714285716v1.428571428571427q0 0.31428571428571317 0.1999999999999993 0.5142857142857125t0.5142857142857142 0.1999999999999993h1.4285714285714288q0.31428571428571495 0 0.5142857142857142-0.1999999999999993t0.20000000000000107-0.5142857142857125z m0-5.714285714285715v-1.428571428571427q0-0.31428571428571317-0.1999999999999993-0.514285714285716t-0.514285714285716-0.1999999999999993h-1.4285714285714288q-0.31428571428571495 0-0.5142857142857142 0.1999999999999993t-0.1999999999999993 0.514285714285716v1.428571428571427q0 0.31428571428571317 0.1999999999999993 0.5142857142857125t0.5142857142857142 0.1999999999999993h1.4285714285714288q0.31428571428571495 0 0.5142857142857142-0.1999999999999993t0.20000000000000107-0.5142857142857125z m0-5.714285714285715v-1.4285714285714288q0-0.31428571428571495-0.1999999999999993-0.5142857142857142t-0.514285714285716-0.1999999999999975h-1.4285714285714288q-0.31428571428571495 0-0.5142857142857142 0.1999999999999993t-0.1999999999999993 0.5142857142857142v1.4285714285714288q0 0.31428571428571495 0.1999999999999993 0.5142857142857142t0.5142857142857142 0.1999999999999993h1.4285714285714288q0.31428571428571495 0 0.5142857142857142-0.1999999999999993t0.20000000000000107-0.5142857142857142z m0-5.714285714285714v-1.4285714285714288q0-0.31428571428571406-0.1999999999999993-0.5142857142857142t-0.514285714285716-0.1999999999999975h-1.4285714285714288q-0.31428571428571495 0-0.5142857142857142 0.20000000000000018t-0.1999999999999993 0.5142857142857142v1.4285714285714288q0 0.31428571428571495 0.1999999999999993 0.5142857142857142t0.514285714285716 0.1999999999999993h1.4285714285714288q0.31428571428571495 0 0.5142857142857142-0.1999999999999993t0.1999999999999993-0.5142857142857142z m11.428571428571427 28.571428571428577v-4.285714285714285q0-0.31428571428571317-0.1999999999999993-0.5142857142857125t-0.5142857142857125-0.20000000000000284h-7.142857142857142q-0.31428571428571317 0-0.5142857142857142 0.1999999999999993t-0.20000000000000107 0.514285714285716v4.285714285714285q0 0.3142857142857167 0.1999999999999993 0.5142857142857125t0.514285714285716 0.20000000000000284h7.142857142857142q0.31428571428571317 0 0.514285714285716-0.20000000000000284t0.1999999999999993-0.5142857142857125z m0-11.42857142857143v-1.428571428571427q0-0.31428571428571317-0.1999999999999993-0.514285714285716t-0.5142857142857125-0.1999999999999993h-1.428571428571427q-0.31428571428571317 0-0.5142857142857125 0.1999999999999993t-0.1999999999999993 0.5142857142857125v1.428571428571427q0 0.31428571428571317 0.1999999999999993 0.514285714285716t0.5142857142857125 0.1999999999999993h1.428571428571427q0.31428571428571317 0 0.514285714285716-0.1999999999999993t0.1999999999999993-0.5142857142857125z m0-5.714285714285715v-1.428571428571427q0-0.31428571428571317-0.1999999999999993-0.514285714285716t-0.5142857142857125-0.1999999999999993h-1.428571428571427q-0.31428571428571317 0-0.5142857142857125 0.1999999999999993t-0.1999999999999993 0.5142857142857125v1.428571428571427q0 0.31428571428571317 0.1999999999999993 0.514285714285716t0.5142857142857125 0.1999999999999993h1.428571428571427q0.31428571428571317 0 0.514285714285716-0.1999999999999993t0.1999999999999993-0.5142857142857125z m0-5.714285714285715v-1.4285714285714288q0-0.31428571428571495-0.1999999999999993-0.5142857142857142t-0.5142857142857125-0.1999999999999975h-1.428571428571427q-0.31428571428571317 0-0.5142857142857125 0.1999999999999993t-0.20000000000000284 0.5142857142857142v1.4285714285714288q0 0.31428571428571495 0.1999999999999993 0.5142857142857142t0.514285714285716 0.1999999999999993h1.428571428571427q0.31428571428571317 0 0.514285714285716-0.1999999999999993t0.19999999999999574-0.5142857142857142z m0-5.714285714285714v-1.4285714285714288q0-0.31428571428571406-0.1999999999999993-0.5142857142857142t-0.5142857142857125-0.1999999999999975h-1.428571428571427q-0.31428571428571317 0-0.5142857142857125 0.20000000000000018t-0.20000000000000284 0.5142857142857142v1.4285714285714288q0 0.31428571428571495 0.1999999999999993 0.5142857142857142t0.514285714285716 0.1999999999999993h1.428571428571427q0.31428571428571317 0 0.514285714285716-0.1999999999999993t0.19999999999999574-0.5142857142857142z m5.714285714285715 22.857142857142858v-1.428571428571427q0-0.31428571428571317-0.1999999999999993-0.5142857142857125t-0.514285714285716-0.1999999999999993h-1.428571428571427q-0.31428571428571317 0-0.514285714285716 0.1999999999999993t-0.1999999999999993 0.5142857142857125v1.428571428571427q0 0.31428571428571317 0.1999999999999993 0.514285714285716t0.5142857142857125 0.1999999999999993h1.428571428571427q0.31428571428571317 0 0.514285714285716-0.1999999999999993t0.1999999999999993-0.5142857142857125z m0-5.714285714285715v-1.428571428571427q0-0.31428571428571317-0.1999999999999993-0.5142857142857125t-0.514285714285716-0.1999999999999993h-1.428571428571427q-0.31428571428571317 0-0.514285714285716 0.1999999999999993t-0.1999999999999993 0.5142857142857125v1.428571428571427q0 0.31428571428571317 0.1999999999999993 0.514285714285716t0.5142857142857125 0.1999999999999993h1.428571428571427q0.31428571428571317 0 0.514285714285716-0.1999999999999993t0.1999999999999993-0.5142857142857125z m0-5.714285714285715v-1.428571428571427q0-0.31428571428571317-0.1999999999999993-0.5142857142857125t-0.514285714285716-0.1999999999999993h-1.428571428571427q-0.31428571428571317 0-0.514285714285716 0.1999999999999993t-0.1999999999999993 0.5142857142857125v1.428571428571427q0 0.31428571428571317 0.1999999999999993 0.514285714285716t0.5142857142857125 0.1999999999999993h1.428571428571427q0.31428571428571317 0 0.514285714285716-0.1999999999999993t0.1999999999999993-0.5142857142857125z m0-5.714285714285715v-1.4285714285714288q0-0.31428571428571495-0.1999999999999993-0.5142857142857142t-0.514285714285716-0.19999999999999396h-1.428571428571427q-0.31428571428571317 0-0.514285714285716 0.1999999999999993t-0.1999999999999993 0.5142857142857142v1.4285714285714288q0 0.31428571428571495 0.1999999999999993 0.5142857142857142t0.5142857142857125 0.1999999999999993h1.428571428571427q0.31428571428571317 0 0.514285714285716-0.1999999999999993t0.20000000000000284-0.5142857142857142z m0-5.714285714285714v-1.4285714285714288q0-0.31428571428571406-0.1999999999999993-0.5142857142857142t-0.514285714285716-0.19999999999999396h-1.428571428571427q-0.31428571428571317 0-0.514285714285716 0.20000000000000018t-0.1999999999999993 0.5142857142857142v1.4285714285714288q0 0.31428571428571495 0.1999999999999993 0.5142857142857142t0.5142857142857125 0.1999999999999993h1.428571428571427q0.31428571428571317 0 0.514285714285716-0.1999999999999993t0.20000000000000284-0.5142857142857142z"></path></svg>