<?xml version="1.0"?><svg viewBox="0 0 40 40" xmlns="http://www.w3.org/2000/svg" height="40" width="40"><path d="m25.4 18.9q0 2.2-1.6 3.8t-3.8 1.6-3.8-1.6-1.6-3.8 1.6-3.8 3.8-1.6 3.8 1.6 1.6 3.8z m2.7 0q0-3.4-2.4-5.7t-5.7-2.4-5.7 2.4-2.4 5.7 2.4 5.7 5.7 2.4 5.7-2.4 2.4-5.7z m2.7 0q0 4.5-3.2 7.6t-7.6 3.2-7.6-3.2-3.2-7.6 3.2-7.6 7.6-3.2 7.6 3.2 3.2 7.6z m2.7 0q0-2.7-1.1-5.2t-2.9-4.3-4.3-2.9-5.2-1.1-5.2 1.1-4.3 2.9-2.9 4.3-1.1 5.2 1.1 5.2 2.9 4.3 4.3 2.9 5.2 1.1 5.2-1.1 4.3-2.9 2.9-4.3 1.1-5.2z m2.7 0q0 4.4-2.2 8.1t-5.9 5.9-8.1 2.2-8.1-2.2-5.9-5.9-2.2-8.1 2.2-8.1 5.9-5.9 8.1-2.2 8.1 2.2 5.9 5.9 2.2 8.1z"></path></svg>