<?xml version="1.0"?><svg viewBox="0 0 40 40" xmlns="http://www.w3.org/2000/svg" height="40" width="40"><path d="m16.5 16q1.3 1.3 1.3 3.1t-1.3 3.1q-1.3 1.3-3.2 1.3t-3.1-1.3q-1.3-1.3-1.3-3.1t1.3-3.1q1.3-1.3 3.1-1.3t3.2 1.3z m1.5 7.8q2-1.9 2-4.7t-2-4.7q-1.9-2-4.7-2t-4.7 2q-1.9 1.9-1.9 4.7t1.9 4.7q2 2 4.7 2t4.7-2z m1.6-11q2.6 2.6 2.6 6.3t-2.6 6.3q-2.6 2.6-6.3 2.6t-6.3-2.6q-2.6-2.6-2.6-6.3t2.6-6.3q2.7-2.6 6.3-2.6t6.3 2.6z m4 10.6q0.8-2 0.8-4.3t-0.8-4.3q-0.9-2.1-2.4-3.6t-3.6-2.3q-2-0.9-4.3-0.9t-4.3 0.9q-2 0.9-3.5 2.3t-2.4 3.6q-0.9 2-0.9 4.3t0.9 4.3q0.9 2.1 2.4 3.6t3.5 2.3q2.1 0.9 4.3 0.9t4.3-0.9q2.1-0.9 3.6-2.3t2.4-3.6z m1.3-11q1.8 3.1 1.8 6.7t-1.8 6.7q-1.8 3.1-4.9 4.8t-6.7 1.8q-3.6 0-6.7-1.8t-4.8-4.8q-1.8-3.1-1.8-6.7t1.8-6.7q1.8-3.1 4.8-4.8t6.7-1.8q3.7 0 6.7 1.8t4.9 4.8z"></path></svg>