<?xml version="1.0"?><svg viewBox="0 0 40 40" xmlns="http://www.w3.org/2000/svg" height="40" width="40"><path d="m36.2 13.5q1.1 0 1.9 0.8t0.8 1.9-0.8 1.9-1.9 0.8v8.1q0 1.1-0.8 1.9t-1.9 0.8q-8.8-7.3-17.1-8-1.3 0.4-1.9 1.4t-0.7 2.1 0.8 2q-0.4 0.6-0.4 1.3t0.1 1.3 0.7 1.1 1 1.1 1.3 1q-0.6 1.3-2.4 1.8t-3.5 0.2-2.8-1.1q-0.1-0.5-0.6-1.9t-0.7-2-0.5-1.9-0.3-2.1 0.1-2.1 0.4-2.3h-2.5q-1.4 0-2.4-1t-1-2.4v-4q0-1.4 1-2.4t2.4-1h10.1q9.2 0 18.9-8.1 1.1 0 1.9 0.8t0.8 1.9v8.1z m-2.7 12.7v-20.1q-8.3 6.4-16.2 7.3v5.6q8 0.9 16.2 7.2z"></path></svg>