<svg viewBox="0 0 1536 1896.0833" xmlns="http://www.w3.org/2000/svg"><path d="m384 1216q0-53-37.5-90.5t-90.5-37.5-90.5 37.5-37.5 90.5 37.5 90.5 90.5 37.5 90.5-37.5 37.5-90.5z m1024 0q0-53-37.5-90.5t-90.5-37.5-90.5 37.5-37.5 90.5 37.5 90.5 90.5 37.5 90.5-37.5 37.5-90.5z m-46-396l-72-384q-5-23-22.5-37.5t-40.5-14.5h-918q-23 0-40.5 14.5t-22.5 37.5l-72 384q-5 30 14 53t49 23h1062q30 0 49-23t14-53z m-226-612q0-20-14-34t-34-14h-640q-20 0-34 14t-14 34 14 34 34 14h640q20 0 34-14t14-34z m400 725v603h-128v128q0 53-37.5 90.5t-90.5 37.5-90.5-37.5-37.5-90.5v-128h-768v128q0 53-37.5 90.5t-90.5 37.5-90.5-37.5-37.5-90.5v-128h-128v-603q0-112 25-223l103-454q9-78 97.5-137t230-89 312.5-30 312.5 30 230 89 97.5 137l105 454q23 102 23 223z"/></svg>