<?xml version="1.0"?><svg viewBox="0 0 40 40" xmlns="http://www.w3.org/2000/svg" height="40" width="40"><path d="m11.9 25.7q0-1.2-0.8-2t-1.9-0.7-1.9 0.7-0.8 2 0.8 1.9 1.9 0.8 1.9-0.8 0.8-1.9z m21.6 0q0-1.2-0.8-2t-1.9-0.7-1.9 0.7-0.8 2 0.8 1.9 1.9 0.8 1.9-0.8 0.8-1.9z m-1-8.4l-1.5-8.1q-0.1-0.5-0.5-0.8t-0.8-0.3h-19.4q-0.5 0-0.8 0.3t-0.5 0.8l-1.5 8.1q-0.1 0.6 0.3 1.1t1 0.5h22.4q0.6 0 1-0.5t0.3-1.1z m-4.7-12.9q0-0.4-0.3-0.7t-0.7-0.3h-13.6q-0.4 0-0.7 0.3t-0.3 0.7 0.3 0.7 0.7 0.3h13.6q0.4 0 0.7-0.3t0.3-0.7z m8.4 15.3v12.7h-2.7v2.7q0 1.1-0.8 1.9t-1.9 0.8-1.9-0.8-0.8-1.9v-2.7h-16.2v2.7q0 1.1-0.8 1.9t-1.9 0.8-1.9-0.8-0.8-1.9v-2.7h-2.7v-12.7q0-2.4 0.5-4.7l2.2-9.6q0.2-1.6 2.1-2.9t4.8-1.9 6.6-0.6 6.6 0.6 4.8 1.9 2.1 2.9l2.2 9.6q0.5 2.1 0.5 4.7z"></path></svg>