<?xml version="1.0"?><svg viewBox="0 0 40 40" xmlns="http://www.w3.org/2000/svg" height="40" width="40"><path d="m9.2 32.4q0-1.1-0.8-1.9t-1.9-0.8-1.9 0.8-0.8 1.9 0.8 1.9 1.9 0.8 1.9-0.8 0.8-1.9z m8.1 0q0-1.1-0.8-1.9t-1.9-0.8-1.9 0.8-0.8 1.9 0.8 1.9 1.9 0.8 1.9-0.8 0.8-1.9z m-8.1-8.1q0-1.1-0.8-1.9t-1.9-0.8-1.9 0.8-0.8 1.9 0.8 1.9 1.9 0.8 1.9-0.8 0.8-1.9z m16.2 8.1q0-1.1-0.8-1.9t-1.9-0.8-1.9 0.8-0.8 1.9 0.8 1.9 1.9 0.8 1.9-0.8 0.8-1.9z m-8.1-8.1q0-1.1-0.8-1.9t-1.9-0.8-1.9 0.8-0.8 1.9 0.8 1.9 1.9 0.8 1.9-0.8 0.8-1.9z m-8.1-8.1q0-1.1-0.8-1.9t-1.9-0.8-1.9 0.8-0.8 1.9 0.8 1.9 1.9 0.8 1.9-0.8 0.8-1.9z m16.2 8.1q0-1.1-0.8-1.9t-1.9-0.8-1.9 0.8-0.8 1.9 0.8 1.9 1.9 0.8 1.9-0.8 0.8-1.9z m-8.1-8.1q0-1.1-0.8-1.9t-1.9-0.8-1.9 0.8-0.8 1.9 0.8 1.9 1.9 0.8 1.9-0.8 0.8-1.9z m16.2 16.2v-8.1q0-1.1-0.8-1.9t-1.9-0.8-1.9 0.8-0.8 1.9v8.1q0 1.1 0.8 1.9t1.9 0.8 1.9-0.8 0.8-1.9z m-8.1-16.2q0-1.1-0.8-1.9t-1.9-0.8-1.9 0.8-0.8 1.9 0.8 1.9 1.9 0.8 1.9-0.8 0.8-1.9z m8.1-6.7v-5.4q0-0.6-0.4-1t-0.9-0.4h-27.1q-0.5 0-0.9 0.4t-0.4 1v5.4q0 0.5 0.4 0.9t0.9 0.4h27.1q0.5 0 0.9-0.4t0.4-0.9z m0 6.7q0-1.1-0.8-1.9t-1.9-0.8-1.9 0.8-0.8 1.9 0.8 1.9 1.9 0.8 1.9-0.8 0.8-1.9z m2.7-13.5v32.4q0 1.1-0.8 1.9t-1.9 0.8h-29.7q-1.1 0-1.9-0.8t-0.8-1.9v-32.4q0-1.1 0.8-1.9t1.9-0.8h29.7q1.1 0 1.9 0.8t0.8 1.9z"></path></svg>