<?xml version="1.0"?><svg xmlns="http://www.w3.org/2000/svg" width="40" height="40" viewBox="0 0 40 40"><path d="m10 34.285714285714285q0-1.182857142857145-0.8371428571428563-2.020000000000003t-2.0200000000000005-0.837142857142851-2.0200000000000005 0.8371428571428581-0.8371428571428572 2.019999999999996 0.8371428571428572 2.020000000000003 2.0200000000000005 0.8371428571428581 2.0200000000000005-0.8371428571428581 0.8371428571428563-2.020000000000003z m8.57142857142857 0q0-1.182857142857145-0.8371428571428581-2.020000000000003t-2.019999999999996-0.837142857142851-2.0199999999999996 0.8371428571428581-0.8371428571428581 2.019999999999996 0.8371428571428563 2.020000000000003 2.0200000000000014 0.8371428571428581 2.0199999999999996-0.8371428571428581 0.8371428571428581-2.020000000000003z m-8.571428571428571-8.57142857142857q0-1.1828571428571415-0.8371428571428563-2.0199999999999996t-2.0199999999999987-0.8371428571428581-2.0200000000000005 0.8371428571428581-0.8371428571428572 2.0199999999999996 0.8371428571428572 2.0199999999999996 2.0200000000000005 0.8371428571428581 2.0200000000000005-0.8371428571428581 0.8371428571428563-2.0199999999999996z m17.14285714285714 8.57142857142857q0-1.182857142857145-0.8371428571428581-2.020000000000003t-2.019999999999996-0.837142857142851-2.0199999999999996 0.8371428571428581-0.8371428571428545 2.019999999999996 0.8371428571428581 2.020000000000003 2.019999999999996 0.8371428571428581 2.0199999999999996-0.8371428571428581 0.8371428571428581-2.020000000000003z m-8.57142857142857-8.57142857142857q0-1.1828571428571415-0.8371428571428581-2.0199999999999996t-2.019999999999996-0.8371428571428581-2.0199999999999996 0.8371428571428581-0.8371428571428581 2.0199999999999996 0.8371428571428563 2.0199999999999996 2.0200000000000014 0.8371428571428581 2.0199999999999996-0.8371428571428581 0.8371428571428581-2.0199999999999996z m-8.571428571428571-8.57142857142857q0-1.1828571428571433-0.8371428571428563-2.0199999999999996t-2.0199999999999987-0.8371428571428599-2.0200000000000005 0.8371428571428563-0.8371428571428572 2.0199999999999996 0.8371428571428572 2.0199999999999996 2.0200000000000005 0.8371428571428581 2.0200000000000005-0.8371428571428581 0.8371428571428563-2.0199999999999996z m17.14285714285714 8.57142857142857q0-1.1828571428571415-0.8371428571428581-2.0199999999999996t-2.019999999999996-0.8371428571428581-2.0199999999999996 0.8371428571428581-0.8371428571428545 2.0199999999999996 0.8371428571428581 2.0199999999999996 2.019999999999996 0.8371428571428581 2.0199999999999996-0.8371428571428581 0.8371428571428581-2.0199999999999996z m-8.57142857142857-8.57142857142857q0-1.1828571428571433-0.8371428571428581-2.0199999999999996t-2.019999999999996-0.8371428571428599-2.0199999999999996 0.8371428571428563-0.8371428571428581 2.0199999999999996 0.8371428571428563 2.0199999999999996 2.0200000000000014 0.8371428571428581 2.0199999999999996-0.8371428571428581 0.8371428571428581-2.0199999999999996z m17.14285714285714 17.142857142857146v-8.57142857142857q0-1.1600000000000001-0.8485714285714252-2.008571428571429t-2.008571428571422-0.8485714285714359-2.008571428571429 0.8485714285714288-0.8485714285714323 2.008571428571429v8.57142857142857q0 1.1600000000000037 0.8485714285714288 2.008571428571429t2.0085714285714324 0.8485714285714323 2.008571428571429-0.8485714285714252 0.8485714285714252-2.008571428571436z m-8.57142857142857-17.142857142857142q0-1.1828571428571433-0.8371428571428581-2.0199999999999996t-2.019999999999996-0.8371428571428634-2.0199999999999996 0.8371428571428563-0.8371428571428545 2.0199999999999996 0.8371428571428581 2.0199999999999996 2.019999999999996 0.8371428571428581 2.0199999999999996-0.8371428571428581 0.8371428571428581-2.0199999999999996z m8.57142857142857-7.142857142857142v-5.7142857142857215q0-0.5800000000000001-0.42428571428571615-1.0042857142857144t-1.0042857142857073-0.42428571428571393h-28.57142857142857q-0.580000000000001 0-1.0042857142857153 0.4242857142857144t-0.4242857142857144 1.004285714285714v5.714285714285714q0 0.5800000000000001 0.4242857142857144 1.0042857142857144t1.0042857142857144 0.4242857142857144h28.57142857142857q0.5799999999999983 0 1.0042857142857144-0.4242857142857144t0.42428571428571615-1.0042857142857144z m0 7.142857142857142q0-1.1828571428571433-0.8371428571428581-2.0199999999999996t-2.019999999999989-0.8371428571428634-2.0199999999999996 0.8371428571428563-0.8371428571428616 2.0199999999999996 0.8371428571428581 2.0199999999999996 2.020000000000003 0.8371428571428581 2.020000000000003-0.8371428571428581 0.837142857142851-2.0199999999999996z m2.857142857142854-14.285714285714286v34.285714285714285q0 1.1600000000000037-0.8485714285714252 2.008571428571429t-2.008571428571422 0.8485714285714252h-31.42857142857143q-1.1599999999999993 0-2.0085714285714276-0.8485714285714252t-0.8485714285714285-2.008571428571429v-34.28571428571429q0-1.159999999999997 0.8485714285714285-2.0085714285714253t2.0085714285714285-0.8485714285714288h31.42857142857143q1.1600000000000037 0 2.008571428571429 0.8485714285714285t0.8485714285714252 2.008571428571429z"></path></svg>