<?xml version="1.0"?><svg viewBox="0 0 40 40" xmlns="http://www.w3.org/2000/svg" height="40" width="40"><path d="m5.1 35.1h6v-6.1h-6v6.1z m7.4 0h6.7v-6.1h-6.7v6.1z m-7.4-7.4h6v-6.8h-6v6.8z m7.4 0h6.7v-6.8h-6.7v6.8z m-7.4-8.1h6v-6.1h-6v6.1z m15.5 15.5h6.7v-6.1h-6.7v6.1z m-8.1-15.5h6.7v-6.1h-6.7v6.1z m16.2 15.5h6.1v-6.1h-6.1v6.1z m-8.1-7.4h6.7v-6.8h-6.7v6.8z m-7.4-18.2v-6.1q0-0.3-0.2-0.5t-0.5-0.2h-1.4q-0.2 0-0.4 0.2t-0.2 0.5v6.1q0 0.2 0.2 0.4t0.4 0.2h1.4q0.3 0 0.5-0.2t0.2-0.4z m15.5 18.2h6.1v-6.8h-6.1v6.8z m-8.1-8.1h6.7v-6.1h-6.7v6.1z m8.1 0h6.1v-6.1h-6.1v6.1z m0.7-10.1v-6.1q0-0.3-0.2-0.5t-0.5-0.2h-1.4q-0.2 0-0.4 0.2t-0.2 0.5v6.1q0 0.2 0.2 0.4t0.4 0.2h1.4q0.3 0 0.5-0.2t0.2-0.4z m8.1-1.4v27q0 1.1-0.8 1.9t-1.9 0.8h-29.7q-1.1 0-1.9-0.8t-0.8-1.9v-27q0-1.1 0.8-1.9t1.9-0.8h2.7v-2q0-1.4 1-2.4t2.3-1h1.4q1.4 0 2.4 1t1 2.4v2h8.1v-2q0-1.4 1-2.4t2.3-1h1.4q1.4 0 2.4 1t1 2.4v2h2.7q1.1 0 1.9 0.8t0.8 1.9z"></path></svg>