<?xml version="1.0"?><svg xmlns="http://www.w3.org/2000/svg" width="40" height="40" viewBox="0 0 40 40"><path d="m35.714285714285715 5.714285714285714q1.1600000000000037 0 2.008571428571429 0.8485714285714288t0.8485714285714252 2.008571428571428v28.571428571428577q0 1.1600000000000037-0.8485714285714252 2.008571428571429t-2.008571428571429 0.8485714285714252h-31.42857142857143q-1.1599999999999993 0-2.0085714285714276-0.8485714285714252t-0.8485714285714285-2.008571428571429v-28.571428571428577q0-1.1599999999999984 0.8485714285714285-2.008571428571427t2.0085714285714285-0.8485714285714279h2.8571428571428568v-2.142857142857143q0-1.4714285714285715 1.048571428571428-2.522857142857143t2.522857142857145-1.0485714285714285h1.4285714285714288q1.4714285714285715 0 2.522857142857143 1.0485714285714285t1.048571428571428 2.522857142857143v2.142857142857143h8.57142857142857v-2.142857142857143q0-1.4714285714285715 1.048571428571428-2.522857142857143t2.522857142857145-1.0485714285714285h1.428571428571427q1.4714285714285715 0 2.5228571428571414 1.0485714285714285t1.0485714285714351 2.522857142857143v2.142857142857143h2.857142857142854z m-8.57142857142857-2.142857142857143v6.428571428571429q0 0.31428571428571495 0.1999999999999993 0.5142857142857142t0.514285714285716 0.1999999999999993h1.428571428571427q0.31428571428571317 0 0.514285714285716-0.1999999999999993t0.19999999999999574-0.5142857142857142v-6.428571428571429q0-0.31428571428571406-0.1999999999999993-0.5142857142857138t-0.514285714285716-0.20000000000000018h-1.428571428571427q-0.31428571428571317 0-0.514285714285716 0.20000000000000018t-0.1999999999999993 0.5142857142857142z m-17.142857142857142 0v6.428571428571429q0 0.31428571428571495 0.1999999999999993 0.5142857142857142t0.5142857142857142 0.1999999999999993h1.4285714285714288q0.31428571428571495 0 0.5142857142857142-0.1999999999999993t0.1999999999999975-0.5142857142857142v-6.428571428571429q0-0.31428571428571406-0.1999999999999993-0.5142857142857138t-0.514285714285716-0.20000000000000018h-1.4285714285714288q-0.31428571428571495 0-0.5142857142857142 0.20000000000000018t-0.1999999999999993 0.5142857142857142z m25.71428571428571 33.57142857142858v-22.85714285714286h-31.42857142857143v22.85714285714286h31.42857142857143z m-14.285714285714285-12.857142857142858h5q0.31428571428571317 0 0.5142857142857125 0.1999999999999993t0.1999999999999993 0.5142857142857125v1.428571428571427q0 0.31428571428571317-0.1999999999999993 0.514285714285716t-0.5142857142857125 0.1999999999999993h-5v4.9999999999999964q0 0.3142857142857167-0.1999999999999993 0.5142857142857125t-0.514285714285716 0.20000000000000284h-1.428571428571427q-0.31428571428571317 0-0.514285714285716-0.20000000000000284t-0.1999999999999993-0.5142857142857054v-5.0000000000000036h-5.000000000000002q-0.31428571428571495 0-0.5142857142857142-0.1999999999999993t-0.1999999999999993-0.5142857142857125v-1.428571428571427q0-0.31428571428571317 0.1999999999999993-0.514285714285716t0.5142857142857142-0.20000000000000284h5.000000000000002v-5q0-0.31428571428571317 0.1999999999999993-0.5142857142857125t0.5142857142857125-0.1999999999999993h1.428571428571427q0.31428571428571317 0 0.514285714285716 0.1999999999999993t0.1999999999999993 0.5142857142857125v5z"></path></svg>