<?xml version="1.0"?><svg xmlns="http://www.w3.org/2000/svg" width="40" height="40" viewBox="0 0 40 40"><path d="m4.285714285714286 37.142857142857146h6.42857142857143v-6.428571428571431h-6.42857142857143v6.428571428571431z m7.857142857142857 0h7.142857142857142v-6.428571428571431h-7.142857142857142v6.428571428571431z m-7.857142857142857-7.857142857142861h6.42857142857143v-7.142857142857142h-6.42857142857143v7.142857142857142z m7.857142857142857 0h7.142857142857142v-7.142857142857142h-7.142857142857142v7.142857142857142z m-7.857142857142858-8.57142857142857h6.428571428571429v-6.428571428571429h-6.428571428571428v6.428571428571429z m16.42857142857143 16.42857142857143h7.142857142857142v-6.428571428571431h-7.142857142857142v6.428571428571431z m-8.571428571428571-16.42857142857143h7.142857142857144v-6.428571428571429h-7.142857142857142v6.428571428571429z m17.14285714285714 16.42857142857143h6.428571428571431v-6.428571428571431h-6.428571428571431v6.428571428571431z m-8.57142857142857-7.857142857142858h7.142857142857142v-7.142857142857142h-7.142857142857142v7.142857142857142z m-7.857142857142858-19.28571428571429v-6.428571428571429q0-0.2899999999999996-0.21142857142857174-0.5028571428571427t-0.5028571428571436-0.2114285714285713h-1.4285714285714288q-0.2900000000000009 0-0.5028571428571436 0.2114285714285713t-0.21142857142856997 0.5028571428571431v6.428571428571429q0 0.28999999999999915 0.21142857142857174 0.5028571428571436t0.5028571428571436 0.21142857142857174h1.4285714285714288q0.2900000000000009 0 0.5028571428571436-0.21142857142857174t0.21142857142856997-0.5028571428571436z m16.42857142857143 19.285714285714285h6.428571428571427v-7.142857142857142h-6.428571428571431v7.142857142857142z m-8.571428571428573-8.57142857142857h7.142857142857142v-6.428571428571429h-7.142857142857142v6.428571428571429z m8.57142857142857 0h6.428571428571431v-6.428571428571429h-6.428571428571431v6.428571428571429z m0.7142857142857153-10.714285714285715v-6.428571428571429q0-0.2899999999999996-0.21142857142856997-0.5028571428571427t-0.5028571428571453-0.2114285714285713h-1.428571428571427q-0.28999999999999915 0-0.5028571428571418 0.2114285714285713t-0.21142857142857352 0.5028571428571431v6.428571428571429q0 0.28999999999999915 0.21142857142856997 0.5028571428571436t0.5028571428571418 0.21142857142857174h1.428571428571427q0.28999999999999915 0 0.5028571428571418-0.21142857142857174t0.21142857142857707-0.5028571428571436z m8.57142857142857-1.4285714285714288v28.571428571428577q0 1.1600000000000037-0.8485714285714252 2.008571428571429t-2.008571428571429 0.8485714285714252h-31.42857142857143q-1.1599999999999993 0-2.0085714285714276-0.8485714285714252t-0.8485714285714285-2.008571428571429v-28.571428571428577q0-1.1599999999999984 0.8485714285714285-2.008571428571427t2.0085714285714285-0.8485714285714279h2.8571428571428568v-2.142857142857143q0-1.4714285714285715 1.048571428571428-2.522857142857143t2.522857142857145-1.0485714285714285h1.4285714285714288q1.4714285714285715 0 2.522857142857143 1.0485714285714285t1.048571428571428 2.522857142857143v2.142857142857143h8.57142857142857v-2.142857142857143q0-1.4714285714285715 1.048571428571428-2.522857142857143t2.522857142857145-1.0485714285714285h1.428571428571427q1.4714285714285715 0 2.5228571428571414 1.0485714285714285t1.0485714285714351 2.522857142857143v2.142857142857143h2.857142857142854q1.1600000000000037 0 2.008571428571429 0.8485714285714288t0.8485714285714252 2.008571428571428z"></path></svg>