<?xml version="1.0"?><svg viewBox="0 0 40 40" xmlns="http://www.w3.org/2000/svg" height="40" width="40"><path d="m7.5 24.4q0.8000000000000007-0.8000000000000007 0.8000000000000007-2t-0.7999999999999998-1.8999999999999986q-0.7999999999999998-0.8000000000000007-1.8999999999999995-0.8000000000000007t-2 0.8000000000000007q-0.7999999999999998 0.8000000000000007-0.7999999999999998 1.8999999999999986t0.7999999999999998 2q0.7999999999999998 0.8000000000000007 2 0.8000000000000007t1.9000000000000004-0.8000000000000007z m1.5-7.5h17.6l-1.5-6.199999999999999q-0.10000000000000142-0.1999999999999993-0.3000000000000007-0.3000000000000007t-0.3999999999999986-0.1999999999999993h-13.300000000000002q-0.09999999999999964 0-0.40000000000000036 0.1999999999999993t-0.1999999999999993 0.3000000000000007l-1.5 6.199999999999999z m23 7.5q0.7999999999999972-0.8000000000000007 0.7999999999999972-2t-0.8000000000000007-1.8999999999999986q-0.8999999999999986-0.8000000000000007-2-0.8000000000000007t-2 0.8000000000000007q-0.8000000000000007 0.8000000000000007-0.8000000000000007 1.8999999999999986t0.8000000000000007 2q0.8999999999999986 0.8000000000000007 2 0.8000000000000007t2-0.8000000000000007z m3.6000000000000014-3.6000000000000014v6.600000000000001q0 0.3000000000000007-0.20000000000000284 0.3999999999999986t-0.3999999999999986 0.1999999999999993h-1.7000000000000028v2.1999999999999993q0 1.3999999999999986-0.8999999999999986 2.3999999999999986t-2.3999999999999986 0.8999999999999986q-1.3999999999999986 0-2.3999999999999986-0.8999999999999986t-0.8999999999999986-2.3999999999999986v-2.1999999999999957h-17.800000000000004v2.1999999999999993q1.7763568394002505e-15 1.3999999999999986-0.9999999999999982 2.400000000000002t-2.3 0.8999999999999986q-1.3999999999999995 0-2.4-0.8999999999999986t-1-2.3999999999999986v-2.200000000000003h-1.6000000000000005q-0.3000000000000001 0-0.40000000000000013-0.1999999999999993t-0.2-0.3999999999999986v-6.599999999999998q0-1.6999999999999993 1.1-2.8000000000000007t2.8-1.1000000000000014h0.5000000000000004l1.7999999999999998-7.300000000000001q0.39999999999999947-1.6000000000000014 1.7999999999999998-2.700000000000001t3.0999999999999996-1.0999999999999996h13.299999999999999q1.6999999999999993 0 3.1999999999999993 1.0999999999999996t1.8000000000000007 2.700000000000001l1.8000000000000007 7.300000000000001h0.5q1.5999999999999979 0 2.6999999999999993 1.1000000000000014t1.2000000000000028 2.8000000000000007z"></path></svg>