<?xml version="1.0"?><svg xmlns="http://www.w3.org/2000/svg" width="40" height="40" viewBox="0 0 40 40"><path d="m25.714285714285715 12.857142857142858v14.285714285714288q0 0.5799999999999983-0.4242857142857126 1.0042857142857144t-1.004285714285718 0.4242857142857126q-0.4471428571428575 0-0.8257142857142838-0.2671428571428578l-10-7.142857142857142q-0.6028571428571432-0.42428571428571615-0.6028571428571432-1.1614285714285728t0.6028571428571432-1.1571428571428584l10-7.142857142857142q0.38000000000000256-0.27142857142857046 0.8257142857142838-0.27142857142857046 0.5799999999999983 0 1.0042857142857144 0.4242857142857144t0.42428571428571615 1.0042857142857144z m5.714285714285715 17.857142857142858v-21.42857142857143q0-0.28999999999999915-0.21142857142856997-0.5028571428571436t-0.5028571428571453-0.21142857142856997h-21.42857142857143q-0.28999999999999915 0-0.5028571428571436 0.21142857142857174t-0.21142857142856997 0.5028571428571436v21.42857142857143q0 0.28999999999999915 0.21142857142857174 0.5028571428571418t0.5028571428571436 0.21142857142857352h21.42857142857143q0.28999999999999915 0 0.5028571428571418-0.21142857142856997t0.21142857142857352-0.5028571428571453z m5.714285714285715-21.42857142857143v21.42857142857143q0 2.6571428571428584-1.8857142857142861 4.5428571428571445t-4.5428571428571445 1.8857142857142861h-21.42857142857143q-2.6571428571428575 0-4.542857142857144-1.8857142857142861t-1.885714285714284-4.5428571428571445v-21.42857142857143q0-2.6571428571428575 1.8857142857142857-4.542857142857144t4.542857142857144-1.885714285714284h21.42857142857143q2.6571428571428584 0 4.5428571428571445 1.8857142857142857t1.8857142857142861 4.542857142857144z"></path></svg>