<?xml version="1.0"?><svg viewBox="0 0 40 40" xmlns="http://www.w3.org/2000/svg" height="40" width="40"><path d="m17.8 13.5v11.2q0 0.4-0.4 0.7t-0.7 0.4q-0.4 0-0.7-0.2l-7.8-5.6q-0.4-0.3-0.4-0.9t0.4-0.9l7.8-5.6q0.3-0.2 0.7-0.2 0.4 0 0.7 0.4t0.4 0.7z m4.4 13.9v-16.6q0-0.3-0.1-0.4t-0.4-0.2h-16.7q-0.2 0-0.4 0.2t-0.2 0.4v16.6q0 0.3 0.2 0.4t0.4 0.2h16.7q0.2 0 0.4-0.2t0.1-0.4z m4.5-16.6v16.6q0 2.1-1.5 3.6t-3.5 1.4h-16.7q-2.1 0-3.5-1.4t-1.5-3.6v-16.6q0-2.1 1.5-3.6t3.5-1.4h16.7q2 0 3.5 1.4t1.5 3.6z"></path></svg>