<?xml version="1.0"?><svg xmlns="http://www.w3.org/2000/svg" width="40" height="40" viewBox="0 0 40 40"><path d="m28.414285714285715 24.93285714285714q-0.37714285714285367 0.7814285714285738-1.2714285714285722 0.7814285714285738h-14.285714285714285q-0.8928571428571423 0-1.2714285714285722-0.7814285714285703-0.40285714285714214-0.7814285714285703 0.10999999999999943-1.4714285714285715l7.142857142857142-10q0.42428571428571615-0.6042857142857159 1.1614285714285728-0.6042857142857159t1.1571428571428584 0.6028571428571432l7.142857142857142 10q0.514285714285716 0.6914285714285704 0.11428571428571388 1.4714285714285715z m3.014285714285716 5.781428571428574v-21.42857142857143q0-0.28999999999999915-0.21142857142856997-0.5028571428571436t-0.5028571428571453-0.21142857142856997h-21.42857142857143q-0.28999999999999915 0-0.5028571428571436 0.21142857142857174t-0.21142857142856997 0.5028571428571436v21.42857142857143q0 0.28999999999999915 0.21142857142857174 0.5028571428571418t0.5028571428571436 0.21142857142857352h21.42857142857143q0.28999999999999915 0 0.5028571428571418-0.21142857142856997t0.21142857142857352-0.5028571428571453z m5.714285714285715-21.42857142857143v21.42857142857143q0 2.6571428571428584-1.8857142857142861 4.5428571428571445t-4.5428571428571445 1.8857142857142861h-21.42857142857143q-2.6571428571428575 0-4.542857142857144-1.8857142857142861t-1.885714285714284-4.5428571428571445v-21.42857142857143q0-2.6571428571428575 1.8857142857142857-4.542857142857144t4.542857142857144-1.885714285714284h21.42857142857143q2.6571428571428584 0 4.5428571428571445 1.8857142857142857t1.8857142857142861 4.542857142857144z"></path></svg>