<?xml version="1.0"?><svg viewBox="0 0 40 40" xmlns="http://www.w3.org/2000/svg" height="40" width="40"><path d="m20.8 16.5q0.3-0.3 0.3-0.7t-0.3-0.8q-0.3-0.3-0.8-0.3h-2.2v-2.3q0-0.4-0.4-0.8t-0.7-0.3q-0.5 0-0.8 0.3t-0.3 0.8v2.3h-2.3q-0.4 0-0.7 0.3t-0.4 0.8q0 0.4 0.4 0.7t0.7 0.4h2.3v2.2q0 0.4 0.3 0.8t0.8 0.3q0.4 0 0.7-0.3t0.4-0.8v-2.2h2.2q0.5 0 0.8-0.4z m-10.3 12.1q0.6 0.7 0.6 1.6t-0.6 1.6q-0.7 0.6-1.6 0.6t-1.6-0.6q-0.6-0.7-0.6-1.6t0.6-1.6q0.7-0.6 1.6-0.6t1.6 0.6z m15.5 0q0.7 0.7 0.7 1.6t-0.7 1.6q-0.6 0.6-1.6 0.6t-1.5-0.6q-0.7-0.7-0.7-1.6t0.7-1.6q0.6-0.6 1.5-0.6t1.6 0.6z m2.9-17.3v8.9q0 0.4-0.3 0.7t-0.7 0.4l-18.1 2.1q0 0.2 0.1 0.4t0.1 0.5q0 0.2 0 0.4 0 0.2-0.4 1.1h16q0.4 0 0.7 0.3t0.4 0.8q0 0.4-0.4 0.8t-0.7 0.3h-17.8q-0.5 0-0.8-0.3t-0.3-0.8q0-0.3 0.2-0.7t0.5-1q0.3-0.6 0.3-0.7l-3-14.3h-3.6q-0.4 0-0.8-0.3t-0.3-0.8q0-0.5 0.3-0.8t0.8-0.3h4.5q0.2 0 0.5 0.1t0.3 0.3q0.1 0.1 0.2 0.4t0.2 0.5q0 0.1 0 0.5t0.1 0.4h20.9q0.4 0 0.8 0.3t0.3 0.8z"></path></svg>