<?xml version="1.0"?><svg xmlns="http://www.w3.org/2000/svg" width="40" height="40" viewBox="0 0 40 40"><path d="m30 15.714285714285715q0-0.5800000000000001-0.4242857142857126-1.0042857142857144t-1.0042857142857144-0.4242857142857144-1.0042857142857144 0.4242857142857144l-3.281428571428574 3.2571428571428562v-6.538571428571428q0-0.5800000000000001-0.4242857142857126-1.0042857142857144t-1.0042857142857144-0.4242857142857144-1.0042857142857144 0.4242857142857144-0.4242857142857126 1.0042857142857144v6.540000000000001l-3.2814285714285703-3.2571428571428562q-0.42428571428571615-0.42571428571428704-1.004285714285718-0.42571428571428704t-1.0042857142857144 0.4242857142857144-0.4242857142857126 1.0042857142857144 0.4242857142857126 1.0042857142857144l5.714285714285715 5.714285714285715q0.4242857142857126 0.4242857142857126 1.0042857142857144 0.4242857142857126t1.0042857142857144-0.4242857142857126l5.714285714285715-5.714285714285715q0.4242857142857126-0.4242857142857126 0.4242857142857126-1.0042857142857144z m-14.285714285714285 18.57142857142857q0 1.182857142857145-0.8371428571428563 2.020000000000003t-2.0200000000000014 0.8371428571428581-2.0199999999999996-0.8371428571428581-0.8371428571428581-2.020000000000003 0.8371428571428563-2.020000000000003 2.0200000000000014-0.837142857142851 2.0199999999999996 0.8371428571428581 0.8371428571428581 2.019999999999996z m20 0q0 1.182857142857145-0.8371428571428581 2.020000000000003t-2.019999999999996 0.8371428571428581-2.0199999999999996-0.8371428571428581-0.8371428571428616-2.020000000000003 0.8371428571428581-2.020000000000003 2.020000000000003-0.837142857142851 2.020000000000003 0.8371428571428581 0.837142857142851 2.019999999999996z m2.857142857142854-24.285714285714285v11.42857142857143q0 0.5357142857142847-0.3571428571428541 0.9485714285714302t-0.914285714285711 0.4800000000000004l-23.30571428571429 2.722857142857137q0.02285714285714313 0.15714285714285836 0.09999999999999964 0.4800000000000004t0.13428571428571345 0.5914285714285725 0.05714285714286049 0.4914285714285711q0 0.35714285714285765-0.5357142857142865 1.428571428571427h20.535714285714285q0.5799999999999983 0 1.0042857142857144 0.4242857142857126t0.42428571428571615 1.004285714285718-0.42428571428571615 1.0042857142857144-1.0042857142857144 0.42428571428571615h-22.857142857142854q-0.5800000000000018 0-1.0042857142857162-0.4242857142857126t-0.4242857142857144-1.004285714285718q0-0.31428571428571317 0.24571428571428555-0.8814285714285717t0.6571428571428566-1.3285714285714292 0.4571428571428573-0.8485714285714288l-3.9485714285714284-18.369999999999997h-4.554285714285713q-0.5800000000000005-1.7763568394002505e-15-1.0042857142857147-0.42428571428571615t-0.4242857142857144-1.0042857142857136 0.42428571428571416-1.0042857142857144 1.0042857142857144-0.4242857142857144h5.7142857142857135q0.35714285714285765 0 0.6357142857142861 0.1457142857142859t0.4471428571428575 0.3457142857142861 0.2900000000000009 0.5471428571428572 0.16857142857142904 0.5914285714285716 0.12285714285714278 0.6599999999999993 0.09999999999999964 0.5685714285714294h26.807142857142857q0.5799999999999983 0 1.0042857142857144 0.4242857142857144t0.42428571428570905 1.0028571428571418z"></path></svg>