<?xml version="1.0"?><svg viewBox="0 0 40 40" xmlns="http://www.w3.org/2000/svg" height="40" width="40"><path d="m2.1 15.4h1.5l-0.8-1.9-0.7 1.9z m10.7 9.1l1.3-1.4-1.2-1.3h-2.8v0.8h2.5v1h-2.5v0.9h2.7z m2.8-1.3l1.7 1.9v-3.8l-1.7 1.9z m5-0.9q0-0.5-0.7-0.5h-1.5v1.2h1.5q0.7 0 0.7-0.7z m5 0q0-0.5-0.7-0.5h-1.4v1h1.4q0.7 0 0.7-0.5z m-4.8-8.1q0-0.5-0.7-0.5h-1.5v1h1.4q0.8 0 0.8-0.5z m8 1.2h1.5l-0.8-1.9-0.7 1.9z m-16.7-2.7v4.7h-1.1v-3.7l-1.6 3.7h-1l-1.7-3.7v3.7h-2.3l-0.4-1h-2.3l-0.5 1h-1.2l2-4.7h1.7l1.9 4.5v-4.5h1.8l1.5 3.2 1.4-3.2h1.8z m9.7 9.6q0 0.4-0.1 0.7t-0.3 0.4q-0.1 0.2-0.3 0.3t-0.5 0.1q-0.2 0.1-0.5 0.1t-0.6 0q-0.2 0-0.6 0t-0.5 0v1.6h-2.1l-1.4-1.6-1.5 1.6h-4.4v-4.7h4.5l1.4 1.5 1.4-1.5h3.6q1.9 0 1.9 1.5z m-5.1-5.9v1h-3.7v-4.7h3.7v1h-2.6v0.8h2.6v1h-2.6v0.9h2.6z m23.3 9.7v4q0 1-0.7 1.6t-1.6 0.7h-35.4q-1 0-1.6-0.7t-0.7-1.6v-11.8h1.9l0.5-1h0.9l0.5 1h3.7v-0.8l0.4 0.8h1.9l0.4-0.8v0.8h9.4v-1.7l0.1 0q0.2 0 0.2 0.2v1.5h4.9v-0.4q0.4 0.2 0.9 0.3t0.9 0.2q0.4 0 1.1-0.1t0.9 0l0.4-1h1l0.5 1h3.9v-1l0.6 1h3.1v-6.5h-3.1v0.7l-0.4-0.7h-3.2v0.7l-0.4-0.7h-4.4q-1.1 0-1.8 0.4v-0.4h-3v0.4q-0.4-0.4-1.3-0.4h-10.9l-0.7 1.7-0.8-1.7h-3.4v0.7l-0.4-0.7h-2.9l-1.4 3.1v-6.8q0-1 0.7-1.7t1.6-0.6h35.4q1 0 1.6 0.6t0.7 1.7v11.8h-2.1q-0.9 0-1.4 0.3v-0.3h-3.1q-0.9 0-1.3 0.3v-0.3h-5.5v0.3q-0.5-0.3-1.5-0.3h-3.6v0.3q-0.4-0.3-1.6-0.3h-4.1l-0.9 1-0.9-1h-6v6.5h5.9l1-1 0.9 1h3.6v-1.5h0.4q1 0 1.6-0.2v1.7h3v-1.7h0.1q0.2 0 0.2 0t0 0.2v1.5h9.2q1 0 1.5-0.4v0.4h3q1 0 1.6-0.3z m-13.2-4q0 0.4-0.2 0.7t-0.6 0.5q0.5 0.2 0.6 0.5t0.2 0.8v0.9h-1.1v-0.8q0-0.6-0.2-0.7t-0.8-0.2h-1.2v1.7h-1.2v-4.7h2.7q0.8 0 1.3 0.3t0.5 1z m-4.8-8.1q0 0.4-0.2 0.7t-0.6 0.5q0.5 0.2 0.6 0.5t0.2 0.8v0.9h-1.1q0-0.2 0-0.5t0-0.4q0-0.1-0.1-0.3t-0.1-0.3q-0.1-0.1-0.3-0.1t-0.6-0.1h-1.2v1.7h-1.1v-4.7l2.7 0q0.8 0 1.3 0.3t0.5 1z m9.2 10.5v1h-3.7v-4.7h3.7v1h-2.6v0.8h2.6v1h-2.6v0.9l2.6 0z m-7.4-11.8v4.7h-1.1v-4.7h1.1z m12.1 11.3q0 1.5-1.8 1.5h-2.2v-1h2.2q0.6 0 0.6-0.4 0-0.3-0.3-0.4t-0.7-0.1q-0.5 0-0.9-0.1t-0.7-0.3q-0.3-0.4-0.3-1 0-0.7 0.4-1t1.2-0.4h2.2v1h-2q-0.7 0-0.7 0.4 0 0.3 0.3 0.4t0.8 0q0.4 0 0.8 0.1t0.7 0.4q0.4 0.3 0.4 0.9z m4.1-0.9v1.8q-0.4 0.6-1.5 0.6h-2.2v-1h2.2q0.5 0 0.5-0.4 0-0.3-0.2-0.4t-0.5-0.1q-0.3 0-0.7 0t-0.7-0.1q-0.3-0.1-0.5-0.5t-0.3-0.8q0-0.7 0.5-1t1.2-0.4h2.2v1h-2q-0.7 0-0.7 0.4 0 0.4 0.5 0.4t1.2 0.1q0.7 0 1 0.4z m-2.9-10.4v4.7h-1.6l-2.1-3.5v3.5h-2.3l-0.4-1h-2.3l-0.5 1h-1.3q-2.2 0-2.2-2.3 0-2.4 2.3-2.4h1.1v1q-0.1 0-0.5 0t-0.5 0q-0.1 0-0.4 0t-0.4 0.1q-0.1 0.1-0.2 0.3t-0.2 0.4q-0.1 0.2-0.1 0.6 0 0.6 0.3 1t0.8 0.3h0.5l1.6-3.7h1.7l1.9 4.5v-4.5h1.7l2 3.3v-3.3h1.1z"></path></svg>