<?xml version="1.0"?><svg xmlns="http://www.w3.org/2000/svg" width="40" height="40" viewBox="0 0 40 40"><path d="m2.066666666666667 16.284444444444446h1.5444444444444447l-0.7811111111111111-1.873333333333333z m10.780000000000001 9.133333333333333l1.2844444444444445-1.3722222222222236-1.2155555555555555-1.370000000000001h-2.83v0.8511111111111127h2.466666666666667v0.9555555555555557h-2.466666666666667v0.9366666666666674h2.76z m2.7444444444444454-1.3555555555555543l1.717777777777778 1.9111111111111114v-3.7688888888888883z m4.999999999999998-0.8155555555555551q0-0.5733333333333341-0.6955555555555542-0.5733333333333341h-1.4588888888888896v1.1977777777777767h1.4411111111111126q0.7111111111111121 0 0.7111111111111121-0.6244444444444461z m5.016666666666666-0.07000000000000028q0-0.5044444444444451-0.7288888888888891-0.5044444444444451h-1.4222222222222207v1.0588888888888874h1.4066666666666663q0.7466666666666661 0 0.7466666666666661-0.5555555555555571z m-4.826666666666668-8.091111111111111q0-0.5033333333333339-0.7288888888888891-0.5033333333333339h-1.4222222222222207v1.0422222222222217h1.405555555555555q0.7466666666666661 0 0.7466666666666661-0.5377777777777784z m7.968888888888891 1.1977777777777767h1.5444444444444443l-0.7611111111111128-1.8722222222222218z m-16.614444444444445-2.6900000000000013v4.704444444444444h-1.1444444444444422v-3.681111111111111l-1.6333333333333329 3.681111111111111h-0.9888888888888889l-1.635555555555558-3.681111111111111v3.681111111111111h-2.2888888888888888l-0.43555555555555525-1.0422222222222217h-2.3444444444444446l-0.43333333333333335 1.0422222222222217h-1.215555555555556l2.014444444444445-4.704444444444444h1.666666666666667l1.9111111111111114 4.462222222222223v-4.462222222222223h1.836666666666666l1.4777777777777779 3.195555555555554 1.3366666666666678-3.195555555555556h1.8744444444444444z m9.652222222222221 9.653333333333336q0 0.34777777777777885-0.09666666666666757 0.6077777777777769t-0.24444444444444358 0.43333333333333357-0.3888888888888893 0.2866666666666653-0.45222222222222186 0.173333333333332-0.5466666666666669 0.07777777777777928-0.5466666666666669 0.017777777777777004-0.5644444444444439-0.008888888888890278-0.5111111111111128-0.008888888888890278v1.5799999999999983h-2.18888888888889l-1.3888888888888893-1.5622222222222213-1.4411111111111108 1.5622222222222213h-4.444444444444445v-4.704444444444444h4.513333333333334l1.3888888888888893 1.5444444444444443 1.4222222222222225-1.5444444444444443h3.5933333333333337q1.8922222222222231 0 1.8922222222222231 1.5444444444444443z m-5.053333333333335-5.920000000000002v0.9722222222222214h-3.7666666666666675v-4.705555555555556h3.7666666666666675v0.9888888888888889h-2.6388888888888893v0.8522222222222222h2.571111111111115v0.9555555555555557h-2.5700000000000003v0.9366666666666674h2.6388888888888893z m23.265555555555558 9.704444444444444v3.9755555555555553q0 0.9555555555555557-0.6688888888888869 1.6411111111111083t-1.62222222222222 0.6855555555555526h-35.42q-0.9555555555555579 0-1.6222222222222245-0.6855555555555526t-0.67-1.6411111111111119v-11.77111111111111h1.9255555555555555l0.43333333333333357-1.0588888888888874h0.9555555555555557l0.43333333333333357 1.0577777777777762h3.7888888888888888v-0.8000000000000007l0.33000000000000007 0.8000000000000007h1.9622222222222225l0.3477777777777771-0.8155555555555551v0.8155555555555551h9.392222222222221v-1.7188888888888876l0.17222222222222072-0.017777777777777004q0.173333333333332 0 0.173333333333332 0.242222222222221v1.4933333333333323h4.844444444444445v-0.3999999999999986q0.3999999999999986 0.20888888888888957 0.9555555555555557 0.3133333333333326t0.9111111111111114 0.11333333333333329 1.0922222222222224-0.008888888888890278 0.8944444444444457-0.017777777777777004l0.43333333333333357-1.0588888888888874h0.9733333333333327l0.43333333333333357 1.0577777777777762h3.9422222222222203v-1.0066666666666677l0.5888888888888886 1.0066666666666677h3.1611111111111114v-6.558888888888887h-3.1244444444444426v0.7644444444444449l-0.43333333333333-0.7644444444444449h-3.2133333333333347v0.7644444444444449l-0.3999999999999986-0.7644444444444449h-4.322222222222223q-1.1977777777777767 0-1.8922222222222231 0.3822222222222216v-0.3822222222222216h-2.986666666666668v0.3822222222222216q-0.41666666666666785-0.3822222222222216-1.2666666666666657-0.3822222222222216h-10.904444444444444l-0.7477777777777774 1.6844444444444449-0.7466666666666661-1.6844444444444449h-3.4366666666666683v0.7644444444444449l-0.3811111111111112-0.7644444444444449h-2.9333333333333336l-1.3555555555555556 3.1077777777777786v-6.78888888888889q0-0.9533333333333331 0.6688888888888889-1.6400000000000006t1.6233333333333337-0.6855555555555535h35.41666666666667q0.9555555555555557 0 1.62222222222222 0.6855555555555553t0.6722222222222172 1.6411111111111136v11.77111111111111h-2.0833333333333357q-0.8855555555555554 0-1.4066666666666663 0.3822222222222216v-0.3822222222222216h-3.076666666666661q-0.9533333333333331 0-1.3533333333333317 0.3822222222222216v-0.3822222222222216h-5.485555555555557v0.3822222222222216q-0.5377777777777766-0.3822222222222216-1.5111111111111128-0.3822222222222216h-3.62777777777778v0.3822222222222216q-0.3999999999999986-0.3822222222222216-1.5799999999999983-0.3822222222222216h-4.062222222222221l-0.9377777777777787 1.0066666666666677-0.8666666666666671-1.0066666666666677h-6.061111111111113v6.562222222222221h5.955555555555557l0.9533333333333331-1.0244444444444447 0.9022222222222229 1.0244444444444447h3.663333333333334v-1.5444444444444443h0.36666666666666714q1.0222222222222221 0 1.56111111111111-0.22666666666666657v1.7711111111111109h3.022222222222222v-1.7188888888888876h0.137777777777778q0.137777777777778 0 0.17222222222222072 0.03333333333333499t0.03333333333333499 0.1744444444444433v1.5111111111111128h9.185555555555556q0.9888888888888872 0 1.5277777777777786-0.41777777777777914v0.41666666666666785h2.9166666666666643q1.0422222222222217 0 1.6488888888888908-0.29555555555555557z m-13.16-4.062222222222221q0 0.3999999999999986-0.20777777777777828 0.7466666666666661t-0.5911111111111111 0.5033333333333339q0.43333333333333357 0.155555555555555 0.5888888888888886 0.4511111111111106t0.15777777777777757 0.8000000000000007v0.9366666666666674h-1.1288888888888877v-0.7811111111111124q0-0.5733333333333341-0.20777777777777828-0.7555555555555564t-0.8000000000000007-0.18222222222222229h-1.1955555555555542v1.7177777777777763h-1.1288888888888877v-4.704444444444444h2.673333333333332q0.8333333333333321 0 1.336666666666666 0.26000000000000156t0.5033333333333339 1.0066666666666677z m-4.808888888888891-8.107777777777779q0 0.4166666666666661-0.216666666666665 0.7644444444444449t-0.5811111111111096 0.5033333333333339q0.4511111111111106 0.155555555555555 0.6000000000000014 0.44222222222222385t0.14666666666666828 0.8077777777777762v0.9222222222222207h-1.1288888888888877q0-0.15777777777777757 0.008888888888890278-0.46111111111111214t0-0.43333333333333357-0.05222222222222328-0.32222222222222285-0.14777777777777956-0.27777777777777857-0.30333333333333456-0.147777777777776-0.5111111111111128-0.061111111111110006h-1.2155555555555573v1.6999999999999993h-1.1111111111111107v-4.703333333333333l2.655555555555555 0.017777777777777004q0.852222222222224 0 1.3555555555555543 0.25222222222222257t0.5033333333333339 0.9977777777777774z m9.184444444444445 10.573333333333332v0.9733333333333327h-3.7488888888888887v-4.704444444444444h3.7488888888888887v0.9722222222222214h-2.6222222222222236v0.8511111111111127h2.5700000000000003v0.9555555555555557h-2.568888888888889v0.9366666666666674z m-7.395555555555553-11.84v4.704444444444444h-1.1444444444444457v-4.705555555555556h1.1444444444444457z m12.031111111111109 11.320000000000004q0 1.4933333333333323-1.7711111111111109 1.4933333333333323h-2.18888888888889v-1.0066666666666677h2.18888888888889q0.5888888888888886 0 0.5888888888888886-0.43333333333333357 0-0.27777777777777857-0.2944444444444443-0.36666666666666714t-0.7199999999999989-0.08555555555555472-0.8599999999999994-0.061111111111110006-0.7288888888888891-0.39111111111111185-0.29555555555555557-0.9555555555555557q0-0.6755555555555546 0.4511111111111141-1.0411111111111104t1.1444444444444457-0.36666666666666714h2.2577777777777754v0.9911111111111097h-2.06666666666667q-0.62222222222222 0-0.62222222222222 0.43333333333333357 0 0.27777777777777857 0.3022222222222197 0.3555555555555543t0.7288888888888891 0.07111111111111157 0.8511111111111092 0.04444444444444429 0.7288888888888891 0.37222222222222356 0.30333333333333456 0.9477777777777767z m4.148888888888891-0.8666666666666671v1.7522222222222226q-0.4166666666666643 0.6066666666666656-1.5277777777777786 0.6066666666666656h-2.1700000000000017v-1.0066666666666677h2.1700000000000017q0.5733333333333306 0 0.5733333333333306-0.43333333333333357 0-0.22666666666666657-0.21555555555555372-0.3311111111111096t-0.5377777777777766-0.09555555555555628-0.6944444444444429-0.03333333333333499-0.6944444444444429-0.14000000000000057-0.5377777777777766-0.41666666666666785-0.21666666666666856-0.8422222222222224q0-0.6777777777777771 0.46000000000000085-1.0422222222222217t1.1555555555555586-0.36666666666666714h2.2355555555555497v0.9911111111111097h-2.0488888888888894q-0.6244444444444426 0-0.6244444444444426 0.43333333333333357 0 0.34888888888889014 0.5033333333333303 0.38333333333333286t1.18888888888889 0.086666666666666 0.9799999999999969 0.4511111111111106z m-2.8644444444444446-10.43666666666667v4.688888888888888h-1.596666666666664l-2.116666666666667-3.5266666666666673v3.5244444444444447h-2.293333333333333l-0.4511111111111106-1.0444444444444443h-2.326666666666668l-0.43333333333333357 1.0444444444444443h-1.3033333333333346q-2.240000000000002 0-2.240000000000002-2.311111111111112 0-2.394444444444444 2.3088888888888874-2.394444444444444h1.0944444444444485v1.0244444444444447q-0.12222222222222356 0-0.48888888888888715-0.017777777777777004t-0.4933333333333323-0.007777777777777217-0.3999999999999986 0.033333333333333215-0.37222222222222356 0.11444444444444457-0.2511111111111113 0.2333333333333325-0.1999999999999993 0.40000000000000036-0.05222222222222328 0.5811111111111114q0 0.6588888888888871 0.23333333333333428 1.0055555555555546t0.8599999999999994 0.34777777777777885h0.5044444444444451l1.5933333333333302-3.695555555555556h1.6855555555555561l1.8922222222222231 4.444444444444445v-4.444444444444445h1.7188888888888911l1.9777777777777814 3.264444444444445v-3.264444444444445h1.1466666666666683z"></path></svg>