<?xml version="1.0"?><svg viewBox="0 0 40 40" xmlns="http://www.w3.org/2000/svg" height="40" width="40"><path d="m14.9 25.1v-12q-1.8 0.7-3 2.3t-1.1 3.7 1.1 3.7 3 2.3z m8.7-6q0-2.1-1.1-3.7t-3-2.3v12q1.9-0.7 3-2.3t1.1-3.7z m3.8 0q0 2.7-1.4 5.1t-3.7 3.7-5.1 1.4q-2.1 0-3.9-0.9t-3.3-2.1-2.2-3.3-0.8-3.9q0-2.8 1.4-5.1t3.7-3.7 5.1-1.4 5.1 1.4 3.7 3.7 1.4 5.1z m6.6 0.1q0-2.4-0.9-4.5t-2.6-3.6-3.7-2.3-4.4-0.8h-5.2q-3.1 0-5.6 1.4t-4.1 4-1.5 5.8q0 3 1.5 5.5t4.1 4 5.6 1.5h5.2q2.3 0 4.4-0.9t3.7-2.3 2.6-3.5 0.9-4.3z m6-11.2v22.2q0 0.9-0.7 1.6t-1.5 0.6h-35.6q-0.9 0-1.5-0.6t-0.7-1.6v-22.2q0-0.9 0.7-1.6t1.5-0.6h35.6q0.9 0 1.5 0.6t0.7 1.6z"></path></svg>