<?xml version="1.0"?><svg xmlns="http://www.w3.org/2000/svg" width="40" height="40" viewBox="0 0 40 40"><path d="m5.433333333333334 17.933333333333334q0 0.8866666666666667-0.6222222222222227 1.4600000000000009-0.5044444444444443 0.4511111111111106-1.5466666666666669 0.4511111111111106h-0.29555555555555557v-3.818888888888889h0.29555555555555557q1.0588888888888892 0 1.5444444444444443 0.4688888888888876 0.6255555555555556 0.5377777777777766 0.6255555555555556 1.4411111111111126z m30.833333333333332-1.1277777777777764q0 0.9022222222222211-1.1111111111111143 0.9022222222222211h-0.32888888888889056v-1.7522222222222226h0.34777777777777885q1.0933333333333337 0 1.0933333333333337 0.8500000000000014z m-29.666666666666664 1.1277777777777764q-8.881784197001252e-16-1.283333333333335-0.8666666666666671-2.091111111111111t-2.244444444444445-0.8088888888888892h-1.6466666666666672v5.782222222222222h1.6466666666666672q1.2855555555555553 0 2.066666666666667-0.6600000000000001 1.0422222222222226-0.8855555555555554 1.0422222222222226-2.2222222222222214z m0.5199999999999996 2.8822222222222216h1.1288888888888895v-5.782222222222222h-1.131111111111113v5.782222222222222z m5.555555555555555-1.7533333333333339q0-0.6944444444444429-0.35555555555555607-1.0777777777777793t-1.3111111111111118-0.7277777777777779q-0.5033333333333339-0.17222222222222072-0.6855555555555561-0.32888888888889056t-0.18333333333333357-0.3999999999999986q0-0.27777777777777857 0.2333333333333325-0.45888888888888957t0.5999999999999996-0.181111111111111q0.5033333333333339 0 0.9199999999999999 0.4688888888888876l0.5888888888888886-0.7666666666666657q-0.7111111111111104-0.6411111111111119-1.6999999999999993-0.6411111111111119-0.7644444444444449 0-1.2844444444444445 0.47777777777777786t-0.5222222222222221 1.1722222222222207q0 0.6077777777777769 0.3133333333333326 0.9633333333333347t1.1111111111111107 0.6333333333333329q0.6411111111111119 0.2255555555555553 0.7799999999999994 0.3299999999999983 0.33000000000000007 0.20777777777777828 0.33000000000000007 0.5888888888888886 0 0.34888888888889014-0.24444444444444535 0.5822222222222209t-0.6244444444444444 0.23333333333333428q-0.8333333333333339 0-1.2333333333333325-0.7633333333333319l-0.7277777777777779 0.6933333333333316q0.7644444444444449 1.1111111111111107 1.9966666666666661 1.1111111111111107 0.8855555555555554 0 1.4411111111111108-0.5300000000000011t0.5555555555555554-1.379999999999999z m4.826666666666666 1.5622222222222213v-1.3355555555555547q-0.6422222222222231 0.6411111111111119-1.3555555555555543 0.6411111111111119-0.8499999999999996 0-1.3966666666666665-0.5644444444444439t-0.5466666666666669-1.4333333333333336q0-0.8333333333333321 0.5477777777777781-1.4144444444444453t1.3444444444444432-0.5811111111111114q0.7477777777777774 0 1.4077777777777776 0.6599999999999984v-1.335555555555553q-0.6944444444444429-0.3477777777777771-1.3888888888888893-0.3477777777777771-1.2844444444444445 0-2.177777777777777 0.8777777777777782t-0.8955555555555552 2.144444444444444 0.8855555555555554 2.1444444444444457 2.171111111111111 0.8755555555555539q0.7288888888888891 0 1.4066666666666663-0.3299999999999983z m21.38666666666667 10.486666666666672v-9.14888888888889q-1.1288888888888877 0.6944444444444429-2.5088888888888903 1.4588888888888896t-4.12222222222222 2.030000000000001-5.722222222222221 2.3866666666666667-7.246666666666666 2.3355555555555547-8.750000000000007 2.048888888888886h27.23888888888889q0.4522222222222254 0 0.7822222222222237-0.32888888888889056t0.32888888888889056-0.7822222222222166z m-14.774444444444448-13.142222222222223q0-1.3022222222222233-0.9200000000000017-2.2222222222222214t-2.2222222222222214-0.9199999999999999-2.2222222222222214 0.9199999999999999-0.9200000000000017 2.2222222222222214 0.9200000000000017 2.2222222222222214 2.2222222222222214 0.9200000000000017 2.2222222222222214-0.9200000000000017 0.9200000000000017-2.2222222222222214z m2.6388888888888893 3.003333333333334l2.5-5.937777777777779h-1.2333333333333343l-1.56111111111111 3.8888888888888893-1.5444444444444443-3.8888888888888893h-1.2333333333333343l2.466666666666665 5.93888888888889h0.6066666666666656z m3.003333333333334-0.155555555555555h3.1955555555555577v-0.9733333333333327h-2.0666666666666664v-1.5633333333333326h1.997777777777781v-0.9722222222222214h-1.9966666666666661v-1.2844444444444427h2.0666666666666664v-0.9888888888888889h-3.197777777777784v5.779999999999999z m6.788888888888891 0h1.3888888888888857l-1.8222222222222229-2.4333333333333336q1.3200000000000003-0.27777777777777857 1.3200000000000003-1.6311111111111103 0-0.8155555555555551-0.5377777777777766-1.2666666666666657t-1.5111111111111128-0.45222222222222186h-1.68333333333333v5.781111111111112h1.12777777777778v-2.3088888888888874h0.15555555555555856z m3.454444444444441-11.823333333333334v22.01111111111111q0 0.9733333333333327-0.6688888888888869 1.6499999999999986t-1.62222222222222 0.6777777777777771h-35.42q-0.9555555555555579 0-1.6222222222222245-0.6777777777777771t-0.67-1.6488888888888873v-22.01222222222222q0.0033333333333330772-0.9711111111111119 0.6699999999999997-1.6488888888888917t1.625555555555556-0.6777777777777771h35.41666666666667q0.9555555555555557 0 1.62222222222222 0.677777777777778t0.6688888888888869 1.6488888888888908z"></path></svg>