<?xml version="1.0"?><svg viewBox="0 0 40 40" xmlns="http://www.w3.org/2000/svg" height="40" width="40"><path d="m14.9 25.1v-12q-1.8 0.7-3 2.3t-1.1 3.7q0 2 1.1 3.7t3 2.3z m7.6-2.3q1.1-1.7 1.1-3.7t-1.1-3.7q-1.1-1.6-3-2.3v12q1.9-0.7 3-2.3z m3.5-8.8q1.4 2.3 1.4 5.1t-1.4 5.1q-1.3 2.3-3.7 3.7t-5.1 1.4q-2.1 0-3.9-0.9t-3.3-2.1q-1.4-1.4-2.2-3.3t-0.8-3.9q0-2.8 1.4-5.1t3.7-3.7q2.3-1.4 5.1-1.4t5.1 1.4q2.4 1.3 3.7 3.7z m8 5.2q0-2.4-0.9-4.5t-2.6-3.6q-1.6-1.4-3.7-2.3t-4.4-0.8h-5.2q-3.1 0-5.6 1.4t-4.1 4q-1.5 2.6-1.5 5.8 0 3 1.5 5.5t4.1 4q2.6 1.5 5.6 1.5h5.2q2.3 0 4.4-0.9t3.7-2.3q1.6-1.5 2.6-3.5t0.9-4.3z m6-11.2v22.2q0 0.9-0.7 1.6t-1.5 0.6h-35.6q-0.9 0-1.5-0.6t-0.7-1.6v-22.2q0-0.9 0.7-1.6t1.5-0.6h35.6q0.9 0 1.5 0.6t0.7 1.6z"></path></svg>