<?xml version="1.0"?><svg xmlns="http://www.w3.org/2000/svg" width="40" height="40" viewBox="0 0 40 40"><path d="m33.87111111111111 21.771111111111114q0 0.4511111111111106-0.2688888888888883 0.7722222222222221t-0.6688888888888869 0.4066666666666663q-0.13888888888888573 0.03333333333333499-0.31111111111111 0.03333333333333499h-2.6577777777777776v-2.4277777777777807h2.655555555555555q0.17444444444444684 0 0.3133333333333326 0.03333333333333499 0.3999999999999986 0.08888888888888857 0.6688888888888869 0.40888888888888886t0.2688888888888883 0.7722222222222221z m-0.31111111111111-3.6977777777777767q0 0.43333333333333357-0.26111111111111285 0.7288888888888891t-0.6611111111111114 0.36444444444444457q-0.05222222222221973 0.017777777777777004-0.259999999999998 0.017777777777777004h-2.4111111111111114v-2.240000000000002h2.4111111111111114q0.053333333333334565 0 0.14888888888889085 0.008888888888890278t0.11333333333333684 0.008888888888890278q0.3999999999999986 0.07000000000000028 0.6599999999999966 0.37333333333333485t0.259999999999998 0.7377777777777794z m-20.92222222222222 2.8466666666666676v-5.347777777777779h-3.9566666666666706v5.347777777777779q0 1.0066666666666677-0.6600000000000001 1.6411111111111119t-1.822222222222222 0.6333333333333329q-1.8755555555555556 0-3.977777777777778-1.0244444444444447v1.9444444444444464q0.922222222222222 0.26000000000000156 2.102222222222222 0.3999999999999986t1.8922222222222222 0.155555555555555l0.7288888888888891 0.017777777777777004q5.693333333333333 0 5.693333333333333-3.7688888888888883z m12.396666666666665 3.1944444444444464v-1.9622222222222234q-1.7177777777777763 0.9022222222222211-3.47111111111111 1.0244444444444447-1.8744444444444461 0.137777777777778-2.9333333333333336-0.7133333333333347t-1.0599999999999987-2.4666666666666686 1.0588888888888874-2.464444444444446 2.9333333333333336-0.7111111111111121q1.7555555555555564 0.120000000000001 3.4733333333333327 1.0055555555555564v-1.9444444444444446q-0.8333333333333321-0.20777777777777828-1.7355555555555569-0.3388888888888886t-1.3888888888888893-0.16444444444444528l-0.48666666666666814-0.033333333333333215q-2.2044444444444444-0.10555555555555607-3.793333333333333 0.24222222222222278t-2.438888888888888 1.0422222222222235-1.2311111111111117 1.5277777777777786-0.38555555555555365 1.8422222222222189 0.3822222222222216 1.8388888888888886 1.2333333333333343 1.5277777777777786 2.4377777777777787 1.0422222222222217 3.793333333333333 0.24444444444444358q1.7533333333333339-0.07111111111111157 3.6111111111111107-0.5388888888888879z m12.743333333333332-1.9966666666666733q0-0.9377777777777787-0.7466666666666697-1.5366666666666653t-1.8922222222222231-0.6855555555555561v-0.05222222222222328q0.9888888888888872-0.14000000000000057 1.5444444444444443-0.7222222222222214t0.5555555555555571-1.3777777777777764q0-0.9555555555555557-0.7111111111111086-1.5288888888888899t-1.8577777777777769-0.6244444444444444q-0.05222222222221973 0-0.20777777777777828-0.008888888888888502t-0.24444444444444713-0.008888888888888502h-7.89555555555555v8.855555555555556h8.524444444444445q1.2844444444444463 0 2.1088888888888917-0.6333333333333329t0.8244444444444454-1.6777777777777771z m2.2222222222222214-13.22888888888889v22.22222222222222q0 0.9022222222222247-0.6599999999999966 1.5622222222222213t-1.5622222222222248 0.6600000000000037h-35.55555555555556q-0.9022222222222216 0-1.5622222222222213-0.6599999999999966t-0.6600000000000001-1.5622222222222248v-22.222222222222225q0-0.902222222222222 0.66-1.5622222222222222t1.5622222222222222-0.6600000000000001h35.55555555555556q0.9022222222222211 0 1.5622222222222248 0.6600000000000001t0.6599999999999966 1.5622222222222222z"></path></svg>