<?xml version="1.0"?><svg viewBox="0 0 40 40" xmlns="http://www.w3.org/2000/svg" height="40" width="40"><path d="m33.9 20.9q0 0.4-0.3 0.7t-0.7 0.4q-0.1 0.1-0.3 0.1h-2.6v-2.4h2.6q0.2 0 0.3 0 0.4 0.1 0.7 0.4t0.3 0.8z m-0.3-3.7q0 0.4-0.3 0.7t-0.7 0.4q0 0-0.2 0h-2.4v-2.3h2.4q0 0 0.1 0t0.1 0.1q0.4 0 0.7 0.3t0.3 0.8z m-21 2.8v-5.3h-3.9v5.3q0 1-0.7 1.7t-1.8 0.6q-1.9 0-4-1v1.9q0.9 0.3 2.1 0.4t1.9 0.2l0.7 0q5.7 0 5.7-3.8z m12.4 3.2v-2q-1.7 1-3.4 1.1-1.9 0.1-3-0.7t-1-2.5 1-2.5 3-0.7q1.7 0.1 3.4 1v-1.9q-0.8-0.2-1.7-0.4t-1.4-0.1l-0.5-0.1q-2.2-0.1-3.8 0.3t-2.4 1-1.2 1.6-0.4 1.8 0.4 1.8 1.2 1.6 2.4 1 3.8 0.2q1.8 0 3.6-0.5z m12.8-2q0-0.9-0.8-1.5t-1.9-0.7v-0.1q1-0.1 1.6-0.7t0.5-1.4q0-0.9-0.7-1.5t-1.8-0.6q-0.1 0-0.2 0t-0.3 0h-7.9v8.8h8.5q1.3 0 2.2-0.6t0.8-1.7z m2.2-13.2v22.2q0 0.9-0.7 1.6t-1.5 0.6h-35.6q-0.9 0-1.5-0.6t-0.7-1.6v-22.2q0-0.9 0.7-1.6t1.5-0.6h35.6q0.9 0 1.5 0.6t0.7 1.6z"></path></svg>