<?xml version="1.0"?><svg xmlns="http://www.w3.org/2000/svg" width="40" height="40" viewBox="0 0 40 40"><path d="m11.648888888888889 20.642222222222223h-0.2255555555555553q-0.8144444444444439 0-0.8144444444444439 0.5555555555555571 0 0.3822222222222216 0.3477777777777771 0.3822222222222216 0.29555555555555557 0 0.48666666666666636-0.26000000000000156t0.20777777777777828-0.6777777777777771z m6.857777777777779-0.6244444444444461h1.0777777777777793v-0.05222222222222328q0.01666666666666572-0.07111111111111157 0.007777777777778994-0.11444444444444457t-0.017777777777777004-0.12222222222222356-0.03333333333333499-0.137777777777778-0.07777777777777928-0.11333333333333329-0.1311111111111103-0.08555555555555472-0.1999999999999993-0.03333333333333499q-0.48888888888888715 0-0.6255555555555539 0.6588888888888889z m9.375555555555557 0.6244444444444461h-0.20777777777777828q-0.8333333333333321 0-0.8333333333333321 0.5555555555555571 0 0.3822222222222216 0.34777777777777885 0.3822222222222216 0.29555555555555557 0 0.48666666666666814-0.26000000000000156t0.20777777777777828-0.6777777777777771z m5.537777777777777-0.4511111111111106q0-0.7111111111111121-0.5222222222222257-0.7111111111111121-0.32888888888889056 0-0.5366666666666688 0.34666666666666757t-0.20777777777777828 0.8855555555555554q0 0.7300000000000004 0.4866666666666646 0.7300000000000004 0.34777777777777885 0 0.5644444444444474-0.34777777777777885t0.21666666666666856-0.9022222222222211z m-25.086666666666666-2.4466666666666654h1.5111111111111093l-0.7666666666666657 4.547777777777778h-0.9711111111111119l0.5555555555555554-3.4888888888888907-1.2333333333333334 3.4888888888888907h-0.6733333333333338l-0.07000000000000028-3.4722222222222214-0.5888888888888886 3.4722222222222214h-0.9222222222222225l0.7666666666666666-4.548888888888889h1.4033333333333342l0.033333333333333215 2.828888888888887z m4.39222222222222 1.8555555555555543q0 0.10555555555555429-0.07000000000000028 0.7300000000000004-0.27777777777777857 1.7533333333333339-0.29555555555555557 1.9622222222222234h-0.8155555555555551l0.017777777777777004-0.3822222222222216q-0.3477777777777771 0.4499999999999993-1.0066666666666677 0.4499999999999993-0.40000000000000036 0-0.6511111111111116-0.27777777777777857t-0.25222222222222257-0.7288888888888891q0-0.6777777777777771 0.4511111111111106-1.051111111111112t1.2666666666666675-0.37333333333333485q0.24444444444444358 0 0.40000000000000036 0.017777777777777004 0-0.05222222222222328 0.008888888888888502-0.09555555555555628t0.01888888888888829-0.07777777777777928 0.008888888888888502-0.05222222222222328q0-0.34666666666666757-0.6244444444444444-0.34666666666666757-0.5033333333333339 0-1.0244444444444447 0.173333333333332 0-0.07000000000000028 0.12222222222222179-0.8333333333333321 0.6600000000000001-0.19111111111111256 1.163333333333334-0.19111111111111256 1.2844444444444445 0 1.2844444444444445 1.0777777777777793z m2.7088888888888896-1.0066666666666677l-0.137777777777778 0.8511111111111127q-0.3822222222222216-0.05222222222222328-0.7111111111111104-0.05222222222222328-0.47000000000000064 0-0.47000000000000064 0.29555555555555557 0 0.137777777777778 0.0777777777777775 0.206666666666667t0.3733333333333331 0.19111111111111256q0.6933333333333334 0.3299999999999983 0.6933333333333334 1.0422222222222217 0 1.25-1.511111111111111 1.2333333333333343-0.5888888888888886 0-1.0055555555555564-0.10555555555555429 0-0.03333333333333499 0.11999999999999922-0.8500000000000014 0.5033333333333339 0.13888888888888928 0.8855555555555554 0.13888888888888928 0.5555555555555554 0 0.5555555555555554-0.3299999999999983 0-0.12222222222222356-0.0777777777777775-0.1999999999999993t-0.3733333333333331-0.216666666666665q-0.7477777777777774-0.34777777777777885-0.7477777777777774-1.0244444444444447 0-1.25 1.4588888888888896-1.25 0.5222222222222221 0 0.8666666666666671 0.07111111111111157z m1.5288888888888899 0h0.48666666666666814l-0.12222222222222356 0.9022222222222211h-0.5022222222222226q-0.03333333333333499 0.29555555555555557-0.11333333333333329 0.7033333333333331t-0.12222222222222356 0.6666666666666679-0.04222222222222172 0.3133333333333326q0 0.27777777777777857 0.3299999999999983 0.27777777777777857 0.137777777777778 0 0.27777777777777857-0.03333333333333499l-0.14000000000000057 0.8144444444444439q-0.36444444444444457 0.12222222222222356-0.6944444444444429 0.12222222222222356-0.7477777777777774 0-0.7822222222222219-0.8166666666666664 0-0.20777777777777828 0.13888888888888928-0.9722222222222214 0.05333333333333279-0.34777777777777885 0.43555555555555436-2.533333333333335h0.9555555555555557z m3.5244444444444447 1.2666666666666657q0 0.3999999999999986-0.12222222222222356 0.9033333333333324h-1.9255555555555546q-0.05222222222222328 0.3822222222222216 0.173333333333332 0.5733333333333341t0.6611111111111114 0.19111111111111256q0.5222222222222221 0 1.0066666666666677-0.24444444444444358l-0.155555555555555 0.93888888888889q-0.5222222222222221 0.13888888888888928-0.9888888888888872 0.13888888888888928-1.6499999999999986 0-1.6499999999999986-1.6488888888888873 0-0.9533333333333331 0.47777777777777786-1.5700000000000003t1.206666666666667-0.6166666666666671q0.6088888888888881 0 0.964444444444446 0.36444444444444457t0.3555555555555543 0.9722222222222214z m2.4111111111111114-1.283333333333335q-0.224444444444444 0.39777777777777956-0.3811111111111103 1.0755555555555567-0.3822222222222216-0.03333333333333499-0.5377777777777766 0.41666666666666785t-0.43333333333333357 2.2222222222222214h-0.9722222222222214l0.05222222222222328-0.24444444444444358q0.3822222222222216-2.2555555555555564 0.5033333333333339-3.453333333333333h0.8855555555555554l-0.05222222222222328 0.5733333333333341q0.24444444444444358-0.3633333333333333 0.44222222222222385-0.5111111111111128t0.4944444444444436-0.07777777777777928z m3.2477777777777774-0.7133333333333347l-0.155555555555555 0.9888888888888872q-0.48666666666666814-0.242222222222221-0.8666666666666671-0.242222222222221-0.5388888888888879 0-0.8866666666666667 0.47777777777777786t-0.34777777777777885 1.224444444444444q0 0.5222222222222221 0.23333333333333428 0.8155555555555551t0.6688888888888904 0.29555555555555557q0.36444444444444457 0 0.8333333333333321-0.2255555555555553l-0.173333333333332 1.0222222222222221q-0.48666666666666814 0.14000000000000057-0.8666666666666671 0.14000000000000057-0.7822222222222237 0-1.242222222222221-0.5300000000000011t-0.46000000000000085-1.4333333333333336q0-1.2155555555555573 0.6166666666666671-1.9888888888888872t1.5888888888888886-0.7711111111111109q0.4499999999999993 0 1.0577777777777762 0.2255555555555553z m2.814444444444444 1.7366666666666681q0 0.3133333333333326-0.07000000000000028 0.7300000000000004-0.2255555555555553 1.3711111111111123-0.29555555555555557 1.9622222222222234h-0.8000000000000007l0.01888888888888829-0.3822222222222216q-0.34666666666666757 0.4499999999999993-1.0222222222222221 0.4499999999999993-0.3999999999999986 0-0.6444444444444457-0.27777777777777857t-0.242222222222221-0.7288888888888891q0-0.6777777777777771 0.44222222222222385-1.051111111111112t1.2588888888888903-0.37333333333333485q0.26000000000000156 0 0.3999999999999986 0.017777777777777004 0.03333333333333499-0.12222222222222356 0.03333333333333499-0.2255555555555553 0-0.34666666666666757-0.6244444444444461-0.34666666666666757-0.5022222222222226 0-1.0222222222222221 0.173333333333332 0-0.07000000000000028 0.137777777777778-0.8333333333333321 0.6600000000000001-0.19111111111111256 1.163333333333334-0.19111111111111256 1.2688888888888883 0 1.2688888888888883 1.0777777777777793z m2.4477777777777767-1.0222222222222221q-0.24444444444444358 0.41555555555555657-0.36444444444444457 1.0755555555555567-0.3999999999999986-0.03333333333333499-0.5466666666666669 0.3999999999999986t-0.44222222222222385 2.2388888888888907h-0.9722222222222214l0.05222222222222328-0.24444444444444358q0.3299999999999983-1.8044444444444458 0.5033333333333339-3.453333333333333h0.9022222222222211q0 0.19111111111111256-0.07000000000000028 0.5733333333333341 0.26000000000000156-0.3633333333333333 0.46000000000000085-0.5111111111111128t0.47777777777777786-0.07777777777777928z m2.4477777777777803-0.8333333333333321h0.9711111111111137l-0.7466666666666697 4.547777777777778h-0.9200000000000017l0.05222222222221973-0.3299999999999983q-0.397777777777776 0.3999999999999986-0.8999999999999986 0.3999999999999986-0.5388888888888879 0-0.8599999999999994-0.41777777777777914t-0.32222222222222285-1.1111111111111107q0-0.9200000000000017 0.47777777777777786-1.5966666666666676t1.1222222222222236-0.6777777777777771q0.5366666666666688 0 0.9188888888888869 0.5044444444444451z m1.923333333333332 2.2555555555555564q0-2.568888888888889-1.2588888888888903-4.74t-3.4366666666666674-3.437777777777777-4.747777777777777-1.2666666666666675q-3.142222222222223 0-5.694444444444443 1.9088888888888889 2.2044444444444444 2.014444444444445 2.968888888888891 4.931111111111109h-0.8666666666666671q-0.7666666666666657-2.604444444444443-2.744444444444447-4.39222222222222-1.9777777777777779 1.7888888888888896-2.7444444444444436 4.392222222222223h-0.8666666666666671q0.7644444444444431-2.916666666666668 2.9688888888888876-4.931111111111111-2.5522222222222233-1.9111111111111114-5.694444444444445-1.9111111111111114-2.568888888888889 0-4.747777777777777 1.2688888888888883t-3.437777777777777 3.437777777777777-1.2588888888888885 4.74 1.2588888888888885 4.740000000000002 3.4377777777777787 3.4377777777777787 4.747777777777777 1.2666666666666657q3.142222222222223 0 5.694444444444443-1.9088888888888889-2.083333333333332-1.9266666666666659-2.8644444444444446-4.583333333333332h0.8666666666666671q0.8000000000000007 2.395555555555557 2.6400000000000006 4.044444444444444 1.8399999999999999-1.6477777777777796 2.6388888888888893-4.044444444444444h0.8666666666666671q-0.7800000000000011 2.655555555555555-2.8633333333333333 4.583333333333336 2.5522222222222233 1.9111111111111114 5.694444444444443 1.9111111111111114 2.568888888888889 0 4.747777777777777-1.2688888888888883t3.437777777777775-3.4377777777777787 1.2588888888888974-4.7400000000000055z m4.219999999999999-11.11111111111111v22.22222222222222q0 0.9022222222222247-0.6599999999999966 1.5622222222222213t-1.5622222222222248 0.6600000000000037h-35.55555555555556q-0.9022222222222216 0-1.5622222222222213-0.6599999999999966t-0.6600000000000001-1.5622222222222248v-22.222222222222225q0-0.902222222222222 0.66-1.5622222222222222t1.5622222222222222-0.6600000000000001h35.55555555555556q0.9022222222222211 0 1.5622222222222248 0.6600000000000001t0.6599999999999966 1.5622222222222222z"></path></svg>