<?xml version="1.0"?><svg xmlns="http://www.w3.org/2000/svg" width="40" height="40" viewBox="0 0 40 40"><path d="m12.933333333333335 20.173333333333332q0 0.6422222222222231-0.4411111111111108 1.0666666666666664t-1.0855555555555547 0.42666666666666586q-0.5033333333333339 0-0.8077777777777779-0.27777777777777857t-0.3044444444444441-0.7644444444444431q0-0.6422222222222231 0.43333333333333357-1.0855555555555547t1.0777777777777775-0.44222222222222385q0.48666666666666636 0 0.8077777777777779 0.2866666666666653t0.32222222222222285 0.7888888888888879z m13.62888888888889-2.586666666666666q0 0.7288888888888891-0.3822222222222216 0.9888888888888872t-1.1444444444444457 0.26111111111111285l-0.5555555555555571 0.017777777777777004 0.2944444444444443-1.8588888888888881q0.03333333333333499-0.19111111111111256 0.2255555555555553-0.19111111111111256h0.31111111111111q0.38333333333333286 0 0.6088888888888881 0.03333333333333499t0.43333333333333357 0.2177777777777763 0.20888888888888957 0.5311111111111124z m6.0944444444444414 2.586666666666666q0 0.6244444444444461-0.44111111111111256 1.0588888888888874t-1.0666666666666664 0.43333333333333357q-0.5044444444444451 0-0.8166666666666664-0.27777777777777857t-0.31111111111111-0.7644444444444431q0-0.6422222222222231 0.43333333333333357-1.0855555555555547t1.0777777777777793-0.44222222222222385q0.48555555555555685 0 0.8066666666666649 0.2866666666666653t0.32222222222222285 0.7888888888888879z m-23.74888888888889-2.9688888888888876q0-1.0244444444444447-0.6688888888888886-1.4844444444444456t-1.7444444444444445-0.46000000000000085h-2.7777777777777777q-0.33000000000000007 0-0.36444444444444457 0.33000000000000007l-1.13 7.084444444444449q-0.017777777777777892 0.10444444444444301 0.05222222222222239 0.19111111111111256t0.17333333333333334 0.086666666666666h1.318888888888889q0.3488888888888888 0 0.3833333333333333-0.3299999999999983l0.3111111111111109-1.9111111111111114q0.018888888888889177-0.13888888888888928 0.12222222222222268-0.2255555555555553t0.2599999999999998-0.11333333333333329 0.2944444444444443-0.025555555555555998 0.33000000000000007 0.017777777777777004 0.24444444444444446 0.017777777777777004q1.492222222222222 0 2.3422222222222233-0.8422222222222224t0.8511111111111109-2.3355555555555547z m5.364444444444445 5.416666666666668l0.7111111111111104-4.533333333333331q0.01888888888888829-0.10333333333333172-0.051111111111111995-0.18888888888889t-0.17333333333333378-0.08888888888888857h-1.3200000000000003q-0.24444444444444358 0-0.29555555555555557 0.5744444444444454-0.46888888888888935-0.6944444444444429-1.648888888888889-0.6944444444444429-1.25 0-2.126666666666667 0.9377777777777787t-0.8777777777777782 2.2044444444444444q0 1.0244444444444447 0.5999999999999996 1.6333333333333329t1.605555555555556 0.6066666666666656q0.48666666666666636 0 1.006666666666666-0.20777777777777828t0.8333333333333339-0.5555555555555571q-0.068888888888889 0.206666666666667-0.068888888888889 0.3633333333333333 0 0.27777777777777857 0.2255555555555553 0.27777777777777857h1.200000000000001q0.3288888888888888 0 0.3811111111111103-0.3299999999999983z m7.760000000000002-4.566666666666666q0-0.086666666666666-0.07000000000000028-0.16444444444444528t-0.155555555555555-0.07777777777777928h-1.3399999999999999q-0.18888888888889 0-0.31111111111111 0.173333333333332l-1.8399999999999999 2.7088888888888896-0.7644444444444431-2.604444444444443q-0.086666666666666-0.27777777777777857-0.3822222222222216-0.27777777777777857h-1.3022222222222268q-0.086666666666666 0-0.155555555555555 0.07777777777777928t-0.07111111111111157 0.16444444444444528q0 0.03333333333333499 0.3388888888888886 1.0244444444444447t0.7300000000000004 2.1355555555555554 0.4077777777777776 1.2155555555555573q-1.4222222222222225 1.9444444444444464-1.4222222222222225 2.083333333333332 0 0.2255555555555553 0.224444444444444 0.2255555555555553h1.3366666666666678q0.18888888888889 0 0.31111111111111-0.173333333333332l4.426666666666666-6.388888888888889q0.03333333333333499-0.03333333333333499 0.03333333333333499-0.12222222222222356z m6.597777777777779-0.8511111111111127q0-1.0244444444444447-0.6688888888888904-1.4844444444444456t-1.7444444444444436-0.46000000000000085h-2.761111111111113q-0.34777777777777885 0-0.3822222222222216 0.33000000000000007l-1.1288888888888877 7.084444444444445q-0.017777777777777004 0.10444444444444301 0.05222222222222328 0.19111111111111256t0.173333333333332 0.086666666666666h1.4222222222222207q0.20888888888888957 0 0.27777777777777857-0.2255555555555553l0.3133333333333326-2.014444444444443q0.017777777777777004-0.13888888888888928 0.12222222222222356-0.2255555555555553t0.2588888888888903-0.11333333333333329 0.29555555555555557-0.025555555555555998 0.3299999999999983 0.017777777777777004 0.24444444444444358 0.017777777777777004q1.4933333333333323 0 2.344444444444445-0.8422222222222224t0.8500000000000014-2.3355555555555547z m5.364444444444445 5.416666666666668l0.7111111111111086-4.533333333333335q0.01888888888888829-0.10333333333333172-0.051111111111111995-0.18888888888889t-0.173333333333332-0.08888888888888857h-1.3200000000000003q-0.24444444444444713 0-0.295555555555552 0.5744444444444454-0.4511111111111106-0.6944444444444429-1.6488888888888873-0.6944444444444429-1.25 0-2.126666666666665 0.9377777777777787t-0.8777777777777764 2.2044444444444444q0 1.0244444444444447 0.6000000000000014 1.6333333333333329t1.6055555555555543 0.6066666666666656q0.5033333333333339 0 1.0244444444444447-0.20777777777777828t0.8155555555555587-0.5555555555555571q0 0.01666666666666572-0.03333333333333144 0.155555555555555t-0.03333333333333144 0.20777777777777828q0 0.27777777777777857 0.224444444444444 0.27777777777777857h1.1977777777777803q0.3299999999999983 0 0.3822222222222251-0.3299999999999983z m3.7833333333333314-7.097777777777777v-0.01888888888888829q0-0.24444444444444535-0.22555555555555884-0.24444444444444535h-1.285555555555554q-0.18888888888889 0-0.224444444444444 0.19222222222222207l-1.1288888888888877 7.222222222222223-0.017777777777780557 0.03333333333333499q0 0.08888888888888857 0.07000000000000028 0.16666666666666785t0.17222222222222427 0.07777777777777928h1.1444444444444457q0.33111111111111313 0 0.36666666666666714-0.3311111111111096z m-30.97222222222222 2.32444444444444q-0.08666666666666778 0.6077777777777769-0.45111111111111235 0.8000000000000007t-1.0444444444444443 0.18888888888889l-0.572222222222222 0.01888888888888829 0.29555555555555557-1.8577777777777769q0.035555555555555785-0.19111111111111256 0.22666666666666657-0.19111111111111256h0.33000000000000007q0.6955555555555559 0 1.007777777777778 0.1999999999999993t0.2077777777777774 0.8422222222222224z m33.19444444444444-8.957777777777775v22.22222222222222q0 0.9022222222222247-0.6599999999999966 1.5622222222222213t-1.5622222222222248 0.6600000000000037h-35.55555555555556q-0.9022222222222216 0-1.5622222222222213-0.6599999999999966t-0.6600000000000001-1.5622222222222248v-22.222222222222225q0-0.902222222222222 0.66-1.5622222222222222t1.5622222222222222-0.6600000000000001h35.55555555555556q0.9022222222222211 0 1.5622222222222248 0.6600000000000001t0.6599999999999966 1.5622222222222222z"></path></svg>