<svg viewBox="0 0 2304 1896.0833" xmlns="http://www.w3.org/2000/svg"><path d="m745 906q0 37-25.5 61.5t-62.5 24.5q-29 0-46.5-16t-17.5-44q0-37 25-62.5t62-25.5q28 0 46.5 16.5t18.5 45.5z m785-149q0 42-22 57t-66 15l-32 1 17-107q2-11 13-11h18q22 0 35 2t25 12.5 12 30.5z m351 149q0 36-25.5 61t-61.5 25q-29 0-47-16t-18-44q0-37 25-62.5t62-25.5q28 0 46.5 16.5t18.5 45.5z m-1368-171q0-59-38.5-85.5t-100.5-26.5h-160q-19 0-21 19l-65 408q-1 6 3 11t10 5h76q20 0 22-19l18-110q1-8 7-13t15-6.5 17-1.5 19 1 14 1q86 0 135-48.5t49-134.5z m309 312l41-261q1-6-3-11t-10-5h-76q-14 0-17 33-27-40-95-40-72 0-122.5 54t-50.5 127q0 59 34.5 94t92.5 35q28 0 58-12t48-32q-4 12-4 21 0 16 13 16h69q19 0 22-19z m447-263q0-5-4-9.5t-9-4.5h-77q-11 0-18 10l-106 156-44-150q-5-16-22-16h-75q-5 0-9 4.5t-4 9.5q0 2 19.5 59t42 123 23.5 70q-82 112-82 120 0 13 13 13h77q11 0 18-10l255-368q2-2 2-7z m380-49q0-59-38.5-85.5t-100.5-26.5h-159q-20 0-22 19l-65 408q-1 6 3 11t10 5h82q12 0 16-13l18-116q1-8 7-13t15-6.5 17-1.5 19 1 14 1q86 0 135-48.5t49-134.5z m309 312l41-261q1-6-3-11t-10-5h-76q-14 0-17 33-26-40-95-40-72 0-122.5 54t-50.5 127q0 59 34.5 94t92.5 35q29 0 59-12t47-32q0 1-2 9t-2 12q0 16 13 16h69q19 0 22-19z m218-409v-1q0-14-13-14h-74q-11 0-13 11l-65 416-1 2q0 5 4 9.5t10 4.5h66q19 0 21-19z m-1784 134q-5 35-26 46t-60 11l-33 1 17-107q2-11 13-11h19q40 0 58 11.5t12 48.5z m1912-516v1280q0 52-38 90t-90 38h-2048q-52 0-90-38t-38-90v-1280q0-52 38-90t90-38h2048q52 0 90 38t38 90z"/></svg>