<?xml version="1.0"?><svg xmlns="http://www.w3.org/2000/svg" width="40" height="40" viewBox="0 0 40 40"><path d="m27.725555555555555 20.122222222222224q0 1.1966666666666654-0.36444444444444457 1.8388888888888886-0.3299999999999983 0.6077777777777769-0.9022222222222211 0.6077777777777769-0.3999999999999986 0-0.7111111111111121-0.155555555555555v-3.8888888888888893q0.5022222222222226-0.5222222222222221 0.9888888888888872-0.5222222222222221 0.9888888888888872 0 0.9888888888888872 2.1177777777777784z m7.604444444444443-0.6255555555555539h-1.9111111111111114q0.10555555555555429-1.6999999999999993 0.9733333333333363-1.6999999999999993 0.8855555555555554 0 0.9377777777777752 1.6999999999999993z m-27.066666666666666 2.344444444444445q0-1.025555555555556-0.572222222222222-1.5888888888888886t-1.753333333333333-1q-0.6244444444444444-0.224444444444444-0.902222222222222-0.41555555555555657t-0.2777777777777777-0.43333333333333357q0-0.45222222222222186 0.6600000000000001-0.45222222222222186 1.0066666666666668 0 2.152222222222223 0.5733333333333341l0.3111111111111109-1.9444444444444429q-1.1622222222222218-0.5555555555555571-2.5855555555555556-0.5555555555555571-1.336666666666667 0-2.1355555555555554 0.6600000000000001-0.8333333333333335 0.6777777777777771-0.8333333333333335 1.8922222222222231 0 1.0055555555555564 0.5644444444444443 1.5700000000000003t1.7277777777777779 0.9811111111111117q0.677777777777778 0.24444444444444358 0.9466666666666663 0.44222222222222385t0.2666666666666666 0.47777777777777786q0 0.5377777777777766-0.833333333333333 0.5377777777777766-0.5022222222222226 0-1.2144444444444442-0.216666666666665t-1.25-0.5300000000000011l-0.31111111111111134 1.9622222222222234q1.2488888888888892 0.7111111111111121 2.915555555555556 0.7111111111111121 1.4066666666666663 0 2.24-0.6411111111111119 0.8855555555555554-0.7111111111111121 0.8855555555555554-2.0311111111111124z m5.122222222222224-3.7333333333333343l0.33000000000000007-1.9266666666666659h-1.666666666666666v-2.344444444444445l-2.24 0.36666666666666714-0.3111111111111118 1.9777777777777779-0.8000000000000007 0.13888888888888928-0.29555555555555557 1.7888888888888879h1.0777777777777775v3.8000000000000007q0 1.4600000000000009 0.7633333333333336 2.0844444444444434 0.6588888888888889 0.5222222222222221 1.9255555555555564 0.5222222222222221 0.5555555555555554 0 1.3711111111111105-0.19222222222222385v-2.047777777777778q-0.5555555555555554 0.12222222222222356-0.7644444444444449 0.12222222222222356-0.7300000000000004 0-0.7300000000000004-0.8688888888888897v-3.419999999999998h1.3366666666666678z m5.485555555555557 0.43333333333333357v-2.4111111111111114q-0.26000000000000156-0.053333333333334565-0.48666666666666814-0.053333333333334565-0.5555555555555571 0-0.9633333333333347 0.27777777777777857t-0.5822222222222209 0.7977777777777781l-0.17222222222222072-0.9711111111111137h-2.2744444444444447v8.17777777777778h2.604444444444443v-5.314444444444447q0.4511111111111106-0.5366666666666653 1.4222222222222207-0.5366666666666653 0.27777777777777857 0 0.45222222222222186 0.03333333333333499z m0.6444444444444457 5.816666666666666h2.6033333333333317v-8.17777777777778h-2.604444444444443v8.177777777777777z m10.796666666666667-4.322222222222223q0-2.1188888888888897-0.7800000000000011-3.108888888888888-0.6944444444444429-0.9022222222222211-1.9266666666666659-0.9022222222222211-1.1111111111111107 0-2.0311111111111124 0.9722222222222214l-0.13888888888888928-0.8155555555555551h-2.291111111111114v11.196666666666665l2.604444444444443-0.43333333333333357v-2.6222222222222236q0.6244444444444461 0.19222222222222385 1.1799999999999997 0.19222222222222385 1.4411111111111126 0 2.326666666666668-0.9722222222222214 1.0588888888888874-1.1288888888888877 1.0588888888888874-3.5066666666666677z m-8.12222222222222-6.042222222222222q0-0.5733333333333341-0.3999999999999986-0.9722222222222214t-0.9722222222222214-0.40000000000000036-0.9722222222222214 0.40000000000000036-0.3999999999999986 0.9711111111111119 0.3999999999999986 0.9811111111111117 0.9722222222222214 0.4077777777777776 0.9722222222222214-0.4077777777777776 0.3999999999999986-0.9811111111111117z m15.587777777777774 6.197777777777777q0-1.9622222222222234-0.8333333333333357-3.055555555555557-0.8666666666666671-1.1111111111111107-2.5-1.1111111111111107-1.6666666666666643 0-2.629999999999999 1.1444444444444457t-0.9633333333333347 3.1255555555555574q0 2.2222222222222214 1.0933333333333337 3.2644444444444467 0.9555555555555557 0.9555555555555557 2.795555555555552 0.9555555555555557 1.7533333333333303 0 2.7777777777777786-0.6955555555555542l-0.27777777777777857-1.7888888888888879q-0.9888888888888872 0.5388888888888879-2.2222222222222214 0.5388888888888879-0.7466666666666697 0-1.0933333333333337-0.3299999999999983-0.3999999999999986-0.3299999999999983-0.4866666666666646-1.1444444444444457h4.305555555555557q0.03333333333333144-0.24444444444444358 0.03333333333333144-0.9033333333333324z m2.2222222222222214-11.302222222222223v22.22222222222222q0 0.9022222222222247-0.6599999999999966 1.5622222222222213t-1.5622222222222248 0.6600000000000037h-35.55555555555556q-0.9022222222222216 0-1.5622222222222213-0.6599999999999966t-0.6600000000000001-1.5622222222222248v-22.222222222222225q0-0.902222222222222 0.66-1.5622222222222222t1.5622222222222222-0.6600000000000001h35.55555555555556q0.9022222222222211 0 1.5622222222222248 0.6600000000000001t0.6599999999999966 1.5622222222222222z"></path></svg>