<?xml version="1.0"?><svg xmlns="http://www.w3.org/2000/svg" width="40" height="40" viewBox="0 0 40 40"><path d="m34.28888888888889 21.633333333333333h-2.3966666666666683q0.24444444444444713-0.6444444444444457 1.1444444444444457-3.108888888888888l0.053333333333334565-0.155555555555555q0.07111111111110802-0.1744444444444433 0.17444444444444684-0.45222222222222186t0.15555555555555856-0.4511111111111106l0.20888888888888602 0.9533333333333331z m-25.071111111111115-1.1311111111111103l-1.0066666666666642-5.122222222222224q-0.18888888888889-0.9355555555555544-1.3000000000000007-0.9355555555555544h-4.655555555555556l-0.033333333333333215 0.2255555555555553q5.4 1.3711111111111105 6.996666666666667 5.833333333333334z m3.10888888888889-6.057777777777778l-2.811111111111112 7.604444444444445-0.29666666666666686-1.5444444444444443q-0.4522222222222201-1.2177777777777763-1.4744444444444431-2.2488888888888887t-2.2777777777777777-1.5366666666666653l2.344444444444445 8.855555555555554h3.036666666666667l4.533333333333333-11.13h-3.0555555555555554z m2.413333333333334 11.144444444444444h2.8822222222222234l1.8055555555555536-11.144444444444444h-2.883333333333333z m13.333333333333334-10.866666666666667q-1.1977777777777767-0.46888888888888935-2.586666666666666-0.46888888888888935-2.1355555555555554 0-3.4888888888888907 1.0244444444444447t-1.3722222222222236 2.655555555555557q-0.017777777777777004 1.7722222222222221 2.517777777777777 3.022222222222222 0.8333333333333321 0.3999999999999986 1.1622222222222227 0.7111111111111121t0.3299999999999983 0.6777777777777771q0 0.5222222222222221-0.5222222222222221 0.8000000000000007t-1.1966666666666654 0.27777777777777857q-1.4933333333333323 0-2.7088888888888896-0.5744444444444454l-0.3822222222222216-0.19111111111111256-0.3999999999999986 2.5q1.285555555555554 0.5911111111111111 3.2133333333333347 0.5911111111111111 2.2555555555555564 0.017777777777777004 3.620000000000001-1.0244444444444447t1.397777777777776-2.7777777777777786q0-1.8399999999999999-2.431111111111111-3.022222222222222-0.8511111111111127-0.43333333333333357-1.2333333333333343-0.7277777777777779t-0.3811111111111103-0.6600000000000001q0-0.3811111111111103 0.42666666666666586-0.6666666666666679t1.224444444444444-0.28888888888888786q1.2155555555555573-0.01666666666666572 2.152222222222221 0.41777777777777914l0.26000000000000156 0.13888888888888928z m7.377777777777776-0.27777777777777857h-2.2222222222222214q-1.1288888888888877 0-1.5111111111111128 0.9377777777777787l-4.27 10.20888888888889h3.022222222222222l0.6066666666666656-1.6666666666666679h3.6800000000000033q0.086666666666666 0.3822222222222216 0.34777777777777885 1.6666666666666679h2.673333333333332z m4.548888888888889-5.555555555555554v22.22222222222222q0 0.9022222222222247-0.6599999999999966 1.5622222222222213t-1.5622222222222248 0.6600000000000037h-35.55555555555556q-0.9022222222222216 0-1.5622222222222213-0.6599999999999966t-0.6600000000000001-1.5622222222222248v-22.222222222222225q0-0.902222222222222 0.66-1.5622222222222222t1.5622222222222222-0.6600000000000001h35.55555555555556q0.9022222222222211 0 1.5622222222222248 0.6600000000000001t0.6599999999999966 1.5622222222222222z"></path></svg>