<?xml version="1.0"?><svg viewBox="0 0 40 40" xmlns="http://www.w3.org/2000/svg" height="40" width="40"><path d="m15.3 21.2h4.1q-0.3 3.1-1.9 4.8t-4.2 1.8q-3.2 0-5-2.3t-1.8-6.1q0-3.8 1.8-6.1t4.6-2.3q2.8 0 4.5 1.7t1.9 4.8h-4q-0.1-1.3-0.7-1.9t-1.6-0.7q-1.1 0-1.7 1.2t-0.6 3.4q0 1 0.1 1.7t0.3 1.3 0.8 1 1.3 0.4q1.9 0 2.1-2.7z m13.9 0h4.1q-0.3 3.1-2 4.8t-4.1 1.8q-3.2 0-5-2.3t-1.8-6.1q0-3.8 1.8-6.1t4.6-2.3q2.8 0 4.5 1.7t1.9 4.8h-4q-0.1-1.3-0.7-1.9t-1.6-0.7q-1.1 0-1.7 1.2t-0.6 3.4q0 1 0.1 1.7t0.3 1.3 0.8 1 1.3 0.4q0.9 0 1.5-0.8t0.6-1.9z m7.1-2.4q0-4-0.4-5.9t-1.1-3.2q-0.2-0.2-0.3-0.3t-0.4-0.3-0.3-0.2q-1.7-1.2-13.6-1.2-12.3 0-13.9 1.2-0.1 0.1-0.4 0.2t-0.4 0.3-0.2 0.3q-0.9 1.2-1.2 3.1t-0.3 6q0 4.1 0.3 6.1t1.2 3.1q0.1 0.1 0.2 0.3t0.4 0.3 0.4 0.2q0.8 0.6 4.7 0.9t9.2 0.4q11.9 0 13.6-1.3 0.1-0.1 0.3-0.2t0.4-0.3 0.3-0.3q0.9-1.2 1.2-3.1t0.3-6.1z m3.7-14.8v30h-40v-30h40z"></path></svg>