<?xml version="1.0"?><svg xmlns="http://www.w3.org/2000/svg" width="40" height="40" viewBox="0 0 40 40"><path d="m15.3325 22.1875h4.0425q-0.2749999999999986 3.0874999999999986-1.9250000000000007 4.853749999999998t-4.1875 1.7674999999999983q-3.164999999999999 0-4.9725-2.2662499999999994t-1.8062500000000004-6.171250000000001q0-3.7875000000000014 1.8162500000000001-6.08375t4.549999999999999-2.295q2.8912499999999994 0 4.532499999999999 1.6999999999999993t1.8949999999999996 4.822499999999998h-3.9649999999999963q-0.09750000000000014-1.25-0.6937499999999996-1.9337499999999999t-1.5912500000000005-0.6837499999999999q-1.1125000000000007 0-1.7287499999999998 1.1812499999999986t-0.6162499999999991 3.4662499999999987q0 0.9375 0.09750000000000014 1.6412499999999994t0.34999999999999964 1.3562499999999993 0.7825000000000006 1.0062500000000014 1.2899999999999991 0.3500000000000014q1.8550000000000004 0 2.12875-2.7124999999999986z m13.90625 0h4.025000000000002q-0.2749999999999986 3.0874999999999986-1.9125000000000014 4.853749999999998t-4.181249999999999 1.7674999999999983q-3.1625000000000014 0-4.971249999999998-2.2662499999999994t-1.8062499999999986-6.171250000000001q0-3.7875000000000014 1.8162500000000001-6.08375t4.550000000000001-2.295q2.8912499999999994 0 4.532499999999999 1.6999999999999993t1.8950000000000031 4.822499999999998h-3.986250000000009q-0.07750000000000057-1.25-0.682500000000001-1.9337499999999999t-1.5824999999999996-0.6837499999999999q-1.1125000000000007 0-1.7287500000000016 1.1812499999999986t-0.6149999999999984 3.4662499999999987q0 0.9375 0.09750000000000014 1.6412499999999994t0.35249999999999915 1.3562499999999993 0.7712499999999984 1.0062500000000014 1.2774999999999999 0.3500000000000014q0.9574999999999996 0 1.4937499999999986-0.7412500000000009t0.6537499999999987-1.9725000000000001z m7.01125-2.3249999999999993q0-4.04125-0.302500000000002-5.995000000000001t-1.1812499999999986-3.1449999999999996q-0.11749999999999972-0.15625-0.26250000000000284-0.27500000000000036t-0.42125000000000057-0.2912499999999998-0.3125-0.21499999999999986q-1.6799999999999997-1.2300000000000004-13.6125-1.2300000000000004-12.208749999999998 0-13.86875 1.2287499999999998-0.09625000000000039 0.07874999999999943-0.33999999999999986 0.22499999999999964t-0.41000000000000014 0.27500000000000036-0.2837500000000004 0.28250000000000064q-0.8787500000000001 1.1712500000000006-1.1725000000000003 3.1125000000000007t-0.2925 6.024999999999999q0 4.0625 0.29374999999999973 6.0075t1.1725000000000003 3.134999999999998q0.11749999999999972 0.15625 0.2925000000000004 0.2925000000000004t0.40000000000000036 0.2749999999999986 0.3412500000000005 0.2325000000000017q0.8599999999999994 0.6449999999999996 4.6775 0.9574999999999996t9.190000000000003 0.3125q11.912500000000001 0 13.612499999999997-1.2699999999999996 0.10000000000000142-0.07874999999999943 0.333750000000002-0.21499999999999986t0.3999999999999986-0.2749999999999986 0.26500000000000057-0.3125q0.8999999999999986-1.1712500000000006 1.1912499999999966-3.1037500000000016t0.29000000000000625-6.033749999999998z m3.75-14.8625v30h-40v-30h40z"></path></svg>