<?xml version="1.0"?><svg viewBox="0 0 40 40" xmlns="http://www.w3.org/2000/svg" height="40" width="40"><path d="m23.9 19.1l2.4 2.3q0.5 0.5 0.3 1.3-0.2 0.7-0.9 0.8l-3.2 0.9 0.9 3.2q0.2 0.7-0.3 1.2-0.5 0.6-1.3 0.3l-3.2-0.9-0.8 3.3q-0.2 0.7-0.9 0.9-0.2 0-0.3 0-0.6 0-0.9-0.4l-2.4-2.3-2.3 2.3q-0.5 0.6-1.2 0.4-0.7-0.2-0.9-0.9l-0.8-3.3-3.3 0.9q-0.7 0.3-1.2-0.3-0.5-0.5-0.3-1.2l0.9-3.2-3.3-0.9q-0.7-0.1-0.9-0.8-0.1-0.8 0.4-1.3l2.4-2.3-2.4-2.3q-0.5-0.5-0.4-1.3 0.2-0.7 0.9-0.8l3.3-0.9-0.9-3.2q-0.2-0.7 0.3-1.2 0.5-0.6 1.2-0.4l3.3 1 0.8-3.3q0.2-0.7 0.9-0.9 0.7-0.2 1.2 0.3l2.3 2.5 2.4-2.5q0.5-0.5 1.2-0.3 0.7 0.2 0.9 0.9l0.8 3.3 3.2-1q0.8-0.2 1.3 0.4 0.5 0.5 0.3 1.2l-0.9 3.2 3.2 0.9q0.7 0.1 0.9 0.8 0.2 0.8-0.3 1.3l-2.4 2.3z"></path></svg>