<?xml version="1.0"?><svg xmlns="http://www.w3.org/2000/svg" width="40" height="40" viewBox="0 0 40 40"><path d="m11.22857142857143 28.37142857142857l-5.714285714285714 5.714285714285712q-0.2242857142857142 0.20000000000000284-0.5142857142857142 0.20000000000000284-0.2671428571428569 0-0.5142857142857142-0.20000000000000284-0.20000000000000107-0.22571428571427532-0.20000000000000107-0.5142857142857125t0.20000000000000018-0.5142857142857125l5.7142857142857135-5.714285714285715q0.2242857142857151-0.1999999999999993 0.5142857142857142-0.1999999999999993t0.5142857142857142 0.1999999999999993q0.1999999999999993 0.2242857142857133 0.1999999999999993 0.5142857142857125t-0.1999999999999993 0.5142857142857125z m3.7714285714285722 0.9142857142857146v7.142857142857146q0 0.3142857142857167-0.1999999999999993 0.5142857142857125t-0.514285714285716 0.20000000000000284-0.5142857142857142-0.20000000000000284-0.1999999999999993-0.5142857142857125v-7.142857142857142q0-0.31428571428571317 0.1999999999999993-0.514285714285716t0.5142857142857142-0.1999999999999993 0.5142857142857142 0.1999999999999993 0.1999999999999993 0.5142857142857125z m-5.000000000000002-5q0 0.31428571428571317-0.1999999999999993 0.5142857142857125t-0.5142857142857142 0.1999999999999993h-7.142857142857143q-0.3142857142857143 0-0.5142857142857142-0.1999999999999993t-0.2000000000000004-0.5142857142857125 0.19999999999999996-0.5142857142857125 0.5142857142857142-0.1999999999999993h7.142857142857144q0.31428571428571495 0 0.5142857142857142 0.1999999999999993t0.1999999999999993 0.5142857142857125z m28.214285714285715 2.8571428571428577q0 2.678571428571427-1.8971428571428604 4.531428571428574l-3.2814285714285703 3.25714285714286q-1.8528571428571432 1.8542857142857159-4.53142857142857 1.8542857142857159-2.6999999999999993 0-4.5528571428571425-1.8971428571428604l-7.4571428571428555-7.477142857142859q-0.4671428571428571-0.46857142857142975-0.935714285714285-1.25l5.335714285714284-0.3999999999999986 6.094285714285714 6.114285714285714q0.6042857142857159 0.6028571428571396 1.518571428571427 0.6142857142857139t1.5171428571428578-0.5914285714285725l3.281428571428574-3.2600000000000016q0.6257142857142881-0.6257142857142846 0.6257142857142881-1.4957142857142856 0-0.8914285714285732-0.6257142857142881-1.514285714285716l-6.114285714285714-6.140000000000001 0.3999999999999986-5.3342857142857145q0.7814285714285703 0.468571428571428 1.25 0.9371428571428577l7.5 7.5q1.8728571428571428 1.9200000000000053 1.8728571428571428 4.551428571428573z m-13.771428571428572-16.16l-5.335714285714285 0.40000000000000036-6.092857142857143-6.111428571428571q-0.6285714285714281-0.6257142857142854-1.5185714285714287-0.6257142857142854-0.8714285714285719 0-1.5171428571428578 0.6028571428571432l-3.281428571428572 3.257142857142858q-0.6257142857142846 0.6271428571428554-0.6257142857142846 1.4942857142857129 0 0.8928571428571423 0.6257142857142854 1.5171428571428578l6.114285714285715 6.114285714285714-0.40000000000000036 5.357142857142858q-0.781428571428572-0.4671428571428571-1.25-0.9357142857142868l-7.5-7.5q-1.8757142857142852-1.92-1.8757142857142852-4.5528571428571425 0-2.678571428571429 1.8971428571428575-4.531428571428572l3.281428571428572-3.257142857142857q1.8528571428571414-1.8542857142857136 4.531428571428572-1.8542857142857136 2.6999999999999993-5.551115123125783e-17 4.552857142857141 1.8971428571428572l7.4571428571428555 7.477142857142857q0.4671428571428571 0.468571428571428 0.9357142857142868 1.25z m14.128571428571426 1.8742857142857154q0 0.31428571428571495-0.20000000000000284 0.5142857142857142t-0.5142857142857125 0.1999999999999993h-7.142857142857142q-0.31428571428571317 0-0.514285714285716-0.1999999999999993t-0.19999999999999574-0.5142857142857142 0.1999999999999993-0.5142857142857142 0.514285714285716-0.1999999999999993h7.142857142857146q0.3142857142857167 0 0.5142857142857125 0.1999999999999993t0.19999999999999574 0.5142857142857142z m-12.142857142857139-12.142857142857144v7.142857142857144q0 0.31428571428571495-0.1999999999999993 0.5142857142857142t-0.514285714285716 0.1999999999999993-0.5142857142857125-0.1999999999999993-0.1999999999999993-0.5142857142857142v-7.142857142857143q0-0.3142857142857143 0.1999999999999993-0.5142857142857142t0.5142857142857125-0.20000000000000018 0.5142857142857125 0.2 0.1999999999999993 0.5142857142857142z m9.085714285714289 3.371428571428572l-5.714285714285715 5.714285714285715q-0.24714285714285822 0.1999999999999993-0.5142857142857125 0.1999999999999993t-0.5142857142857125-0.1999999999999993q-0.2000000000000064-0.22571428571428598-0.2000000000000064-0.5142857142857142t0.1999999999999993-0.5142857142857142l5.714285714285715-5.714285714285714q0.2242857142857133-0.20000000000000018 0.5142857142857125-0.20000000000000018t0.5142857142857125 0.20000000000000018q0.20000000000000284 0.2242857142857142 0.20000000000000284 0.5142857142857142t-0.20000000000000284 0.5142857142857142z"></path></svg>