<?xml version="1.0"?><svg xmlns="http://www.w3.org/2000/svg" width="40" height="40" viewBox="0 0 40 40"><path d="m33.92857142857143 27.142857142857142q0-0.8928571428571423-0.6257142857142881-1.5171428571428578l-4.642857142857142-4.642857142857142q-0.6257142857142846-0.6257142857142846-1.5171428571428578-0.6257142857142846-0.937142857142856 0-1.6071428571428577 0.7142857142857153 0.0671428571428585 0.0671428571428585 0.4242857142857126 0.4142857142857146t0.4800000000000004 0.47857142857142776 0.33428571428571274 0.4242857142857126 0.28999999999999915 0.5685714285714276 0.07857142857142918 0.6142857142857139q0 0.8928571428571423-0.6257142857142846 1.5171428571428578t-1.5171428571428542 0.6257142857142881q-0.33428571428571274 0-0.6142857142857139-0.07857142857142918t-0.5685714285714276-0.28999999999999915-0.4242857142857126-0.33428571428571274-0.4800000000000004-0.4800000000000004-0.4142857142857146-0.4242857142857126q-0.7371428571428567 0.6914285714285704-0.7371428571428567 1.62857142857143 0 0.894285714285715 0.6257142857142846 1.518571428571427l4.600000000000001 4.620000000000001q0.6000000000000014 0.6028571428571396 1.514285714285716 0.6028571428571396 0.894285714285715 0 1.518571428571427-0.5799999999999983l3.2814285714285703-3.2571428571428562q0.6257142857142881-0.6285714285714299 0.6257142857142881-1.4971428571428582z m-15.691428571428574-15.737142857142857q0-0.8928571428571423-0.6257142857142846-1.5171428571428578l-4.600000000000001-4.62q-0.6242857142857137-0.6257142857142854-1.5142857142857142-0.6257142857142854-0.8714285714285719 0-1.5185714285714287 0.6028571428571432l-3.281428571428572 3.2571428571428562q-0.6257142857142846 0.6300000000000008-0.6257142857142846 1.4971428571428582 0 0.8928571428571423 0.6257142857142854 1.5171428571428578l4.642857142857143 4.642857142857142q0.6028571428571432 0.6028571428571432 1.5171428571428578 0.6028571428571432 0.9371428571428577 0 1.6071428571428577-0.6914285714285704-0.06714285714285673-0.0671428571428585-0.4242857142857144-0.4142857142857146t-0.4800000000000004-0.47857142857142776-0.3342857142857145-0.4242857142857144-0.28999999999999915-0.5685714285714294-0.07857142857142918-0.6142857142857157q0-0.8928571428571423 0.6257142857142863-1.5171428571428578t1.517142857142856-0.6257142857142846q0.3342857142857145 0 0.6142857142857139 0.07857142857142918t0.5685714285714276 0.2900000000000009 0.4242857142857126 0.3342857142857145 0.4800000000000004 0.4800000000000004 0.4142857142857146 0.4242857142857144q0.7371428571428567-0.6914285714285722 0.7371428571428567-1.6285714285714281z m19.97714285714286 15.737142857142857q0 2.678571428571427-1.8971428571428604 4.531428571428574l-3.2814285714285703 3.25714285714286q-1.8528571428571432 1.8542857142857159-4.53142857142857 1.8542857142857159-2.6999999999999993 0-4.5528571428571425-1.8971428571428604l-4.600000000000001-4.620000000000001q-1.8514285714285705-1.8528571428571432-1.8514285714285705-4.531428571428574 0-2.7457142857142856 1.9642857142857153-4.665714285714287l-1.9642857142857153-1.9642857142857153q-1.9199999999999982 1.9642857142857189-4.642857142857142 1.9642857142857189-2.678571428571429 0-4.5528571428571425-1.8757142857142846l-4.642857142857143-4.642857142857142q-1.8757142857142861-1.875714285714288-1.8757142857142861-4.552857142857146t1.8971428571428575-4.531428571428572l3.281428571428572-3.257142857142857q1.8528571428571414-1.8542857142857136 4.531428571428572-1.8542857142857136 2.6999999999999993-5.551115123125783e-17 4.552857142857141 1.8971428571428572l4.600000000000001 4.62q1.8514285714285705 1.854285714285715 1.8514285714285705 4.531428571428571 0 2.7457142857142856-1.9642857142857153 4.665714285714284l1.9642857142857153 1.9642857142857153q1.9200000000000017-1.9642857142857117 4.642857142857142-1.9642857142857117 2.678571428571427 0 4.5528571428571425 1.8757142857142846l4.642857142857142 4.642857142857142q1.875714285714288 1.875714285714288 1.875714285714288 4.5528571428571425z"></path></svg>