<?xml version="1.0"?><svg xmlns="http://www.w3.org/2000/svg" width="40" height="40" viewBox="0 0 40 40"><path d="m31.517142857142858 16.385714285714286q0-0.6285714285714281-0.3999999999999986-1.0285714285714285l-2.032857142857143-2.008571428571429q-0.42571428571428527-0.4242857142857144-1.0057142857142871-0.4242857142857144t-1.0042857142857144 0.4242857142857144l-9.107142857142858 9.085714285714285-5.042857142857143-5.045714285714286q-0.42571428571428527-0.4242857142857126-1.0057142857142853-0.4242857142857126t-1.0042857142857144 0.4242857142857126l-2.0285714285714285 2.008571428571429q-0.40285714285714214 0.3999999999999986-0.40285714285714214 1.0285714285714285 0 0.6000000000000014 0.40000000000000036 1.0028571428571418l8.081428571428571 8.080000000000002q0.4242857142857126 0.4242857142857126 1.0042857142857144 0.4242857142857126 0.6028571428571432 0 1.0285714285714285-0.4242857142857126l12.118571428571432-12.120000000000001q0.4028571428571439-0.3999999999999986 0.4028571428571439-1.0042857142857144z m5.625714285714288 3.614285714285714q0 4.665714285714287-2.299999999999997 8.604285714285716t-6.237142857142857 6.238571428571426-8.605714285714292 2.3000000000000043-8.6-2.3000000000000043-6.242857142857143-6.238571428571426-2.295714285714286-8.604285714285716 2.3000000000000003-8.604285714285714 6.234285714285714-6.238571428571428 8.604285714285714-2.3000000000000003 8.605714285714285 2.3000000000000003 6.238571428571426 6.238571428571428 2.298571428571435 8.604285714285714z"></path></svg>