<?xml version="1.0"?><svg viewBox="0 0 40 40" xmlns="http://www.w3.org/2000/svg" height="40" width="40"><path d="m20.3 17.7l-7.3 7.3q-0.3 0.3-0.8 0.3t-0.8-0.3l-5.1-5.1q-0.3-0.4-0.3-0.8t0.3-0.8l1.8-1.8q0.3-0.3 0.8-0.3t0.8 0.3l2.5 2.6 4.8-4.8q0.3-0.3 0.8-0.3t0.8 0.3l1.7 1.8q0.4 0.3 0.4 0.8t-0.4 0.8z m1.2 6.1q1.3-2.1 1.3-4.7t-1.3-4.7q-1.3-2.2-3.4-3.5t-4.8-1.2q-2.5 0-4.7 1.2t-3.4 3.5q-1.3 2.1-1.3 4.7t1.3 4.7q1.2 2.2 3.4 3.5t4.7 1.2q2.6 0 4.8-1.2t3.4-3.5z m3.4-11.4q1.8 3.1 1.8 6.7t-1.8 6.7q-1.8 3.1-4.9 4.8t-6.7 1.8q-3.6 0-6.7-1.8t-4.8-4.8q-1.8-3.1-1.8-6.7t1.8-6.7q1.8-3.1 4.8-4.8t6.7-1.8q3.7 0 6.7 1.8t4.9 4.8z"></path></svg>