<?xml version="1.0"?><svg xmlns="http://www.w3.org/2000/svg" width="40" height="40" viewBox="0 0 40 40"><path d="m32.85714285714286 20.757142857142856v7.099999999999998q0 2.6571428571428584-1.8857142857142861 4.5428571428571445t-4.5428571428571445 1.8857142857142861h-18.571428571428573q-2.6571428571428575 0-4.542857142857144-1.8857142857142861t-1.8857142857142855-4.542857142857141v-18.571428571428573q0-2.6571428571428575 1.885714285714286-4.542857142857144t4.542857142857143-1.885714285714284h18.571428571428573q1.4057142857142857 0 2.611428571428572 0.5571428571428574 0.33428571428571274 0.15714285714285703 0.3999999999999986 0.5142857142857142 0.06857142857142762 0.3799999999999999-0.1999999999999993 0.6471428571428568l-1.0942857142857143 1.0942857142857143q-0.2228571428571442 0.22142857142857153-0.514285714285716 0.22142857142857153-0.06571428571428584 0-0.1999999999999993-0.042857142857142705-0.514285714285716-0.13428571428571434-1.0028571428571418-0.13428571428571434h-18.571428571428573q-1.4742857142857142 0-2.524285714285714 1.048571428571429t-1.047142857142858 2.522857142857143v18.571428571428577q0 1.4714285714285715 1.0471428571428572 2.5228571428571414t2.524285714285715 1.048571428571428h18.571428571428573q1.4714285714285715 0 2.5214285714285722-1.048571428571428t1.0499999999999972-2.522857142857145v-5.671428571428571q0-0.28857142857143003 0.1999999999999993-0.48999999999999844l1.428571428571427-1.428571428571427q0.2228571428571442-0.2228571428571442 0.5142857142857125-0.2228571428571442 0.1328571428571408 0 0.2657142857142887 0.06857142857142762 0.4471428571428575 0.17857142857142705 0.4471428571428575 0.6471428571428568z m5.157142857142858-10.914285714285715l-18.171428571428574 18.17142857142857q-0.5357142857142847 0.5357142857142847-1.2714285714285722 0.5357142857142847t-1.274285714285714-0.5357142857142847l-9.6-9.600000000000001q-0.5342857142857138-0.5342857142857156-0.5342857142857138-1.2714285714285722t0.5357142857142856-1.2714285714285722l2.4542857142857146-2.4571428571428573q0.5357142857142865-0.5357142857142865 1.2714285714285722-0.5357142857142865t1.274285714285714 0.5357142857142865l5.872857142857141 5.871428571428575 14.438571428571425-14.442857142857141q0.5357142857142847-0.5357142857142856 1.2714285714285722-0.5357142857142856t1.2742857142857176 0.5357142857142856l2.4571428571428555 2.4571428571428573q0.5342857142857156 0.5342857142857138 0.5342857142857156 1.2714285714285722t-0.5357142857142847 1.2714285714285722z"></path></svg>