<?xml version="1.0"?><svg viewBox="0 0 40 40" xmlns="http://www.w3.org/2000/svg" height="40" width="40"><path d="m28.5 17.2l-8.9 8.9q-0.4 0.4-1 0.4t-0.9-0.4l-6.2-6.2q-0.4-0.4-0.4-1t0.4-0.9l2.2-2.2q0.4-0.4 0.9-0.4t0.9 0.4l3.1 3.1 5.9-5.8q0.4-0.4 0.9-0.4t0.9 0.4l2.2 2.2q0.4 0.4 0.4 0.9t-0.4 1z m3 1.7q0-3.1-1.6-5.8t-4.1-4.1-5.8-1.6-5.8 1.6-4.1 4.1-1.6 5.8 1.6 5.8 4.1 4.1 5.8 1.6 5.8-1.6 4.1-4.1 1.6-5.8z m4.7 0q0 4.4-2.2 8.1t-5.9 5.9-8.1 2.2-8.1-2.2-5.9-5.9-2.2-8.1 2.2-8.1 5.9-5.9 8.1-2.2 8.1 2.2 5.9 5.9 2.2 8.1z"></path></svg>