<?xml version="1.0"?><svg xmlns="http://www.w3.org/2000/svg" width="40" height="40" viewBox="0 0 40 40"><path d="m28.995714285714286 18.147142857142857l-9.420000000000002 9.419999999999998q-0.4242857142857126 0.4242857142857126-1.0042857142857144 0.4242857142857126t-1.0042857142857144-0.4242857142857126l-6.562857142857144-6.562857142857144q-0.4242857142857144-0.4242857142857126-0.4242857142857144-1.0042857142857144t0.4242857142857144-1.0042857142857144l2.2771428571428576-2.277142857142856q0.4242857142857144-0.4242857142857126 1.0042857142857144-0.4242857142857126t1.0042857142857144 0.4242857142857126l3.2814285714285756 3.281428571428574 6.138571428571428-6.138571428571428q0.4242857142857126-0.4242857142857144 1.0042857142857144-0.4242857142857144t1.0042857142857144 0.4242857142857144l2.277142857142856 2.277142857142856q0.4242857142857126 0.4242857142857126 0.4242857142857126 1.0042857142857144t-0.4242857142857126 1.0042857142857144z m3.1471428571428604 1.8528571428571432q0-3.3028571428571425-1.62857142857143-6.094285714285714t-4.4228571428571435-4.42-6.0914285714285725-1.6285714285714281-6.097142857142858 1.6285714285714281-4.417142857142856 4.42-1.6328571428571426 6.094285714285714 1.6285714285714281 6.094285714285714 4.421428571428573 4.419999999999998 6.097142857142856 1.6285714285714334 6.092857142857142-1.62857142857143 4.420000000000002-4.419999999999998 1.6300000000000026-6.094285714285718z m5 0q0 4.665714285714287-2.299999999999997 8.604285714285716t-6.237142857142857 6.238571428571426-8.605714285714292 2.3000000000000043-8.6-2.3000000000000043-6.242857142857143-6.238571428571426-2.295714285714286-8.604285714285716 2.3000000000000003-8.604285714285714 6.234285714285714-6.238571428571428 8.604285714285714-2.3000000000000003 8.605714285714285 2.3000000000000003 6.238571428571426 6.238571428571428 2.298571428571435 8.604285714285714z"></path></svg>