<?xml version="1.0"?><svg xmlns="http://www.w3.org/2000/svg" width="40" height="40" viewBox="0 0 40 40"><path d="m18.147142857142857 28.995714285714286l13.705714285714283-13.705714285714285q0.42428571428571615-0.4242857142857144 0.42428571428571615-1.0042857142857144t-0.4242857142857126-1.0042857142857144l-2.277142857142856-2.2771428571428576q-0.4242857142857126-0.4242857142857144-1.0042857142857144-0.4242857142857144t-1.0042857142857144 0.4242857142857144l-10.424285714285716 10.424285714285716-4.710000000000001-4.710000000000001q-0.4242857142857144-0.4242857142857126-1.0042857142857144-0.4242857142857126t-1.0042857142857144 0.4242857142857126l-2.2771428571428576 2.277142857142856q-0.4242857142857144 0.4242857142857126-0.4242857142857144 1.0042857142857144t0.4242857142857144 1.0042857142857144l7.991428571428573 7.991428571428571q0.4242857142857126 0.4242857142857126 1.0042857142857144 0.4242857142857126t1.0042857142857144-0.4242857142857126z m18.99571428571429-19.71v21.42857142857143q0 2.6571428571428584-1.8857142857142861 4.5428571428571445t-4.5428571428571445 1.8857142857142861h-21.42857142857143q-2.6571428571428575 0-4.542857142857144-1.8857142857142861t-1.885714285714284-4.5428571428571445v-21.42857142857143q0-2.6571428571428575 1.8857142857142857-4.542857142857144t4.542857142857144-1.885714285714284h21.42857142857143q2.6571428571428584 0 4.5428571428571445 1.8857142857142857t1.8857142857142861 4.542857142857144z"></path></svg>