<?xml version="1.0"?><svg xmlns="http://www.w3.org/2000/svg" width="40" height="40" viewBox="0 0 40 40"><path d="m21.004285714285714 28.995714285714286l10.134285714285717-10.134285714285717q0.4242857142857126-0.4242857142857126 0.4242857142857126-1.0042857142857144t-0.4242857142857126-1.0042857142857144l-2.277142857142856-2.2771428571428576q-0.4242857142857126-0.4242857142857144-1.0042857142857144-0.4242857142857144t-1.0042857142857144 0.4242857142857144l-6.852857142857147 6.8528571428571485-6.852857142857143-6.852857142857143q-0.4242857142857144-0.4242857142857144-1.0042857142857144-0.4242857142857144t-1.0042857142857144 0.4242857142857144l-2.2771428571428576 2.277142857142856q-0.4242857142857144 0.4242857142857126-0.4242857142857144 1.0042857142857144t0.4242857142857144 1.0042857142857144l10.134285714285715 10.134285714285713q0.4242857142857126 0.4242857142857126 1.0042857142857144 0.4242857142857126t1.0042857142857144-0.4242857142857126z m16.13857142857143-8.995714285714286q0 4.665714285714287-2.299999999999997 8.604285714285716t-6.237142857142857 6.238571428571426-8.605714285714292 2.3000000000000043-8.6-2.3000000000000043-6.242857142857143-6.238571428571426-2.295714285714286-8.604285714285716 2.3000000000000003-8.604285714285714 6.234285714285714-6.238571428571428 8.604285714285714-2.3000000000000003 8.605714285714285 2.3000000000000003 6.238571428571426 6.238571428571428 2.298571428571435 8.604285714285714z"></path></svg>