<?xml version="1.0"?><svg xmlns="http://www.w3.org/2000/svg" width="40" height="40" viewBox="0 0 40 40"><path d="m32.23142857142857 12.232857142857144l-6.517142857142858 6.517142857142856v18.392857142857146q0 1.028571428571432-0.7371428571428567 1.7628571428571433t-1.7628571428571433 0.7371428571428567-1.7628571428571433-0.7371428571428567-0.7371428571428567-1.7628571428571433v-8.57142857142857h-1.428571428571427v8.57142857142857q0 1.028571428571432-0.7371428571428567 1.7628571428571433t-1.7628571428571433 0.7371428571428567-1.7628571428571433-0.7371428571428567-0.7371428571428584-1.7628571428571433v-18.392857142857146l-6.517142857142858-6.517142857142856q-0.6257142857142854-0.6257142857142863-0.6257142857142854-1.5185714285714287t0.6257142857142854-1.5142857142857142 1.5171428571428578-0.6285714285714299 1.5171428571428578 0.6285714285714281l5.089999999999998 5.085714285714287h8.214285714285715l5.09-5.090000000000002q0.6257142857142881-0.6242857142857137 1.5171428571428578-0.6242857142857137t1.5171428571428578 0.6285714285714281 0.6257142857142881 1.514285714285716-0.6257142857142881 1.5185714285714287z m-7.231428571428573-3.661428571428573q0 2.0757142857142856-1.46142857142857 3.5385714285714283t-3.53857142857143 1.4614285714285717-3.53857142857143-1.46142857142857-1.46142857142857-3.53857142857143 1.46142857142857-3.5385714285714283 3.53857142857143-1.4614285714285713 3.53857142857143 1.4614285714285713 1.46142857142857 3.5385714285714283z"></path></svg>