<?xml version="1.0"?><svg viewBox="0 0 40 40" xmlns="http://www.w3.org/2000/svg" height="40" width="40"><path d="m19.9 0q5.1 0 9.6 2.5 4.8 2.9 7.4 7.9l-15.7-0.8q-3.4-0.2-6.2 1.5t-3.9 4.9l-5.8-9q2.7-3.3 6.6-5.2t8-1.8z m-15.7 8.5l7.1 14q1.5 3 4.4 4.6t6.2 1l-4.8 9.5q-4.5-0.7-8.2-3.4t-5.7-6.6-2.1-8.7q0-5.6 3.1-10.4z m33.4 3.6q1.3 3.2 1.3 6.6t-1 6.4-3.3 5.8-5.1 4.4q-4.9 2.8-10.6 2.5l8.6-13.2q1.8-2.7 1.7-6.1t-2.2-5.8z m-17.6 0.4q2.6 0 4.5 1.9t1.9 4.5-1.9 4.5-4.5 1.9-4.5-1.9-1.9-4.5 1.9-4.5 4.5-1.9z"></path></svg>