<?xml version="1.0"?><svg xmlns="http://www.w3.org/2000/svg" width="40" height="40" viewBox="0 0 40 40"><path d="m20 5.714285714285714q-2.8999999999999986 0-5.547142857142857 1.1385714285714288t-4.5528571428571425 3.047142857142857-3.047142857142857 4.5528571428571425-1.1385714285714288 5.547142857142857 1.1385714285714288 5.547142857142859 3.047142857142857 4.5528571428571425 4.5528571428571425 3.047142857142859 5.547142857142857 1.1385714285714243 5.547142857142859-1.1385714285714315 4.5528571428571425-3.047142857142859 3.047142857142859-4.5528571428571425 1.1385714285714243-5.547142857142852-1.1385714285714315-5.547142857142857-3.047142857142852-4.5528571428571425-4.5528571428571425-3.047142857142857-5.547142857142859-1.1385714285714288z m17.14285714285714 14.285714285714285q0 4.665714285714287-2.299999999999997 8.604285714285716t-6.237142857142857 6.238571428571426-8.605714285714285 2.3000000000000043-8.6-2.3000000000000043-6.242857142857143-6.238571428571426-2.295714285714286-8.604285714285716 2.3000000000000003-8.604285714285714 6.234285714285714-6.238571428571428 8.604285714285714-2.3000000000000003 8.605714285714285 2.3000000000000003 6.238571428571426 6.238571428571428 2.298571428571435 8.604285714285714z"></path></svg>