<?xml version="1.0"?><svg xmlns="http://www.w3.org/2000/svg" width="40" height="40" viewBox="0 0 40 40"><path d="m17.142857142857142 37.142857142857146h19.999999999999996v-14.285714285714288h-9.285714285714285q-0.8928571428571423 0-1.5171428571428578-0.6257142857142846t-0.625714285714281-1.5171428571428578v-9.285714285714286h-8.57142857142857v25.714285714285715z m5.714285714285715-32.142857142857146v-1.4285714285714288q0-0.29000000000000004-0.21142857142856997-0.5028571428571427t-0.5028571428571453-0.2114285714285713h-15.714285714285715q-0.29000000000000004 0-0.5028571428571427 0.2114285714285713t-0.21142857142856997 0.5028571428571431v1.4285714285714284q0 0.29000000000000004 0.21142857142857174 0.5028571428571427t0.5028571428571427 0.21142857142857174h15.714285714285717q0.28999999999999915 0 0.5028571428571418-0.21142857142857174t0.21142857142856997-0.5028571428571427z m5.714285714285715 15h6.674285714285713l-6.674285714285713-6.674285714285714v6.674285714285714z m11.428571428571427 2.8571428571428577v15.000000000000004q0 0.8928571428571459-0.6257142857142881 1.5171428571428578t-1.5171428571428507 0.625714285714281h-21.42857142857143q-0.8928571428571423 0-1.5171428571428578-0.6257142857142881t-0.6257142857142863-1.5171428571428507v-3.5714285714285765h-12.142857142857144q-0.8928571428571423 0-1.517142857142857-0.6257142857142881t-0.6257142857142854-1.5171428571428507v-30q0-0.8928571428571459 0.6257142857142858-1.51714285714286t1.517142857142857-0.6257142857142859h24.285714285714285q0.8928571428571423 0 1.5171428571428578 0.6257142857142858t0.6257142857142881 1.517142857142857v7.321428571428571q0.46857142857142975 0.2900000000000009 0.8028571428571425 0.6242857142857137l9.107142857142858 9.107142857142858q0.6257142857142881 0.6257142857142846 1.0714285714285694 1.6971428571428575t0.4471428571428575 1.9642857142857153z"></path></svg>