<?xml version="1.0"?><svg xmlns="http://www.w3.org/2000/svg" width="40" height="40" viewBox="0 0 40 40"><path d="m22.857142857142858 12.142857142857142v10q0 0.31428571428571317-0.1999999999999993 0.514285714285716t-0.5142857142857125 0.1999999999999993h-7.142857142857142q-0.31428571428571495 0-0.5142857142857142-0.1999999999999993t-0.20000000000000284-0.514285714285716v-1.428571428571427q0-0.31428571428571317 0.1999999999999993-0.5142857142857125t0.5142857142857142-0.20000000000000284h5v-7.857142857142858q0-0.31428571428571495 0.1999999999999993-0.5142857142857142t0.514285714285716-0.1999999999999993h1.428571428571427q0.31428571428571317 0 0.514285714285716 0.1999999999999993t0.1999999999999993 0.5142857142857142z m9.285714285714288 7.857142857142858q0-3.3028571428571425-1.62857142857143-6.094285714285714t-4.4228571428571435-4.42-6.0914285714285725-1.6285714285714281-6.097142857142858 1.6285714285714281-4.417142857142856 4.42-1.6328571428571426 6.094285714285714 1.6285714285714281 6.094285714285714 4.421428571428573 4.419999999999998 6.097142857142856 1.6285714285714334 6.092857142857142-1.62857142857143 4.420000000000002-4.419999999999998 1.6300000000000026-6.094285714285718z m5 0q0 4.665714285714287-2.299999999999997 8.604285714285716t-6.237142857142857 6.238571428571426-8.605714285714292 2.3000000000000043-8.6-2.3000000000000043-6.242857142857143-6.238571428571426-2.295714285714286-8.604285714285716 2.3000000000000003-8.604285714285714 6.234285714285714-6.238571428571428 8.604285714285714-2.3000000000000003 8.605714285714285 2.3000000000000003 6.238571428571426 6.238571428571428 2.298571428571435 8.604285714285714z"></path></svg>