<?xml version="1.0"?><svg xmlns="http://www.w3.org/2000/svg" width="40" height="40" viewBox="0 0 40 40"><path d="m37.142857142857146 36.42857142857143v-24.285714285714285q0-0.28999999999999915-0.21142857142856997-0.5028571428571436t-0.5028571428571453-0.21142857142857352h-24.285714285714285q-0.28999999999999915 0-0.5028571428571436 0.21142857142857174t-0.21142857142857352 0.5028571428571418v24.28571428571429q0 0.28999999999999915 0.21142857142857174 0.5028571428571453t0.5028571428571418 0.21142857142856997h24.28571428571429q0.28999999999999915 0 0.5028571428571453-0.21142857142856997t0.21142857142856997-0.5028571428571453z m2.857142857142854-24.285714285714285v24.285714285714285q0 1.471428571428575-1.048571428571428 2.5228571428571414t-2.5228571428571414 1.048571428571428h-24.285714285714285q-1.4714285714285715 0-2.522857142857143-1.048571428571428t-1.0485714285714316-2.5228571428571414v-24.285714285714285q0-1.4714285714285715 1.048571428571428-2.522857142857143t2.522857142857143-1.0485714285714316h24.28571428571429q1.471428571428575 0 2.5228571428571414 1.048571428571428t1.048571428571428 2.522857142857143z m-8.57142857142857-8.571428571428571v3.5714285714285685h-2.8571428571428577v-3.5714285714285716q0-0.29000000000000004-0.21142857142856997-0.5028571428571431t-0.5028571428571453-0.2114285714285713h-24.285714285714285q-0.29000000000000004 0-0.5028571428571427 0.2114285714285713t-0.21142857142857308 0.5028571428571431v24.285714285714285q0 0.28999999999999915 0.2114285714285713 0.5028571428571418t0.5028571428571431 0.21142857142857352h3.5714285714285716v2.8571428571428577h-3.5714285714285716q-1.4714285714285715 0-2.522857142857143-1.048571428571428t-1.0485714285714285-2.522857142857145v-24.285714285714285q0-1.4714285714285729 1.0485714285714285-2.5228571428571445t2.522857142857143-1.0485714285714285h24.285714285714285q1.4714285714285715 0 2.522857142857145 1.0485714285714285t1.048571428571428 2.522857142857143z"></path></svg>