<?xml version="1.0"?><svg xmlns="http://www.w3.org/2000/svg" width="40" height="40" viewBox="0 0 40 40"><path d="m33.25714285714286 29.50857142857143q0 0.8928571428571423-0.6242857142857119 1.5171428571428578l-3.0357142857142847 3.0357142857142847q-0.6257142857142846 0.6257142857142881-1.5171428571428578 0.6257142857142881t-1.5171428571428578-0.6242857142857119l-6.562857142857148-6.562857142857148-6.562857142857144 6.561428571428571q-0.6257142857142863 0.6257142857142881-1.5171428571428578 0.6257142857142881t-1.5171428571428578-0.6242857142857119l-3.0357142857142856-3.0357142857142847q-0.6257142857142854-0.6257142857142846-0.6257142857142854-1.5171428571428578t0.6242857142857146-1.5171428571428578l6.562857142857145-6.564285714285717-6.561428571428571-6.562857142857144q-0.6257142857142854-0.6257142857142863-0.6257142857142854-1.5171428571428578t0.6242857142857146-1.5171428571428578l3.0357142857142847-3.0357142857142847q0.6257142857142863-0.6257142857142863 1.5171428571428578-0.6257142857142863t1.5171428571428578 0.6242857142857137l6.564285714285713 6.562857142857144 6.562857142857144-6.561428571428571q0.6257142857142846-0.6257142857142863 1.5171428571428578-0.6257142857142863t1.5171428571428578 0.6242857142857137l3.0357142857142883 3.0357142857142847q0.6257142857142881 0.6257142857142863 0.6257142857142881 1.5171428571428578t-0.6242857142857119 1.5171428571428578l-6.562857142857151 6.564285714285717 6.561428571428575 6.562857142857144q0.6257142857142881 0.6257142857142846 0.6257142857142881 1.5171428571428578z"></path></svg>