<?xml version="1.0"?><svg viewBox="0 0 40 40" xmlns="http://www.w3.org/2000/svg" height="40" width="40"><path d="m26.7 18.2q0-0.2-0.2-0.4l-7.4-7.4q-0.1-0.2-0.4-0.2t-0.5 0.2l-7.3 7.3q-0.2 0.3-0.2 0.5 0 0.3 0.2 0.5t0.4 0.2h4.7v7.3q0 0.3 0.2 0.5t0.5 0.2h4q0.2 0 0.4-0.2t0.2-0.5v-7.3h4.7q0.3 0 0.5-0.2t0.2-0.5z m13.3 6q0 3.4-2.3 5.7t-5.7 2.3h-22.7q-3.8 0-6.6-2.7t-2.7-6.6q0-2.7 1.5-5t3.9-3.4q-0.1-0.6-0.1-0.9 0-4.4 3.2-7.6t7.5-3.1q3.3 0 5.9 1.8t4 4.8q1.5-1.3 3.4-1.3 2.2 0 3.8 1.6t1.6 3.8q0 1.6-0.9 2.9 2.7 0.6 4.5 2.8t1.7 4.9z"></path></svg>