<?xml version="1.0"?><svg xmlns="http://www.w3.org/2000/svg" width="40" height="40" viewBox="0 0 40 40"><path d="m22.031428571428574 34.285714285714285h-3.8400000000000034q-0.28999999999999915 0-0.5028571428571418-0.20000000000000284t-0.21142857142856997-0.5142857142857125v-7.3657142857142865h-6.428571428571429q-0.2900000000000009 0-0.5028571428571436-0.1999999999999993t-0.21142857142857174-0.5142857142857125v-2.3000000000000007q0-0.28857142857143003 0.21142857142857174-0.5t0.5028571428571436-0.2142857142857153h6.428571428571429v-1.8957142857142841h-6.428571428571429q-0.2900000000000009 0-0.5028571428571436-0.1999999999999993t-0.21142857142857174-0.5142857142857125v-2.321428571428573q0-0.28999999999999915 0.21142857142857174-0.5028571428571418t0.5028571428571436-0.21142857142856997h4.777142857142858l-7.165714285714287-12.900000000000004q-0.17857142857142883-0.35714285714285676 0-0.714285714285714 0.22285714285714242-0.35999999999999943 0.6257142857142863-0.35999999999999943h4.328571428571427q0.42571428571428527 0 0.6485714285714295 0.3999999999999999l4.800000000000001 9.485714285714288q0.4228571428571435 0.8499999999999996 1.2485714285714273 2.791428571428572 0.2228571428571442-0.5357142857142865 0.6814285714285724-1.5171428571428578t0.6142857142857139-1.361428571428572l4.2642857142857125-9.370000000000001q0.17571428571428882-0.4285714285714275 0.6428571428571495-0.4285714285714275h4.262857142857143q0.379999999999999 0 0.6028571428571432 0.3571428571428572 0.1999999999999993 0.31428571428571406 0.022857142857141355 0.6928571428571431l-6.985714285714284 12.924285714285716h4.797142857142859q0.28999999999999915 0 0.5028571428571418 0.21142857142856997t0.21142857142856997 0.5028571428571418v2.321428571428573q0 0.31428571428571317-0.21142857142856997 0.5142857142857125t-0.5028571428571418 0.1999999999999993h-6.4714285714285715v1.8971428571428568h6.4714285714285715q0.28999999999999915 0 0.5028571428571418 0.21142857142856997t0.21142857142856997 0.5028571428571418v2.3000000000000007q0 0.3114285714285714-0.21142857142856997 0.5114285714285707t-0.5028571428571418 0.1999999999999993h-6.4714285714285715v7.367142857142859q0 0.28999999999999915-0.2142857142857153 0.5028571428571453t-0.5 0.21142857142856997z"></path></svg>