<?xml version="1.0"?><svg viewBox="0 0 40 40" xmlns="http://www.w3.org/2000/svg" height="40" width="40"><path d="m10.7 27.8l-0.9 0.9q-0.1 0.2-0.4 0.2t-0.4-0.2l-8-8.1q-0.2-0.2-0.2-0.4t0.2-0.4l8-8.1q0.2-0.2 0.4-0.2t0.4 0.2l0.9 0.9q0.2 0.2 0.2 0.4t-0.2 0.4l-6.8 6.8 6.8 6.8q0.2 0.2 0.2 0.4t-0.2 0.4z m10.3-18.5l-6.5 22.4q-0.1 0.2-0.3 0.4t-0.4 0l-1.1-0.3q-0.2-0.1-0.3-0.3t0-0.4l6.4-22.4q0.1-0.2 0.3-0.3t0.4-0.1l1.1 0.3q0.2 0.1 0.3 0.3t0.1 0.4z m11.4 11.3l-8.1 8.1q-0.2 0.2-0.4 0.2t-0.4-0.2l-0.9-0.9q-0.2-0.1-0.2-0.4t0.2-0.4l6.8-6.8-6.8-6.8q-0.2-0.2-0.2-0.4t0.2-0.4l0.9-0.9q0.2-0.2 0.4-0.2t0.4 0.2l8.1 8.1q0.2 0.2 0.2 0.4t-0.2 0.4z"></path></svg>