<?xml version="1.0"?><svg viewBox="0 0 40 40" xmlns="http://www.w3.org/2000/svg" height="40" width="40"><path d="m15.3 31.1q0-0.9-0.6-1.5t-1.5-0.6-1.4 0.6-0.6 1.5 0.6 1.4 1.4 0.6 1.5-0.6 0.6-1.4z m0-24.3q0-0.9-0.6-1.5t-1.5-0.6-1.4 0.6-0.6 1.5 0.6 1.4 1.4 0.6 1.5-0.6 0.6-1.4z m13.5 2.7q0-0.9-0.6-1.5t-1.4-0.6-1.5 0.6-0.6 1.5 0.6 1.4 1.5 0.6 1.4-0.6 0.6-1.4z m2 0q0 1-0.5 2t-1.5 1.5q-0.1 6-4.8 8.7-1.4 0.8-4.3 1.7-2.7 0.8-3.6 1.5t-0.8 2.1v0.6q0.9 0.5 1.5 1.4t0.5 2.1q0 1.6-1.2 2.8t-2.9 1.2-2.8-1.2-1.2-2.8q0-1.1 0.5-2.1t1.5-1.4v-17.3q-0.9-0.6-1.5-1.5t-0.5-2q0-1.7 1.2-2.9t2.8-1.2 2.9 1.2 1.2 2.9q0 1-0.5 2t-1.5 1.5v10.4q1.1-0.5 3.2-1.2 1.2-0.3 1.9-0.6t1.5-0.6 1.2-0.9 0.9-1.1 0.5-1.4 0.2-1.9q-0.9-0.6-1.5-1.5t-0.5-2q0-1.7 1.2-2.9t2.9-1.2 2.8 1.2 1.2 2.9z"></path></svg>