<?xml version="1.0"?><svg viewBox="0 0 40 40" xmlns="http://www.w3.org/2000/svg" height="40" width="40"><path d="m3.8 23.8l10.4 7v-6.2l-5.8-3.9-4.6 3.1z m-1.1-2.5l3.3-2.2-3.3-2.2v4.4z m14.2 9.5l10.5-7-4.7-3.1-5.8 3.9v6.2z m-1.3-8.5l4.7-3.2-4.7-3.2-4.8 3.2 4.8 3.2z m-7.2-4.8l5.8-3.9v-6.2l-10.4 7 4.6 3.1z m16.7 1.6l3.3 2.2v-4.4l-3.3 2.2z m-2.4-1.6l4.7-3.1-10.5-7v6.2l5.8 3.9z m8.4-3.1v9.4q0 0.7-0.6 1.1l-14.2 9.5q-0.4 0.3-0.7 0.3t-0.8-0.3l-14.2-9.5q-0.6-0.4-0.6-1.1v-9.4q0-0.8 0.6-1.2l14.2-9.4q0.4-0.3 0.8-0.3t0.7 0.3l14.2 9.4q0.6 0.4 0.6 1.2z"></path></svg>