<?xml version="1.0"?><svg xmlns="http://www.w3.org/2000/svg" width="40" height="40" viewBox="0 0 40 40"><path d="m15 32.85714285714286q0-0.8928571428571423-0.6257142857142863-1.5171428571428578t-1.517142857142856-0.6257142857142881-1.5171428571428578 0.6257142857142846-0.6257142857142846 1.5171428571428613 0.6257142857142863 1.5171428571428578 1.517142857142856 0.625714285714281 1.5171428571428578-0.6257142857142881 0.6257142857142846-1.5171428571428507z m0-25.714285714285715q0-0.8928571428571432-0.6257142857142863-1.5171428571428578t-1.517142857142856-0.6257142857142881-1.5171428571428578 0.6257142857142854-0.6257142857142846 1.5171428571428578 0.6257142857142863 1.517142857142857 1.517142857142856 0.6257142857142863 1.5171428571428578-0.6257142857142863 0.6257142857142846-1.517142857142857z m14.285714285714285 2.8571428571428577q0-0.8928571428571423-0.6257142857142846-1.5171428571428578t-1.5171428571428578-0.6257142857142881-1.5171428571428578 0.6257142857142863-0.6257142857142846 1.517142857142856 0.6257142857142846 1.5171428571428578 1.5171428571428578 0.6257142857142846 1.5171428571428578-0.6257142857142863 0.6257142857142846-1.517142857142856z m2.142857142857146-3.552713678800501e-15q0 1.1600000000000001-0.5799999999999983 2.154285714285715t-1.5628571428571476 1.5514285714285698q-0.04285714285714448 6.405714285714284-5.0428571428571445 9.242857142857142-1.518571428571427 0.8471428571428561-4.532857142857143 1.807142857142857-2.8571428571428577 0.8914285714285697-3.782857142857143 1.5828571428571436t-0.9271428571428544 2.2328571428571458v0.581428571428571q0.9857142857142858 0.5571428571428569 1.5642857142857132 1.5514285714285734t0.5785714285714292 2.152857142857144q0 1.7857142857142847-1.248571428571429 3.037142857142854t-3.0371428571428556 1.2485714285714309-3.0342857142857156-1.2485714285714309-1.251428571428571-3.037142857142854q0-1.1571428571428584 0.581428571428571-2.152857142857144t1.5614285714285732-1.5514285714285734v-18.302857142857142q-0.9800000000000004-0.5571428571428587-1.5600000000000005-1.5500000000000007t-0.5828571428571436-2.1571428571428575q0-1.7857142857142856 1.251428571428571-3.0342857142857147t3.0342857142857156-1.2514285714285713 3.0371428571428574 1.2514285714285713 1.2485714285714273 3.0342857142857147q0 1.161428571428572-0.5785714285714292 2.1571428571428575t-1.5642857142857132 1.548571428571428v11.094285714285714q1.2071428571428555-0.5785714285714292 3.4385714285714286-1.2714285714285722 1.2285714285714278-0.379999999999999 1.952857142857141-0.6571428571428584t1.5742857142857147-0.6928571428571431 1.3171428571428585-0.8814285714285717 0.904285714285713-1.138571428571428 0.6285714285714299-1.5500000000000007 0.1885714285714286-2.0428571428571427q-0.9828571428571422-0.5571428571428569-1.562857142857144-1.5514285714285716t-0.5814285714285674-2.157142857142855q0-1.7857142857142865 1.25-3.0342857142857147t3.0357142857142883-1.251428571428571 3.0357142857142847 1.2514285714285718 1.249999999999993 3.034285714285714z"></path></svg>