<?xml version="1.0"?><svg viewBox="0 0 40 40" xmlns="http://www.w3.org/2000/svg" height="40" width="40"><path d="m5.7 24.7l12.7 8.4v-7.5l-7.1-4.7z m-1.4-3.1l4.1-2.7-4.1-2.7v5.4z m17.3 11.5l12.7-8.4-5.6-3.8-7.1 4.7v7.5z m-1.6-10.4l5.7-3.8-5.7-3.8-5.7 3.8z m-8.7-5.8l7.1-4.7v-7.5l-12.7 8.4z m20.3 2l4.1 2.7v-5.4z m-2.9-2l5.6-3.8-12.7-8.4v7.5z m10.2-3.8v11.6q0 0.8-0.7 1.3l-17.3 11.5q-0.4 0.3-0.9 0.3t-0.9-0.3l-17.3-11.5q-0.7-0.5-0.7-1.3v-11.6q0-0.8 0.7-1.3l17.3-11.5q0.4-0.3 0.9-0.3t0.9 0.3l17.3 11.5q0.7 0.5 0.7 1.3z"></path></svg>