<?xml version="1.0"?><svg viewBox="0 0 40 40" xmlns="http://www.w3.org/2000/svg" height="40" width="40"><path d="m25.4 18.9q0-2.2-1.6-3.8t-3.8-1.6-3.8 1.6-1.6 3.8 1.6 3.8 3.8 1.6 3.8-1.6 1.6-3.8z m10.8-2.3v4.7q0 0.2-0.2 0.5t-0.4 0.2l-3.9 0.6q-0.4 1.2-0.8 2 0.7 1 2.2 2.9 0.3 0.2 0.3 0.5t-0.2 0.5q-0.6 0.8-2.1 2.3t-2 1.5q-0.3 0-0.6-0.2l-2.9-2.3q-0.9 0.5-1.9 0.8-0.3 2.9-0.6 3.9-0.1 0.6-0.8 0.6h-4.6q-0.3 0-0.6-0.2t-0.2-0.4l-0.6-3.9q-1-0.3-1.9-0.8l-3 2.3q-0.2 0.2-0.5 0.2-0.3 0-0.5-0.3-2.7-2.4-3.5-3.5-0.1-0.2-0.1-0.5 0-0.3 0.1-0.5 0.3-0.4 1.1-1.4t1.1-1.5q-0.5-1-0.8-2.1l-3.9-0.5q-0.3-0.1-0.4-0.3t-0.2-0.5v-4.7q0-0.2 0.2-0.5t0.4-0.2l3.9-0.6q0.3-1 0.8-2-0.8-1.2-2.2-2.9-0.3-0.2-0.3-0.5 0-0.2 0.2-0.5 0.6-0.7 2.1-2.2t2-1.6q0.3 0 0.6 0.3l2.9 2.2q0.9-0.5 1.9-0.8 0.3-2.9 0.6-3.9 0.1-0.6 0.8-0.6h4.6q0.3 0 0.6 0.2t0.2 0.4l0.6 3.9q1 0.4 1.9 0.8l3-2.3q0.2-0.2 0.5-0.2 0.3 0 0.5 0.3 2.7 2.5 3.5 3.5 0.1 0.2 0.1 0.5 0 0.3-0.1 0.5-0.3 0.4-1.1 1.4t-1.1 1.5q0.5 1 0.8 2.1l3.9 0.5q0.3 0.1 0.4 0.3t0.2 0.5z"></path></svg>