<?xml version="1.0"?><svg viewBox="0 0 40 40" xmlns="http://www.w3.org/2000/svg" height="40" width="40"><path d="m15.9 8.1q-3.2 0-6 1.1t-4.4 3-1.7 4q0 1.7 1.1 3.3t3.2 2.8l2 1.2-0.7 1.8q0.7-0.4 1.3-0.8l0.9-0.7 1.1 0.2q1.7 0.3 3.2 0.3 3.3 0 6.1-1.1t4.4-3 1.7-4-1.7-4-4.4-3-6.1-1.1z m0-2.7q4.1 0 7.5 1.4t5.4 4 2 5.4-2 5.4-5.4 4-7.5 1.4q-1.8 0-3.7-0.3-2.6 1.8-5.8 2.7-0.8 0.2-1.8 0.3h-0.1q-0.2 0-0.4-0.2t-0.3-0.4q0-0.1 0-0.1t0-0.2 0.1-0.1l0-0.1 0.1-0.1 0.1-0.1 0.1-0.1 0-0.1q0.1-0.2 0.5-0.6t0.6-0.6 0.4-0.6 0.6-0.8 0.4-0.9q-2.6-1.6-4.1-3.8t-1.5-4.7q0-2.9 2-5.4t5.4-4 7.4-1.4z m17.4 24.7q0.2 0.5 0.4 0.9t0.6 0.8 0.4 0.6 0.6 0.6 0.5 0.6q0 0 0 0.1t0.1 0.1 0.1 0.1 0.1 0.1l0 0.1 0.1 0.1 0 0.2 0 0.1q-0.1 0.3-0.3 0.5t-0.5 0.1q-1-0.1-1.8-0.3-3.2-0.9-5.8-2.7-1.9 0.3-3.7 0.3-5.8 0-10-2.8 1.2 0.1 1.8 0.1 3.4 0 6.6-0.9t5.5-2.8q2.7-1.9 4.1-4.4t1.4-5.4q0-1.6-0.5-3.2 2.7 1.5 4.3 3.8t1.6 4.8q0 2.5-1.5 4.7t-4.1 3.8z"></path></svg>