<?xml version="1.0"?><svg xmlns="http://www.w3.org/2000/svg" width="40" height="40" viewBox="0 0 40 40"><path d="m15.714285714285715 8.571428571428571q-3.4142857142857146 0-6.385714285714286 1.1600000000000001t-4.718571428571429 3.1471428571428586-1.7528571428571431 4.2642857142857125q0 1.8285714285714292 1.181428571428571 3.5257142857142867t3.3257142857142856 2.9471428571428575l2.1657142857142855 1.2514285714285727-0.7799999999999994 1.8757142857142846q0.757142857142858-0.4485714285714302 1.3857142857142861-0.8714285714285701l0.9814285714285713-0.6914285714285704 1.185714285714285 0.2228571428571442q1.7400000000000002 0.31428571428571317 3.4142857142857146 0.31428571428571317 3.4142857142857146 0 6.385714285714286-1.1614285714285728t4.719999999999999-3.1485714285714295 1.7485714285714309-4.261428571428571-1.7514285714285727-4.262857142857143-4.7214285714285715-3.147142857142857-6.3842857142857135-1.160000000000002z m0-2.8571428571428577q4.262857142857143 0 7.890000000000001 1.5285714285714285t5.725714285714286 4.162857142857144 2.0985714285714288 5.737142857142857-2.1000000000000014 5.737142857142857-5.724285714285713 4.162857142857142-7.890000000000001 1.528571428571432q-1.92 0-3.928571428571429-0.35714285714285765-2.767142857142858 1.9642857142857153-6.205714285714286 2.8571428571428577-0.8028571428571425 0.1999999999999993-1.92 0.35714285714285765h-0.06714285714285717q-0.24571428571428555 0-0.4571428571428573-0.17857142857142705t-0.2571428571428571-0.46857142857142975q-0.021428571428571352-0.0671428571428585-0.021428571428571352-0.14571428571428768t0.009999999999999787-0.14571428571428413 0.042857142857142705-0.13428571428571345l0.05714285714285694-0.11428571428571388 0.07857142857142874-0.12142857142857011 0.08999999999999986-0.1114285714285721 0.10000000000000009-0.1114285714285721 0.08999999999999986-0.10000000000000142q0.11142857142857165-0.13571428571428612 0.5142857142857142-0.5599999999999987t0.5785714285714287-0.6571428571428584 0.5028571428571427-0.6485714285714295 0.5571428571428569-0.8599999999999994 0.4571428571428573-0.9828571428571422q-2.7642857142857133-1.6028571428571432-4.35-3.94857142857143t-1.5857142857142854-5q0-3.102857142857143 2.1-5.737142857142857t5.724285714285715-4.162857142857143 7.890000000000001-1.5285714285714294z m18.348571428571425 26.09428571428571q0.2228571428571442 0.5357142857142847 0.4571428571428555 0.9828571428571422t0.5571428571428569 0.8599999999999994 0.5042857142857144 0.6471428571428604 0.5799999999999983 0.6571428571428584 0.5142857142857125 0.5571428571428569l0.08857142857142719 0.10000000000000142 0.10000000000000142 0.11428571428571388 0.09000000000000341 0.10999999999999943 0.07857142857142918 0.12285714285714278 0.05714285714285694 0.11142857142856855 0.04285714285714448 0.13571428571428612 0.01142857142857423 0.14571428571428413-0.02142857142857224 0.14571428571428413q-0.06714285714285495 0.3114285714285714-0.28999999999999915 0.490000000000002t-0.4914285714285711 0.15714285714285836q-1.1142857142857139-0.15714285714285836-1.9200000000000017-0.3571428571428541-3.437142857142856-0.894285714285715-6.205714285714286-2.857142857142854-2.008571428571429 0.3571428571428541-3.9285714285714306 0.3571428571428541-6.048571428571428 0-10.535714285714286-2.94857142857143 1.2914285714285754 0.08857142857143074 1.962857142857148 0.08857142857143074 3.5942857142857143 0 6.897142857142857-1.0042857142857144t5.892857142857142-2.8814285714285717q2.789999999999999-2.0528571428571425 4.285714285714285-4.732857142857142t1.4957142857142856-5.66714285714286q0-1.717142857142857-0.5142857142857125-3.3914285714285715 2.8814285714285717 1.5857142857142854 4.554285714285712 3.9714285714285698t1.6742857142857162 5.137142857142859q0 2.6799999999999997-1.585714285714289 5.0142857142857125t-4.3514285714285705 3.9385714285714286z"></path></svg>