<?xml version="1.0"?><svg viewBox="0 0 40 40" xmlns="http://www.w3.org/2000/svg" height="40" width="40"><path d="m14.6 18.9q0-1.1-0.8-1.9t-1.9-0.8-1.9 0.8-0.8 1.9 0.8 1.9 1.9 0.8 1.9-0.8 0.8-1.9z m8.1 0q0-1.1-0.8-1.9t-1.9-0.8-1.9 0.8-0.8 1.9 0.8 1.9 1.9 0.8 1.9-0.8 0.8-1.9z m8.1 0q0-1.1-0.8-1.9t-1.9-0.8-1.9 0.8-0.8 1.9 0.8 1.9 1.9 0.8 1.9-0.8 0.8-1.9z m8.1 0q0 3.7-2.5 6.8t-6.9 4.9-9.5 1.8q-2.3 0-4.5-0.4-3.6 3.7-9.1 4.9-1.1 0.2-1.8 0.2-0.3 0.1-0.5-0.1t-0.3-0.4q-0.1-0.3 0.4-0.8 0.1-0.1 0.5-0.4t0.6-0.5 0.5-0.5 0.5-0.7 0.4-0.8 0.4-1 0.3-1.2 0.3-1.5q-3.1-1.9-4.8-4.6t-1.8-5.7q0-3.7 2.5-6.8t6.9-4.9 9.5-1.8 9.5 1.8 6.9 4.9 2.5 6.8z"></path></svg>