<?xml version="1.0"?><svg viewBox="0 0 40 40" xmlns="http://www.w3.org/2000/svg" height="40" width="40"><path d="m10.5 20.7q0.6-0.7 0.6-1.6t-0.6-1.6q-0.7-0.6-1.6-0.6t-1.6 0.6q-0.6 0.7-0.6 1.6t0.6 1.6q0.7 0.6 1.6 0.6t1.6-0.6z m6.6 0q0.7-0.7 0.7-1.6t-0.7-1.6q-0.6-0.6-1.5-0.6t-1.6 0.6q-0.7 0.7-0.7 1.6t0.7 1.6q0.6 0.6 1.6 0.6t1.5-0.6z m6.7 0q0.6-0.7 0.6-1.6t-0.6-1.6q-0.7-0.6-1.6-0.6t-1.5 0.6q-0.7 0.7-0.7 1.6t0.7 1.6q0.6 0.6 1.5 0.6t1.6-0.6z m5.2-7.2q2.1 2.6 2.1 5.6t-2.1 5.6q-2.1 2.5-5.6 4t-7.8 1.5q-2 0-3.7-0.3-3 3-7.6 4-0.9 0.1-1.5 0.2-0.2 0-0.3-0.1t-0.3-0.3q0-0.3 0.4-0.7 0.1 0 0.4-0.3t0.4-0.4q0.2-0.2 0.4-0.5t0.5-0.5q0.1-0.3 0.3-0.7t0.4-0.8q0.1-0.4 0.2-1t0.2-1.3q-2.5-1.5-4-3.7t-1.4-4.7q0-3 2.1-5.6t5.6-4q3.6-1.5 7.9-1.5t7.8 1.5q3.5 1.5 5.6 4z"></path></svg>