<?xml version="1.0"?><svg viewBox="0 0 40 40" xmlns="http://www.w3.org/2000/svg" height="40" width="40"><path d="m30.8 16.2q0 2.9-2 5.4t-5.4 4-7.5 1.4q-1.8 0-3.7-0.3-2.6 1.8-5.8 2.7-0.8 0.2-1.8 0.3h-0.1q-0.2 0-0.4-0.2t-0.3-0.4q0-0.1 0-0.1t0-0.2 0.1-0.1l0-0.1 0.1-0.1 0.1-0.1 0.1-0.1 0-0.1q0.1-0.2 0.5-0.6t0.6-0.6 0.4-0.6 0.6-0.8 0.4-0.9q-2.6-1.6-4.1-3.8t-1.5-4.7q0-2.9 2-5.4t5.4-4 7.4-1.4 7.5 1.4 5.4 4 2 5.4z m8.1 5.4q0 2.5-1.5 4.7t-4.1 3.8q0.2 0.5 0.4 0.9t0.6 0.8 0.4 0.6 0.6 0.6 0.5 0.6q0 0 0 0.1t0.1 0.1 0.1 0.1 0.1 0.1l0 0.1 0.1 0.1 0 0.2 0 0.1q-0.1 0.3-0.3 0.5t-0.5 0.1q-1-0.1-1.8-0.3-3.2-0.9-5.8-2.7-1.9 0.3-3.7 0.3-5.8 0-10-2.8 1.2 0.1 1.8 0.1 3.4 0 6.6-0.9t5.5-2.8q2.7-1.9 4.1-4.4t1.4-5.4q0-1.6-0.5-3.2 2.7 1.5 4.3 3.8t1.6 4.8z"></path></svg>