<?xml version="1.0"?><svg xmlns="http://www.w3.org/2000/svg" width="40" height="40" viewBox="0 0 40 40"><path d="m17.142857142857142 24.285714285714285l5.714285714285715-2.8571428571428577-5.714285714285715-2.8571428571428577v5.714285714285715z m8.571428571428573-13.191428571428572v12.1l-11.428571428571429 5.714285714285715v-12.100000000000001z m6.428571428571431 8.905714285714287q0-3.3028571428571425-1.62857142857143-6.094285714285714t-4.4228571428571435-4.42-6.0914285714285725-1.6285714285714281-6.097142857142858 1.6285714285714281-4.417142857142856 4.42-1.6328571428571426 6.094285714285714 1.6285714285714281 6.094285714285714 4.421428571428573 4.419999999999998 6.097142857142856 1.6285714285714334 6.092857142857142-1.62857142857143 4.420000000000002-4.419999999999998 1.6300000000000026-6.094285714285718z m5 0q0 4.665714285714287-2.299999999999997 8.604285714285716t-6.237142857142857 6.238571428571426-8.605714285714292 2.3000000000000043-8.6-2.3000000000000043-6.242857142857143-6.238571428571426-2.295714285714286-8.604285714285716 2.3000000000000003-8.604285714285714 6.234285714285714-6.238571428571428 8.604285714285714-2.3000000000000003 8.605714285714285 2.3000000000000003 6.238571428571426 6.238571428571428 2.298571428571435 8.604285714285714z"></path></svg>