<?xml version="1.0"?><svg viewBox="0 0 40 40" xmlns="http://www.w3.org/2000/svg" height="40" width="40"><path d="m13.3 20.2v7.8q0 0.4-0.3 0.8t-0.8 0.3q-0.4 0-0.8-0.3l-2.5-2.5-5.7 5.7q-0.2 0.2-0.4 0.2t-0.4-0.2l-2-1.9q-0.2-0.2-0.2-0.4t0.2-0.4l5.8-5.8-2.5-2.5q-0.4-0.3-0.4-0.8t0.4-0.8q0.3-0.3 0.7-0.3h7.8q0.5 0 0.8 0.3t0.3 0.8z m13-12.1q0.1 0.2 0.1 0.4t-0.1 0.4l-5.8 5.8 2.5 2.5q0.3 0.3 0.3 0.8t-0.3 0.8q-0.3 0.3-0.8 0.3h-7.8q-0.4 0-0.7-0.3t-0.4-0.8v-7.8q0-0.4 0.4-0.8t0.7-0.3q0.5 0 0.8 0.3l2.5 2.5 5.8-5.7q0.2-0.2 0.4-0.2t0.4 0.2l2 1.9z"></path></svg>