<?xml version="1.0"?><svg xmlns="http://www.w3.org/2000/svg" width="40" height="40" viewBox="0 0 40 40"><path d="m40 19.98q0 0.41000000000000014-0.2537499999999966 0.7124999999999986t-0.6450000000000031 0.3812500000000014l-4.001250000000006 6.951250000000002q0.05875000000000341 0.1750000000000007 0.05875000000000341 0.3500000000000014 0 0.3924999999999983-0.24374999999999858 0.6950000000000003t-0.634999999999998 0.3812500000000014l-3.7699999999999996 6.5825q0.05874999999999986 0.15500000000000114 0.05874999999999986 0.3125 0 0.447499999999998-0.32250000000000156 0.7800000000000011t-0.7912500000000016 0.3325000000000031q-0.4875000000000007 0-0.8000000000000007-0.3500000000000014h-7.8125q-0.33374999999999844 0.39000000000000057-0.8412499999999987 0.39000000000000057t-0.8412499999999987-0.39124999999999943h-7.793749999999999q-0.33250000000000135 0.3924999999999912-0.8412500000000005 0.3924999999999912-0.4474999999999998 0-0.7799999999999994-0.322499999999998t-0.3324999999999996-0.791249999999998q0-0.15500000000000114 0.07874999999999943-0.39000000000000057l-3.7699999999999996-6.5425q-0.3912500000000003-0.07874999999999943-0.6349999999999998-0.3812500000000014t-0.2450000000000001-0.6950000000000003q0-0.1750000000000007 0.05874999999999986-0.3500000000000014l-4.021250000000001-6.952500000000001q-0.3912500000000002-0.09750000000000014-0.6350000000000002-0.3999999999999986t-0.2437499999999999-0.6937500000000014q0-0.41000000000000014 0.2625-0.7124999999999986t0.65375-0.3812500000000014l3.8875-6.71875q0-0.019999999999999574-0.012500000000000178-0.05874999999999986t-0.008750000000000036-0.05874999999999986q0-0.6999999999999993 0.6625000000000005-0.995000000000001l4.08375-7.09q-0.07874999999999943-0.19499999999999984-0.07874999999999943-0.3500000000000001 0-0.4700000000000002 0.3324999999999996-0.7925t0.7799999999999994-0.32374999999999865q0.5087499999999991 0 0.8625000000000007 0.41000000000000014h7.733750000000001q0.3125-0.41000000000000014 0.8412499999999987-0.41000000000000014t0.8374999999999986 0.41000000000000014h7.774999999999999q0.350000000000005-0.41000000000000014 0.860000000000003-0.41000000000000014 0.4499999999999993 0 0.78125 0.3224999999999998t0.3324999999999996 0.7912499999999998q0 0.11874999999999991-0.0799999999999983 0.35250000000000004l4.042499999999997 6.992500000000001q0.45000000000000284 0.019999999999999574 0.7625000000000028 0.3412500000000005t0.3125 0.75q0 0.2550000000000008-0.13750000000000284 0.5287500000000005l3.6525000000000034 6.328749999999998q0.3712500000000034 0.07874999999999943 0.615000000000002 0.3812500000000014t0.24374999999999858 0.6950000000000003z m-19.2375 15.607499999999998h7.596250000000001l-6.68-6.914999999999999h-2.7912500000000016l-6.681249999999999 6.912500000000001h7.03125q0.3500000000000014-0.3125 0.7624999999999993-0.3125t0.7600000000000016 0.3125z m-18.575-15.8625q0.020000000000000018 0.0799999999999983 0.020000000000000018 0.254999999999999 0 0.19500000000000028-0.03750000000000009 0.2925000000000004l4.0625 7.03125q0.037499999999999645 0 0.08750000000000036 0.019999999999999574t0.10625000000000018 0.04749999999999943l0.09999999999999964 0.05000000000000071 3.6712499999999997-3.8874999999999993v-6.7775l-3.6525-3.7874999999999996q-0.25375000000000014 0.15499999999999936-0.5662500000000001 0.19374999999999964z m17.07-15.312499999999996h-7.577500000000001l3.7125000000000004 3.907499999999999 10.81875-3.90625h-5.469999999999999q-0.3125 0.3125-0.7424999999999997 0.3125t-0.7424999999999997-0.3125z m13.729999999999997 23.674999999999997q0.02125000000000199-0.11874999999999858 0.10000000000000142-0.21624999999999872l-1.25-1.3275000000000006-0.33374999999999844 1.5425000000000004h1.485000000000003z m-2.0700000000000003 0l0.4299999999999997-2.0524999999999984-4.922499999999999-5.195-5.78125 5.99625 1.2300000000000004 1.25h9.041250000000002z m-1.71875 7.1875l0.3125-0.5499999999999972 1.2687500000000007-6.053750000000001h-8.34l6.50375 6.700000000000003q0.15625-0.0799999999999983 0.25375000000000014-0.10000000000000142z m-17.9125 0.3125h0.09999999999999964l6.678749999999999-6.914999999999999h-7.283749999999994v6.542500000000004l0.07874999999999943 0.11749999999999972q0.27500000000000036 0.09749999999999659 0.4299999999999997 0.2537499999999966z m-0.5062499999999996-7.5h7.85l1.25-1.2899999999999991-6.0337499999999995-6.27-3.06625 3.2424999999999997v4.31625z m-3.7699999999999996 0h3.182499999999999v-3.692499999999999l-3.279999999999995 3.4574999999999996q0.08000000000000007 0.15625 0.09999999999999964 0.23375000000000057z m-0.01874999999999627-16.11625q0 0.02000000000000135 0.009999999999999787 0.03750000000000142t0.009999999999999787 0.03999999999999915q0 0.3125-0.15625 0.5662500000000001l3.3400000000000007 3.4574999999999996v-5.253749999999997z m3.7874999999999988-1.367499999999998v6.075000000000001l2.99 3.0650000000000013 5.799999999999999-6.1325-4.35375-4.608750000000001z m0.07874999999999943-5.9375l-0.07874999999999943 0.15625v5.154999999999999l4.00375-1.4450000000000003-3.7300000000000004-3.9250000000000007q-0.11749999999999972 0.037499999999999645-0.19500000000000028 0.05750000000000011z m17.405-0.25374999999999925h-0.3125l-12.13 4.375000000000001 4.159999999999998 4.39625z m-8.282500000000002 9.6125l-5.800000000000001 6.150000000000002 6.072500000000002 6.231249999999999 5.78125-5.99625z m-6.5425 6.092499999999998l-2.6562499999999964-2.754999999999999v5.550000000000001z m6.837499999999999 7.108750000000001l-0.8212499999999991 0.8625000000000007h1.6600000000000001z m6.5625-6.795000000000002l4.647500000000001 4.9025 2.578750000000003-12.1875-0.05749999999999744-0.09750000000000014-0.020000000000003126-0.019999999999999574z m6.717499999999998-7.8125q-0.15625-0.25375000000000014-0.15625-0.5662500000000001v-0.037499999999999645l-4.219999999999999-7.34375q-0.09750000000000014-0.019999999999999574-0.25375000000000014-0.09750000000000014l-8.532499999999995 9.038750000000002 6.053750000000001 6.387499999999999z m-23.359999999999992-2.42375v-4.354999999999998l-3.1825 5.507499999999999z m0 18.474999999999994h-3.1825l3.1825 5.528750000000002v-5.528750000000002z m21.19125 0l-0.9375 4.435000000000002 2.537499999999998-4.43375h-1.6000000000000014z m2.3824999999999967-1.365000000000002l4.042500000000004-7.050000000000001q-0.03750000000000142-0.19624999999999915-0.03750000000000142-0.2749999999999986 0-0.019999999999999574 0.05749999999999744-0.3125l-3.3387499999999974-5.779999999999994-2.5199999999999996 11.95 1.5037500000000001 1.6024999999999991q0.10000000000000142-0.05874999999999986 0.29375000000000284-0.1374999999999993z"></path></svg>