<?xml version="1.0"?><svg viewBox="0 0 40 40" xmlns="http://www.w3.org/2000/svg" height="40" width="40"><path d="m35.6 19.1q0 0.3-0.3 0.6t-0.5 0.4l-3.6 6.1q0.1 0.2 0.1 0.3 0 0.4-0.3 0.7t-0.5 0.3l-3.4 5.8q0.1 0.2 0.1 0.3 0 0.4-0.3 0.7t-0.7 0.3q-0.5 0-0.7-0.3h-7q-0.3 0.4-0.7 0.4t-0.8-0.4h-6.9q-0.3 0.4-0.7 0.4-0.4 0-0.7-0.3t-0.3-0.7q0-0.2 0-0.4l-3.3-5.8q-0.4-0.1-0.6-0.3t-0.2-0.7q0-0.1 0.1-0.3l-3.6-6.1q-0.4-0.1-0.6-0.4t-0.2-0.6q0-0.4 0.2-0.7t0.6-0.3l3.5-6q0 0 0 0t0-0.1q0-0.6 0.5-0.9l3.7-6.3q-0.1-0.1-0.1-0.3 0-0.4 0.3-0.7t0.7-0.3q0.4 0 0.8 0.4h6.8q0.3-0.4 0.8-0.4t0.7 0.4h6.9q0.3-0.4 0.8-0.4 0.4 0 0.7 0.3t0.3 0.7q0 0.1-0.1 0.3l3.6 6.3q0.4 0 0.7 0.3t0.3 0.6q0 0.3-0.2 0.5l3.3 5.6q0.3 0.1 0.5 0.4t0.3 0.6z m-17.1 13.9h6.7l-5.9-6.2h-2.5l-5.9 6.2h6.2q0.3-0.3 0.7-0.3t0.7 0.3z m-16.6-14.1q0.1 0 0.1 0.2 0 0.2-0.1 0.2l3.6 6.3q0.1 0 0.1 0t0.1 0.1l0.1 0 3.3-3.5v-6l-3.3-3.4q-0.2 0.2-0.5 0.2l-3.4 5.9z m15.2-13.7h-6.7l3.3 3.5 9.6-3.5h-4.9q-0.2 0.3-0.6 0.3t-0.7-0.3z m12.2 21.1q0-0.1 0.1-0.2l-1.1-1.2-0.3 1.4h1.3z m-1.8 0l0.4-1.8-4.4-4.7-5.1 5.4 1 1.1h8.1z m-1.5 6.4l0.2-0.5 1.2-5.4h-7.5l5.8 6q0.2-0.1 0.3-0.1z m-16 0.3h0.1l6-6.2h-6.5v5.8l0.1 0.1q0.2 0.1 0.3 0.3z m-0.4-6.7h7l1.1-1.2-5.4-5.5-2.7 2.8v3.9z m-3.4 0h2.9v-3.3l-3 3.1q0.1 0.1 0.1 0.2z m0-14.3q0 0 0 0t0 0q0 0.3-0.1 0.5l3 3.1v-4.7l-2.9 1.1z m3.4-1.3v5.4l2.6 2.8 5.2-5.5-3.9-4.1-3.9 1.4z m0.1-5.2l-0.1 0.1v4.6l3.5-1.3-3.3-3.5q-0.1 0.1-0.1 0.1z m15.4-0.3h-0.3l-10.7 3.9 3.7 3.9 7.3-7.8z m-7.3 8.6l-5.2 5.5 5.4 5.5 5.1-5.3-5.3-5.7z m-5.9 5.4l-2.3-2.4v4.9l2.3-2.5z m6.1 6.3l-0.7 0.8h1.5l-0.8-0.8z m5.9-6l4.1 4.3 2.3-10.8-0.1-0.1 0 0-6.3 6.6z m5.9-7q-0.1-0.2-0.1-0.5v0l-3.8-6.5q0 0-0.2-0.1l-7.6 8 5.4 5.7 6.3-6.6z m-20.7-2.1v-3.9l-2.9 4.9 2.9-1z m0 16.4h-2.9l2.9 4.9v-4.9z m18.8 0l-0.8 3.9 2.2-3.9h-1.4z m2.1-1.2l3.6-6.3q0-0.2 0-0.2 0 0 0-0.3l-2.9-5.1-2.3 10.6 1.4 1.4q0 0 0.2-0.1z"></path></svg>