<?xml version="1.0"?><svg viewBox="0 0 40 40" xmlns="http://www.w3.org/2000/svg" height="40" width="40"><path d="m2.4 5.8h3.4q-1.2 1.1-2.2 2.5-0.6 1-1 2t-0.5 2.2q-0.1 1.2-0.2 2.1t0.2 2.3q0.2 1.4 0.4 2.2t0.5 2.4q0 0.3 0.1 0.4 0.9 4.2 1.4 5.8 1 2.9 2.6 4.7h-4.7q-0.8 0-1.4-0.6t-0.6-1.4v-22.6q0-0.9 0.6-1.4t1.4-0.6z m21 0h5.3q0.8 0 1.4 0.6t0.6 1.4v22.6q0 0.8-0.6 1.4t-1.4 0.6h-3.1q3.7-3.6 3.4-9.8l-8.1 1.8q0 0.8-0.2 1.4t-0.6 1.2q-0.3 0.7-1 1.1t-1.6 0.6q-2.2 0.5-3.5-0.7-0.5-0.4-0.9-1t-0.9-2.3q-0.5-1.6-1.1-4.5-0.6-2.8-0.8-4.5t-0.1-2.4q0.1-0.7 0.4-1.4 0.4-0.7 1.1-1.2t1.8-0.8q0.8-0.2 1.4-0.1t1.2 0.3q0.5 0.2 0.9 0.6t0.8 0.8q0.3 0.4 0.6 1l8.1-1.8q-1.2-3-3.1-4.9z"></path></svg>