<?xml version="1.0"?><svg viewBox="0 0 40 40" xmlns="http://www.w3.org/2000/svg" height="40" width="40"><path d="m20 22.2v1.9q0 0.8-0.7 1.5t-1.6 1.1q-1 0.3-2 0.5t-2.1 0.2q-3.5 0-5.9-2.4t-2.4-6q0-3.5 2.3-5.9t5.9-2.3q0.6 0 1.3 0t1.6 0.4q0.9 0.2 1.7 0.5t1.2 1q0.4 0.6 0.4 1.4v1.9q0 0.3-0.2 0.3h-2.1q-0.3 0-0.3-0.3v-1.2q0-0.7-1.1-1.2t-2.4-0.4q-2.4 0-4 1.6t-1.5 4.1q0 2.6 1.6 4.4t4.1 1.7q1.1 0 2.3-0.5t1.3-1.1v-1.2q0-0.1 0-0.2t0.2-0.1h2.1q0.1 0 0.2 0.1t0.1 0.2z m-2.4-13.3q-2-0.9-4.3-0.9t-4.3 0.9q-2 0.9-3.5 2.3t-2.4 3.6q-0.9 2-0.9 4.3t0.9 4.3q0.9 2.1 2.4 3.6t3.5 2.3q2.1 0.9 4.3 0.9t4.3-0.9q2.1-0.9 3.6-2.3t2.4-3.6q0.8-2 0.8-4.3t-0.8-4.3q-0.9-2.1-2.4-3.6t-3.6-2.3z m7.3 3.5q1.8 3.1 1.8 6.7t-1.8 6.7q-1.8 3.1-4.9 4.8t-6.7 1.8q-3.6 0-6.7-1.8t-4.8-4.8q-1.8-3.1-1.8-6.7t1.8-6.7q1.8-3.1 4.8-4.8t6.7-1.8q3.7 0 6.7 1.8t4.9 4.8z"></path></svg>