<?xml version="1.0"?><svg viewBox="0 0 40 40" xmlns="http://www.w3.org/2000/svg" height="40" width="40"><path d="m13.9 26q3.2 0 5.4-2.2 0.3-0.4 0-0.7l-0.9-1.8q-0.1-0.2-0.5-0.3-0.3-0.1-0.6 0.2l-0.1 0.1q0 0-0.2 0.2t-0.4 0.3-0.5 0.3-0.6 0.2-0.7 0.2-0.8 0.1q-1.6 0-2.6-1t-1-2.7q0-1.6 1-2.7t2.5-1q0.8 0 1.6 0.3t1 0.6l0.4 0.3q0.2 0.2 0.5 0.2 0.3-0.1 0.5-0.3l1.1-1.7q0.3-0.4 0-0.8-0.1-0.1-0.2-0.2t-0.7-0.5-1-0.6-1.4-0.5-1.8-0.2q-3.2 0-5.2 2t-2.1 5.1q0 3.1 2.1 5.1t5.2 2z m13.3 0q3.2 0 5.4-2.2 0.3-0.4 0.1-0.7l-1-1.8q-0.2-0.3-0.5-0.3-0.4-0.1-0.6 0.2l-0.1 0.1q-0.1 0-0.2 0.2t-0.4 0.3-0.5 0.3-0.6 0.2-0.7 0.2-0.8 0.1q-1.6 0-2.6-1t-1.1-2.7q0-1.6 1.1-2.7t2.5-1q0.8 0 1.5 0.3t1.1 0.6l0.3 0.3q0.3 0.2 0.6 0.2 0.3-0.1 0.5-0.3l1.1-1.7q0.3-0.4 0-0.8-0.1-0.1-0.3-0.2t-0.6-0.5-1-0.6-1.4-0.5-1.8-0.2q-3.1 0-5.2 2t-2.1 5.1q0 3.1 2 5.1t5.3 2z m-7.2-22.6q-3.2 0-6 1.2t-5 3.3-3.3 5-1.2 6 1.2 6 3.3 5 5 3.3 6 1.2 6-1.2 5-3.3 3.3-5 1.2-6-1.2-6-3.3-5-5-3.3-6-1.2z m0-3.4q3.8 0 7.3 1.5t6.1 4 4 6.1 1.5 7.3-1.5 7.3-4 6.1-6.1 4-7.3 1.5-7.3-1.5-6.1-4-4-6.1-1.5-7.3 1.5-7.3 4-6.1 6.1-4 7.3-1.5z"></path></svg>