<?xml version="1.0"?><svg xmlns="http://www.w3.org/2000/svg" width="40" height="40" viewBox="0 0 40 40"><path d="m13.504285714285714 27.52285714285714q3.4142857142857146 0 5.737142857142857-2.321428571428573 0.3114285714285714-0.3999999999999986 0.06571428571428584-0.8000000000000007l-1.0042857142857144-1.831428571428571q-0.13428571428571345-0.28999999999999915-0.5357142857142847-0.379999999999999-0.35714285714285765-0.04285714285714448-0.6028571428571432 0.24571428571428555l-0.08999999999999986 0.0671428571428585q-0.08999999999999986 0.09142857142857252-0.25714285714285623 0.2242857142857133t-0.39000000000000057 0.28999999999999915-0.524285714285714 0.32428571428571473-0.6357142857142861 0.3000000000000007-0.7471428571428564 0.2142857142857153-0.8371428571428563 0.07714285714285651q-1.6999999999999993 0-2.791428571428572-1.1142857142857139t-1.0942857142857143-2.8342857142857163q0-1.6971428571428575 1.0714285714285712-2.8000000000000007t2.7228571428571424-1.105714285714285q0.8257142857142856 0 1.5957142857142852 0.31428571428571317t1.1285714285714281 0.6242857142857154l0.35714285714285765 0.3114285714285714q0.24285714285714377 0.24571428571428555 0.5785714285714292 0.2228571428571442 0.35714285714285765-0.04285714285714448 0.5357142857142847-0.31428571428571317l1.1828571428571415-1.7400000000000002q0.2914285714285718-0.4471428571428575-0.04285714285714448-0.8714285714285719-0.0671428571428585-0.08857142857142897-0.24571428571428555-0.2657142857142851t-0.6714285714285708-0.524285714285714-1.081428571428571-0.6257142857142863-1.5057142857142853-0.5028571428571436-1.92-0.22285714285714242q-3.3028571428571425 0-5.491428571428571 2.154285714285715t-2.185714285714286 5.368571428571428q0 3.2571428571428562 2.1642857142857137 5.390000000000001t5.514285714285714 2.1314285714285717z m14.06285714285714 0q3.4142857142857146 0 5.737142857142857-2.321428571428573 0.3142857142857167-0.3999999999999986 0.09000000000000341-0.8000000000000007l-1.0042857142857144-1.831428571428571q-0.1785714285714306-0.31428571428571317-0.5571428571428569-0.379999999999999-0.35714285714285765-0.04285714285714448-0.6042857142857159 0.24571428571428555l-0.08999999999999986 0.0671428571428585q-0.08999999999999986 0.09142857142857252-0.25714285714285623 0.2242857142857133t-0.39000000000000057 0.28999999999999915-0.524285714285714 0.32428571428571473-0.6357142857142861 0.3000000000000007-0.7471428571428582 0.2142857142857153-0.8385714285714272 0.07714285714285651q-1.6971428571428575 0-2.789999999999999-1.1142857142857139t-1.0942857142857143-2.8342857142857163q0-1.6971428571428575 1.071428571428573-2.8000000000000007t2.722857142857144-1.105714285714285q0.8257142857142838 0 1.595714285714287 0.31428571428571317t1.12857142857143 0.6242857142857154l0.35714285714285765 0.3114285714285714q0.24285714285714377 0.24571428571428555 0.5785714285714292 0.2228571428571442 0.35714285714285765-0.04285714285714448 0.5357142857142847-0.31428571428571317l1.182857142857145-1.7400000000000002q0.28999999999999915-0.4471428571428575-0.04285714285714448-0.8714285714285719-0.06857142857143117-0.08857142857142897-0.24714285714285467-0.2657142857142851t-0.6714285714285708-0.524285714285714-1.081428571428571-0.6257142857142863-1.5071428571428562-0.5028571428571436-1.9200000000000017-0.22285714285714242q-3.2814285714285703 0-5.48 2.154285714285715t-2.1999999999999993 5.368571428571428q0 3.2571428571428562 2.1671428571428564 5.390000000000001t5.5142857142857125 2.1314285714285717z m-7.567142857142855-23.95142857142857q-3.3485714285714288-1.3322676295501878e-15-6.385714285714286 1.3057142857142843t-5.2314285714285695 3.5042857142857144-3.505714285714287 5.232857142857142-1.3057142857142856 6.385714285714286 1.3057142857142856 6.385714285714286 3.5042857142857144 5.232857142857142 5.234285714285715 3.5042857142857144 6.3842857142857135 1.3057142857142878 6.385714285714286-1.3057142857142878 5.232857142857142-3.5042857142857144 3.5042857142857144-5.234285714285715 1.3057142857142878-6.3842857142857135-1.3057142857142878-6.385714285714286-3.5042857142857144-5.232857142857142-5.234285714285715-3.5042857142857144-6.3842857142857135-1.3057142857142856z m0-3.571428571428573q4.062857142857144 0 7.767142857142858 1.5857142857142859t6.385714285714286 4.2614285714285725 4.261428571428574 6.385714285714284 1.5857142857142819 7.764285714285716-1.585714285714289 7.765714285714285-4.262857142857143 6.385714285714286-6.385714285714286 4.261428571428574-7.765714285714282 1.5857142857142819-7.767142857142858-1.585714285714289-6.385714285714285-4.261428571428574-4.261428571428572-6.385714285714286-1.5857142857142854-7.762857142857136 1.5857142857142859-7.7714285714285705 4.262857142857143-6.385714285714285 6.385714285714286-4.261428571428572 7.765714285714285-1.5814285714285727z"></path></svg>