<?xml version="1.0"?><svg viewBox="0 0 40 40" xmlns="http://www.w3.org/2000/svg" height="40" width="40"><path d="m10.5 24.9q2.7 0 4.5-1.8 0.2-0.3 0-0.6l-0.8-1.4q-0.1-0.2-0.4-0.3-0.3 0-0.4 0.2l-0.1 0q-0.1 0.1-0.2 0.2t-0.3 0.2q-0.2 0.2-0.4 0.3t-0.5 0.2q-0.3 0.1-0.6 0.2t-0.7 0.1q-1.3 0-2.1-0.9t-0.9-2.2q0-1.3 0.9-2.2t2.1-0.9q0.6 0 1.2 0.3t0.9 0.5l0.3 0.2q0.2 0.2 0.4 0.2 0.3 0 0.4-0.3l1-1.3q0.2-0.4-0.1-0.7 0-0.1-0.2-0.2t-0.5-0.4q-0.4-0.3-0.8-0.5t-1.2-0.4q-0.7-0.2-1.5-0.2-2.6 0-4.3 1.7t-1.7 4.2q0 2.5 1.7 4.2t4.3 1.6z m10.9 0q2.7 0 4.5-1.8 0.2-0.3 0.1-0.6l-0.8-1.4q-0.1-0.3-0.4-0.3-0.3 0-0.5 0.2l-0.1 0q-0.1 0.1-0.2 0.2t-0.3 0.2q-0.2 0.2-0.4 0.3t-0.5 0.2q-0.2 0.1-0.6 0.2t-0.6 0.1q-1.3 0-2.2-0.9t-0.8-2.2q0-1.3 0.8-2.2t2.1-0.9q0.7 0 1.3 0.3t0.8 0.5l0.3 0.2q0.2 0.2 0.5 0.2 0.2 0 0.4-0.3l0.9-1.3q0.2-0.4 0-0.7-0.1-0.1-0.2-0.2t-0.6-0.4q-0.3-0.3-0.8-0.5t-1.2-0.4q-0.7-0.2-1.5-0.2-2.5 0-4.2 1.7t-1.7 4.2q0 2.5 1.7 4.2t4.2 1.6z m-0.9-17.6q-2.3-1-4.9-1t-5 1q-2.4 1-4.1 2.8t-2.7 4q-1 2.4-1 5t1 5q1 2.3 2.7 4t4.1 2.8q2.4 1 5 1t4.9-1q2.4-1.1 4.1-2.8t2.7-4q1-2.4 1-5t-1-5q-1-2.3-2.7-4t-4.1-2.8z m-11-2.5q2.9-1.3 6.1-1.3t6 1.3q2.9 1.2 5 3.3t3.3 5q1.2 2.8 1.2 6t-1.2 6q-1.3 2.9-3.3 5t-5 3.3q-2.9 1.3-6 1.3t-6.1-1.3q-2.9-1.2-5-3.3t-3.3-5q-1.2-2.8-1.2-6t1.2-6q1.3-2.9 3.3-5t5-3.3z"></path></svg>