<?xml version="1.0"?><svg xmlns="http://www.w3.org/2000/svg" width="40" height="40" viewBox="0 0 40 40"><path d="m13.86142857142857 28.571428571428573h13.281428571428572v-13.281428571428572z m-1.0042857142857127-1.0042857142857144l13.281428571428574-13.281428571428572h-13.281428571428574v13.281428571428572z m25.71428571428571 1.7185714285714262v4.285714285714285q0 0.3142857142857167-0.20000000000000284 0.5142857142857125t-0.5142857142857125 0.20000000000000284h-4.999999999999993v5q0 0.3142857142857167-0.20000000000000284 0.5142857142857125t-0.5142857142857125 0.20000000000000284h-4.285714285714285q-0.31428571428571317 0-0.5142857142857125-0.20000000000000284t-0.2000000000000064-0.5142857142857125v-5h-19.285714285714285q-0.31428571428571406 0-0.5142857142857142-0.20000000000000284t-0.20000000000000018-0.5142857142857125v-19.285714285714285h-5q-0.3142857142857147 1.7763568394002505e-15-0.5142857142857147-0.1999999999999975t-0.19999999999999996-0.514285714285716v-4.2857142857142865q0-0.31428571428571495 0.19999999999999996-0.5142857142857142t0.5142857142857142-0.1999999999999993h5v-5q8.881784197001252e-16-0.31428571428571406 0.20000000000000107-0.5142857142857138t0.5142857142857142-0.20000000000000018h4.285714285714285q0.31428571428571495 0 0.5142857142857142 0.20000000000000018t0.20000000000000107 0.5142857142857142v5h18.995714285714286l5.491428571428575-5.514285714285714q0.2242857142857133-0.20000000000000018 0.5142857142857125-0.20000000000000018t0.5142857142857125 0.20000000000000018q0.20000000000000284 0.2242857142857142 0.20000000000000284 0.5142857142857142t-0.20000000000000284 0.5142857142857142l-5.515714285714282 5.488571428571429v18.997142857142858h5q0.3142857142857167 0 0.5142857142857125 0.1999999999999993t0.20000000000000284 0.5142857142857125z"></path></svg>