<?xml version="1.0"?><svg viewBox="0 0 40 40" xmlns="http://www.w3.org/2000/svg" height="40" width="40"><path d="m14.2 27h12.6v-12.5z m-1-0.9l12.6-12.6h-12.6v12.6z m24.4 1.6v4q0 0.3-0.2 0.5t-0.5 0.2h-4.7v4.7q0 0.3-0.2 0.5t-0.5 0.2h-4.1q-0.3 0-0.5-0.2t-0.1-0.5v-4.7h-18.3q-0.3 0-0.5-0.2t-0.2-0.5v-18.2h-4.7q-0.3 0-0.5-0.2t-0.2-0.5v-4q0-0.3 0.2-0.5t0.5-0.2h4.7v-4.7q0-0.3 0.2-0.5t0.5-0.2h4.1q0.3 0 0.5 0.2t0.1 0.5v4.7h18l5.2-5.2q0.2-0.2 0.5-0.2t0.5 0.2q0.2 0.2 0.2 0.5t-0.2 0.5l-5.2 5.2v17.9h4.7q0.3 0 0.5 0.2t0.2 0.5z"></path></svg>