<?xml version="1.0"?><svg viewBox="0 0 40 40" xmlns="http://www.w3.org/2000/svg" height="40" width="40"><path d="m9.7 25.8h10.3v-10.4l-10.3 10.4z m-0.8-0.8l10.3-10.3h-10.3v10.3z m20 1.3v3.4q0 0.2-0.2 0.4t-0.4 0.1h-3.9v3.9q0 0.2-0.1 0.4t-0.4 0.2h-3.3q-0.3 0-0.4-0.2t-0.2-0.4v-3.9h-15q-0.2 0-0.4-0.1t-0.2-0.4v-15h-3.8q-0.3 0-0.4-0.2t-0.2-0.4v-3.3q0-0.3 0.2-0.4t0.4-0.2h3.8v-3.9q0-0.2 0.2-0.4t0.4-0.1h3.3q0.3 0 0.4 0.1t0.2 0.4v3.9h14.8l4.2-4.3q0.2-0.1 0.4-0.1t0.4 0.1q0.2 0.2 0.2 0.4t-0.2 0.4l-4.3 4.3v14.8h3.9q0.3 0 0.4 0.1t0.2 0.4z"></path></svg>