<?xml version="1.0"?><svg viewBox="0 0 40 40" xmlns="http://www.w3.org/2000/svg" height="40" width="40"><path d="m29.1 21.6h-2.3q-0.6 0-1-0.4t-0.4-0.9v-2.7q0-0.6 0.4-1t1-0.4h2.3q-0.7-2.3-2.4-4t-4-2.3v2.3q0 0.5-0.4 0.9t-0.9 0.4h-2.8q-0.5 0-0.9-0.4t-0.4-0.9v-2.3q-2.3 0.6-4 2.3t-2.4 4h2.3q0.6 0 1 0.4t0.4 1v2.7q0 0.5-0.4 0.9t-1 0.4h-2.3q0.7 2.3 2.4 4t4 2.4v-2.3q0-0.6 0.4-1t0.9-0.4h2.8q0.5 0 0.9 0.4t0.4 1v2.3q2.3-0.7 4-2.4t2.4-4z m7.1-4v2.7q0 0.5-0.4 0.9t-0.9 0.4h-3.1q-0.7 3.4-3.2 5.9t-5.9 3.2v3.1q0 0.5-0.4 0.9t-0.9 0.4h-2.8q-0.5 0-0.9-0.4t-0.4-0.9v-3.1q-3.4-0.7-5.9-3.2t-3.2-5.9h-3.1q-0.5 0-0.9-0.4t-0.4-0.9v-2.7q0-0.6 0.4-1t0.9-0.4h3.1q0.7-3.4 3.2-5.9t5.9-3.2v-3q0-0.6 0.4-1t0.9-0.4h2.8q0.5 0 0.9 0.4t0.4 1v3q3.4 0.7 5.9 3.2t3.2 5.9h3.1q0.5 0 0.9 0.4t0.4 1z"></path></svg>