<?xml version="1.0"?><svg xmlns="http://www.w3.org/2000/svg" width="40" height="40" viewBox="0 0 40 40"><path d="m29.575714285714284 22.857142857142858h-2.4328571428571415q-0.5800000000000018 0-1.0042857142857144-0.4242857142857126t-0.4242857142857126-1.0042857142857144v-2.8571428571428577q0-0.5800000000000018 0.4242857142857126-1.0042857142857144t1.0042857142857144-0.42428571428571615h2.4328571428571415q-0.7142857142857153-2.41-2.5114285714285707-4.207142857142857t-4.2071428571428555-2.5114285714285707v2.4328571428571433q0 0.5800000000000001-0.4242857142857126 1.0042857142857144t-1.0042857142857144 0.4242857142857144h-2.8571428571428577q-0.5800000000000018 0-1.0042857142857144-0.4242857142857144t-0.42428571428571615-1.0042857142857144v-2.4328571428571433q-2.41 0.7142857142857135-4.207142857142857 2.5114285714285725t-2.5114285714285707 4.2071428571428555h2.4328571428571433q0.5800000000000001 0 1.0042857142857144 0.4242857142857126t0.4242857142857144 1.004285714285718v2.8571428571428577q0 0.5799999999999983-0.4242857142857144 1.0042857142857144t-1.0042857142857144 0.4242857142857126h-2.4328571428571433q0.7142857142857135 2.41 2.5114285714285725 4.207142857142859t4.2071428571428555 2.511428571428567v-2.4328571428571415q0-0.5800000000000018 0.4242857142857126-1.0042857142857144t1.004285714285718-0.4242857142857126h2.8571428571428577q0.5799999999999983 0 1.0042857142857144 0.4242857142857126t0.4242857142857126 1.0042857142857144v2.4328571428571415q2.41-0.7142857142857153 4.207142857142859-2.5114285714285707t2.511428571428567-4.2071428571428555z m7.567142857142862-4.285714285714285v2.8571428571428577q0 0.5799999999999983-0.42428571428571615 1.0042857142857144t-1.0042857142857144 0.4242857142857126h-3.191428571428574q-0.8257142857142838 3.5942857142857143-3.44857142857143 6.217142857142857t-6.2171428571428535 3.4485714285714266v3.191428571428574q0 0.5799999999999983-0.4242857142857126 1.0042857142857144t-1.0042857142857144 0.42428571428571615h-2.8571428571428577q-0.5800000000000018 0-1.0042857142857144-0.42428571428571615t-0.42428571428571615-1.0042857142857144v-3.191428571428574q-3.5942857142857143-0.8257142857142838-6.217142857142857-3.44857142857143t-3.4485714285714284-6.2171428571428535h-3.1914285714285713q-0.5800000000000001 0-1.0042857142857144-0.4242857142857126t-0.42428571428571393-1.0042857142857144v-2.8571428571428577q0-0.5800000000000018 0.4242857142857144-1.0042857142857144t1.004285714285714-0.42428571428571615h3.1914285714285713q0.8257142857142856-3.5942857142857143 3.4485714285714284-6.217142857142857t6.217142857142857-3.4485714285714284v-3.1914285714285713q0-0.5800000000000001 0.4242857142857126-1.0042857142857144t1.004285714285718-0.42428571428571393h2.8571428571428577q0.5799999999999983 0 1.0042857142857144 0.4242857142857144t0.4242857142857126 1.004285714285714v3.1914285714285713q3.5942857142857143 0.8257142857142856 6.217142857142857 3.4485714285714284t3.4485714285714266 6.217142857142857h3.191428571428574q0.5799999999999983 0 1.0042857142857144 0.4242857142857126t0.42428571428571615 1.004285714285718z"></path></svg>