<?xml version="1.0"?><svg xmlns="http://www.w3.org/2000/svg" width="40" height="40" viewBox="0 0 40 40"><path d="m21.42857142857143 36.36142857142857l14.285714285714285-7.789999999999996v-14.197142857142858l-14.285714285714285 5.199999999999999v16.785714285714285z m-1.428571428571427-19.30857142857143l15.580000000000002-5.671428571428571-15.580000000000005-5.667142857142854-15.58 5.667142857142857z m18.571428571428566-5.62428571428571v17.14285714285714q0 0.7814285714285703-0.3999999999999986 1.451428571428572t-1.095714285714287 1.048571428571428l-15.714285714285715 8.57142857142857q-0.625714285714281 0.3571428571428612-1.3614285714285685 0.3571428571428612t-1.361428571428572-0.3571428571428541l-15.714285714285715-8.57142857142857q-0.6914285714285713-0.379999999999999-1.0942857142857143-1.048571428571428t-0.4014285714285697-1.4514285714285755v-17.142857142857146q0-0.8928571428571406 0.5142857142857142-1.6285714285714263t1.3599999999999997-1.0500000000000007l15.714285714285715-5.714285714285714q0.4914285714285711-0.17857142857142838 0.9828571428571422-0.17857142857142838t0.9828571428571422 0.17857142857142838l15.714285714285715 5.714285714285714q0.8485714285714252 0.31428571428571495 1.3614285714285685 1.048571428571428t0.5128571428571433 1.6300000000000008z"></path></svg>