<?xml version="1.0"?><svg xmlns="http://www.w3.org/2000/svg" width="40" height="40" viewBox="0 0 40 40"><path d="m21.42857142857143 20q0.5799999999999983 0 1.0042857142857144 0.4242857142857126t0.4242857142857126 1.004285714285718-0.4242857142857126 1.0042857142857144-1.0042857142857144 0.4242857142857126-1.0042857142857144-0.4242857142857126-0.42428571428571615-1.0042857142857144 0.4242857142857126-1.0042857142857144 1.004285714285718-0.42428571428571615z m6.6971428571428575 1.428571428571427l11.317142857142855 8.885714285714286q0.6257142857142881 0.44571428571428484 0.5571428571428569 1.2485714285714273-0.10999999999999943 0.7814285714285703-0.7800000000000011 1.1385714285714315l-2.857142857142854 1.4285714285714306q-0.29142857142857537 0.15571428571428214-0.6485714285714295 0.15571428571428214-0.37857142857142634 0-0.6899999999999977-0.1785714285714306l-15.399999999999999-8.638571428571428-2.4571428571428555 1.4714285714285715q-0.17857142857142705 0.09142857142857252-0.2671428571428578 0.11428571428571388 0.31428571428571317 1.0928571428571416 0.2228571428571442 2.1642857142857146-0.15714285714285836 1.7185714285714297-1.25 3.292857142857141t-2.945714285714285 2.75714285714286q-2.9485714285714355 1.874285714285719-6.184285714285722 1.874285714285719-3.0357142857142856 0-4.957142857142857-1.740000000000002-2.005714285714286-1.874285714285719-1.7599999999999998-4.6200000000000045 0.15714285714285706-1.6971428571428575 1.25-3.2814285714285703t2.9242857142857144-2.765714285714285q2.942857142857143-1.8785714285714263 6.202857142857144-1.8785714285714263 1.8528571428571432 0 3.371428571428572 0.6928571428571431 0.1999999999999993-0.28999999999999915 0.4900000000000002-0.4914285714285711l2.7242857142857133-1.629999999999999-2.7228571428571424-1.62857142857143q-0.2900000000000009-0.20285714285714462-0.4914285714285711-0.49285714285714377-1.5171428571428578 0.6928571428571431-3.371428571428572 0.6928571428571431-3.257142857142857 0-6.204285714285715-1.8771428571428572-1.8314285714285718-1.1828571428571415-2.927142857142858-2.765714285714285t-1.247142857142857-3.2857142857142865q-0.10999999999999996-1.3142857142857132 0.3471428571428572-2.5199999999999996t1.4142857142857144-2.0757142857142856q1.9000000000000001-1.7614285714285716 4.957142857142857-1.7614285714285716 3.2371428571428575 0 6.182857142857142 1.871428571428571 1.8528571428571432 1.1600000000000001 2.9471428571428575 2.7457142857142856t1.2514285714285727 3.3028571428571425q0.08999999999999986 1.0714285714285712-0.2228571428571442 2.1657142857142855 0.08999999999999986 0.02285714285714313 0.2671428571428578 0.1114285714285721l2.457142857142859 1.4714285714285698 15.399999999999999-8.637142857142857q0.3128571428571405-0.1742857142857126 0.6885714285714286-0.1742857142857126 0.3571428571428541 0 0.6485714285714295 0.1542857142857148l2.857142857142854 1.4285714285714288q0.6714285714285708 0.35714285714285765 0.7814285714285703 1.138571428571428 0.06857142857143117 0.8028571428571425-0.5571428571428569 1.25z m-15.200000000000001-5.8028571428571425q1.025714285714285-0.9371428571428577 0.4671428571428571-2.41t-2.3642857142857157-2.6099999999999977q-2.057142857142857-1.3200000000000003-4.285714285714286-1.3200000000000003-1.652857142857143 0-2.524285714285714 0.8042857142857134-1.0285714285714285 0.9371428571428577-0.4685714285714284 2.41t2.365714285714286 2.611428571428572q2.054285714285715 1.3171428571428585 4.285714285714285 1.3171428571428585 1.652857142857144 0 2.524285714285714-0.8028571428571425z m-1.9000000000000004 16.62857142857143q1.8100000000000005-1.138571428571428 2.3671428571428574-2.611428571428572t-0.468571428571428-2.41q-0.8714285714285719-0.8028571428571425-2.522857142857143-0.8028571428571425-2.2314285714285713 0-4.285714285714286 1.3185714285714276-1.807142857142857 1.138571428571428-2.3642857142857143 2.611428571428572t0.4685714285714284 2.411428571428573q0.871428571428571 0.8028571428571425 2.522857142857143 0.8028571428571425 2.231428571428572 0 4.285714285714286-1.317142857142855z m3.9742857142857133-13.682857142857141l2.1428571428571423 1.2942857142857136v-0.24571428571428555q0-0.8028571428571425 0.7371428571428567-1.25l0.31428571428571317-0.17999999999999972-1.7657142857142816-1.047142857142859-0.5785714285714292 0.5800000000000018q-0.06714285714285673 0.0671428571428585-0.22285714285714242 0.24571428571428555t-0.2685714285714287 0.2671428571428578q-0.042857142857142705 0.04285714285714448-0.08999999999999986 0.07857142857142918t-0.0685714285714294 0.05714285714285694z m5 5l2.1428571428571423 0.7142857142857153 16.428571428571427-12.85714285714286-2.857142857142854-1.4285714285714288-17.142857142857142 9.620000000000001v2.5228571428571414l-3.571428571428573 2.1428571428571423 0.1999999999999993 0.17857142857142705q0.04571428571428626 0.04285714285714448 0.15714285714285658 0.13428571428571345 0.08999999999999986 0.08857142857142719 0.24571428571428555 0.2657142857142851t0.24571428571428555 0.2671428571428578l0.5800000000000036 0.5828571428571472z m15.714285714285715 9.285714285714288l2.857142857142854-1.428571428571427-11.607142857142858-9.107142857142858-3.951428571428572 3.0799999999999983q-0.04571428571428626 0.06857142857142762-0.2914285714285718 0.15714285714285836z"></path></svg>