<?xml version="1.0"?><svg viewBox="0 0 40 40" xmlns="http://www.w3.org/2000/svg" height="40" width="40"><path d="m17.4 1.4v13.5q0 1.2-0.8 2.3t-1.9 1.5v16.4q0 1.1-0.8 1.9t-1.9 0.8h-2.7q-1.1 0-1.9-0.8t-0.8-1.9v-16.4q-1.2-0.5-2-1.5t-0.7-2.3v-13.5q0-0.6 0.4-1t0.9-0.4 1 0.4 0.4 1v8.7q0 0.6 0.4 1t0.9 0.4 1-0.4 0.4-1v-8.7q0-0.6 0.4-1t0.9-0.4 1 0.4 0.4 1v8.7q0 0.6 0.4 1t0.9 0.4 1-0.4 0.4-1v-8.7q0-0.6 0.4-1t0.9-0.4 1 0.4 0.4 1z m16.2 0v33.7q0 1.1-0.8 1.9t-1.9 0.8h-2.7q-1.1 0-1.9-0.8t-0.8-1.9v-10.8h-4.7q-0.3 0-0.5-0.2t-0.2-0.5v-16.8q0-2.8 2-4.8t4.7-2h5.5q0.5 0 0.9 0.4t0.4 1z"></path></svg>