<?xml version="1.0"?><svg xmlns="http://www.w3.org/2000/svg" width="40" height="40" viewBox="0 0 40 40"><path d="m18.571428571428573 1.4285714285714286v14.285714285714286q0 1.361428571428572-0.7928571428571445 2.4771428571428586t-2.064285714285713 1.5628571428571405v17.38857142857143q0 1.1600000000000037-0.8485714285714288 2.008571428571429t-2.008571428571429 0.8485714285714252h-2.8571428571428577q-1.1600000000000001 0-2.008571428571429-0.8485714285714252t-0.8485714285714279-2.008571428571429v-17.38857142857143q-1.2714285714285714-0.4471428571428575-2.064285714285714-1.562857142857144t-0.7928571428571436-2.477142857142855v-14.285714285714286q0-0.5800000000000003 0.4242857142857144-1.0042857142857144t1.0042857142857144-0.4242857142857144 1.0042857142857144 0.42428571428571427 0.4242857142857144 1.0042857142857144v9.285714285714286q0 0.5800000000000001 0.4242857142857144 1.0042857142857144t1.0042857142857136 0.4242857142857126 1.0042857142857144-0.4242857142857144 0.4242857142857144-1.0042857142857127v-9.285714285714286q0-0.5800000000000003 0.4242857142857144-1.0042857142857144t1.0042857142857144-0.4242857142857144 1.0042857142857144 0.42428571428571427 0.4242857142857144 1.0042857142857144v9.285714285714286q0 0.5800000000000001 0.4242857142857144 1.0042857142857144t1.0042857142857144 0.4242857142857126 1.0042857142857144-0.4242857142857144 0.4242857142857144-1.0042857142857127v-9.285714285714286q0-0.5800000000000003 0.4242857142857126-1.0042857142857144t1.0042857142857144-0.4242857142857144 1.0042857142857144 0.42428571428571427 0.42428571428571615 1.0042857142857144z m17.142857142857142 0v35.714285714285715q0 1.1600000000000037-0.8485714285714252 2.008571428571429t-2.008571428571429 0.8485714285714252h-2.8571428571428577q-1.1600000000000001 0-2.008571428571429-0.8485714285714252t-0.8485714285714323-2.008571428571429v-11.42857142857143h-5q-0.28999999999999915 0-0.5028571428571418-0.21142857142856997t-0.21142857142856997-0.5028571428571453v-17.857142857142858q0-2.9471428571428566 2.1000000000000014-5.042857142857142t5.042857142857141-2.1000000000000005h5.714285714285712q0.5799999999999983 0 1.0042857142857144 0.42428571428571427t0.42428571428571615 1.0042857142857144z"></path></svg>