<?xml version="1.0"?><svg xmlns="http://www.w3.org/2000/svg" width="40" height="40" viewBox="0 0 40 40"><path d="m8.571428571428571 25.714285714285715q0-1.1828571428571415-0.8371428571428572-2.0199999999999996t-2.0199999999999996-0.8371428571428581-2.02 0.8371428571428581-0.8371428571428572 2.0199999999999996 0.8371428571428572 2.0199999999999996 2.02 0.8371428571428581 2.0200000000000005-0.8371428571428581 0.8371428571428563-2.0199999999999996z m4.2857142857142865-10q0-1.1828571428571433-0.8371428571428563-2.0199999999999996t-2.0200000000000014-0.8371428571428581-2.0199999999999996 0.8371428571428563-0.8371428571428572 2.0200000000000014 0.8371428571428572 2.0199999999999996 2.0199999999999996 0.8371428571428581 2.0199999999999996-0.8371428571428581 0.8371428571428581-2.0199999999999996z m9.552857142857146 10.737142857142857l2.2542857142857144-8.528571428571428q0.13428571428571345-0.5785714285714292-0.16714285714285637-1.081428571428571t-0.8599999999999994-0.6600000000000001-1.071428571428573 0.14571428571428413-0.6714285714285708 0.8814285714285717l-2.252857142857142 8.528571428571428q-1.3428571428571416 0.10999999999999943-2.3900000000000006 0.9714285714285715t-1.4057142857142857 2.1971428571428575q-0.4471428571428575 1.7185714285714297 0.4471428571428575 3.2571428571428562t2.611428571428572 1.9885714285714258 3.2571428571428562-0.4471428571428575 1.9885714285714293-2.611428571428572q0.35714285714285765-1.3399999999999999-0.13428571428571345-2.611428571428572t-1.6071428571428577-2.0314285714285703z m14.732857142857142-0.7371428571428567q0-1.1828571428571415-0.8371428571428581-2.0199999999999996t-2.020000000000003-0.8371428571428581-2.020000000000003 0.8371428571428581-0.837142857142851 2.0199999999999996 0.8371428571428581 2.0199999999999996 2.019999999999996 0.8371428571428581 2.020000000000003-0.8371428571428581 0.8371428571428581-2.0199999999999996z m-14.285714285714288-14.285714285714286q0-1.1828571428571433-0.8371428571428581-2.0199999999999996t-2.0199999999999996-0.8371428571428581-2.0199999999999996 0.8371428571428563-0.8371428571428581 2.0200000000000014 0.8371428571428581 2.0199999999999996 2.0199999999999996 0.8371428571428581 2.0199999999999996-0.8371428571428563 0.8371428571428581-2.0200000000000014z m10.000000000000004 4.2857142857142865q0-1.1828571428571433-0.8371428571428581-2.0199999999999996t-2.020000000000003-0.8371428571428581-2.0199999999999996 0.8371428571428563-0.8371428571428581 2.0200000000000014 0.8371428571428581 2.0199999999999996 2.0199999999999996 0.8371428571428581 2.020000000000003-0.8371428571428581 0.8371428571428581-2.0199999999999996z m7.142857142857146 10q0 5.825714285714287-3.1471428571428604 10.78142857142857-0.42428571428571615 0.6471428571428604-1.2057142857142864 0.6471428571428604h-31.294285714285717q-0.7814285714285716 0-1.2057142857142855-0.6471428571428604-3.1471428571428577-4.9328571428571415-3.1471428571428577-10.78142857142857 0-4.062857142857144 1.5857142857142859-7.767142857142858t4.2614285714285725-6.385714285714286 6.385714285714284-4.261428571428572 7.764285714285716-1.5857142857142854 7.765714285714285 1.5857142857142863 6.385714285714286 4.262857142857143 4.261428571428574 6.385714285714286 1.5857142857142819 7.765714285714285z"></path></svg>