<?xml version="1.0"?><svg xmlns="http://www.w3.org/2000/svg" width="40" height="40" viewBox="0 0 40 40"><path d="m20 17.142857142857142q5.289999999999999 0 9.888571428571428-0.9600000000000009t7.254285714285718-2.8342857142857127v3.7942857142857136q0 1.5399999999999991-2.299999999999997 2.8571428571428577t-6.248571428571427 2.0857142857142854-8.594285714285721 0.7714285714285722-8.594285714285714-0.7714285714285722-6.248571428571428-2.0857142857142854-2.3000000000000003-2.8571428571428577v-3.7942857142857136q2.657142857142857 1.8757142857142863 7.2542857142857144 2.8342857142857163t9.888571428571428 0.9599999999999973z m0 17.142857142857142q5.289999999999999 0 9.888571428571428-0.9600000000000009t7.254285714285718-2.834285714285709v3.79428571428571q0 1.5399999999999991-2.299999999999997 2.857142857142854t-6.248571428571427 2.085714285714289-8.594285714285721 0.7714285714285722-8.594285714285714-0.7714285714285722-6.248571428571428-2.085714285714282-2.3000000000000003-2.857142857142861v-3.7942857142857136q2.657142857142857 1.875714285714288 7.2542857142857144 2.8342857142857127t9.888571428571428 0.9600000000000009z m0-8.57142857142857q5.289999999999999 0 9.888571428571428-0.9600000000000009t7.254285714285718-2.8342857142857163v3.794285714285717q0 1.5399999999999991-2.299999999999997 2.8571428571428577t-6.248571428571427 2.0857142857142854-8.594285714285721 0.7714285714285722-8.594285714285714-0.7714285714285722-6.248571428571428-2.0857142857142854-2.3000000000000003-2.8571428571428577v-3.7942857142857136q2.657142857142857 1.8742857142857154 7.2542857142857144 2.8342857142857127t9.888571428571428 0.9600000000000009z m0-25.714285714285715q4.642857142857142 0 8.594285714285714 0.7714285714285715t6.248571428571427 2.085714285714286 2.3000000000000043 2.857142857142857v2.8571428571428568q0 1.540000000000001-2.299999999999997 2.8571428571428577t-6.248571428571427 2.0857142857142854-8.594285714285721 0.7714285714285722-8.594285714285714-0.7714285714285722-6.248571428571428-2.0857142857142854-2.3000000000000003-2.8571428571428577v-2.8571428571428568q0-1.54 2.3000000000000003-2.857142857142857t6.247142857142857-2.085714285714286 8.595714285714285-0.7714285714285714z"></path></svg>