<svg viewBox="0 0 1792 1896.0833" xmlns="http://www.w3.org/2000/svg"><path d="m384 544v576q0 13-9.5 22.5t-22.5 9.5q-14 0-23-9l-288-288q-9-9-9-23t9-23l288-288q9-9 23-9 13 0 22.5 9.5t9.5 22.5z m1408 768v192q0 13-9.5 22.5t-22.5 9.5h-1728q-13 0-22.5-9.5t-9.5-22.5v-192q0-13 9.5-22.5t22.5-9.5h1728q13 0 22.5 9.5t9.5 22.5z m0-384v192q0 13-9.5 22.5t-22.5 9.5h-1088q-13 0-22.5-9.5t-9.5-22.5v-192q0-13 9.5-22.5t22.5-9.5h1088q13 0 22.5 9.5t9.5 22.5z m0-384v192q0 13-9.5 22.5t-22.5 9.5h-1088q-13 0-22.5-9.5t-9.5-22.5v-192q0-13 9.5-22.5t22.5-9.5h1088q13 0 22.5 9.5t9.5 22.5z m0-384v192q0 13-9.5 22.5t-22.5 9.5h-1728q-13 0-22.5-9.5t-9.5-22.5v-192q0-13 9.5-22.5t22.5-9.5h1728q13 0 22.5 9.5t9.5 22.5z"/></svg>