<?xml version="1.0"?><svg xmlns="http://www.w3.org/2000/svg" width="40" height="40" viewBox="0 0 40 40"><path d="m8.571428571428571 12.142857142857142v12.857142857142858q0 0.28999999999999915-0.21142857142857174 0.5028571428571418t-0.5028571428571418 0.21142857142857352q-0.31428571428571406 0-0.5142857142857142-0.1999999999999993l-6.428571428571429-6.428571428571427q-0.2000000000000003-0.2042857142857173-0.2000000000000003-0.514285714285716t0.20000000000000007-0.514285714285716l6.428571428571429-6.428571428571429q0.20428571428571463-0.1999999999999993 0.5142857142857142-0.1999999999999993 0.28999999999999915 0 0.5028571428571436 0.21142857142857174t0.21142857142856997 0.5028571428571418z m31.42857142857143 17.142857142857142v4.285714285714285q0 0.28999999999999915-0.21142857142856997 0.5028571428571453t-0.5028571428571453 0.21142857142856997h-38.57142857142857q-0.29000000000000103 0-0.5028571428571439-0.21142857142856997t-0.2114285714285714-0.5028571428571453v-4.285714285714285q0-0.28999999999999915 0.2114285714285714-0.5028571428571418t0.5028571428571429-0.21142857142856997h38.57142857142857q0.28999999999999915 0 0.5028571428571453 0.21142857142856997t0.21142857142856997 0.5028571428571418z m0-8.57142857142857v4.285714285714285q0 0.28999999999999915-0.21142857142856997 0.5028571428571418t-0.5028571428571453 0.21142857142857352h-24.285714285714285q-0.28999999999999915 0-0.5028571428571436-0.21142857142856997t-0.21142857142856997-0.5028571428571453v-4.285714285714285q0-0.28999999999999915 0.21142857142857174-0.5028571428571418t0.5028571428571418-0.21142857142857352h24.285714285714285q0.28999999999999915 0 0.5028571428571453 0.21142857142856997t0.21142857142856997 0.5028571428571453z m0-8.571428571428571v4.2857142857142865q0 0.28999999999999915-0.21142857142856997 0.5028571428571418t-0.5028571428571453 0.21142857142856997h-24.285714285714285q-0.28999999999999915 0-0.5028571428571436-0.21142857142856997t-0.21142857142856997-0.5028571428571418v-4.285714285714285q0-0.28999999999999915 0.21142857142857174-0.5028571428571436t0.5028571428571418-0.21142857142857352h24.285714285714285q0.28999999999999915 0 0.5028571428571453 0.21142857142857174t0.21142857142856997 0.5028571428571418z m0-8.571428571428571v4.285714285714286q0 0.29000000000000004-0.21142857142856997 0.5028571428571427t-0.5028571428571453 0.21142857142856997h-38.57142857142857q-0.29000000000000103 0-0.5028571428571439-0.21142857142857174t-0.2114285714285714-0.5028571428571418v-4.285714285714286q0-0.29000000000000004 0.2114285714285714-0.5028571428571427t0.5028571428571429-0.2114285714285722h38.57142857142857q0.28999999999999915 0 0.5028571428571453 0.2114285714285713t0.21142857142856997 0.5028571428571431z"></path></svg>