<?xml version="1.0"?><svg xmlns="http://www.w3.org/2000/svg" width="40" height="40" viewBox="0 0 40 40"><path d="m4.14125 17.5l12.1675 12.9875-5.858750000000001-12.9875h-6.312499999999999z m15.85875 15.07875l6.81625-15.07875h-13.6325z m-9.4925-17.57875l3.9837500000000006-7.5h-5.116250000000001l-5.625 7.5h6.756250000000001z m13.18375 15.4875l12.1675-12.9875h-6.30875z m-10.35-15.4875h13.31875l-3.9849999999999994-7.5h-5.350000000000001z m16.15 0h6.758749999999999l-5.625-7.5h-5.1175z m2.7550000000000026-9.4925l7.5 10q0.2749999999999986 0.34999999999999964 0.2537499999999966 0.8099999999999987t-0.3325000000000031 0.7912500000000016l-18.75 20q-0.3499999999999943 0.39124999999999943-0.9174999999999969 0.39124999999999943t-0.9175000000000004-0.39124999999999943l-18.75-20q-0.3125-0.3324999999999996-0.3325-0.7912500000000016t0.25375000000000003-0.8100000000000005l7.5-10q0.35000000000000053-0.5074999999999985 0.9962500000000007-0.5074999999999985h22.5q0.6449999999999996 0 0.9962500000000034 0.5075000000000003z"></path></svg>