<?xml version="1.0"?><svg xmlns="http://www.w3.org/2000/svg" width="40" height="40" viewBox="0 0 40 40"><path d="m6.40625 8.0075h3.9837500000000006v19.2h-10.39v-13.61625h6.404999999999999v-5.587499999999999z m0 15.99625v-7.2075h-2.4025v7.2075h2.4025z m5.587499999999999-10.41v13.6125h4.0024999999999995v-13.611250000000002h-4.003749999999998z m0-5.587499999999999v3.9849999999999994h4.0024999999999995v-3.9837500000000006h-4.003749999999998z m5.603749999999998 5.587499999999999h10.41v18.400000000000002h-10.41v-3.1849999999999987h6.40625v-1.6000000000000014h-6.40625v-13.61625z m6.40625 10.41v-7.2075h-2.403749999999995v7.2075h2.4037499999999987z m5.606249999999999-10.41h10.390000000000004v18.400000000000002h-10.3875v-3.1849999999999987h6.387499999999999v-1.6000000000000014h-6.387499999999999v-13.61625z m6.387499999999999 10.41v-7.2075h-2.4037500000000023v7.2075h2.4024999999999963z"></path></svg>