<?xml version="1.0"?><svg xmlns="http://www.w3.org/2000/svg" width="40" height="40" viewBox="0 0 40 40"><path d="m30.400000000000002 26.45142857142857q0 3.4142857142857146-2.219999999999999 5.881428571428568t-5.771428571428572 3.047142857142859v3.9057142857142892q0 0.3142857142857167-0.1999999999999993 0.5142857142857125t-0.5142857142857125 0.20000000000000284h-3.0085714285714324q-0.28999999999999915 0-0.5028571428571418-0.21142857142856997t-0.21142857142856997-0.5028571428571453v-3.9057142857142892q-1.4714285714285715-0.20000000000000284-2.845714285714285-0.691428571428574t-2.2685714285714322-0.9928571428571331-1.6514285714285712-1.0714285714285694-1.0385714285714283-0.8371428571428581-0.39000000000000057-0.3999999999999986q-0.3800000000000008-0.46857142857142975-0.042857142857142705-0.9142857142857146l2.297142857142857-3.014285714285716q0.15714285714285658-0.2228571428571442 0.5142857142857142-0.2671428571428578 0.33285714285714363-0.04285714285714448 0.5342857142857138 0.1999999999999993l0.042857142857142705 0.04571428571428626q2.524285714285714 2.210000000000001 5.425714285714285 2.789999999999999 0.8257142857142838 0.17857142857142705 1.6514285714285712 0.17857142857142705 1.8085714285714296 0 3.1814285714285724-0.9600000000000009t1.37142857142857-2.7214285714285715q0-0.6257142857142846-0.33285714285714363-1.1828571428571415t-0.7471428571428582-0.937142857142856-1.3042857142857152-0.8357142857142854-1.4714285714285715-0.7142857142857153-1.7857142857142847-0.725714285714286q-0.8714285714285701-0.35714285714285765-1.3742857142857154-0.5571428571428569t-1.37142857142857-0.5928571428571416-1.3971428571428568-0.6914285714285704-1.2614285714285707-0.7928571428571445-1.194285714285714-0.9485714285714302-0.9714285714285715-1.095714285714287-0.7928571428571427-1.2942857142857136-0.468571428571428-1.4857142857142858-0.1899999999999995-1.7400000000000002q0-3.081428571428571 2.185714285714287-5.402857142857143t5.692857142857143-2.991428571428571v-4.018571428571428q0-0.2899999999999999 0.21142857142856997-0.5028571428571428t0.5028571428571418-0.2114285714285714h3.014285714285716q0.3114285714285714 0 0.5114285714285707 0.2t0.1999999999999993 0.5142857142857142v3.928571428571429q1.274285714285714 0.13428571428571434 2.4685714285714297 0.5142857142857142t1.942857142857143 0.7457142857142856 1.4142857142857146 0.8371428571428572 0.8714285714285701 0.6471428571428568 0.33428571428571274 0.31428571428571406q0.379999999999999 0.40000000000000036 0.1114285714285721 0.8471428571428579l-1.8085714285714296 3.257142857142858q-0.17999999999999972 0.3357142857142854-0.5142857142857125 0.35714285714285765-0.31428571428571317 0.0685714285714294-0.6028571428571432-0.1542857142857148-0.0671428571428585-0.06714285714285673-0.32428571428571473-0.2671428571428578t-0.8685714285714283-0.5899999999999999-1.3057142857142843-0.7142857142857135-1.6642857142857146-0.5828571428571436-1.9085714285714275-0.25714285714285623q-2.120000000000001 0-3.460000000000001 0.9614285714285717t-1.3399999999999999 2.477142857142857q0 0.5800000000000001 0.1899999999999995 1.0714285714285712t0.6599999999999984 0.9257142857142853 0.8814285714285717 0.7371428571428567 1.2485714285714273 0.6928571428571413 1.3500000000000014 0.6028571428571432 1.5614285714285714 0.6142857142857139q1.1828571428571415 0.4471428571428575 1.8085714285714296 0.7028571428571446t1.6957142857142848 0.7800000000000011 1.6857142857142868 0.9485714285714302 1.3857142857142861 1.1142857142857139 1.1814285714285724 1.418571428571429 0.7028571428571411 1.7071428571428555 0.28999999999999915 2.1000000000000014z"></path></svg>