<?xml version="1.0"?><svg viewBox="0 0 40 40" xmlns="http://www.w3.org/2000/svg" height="40" width="40"><path d="m21.9 27.7q0.3-0.4 0.3-0.8t-0.3-0.8q-0.3-0.3-0.8-0.3t-0.8 0.3q-0.3 0.3-0.3 0.8t0.3 0.8q0.4 0.3 0.8 0.3t0.8-0.3z m4.4 0q0.4-0.4 0.4-0.8t-0.4-0.8q-0.3-0.3-0.7-0.3t-0.8 0.3q-0.4 0.3-0.4 0.8t0.4 0.8q0.3 0.3 0.8 0.3t0.7-0.3z m2.6-4.7v5.5q0 0.7-0.5 1.2t-1.2 0.5h-25.5q-0.7 0-1.2-0.5t-0.5-1.2v-5.5q0-0.7 0.5-1.2t1.2-0.5h8l2.4 2.4q1 1 2.3 1t2.4-1l2.4-2.4h8q0.7 0 1.2 0.5t0.5 1.2z m-5.7-9.9q0.3 0.7-0.2 1.2l-7.8 7.8q-0.3 0.3-0.8 0.3t-0.7-0.3l-7.8-7.8q-0.6-0.5-0.3-1.2 0.3-0.7 1.1-0.7h4.4v-7.7q0-0.5 0.3-0.8t0.8-0.4h4.5q0.4 0 0.7 0.4t0.4 0.8v7.7h4.4q0.8 0 1 0.7z"></path></svg>