<?xml version="1.0"?><svg xmlns="http://www.w3.org/2000/svg" width="40" height="40" viewBox="0 0 40 40"><path d="m25.714285714285715 33.48285714285714q-0.937142857142856-5.379999999999999-3.1257142857142846-11.114285714285714h-0.04285714285714448l-0.04571428571428626 0.02142857142857224q-0.35714285714285765 0.13428571428571345-0.9600000000000009 0.36857142857142833t-2.2542857142857144 1.095714285714287-3.057142857142857 1.8285714285714292-2.9257142857142853 2.557142857142857-2.3000000000000007 3.3028571428571425l-0.33285714285714363-0.24714285714285822q4.1057142857142885 3.3471428571428596 9.330000000000002 3.3471428571428596 2.9471428571428575 0 5.714285714285715-1.1571428571428584z m-4.12857142857143-13.549999999999997q-0.47142857142857153-1.0942857142857143-1.1857142857142868-2.4771428571428586-6.938571428571427 2.072857142857142-15.02 2.072857142857142-0.022857142857142243 0.15714285714285836-0.022857142857142243 0.46857142857142975 0 2.767142857142858 0.9814285714285713 5.2785714285714285t2.767142857142857 4.497142857142858q1.1142857142857139-1.985714285714284 2.7571428571428562-3.717142857142857t3.1814285714285724-2.777142857142856 2.9142857142857146-1.8085714285714296 2.2214285714285715-1.071428571428573l0.8257142857142838-0.28999999999999915q0.08999999999999986-0.022857142857141355 0.28999999999999915-0.07857142857142918t0.28999999999999915-0.10000000000000142z m-2.388571428571428-4.731428571428571q-2.678571428571427-4.752857142857145-5.4471428571428575-8.435714285714289-3.078571428571429 1.4485714285714302-5.22142857142857 4.1485714285714295t-2.8571428571428577 6.071428571428573q6.74 0 13.525714285714285-1.7857142857142865z m15.267142857142858 7.121428571428572q-4.685714285714287-1.3399999999999999-9.128571428571426-0.6471428571428568 1.9400000000000013 5.334285714285716 2.8571428571428577 10.468571428571426 2.475714285714286-1.6742857142857126 4.12857142857143-4.228571428571428t2.142857142857146-5.592857142857142z m-17.96857142857143-16.541428571428575q-0.022857142857141355 8.881784197001252e-16-0.04285714285714448 0.02285714285714402 0.02142857142857224-0.02285714285714313 0.04285714285714448-0.02285714285714313z m13.17142857142857 3.2357142857142875q-4.132857142857137-3.66-9.667142857142856-3.66-1.6971428571428575 0-3.460000000000001 0.4242857142857144 2.924285714285716 3.7942857142857154 5.491428571428571 8.528571428571428 1.5399999999999991-0.581428571428571 2.8999999999999986-1.3514285714285723t2.1571428571428584-1.3714285714285719 1.4600000000000009-1.2714285714285722 0.8371428571428581-0.9057142857142857z m4.975714285714282 10.82857142857143q-0.06714285714285495-5.18-3.325714285714284-9.152857142857144l-0.022857142857141355 0.02285714285714313q-0.1999999999999993 0.2685714285714287-0.4242857142857126 0.548571428571428t-0.9714285714285715 0.992857142857142-1.5857142857142854 1.3485714285714288-2.232857142857142 1.451428571428572-2.935714285714287 1.4400000000000013q0.5571428571428569 1.1828571428571415 0.9828571428571422 2.120000000000001 0.04285714285714448 0.13428571428571345 0.14571428571428413 0.39000000000000057t0.16714285714285637 0.36857142857142833q0.8000000000000007-0.1114285714285721 1.6614285714285728-0.15714285714285836t1.6400000000000006-0.04285714285714448 1.5428571428571445 0.03285714285714292 1.428571428571427 0.08999999999999986 1.2600000000000016 0.12142857142857011 1.0714285714285694 0.14571428571428413 0.8142857142857167 0.13428571428571345 0.5571428571428569 0.10000000000000142z m2.500000000000007 0.15428571428571303q0 4.665714285714287-2.299999999999997 8.604285714285716t-6.237142857142857 6.238571428571426-8.605714285714292 2.3000000000000043-8.6-2.3000000000000043-6.242857142857143-6.238571428571426-2.295714285714286-8.604285714285716 2.3000000000000003-8.604285714285714 6.234285714285714-6.238571428571428 8.604285714285714-2.3000000000000003 8.605714285714285 2.3000000000000003 6.238571428571426 6.238571428571428 2.298571428571435 8.604285714285714z"></path></svg>