<?xml version="1.0"?><svg xmlns="http://www.w3.org/2000/svg" width="40" height="40" viewBox="0 0 40 40"><path d="m8.971428571428572 15.781428571428572l11.028571428571428 6.808571428571428-7.634285714285715 6.361428571428572-10.937142857142856-7.120000000000001z m22.014285714285716 12.389999999999999v2.4085714285714275l-10.93714285714286 6.539999999999999v0.02285714285714846l-0.022857142857141355-0.022857142857141355-0.02571428571428669 0.022857142857141355v-0.022857142857141355l-10.914285714285715-6.539999999999999v-2.4085714285714346l3.2799999999999994 2.1428571428571423 7.634285714285715-6.342857142857138v-0.04285714285714448l0.022857142857141355 0.022857142857141355 0.022857142857141355-0.022857142857141355v0.04285714285714448l7.657142857142858 6.342857142857142z m-18.62-25.538571428571426l7.6342857142857135 6.362857142857141-11.028571428571428 6.785714285714285-7.542857142857143-6.028571428571427z m18.661428571428573 13.147142857142855l7.54428571428571 6.04857142857143-10.914285714285715 7.121428571428574-7.657142857142855-6.361428571428576z m-3.37142857142857-13.147142857142857l10.91571428571428 7.121428571428572-7.5428571428571445 6.0285714285714285-11.028571428571425-6.787142857142857z"></path></svg>