<?xml version="1.0"?><svg xmlns="http://www.w3.org/2000/svg" width="40" height="40" viewBox="0 0 40 40"><path d="m28.90571428571429 35.400000000000006q-0.1114285714285721-0.42285714285713993-0.5357142857142847-0.10999999999999943-0.6714285714285708 0.4914285714285711-1.942857142857143 0.8714285714285737t-2.924285714285716 0.37857142857142634q-2.879999999999999 0-4.30857142857143-1.0942857142857179-0.1114285714285721-0.09000000000000341-0.28999999999999915-0.09000000000000341-0.24571428571428555 0-0.5800000000000018 0.2657142857142887-0.15714285714285836 0.134285714285717-0.16714285714285637 0.3571428571428541t0.16857142857142904 0.4471428571428575q0.7571428571428562 0.7142857142857153 1.9528571428571446 1.0257142857142867t2.28857142857143 0.278571428571432 2.210000000000001-0.10000000000000142q0.9142857142857146-0.09000000000000341 1.8857142857142861-0.4571428571428555t1.451428571428572-0.6714285714285708 0.6357142857142861-0.4571428571428555q0.2671428571428578-0.2657142857142887 0.15714285714285836-0.6457142857142841z m-0.8714285714285701-2.565714285714286q-0.4228571428571435-1.048571428571428-0.8685714285714283-1.361428571428572-0.514285714285716-0.33285714285714363-1.6971428571428575-0.33285714285714363-1.048571428571428 0-1.5857142857142854 0.2228571428571442-0.6457142857142841 0.2671428571428578-1.7399999999999984 1.2500000000000036-0.5800000000000018 0.5357142857142847-0.2671428571428578 0.9828571428571422 0.1999999999999993 0.1785714285714306 0.39000000000000057 0.10000000000000142t0.7028571428571446-0.5242857142857176q0.0671428571428585-0.04571428571428271 0.23428571428571487-0.19142857142857395t0.23428571428571487-0.18999999999999773 0.2228571428571442-0.15714285714285836 0.25714285714285623-0.15428571428571303 0.27857142857142847-0.11142857142856855 0.33428571428571274-0.10000000000000142 0.3714285714285701-0.05714285714285694 0.4571428571428555-0.02142857142857224q0.6000000000000014 0 0.9914285714285711 0.16714285714285637t0.514285714285716 0.3228571428571456 0.3000000000000007 0.4914285714285711q0.2228571428571442 0.38000000000000256 0.27857142857142847 0.4471428571428575t0.2771428571428558-0.022857142857141355q0.5142857142857125-0.2671428571428578 0.31428571428571317-0.7571428571428598z m7.925714285714289-6.271428571428572q0-0.4914285714285711-0.11142857142856855-0.9928571428571438t-0.36857142857142833-1.0057142857142871-0.7571428571428598-0.8142857142857132-1.1714285714285708-0.31428571428571317q-0.7385714285714258 0-2.1671428571428564 0.928571428571427t-2.8814285714285717 1.8628571428571412-2.2542857142857144 0.937142857142856q-0.6028571428571432 0.022857142857141355-1.4171428571428564-0.4242857142857126t-1.6971428571428575-1.095714285714287-1.8642857142857139-1.2942857142857136-2.232857142857142-1.0942857142857143-2.4771428571428586-0.4228571428571435q-2.5657142857142965 0.024285714285714022-4.395714285714295 1.7528571428571453t-1.8757142857142863 3.985714285714284q-0.042857142857142705 2.5 1.6514285714285712 3.66 0.6471428571428568 0.4471428571428575 1.395714285714286 0.6357142857142861t2.3100000000000005 0.18999999999999773q1.2714285714285705 0 2.9471428571428557-0.7257142857142824t2.991428571428571-1.5857142857142854 2.677142857142858-1.571428571428573 2.0757142857142874-0.6928571428571431q0.5799999999999983 0.022857142857141355 1.451428571428572 0.7028571428571411t1.595714285714287 1.4942857142857129 1.5171428571428578 1.5071428571428562 1.2385714285714258 0.7142857142857153q0.7800000000000011 0.06857142857143117 1.3042857142857116-0.3114285714285714t1.2385714285714258-1.4057142857142857q0.6257142857142881-0.9142857142857146 0.9485714285714266-2.2542857142857144t0.32428571428571473-2.3657142857142865z m1.182857142857145-3.571428571428573q0 3.66-1.3857142857142861 6.797142857142855t-3.7042857142857173 5.267142857142858-5.414285714285715 3.335714285714289-6.482857142857142 1.2057142857142864-6.542857142857143-1.2857142857142847-5.522857142857143-3.5028571428571453-3.8042857142857214-5.387142857142862-1.4285714285714288-6.742857142857144q0-1.985714285714284 0.43571428571428594-3.8485714285714288t1.0942857142857143-3.2457142857142856 1.5757142857142856-2.645714285714286 1.7514285714285727-2.1014285714285688 1.7528571428571436-1.5500000000000007 1.4399999999999995-1.0371428571428574 0.9485714285714284-0.5471428571428572q0.3114285714285714-0.17714285714285705 1.137142857142857-0.5899999999999999t1.217142857142857-0.6357142857142861 1.0714285714285712-0.6714285714285717 1.3499999999999996-0.9814285714285713q0.8028571428571425-0.6257142857142854 1.2942857142857136-1.6185714285714283t0.668571428571429-2.8q2.879999999999999 3.4571428571428573 4.151428571428571 4.307142857142858 0.9828571428571422 0.6471428571428568 2.8999999999999986 1.517142857142857t2.8814285714285717 1.4714285714285715q0.47142857142857153 0.29000000000000004 0.8714285714285701 0.5571428571428569t1.3500000000000014 1.0399999999999991 1.697142857142854 1.5742857142857147 1.6742857142857162 2.120000000000001 1.5414285714285754 2.7214285714285715 1.048571428571428 3.314285714285713 0.4357142857142833 3.9614285714285735z"></path></svg>