<?xml version="1.0"?><svg xmlns="http://www.w3.org/2000/svg" width="40" height="40" viewBox="0 0 40 40"><path d="m24.285714285714285 27.857142857142858v4.285714285714288q0 0.8928571428571459-0.6257142857142846 1.5171428571428578t-1.5171428571428578 0.625714285714281h-4.285714285714285q-0.8928571428571423 0-1.5171428571428578-0.6257142857142881t-0.6257142857142846-1.5171428571428507v-4.285714285714285q0-0.8928571428571423 0.6257142857142846-1.5171428571428578t1.5171428571428578-0.6257142857142881h4.285714285714285q0.8928571428571423 0 1.5171428571428578 0.6257142857142846t0.6257142857142846 1.5171428571428578z m0-11.428571428571427v4.285714285714285q0 0.8928571428571423-0.6257142857142846 1.5171428571428578t-1.5171428571428578 0.6257142857142846h-4.285714285714285q-0.8928571428571423 0-1.5171428571428578-0.6257142857142846t-0.6257142857142846-1.5171428571428578v-4.285714285714285q0-0.8928571428571423 0.6257142857142846-1.5171428571428578t1.5171428571428578-0.6257142857142863h4.285714285714285q0.8928571428571423 0 1.5171428571428578 0.6257142857142863t0.6257142857142846 1.5171428571428578z m0-11.428571428571429v4.2857142857142865q0 0.8928571428571423-0.6257142857142846 1.5171428571428578t-1.5171428571428578 0.6257142857142828h-4.285714285714285q-0.8928571428571423 0-1.5171428571428578-0.6257142857142846t-0.6257142857142846-1.5171428571428578v-4.285714285714286q0-0.8928571428571432 0.6257142857142846-1.5171428571428573t1.5171428571428578-0.6257142857142863h4.285714285714285q0.8928571428571423 0 1.5171428571428578 0.6257142857142859t0.6257142857142846 1.517142857142857z"></path></svg>