<?xml version="1.0"?><svg xmlns="http://www.w3.org/2000/svg" width="40" height="40" viewBox="0 0 40 40"><path d="m12.857142857142858 16.42857142857143v4.285714285714285q0 0.8928571428571423-0.6257142857142863 1.5171428571428578t-1.517142857142856 0.6257142857142846h-4.285714285714286q-0.8928571428571432 0-1.517142857142857-0.6257142857142846t-0.6257142857142872-1.5171428571428578v-4.285714285714285q0-0.8928571428571423 0.6257142857142854-1.5171428571428578t1.5171428571428578-0.6257142857142863h4.2857142857142865q0.8928571428571423 0 1.5171428571428578 0.6257142857142863t0.6257142857142846 1.5171428571428578z m11.428571428571427 0v4.285714285714285q0 0.8928571428571423-0.6257142857142846 1.5171428571428578t-1.5171428571428578 0.6257142857142846h-4.285714285714285q-0.8928571428571423 0-1.5171428571428578-0.6257142857142846t-0.6257142857142846-1.5171428571428578v-4.285714285714285q0-0.8928571428571423 0.6257142857142846-1.5171428571428578t1.5171428571428578-0.6257142857142863h4.285714285714285q0.8928571428571423 0 1.5171428571428578 0.6257142857142863t0.6257142857142846 1.5171428571428578z m11.42857142857143 0v4.285714285714285q0 0.8928571428571423-0.6257142857142881 1.5171428571428578t-1.5171428571428578 0.6257142857142846h-4.285714285714285q-0.8928571428571423 0-1.5171428571428578-0.6257142857142846t-0.6257142857142846-1.5171428571428578v-4.285714285714285q0-0.8928571428571423 0.6257142857142846-1.5171428571428578t1.5171428571428578-0.6257142857142863h4.285714285714285q0.8928571428571459 0 1.5171428571428578 0.6257142857142863t0.6257142857142881 1.5171428571428578z"></path></svg>