<?xml version="1.0"?><svg xmlns="http://www.w3.org/2000/svg" width="40" height="40" viewBox="0 0 40 40"><path d="m19.50857142857143 36.56285714285715v1.471428571428568q-4.642857142857142-0.1328571428571408-8.594285714285714-2.442857142857143t-6.317142857142858-6.1485714285714295l1.2942857142857145-0.7600000000000016q0.6471428571428568 1.0942857142857143 1.6285714285714281 2.210000000000001l1.4528571428571428-1.2714285714285722q3.304285714285715 3.7485714285714273 8.214285714285717 4.7314285714285695l-0.3785714285714299 1.9200000000000017q1.451428571428572 0.2685714285714269 2.6999999999999993 0.29142857142856826z m-13.348571428571429-11.82857142857143l-1.8528571428571432 0.6242857142857154q0.4914285714285711 1.3428571428571416 1.0942857142857143 2.5l-1.2714285714285714 0.7385714285714293q-2.187142857142857-4.018571428571438-2.187142857142857-8.597142857142863t2.185714285714286-8.592857142857143l1.2714285714285714 0.7371428571428567q-0.668571428571429 1.251428571428571-1.0928571428571434 2.5l1.8285714285714292 0.6285714285714281q-0.7785714285714285 2.2271428571428586-0.7785714285714285 4.727142857142859 0 2.4328571428571415 0.7999999999999998 4.732857142857142z m27.94714285714286 3.9485714285714266l1.2942857142857136 0.7571428571428562q-2.364285714285714 3.842857142857145-6.314285714285713 6.151428571428571t-8.595714285714287 2.442857142857143v-1.471428571428575q1.25-0.022857142857141355 2.6999999999999993-0.28999999999999915l-0.3785714285714299-1.9185714285714255q4.91-0.9828571428571422 8.214285714285715-4.732857142857142l1.4514285714285684 1.2714285714285722q0.9828571428571422-1.1142857142857139 1.6285714285714263-2.208571428571428z m-3.37142857142857-12.365714285714287l-5.199999999999999 1.7857142857142847q0.31428571428571317 0.937142857142856 0.31428571428571317 1.8971428571428568t-0.31428571428571317 1.8971428571428568l5.178571428571431 1.7857142857142847q-0.6914285714285704 2.0528571428571425-2.185714285714287 3.7714285714285722l-4.131428571428572-3.614285714285714q-1.2714285714285722 1.4957142857142856-3.2814285714285703 1.8971428571428568l1.071428571428573 5.379999999999999q-1.1571428571428584 0.2228571428571442-2.185714285714287 0.2228571428571442t-2.185714285714287-0.2228571428571442l1.071428571428573-5.379999999999999q-2.0100000000000016-0.3999999999999986-3.282857142857143-1.8971428571428568l-4.12857142857143 3.614285714285714q-1.500000000000007-1.7157142857142844-2.1900000000000066-3.7685714285714305l5.178571428571429-1.7857142857142847q-0.31428571428571495-0.937142857142856-0.31428571428571495-1.8971428571428568t0.31428571428571495-1.8971428571428568l-5.199999999999999-1.7857142857142847q0.735714285714284-2.0771428571428565 2.2071428571428555-3.774285714285714l4.131428571428572 3.614285714285714q1.3171428571428585-1.5171428571428578 3.2814285714285703-1.92l-1.071428571428573-5.357142857142858q0.9814285714285731-0.22285714285714242 2.185714285714287-0.22285714285714242t2.185714285714287 0.22285714285714242l-1.071428571428573 5.357142857142858q1.9657142857142844 0.40000000000000036 3.282857142857143 1.92l4.12857142857143-3.614285714285714q1.475714285714286 1.694285714285714 2.2142857142857153 3.768571428571427z m-11.228571428571431-14.352857142857143v1.4714285714285715q-1.4499999999999993 0.04571428571428582-2.6999999999999993 0.29142857142857137l0.379999999999999 1.9185714285714286q-4.908571428571429 0.9399999999999995-8.215714285714288 4.711428571428571l-1.4500000000000002-1.25q-0.8485714285714288 0.9371428571428577-1.628571428571429 2.185714285714287l-1.274285714285714-0.7357142857142858q2.3671428571428574-3.8400000000000016 6.295714285714286-6.150000000000001t8.592857142857145-2.442857142857143z m18.552857142857142 18.035714285714285q0 4.575714285714284-2.1857142857142833 8.594285714285714l-1.2714285714285722-0.7371428571428567q0.6000000000000014-1.1600000000000001 1.0928571428571416-2.5l-1.8528571428571396-0.6257142857142846q0.8028571428571425-2.3000000000000007 0.8028571428571425-4.732857142857142 0-2.5-0.7814285714285703-4.734285714285715l1.8285714285714292-0.6257142857142863q-0.42285714285713993-1.25-1.0928571428571416-2.5l1.2714285714285722-0.7371428571428567q2.1885714285714286 4.017142857142856 2.1885714285714286 8.594285714285713z m-2.6771428571428544-9.442857142857143l-1.2714285714285722 0.7385714285714293q-0.7828571428571394-1.25-1.6314285714285717-2.185714285714287l-1.451428571428572 1.248571428571429q-3.3028571428571425-3.7714285714285722-8.214285714285715-4.708571428571428l0.379999999999999-1.92q-1.25-0.24571428571428555-2.6999999999999993-0.29000000000000004v-1.4714285714285715q4.664285714285715 0.132857142857143 8.592857142857142 2.442857142857143t6.2928571428571445 6.1499999999999995z m3.63428571428571 9.442857142857143q0-3.861428571428572-1.5071428571428598-7.388571428571428t-4.051428571428573-6.071428571428571-6.071428571428569-4.051428571428572-7.387142857142855-1.5071428571428578-7.39142857142857 1.507142857142857-6.071428571428571 4.051428571428572-4.051428571428572 6.071428571428572-1.504285714285716 7.388571428571428 1.507142857142857 7.388571428571428 4.052857142857143 6.071428571428573 6.071428571428571 4.051428571428573 7.387142857142857 1.5071428571428527 7.385714285714286-1.5071428571428598 6.071428571428569-4.051428571428573 4.0528571428571425-6.071428571428569 1.5071428571428598-7.388571428571424z m0.9828571428571422 0q0 4.062857142857144-1.585714285714289 7.767142857142858t-4.261428571428574 6.385714285714286-6.385714285714286 4.261428571428574-7.764285714285705 1.5857142857142819-7.765714285714285-1.585714285714289-6.385714285714285-4.262857142857143-4.261428571428572-6.385714285714286-1.5857142857142892-7.765714285714282 1.5857142857142859-7.767142857142858 4.261428571428572-6.385714285714285 6.385714285714285-4.261428571428572 7.762857142857143-1.5857142857142854 7.768571428571427 1.5857142857142859 6.385714285714286 4.262857142857143 4.261428571428574 6.385714285714286 1.5842857142857127 7.765714285714285z"></path></svg>