<?xml version="1.0"?><svg xmlns="http://www.w3.org/2000/svg" width="40" height="40" viewBox="0 0 40 40"><path d="m40 15.848571428571429v17.72285714285714q0 1.471428571428575-1.048571428571428 2.5228571428571414t-2.5228571428571414 1.0485714285714351h-32.85714285714286q-1.4714285714285715 0-2.522857142857143-1.048571428571428t-1.0485714285714263-2.5228571428571485v-17.72285714285714q0.9828571428571428 1.0942857142857143 2.2542857142857144 1.942857142857143 8.08 5.489999999999998 11.094285714285714 7.699999999999999 1.2714285714285722 0.937142857142856 2.064285714285715 1.46142857142857t2.1085714285714285 1.071428571428573 2.4571428571428555 0.5471428571428554h0.04285714285714448q1.138571428571428 0 2.4571428571428555-0.5471428571428589t2.1085714285714303-1.071428571428573 2.064285714285713-1.46142857142857q3.7942857142857136-2.7457142857142856 11.114285714285717-7.699999999999999 1.2742857142857176-0.8714285714285701 2.2342857142857113-1.942857142857143z m0-6.562857142857142q0 1.7628571428571433-1.0942857142857179 3.371428571428572t-2.722857142857144 2.7428571428571438l-10.447142857142858 7.257142857142856q-0.2228571428571442 0.15428571428571303-0.9485714285714302 0.6799999999999997t-1.2042857142857137 0.8485714285714288-1.1600000000000001 0.725714285714286-1.282857142857143 0.6028571428571432-1.1142857142857139 0.1999999999999993h-0.04571428571428626q-0.514285714285716 0-1.1142857142857139-0.1999999999999993t-1.2857142857142847-0.6028571428571432-1.1571428571428584-0.725714285714286-1.2071428571428573-0.8485714285714288-0.9485714285714284-0.6814285714285724q-2.031428571428572-1.428571428571427-5.848571428571429-4.075714285714287t-4.5757142857142785-3.1799999999999997q-1.3857142857142861-0.9371428571428577-2.6142857142857148-2.578571428571429t-1.2242857142857144-3.0471428571428554q5.984795992119984e-17-1.7428571428571438 0.9257142857142858-2.9000000000000004t2.645714285714286-1.161428571428571h32.85714285714286q1.451428571428572 0 2.5114285714285742 1.0471428571428572t1.0600000000000023 2.522857142857143z"></path></svg>