<?xml version="1.0"?><svg viewBox="0 0 40 40" xmlns="http://www.w3.org/2000/svg" height="40" width="40"><path d="m21.7 5.8q2 0 3.5 1.4t1.5 3.6v16.6q0 2.1-1.5 3.6t-3.5 1.4h-16.7q-2.1 0-3.5-1.4t-1.5-3.6v-16.6q0-2.1 1.5-3.6t3.5-1.4h16.7z m0.5 18.3v-7.6q-0.5 0.6-1.1 1-0.6 0.4-2.3 1.5t-2.6 1.7q-1.7 1.2-2.9 1.2t-2.8-1.2q-0.8-0.6-2.5-1.6t-2.4-1.6q-0.3-0.2-0.6-0.5t-0.6-0.5v7.6q0 0.7 0.5 1.2t1.2 0.5h14.5q0.7 0 1.1-0.5t0.5-1.2z m0-10q0-0.7-0.5-1.2t-1.1-0.5h-14.5q-0.7 0-1.2 0.5t-0.5 1.2q0 0.6 0.6 1.3t1.1 1.1q0.9 0.6 2.4 1.6t2.3 1.4q0 0.1 0.3 0.2t0.3 0.3q0.2 0.1 0.4 0.2t0.4 0.2q0.2 0.1 0.4 0.2t0.4 0.1q0.2 0.1 0.3 0.1t0.4-0.1q0.2 0 0.4-0.1t0.4-0.2q0.1-0.1 0.4-0.2t0.3-0.2q0.1-0.1 0.4-0.3t0.3-0.2l4.6-3q0.6-0.4 1.2-1.1t0.5-1.3z"></path></svg>