<?xml version="1.0"?><svg viewBox="0 0 40 40" xmlns="http://www.w3.org/2000/svg" height="40" width="40"><path d="m36.2 31.7v-16.2q-0.7 0.8-1.5 1.4-5.6 4.4-8.9 7.1-1.1 1-1.8 1.5t-1.8 1-2.2 0.5h0q-1 0-2.2-0.5t-1.8-1-1.8-1.5q-3.3-2.7-8.9-7.1-0.8-0.6-1.5-1.4v16.2q0 0.3 0.2 0.5t0.5 0.2h31q0.3 0 0.5-0.2t0.2-0.5z m0-22.1v-0.6l0-0.2-0.1-0.3-0.1-0.2-0.2-0.1-0.3-0.1h-31q-0.3 0-0.5 0.2t-0.2 0.5q0 3.5 3.1 6 4.1 3.2 8.5 6.7 0.1 0.1 0.7 0.6t1 0.8 0.9 0.6 1.1 0.6 0.9 0.2h0q0.4 0 0.9-0.2t1.1-0.6 0.9-0.6 1-0.8 0.7-0.6q4.4-3.5 8.5-6.7 1.1-0.9 2.1-2.5t1-2.7z m2.7-0.8v22.9q0 1.4-1 2.4t-2.4 1h-31q-1.4 0-2.4-1t-1-2.4v-22.9q0-1.4 1-2.4t2.4-1h31q1.4 0 2.4 1t1 2.4z"></path></svg>