<?xml version="1.0"?><svg viewBox="0 0 40 40" xmlns="http://www.w3.org/2000/svg" height="40" width="40"><path d="m31.1 15.9v13.8q0 1.1-0.8 1.9t-2 0.8h-25.5q-1.2 0-2-0.8t-0.8-1.9v-13.8q0.8 0.8 1.8 1.5 6.2 4.2 8.6 6 1 0.7 1.6 1.1t1.6 0.8q1.1 0.5 1.9 0.5h0.1q0.9 0 1.9-0.5t1.6-0.8q0.6-0.4 1.6-1.1 3-2.2 8.7-6 1-0.7 1.7-1.5z m0-5.1q0 1.3-0.8 2.6t-2.2 2.1q-6.5 4.6-8.1 5.7-0.2 0.1-0.7 0.5t-1 0.7q-0.3 0.2-0.9 0.5t-1 0.5q-0.4 0.1-0.8 0.1h-0.1q-0.4 0-0.8-0.1t-1-0.5q-0.6-0.3-0.9-0.5t-1-0.7q-0.5-0.4-0.7-0.5-1.6-1.1-4.6-3.2t-3.5-2.5q-1.1-0.7-2-2t-1-2.4q0-1.3 0.7-2.2t2.1-0.9h25.5q1.2 0 2 0.8t0.8 2z"></path></svg>