<?xml version="1.0"?><svg viewBox="0 0 40 40" xmlns="http://www.w3.org/2000/svg" height="40" width="40"><path d="m28.9 29.7v-13.4q-0.6 0.6-1.2 1.2-4.7 3.5-7.4 5.8-0.9 0.8-1.4 1.2t-1.5 0.8q-1 0.5-1.8 0.5h-0.1q-0.8 0-1.7-0.5t-1.5-0.8q-0.6-0.4-1.5-1.2-2.7-2.3-7.4-5.8-0.6-0.6-1.2-1.2v13.4q0 0.2 0.2 0.3t0.4 0.2h25.5q0.3 0 0.4-0.2t0.2-0.3z m0-18.3v-0.4q0-0.1 0-0.2t-0.1-0.3q0 0-0.1-0.1t-0.1-0.1q-0.1-0.1-0.3-0.1h-25.5q-0.2 0-0.4 0.2t-0.2 0.4q0 2.9 2.6 4.9 3.3 2.6 6.9 5.5 0.1 0.1 0.6 0.5t0.8 0.7q0.3 0.2 0.8 0.5t0.9 0.5q0.4 0.1 0.7 0.1h0.1q0.3 0 0.7-0.1t0.9-0.5q0.5-0.3 0.8-0.5t0.8-0.7q0.5-0.4 0.6-0.5 3.6-2.9 6.9-5.5 1-0.8 1.8-2t0.8-2.3z m2.2-0.6v18.9q0 1.1-0.8 1.9t-2 0.8h-25.5q-1.2 0-2-0.8t-0.8-1.9v-18.9q0-1.2 0.8-2t2-0.8h25.5q1.2 0 2 0.8t0.8 2z"></path></svg>