<?xml version="1.0"?><svg xmlns="http://www.w3.org/2000/svg" width="40" height="40" viewBox="0 0 40 40"><path d="m30.357142857142858 29.174285714285716l0.7814285714285703 3.548571428571428q0.0671428571428585 0.2671428571428578-0.0671428571428585 0.5028571428571453t-0.379999999999999 0.32428571428571473l-0.1114285714285721 0.022857142857141355q-0.08999999999999986 0.04571428571428271-0.23428571428571487 0.0799999999999983t-0.35714285714285765 0.10000000000000142-0.4800000000000004 0.12285714285714278-0.5685714285714276 0.11142857142856855-0.6714285714285708 0.11142857142856855-0.7457142857142856 0.10000000000000142-0.8142857142857132 0.06714285714285495-0.8599999999999994 0.022857142857141355q-5.222857142857144 0-9.12857142857143-2.911428571428573t-5.314285714285715-7.845714285714287h-2.1199999999999974q-0.2900000000000009 0-0.5028571428571436-0.21142857142856997t-0.21142857142857174-0.5057142857142765v-2.5228571428571414q0-0.28999999999999915 0.21142857142857174-0.5028571428571418t0.5028571428571436-0.21142857142856997h1.4714285714285715q-0.042857142857142705-1.2714285714285722 0.024285714285714022-2.3428571428571416h-1.4957142857142856q-0.31428571428571495 0-0.5142857142857142-0.20285714285714462t-0.1999999999999993-0.5142857142857125v-2.5428571428571427q0-0.31428571428571495 0.1999999999999993-0.5142857142857142t0.5142857142857142-0.1999999999999993h2.185714285714285q1.4971428571428582-4.685714285714287 5.437142857142856-7.542857142857144t8.939999999999998-2.857142857142857q2.277142857142856 0 4.328571428571429 0.5114285714285716 0.24714285714285822 0.06714285714285717 0.4485714285714302 0.3342857142857141 0.13428571428571345 0.24571428571428555 0.0671428571428585 0.5357142857142856l-0.9600000000000009 3.547142857142857q-0.0671428571428585 0.29000000000000004-0.31428571428571317 0.43571428571428594t-0.5342857142857156 0.05714285714285694l-0.09142857142857252-0.024285714285714022q-0.08999999999999986-0.02142857142857224-0.25714285714285623-0.05428571428571516l-0.39000000000000057-0.07857142857142918-0.5028571428571418-0.07857142857142918-0.5785714285714292-0.06714285714285673-0.6471428571428568-0.05714285714285694-0.6571428571428584-0.021428571428571352q-2.814285714285713 0-5.045714285714286 1.428571428571428t-3.3485714285714288 3.9285714285714217h10.447142857142858q0.35714285714285765 0 0.5571428571428569 0.2671428571428578 0.2228571428571442 0.2671428571428578 0.15714285714285836 0.5800000000000001l-0.5371428571428574 2.5428571428571427q-0.1114285714285721 0.581428571428571-0.7142857142857153 0.581428571428571h-10.889999999999997q-0.06857142857142762 0.8257142857142838 0 2.3428571428571416h10.242857142857144q0.3357142857142854 0 0.5599999999999987 0.2685714285714269 0.1999999999999993 0.2671428571428578 0.13428571428571345 0.6028571428571432l-0.5357142857142847 2.5q-0.04285714285714448 0.24571428571428555-0.24285714285714377 0.4142857142857146t-0.4485714285714302 0.16571428571428726h-8.638571428571428q1.071428571428573 2.611428571428572 3.3357142857142854 4.140000000000001t5.099999999999998 1.5285714285714285q0.3999999999999986 0 0.8028571428571425-0.03285714285714292t0.7471428571428582-0.07714285714285651 0.6571428571428584-0.10000000000000142 0.548571428571428-0.1114285714285721 0.4142857142857146-0.10000000000000142l0.2657142857142851-0.0671428571428585 0.1114285714285721-0.04285714285714448q0.28999999999999915-0.1114285714285721 0.5799999999999983 0.04285714285714448 0.2671428571428578 0.15714285714285836 0.33428571428571274 0.47142857142857153z"></path></svg>