<?xml version="1.0"?><svg viewBox="0 0 40 40" xmlns="http://www.w3.org/2000/svg" height="40" width="40"><path d="m16.9 26.2l0.6999999999999993 2.8000000000000007q0 0.1999999999999993-0.10000000000000142 0.3999999999999986t-0.3000000000000007 0.1999999999999993l-0.10000000000000142 0.10000000000000142q-0.10000000000000142 0-0.1999999999999993 0t-0.1999999999999993 0.10000000000000142q-0.1999999999999993 0-0.3999999999999986 0.10000000000000142t-0.5 0.10000000000000142-0.5 0.10000000000000142-0.5999999999999996 0q-0.3000000000000007 0.10000000000000142-0.5999999999999996 0.10000000000000142t-0.6999999999999993 0q-4 0-7.1-2.3000000000000007t-4.1-6.100000000000001h-1.5999999999999992q-0.3000000000000001 0-0.40000000000000013-0.10000000000000142t-0.2-0.3999999999999986v-2q0-0.1999999999999993 0.2-0.3999999999999986t0.4-0.10000000000000142h1.1v-1.8999999999999986h-1.1q-0.3000000000000001 0-0.40000000000000013-0.10000000000000142t-0.2-0.3999999999999986v-2q0-0.1999999999999993 0.2-0.40000000000000036t0.4-0.09999999999999964h1.6999999999999997q1.1-3.7000000000000064 4.2-5.900000000000006t6.9-2.2q1.8000000000000007 0 3.4000000000000004 0.40000000000000036 0.1999999999999993 0 0.3999999999999986 0.20000000000000018 0.10000000000000142 0.20000000000000018 0 0.40000000000000036l-0.6999999999999993 2.8000000000000007q-0.10000000000000142 0.1999999999999993-0.3000000000000007 0.3000000000000007t-0.40000000000000036 0.09999999999999964h-0.09999999999999964q0-0.09999999999999964-0.1999999999999993-0.09999999999999964h-0.3000000000000007q-0.09999999999999964-0.09999999999999964-0.40000000000000036-0.09999999999999964t-0.40000000000000036-0.09999999999999964h-1q-2.1999999999999993 0-4 1.0999999999999996t-2.5999999999999996 3.0999999999999996h8.200000000000001q0.1999999999999993 0 0.40000000000000036 0.1999999999999993t0.09999999999999964 0.40000000000000036l-0.40000000000000036 1.9999999999999982q-0.09999999999999964 0.3999999999999986-0.5999999999999996 0.3999999999999986h-8.4q-0.09999999999999964 0.6999999999999993 0 1.8999999999999986h7.9q0.3000000000000007 0 0.5 0.1999999999999993 0.09999999999999964 0.1999999999999993 0.09999999999999964 0.3999999999999986l-0.40000000000000036 2q-0.09999999999999964 0.1999999999999993-0.1999999999999993 0.3000000000000007t-0.40000000000000036 0.10000000000000142h-6.699999999999999q0.7999999999999998 2.1000000000000014 2.5999999999999996 3.3000000000000007t4 1.1000000000000014h1.1999999999999993q0.1999999999999993-0.10000000000000142 0.5-0.10000000000000142t0.40000000000000036-0.10000000000000142q0.1999999999999993 0 0.3000000000000007-0.10000000000000142h0.20000000000000107l0.10000000000000142-0.10000000000000142q0.3000000000000007-0.10000000000000142 0.5 0.10000000000000142 0.1999999999999993 0.10000000000000142 0.1999999999999993 0.3000000000000007z"></path></svg>