<?xml version="1.0"?><svg viewBox="0 0 40 40" xmlns="http://www.w3.org/2000/svg" height="40" width="40"><path d="m27.7 27.6l0.8 3.3q0 0.3-0.1 0.5t-0.3 0.3l-0.2 0q0 0.1-0.2 0.1t-0.3 0.1-0.5 0.1-0.5 0.1-0.6 0.1-0.7 0.1-0.8 0.1-0.8 0q-5 0-8.7-2.7t-5-7.5h-2q-0.3 0-0.5-0.2t-0.2-0.4v-2.4q0-0.3 0.2-0.5t0.5-0.2h1.4q0-1.2 0-2.2h-1.4q-0.3 0-0.5-0.2t-0.2-0.5v-2.4q0-0.3 0.2-0.5t0.5-0.2h2.1q1.4-4.4 5.1-7.1t8.5-2.7q2.1 0 4.1 0.5 0.2 0 0.4 0.3 0.1 0.2 0.1 0.5l-1 3.4q0 0.2-0.3 0.4t-0.5 0l0 0q-0.1 0-0.3 0l-0.4-0.1-0.4-0.1-0.6-0.1-0.6 0-0.6 0q-2.7 0-4.8 1.3t-3.1 3.7h9.8q0.4 0 0.6 0.3 0.2 0.2 0.1 0.5l-0.5 2.4q-0.1 0.6-0.7 0.6h-10.3q0 0.8 0 2.2h9.7q0.3 0 0.5 0.3 0.2 0.2 0.2 0.5l-0.5 2.4q-0.1 0.2-0.3 0.4t-0.4 0.1h-8.2q1.1 2.5 3.2 3.9t4.8 1.5q0.4 0 0.8 0t0.7-0.1 0.6-0.1 0.5-0.1 0.4-0.1l0.3-0.1 0.1 0q0.2-0.1 0.5 0 0.3 0.2 0.3 0.5z"></path></svg>