<?xml version="1.0"?><svg viewBox="0 0 40 40" xmlns="http://www.w3.org/2000/svg" height="40" width="40"><path d="m38.9 25v4q0 0.3-0.2 0.5t-0.5 0.2h-29v4.1q0 0.2-0.2 0.4t-0.5 0.2q-0.2 0-0.5-0.2l-6.7-6.7q-0.2-0.2-0.2-0.5 0-0.3 0.2-0.5l6.7-6.7q0.2-0.2 0.5-0.2 0.3 0 0.5 0.2t0.2 0.5v4h29q0.3 0 0.5 0.2t0.2 0.5z m0-11.5q0 0.3-0.2 0.5l-6.7 6.7q-0.2 0.2-0.5 0.2-0.3 0-0.5-0.2t-0.2-0.4v-4.1h-29q-0.3 0-0.5-0.2t-0.2-0.5v-4q0-0.3 0.2-0.5t0.5-0.2h29v-4q0-0.3 0.2-0.5t0.5-0.2q0.2 0 0.5 0.2l6.7 6.7q0.2 0.2 0.2 0.5z"></path></svg>