<?xml version="1.0"?><svg xmlns="http://www.w3.org/2000/svg" width="40" height="40" viewBox="0 0 40 40"><path d="m20 2.857142857142857q4.665714285714287 0 8.604285714285716 2.3000000000000003t6.238571428571426 6.2371428571428575 2.3000000000000043 8.605714285714285-2.299999999999997 8.602857142857143-6.238571428571429 6.238571428571429-8.60428571428572 2.297142857142859-8.604285714285714-2.299999999999997-6.238571428571428-6.237142857142857-2.3000000000000003-8.601428571428578 2.3000000000000003-8.605714285714287 6.238571428571428-6.237142857142856 8.604285714285714-2.3000000000000003z m2.8571428571428577 27.834285714285716v-4.242857142857144q0-0.3114285714285714-0.1999999999999993-0.5228571428571414t-0.49428571428571644-0.21142857142857352h-4.285714285714285q-0.28999999999999915 0-0.5142857142857125 0.2228571428571442t-0.22142857142857153 0.5142857142857125v4.240000000000002q0 0.28999999999999915 0.2228571428571442 0.5142857142857125t0.514285714285716 0.22142857142857153h4.285714285714285q0.28857142857143003 0 0.48999999999999844-0.2142857142857153t0.1999999999999993-0.5228571428571414z m-0.04285714285714448-7.678571428571431l0.3999999999999986-13.862857142857145q0-0.2671428571428578-0.2228571428571442-0.40000000000000036-0.2228571428571371-0.17857142857142705-0.5342857142857085-0.17857142857142705h-4.914285714285718q-0.31428571428571317 0-0.5357142857142847 0.17857142857142883-0.2228571428571442 0.13428571428571345-0.2228571428571442 0.40000000000000036l0.38142857142857167 13.862857142857143q0 0.22142857142857153 0.2228571428571442 0.3885714285714279t0.5357142857142847 0.16714285714285637h4.12857142857143q0.31428571428571317 0 0.5257142857142867-0.16857142857142904t0.23428571428571487-0.39000000000000057z"></path></svg>