<?xml version="1.0"?><svg xmlns="http://www.w3.org/2000/svg" width="40" height="40" viewBox="0 0 40 40"><path d="m24.285714285714285 27.857142857142858v5.0000000000000036q0 0.5799999999999983-0.4242857142857126 1.0042857142857144t-1.0042857142857144 0.42428571428570905h-5.714285714285715q-0.5800000000000018 0-1.0042857142857144-0.42428571428571615t-0.4242857142857126-1.0042857142857073v-5q0-0.5799999999999983 0.4242857142857126-1.0042857142857144t1.0042857142857144-0.42428571428571615h5.714285714285715q0.5800000000000018 0 1.0042857142857144 0.4242857142857126t0.4242857142857126 1.0042857142857144z m0.6714285714285708-23.571428571428573l-0.6285714285714299 17.142857142857142q-0.02142857142857224 0.5800000000000018-0.4571428571428555 1.0042857142857144t-1.0142857142857125 0.42428571428571615h-5.714285714285715q-0.5800000000000018 0-1.014285714285716-0.4242857142857126t-0.45714285714285374-1.0042857142857144l-0.6285714285714299-17.142857142857146q-0.02142857142857224-0.5799999999999992 0.39142857142857146-1.0042857142857136t0.9942857142857164-0.42428571428571393h7.142857142857142q0.5785714285714292 0 0.9914285714285711 0.4242857142857144t0.389999999999997 1.004285714285714z"></path></svg>