<?xml version="1.0"?><svg viewBox="0 0 40 40" xmlns="http://www.w3.org/2000/svg" height="40" width="40"><path d="m6.6 7.6q3.1-1.8 6.7-1.8t6.7 1.8q3.1 1.7 4.9 4.8t1.8 6.7q0 3.6-1.8 6.7t-4.9 4.8q-3 1.8-6.7 1.8t-6.7-1.8q-3-1.7-4.8-4.8t-1.8-6.7q0-3.6 1.8-6.7t4.8-4.8z m9 19.8v-3.3q0-0.2-0.2-0.4t-0.4-0.2h-3.3q-0.2 0-0.4 0.2t-0.2 0.4v3.3q0 0.2 0.2 0.4t0.4 0.2h3.3q0.2 0 0.4-0.2t0.2-0.4z m-0.1-6l0.3-10.7q0-0.2-0.1-0.4-0.2-0.1-0.5-0.1h-3.8q-0.2 0-0.4 0.1-0.2 0.2-0.2 0.4l0.3 10.7q0 0.2 0.2 0.3t0.4 0.2h3.2q0.3 0 0.4-0.2t0.2-0.3z"></path></svg>