<?xml version="1.0"?><svg xmlns="http://www.w3.org/2000/svg" width="40" height="40" viewBox="0 0 40 40"><path d="m19.71 23.571428571428573q0 0.28999999999999915-0.2228571428571442 0.514285714285716l-7.4085714285714275 7.4085714285714275 3.2142857142857153 3.2142857142857153q0.4214285714285708 0.42428571428570905 0.4214285714285708 1.0057142857142836t-0.4228571428571435 1.0028571428571453-1.0057142857142853 0.42571428571428527h-10q-0.5771428571428578 0-1.0000000000000009-0.4285714285714306t-0.4285714285714284-1v-10q0-0.581428571428571 0.4257142857142857-1.0057142857142871t1.0028571428571427-0.4228571428571435 1.0057142857142862 0.4228571428571435l3.2142857142857153 3.2142857142857153 7.4085714285714275-7.408571428571431q0.2242857142857133-0.2242857142857133 0.514285714285716-0.2242857142857133t0.5142857142857125 0.2228571428571442l2.5428571428571445 2.5428571428571445q0.2228571428571442 0.2228571428571442 0.2228571428571442 0.5142857142857125z m17.432857142857145-19.28571428571429v10q0 0.5800000000000001-0.42428571428571615 1.0042857142857144t-1.0042857142857144 0.42428571428571615-1.0042857142857144-0.4242857142857144l-3.2142857142857153-3.2142857142857135-7.41 7.41q-0.2228571428571442 0.2228571428571442-0.514285714285716 0.2228571428571442t-0.5114285714285707-0.2228571428571442l-2.5428571428571445-2.5428571428571445q-0.2242857142857133-0.2242857142857133-0.2242857142857133-0.5142857142857125t0.2228571428571442-0.5142857142857142l7.411428571428569-7.408571428571429-3.2142857142857153-3.2142857142857144q-0.4271428571428544-0.42428571428571527-0.4271428571428544-1.0057142857142871t0.4285714285714306-1 1-0.4285714285714284h10q0.5814285714285745 0 1.0057142857142836 0.4257142857142857t0.42285714285714704 1.0028571428571427z"></path></svg>