<?xml version="1.0"?><svg xmlns="http://www.w3.org/2000/svg" width="40" height="40" viewBox="0 0 40 40"><path d="m20 1.4285714285714286q-3.7714285714285722 0-7.210000000000001 1.4714285714285718t-5.925714285714285 3.9642857142857135-3.961428571428571 5.924285714285714-1.4714285714285715 7.211428571428572 1.4714285714285715 7.208571428571428 3.9614285714285717 5.925714285714282 5.925714285714284 3.96142857142857 7.210000000000001 1.471428571428575 7.210000000000001-1.471428571428575 5.925714285714285-3.96142857142857 3.96142857142857-5.925714285714285 1.471428571428575-7.208571428571425-1.4685714285714297-7.214285714285715-3.96142857142857-5.925714285714285-5.925714285714285-3.9614285714285717-7.212857142857146-1.469999999999999z m0-1.4285714285714286q4.062857142857144 0 7.767142857142858 1.5857142857142859t6.385714285714286 4.2614285714285725 4.261428571428574 6.385714285714284 1.5857142857142819 7.764285714285716-1.585714285714289 7.765714285714285-4.262857142857143 6.385714285714286-6.385714285714286 4.261428571428574-7.765714285714282 1.5857142857142819-7.767142857142858-1.585714285714289-6.385714285714285-4.261428571428574-4.261428571428572-6.385714285714286-1.5857142857142854-7.762857142857136 1.5857142857142859-7.7714285714285705 4.262857142857143-6.385714285714285 6.385714285714286-4.261428571428572 7.765714285714285-1.5814285714285727z m-8.928571428571429 18.571428571428573q0.35714285714285765 0 0.35714285714285765 0.35714285714285765v10.714285714285715q0 0.35714285714285765-0.35714285714285765 0.35714285714285765h-0.7142857142857135q-0.35714285714285765-3.552713678800501e-15-0.35714285714285765-0.3571428571428612v-10.714285714285715q0-0.35714285714285765 0.35714285714285765-0.35714285714285765h0.7142857142857135z m8.928571428571429 1.428571428571427q1.1828571428571415 0 2.0199999999999996 0.8371428571428581t0.8371428571428581 2.0199999999999996q0 0.7814285714285703-0.39000000000000057 1.428571428571427t-1.03857142857143 1.0285714285714285v2.5428571428571445q0 0.31428571428571317-0.1999999999999993 0.514285714285716t-0.5142857142857125 0.1999999999999993h-1.428571428571427q-0.31428571428571317 0-0.514285714285716-0.1999999999999993t-0.1999999999999993-0.514285714285716v-2.5428571428571445q-0.6471428571428568-0.38142857142857167-1.03857142857143-1.0285714285714285t-0.39000000000000057-1.428571428571427q0-1.1828571428571415 0.8371428571428581-2.0199999999999996t2.0199999999999996-0.8371428571428581z m0-17.142857142857142q4.665714285714287 0 8.604285714285716 2.3000000000000007t6.238571428571426 6.237142857142857 2.3000000000000043 8.605714285714285-2.299999999999997 8.602857142857143-6.238571428571429 6.238571428571429-8.60428571428572 2.297142857142859-8.604285714285714-2.299999999999997-6.238571428571428-6.237142857142857-2.3000000000000003-8.601428571428578 2.3000000000000003-8.605714285714287 6.238571428571428-6.237142857142856 8.604285714285714-2.3000000000000003z m-7.857142857142858 10.714285714285714v2.142857142857144q0 0.31428571428571317 0.1999999999999993 0.5142857142857125t0.5142857142857142 0.1999999999999993h1.4285714285714288q0.31428571428571495 0 0.5142857142857142-0.1999999999999993t0.1999999999999993-0.5142857142857142v-2.1428571428571423q0-2.0757142857142856 1.4614285714285717-3.5385714285714283t3.53857142857143-1.4614285714285717 3.53857142857143 1.4614285714285717 1.46142857142857 3.5385714285714283v2.142857142857144q0 0.31428571428571317 0.1999999999999993 0.5142857142857125t0.514285714285716 0.1999999999999993h1.428571428571427q0.31428571428571317 0 0.514285714285716-0.1999999999999993t0.1999999999999993-0.5142857142857142v-2.1428571428571423q0-3.257142857142858-2.3000000000000007-5.557142857142859t-5.557142857142857-2.299999999999998-5.557142857142857 2.3-2.3000000000000007 5.557142857142857z m19.28571428571429 16.42857142857143v-11.42857142857143q0-0.5799999999999983-0.4242857142857126-1.0042857142857144t-1.004285714285718-0.4242857142857126h-20q-0.5800000000000001 0-1.0042857142857144 0.4242857142857126t-0.4242857142857144 1.004285714285718v11.428571428571427q0 0.5799999999999983 0.4242857142857144 1.0042857142857144t1.0042857142857144 0.42428571428571615h20q0.5799999999999983 0 1.0042857142857144-0.4242857142857126t0.42428571428571615-1.004285714285718z"></path></svg>