<?xml version="1.0"?><svg viewBox="0 0 40 40" xmlns="http://www.w3.org/2000/svg" height="40" width="40"><path d="m21.2 5.8q-2.7-1.1-5.6-1.1t-5.7 1.1q-2.6 1.1-4.6 3.1t-3 4.6q-1.2 2.7-1.2 5.6t1.2 5.6q1.1 2.7 3 4.6t4.6 3.1q2.7 1.1 5.7 1.1t5.6-1.1q2.6-1.2 4.6-3.1t3.1-4.6q1.1-2.7 1.1-5.6t-1.1-5.6q-1.2-2.7-3.1-4.6t-4.6-3.1z m-11.7-1q2.9-1.3 6.1-1.3t6 1.3q2.9 1.2 5 3.3t3.3 5q1.2 2.8 1.2 6t-1.2 6q-1.3 2.9-3.3 5t-5 3.3q-2.9 1.3-6 1.3t-6.1-1.3q-2.9-1.2-5-3.3t-3.3-5q-1.2-2.8-1.2-6t1.2-6q1.3-2.9 3.3-5t5-3.3z m-0.9 13.2q0.3 0 0.3 0.3v8.3q0 0.3-0.3 0.3h-0.5q-0.3 0-0.3-0.3v-8.3q0-0.3 0.3-0.3h0.5z m5.4 1.7q0.6-0.6 1.6-0.6t1.5 0.6q0.7 0.7 0.7 1.6 0 0.6-0.3 1.1t-0.8 0.8v2q0 0.3-0.2 0.4t-0.4 0.2h-1.1q-0.2 0-0.4-0.2t-0.2-0.4v-2q-0.5-0.3-0.8-0.8t-0.3-1.1q0-0.9 0.7-1.6z m-5.1-12.1q3-1.8 6.7-1.8t6.6 1.8q3.1 1.7 4.9 4.8t1.8 6.7q0 3.6-1.8 6.7t-4.9 4.8q-3 1.8-6.6 1.8t-6.7-1.8q-3.1-1.7-4.9-4.8t-1.8-6.7q0-3.6 1.8-6.7t4.9-4.8z m0.5 6.5v1.7q0 0.2 0.2 0.4t0.4 0.1h1.1q0.3 0 0.4-0.1t0.2-0.4v-1.7q0-1.6 1.1-2.8t2.8-1.1q1.6 0 2.7 1.1t1.1 2.8v1.7q0 0.2 0.2 0.4t0.4 0.1h1.1q0.3 0 0.4-0.1t0.2-0.4v-1.7q0-2.5-1.8-4.3t-4.3-1.8q-2.6 0-4.4 1.8t-1.8 4.3z m15 12.8v-8.9q0-0.5-0.3-0.8t-0.8-0.3h-15.5q-0.5 0-0.8 0.3t-0.3 0.8v8.9q0 0.4 0.3 0.8t0.8 0.3h15.5q0.5 0 0.8-0.3t0.3-0.8z"></path></svg>