<?xml version="1.0"?><svg viewBox="0 0 40 40" xmlns="http://www.w3.org/2000/svg" height="40" width="40"><path d="m24.4 19.7v5.5q0 2.1-1.4 3.5t-3.6 1.5h-14.4q-2.1 0-3.5-1.5t-1.5-3.5v-14.4q0-2.1 1.5-3.6t3.5-1.4h12.2q0.3 0 0.4 0.1t0.2 0.4v1.1q0 0.3-0.2 0.4t-0.4 0.2h-12.2q-1.1 0-2 0.8t-0.8 2v14.4q0 1.2 0.8 2t2 0.8h14.4q1.2 0 2-0.8t0.8-2v-5.5q0-0.3 0.2-0.4t0.4-0.2h1.1q0.2 0 0.4 0.2t0.1 0.4z m6.7-15v8.8q0 0.5-0.3 0.8t-0.8 0.4q-0.5 0-0.8-0.4l-3-3-11.4 11.3q-0.1 0.2-0.4 0.2t-0.4-0.2l-1.9-2q-0.2-0.2-0.2-0.4t0.2-0.4l11.3-11.3-3.1-3.1q-0.3-0.3-0.3-0.7t0.3-0.8q0.4-0.4 0.8-0.4h8.9q0.5 0 0.8 0.4t0.3 0.8z"></path></svg>