<?xml version="1.0"?><svg viewBox="0 0 40 40" xmlns="http://www.w3.org/2000/svg" height="40" width="40"><path d="m12.8 28.2l1.7-3q-1.9-1.3-2.9-3.4t-1.1-4.2q0-2.6 1.3-4.8-4.8 2.5-8 7.5 3.5 5.4 9 7.9z m8.2-16q0-0.5-0.3-0.8t-0.7-0.3q-2.6 0-4.5 1.9t-1.9 4.6q0 0.4 0.3 0.7t0.7 0.3 0.7-0.3 0.3-0.7q0-1.9 1.3-3.1t3.1-1.3q0.4 0 0.7-0.3t0.3-0.7z m7.7-4.1q0 0.2-0.1 0.2-2.2 4-6.6 12t-6.7 11.9l-1 1.9q-0.2 0.3-0.6 0.3-0.2 0-2.8-1.4-0.4-0.3-0.4-0.6 0-0.3 1-1.9-3-1.3-5.6-3.6t-4.4-5.2q-0.4-0.6-0.4-1.4t0.4-1.5q3.2-5 8-7.8t10.5-2.9q1.9 0 3.8 0.4l1.1-2.1q0.2-0.3 0.6-0.3 0.1 0 0.4 0.1t0.7 0.3 0.7 0.4 0.6 0.4 0.4 0.3q0.4 0.2 0.4 0.5z m0.8 9.5q0 2.9-1.7 5.3t-4.4 3.5l5.9-10.6q0.2 0.9 0.2 1.8z m9.4 2.7q0 0.7-0.4 1.4-0.8 1.4-2.3 3.1-3.2 3.6-7.4 5.6t-8.8 2l1.6-2.8q4.4-0.4 8.2-2.9t6.4-6.4q-2.4-3.8-5.9-6.2l1.3-2.4q2 1.3 3.8 3.2t3.1 3.9q0.4 0.7 0.4 1.5z"></path></svg>