<?xml version="1.0"?><svg xmlns="http://www.w3.org/2000/svg" width="40" height="40" viewBox="0 0 40 40"><path d="m37.900000000000006 2.1q2.0999999999999943 2.0957142857142856 2.0999999999999943 5.0528571428571425t-2.0999999999999943 5.032857142857143l-5.021428571428572 4.9785714285714295 2.3214285714285694 2.321428571428573q0.2228571428571442 0.2228571428571442 0.2228571428571442 0.5142857142857125t-0.2228571428571442 0.5114285714285707l-4.685714285714287 4.685714285714287q-0.2242857142857133 0.2242857142857133-0.514285714285716 0.2242857142857133t-0.5142857142857125-0.2228571428571442l-2.342857142857145-2.3457142857142834-13.46 13.461428571428574q-0.8257142857142856 0.8257142857142838-2.008571428571429 0.8257142857142838h-4.531428571428569l-5.714285714285714 2.857142857142854-1.4285714285714286-1.4285714285714306 2.8571428571428577-5.714285714285715v-4.53142857142857q0-1.1828571428571415 0.8257142857142856-2.008571428571429l13.459999999999999-13.459999999999996-2.3428571428571434-2.3428571428571434q-0.2242857142857151-0.2242857142857151-0.2242857142857151-0.5142857142857142t0.22285714285714242-0.5142857142857142l4.685714285714285-4.685714285714286q0.2228571428571442-0.2228571428571433 0.5142857142857125-0.2228571428571433t0.5114285714285707 0.22285714285714242l2.321428571428573 2.321428571428571 4.977142857142859-5.022857142857143q2.0757142857142874-2.1 5.032857142857139-2.1t5.057142857142857 2.1z m-26.471428571428575 30.75714285714286l12.857142857142854-12.857142857142858-4.285714285714285-4.285714285714285-12.857142857142858 12.857142857142858v4.285714285714285h4.285714285714285z"></path></svg>