<?xml version="1.0"?><svg xmlns="http://www.w3.org/2000/svg" width="40" height="40" viewBox="0 0 40 40"><path d="m35.245714285714286 2.857142857142857q0.7814285714285703 0 1.3400000000000034 0.5571428571428574t0.5571428571428569 1.3428571428571425v30.490000000000006q0 0.7814285714285703-0.5571428571428569 1.3400000000000034t-1.3400000000000034 0.5600000000000023h-8.728571428571428v-13.28142857142857h4.442857142857143l0.6714285714285708-5.178571428571431h-5.114285714285714v-3.3028571428571425q0-1.25 0.5257142857142867-1.8757142857142863t2.0428571428571445-0.6257142857142863l2.722857142857137-0.025714285714293794v-4.617142857142857q-1.4057142857142857-0.1999999999999993-3.9714285714285715-0.1999999999999993-3.0371428571428574 0-4.857142857142858 1.7857142857142865t-1.8171428571428585 5.042857142857143v3.8171428571428567h-4.462857142857139v5.177142857142858h4.462857142857143v13.280000000000001h-16.405714285714286q-0.7814285714285707 0-1.339999999999999-0.5571428571428569t-0.5571428571428569-1.3400000000000034v-30.49142857142857q0-0.7814285714285716 0.5571428571428569-1.3399999999999999t1.3399999999999999-0.5571428571428574h30.491428571428575z"></path></svg>