<?xml version="1.0"?><svg xmlns="http://www.w3.org/2000/svg" width="40" height="40" viewBox="0 0 40 40"><path d="m1.0042857142857142 36.85285714285715q-0.42428571428571427 0.42428571428571615-0.7142857142857143 0.28999999999999915t-0.2899999999999999-0.7142857142857153v-32.85714285714286q0-0.5800000000000001 0.29000000000000004-0.7142857142857144t0.7142857142857144 0.29000000000000004l15.848571428571429 15.84857142857143q0.17857142857142705 0.17857142857142705 0.28999999999999915 0.4242857142857126v-15.848571428571427q0-0.5799999999999996 0.28999999999999915-0.714285714285714t0.7142857142857153 0.29000000000000004l15.848571428571429 15.848571428571429q0.1785714285714306 0.17857142857142705 0.28999999999999915 0.4242857142857126v-15.134285714285713q0-0.5799999999999992 0.42428571428571615-1.0042857142857136t1.0042857142857144-0.42428571428571393h2.857142857142854q0.5799999999999983 0 1.0042857142857144 0.4242857142857144t0.42428571428571615 1.004285714285714v31.42857142857143q0 0.5799999999999983-0.42428571428571615 1.0042857142857144t-1.0042857142857144 0.42428571428571615h-2.857142857142854q-0.5799999999999983 0-1.0042857142857144-0.42428571428571615t-0.42428571428571615-1.0042857142857144v-15.134285714285713q-0.11142857142856855 0.2228571428571442-0.28999999999999915 0.4242857142857126l-15.848571428571429 15.848571428571432q-0.4242857142857126 0.42428571428571615-0.7142857142857153 0.28999999999999915t-0.28999999999999915-0.7142857142857153v-15.848571428571429q-0.1114285714285721 0.2228571428571442-0.28999999999999915 0.4242857142857126z"></path></svg>