<?xml version="1.0"?><svg xmlns="http://www.w3.org/2000/svg" width="40" height="40" viewBox="0 0 40 40"><path d="m38.995714285714286 3.147142857142857q0.42428571428571615-0.4242857142857144 0.7142857142857153-0.29000000000000004t0.28999999999999915 0.7142857142857144v32.85714285714286q0 0.5799999999999983-0.28999999999999915 0.7142857142857153t-0.7142857142857153-0.28999999999999915l-15.848571428571429-15.848571428571432q-0.1999999999999993-0.1999999999999993-0.28999999999999915-0.4242857142857126v15.848571428571429q0 0.5799999999999983-0.28999999999999915 0.7142857142857153t-0.7142857142857153-0.28999999999999915l-15.848571428571429-15.848571428571432q-0.20000000000000018-0.1999999999999993-0.29000000000000004-0.4242857142857126v15.134285714285713q0 0.5799999999999983-0.4242857142857144 1.0042857142857144t-1.0042857142857144 0.42428571428571615h-2.8571428571428568q-0.5800000000000003 0-1.0042857142857144-0.42428571428571615t-0.4242857142857144-1.0042857142857144v-31.42857142857143q0-0.5799999999999992 0.42428571428571427-1.0042857142857136t1.0042857142857144-0.42428571428571393h2.8571428571428568q0.5800000000000001 0 1.0042857142857144 0.4242857142857144t0.4242857142857144 1.004285714285714v15.134285714285713q0.08999999999999986-0.24571428571428555 0.29000000000000004-0.4242857142857126l15.848571428571429-15.848571428571429q0.4242857142857126-0.4242857142857144 0.7142857142857153-0.29000000000000004t0.28999999999999915 0.7142857142857144v15.84857142857143q0.08999999999999986-0.24571428571428555 0.28999999999999915-0.4242857142857126z"></path></svg>