<?xml version="1.0"?><svg viewBox="0 0 40 40" xmlns="http://www.w3.org/2000/svg" height="40" width="40"><path d="m7.2 8.1q1.4 0 2.4 1t0.9 2.4v22.9q0 1.4-0.9 2.4t-2.4 1h-2.7q-1.4 0-2.4-1t-1-2.4v-22.9q0-1.4 1-2.4t2.4-1h2.7z m29 3.4q1.2 0.8 2 2t0.7 2.7v16.2q0 2.2-1.6 3.8t-3.8 1.6h-18.2q-1.4 0-2.4-1t-1-2.4v-32.4q0-0.8 0.6-1.4t1.4-0.6h14.2q0.8 0 1.9 0.4t1.6 1l3.2 3.2q0.6 0.6 1 1.6t0.4 1.9v3.4z m-15.5 20.9v-2.7q0-0.3-0.2-0.5t-0.5-0.2h-2.7q-0.3 0-0.5 0.2t-0.2 0.5v2.7q0 0.3 0.2 0.5t0.5 0.2h2.7q0.3 0 0.5-0.2t0.2-0.5z m0-5.4v-2.7q0-0.3-0.2-0.5t-0.5-0.2h-2.7q-0.3 0-0.5 0.2t-0.2 0.5v2.7q0 0.3 0.2 0.5t0.5 0.2h2.7q0.3 0 0.5-0.2t0.2-0.5z m0-5.4v-2.7q0-0.3-0.2-0.5t-0.5-0.2h-2.7q-0.3 0-0.5 0.2t-0.2 0.5v2.7q0 0.3 0.2 0.5t0.5 0.2h2.7q0.3 0 0.5-0.2t0.2-0.5z m5.4 10.8v-2.7q0-0.3-0.2-0.5t-0.5-0.2h-2.7q-0.3 0-0.5 0.2t-0.2 0.5v2.7q0 0.3 0.2 0.5t0.5 0.2h2.7q0.3 0 0.5-0.2t0.2-0.5z m0-5.4v-2.7q0-0.3-0.2-0.5t-0.5-0.2h-2.7q-0.3 0-0.5 0.2t-0.2 0.5v2.7q0 0.3 0.2 0.5t0.5 0.2h2.7q0.3 0 0.5-0.2t0.2-0.5z m0-5.4v-2.7q0-0.3-0.2-0.5t-0.5-0.2h-2.7q-0.3 0-0.5 0.2t-0.2 0.5v2.7q0 0.3 0.2 0.5t0.5 0.2h2.7q0.3 0 0.5-0.2t0.2-0.5z m5.4 10.8v-2.7q0-0.3-0.2-0.5t-0.5-0.2h-2.7q-0.3 0-0.5 0.2t-0.2 0.5v2.7q0 0.3 0.2 0.5t0.5 0.2h2.7q0.3 0 0.5-0.2t0.2-0.5z m0-5.4v-2.7q0-0.3-0.2-0.5t-0.5-0.2h-2.7q-0.3 0-0.5 0.2t-0.2 0.5v2.7q0 0.3 0.2 0.5t0.5 0.2h2.7q0.3 0 0.5-0.2t0.2-0.5z m0-5.4v-2.7q0-0.3-0.2-0.5t-0.5-0.2h-2.7q-0.3 0-0.5 0.2t-0.2 0.5v2.7q0 0.3 0.2 0.5t0.5 0.2h2.7q0.3 0 0.5-0.2t0.2-0.5z m2-8.1v-5.4h-3.4q-0.8 0-1.4-0.6t-0.6-1.4v-3.4h-13.5v10.8h18.9z"></path></svg>