<?xml version="1.0"?><svg xmlns="http://www.w3.org/2000/svg" width="40" height="40" viewBox="0 0 40 40"><path d="m6.428571428571429 8.571428571428571q1.4714285714285715 0 2.522857142857143 1.048571428571428t1.048571428571428 2.522857142857143v24.28571428571429q0 1.471428571428575-1.048571428571428 2.5228571428571414t-2.522857142857143 1.048571428571428h-2.857142857142857q-1.4714285714285715 0-2.522857142857143-1.048571428571428t-1.0485714285714285-2.5228571428571414v-24.285714285714285q0-1.4714285714285715 1.0485714285714285-2.522857142857143t2.522857142857143-1.0485714285714316h2.857142857142857z m30.714285714285715 3.6385714285714297q1.2942857142857136 0.757142857142858 2.075714285714284 2.0757142857142856t0.7814285714285703 2.857142857142856v17.142857142857142q0 2.365714285714283-1.6742857142857162 4.039999999999999t-4.039999999999999 1.6742857142857162h-19.285714285714285q-1.4714285714285715 0-2.522857142857143-1.048571428571428t-1.048571428571428-2.5228571428571414v-34.285714285714285q0-0.8928571428571428 0.6257142857142863-1.5171428571428573t1.517142857142856-0.6257142857142886h15.000000000000002q0.8928571428571423 0 1.9642857142857153 0.4471428571428572t1.697142857142854 1.0714285714285716l3.392857142857146 3.3928571428571423q0.6257142857142881 0.6257142857142854 1.0714285714285694 1.6971428571428575t0.4457142857142884 1.9628571428571426v3.642857142857144z m-16.42857142857143 22.075714285714284v-2.8571428571428577q0-0.31428571428571317-0.1999999999999993-0.514285714285716t-0.514285714285716-0.19999999999999574h-2.8571428571428577q-0.31428571428571317 0-0.514285714285716 0.1999999999999993t-0.1999999999999993 0.514285714285716v2.857142857142854q0 0.3142857142857167 0.1999999999999993 0.5142857142857125t0.5142857142857125 0.20000000000000284h2.8571428571428577q0.31428571428571317 0 0.514285714285716-0.20000000000000284t0.1999999999999993-0.5142857142857125z m0-5.714285714285715v-2.8571428571428577q0-0.31428571428571317-0.1999999999999993-0.514285714285716t-0.514285714285716-0.19999999999999574h-2.8571428571428577q-0.31428571428571317 0-0.514285714285716 0.1999999999999993t-0.1999999999999993 0.514285714285716v2.8571428571428577q0 0.31428571428571317 0.1999999999999993 0.514285714285716t0.5142857142857125 0.1999999999999993h2.8571428571428577q0.31428571428571317 0 0.514285714285716-0.1999999999999993t0.1999999999999993-0.5142857142857125z m0-5.714285714285715v-2.8571428571428577q0-0.31428571428571317-0.1999999999999993-0.514285714285716t-0.514285714285716-0.19999999999999574h-2.8571428571428577q-0.31428571428571317 0-0.514285714285716 0.1999999999999993t-0.1999999999999993 0.514285714285716v2.8571428571428577q0 0.31428571428571317 0.1999999999999993 0.514285714285716t0.5142857142857125 0.1999999999999993h2.8571428571428577q0.31428571428571317 0 0.514285714285716-0.1999999999999993t0.1999999999999993-0.5142857142857125z m5.714285714285715 11.42857142857143v-2.8571428571428577q0-0.31428571428571317-0.1999999999999993-0.514285714285716t-0.514285714285716-0.19999999999999574h-2.8571428571428577q-0.31428571428571317 0-0.514285714285716 0.1999999999999993t-0.1999999999999993 0.514285714285716v2.857142857142854q0 0.3142857142857167 0.1999999999999993 0.5142857142857125t0.5142857142857125 0.20000000000000284h2.8571428571428577q0.31428571428571317 0 0.514285714285716-0.20000000000000284t0.1999999999999993-0.5142857142857125z m0-5.714285714285715v-2.8571428571428577q0-0.31428571428571317-0.1999999999999993-0.514285714285716t-0.514285714285716-0.19999999999999574h-2.8571428571428577q-0.31428571428571317 0-0.514285714285716 0.1999999999999993t-0.1999999999999993 0.514285714285716v2.8571428571428577q0 0.31428571428571317 0.1999999999999993 0.514285714285716t0.5142857142857125 0.1999999999999993h2.8571428571428577q0.31428571428571317 0 0.514285714285716-0.1999999999999993t0.1999999999999993-0.5142857142857125z m0-5.714285714285715v-2.8571428571428577q0-0.31428571428571317-0.1999999999999993-0.514285714285716t-0.514285714285716-0.19999999999999574h-2.8571428571428577q-0.31428571428571317 0-0.514285714285716 0.1999999999999993t-0.1999999999999993 0.514285714285716v2.8571428571428577q0 0.31428571428571317 0.1999999999999993 0.514285714285716t0.5142857142857125 0.1999999999999993h2.8571428571428577q0.31428571428571317 0 0.514285714285716-0.1999999999999993t0.1999999999999993-0.5142857142857125z m5.714285714285715 11.42857142857143v-2.8571428571428577q0-0.31428571428571317-0.1999999999999993-0.514285714285716t-0.514285714285716-0.19999999999999574h-2.8571428571428577q-0.31428571428571317 0-0.514285714285716 0.1999999999999993t-0.1999999999999993 0.514285714285716v2.857142857142854q0 0.3142857142857167 0.1999999999999993 0.5142857142857125t0.5142857142857125 0.20000000000000284h2.8571428571428577q0.31428571428571317 0 0.514285714285716-0.20000000000000284t0.20000000000000284-0.5142857142857125z m0-5.714285714285715v-2.8571428571428577q0-0.31428571428571317-0.1999999999999993-0.514285714285716t-0.514285714285716-0.19999999999999574h-2.8571428571428577q-0.31428571428571317 0-0.514285714285716 0.1999999999999993t-0.1999999999999993 0.514285714285716v2.8571428571428577q0 0.31428571428571317 0.1999999999999993 0.514285714285716t0.5142857142857125 0.1999999999999993h2.8571428571428577q0.31428571428571317 0 0.514285714285716-0.1999999999999993t0.20000000000000284-0.5142857142857125z m0-5.714285714285715v-2.8571428571428577q0-0.31428571428571317-0.1999999999999993-0.514285714285716t-0.514285714285716-0.19999999999999574h-2.8571428571428577q-0.31428571428571317 0-0.514285714285716 0.1999999999999993t-0.1999999999999993 0.514285714285716v2.8571428571428577q0 0.31428571428571317 0.1999999999999993 0.514285714285716t0.5142857142857125 0.1999999999999993h2.8571428571428577q0.31428571428571317 0 0.514285714285716-0.1999999999999993t0.20000000000000284-0.5142857142857125z m2.142857142857146-8.571428571428571v-5.714285714285712h-3.571428571428573q-0.8928571428571423 0-1.5171428571428578-0.6257142857142854t-0.6257142857142881-1.517142857142857v-3.5714285714285716h-14.285714285714286v11.428571428571429h20z"></path></svg>