<?xml version="1.0"?><svg viewBox="0 0 40 40" xmlns="http://www.w3.org/2000/svg" height="40" width="40"><path d="m5.7 24.5q1 1 1 2.4t-1 2.3q-1 1-2.4 1t-2.3-1q-1-0.9-1-2.3t1-2.4q0.9-1 2.3-1t2.4 1z m9.9 4.5q0 0.5-0.3 0.8-0.4 0.4-0.9 0.4h-2.3q-0.4 0-0.7-0.3t-0.4-0.7q-0.4-4-3.2-6.8t-6.8-3.2q-0.4 0-0.7-0.3t-0.3-0.8v-2.3q0-0.5 0.4-0.9 0.3-0.2 0.7-0.2h0.1q2.8 0.2 5.3 1.3t4.5 3.2q2 2 3.2 4.5t1.4 5.3z m8.8 0q0.1 0.5-0.3 0.9-0.3 0.3-0.8 0.3h-2.4q-0.5 0-0.8-0.3t-0.4-0.7q-0.2-3.8-1.7-7.1t-4-5.9q-2.5-2.4-5.9-4t-7.1-1.7q-0.4-0.1-0.7-0.4t-0.3-0.7v-2.5q0-0.5 0.3-0.8 0.4-0.3 0.8-0.3h0.1q4.5 0.2 8.7 2t7.4 5.2q3.2 3.2 5.1 7.3t2 8.7z"></path></svg>