<?xml version="1.0"?><svg viewBox="0 0 40 40" xmlns="http://www.w3.org/2000/svg" height="40" width="40"><path d="m22.2 21.9q0 0.7-0.5 1.2t-1.1 0.4q-0.9 0-1.4-0.7l-4-5.9h-0.8v2.3l4.3 7.1q0.2 0.3 0.2 0.6 0 0.4-0.3 0.8t-0.8 0.3h-3.4v4.7q0 0.8-0.5 1.4t-1.4 0.6h-2.8q-0.8 0-1.3-0.6t-0.6-1.4v-4.7h-3.4q-0.4 0-0.7-0.3t-0.4-0.8q0-0.3 0.2-0.6l4.3-7.1v-2.3h-0.8l-3.9 5.9q-0.5 0.7-1.4 0.7-0.7 0-1.2-0.4t-0.5-1.2q0-0.5 0.3-0.9l4.4-6.7q1.3-1.9 3.1-1.9h6.6q1.8 0 3.1 1.9l4.4 6.7q0.3 0.4 0.3 0.9z m-8.3-16.7q1.1 1.2 1.1 2.8t-1.1 2.7q-1.2 1.2-2.8 1.2t-2.7-1.2q-1.2-1.1-1.2-2.7t1.2-2.8q1.1-1.1 2.7-1.1t2.8 1.1z"></path></svg>