<?xml version="1.0"?><svg viewBox="0 0 40 40" xmlns="http://www.w3.org/2000/svg" height="40" width="40"><path d="m33.5 22.3q0 0.8-0.6 1.4t-1.4 0.6q-1.1 0-1.7-0.9l-4.8-7.2h-0.9v2.8l5.2 8.7q0.2 0.3 0.2 0.7 0 0.5-0.4 0.9t-1 0.4h-4v5.7q0 1-0.7 1.7t-1.7 0.7h-3.4q-1 0-1.7-0.7t-0.7-1.7v-5.7h-4q-0.5 0-1-0.4t-0.4-0.9q0-0.4 0.2-0.7l5.2-8.7v-2.8h-0.9l-4.8 7.2q-0.6 0.9-1.7 0.9-0.8 0-1.4-0.6t-0.6-1.4q0-0.6 0.3-1.1l5.4-8.1q1.6-2.3 3.7-2.3h8.2q2.1 0 3.7 2.3l5.4 8.1q0.3 0.5 0.3 1.1z m-8.8-16.9q0 2-1.4 3.3t-3.3 1.4-3.3-1.4-1.4-3.3 1.4-3.3 3.3-1.4 3.3 1.4 1.4 3.3z"></path></svg>