<?xml version="1.0"?><svg xmlns="http://www.w3.org/2000/svg" width="40" height="40" viewBox="0 0 40 40"><path d="m35.62428571428572 8.482857142857142q0.6257142857142881 0.6257142857142863 1.0714285714285694 1.6971428571428575t0.4471428571428575 1.9628571428571426v25.71428571428572q0 0.894285714285715-0.6257142857142881 1.518571428571427t-1.5171428571428578 0.6242857142857119h-30q-0.8928571428571432 0-1.5171428571428573-0.6242857142857119t-0.6257142857142854-1.518571428571427v-35.714285714285715q0-0.890000000000003 0.6257142857142859-1.5142857142857173t1.517142857142857-0.6285714285714286h20q0.8928571428571423 0 1.9642857142857153 0.44857142857142857t1.6971428571428575 1.0714285714285714z m-9.910000000000004-5.447142857142857v8.392857142857142h8.392857142857146q-0.2228571428571442-0.647142857142855-0.4914285714285711-0.9142857142857128l-6.9857142857142875-6.988571428571429q-0.2671428571428578-0.2671428571428569-0.9142857142857146-0.49142857142857155z m8.57142857142857 34.10714285714286v-22.85714285714286h-9.285714285714285q-0.8928571428571423 1.7763568394002505e-15-1.5171428571428578-0.6257142857142846t-0.6257142857142846-1.5171428571428578v-9.285714285714285h-17.142857142857142v34.28571428571428h28.57142857142857z m-11.471428571428572-13.237142857142857q0.735714285714284 0.5799999999999983 1.87142857142857 1.25 1.3185714285714276-0.15714285714285836 2.614285714285714-0.15714285714285836 3.280000000000001 0 3.9499999999999993 1.0942857142857143 0.35714285714285765 0.4914285714285711 0.04285714285714448 1.1600000000000001 0 0.022857142857141355-0.02142857142857224 0.04285714285714448l-0.04285714285714448 0.04571428571428626v0.022857142857141355q-0.13571428571428612 0.8485714285714288-1.5857142857142854 0.8485714285714288-1.071428571428573 0-2.5671428571428585-0.4471428571428575t-2.8999999999999986-1.1828571428571415q-4.934285714285714 0.5342857142857156-8.751428571428573 1.8514285714285705-3.4142857142857093 5.851428571428567-5.399999999999993 5.851428571428567-0.3357142857142854 0-0.6285714285714281-0.15714285714285836l-0.5342857142857138-0.2657142857142887q-0.02285714285714313-0.022857142857141355-0.13428571428571345-0.11142857142856855-0.2242857142857151-0.2228571428571442-0.13571428571428612-0.8028571428571425 0.1999999999999993-0.8928571428571459 1.25-2.0428571428571445t2.9471428571428575-2.154285714285713q0.31428571428571495-0.1999999999999993 0.5142857142857142 0.13428571428571345 0.042857142857142705 0.04285714285714448 0.042857142857142705 0.08999999999999986 1.1600000000000001-1.8971428571428568 2.388571428571428-4.397142857142857 1.517142857142856-3.0357142857142847 2.321428571428571-5.848571428571429-0.5357142857142847-1.8285714285714292-0.6814285714285724-3.557142857142857t0.14571428571428413-2.847142857142858q0.24571428571428555-0.8928571428571423 0.937142857142856-0.8928571428571423h0.49285714285714377q0.514285714285716 0 0.7814285714285703 0.3342857142857145 0.3999999999999986 0.468571428571428 0.1999999999999993 1.5171428571428578-0.04285714285714448 0.13428571428571345-0.08857142857142719 0.17857142857142883 0.022857142857141355 0.06714285714285673 0.022857142857141355 0.17857142857142883v0.6714285714285708q-0.04285714285714448 2.7428571428571438-0.31428571428571317 4.285714285714285 1.2285714285714278 3.6571428571428584 3.2600000000000016 5.311428571428571z m-12.857142857142858 9.174285714285716q1.1571428571428566-0.5357142857142847 3.057142857142857-3.5285714285714285-1.138571428571428 0.894285714285715-1.9528571428571428 1.8771428571428572t-1.104285714285714 1.6514285714285712z m8.881428571428572-20.53714285714286q-0.33428571428571274 0.9385714285714268-0.04285714285714448 2.9485714285714266 0.02142857142857224-0.15714285714285658 0.15428571428571303-0.9828571428571422 0-0.06714285714285673 0.15714285714285836-0.9600000000000009 0.02142857142857224-0.08999999999999986 0.08857142857142719-0.17857142857142883-0.022857142857141355-0.024285714285714022-0.022857142857141355-0.04571428571428626t-0.011428571428570677-0.03285714285714292-0.011428571428570677-0.03285714285714292q-0.022857142857141355-0.4914285714285711-0.28999999999999915-0.8028571428571425 0 0.02285714285714313-0.022857142857141355 0.042857142857142705v0.04571428571428626z m-2.7671428571428542 14.757142857142856q3.014285714285716-1.2071428571428555 6.34-1.8099999999999987-0.04285714285714448-0.022857142857141355-0.28999999999999915-0.21142857142856997t-0.35714285714285765-0.3000000000000007q-1.6971428571428575-1.4971428571428582-2.8342857142857163-3.928571428571427-0.6000000000000014 1.918571428571429-1.8514285714285705 4.395714285714284-0.6714285714285708 1.25-1.0042857142857144 1.8528571428571432z m14.419999999999998-0.35714285714285765q-0.5357142857142847-0.5371428571428574-3.1257142857142846-0.5371428571428574 1.6971428571428575 0.6257142857142846 2.767142857142858 0.6257142857142846 0.31428571428571317 0 0.3999999999999986-0.022857142857141355 0-0.022857142857141355-0.04285714285714448-0.0671428571428585z"></path></svg>