<?xml version="1.0"?><svg viewBox="0 0 40 40" xmlns="http://www.w3.org/2000/svg" height="40" width="40"><path d="m25.5 11.8q0.2 0.2 0.5 0.6h-8.2v-8.2q0.4 0.3 0.6 0.5l7.1 7.1z m-8.3 2.9h9.5v18.3q0 0.7-0.5 1.2t-1.2 0.5h-23.3q-0.7 0-1.2-0.5t-0.5-1.2v-27.8q0-0.7 0.5-1.2t1.2-0.5h13.9v9.5q0 0.7 0.4 1.2t1.2 0.5z m2.8 12.7v-1.1q0-0.2-0.2-0.4t-0.4-0.1h-12.2q-0.2 0-0.4 0.1t-0.1 0.4v1.1q0 0.3 0.1 0.4t0.4 0.2h12.2q0.3 0 0.4-0.2t0.2-0.4z m0-4.4v-1.1q0-0.3-0.2-0.4t-0.4-0.2h-12.2q-0.2 0-0.4 0.2t-0.1 0.4v1.1q0 0.2 0.1 0.4t0.4 0.1h12.2q0.3 0 0.4-0.1t0.2-0.4z m0-4.5v-1.1q0-0.2-0.2-0.4t-0.4-0.1h-12.2q-0.2 0-0.4 0.1t-0.1 0.4v1.1q0 0.3 0.1 0.4t0.4 0.2h12.2q0.3 0 0.4-0.2t0.2-0.4z"></path></svg>