<?xml version="1.0"?><svg viewBox="0 0 40 40" xmlns="http://www.w3.org/2000/svg" height="40" width="40"><path d="m25.5 10.1q0.5 0.5 0.8 1.4t0.4 1.5v20q0 0.7-0.5 1.2t-1.2 0.5h-23.3q-0.7 0-1.2-0.5t-0.5-1.2v-27.8q0-0.7 0.5-1.2t1.2-0.5h15.5q0.7 0 1.6 0.4t1.3 0.8l5.4 5.4z m-7.7-4.2v6.5h6.5q-0.2-0.5-0.4-0.7l-5.4-5.4q-0.2-0.2-0.7-0.4z m6.6 26.5v-17.7h-7.2q-0.7 0-1.2-0.5t-0.4-1.2v-7.2h-13.4v26.6h22.2z m-20.4-15.5v1.8h1.3l2.8 11.5h2.8l2.2-8.4q0.1-0.4 0.2-0.8 0-0.3 0-0.4h0.1l0 0.4q0 0 0.1 0.3t0.1 0.5l2.2 8.4h2.8l2.8-11.5h1.2v-1.8h-5.2v1.8h1.6l-1.7 7.6q-0.1 0.4-0.2 0.8l0 0.4h-0.1l0-0.4q0-0.1-0.1-0.3t-0.1-0.5l-2.5-9.4h-2l-2.5 9.4q0 0.2 0 0.5t-0.1 0.3l-0.1 0.4h0l-0.1-0.4q0-0.4-0.1-0.8l-1.7-7.6h1.6v-1.8h-5.3z"></path></svg>