<?xml version="1.0"?><svg viewBox="0 0 40 40" xmlns="http://www.w3.org/2000/svg" height="40" width="40"><path d="m25.5 10.1q0.5 0.5 0.8 1.4t0.4 1.5v20q0 0.7-0.5 1.2t-1.2 0.5h-23.3q-0.7 0-1.2-0.5t-0.5-1.2v-27.8q0-0.7 0.5-1.2t1.2-0.5h15.5q0.7 0 1.6 0.4t1.3 0.8l5.4 5.4z m-7.7-4.2v6.5h6.5q-0.2-0.5-0.4-0.7l-5.4-5.4q-0.2-0.2-0.7-0.4z m6.6 26.5v-17.7h-7.2q-0.7 0-1.2-0.5t-0.4-1.2v-7.2h-13.4v26.6h22.2z m-13.6-14.1q0.3 0.1 0.3 0.5v9.5q0 0.3-0.3 0.5-0.2 0-0.2 0-0.3 0-0.4-0.1l-2.9-2.9h-2.3q-0.2 0-0.4-0.2t-0.2-0.4v-3.3q0-0.3 0.2-0.4t0.4-0.2h2.3l2.9-2.9q0.2-0.2 0.6-0.1z m7.2 12q0.5 0 0.9-0.5 2.2-2.7 2.2-6.3t-2.2-6.3q-0.3-0.3-0.8-0.4t-0.8 0.3q-0.4 0.3-0.4 0.7t0.3 0.8q1.7 2.2 1.7 4.9t-1.7 4.9q-0.3 0.4-0.3 0.9t0.4 0.7q0.3 0.3 0.7 0.3z m-3.7-2.6q0.5 0 0.9-0.4 1.5-1.6 1.5-3.8t-1.5-3.8q-0.4-0.3-0.8-0.3t-0.8 0.3q-0.4 0.3-0.4 0.8t0.3 0.8q0.9 1 0.9 2.2t-0.9 2.3q-0.3 0.4-0.3 0.8t0.4 0.8q0.3 0.3 0.7 0.3z"></path></svg>