<?xml version="1.0"?><svg viewBox="0 0 40 40" xmlns="http://www.w3.org/2000/svg" height="40" width="40"><path d="m25.5 10.1q0.5 0.5 0.8 1.4t0.4 1.5v20q0 0.7-0.5 1.2t-1.2 0.5h-23.3q-0.7 0-1.2-0.5t-0.5-1.2v-27.8q0-0.7 0.5-1.2t1.2-0.5h15.5q0.7 0 1.6 0.4t1.3 0.8l5.4 5.4z m-7.7-4.2v6.5h6.5q-0.2-0.5-0.4-0.7l-5.4-5.4q-0.2-0.2-0.7-0.4z m6.6 26.5v-17.7h-7.2q-0.7 0-1.2-0.5t-0.4-1.2v-7.2h-13.4v26.6h22.2z m-17.2-4v1.8h5.7v-1.8h-1.6v-2.9h2.4q1.3 0 2-0.3 1.2-0.4 1.9-1.5t0.6-2.5q0-1.4-0.6-2.5t-1.7-1.5q-0.9-0.3-2.3-0.3h-6.4v1.8h1.6v9.7h-1.6z m6.2-4.9h-2.1v-4.6h2.1q0.9 0 1.4 0.3 1 0.5 1 2 0 1.5-1.1 2-0.5 0.3-1.3 0.3z"></path></svg>