<?xml version="1.0"?><svg viewBox="0 0 40 40" xmlns="http://www.w3.org/2000/svg" height="40" width="40"><path d="m34 8q0.6 0.6 1 1.6t0.4 1.9v24.3q0 0.8-0.6 1.4t-1.4 0.6h-28.4q-0.8 0-1.4-0.6t-0.6-1.4v-33.8q0-0.8 0.6-1.4t1.4-0.6h18.9q0.9 0 1.9 0.4t1.6 1z m-9.4-5.1v7.9h7.9q-0.2-0.6-0.4-0.9l-6.6-6.6q-0.3-0.2-0.9-0.4z m8.1 32.2v-21.6h-8.8q-0.8 0-1.4-0.6t-0.6-1.4v-8.8h-16.2v32.4h27z m-10.8-12.5q0.7 0.5 1.7 1.2 1.3-0.2 2.5-0.2 3.1 0 3.7 1.1 0.4 0.4 0.1 1.1 0 0 0 0l-0.1 0v0.1q-0.1 0.8-1.5 0.8-1 0-2.4-0.5t-2.7-1.1q-4.7 0.5-8.3 1.8-3.2 5.5-5.1 5.5-0.3 0-0.6-0.1l-0.5-0.3q0 0-0.1-0.1-0.3-0.2-0.2-0.8 0.2-0.8 1.2-1.9t2.8-2q0.3-0.2 0.5 0.1 0 0 0 0.1 1.1-1.8 2.3-4.2 1.4-2.8 2.2-5.5-0.5-1.7-0.7-3.4t0.2-2.7q0.2-0.8 0.9-0.8h0.4q0.5 0 0.8 0.3 0.3 0.5 0.1 1.5 0 0.1 0 0.1 0 0.1 0 0.2v0.6q-0.1 2.6-0.3 4.1 1.1 3.4 3.1 5z m-12.2 8.7q1.1-0.5 2.9-3.4-1.1 0.9-1.8 1.8t-1.1 1.6z m8.4-19.4q-0.3 0.8 0 2.7 0-0.1 0.1-0.9 0-0.1 0.2-0.9 0-0.1 0-0.2 0 0 0 0t0 0 0-0.1q0-0.4-0.3-0.7 0 0 0 0v0.1z m-2.6 13.9q2.8-1.1 6-1.7-0.1 0-0.3-0.2t-0.3-0.3q-1.6-1.4-2.7-3.7-0.6 1.8-1.8 4.1-0.6 1.2-0.9 1.8z m13.6-0.3q-0.5-0.5-2.9-0.5 1.6 0.5 2.6 0.5 0.3 0 0.4 0 0 0-0.1 0z"></path></svg>