<?xml version="1.0"?><svg viewBox="0 0 40 40" xmlns="http://www.w3.org/2000/svg" height="40" width="40"><path d="m11.1 10.2v-2.2h-2.2v2.2h2.2z m2.2 2.2v-2.2h-2.2v2.2h2.2z m-2.2 2.3v-2.3h-2.2v2.3h2.2z m2.2 2.2v-2.2h-2.2v2.2h2.2z m12.2-6.8q0.5 0.5 0.8 1.4t0.4 1.5v20q0 0.7-0.5 1.2t-1.2 0.5h-23.3q-0.7 0-1.2-0.5t-0.5-1.2v-27.8q0-0.7 0.5-1.2t1.2-0.5h15.5q0.7 0 1.6 0.4t1.3 0.8l5.4 5.4z m-7.7-4.2v6.5h6.5q-0.2-0.5-0.4-0.7l-5.4-5.4q-0.2-0.2-0.7-0.4z m6.6 26.5v-17.7h-7.2q-0.7 0-1.2-0.5t-0.4-1.2v-7.2h-2.3v2.2h-2.2v-2.2h-8.9v26.6h22.2z m-10.8-12.5l1.8 6.1q0.2 0.4 0.2 0.9 0 1.4-1.3 2.4t-3.2 0.9q-1.9 0-3.2-0.9t-1.2-2.4q0-0.5 0.1-0.9 0.4-1.1 2.1-6.9v-2.2h2.2v2.2h1.4q0.4 0 0.7 0.2t0.4 0.6z m-4.1 7.8q0.7 0.3 1.6 0.3t1.6-0.3q0.6-0.4 0.6-0.8t-0.6-0.8q-0.7-0.3-1.6-0.3t-1.6 0.3q-0.6 0.3-0.6 0.8t0.6 0.8z"></path></svg>