<?xml version="1.0"?><svg viewBox="0 0 40 40" xmlns="http://www.w3.org/2000/svg" height="40" width="40"><path d="m34 8q0.6 0.6 1 1.6t0.4 1.9v24.3q0 0.8-0.6 1.4t-1.4 0.6h-28.4q-0.8 0-1.4-0.6t-0.6-1.4v-33.8q0-0.8 0.6-1.4t1.4-0.6h18.9q0.9 0 1.9 0.4t1.6 1z m-9.4-5.1v7.9h7.9q-0.2-0.6-0.4-0.9l-6.6-6.6q-0.3-0.2-0.9-0.4z m8.1 32.2v-21.6h-8.8q-0.8 0-1.4-0.6t-0.6-1.4v-8.8h-16.2v32.4h27z m-19.6-18.9q0.2-0.2 0.5-0.3t0.5 0.2l1.1 0.8q0.2 0.1 0.2 0.4t-0.1 0.5l-3.9 5.2 3.9 5.1q0.2 0.2 0.1 0.5t-0.2 0.4l-1.1 0.8q-0.3 0.2-0.5 0.2t-0.5-0.3l-4.7-6.3q-0.3-0.4 0-0.8z m16.9 6.4q0.3 0.4 0 0.8l-4.7 6.3q-0.2 0.2-0.5 0.3t-0.5-0.2l-1-0.8q-0.3-0.1-0.3-0.4t0.1-0.5l3.9-5.1-3.9-5.2q-0.1-0.2-0.1-0.5t0.3-0.4l1-0.8q0.3-0.2 0.5-0.2t0.5 0.3z m-13 9.7q-0.3-0.1-0.5-0.3t-0.1-0.5l2.9-17.5q0.1-0.3 0.3-0.5t0.5-0.1l1.3 0.2q0.3 0.1 0.5 0.3t0.1 0.5l-2.9 17.5q-0.1 0.3-0.3 0.5t-0.5 0.1z"></path></svg>