<?xml version="1.0"?><svg xmlns="http://www.w3.org/2000/svg" width="40" height="40" viewBox="0 0 40 40"><path d="m35.62428571428572 8.482857142857142q0.6257142857142881 0.6257142857142863 1.0714285714285694 1.6971428571428575t0.4471428571428575 1.9628571428571426v25.71428571428572q0 0.894285714285715-0.6257142857142881 1.518571428571427t-1.5171428571428578 0.6242857142857119h-30q-0.8928571428571432 0-1.5171428571428573-0.6242857142857119t-0.6257142857142854-1.518571428571427v-35.714285714285715q0-0.890000000000003 0.6257142857142859-1.5142857142857173t1.517142857142857-0.6285714285714286h20q0.8928571428571423 0 1.9642857142857153 0.44857142857142857t1.6971428571428575 1.0714285714285714z m-9.910000000000004-5.447142857142857v8.392857142857142h8.392857142857146q-0.2228571428571442-0.647142857142855-0.4914285714285711-0.9142857142857128l-6.9857142857142875-6.988571428571429q-0.2671428571428578-0.2671428571428569-0.9142857142857146-0.49142857142857155z m8.57142857142857 34.10714285714286v-22.85714285714286h-9.285714285714285q-0.8928571428571423 1.7763568394002505e-15-1.5171428571428578-0.6257142857142846t-0.6257142857142846-1.5171428571428578v-9.285714285714285h-17.142857142857142v34.28571428571428h28.57142857142857z m-20.714285714285715-20.000000000000004q0.1785714285714306-0.24571428571428555 0.46857142857142975-0.27857142857142847t0.5357142857142865 0.14571428571428413l1.1385714285714297 0.8471428571428596q0.24571428571428555 0.17999999999999972 0.27857142857142847 0.47142857142857153t-0.1457142857142859 0.5342857142857156l-4.061428571428571 5.42285714285714 4.0600000000000005 5.428571428571431q0.17857142857142705 0.24571428571428555 0.1457142857142859 0.5357142857142847t-0.2771428571428576 0.4642857142857153l-1.138571428571428 0.8500000000000014q-0.24571428571428555 0.17857142857142705-0.5357142857142865 0.14571428571428413t-0.468571428571428-0.27857142857142847l-5.042857142857143-6.717142857142857q-0.31428571428571495-0.42571428571428527 0-0.8500000000000014z m17.9 6.71857142857143q0.31428571428571317 0.4242857142857126 0 0.8485714285714288l-5.042857142857137 6.71857142857143q-0.17857142857142705 0.24571428571428555-0.46857142857142975 0.27857142857142847t-0.5357142857142847-0.14571428571428413l-1.1385714285714315-0.8471428571428596q-0.24571428571428555-0.17999999999999972-0.27857142857142847-0.47142857142857153t0.14571428571428413-0.5342857142857156l4.061428571428575-5.4228571428571435-4.059999999999999-5.428571428571427q-0.17857142857142705-0.24571428571428555-0.14571428571428413-0.5357142857142847t0.27714285714285225-0.4642857142857153l1.138571428571428-0.8500000000000014q0.24571428571428555-0.17857142857142705 0.5357142857142847-0.14571428571428413t0.46857142857142975 0.27857142857142847z m-13.837142857142858 10.290000000000003q-0.28999999999999915-0.04285714285714448-0.4571428571428555-0.28999999999999915t-0.12285714285714278-0.5357142857142847l3.0799999999999983-18.548571428571428q0.04285714285714448-0.28999999999999915 0.28999999999999915-0.4571428571428573t0.5357142857142847-0.12285714285714278l1.4057142857142857 0.22285714285714242q0.28999999999999915 0.042857142857142705 0.4571428571428555 0.28999999999999915t0.12285714285714278 0.5357142857142865l-3.080000000000002 18.548571428571428q-0.04285714285714448 0.28999999999999915-0.28999999999999915 0.4571428571428555t-0.5357142857142847 0.12285714285714278z"></path></svg>