<svg viewBox="0 0 1611.2499 1896.0833" xmlns="http://www.w3.org/2000/svg"><path d="m1468 380q28 28 48 76t20 88v1152q0 40-28 68t-68 28h-1344q-40 0-68-28t-28-68v-1600q0-40 28-68t68-28h896q40 0 88 20t76 48z m-444-244v376h376q-10-29-22-41l-313-313q-12-12-41-22z m384 1528v-1024h-416q-40 0-68-28t-28-68v-416h-768v1536h1280z m-514-593q33 26 84 56 59-7 117-7 147 0 177 49 16 22 2 52 0 1-1 2l-2 2v1q-6 38-71 38-48 0-115-20t-130-53q-221 24-392 83-153 262-242 262-15 0-28-7l-24-12q-1-1-6-5-10-10-6-36 9-40 56-91.5t132-96.5q14-9 23 6 2 2 2 4 52-85 107-197 68-136 104-262-24-82-30.5-159.5t6.5-127.5q11-40 42-40h21 1q23 0 35 15 18 21 9 68-2 6-4 8 1 3 1 8v30q-2 123-14 192 55 164 146 238z m-576 411q52-24 137-158-51 40-87.5 84t-49.5 74z m398-920q-15 42-2 132 1-7 7-44 0-3 7-43 1-4 4-8-1-1-1-2t-0.5-1.5-0.5-1.5q-1-22-13-36 0 1-1 2v2z m-124 661q135-54 284-81-2-1-13-9.5t-16-13.5q-76-67-127-176-27 86-83 197-30 56-45 83z m646-16q-24-24-140-24 76 28 124 28 14 0 18-1 0-1-2-3z"/></svg>