<?xml version="1.0"?><svg xmlns="http://www.w3.org/2000/svg" width="40" height="40" viewBox="0 0 40 40"><path d="m35.62428571428572 8.482857142857142q0.6257142857142881 0.6257142857142863 1.0714285714285694 1.6971428571428575t0.4471428571428575 1.9628571428571426v25.71428571428572q0 0.894285714285715-0.6257142857142881 1.518571428571427t-1.5171428571428578 0.6242857142857119h-30q-0.8928571428571432 0-1.5171428571428573-0.6242857142857119t-0.6257142857142854-1.518571428571427v-35.714285714285715q0-0.890000000000003 0.6257142857142859-1.5142857142857173t1.517142857142857-0.6285714285714286h20q0.8928571428571423 0 1.9642857142857153 0.44857142857142857t1.6971428571428575 1.0714285714285714z m-9.910000000000004-5.447142857142857v8.392857142857142h8.392857142857146q-0.2228571428571442-0.647142857142855-0.4914285714285711-0.9142857142857128l-6.9857142857142875-6.988571428571429q-0.2671428571428578-0.2671428571428569-0.9142857142857146-0.49142857142857155z m8.57142857142857 34.10714285714286v-22.85714285714286h-9.285714285714285q-0.8928571428571423 1.7763568394002505e-15-1.5171428571428578-0.6257142857142846t-0.6257142857142846-1.5171428571428578v-9.285714285714285h-17.142857142857142v34.28571428571428h28.57142857142857z m-14.285714285714285-20.000000000000004q1.1600000000000001 0 2.008571428571429 0.8485714285714288t0.8485714285714288 2.008571428571429v8.57142857142857q0 1.1600000000000001-0.8485714285714288 2.008571428571429t-2.008571428571429 0.8485714285714323h-8.571428571428571q-1.1600000000000001 0-2.008571428571429-0.8485714285714288t-0.8485714285714288-2.008571428571429v-8.571428571428573q0-1.1600000000000001 0.8485714285714288-2.008571428571429t2.008571428571429-0.8485714285714288h8.571428571428571z m10.982857142857142 0.04285714285714448q0.4471428571428575 0.17999999999999972 0.4471428571428575 0.6714285714285708v12.857142857142858q0 0.4914285714285711-0.44571428571428484 0.6714285714285708-0.17857142857142705 0.04285714285714448-0.2671428571428578 0.04285714285714448-0.3114285714285714 0-0.5114285714285707-0.1999999999999993l-5.914285714285715-5.938571428571429v-2.008571428571429l5.914285714285715-5.937142857142856q0.1999999999999993-0.1999999999999993 0.5142857142857125-0.1999999999999993 0.08857142857142719 0 0.2657142857142851 0.04285714285714448z"></path></svg>