<?xml version="1.0"?><svg viewBox="0 0 40 40" xmlns="http://www.w3.org/2000/svg" height="40" width="40"><path d="m25.5 10.1q0.5 0.5 0.8 1.4t0.4 1.5v20q0 0.7-0.5 1.2t-1.2 0.5h-23.3q-0.7 0-1.2-0.5t-0.5-1.2v-27.8q0-0.7 0.5-1.2t1.2-0.5h15.5q0.7 0 1.6 0.4t1.3 0.8l5.4 5.4z m-7.7-4.2v6.5h6.5q-0.2-0.5-0.4-0.7l-5.4-5.4q-0.2-0.2-0.7-0.4z m6.6 26.5v-17.7h-7.2q-0.7 0-1.2-0.5t-0.4-1.2v-7.2h-13.4v26.6h22.2z m-8.9-10.3q0.6 0.5 1.5 1 1-0.1 2-0.1 2.6 0 3.1 0.8 0.3 0.4 0 0.9 0 0.1 0 0.1l0 0v0q-0.1 0.7-1.3 0.7-0.8 0-2-0.4t-2.2-0.9q-3.9 0.4-6.8 1.5-2.7 4.5-4.2 4.5-0.3 0-0.5-0.1l-0.4-0.2q0 0-0.1-0.1-0.2-0.2-0.1-0.6 0.1-0.7 0.9-1.6t2.3-1.7q0.3-0.2 0.4 0.1 0.1 0 0.1 0.1 0.9-1.5 1.8-3.4 1.2-2.4 1.8-4.6-0.4-1.4-0.5-2.8t0.1-2.2q0.2-0.7 0.7-0.7h0.4q0.4 0 0.6 0.3 0.3 0.4 0.2 1.2-0.1 0.1-0.1 0.1 0 0.1 0 0.1v0.6q0 2.1-0.2 3.3 0.9 2.8 2.5 4.1z m-10 7.2q0.9-0.4 2.4-2.8-0.9 0.7-1.5 1.5t-0.9 1.3z m6.9-16q-0.2 0.7 0 2.3 0-0.1 0.1-0.8 0 0 0.1-0.7 0.1-0.1 0.1-0.2 0 0 0 0t0 0 0 0q0-0.4-0.3-0.7 0 0 0 0.1v0z m-2.1 11.5q2.3-1 4.9-1.4 0-0.1-0.2-0.2t-0.3-0.2q-1.3-1.2-2.2-3.1-0.5 1.5-1.4 3.4-0.6 1-0.8 1.5z m11.2-0.3q-0.4-0.4-2.4-0.4 1.3 0.5 2.1 0.5 0.3 0 0.3-0.1 0 0 0 0z"></path></svg>