<?xml version="1.0"?><svg xmlns="http://www.w3.org/2000/svg" width="40" height="40" viewBox="0 0 40 40"><path d="m35.62428571428572 8.482857142857142q0.6257142857142881 0.6257142857142863 1.0714285714285694 1.6971428571428575t0.4471428571428575 1.9628571428571426v25.71428571428572q0 0.894285714285715-0.6257142857142881 1.518571428571427t-1.5171428571428578 0.6242857142857119h-30q-0.8928571428571432 0-1.5171428571428573-0.6242857142857119t-0.6257142857142854-1.518571428571427v-35.714285714285715q0-0.890000000000003 0.6257142857142859-1.5142857142857173t1.517142857142857-0.6285714285714286h20q0.8928571428571423 0 1.9642857142857153 0.44857142857142857t1.6971428571428575 1.0714285714285714z m-9.910000000000004-5.447142857142857v8.392857142857142h8.392857142857146q-0.2228571428571442-0.647142857142855-0.4914285714285711-0.9142857142857128l-6.9857142857142875-6.988571428571429q-0.2671428571428578-0.2671428571428569-0.9142857142857146-0.49142857142857155z m8.57142857142857 34.10714285714286v-22.85714285714286h-9.285714285714285q-0.8928571428571423 1.7763568394002505e-15-1.5171428571428578-0.6257142857142846t-0.6257142857142846-1.5171428571428578v-9.285714285714285h-17.142857142857142v34.28571428571428h28.57142857142857z m-17.588571428571427-18.171428571428574q0.4471428571428575 0.17999999999999972 0.4471428571428575 0.6714285714285708v12.142857142857142q0 0.4914285714285711-0.44571428571428484 0.6714285714285708-0.17857142857142705 0.04285714285714448-0.2671428571428578 0.04285714285714448-0.2657142857142851 0-0.5114285714285707-0.20000000000000284l-3.70857142857143-3.728571428571424h-2.9257142857142853q-0.3114285714285714 0-0.5114285714285707-0.1999999999999993t-0.1999999999999993-0.5142857142857125v-4.285714285714285q0-0.31428571428571317 0.1999999999999993-0.5142857142857125t0.5142857142857142-0.1999999999999993h2.9228571428571435l3.7057142857142864-3.7285714285714278q0.35714285714285765-0.33285714285714363 0.7814285714285703-0.15428571428571303z m9.307142857142857 15.381428571428575q0.6914285714285704 0 1.1142857142857139-0.5357142857142847 2.8814285714285717-3.548571428571435 2.8814285714285717-8.102857142857147t-2.879999999999999-8.102857142857143q-0.35714285714285765-0.46857142857142975-0.9600000000000009-0.5357142857142847t-1.048571428571428 0.31428571428571317q-0.46857142857142975 0.3785714285714299-0.524285714285714 0.9714285714285715t0.3257142857142874 1.057142857142857q2.229999999999997 2.7485714285714273 2.229999999999997 6.295714285714286t-2.231428571428573 6.294285714285714q-0.379999999999999 0.46857142857142975-0.32428571428571473 1.0600000000000023t0.5257142857142867 0.9485714285714266q0.3999999999999986 0.33428571428571274 0.8928571428571423 0.33428571428571274z m-4.710000000000001-3.304285714285715q0.6028571428571432 0 1.048571428571428-0.4471428571428575 1.942857142857143-2.0728571428571456 1.942857142857143-4.887142857142859t-1.942857142857143-4.890000000000001q-0.3999999999999986-0.4242857142857126-1.0042857142857144-0.4471428571428575t-1.0285714285714285 0.379999999999999-0.44571428571428484 0.9928571428571438 0.3999999999999986 1.03857142857143q1.1642857142857181 1.2714285714285687 1.1642857142857181 2.9257142857142853t-1.1600000000000001 2.9228571428571435q-0.4242857142857126 0.4471428571428575-0.3999999999999986 1.03857142857143t0.44571428571428484 0.9928571428571438q0.4471428571428575 0.379999999999999 0.9828571428571422 0.379999999999999z"></path></svg>