<svg viewBox="0 0 1611.2499 1896.0833" xmlns="http://www.w3.org/2000/svg"><path d="m1468 380q28 28 48 76t20 88v1152q0 40-28 68t-68 28h-1344q-40 0-68-28t-28-68v-1600q0-40 28-68t68-28h896q40 0 88 20t76 48z m-444-244v376h376q-10-29-22-41l-313-313q-12-12-41-22z m384 1528v-1024h-416q-40 0-68-28t-28-68v-416h-768v1536h1280z m-992-234v106h327v-106h-93v-167h137q76 0 118-15 67-23 106.5-87t39.5-146q0-81-37-141t-100-87q-48-19-130-19h-368v107h92v555h-92z m353-280h-119v-268h120q52 0 83 18 56 33 56 115 0 89-62 120-31 15-78 15z"/></svg>