<svg viewBox="0 0 1611.2499 1896.0833" xmlns="http://www.w3.org/2000/svg"><path d="m1468 380q28 28 48 76t20 88v1152q0 40-28 68t-68 28h-1344q-40 0-68-28t-28-68v-1600q0-40 28-68t68-28h896q40 0 88 20t76 48z m-444-244v376h376q-10-29-22-41l-313-313q-12-12-41-22z m384 1528v-1024h-416q-40 0-68-28t-28-68v-416h-768v1536h1280z m-640-896q52 0 90 38t38 90v384q0 52-38 90t-90 38h-384q-52 0-90-38t-38-90v-384q0-52 38-90t90-38h384z m492 2q20 8 20 30v576q0 22-20 30-8 2-12 2-14 0-23-9l-265-266v-90l265-266q9-9 23-9 4 0 12 2z"/></svg>