<?xml version="1.0"?><svg xmlns="http://www.w3.org/2000/svg" width="40" height="40" viewBox="0 0 40 40"><path d="m8 34.666666666666664v-2.666666666666668q0-0.5413333333333341-0.3959999999999999-0.9373333333333349t-0.937333333333334-0.39599999999999724h-2.666666666666666q-0.5413333333333332 0-0.9373333333333331 0.3960000000000008t-0.39600000000000035 0.9373333333333349v2.6666666666666643q0 0.5413333333333341 0.3959999999999999 0.9373333333333349t0.9373333333333336 0.3960000000000008h2.666666666666666q0.5413333333333332 0 0.9373333333333331-0.3960000000000008t0.3960000000000008-0.9373333333333349z m0-8v-2.666666666666668q0-0.5413333333333341-0.3959999999999999-0.9373333333333349t-0.937333333333334-0.39599999999999724h-2.666666666666666q-0.5413333333333332 0-0.9373333333333331 0.3960000000000008t-0.39600000000000035 0.9373333333333349v2.666666666666668q0 0.5413333333333341 0.3959999999999999 0.9373333333333349t0.9373333333333336 0.39599999999999724h2.666666666666666q0.5413333333333332 0 0.9373333333333331-0.3960000000000008t0.3960000000000008-0.9373333333333349z m0-8v-2.666666666666666q0-0.5413333333333341-0.3959999999999999-0.9373333333333331t-0.937333333333334-0.395999999999999h-2.666666666666666q-0.5413333333333332 0-0.9373333333333331 0.3960000000000008t-0.39600000000000035 0.9373333333333331v2.666666666666668q0 0.5413333333333341 0.3959999999999999 0.9373333333333349t0.9373333333333336 0.39599999999999724h2.666666666666666q0.5413333333333332 0 0.9373333333333331-0.3960000000000008t0.3960000000000008-0.9373333333333349z m21.333333333333332 16v-10.666666666666664q0-0.5413333333333341-0.3960000000000008-0.9373333333333349t-0.9373333333333314-0.3960000000000008h-16q-0.5413333333333341 0-0.9373333333333331 0.3960000000000008t-0.3960000000000008 0.9373333333333349v10.666666666666664q0 0.5413333333333341 0.3960000000000008 0.9373333333333349t0.9373333333333331 0.3960000000000008h16q0.5413333333333341 0 0.9373333333333349-0.3960000000000008t0.39599999999999724-0.9373333333333349z m-21.333333333333332-24v-2.6666666666666643q0-0.5413333333333332-0.3959999999999999-0.9373333333333331t-0.937333333333334-0.3960000000000008h-2.666666666666666q-0.5413333333333332 0-0.9373333333333331 0.3959999999999999t-0.39600000000000035 0.937333333333334v2.666666666666666q0 0.5413333333333341 0.3959999999999999 0.9373333333333331t0.9373333333333336 0.3960000000000008h2.666666666666666q0.5413333333333332 0 0.9373333333333331-0.3960000000000008t0.3960000000000008-0.9373333333333331z m29.33333333333333 24v-2.666666666666668q0-0.5413333333333341-0.3960000000000008-0.9373333333333349t-0.9373333333333278-0.39599999999999724h-2.6666666666666643q-0.5413333333333341 0-0.9373333333333349 0.3960000000000008t-0.3960000000000008 0.9373333333333349v2.6666666666666643q0 0.5413333333333341 0.3960000000000008 0.9373333333333349t0.9373333333333278 0.3960000000000008h2.6666666666666643q0.5413333333333341 0 0.9373333333333349-0.3960000000000008t0.3960000000000008-0.9373333333333349z m-8-16v-10.666666666666664q0-0.5413333333333332-0.3960000000000008-0.9373333333333331t-0.9373333333333278-0.3960000000000008h-16q-0.5413333333333341 0-0.9373333333333331 0.3959999999999999t-0.3960000000000008 0.937333333333334v10.666666666666664q0 0.5413333333333341 0.3960000000000008 0.9373333333333349t0.9373333333333331 0.3960000000000008h16q0.5413333333333341 0 0.9373333333333349-0.3960000000000008t0.39599999999999724-0.9373333333333349z m8 8v-2.666666666666668q0-0.5413333333333341-0.3960000000000008-0.9373333333333349t-0.9373333333333278-0.39599999999999724h-2.6666666666666643q-0.5413333333333341 0-0.9373333333333349 0.3960000000000008t-0.3960000000000008 0.9373333333333349v2.666666666666668q0 0.5413333333333341 0.3960000000000008 0.9373333333333349t0.9373333333333278 0.39599999999999724h2.6666666666666643q0.5413333333333341 0 0.9373333333333349-0.3960000000000008t0.3960000000000008-0.9373333333333349z m0-8v-2.666666666666666q0-0.5413333333333341-0.3960000000000008-0.9373333333333331t-0.9373333333333278-0.395999999999999h-2.6666666666666643q-0.5413333333333341 0-0.9373333333333349 0.3960000000000008t-0.3960000000000008 0.9373333333333331v2.666666666666668q0 0.5413333333333341 0.3960000000000008 0.9373333333333349t0.9373333333333278 0.39599999999999724h2.6666666666666643q0.5413333333333341 0 0.9373333333333349-0.3960000000000008t0.3960000000000008-0.9373333333333349z m0-8v-2.6666666666666643q0-0.5413333333333332-0.3960000000000008-0.9373333333333331t-0.9373333333333278-0.3960000000000008h-2.6666666666666643q-0.5413333333333341 0-0.9373333333333349 0.3959999999999999t-0.3960000000000008 0.937333333333334v2.666666666666666q0 0.5413333333333341 0.3960000000000008 0.9373333333333331t0.9373333333333278 0.3960000000000008h2.6666666666666643q0.5413333333333341 0 0.9373333333333349-0.3960000000000008t0.3960000000000008-0.9373333333333331z m2.6666666666666643-3.333333333333333v27.999999999999996q0 1.3733333333333348-0.978666666666669 2.3546666666666667t-2.3546666666666596 0.978666666666669h-33.33333333333333q-1.3733333333333333 0-2.3546666666666667-0.978666666666669t-0.978666666666669-2.3546666666666667v-28q0-1.373333333333333 0.9786666666666666-2.3546666666666667t2.3546666666666667-0.9786666666666619h33.33333333333333q1.3733333333333348 0 2.3546666666666667 0.9786666666666664t0.978666666666669 2.3546666666666667z"></path></svg>