<?xml version="1.0"?><svg viewBox="0 0 40 40" xmlns="http://www.w3.org/2000/svg" height="40" width="40"><path d="m6.7 31.3v-2.2q0-0.5-0.4-0.8t-0.7-0.3h-2.3q-0.4 0-0.7 0.3t-0.4 0.8v2.2q0 0.5 0.4 0.8t0.7 0.3h2.3q0.4 0 0.7-0.3t0.4-0.8z m0-6.6v-2.3q0-0.4-0.4-0.8t-0.7-0.3h-2.3q-0.4 0-0.7 0.3t-0.4 0.8v2.3q0 0.4 0.4 0.7t0.7 0.4h2.3q0.4 0 0.7-0.4t0.4-0.7z m0-6.7v-2.2q0-0.5-0.4-0.8t-0.7-0.3h-2.3q-0.4 0-0.7 0.3t-0.4 0.8v2.2q0 0.4 0.4 0.8t0.7 0.3h2.3q0.4 0 0.7-0.3t0.4-0.8z m17.7 13.3v-8.9q0-0.4-0.3-0.8t-0.8-0.3h-13.3q-0.5 0-0.8 0.3t-0.3 0.8v8.9q0 0.5 0.3 0.8t0.8 0.3h13.3q0.5 0 0.8-0.3t0.3-0.8z m-17.7-20v-2.2q0-0.5-0.4-0.8t-0.7-0.3h-2.3q-0.4 0-0.7 0.3t-0.4 0.8v2.2q0 0.5 0.4 0.8t0.7 0.3h2.3q0.4 0 0.7-0.3t0.4-0.8z m24.4 20v-2.2q0-0.5-0.3-0.8t-0.8-0.3h-2.2q-0.5 0-0.8 0.3t-0.3 0.8v2.2q0 0.5 0.3 0.8t0.8 0.3h2.2q0.5 0 0.8-0.3t0.3-0.8z m-6.7-13.3v-8.9q0-0.5-0.3-0.8t-0.8-0.3h-13.3q-0.5 0-0.8 0.3t-0.3 0.8v8.9q0 0.4 0.3 0.8t0.8 0.3h13.3q0.5 0 0.8-0.3t0.3-0.8z m6.7 6.7v-2.3q0-0.4-0.3-0.8t-0.8-0.3h-2.2q-0.5 0-0.8 0.3t-0.3 0.8v2.3q0 0.4 0.3 0.7t0.8 0.4h2.2q0.5 0 0.8-0.4t0.3-0.7z m0-6.7v-2.2q0-0.5-0.3-0.8t-0.8-0.3h-2.2q-0.5 0-0.8 0.3t-0.3 0.8v2.2q0 0.4 0.3 0.8t0.8 0.3h2.2q0.5 0 0.8-0.3t0.3-0.8z m0-6.7v-2.2q0-0.5-0.3-0.8t-0.8-0.3h-2.2q-0.5 0-0.8 0.3t-0.3 0.8v2.2q0 0.5 0.3 0.8t0.8 0.3h2.2q0.5 0 0.8-0.3t0.3-0.8z m2.2-2.8v23.4q0 1.1-0.8 1.9t-1.9 0.9h-27.8q-1.2 0-2-0.9t-0.8-1.9v-23.4q0-1.1 0.8-1.9t2-0.8h27.8q1.1 0 1.9 0.8t0.8 1.9z"></path></svg>