<?xml version="1.0"?><svg viewBox="0 0 40 40" xmlns="http://www.w3.org/2000/svg" height="40" width="40"><path d="m8 33.6v-2.7q0-0.5-0.4-0.9t-0.9-0.4h-2.7q-0.5 0-0.9 0.4t-0.4 0.9v2.7q0 0.5 0.4 0.9t0.9 0.4h2.7q0.5 0 0.9-0.4t0.4-0.9z m0-8v-2.7q0-0.5-0.4-0.9t-0.9-0.4h-2.7q-0.5 0-0.9 0.4t-0.4 0.9v2.7q0 0.5 0.4 0.9t0.9 0.4h2.7q0.5 0 0.9-0.4t0.4-0.9z m0-8v-2.7q0-0.5-0.4-0.9t-0.9-0.4h-2.7q-0.5 0-0.9 0.4t-0.4 0.9v2.7q0 0.5 0.4 0.9t0.9 0.4h2.7q0.5 0 0.9-0.4t0.4-0.9z m21.3 16v-10.7q0-0.5-0.4-0.9t-0.9-0.4h-16q-0.5 0-0.9 0.4t-0.4 0.9v10.7q0 0.5 0.4 0.9t0.9 0.4h16q0.5 0 0.9-0.4t0.4-0.9z m-21.3-24v-2.7q0-0.5-0.4-0.9t-0.9-0.4h-2.7q-0.5 0-0.9 0.4t-0.4 0.9v2.7q0 0.5 0.4 0.9t0.9 0.4h2.7q0.5 0 0.9-0.4t0.4-0.9z m29.3 24v-2.7q0-0.5-0.4-0.9t-0.9-0.4h-2.7q-0.5 0-0.9 0.4t-0.4 0.9v2.7q0 0.5 0.4 0.9t0.9 0.4h2.7q0.5 0 0.9-0.4t0.4-0.9z m-8-16v-10.7q0-0.5-0.4-0.9t-0.9-0.4h-16q-0.5 0-0.9 0.4t-0.4 0.9v10.7q0 0.5 0.4 0.9t0.9 0.4h16q0.5 0 0.9-0.4t0.4-0.9z m8 8v-2.7q0-0.5-0.4-0.9t-0.9-0.4h-2.7q-0.5 0-0.9 0.4t-0.4 0.9v2.7q0 0.5 0.4 0.9t0.9 0.4h2.7q0.5 0 0.9-0.4t0.4-0.9z m0-8v-2.7q0-0.5-0.4-0.9t-0.9-0.4h-2.7q-0.5 0-0.9 0.4t-0.4 0.9v2.7q0 0.5 0.4 0.9t0.9 0.4h2.7q0.5 0 0.9-0.4t0.4-0.9z m0-8v-2.7q0-0.5-0.4-0.9t-0.9-0.4h-2.7q-0.5 0-0.9 0.4t-0.4 0.9v2.7q0 0.5 0.4 0.9t0.9 0.4h2.7q0.5 0 0.9-0.4t0.4-0.9z m2.7-3.4v28q0 1.4-1 2.4t-2.3 1h-33.4q-1.3 0-2.3-1t-1-2.4v-28q0-1.3 1-2.3t2.3-1h33.4q1.3 0 2.3 1t1 2.3z"></path></svg>