<svg viewBox="0 0 1920 1896.0833" xmlns="http://www.w3.org/2000/svg"><path d="m384 1600v-128q0-26-19-45t-45-19h-128q-26 0-45 19t-19 45v128q0 26 19 45t45 19h128q26 0 45-19t19-45z m0-384v-128q0-26-19-45t-45-19h-128q-26 0-45 19t-19 45v128q0 26 19 45t45 19h128q26 0 45-19t19-45z m0-384v-128q0-26-19-45t-45-19h-128q-26 0-45 19t-19 45v128q0 26 19 45t45 19h128q26 0 45-19t19-45z m1024 768v-512q0-26-19-45t-45-19h-768q-26 0-45 19t-19 45v512q0 26 19 45t45 19h768q26 0 45-19t19-45z m-1024-1152v-128q0-26-19-45t-45-19h-128q-26 0-45 19t-19 45v128q0 26 19 45t45 19h128q26 0 45-19t19-45z m1408 1152v-128q0-26-19-45t-45-19h-128q-26 0-45 19t-19 45v128q0 26 19 45t45 19h128q26 0 45-19t19-45z m-384-768v-512q0-26-19-45t-45-19h-768q-26 0-45 19t-19 45v512q0 26 19 45t45 19h768q26 0 45-19t19-45z m384 384v-128q0-26-19-45t-45-19h-128q-26 0-45 19t-19 45v128q0 26 19 45t45 19h128q26 0 45-19t19-45z m0-384v-128q0-26-19-45t-45-19h-128q-26 0-45 19t-19 45v128q0 26 19 45t45 19h128q26 0 45-19t19-45z m0-384v-128q0-26-19-45t-45-19h-128q-26 0-45 19t-19 45v128q0 26 19 45t45 19h128q26 0 45-19t19-45z m128-160v1344q0 66-47 113t-113 47h-1600q-66 0-113-47t-47-113v-1344q0-66 47-113t113-47h1600q66 0 113 47t47 113z"/></svg>