<?xml version="1.0"?><svg viewBox="0 0 40 40" xmlns="http://www.w3.org/2000/svg" height="40" width="40"><path d="m8.6 7.7q0.3-0.4 0.3-0.8t-0.3-0.8q-0.4-0.3-0.8-0.3t-0.8 0.3q-0.3 0.3-0.3 0.8t0.3 0.8q0.3 0.3 0.8 0.3t0.8-0.3z m15.8-1.4v5.6q0 0.3-0.2 0.4-0.1 0.1-0.3 0.1-0.1 0-0.1 0l-7.8-1.7q-0.2 0-0.3-0.1t-0.1-0.4h-4.5v1.8q1.9 0.4 3.2 1.9t1.3 3.5v13.9q0 0.5-0.4 0.8t-0.8 0.3h-8.8q-0.5 0-0.8-0.3t-0.4-0.8v-13.9q0-1.8 1.1-3.3t2.8-2v-1.9h-0.5q-1 0-2 0.4t-1.6 0.9q-0.6 0.5-1.2 1.2t-0.7 0.9q-0.1 0.3-0.2 0.4-0.3 0.7-1 0.7-0.3 0-0.5-0.2-0.4-0.2-0.5-0.6t0-0.9q0.1-0.1 0.3-0.4t0.6-0.9q0.5-0.7 1.1-1.3t1.5-1.1q0.9-0.6 1.8-0.9-0.4-0.8-0.4-1.5 0-1.2 0.8-2t2-0.8q1.1 0 1.9 0.8t0.9 2q0 0.5-0.3 1.1h5.3q0-0.2 0.1-0.4t0.3-0.2l7.8-1.6q0 0 0.1 0 0.2 0 0.3 0.1 0.2 0.1 0.2 0.4z"></path></svg>