<?xml version="1.0"?><svg viewBox="0 0 40 40" xmlns="http://www.w3.org/2000/svg" height="40" width="40"><path d="m33.2 35.8v1.3q0 0.3-0.2 0.5t-0.5 0.2h-28.3q-0.3 0-0.5-0.2t-0.2-0.5v-1.3q0-0.3 0.2-0.5t0.5-0.2h28.3q0.3 0 0.5 0.2t0.2 0.5z m-5.4-22.3q0 1.6-0.5 3t-1.4 2.4-1.8 1.9-2 1.6-1.9 1.5-1.3 1.7-0.6 2.1q0 2 1.5 4.7l-0.1 0 0 0q-1.9-0.9-3.4-1.7t-2.9-2.2-2.4-2.5-1.5-3.2-0.6-3.9q0-1.6 0.5-3t1.4-2.4 1.8-1.9 2-1.6 1.9-1.5 1.3-1.7 0.5-2.1q0-2-1.4-4.7l0.1 0 0 0q1.9 0.9 3.4 1.8t2.9 2.1 2.4 2.5 1.5 3.2 0.6 3.9z"></path></svg>