<?xml version="1.0"?><svg viewBox="0 0 40 40" xmlns="http://www.w3.org/2000/svg" height="40" width="40"><path d="m15.7 34.7q-4.9 0-8.8-2.7t-5.7-6.9q-1-2.3-1.2-5.2t0.5-5.8q0.6-2.8 1.9-5.4t3.1-4.2l-0.2 4.9q0.2-0.3 1.2-0.3t1.2 0.3q0.8-1.4 2.8-2.4t4.1-1q-1 0.7-2.1 2.5t-1 2.9q0.4 0.1 1.1 0.2t1.1 0.1q0.4 0.1 1.2 0.1t0.8 0.1q0.3 0 0.2 0.7t-0.5 1.4q-0.1 0.1-0.3 0.3t-1 0.6q-0.8 0.4-1.8 0.6l0.3 3.3-2.4-1.2q-0.3 0.7-0.1 1.4t0.6 1.2q0.4 0.5 1.1 0.7t1.4 0.1q0.9-0.2 1.7-0.6t1.5-0.8q0.6-0.3 1.3-0.3 1 0.1 1.5 0.6t0.3 1.1q0 0.1 0 0.1t-0.1 0.2q-0.2 0.2-0.4 0.3t-0.5 0.2q-0.4 0.1-0.8 0-1.1 1.7-2.5 2.4t-3.7 0.5q1.3 1 2.9 1.4t2.9 0.1q1.4-0.3 2.7-0.9t2.2-1.5q0.9-0.9 1.4-1.8 0.7-1.6 0.7-3.4t-0.7-3.2q-0.6-1.5-1.3-2.2 1.5 0.7 2.3 1.4t1.4 1.9q0.2-2.9-1-5.9t-3.7-5q4.6 1.4 7.2 4.9t2.6 9q0 2.2-0.7 4.4t-2.1 4.1q-1.4 1.9-3.3 3.4t-4.3 2.4q-2.4 0.9-5 0.9z"></path></svg>