<?xml version="1.0"?><svg xmlns="http://www.w3.org/2000/svg" width="40" height="40" viewBox="0 0 40 40"><path d="m20.15714285714286 40q-6.318571428571428 0-11.262857142857143-3.3599999999999994t-7.354285714285715-8.897142857142853q-1.2942857142857143-2.9214285714285744-1.497142857142857-6.714285714285719t0.5814285714285713-7.421428571428571 2.475714285714286-6.967142857142858 3.9999999999999996-5.414285714285714l-0.24857142857142733 6.274285714285714q0.24571428571428555-0.31428571428571406 1.5171428571428578-0.3457142857142861t1.5628571428571423 0.3457142857142861q0.9371428571428577-1.8085714285714287 3.5828571428571436-3.08t5.234285714285715-1.3171428571428572q-1.2057142857142864 1.004285714285714-2.6671428571428564 3.3142857142857136t-1.305714285714286 3.6500000000000004q0.5571428571428569 0.17857142857142883 1.395714285714286 0.3000000000000007t1.4057142857142857 0.16857142857142904 1.5171428571428578 0.08999999999999986 1.12857142857143 0.06714285714285673q0.33285714285714363 0.1114285714285721 0.21000000000000085 1.0142857142857142t-0.6814285714285724 1.685714285714285q-0.1114285714285721 0.15714285714285658-0.36857142857142833 0.4142857142857146t-1.2614285714285707 0.7928571428571427-2.2542857142857144 0.757142857142858l0.33428571428571274 4.220000000000002-3.0999999999999996-1.4957142857142856q-0.40285714285714214 0.9600000000000009-0.16857142857142904 1.8185714285714276t0.8028571428571425 1.485714285714284 1.4614285714285717 0.9242857142857162 1.8085714285714296 0.14571428571428413q1.138571428571428-0.20285714285714107 2.185714285714287-0.7714285714285722t1.8657142857142865-1.0042857142857144 1.638571428571428-0.39000000000000057q1.361428571428572 0.08999999999999986 1.9971428571428582 0.7371428571428567t0.43571428571428683 1.451428571428572q-0.022857142857141355 0.04285714285714448-0.05714285714285694 0.12285714285714278t-0.1885714285714286 0.27857142857142847-0.3999999999999986 0.345714285714287-0.7042857142857137 0.2328571428571422-1.03857142857143 0.022857142857141355q-1.3399999999999999 2.1185714285714283-3.225714285714286 3.022857142857145t-4.675714285714285 0.6571428571428584q1.6514285714285712 1.3628571428571412 3.62857142857143 1.8428571428571416t3.7600000000000016 0.13428571428571345 3.4471428571428575-1.1600000000000001 2.8571428571428577-1.952857142857141 1.797142857142859-2.3200000000000003q0.96142857142857-2.0314285714285703 0.8714285714285701-4.297142857142859t-0.8371428571428581-4.207142857142857-1.7528571428571418-2.790000000000001q1.942857142857143 0.8485714285714288 3.057142857142857 1.774285714285714t1.7199999999999989 2.5114285714285707q0.33571428571428896-3.7942857142857136-1.2814285714285703-7.657142857142858t-4.677142857142872-6.33428571428571q5.914285714285715 1.7185714285714289 9.197142857142854 6.238571428571428t3.3714285714285737 11.551428571428572q0.04285714285714448 2.8342857142857127-0.9057142857142892 5.69142857142857t-2.75714285714286 5.314285714285713-4.21857142857143 4.374285714285712-5.522857142857141 3.0242857142857176-6.440000000000001 1.1028571428571396z"></path></svg>