<?xml version="1.0"?><svg viewBox="0 0 40 40" xmlns="http://www.w3.org/2000/svg" height="40" width="40"><path d="m20.1 37.8q-5.9 0-10.6-3.2t-6.9-8.4q-1.3-2.7-1.5-6.3t0.6-7 2.3-6.6 3.8-5.1l-0.2 5.9q0.2-0.3 1.4-0.3t1.5 0.3q0.9-1.7 3.4-2.9t4.9-1.3q-1.1 1-2.5 3.2t-1.2 3.4q0.5 0.2 1.3 0.3t1.3 0.2 1.4 0 1.1 0.1q0.3 0.1 0.2 1t-0.6 1.6q-0.1 0.1-0.4 0.3t-1.2 0.8-2.1 0.7l0.3 4-2.9-1.4q-0.4 0.9-0.2 1.7t0.8 1.4 1.4 0.9 1.7 0.1q1-0.2 2-0.7t1.8-1 1.6-0.3q1.2 0.1 1.8 0.7t0.5 1.3q-0.1 0.1-0.1 0.2t-0.2 0.2-0.4 0.4-0.6 0.2-1 0q-1.3 2-3.1 2.9t-4.4 0.6q1.6 1.3 3.5 1.7t3.5 0.1 3.3-1.1 2.7-1.8 1.7-2.2q0.9-1.9 0.8-4.1t-0.8-3.9-1.7-2.7q1.9 0.8 2.9 1.7t1.7 2.4q0.3-3.6-1.3-7.3t-4.4-5.9q5.6 1.6 8.7 5.8t3.2 11q0 2.6-0.9 5.3t-2.6 5.1-3.9 4.1-5.3 2.9-6.1 1z"></path></svg>