<?xml version="1.0"?><svg xmlns="http://www.w3.org/2000/svg" width="40" height="40" viewBox="0 0 40 40"><path d="m15.714285714285715 4.285714285714286q0-0.5800000000000001-0.4242857142857144-1.0042857142857144t-1.0042857142857144-0.42428571428571393-1.0042857142857144 0.4242857142857144-0.4242857142857144 1.004285714285714 0.4242857142857144 1.0042857142857144 1.0042857142857144 0.4242857142857144 1.0042857142857144-0.4242857142857144 0.4242857142857144-1.0042857142857144z m20-0.7142857142857144v7.142857142857144q0 0.35714285714285765-0.2671428571428578 0.5571428571428569-0.1785714285714306 0.15714285714285658-0.4471428571428575 0.15714285714285658-0.09000000000000341 0-0.15714285714285836-0.02285714285714313l-10-2.1428571428571423q-0.24285714285714377-0.042857142857142705-0.3999999999999986-0.24571428571428555t-0.15714285714285836-0.4457142857142866h-5.714285714285715v2.275714285714285q2.4785714285714278 0.5142857142857142 4.097142857142856 2.477142857142857t1.6171428571428592 4.532857142857145v17.857142857142858q0 0.5785714285714292-0.4228571428571435 1.0028571428571453t-1.0057142857142836 0.42571428571428527h-11.428571428571429q-0.5785714285714292 0-1.0028571428571436-0.42571428571428527t-0.42571428571428527-1.0028571428571453v-17.857142857142858q0-2.3671428571428574 1.3971428571428568-4.2542857142857144t3.602857142857143-2.557142857142857v-2.474285714285715h-0.7142857142857135q-1.314285714285715 0-2.565714285714286 0.5228571428571431t-2.0428571428571427 1.1828571428571433-1.4714285714285715 1.4857142857142858-0.9057142857142857 1.192857142857143-0.31428571428571406 0.5457142857142863q-0.377142857142859 0.7842857142857138-1.2714285714285722 0.7842857142857138-0.35714285714285676 0-0.6471428571428568-0.15714285714285658-0.5142857142857142-0.2671428571428578-0.7028571428571428-0.8257142857142856t0.07857142857142829-1.0942857142857143q0.11142857142857121-0.22285714285714242 0.32428571428571473-0.5800000000000001t0.8371428571428572-1.194285714285714 1.3499999999999996-1.5628571428571423 1.8971428571428577-1.4957142857142856 2.4214285714285726-1.1714285714285717q-0.5585714285714296-0.9371428571428595-0.5585714285714296-1.9185714285714308 0-1.4742857142857142 1.048571428571428-2.524285714285714t2.522857142857143-1.0471428571428572 2.522857142857143 1.0471428571428572 1.048571428571428 2.524285714285714q0 0.7357142857142858-0.31428571428571317 1.4285714285714288h6.74285714285714q0-0.24714285714285733 0.15714285714285836-0.4485714285714284t0.3999999999999986-0.24571428571428555l10-2.142857142857143q0.06714285714285495-0.022857142857142687 0.15714285714285836-0.022857142857142687 0.2657142857142887 0 0.4457142857142884 0.15714285714285703 0.2671428571428578 0.20000000000000018 0.2671428571428578 0.5571428571428574z"></path></svg>