<?xml version="1.0"?><svg viewBox="0 0 40 40" xmlns="http://www.w3.org/2000/svg" height="40" width="40"><path d="m14.4 20.9v-3.3q-3.1 0.2-6.6 2v3.2q3.5-1.7 6.6-1.9z m0-7.3v-3.4q-2.9 0.2-6.6 2.2v3.3q3.7-1.9 6.6-2.1z m14.5 8.1v-3.2q-4.1 2-6.7 1.2v-3.9q-0.3-0.1-0.7-0.2 0-0.1-0.5-0.3t-0.6-0.3q-0.1-0.1-0.6-0.3t-0.6-0.2q-0.1-0.1-0.5-0.3t-0.7-0.2q-0.2 0-0.6-0.1t-0.7-0.2q-0.3 0-0.6 0t-0.8-0.1q-0.4 0-0.9 0.1v3.8h0.4q1.7 0 3.3 0.5t3.4 1.5q0.4 0.1 0.7 0.2v3.3q0.8 0.3 1.6 0.3 2.1 0 5.1-1.6z m0-7.4v-3.3q-2.9 1.6-5.3 1.6-0.8 0-1.4-0.2v3.4q2.6 0.8 6.7-1.5z m-23.3-6.3q0 0.6-0.3 1.1t-0.9 0.8v22q0 0.2-0.1 0.4t-0.4 0.1h-1.1q-0.3 0-0.4-0.1t-0.2-0.4v-22q-0.5-0.3-0.8-0.8t-0.3-1.1q0-0.9 0.7-1.6t1.5-0.6q1 0 1.6 0.6t0.7 1.6z m25.5 1.1v13.2q0 0.7-0.6 1-0.2 0.1-0.3 0.2-3.8 2-6.4 2-1.5 0-2.7-0.6l-0.5-0.2q-1.1-0.6-1.7-0.9t-1.6-0.5q-1-0.2-2-0.2-1.8 0-4.1 0.7t-4 1.8q-0.2 0.2-0.5 0.2-0.3 0-0.6-0.2-0.5-0.3-0.5-0.9v-12.9q0-0.6 0.5-1 0.6-0.3 1.4-0.7t1.9-0.9q1.3-0.6 2.7-0.9t2.7-0.3q1.9 0 3.6 0.5t3.6 1.5q0.7 0.3 1.6 0.3 2.1 0 5.4-1.9 0.3-0.2 0.5-0.3 0.5-0.3 1.1 0 0.5 0.4 0.5 1z"></path></svg>