<?xml version="1.0"?><svg viewBox="0 0 40 40" xmlns="http://www.w3.org/2000/svg" height="40" width="40"><path d="m5.6 8q0 1.2-1.2 1.9v22q0 0.2-0.1 0.4t-0.4 0.1h-1.1q-0.2 0-0.4-0.1t-0.2-0.4v-22q-1.1-0.7-1.1-1.9 0-0.9 0.7-1.6t1.5-0.6q1 0 1.6 0.6t0.7 1.6z m25.5 1.1v13.2q0 0.5-0.2 0.7t-0.7 0.5q-3.7 2-6.4 2-1.1 0-2.1-0.4t-1.9-0.8q-0.8-0.5-2-0.8t-2.5-0.4q-3.3 0-8.1 2.5-0.3 0.2-0.5 0.2-0.5 0-0.8-0.4t-0.3-0.7v-12.9q0-0.6 0.5-1 0.4-0.2 1.4-0.7 4.1-2.1 7.3-2.1 1.8 0 3.4 0.5t3.8 1.5q0.7 0.3 1.6 0.3 0.9 0 2-0.3t1.9-0.8q0.8-0.5 1.6-0.9t0.9-0.3q0.5 0 0.8 0.3t0.3 0.8z"></path></svg>