<?xml version="1.0"?><svg viewBox="0 0 40 40" xmlns="http://www.w3.org/2000/svg" height="40" width="40"><path d="m28.9 21.7v-10.7q-2.9 1.6-5.3 1.6-1.4 0-2.5-0.6-1.8-0.8-3.2-1.3t-3.1-0.5q-3 0-7 2.2v10.4q4.2-2 7.5-2 1 0 1.8 0.2t1.7 0.4q0.9 0.4 1.3 0.6t1.5 0.7l0.4 0.2q0.8 0.4 1.8 0.4 2.1 0 5.1-1.6z m-23.3-13.7q0 0.6-0.3 1.1t-0.9 0.8v22q0 0.2-0.1 0.4t-0.4 0.1h-1.1q-0.3 0-0.4-0.1t-0.2-0.4v-22q-0.5-0.3-0.8-0.8t-0.3-1.1q0-0.9 0.7-1.6t1.5-0.6q1 0 1.6 0.6t0.7 1.6z m25.5 1.1v13.2q0 0.7-0.6 1-0.2 0.1-0.3 0.2-3.8 2-6.4 2-1.5 0-2.7-0.6l-0.5-0.2q-1.1-0.6-1.7-0.9t-1.6-0.5q-1-0.2-2-0.2-1.8 0-4.1 0.7t-4 1.8q-0.2 0.2-0.5 0.2-0.3 0-0.6-0.2-0.5-0.3-0.5-0.9v-12.9q0-0.6 0.5-1 0.6-0.3 1.4-0.7t1.9-0.9q1.3-0.6 2.7-0.9t2.7-0.3q1.9 0 3.6 0.5t3.6 1.5q0.7 0.3 1.6 0.3 2.1 0 5.4-1.9 0.3-0.2 0.5-0.3 0.5-0.3 1.1 0 0.5 0.4 0.5 1z"></path></svg>