<?xml version="1.0"?><svg xmlns="http://www.w3.org/2000/svg" width="40" height="40" viewBox="0 0 40 40"><path d="m6.8965517241379315 6.206896551724139q0 1.5517241379310347-1.3793103448275863 2.3724137931034477v27.28275862068966q0 0.28000000000000114-0.20413793103448263 0.48551724137931274t-0.48551724137931096 0.20413793103448086h-1.3793103448275863q-0.28000000000000025 0-0.4855172413793105-0.20413793103448086t-0.2041379310344822-0.48551724137931274v-27.28275862068966q-1.3793103448275863-0.822068965517242-1.3793103448275863-2.3724137931034477 0-1.1420689655172414 0.8082758620689656-1.950344827586207t1.950344827586207-0.8082758620689661 1.950344827586207 0.8082758620689652 0.8082758620689656 1.9503448275862079z m31.72413793103448 1.3793103448275863v16.444137931034486q0 0.5379310344827601-0.2689655172413765 0.830344827586206t-0.8510344827586209 0.5931034482758619q-4.634482758620692 2.5006896551724154-7.953103448275861 2.5006896551724154-1.3144827586206915 0-2.6620689655172427-0.4744827586206881t-2.3379310344827573-1.0344827586206904-2.4896551724137943-1.0344827586206904-3.071724137931035-0.4744827586206881q-4.137931034482758 0-10 3.1448275862068975-0.36551724137930997 0.19448275862068343-0.7103448275862068 0.19448275862068343-0.5613793103448277 0-0.971034482758621-0.40827586206896527t-0.40827586206896527-0.9710344827586219v-15.988965517241379q0-0.6896551724137936 0.6662068965517243-1.1862068965517238 0.45241379310344865-0.3006896551724143 1.702068965517241-0.9241379310344833 5.085517241379311-2.5903448275862075 9.073103448275864-2.5903448275862075 2.306206896551725 0 4.310344827586206 0.6262068965517242t4.720000000000002 1.8965517241379315q0.8193103448275849 0.40827586206896527 1.8965517241379324 0.40827586206896527 1.1641379310344817 0 2.532413793103448-0.45241379310344776t2.3724137931034477-1.0124137931034483 1.8951724137931052-1.0124137931034483 1.1751724137931063-0.45241379310344865q0.5586206896551715 0 0.968275862068964 0.40965517241379334t0.41241379310343973 0.968275862068964z"></path></svg>