<?xml version="1.0"?><svg xmlns="http://www.w3.org/2000/svg" width="40" height="40" viewBox="0 0 40 40"><path d="m17.931034482758623 22.24137931034483v-4.137931034482758q-3.900689655172414 0.3448275862068968-8.275862068965518 2.5213793103448268v3.9862068965517246q4.417931034482759-2.068965517241381 8.275862068965518-2.3696551724137933z m0-9.00689655172414v-4.248275862068965q-3.7075862068965524 0.1737931034482756-8.275862068965518 2.7172413793103445v4.073103448275862q4.63448275862069-2.3917241379310354 8.275862068965518-2.543448275862069z m17.931034482758623 9.97655172413793v-3.9655172413793096q-5.064827586206896 2.5006896551724154-8.275862068965516 1.5310344827586206v-4.827586206896552q-0.4317241379310346-0.13103448275862029-0.841379310344827-0.32413793103448185-0.10620689655172555-0.06482758620689744-0.7103448275862085-0.36689655172413715t-0.7448275862068954-0.36689655172413715-0.6758620689655181-0.32275862068965466-0.7448275862068954-0.33379310344827573-0.7006896551724147-0.27999999999999936-0.7751724137931042-0.26896551724138007-0.7544827586206893-0.18344827586206947-0.8510344827586209-0.16275862068965452-0.8496551724137937-0.0868965517241378-0.9489655172413798-0.04413793103448249q-0.49655172413793025 0-1.0565517241379325 0.06482758620689744v4.7862068965517235h0.40965517241379246q2.198620689655172 0 4.148965517241379 0.6234482758620707t4.256551724137932 1.7655172413793103q0.41103448275861965 0.19586206896551772 0.841379310344827 0.32413793103448185v4.055172413793102q0.9048275862068955 0.36689655172413893 1.961379310344828 0.36689655172413893 2.5862068965517224 0 6.3144827586206915-1.982068965517243z m0-9.202758620689655v-4.073103448275861q-3.6413793103448313 1.961379310344828-6.593103448275862 1.961379310344828-0.9710344827586219 0-1.682758620689654-0.1724137931034484v4.224827586206896q3.1889655172413782 0.9048275862068955 8.275862068965516-1.939310344827586z m-28.965517241379313-7.801379310344826q-8.881784197001252e-16 0.7544827586206901-0.3765517241379319 1.3793103448275863t-1.0027586206896553 0.9931034482758614v27.28275862068966q0 0.3034482758620669-0.19310344827586245 0.49655172413793025t-0.49655172413793114 0.19310344827586334h-1.3793103448275863q-0.30344827586206913 0-0.49655172413793114-0.19310344827586334t-0.19310344827586157-0.49655172413793025v-27.28275862068966q-0.6248275862068966-0.3682758620689661-1.0027586206896553-0.9931034482758623t-0.37655172413793103-1.3793103448275854q0-1.1420689655172414 0.8082758620689656-1.950344827586207t1.950344827586207-0.8082758620689661 1.950344827586207 0.8082758620689652 0.8082758620689656 1.9503448275862079z m31.72413793103448 1.3793103448275863v16.444137931034486q0 0.841379310344827-0.7544827586206893 1.2275862068965502-0.21517241379310548 0.11034482758620712-0.36689655172413893 0.19586206896551772-4.697931034482757 2.5006896551724154-7.953103448275861 2.5006896551724154-1.8951724137931052 0-3.4041379310344837-0.7544827586206893l-0.604137931034483-0.30344827586207046q-1.3793103448275872-0.7103448275862085-2.1337931034482764-1.0344827586206904t-1.961379310344828-0.6234482758620707-2.455172413793104-0.30344827586207046q-2.1999999999999993 0-5.075862068965517 0.9517241379310342t-4.924137931034483 2.197241379310345q-0.32413793103448185 0.19586206896551772-0.7131034482758629 0.19586206896551772-0.3448275862068968 0-0.6896551724137936-0.1724137931034484-0.6896551724137936-0.40965517241379246-0.6896551724137936-1.2068965517241388v-15.99310344827586q0-0.7544827586206893 0.6675862068965515-1.1862068965517238 0.7544827586206893-0.45103448275862057 1.692413793103448-0.9144827586206894t2.455172413793104-1.12 3.286896551724137-1.0662068965517237 3.3406896551724152-0.40965517241379334q2.413793103448274 0 4.504827586206897 0.6675862068965515t4.506206896551724 1.8537931034482762q0.8193103448275849 0.4110344827586214 1.9172413793103438 0.4110344827586214 2.6303448275862067 0 6.682758620689658-2.413793103448276 0.4744827586206881-0.257931034482759 0.6675862068965515-0.36689655172413804 0.6675862068965515-0.3448275862068968 1.3379310344827573 0.041379310344827225 0.6662068965517207 0.4331034482758618 0.6662068965517207 1.1862068965517238z"></path></svg>