<?xml version="1.0"?><svg viewBox="0 0 40 40" xmlns="http://www.w3.org/2000/svg" height="40" width="40"><path d="m18.6 21.1v-4.1q-3.8 0.4-8.1 2.5v3.9q4.4-2 8.1-2.3z m0-8.8v-4.2q-3.6 0.2-8.1 2.7v4q4.6-2.4 8.1-2.5z m17.6 9.7v-3.8q-5 2.4-8.1 1.5v-4.8q-0.4-0.1-0.8-0.3-0.1 0-0.7-0.3t-0.7-0.4-0.7-0.3-0.7-0.3-0.7-0.3-0.8-0.3-0.7-0.2-0.9-0.1-0.8-0.1-0.9 0q-0.5 0-1.1 0v4.7h0.5q2.1 0 4 0.6t4.2 1.7q0.4 0.2 0.8 0.4v3.9q0.9 0.4 1.9 0.4 2.6 0 6.2-2z m0-9v-3.9q-3.6 1.9-6.5 1.9-0.9 0-1.6-0.2v4.1q3.1 0.9 8.1-1.9z m-28.4-7.6q0 0.7-0.3 1.4t-1 0.9v26.7q0 0.3-0.2 0.5t-0.5 0.2h-1.3q-0.3 0-0.5-0.2t-0.2-0.5v-26.7q-0.6-0.3-1-0.9t-0.4-1.4q0-1.1 0.8-1.9t1.9-0.8 2 0.8 0.7 1.9z m31.1 1.4v16q0 0.9-0.7 1.2-0.2 0.2-0.4 0.2-4.6 2.5-7.8 2.5-1.8 0-3.3-0.8l-0.6-0.2q-1.4-0.7-2.1-1.1t-1.9-0.6-2.4-0.3q-2.2 0-5 1t-4.8 2.1q-0.3 0.2-0.7 0.2-0.3 0-0.7-0.2-0.7-0.4-0.7-1.1v-15.7q0-0.7 0.7-1.2 0.7-0.4 1.7-0.9t2.4-1.1 3.2-1 3.3-0.4q2.3 0 4.4 0.7t4.4 1.8q0.8 0.4 1.8 0.4 2.6 0 6.6-2.4 0.5-0.2 0.6-0.4 0.7-0.3 1.3 0.1 0.7 0.4 0.7 1.2z"></path></svg>