<?xml version="1.0"?><svg xmlns="http://www.w3.org/2000/svg" width="40" height="40" viewBox="0 0 40 40"><path d="m35.862068965517246 23.21103448275862v-13.275862068965516q-3.6413793103448313 1.961379310344828-6.593103448275862 1.961379310344828-1.7682758620689647 0-3.126896551724137-0.6896551724137936-2.1558620689655186-1.0565517241379307-3.9655172413793096-1.6482758620689655t-3.8344827586206947-0.5931034482758619q-3.73103448275862 0-8.68689655172414 2.7365517241379305v12.910344827586208q5.280000000000001-2.4372413793103433 9.332413793103449-2.4372413793103433 1.1862068965517238 0 2.230344827586208 0.16137931034482733t2.110344827586207 0.5599999999999987 1.6606896551724155 0.6675862068965515 1.7793103448275858 0.8510344827586209l0.6027586206896558 0.30344827586207046q0.9489655172413798 0.4744827586206881 2.17655172413793 0.4744827586206881 2.5862068965517224 0 6.3144827586206915-1.982068965517243z m-28.965517241379313-17.00413793103448q-8.881784197001252e-16 0.7544827586206901-0.3765517241379319 1.3793103448275863t-1.0027586206896553 0.9931034482758614v27.28275862068966q0 0.3034482758620669-0.19310344827586245 0.49655172413793025t-0.49655172413793114 0.19310344827586334h-1.3793103448275863q-0.30344827586206913 0-0.49655172413793114-0.19310344827586334t-0.19310344827586157-0.49655172413793025v-27.28275862068966q-0.6248275862068966-0.3682758620689661-1.0027586206896553-0.9931034482758623t-0.37655172413793103-1.3793103448275854q0-1.1420689655172414 0.8082758620689656-1.950344827586207t1.950344827586207-0.8082758620689661 1.950344827586207 0.8082758620689652 0.8082758620689656 1.9503448275862079z m31.72413793103448 1.3793103448275863v16.444137931034486q0 0.841379310344827-0.7544827586206893 1.2275862068965502-0.21517241379310548 0.11034482758620712-0.36689655172413893 0.19586206896551772-4.697931034482757 2.5006896551724154-7.953103448275861 2.5006896551724154-1.8951724137931052 0-3.4041379310344837-0.7544827586206893l-0.604137931034483-0.30344827586207046q-1.3793103448275872-0.7103448275862085-2.1337931034482764-1.0344827586206904t-1.961379310344828-0.6234482758620707-2.455172413793104-0.30344827586207046q-2.1999999999999993 0-5.075862068965517 0.9517241379310342t-4.924137931034483 2.197241379310345q-0.32413793103448185 0.19586206896551772-0.7131034482758629 0.19586206896551772-0.3448275862068968 0-0.6896551724137936-0.1724137931034484-0.6896551724137936-0.40965517241379246-0.6896551724137936-1.2068965517241388v-15.99310344827586q0-0.7544827586206893 0.6675862068965515-1.1862068965517238 0.7544827586206893-0.45103448275862057 1.692413793103448-0.9144827586206894t2.455172413793104-1.12 3.286896551724137-1.0662068965517237 3.3406896551724152-0.40965517241379334q2.413793103448274 0 4.504827586206897 0.6675862068965515t4.506206896551724 1.8537931034482762q0.8193103448275849 0.4110344827586214 1.9172413793103438 0.4110344827586214 2.6303448275862067 0 6.682758620689658-2.413793103448276 0.4744827586206881-0.257931034482759 0.6675862068965515-0.36689655172413804 0.6675862068965515-0.3448275862068968 1.3379310344827573 0.041379310344827225 0.6662068965517207 0.4331034482758618 0.6662068965517207 1.1862068965517238z"></path></svg>