<?xml version="1.0"?><svg xmlns="http://www.w3.org/2000/svg" width="40" height="40" viewBox="0 0 40 40"><path d="m30.714285714285715 2.857142857142857q2.6571428571428584 0 4.5428571428571445 1.8857142857142857t1.8857142857142861 4.542857142857144v21.42857142857143q0 2.6571428571428584-1.8857142857142861 4.5428571428571445t-4.5428571428571445 1.8857142857142861h-21.42857142857143q-2.6571428571428575 0-4.542857142857144-1.8857142857142861t-1.885714285714284-4.5428571428571445v-21.42857142857143q0-2.6571428571428575 1.8857142857142857-4.542857142857144t4.542857142857144-1.885714285714284h21.42857142857143z m-12.277142857142856 17.142857142857142q0-1.9642857142857153-1.3857142857142861-3.3485714285714288t-3.347142857142856-1.3857142857142861-3.3485714285714288 1.3857142857142861-1.384285714285717 3.3485714285714288 1.3857142857142861 3.3485714285714288 3.347142857142856 1.3857142857142861 3.3485714285714288-1.3857142857142861 1.3857142857142861-3.3485714285714288z m12.590000000000003 0q0-1.9642857142857153-1.3857142857142861-3.3485714285714288t-3.3485714285714288-1.3857142857142861-3.3485714285714288 1.3857142857142861-1.3857142857142861 3.3485714285714288 1.3857142857142861 3.3485714285714288 3.3485714285714288 1.3857142857142861 3.3485714285714288-1.3857142857142861 1.3857142857142861-3.3485714285714288z"></path></svg>