<?xml version="1.0"?><svg xmlns="http://www.w3.org/2000/svg" width="40" height="40" viewBox="0 0 40 40"><path d="m35.714285714285715 29.285714285714285v-15.714285714285715q0-0.8928571428571423-0.6257142857142881-1.5171428571428578t-1.5171428571428578-0.6257142857142828h-15.714285714285715q-0.8928571428571423 0-1.5171428571428578-0.6257142857142863t-0.625714285714281-1.517142857142856v-1.4285714285714288q0-0.8928571428571432-0.6257142857142863-1.5171428571428578t-1.5171428571428578-0.6257142857142854h-7.142857142857143q-0.8928571428571432 0-1.517142857142857 0.6257142857142854t-0.6257142857142854 1.5171428571428578v21.42857142857143q0 0.8928571428571423 0.6257142857142854 1.5171428571428578t1.5171428571428578 0.6257142857142846h27.14285714285714q0.8928571428571459 0 1.5171428571428578-0.6257142857142846t0.6257142857142881-1.5171428571428613z m2.857142857142854-15.714285714285715v15.714285714285715q0 2.0528571428571425-1.471428571428575 3.528571428571432t-3.528571428571425 1.471428571428568h-27.142857142857142q-2.0528571428571425 0-3.528571428571429-1.471428571428568t-1.4714285714285695-3.528571428571432v-21.42857142857143q0-2.0528571428571425 1.4714285714285718-3.5285714285714285t3.5285714285714285-1.4714285714285684h7.142857142857144q2.0528571428571425 0 3.5285714285714285 1.471428571428572t1.4714285714285715 3.5285714285714285v0.7142857142857135h14.999999999999996q2.0528571428571425 0 3.528571428571432 1.4714285714285715t1.471428571428568 3.5285714285714285z"></path></svg>