<?xml version="1.0"?><svg viewBox="0 0 40 40" xmlns="http://www.w3.org/2000/svg" height="40" width="40"><path d="m30.9 19.7q0-0.6-0.9-0.6h-18.9q-0.7 0-1.5 0.4t-1.2 0.9l-5.1 6.3q-0.3 0.4-0.3 0.7 0 0.6 0.9 0.6h18.9q0.7 0 1.5-0.4t1.2-0.9l5.1-6.3q0.3-0.4 0.3-0.7z m-19.8-2.8h13.3v-2.8q0-0.7-0.4-1.2t-1.2-0.5h-10q-0.7 0-1.2-0.5t-0.5-1.1v-1.1q0-0.7-0.5-1.2t-1.2-0.5h-5.5q-0.7 0-1.2 0.5t-0.5 1.2v14.8l4.5-5.5q0.7-0.9 2-1.5t2.4-0.6z m22 2.8q0 1.1-0.8 2.1l-5.1 6.3q-0.7 0.9-2 1.5t-2.4 0.6h-18.9q-1.6 0-2.8-1.1t-1.1-2.8v-16.6q0-1.6 1.1-2.8t2.8-1.1h5.5q1.6 0 2.8 1.1t1.1 2.8v0.5h9.5q1.6 0 2.7 1.2t1.2 2.7v2.8h3.3q0.9 0 1.7 0.4t1.2 1.2q0.2 0.6 0.2 1.2z"></path></svg>