<svg viewBox="0 0 1920 1896.0833" xmlns="http://www.w3.org/2000/svg"><path d="m1781 931q0-35-53-35h-1088q-40 0-85.5 21.5t-71.5 52.5l-294 363q-18 24-18 40 0 35 53 35h1088q40 0 86-22t71-53l294-363q18-22 18-39z m-1141-163h768v-160q0-40-28-68t-68-28h-576q-40 0-68-28t-28-68v-64q0-40-28-68t-68-28h-320q-40 0-68 28t-28 68v853l256-315q44-53 116-87.5t140-34.5z m1269 163q0 62-46 120l-295 363q-43 53-116 87.5t-140 34.5h-1088q-92 0-158-66t-66-158v-960q0-92 66-158t158-66h320q92 0 158 66t66 158v32h544q92 0 158 66t66 158v160h192q54 0 99 24.5t67 70.5q15 32 15 68z"/></svg>