<?xml version="1.0"?><svg viewBox="0 0 40 40" xmlns="http://www.w3.org/2000/svg" height="40" width="40"><path d="m0 5.8h26.7v26.6h-26.7v-26.6z m15.8 5.5l-0.2 0.6 1.3 1.4-0.6 2 0.5 0.4 1.8-0.9 1.9 0.9 0.4-0.4-0.5-2 1.3-1.4-0.2-0.6h-1.7l-0.9-1.6h-0.6l-0.9 1.6h-1.6z m-4.7 2.8q0.6 0 0.8 0.3t0.2 1.1l3-0.3q0-1-0.3-1.7t-0.9-0.9q-0.5-0.3-1.2-0.5t-1.4-0.1q-2.3 0-3.5 1t-1.1 3.2v1.2h-1.7v2.3h1.3q0.4 0 0.4 0.1v6.6q0 0.3-0.1 0.4t-0.3 0.1l-1.3 0.1v1.5h7.8v-1.5l-2.6-0.2q-0.1 0-0.2 0t0-0.1q0 0 0 0t0-0.2q0 0 0-0.1v-6.7h3.3l0.7-2.3h-4q-0.1 0-0.1-0.1t0.1-0.1v-1.4q0-0.5 0-0.7t0.2-0.5q0.1-0.3 0.3-0.4t0.6-0.1z m10.6 14.4v-1.5l-1-0.1q-0.1 0-0.1-0.1t-0.1 0q0 0 0-0.1t0.1-0.2v-9.1h-4.8l-0.4 1.8 1.4 0.4q0.4 0.1 0.4 0.4v6.5q0 0.2-0.1 0.3t-0.3 0.1l-1.2 0.1v1.5h6.1z"></path></svg>