<?xml version="1.0"?><svg viewBox="0 0 40 40" xmlns="http://www.w3.org/2000/svg" height="40" width="40"><path d="m3.8 2.7h32.4v32.4h-32.4v-32.4z m19.2 6.8l-0.3 0.6 1.6 1.8-0.7 2.4 0.6 0.5 2.2-1.2 2.3 1.2 0.5-0.5-0.7-2.4 1.6-1.8-0.2-0.6h-2l-1.1-2.1h-0.7l-1.1 2.1h-2z m-5.7 3.4q0.7 0 1 0.3t0.2 1.4l3.7-0.5q0-1.1-0.4-1.9t-1.1-1.2-1.4-0.6-1.8-0.1q-2.8 0-4.2 1.2t-1.4 3.9v1.5h-2v2.7h1.6q0.4 0 0.4 0.1v8.1q0 0.3-0.1 0.4t-0.4 0.2l-1.5 0.1v1.9h9.4v-1.8l-3.1-0.3q-0.1-0.1-0.2-0.1t-0.1 0 0-0.1 0-0.1 0-0.3v-8.1h4.1l0.8-2.7h-4.9q-0.1 0 0-0.1t0-0.2v-1.7q0-0.6 0.1-0.9t0.1-0.6 0.5-0.4 0.7-0.1z m12.8 17.5v-1.8l-1.1-0.2q-0.2 0-0.2-0.1t-0.1 0 0.1-0.2 0-0.3v-10.9h-5.8l-0.5 2.1 1.7 0.5q0.5 0.1 0.5 0.5v7.8q0 0.3-0.1 0.4t-0.4 0.2l-1.5 0.2v1.8h7.4z"></path></svg>