<?xml version="1.0"?><svg xmlns="http://www.w3.org/2000/svg" width="40" height="40" viewBox="0 0 40 40"><path d="m15.714285714285715 22.5v-5q0-0.35714285714285765-0.35714285714285765-0.35714285714285765h-2.1428571428571423q-0.35714285714285765 0-0.35714285714285765 0.35714285714285765v5q0 0.35714285714285765 0.35714285714285765 0.35714285714285765h2.1428571428571423q0.35714285714285765 0 0.35714285714285765-0.35714285714285765z m11.42857142857143 0v-5q0-0.35714285714285765-0.35714285714285765-0.35714285714285765h-2.1428571428571423q-0.35714285714285765 0-0.35714285714285765 0.35714285714285765v5q0 0.35714285714285765 0.35714285714285765 0.35714285714285765h2.1428571428571423q0.35714285714285765 0 0.35714285714285765-0.35714285714285765z m11.42857142857143 0.7142857142857153v16.785714285714285h-14.285714285714292v-7.142857142857146q0-1.7857142857142847-1.25-3.0357142857142847t-3.0357142857142847-1.2499999999999964-3.0357142857142847 1.25-1.25 3.0357142857142883v7.142857142857146h-14.285714285714286v-16.785714285714292q-2.220446049250313e-16-0.35714285714285765 0.357142857142857-0.35714285714285765h2.1428571428571432q0.35714285714285676 0 0.35714285714285676 0.35714285714285765v2.5h2.8571428571428568v-13.928571428571429q8.881784197001252e-16-0.35714285714285765 0.35714285714285765-0.35714285714285765h2.1428571428571423q0.35714285714285765 0 0.35714285714285765 0.35714285714285765v2.5h2.8571428571428577v-2.5q0-0.35714285714285765 0.35714285714285765-0.35714285714285765h2.1428571428571423q0.35714285714285765 0 0.35714285714285765 0.35714285714285765v2.5h2.8571428571428577v-2.5q0-0.35714285714285765 0.35714285714285765-0.35714285714285765h0.35714285714285765v-8.771428571428572q-0.7142857142857153-0.42857142857142794-0.7142857142857153-1.228571428571428 0-0.5800000000000001 0.4242857142857126-1.0042857142857142t1.0042857142857144-0.4242857142857144 1.0042857142857144 0.42428571428571427 0.42428571428571615 1.0042857142857144q0 0.8028571428571425-0.7142857142857153 1.2285714285714286v0.19999999999999973h6.071428571428569q0.35714285714285765 0 0.35714285714285765 0.3571428571428572v5.000000000000001q0 0.35714285714285765-0.35714285714285765 0.35714285714285765h-6.071428571428569v2.8571428571428577h0.35714285714285765q0.35714285714285765 0 0.35714285714285765 0.35714285714285765v2.4999999999999982h2.8571428571428577v-2.5q0-0.35714285714285765 0.35714285714285765-0.35714285714285765h2.1428571428571423q0.35714285714285765 0 0.35714285714285765 0.35714285714285765v2.5h2.8571428571428577v-2.5q0-0.35714285714285765 0.35714285714285765-0.35714285714285765h2.142857142857146q0.3571428571428541 0 0.3571428571428541 0.35714285714285765v13.928571428571429h2.857142857142854v-2.5q0-0.35714285714285765 0.3571428571428541-0.35714285714285765h2.142857142857146q0.3571428571428541 0 0.3571428571428541 0.35714285714285765z"></path></svg>