<?xml version="1.0"?><svg xmlns="http://www.w3.org/2000/svg" width="40" height="40" viewBox="0 0 40 40"><path d="m23.705714285714286 3.3485714285714283q-7.0771428571428565 2.7000000000000006-12.41 8.09142857142857t-7.991428571428571 12.511428571428569q-0.44714285714285795-1.985714285714284-0.44714285714285795-3.9285714285714235 0-4.642857142857142 2.2885714285714287-8.582857142857144t6.217142857142859-6.2285714285714295 8.57142857142857-2.285714285714286q1.8285714285714292 0 3.7714285714285722 0.42285714285714304z m6.0042857142857144 2.657142857142857q2.0757142857142874 1.4500000000000002 3.6599999999999966 3.4571428571428573-8.685714285714287 2.524285714285714-15.057142857142857 8.942857142857143t-8.850000000000001 15.100000000000005q-2.0757142857142856-1.6085714285714303-3.460000000000001-3.617142857142859 2.5-8.614285714285714 8.817142857142857-14.977142857142857t14.88857142857143-8.905714285714286z m-16.36142857142857 29.774285714285718q2.567142857142855-7.9471428571428575 8.471428571428568-13.885714285714286t13.82857142857143-8.571428571428571q0.8928571428571459 2.0542857142857134 1.2057142857142864 4.354285714285714-6.517142857142858 2.678571428571427-11.517142857142858 7.699999999999999t-7.657142857142858 11.564285714285717q-2.297142857142857-0.3142857142857167-4.328571428571429-1.1599999999999966z m23.794285714285714 1.2957142857142827q-4.308571428571426-1.1142857142857139-8.191428571428574-2.567142857142855-3.0142857142857125 1.875714285714288-6.4714285714285715 2.3885714285714315 2.4314285714285724-4.575714285714284 6.114285714285714-8.271428571428572t8.23714285714286-6.1485714285714295q-0.46857142857142975 3.3928571428571423-2.2542857142857144 6.34 1.451428571428572 3.9057142857142857 2.567142857142855 8.257142857142856z"></path></svg>