<?xml version="1.0"?><svg viewBox="0 0 40 40" xmlns="http://www.w3.org/2000/svg" height="40" width="40"><path d="m23.5 3.2q-6.7 2.5-11.7 7.6t-7.6 11.8q-0.4-1.8-0.4-3.7 0-4.4 2.2-8.1t5.8-5.9 8.1-2.1q1.8 0 3.6 0.4z m5.7 2.5q1.9 1.3 3.4 3.2-8.2 2.4-14.2 8.5t-8.4 14.3q-1.9-1.6-3.2-3.5 2.3-8.1 8.3-14.1t14.1-8.4z m-15.5 28.1q2.4-7.5 8-13.1t13.1-8.1q0.8 1.9 1.1 4.1-6.1 2.5-10.9 7.3t-7.2 10.9q-2.2-0.3-4.1-1.1z m22.5 1.2q-4.1-1-7.7-2.4-2.9 1.8-6.2 2.3 2.3-4.4 5.8-7.8t7.8-5.9q-0.4 3.3-2.1 6 1.3 3.7 2.4 7.8z"></path></svg>