<?xml version="1.0"?><svg viewBox="0 0 40 40" xmlns="http://www.w3.org/2000/svg" height="40" width="40"><path d="m17.4 11.1l0.6-3.4q0.1-0.4-0.2-0.7t-0.6-0.3h-12.3q-0.4 0-0.7 0.3t-0.3 0.7v19.1q0 0.1 0.1 0l5.1-6.1q0.4-0.5 0.7-0.6t0.8-0.1h4.1q0.4 0 0.7-0.3t0.3-0.5q0.4-2.3 0.6-3.3 0.1-0.4-0.2-0.7t-0.6-0.3h-5.1q-0.5 0-0.8-0.4t-0.4-0.8v-0.7q0-0.5 0.4-0.9t0.8-0.3h6q0.3 0 0.6-0.2t0.4-0.5z m3.9-3.9q-0.3 1.3-0.9 4.6t-1.2 6.1q-0.6 2.7-0.6 3-0.1 0.4-0.2 0.6t-0.2 0.6q-0.2 0.3-0.5 0.5t-0.6 0.4q-0.5 0.2-1 0.2h-4.7q-0.3 0-0.4 0.1-0.2 0.2-7.4 8.6-0.4 0.5-1 0.5t-0.9-0.1q-0.9-0.4-0.9-1.7v-24.5q0-0.9 0.6-1.7t2.1-0.9h15.4q1.7 0 2.2 1t0.2 2.7z m0 0l-2.7 13.7q0-0.3 0.6-3t1.2-6.1q0.6-3.3 0.9-4.6z"></path></svg>