<?xml version="1.0"?><svg viewBox="0 0 40 40" xmlns="http://www.w3.org/2000/svg" height="40" width="40"><path d="m19.7 24.9q0.1 0.4-0.1 0.8t-0.6 0.6q-0.5 0.1-0.9-0.1t-0.5-0.7q-0.5-1.4-1.6-2.2t-2.7-0.9q-1.4 0-2.6 0.9t-1.6 2.2q-0.1 0.5-0.5 0.7t-0.9 0.1q-0.4-0.2-0.7-0.6t0-0.8q0.6-2.1 2.4-3.4t3.9-1.3q2.2 0 4 1.3t2.4 3.4z m-9.2-11.8q0.6 0.6 0.6 1.6t-0.6 1.5q-0.7 0.7-1.6 0.7t-1.6-0.7q-0.6-0.6-0.6-1.5t0.6-1.6q0.7-0.7 1.6-0.7t1.6 0.7z m8.8 0q0.7 0.6 0.7 1.6t-0.7 1.5q-0.6 0.7-1.5 0.7t-1.6-0.7q-0.6-0.6-0.6-1.5t0.6-1.6q0.7-0.7 1.6-0.7t1.5 0.7z m4.3 10.3q0.8-2 0.8-4.3t-0.8-4.3q-0.9-2.1-2.4-3.6t-3.6-2.3q-2-0.9-4.3-0.9t-4.3 0.9q-2 0.9-3.5 2.3t-2.4 3.6q-0.9 2-0.9 4.3t0.9 4.3q0.9 2.1 2.4 3.6t3.5 2.3q2.1 0.9 4.3 0.9t4.3-0.9q2.1-0.9 3.6-2.3t2.4-3.6z m1.3-11q1.8 3.1 1.8 6.7t-1.8 6.7q-1.8 3.1-4.9 4.8t-6.7 1.8q-3.6 0-6.7-1.8t-4.8-4.8q-1.8-3.1-1.8-6.7t1.8-6.7q1.8-3.1 4.8-4.8t6.7-1.8q3.7 0 6.7 1.8t4.9 4.8z"></path></svg>