<?xml version="1.0"?><svg xmlns="http://www.w3.org/2000/svg" width="40" height="40" viewBox="0 0 40 40"><path d="m13.594285714285714 18.214285714285715l6.405714285714286-4.642857142857144 6.405714285714286 4.642857142857144-2.4342857142857106 7.5h-7.9228571428571435z m6.405714285714286-18.214285714285715q4.062857142857144 0 7.767142857142858 1.5857142857142859t6.385714285714286 4.2614285714285725 4.261428571428574 6.385714285714284 1.5857142857142819 7.764285714285716-1.585714285714289 7.765714285714285-4.262857142857143 6.385714285714286-6.385714285714286 4.261428571428574-7.765714285714282 1.5857142857142819-7.767142857142858-1.585714285714289-6.385714285714285-4.261428571428574-4.261428571428572-6.385714285714286-1.5857142857142854-7.762857142857136 1.5857142857142859-7.7714285714285705 4.262857142857143-6.385714285714285 6.385714285714286-4.261428571428572 7.765714285714285-1.5814285714285727z m13.817142857142855 30.134285714285717q3.325714285714291-4.531428571428574 3.325714285714291-10.134285714285717v-0.0671428571428585l-2.277142857142856 1.985714285714284-5.357142857142858-5 1.4057142857142857-7.208571428571428 2.991428571428571 0.2671428571428578q-3.3485714285714288-4.6000000000000005-8.682857142857145-6.294285714285714l1.1828571428571415 2.767142857142858-6.405714285714286 3.5500000000000007-6.405714285714286-3.5514285714285707 1.1828571428571433-2.7671428571428573q-5.3342857142857145 1.698571428571428-8.682857142857143 6.2957142857142845l3.0142857142857142-0.2671428571428578 1.3828571428571426 7.209999999999999-5.357142857142858 5-2.2771428571428562-1.985714285714284v0.06571428571428584q0 5.602857142857143 3.325714285714286 10.134285714285717l0.6714285714285717-2.9471428571428575 7.275714285714286 0.894285714285715 3.104285714285714 6.651428571428568-2.59 1.5399999999999991q2.6099999999999994 0.8700000000000045 5.355714285714285 0.8700000000000045t5.357142857142858-0.8714285714285737l-2.59-1.5399999999999991 3.102857142857143-6.651428571428571 7.275714285714283-0.8928571428571423z"></path></svg>