<?xml version="1.0"?><svg viewBox="0 0 40 40" xmlns="http://www.w3.org/2000/svg" height="40" width="40"><path d="m13.9 17.2l6.1-4.4 6.1 4.4-2.3 7.1h-7.5z m6.1-17.2q3.8 0 7.3 1.5t6.1 4 4 6.1 1.5 7.3-1.5 7.3-4 6.1-6.1 4-7.3 1.5-7.3-1.5-6.1-4-4-6.1-1.5-7.3 1.5-7.3 4-6.1 6.1-4 7.3-1.5z m13.1 28.5q3.1-4.3 3.1-9.6v-0.1l-2.1 1.9-5.1-4.7 1.3-6.8 2.8 0.2q-3.1-4.3-8.2-5.9l1.2 2.6-6.1 3.4-6.1-3.4 1.2-2.6q-5.1 1.6-8.2 5.9l2.8-0.2 1.3 6.8-5.1 4.7-2.1-1.9v0.1q0 5.3 3.1 9.6l0.7-2.8 6.9 0.8 2.9 6.3-2.5 1.5q2.5 0.8 5.1 0.8t5.1-0.8l-2.5-1.5 2.9-6.3 6.9-0.8z"></path></svg>