<?xml version="1.0"?><svg xmlns="http://www.w3.org/2000/svg" width="40" height="40" viewBox="0 0 40 40"><path d="m39.53142857142857 34.285714285714285q0 1.182857142857145-0.8257142857142838 2.008571428571429l-2.3885714285714315 2.4100000000000037q-0.8714285714285737 0.8257142857142838-2.0314285714285703 0.8257142857142838-1.182857142857145 0-2.008571428571429-0.8242857142857147l-8.102857142857143-8.125714285714288q-0.8485714285714288-0.8028571428571425-0.8485714285714288-2.008571428571429 0-1.1857142857142868 0.9600000000000009-2.1428571428571423l-5.714285714285715-5.714285714285715-2.814285714285715 2.8114285714285714q-0.3114285714285714 0.31428571428571317-0.757142857142858 0.31428571428571317t-0.757142857142858-0.31428571428571317q0.042857142857142705 0.04285714285714448 0.2771428571428576 0.2671428571428578t0.27857142857142847 0.28999999999999915 0.22142857142857153 0.25714285714285623 0.22285714285714242 0.3000000000000007 0.13571428571428612 0.3028571428571425 0.12285714285714278 0.36857142857142833 0.03428571428571381 0.3999999999999986q0 0.8500000000000014-0.6257142857142863 1.518571428571427-0.06714285714285673 0.06857142857142762-0.36857142857142833 0.4028571428571439t-0.4242857142857144 0.4571428571428555-0.41142857142857103 0.36857142857142833-0.4914285714285711 0.345714285714287-0.4914285714285711 0.1999999999999993-0.5800000000000001 0.10000000000000142q-0.8928571428571423 0-1.5171428571428578-0.6242857142857154l-9.111428571428567-9.10857142857142q-0.6242857142857141-0.6257142857142846-0.6242857142857141-1.5171428571428578 0-0.28999999999999915 0.09999999999999998-0.5799999999999983t0.20000000000000007-0.4914285714285711 0.3471428571428572-0.4914285714285711 0.36857142857142855-0.4142857142857146 0.4571428571428571-0.4228571428571435 0.3999999999999999-0.36857142857142833q0.6714285714285713-0.6257142857142863 1.5185714285714282-0.6257142857142863 0.2228571428571433 0 0.40000000000000036 0.03285714285714292t0.371428571428571 0.12285714285714278 0.2999999999999998 0.13571428571428612 0.2999999999999998 0.22285714285714242 0.2571428571428571 0.2242857142857151 0.2914285714285718 0.27857142857142847 0.2685714285714287 0.27857142857142847q-0.31428571428571406-0.31428571428571495-0.31428571428571406-0.757142857142858t0.31428571428571406-0.7599999999999998l7.767142857142857-7.767142857142858q0.31428571428571495-0.31428571428571406 0.757142857142858-0.31428571428571406t0.7599999999999998 0.31428571428571406q-0.042857142857142705-0.042857142857142705-0.27857142857142847-0.2671428571428569t-0.27857142857142847-0.28857142857142826-0.22285714285714242-0.2571428571428571-0.22142857142857153-0.2999999999999998-0.13428571428571345-0.3028571428571425-0.12142857142857189-0.36857142857142833-0.03285714285714292-0.40000000000000036q0-0.8500000000000001 0.6257142857142863-1.5185714285714287 0.06714285714285673-0.06714285714285717 0.36857142857142833-0.3999999999999999t0.4242857142857144-0.4571428571428573 0.4142857142857146-0.37142857142857144 0.48999999999999844-0.34285714285714297 0.4914285714285711-0.20285714285714285 0.5800000000000018-0.09999999999999998q0.8928571428571423 0 1.5171428571428578 0.6257142857142858l9.107142857142858 9.108571428571429q0.6257142857142846 0.6257142857142863 0.6257142857142846 1.5171428571428578 0 0.2900000000000009-0.10000000000000142 0.5800000000000001t-0.1999999999999993 0.4914285714285711-0.3471428571428561 0.4914285714285711-0.36857142857142833 0.4142857142857146-0.4571428571428555 0.4228571428571435-0.3999999999999986 0.36857142857142833q-0.6714285714285708 0.6257142857142863-1.518571428571427 0.6257142857142863-0.2242857142857133 0-0.4028571428571439-0.03285714285714292t-0.36857142857142833-0.12142857142857189-0.3000000000000007-0.13428571428571345-0.3028571428571425-0.22142857142857153-0.25714285714285623-0.22285714285714242-0.28999999999999915-0.27999999999999936-0.2671428571428578-0.27857142857142847q0.31428571428571317 0.3114285714285714 0.31428571428571317 0.757142857142858t-0.31428571428571317 0.757142857142858l-2.8171428571428656 2.8085714285714225 5.714285714285715 5.714285714285715q0.96142857142857-0.9600000000000009 2.1428571428571423-0.9600000000000009 1.1614285714285728 0 2.032857142857143 0.8257142857142874l8.104285714285716 8.10285714285714q0.8257142857142838 0.8714285714285737 0.8257142857142838 2.0314285714285703z"></path></svg>