<?xml version="1.0"?><svg viewBox="0 0 40 40" xmlns="http://www.w3.org/2000/svg" height="40" width="40"><path d="m38.5 32.4q0 1.1-0.8 1.9l-2.3 2.3q-0.8 0.8-1.9 0.8-1.1 0-1.9-0.8l-7.7-7.7q-0.8-0.8-0.8-1.9 0-1.1 1-2l-5.5-5.4-2.6 2.6q-0.3 0.3-0.7 0.3t-0.7-0.3q0 0.1 0.2 0.3t0.3 0.3 0.2 0.2 0.2 0.3 0.1 0.3 0.1 0.3 0.1 0.4q0 0.8-0.6 1.4-0.1 0.1-0.4 0.4t-0.4 0.4-0.3 0.4-0.5 0.3-0.5 0.2-0.5 0.1q-0.9 0-1.5-0.6l-8.6-8.6q-0.6-0.6-0.6-1.4 0-0.3 0.1-0.6t0.2-0.4 0.4-0.5 0.3-0.4 0.4-0.4 0.4-0.3q0.6-0.6 1.4-0.6 0.3 0 0.4 0t0.4 0.1 0.3 0.1 0.2 0.3 0.3 0.2 0.3 0.2 0.2 0.3q-0.3-0.3-0.3-0.7t0.3-0.7l7.4-7.4q0.3-0.3 0.7-0.3t0.7 0.3q-0.1 0-0.3-0.2t-0.2-0.3-0.2-0.3-0.3-0.2-0.1-0.3-0.1-0.4 0-0.3q0-0.9 0.6-1.5 0 0 0.3-0.4t0.4-0.4 0.4-0.3 0.5-0.4 0.4-0.2 0.6-0.1q0.8 0 1.4 0.6l8.6 8.6q0.6 0.6 0.6 1.5 0 0.3-0.1 0.5t-0.2 0.5-0.3 0.5-0.4 0.3-0.4 0.4-0.4 0.4q-0.6 0.6-1.4 0.6-0.2 0-0.4 0t-0.3-0.2-0.3-0.1-0.3-0.2-0.2-0.2-0.3-0.3-0.3-0.2q0.3 0.3 0.3 0.7t-0.3 0.7l-2.6 2.7 5.4 5.4q0.9-1 2-1 1.1 0 1.9 0.8l7.7 7.7q0.8 0.8 0.8 1.9z"></path></svg>