<?xml version="1.0"?><svg viewBox="0 0 40 40" xmlns="http://www.w3.org/2000/svg" height="40" width="40"><path d="m28.5 24v7.7q0 0.3-0.2 0.5t-0.5 0.2h-20.2q-0.3 0-0.5-0.2t-0.1-0.5v-3.1q0-0.3 0.2-0.5t0.4-0.2h2.1v-8.1h-2q-0.3 0-0.5-0.2t-0.2-0.5v-2.7q0-0.3 0.2-0.5t0.5-0.2h2v-4.7q0-3.6 2.6-6t6.6-2.3q3.9 0 7.1 2.6 0.2 0.2 0.2 0.5t-0.2 0.4l-2.1 2.7q-0.2 0.3-0.5 0.3-0.3 0-0.5-0.2-0.1-0.1-0.5-0.4t-1.5-0.6-1.9-0.4q-1.8 0-2.9 1t-1.1 2.6v4.5h6.4q0.3 0 0.5 0.2t0.2 0.5v2.7q0 0.3-0.2 0.5t-0.5 0.2h-6.4v8h8.7v-3.8q0-0.3 0.2-0.5t0.5-0.2h3.4q0.3 0 0.5 0.2t0.2 0.5z"></path></svg>