<?xml version="1.0"?><svg xmlns="http://www.w3.org/2000/svg" width="40" height="40" viewBox="0 0 40 40"><path d="m31.338571428571427 25.38v8.19142857142857q0 0.3142857142857167-0.1999999999999993 0.5142857142857125t-0.514285714285716 0.20000000000000284h-21.338571428571427q-0.31428571428571317 0-0.5142857142857125-0.20000000000000284t-0.20000000000000107-0.5142857142857125v-3.3485714285714288q0-0.28999999999999915 0.21000000000000085-0.5028571428571418t0.5028571428571436-0.21142857142856997h2.1642857142857146v-8.548571428571428h-2.120000000000001q-0.3114285714285714 0-0.5114285714285707-0.21142857142856997t-0.1999999999999993-0.5028571428571418v-2.9242857142857126q0-0.31428571428571317 0.1999999999999993-0.5142857142857125t0.5142857142857142-0.1999999999999993h2.1185714285714283v-4.978571428571435q0-3.814285714285714 2.757142857142858-6.292857142857144t7.021428571428569-2.478571428571429q4.12857142857143 0 7.475714285714286 2.7914285714285714 0.1999999999999993 0.17857142857142883 0.2228571428571442 0.4571428571428573t-0.15714285714285836 0.5028571428571427l-2.2985714285714245 2.8342857142857145q-0.1999999999999993 0.24571428571428555-0.48999999999999844 0.2671428571428578-0.28999999999999915 0.042857142857142705-0.514285714285716-0.15714285714285658-0.10999999999999943-0.10999999999999943-0.5785714285714292-0.4228571428571435t-1.5399999999999991-0.7142857142857135-2.0757142857142874-0.40000000000000036q-1.8957142857142841 0-3.057142857142857 1.048571428571428t-1.1600000000000001 2.7457142857142856v4.799999999999999h6.80857142857143q0.28999999999999915 0 0.5028571428571418 0.1999999999999993t0.21142857142856997 0.514285714285716v2.9228571428571435q0 0.28999999999999915-0.21142857142856997 0.5028571428571418t-0.5028571428571418 0.21142857142856997h-6.810000000000006v8.46h9.24285714285714v-4.039999999999999q0-0.28999999999999915 0.1999999999999993-0.5028571428571418t0.514285714285716-0.21142857142856997h3.614285714285714q0.31428571428571317 0 0.5142857142857125 0.21142857142856997t0.1999999999999993 0.5028571428571418z"></path></svg>