<?xml version="1.0"?><svg viewBox="0 0 40 40" xmlns="http://www.w3.org/2000/svg" height="40" width="40"><path d="m17.7 23.3v6.4q0 0.2-0.1 0.4t-0.4 0.1h-16.6q-0.3 0-0.4-0.1t-0.2-0.4v-2.7q0-0.2 0.2-0.3t0.4-0.2h1.6v-6.7h-1.6q-0.3 0-0.4-0.1t-0.2-0.4v-2.3q0-0.2 0.2-0.4t0.4-0.1h1.6v-3.9q0-3 2.2-4.9t5.4-1.9q3.3 0 5.9 2.1 0.1 0.2 0.1 0.4t-0.1 0.4l-1.8 2.2q-0.1 0.2-0.4 0.2-0.2 0-0.4-0.1 0-0.1-0.4-0.4t-1.2-0.5q-0.8-0.3-1.6-0.3-1.5 0-2.4 0.8t-0.9 2.1v3.8h5.3q0.2 0 0.4 0.1t0.1 0.4v2.3q0 0.2-0.1 0.4t-0.4 0.1h-5.3v6.6h7.2v-3.1q0-0.2 0.1-0.4t0.4-0.2h2.9q0.2 0 0.4 0.2t0.1 0.4z"></path></svg>