<?xml version="1.0"?><svg viewBox="0 0 40 40" xmlns="http://www.w3.org/2000/svg" height="40" width="40"><path d="m15.2 32v1.1000000000000014q-3.5999999999999996-0.10000000000000142-6.699999999999999-1.8999999999999986t-4.9-4.800000000000001l1-0.6000000000000014q0.5 0.8999999999999986 1.2999999999999998 1.8000000000000007l1.1000000000000005-1q2.5 2.8999999999999986 6.4 3.6999999999999993l-0.3000000000000007 1.5q1.0999999999999996 0.1999999999999993 2.0999999999999996 0.1999999999999993z m-10.399999999999999-9.2l-1.4000000000000008 0.5q0.2999999999999998 1 0.8000000000000003 1.8999999999999986l-1 0.6000000000000014q-1.7-3.1000000000000014-1.7-6.699999999999999t1.7-6.699999999999999l1 0.5999999999999996q-0.5 1-0.7999999999999998 1.9000000000000004l1.4000000000000004 0.5q-0.5999999999999996 1.8000000000000007-0.5999999999999996 3.6999999999999993 0 1.8999999999999986 0.5999999999999996 3.6999999999999993z m21.7 3l1 0.6000000000000014q-1.8000000000000007 3-4.899999999999999 4.800000000000001t-6.699999999999999 1.8999999999999986v-1.1000000000000014q1 0 2.1000000000000014-0.1999999999999993l-0.3000000000000007-1.5q3.8999999999999986-0.8000000000000007 6.399999999999999-3.6999999999999993l1.1999999999999993 1q0.6999999999999993-0.8999999999999986 1.1999999999999993-1.8000000000000007z m-2.6000000000000014-9.599999999999998l-4 1.3999999999999986q0.1999999999999993 0.6999999999999993 0.1999999999999993 1.5t-0.1999999999999993 1.5l4 1.3999999999999986q-0.5 1.6000000000000014-1.6999999999999993 2.8999999999999986l-3.1999999999999993-2.799999999999997q-1 1.1000000000000014-2.6000000000000014 1.5l0.8999999999999986 4.100000000000001q-0.8999999999999986 0.1999999999999993-1.6999999999999993 0.1999999999999993t-1.6999999999999993-0.1999999999999993l0.8000000000000007-4.100000000000001q-1.5999999999999996-0.3999999999999986-2.5999999999999996-1.5l-3.200000000000001 2.8000000000000007q-1.0999999999999988-1.3000000000000007-1.6999999999999984-2.900000000000002l3.999999999999999-1.3999999999999986q-0.1999999999999993-0.8000000000000007-0.1999999999999993-1.5t0.1999999999999993-1.5l-4-1.3999999999999986q0.5999999999999996-1.5999999999999996 1.6999999999999993-2.9000000000000004l3.1999999999999993 2.799999999999999q1.0999999999999996-1.1999999999999993 2.5999999999999996-1.5l-0.8000000000000007-4.1q0.6999999999999993-0.1999999999999993 1.6999999999999993-0.1999999999999993t1.700000000000001 0.1999999999999993l-0.8999999999999986 4.1q1.6000000000000014 0.3000000000000007 2.6000000000000014 1.5l3.1999999999999993-2.8000000000000007q1.1000000000000014 1.3000000000000007 1.6999999999999993 2.8999999999999986z m-8.7-11.100000000000003v1.0999999999999996q-1.1999999999999993 0-2.0999999999999996 0.20000000000000018l0.3000000000000007 1.5q-3.9000000000000004 0.7999999999999998-6.4 3.7l-1.0999999999999996-1q-0.7000000000000002 0.8000000000000007-1.2999999999999998 1.6999999999999993l-1-0.5q1.7999999999999998-3 4.8999999999999995-4.8t6.699999999999999-1.8999999999999995z m12.7 7.299999999999999q1.6999999999999993 3.0999999999999996 1.6999999999999993 6.699999999999999t-1.6999999999999993 6.699999999999999l-1-0.6000000000000014q0.5-0.8999999999999986 0.8999999999999986-1.8999999999999986l-1.5-0.5q0.6000000000000014-1.8000000000000007 0.6000000000000014-3.6999999999999993 0-1.8999999999999986-0.6000000000000014-3.6999999999999993l1.5-0.5q-0.3999999999999986-0.9000000000000004-0.8999999999999986-1.9000000000000004l1-0.5999999999999996z m-0.3999999999999986-0.5999999999999996l-1 0.5q-0.6000000000000014-0.9000000000000004-1.1999999999999993-1.6999999999999993l-1.1999999999999993 1q-2.5-2.9000000000000004-6.399999999999999-3.7l0.3000000000000007-1.5q-0.8999999999999986-0.20000000000000018-2.0999999999999996-0.20000000000000018v-1.0999999999999996q3.700000000000001 0.09999999999999964 6.700000000000001 1.9000000000000004t4.900000000000002 4.800000000000001z m1.6999999999999993 12.999999999999998q1.1000000000000014-2.6999999999999993 1.1000000000000014-5.699999999999999t-1.1000000000000014-5.800000000000001q-1.1999999999999993-2.6999999999999975-3.1999999999999993-4.6999999999999975t-4.699999999999999-3.0999999999999996q-2.6999999999999993-1.2000000000000002-5.699999999999999-1.2000000000000002t-5.800000000000001 1.2000000000000002q-2.700000000000001 1.0999999999999996-4.700000000000001 3.0999999999999996t-3.2 4.700000000000001q-1.0999999999999994 2.8000000000000007-1.0999999999999994 5.800000000000001t1.1 5.699999999999999q1.2 2.8000000000000007 3.2 4.800000000000001t4.7 3.1000000000000014q2.8000000000000007 1.2000000000000028 5.800000000000001 1.2000000000000028t5.699999999999999-1.2000000000000028q2.6999999999999993-1.1999999999999993 4.699999999999999-3.1000000000000014t3.1999999999999993-4.800000000000001z m0.6999999999999993-11.7q1.1999999999999993 2.8000000000000007 1.1999999999999993 6t-1.1999999999999993 6q-1.3000000000000007 2.8999999999999986-3.3000000000000007 5t-5 3.3000000000000007q-2.8999999999999986 1.2999999999999972-6 1.2999999999999972t-6.1-1.2999999999999972q-2.9000000000000004-1.2000000000000028-5-3.3000000000000007t-3.3-5q-1.1999999999999984-2.799999999999997-1.1999999999999984-5.9999999999999964t1.2-6q1.3-2.9000000000000004 3.3-5t5-3.3q2.9000000000000004-1.2999999999999998 6.1-1.2999999999999998t6.000000000000002 1.2999999999999998q2.8999999999999986 1.2000000000000002 5 3.3t3.3000000000000007 5z"></path></svg>