<?xml version="1.0"?><svg viewBox="0 0 40 40" xmlns="http://www.w3.org/2000/svg" height="40" width="40"><path d="m16.5 22.2q1.3000000000000007-1.3000000000000007 1.3000000000000007-3.1000000000000014t-1.3000000000000007-3.099999999999998q-1.3000000000000007-1.3000000000000007-3.1999999999999993-1.3000000000000007t-3.1000000000000014 1.3000000000000007q-1.3000000000000007 1.3000000000000007-1.3000000000000007 3.1000000000000014t1.3000000000000007 3.1000000000000014q1.3000000000000007 1.3000000000000007 3.0999999999999996 1.3000000000000007t3.200000000000001-1.3000000000000007z m10.2-5v3.8999999999999986q0 0.1999999999999993-0.1999999999999993 0.3999999999999986t-0.3000000000000007 0.1999999999999993l-3.1999999999999993 0.5q-0.3999999999999986 0.8999999999999986-0.6999999999999993 1.5 0.6000000000000014 0.8999999999999986 1.8000000000000007 2.3999999999999986 0.1999999999999993 0.3000000000000007 0.1999999999999993 0.5t-0.10000000000000142 0.3999999999999986q-0.5 0.6000000000000014-1.8000000000000007 1.8999999999999986t-1.6000000000000014 1.1999999999999993q-0.1999999999999993 0-0.3999999999999986-0.1999999999999993l-2.3999999999999986-1.79999999999999q-0.8000000000000007 0.3999999999999986-1.6000000000000014 0.6000000000000014-0.3000000000000007 2.3999999999999986-0.5 3.1999999999999993-0.09999999999999964 0.5000000000000036-0.5999999999999996 0.5000000000000036h-3.9000000000000004q-0.1999999999999993 0-0.40000000000000036-0.10000000000000142t-0.1999999999999993-0.3999999999999986l-0.5-3.1999999999999993q-0.9000000000000004-0.3000000000000007-1.5999999999999996-0.6000000000000014l-2.4000000000000004 1.8000000000000007q-0.20000000000000018 0.1999999999999993-0.40000000000000036 0.1999999999999993-0.2999999999999998 0-0.5-0.1999999999999993-2.2-2-2.8-2.8999999999999986-0.20000000000000018-0.1999999999999993-0.20000000000000018-0.3999999999999986t0.20000000000000018-0.3999999999999986q0.20000000000000018-0.3999999999999986 0.8999999999999999-1.1999999999999993t0.8999999999999999-1.1999999999999993q-0.5-0.8999999999999986-0.7000000000000002-1.6999999999999993l-3.2-0.5q-0.2 0-0.4-0.1999999999999993t-0.0999999999999982-0.4000000000000128v-3.8999999999999986q0-0.1999999999999993 0.1-0.3999999999999986t0.4-0.1999999999999993l3.2-0.5q0.20000000000000018-0.8000000000000007 0.7000000000000002-1.5999999999999996-0.7000000000000002-1-1.9-2.4000000000000004-0.20000000000000018-0.1999999999999993-0.20000000000000018-0.40000000000000036t0.20000000000000018-0.40000000000000036q0.5-0.5999999999999996 1.6999999999999997-1.9000000000000004t1.7000000000000002-1.1999999999999993q0.20000000000000018 0 0.40000000000000036 0.1999999999999993l2.4000000000000004 1.8000000000000007q0.8000000000000007-0.40000000000000036 1.5999999999999996-0.5999999999999996 0.3000000000000007-2.4000000000000004 0.5-3.3 0.09999999999999964-0.40000000000000036 0.5999999999999996-0.40000000000000036h3.9000000000000004q0.1999999999999993 0 0.40000000000000036 0.09999999999999964t0.1999999999999993 0.40000000000000036l0.4999999999999982 3.2q0.8000000000000007 0.3000000000000007 1.5 0.5999999999999996l2.5-1.8000000000000007q0.1999999999999993-0.1999999999999993 0.3999999999999986-0.1999999999999993t0.5 0.1999999999999993q2.1999999999999993 2 2.8000000000000007 2.9000000000000004 0.10000000000000142 0.1999999999999993 0.10000000000000142 0.40000000000000036t-0.10000000000000142 0.40000000000000036l-0.8999999999999986 1.1999999999999993-0.8999999999999986 1.1999999999999993q0.3999999999999986 0.9000000000000004 0.6999999999999993 1.6999999999999993l3.1999999999999993 0.5q0.1999999999999993 0 0.3000000000000007 0.1999999999999993t0.1999999999999993 0.3999999999999986z"></path></svg>