<?xml version="1.0"?><svg xmlns="http://www.w3.org/2000/svg" width="40" height="40" viewBox="0 0 40 40"><path d="m16.004285714285714 30.22285714285714l6.048571428571428-6.048571428571428-6.2285714285714295-6.228571428571431-1.9628571428571426 1.9657142857142844 4.2857142857142865 4.262857142857143-2.1428571428571423 2.1428571428571423-6.2285714285714295-6.228571428571431 6.2285714285714295-6.225714285714286 0.8928571428571423 0.8928571428571423 1.942857142857143-1.942857142857143-2.8357142857142854-2.8571428571428577-10.134285714285715 10.134285714285713z m7.991428571428571-0.17857142857142705l10.134285714285717-10.13285714285714-10.13285714285714-10.134285714285715-6.048571428571428 6.04857142857143 6.228571428571428 6.228571428571431 1.9628571428571426-1.9657142857142844-4.285714285714285-4.261428571428571 2.1428571428571423-2.1428571428571423 6.228571428571428 6.228571428571428-6.228571428571428 6.225714285714286-0.8928571428571423-0.8928571428571423-1.942857142857143 1.9642857142857153z m16.004285714285714-10.044285714285714q0 4.062857142857144-1.585714285714289 7.767142857142858t-4.261428571428574 6.385714285714286-6.385714285714286 4.261428571428574-7.764285714285705 1.5857142857142819-7.765714285714285-1.585714285714289-6.385714285714285-4.262857142857143-4.261428571428572-6.385714285714286-1.5857142857142892-7.765714285714282 1.5857142857142859-7.767142857142858 4.261428571428572-6.385714285714285 6.385714285714285-4.261428571428572 7.762857142857143-1.5857142857142854 7.768571428571427 1.5857142857142859 6.385714285714286 4.262857142857143 4.261428571428574 6.385714285714286 1.5842857142857127 7.765714285714285z"></path></svg>