<?xml version="1.0"?><svg viewBox="0 0 40 40" xmlns="http://www.w3.org/2000/svg" height="40" width="40"><path d="m23.4 28.6v-15.1h-6.8v15.1q0 0.5 0.4 0.8t1 0.3h4q0.6 0 1-0.3t0.4-0.8z m-9.6-17.8h4.1l-2.7-3.4q-0.5-0.6-1.4-0.6-0.9 0-1.5 0.5t-0.6 1.5 0.6 1.4 1.5 0.6z m14.5-2q0-0.9-0.6-1.5t-1.5-0.5q-0.9 0-1.4 0.6l-2.6 3.4h4q0.9 0 1.5-0.6t0.6-1.4z m7.9 5.4v6.7q0 0.3-0.2 0.5t-0.5 0.2h-2v8.8q0 0.8-0.6 1.4t-1.4 0.6h-23q-0.8 0-1.4-0.6t-0.6-1.4v-8.8h-2q-0.3 0-0.5-0.2t-0.2-0.5v-6.7q0-0.3 0.2-0.5t0.5-0.2h9.3q-2 0-3.4-1.4t-1.4-3.3 1.4-3.4 3.4-1.3q2.2 0 3.5 1.6l2.7 3.5 2.7-3.5q1.3-1.6 3.5-1.6 2 0 3.4 1.3t1.4 3.4-1.4 3.3-3.4 1.4h9.3q0.3 0 0.5 0.2t0.2 0.5z"></path></svg>