<?xml version="1.0"?><svg viewBox="0 0 40 40" xmlns="http://www.w3.org/2000/svg" height="40" width="40"><path d="m16.1 27.6q0 1.4-2 1.4-2.2 0-2.2-1.3 0-1.4 2-1.4 2.2 0 2.2 1.3z m-0.8-9.8q0 1.8-1.5 1.8-1.7 0-1.7-1.8 0-1.9 1.7-1.9 0.7 0 1.1 0.5t0.4 1.4z m3.5-1.6v-2.7q-1.6 0.7-2.8 0.7-1.1-0.7-2.3-0.7-1.9 0-3.1 1.2t-1.3 3.1q0 1 0.7 2.1t1.5 1.4v0.1q-0.8 0.4-0.8 1.8 0 1.1 0.9 1.6v0.1q-2.4 0.8-2.4 2.9 0 1 0.4 1.7t1.2 1 1.5 0.6 1.7 0.1q4.7 0 4.7-3.9 0-1.4-1-2.1t-2.7-1q-0.5-0.1-1-0.4t-0.6-0.8q0-1 1.1-1.1 1.6-0.4 2.5-1.5t1-2.8q0-0.6-0.2-1.1 0.8-0.2 1-0.3z m1.3 8.8h2.9q-0.1-0.5-0.1-1.7v-8.2q0-0.9 0.1-1.4h-2.9q0 0.5 0 1.5v8.2q0 1.1 0 1.6z m10.7-0.3v-2.6q-0.6 0.5-1.4 0.5-1.2 0-1.2-1.8v-4.7h1.1q0.2 0 0.6 0t0.6 0v-2.4h-2.3q0-1.8 0.1-2.2h-2.9q0 0.5 0 1.2v1h-1.2v2.4q0.7 0 0.8 0 0 0 0.2 0t0.2 0v0h0v4.6q0 0.8 0.1 1.4t0.2 1.2 0.5 1 0.9 0.6 1.4 0.3q1.4 0 2.3-0.5z m-7.5-14.9q0-0.8-0.5-1.4t-1.3-0.5-1.3 0.5-0.5 1.4q0 0.7 0.6 1.3t1.2 0.6 1.3-0.6 0.5-1.3z m12.9-1v20.2q0 2.5-1.8 4.3t-4.3 1.8h-20.2q-2.5 0-4.3-1.8t-1.8-4.3v-20.2q0-2.5 1.8-4.3t4.3-1.8h20.2q2.5 0 4.3 1.8t1.8 4.3z"></path></svg>