<?xml version="1.0"?><svg xmlns="http://www.w3.org/2000/svg" width="40" height="40" viewBox="0 0 40 40"><path d="m13.281428571428572 33.794285714285714q0-2.232857142857142-3.6828571428571433-2.232857142857142-3.5285714285714285 0-3.5285714285714285 2.3214285714285694 0 2.2542857142857144 3.84 2.2542857142857144 3.371428571428572 0 3.371428571428572-2.3428571428571416z m-1.3171428571428567-16.85142857142857q0-1.362857142857143-0.6714285714285708-2.2785714285714285t-1.9857142857142858-0.9142857142857146q-2.767142857142858 0-2.767142857142858 3.2357142857142875 0 3.0142857142857125 2.767142857142858 3.0142857142857125 2.6571428571428566 0 2.6571428571428566-3.0599999999999987z m6.0042857142857144-7.232857142857142v4.508571428571429q-0.8028571428571425 0.2671428571428578-1.7628571428571433 0.4914285714285711 0.35714285714285765 0.9600000000000009 0.35714285714285765 1.8757142857142846 0 2.8342857142857163-1.6285714285714281 4.832857142857144t-4.4 2.5114285714285707q-0.8914285714285715 0.17999999999999972-1.3285714285714292 0.6042857142857159t-0.43428571428571416 1.2942857142857136q0 0.6900000000000013 0.5028571428571436 1.1485714285714295t1.2942857142857136 0.7142857142857153 1.7528571428571436 0.4914285714285711 1.92 0.5685714285714276 1.751428571428571 0.8371428571428581 1.2942857142857136 1.428571428571427 0.5028571428571418 2.200000000000003q0 6.785714285714285-8.102857142857143 6.785714285714285-1.5399999999999991 0-2.9000000000000004-0.28000000000000114t-2.5914285714285716-0.914285714285711-1.9528571428571428-1.8314285714285745-0.7242857142857142-2.845714285714287q0-3.6828571428571415 4.062857142857143-5.022857142857141v-0.08999999999999986q-1.4957142857142856-0.9142857142857146-1.4957142857142856-2.814285714285713 0-2.4314285714285724 1.4057142857142857-3.057142857142857v-0.08999999999999986q-1.6071428571428572-0.5357142857142847-2.6671428571428573-2.421428571428571t-1.06-3.6942857142857157q0-3.104285714285714 2.12-5.168571428571429t5.242857142857142-2.064285714285715q2.1428571428571423 0 3.974285714285715 1.048571428571428 2.185714285714287 0 4.8657142857142865-1.0471428571428572z m7.100000000000001 19.665714285714287h-4.9571428571428555q0.08999999999999986-1.0042857142857144 0.08999999999999986-2.991428571428571v-13.595714285714289q0-2.0999999999999996-0.08857142857142719-2.8571428571428577h4.957142857142859q-0.09142857142857252 0.7371428571428567-0.09142857142857252 2.767142857142858v13.682857142857143q0 1.985714285714284 0.08999999999999986 2.991428571428571z m13.414285714285711-4.9571428571428555v4.377142857142857q-1.585714285714289 0.8714285714285701-3.885714285714286 0.8714285714285701-1.3828571428571408 0-2.385714285714286-0.4485714285714302t-1.5642857142857132-1.1142857142857139-0.8814285714285717-1.7428571428571438-0.4142857142857146-2.0528571428571425-0.08857142857142719-2.3000000000000007v-7.831428571428573h0.04285714285714448v-0.09142857142857075q-0.15428571428571303 0-0.4228571428571435-0.02285714285714313t-0.3999999999999986-0.02285714285714313q-0.47142857142857153 0-1.3185714285714276 0.13428571428571345v-4.242857142857144h2.1428571428571423v-1.6942857142857122q0-1.2057142857142855-0.13428571428571345-1.9857142857142858h5.068571428571431q-0.134285714285717 0.9142857142857146-0.134285714285717 3.6814285714285706h3.817142857142855v4.242857142857144q-0.33428571428571274 0-0.9714285714285751-0.04571428571428626t-0.9485714285714266-0.042857142857142705h-1.8971428571428604v8.145714285714286q0 2.924285714285716 1.942857142857143 2.924285714285716 1.3599999999999994 0 2.431428571428569-0.7385714285714293z m-12.857142857142858-21.137142857142855q0 1.2942857142857145-0.8714285714285701 2.265714285714286t-2.1428571428571423 0.9714285714285715q-1.2928571428571445 0-2.185714285714287-0.9714285714285715t-0.8928571428571423-2.265714285714286q0-1.3171428571428572 0.8814285714285717-2.3000000000000003t2.1999999999999993-0.9814285714285771q1.2928571428571445 0 2.152857142857144 0.9928571428571428t0.8599999999999994 2.2885714285714287z"></path></svg>