<?xml version="1.0"?><svg viewBox="0 0 40 40" xmlns="http://www.w3.org/2000/svg" height="40" width="40"><path d="m13.7 31.9q0-2.1-3.5-2.1-3.4 0-3.4 2.2 0 2.2 3.7 2.2 3.2 0 3.2-2.3z m-1.3-15.9q0-1.3-0.6-2.1t-1.9-0.9q-2.6 0-2.6 3.1 0 2.8 2.6 2.8 2.5 0 2.5-2.9z m5.7-6.8v4.2q-0.8 0.3-1.7 0.5 0.4 0.9 0.4 1.8 0 2.7-1.6 4.5t-4.1 2.4q-0.9 0.2-1.3 0.6t-0.4 1.2q0 0.7 0.5 1.1t1.2 0.7 1.6 0.4 1.9 0.6 1.6 0.8 1.2 1.3 0.5 2.1q0 6.4-7.6 6.4-1.5 0-2.8-0.3t-2.4-0.8-1.9-1.8-0.7-2.6q0-3.5 3.9-4.8v-0.1q-1.4-0.8-1.4-2.6 0-2.3 1.3-2.9v-0.1q-1.5-0.5-2.5-2.3t-1-3.5q0-2.9 2-4.9t4.9-1.9q2.1 0 3.8 1 2 0 4.6-1z m6.7 18.6h-4.7q0.1-1 0.1-2.9v-12.8q0-2-0.1-2.7h4.7q-0.1 0.7-0.1 2.6v12.9q0 1.9 0.1 2.9z m12.7-4.7v4.1q-1.5 0.8-3.7 0.8-1.3 0-2.3-0.4t-1.4-1-0.9-1.7-0.4-1.9 0-2.2v-7.4h0v-0.1q-0.2 0-0.4 0t-0.4 0q-0.4 0-1.2 0.1v-4h2v-1.6q0-1.2-0.1-1.9h4.8q-0.2 0.9-0.2 3.5h3.6v4q-0.3 0-0.9 0t-0.9-0.1h-1.8v7.7q0 2.8 1.9 2.8 1.3 0 2.3-0.7z m-12.2-20q0 1.2-0.8 2.1t-2 1q-1.3 0-2.1-1t-0.8-2.1q0-1.2 0.8-2.2t2.1-0.9q1.2 0 2 0.9t0.8 2.2z"></path></svg>