<?xml version="1.0"?><svg xmlns="http://www.w3.org/2000/svg" width="40" height="40" viewBox="0 0 40 40"><path d="m15.714285714285715 27.142857142857142q0 0.8928571428571423-0.27857142857142847 1.8285714285714292t-0.9600000000000009 1.6999999999999993-1.6185714285714283 0.7571428571428598-1.6185714285714283-0.7571428571428562-0.9600000000000009-1.6999999999999993-0.27857142857142847-1.8285714285714327 0.27857142857142847-1.8285714285714292 0.9600000000000009-1.6999999999999993 1.6185714285714283-0.7571428571428562 1.6185714285714283 0.7571428571428562 0.9600000000000009 1.6999999999999993 0.27857142857142847 1.8285714285714292z m14.285714285714285 0q0 0.8928571428571423-0.27857142857142847 1.8285714285714292t-0.9600000000000009 1.6999999999999993-1.6185714285714283 0.7571428571428598-1.6185714285714283-0.7571428571428562-0.9600000000000009-1.6999999999999993-0.27857142857142847-1.8285714285714327 0.27857142857142847-1.8285714285714292 0.9600000000000009-1.6999999999999993 1.6185714285714283-0.7571428571428562 1.6185714285714283 0.7571428571428562 0.9600000000000009 1.6999999999999993 0.27857142857142847 1.8285714285714292z m3.5714285714285694 0q0-2.678571428571427-1.5399999999999991-4.5528571428571425t-4.174285714285713-1.8757142857142846q-0.9142857142857146 0-4.352857142857143 0.46857142857142975-1.5857142857142854 0.24571428571428555-3.5042857142857144 0.24571428571428555t-3.5042857142857144-0.24571428571428555q-3.3928571428571423-0.46857142857142975-4.352857142857143-0.46857142857142975-2.6342857142857135 0-4.174285714285714 1.8757142857142846t-1.5399999999999991 4.5528571428571425q0 1.9642857142857153 0.7142857142857144 3.4257142857142853t1.8085714285714287 2.3000000000000007 2.7228571428571424 1.3385714285714272 3.1257142857142863 0.6571428571428584 3.3257142857142874 0.15714285714285836h3.75q1.8285714285714292 0 3.325714285714284-0.15714285714285836t3.12857142857143-0.6571428571428584 2.7214285714285715-1.3400000000000034 1.8057142857142878-2.299999999999997 0.7142857142857082-3.4242857142857126z m5-3.928571428571427q0 4.620000000000001-1.3614285714285685 7.388571428571428-0.8485714285714252 1.7185714285714262-2.354285714285716 2.968571428571426t-3.1485714285714295 1.9200000000000017-3.7942857142857136 1.0600000000000023-3.828571428571429 0.4914285714285711-3.7285714285714278 0.10000000000000142q-1.7399999999999984 0-3.168571428571429-0.06714285714285495t-3.2928571428571427-0.278571428571432-3.404285714285715-0.6714285714285708-3.057142857142857-1.1485714285714295-2.702857142857143-1.808571428571426-1.9185714285714273-2.568571428571431q-1.3857142857142857-2.7428571428571438-1.3857142857142857-7.385714285714286 0-5.291428571428572 3.037142857142857-8.842857142857143-0.6028571428571428-1.8285714285714292-0.6028571428571428-3.7928571428571427 0-2.59 1.1385714285714283-4.865714285714286 2.4085714285714284 0 4.240000000000001 0.8799999999999999t4.21857142857143 2.757142857142858q3.2857142857142847-0.7785714285714302 6.899999999999999-0.7785714285714302 3.3000000000000007 0 6.248571428571427 0.7142857142857135 2.3428571428571416-1.831428571428571 4.174285714285716-2.702857142857143t4.21857142857143-0.8714285714285719q1.1371428571428552 2.2785714285714285 1.1371428571428552 4.867142857142857 0 1.942857142857143-0.6028571428571396 3.75 3.038571428571423 3.571428571428571 3.038571428571423 8.885714285714288z"></path></svg>