<?xml version="1.0"?><svg viewBox="0 0 40 40" xmlns="http://www.w3.org/2000/svg" height="40" width="40"><path d="m15.9 25.7q0 0.8-0.2 1.7t-0.9 1.6-1.6 0.7-1.5-0.7-0.9-1.6-0.3-1.7 0.3-1.8 0.9-1.6 1.5-0.7 1.6 0.7 0.9 1.6 0.2 1.8z m13.6 0q0 0.8-0.3 1.7t-0.9 1.6-1.5 0.7-1.6-0.7-0.9-1.6-0.2-1.7 0.2-1.8 0.9-1.6 1.6-0.7 1.5 0.7 0.9 1.6 0.3 1.8z m3.3 0q0-2.6-1.4-4.4t-4-1.7q-0.8 0-4.1 0.4-1.5 0.3-3.3 0.3t-3.3-0.3q-3.2-0.4-4.1-0.4-2.5 0-4 1.7t-1.4 4.4q0 1.8 0.6 3.2t1.8 2.2 2.5 1.2 3 0.7 3.1 0.1h3.6q1.7 0 3.1-0.1t3-0.7 2.5-1.2 1.8-2.2 0.6-3.2z m4.8-3.8q0 4.4-1.3 7-0.8 1.6-2.3 2.8t-2.9 1.8-3.6 1-3.6 0.5-3.6 0.1q-1.6 0-3-0.1t-3.1-0.2-3.2-0.7-2.9-1-2.5-1.8-1.8-2.4q-1.4-2.6-1.4-7 0-5 2.9-8.3-0.6-1.7-0.6-3.6 0-2.4 1.1-4.6 2.3 0 4 0.8t4 2.6q3.1-0.7 6.5-0.7 3.2 0 5.9 0.7 2.3-1.8 4-2.6t4-0.8q1.1 2.2 1.1 4.6 0 1.8-0.6 3.5 2.9 3.4 2.9 8.4z"></path></svg>