<?xml version="1.0"?><svg viewBox="0 0 40 40" xmlns="http://www.w3.org/2000/svg" height="40" width="40"><path d="m12.1 28.5q-0.2 0.2-0.4 0-0.3-0.3-0.1-0.4 0.2-0.2 0.4 0 0.3 0.3 0.1 0.4z m-0.9-1.3q0.2 0.3 0 0.4-0.1 0.2-0.3-0.1t0-0.4q0.2-0.1 0.3 0.1z m-1.3-1.2q-0.1 0.1-0.2 0-0.2-0.1-0.2-0.2 0.1-0.1 0.3-0.1 0.2 0.1 0.1 0.3z m0.7 0.7q-0.1 0.1-0.3-0.1-0.2-0.2-0.1-0.3 0.1-0.1 0.3 0 0.2 0.3 0.1 0.4z m2.7 2.3q-0.1 0.3-0.4 0.2-0.3-0.1-0.3-0.3t0.4-0.2q0.4 0.1 0.3 0.3z m1.3 0.2q0 0.2-0.3 0.2-0.4 0-0.4-0.2 0-0.3 0.4-0.3 0.3 0 0.3 0.3z m1.3-0.3q0 0.3-0.3 0.3t-0.4-0.1 0.3-0.3q0.3-0.1 0.4 0.1z m20.3-20.1v20.2q0 2.5-1.8 4.3t-4.3 1.8h-4.7q-0.3 0-0.5 0t-0.4-0.1-0.4-0.3-0.1-0.6v-5.1q0-2-1.1-2.9 1.2-0.2 2.2-0.4t2-0.8 1.7-1.5 1.1-2.2 0.4-3.1q0-2.6-1.6-4.4 0.8-1.9-0.2-4.3-0.6-0.2-1.7 0.2t-1.9 1l-0.8 0.5q-2-0.6-4.1-0.6t-4.1 0.6q-0.3-0.3-0.8-0.6t-1.8-0.8-1.8-0.3q-1 2.4-0.2 4.3-1.6 1.8-1.6 4.4 0 1.8 0.4 3.1t1.1 2.2 1.7 1.5 2 0.8 2.1 0.4q-0.8 0.7-1 2.1-0.4 0.2-0.9 0.3t-1.2 0.1-1.4-0.4-1.2-1.3q-0.4-0.7-1-1.1t-1.1-0.5l-0.4-0.1q-0.4 0-0.6 0.1t-0.1 0.2 0.2 0.3 0.3 0.3l0.1 0.1q0.5 0.2 0.9 0.8t0.7 1.1l0.2 0.5q0.3 0.8 0.9 1.3t1.4 0.6 1.5 0.1 1.2 0l0.5-0.1q0 0.8 0 2.2t0 1.4q0 0.5-0.2 0.7t-0.5 0.3-0.7 0h-4.7q-2.5 0-4.3-1.8t-1.8-4.3v-20.2q0-2.5 1.8-4.3t4.3-1.8h20.2q2.5 0 4.3 1.8t1.8 4.3z"></path></svg>