<?xml version="1.0"?><svg xmlns="http://www.w3.org/2000/svg" width="40" height="40" viewBox="0 0 40 40"><path d="m20.111428571428572 29.062857142857144l7.814285714285713-10.557142857142857q0.35714285714285765-0.49285714285714377 0.5457142857142863-1.3185714285714276t-0.13428571428571345-1.895714285714286-1.37142857142857-1.7628571428571433q-0.894285714285715-0.581428571428571-1.8542857142857159-0.5714285714285712t-1.6400000000000006 0.39142857142857146-1.217142857142857 1.0042857142857144q-0.8028571428571425 0.8928571428571423-2.1428571428571423 0.8928571428571423-1.3171428571428585 0-2.120000000000001-0.8928571428571423-0.5357142857142847-0.6257142857142863-1.217142857142857-1.0042857142857144t-1.6400000000000006-0.39142857142857324-1.8757142857142863 0.5714285714285712q-1.025714285714285 0.6899999999999995-1.3485714285714288 1.7614285714285707t-0.13428571428571345 1.8971428571428568 0.5471428571428572 1.3185714285714276z m17.031428571428574-9.062857142857144q0 4.665714285714287-2.299999999999997 8.604285714285716t-6.237142857142857 6.238571428571426-8.605714285714292 2.3000000000000043-8.6-2.3000000000000043-6.242857142857143-6.238571428571426-2.295714285714286-8.604285714285716 2.3000000000000003-8.604285714285714 6.234285714285714-6.238571428571428 8.604285714285714-2.3000000000000003 8.605714285714285 2.3000000000000003 6.238571428571426 6.238571428571428 2.298571428571435 8.604285714285714z"></path></svg>