<?xml version="1.0"?><svg viewBox="0 0 40 40" xmlns="http://www.w3.org/2000/svg" height="40" width="40"><path d="m6.6 7.6q3.1-1.8 6.7-1.8t6.7 1.8q3.1 1.7 4.9 4.8t1.8 6.7q0 3.6-1.8 6.7t-4.9 4.8q-3 1.8-6.7 1.8t-6.7-1.8q-3-1.7-4.8-4.8t-1.8-6.7q0-3.6 1.8-6.7t4.8-4.8z m11.5 7.2q0 0-0.2 0.2t-0.2 0.1q0 0 0.1 0t0.1-0.2q0-0.1 0-0.2 0.1-0.1 0.4-0.2 0.2-0.1 0.9-0.2 0.6-0.2 0.9 0.2 0-0.1 0.2-0.3t0.2-0.2q0.1 0 0.3-0.1t0.2-0.1l0.1-0.4q-0.2 0.1-0.3-0.1t-0.2-0.3q0 0-0.1 0.1 0-0.1 0-0.1t-0.2 0q-0.2 0-0.2 0-0.2-0.1-0.3-0.1t-0.1-0.3q0-0.2-0.1-0.3 0-0.1-0.1-0.2t-0.2-0.2q0 0 0-0.1t-0.1-0.1q0 0-0.1-0.1t-0.1 0q0 0-0.1 0.1t-0.1 0.2q-0.1 0-0.1 0 0 0-0.1 0t-0.1 0q0 0 0 0.1t-0.1 0q-0.1 0.1-0.2 0.1t-0.1 0q0.2-0.1 0-0.2-0.2 0-0.3 0 0.1-0.1 0.1-0.2t-0.1-0.3h0q0 0-0.1-0.1t-0.3-0.2q-0.2 0-0.2-0.1-0.2 0-0.6-0.1t-0.6 0q-0.1 0.1-0.1 0.1t0.1 0.3q0.1 0.2 0.1 0.2 0 0.1-0.1 0.2t-0.1 0.2q0 0.2 0.2 0.3t0.2 0.4q-0.1 0.1-0.3 0.3t-0.3 0.2q-0.1 0.1 0 0.3t0.2 0.3q0 0 0 0t-0.1 0.1q0 0.1-0.1 0.1t-0.1 0.1l0 0q-0.2 0.1-0.4-0.1t-0.2-0.5q-0.1-0.4-0.3-0.5-0.4-0.1-0.5 0-0.1-0.2-0.7-0.4-0.4-0.2-1-0.1 0.1 0 0-0.2-0.1-0.3-0.3-0.3 0-0.1 0-0.3t0-0.2q0.1-0.2 0.2-0.4 0.1 0 0.2-0.1t0.1-0.3q0.1-0.1 0-0.1 0.7 0.1 0.9-0.2 0.1-0.1 0.2-0.3t0.2-0.3q0.1-0.1 0.2-0.1t0.3 0.1q0.2 0.1 0.2 0.1 0.3 0 0.3-0.2t-0.1-0.3q0.2 0 0-0.3-0.1-0.1-0.1-0.2-0.2 0-0.5 0.1-0.1 0.1 0.1 0.2-0.1-0.1-0.2 0.1t-0.3 0.3q-0.1 0.2-0.3 0 0-0.1-0.1-0.3t-0.1-0.2q-0.2 0-0.3 0.3 0-0.2-0.2-0.3t-0.4-0.1q0.3-0.3-0.2-0.5-0.1-0.1-0.3-0.1t-0.4 0.1q0 0.1 0 0.2t0 0.1q0.1 0.1 0.2 0.1t0.2 0.1q0.1 0 0.2 0 0.2 0.2 0.1 0.3 0 0-0.1 0t-0.2 0.1q-0.1 0-0.1 0.1-0.1 0 0 0.2t-0.1 0.3q-0.1-0.1-0.1-0.3t-0.2-0.3q0.2 0.1-0.4 0.1l-0.2 0q0 0-0.2 0t-0.4 0q-0.1 0-0.2-0.1-0.1-0.2 0-0.4 0 0 0 0 0-0.1-0.2-0.2t-0.1-0.1q-0.8 0.2-1.7 0.7 0.1 0 0.3 0 0-0.1 0.2-0.1t0.2-0.1q0.5-0.3 0.7-0.2l0.1 0q0.2 0.2 0.3 0.4-0.1-0.1-0.5 0-0.4 0.1-0.4 0.2 0.1 0.2 0.1 0.3-0.1-0.1-0.2-0.2t-0.3-0.2q-0.1 0-0.2-0.1-0.3 0-0.4 0.1-2.5 1.3-4.1 3.8 0.1 0.1 0.2 0.1 0.1 0.1 0.1 0.2t0.1 0.2q0 0 0.2-0.1 0.1 0.2 0 0.4 0 0 0.8 0.4 0.3 0.3 0.3 0.4 0.1 0.2-0.1 0.3 0 0-0.2-0.1t-0.1-0.1q-0.1 0.1 0 0.3t0.1 0.2q-0.1 0-0.1 0.3t-0.1 0.6q0 0.4 0 0.4l0.1 0.1q-0.1 0.2 0.1 0.6t0.3 0.3q-0.2 0 0.4 0.7 0.1 0.2 0.1 0.2 0.1 0 0.2 0.1t0.3 0.2q0.1 0.1 0.2 0.2 0 0.1 0.1 0.4t0.3 0.4q-0.1 0.1 0.1 0.3t0.2 0.4q0 0 0 0t-0.1 0.1q0.1 0.1 0.3 0.2t0.3 0.2q0 0.1 0 0.2t0.1 0.2q0 0.1 0.1 0 0-0.3-0.4-1-0.3-0.5-0.3-0.6-0.1 0-0.1-0.2t-0.1-0.3q0 0 0.1 0.1t0.2 0q0 0 0.1 0.1t0 0q0 0.2 0.1 0.3t0.2 0.4q0.1 0.1 0.3 0.3t0.2 0.2q0.1 0.1 0.2 0.4t0 0.2q0.2 0 0.4 0.2t0.3 0.3q0 0.1 0.1 0.5t0.1 0.4q0 0.1 0.1 0.2t0.2 0.2l0.3 0.1q0.2 0.1 0.3 0.1 0 0.1 0.3 0.2t0.3 0.2q0.2 0.1 0.3 0.1t0.3-0.1q0.1 0 0.2 0 0.3-0.1 0.5 0.2t0.4 0.4q0.6 0.3 0.9 0.2 0 0 0 0.1t0.2 0.3q0.1 0.2 0.1 0.3t0.1 0.1q0.1 0.1 0.3 0.3t0.4 0.2q0.1-0.1 0.1-0.1-0.1 0.1 0.1 0.3t0.3 0.2q0.3-0.1 0.3-0.6-0.6 0.3-0.9-0.3 0 0 0-0.1t-0.1-0.1q0-0.1-0.1-0.2t0-0.1q0.1-0.1 0.1-0.1 0.2 0 0.2 0t0-0.2q-0.1-0.2-0.1-0.3 0-0.1-0.2-0.3t-0.2-0.3q-0.1 0.2-0.3 0.2t-0.3-0.2q0 0 0 0.1t0 0.1q-0.2 0-0.3 0 0.1 0 0.1-0.3t0-0.4q0.1-0.1 0.1-0.2t0.2-0.2q0-0.2 0-0.3t0-0.1q-0.1-0.1-0.3-0.1-0.4 0-0.5 0.4 0 0 0 0.2t-0.1 0.2q-0.1 0-0.2 0.1-0.1 0-0.4 0t-0.4-0.1q-0.3-0.1-0.4-0.5t-0.2-0.6q0-0.2 0.1-0.5t0-0.4q0-0.2-0.1-0.4 0.1-0.1 0.2-0.2t0.1-0.2q0.1 0 0.1 0t0.1 0q0 0 0.1 0t0-0.1q0-0.1 0-0.1-0.1 0-0.1 0 0.1 0 0.5-0.1t0.5 0.1q0.2 0.1 0.3-0.1 0 0 0-0.1t0-0.3q0.1 0.5 0.5 0.2 0 0 0.3 0.1t0.3 0q0 0.1 0.1 0.1t0.1 0.1q0 0 0.1 0t0.1-0.1q0.2 0.2 0.2 0.4 0.2 0.7 0.4 0.8 0.1 0 0.1 0t0.1-0.2q0-0.1 0-0.2t0-0.2l0-0.1v-0.4l0-0.1q-0.3-0.1-0.4-0.2t0.1-0.3q0.1-0.2 0.2-0.4 0 0 0.2 0t0.2-0.1q0.2-0.1 0.3-0.2 0.3-0.3 0.2-0.6 0.1 0 0.2-0.1 0 0-0.1-0.1t-0.1-0.1q-0.1 0-0.1 0 0.2-0.1 0-0.3 0.1 0 0.2-0.2t0.1-0.1q0.2 0.2 0.4 0 0.1-0.1 0-0.3 0.1-0.1 0.3-0.2t0.4-0.1q0.1 0 0.1-0.1t0-0.2q0-0.1 0.1-0.2 0-0.1 0.2-0.1t0.3-0.1l0.3-0.2q0-0.1 0-0.1 0.3 0 0.5-0.2 0.2-0.2-0.1-0.3 0-0.1-0.1-0.2t-0.2-0.1q0 0 0.2 0t0.2 0q0.2-0.2-0.2-0.3-0.3-0.1-0.7 0.2z m-2.8 15.2q3.5-0.6 6.1-3.2-0.1-0.1-0.3-0.1t-0.2-0.1q-0.3-0.1-0.4-0.1 0-0.1 0-0.3t-0.2-0.1q-0.1-0.1-0.2-0.1t-0.2-0.2q0 0-0.1-0.1t-0.1-0.1q-0.1 0-0.2 0t-0.1-0.1q-0.1 0-0.2 0l0 0.1q-0.1 0-0.1 0t-0.1 0.1q-0.1 0-0.1 0t0 0q-0.4-0.2-0.6-0.3-0.1-0.1-0.2-0.1t-0.2-0.2q-0.1 0-0.2 0t-0.2 0.1q-0.1 0.1-0.1 0.3t0 0.2q-0.1-0.1 0-0.3t0-0.3q0-0.1-0.2-0.1t-0.2 0.1q0 0.1-0.2 0.2t-0.1 0.1q-0.1 0-0.2 0.1t-0.1 0.1q-0.1 0.1-0.1 0.2t-0.1 0.2q0-0.1-0.2-0.1t-0.2-0.1q0.1 0.2 0.1 0.6t0.1 0.6q0.1 0.6-0.2 0.9-0.5 0.4-0.5 0.7-0.1 0.4 0.2 0.4 0 0.1-0.2 0.4t-0.1 0.4q0 0.1 0.1 0.2z"></path></svg>