<?xml version="1.0"?><svg xmlns="http://www.w3.org/2000/svg" width="40" height="40" viewBox="0 0 40 40"><path d="m20 2.857142857142857q4.665714285714287 0 8.604285714285716 2.3000000000000003t6.238571428571426 6.2371428571428575 2.3000000000000043 8.605714285714285-2.299999999999997 8.602857142857143-6.238571428571429 6.238571428571429-8.60428571428572 2.297142857142859-8.604285714285714-2.299999999999997-6.238571428571428-6.237142857142857-2.3000000000000003-8.601428571428578 2.3000000000000003-8.605714285714287 6.238571428571428-6.237142857142856 8.604285714285714-2.3000000000000003z m6.114285714285714 11.62857142857143q-0.04285714285714448 0.024285714285714022-0.21000000000000085 0.21428571428571352t-0.3000000000000007 0.21000000000000085q0.04285714285714448 0 0.10000000000000142-0.1114285714285721t0.10999999999999943-0.24714285714285644 0.07857142857142918-0.15714285714285658q0.13428571428571345-0.1542857142857148 0.4914285714285711-0.33285714285714363 0.3114285714285714-0.13428571428571345 1.1571428571428584-0.2671428571428578 0.7600000000000016-0.17857142857142883 1.1400000000000006 0.24571428571428555-0.04285714285714448-0.04571428571428626 0.21142857142856997-0.2914285714285718t0.32428571428571473-0.2671428571428578q0.0671428571428585-0.04571428571428626 0.33428571428571274-0.09999999999999964t0.33428571428571274-0.16857142857142904l0.04571428571428626-0.4914285714285711q-0.2671428571428578 0.02285714285714313-0.39000000000000057-0.15714285714285658t-0.1471428571428568-0.4671428571428571q0 0.04571428571428626-0.13428571428571345 0.17999999999999972 0-0.15714285714285658-0.10000000000000142-0.17857142857142883t-0.25714285714285623 0.024285714285714022-0.1999999999999993 0.02285714285714313q-0.2242857142857133-0.06714285714285673-0.3357142857142854-0.16714285714285637t-0.17857142857142705-0.36857142857142833-0.08999999999999986-0.3342857142857145q-0.04285714285714448-0.1114285714285721-0.21142857142856997-0.23428571428571487t-0.21142857142856997-0.23428571428571487q-0.022857142857141355-0.042857142857142705-0.05714285714285694-0.12285714285714278t-0.06571428571428584-0.1457142857142859-0.08999999999999986-0.12285714285714278-0.12285714285714278-0.05714285714285694-0.15714285714285836 0.11428571428571388-0.16714285714285637 0.22142857142857153-0.10000000000000142 0.1114285714285721q-0.0671428571428585-0.042857142857142705-0.13428571428571345-0.03285714285714292t-0.10000000000000142 0.02285714285714313-0.10000000000000142 0.06714285714285673-0.11428571428571388 0.07857142857142918q-0.06571428571428584 0.042857142857142705-0.1885714285714286 0.06714285714285673t-0.19000000000000128 0.042857142857142705q0.33428571428571274-0.10999999999999943-0.022857142857141355-0.242857142857142-0.2242857142857133-0.09142857142857075-0.35714285714285765-0.0685714285714294 0.1999999999999993-0.09142857142857075 0.16571428571428726-0.2685714285714287t-0.19000000000000128-0.31428571428571495h0.1114285714285721q-0.02142857142857224-0.08857142857142897-0.1885714285714286-0.1885714285714286t-0.39000000000000057-0.1899999999999995-0.28999999999999915-0.13428571428571345q-0.17857142857142705-0.1114285714285721-0.7571428571428562-0.21142857142857174t-0.7385714285714293-0.011428571428570677q-0.1114285714285721 0.13428571428571345-0.10000000000000142 0.23428571428571487t0.08999999999999986 0.31428571428571495 0.07857142857142918 0.27857142857142847q0.022857142857141355 0.13428571428571345-0.12285714285714278 0.28999999999999915t-0.14571428571428413 0.2671428571428578q0 0.15714285714285658 0.31428571428571317 0.3457142857142852t0.22142857142857153 0.4800000000000004q-0.0671428571428585 0.17857142857142883-0.35714285714285765 0.35714285714285765t-0.35714285714285765 0.2671428571428578q-0.1114285714285721 0.17857142857142883-0.03285714285714292 0.4142857142857146t0.23428571428571487 0.36714285714285744q0.04571428571428626 0.042857142857142705 0.034285714285715585 0.08999999999999986t-0.07857142857142918 0.09999999999999964-0.12428571428571544 0.08999999999999986-0.14571428571428413 0.07857142857142918l-0.06571428571428584 0.042857142857142705q-0.24571428571428555 0.11428571428571388-0.4571428571428555-0.13285714285714256t-0.3000000000000007-0.5800000000000001q-0.15714285714285836-0.5600000000000005-0.35714285714285765-0.6714285714285708-0.514285714285716-0.17857142857142883-0.6485714285714295 0.02285714285714313-0.1114285714285721-0.2900000000000009-0.9142857142857146-0.5800000000000001-0.5599999999999987-0.1999999999999993-1.2957142857142863-0.08999999999999986 0.13428571428571345-0.02285714285714313 0-0.3342857142857145-0.15714285714285836-0.3342857142857145-0.4242857142857126-0.2671428571428578 0.0671428571428585-0.13428571428571345 0.08999999999999986-0.39000000000000057t0.02142857142857224-0.3000000000000007q0.0671428571428585-0.2914285714285718 0.2671428571428578-0.5142857142857142 0.022857142857141355-0.02285714285714313 0.15714285714285836-0.1899999999999995t0.21000000000000085-0.3000000000000007 0.010000000000001563-0.13571428571428612q0.7814285714285703 0.08999999999999986 1.1142857142857139-0.24571428571428555 0.11428571428571388-0.1114285714285721 0.25714285714285623-0.3800000000000008t0.235714285714284-0.3799999999999999q0.1999999999999993-0.13285714285714256 0.31428571428571317-0.121428571428571t0.32285714285714207 0.12285714285714278 0.32428571428571473 0.11428571428571388q0.31428571428571317 0.02142857142857224 0.345714285714287-0.24714285714285733t-0.16714285714285637-0.4471428571428575q0.2671428571428578 0.02285714285714313 0.0671428571428585-0.3799999999999999-0.1114285714285721-0.15714285714285747-0.17857142857142705-0.20000000000000018-0.2671428571428578-0.09142857142857164-0.6028571428571432 0.11000000000000032-0.17857142857142705 0.08999999999999986 0.04285714285714448 0.17857142857142883-0.02142857142857224-0.02285714285714313-0.21000000000000085 0.234285714285714t-0.36857142857142833 0.3899999999999997-0.35714285714285765-0.11142857142857121q-0.022857142857141355-0.024285714285714022-0.12285714285714278-0.3028571428571425t-0.2142857142857153-0.2999999999999998q-0.17714285714285793 0-0.35714285714285765 0.33285714285714274 0.06857142857142762-0.17714285714285705-0.24285714285714377-0.33285714285714274t-0.5371428571428574-0.17857142857142883q0.4242857142857126-0.2671428571428569-0.17857142857142705-0.6028571428571432-0.15714285714285836-0.08999999999999986-0.4571428571428555-0.11142857142857121t-0.43714285714285595 0.08999999999999986q-0.1114285714285721 0.15714285714285747-0.12285714285714278 0.2571428571428571t0.1114285714285721 0.17857142857142883 0.23428571428571487 0.12285714285714278 0.25714285714285623 0.08999999999999986 0.19000000000000128 0.06571428571428584q0.31428571428571317 0.22285714285714242 0.17857142857142705 0.31428571428571406-0.04285714285714448 0.021428571428571352-0.19000000000000128 0.0771428571428574t-0.25714285714285623 0.09999999999999964-0.13428571428571345 0.08999999999999986q-0.06571428571428584 0.08999999999999986 0 0.31428571428571406t-0.04285714285714448 0.3114285714285723q-0.1114285714285721-0.10999999999999943-0.1999999999999993-0.3885714285714288t-0.15714285714285836-0.36857142857142833q0.15714285714285836 0.20000000000000018-0.5571428571428569 0.13428571428571434l-0.2242857142857133-0.02285714285714313q-0.08999999999999986 0-0.35714285714285765 0.042857142857142705t-0.4571428571428555 0.024285714285714022-0.3000000000000007-0.17857142857142883q-0.09142857142857075-0.17857142857142883 0-0.4471428571428575 0.02142857142857224-0.08999999999999986 0.08857142857142897-0.042857142857142705-0.08999999999999986-0.0685714285714285-0.24571428571428555-0.2142857142857144t-0.22285714285714242-0.1885714285714286q-1.0285714285714285 0.3342857142857145-2.0999999999999996 0.9142857142857146 0.13571428571428612 0.024285714285714022 0.2685714285714287-0.021428571428571352 0.1114285714285721-0.042857142857142705 0.28999999999999915-0.1457142857142859t0.22285714285714242-0.12285714285714278q0.757142857142858-0.31428571428571406 0.9371428571428577-0.15714285714285747l0.1114285714285721-0.11000000000000032q0.31428571428571495 0.35714285714285676 0.4471428571428575 0.5571428571428569-0.1542857142857148-0.08857142857142897-0.668571428571429-0.021428571428571352-0.4471428571428575 0.13428571428571434-0.4914285714285711 0.2671428571428569 0.15714285714285658 0.2671428571428569 0.1114285714285721 0.40000000000000036-0.08999999999999986-0.06571428571428584-0.25714285714285623-0.22142857142857153t-0.3171428571428674-0.24571428571428555-0.3357142857142854-0.11142857142857121q-0.35714285714285765 0-0.4914285714285711 0.02285714285714313-3.257142857142858 1.7857142857142856-5.242857142857143 4.957142857142858 0.15428571428571392 0.1542857142857148 0.265714285714286 0.17714285714285793 0.08999999999999986 0.02285714285714313 0.1114285714285721 0.1999999999999993t0.05714285714285694 0.24714285714285644 0.25714285714285623-0.06714285714285673q0.1999999999999993 0.17857142857142883 0.06571428571428584 0.4242857142857144 0.02285714285714313-0.02285714285714313 0.9828571428571422 0.6028571428571432 0.4242857142857144 0.3800000000000008 0.468571428571428 0.468571428571428 0.06714285714285673 0.24571428571428555-0.22285714285714242 0.40000000000000036-0.02285714285714313-0.042857142857142705-0.1999999999999993-0.1999999999999993t-0.20285714285714285-0.08999999999999986q-0.06714285714285673 0.1114285714285721 0.011428571428570677 0.4142857142857146t0.23428571428571487 0.2771428571428576q-0.15714285714285658 0-0.21142857142857174 0.35714285714285765t-0.05714285714285694 0.7928571428571445-0.02142857142857224 0.5257142857142867l0.042857142857142705 0.022857142857141355q-0.06571428571428584 0.2671428571428578 0.12428571428571367 0.7714285714285722t0.4800000000000004 0.43428571428571416q-0.28999999999999915 0.0671428571428585 0.4471428571428575 0.9600000000000009 0.13428571428571345 0.17857142857142705 0.17857142857142883 0.1999999999999993 0.06714285714285673 0.04571428571428626 0.2671428571428578 0.16857142857142904t0.3342857142857145 0.2228571428571442 0.22142857142857153 0.23428571428571487q0.08999999999999986 0.1114285714285721 0.22285714285714242 0.5028571428571418t0.31428571428571495 0.524285714285714q-0.042857142857142705 0.13428571428571345 0.21142857142857174 0.4471428571428575t0.23428571428571487 0.514285714285716q-0.02285714285714313 0-0.05714285714285694 0.02142857142857224t-0.05428571428571516 0.022857142857141355q0.06714285714285673 0.15714285714285836 0.3457142857142852 0.31428571428571317t0.3457142857142852 0.28999999999999915q0.02285714285714313 0.0671428571428585 0.042857142857142705 0.2228571428571442t0.0685714285714294 0.24285714285714377 0.17857142857142883 0.04571428571428626q0.04571428571428626-0.4471428571428575-0.5342857142857138-1.3857142857142861-0.3342857142857145-0.5571428571428569-0.3800000000000008-0.6457142857142841-0.06714285714285673-0.1114285714285721-0.12285714285714278-0.345714285714287t-0.09999999999999964-0.32428571428571473q0.042857142857142705 0 0.13428571428571345 0.034285714285715585t0.1899999999999995 0.07857142857142918 0.16857142857142904 0.08857142857142719 0.042857142857142705 0.0671428571428585q-0.06571428571428584 0.15428571428571303 0.04571428571428626 0.3885714285714279t0.2671428571428578 0.4142857142857146 0.3800000000000008 0.4228571428571435 0.2671428571428578 0.28999999999999915q0.13428571428571345 0.13571428571428612 0.31428571428571495 0.43714285714285595t0 0.3000000000000007q0.1999999999999993 0 0.4457142857142866 0.2242857142857133t0.3800000000000008 0.4471428571428575q0.1114285714285721 0.17857142857142705 0.17857142857142883 0.5800000000000018t0.1114285714285721 0.5357142857142847q0.04571428571428626 0.15714285714285836 0.19142857142857217 0.3000000000000007t0.27857142857142847 0.2142857142857153l0.3571428571428559 0.17714285714285793 0.28857142857143003 0.15714285714285836q0.1114285714285721 0.04285714285714448 0.4142857142857146 0.23428571428571487t0.47857142857142776 0.25714285714285623q0.2228571428571442 0.08999999999999986 0.35714285714285765 0.08999999999999986t0.32428571428571473-0.05714285714285694 0.3000000000000007-0.07714285714285651q0.3357142857142854-0.04285714285714448 0.6485714285714295 0.33428571428571274t0.46857142857142975 0.46857142857142975q0.8028571428571425 0.4242857142857126 1.2285714285714278 0.24571428571428555-0.04571428571428626 0.022857142857141355 0.010000000000001563 0.16714285714285637t0.17857142857142705 0.345714285714287 0.1999999999999993 0.32428571428571473 0.12428571428571544 0.19000000000000128q0.1114285714285721 0.13428571428571345 0.3999999999999986 0.33428571428571274t0.4028571428571439 0.33428571428571274q0.13428571428571345-0.08999999999999986 0.15714285714285836-0.1999999999999993-0.06857142857142762 0.17714285714285793 0.15428571428571303 0.44571428571428484t0.3999999999999986 0.2228571428571442q0.31428571428571317-0.0671428571428585 0.31428571428571317-0.7142857142857153-0.6914285714285704 0.33428571428571274-1.0942857142857143-0.3999999999999986 0-0.024285714285714022-0.05714285714285694-0.12428571428571544t-0.08999999999999986-0.19000000000000128-0.05714285714285694-0.19000000000000128 0-0.16857142857142904 0.11428571428571388-0.0671428571428585q0.1999999999999993 0 0.22142857142857153-0.07857142857142918t-0.04285714285714448-0.27857142857142847-0.09142857142857252-0.28999999999999915q-0.022857142857141355-0.17857142857142705-0.24571428571428555-0.4471428571428575t-0.2671428571428578-0.3357142857142854q-0.11428571428571388 0.1999999999999993-0.35714285714285765 0.17857142857142705t-0.35714285714285765-0.1999999999999993q0 0.02142857142857224-0.034285714285715585 0.12142857142857011t-0.03285714285714292 0.14571428571428413q-0.28999999999999915 0-0.33428571428571274-0.022857142857141355 0.02142857142857224-0.06571428571428584 0.05428571428571516-0.3885714285714279t0.07857142857142918-0.5028571428571418q0.022857142857141355-0.08999999999999986 0.12285714285714278-0.2671428571428578t0.16571428571428726-0.3257142857142874 0.08999999999999986-0.27857142857142847-0.10000000000000142-0.21142857142856997-0.3914285714285697-0.05714285714285694q-0.4242857142857126 0.022857142857141355-0.5799999999999983 0.4471428571428575-0.022857142857141355 0.0671428571428585-0.0671428571428585 0.23428571428571487t-0.1114285714285721 0.25714285714285623-0.1999999999999993 0.15714285714285836q-0.15714285714285836 0.06571428571428584-0.5371428571428574 0.04285714285714448t-0.5371428571428574-0.1114285714285721q-0.28999999999999915-0.17999999999999972-0.5028571428571418-0.6485714285714295t-0.21142857142856997-0.8257142857142838q0-0.2228571428571442 0.05714285714285694-0.5914285714285725t0.06571428571428584-0.5571428571428569-0.12285714285714278-0.548571428571428q0.0671428571428585-0.04285714285714448 0.1999999999999993-0.21142857142856997t0.2242857142857133-0.23428571428571487q0.04571428571428626-0.022857142857141355 0.10000000000000142-0.03285714285714292t0.10000000000000142 0 0.09142857142857252-0.03285714285714292 0.0671428571428585-0.13428571428571345q-0.02142857142857224-0.022857142857141355-0.08857142857142719-0.0671428571428585-0.0671428571428585-0.06571428571428584-0.08999999999999986-0.06571428571428584 0.15714285714285836 0.0671428571428585 0.6357142857142861-0.03285714285714292t0.6142857142857139 0.034285714285715585q0.33428571428571274 0.24571428571428555 0.4914285714285711-0.04285714285714448 0-0.024285714285714022-0.05714285714285694-0.2142857142857153t-0.010000000000001563-0.3000000000000007q0.1114285714285721 0.6028571428571432 0.6471428571428568 0.1999999999999993 0.0671428571428585 0.06857142857142762 0.345714285714287 0.11428571428571388t0.39000000000000057 0.10999999999999943q0.0671428571428585 0.04571428571428626 0.15714285714285836 0.12428571428571544t0.12142857142857011 0.10000000000000142 0.1114285714285721-0.011428571428570677 0.19000000000000128-0.1471428571428568q0.2242857142857133 0.31428571428571317 0.2685714285714269 0.5357142857142847 0.24571428571428555 0.8928571428571423 0.4242857142857126 0.9828571428571422 0.15714285714285836 0.0671428571428585 0.24571428571428555 0.04285714285714448t0.10000000000000142-0.21000000000000085 0-0.31428571428571317-0.03285714285714292-0.2771428571428558l-0.022857142857141355-0.17999999999999972v-0.3999999999999986l-0.022857142857141355-0.17999999999999972q-0.33428571428571274-0.0671428571428585-0.4142857142857146-0.2671428571428578t0.034285714285715585-0.4114285714285728 0.33428571428571274-0.4142857142857146q0.022857142857141355-0.02142857142857224 0.17857142857142705-0.07714285714285651t0.345714285714287-0.14571428571428413 0.27857142857142847-0.17857142857142705q0.46857142857142975-0.4228571428571435 0.33428571428571274-0.7800000000000011 0.15714285714285836 0 0.24571428571428555-0.1999999999999993-0.022857142857141355 0-0.1114285714285721-0.06857142857142762t-0.16714285714285637-0.1114285714285721-0.10000000000000142-0.04285714285714448q0.1999999999999993-0.11428571428571388 0.04285714285714448-0.35714285714285765 0.11428571428571388-0.06857142857142762 0.16857142857142904-0.24714285714285822t0.16857142857142904-0.2228571428571442q0.1999999999999993 0.2657142857142851 0.46857142857142975 0.04285714285714448 0.15714285714285836-0.17857142857142705 0.022857142857141355-0.35714285714285765 0.1114285714285721-0.15714285714285836 0.4571428571428555-0.23428571428571487t0.4142857142857146-0.21142857142856997q0.15428571428571303 0.04285714285714448 0.17714285714285793-0.04285714285714448t0.022857142857141355-0.2685714285714269 0.0671428571428585-0.2671428571428578q0.08857142857142719-0.1114285714285721 0.33285714285714363-0.1999999999999993t0.28999999999999915-0.11428571428571388l0.379999999999999-0.24285714285714377q0.0671428571428585-0.09142857142857075 0-0.09142857142857075 0.3999999999999986 0.042857142857142705 0.6914285714285704-0.24714285714285644 0.2228571428571442-0.24571428571428555-0.13428571428571345-0.4471428571428575 0.0671428571428585-0.13428571428571345-0.0671428571428585-0.21142857142857174t-0.33428571428571274-0.12285714285714278q0.06857142857142762-0.02285714285714313 0.25714285714285623-0.011428571428570677t0.235714285714284-0.03285714285714292q0.33428571428571274-0.2242857142857151-0.15714285714285836-0.35714285714285765-0.3785714285714299-0.11428571428571388-0.9571428571428555 0.2657142857142851z m-3.6371428571428552 19.57714285714286q4.600000000000001-0.8028571428571425 7.834285714285713-4.21857142857143-0.0671428571428585-0.06571428571428584-0.27857142857142847-0.10000000000000142t-0.27857142857142847-0.07714285714285651q-0.3999999999999986-0.15714285714285836-0.5357142857142847-0.17857142857142705 0.022857142857141355-0.15428571428571303-0.05714285714285694-0.28857142857143003t-0.17714285714285793-0.1999999999999993-0.28000000000000114-0.17999999999999972-0.24571428571428555-0.15714285714285836q-0.04285714285714448-0.04285714285714448-0.15714285714285836-0.13285714285714434t-0.15428571428571303-0.12428571428571544-0.16714285714285637-0.10000000000000142-0.19000000000000128-0.04285714285714448-0.2228571428571442 0.02142857142857224l-0.0671428571428585 0.022857142857141355q-0.06571428571428584 0.022857142857141355-0.12142857142857011 0.05714285714285694t-0.12285714285714278 0.06571428571428584-0.09142857142857252 0.0671428571428585 0 0.05714285714285694q-0.46857142857142975-0.38142857142857167-0.8028571428571425-0.49285714285714377-0.1114285714285721-0.022857142857141355-0.24571428571428555-0.12285714285714278t-0.23428571428571487-0.15714285714285836-0.2228571428571442-0.03142857142857025-0.25714285714285623 0.15714285714285836q-0.1114285714285721 0.10999999999999943-0.13428571428571345 0.33285714285714363t-0.04285714285714448 0.28999999999999915q-0.15714285714285836-0.1114285714285721 0-0.39000000000000057t0.04285714285714448-0.4142857142857146q-0.0671428571428585-0.13285714285714434-0.23428571428571487-0.10000000000000142t-0.2671428571428578 0.10000000000000142-0.25714285714285623 0.1914285714285704-0.1999999999999993 0.1471428571428568-0.1914285714285704 0.12285714285714278-0.19000000000000128 0.16571428571428726q-0.0671428571428585 0.08999999999999986-0.13428571428571345 0.2671428571428578t-0.1114285714285721 0.24571428571428555q-0.04285714285714448-0.08999999999999986-0.25714285714285623-0.14571428571428413t-0.21142857142856997-0.12285714285714278q0.04285714285714448 0.2228571428571442 0.08999999999999986 0.7814285714285703t0.1114285714285721 0.8485714285714288q0.15714285714285836 0.6914285714285704-0.2657142857142851 1.071428571428573-0.6028571428571432 0.5571428571428569-0.6471428571428568 0.8928571428571459-0.08857142857142719 0.4914285714285711 0.2685714285714269 0.5799999999999983 0 0.15428571428571303-0.17857142857142705 0.4571428571428555t-0.15714285714285836 0.47857142857142776q0 0.134285714285717 0.04571428571428626 0.3571428571428541z"></path></svg>