<?xml version="1.0"?><svg xmlns="http://www.w3.org/2000/svg" width="40" height="40" viewBox="0 0 40 40"><path d="m13.437142857142858 13.102857142857143q0.4242857142857144 1.361428571428572 0.6914285714285722 2.7571428571428562t0.3800000000000008 3.1571428571428584-0.31428571428571495 3.5500000000000007-1.3828571428571426 3.2371428571428567q-0.46857142857142975-1.8085714285714296-1.4971428571428582-3.5042857142857144t-2.128571428571428-2.8342857142857163-2.2114285714285717-2.0199999999999996-1.7528571428571436-1.282857142857143-0.7371428571428575-0.4242857142857144q-1.3857142857142857-0.757142857142858-1.8200000000000003-2.232857142857142t0.3242857142857143-2.8571428571428577 2.254285714285715-1.8199999999999985 2.881428571428571 0.3257142857142856q3.08 1.8528571428571432 5.314285714285715 3.951428571428572z m7.254285714285716-6.405714285714286q0.24571428571428555 0.5571428571428569 0.4571428571428555 1.0285714285714285t0.8142857142857132 2.2428571428571438 0.9485714285714302 3.3571428571428577 0.5685714285714276 4.008571428571429 0 4.585714285714285-1.0599999999999987 4.677142857142858-2.354285714285716 4.654285714285717q-1.1371428571428552 1.605714285714285-3.0799999999999983 1.605714285714285-1.2057142857142864 0-2.185714285714287-0.6899999999999977-1.274285714285714-0.8928571428571423-1.5428571428571427-2.4328571428571415t0.6285714285714281-2.8342857142857163q1.338571428571429-1.8971428571428568 1.807142857142857-4.352857142857143t0.28999999999999915-4.452857142857145-0.7142857142857135-4.0285714285714285-0.8714285714285719-2.8571428571428577-0.4900000000000002-1.1600000000000001q-0.6928571428571413-1.4057142857142892-0.1899999999999995-2.891428571428575t1.9085714285714293-2.1742857142857144q0.757142857142858-0.3799999999999999 1.6742857142857144-0.3799999999999999 1.048571428571428 0 1.975714285714286 0.5571428571428569t1.4171428571428564 1.5428571428571427z m7.165714285714284 14.931428571428572q-0.379999999999999 3.571428571428573-1.6071428571428577 6.942857142857143-0.379999999999999-2.9242857142857126-1.4057142857142857-5.491428571428571 0.5599999999999987-3.885714285714286-0.10999999999999943-8.057142857142857-0.6028571428571432-3.9742857142857133-2.1000000000000014-7.635714285714285 2.5457142857142863 2.0100000000000007 4.734285714285715 4.711428571428573 0.1999999999999993 0.8257142857142856 0.33428571428571274 1.7857142857142865 0.581428571428571 3.9957142857142873 0.15714285714285836 7.745714285714284z m6.071428571428573-19.485714285714288q0.20000000000000284 0.38000000000000034 0.5242857142857176 1.104285714285715t0.971428571428568 2.6228571428571437 1.1285714285714263 3.9714285714285715 0.7571428571428598 5.078571428571429 0.11142857142856855 6.0042857142857144-1.048571428571428 6.6971428571428575-2.509999999999998 7.221428571428568q-0.4914285714285711 1.0714285714285694-1.471428571428568 1.6857142857142833t-2.12142857142857 0.6142857142857139q-0.8714285714285701 0-1.6514285714285712-0.3571428571428541-1.4957142857142856-0.6899999999999977-2.064285714285713-2.231428571428573t0.10000000000000142-3.0357142857142847q1.2942857142857136-2.814285714285713 2.008571428571429-5.747142857142855t0.8371428571428581-5.345714285714287-0.0799999999999983-4.765714285714285-0.5914285714285725-4.0285714285714285-0.8599999999999994-3.0914285714285725-0.725714285714286-2.008571428571429-0.345714285714287-0.725714285714286q-0.7571428571428562-1.451428571428572-0.25714285714285623-3.0242857142857145t1.952857142857134-2.3328571428571414q0.8257142857142838-0.4485714285714284 1.807142857142857-0.4485714285714284 1.095714285714287 0 2.042857142857141 0.5714285714285715t1.4857142857142875 1.5714285714285716z"></path></svg>