<?xml version="1.0"?><svg xmlns="http://www.w3.org/2000/svg" width="40" height="40" viewBox="0 0 40 40"><path d="m23.325714285714284 20.200000000000003q0-0.5785714285714292-0.13428571428571345-1.428571428571427h-8.08v2.94857142857143h4.842857142857143q-0.06571428571428584 0.5357142857142847-0.36714285714285566 1.1142857142857139t-0.8357142857142854 1.1857142857142868-1.485714285714284 0.9914285714285711-2.152857142857142 0.39000000000000057q-2.209999999999999 0-3.7714285714285722-1.5828571428571436t-1.5671428571428603-3.8185714285714347 1.5628571428571423-3.8171428571428585 3.7714285714285722-1.5857142857142854q2.0542857142857134 0 3.417142857142858 1.3185714285714294l2.3200000000000003-2.2528571428571436q-2.4071428571428584-2.234285714285713-5.734285714285717-2.234285714285713-3.571428571428571 0-6.071428571428571 2.5114285714285725t-2.5 6.059999999999999 2.5 6.060000000000002 6.071428571428571 2.5114285714285707q3.6828571428571433 0 5.948571428571428-2.3428571428571416t2.265714285714285-6.0285714285714285z m7.699999999999999 1.0285714285714285h2.4342857142857106v-2.457142857142859h-2.4314285714285653v-2.4571428571428555h-2.4571428571428555v2.4571428571428555h-2.457142857142859v2.4571428571428555h2.457142857142859v2.4542857142857137h2.457142857142859v-2.457142857142859z m6.117142857142863-11.942857142857145v21.42857142857143q0 2.6571428571428584-1.8857142857142861 4.5428571428571445t-4.5428571428571445 1.8857142857142861h-21.42857142857143q-2.6571428571428575 0-4.542857142857144-1.8857142857142861t-1.885714285714284-4.5428571428571445v-21.42857142857143q0-2.6571428571428575 1.8857142857142857-4.542857142857144t4.542857142857144-1.885714285714284h21.42857142857143q2.6571428571428584 0 4.5428571428571445 1.8857142857142857t1.8857142857142861 4.542857142857144z"></path></svg>