<?xml version="1.0"?><svg viewBox="0 0 40 40" xmlns="http://www.w3.org/2000/svg" height="40" width="40"><path d="m10.3 19.1q-2.8 0.1-4.6 2.2h-2.3q-1.5 0-2.4-0.7t-1-2q0-6.2 2.2-6.2 0.1 0 0.7 0.4t1.7 0.7q1 0.4 2.1 0.4 1.1 0 2.3-0.4-0.1 0.6-0.1 1.2 0 2.4 1.4 4.4z m18.6 11.1q0 2-1.3 3.2t-3.3 1.3h-15.2q-2.1 0-3.4-1.3t-1.3-3.2q0-1 0.1-1.8t0.2-1.9q0.2-1 0.5-1.9t0.8-1.7q0.4-0.8 1-1.4t1.5-0.9q0.9-0.4 2-0.4 0.1 0 0.7 0.4t1.3 0.8q0.7 0.5 1.8 0.8t2.4 0.4q1.1 0 2.3-0.4t1.9-0.8q0.7-0.4 1.2-0.8t0.8-0.4q1 0 1.9 0.4t1.5 0.9q0.6 0.6 1.1 1.4t0.7 1.7q0.3 0.9 0.5 1.9t0.2 1.9q0.1 0.8 0.1 1.8z m-19.1-25.4q1.3 1.3 1.3 3.2t-1.3 3.1q-1.3 1.3-3.1 1.3t-3.2-1.3q-1.3-1.3-1.3-3.1t1.3-3.2q1.3-1.3 3.2-1.3t3.1 1.3z m11.6 5.1q1.9 2 1.9 4.8t-1.9 4.7q-2 1.9-4.7 1.9t-4.7-1.9q-2-2-2-4.7t2-4.8q1.9-1.9 4.7-1.9t4.7 1.9z m11.9 8.7q0 1.3-0.9 2t-2.4 0.7h-2.4q-1.7-2.1-4.6-2.2 1.4-2 1.4-4.4 0-0.6 0-1.2 1.1 0.4 2.3 0.4 1 0 2-0.4t1.7-0.7q0.7-0.4 0.8-0.4 2.1 0 2.1 6.2z m-3.5-13.8q1.3 1.3 1.3 3.2t-1.3 3.1q-1.3 1.3-3.1 1.3t-3.2-1.3q-1.3-1.3-1.3-3.1t1.3-3.2q1.3-1.3 3.2-1.3t3.1 1.3z"></path></svg>