<?xml version="1.0"?><svg xmlns="http://www.w3.org/2000/svg" width="40" height="40" viewBox="0 0 40 40"><path d="m20 8.571428571428571q-1.1828571428571415 0-2.0199999999999996 0.8371428571428563t-0.8371428571428581 2.0200000000000014v2.8571428571428577h-0.7142857142857153v-2.0757142857142856q0-1.0714285714285712-0.7142857142857135-1.8185714285714276t-1.7857142857142847-0.7485714285714309q-1.0285714285714285 0-1.7628571428571433 0.7385714285714293t-0.7371428571428567 1.7614285714285707v9.577142857142857l-0.7142857142857135-0.6714285714285708v-3.838571428571427q0-1.071428571428573-0.7142857142857135-1.8185714285714276t-1.7857142857142865-0.7471428571428564q-1.0285714285714285 0-1.7628571428571433 0.7385714285714293t-0.7371428571428575 1.7599999999999962v5q0 1.0500000000000007 0.7814285714285711 1.831428571428571l6.920000000000002 6.607142857142858q0.8699999999999992 0.8714285714285701 0.8699999999999992 2.2757142857142902 0 0.5814285714285745 0.4242857142857144 1.0057142857142836t1.0042857142857144 0.42285714285713993h14.285714285714285q0.5799999999999983 0 1.0042857142857144-0.42285714285713993t0.42428571428571615-1.0057142857142836v-0.5571428571428569q0-0.9142857142857146 0.2228571428571442-1.7185714285714297l2.4100000000000037-9.732857142857142q0.2242857142857062-0.802857142857146 0.2242857142857062-1.7200000000000024v-5.488571428571429q0-1.0714285714285712-0.7142857142857153-1.8185714285714276t-1.7857142857142847-0.7471428571428564q-1.0285714285714285 0-1.764285714285716 0.7385714285714293t-0.735714285714284 1.7585714285714253v0.7142857142857135h-0.7142857142857117v-2.785714285714283q0-0.8928571428571423-0.5599999999999987-1.6185714285714283t-1.428571428571427-0.9042857142857148q-0.31428571428571317-0.042857142857142705-0.514285714285716-0.042857142857142705-1.0257142857142867 0-1.7614285714285707 0.7357142857142858t-0.7357142857142875 1.7585714285714271v2.8571428571428577h-0.7142857142857153v-2.7200000000000006q0-1.138571428571428-0.7285714285714278-1.9971428571428564t-1.8399999999999999-0.9714285714285715q-0.1114285714285721-0.02571428571428669-0.28857142857143003-0.02571428571428669z m0-2.8571428571428577q1.8757142857142846 0 3.325714285714284 1.1142857142857139 1.2714285714285722-0.7571428571428571 2.7457142857142856-0.7571428571428571 1.3171428571428585 0 2.4771428571428586 0.6028571428571432t1.9200000000000017 1.6971428571428566q0.6028571428571432-0.15714285714285658 1.3171428571428585-0.15714285714285658 2.2328571428571458 0 3.794285714285717 1.5971428571428579t1.5628571428571405 3.828571428571429v5.491428571428571q0 1.138571428571428-0.28999999999999915 2.41l-2.432857142857145 9.73142857142857q-0.134285714285717 0.5357142857142847-0.134285714285717 1.585714285714289 0 1.7857142857142847-1.25 3.0342857142857156t-3.0357142857142847 1.25h-14.285714285714285q-1.8757142857142863 0-3.08-1.3042857142857116t-1.2057142857142864-3.181428571428576l-6.8757142857142854-6.607142857142858q-1.6957142857142862-1.62857142857143-1.6957142857142862-3.9071428571428584v-5q0-2.208571428571428 1.5714285714285716-3.7814285714285703t3.7857142857142865-1.5757142857142856q0.24285714285714377 0 0.35714285714285765 0.024285714285714022 0.13285714285714256-2.119999999999999 1.685714285714285-3.571428571428571t3.671428571428571-1.4528571428571437q1.1571428571428566 0 2.185714285714285 0.47142857142857153 1.6071428571428577-1.5428571428571427 3.885714285714286-1.5428571428571427z"></path></svg>