<?xml version="1.0"?><svg viewBox="0 0 40 40" xmlns="http://www.w3.org/2000/svg" height="40" width="40"><path d="m4.1 27.7q0.3-0.4 0.3-0.8t-0.3-0.8q-0.3-0.3-0.8-0.3t-0.7 0.3q-0.4 0.3-0.4 0.8t0.4 0.8q0.3 0.3 0.7 0.3t0.8-0.3z m24.8-10.8q0-0.9-0.7-1.6t-1.5-0.6h-10q0-0.4 0.2-0.9t0.6-0.9q0.3-0.5 0.6-1.2t0.2-1.5q0-1.2-0.7-1.7t-2-0.5q-0.5 0-1.6 2.4-0.4 0.8-0.6 1.1-0.7 1.1-2 2.5-1.2 1.5-1.7 1.9-1.2 1-2.5 1h-0.5v11.1h0.5q1.3 0 2.9 0.5t3.4 1.2q1.7 0.5 3.1 0.5 3.3 0 3.3-2.9 0-0.4-0.1-1 0.5-0.2 0.8-0.9t0.3-1.3q0-0.6-0.3-1.1 0.9-0.9 0.9-2.1 0-0.4-0.1-1t-0.5-0.8h5.8q0.9 0 1.5-0.7t0.7-1.5z m2.2 0q0 1.8-1.3 3.1t-3.1 1.3h-3q0 1.1-0.6 2.1 0 0.3 0 0.7 0 1.8-1 3.1 0 2.4-1.5 3.8t-3.9 1.4q-2.3 0-5.6-1.2-2.9-1-3.9-1h-5q-0.9 0-1.5-0.6t-0.7-1.6v-11.1q0-0.9 0.7-1.6t1.5-0.6h5q0.2 0 0.4-0.1t0.4-0.3q0.2-0.1 0.4-0.3t0.4-0.4q0.2-0.2 0.4-0.3t0.3-0.4q0.2-0.3 0.2-0.3 1.2-1.3 1.8-2.3 0.2-0.3 0.5-1t0.7-1.3q0.3-0.5 0.7-1.1t0.9-0.8q0.6-0.3 1.3-0.3 2.1 0 3.5 1.1t1.5 3.3q0 1.2-0.4 2.2h6.5q1.8 0 3.1 1.3t1.3 3.2z"></path></svg>