<?xml version="1.0"?><svg viewBox="0 0 40 40" xmlns="http://www.w3.org/2000/svg" height="40" width="40"><path d="m15.9 4q-0.9 0-1.5 0.6t-0.6 1.6q0 0.3 0 0.6l3 12.2h-0.5l-2.3-9.4q-0.2-0.8-0.8-1.2t-1.3-0.5q-1 0-1.6 0.7t-0.6 1.5q0 0.3 0.1 0.6 0 0.3 0.7 3.1t1.4 5.6 0.6 2.6v4.5l-6-4.5q-0.7-0.5-1.5-0.5-1 0-1.8 0.7t-0.7 1.7q0 1.3 1.1 2.2l9.9 7.4q0.7 0.5 1.5 0.5h13.5q0.7 0 1.2-0.4t0.7-1l1.9-7.9q0.2-0.6 0.2-1.7t0.2-1.7l2.2-9.3q0.1-0.2 0.1-0.5 0-0.9-0.6-1.6t-1.6-0.6q-0.7 0-1.4 0.5t-0.7 1.2l-2 8h-0.5l2.6-10.7q0.1-0.3 0.1-0.5 0-1-0.7-1.6t-1.5-0.7q-0.8 0-1.4 0.5t-0.7 1.2l-2.9 11.8h-2.4l-3.3-13.3q-0.1-0.8-0.7-1.2t-1.4-0.5z m12.6 32.5h-13.5q-1.7 0-3-1l-9.9-7.4q-1-0.8-1.5-1.9t-0.6-2.3q0-2 1.5-3.5t3.5-1.4q0.5 0 0.9 0.1t0.9 0.2 0.8 0.4 0.6 0.5 0.8 0.5 0.7 0.6l-2.4-10q-0.1-0.7-0.1-1.2 0-1.8 1.2-3.1t2.9-1.6q0.3-1.7 1.6-2.8t3-1.1q1.7 0 2.9 1t1.7 2.6l2 8.3 1.6-6.8q0.4-1.5 1.7-2.5t2.9-1.1q1.7 0 3 1.1t1.6 2.7q1.8 0.2 3 1.5t1.2 3.2q0 0.6-0.1 1.1l-2.3 9.3q-0.1 0.4-0.1 1.3 0 1-0.3 2.1l-1.9 7.9q-0.4 1.4-1.6 2.4t-2.7 0.9z"></path></svg>