<?xml version="1.0"?><svg xmlns="http://www.w3.org/2000/svg" width="40" height="40" viewBox="0 0 40 40"><path d="m31.607142857142858 14.442857142857143q1.3399999999999999 0 2.388571428571428 0.5114285714285707 3.1471428571428604 1.4057142857142857 3.1471428571428604 5.0428571428571445v3.9528571428571446q0 2.1000000000000014-0.5142857142857125 4.151428571428571l-1.8957142857142841 7.568571428571428q-0.46857142857142975 1.9200000000000017-2.020000000000003 3.125714285714288t-3.517142857142858 1.2042857142857102h-14.910000000000002q-2.364285714285714 0-4.038571428571428-1.6742857142857162t-1.675714285714287-4.039999999999999v-8.951428571428572l-5.331428571428571-14.017142857142856q-0.382857142857143-1.0028571428571418-0.382857142857143-2.0314285714285703 0-2.3657142857142857 1.6757142857142857-4.04t4.038571428571428-1.6742857142857148q1.7857142857142865 0 3.248571428571429 1.0142857142857138t2.0857142857142854 2.668571428571429l0.38142857142857167 0.9828571428571422v-2.5228571428571422q0-2.3657142857142857 1.6757142857142853-4.04t4.037142857142857-1.6742857142857144 4.0428571428571445 1.6742857142857142 1.6714285714285708 4.04v5.8257142857142865q0.605714285714285-0.1114285714285721 1.0714285714285694-0.1114285714285721 1.5428571428571445 0 2.847142857142856 0.814285714285715t1.975714285714286 2.1999999999999993z m-4.821428571428573-0.15714285714285658q-0.7371428571428567 0-1.3500000000000014 0.40000000000000036t-0.9257142857142853 1.0714285714285712l-1.6528571428571404 3.642857142857144-1.581428571428571 3.4571428571428555h1.2285714285714278q1.1142857142857139 0 2.0071428571428562 0.7028571428571446t1.1142857142857139 1.797142857142859l3.4385714285714286-7.5428571428571445q0.2228571428571442-0.4485714285714302 0.2228571428571442-1.0285714285714285 0-1.0285714285714285-0.7371428571428567-1.7628571428571433t-1.764285714285716-0.7371428571428584z m4.9328571428571415 3.0142857142857142q-0.4914285714285711 0-0.904285714285713 0.17714285714285793t-0.6471428571428568 0.35714285714285765-0.524285714285714 0.6571428571428584-0.379999999999999 0.6828571428571415-0.379999999999999 0.8257142857142838l-2.9471428571428575 6.4714285714285715q-0.2228571428571442 0.4485714285714302-0.2228571428571442 1.0285714285714285 0 1.0285714285714285 0.735714285714284 1.7628571428571433t1.7657142857142887 0.7371428571428567q0.7357142857142875 0 1.3485714285714288-0.3999999999999986t0.9257142857142853-1.071428571428573l3.571428571428573-7.857142857142858q0.20000000000000284-0.4028571428571439 0.20000000000000284-0.8500000000000014 0-1.1142857142857139-0.7142857142857153-1.8185714285714276t-1.8285714285714292-0.7028571428571446z m-26.00428571428571-8.014285714285714q-8.881784197001252e-16 0.4914285714285711 0.17857142857142794 1.0285714285714285l5.535714285714286 14.505714285714285v1.5399999999999991l2.2771428571428576-2.4771428571428586q0.9599999999999991-1.0257142857142831 2.3657142857142865-1.0257142857142831h4.419999999999998l2.3657142857142865-5.199999999999999v-11.942857142857143q0-1.1828571428571433-0.8371428571428581-2.020000000000001t-2.0199999999999996-0.8371428571428572-2.0199999999999996 0.8371428571428572-0.8371428571428581 2.02v14.285714285714285h-1.428571428571427l-4.464285714285715-11.742857142857142q-0.31428571428571495-0.8242857142857147-1.048571428571428-1.3285714285714292t-1.6300000000000008-0.5q-1.1828571428571433 0-2.0199999999999996 0.8357142857142854t-0.8371428571428572 2.0214285714285722z m23.482857142857142 27.85714285714286q0.9828571428571422 0 1.7528571428571418-0.6028571428571396t1.014285714285716-1.5628571428571405l1.8999999999999986-7.567142857142855q0.42285714285713993-1.62857142857143 0.42285714285713993-3.460000000000001v-2.0314285714285703l-3.144285714285708 6.919999999999991q-0.379999999999999 0.8485714285714288-1.1828571428571415 1.361428571428572t-1.7428571428571438 0.5142857142857125q-1.1814285714285724 0-2.0857142857142854-0.7714285714285722t-1.0828571428571436-1.9314285714285724q-0.9828571428571422 1.2714285714285722-2.5428571428571445 1.2714285714285722h-4.6485714285714295v-0.71142857142857h4.642857142857142q1.0257142857142867 0 1.807142857142857-0.735714285714284t0.7814285714285703-1.7628571428571433-0.6914285714285704-1.764285714285716-1.7185714285714297-0.7371428571428567h-6.604285714285712q-1.0942857142857143 0-1.8285714285714292 0.8000000000000007l-2.8171428571428567 3.03857142857143v6.875714285714281q0 1.1814285714285688 0.8371428571428563 2.018571428571427t2.022857142857145 0.8385714285714343h14.911428571428573z"></path></svg>