<?xml version="1.0"?><svg xmlns="http://www.w3.org/2000/svg" width="40" height="40" viewBox="0 0 40 40"><path d="m5.714285714285714 30q0-0.5799999999999983-0.4242857142857144-1.0042857142857144t-1.0042857142857144-0.4242857142857126-1.0042857142857144 0.4242857142857126-0.42428571428571393 1.0042857142857144 0.4242857142857144 1.0042857142857144 1.004285714285714 0.42428571428571615 1.0042857142857144-0.4242857142857126 0.4242857142857144-1.004285714285718z m31.42857142857143-12.857142857142858q0-1.138571428571428-0.8714285714285737-1.9971428571428564t-1.9857142857142875-0.8599999999999994h-12.857142857142858q0-0.4471428571428575 0.33428571428571274-1.0828571428571436t0.7371428571428567-1.2285714285714295 0.7371428571428567-1.5142857142857142 0.33428571428571985-1.888571428571428q0-1.4971428571428573-0.9928571428571438-2.177142857142857t-2.578571428571429-0.6799999999999997q-0.5357142857142847 0-2.008571428571429 3.104285714285715-0.5357142857142847 0.9828571428571422-0.8257142857142838 1.451428571428572-0.8928571428571423 1.4285714285714288-2.5 3.2357142857142858-1.5857142857142854 1.8085714285714296-2.2542857142857144 2.3657142857142865-1.5399999999999991 1.274285714285714-3.1257142857142863 1.274285714285714h-0.7142857142857153v14.285714285714288h0.7142857142857135q1.6071428571428577 0 3.7285714285714278 0.7142857142857153t4.317142857142855 1.4285714285714306 4.007142857142856 0.7142857142857153q4.21857142857143 0 4.21857142857143-3.7285714285714278 0-0.5785714285714292-0.1114285714285721-1.2485714285714273 0.6714285714285708-0.35714285714285765 1.0599999999999987-1.1714285714285708t0.39000000000000057-1.6400000000000006-0.3999999999999986-1.5399999999999991q1.1814285714285724-1.1142857142857139 1.1814285714285724-2.6571428571428584 0-0.5571428571428569-0.2228571428571442-1.2371428571428567t-0.5571428571428569-1.0599999999999987h7.385714285714286q1.1614285714285728 0 2.009999999999998-0.8485714285714288t0.8500000000000085-2.0085714285714396z m2.857142857142854-0.022857142857141355q0 2.3428571428571416-1.6857142857142833 4.039999999999999t-4.028571428571432 1.6971428571428575h-3.7714285714285722q-0.09142857142857252 1.3857142857142861-0.8285714285714292 2.6571428571428584 0.06857142857142762 0.4671428571428571 0.06857142857142762 0.9571428571428555 0 2.2571428571428562-1.3399999999999999 3.9742857142857133 0.022857142857141355 3.102857142857143-1.8971428571428568 4.900000000000002t-5.067142857142851 1.797142857142859q-2.9685714285714297 0-7.185714285714287-1.5399999999999991-3.6642857142857164-1.317142857142862-4.9785714285714295-1.317142857142862h-6.428571428571429q-1.1828571428571433 0-2.0200000000000005-0.8371428571428581t-0.8371428571428572-2.019999999999996v-14.285714285714288q0-1.1828571428571433 0.8371428571428571-2.0199999999999996t2.02-0.8371428571428563h6.428571428571429q0.22285714285714242 0 0.4800000000000004-0.09999999999999964t0.524285714285714-0.31428571428571495 0.5028571428571436-0.40000000000000036 0.5357142857142865-0.5028571428571436 0.4571428571428573-0.4800000000000004 0.4242857142857144-0.4800000000000004 0.31428571428571495-0.3800000000000008q1.4499999999999993-1.6514285714285712 2.2314285714285713-2.879999999999999 0.28857142857142826-0.468571428571428 0.7357142857142858-1.3857142857142861t0.8257142857142874-1.6057142857142859 0.904285714285713-1.4057142857142857 1.2285714285714278-1.104285714285714 1.5499999999999972-0.38999999999999835q2.791428571428572 0 4.611428571428572 1.495714285714286t1.8171428571428585 4.218571428571428q0 1.5171428571428578-0.48999999999999844 2.8571428571428577h8.347142857142853q2.3228571428571456 0 4.018571428571427 1.6971428571428575t1.6957142857142884 3.9957142857142838z"></path></svg>