<?xml version="1.0"?><svg xmlns="http://www.w3.org/2000/svg" width="40" height="40" viewBox="0 0 40 40"><path d="m34.285714285714285 21.42857142857143q0-1.8757142857142846-0.7142857142857153-4.085714285714285t-1.4285714285714306-4.328571428571429-0.7142857142857082-3.7285714285714295v-0.7142857142857153h-14.285714285714288v0.7142857142857135q0 0.7828571428571429-0.2671428571428578 1.508571428571429t-0.8257142857142874 1.395714285714286-1.0285714285714285 1.1142857142857139-1.2042857142857137 1.0957142857142852q-0.1999999999999993 0.17857142857142883-0.31428571428571495 0.2671428571428578-1.807142857142857 1.6071428571428577-3.2357142857142858 2.5-0.4914285714285711 0.31428571428571317-1.5171428571428578 0.8485714285714288-0.06714285714285673 0.024285714285714022-0.5028571428571436 0.235714285714284t-0.8028571428571425 0.4142857142857146-0.7914285714285718 0.44571428571428484-0.6814285714285715 0.4800000000000004-0.2571428571428571 0.4142857142857146q0 1.5828571428571436 0.6799999999999997 2.5771428571428565t2.1771428571428615 0.9914285714285747q0.9571428571428573 0 1.8857142857142861-0.33428571428571274t1.5142857142857142-0.7371428571428567 1.2285714285714278-0.7371428571428567 1.0828571428571436-0.33428571428571274v12.857142857142854q0 1.1142857142857139 0.8599999999999994 1.9857142857142875t1.9971428571428582 0.8714285714285737q1.1600000000000001 0 2.008571428571429-0.8485714285714252t0.8485714285714288-2.008571428571429v-7.388571428571439q1.0285714285714285 0.7814285714285703 2.3000000000000007 0.7814285714285703 1.53857142857143 0 2.654285714285713-1.1828571428571415 0.7142857142857153 0.3999999999999986 1.5399999999999991 0.3999999999999986t1.6400000000000006-0.39000000000000057 1.1714285714285708-1.0599999999999987q0.5357142857142847 0.08999999999999986 1.25 0.08999999999999986 1.8971428571428604 0 2.8142857142857167-1.0828571428571436t0.914285714285711-3.024285714285714z m-2.857142857142854-17.142857142857146q0-0.5799999999999992-0.4242857142857126-1.0042857142857136t-1.004285714285718-0.42428571428571393-1.0042857142857144 0.4242857142857144-0.4242857142857126 1.004285714285714 0.4242857142857126 1.0042857142857144 1.0042857142857144 0.4242857142857144 1.0042857142857144-0.4242857142857144 0.42428571428571615-1.0042857142857144z m5.714285714285715 17.054285714285715q0 3.171428571428571-1.7285714285714278 5.1342857142857135t-4.857142857142858 1.942857142857143l-0.10999999999999943-0.024285714285714022q-1.6971428571428575 1.361428571428572-3.9714285714285715 1.361428571428572-0.49285714285714377 0-0.96142857142857-0.0671428571428585-1.2057142857142864 0.6714285714285708-2.6571428571428584 0.8285714285714292v3.7699999999999996q0 2.3428571428571416-1.6957142857142848 4.028571428571432t-4.040000000000006 1.6857142857142833q-2.3000000000000007 0-3.9957142857142856-1.6971428571428575t-1.6971428571428557-4.017142857142858v-8.348571428571429q-1.2057142857142864 0.4914285714285711-2.8571428571428577 0.4914285714285711-2.6999999999999993 0-4.207142857142857-1.8185714285714276t-1.5071428571428567-4.609999999999999q0-0.8485714285714288 0.3900000000000001-1.5514285714285734t1.104285714285714-1.2285714285714278 1.4057142857142857-0.9028571428571439 1.6071428571428568-0.8257142857142856 1.3857142857142861-0.7371428571428567q1.225714285714286-0.781428571428572 2.87857142857143-2.232857142857142 0.06714285714285673-0.042857142857142705 0.3800000000000008-0.31428571428571495t0.4800000000000004-0.4228571428571435 0.4800000000000004-0.4571428571428573 0.5028571428571436-0.5371428571428574 0.40000000000000036-0.5028571428571436 0.31428571428571495-0.524285714285714 0.09999999999999609-0.4771428571428533v-6.428571428571429q0-1.1857142857142862 0.8371428571428563-2.021428571428572t2.0199999999999996-0.8357142857142859h14.285714285714288q1.182857142857145 0 2.020000000000003 0.8357142857142856t0.837142857142851 2.0214285714285714v6.42857142857143q0 1.314285714285715 1.317142857142855 4.975714285714286 1.5400000000000063 4.242857142857142 1.5400000000000063 7.075714285714286z"></path></svg>