<?xml version="1.0"?><svg viewBox="0 0 40 40" xmlns="http://www.w3.org/2000/svg" height="40" width="40"><path d="m30.8 33.8q0-0.6-0.4-1t-0.9-0.4-1 0.4-0.4 1 0.4 0.9 1 0.4 0.9-0.4 0.4-0.9z m2.7-16.2q0-4-3.5-4-0.6 0-1.2 0.2-0.3-0.7-1.1-1t-1.6-0.4-1.4 0.4q-1.1-1.2-2.5-1.2-0.6 0-1.2 0.3t-1 0.5v-7q0-1.1-0.8-1.9t-1.9-0.8q-1.1 0-1.9 0.8t-0.8 1.9v12.2q-0.4 0-1-0.4t-1.2-0.7-1.4-0.7-1.8-0.3q-1.4 0-2.1 1t-0.6 2.4q0 0.5 2.9 1.9 1 0.5 1.4 0.8 1.4 0.8 3.1 2.3 1.7 1.5 2.2 2.2 1.2 1.4 1.2 2.9v0.7h13.5v-0.7q0-1.5 0.7-3.5t1.3-4.1 0.7-3.8z m2.7-0.1q0 2.8-1.5 6.8-1.2 3.5-1.2 4.7v6.1q0 1.1-0.8 1.9t-1.9 0.8h-13.5q-1.1 0-1.9-0.8t-0.8-1.9v-6.1q0-0.2-0.1-0.4t-0.3-0.5-0.4-0.5-0.4-0.5-0.5-0.4-0.5-0.4-0.3-0.3q-1.6-1.4-2.7-2.1-0.5-0.3-1.3-0.7t-1.6-0.8-1.3-0.9-1-1.1-0.4-1.5q0-2.6 1.4-4.4t4-1.7q1.4 0 2.7 0.5v-7.9q0-2.2 1.6-3.8t3.8-1.6q2.2 0 3.8 1.6t1.6 3.8v3.6q1.3 0.1 2.5 0.7 0.5 0 0.9 0 2.1 0 3.8 1.2 2.9 0 4.6 1.8t1.7 4.8z"></path></svg>