<?xml version="1.0"?><svg viewBox="0 0 40 40" xmlns="http://www.w3.org/2000/svg" height="40" width="40"><path d="m23.9 28h0.5v-11.1h-0.5q-0.6 0-1.2-0.2t-1.1-0.7q-0.5-0.4-0.8-0.8t-0.9-0.9q0-0.1 0-0.1t-0.1-0.1q-0.1 0-0.1-0.1-1.2-1.4-1.9-2.5-0.3-0.4-0.7-1.2 0 0-0.2-0.3t-0.3-0.7q-0.2-0.3-0.3-0.6t-0.4-0.5q-0.2-0.2-0.3-0.2-1.3 0-2 0.5t-0.8 1.7q0 0.8 0.2 1.5t0.6 1.2q0.3 0.4 0.6 0.9t0.2 0.9h-10q-0.8 0-1.5 0.6t-0.7 1.6q0 0.9 0.7 1.5t1.5 0.7h5.8q-0.3 0.3-0.4 0.8t-0.2 1q0 1.2 0.9 2.1-0.3 0.5-0.3 1.1t0.3 1.3q0.3 0.7 0.8 0.9 0 0.5 0 1 0 1.5 0.8 2.2t2.3 0.7q1.5 0 3.2-0.5t3.4-1.2q1.6-0.5 2.9-0.5z m4.7-0.3q0.3-0.4 0.3-0.8t-0.3-0.8q-0.4-0.3-0.8-0.3t-0.8 0.3q-0.3 0.3-0.3 0.8t0.3 0.8q0.3 0.3 0.8 0.3t0.8-0.3z m2.5-10.8v11.1q0 0.9-0.6 1.6t-1.6 0.6h-5q-1 0-3.9 1-3.3 1.2-5.5 1.2-2.5 0-4-1.3t-1.5-3.8l0-0.1q-1-1.3-1-3.1 0-0.4 0-0.7-0.6-1-0.6-2.1h-3q-1.8 0-3.1-1.3t-1.3-3.1q0-1.8 1.3-3.2t3.1-1.3h6.5q-0.3-1-0.3-2.2 0-2.1 1.4-3.3t3.6-1.1q0.6 0 1.2 0.3t0.9 0.8q0.4 0.6 0.7 1.1t0.7 1.3q0.3 0.7 0.5 1 0.6 1 1.8 2.3 0 0 0.2 0.3t0.3 0.4q0.2 0.1 0.4 0.3t0.4 0.4q0.2 0.2 0.4 0.3t0.4 0.3q0.2 0.1 0.4 0.1h5q0.9 0 1.6 0.6t0.6 1.6z"></path></svg>