<svg viewBox="0 0 1792 1896.0833" xmlns="http://www.w3.org/2000/svg"><path d="m640 128q-53 0-90.5 37.5t-37.5 90.5v512 384l-151-202q-41-54-107-54-52 0-89 38t-37 90q0 43 26 77l384 512q38 51 102 51h718q22 0 39.5-13.5t22.5-34.5l92-368q24-96 24-194v-217q0-41-28-71t-68-30-68 28-28 68h-32v-61q0-48-32-81.5t-80-33.5q-46 0-79 33t-33 79v64h-32v-90q0-55-37-94.5t-91-39.5q-53 0-90.5 37.5t-37.5 90.5v96h-32v-570q0-55-37-94.5t-91-39.5z m0-128q107 0 181.5 77.5t74.5 184.5v220q22-2 32-2 99 0 173 69 47-21 99-21 113 0 184 87 27-7 56-7 94 0 159 67.5t65 161.5v217q0 116-28 225l-92 368q-16 64-68 104.5t-118 40.5h-718q-60 0-114.5-27.5t-90.5-74.5l-384-512q-51-68-51-154 0-105 74.5-180.5t179.5-75.5q71 0 130 35v-547q0-106 75-181t181-75z m128 1408v-384h-32v384h32z m256 0v-384h-32v384h32z m256 0v-384h-32v384h32z"/></svg>