<?xml version="1.0"?><svg viewBox="0 0 40 40" xmlns="http://www.w3.org/2000/svg" height="40" width="40"><path d="m24.4 20.2q0-1.5-0.5-3.2t-1.1-3.3q-0.6-1.7-0.6-2.9v-0.6h-11.1v0.6q0 0.6-0.2 1.1t-0.6 1.1q-0.5 0.5-0.8 0.9t-1 0.8q-0.1 0.2-0.2 0.2-1.4 1.3-2.5 2-0.4 0.2-1.2 0.7-0.1 0-0.4 0.1t-0.6 0.4q-0.3 0.1-0.6 0.3t-0.6 0.4q-0.2 0.2-0.2 0.3 0 1.2 0.6 2t1.6 0.8q0.8 0 1.5-0.3t1.2-0.6q0.5-0.3 0.9-0.5t0.9-0.3v10q0 0.9 0.7 1.6t1.5 0.6q0.9 0 1.6-0.6t0.6-1.6v-5.7q0.8 0.6 1.8 0.6 1.2 0 2.1-1 0.5 0.4 1.2 0.4t1.3-0.3q0.6-0.3 0.9-0.9 0.4 0.1 0.9 0.1 1.5 0 2.2-0.8t0.7-2.4z m-2.5-12.5q0.3-0.4 0.3-0.8t-0.3-0.8q-0.3-0.3-0.8-0.3t-0.8 0.3q-0.3 0.3-0.3 0.8t0.3 0.8q0.4 0.3 0.8 0.3t0.8-0.3z m4.8 12.4q0 2.5-1.4 4t-3.8 1.5l0 0q-1.4 1.1-3.1 1.1-0.4 0-0.8-0.1-0.9 0.6-2 0.7v2.9q0 1.8-1.4 3.1t-3.1 1.4q-1.8 0-3.1-1.4t-1.3-3.1v-6.5q-1 0.4-2.3 0.4-2.1 0-3.2-1.4t-1.2-3.6q0-0.7 0.3-1.2t0.9-1q0.5-0.4 1.1-0.7t1.2-0.6q0.7-0.4 1.1-0.6 0.9-0.6 2.2-1.7 0.1-0.1 0.3-0.3t0.4-0.3q0.1-0.1 0.4-0.3t0.4-0.5q0.1-0.1 0.3-0.4t0.2-0.4q0.1-0.2 0.1-0.3v-5q0-1 0.6-1.6t1.6-0.7h11.1q0.9 0 1.6 0.7t0.6 1.6v5q0 1 1.1 3.8 1.2 3.3 1.2 5.5z"></path></svg>