<?xml version="1.0"?><svg viewBox="0 0 40 40" xmlns="http://www.w3.org/2000/svg" height="40" width="40"><path d="m13.3 10.2q-0.9000000000000004 0-1.5 0.6999999999999993t-0.6999999999999993 1.5v2.3000000000000007h-0.5v-1.6999999999999993q0-0.8000000000000007-0.5999999999999996-1.4000000000000004t-1.4000000000000021-0.5999999999999996q-0.7999999999999998 0-1.4000000000000004 0.5999999999999996t-0.4999999999999991 1.4000000000000004v7.399999999999999l-0.5999999999999996-0.5v-3q0-0.8000000000000007-0.5-1.4000000000000004t-1.3999999999999995-0.5999999999999996q-0.7999999999999998 0-1.4 0.5999999999999996t-0.6000000000000001 1.4000000000000004v3.8999999999999986q0 0.8000000000000007 0.6000000000000001 1.3999999999999986l5.4 5.100000000000001q0.6999999999999993 0.6999999999999993 0.6999999999999993 1.8000000000000007 0 0.3999999999999986 0.3000000000000007 0.8000000000000007t0.8000000000000007 0.3000000000000007h11.1q0.5 0 0.8000000000000007-0.3000000000000007t0.3000000000000007-0.8000000000000007v-0.3999999999999986q0-0.6999999999999993 0.1999999999999993-1.3999999999999986l1.8999999999999986-7.5q0.10000000000000142-0.6999999999999993 0.10000000000000142-1.3999999999999986v-4.300000000000001q0-0.8000000000000007-0.5-1.4000000000000004t-1.3999999999999986-0.5q-0.8000000000000007 0-1.3999999999999986 0.5t-0.5 1.4000000000000004v0.5999999999999996h-0.600000000000005v-2.200000000000001q0-0.6999999999999993-0.3999999999999986-1.3000000000000007t-1.1000000000000014-0.6999999999999993h-0.3999999999999986q-0.8000000000000007 0-1.3999999999999986 0.5999999999999996t-0.6000000000000014 1.3000000000000007v2.299999999999999h-0.5v-2.1999999999999993q0-0.9000000000000004-0.5999999999999996-1.5t-1.4000000000000004-0.8000000000000007h-0.3000000000000007z m0-2.2q1.5 0 2.5999999999999996 0.8999999999999995 0.9999999999999982-0.5999999999999996 2.200000000000001-0.5999999999999996 1 0 1.8999999999999986 0.40000000000000036t1.5 1.4000000000000004q0.3999999999999986-0.1999999999999993 1-0.1999999999999993 1.6999999999999993 0 3 1.3000000000000007t1.1999999999999993 2.9000000000000004v4.300000000000001q0 0.8999999999999986-0.3000000000000007 1.8999999999999986l-1.8999999999999986 7.599999999999998q-0.10000000000000142 0.3999999999999986-0.10000000000000142 1.1999999999999993 0 1.3999999999999986-0.8999999999999986 2.3999999999999986t-2.3999999999999986 0.9000000000000021h-11.100000000000001q-1.5 0-2.4000000000000004-1t-0.9000000000000004-2.5l-5.4-5.100000000000001q-1.299999999999999-1.2999999999999972-1.299999999999999-2.9999999999999964v-3.8999999999999986q0-1.6999999999999993 1.2-3t3-1.1999999999999993h0.20000000000000018q0.09999999999999964-1.5999999999999996 1.4000000000000004-2.8000000000000007t2.8000000000000007-1.0999999999999996q0.9000000000000004 0 1.6999999999999993 0.40000000000000036 1.3000000000000007-1.1999999999999993 3-1.1999999999999993z"></path></svg>