<?xml version="1.0"?><svg xmlns="http://www.w3.org/2000/svg" width="40" height="40" viewBox="0 0 40 40"><path d="m21.785714285714285 2.857142857142857q-1.0285714285714285 0-1.7628571428571433 0.7371428571428571t-0.7371428571428567 1.7628571428571433v14.642857142857142h-0.7142857142857153v-11.785714285714285q0-1.0285714285714285-0.7371428571428567-1.7628571428571433t-1.7628571428571398-0.7371428571428575-1.7628571428571433 0.7371428571428575-0.7371428571428584 1.7628571428571433v17.5l-3.4371428571428577-4.575714285714284q-0.848571428571427-1.1385714285714315-2.277142857142856-1.1385714285714315-1.1828571428571433 0-2.0199999999999996 0.8371428571428581t-0.8371428571428581 2.0199999999999996q0 0.9600000000000009 0.5800000000000001 1.7185714285714297l8.571428571428571 11.428571428571427q0.8485714285714288 1.1385714285714315 2.2771428571428594 1.1385714285714315h15.357142857142858q0.7571428571428562 0 1.361428571428572-0.4914285714285711t0.7571428571428598-1.25l1.7000000000000028-9.03857142857143q0.10999999999999943-0.7142857142857153 0.10999999999999943-1.3171428571428585v-11.117142857142857q0-1.0285714285714285-0.7371428571428567-1.7628571428571433t-1.7628571428571504-0.7371428571428567-1.7628571428571433 0.7371428571428567-0.7371428571428567 1.7628571428571433v6.071428571428571h-0.7142857142857153v-11.785714285714285q0-1.0285714285714285-0.7371428571428567-1.7628571428571433t-1.7628571428571433-0.7371428571428575-1.7628571428571433 0.7371428571428575-0.7371428571428567 1.7628571428571433v11.785714285714285h-0.7142857142857153v-14.642857142857142q0-1.0285714285714285-0.7371428571428567-1.762857142857143t-1.7628571428571433-0.7371428571428575z m0-2.857142857142857q1.5171428571428578 0 2.8000000000000007 0.7928571428571429t1.9771428571428586 2.154285714285715q0.4228571428571435-0.0900000000000003 0.937142857142856-0.0900000000000003 2.210000000000001 0 3.782857142857143 1.5742857142857143t1.5742857142857183 3.782857142857144v0.3800000000000008q2.3428571428571416-0.13428571428571345 4.028571428571425 1.4285714285714288t1.6857142857142833 3.905714285714284v11.114285714285716q0 0.894285714285715-0.1785714285714306 1.8542857142857159l-1.6971428571428575 9.017142857142858q-0.3142857142857167 1.7628571428571433-1.7071428571428555 2.924285714285716t-3.202857142857141 1.1614285714285657h-15.357142857142854q-1.3399999999999999 0-2.557142857142857-0.6142857142857139t-2.0185714285714287-1.664285714285711l-8.571428571428571-11.42857142857143q-1.138571428571431-1.5171428571428578-1.138571428571431-3.435714285714287 0-2.3671428571428557 1.674285714285714-4.042857142857141t4.040000000000001-1.6714285714285744q1.7428571428571438 0 2.8571428571428577 0.7571428571428562v-9.685714285714283q0-2.2142857142857153 1.5742857142857147-3.7857142857142865t3.782857142857143-1.5714285714285716q0.514285714285716 0 0.937142857142856 0.08857142857142852 0.6914285714285704-1.3614285714285714 1.975714285714286-2.1542857142857144t2.80142857142857-0.7914285714285714z"></path></svg>