<?xml version="1.0"?><svg xmlns="http://www.w3.org/2000/svg" width="40" height="40" viewBox="0 0 40 40"><path d="m31.42857142857143 35.714285714285715q0-0.5799999999999983-0.4242857142857126-1.0042857142857144t-1.004285714285718-0.42428571428571615-1.0042857142857144 0.42428571428571615-0.4242857142857126 1.0042857142857144 0.4242857142857126 1.0042857142857144 1.0042857142857144 0.42428571428571615 1.0042857142857144-0.42428571428571615 0.42428571428571615-1.0042857142857144z m2.857142857142854-17.054285714285715q0-4.21857142857143-3.7285714285714278-4.21857142857143-0.5785714285714292 0-1.2485714285714273 0.10999999999999943-0.35714285714285765-0.6714285714285708-1.1714285714285708-1.0600000000000005t-1.6400000000000006-0.39000000000000057-1.5399999999999991 0.40000000000000036q-1.1142857142857139-1.1814285714285724-2.6571428571428584-1.1814285714285724-0.5571428571428569 0-1.2371428571428567 0.22285714285714242t-1.0599999999999987 0.5600000000000005v-7.388571428571425q0-1.1600000000000001-0.8485714285714288-2.0085714285714285t-2.008571428571429-0.8485714285714288q-1.138571428571428 0-1.9971428571428564 0.8714285714285714t-0.8600000000000012 1.9857142857142858v12.857142857142858q-0.4471428571428575 0-1.0828571428571436-0.33428571428571274t-1.2285714285714278-0.7371428571428567-1.5142857142857142-0.7371428571428567-1.8857142857142861-0.33428571428571274q-1.4971428571428573 0-2.177142857142857 0.9928571428571438t-0.6814285714285724 2.578571428571422q0 0.5357142857142847 3.102857142857144 2.008571428571429 0.9828571428571422 0.5357142857142847 1.451428571428572 0.8257142857142838 1.4285714285714288 0.8928571428571423 3.2385714285714293 2.5 1.8085714285714296 1.5857142857142854 2.3657142857142865 2.2542857142857144 1.2714285714285722 1.5399999999999991 1.2714285714285722 3.1257142857142846v0.7142857142857153h14.285714285714288v-0.7142857142857153q0-1.6071428571428577 0.7142857142857153-3.7285714285714278t1.4285714285714306-4.3171428571428585 0.7142857142857153-4.007142857142856z m2.857142857142854-0.1114285714285721q0 2.9685714285714297-1.5399999999999991 7.185714285714287-1.317142857142855 3.662857142857142-1.317142857142855 4.98v6.428571428571431q0 1.1814285714285688-0.8371428571428581 2.018571428571427t-2.019999999999996 0.8385714285714272h-14.285714285714288q-1.1828571428571433 0-2.0199999999999996-0.8385714285714272t-0.8371428571428563-2.018571428571427v-6.428571428571431q0-0.2242857142857133-0.09999999999999964-0.4814285714285731t-0.31428571428571495-0.524285714285714-0.40000000000000036-0.5028571428571418-0.5028571428571436-0.5357142857142847-0.4800000000000004-0.4571428571428555-0.4800000000000004-0.42571428571428527-0.3800000000000008-0.31428571428571317q-1.6514285714285712-1.4499999999999993-2.879999999999999-2.231428571428573-0.468571428571428-0.28999999999999915-1.3857142857142861-0.7371428571428567t-1.6057142857142859-0.8257142857142874-1.4057142857142857-0.904285714285713-1.104285714285714-1.2285714285714278-0.38999999999999835-1.5457142857142898q0-2.789999999999999 1.495714285714286-4.609999999999999t4.218571428571428-1.8185714285714294q1.5171428571428578 0 2.8571428571428577 0.4914285714285711v-8.35142857142857q0-2.3214285714285716 1.6971428571428575-4.017142857142857t3.9957142857142838-1.6971428571428577q2.3428571428571416 3.426078865054194e-17 4.039999999999999 1.6857142857142857t1.6957142857142884 4.0285714285714285v3.7714285714285722q1.3857142857142861 0.09142857142857075 2.6571428571428584 0.8285714285714292 0.46857142857142975-0.0685714285714294 0.9600000000000009-0.0685714285714294 2.2542857142857144 0 3.9714285714285715 1.3399999999999999 3.104285714285716-0.02285714285714313 4.899999999999999 1.8971428571428568t1.7999999999999972 5.0671428571428585z"></path></svg>