<?xml version="1.0"?><svg viewBox="0 0 40 40" xmlns="http://www.w3.org/2000/svg" height="40" width="40"><path d="m21.9 32.1q0.3-0.3 0.3-0.8t-0.3-0.8q-0.3-0.3-0.8-0.3t-0.8 0.3q-0.3 0.4-0.3 0.8t0.3 0.8q0.4 0.3 0.8 0.3t0.8-0.3z m2.5-14q0-3.3-2.9-3.3-0.4 0-0.9 0.1-0.3-0.6-0.9-0.9t-1.3-0.3q-0.7 0-1.2 0.3-0.9-0.9-2.1-0.9-0.4 0-0.9 0.2t-0.9 0.4v-5.7q0-0.9-0.6-1.6t-1.6-0.6q-0.9 0-1.5 0.6t-0.7 1.6v10q-0.4 0-0.9-0.3t-0.9-0.5q-0.5-0.4-1.2-0.6t-1.5-0.3q-1.1 0-1.6 0.8t-0.6 2q0 0.4 2.4 1.6 0.8 0.4 1.2 0.6 1.1 0.7 2.5 1.9 1.4 1.3 1.8 1.8 1 1.2 1 2.4v0.6h11.1v-0.6q0-1.2 0.6-2.9t1.1-3.3q0.5-1.7 0.5-3.1z m2.3-0.1q0 2.3-1.2 5.6-1.1 2.8-1.1 3.8v5q0 0.9-0.6 1.6t-1.6 0.7h-11.1q-0.9 0-1.6-0.7t-0.6-1.6v-5q0-0.1-0.1-0.3t-0.2-0.5q-0.2-0.2-0.3-0.3t-0.4-0.5q-0.3-0.2-0.4-0.3t-0.4-0.3q-0.2-0.3-0.3-0.3-1.3-1.1-2.2-1.7-0.4-0.2-1.1-0.6t-1.2-0.6q-0.6-0.3-1.1-0.7t-0.9-1q-0.3-0.5-0.3-1.2 0-2.2 1.2-3.6t3.2-1.4q1.2 0 2.3 0.4v-6.5q0-1.8 1.3-3.1t3.1-1.4q1.8 0 3.1 1.4t1.4 3.1v2.9q1 0.1 2 0.7 0.4-0.1 0.8-0.1 1.7 0 3.1 1.1 2.4-0.1 3.8 1.4t1.4 4z"></path></svg>