<?xml version="1.0"?><svg viewBox="0 0 40 40" xmlns="http://www.w3.org/2000/svg" height="40" width="40"><path d="m30.1 29.7h0.7v-13.5h-0.7q-0.7 0-1.4-0.3t-1.3-0.7-1.1-1-1-1.1q0-0.1-0.1-0.1t-0.1-0.1-0.1-0.1q-1.5-1.7-2.3-3.1-0.3-0.5-0.8-1.4 0-0.1-0.2-0.5t-0.4-0.8-0.5-0.7-0.4-0.7-0.4-0.2q-1.5 0-2.4 0.6t-1 2.1q0 0.9 0.3 1.8t0.7 1.4 0.7 1.2 0.3 1h-12.1q-1.1 0-1.9 0.8t-0.8 1.9q0 1.1 0.8 1.9t1.9 0.8h7q-0.3 0.4-0.5 1t-0.3 1.2q0 1.4 1.2 2.5-0.4 0.7-0.4 1.4t0.4 1.6 1 1.1q-0.1 0.5-0.1 1.2 0 1.8 1 2.6t2.8 0.9q1.8 0 3.9-0.7t4.1-1.3 3.5-0.7z m6.1-1.3q0-0.6-0.4-1t-0.9-0.4-1 0.4-0.4 1 0.4 0.9 1 0.4 0.9-0.4 0.4-0.9z m2.7-12.2v13.5q0 1.1-0.8 1.9t-1.9 0.8h-6.1q-1.2 0-4.7 1.2-4 1.5-6.7 1.5-3 0-4.8-1.6t-1.9-4.6l0.1-0.1q-1.3-1.6-1.3-3.8 0-0.4 0-0.9-0.7-1.2-0.7-2.5h-3.6q-2.2 0-3.8-1.6t-1.6-3.8q0-2.2 1.6-3.8t3.8-1.6h7.9q-0.5-1.3-0.5-2.7 0-2.6 1.7-4t4.4-1.4q0.8 0 1.5 0.4t1.1 1 0.9 1.3 0.8 1.6 0.7 1.3q0.7 1.1 2.1 2.7 0 0.1 0.3 0.3t0.4 0.5 0.4 0.5 0.5 0.4 0.5 0.4 0.5 0.3 0.4 0.1h6.1q1.1 0 1.9 0.8t0.8 1.9z"></path></svg>