<?xml version="1.0"?><svg viewBox="0 0 40 40" xmlns="http://www.w3.org/2000/svg" height="40" width="40"><path d="m6.5 28.4q0-0.6-0.4-1t-1-0.4-0.9 0.4-0.4 1 0.4 0.9 0.9 0.4 1-0.4 0.4-0.9z m29.7-12.2q0-1.1-0.8-1.9t-1.9-0.8h-12.1q0-0.4 0.3-1t0.7-1.2 0.7-1.4 0.3-1.8q0-1.4-1-2.1t-2.4-0.6q-0.5 0-1.9 2.9-0.5 1-0.8 1.4-0.8 1.4-2.3 3.1-1.5 1.7-2.2 2.2-1.4 1.2-2.9 1.2h-0.7v13.5h0.7q1.5 0 3.5 0.7t4.1 1.3 3.8 0.7q4 0 4-3.5 0-0.6-0.2-1.2 0.7-0.3 1-1.1t0.4-1.6-0.4-1.4q1.2-1.1 1.2-2.5 0-0.6-0.3-1.2t-0.5-1h7q1.1 0 1.9-0.8t0.8-1.9z m2.7 0q0 2.2-1.6 3.8t-3.8 1.6h-3.6q0 1.3-0.7 2.5 0 0.5 0 0.9 0 2.2-1.2 3.8 0 2.9-1.8 4.6t-4.8 1.7q-2.8 0-6.8-1.5-3.5-1.2-4.7-1.2h-6.1q-1.1 0-1.9-0.8t-0.8-1.9v-13.5q0-1.1 0.8-1.9t1.9-0.8h6.1q0.2 0 0.4-0.1t0.5-0.3 0.5-0.4 0.5-0.4 0.4-0.5 0.4-0.5 0.3-0.3q1.4-1.6 2.1-2.7 0.3-0.5 0.7-1.3t0.8-1.6 0.9-1.3 1.1-1 1.5-0.4q2.6 0 4.4 1.4t1.7 4q0 1.4-0.5 2.7h7.9q2.2 0 3.8 1.6t1.6 3.8z"></path></svg>