<?xml version="1.0"?><svg viewBox="0 0 40 40" xmlns="http://www.w3.org/2000/svg" height="40" width="40"><path d="m22.5 1.5q1.2 0 2.2 0.5t1.8 1.5l11.2 15.3q2.3 3.1 2.3 7v6.9q0 1.6-1.1 2.7t-2.6 1.1h-7.5q-1.6 0-2.7-1.1t-1.1-2.7v-3.4l-5.6-2.8h-10.6q-1.6 0-2.7-1.1t-1.1-2.7v-0.6q0-2.3 1.7-4t3.9-1.6h8.2l0.8-2.5h-13.3q-2 0-3.4-1.3t-1.6-3.3q-1.3-1.5-1.3-3.5v-0.7q0-1.5 1.1-2.6t2.7-1.1h18.7z m15 31.2v-6.9q0-3.1-1.8-5.5l-11.2-15.3q-0.8-1-2-1h-18.7q-0.6 0-0.9 0.4t-0.4 0.8q0 0.7 0 1t0.2 0.8 0.5 0.8q0.2-0.6 0.7-0.9t1.1-0.4h16.3v0.6h-16.3q-0.5 0-0.9 0.4t-0.3 0.9q0 0.8 0 1.1 0.2 0.9 0.9 1.4t1.6 0.6h14.2q0.8 0 1.4 0.5t0.5 1.4q0 0.3-0.1 0.5l-1.2 3.8q-0.2 0.6-0.7 0.9t-1.1 0.4h-8.7q-1.3 0-2.2 0.9t-0.9 2.2v0.6q0 0.5 0.4 0.9t0.9 0.4h10.9q0.3 0 0.6 0.1l6.2 3.1q0.4 0.3 0.7 0.7t0.3 1v3.8q0 0.5 0.4 0.9t0.9 0.4h7.5q0.5 0 0.8-0.4t0.4-0.9z"></path></svg>