<?xml version="1.0"?><svg xmlns="http://www.w3.org/2000/svg" width="40" height="40" viewBox="0 0 40 40"><path d="m17 4q-1 0-1.6560000000000006 0.706666666666667t-0.6560000000000006 1.7093333333333334q0 0.293333333333333 0.06266666666666687 0.5826666666666664l3.125333333333332 13.001333333333333h-0.5426666666666655l-2.413333333333334-10.044q-0.18666666666666742-0.7919999999999998-0.8226666666666667-1.293333333333333t-1.4466666666666672-0.4986666666666668q-0.9786666666666672 0-1.6453333333333333 0.706666666666667t-0.6666666666666661 1.6893333333333338q0 0.23066666666666613 0.08533333333333282 0.6053333333333324 0.06266666666666687 0.27066666666666706 0.8133333333333326 3.3546666666666667t1.413333333333334 5.874666666666666 0.6666666666666661 2.8746666666666663v4.730666666666668l-6.39733333333333-4.794666666666668q-0.7093333333333334-0.5386666666666677-1.6066666666666674-0.5386666666666677-1.0826666666666664 0-1.8639999999999999 0.7600000000000016t-0.7826666666666662 1.8399999999999999q0 1.3960000000000008 1.1679999999999997 2.293333333333333l10.562666666666665 7.893333333333334q0.706666666666667 0.5426666666666691 1.5839999999999996 0.5426666666666691h14.458666666666666q0.6879999999999988 0 1.229333333333333-0.4266666666666694t0.706666666666667-1.0933333333333337l2.085333333333331-8.356000000000002q0.1666666666666643-0.6266666666666652 0.2079999999999984-1.8333333333333321t0.18666666666666742-1.7920000000000016l2.4186666666666667-9.959999999999999q0.0626666666666651-0.24799999999999933 0.0626666666666651-0.5400000000000009 0-0.9600000000000009-0.6880000000000024-1.6466666666666665t-1.6666666666666643-0.6880000000000006q-0.7920000000000016 0-1.437333333333335 0.5293333333333337t-0.8346666666666636 1.302666666666667l-2.06133333333333 8.508000000000003h-0.5413333333333341l2.7520000000000024-11.397333333333332q0.0626666666666651-0.293333333333333 0.0626666666666651-0.5839999999999996 0-0.9786666666666664-0.6666666666666643-1.666666666666666t-1.6666666666666679-0.6879999999999997q-0.7906666666666666 0-1.4266666666666659 0.5t-0.8213333333333317 1.293333333333333l-3.0213333333333345 12.54h-2.6453333333333333l-3.4186666666666667-14.208q-0.18666666666666742-0.7919999999999998-0.8226666666666667-1.293333333333333t-1.4266666666666659-0.49600000000000044z m13.437333333333331 34.666666666666664h-14.458666666666666q-1.770666666666667 0-3.1866666666666674-1.062666666666665l-10.565333333333331-7.917333333333332q-1.04-0.7920000000000016-1.6346666666666665-1.9600000000000009t-0.5920000000000001-2.456000000000003q0-2.1866666666666674 1.5599999999999998-3.729333333333333t3.752-1.5413333333333306q0.5199999999999996 0 1.0306666666666668 0.11333333333333329t0.8639999999999999 0.22933333333333294 0.8533333333333326 0.42666666666666586 0.7306666666666661 0.4800000000000004 0.8026666666666671 0.6133333333333333 0.7813333333333325 0.5933333333333337l-2.562666666666667-10.666666666666666q-0.1466666666666665-0.729333333333333-0.1466666666666665-1.229333333333333 0-1.9373333333333331 1.2533333333333339-3.373333333333333t3.161333333333335-1.6480000000000015q0.293333333333333-1.8133333333333335 1.6773333333333333-3.0106666666666664t3.2426666666666666-1.1946666666666663q1.729333333333333 0 3.082666666666668 1.0719999999999998t1.770666666666667 2.76l2.1466666666666647 8.914666666666667 1.7280000000000015-7.247999999999999q0.4173333333333318-1.6879999999999997 1.770666666666667-2.76t3.0826666666666647-1.0733333333333333q1.8133333333333326 0 3.177333333333337 1.1239999999999997t1.717333333333336 2.896q1.937333333333335 0.20800000000000018 3.2293333333333365 1.626666666666666t1.2946666666666573 3.3546666666666667q0 0.6266666666666669-0.14666666666666828 1.1866666666666674l-2.417333333333332 9.938666666666666q-0.10266666666667135 0.45866666666666234-0.10266666666667135 1.3946666666666658 0 1.064-0.27199999999999847 2.2506666666666675l-2.103999999999999 8.354666666666663q-0.3960000000000008 1.562666666666665-1.6559999999999988 2.5519999999999996t-2.8640000000000008 0.9893333333333345z"></path></svg>