<?xml version="1.0"?><svg xmlns="http://www.w3.org/2000/svg" width="40" height="40" viewBox="0 0 40 40"><path d="m23.95142857142857 37.142857142857146h-3.9514285714285684q-3.638571428571428 0-5.042857142857143-3.1471428571428604-0.5142857142857142-1.0942857142857179-0.5142857142857142-2.277142857142856v-0.1114285714285721q-1.3857142857142861-0.6714285714285708-2.1999999999999993-1.975714285714286t-0.814285714285715-2.845714285714287q0-0.8485714285714288 0.11428571428571388-1.071428571428573h-5.828571428571428q-2.3642857142857143 0-4.038571428571428-1.6742857142857126t-1.6757142857142862-4.039999999999999 1.6757142857142857-4.039999999999999 4.038571428571428-1.6742857142857144h2.524285714285716l-0.9828571428571431-0.3800000000000008q-1.652857142857143-0.6257142857142863-2.668571428571428-2.0857142857142854t-1.0128571428571442-3.248571428571429q0-2.3657142857142857 1.6714285714285717-4.04t4.044285714285715-1.674285714285714q1.025714285714285 0 2.0285714285714285 0.3799999999999999l14.018571428571429 5.3342857142857145h8.948571428571427q2.367142857142859 0 4.0428571428571445 1.6742857142857144t1.6714285714285708 4.040000000000001v14.910000000000002q0 1.9642857142857153-1.2042857142857173 3.5142857142857125t-3.125714285714288 2.0214285714285722l-7.569999999999993 1.8971428571428604q-2.0528571428571425 0.5142857142857125-4.151428571428571 0.5142857142857125z m-1.0942857142857108-15.871428571428574l-3.460000000000001 1.5857142857142854-3.638571428571428 1.6514285714285712q-0.668571428571429 0.31428571428571317-1.0714285714285712 0.9257142857142853t-0.40000000000000036 1.3500000000000014q0 1.0257142857142867 0.7371428571428567 1.7614285714285707t1.7628571428571433 0.7371428571428567q0.5800000000000018 0 1.0285714285714285-0.2242857142857133l7.5428571428571445-3.437142857142856q-1.0942857142857143-0.2228571428571442-1.797142857142859-1.1142857142857139t-0.7042857142857137-2.00714285714286v-1.2285714285714278z m7.142857142857142 6.942857142857143q0-1.0285714285714285-0.7371428571428567-1.7628571428571433t-1.7628571428571433-0.7371428571428567q-0.5799999999999983 0-1.0285714285714285 0.2228571428571442l-6.4714285714285715 2.9485714285714266q-0.6257142857142846 0.28857142857143003-0.8257142857142838 0.3785714285714299t-0.6814285714285724 0.379999999999999-0.6571428571428584 0.5257142857142867-0.35714285714285765 0.6471428571428568-0.17999999999999972 0.9057142857142857q0 1.1142857142857139 0.6999999999999993 1.8285714285714292t1.8200000000000003 0.7142857142857153q0.4471428571428575 0 0.8485714285714288-0.20000000000000284l7.857142857142858-3.571428571428573q0.6714285714285708-0.31428571428571317 1.071428571428573-0.9257142857142853t0.3999999999999986-1.3500000000000014z m-5.178571428571427-16.785714285714285l-14.507142857142858-5.535714285714287q-0.5385714285714283-0.17857142857142883-1.0285714285714285-0.17857142857142883-1.1828571428571433 0-2.0199999999999996 0.8371428571428572t-0.8371428571428581 2.0199999999999996q0 0.8928571428571423 0.5028571428571427 1.6285714285714281t1.3285714285714283 1.0500000000000007l11.742857142857146 4.464285714285715v1.428571428571427h-14.28857142857143q-1.1857142857142868 0-2.0214285714285722 0.8371428571428581t-0.8357142857142859 2.0199999999999996 0.8385714285714285 2.0199999999999996 2.0185714285714287 0.8371428571428581h11.942857142857143l5.199999999999999-2.3657142857142865v-4.419999999999998q0-1.4057142857142857 1.0285714285714285-2.3657142857142865l2.4771428571428586-2.2771428571428576h-1.5399999999999991z m-0.8714285714285701 22.857142857142854q1.831428571428571 0 3.46142857142857-0.42428571428571615l7.567142857142855-1.8971428571428568q0.9600000000000009-0.24571428571428555 1.5628571428571405-1.014285714285716t0.6000000000000014-1.7542857142857144v-14.909999999999995q0-1.1828571428571433-0.835714285714289-2.0199999999999996t-2.019999999999996-0.8371428571428581h-6.871428571428567l-3.0357142857142847 2.814285714285715q-0.8028571428571425 0.7357142857142858-0.8028571428571425 1.8285714285714292v6.607142857142858q0 1.0285714285714285 0.7385714285714293 1.7185714285714297t1.7628571428571433 0.6914285714285704 1.764285714285716-0.7814285714285703 0.7299999999999933-1.8071428571428605v-4.642857142857142h0.7142857142857153v4.642857142857142q0 1.5614285714285714-1.2714285714285722 2.5428571428571445 1.1600000000000001 0.17857142857142705 1.9314285714285724 1.0828571428571436t0.7714285714285722 2.0857142857142854q0 0.9385714285714286-0.5142857142857125 1.7428571428571438t-1.361428571428572 1.1828571428571415l-6.921428571428578 3.148571428571426h2.0314285714285703z"></path></svg>