<?xml version="1.0"?><svg xmlns="http://www.w3.org/2000/svg" width="40" height="40" viewBox="0 0 40 40"><path d="m30.714285714285715 31.42857142857143h0.7142857142857153v-14.285714285714288h-0.7142857142857153q-0.7814285714285703 0-1.5071428571428562-0.2671428571428578t-1.3957142857142841-0.8257142857142874-1.1142857142857139-1.0285714285714285-1.095714285714287-1.2042857142857137q-0.04285714285714448-0.06714285714285673-0.07714285714285651-0.09999999999999964t-0.08999999999999986-0.09999999999999964-0.10000000000000142-0.1114285714285721q-1.6071428571428577-1.8085714285714296-2.5-3.2371428571428567-0.31428571428571317-0.4914285714285711-0.8485714285714288-1.5171428571428578-0.024285714285714022-0.06714285714285673-0.235714285714284-0.5028571428571436t-0.4142857142857146-0.8028571428571425-0.44571428571428484-0.7928571428571427-0.4800000000000004-0.6814285714285715-0.4142857142857146-0.2571428571428571q-1.5828571428571436 0-2.5771428571428565 0.6814285714285715t-0.9928571428571473 2.175714285714288q0 0.9600000000000009 0.33428571428571274 1.8857142857142861t0.7371428571428567 1.5171428571428578 0.7371428571428567 1.2285714285714295 0.33428571428571274 1.081428571428571h-12.857142857142858q-1.1142857142857139 0-1.9857142857142858 0.8571428571428577t-0.8714285714285714 2q0 1.1571428571428584 0.8485714285714283 2.0071428571428562t2.0085714285714342 0.8514285714285705h7.388571428571428q-0.3342857142857145 0.3785714285714299-0.5571428571428569 1.057142857142857t-0.2242857142857151 1.2399999999999984q0 1.5399999999999991 1.1828571428571433 2.6571428571428584-0.40000000000000036 0.7142857142857153-0.40000000000000036 1.53857142857143t0.39000000000000057 1.6400000000000006 1.0600000000000005 1.1714285714285708q-0.08999999999999986 0.5357142857142847-0.08999999999999986 1.25 0 1.8971428571428568 1.0828571428571436 2.814285714285713t3.024285714285716 0.914285714285711q1.8757142857142846 0 4.085714285714285-0.7142857142857153t4.328571428571429-1.4285714285714306 3.7285714285714278-0.7142857142857153z m6.428571428571431-1.428571428571427q0-0.5800000000000018-0.42428571428571615-1.0042857142857144t-1.0042857142857144-0.42428571428571615-1.0042857142857144 0.4242857142857126-0.42428571428571615 1.0042857142857144 0.42428571428571615 1.0042857142857144 1.0042857142857144 0.42428571428571615 1.0042857142857144-0.4242857142857126 0.42428571428571615-1.004285714285718z m2.857142857142854-12.857142857142858v14.285714285714285q0 1.182857142857145-0.8371428571428581 2.020000000000003t-2.019999999999996 0.837142857142851h-6.428571428571431q-1.3171428571428585 0-4.977142857142859 1.317142857142855-4.242857142857144 1.5400000000000063-7.075714285714284 1.5400000000000063-3.171428571428571 0-5.1342857142857135-1.7285714285714278t-1.942857142857143-4.857142857142858l0.02285714285714313-0.10999999999999943q-1.361428571428572-1.6971428571428575-1.361428571428572-3.9714285714285715 0-0.49285714285714377 0.06714285714285673-0.96142857142857-0.7371428571428567-1.2714285714285722-0.8257142857142856-2.6571428571428584h-3.7714285714285722q-2.3457142857142856 0-4.0285714285714285-1.6957142857142848t-1.6871428571428577-4.040000000000006q0-2.3000000000000007 1.6957142857142857-3.9957142857142856t4.018571428571429-1.6971428571428557h8.349999999999998q-0.492857142857142-1.3399999999999999-0.492857142857142-2.8571428571428577 0-2.7228571428571424 1.8200000000000003-4.218571428571429t4.6085714285714285-1.495714285714285q0.8500000000000014 0 1.5528571428571425 0.3900000000000001t1.2285714285714278 1.104285714285714 0.9028571428571439 1.4057142857142857 0.8242857142857147 1.6071428571428568 0.7371428571428567 1.3857142857142861q0.7814285714285703 1.225714285714286 2.232857142857142 2.87857142857143 0.04285714285714448 0.06714285714285673 0.31428571428571317 0.3800000000000008t0.4228571428571435 0.4800000000000004 0.4571428571428555 0.4800000000000004 0.5357142857142847 0.5028571428571436 0.5028571428571418 0.40000000000000036 0.5228571428571414 0.31428571428571495 0.4800000000000004 0.09999999999999964h6.428571428571431q1.182857142857145 0 2.020000000000003 0.8371428571428563t0.8400000000000034 2.019999999999996z"></path></svg>