<?xml version="1.0"?><svg viewBox="0 0 40 40" xmlns="http://www.w3.org/2000/svg" height="40" width="40"><path d="m17.6 23.7q0.5 0.4 0.5 1t-0.5 0.9q-0.4 0.4-0.9 0.4t-1-0.4q-0.4-0.4-0.4-0.9t0.4-1q0.4-0.4 1-0.4t0.9 0.4z m4.5 0q0.4 0.4 0.4 1t-0.4 0.9q-0.4 0.4-1 0.4t-1-0.4q-0.4-0.4-0.4-0.9t0.4-1q0.4-0.4 1-0.4t1 0.4z m2.3 3.7v-5.5q0-0.3-0.1-0.4t-0.4-0.2h-21.1q-0.2 0-0.4 0.2t-0.2 0.4v5.5q0 0.3 0.2 0.4t0.4 0.2h21.1q0.2 0 0.4-0.2t0.1-0.4z m-21.3-8.3h20.5l-2.7-8.4q-0.1-0.2-0.3-0.3t-0.5-0.2h-13.6q-0.2 0-0.4 0.2t-0.3 0.3l-2.7 8.4z m23.6 2.8v5.5q0 1.2-0.8 2t-2 0.8h-21.1q-1.2 0-2-0.8t-0.8-2v-5.5q0-0.5 0.3-1.3l3.4-10.5q0.3-1 1.1-1.5t1.7-0.6h13.6q1 0 1.8 0.6t1.1 1.5l3.4 10.5q0.3 0.8 0.3 1.3z"></path></svg>