<?xml version="1.0"?><svg viewBox="0 0 40 40" xmlns="http://www.w3.org/2000/svg" height="40" width="40"><path d="m36.6 35.1q-0.9 0-2.8-0.1t-2.8 0q-1 0-2.8 0t-2.8 0.1q-0.5 0-0.8-0.4t-0.3-1q0-0.6 0.4-1t0.8-0.3 1.1-0.2 1-0.3q0.6-0.4 0.6-2.9l0-8.3q0-0.4 0-0.6-0.3-0.1-1-0.1h-14.3q-0.8 0-1.1 0.1 0 0.2 0 0.6l0 7.8q0 3 0.8 3.5 0.3 0.2 1 0.3t1.2 0.1 0.9 0.3 0.5 0.9q0 0.6-0.3 1t-0.8 0.5q-1 0-2.9-0.1t-2.9 0q-0.9 0-2.7 0t-2.7 0.1q-0.5 0-0.8-0.4t-0.2-1q0-0.6 0.3-0.9t0.8-0.4 1-0.2 0.8-0.3q0.7-0.5 0.7-3l0-1.2v-17.2q0 0 0-0.5t0-0.8 0-0.8-0.1-0.9-0.1-0.7-0.2-0.7-0.4-0.4q-0.3-0.2-0.9-0.2t-1.1-0.1-0.9-0.3-0.4-0.9q0-0.6 0.3-1t0.7-0.5q1 0 2.9 0.1t3 0q0.8 0 2.6 0t2.7-0.1q0.5 0 0.8 0.5t0.3 1q0 0.6-0.4 0.9t-0.8 0.3-1.1 0.1-0.9 0.3q-0.7 0.4-0.7 3.3l0 6.8q0 0.4 0 0.7 0.3 0 0.9 0h14.7q0.5 0 0.8 0 0-0.3 0-0.7l0-6.8q0-2.9-0.7-3.3-0.4-0.3-1.2-0.3t-1.4-0.3-0.6-1q0-0.6 0.3-1t0.8-0.5q0.9 0 2.8 0.1t2.8 0q0.9 0 2.7 0t2.7-0.1q0.5 0 0.8 0.5t0.3 1q0 0.6-0.4 0.9t-0.8 0.3-1.1 0.1-1 0.2q-0.7 0.5-0.7 3.4l0 19.9q0 2.5 0.7 3 0.4 0.2 1 0.3t1.1 0.1 0.9 0.3 0.4 0.9q0 0.6-0.3 1t-0.7 0.5z"></path></svg>