<?xml version="1.0"?><svg viewBox="0 0 40 40" xmlns="http://www.w3.org/2000/svg" height="40" width="40"><path d="m29.2 32.4q-0.8 0-2.3 0t-2.3-0.1q-0.8 0-2.3 0.1t-2.3 0q-0.4 0-0.6-0.3t-0.3-0.8q0-0.6 0.3-0.8t0.7-0.3q0.4 0 0.9-0.1t0.8-0.3q0.5-0.4 0.5-2.4l0-6.8q0-0.4 0-0.5-0.2-0.1-0.9-0.1h-11.7q-0.6 0-0.9 0.1 0 0.1 0 0.5l0 6.4q0 2.5 0.6 2.9 0.3 0.2 0.9 0.2t1 0.1q0.4 0 0.7 0.2t0.4 0.8q0 0.5-0.2 0.8t-0.7 0.4q-0.8 0-2.4 0t-2.4-0.1q-0.7 0-2.2 0.1t-2.2 0q-0.4 0-0.6-0.3t-0.2-0.8q0-0.5 0.2-0.8t0.7-0.3q0.3 0 0.8-0.1t0.7-0.3q0.6-0.4 0.6-2.5l0-1v-14.1q0 0 0-0.4t0-0.7q0-0.2-0.1-0.6t0-0.8q-0.1-0.3-0.1-0.6t-0.2-0.5q-0.1-0.3-0.3-0.4-0.3-0.1-0.8-0.2t-0.9 0q-0.4 0-0.7-0.2t-0.3-0.8q0-0.5 0.2-0.9t0.6-0.3q0.8 0 2.4 0t2.4 0.1q0.7 0 2.2-0.1t2.2 0q0.4 0 0.7 0.3t0.2 0.9q0 0.5-0.3 0.7t-0.7 0.3q-0.4 0-0.8 0.1t-0.8 0.2q-0.6 0.3-0.6 2.8l0 5.5q0 0.4 0 0.6 0.3 0 0.7 0h12.1q0.5 0 0.7 0 0-0.2 0-0.6l0-5.5q0-2.5-0.6-2.8-0.3-0.2-1-0.2t-1.1-0.3q-0.5-0.2-0.5-0.8 0-0.5 0.2-0.9t0.7-0.3q0.8 0 2.3 0t2.3 0.1q0.7 0 2.2-0.1t2.3 0q0.4 0 0.6 0.3t0.2 0.9q0 0.5-0.3 0.7t-0.7 0.3q-0.4 0-0.9 0t-0.7 0.3q-0.6 0.4-0.6 2.8l0 16.3q0 2.1 0.6 2.5 0.3 0.1 0.8 0.2t0.9 0.1q0.4 0 0.7 0.2t0.3 0.8q0 0.5-0.2 0.8t-0.6 0.4z"></path></svg>