<svg viewBox="0 0 1664 1896.0833" xmlns="http://www.w3.org/2000/svg"><path d="m1664 886q0 166-60 314l-20 49-185 33q-22 83-90.5 136.5t-156.5 53.5v32q0 14-9 23t-23 9h-64q-14 0-23-9t-9-23v-576q0-14 9-23t23-9h64q14 0 23 9t9 23v32q71 0 130 35.5t93 95.5l68-12q29-95 29-193 0-148-88-279t-236.5-209-315.5-78-315.5 78-236.5 209-88 279q0 98 29 193l68 12q34-60 93-95.5t130-35.5v-32q0-14 9-23t23-9h64q14 0 23 9t9 23v576q0 14-9 23t-23 9h-64q-14 0-23-9t-9-23v-32q-88 0-156.5-53.5t-90.5-136.5l-185-33-20-49q-60-148-60-314 0-151 67-291t179-242.5 266-163.5 320-61 320 61 266 163.5 179 242.5 67 291z"/></svg>