<?xml version="1.0"?><svg xmlns="http://www.w3.org/2000/svg" width="40" height="40" viewBox="0 0 40 40"><path d="m20 37.142857142857146q-0.5799999999999983 0-0.9828571428571422-0.3999999999999986l-13.928571428571429-13.438571428571429q-0.22285714285714242-0.17857142857142705-0.6142857142857139-0.5799999999999983t-1.2385714285714284-1.46142857142857-1.5171428571428573-2.1757142857142853-1.1942857142857142-2.6999999999999993-0.5242857142857151-3.08142857142858q0-4.91 2.8342857142857145-7.677142857142857t7.8342857142857145-2.771428571428572q1.3857142857142861 0 2.8242857142857147 0.48t2.678571428571427 1.2942857142857145 2.1314285714285717 1.5285714285714285 1.6971428571428575 1.5200000000000005q0.8028571428571425-0.8028571428571434 1.6971428571428575-1.517142857142857t2.1314285714285717-1.5285714285714285 2.6785714285714306-1.2942857142857145 2.8242857142857147-0.48q5 0 7.834285714285713 2.7671428571428573t2.8342857142857127 7.677142857142857q0 4.9328571428571415-5.1114285714285685 10.042857142857141l-13.905714285714286 13.394285714285715q-0.3999999999999986 0.3999999999999986-0.9828571428571422 0.3999999999999986z"></path></svg>