<?xml version="1.0"?><svg viewBox="0 0 40 40" xmlns="http://www.w3.org/2000/svg" height="40" width="40"><path d="m28.1 21.6h6.4q-0.1 0.1-0.2 0.2t-0.2 0.2l0 0.1-13.2 12.6q-0.4 0.4-0.9 0.4t-0.9-0.4l-13.2-12.7q-0.1 0-0.4-0.4h7.7q0.5 0 0.9-0.3t0.5-0.7l1.4-5.9 4 14q0.2 0.5 0.5 0.7t0.9 0.3q0.4 0 0.8-0.3t0.4-0.7l3.1-10.2 1.2 2.4q0.4 0.7 1.2 0.7z m10.8-9q0 3-2.2 6.3h-7.8l-2.3-4.7q-0.2-0.3-0.5-0.5t-0.8-0.2q-1 0.1-1.2 1l-2.7 9-4.1-14.4q-0.2-0.5-0.5-0.7t-0.9-0.3-0.8 0.3-0.5 0.7l-2.4 9.8h-8.9q-2.2-3.3-2.2-6.3 0-4.7 2.7-7.3t7.4-2.6q1.3 0 2.7 0.5t2.5 1.2 2 1.4 1.6 1.5q0.8-0.8 1.6-1.5t2-1.4 2.5-1.2 2.7-0.5q4.7 0 7.4 2.6t2.7 7.3z"></path></svg>