<?xml version="1.0"?><svg viewBox="0 0 40 40" xmlns="http://www.w3.org/2000/svg" height="40" width="40"><path d="m22.2 21.3h5.3q-0.1 0.1-0.2 0.2t-0.1 0.1l-0.1 0.1-10.8 10.4q-0.3 0.3-0.7 0.3t-0.8-0.3l-10.8-10.4q-0.1-0.1-0.4-0.4h6.4q0.4 0 0.7-0.2t0.4-0.6l1.2-4.9 3.3 11.6q0.1 0.3 0.4 0.6t0.7 0.2q0.3 0 0.6-0.2t0.4-0.6l2.6-8.4 0.9 1.9q0.3 0.6 1 0.6z m8.9-7.4q0 2.5-1.8 5.2h-6.4l-1.9-3.8q-0.1-0.3-0.5-0.5t-0.6-0.1q-0.8 0-1 0.8l-2.2 7.4-3.4-11.9q-0.1-0.3-0.4-0.6t-0.7-0.2q-0.4 0-0.7 0.2t-0.4 0.6l-2 8.1h-7.3q-1.8-2.7-1.8-5.2 0-3.8 2.2-6t6.1-2.1q1.1 0 2.2 0.3t2.1 1q0.9 0.7 1.6 1.2t1.4 1.2q0.6-0.6 1.3-1.2t1.6-1.2q1-0.6 2.1-1t2.2-0.3q3.9 0 6.1 2.1t2.2 6z"></path></svg>