<?xml version="1.0"?><svg viewBox="0 0 40 40" xmlns="http://www.w3.org/2000/svg" height="40" width="40"><path d="m36.2 12.6q0-1.7-0.5-3t-1.1-2.1-1.7-1.3-2-0.6-2.1-0.2-2.3 0.5-2.4 1.4-1.8 1.5-1.3 1.3q-0.3 0.5-1 0.5t-1-0.5q-0.5-0.6-1.3-1.3t-1.8-1.5-2.4-1.4-2.3-0.5-2.1 0.2-2 0.6-1.7 1.3-1.1 2.1-0.5 3q0 3.5 3.9 7.5l12.3 11.8 12.2-11.8q4-4 4-7.5z m2.7 0q0 4.6-4.8 9.5l-13.2 12.6q-0.4 0.4-0.9 0.4t-0.9-0.4l-13.2-12.7q-0.2-0.1-0.6-0.5t-1.1-1.4-1.5-2.1-1.1-2.5-0.5-2.9q0-4.7 2.7-7.3t7.4-2.6q1.3 0 2.7 0.5t2.5 1.2 2 1.4 1.6 1.5q0.8-0.8 1.6-1.5t2-1.4 2.5-1.2 2.7-0.5q4.7 0 7.4 2.6t2.7 7.3z"></path></svg>