<?xml version="1.0"?><svg viewBox="0 0 40 40" xmlns="http://www.w3.org/2000/svg" height="40" width="40"><path d="m25.6 13.9q1.1 2.5 1.1 5.2t-1.1 5.2q-1.1 2.4-2.8 4.2t-4.3 2.9q-2.5 1-5.2 1-3 0-5.6-1.2t-4.6-3.6q-0.1-0.2-0.1-0.4t0.1-0.3l2.4-2.4q0.2-0.2 0.4-0.2 0.3 0.1 0.4 0.2 1.3 1.7 3.1 2.6t3.9 0.9q1.8 0 3.5-0.7t2.8-1.9q1.2-1.2 1.9-2.9t0.7-3.4q0-1.8-0.7-3.4t-1.9-2.9q-1.2-1.2-2.8-1.9t-3.5-0.7q-1.7 0-3.2 0.6t-2.8 1.8l2.4 2.4q0.5 0.5 0.2 1.2-0.3 0.7-1 0.7h-7.8q-0.4 0-0.8-0.4t-0.3-0.7v-7.8q0-0.7 0.7-1 0.7-0.3 1.2 0.2l2.2 2.2q1.9-1.7 4.3-2.7t4.9-0.9q2.7 0 5.2 1t4.3 2.9q1.7 1.8 2.8 4.2z m-10 0.2v7.8q0 0.2-0.2 0.4t-0.4 0.1h-5.6q-0.2 0-0.4-0.1t-0.1-0.4v-1.1q0-0.3 0.1-0.4t0.4-0.2h3.9v-6.1q0-0.2 0.2-0.4t0.4-0.2h1.1q0.2 0 0.4 0.2t0.2 0.4z"></path></svg>