<?xml version="1.0"?><svg viewBox="0 0 40 40" xmlns="http://www.w3.org/2000/svg" height="40" width="40"><path d="m24.4 20.8v8.3q0 0.4-0.3 0.8t-0.8 0.3h-6.6v-6.7h-4.5v6.7h-6.6q-0.5 0-0.8-0.3t-0.4-0.8v-8.3q0-0.1 0.1-0.1t0 0l9.9-8.3 10 8.3q0 0 0 0.1z m3.9-1.2l-1.1 1.2q-0.1 0.2-0.3 0.2h-0.1q-0.2 0-0.3-0.1l-12.1-10-12 10q-0.2 0.2-0.4 0.1-0.2 0-0.4-0.2l-1-1.2q-0.2-0.2-0.1-0.4t0.1-0.4l12.5-10.4q0.6-0.5 1.3-0.5t1.4 0.5l4.2 3.5v-3.4q0-0.2 0.2-0.4t0.4-0.1h3.3q0.2 0 0.4 0.1t0.1 0.4v7.1l3.8 3.2q0.2 0.1 0.2 0.4t-0.1 0.4z"></path></svg>