<?xml version="1.0"?><svg xmlns="http://www.w3.org/2000/svg" width="40" height="40" viewBox="0 0 40 40"><path d="m12.857142857142858 29.285714285714285v1.428571428571427q0 0.28999999999999915-0.21142857142857174 0.5028571428571418t-0.5028571428571436 0.21142857142857707h-1.4285714285714288q-0.2900000000000009 0-0.5028571428571436-0.21142857142856997t-0.21142857142856997-0.5028571428571453v-1.428571428571427q0-0.28999999999999915 0.21142857142857174-0.5028571428571418t0.5028571428571436-0.21142857142857352h1.4285714285714288q0.2900000000000009 0 0.5028571428571436 0.21142857142856997t0.21142857142856997 0.5028571428571418z m0-5.714285714285715v1.428571428571427q0 0.28999999999999915-0.21142857142857174 0.5028571428571418t-0.5028571428571436 0.21142857142857707h-1.4285714285714288q-0.2900000000000009 0-0.5028571428571436-0.21142857142856997t-0.21142857142856997-0.5028571428571453v-1.428571428571427q0-0.28999999999999915 0.21142857142857174-0.5028571428571418t0.5028571428571436-0.21142857142857352h1.4285714285714288q0.2900000000000009 0 0.5028571428571436 0.21142857142856997t0.21142857142856997 0.5028571428571453z m5.714285714285715 0v1.428571428571427q0 0.28999999999999915-0.21142857142856997 0.5028571428571418t-0.5028571428571453 0.21142857142857707h-1.428571428571427q-0.28999999999999915 0-0.5028571428571436-0.21142857142856997t-0.21142857142857174-0.5028571428571453v-1.428571428571427q0-0.28999999999999915 0.21142857142857174-0.5028571428571418t0.5028571428571436-0.21142857142857352h1.428571428571427q0.28999999999999915 0 0.5028571428571418 0.21142857142856997t0.21142857142857352 0.5028571428571453z m-5.714285714285715-5.714285714285715v1.428571428571427q0 0.28999999999999915-0.21142857142857174 0.5028571428571418t-0.5028571428571436 0.21142857142857707h-1.4285714285714288q-0.2900000000000009 0-0.5028571428571436-0.21142857142856997t-0.21142857142856997-0.5028571428571453v-1.428571428571427q0-0.28999999999999915 0.21142857142857174-0.5028571428571418t0.5028571428571436-0.21142857142857352h1.4285714285714288q0.2900000000000009 0 0.5028571428571436 0.21142857142856997t0.21142857142856997 0.5028571428571453z m17.142857142857142 11.42857142857143v1.428571428571427q0 0.28999999999999915-0.21142857142856997 0.5028571428571418t-0.5028571428571453 0.21142857142857707h-1.428571428571427q-0.28999999999999915 0-0.5028571428571418-0.21142857142856997t-0.21142857142857352-0.5028571428571453v-1.428571428571427q0-0.28999999999999915 0.21142857142856997-0.5028571428571418t0.5028571428571453-0.21142857142857352h1.428571428571427q0.28999999999999915 0 0.5028571428571418 0.21142857142856997t0.21142857142857352 0.5028571428571418z m-5.714285714285715-5.714285714285715v1.428571428571427q0 0.28999999999999915-0.21142857142856997 0.5028571428571418t-0.5028571428571418 0.21142857142857707h-1.428571428571427q-0.28999999999999915 0-0.5028571428571418-0.21142857142856997t-0.21142857142857352-0.5028571428571453v-1.428571428571427q0-0.28999999999999915 0.21142857142856997-0.5028571428571418t0.5028571428571418-0.21142857142857352h1.428571428571427q0.28999999999999915 0 0.5028571428571418 0.21142857142856997t0.21142857142857352 0.5028571428571453z m-5.714285714285715-5.714285714285715v1.428571428571427q0 0.28999999999999915-0.21142857142856997 0.5028571428571418t-0.5028571428571418 0.21142857142857707h-1.428571428571427q-0.28999999999999915 0-0.5028571428571436-0.21142857142856997t-0.21142857142857174-0.5028571428571453v-1.428571428571427q0-0.28999999999999915 0.21142857142857174-0.5028571428571418t0.5028571428571436-0.21142857142857352h1.428571428571427q0.28999999999999915 0 0.5028571428571418 0.21142857142856997t0.21142857142857352 0.5028571428571453z m11.42857142857143 5.714285714285715v1.428571428571427q0 0.28999999999999915-0.21142857142856997 0.5028571428571418t-0.5028571428571453 0.21142857142857707h-1.428571428571427q-0.28999999999999915 0-0.5028571428571418-0.21142857142856997t-0.21142857142857352-0.5028571428571453v-1.428571428571427q0-0.28999999999999915 0.21142857142856997-0.5028571428571418t0.5028571428571453-0.21142857142857352h1.428571428571427q0.28999999999999915 0 0.5028571428571418 0.21142857142856997t0.21142857142857352 0.5028571428571453z m-5.714285714285715-5.714285714285715v1.428571428571427q0 0.28999999999999915-0.21142857142856997 0.5028571428571418t-0.5028571428571418 0.21142857142857707h-1.428571428571427q-0.28999999999999915 0-0.5028571428571418-0.21142857142856997t-0.21142857142857352-0.5028571428571453v-1.428571428571427q0-0.28999999999999915 0.21142857142856997-0.5028571428571418t0.5028571428571418-0.21142857142857352h1.428571428571427q0.28999999999999915 0 0.5028571428571418 0.21142857142856997t0.21142857142857352 0.5028571428571453z m5.714285714285715 0v1.428571428571427q0 0.28999999999999915-0.21142857142856997 0.5028571428571418t-0.5028571428571453 0.21142857142857707h-1.428571428571427q-0.28999999999999915 0-0.5028571428571418-0.21142857142856997t-0.21142857142857352-0.5028571428571453v-1.428571428571427q0-0.28999999999999915 0.21142857142856997-0.5028571428571418t0.5028571428571453-0.21142857142857352h1.428571428571427q0.28999999999999915 0 0.5028571428571418 0.21142857142856997t0.21142857142857352 0.5028571428571453z m-5.714285714285715 19.285714285714292h8.57142857142857v-25.714285714285715h-5.714285714285715v0.7142857142857117q0 0.8928571428571423-0.6257142857142846 1.5171428571428578t-1.5171428571428542 0.6257142857142863h-10q-0.8928571428571423 0-1.5171428571428578-0.6257142857142863t-0.6257142857142846-1.5171428571428578v-0.7142857142857135h-5.714285714285714v25.714285714285715h8.571428571428573v-5q0-0.28999999999999915 0.21142857142857174-0.5028571428571418t0.5028571428571436-0.21142857142857352h7.142857142857142q0.28999999999999915 0 0.5028571428571418 0.21142857142856997t0.21142857142856997 0.5028571428571453v5z m0-26.42857142857143v-7.142857142857143q0-0.29000000000000004-0.21142857142856997-0.5028571428571427t-0.5028571428571418-0.2114285714285722h-1.428571428571427q-0.28999999999999915 0-0.5028571428571418 0.2114285714285713t-0.21142857142857352 0.5028571428571431v2.142857142857143h-2.8571428571428577v-2.142857142857143q0-0.29000000000000004-0.21142857142856997-0.5028571428571431t-0.5028571428571453-0.2114285714285713h-1.428571428571427q-0.28999999999999915 0-0.5028571428571436 0.2114285714285713t-0.21142857142857174 0.5028571428571431v7.142857142857144q0 0.28999999999999915 0.21142857142857174 0.5028571428571436t0.5028571428571436 0.21142857142856997h1.428571428571427q0.28999999999999915 0 0.5028571428571418-0.21142857142857174t0.21142857142857352-0.5028571428571418v-2.142857142857144h2.8571428571428577v2.1428571428571423q0 0.2900000000000009 0.21142857142856997 0.5028571428571436t0.5028571428571418 0.21142857142857174h1.428571428571427q0.28999999999999915 0 0.5028571428571418-0.21142857142857174t0.21142857142857352-0.5028571428571418z m11.42857142857143-0.7142857142857135v28.571428571428577q0 0.5799999999999983-0.42428571428571615 1.0042857142857144t-1.0042857142857144 0.42428571428570905h-28.57142857142857q-0.580000000000001 0-1.0042857142857153-0.42428571428571615t-0.4242857142857144-1.0042857142857144v-28.57142857142857q0-0.5800000000000001 0.4242857142857144-1.0042857142857144t1.0042857142857144-0.4242857142857144h7.142857142857143v-6.428571428571429q0-0.8928571428571423 0.6257142857142863-1.517142857142857t1.517142857142856-0.6257142857142854h10q0.8928571428571423 0 1.5171428571428578 0.6257142857142858t0.6257142857142846 1.517142857142857v6.428571428571429h7.142857142857142q0.5799999999999983 0 1.0042857142857144 0.4242857142857144t0.42428571428571615 1.0042857142857144z"></path></svg>