<?xml version="1.0"?><svg xmlns="http://www.w3.org/2000/svg" width="40" height="40" viewBox="0 0 40 40"><path d="m34.285714285714285 2.857142857142857q0 5.825714285714286-2.3771428571428572 10.3t-5.948571428571427 6.842857142857142q3.571428571428573 2.3657142857142865 5.948571428571427 6.842857142857142t2.3771428571428572 10.300000000000004h2.142857142857146q0.3142857142857167 0 0.5142857142857125 0.20000000000000284t0.20000000000000284 0.5142857142857125v1.4285714285714306q0 0.3142857142857167-0.20000000000000284 0.5142857142857125t-0.5142857142857125 0.20000000000000284h-32.85714285714286q-0.3142857142857123 0-0.514285714285712-0.20000000000000284t-0.20000000000000018-0.5142857142857196v-1.4285714285714306q0-0.3142857142857167 0.20000000000000018-0.5142857142857125t0.5142857142857142-0.19999999999999574h2.142857142857143q0-5.825714285714287 2.377142857142858-10.3t5.948571428571427-6.842857142857145q-3.571428571428571-2.3657142857142865-5.948571428571428-6.842857142857143t-2.3771428571428563-10.299999999999999h-2.142857142857143q-0.3142857142857145-4.440892098500626e-16-0.5142857142857142-0.20000000000000062t-0.20000000000000018-0.5142857142857142v-1.4285714285714286q0-0.31428571428571417 0.20000000000000018-0.5142857142857142t0.5142857142857142-0.19999999999999996h32.85714285714286q0.3142857142857167 0 0.5142857142857125 0.2t0.20000000000000284 0.5142857142857142v1.4285714285714286q0 0.3142857142857145-0.20000000000000284 0.5142857142857142t-0.5142857142857125 0.20000000000000018h-2.142857142857146z m-2.8571428571428577 0h-22.857142857142854q-1.7763568394002505e-15 4.6 1.897142857142855 8.571428571428571h19.06285714285714q1.8971428571428604-3.9714285714285715 1.8971428571428604-8.571428571428571z m-1.2714285714285722 27.142857142857142q-1.2071428571428555-3.147142857142857-3.2485714285714273-5.390000000000001t-4.342857142857142-3.181428571428569h-5.132857142857141q-2.3000000000000007 0.937142857142856-4.342857142857143 3.1814285714285724t-3.2442857142857147 5.389999999999997h20.314285714285717z"></path></svg>