<?xml version="1.0"?><svg viewBox="0 0 40 40" xmlns="http://www.w3.org/2000/svg" height="40" width="40"><path d="m24.4 5.8q0 4.500000000000001-1.8000000000000007 8t-4.599999999999998 5.300000000000001q2.6999999999999993 1.8000000000000007 4.600000000000001 5.300000000000001t1.8000000000000007 8.000000000000004h1.6999999999999993q0.3000000000000007 0 0.3999999999999986 0.20000000000000284t0.1999999999999993 0.3999999999999986v1.1000000000000014q0 0.20000000000000284-0.1999999999999993 0.3999999999999986t-0.3999999999999986 0.20000000000000284h-25.5q-0.30000000000000143 0-0.40000000000000147-0.20000000000000284t-0.2-0.3999999999999986v-1.1000000000000085q0-0.29999999999999716 0.2-0.3999999999999986t0.4-0.20000000000000284h1.6q0-4.5 1.8999999999999995-8t4.6-5.300000000000001q-2.8-1.8000000000000007-4.6-5.300000000000001t-1.9-8h-1.5999999999999996q-0.3000000000000001 0-0.40000000000000013-0.20000000000000018t-0.19999999999999996-0.3999999999999968v-1.1000000000000005q0-0.20000000000000018 0.2-0.3999999999999999t0.4000000000000001-0.20000000000000018h25.5q0.3000000000000007 0 0.3999999999999986 0.20000000000000018t0.1999999999999993 0.3999999999999999v1.0999999999999996q0 0.2999999999999998-0.1999999999999993 0.40000000000000036t-0.3999999999999986 0.20000000000000018h-1.6999999999999993z m-2.1999999999999993 0h-17.799999999999997q-1.7763568394002505e-15 1.1000000000000005 0.1999999999999984 2.2h17.5q0.10000000000000142-1.0999999999999996 0.10000000000000142-2.2z m0 26.599999999999998q0-2.1999999999999993-0.6000000000000014-4.300000000000001t-1.5-3.6000000000000014q-1-1.5-2.1999999999999993-2.6999999999999993t-2.5999999999999996-1.6000000000000014h-4q-1.3000000000000007 0.5-2.5 1.6000000000000014t-2.2 2.6999999999999993q-0.9999999999999991 1.5000000000000036-1.5999999999999988 3.600000000000005t-0.5999999999999996 4.299999999999997h17.800000000000004z"></path></svg>