<svg viewBox="0 0 1637.0876 1896.0833" xmlns="http://www.w3.org/2000/svg"><path d="m1408 128q0 261-106.5 461.5t-266.5 306.5q160 106 266.5 306.5t106.5 461.5h96q14 0 23 9t9 23v64q0 14-9 23t-23 9h-1472q-14 0-23-9t-9-23v-64q0-14 9-23t23-9h96q0-261 106.5-461.5t266.5-306.5q-160-106-266.5-306.5t-106.5-461.5h-96q-14 0-23-9t-9-23v-64q0-14 9-23t23-9h1472q14 0 23 9t9 23v64q0 14-9 23t-23 9h-96z m-128 0h-1024q0 66 9 128h1006q9-61 9-128z m0 1536q0-130-34-249.5t-90.5-208-126.5-152-146-94.5h-230q-76 31-146 94.5t-126.5 152-90.5 208-34 249.5h1024z"/></svg>