<?xml version="1.0"?><svg viewBox="0 0 40 40" xmlns="http://www.w3.org/2000/svg" height="40" width="40"><path d="m32.4 2.7q0 5.5-2.2 9.7t-5.6 6.5q3.3 2.2 5.6 6.5t2.2 9.7h2.1q0.3 0 0.4 0.2t0.2 0.5v1.3q0 0.3-0.2 0.5t-0.4 0.2h-31.1q-0.3 0-0.5-0.2t-0.2-0.5v-1.3q0-0.3 0.2-0.5t0.5-0.2h2q0-5.5 2.3-9.7t5.6-6.5q-3.4-2.2-5.6-6.5t-2.3-9.7h-2q-0.3 0-0.5-0.2t-0.2-0.5v-1.3q0-0.3 0.2-0.5t0.5-0.2h31.1q0.3 0 0.4 0.2t0.2 0.5v1.3q0 0.3-0.2 0.5t-0.4 0.2h-2.1z m-2.7 0h-21.6q0 1.4 0.2 2.7h21.2q0.2-1.3 0.2-2.7z m0 32.4q0-2.7-0.7-5.3t-1.9-4.3-2.7-3.3-3-1.9h-4.9q-1.6 0.6-3.1 1.9t-2.6 3.3-2 4.3-0.7 5.3h21.6z"></path></svg>