<?xml version="1.0"?><svg viewBox="0 0 40 40" xmlns="http://www.w3.org/2000/svg" height="40" width="40"><path d="m34.5 33.8q0.3 0 0.4 0.1t0.2 0.5v2.7q0 0.3-0.2 0.5t-0.4 0.2h-31.1q-0.3 0-0.5-0.2t-0.2-0.5v-2.7q0-0.3 0.2-0.5t0.5-0.1h31.1z m-29-1.4q0-1.2 0.3-2.3t0.6-2 1-1.8 1.1-1.6 1.4-1.5 1.4-1.2 1.5-1.2 1.4-1 1.4-0.9q-0.9-0.6-1.4-0.9t-1.4-1-1.5-1.2-1.4-1.2-1.4-1.5-1.1-1.6-1-1.8-0.6-2-0.3-2.3h26.9q-0.1 1.2-0.3 2.3t-0.7 2-0.9 1.8-1.2 1.6-1.3 1.5-1.4 1.2-1.5 1.2-1.4 1-1.4 0.9q0.9 0.6 1.4 0.9t1.4 1 1.5 1.2 1.4 1.2 1.3 1.5 1.2 1.6 0.9 1.8 0.7 2 0.3 2.3h-26.9z m29-32.4q0.3 0 0.4 0.2t0.2 0.5v2.7q0 0.3-0.2 0.5t-0.4 0.2h-31.1q-0.3 0-0.5-0.2t-0.2-0.5v-2.7q0-0.3 0.2-0.5t0.5-0.2h31.1z"></path></svg>