<?xml version="1.0"?><svg xmlns="http://www.w3.org/2000/svg" width="40" height="40" viewBox="0 0 40 40"><path d="m34.285714285714285 2.857142857142857q0 5.825714285714286-2.3771428571428572 10.3t-5.948571428571427 6.842857142857142q3.571428571428573 2.3657142857142865 5.948571428571427 6.842857142857142t2.3771428571428572 10.300000000000004h2.142857142857146q0.3142857142857167 0 0.5142857142857125 0.20000000000000284t0.20000000000000284 0.5142857142857125v1.4285714285714306q0 0.3142857142857167-0.20000000000000284 0.5142857142857125t-0.5142857142857125 0.20000000000000284h-32.85714285714286q-0.3142857142857123 0-0.514285714285712-0.20000000000000284t-0.20000000000000018-0.5142857142857196v-1.4285714285714306q0-0.3142857142857167 0.20000000000000018-0.5142857142857125t0.5142857142857142-0.19999999999999574h2.142857142857143q0-5.825714285714287 2.377142857142858-10.3t5.948571428571427-6.842857142857145q-3.571428571428571-2.3657142857142865-5.948571428571428-6.842857142857143t-2.3771428571428563-10.299999999999999h-2.142857142857143q-0.3142857142857145-4.440892098500626e-16-0.5142857142857142-0.20000000000000062t-0.20000000000000018-0.5142857142857142v-1.4285714285714286q0-0.31428571428571417 0.20000000000000018-0.5142857142857142t0.5142857142857142-0.19999999999999996h32.85714285714286q0.3142857142857167 0 0.5142857142857125 0.2t0.20000000000000284 0.5142857142857142v1.4285714285714286q0 0.3142857142857145-0.20000000000000284 0.5142857142857142t-0.5142857142857125 0.20000000000000018h-2.142857142857146z m-11.920000000000002 15.802857142857142q1.7185714285714297-0.6471428571428568 3.325714285714284-2.064285714285713t2.8900000000000006-3.404285714285715 2.064285714285713-4.685714285714285 0.78285714285715-5.6485714285714295h-22.85714285714286q1.7763568394002505e-15 2.9471428571428575 0.7800000000000011 5.647142857142857t2.064285714285715 4.685714285714287 2.8914285714285715 3.4057142857142857 3.325714285714284 2.064285714285713q0.4242857142857126 0.15714285714285836 0.6814285714285724 0.524285714285714t0.2571428571428598 0.8157142857142858-0.25714285714285623 0.8142857142857132-0.6828571428571415 0.5228571428571414q-3.0571428571428605 1.1385714285714315-5.445714285714288 4.377142857142861h15.624285714285715q-2.388571428571428-3.2385714285714293-5.4471428571428575-4.377142857142857-0.4242857142857126-0.15714285714285836-0.6814285714285724-0.524285714285714t-0.25714285714285623-0.8142857142857132 0.25714285714285623-0.8142857142857132 0.6814285714285724-0.5257142857142867z"></path></svg>