<?xml version="1.0"?><svg viewBox="0 0 40 40" xmlns="http://www.w3.org/2000/svg" height="40" width="40"><path d="m26.1 31.3q0.3 0 0.4 0.2t0.2 0.4v2.2q0 0.2-0.2 0.4t-0.4 0.2h-25.5q-0.3 0-0.4-0.2t-0.2-0.4v-2.2q0-0.3 0.2-0.4t0.4-0.2h25.5z m-23.8-1.1q0-0.9 0.2-1.9t0.6-1.6q0.3-0.7 0.8-1.5t0.9-1.3q0.4-0.6 1.1-1.2t1.1-1.1q0.5-0.4 1.3-0.9t1.1-0.9q0.4-0.2 1.2-0.7-0.8-0.5-1.2-0.8t-1.1-0.8q-0.8-0.5-1.3-0.9t-1.1-1.1q-0.7-0.6-1.1-1.2t-0.9-1.3q-0.5-0.8-0.8-1.5t-0.6-1.7q-0.2-0.9-0.2-1.8h22.1q0 0.9-0.3 1.8t-0.5 1.7q-0.3 0.7-0.8 1.5t-0.9 1.3q-0.4 0.6-1.1 1.2t-1.2 1.1q-0.4 0.4-1.2 0.9t-1.2 0.8q-0.3 0.3-1.1 0.8 0.8 0.5 1.1 0.7t1.2 0.9q0.8 0.5 1.2 0.9t1.2 1.1q0.7 0.6 1.1 1.2t0.9 1.3q0.5 0.8 0.8 1.5t0.5 1.6q0.3 1 0.3 1.9h-22.1z m23.8-26.7q0.3 0 0.4 0.2t0.2 0.4v2.2q0 0.3-0.2 0.4t-0.4 0.2h-25.5q-0.3 0-0.4-0.2t-0.2-0.4v-2.2q0-0.2 0.2-0.4t0.4-0.2h25.5z"></path></svg>