<?xml version="1.0"?><svg xmlns="http://www.w3.org/2000/svg" width="40" height="40" viewBox="0 0 40 40"><path d="m27.142857142857142 13.928571428571429v11.071428571428571q0 0.31428571428571317-0.1999999999999993 0.5142857142857125t-0.5142857142857125 0.20000000000000284h-3.571428571428573q-0.31428571428571317 0-0.514285714285716-0.1999999999999993t-0.1999999999999993-0.514285714285716v-11.071428571428571q0-2.5-1.7857142857142847-4.2857142857142865t-4.285714285714285-1.7857142857142856h-6.071428571428573v25.71428571428571q0 0.3142857142857167-0.1999999999999993 0.5142857142857125t-0.5142857142857142 0.20000000000000284h-3.571428571428572q-0.31428571428571406 0-0.5142857142857142-0.20000000000000284t-0.20000000000000018-0.5142857142857125v-30q0-0.31428571428571406 0.20000000000000018-0.5142857142857142t0.5142857142857142-0.19999999999999796h10.357142857142858q3.014285714285716 0 5.557142857142857 1.4857142857142862t4.0285714285714285 4.0285714285714285 1.4857142857142875 5.557142857142859z m8.571428571428573-10.357142857142858v19.642857142857146q0 3.0142857142857125-1.4857142857142875 5.557142857142857t-4.0285714285714285 4.028571428571425-5.557142857142857 1.4857142857142875h-10.357142857142856q-0.31428571428571495 0-0.5142857142857142-0.20000000000000284t-0.20000000000000107-0.5142857142857125v-21.42857142857143q0-0.31428571428571495 0.1999999999999993-0.5142857142857142t0.514285714285716-0.19999999999999574h3.571428571428571q0.31428571428571317 0 0.514285714285716 0.1999999999999993t0.1999999999999993 0.5142857142857142v17.142857142857142h6.071428571428573q2.5 0 4.285714285714285-1.7857142857142847t1.7857142857142847-4.285714285714285v-19.642857142857142q0-0.31428571428571583 0.1999999999999993-0.5142857142857156t0.514285714285716-0.20000000000000018h3.5714285714285694q0.3142857142857167 0 0.5142857142857125 0.20000000000000018t0.20000000000000284 0.5142857142857142z"></path></svg>