<?xml version="1.0"?><svg xmlns="http://www.w3.org/2000/svg" width="40" height="40" viewBox="0 0 40 40"><path d="m13.333333333333332 13.333333333333332q0 1.666666666666666-1.166666666666666 2.833333333333332t-2.833333333333334 1.1666666666666679-2.833333333333333-1.1666666666666679-1.166666666666666-2.833333333333332 1.166666666666667-2.833333333333332 2.833333333333332-1.1666666666666679 2.833333333333332 1.166666666666666 1.1666666666666679 2.833333333333334z m21.333333333333332 8v9.333333333333332h-29.333333333333332v-4l6.666666666666668-6.666666666666664 3.333333333333332 3.333333333333332 10.666666666666668-10.666666666666666z m2-14.666666666666666h-33.33333333333333q-0.2706666666666666 0-0.46933333333333316 0.19733333333333292t-0.19733333333333603 0.46933333333333405v25.333333333333332q0 0.2706666666666635 0.19733333333333336 0.4693333333333314t0.46933333333333316 0.19733333333333292h33.33333333333333q0.2706666666666635 0 0.4693333333333314-0.19733333333333292t0.19733333333333292-0.4693333333333314v-25.333333333333332q0-0.27066666666666706-0.19733333333333292-0.46933333333333316t-0.4693333333333314-0.19733333333333292z m3.3333333333333357 0.666666666666667v25.333333333333332q0 1.3733333333333348-0.978666666666669 2.3546666666666667t-2.3546666666666667 0.978666666666669h-33.33333333333333q-1.3733333333333333 0-2.3546666666666667-0.978666666666669t-0.978666666666669-2.3546666666666667v-25.333333333333332q0-1.373333333333333 0.9786666666666666-2.3546666666666667t2.3546666666666667-0.9786666666666655h33.33333333333333q1.3733333333333348 0 2.3546666666666667 0.9786666666666664t0.978666666666669 2.3546666666666667z"></path></svg>