<?xml version="1.0"?><svg viewBox="0 0 40 40" xmlns="http://www.w3.org/2000/svg" height="40" width="40"><path d="m6 17.6q0.1 0.1 0.1 0.4t-0.1 0.4l-5 5q-0.2 0.1-0.4 0.1-0.3 0-0.4-0.1t-0.2-0.4v-10q0-0.2 0.2-0.4t0.4-0.2q0.2 0 0.4 0.2l5 5z m25.1 8.7v3.4q0 0.2-0.2 0.3t-0.3 0.2h-30q-0.3 0-0.4-0.2t-0.2-0.3v-3.4q0-0.2 0.2-0.4t0.4-0.1h30q0.2 0 0.3 0.1t0.2 0.4z m0-6.6v3.3q0 0.2-0.2 0.4t-0.3 0.1h-18.9q-0.3 0-0.4-0.1t-0.2-0.4v-3.3q0-0.3 0.2-0.4t0.4-0.2h18.9q0.2 0 0.3 0.2t0.2 0.4z m0-6.7v3.3q0 0.2-0.2 0.4t-0.3 0.2h-18.9q-0.3 0-0.4-0.2t-0.2-0.4v-3.3q0-0.2 0.2-0.4t0.4-0.2h18.9q0.2 0 0.3 0.2t0.2 0.4z m0-6.7v3.4q0 0.2-0.2 0.3t-0.3 0.2h-30q-0.3 0-0.4-0.2t-0.2-0.3v-3.4q0-0.2 0.2-0.4t0.4-0.1h30q0.2 0 0.3 0.1t0.2 0.4z"></path></svg>