<?xml version="1.0"?><svg viewBox="0 0 40 40" xmlns="http://www.w3.org/2000/svg" height="40" width="40"><path d="m8.5 17.6q0 0.2-0.2 0.4l-6 6.1q-0.2 0.2-0.5 0.2-0.3 0-0.5-0.2t-0.2-0.5v-12.1q0-0.3 0.2-0.5t0.5-0.2q0.3 0 0.5 0.2l6 6.1q0.2 0.2 0.2 0.5z m30.4 10.1v4q0 0.3-0.2 0.5t-0.5 0.2h-36.4q-0.3 0-0.5-0.2t-0.2-0.5v-4q0-0.3 0.2-0.5t0.5-0.2h36.4q0.3 0 0.5 0.2t0.2 0.5z m0-8.1v4q0 0.3-0.2 0.5t-0.5 0.2h-22.9q-0.3 0-0.5-0.2t-0.2-0.5v-4q0-0.3 0.2-0.5t0.5-0.2h22.9q0.3 0 0.5 0.2t0.2 0.5z m0-8.1v4q0 0.3-0.2 0.5t-0.5 0.2h-22.9q-0.3 0-0.5-0.2t-0.2-0.5v-4q0-0.3 0.2-0.5t0.5-0.2h22.9q0.3 0 0.5 0.2t0.2 0.5z m0-8.1v4q0 0.3-0.2 0.5t-0.5 0.2h-36.4q-0.3 0-0.5-0.2t-0.2-0.5v-4q0-0.3 0.2-0.5t0.5-0.2h36.4q0.3 0 0.5 0.2t0.2 0.5z"></path></svg>