<?xml version="1.0"?><svg xmlns="http://www.w3.org/2000/svg" width="40" height="40" viewBox="0 0 40 40"><path d="m27.142857142857142 30v2.857142857142854q0 0.5799999999999983-0.4242857142857126 1.0042857142857144t-1.0042857142857144 0.42428571428571615h-11.428571428571429q-0.5800000000000001 0-1.0042857142857144-0.42428571428571615t-0.4242857142857144-1.0042857142857073v-2.8571428571428577q0-0.5800000000000018 0.4242857142857144-1.0042857142857144t1.0042857142857144-0.42428571428571615h1.4285714285714288v-8.571428571428573h-1.4285714285714288q-0.5800000000000001 0-1.0042857142857144-0.4242857142857126t-0.4242857142857144-1.0042857142857144v-2.8571428571428577q0-0.5800000000000001 0.4242857142857144-1.0042857142857144t1.0042857142857144-0.4242857142857144h8.571428571428571q0.5800000000000018 0 1.0042857142857144 0.4242857142857144t0.4242857142857126 1.0042857142857144v12.857142857142858h1.428571428571427q0.5800000000000018 0 1.0042857142857144 0.4242857142857126t0.42428571428571615 1.0042857142857144z m-2.8571428571428577-25.714285714285715v4.2857142857142865q0 0.5800000000000001-0.4242857142857126 1.0042857142857144t-1.0042857142857144 0.4242857142857144h-5.714285714285715q-0.5800000000000018 0-1.0042857142857144-0.4242857142857144t-0.4242857142857126-1.0042857142857144v-4.285714285714286q0-0.5800000000000001 0.4242857142857126-1.0042857142857144t1.0042857142857144-0.42428571428571393h5.714285714285715q0.5800000000000018 0 1.0042857142857144 0.4242857142857144t0.4242857142857126 1.004285714285714z"></path></svg>