<?xml version="1.0"?><svg viewBox="0 0 40 40" xmlns="http://www.w3.org/2000/svg" height="40" width="40"><path d="m17.8 27.4v-2.7q0-0.3-0.2-0.4t-0.4-0.2h-1.6v-8.9q0-0.2-0.2-0.4t-0.4-0.1h-5.6q-0.2 0-0.4 0.1t-0.1 0.4v2.8q0 0.2 0.1 0.4t0.4 0.1h1.7v5.6h-1.7q-0.2 0-0.4 0.2t-0.1 0.4v2.7q0 0.3 0.1 0.4t0.4 0.2h7.8q0.3 0 0.4-0.2t0.2-0.4z m-2.2-15.5v-2.8q0-0.2-0.2-0.4t-0.4-0.2h-3.3q-0.3 0-0.4 0.2t-0.2 0.4v2.8q0 0.2 0.2 0.4t0.4 0.1h3.3q0.2 0 0.4-0.1t0.2-0.4z m9.3 0.5q1.8 3.1 1.8 6.7t-1.8 6.7q-1.8 3.1-4.9 4.8t-6.7 1.8q-3.6 0-6.7-1.8t-4.8-4.8q-1.8-3.1-1.8-6.7t1.8-6.7q1.8-3.1 4.8-4.8t6.7-1.8q3.7 0 6.7 1.8t4.9 4.8z"></path></svg>