<?xml version="1.0"?><svg xmlns="http://www.w3.org/2000/svg" width="40" height="40" viewBox="0 0 40 40"><path d="m25.714285714285715 30.714285714285715v-3.571428571428573q0-0.31428571428571317-0.1999999999999993-0.514285714285716t-0.514285714285716-0.1999999999999993h-2.1428571428571423v-11.428571428571429q0-0.31428571428571495-0.1999999999999993-0.5142857142857142t-0.514285714285716-0.1999999999999975h-7.142857142857142q-0.31428571428571495 0-0.5142857142857142 0.1999999999999993t-0.1999999999999993 0.5142857142857142v3.571428571428573q0 0.31428571428571317 0.1999999999999993 0.514285714285716t0.5142857142857142 0.1999999999999993h2.1428571428571423v7.142857142857142h-2.1428571428571423q-0.31428571428571495 0-0.5142857142857142 0.1999999999999993t-0.1999999999999993 0.5142857142857125v3.571428571428573q0 0.31428571428571317 0.1999999999999993 0.5142857142857125t0.5142857142857142 0.1999999999999993h10q0.31428571428571317 0 0.5142857142857125-0.1999999999999993t0.1999999999999993-0.5142857142857125z m-2.8571428571428577-20v-3.571428571428572q0-0.31428571428571406-0.1999999999999993-0.5142857142857142t-0.5142857142857125-0.20000000000000018h-4.285714285714285q-0.31428571428571317 0-0.5142857142857125 0.20000000000000018t-0.2000000000000064 0.5142857142857142v3.571428571428572q0 0.31428571428571495 0.1999999999999993 0.5142857142857142t0.5142857142857125 0.1999999999999993h4.285714285714285q0.31428571428571317 0 0.5142857142857125-0.1999999999999993t0.2000000000000064-0.5142857142857142z m14.285714285714288 9.285714285714285q0 4.665714285714287-2.299999999999997 8.604285714285716t-6.237142857142857 6.238571428571426-8.605714285714292 2.3000000000000043-8.6-2.3000000000000043-6.242857142857143-6.238571428571426-2.295714285714286-8.604285714285716 2.3000000000000003-8.604285714285714 6.234285714285714-6.238571428571428 8.604285714285714-2.3000000000000003 8.605714285714285 2.3000000000000003 6.238571428571426 6.238571428571428 2.298571428571435 8.604285714285714z"></path></svg>