<?xml version="1.0"?><svg xmlns="http://www.w3.org/2000/svg" width="40" height="40" viewBox="0 -250 1536 1896.0833"><path fill="#444" d="M1024 640q0 106 -75 181t-181 75t-181 -75t-75 -181t75 -181t181 -75t181 75t75 181zM1162 640q0 -164 -115 -279t-279 -115t-279 115t-115 279t115 279t279 115t279 -115t115 -279zM1270 1050q0 -38 -27 -65t-65 -27t-65 27t-27 65t27 65t65 27t65 -27t27 -65zM768 1270 q-7 0 -76.5 0.5t-105.5 0t-96.5 -3t-103 -10t-71.5 -18.5q-50 -20 -88 -58t-58 -88q-11 -29 -18.5 -71.5t-10 -103t-3 -96.5t0 -105.5t0.5 -76.5t-0.5 -76.5t0 -105.5t3 -96.5t10 -103t18.5 -71.5q20 -50 58 -88t88 -58q29 -11 71.5 -18.5t103 -10t96.5 -3t105.5 0t76.5 0.5 t76.5 -0.5t105.5 0t96.5 3t103 10t71.5 18.5q50 20 88 58t58 88q11 29 18.5 71.5t10 103t3 96.5t0 105.5t-0.5 76.5t0.5 76.5t0 105.5t-3 96.5t-10 103t-18.5 71.5q-20 50 -58 88t-88 58q-29 11 -71.5 18.5t-103 10t-96.5 3t-105.5 0t-76.5 -0.5zM1536 640q0 -229 -5 -317 q-10 -208 -124 -322t-322 -124q-88 -5 -317 -5t-317 5q-208 10 -322 124t-124 322q-5 88 -5 317t5 317q10 208 124 322t322 124q88 5 317 5t317 -5q208 -10 322 -124t124 -322q5 -88 5 -317z"></path></svg>