<?xml version="1.0"?><svg viewBox="0 0 40 40" xmlns="http://www.w3.org/2000/svg" height="40" width="40"><path d="m16.7 3.5l16.599999999999998 6.699999999999999v2.1999999999999993h-2.1999999999999993q0 0.5-0.3000000000000007 0.8000000000000007t-0.8999999999999986 0.3000000000000007h-26.5q-0.49999999999999867 0-0.7999999999999989-0.3000000000000007t-0.3999999999999999-0.8000000000000007h-2.1999999999999997v-2.1999999999999993l16.7-6.7z m-12.299999999999999 11.2h4.5v13.3h2.200000000000001v-13.3h4.5v13.3h2.1999999999999993v-13.3h4.400000000000002v13.3h2.1999999999999993v-13.3h4.5v13.3h1q0.5 0 0.8999999999999986 0.3000000000000007t0.3000000000000007 0.8000000000000007v1.1000000000000014h-28.900000000000002v-1.1000000000000014q8.881784197001252e-16-0.5 0.4000000000000008-0.8000000000000007t0.8000000000000003-0.3000000000000007h1v-13.3z m27.700000000000003 16.6q0.5 0 0.8999999999999986 0.3000000000000007t0.29999999999999716 0.7999999999999972v2.299999999999997h-33.3v-2.299999999999997q0-0.3999999999999986 0.4-0.8000000000000007t0.8000000000000002-0.3000000000000007h30.900000000000002z"></path></svg>