<?xml version="1.0"?><svg viewBox="0 0 40 40" xmlns="http://www.w3.org/2000/svg" height="40" width="40"><path d="m32.5 30.1v-13.7h-2.8q0.4 1.3 0.4 2.8 0 2.6-1.3 4.9t-3.7 3.5-5.1 1.3q-4.1 0-7.1-2.8t-2.9-6.9q0-1.5 0.4-2.8h-3v13.7q0 0.5 0.4 0.9t0.9 0.4h22.5q0.6 0 1-0.4t0.3-0.9z m-6-11.3q0-2.6-1.9-4.4t-4.6-1.9q-2.7 0-4.6 1.9t-1.9 4.4 1.9 4.5 4.6 1.8q2.7 0 4.6-1.8t1.9-4.5z m6-7.6v-3.4q0-0.6-0.4-1.1t-1-0.4h-3.7q-0.6 0-1 0.4t-0.5 1.1v3.4q0 0.7 0.5 1.1t1 0.4h3.7q0.6 0 1-0.4t0.4-1.1z m3.7-4.3v24q0 1.8-1.2 3t-3 1.2h-24q-1.8 0-3-1.2t-1.2-3v-24q0-1.8 1.2-3t3-1.2h24q1.8 0 3 1.2t1.2 3z"></path></svg>