<?xml version="1.0"?><svg viewBox="0 0 40 40" xmlns="http://www.w3.org/2000/svg" height="40" width="40"><path d="m12.4 31.4q-2.5-0.6-4.5-2t-3.4-3.3q-2.5 5.2-0.3 6.9 0.4 0.4 1.4 0.4t2.3-0.1q1.1-0.2 2.4-0.7t2.1-1.2z m-0.4-14.4h7.9q0-1.9-1.1-3t-2.9-1q-1.8 0-2.8 1.1t-1.1 2.9z m17.9-6.5h-0.6q0.5-1.8 0.4-3t-0.4-1.9q-0.4-0.7-1.1-1t-1.6-0.2q-0.9 0.1-2 0.5t-2.3 1q-1.1 0.6-2.3 1.3 2.3 0.7 4.2 2t3.2 3.1q1.3 1.8 1.9 4t0.2 4.6h-17.4q0 1 0.2 1.8t0.6 1.5q0.4 0.7 1.2 1t1.9 0.4q1.5 0 2.5-0.8t1.3-2.1h9.3q-1.2 4-4.9 6.6t-8.2 2.5q-1.5 0-2.8-0.2-0.6 0.7-2.6 1.6t-4.3 1.3q-2.3 0.5-3.8-0.6-1.4-1-1.8-2.7t0.2-3.7q0.5-2 1.5-4.2t2.5-4.3q1.4-2.1 3-4t3.1-3.2q1.5-1.3 2.7-1.9v-0.4q-2.1 0.6-4.5 2.4t-4.2 3.6q-1.8 1.8-2.7 3.4 0-1.9 0.5-3.5t1.4-3q0.9-1.3 2.1-2.3t2.5-1.8q1.4-0.6 3-1.1t3.1-0.5q1.6-0.1 3.2 0.1 5.4-3.2 8.7-3.3h0.2q1 0 1.8 0.4 1.3 0.5 1.7 2.3t-0.6 4.3z"></path></svg>