<svg viewBox="0 0 1536 1896.0833" xmlns="http://www.w3.org/2000/svg"><path d="m1024 32q0-14 9-23t23-9h288q26 0 45 19t19 45v288q0 14-9 23t-23 9h-64q-14 0-23-9t-9-23v-134l-254 255q126 158 126 359 0 221-147.5 384.5t-364.5 187.5v132h96q14 0 23 9t9 23v64q0 14-9 23t-23 9h-96v96q0 14-9 23t-23 9h-64q-14 0-23-9t-9-23v-96h-96q-14 0-23-9t-9-23v-64q0-14 9-23t23-9h96v-132q-149-16-270.5-103t-186.5-223.5-53-291.5q16-204 160-353.5t347-172.5q118-14 228 19t198 103l255-254h-134q-14 0-23-9t-9-23v-64z m-448 1248q185 0 316.5-131.5t131.5-316.5-131.5-316.5-316.5-131.5-316.5 131.5-131.5 316.5 131.5 316.5 316.5 131.5z"/></svg>