<?xml version="1.0"?><svg viewBox="0 0 40 40" xmlns="http://www.w3.org/2000/svg" height="40" width="40"><path d="m16.2 33.9q-3-0.8-5.5-2.4t-4.2-4.1q-2.9 6.4-0.3 8.4 0.5 0.5 1.8 0.5t2.6-0.2 3-0.8 2.6-1.4z m-0.5-17.6h9.6q0-2.2-1.3-3.5t-3.6-1.3q-2.2 0-3.4 1.3t-1.3 3.5z m21.8-7.9h-0.7q0.5-2.1 0.4-3.6t-0.5-2.3-1.3-1.2-2-0.2-2.4 0.5-2.8 1.2-2.8 1.7q2.7 0.8 5.1 2.4t3.9 3.8 2.3 4.8 0.3 5.6h-21.2q0 1.2 0.2 2.2t0.7 1.8 1.5 1.3 2.4 0.4q1.8 0 3-0.9t1.5-2.6h11.4q-1.5 4.9-5.9 8t-10.1 3.1q-1.8 0-3.4-0.4-0.7 0.9-3.2 2t-5.2 1.7-4.6-0.8q-1.7-1.2-2.1-3.3t0.1-4.5 1.9-5.1 3-5.3 3.7-4.7 3.7-3.9 3.3-2.4v-0.5q-2.5 0.8-5.4 2.9t-5.1 4.4-3.4 4.1q0.1-2.2 0.8-4.2t1.6-3.6 2.5-2.9 3.1-2.1 3.6-1.4 3.8-0.6 3.9 0.2q6.5-3.9 10.6-4h0.2q1.2 0 2.1 0.4 1.7 0.6 2.1 2.8t-0.6 5.2z"></path></svg>