<?xml version="1.0"?><svg viewBox="0 0 40 40" xmlns="http://www.w3.org/2000/svg" height="40" width="40"><path d="m25.4 0.7q0-0.3 0.2-0.5t0.5-0.2h6.1q0.5 0 0.9 0.4t0.4 1v6q0 0.3-0.2 0.5t-0.5 0.2h-1.3q-0.3 0-0.5-0.2t-0.2-0.5v-2.8l-5.4 5.4q2.7 3.3 2.7 7.6 0 4.6-3.1 8.1t-7.7 3.9v2.8h2q0.3 0 0.5 0.2t0.2 0.5v1.3q0 0.3-0.2 0.5t-0.5 0.2h-2v2q0 0.3-0.2 0.5t-0.5 0.2h-1.3q-0.3 0-0.5-0.2t-0.2-0.5v-2h-2q-0.3 0-0.5-0.2t-0.2-0.5v-1.3q0-0.3 0.2-0.5t0.5-0.2h2v-2.8q-3.1-0.3-5.7-2.2t-3.9-4.7-1.2-6.1q0.4-4.3 3.4-7.5t7.3-3.6q2.5-0.3 4.8 0.4t4.2 2.2l5.4-5.4h-2.8q-0.3 0-0.5-0.2t-0.2-0.5v-1.3z m-9.5 26.3q4 0 6.7-2.8t2.8-6.6-2.8-6.7-6.7-2.8-6.6 2.8-2.8 6.7 2.8 6.6 6.6 2.8z"></path></svg>