<?xml version="1.0"?><svg viewBox="0 0 40 40" xmlns="http://www.w3.org/2000/svg" height="40" width="40"><path d="m8.2 35.1l0.3-1.8q0.2-0.1 1.8-0.5t2.3-0.8q0.6-0.7 0.9-2.1 0-0.2 1.3-6.1t2.4-11.5 1.1-6.2v-0.6q-0.5-0.2-1.2-0.3t-1.4-0.2-1.3-0.1l0.4-2.2q0.7 0 2.6 0.1t3.1 0.2 2.6 0q1 0 2.1 0t2.5-0.2 2.1-0.1q-0.1 0.8-0.4 1.9-0.6 0.2-2.2 0.6t-2.2 0.7q-0.2 0.4-0.3 0.9t-0.2 0.8-0.2 1-0.1 0.9q-0.6 3.1-1.9 8.8t-1.6 7.5q-0.1 0.2-0.3 1.2t-0.4 1.9-0.3 1.8-0.2 1.2l0.1 0.4q0.3 0.1 3.9 0.7-0.1 0.9-0.4 2-0.2 0-0.7 0.1t-0.7 0q-0.6 0-1.8-0.2t-1.8-0.2q-2.9-0.1-4.3-0.1-1.1 0-3.1 0.2t-2.5 0.3z"></path></svg>