<?xml version="1.0"?><svg viewBox="0 0 40 40" xmlns="http://www.w3.org/2000/svg" height="40" width="40"><path d="m0 32.4l0.3-1.5q0.1 0 1.4-0.4t1.9-0.6q0.5-0.6 0.8-1.8 0-0.1 1-5t2-9.4q0.9-4.6 0.9-5.2v-0.4q-0.4-0.2-0.9-0.3t-1.2-0.2q-0.7 0-1 0l0.3-1.8q0.6 0 2.1 0.1t2.6 0.1q1.1 0 2.1 0 0.8 0 1.7 0t2.1-0.1q1.2-0.1 1.7-0.1-0.1 0.6-0.4 1.5-0.5 0.2-1.7 0.5t-1.9 0.6q-0.1 0.3-0.2 0.7t-0.2 0.7q0 0.3-0.1 0.8t-0.1 0.7q-0.5 2.6-1.6 7.3t-1.3 6.2q0 0.1-0.2 1t-0.4 1.6q-0.1 0.7-0.3 1.4t-0.1 1l0.1 0.3q0.3 0.1 3.2 0.6-0.1 0.7-0.3 1.7-0.2 0-0.6 0t-0.5 0q-0.5 0-1.5-0.1t-1.5-0.2q-2.4-0.1-3.6-0.1-0.9 0-2.5 0.2t-2.1 0.2z"></path></svg>