<?xml version="1.0"?><svg xmlns="http://www.w3.org/2000/svg" width="40" height="40" viewBox="0 0 40 40"><path d="m26.74285714285714 23.95142857142857l-3.571428571428573 3.571428571428573-3.37142857142857 3.3928571428571423-0.6714285714285708 0.6714285714285708q-1.4499999999999993 1.428571428571427-3.380000000000001 1.9428571428571466t-3.828571428571429 0.04285714285714448q-0.35714285714285765 1.5628571428571405-1.6071428571428577 2.567142857142855t-2.8814285714285672 1.0028571428571453q-1.8971428571428577 0-3.2371428571428575-1.3500000000000014t-1.3371428571428567-3.2471428571428547q0-1.6071428571428577 0.9914285714285715-2.8571428571428577t2.532857142857143-1.6071428571428577q-0.4914285714285711-1.9200000000000017 0.02285714285714313-3.861428571428572t1.9642857142857135-3.3928571428571423l0.2671428571428578-0.2685714285714269 3.371428571428572 3.3928571428571423-0.24714285714285644 0.24571428571428555q-0.8257142857142856 0.8242857142857147-0.8257142857142856 1.985714285714284t0.8257142857142856 2.008571428571429q0.8257142857142856 0.8257142857142838 1.9857142857142858 0.8257142857142838t1.9885714285714275-0.8257142857142838l0.6714285714285708-0.6714285714285708 3.3685714285714283-3.3914285714285697 3.5942857142857143-3.571428571428573z m-7.61428571428571-15.222857142857139l0.2685714285714269 0.2657142857142851-3.3928571428571423 3.3914285714285715-0.2671428571428578-0.2657142857142851q-0.8257142857142856-0.8257142857142856-1.9857142857142858-0.8257142857142856t-1.9885714285714275 0.8257142857142856-0.8257142857142856 1.9971428571428564 0.8257142857142856 1.9971428571428564l7.611428571428572 7.611428571428572-3.37142857142857 3.3928571428571423-3.5928571428571434-3.571428571428573-3.371428571428572-3.3928571428571423-0.668571428571429-0.6714285714285708q-1.5185714285714287-1.4942857142857129-2.01-3.557142857142857t0.11142857142856943-4.011428571428571q-1.5599999999999996-0.33142857142857096-2.5642857142857136-1.5828571428571419t-1.0071428571428571-2.877142857142858q0-1.8971428571428577 1.342857142857143-3.2471428571428573t3.234285714285714-1.35q1.6971428571428575 0 2.9800000000000004 1.092857142857143t1.5528571428571425 2.7457142857142856q1.8757142857142863-0.4471428571428575 3.782857142857143 0.07857142857142829t3.335714285714287 1.9542857142857155z m18.014285714285716 23.814285714285717q0 1.8999999999999986-1.3399999999999963 3.248571428571431t-3.2371428571428638 1.3514285714285705q-1.6514285714285712 0-2.924285714285716-1.0499999999999972t-1.5857142857142854-2.634285714285717q-1.9200000000000017 0.6285714285714263-4.007142857142856 0.13571428571428612t-3.604285714285716-2.008571428571429l-0.24571428571428555-0.2685714285714269 3.37142857142857-3.3928571428571423 0.2657142857142851 0.2671428571428578q0.8257142857142838 0.8257142857142874 1.985714285714284 0.8257142857142874t1.9885714285714293-0.8257142857142838 0.8257142857142838-1.985714285714284-0.8257142857142838-1.9885714285714293l-7.634285714285717-7.634285714285717 3.395714285714295-3.3928571428571495 6.962857142857143 6.964285714285715 0.6471428571428568 0.6714285714285708q1.428571428571427 1.428571428571427 1.9528571428571446 3.3571428571428577t0.05714285714285694 3.828571428571429q1.6957142857142884 0.24714285714285822 2.8228571428571456 1.5285714285714285t1.1285714285714263 3.004285714285718z m-0.04285714285714448-25.085714285714285q0 1.717142857142857-1.1400000000000006 3.0114285714285707t-2.8342857142857127 1.5399999999999991q0.5799999999999983 1.8971428571428568 0.06714285714285495 3.9399999999999995t-2.00714285714286 3.537142857142859l-0.2685714285714269 0.2685714285714269-3.37142857142857-3.3928571428571423 0.2685714285714269-0.2671428571428578q0.8257142857142874-0.8257142857142856 0.8257142857142874-1.9857142857142858t-0.8257142857142838-1.9885714285714275-1.985714285714284-0.8257142857142856-1.9885714285714293 0.8257142857142856l-7.634285714285717 7.6342857142857135-3.3928571428571423-3.3928571428571423 3.5928571428571416-3.571428571428571 3.3928571428571423-3.3928571428571423 0.6471428571428568-0.6714285714285708q1.4957142857142856-1.4942857142857147 3.548571428571428-1.9957142857142856t3.9714285714285715 0.08000000000000007q0.24714285714285822-1.6742857142857144 1.5285714285714285-2.8142857142857145t3.0285714285714285-1.1385714285714306q1.8971428571428604 0 3.2371428571428567 1.35t1.3428571428571416 3.2471428571428573z"></path></svg>