<?xml version="1.0"?><svg xmlns="http://www.w3.org/2000/svg" width="40" height="40" viewBox="0 0 40 40"><path d="m35.15625 17.57875q2.167499999999997 0.8999999999999986 3.5062500000000014 2.8412499999999987t1.3374999999999986 4.324999999999999q0 3.2037499999999994-2.3049999999999997 5.48t-5.566250000000004 2.275000000000002q-0.07874999999999943 0-0.22500000000000142-0.00999999999999801t-0.2049999999999983-0.00999999999999801h-23.77125q-3.3199999999999994-0.19500000000000028-5.624999999999999-2.4499999999999993t-2.3024999999999993-5.480000000000004q0-2.1499999999999986 1.0725-3.965t2.8712500000000007-2.87125q-0.23375000000000012-0.7600000000000016-0.23375000000000012-1.6000000000000014 0-2.24625 1.6-3.8287499999999994t3.8900000000000006-1.5850000000000009q1.8550000000000004 0 3.360000000000001 1.1337499999999991 1.4649999999999999-3.0075000000000003 4.346249999999998-4.84375t6.377500000000001-1.8375000000000004q3.2424999999999997 0 5.975000000000001 1.5750000000000002t4.327500000000004 4.26625 1.5912500000000023 5.87875q0 0.11749999999999972-0.00999999999999801 0.3500000000000014t-0.00999999999999801 0.35249999999999915z m-26.015 5.196249999999999q0 2.3812500000000014 1.6412499999999994 3.7687500000000007t4.0625 1.3874999999999993q2.6750000000000007 0 4.6875-1.9349999999999987-0.3125-0.39124999999999943-0.9274999999999984-1.1037500000000016t-0.8500000000000014-0.9875000000000007q-1.3087499999999999 1.2712499999999984-2.8125 1.2712499999999984-1.0749999999999993 0-1.8249999999999993-0.6524999999999999t-0.754999999999999-1.7112499999999962q0-1.0337500000000013 0.7537500000000001-1.6975000000000016t1.7874999999999996-0.6625000000000014q0.8599999999999994 0 1.6500000000000004 0.4087500000000013t1.4250000000000007 1.0725000000000016 1.2712499999999984 1.4662499999999987 1.3475000000000037 1.6000000000000014 1.5037500000000001 1.4662499999999987 1.8962499999999984 1.0749999999999993 2.3724999999999987 0.4087500000000013q2.3625000000000007 0 3.9937499999999986-1.3962499999999984t1.6312500000000014-3.7212500000000013q0-2.3625000000000007-1.6412499999999994-3.75t-4.0425-1.3874999999999993q-2.7925000000000004 0-4.7075 1.8962499999999984 0.2749999999999986 0.3125 0.5749999999999993 0.6625000000000014t0.6750000000000007 0.7824999999999989 0.5662500000000001 0.6625000000000014q1.2875000000000014-1.25 2.7749999999999986-1.25 1.0124999999999993 0 1.7950000000000017 0.6449999999999996t0.7824999999999989 1.6412499999999994q0 1.1125000000000007-0.7225000000000001 1.7875000000000014t-1.8374999999999986 0.6724999999999994q-0.8374999999999986 0-1.6099999999999994-0.41000000000000014t-1.40625-1.0749999999999993-1.2787499999999987-1.4624999999999986-1.3575000000000017-1.6024999999999991-1.5124999999999993-1.4649999999999999-1.8874999999999993-1.0749999999999993-2.3125-0.4087500000000013q-2.383749999999999 0-4.043749999999999 1.375t-1.6587499999999995 3.7025000000000006z"></path></svg>