<?xml version="1.0"?><svg viewBox="0 0 40 40" xmlns="http://www.w3.org/2000/svg" height="40" width="40"><path d="m35.2 16.6q2.1 0.9 3.5 2.8t1.3 4.3q0 3.2-2.3 5.5t-5.6 2.3q0 0-0.2 0t-0.2 0h-23.8q-3.3-0.2-5.6-2.5t-2.3-5.5q0-2.1 1.1-3.9t2.8-2.9q-0.2-0.8-0.2-1.6 0-2.2 1.6-3.8t3.9-1.6q1.9 0 3.4 1.1 1.4-3 4.3-4.8t6.4-1.9q3.2 0 6 1.6t4.3 4.3 1.6 5.9q0 0.1 0 0.3t0 0.4z m-26.1 5.2q0 2.3 1.7 3.7t4 1.4q2.7 0 4.7-1.9-0.3-0.4-0.9-1.1t-0.8-1q-1.4 1.3-2.9 1.3-1 0-1.8-0.7t-0.7-1.7q0-1 0.7-1.7t1.8-0.7q0.9 0 1.7 0.4t1.4 1.1 1.2 1.5 1.4 1.6 1.5 1.4 1.9 1.1 2.4 0.4q2.3 0 4-1.4t1.6-3.7q0-2.3-1.6-3.7t-4.1-1.4q-2.8 0-4.7 1.9 0.3 0.3 0.6 0.6t0.7 0.8 0.5 0.7q1.3-1.3 2.8-1.3 1 0 1.8 0.7t0.8 1.6q0 1.1-0.8 1.8t-1.8 0.7q-0.8 0-1.6-0.4t-1.4-1.1-1.3-1.5-1.3-1.6-1.6-1.4-1.8-1.1-2.4-0.4q-2.3 0-4 1.4t-1.7 3.7z"></path></svg>