<?xml version="1.0"?><svg viewBox="0 0 40 40" xmlns="http://www.w3.org/2000/svg" height="40" width="40"><path d="m13.5 14.8q0.9-1 0.9-2.4t-0.9-2.3q-1-1-2.4-1t-2.3 1q-1 0.9-1 2.3 0 0.8 0.3 1.5-0.7-0.4-1.4-0.4-1.4 0-2.4 1t-1 2.4q0 1.4 1 2.3t2.4 1q1.4 0 2.3-1t1-2.3q0-0.8-0.3-1.5 0.7 0.4 1.4 0.4 1.4 0 2.4-1z m15.7 9.9q0 0.2-0.8 1.1t-1.2 0.8q-0.1 0-0.5-0.2t-0.6-0.6q-0.3-0.3-0.7-0.7t-0.4-0.4l-1.7 1.6 3.9 3.8q0.4 0.5 0.4 1.2 0 0.7-0.6 1.4t-1.4 0.7q-0.7 0-1.2-0.5l-11.7-11.6q-3 2.2-6.3 2.2-2.8 0-4.6-1.7t-1.8-4.6q0-2.8 1.6-5.5t4.4-4.3q2.6-1.6 5.4-1.6 2.8 0 4.6 1.7t1.8 4.7q0 3.2-2.3 6.3l6.2 6.2 1.6-1.7q0-0.1-0.4-0.4t-0.7-0.7q-0.3-0.3-0.6-0.6t-0.3-0.5q0-0.3 0.9-1.2t1.1-0.8q0.3 0 0.4 0.1 0.1 0.1 0.8 0.8t1.5 1.4q0.7 0.7 1.5 1.5t1.2 1.3q0.5 0.6 0.5 0.8z"></path></svg>