<svg viewBox="0 0 1792 1896.0833" xmlns="http://www.w3.org/2000/svg"><path d="m832 512q0-80-56-136t-136-56-136 56-56 136q0 42 19 83-41-19-83-19-80 0-136 56t-56 136 56 136 136 56 136-56 56-136q0-42-19-83 41 19 83 19 80 0 136-56t56-136z m851 704q0 17-49 66t-66 49q-9 0-28.5-16t-36.5-33-38.5-40-24.5-26l-96 96 220 220q28 28 28 68 0 42-39 81t-81 39q-40 0-68-28l-671-671q-176 131-365 131-163 0-265.5-102.5t-102.5-265.5q0-160 95-313t248-248 313-95q163 0 265.5 102.5t102.5 265.5q0 189-131 365l355 355 96-96q-3-3-26-24.5t-40-38.5-33-36.5-16-28.5q0-17 49-66t66-49q13 0 23 10 6 6 46 44.5t82 79.5 86.5 86 73 78 28.5 41z"/></svg>