<?xml version="1.0"?><svg xmlns="http://www.w3.org/2000/svg" width="40" height="40" viewBox="0 0 40 40"><path d="m8 25.666666666666664v2q0 0.33333333333333215-0.33333333333333304 0.33333333333333215h-2q-0.3333333333333339 3.552713678800501e-15-0.3333333333333339-0.33333333333333215v-2q0-0.33333333333333215 0.33333333333333304-0.33333333333333215h2q0.33333333333333304 0 0.33333333333333304 0.33333333333333215z m2.666666666666666-5.333333333333332v2q0 0.33333333333333215-0.3333333333333339 0.33333333333333215h-4.666666666666666q-0.33333333333333304 0-0.33333333333333304-0.33333333333333215v-2q0-0.33333333333333215 0.33333333333333304-0.33333333333333215h4.666666666666666q0.3333333333333339 0 0.3333333333333339 0.33333333333333215z m-2.666666666666666-5.333333333333332v2q0 0.33333333333333215-0.33333333333333304 0.33333333333333215h-2q-0.3333333333333339 0-0.3333333333333339-0.33333333333333215v-2q0-0.3333333333333339 0.33333333333333304-0.3333333333333339h2q0.33333333333333304 0 0.33333333333333304 0.3333333333333339z m21.333333333333332 10.666666666666664v2q0 0.33333333333333215-0.33333333333333215 0.33333333333333215h-18q-0.3333333333333339 3.552713678800501e-15-0.3333333333333339-0.33333333333333215v-2q0-0.33333333333333215 0.3333333333333339-0.33333333333333215h18q0.33333333333333215 0 0.33333333333333215 0.33333333333333215z m-13.333333333333332-5.333333333333332v2q0 0.33333333333333215-0.3333333333333339 0.33333333333333215h-2q-0.3333333333333339 0-0.3333333333333339-0.33333333333333215v-2q0-0.33333333333333215 0.3333333333333339-0.33333333333333215h2q0.3333333333333339 0 0.3333333333333339 0.33333333333333215z m-2.666666666666666-5.333333333333332v2q0 0.33333333333333215-0.3333333333333339 0.33333333333333215h-2q-0.3333333333333339 0-0.3333333333333339-0.33333333333333215v-2q0-0.3333333333333339 0.3333333333333339-0.3333333333333339h2q0.3333333333333339 0 0.3333333333333339 0.3333333333333339z m8.000000000000002 5.333333333333332v2q0 0.33333333333333215-0.33333333333333215 0.33333333333333215h-2q-0.33333333333333215 0-0.33333333333333215-0.33333333333333215v-2q0-0.33333333333333215 0.33333333333333215-0.33333333333333215h2q0.33333333333333215 0 0.33333333333333215 0.33333333333333215z m-2.666666666666668-5.333333333333332v2q0 0.33333333333333215-0.33333333333333215 0.33333333333333215h-2q-0.33333333333333215 0-0.33333333333333215-0.33333333333333215v-2q0-0.3333333333333339 0.33333333333333215-0.3333333333333339h2q0.33333333333333215 0 0.33333333333333215 0.3333333333333339z m8 5.333333333333332v2q0 0.33333333333333215-0.33333333333333215 0.33333333333333215h-2q-0.33333333333333215 0-0.33333333333333215-0.33333333333333215v-2q0-0.33333333333333215 0.33333333333333215-0.33333333333333215h2q0.33333333333333215 0 0.33333333333333215 0.33333333333333215z m8.000000000000004 5.333333333333332v2q0 0.33333333333333215-0.3333333333333357 0.33333333333333215h-2q-0.3333333333333357 0-0.3333333333333357-0.33333333333333215v-2q0-0.33333333333333215 0.3333333333333357-0.33333333333333215h2q0.3333333333333357 0 0.3333333333333357 0.33333333333333215z m-10.666666666666664-10.666666666666666v2.0000000000000018q0 0.33333333333333215-0.33333333333333215 0.33333333333333215h-2q-0.33333333333333215 0-0.33333333333333215-0.33333333333333215v-2q0-0.3333333333333339 0.33333333333333215-0.3333333333333339h2q0.33333333333333215 0 0.33333333333333215 0.3333333333333339z m5.333333333333332 0v2.0000000000000018q0 0.33333333333333215-0.33333333333333215 0.33333333333333215h-2q-0.33333333333333215 0-0.33333333333333215-0.33333333333333215v-2q0-0.3333333333333339 0.33333333333333215-0.3333333333333339h2q0.33333333333333215 0 0.33333333333333215 0.3333333333333339z m5.333333333333332 0v7.333333333333334q0 0.33333333333333215-0.3333333333333357 0.33333333333333215h-4.666666666666664q-0.33333333333333215 0-0.33333333333333215-0.33333333333333215v-2q0-0.33333333333333215 0.33333333333333215-0.33333333333333215h2.3333333333333286v-5q0-0.3333333333333339 0.3333333333333357-0.3333333333333339h2q0.3333333333333357 0 0.3333333333333357 0.3333333333333339z m2.666666666666657 15.666666666666666v-18.666666666666664h-34.666666666666664v18.666666666666664h34.666666666666664z m2.6666666666666643-18.666666666666664v18.666666666666664q0 1.1039999999999992-0.7813333333333361 1.8853333333333353t-1.8853333333333282 0.781333333333329h-34.666666666666664q-1.1039999999999976 0-1.8853333333333309-0.7813333333333361t-0.7813333333333334-1.8853333333333282v-18.666666666666664q0-1.1039999999999992 0.7813333333333332-1.8853333333333335t1.8853333333333333-0.7813333333333343h34.666666666666664q1.1039999999999992 0 1.8853333333333353 0.7813333333333325t0.7813333333333361 1.8853333333333353z"></path></svg>