<svg viewBox="0 0 1920 1896.0833" xmlns="http://www.w3.org/2000/svg"><path d="m384 1168v96q0 16-16 16h-96q-16 0-16-16v-96q0-16 16-16h96q16 0 16 16z m128-256v96q0 16-16 16h-224q-16 0-16-16v-96q0-16 16-16h224q16 0 16 16z m-128-256v96q0 16-16 16h-96q-16 0-16-16v-96q0-16 16-16h96q16 0 16 16z m1024 512v96q0 16-16 16h-864q-16 0-16-16v-96q0-16 16-16h864q16 0 16 16z m-640-256v96q0 16-16 16h-96q-16 0-16-16v-96q0-16 16-16h96q16 0 16 16z m-128-256v96q0 16-16 16h-96q-16 0-16-16v-96q0-16 16-16h96q16 0 16 16z m384 256v96q0 16-16 16h-96q-16 0-16-16v-96q0-16 16-16h96q16 0 16 16z m-128-256v96q0 16-16 16h-96q-16 0-16-16v-96q0-16 16-16h96q16 0 16 16z m384 256v96q0 16-16 16h-96q-16 0-16-16v-96q0-16 16-16h96q16 0 16 16z m384 256v96q0 16-16 16h-96q-16 0-16-16v-96q0-16 16-16h96q16 0 16 16z m-512-512v96q0 16-16 16h-96q-16 0-16-16v-96q0-16 16-16h96q16 0 16 16z m256 0v96q0 16-16 16h-96q-16 0-16-16v-96q0-16 16-16h96q16 0 16 16z m256 0v352q0 16-16 16h-224q-16 0-16-16v-96q0-16 16-16h112v-240q0-16 16-16h96q16 0 16 16z m128 752v-896h-1664v896h1664z m128-896v896q0 53-37.5 90.5t-90.5 37.5h-1664q-53 0-90.5-37.5t-37.5-90.5v-896q0-53 37.5-90.5t90.5-37.5h1664q53 0 90.5 37.5t37.5 90.5z"/></svg>