<?xml version="1.0"?><svg xmlns="http://www.w3.org/2000/svg" width="40" height="40" viewBox="0 0 40 40"><path d="m11.471428571428572 26.674285714285716l1.8114285714285714-6.674285714285716h-3.5500000000000007l1.6742857142857144 6.6971428571428575q0.02285714285714313 0.022857142857141355 0.02285714285714313 0.0671428571428585t0.024285714285714022 0.0671428571428585q0-0.022857142857141355 0.011428571428570677-0.07857142857142918t0.011428571428570677-0.07857142857142918z m2.5928571428571434-9.531428571428574l0.781428571428572-2.8571428571428577h-6.517142857142858l0.7142857142857135 2.8571428571428577h5.0214285714285705z m4.2857142857142865 0h3.102857142857143l-0.7814285714285703-2.8571428571428577h-1.5642857142857132z m10.021428571428572 9.554285714285715l1.7385714285714293-6.6971428571428575h-3.614285714285714l1.807142857142857 6.674285714285716q0 0.022857142857141355 0.011428571428570677 0.07857142857142918t0.034285714285715585 0.07857142857142918q0-0.022857142857141355 0.011428571428570677-0.0671428571428585t0.011428571428570677-0.0671428571428585z m2.4757142857142824-9.554285714285715l0.7371428571428567-2.8571428571428577h-6.628571428571426l0.7571428571428562 2.8571428571428577h5.1342857142857135z m9.151428571428568 0.7142857142857153v1.428571428571427q0 0.31428571428571317-0.20000000000000284 0.5142857142857125t-0.5142857142857125 0.1999999999999993h-4.7542857142857144l-3.66 13.750000000000004q-0.15714285714285836 0.5357142857142847-0.6914285714285704 0.5357142857142847h-3.548571428571428q-0.5357142857142847 0-0.6914285714285704-0.5357142857142847l-3.70428571428571-13.75h-4.665714285714284l-3.7285714285714278 13.75q-0.15428571428571658 0.5357142857142847-0.6885714285714322 0.5357142857142847h-3.5514285714285716q-0.242857142857142 0-0.43428571428571416-0.15714285714285836t-0.23428571428571487-0.37857142857142634l-3.571428571428571-13.75h-4.642857142857142q-0.31428571428571417 0-0.5142857142857141-0.1999999999999993t-0.2-0.514285714285716v-1.428571428571427q0-0.31428571428571317 0.2-0.514285714285716t0.5142857142857142-0.1999999999999993h3.9057142857142857l-0.7371428571428571-2.8571428571428577h-3.1714285714285713q-0.31142857142857155 0-0.5114285714285716-0.1999999999999993t-0.2-0.5142857142857142v-1.4285714285714288q0-0.31428571428571495 0.2-0.5142857142857142t0.5142857142857143-0.1999999999999993h2.4314285714285715l-1.9857142857142858-7.678571428571429q-0.11428571428571432-0.3342857142857145 0.1100000000000001-0.6257142857142859 0.22428571428571442-0.2671428571428569 0.5814285714285714-0.2671428571428569h3.057142857142858q0.5814285714285718 0 0.6928571428571431 0.5357142857142856l2.007142857142857 8.035714285714286h8.014285714285714l2.164285714285713-8.035714285714286q0.15714285714285836-0.5357142857142856 0.6914285714285704-0.5357142857142856h2.814285714285713q0.5342857142857156 0 0.6900000000000013 0.5357142857142856l2.1857142857142904 8.035714285714286h8.148571428571426l2.075714285714284-8.035714285714286q0.11142857142857565-0.5357142857142851 0.6899999999999977-0.5357142857142851h3.0600000000000023q0.3571428571428541 0 0.5799999999999983 0.26714285714285735 0.2228571428571442 0.29000000000000004 0.11142857142856855 0.6257142857142859l-2.031428571428563 7.678571428571429h2.4771428571428586q0.3142857142857167 0 0.5142857142857125 0.1999999999999993t0.20000000000000284 0.5142857142857142v1.4285714285714288q0 0.31428571428571495-0.20000000000000284 0.5142857142857142t-0.5142857142857125 0.1999999999999993h-3.2371428571428567l-0.7571428571428598 2.8571428571428577h3.9942857142857164q0.3142857142857167 0 0.5142857142857125 0.1999999999999993t0.20000000000000284 0.5142857142857125z"></path></svg>