<?xml version="1.0"?><svg xmlns="http://www.w3.org/2000/svg" width="40" height="40" viewBox="0 0 40 40"><path d="m17.45714285714286 24.062857142857144q-0.024285714285714022 0.0671428571428585-0.28000000000000114-0.011428571428570677t-0.7028571428571446-0.25714285714285623l-0.4471428571428575-0.1999999999999993q-0.9857142857142858-0.4485714285714302-1.942857142857143-1.095714285714287-0.15714285714285658-0.11428571428571388-0.9142857142857146-0.7042857142857137t-0.8499999999999996-0.6357142857142861q-1.4957142857142856 2.3000000000000007-2.991428571428571 4.039999999999999-1.807142857142857 2.120000000000001-2.3428571428571434 2.457142857142859-0.08999999999999986 0.04285714285714448-0.43571428571428594 0.08857142857142719t-0.4142857142857146 0q0.13571428571428612-0.08999999999999986 1.8314285714285718-2.0528571428571425 0.468571428571428-0.5357142857142847 1.9085714285714293-2.5671428571428585t1.7528571428571436-2.6342857142857135q0.3800000000000008-0.6714285714285708 1.138571428571428-2.1999999999999993t0.8028571428571425-1.7285714285714278q-0.17999999999999972-0.022857142857141355-2.4571428571428573 0.7371428571428567-0.17857142857142883 0.04285714285714448-0.6142857142857139 0.16714285714285637t-0.7714285714285722 0.21142857142856997-0.3785714285714281 0.1114285714285721q-0.042857142857142705 0.04285714285714448-0.042857142857142705 0.23428571428571487t-0.024285714285714022 0.21142857142856997q-0.1114285714285721 0.2228571428571442-0.6914285714285722 0.33428571428571274-0.5142857142857142 0.15428571428571303-1.048571428571428 0-0.40000000000000036-0.09142857142857252-0.6257142857142854-0.47142857142857153-0.08999999999999986-0.13285714285714434-0.11142857142857121-0.5114285714285707 0.13428571428571434-0.04285714285714448 0.5471428571428572-0.1114285714285721t0.6571428571428566-0.13428571428571345q1.2957142857142863-0.35714285714285765 2.345714285714285-0.7142857142857153 2.2314285714285713-0.781428571428572 2.2757142857142867-0.781428571428572 0.22285714285714242-0.042857142857142705 0.9600000000000009-0.43571428571428505t0.9828571428571422-0.4800000000000004q0.1999999999999993-0.06714285714285673 0.4800000000000004-0.17857142857142883t0.32285714285714207-0.12285714285714278 0.13428571428571345 0.014285714285714235q0.042857142857142705 0.2657142857142851-0.02285714285714313 0.7357142857142858 0 0.042857142857142705-0.27857142857142847 0.6028571428571432t-0.5928571428571434 1.194285714285714-0.3800000000000008 0.7471428571428582q-0.5600000000000005 1.1142857142857139-1.7200000000000006 2.924285714285716l1.4285714285714288 0.6257142857142846q0.2671428571428578 0.13571428571428612 1.6628571428571437 0.7142857142857153t1.5071428571428562 0.6285714285714299q0.08999999999999986 0.02142857142857224 0.23428571428571487 0.5671428571428585t0.10000000000000142 0.6814285714285724z m-4.578571428571429-10.848571428571429q0.06714285714285673 0.3342857142857145-0.08999999999999986 0.6257142857142863-0.2671428571428578 0.5142857142857142-1.1142857142857139 0.8485714285714288-0.6714285714285708 0.2671428571428578-1.3428571428571434 0.2671428571428578-0.5785714285714292-0.0685714285714294-1.0928571428571434-0.581428571428571-0.31428571428571495-0.3342857142857145-0.40000000000000036-0.9142857142857146l0.02142857142857224-0.0685714285714294q0.06714285714285673 0.06714285714285673 0.43571428571428505 0.1114285714285721t0.5914285714285707 0 1.2942857142857136-0.35714285714285765q0.8028571428571425-0.2671428571428578 1.2285714285714295-0.31428571428571495 0.3785714285714281 0 0.4671428571428571 0.38142857142857167z m15.580000000000002 2.879999999999999l1.4057142857142857 5.0671428571428585-3.102857142857143-0.937142857142856z m-24.730000000000004 17.857142857142858l15.490000000000002-5.178571428571431v-23.034285714285712l-15.490000000000002 5.198571428571428v23.014285714285712z m27.700000000000003-7.075714285714287l2.277142857142856 0.6914285714285704-4.040000000000003-14.667142857142856-2.232857142857142-0.6899999999999995-4.821428571428573 11.964285714285717 2.277142857142856 0.6914285714285704 1.0042857142857144-2.457142857142859 4.710000000000001 1.452857142857141z m-11.228571428571428-21.475714285714286l12.791428571428568 4.10857142857143v-8.482857142857142z m6.9428571428571395 29.534285714285716l3.5285714285714285 0.28999999999999915-1.2071428571428555 3.5714285714285694-0.8928571428571423-1.471428571428575q-2.8999999999999986 1.8514285714285705-6.16 2.4085714285714275-1.2942857142857136 0.2671428571428578-2.0314285714285703 0.2671428571428578h-1.8757142857142846q-1.7628571428571433 0-4.452857142857143-0.8714285714285737t-4.094285714285718-1.8971428571428461q-0.17999999999999972-0.15714285714285836-0.17999999999999972-0.3571428571428541 0-0.1785714285714306 0.1114285714285721-0.29999999999999716t0.2900000000000009-0.12428571428571189q0.08999999999999986 0 0.40000000000000036 0.16714285714285637t0.6828571428571433 0.36857142857142833 0.4571428571428573 0.24571428571428555q1.6285714285714281 0.8257142857142838 3.5600000000000005 1.3714285714285737t3.5142857142857125 0.548571428571428q2.12142857142857 0 3.7285714285714278-0.32428571428571473t3.5042857142857144-1.1285714285714263q0.33428571428571274-0.15714285714285836 0.6814285714285724-0.345714285714287t0.7571428571428562-0.42428571428571615 0.6371428571428588-0.3671428571428592z m9.999999999999996-24.085714285714285v24.085714285714285l-17.277142857142852-5.491428571428571q-0.31428571428571317 0.13285714285714434-8.371428571428572 2.8428571428571416t-8.214285714285715 2.7142857142857153q-0.2885714285714287 0-0.3999999999999999-0.29142857142856826 0-0.022857142857141355-0.022857142857142687-0.06714285714285495v-24.06428571428572q0.06714285714285717-0.1999999999999993 0.08999999999999986-0.22285714285714242 0.11142857142857121-0.13571428571428612 0.44714285714285706-0.24714285714285644 2.365714285714286-0.781428571428572 3.325714285714285-1.1142857142857139v-8.571428571428571l12.457142857142859 4.418571428571429q0.04285714285714448 0 3.581428571428571-1.2285714285714286t7.055714285714288-2.4157142857142873 3.6000000000000014-1.1957142857142857q0.4485714285714266 0 0.4485714285714266 0.4685714285714286v9.32857142857143z"></path></svg>