<?xml version="1.0"?><svg viewBox="0 0 40 40" xmlns="http://www.w3.org/2000/svg" height="40" width="40"><path d="m11.4 22.3q-0.1 0-0.3-0.1t-0.5-0.2l-0.4-0.1q-0.7-0.4-1.5-0.9-0.1 0-0.7-0.5t-0.6-0.5q-1.2 1.8-2.4 3.1-1.4 1.7-1.8 2-0.1 0-0.3 0t-0.3 0q0.1 0 1.4-1.6 0.3-0.4 1.5-2t1.3-2q0.3-0.5 0.9-1.7t0.6-1.4q-0.1 0-1.9 0.6-0.1 0-0.5 0.1t-0.6 0.2q-0.2 0.1-0.2 0.1-0.1 0-0.1 0.2t0 0.1q-0.1 0.2-0.5 0.3-0.4 0.1-0.9 0-0.3-0.1-0.4-0.4-0.1-0.1-0.1-0.4 0.1 0 0.4-0.1t0.5-0.1q1-0.2 1.8-0.5 1.8-0.6 1.8-0.6 0.2-0.1 0.8-0.4t0.7-0.3q0.2-0.1 0.4-0.2t0.2-0.1q0.1 0 0.1 0 0.1 0.2 0 0.6 0 0-0.2 0.5t-0.5 0.9q-0.2 0.5-0.2 0.6-0.5 0.8-1.4 2.3l1.1 0.4q0.2 0.1 1.3 0.6t1.2 0.5q0.1 0 0.2 0.4t0.1 0.6z m-3.6-8.5q0 0.3-0.1 0.5-0.2 0.4-0.8 0.7-0.6 0.2-1.1 0.2-0.4-0.1-0.8-0.5-0.3-0.2-0.3-0.7l0 0q0 0 0.3 0t0.5 0q0.1 0 1-0.2 0.6-0.2 0.9-0.3 0.3 0 0.4 0.3z m12.1 2.3l1.1 3.9-2.4-0.7 1.3-3.2z m-19.2 13.8l12-4v-17.9l-12 4v17.9z m21.5-5.5l1.8 0.6-3.1-11.4-1.8-0.6-3.7 9.3 1.7 0.6 0.8-1.9 3.7 1.1 0.6 2.3z m-8.7-16.7l9.9 3.2v-6.6l-9.9 3.4z m5.4 23l2.7 0.2-0.9 2.8-0.7-1.1q-2.3 1.4-4.8 1.8-1 0.3-1.6 0.3h-1.4q-1.4 0-3.5-0.7t-3.2-1.5q-0.1-0.1-0.1-0.3 0-0.1 0.1-0.2t0.2-0.1q0.1 0 0.3 0.1t0.5 0.3q0.3 0.2 0.4 0.2 1.3 0.6 2.8 1.1t2.7 0.4q1.6 0 2.9-0.3t2.7-0.8q0.3-0.2 0.6-0.3t0.5-0.3q0.4-0.2 0.5-0.3l-0.7-1.3z m7.8-18.7v18.7l-13.5-4.3q-0.2 0.1-6.5 2.3t-6.4 2.1q-0.2 0-0.3-0.3 0 0 0 0v-18.7q0.1-0.2 0.1-0.2 0.1-0.1 0.3-0.2 1.9-0.6 2.6-0.9v-6.6l9.7 3.4q0 0 2.8-0.9t5.5-1.9q2.7-1 2.8-1 0.3 0 0.3 0.4v7.3l2.6 0.8z"></path></svg>