<?xml version="1.0"?><svg xmlns="http://www.w3.org/2000/svg" width="40" height="40" viewBox="0 0 40 40"><path d="m8.666666666666666 28q-1.373333333333333 0-2.3546666666666667-0.9786666666666655t-0.9786666666666664-2.3546666666666702v-14.666666666666666q0-1.373333333333333 0.9786666666666664-2.3546666666666667t2.3546666666666667-0.9786666666666655h22.666666666666664q1.3733333333333348 0 2.3546666666666667 0.9786666666666664t0.978666666666669 2.3546666666666676v14.666666666666664q0 1.3733333333333348-0.978666666666669 2.3546666666666667t-2.354666666666663 0.978666666666669h-22.666666666666664z m-0.6666666666666661-18v14.666666666666664q0 0.27066666666666706 0.19733333333333292 0.46933333333333493t0.46933333333333316 0.19733333333333292h22.666666666666664q0.27066666666666706 0 0.46933333333333493-0.19733333333333292t0.19733333333333647-0.46933333333333493v-14.666666666666666q0-0.27066666666666706-0.19733333333333292-0.46933333333333316t-0.46933333333333493-0.19733333333333292h-22.666666666666664q-0.27066666666666706 0-0.46933333333333316 0.19733333333333292t-0.1973333333333347 0.46933333333333493z m28.666666666666664 19.333333333333332h3.3333333333333357v2q0 0.8333333333333321-0.978666666666669 1.4160000000000004t-2.3546666666666667 0.5839999999999961h-33.33333333333333q-1.3733333333333333 0-2.3546666666666667-0.5840000000000032t-0.978666666666669-1.4159999999999933v-2h36.666666666666664z m-15 2q0.33333333333333215 0 0.33333333333333215-0.33333333333333215t-0.33333333333333215-0.33333333333333215h-3.333333333333332q-0.33333333333333215 0-0.33333333333333215 0.33333333333333215t0.33333333333333215 0.33333333333333215h3.333333333333332z"></path></svg>