<?xml version="1.0"?><svg viewBox="0 0 40 40" xmlns="http://www.w3.org/2000/svg" height="40" width="40"><path d="m7.2 25.8q-1.1 0-1.9-0.9t-0.9-1.9v-12.2q0-1.2 0.9-2t1.9-0.8h18.9q1.2 0 2 0.8t0.8 2v12.2q0 1.1-0.8 1.9t-2 0.9h-18.9z m-0.5-15v12.2q0 0.2 0.1 0.4t0.4 0.1h18.9q0.2 0 0.4-0.1t0.2-0.4v-12.2q0-0.3-0.2-0.4t-0.4-0.2h-18.9q-0.2 0-0.4 0.2t-0.1 0.4z m23.9 16.1h2.7v1.6q0 0.7-0.8 1.2t-1.9 0.5h-27.8q-1.2 0-2-0.5t-0.8-1.2v-1.6h30.6z m-12.5 1.6q0.2 0 0.2-0.2t-0.2-0.3h-2.8q-0.3 0-0.3 0.3t0.3 0.2h2.8z"></path></svg>