<?xml version="1.0"?><svg xmlns="http://www.w3.org/2000/svg" width="40" height="40" viewBox="0 0 40 40"><path d="m28.84 15.714285714285715q0 0.13428571428571345 0.2228571428571442 0.9142857142857146 0.2228571428571442 0.6485714285714295 0.5571428571428569 1.105714285714285t0.9171428571428564 0.7571428571428562 0.9828571428571422 0.4485714285714302 1.2285714285714313 0.36857142857142833q7.251428571428569 2.0314285714285703 7.251428571428569 7.41 0 3.2571428571428562-2.3528571428571396 5.414285714285718t-5.681428571428572 2.152857142857137q-1.3171428571428585 0-2.4885714285714293-0.41428571428571104t-2.0428571428571445-1.0142857142857125-1.7199999999999989-1.662857142857149-1.404285714285713-1.952857142857141-1.1942857142857157-2.3114285714285714-0.9714285714285715-2.3000000000000007-0.879999999999999-2.3757142857142846-0.7928571428571445-2.12142857142857q-0.7142857142857153-1.8085714285714296-1.3742857142857154-2.9800000000000004t-1.639999999999997-2.152857142857144-2.321428571428571-1.4285714285714288-3.1714285714285726-0.4457142857142866q-2.1428571428571423 0-4.082857142857143 1.2385714285714293t-3.0814285714285727 3.225714285714286-1.137142857142857 4.12857142857143q0 3.571428571428573 2.3771428571428572 6.240000000000002t5.881428571428571 2.668571428571429q3.951428571428572 0 5.75714285714286-2.120000000000001 1.2514285714285727-1.4057142857142857 1.8542857142857159-2.59l1.8757142857142846 3.394285714285715q-0.33428571428571274 0.7571428571428562-0.9828571428571422 1.562857142857144l0.022857142857141355 0.022857142857141355q-2.924285714285716 3.3885714285714243-8.66 3.3885714285714243-3.281428571428572 0-6.014285714285714-1.7614285714285742t-4.2542857142857144-4.631428571428572-1.5171428571428573-6.12857142857143q0-2.3428571428571416 0.9714285714285715-4.597142857142856t2.589999999999999-3.938571428571425 3.8400000000000003-2.7142857142857153 4.564285714285715-1.0257142857142867q1.942857142857143 0 3.548571428571428 0.4242857142857144t2.7571428571428562 1.1142857142857139 2.120000000000001 1.7857142857142865 1.6185714285714283 2.210000000000001 1.3042857142857152 2.611428571428572 1.12857142857143 2.7785714285714285 1.1142857142857139 2.9142857142857146 1.2285714285714278 2.8328571428571436q2.1428571428571423 4.464285714285715 5.199999999999999 4.464285714285715 1.8085714285714296 0 3.091428571428569-1.0828571428571436t1.2828571428571394-2.8685714285714283q0-0.937142857142856-0.42428571428571615-1.6071428571428577t-1.1285714285714263-1.0285714285714285-1.6171428571428592-0.6999999999999993-1.8857142857142861-0.6042857142857159-1.952857142857141-0.7571428571428562-1.8099999999999987-1.1614285714285728-1.451428571428572-1.8285714285714292-0.8714285714285701-2.734285714285715q-0.06571428571428584-0.35714285714285765-0.06571428571428584-0.7371428571428567 0-2.4571428571428573 1.9542857142857137-4.285714285714285t4.431428571428572-1.7428571428571438q1.7428571428571402 0.0685714285714294 2.6899999999999977 0.3257142857142856t2.020000000000003 1.194285714285714h-0.022857142857141355q0.2685714285714269 0.24571428571428555 0.5142857142857125 0.5471428571428572t0.5799999999999983 0.8028571428571425 0.42428571428571615 0.6142857142857139l-2.8800000000000026 2.208571428571428q-0.5814285714285674-1.0928571428571399-1.2057142857142793-1.5614285714285678v-0.02285714285714313q-0.5142857142857125-0.468571428571428-2.1657142857142873-0.468571428571428-1.0942857142857143 0-1.8757142857142846 0.7371428571428567t-0.7814285714285703 1.8514285714285723z"></path></svg>