<?xml version="1.0"?><svg viewBox="0 0 40 40" xmlns="http://www.w3.org/2000/svg" height="40" width="40"><path d="m22.4 15.8q0 0.1 0.2 0.7 0.2 0.5 0.4 0.8t0.8 0.6q0.4 0.3 0.7 0.4t1 0.3q5.6 1.5 5.6 5.7 0 2.6-1.8 4.2t-4.4 1.7q-1.1 0-2-0.3t-1.6-0.8q-0.6-0.5-1.3-1.3t-1.1-1.5q-0.4-0.7-0.9-1.8t-0.8-1.8q-0.2-0.7-0.7-1.9t-0.6-1.6q-0.5-1.4-1-2.3t-1.3-1.7q-0.8-0.8-1.8-1.1t-2.5-0.4q-1.7 0-3.2 1t-2.4 2.5q-0.9 1.6-0.9 3.2 0 2.8 1.9 4.9t4.6 2.1q3 0 4.5-1.7 0.9-1.1 1.4-2l1.4 2.6q-0.2 0.6-0.7 1.3l0 0q-2.3 2.6-6.7 2.6-2.6 0-4.7-1.4t-3.3-3.6q-1.2-2.2-1.2-4.7 0-1.9 0.8-3.6t2-3.1q1.2-1.3 3-2.1t3.5-0.8q1.5 0 2.8 0.3t2.1 0.9q0.9 0.6 1.7 1.4t1.2 1.7q0.5 0.9 1 2.1t0.9 2.1q0.4 1 0.9 2.3t0.9 2.2q1.7 3.5 4.1 3.5 1.4 0 2.4-0.9t1-2.2q0-0.7-0.3-1.3t-0.9-0.8q-0.6-0.2-1.3-0.5t-1.5-0.5q-0.7-0.2-1.5-0.6t-1.4-0.9q-0.6-0.5-1.1-1.4t-0.7-2.1q0-0.3 0-0.6 0-1.9 1.5-3.3t3.4-1.4q1.4 0.1 2.1 0.3t1.6 0.9h0q0.2 0.2 0.4 0.4t0.4 0.7q0.3 0.3 0.4 0.4l-2.3 1.7q-0.4-0.8-0.9-1.2v0q-0.4-0.4-1.7-0.4-0.9 0-1.5 0.6t-0.6 1.5z"></path></svg>