<?xml version="1.0"?><svg viewBox="0 0 40 40" xmlns="http://www.w3.org/2000/svg" height="40" width="40"><path d="m24.9 21.8q0-3-4.1-4.1-0.6-0.2-0.9-0.3t-0.7-0.5q-0.3-0.3-0.5-0.8 0 0 0-0.1t-0.1-0.2q0-0.1 0-0.2 0-0.6 0.4-1t1.1-0.4q0.9 0 1.2 0.3h0q0.3 0.2 0.7 0.8l1.6-1.2q-0.7-0.9-0.9-1.1-0.5-0.5-1.1-0.7t-1.5-0.1q-1.4 0-2.5 1t-1.1 2.3q0 0.2 0.1 0.4 0.3 1.7 1.1 2.5t2.6 1.2q0.5 0.2 0.8 0.3t0.8 0.4q0.4 0.2 0.7 0.6t0.2 0.8v0.1q0 1-0.7 1.6t-1.7 0.6q-1.7 0-2.9-2.5-0.4-0.8-0.9-2.1t-0.9-2.2q-0.3-0.9-0.9-1.9t-1.3-1.7q-0.7-0.6-1.8-1t-2.5-0.4q-1.8 0-3.4 0.9t-2.5 2.6q-0.9 1.6-0.8 3.3v0q0 1.9 0.8 3.5t2.4 2.6q1.5 0.9 3.4 0.9 3.2 0 4.8-1.9 0.4-0.4 0.5-0.9l-1-1.8q-0.7 1.3-1.7 2t-2.6 0.6q-1.9 0-3.3-1.5t-1.3-3.6q0-1.8 1.4-3.2t3.3-1.5q1.9 0 2.9 0.9t1.8 3q0.2 0.4 0.5 1.2t0.5 1.3q0.2 0.5 0.5 1.3t0.7 1.3q0.3 0.5 0.8 1.1t0.9 0.9q0.5 0.4 1.2 0.6t1.4 0.2q1.8 0 3.1-1.2t1.4-3z m1.8-11v16.6q0 2.1-1.5 3.6t-3.5 1.4h-16.7q-2.1 0-3.5-1.4t-1.5-3.6v-16.6q0-2.1 1.5-3.6t3.5-1.4h16.7q2 0 3.5 1.4t1.5 3.6z"></path></svg>