<?xml version="1.0"?><svg xmlns="http://www.w3.org/2000/svg" width="40" height="40" viewBox="0 0 40 40"><path d="m34.82142857142857 23.482857142857142q0-3.861428571428572-5.222857142857144-5.334285714285713-0.7828571428571429-0.2228571428571442-1.1857142857142868-0.36857142857142833t-0.8471428571428561-0.5571428571428569-0.6471428571428568-1.0399999999999991q0-0.04285714285714448-0.04285714285714448-0.1899999999999995t-0.06857142857142762-0.2671428571428578-0.022857142857141355-0.16714285714285637q0-0.8000000000000007 0.5471428571428554-1.3285714285714292t1.3500000000000014-0.5228571428571431q1.2057142857142864 0 1.5857142857142854 0.3342857142857145h-0.024285714285714022q0.4485714285714302 0.3342857142857145 0.8714285714285701 1.138571428571428l2.0757142857142874-1.5857142857142854q-0.8714285714285737-1.2042857142857137-1.0942857142857179-1.4285714285714288-0.7371428571428567-0.6457142857142859-1.5071428571428562-0.8685714285714283t-1.9085714285714275-0.22285714285714242q-1.7857142857142847 0-3.171428571428571 1.2857142857142865t-1.3828571428571443 3.0671428571428567q0 0.15714285714285658 0.04285714285714448 0.5142857142857142 0.35714285714285765 2.1428571428571423 1.442857142857143 3.1242857142857154t3.314285714285713 1.62857142857143q0.6457142857142841 0.17999999999999972 1.0928571428571416 0.3471428571428561t1.0042857142857144 0.4800000000000004 0.8599999999999994 0.7714285714285722 0.3000000000000007 1.0371428571428574v0.10999999999999943q0.024285714285717575 1.2942857142857136-0.9028571428571439 2.0757142857142874t-2.2428571428571438 0.7814285714285703q-2.1657142857142873 0-3.7285714285714278-3.2142857142857153-0.5114285714285707-1.048571428571428-1.1485714285714295-2.71142857142857t-1.071428571428573-2.8028571428571425-1.2057142857142864-2.467142857142857-1.6514285714285712-2.128571428571428-2.3099999999999987-1.3514285714285723-3.281428571428572-0.5471428571428572q-2.2542857142857144 0-4.2857142857142865 1.251428571428571t-3.2142857142857144 3.3028571428571425-1.1142857142857148 4.285714285714285v0.022857142857141355q0.08857142857142897 2.41 1.1257142857142863 4.442857142857143t2.9800000000000004 3.291428571428572 4.375714285714286 1.2614285714285707q4.151428571428571 0 6.228571428571431-2.4542857142857137 0.44571428571428484-0.6028571428571432 0.6900000000000013-1.138571428571428l-1.3399999999999999-2.4328571428571415q-0.937142857142856 1.7857142857142847-2.210000000000001 2.59t-3.2571428571428562 0.8028571428571425q-2.5685714285714276 0-4.264285714285714-1.942857142857143t-1.697142857142854-4.554285714285719q0-2.3428571428571416 1.8285714285714292-4.217142857142857t4.152857142857142-1.8757142857142863q2.5 0 3.7942857142857136 1.194285714285714t2.321428571428573 3.8514285714285705q0.17857142857142705 0.46857142857142975 0.5685714285714276 1.5285714285714285t0.6357142857142861 1.707142857142859 0.7042857142857137 1.6642857142857146 0.8599999999999994 1.6514285714285712 1.0142857142857125 1.3971428571428568 1.2399999999999984 1.1942857142857157 1.4714285714285715 0.7371428571428567 1.7857142857142847 0.3000000000000007q2.3900000000000006 0 4.085714285714282-1.5500000000000007t1.6971428571428575-3.895714285714284z m2.3214285714285765-14.197142857142856v21.42857142857143q0 2.6571428571428584-1.8857142857142861 4.5428571428571445t-4.5428571428571445 1.8857142857142861h-21.42857142857143q-2.6571428571428575 0-4.542857142857144-1.8857142857142861t-1.885714285714284-4.5428571428571445v-21.42857142857143q0-2.6571428571428575 1.8857142857142857-4.542857142857144t4.542857142857144-1.885714285714284h21.42857142857143q2.6571428571428584 0 4.5428571428571445 1.8857142857142857t1.8857142857142861 4.542857142857144z"></path></svg>