<?xml version="1.0"?><svg viewBox="0 0 40 40" xmlns="http://www.w3.org/2000/svg" height="40" width="40"><path d="m28.1 14.9q0-0.6-0.4-1t-0.9-0.4q-3.7 0-6.8 1t-5.4 2.9-5 4.6q-0.4 0.4-0.4 1 0 0.5 0.4 0.9t0.9 0.4q0.6 0 1-0.4 0.6-0.5 1.6-1.5t1.4-1.4q2.9-2.6 5.6-3.7t6.7-1.1q0.5 0 0.9-0.4t0.4-0.9z m10.8-4.2q0 2-0.4 4-1 4.8-3.9 8.1t-7.6 5.7q-4.5 2.3-9.2 2.3-3.1 0-6-1-0.3-0.1-1.9-0.9t-2-0.8q-0.3 0-0.8 0.7t-1 1.5-1.1 1.4-1.3 0.7q-0.6 0-1-0.2t-0.7-0.5-0.6-0.9q0-0.1-0.1-0.3t-0.1-0.2-0.1-0.2 0-0.2q0-0.8 0.7-1.6t1.4-1.4 1.4-1.2 0.7-1q0-0.1-0.3-0.8t-0.4-0.9q-0.1-1.1-0.1-2.2 0-2.4 0.9-4.6t2.5-3.9 3.6-3 4.3-2q1.1-0.4 3-0.5t3.8-0.2 3.8-0.1 3.4-0.5 2.4-1.2l0.7-0.7 0.6-0.5 0.6-0.5 0.7-0.3 0.9-0.1q0.9 0 1.5 1t1 2.3 0.5 2.6 0.2 2.1z"></path></svg>