<?xml version="1.0"?><svg viewBox="0 0 40 40" xmlns="http://www.w3.org/2000/svg" height="40" width="40"><path d="m21.9 16.5q0.3-0.3 0.3-0.7t-0.3-0.8q-0.3-0.3-0.8-0.3-3 0-5.5 0.8t-4.5 2.3q-2 1.5-4.1 3.8-0.3 0.4-0.3 0.8 0 0.5 0.3 0.8t0.8 0.3q0.4 0 0.8-0.3 0.4-0.4 1.2-1.2t1.2-1.2q2.4-2.1 4.7-3t5.4-0.9q0.5 0 0.8-0.4z m9.2-4.2q0 1.7-0.3 3.4-0.8 3.9-3.2 6.6t-6.2 4.7q-3.8 1.9-7.6 1.9-2.6 0-5-0.9-0.3 0-1.5-0.7t-1.7-0.6q-0.3 0-0.7 0.5t-0.8 1.2q-0.4 0.7-0.9 1.3t-1 0.5q-0.6 0-0.9-0.2t-0.6-0.4q-0.1-0.2-0.4-0.7-0.1-0.1-0.1-0.2t-0.1-0.2q0 0-0.1-0.2t0-0.2q0-0.6 0.5-1.3t1.2-1.1q0.7-0.5 1.2-1t0.5-0.8q0-0.1-0.2-0.7t-0.3-0.7q-0.1-0.9-0.1-1.8 0-2 0.7-3.9t2.1-3.2q1.3-1.3 2.9-2.4t3.6-1.6q0.9-0.3 2.5-0.5t3.1-0.1q1.6-0.1 3.1-0.1t2.9-0.5q1.2-0.3 1.9-0.9l0.5-0.5q0.4-0.4 0.5-0.5t0.5-0.4q0.3-0.2 0.7-0.3t0.7 0q0.7 0 1.2 0.8t0.9 1.9q0.2 1.2 0.4 2.2t0.1 1.6z"></path></svg>