<?xml version="1.0"?><svg xmlns="http://www.w3.org/2000/svg" width="40" height="40" viewBox="0 0 40 40"><path d="m28.571428571428573 15.714285714285715q0-0.5800000000000001-0.4242857142857126-1.0042857142857144t-1.004285714285718-0.4242857142857144q-3.84 0-7.099999999999998 1.104285714285714t-5.791428571428572 2.991428571428571-5.257142857142856 4.899999999999999q-0.42285714285714526 0.46857142857142975-0.42285714285714526 1.0042857142857144 0 0.5799999999999983 0.4228571428571435 1.0042857142857144t1.0057142857142853 0.42428571428571615q0.5342857142857138 0 1.0028571428571436-0.4242857142857126 0.6028571428571432-0.5357142857142847 1.6514285714285712-1.5857142857142854t1.4957142857142856-1.4714285714285715q3.0571428571428587-2.767142857142858 5.9928571428571455-3.928571428571427t6.997142857142855-1.1614285714285764q0.5799999999999983 0 1.0042857142857144-0.4228571428571435t0.42714285714285793-1.0057142857142836z m11.428571428571427-4.42q0 2.119999999999999-0.4471428571428575 4.308571428571428-1.028571428571432 5-4.118571428571428 8.548571428571428t-7.98 5.982857142857142q-4.777142857142856 2.41-9.77714285714286 2.41-3.3028571428571425 0-6.385714285714286-1.047142857142859-0.33285714285714363-0.1114285714285721-1.9628571428571426-0.937142857142856t-2.1428571428571423-0.8242857142857147q-0.35714285714285676 0-0.8814285714285717 0.7142857142857153t-1.0042857142857144 1.562857142857144-1.1714285714285717 1.5628571428571405-1.3399999999999999 0.7142857142857153q-0.6714285714285713 0-1.1385714285714286-0.24285714285714022t-0.6914285714285714-0.5371428571428538-0.6-0.9371428571428595q-0.04571428571428571-0.09000000000000341-0.13571428571428573-0.24571428571428555t-0.12285714285713992-0.22714285714285865-0.06857142857142857-0.21142857142856997-0.032857142857142856-0.3000000000000007q0-0.7828571428571429 0.69-1.6428571428571423t1.5171428571428573-1.4600000000000009 1.5171428571428573-1.25 0.6914285714285713-1.071428571428573q0-0.08999999999999986-0.3114285714285714-0.8485714285714288t-0.3571428571428572-0.9814285714285731q-0.20000000000000018-1.138571428571428-0.20000000000000018-2.321428571428573 0-2.5671428571428585 0.971428571428572-4.91t2.654285714285713-4.117142857142854 3.805714285714286-3.102857142857143 4.5528571428571425-2.1314285714285717q1.2285714285714295-0.40000000000000036 3.2385714285714275-0.5685714285714285t4.007142857142856-0.20000000000000018 3.985714285714284-0.13571428571428612 3.6485714285714295-0.5342857142857138 2.5328571428571394-1.2614285714285716l0.6571428571428584-0.6571428571428575 0.6571428571428584-0.6285714285714286 0.6042857142857159-0.44571428571428573 0.8142857142857167-0.3571428571428572 0.971428571428568-0.10000000000000009q0.8714285714285737 0 1.5742857142857147 1.0285714285714285t1.0600000000000023 2.4999999999999996 0.5357142857142847 2.767142857142858 0.1785714285714306 2.1428571428571423z"></path></svg>