<?xml version="1.0"?><svg viewBox="0 0 40 40" xmlns="http://www.w3.org/2000/svg" height="40" width="40"><path d="m30.7 30.2q0 0.8999999999999986-0.6000000000000014 1.6000000000000014l-1.8999999999999986 1.8000000000000007q-0.6000000000000014 0.7000000000000028-1.5 0.7000000000000028-1 0-1.6000000000000014-0.7000000000000028l-6.300000000000001-6.300000000000001q-0.6999999999999993-0.6000000000000014-0.6999999999999993-1.5 0-1 0.8000000000000007-1.6999999999999993l-4.5-4.399999999999999-2.0999999999999996 2.1000000000000014q-0.3000000000000007 0.3000000000000007-0.5999999999999996 0.3000000000000007t-0.5999999999999996-0.3000000000000007q0 0.10000000000000142 0.1999999999999993 0.1999999999999993t0.1999999999999993 0.3000000000000007l0.1999999999999993 0.1999999999999993 0.1999999999999993 0.1999999999999993q0 0.10000000000000142 0.09999999999999964 0.1999999999999993t0.09999999999999964 0.3000000000000007v0.3000000000000007q0 0.6999999999999993-0.5 1.1999999999999993-0.09999999999999964 0.10000000000000142-0.3000000000000007 0.3000000000000007t-0.3000000000000007 0.3999999999999986q-0.09999999999999964 0.10000000000000142-0.3000000000000007 0.3000000000000007t-0.40000000000000036 0.1999999999999993q-0.1999999999999993 0.10000000000000142-0.40000000000000036 0.1999999999999993t-0.5 0.10000000000000142q-0.5999999999999996 0-1.0999999999999996-0.5l-7.1-7.100000000000001q-0.5-0.5-0.5-1.1999999999999993 0-0.1999999999999993 0.09999999999999998-0.3999999999999986t0.09999999999999998-0.3999999999999986q0.09999999999999998-0.1999999999999993 0.30000000000000004-0.3999999999999986t0.30000000000000004-0.3000000000000007q0.10000000000000009-0.09999999999999964 0.30000000000000004-0.3000000000000007t0.3999999999999999-0.3000000000000007q0.5-0.5 1.1-0.5 0.20000000000000018 0 0.2999999999999998 0t0.2999999999999998 0.09999999999999964 0.30000000000000027 0.09999999999999964 0.20000000000000018 0.1999999999999993l0.20000000000000018 0.1999999999999993 0.20000000000000018 0.1999999999999993 0.20000000000000018 0.1999999999999993q-0.20000000000000018-0.1999999999999993-0.20000000000000018-0.5999999999999996t0.20000000000000018-0.5999999999999996l6.1-6q0.1999999999999993-0.3000000000000007 0.5999999999999996-0.3000000000000007t0.5999999999999996 0.3000000000000007q-0.09999999999999964-0.09999999999999964-0.3000000000000007-0.1999999999999993t-0.1999999999999993-0.3000000000000007q0 0-0.1999999999999993-0.20000000000000018t-0.09999999999999964-0.20000000000000018-0.09999999999999964-0.20000000000000018-0.09999999999999964-0.2999999999999998v-0.2999999999999998q0-0.7000000000000002 0.40000000000000036-1.2000000000000002l0.3000000000000007-0.2999999999999998 0.40000000000000036-0.40000000000000036q0-0.09999999999999964 0.3000000000000007-0.2999999999999998t0.40000000000000036-0.20000000000000018q0.09999999999999964-0.09999999999999964 0.3000000000000007-0.20000000000000018t0.5-0.09999999999999964q0.6999999999999993 0 1.1999999999999993 0.5l7.099999999999998 7.1q0.3999999999999986 0.5 0.3999999999999986 1.1999999999999993 0 0.1999999999999993 0 0.40000000000000036t-0.1999999999999993 0.40000000000000036q-0.10000000000000142 0.1999999999999993-0.3000000000000007 0.40000000000000036t-0.3000000000000007 0.3000000000000007q0 0.09999999999999964-0.3000000000000007 0.40000000000000036t-0.3000000000000007 0.1999999999999993q-0.5 0.5-1.1999999999999993 0.5-0.1999999999999993 0-0.3000000000000007 0t-0.3000000000000007-0.09999999999999964q-0.10000000000000142-0.09999999999999964-0.1999999999999993-0.09999999999999964t-0.3000000000000007-0.1999999999999993q-0.10000000000000142-0.09999999999999964-0.1999999999999993-0.09999999999999964t-0.1999999999999993-0.3000000000000007q-0.1999999999999993-0.09999999999999964-0.1999999999999993-0.1999999999999993 0.1999999999999993 0.3000000000000007 0.1999999999999993 0.5999999999999996t-0.1999999999999993 0.5999999999999996l-2.199999999999992 2.1999999999999975 4.5 4.399999999999999q0.6999999999999993-0.6999999999999993 1.6000000000000014-0.6999999999999993 0.8999999999999986 0 1.6000000000000014 0.6000000000000014l6.300000000000001 6.300000000000001q0.6000000000000014 0.6999999999999993 0.6000000000000014 1.6000000000000014z"></path></svg>