<?xml version="1.0"?><svg viewBox="0 0 40 40" xmlns="http://www.w3.org/2000/svg" height="40" width="40"><path d="m30.7 30.2q0 0.9-0.6 1.6l-1.9 1.8q-0.6 0.7-1.5 0.7-1 0-1.6-0.7l-6.3-6.3q-0.7-0.6-0.7-1.5 0-1 0.8-1.7l-4.5-4.4-2.1 2.1q-0.3 0.3-0.6 0.3t-0.6-0.3q0 0.1 0.2 0.2t0.2 0.3q0 0 0.2 0.2t0.2 0.2q0 0.1 0.1 0.2t0.1 0.3q0 0.2 0 0.3 0 0.7-0.5 1.2-0.1 0.1-0.3 0.3t-0.3 0.4q-0.1 0.1-0.3 0.3t-0.4 0.2q-0.2 0.1-0.4 0.2t-0.5 0.1q-0.6 0-1.1-0.5l-7.1-7.1q-0.5-0.5-0.5-1.2 0-0.2 0.1-0.4t0.1-0.4q0.1-0.2 0.3-0.4t0.3-0.3q0.1-0.1 0.3-0.3t0.4-0.3q0.5-0.5 1.1-0.5 0.2 0 0.3 0t0.3 0.1q0.2 0.1 0.3 0.1t0.2 0.2q0.1 0.1 0.2 0.2t0.2 0.2q0.2 0.2 0.2 0.2-0.2-0.2-0.2-0.6t0.2-0.6l6.1-6q0.2-0.3 0.6-0.3t0.6 0.3q-0.1-0.1-0.3-0.2t-0.2-0.3q0 0-0.2-0.2t-0.1-0.2q-0.1-0.1-0.1-0.2t-0.1-0.3q0-0.2 0-0.3 0-0.7 0.4-1.2 0.1-0.1 0.3-0.3t0.4-0.4q0-0.1 0.3-0.3t0.4-0.2q0.1-0.1 0.3-0.2t0.5-0.1q0.7 0 1.2 0.5l7.1 7.1q0.4 0.5 0.4 1.2 0 0.2 0 0.4t-0.2 0.4q-0.1 0.2-0.3 0.4t-0.3 0.3q0 0.1-0.3 0.4t-0.3 0.2q-0.5 0.5-1.2 0.5-0.2 0-0.3 0t-0.3-0.1q-0.1-0.1-0.2-0.1t-0.3-0.2q-0.1-0.1-0.2-0.1t-0.2-0.3q-0.2-0.1-0.2-0.2 0.2 0.3 0.2 0.6t-0.2 0.6l-2.2 2.2 4.5 4.4q0.7-0.7 1.6-0.7 0.9 0 1.6 0.6l6.3 6.3q0.6 0.7 0.6 1.6z"></path></svg>