<?xml version="1.0"?><svg viewBox="0 0 40 40" xmlns="http://www.w3.org/2000/svg" height="40" width="40"><path d="m33.5 17.4q0-0.9-0.2-2.4t-0.3-2q-0.3-0.6-0.4-0.9t-0.2-0.8-0.1-1q0-0.5 0.1-1.5t0.1-1.4q0-0.8-0.2-1.2-0.1 0-0.3 0-0.4 0-1.2 0.1t-1.2 0.1q-1.3 0-3.7-0.5t-3.7-0.5q-0.9 0-2 0.2t-1.8 0.5-1.9 0.8q-2.9 1.1-4.3 2.1-2 1.6-3.3 4t-1.9 5-0.5 5.2q0 0.9 0.3 2.6t0.2 2.5q0 0.5-0.2 1.4t-0.2 1.4 0.2 0.8 0.7 0.3q0.5 0 1.6-0.2t1.5-0.3q1.2 0 3.6 0.4t3.6 0.3q3.8 0 6-0.8 2.7-0.9 4.9-3.2t3.5-5.2 1.3-5.8z m2.7 0q0 3.5-1.5 6.9t-4.1 6.1-6 3.8q-2.6 0.9-6.8 0.9-1.2 0-3.6-0.3t-3.6-0.3q-0.5 0-1.5 0.3t-1.6 0.3q-1.5 0-2.6-1.2t-1-2.7q0-0.5 0.2-1.4t0.2-1.4q0-0.9-0.2-2.6t-0.3-2.5q0-2.4 0.4-4.6t1.1-4.4 2.1-4.1 3.2-3.3q1.7-1.3 4.9-2.6 4.1-1.6 6.7-1.6 1.2 0 3.7 0.5t3.6 0.5q0.4 0 1.2-0.1t1.3-0.1q1.7 0 2.5 1.1t0.7 2.8q0 0.5-0.1 1.4t-0.1 1.5q0 0.2 0 0.4t0.1 0.3 0.1 0.3 0.1 0.3 0.2 0.4q0.3 0.8 0.5 2.5t0.2 2.9z"></path></svg>