<?xml version="1.0"?><svg xmlns="http://www.w3.org/2000/svg" width="40" height="40" viewBox="0 0 40 40"><path d="m34.26285714285714 18.43714285714286q0-0.9828571428571422-0.15714285714285836-2.532857142857143t-0.3999999999999986-2.154285714285715q-0.2671428571428578-0.6714285714285708-0.38000000000000256-0.9828571428571422t-0.20000000000000284-0.814285714285715-0.09142857142857252-1.0828571428571436q0-0.5142857142857142 0.11142857142856855-1.5285714285714285t0.11142857142856855-1.508571428571429q0-0.8257142857142856-0.2228571428571442-1.2285714285714286-0.09000000000000341-0.021428571428571352-0.28999999999999915-0.021428571428571352-0.42285714285713993 0-1.2928571428571445 0.09999999999999964t-1.3171428571428585 0.09999999999999964q-1.3399999999999999 0-3.928571428571427-0.5371428571428574t-3.9057142857142715-0.5314285714285711q-0.96142857142857 0-2.111428571428572 0.2571428571428571t-1.8971428571428568 0.5228571428571431-1.9971428571428582 0.7571428571428571q-3.057142857142857 1.2071428571428564-4.508571428571429 2.3-2.1428571428571423 1.6285714285714281-3.5600000000000005 4.2285714285714295t-1.9642857142857144 5.268571428571427-0.5471428571428554 5.547142857142855q0 0.8928571428571423 0.27857142857142847 2.678571428571427t0.27857142857142847 2.6999999999999993q0 0.514285714285716-0.24571428571428555 1.485714285714284t-0.24571428571428555 1.46142857142857 0.2671428571428569 0.8142857142857167 0.7571428571428571 0.32428571428571473q0.5371428571428574 0 1.62-0.24571428571428555t1.6400000000000006-0.24571428571428555q1.2714285714285722 0 3.782857142857143 0.345714285714287t3.7828571428571447 0.345714285714287q4.0428571428571445 0 6.342857142857142-0.8028571428571425 2.87857142857143-1.0042857142857144 5.257142857142856-3.404285714285713t3.7042857142857137-5.48 1.3285714285714292-6.137142857142859z m2.857142857142854-0.04285714285714448q0 3.6814285714285724-1.5628571428571405 7.308571428571426t-4.375714285714288 6.428571428571431-6.271428571428572 4.028571428571425q-2.769999999999996 0.9828571428571493-7.281428571428567 0.9828571428571493-1.2714285714285722 0-3.7942857142857136-0.32428571428571473t-3.7714285714285722-0.32428571428571473q-0.5371428571428574 0-1.6199999999999992 0.32428571428571473t-1.6371428571428597 0.32428571428571473q-1.628571428571429 0-2.757142857142857-1.2385714285714258t-1.1285714285714286-2.8685714285714283q0-0.5357142857142847 0.24714285714285733-1.5171428571428578t0.24571428571428555-1.4957142857142856q0-0.8928571428571423-0.2799999999999998-2.6900000000000013t-0.27571428571428536-2.711428571428577q0-2.4771428571428586 0.3999999999999999-4.854285714285716t1.217142857142857-4.675714285714285 2.242857142857143-4.328571428571429 3.3485714285714288-3.4857142857142858q1.7428571428571438-1.314285714285714 5.178571428571429-2.677142857142858 4.331428571428569-1.7428571428571389 7.055714285714286-1.7428571428571389 1.3399999999999999 0 3.9171428571428564 0.5371428571428569t3.87142857142857 0.5357142857142856q0.42571428571428527 0 1.274285714285714-0.10999999999999988t1.2942857142857171-0.11142857142857165q1.808571428571426 0 2.634285714285717 1.1285714285714281t0.8257142857142838 3q0 0.5142857142857142-0.11142857142856855 1.5185714285714287t-0.11142857142856855 1.5171428571428578q0 0.22285714285714242 0.022857142857141355 0.4142857142857146t0.06714285714285495 0.3785714285714281 0.09000000000000341 0.3000000000000007 0.14571428571428413 0.35714285714285765 0.14571428571428413 0.38142857142857167q0.3571428571428541 0.8928571428571423 0.5571428571428569 2.645714285714286t0.20285714285714107 3.047142857142859z"></path></svg>