<?xml version="1.0"?><svg viewBox="0 0 40 40" xmlns="http://www.w3.org/2000/svg" height="40" width="40"><path d="m24.4 17.9q0-0.8-0.1-2t-0.3-1.7q-0.2-0.5-0.3-0.7t-0.2-0.7q0-0.4 0-0.8 0-0.4 0.1-1.2t0-1.2q0-0.6-0.1-0.9-0.1 0-0.3 0-0.3 0-1 0t-1 0.1q-1 0-3-0.4t-3.1-0.4q-0.7 0-1.6 0.2t-1.5 0.4q-0.6 0.2-1.5 0.6-2.4 0.9-3.6 1.8-1.6 1.2-2.7 3.3t-1.6 4.1q-0.4 2-0.4 4.3 0 0.7 0.2 2.1t0.3 2.1q0 0.4-0.2 1.1t-0.2 1.1q0 0.4 0.2 0.7t0.6 0.2q0.4 0 1.2-0.2t1.3-0.1q1 0 3 0.2t2.9 0.3q3.1 0 4.9-0.6 2.3-0.8 4.1-2.7t2.9-4.2q1-2.4 1-4.8z m2.2-0.1q0 2.9-1.2 5.7t-3.4 5q-2.2 2.2-4.8 3.2-2.2 0.7-5.7 0.7-1 0-3-0.2t-2.9-0.3q-0.4 0-1.3 0.3t-1.2 0.2q-1.3 0-2.2-0.9t-0.8-2.3q0-0.4 0.1-1.1t0.2-1.2q0-0.7-0.2-2.1t-0.2-2.1q0-1.9 0.3-3.8t1-3.6q0.6-1.8 1.7-3.4t2.6-2.7q1.4-1 4-2.1 3.4-1.3 5.5-1.3 1.1 0 3.1 0.4t3 0.4q0.3 0 1-0.1t1-0.1q1.4 0 2 0.9t0.7 2.3q0 0.4-0.1 1.2t-0.1 1.2q0 0.2 0 0.3t0.1 0.3q0 0.2 0 0.2t0.1 0.3q0.1 0.2 0.2 0.3 0.2 0.7 0.4 2.1t0.1 2.3z"></path></svg>