<?xml version="1.0"?><svg xmlns="http://www.w3.org/2000/svg" width="40" height="40" viewBox="0 0 40 40"><path d="m25 12.857142857142858q0 0.28999999999999915-0.21142857142856997 0.5028571428571436t-0.5028571428571453 0.21142857142856997-0.5028571428571418-0.21142857142857174-0.21142857142856997-0.5028571428571418q0-1.0285714285714285-1.2057142857142864-1.5857142857142854t-2.3657142857142865-0.5571428571428569q-0.28999999999999915 0-0.5028571428571418-0.21142857142857174t-0.21142857142857352-0.5028571428571436 0.21142857142856997-0.5028571428571436 0.5028571428571453-0.21142857142856997q1.1142857142857139 0 2.2214285714285715 0.35714285714285765t1.942857142857143 1.2057142857142864 0.8357142857142854 2.008571428571427z m3.571428571428573 0q0-1.6071428571428577-0.7714285714285722-2.991428571428571t-2.0057142857142907-2.265714285714286-2.7457142857142856-1.3857142857142852-3.0485714285714245-0.5000000000000009-3.047142857142859 0.5-2.7457142857142856 1.3857142857142852-2.0071428571428562 2.265714285714285-0.7714285714285705 2.991428571428573q0 2.2542857142857144 1.5171428571428578 4.017142857142858 0.22285714285714242 0.24571428571428555 0.6814285714285706 0.7371428571428567t0.6799999999999997 0.7371428571428567q2.8571428571428577 3.4142857142857146 3.147142857142857 6.651428571428571h5.088571428571427q0.28999999999999915-3.2371428571428567 3.147142857142857-6.651428571428571 0.2228571428571442-0.24571428571428555 0.6814285714285724-0.7371428571428567t0.6814285714285724-0.7371428571428567q1.5185714285714305-1.7628571428571451 1.5185714285714305-4.017142857142858z m2.8571428571428577 0q0 3.460000000000001-2.3000000000000007 5.982857142857142-1.0028571428571418 1.0942857142857143-1.6614285714285728 1.942857142857143t-1.3285714285714292 2.12857142857143-0.7571428571428562 2.3999999999999986q1.047142857142859 0.6285714285714299 1.047142857142859 1.831428571428571 0 0.8257142857142874-0.5571428571428569 1.428571428571427 0.5571428571428569 0.6028571428571432 0.5571428571428569 1.428571428571427 0 1.1600000000000001-1.0042857142857144 1.8085714285714296 0.28999999999999915 0.5142857142857125 0.28999999999999915 1.048571428571428 0 1.028571428571432-0.7028571428571411 1.585714285714289t-1.7285714285714278 0.5571428571428569q-0.4485714285714302 0.9828571428571422-1.3428571428571416 1.5628571428571405t-1.9400000000000048 0.5800000000000054-1.942857142857143-0.5799999999999983-1.3385714285714272-1.5628571428571405q-1.0285714285714285 0-1.7285714285714278-0.5571428571428569t-0.7042857142857155-1.585714285714289q0-0.5357142857142847 0.2900000000000009-1.048571428571428-1.0042857142857162-0.6471428571428639-1.0042857142857162-1.8085714285714332 0-0.8257142857142838 0.5571428571428569-1.428571428571427-0.5571428571428569-0.6028571428571432-0.5571428571428569-1.428571428571427 0-1.2057142857142864 1.048571428571428-1.8285714285714292-0.08999999999999986-1.1171428571428557-0.757142857142858-2.3999999999999986t-1.3285714285714292-2.1328571428571443-1.6642857142857146-1.942857142857143q-2.2985714285714263-2.520000000000003-2.2985714285714263-5.981428571428573 0-2.210000000000001 0.992857142857142-4.118571428571428t2.611428571428572-3.1714285714285717 3.66-1.9857142857142858 4.164285714285715-0.7242857142857146 4.161428571428573 0.7242857142857142 3.66 1.9857142857142853 2.611428571428572 3.1714285714285726 0.9928571428571367 4.118571428571428z"></path></svg>