<?xml version="1.0"?><svg viewBox="0 0 40 40" xmlns="http://www.w3.org/2000/svg" height="40" width="40"><path d="m12.8 13.5q0 0.3-0.2 0.4t-0.4 0.2q-0.2 0-0.4-0.2t-0.1-0.4q0-0.8-1-1.2t-1.8-0.4q-0.2 0-0.4-0.2t-0.2-0.4q0-0.2 0.2-0.4t0.4-0.1q0.9 0 1.7 0.2t1.5 1q0.7 0.6 0.7 1.5z m2.8 0q0-1.2-0.6-2.3t-1.6-1.7q-1-0.7-2.1-1.1t-2.4-0.4q-1.2 0-2.4 0.4t-2.1 1.1q-1 0.6-1.6 1.7t-0.6 2.3q0 1.8 1.2 3.2 0.2 0.2 0.5 0.5t0.6 0.6q2.2 2.7 2.4 5.2h4q0.2-2.5 2.4-5.2 0.2-0.2 0.5-0.6t0.6-0.5q1.2-1.4 1.2-3.2z m2.2 0q0 2.7-1.8 4.7-0.8 0.8-1.3 1.5t-1 1.7q-0.6 1-0.6 1.8 0.8 0.5 0.8 1.5 0 0.6-0.4 1.1 0.4 0.4 0.4 1.1 0 0.9-0.8 1.4 0.2 0.4 0.2 0.8 0 0.8-0.5 1.2t-1.4 0.5q-0.3 0.7-1 1.2t-1.5 0.4q-0.8 0-1.5-0.4t-1.1-1.2q-0.8 0-1.3-0.5t-0.6-1.2q0-0.4 0.3-0.8-0.8-0.5-0.8-1.4 0-0.7 0.4-1.1-0.4-0.5-0.4-1.1 0-1 0.8-1.5-0.1-0.8-0.6-1.8t-1-1.7q-0.5-0.7-1.3-1.5-1.8-2-1.8-4.7 0-1.7 0.8-3.2t2-2.4q1.3-1 2.9-1.6t3.2-0.5q1.6 0 3.2 0.5t2.9 1.6q1.2 1 2 2.4t0.8 3.2z"></path></svg>