<?xml version="1.0"?><svg viewBox="0 0 40 40" xmlns="http://www.w3.org/2000/svg" height="40" width="40"><path d="m8.8 29.8h4.9v-14.6h-4.9v14.6z m5.2-19.1q0-1.1-0.8-1.8t-1.9-0.8-2 0.8-0.8 1.8q0 1.1 0.8 1.8t1.9 0.7h0q1.3 0 2-0.7t0.8-1.8z m12.3 19.1h4.9v-8.4q0-3.2-1.5-4.9t-4.1-1.6q-2.9 0-4.4 2.4h0v-2.1h-4.8q0 1.4 0 14.6h4.8v-8.2q0-0.8 0.2-1.1 0.3-0.8 0.9-1.3t1.6-0.5q2.4 0 2.4 3.3v7.8z m9.9-21v20.2q0 2.5-1.8 4.3t-4.3 1.8h-20.2q-2.5 0-4.3-1.8t-1.8-4.3v-20.2q0-2.5 1.8-4.3t4.3-1.8h20.2q2.5 0 4.3 1.8t1.8 4.3z"></path></svg>