<?xml version="1.0"?><svg xmlns="http://www.w3.org/2000/svg" width="40" height="40" viewBox="0 0 40 40"><path d="m17.65714285714286 9.174285714285714q-0.24714285714285822 0.02285714285714313-0.3471428571428561 0.23428571428571487t-0.19000000000000128 0.21142857142857174q-0.1114285714285721 0.02285714285714313-0.1114285714285721-0.1114285714285721 0-0.2671428571428578 0.4242857142857126-0.3342857142857145h0.2228571428571442z m1.942857142857143 0.31428571428571495q-0.09142857142857252 0.02142857142857224-0.25714285714285623-0.1471428571428568t-0.39142857142857324-0.09999999999999964q0.5357142857142847-0.24714285714285644 0.7142857142857153 0.042857142857142705 0.0671428571428585 0.13428571428571345-0.0671428571428585 0.1999999999999993z m-7.837142857142858 9.528571428571428q-0.08999999999999986-0.022857142857141355-0.13428571428571345 0.0671428571428585t-0.09999999999999964 0.2771428571428558-0.12285714285714278 0.3000000000000007-0.22285714285714242 0.2914285714285718q-0.15714285714285658 0.2228571428571442-0.02285714285714313 0.2671428571428578 0.08999999999999986 0.022857142857141355 0.27857142857142847-0.15714285714285836t0.27857142857142847-0.3999999999999986q0.02285714285714313-0.0671428571428585 0.042857142857142705-0.15714285714285836t0.04571428571428626-0.13285714285714434 0.03285714285714292-0.10000000000000142 0.011428571428570677-0.08999999999999986v-0.06857142857142762l-0.02285714285714313-0.05714285714285694-0.0685714285714294-0.04285714285714448z m19.085714285714285 8.014285714285712q0-0.3999999999999986-1.2285714285714278-0.937142857142856 0.09142857142857252-0.33428571428571274 0.16857142857142904-0.6142857142857139t0.1114285714285721-0.5800000000000018 0.0671428571428585-0.4800000000000004 0.011428571428570677-0.5028571428571418-0.022857142857141355-0.43571428571428683-0.0799999999999983-0.4914285714285711-0.08999999999999986-0.4571428571428555-0.10999999999999943-0.5571428571428569-0.12285714285714278-0.5928571428571416q-0.2228571428571442-1.071428571428573-1.048571428571428-2.3000000000000007t-1.6071428571428577-1.6714285714285708q0.5357142857142847 0.44571428571428484 1.2714285714285722 1.8514285714285705 1.942857142857143 3.614285714285714 1.2071428571428555 6.205714285714286-0.24571428571428555 0.8928571428571423-1.1142857142857139 0.937142857142856-0.6928571428571431 0.08999999999999986-0.8614285714285721-0.4142857142857146t-0.17857142857142705-1.8628571428571448-0.25714285714285623-2.388571428571428q-0.1999999999999993-0.8714285714285701-0.43571428571428683-1.5399999999999991t-0.43571428571428683-1.014285714285716-0.345714285714287-0.548571428571428-0.28999999999999915-0.33428571428571274-0.16714285714285637-0.15714285714285836q-0.31428571428571317-1.3828571428571443-0.6914285714285704-2.297142857142857t-0.6600000000000001-1.25-0.524285714285714-0.7385714285714293-0.33285714285714363-0.8928571428571423q-0.08999999999999986-0.468571428571428 0.13428571428571345-1.194285714285714t0.10000000000000142-1.104285714285714-0.9914285714285711-0.5600000000000005q-0.33428571428571274-0.06714285714285673-0.9928571428571438-0.40000000000000036t-0.7914285714285718-0.35714285714285765q-0.17857142857142705-0.024285714285714022-0.24571428571428555-0.581428571428571t0.17857142857142705-1.137142857142857 0.8000000000000007-0.6028571428571432q0.8285714285714292-0.06714285714285673 1.1400000000000006 0.6714285714285717t0.08999999999999986 1.2928571428571436q-0.24285714285714377 0.4242857142857144-0.04285714285714448 0.5914285714285707t0.6714285714285708 0.014285714285714235q0.28857142857143003-0.09142857142857075 0.28857142857143003-0.8042857142857152v-0.8242857142857112q-0.1114285714285721-0.6714285714285717-0.3000000000000007-1.1171428571428574t-0.47142857142857153-0.6814285714285715-0.5228571428571414-0.33285714285714274-0.6028571428571432-0.16714285714285726q-2.388571428571428 0.17857142857142883-1.985714285714284 2.991428571428572 0 0.3342857142857145-0.024285714285714022 0.3342857142857145-0.1999999999999993-0.1999999999999993-0.6571428571428584-0.23428571428571487t-0.7385714285714293 0.011428571428570677-0.345714285714287-0.1114285714285721q0.022857142857141355-1.2714285714285714-0.35714285714285765-2.008571428571429t-1.0042857142857144-0.7571428571428571q-0.6028571428571432-0.024285714285714022-0.9257142857142853 0.6142857142857148t-0.36857142857142833 1.3285714285714292q-0.024285714285714022 0.33285714285714363 0.07714285714285651 0.8242857142857147t0.28999999999999915 0.8371428571428563 0.3457142857142852 0.3028571428571425q0.22142857142856975-0.06714285714285673 0.3571428571428559-0.31428571428571495 0.08857142857142719-0.1999999999999993-0.15714285714285836-0.17714285714285793-0.15714285714285658 0-0.3457142857142852-0.32428571428571473t-0.21142857142857174-0.7471428571428547q-0.02285714285714313-0.4914285714285711 0.1999999999999993-0.8257142857142856t0.7600000000000016-0.31428571428571406q0.379999999999999 0 0.6028571428571432 0.47142857142857153t0.21142857142856997 0.8685714285714292-0.03285714285714292 0.4914285714285711q-0.49285714285714377 0.3342857142857145-0.6928571428571431 0.6471428571428568-0.17857142857142705 0.2671428571428578-0.6142857142857139 0.524285714285714t-0.4571428571428573 0.27857142857142847q-0.2900000000000009 0.31428571428571495-0.3457142857142852 0.6028571428571432t0.16714285714285637 0.40000000000000036q0.31428571428571495 0.17857142857142883 0.5571428571428569 0.43571428571428505t0.35714285714285765 0.4242857142857144 0.4142857142857146 0.2900000000000009 0.7928571428571445 0.1457142857142859q1.048571428571428 0.042857142857142705 2.277142857142856-0.3342857142857145 0.04285714285714448-0.02285714285714313 0.5114285714285707-0.15714285714285658t0.7714285714285722-0.2328571428571422 0.6571428571428584-0.2900000000000009 0.46857142857142975-0.39000000000000057q0.1999999999999993-0.31428571428571495 0.4471428571428575-0.17857142857142883 0.10999999999999943 0.06571428571428584 0.14285714285714235 0.1885714285714286t-0.06571428571428584 0.2671428571428578-0.36857142857142833 0.21000000000000085q-0.4471428571428575 0.13428571428571345-1.2614285714285707 0.4800000000000004t-1.0142857142857125 0.43571428571428505q-0.985714285714284 0.4242857142857144-1.5642857142857132 0.5142857142857142-0.5571428571428569 0.10999999999999943-1.7628571428571433-0.04571428571428626-0.2228571428571442-0.042857142857142705-0.1999999999999993 0.042857142857142705t0.3785714285714299 0.42571428571428527q0.5571428571428569 0.5142857142857142 1.4942857142857129 0.4914285714285711 0.379999999999999-0.02285714285714313 0.8028571428571425-0.15714285714285658t0.8028571428571425-0.3114285714285714 0.7471428571428582-0.39000000000000057 0.6714285714285708-0.3800000000000008 0.5457142857142863-0.2657142857142851 0.39000000000000057-0.05714285714285694 0.19000000000000128 0.24714285714285644q0 0.042857142857142705-0.02142857142857224 0.09999999999999964t-0.08999999999999986 0.1114285714285721-0.13428571428571345 0.09999999999999964-0.19000000000000128 0.1114285714285721-0.1999999999999993 0.09999999999999964-0.2242857142857133 0.1114285714285721-0.21142857142856997 0.09999999999999964q-0.6257142857142846 0.31428571428571495-1.5071428571428562 0.9857142857142858t-1.4857142857142875 0.9571428571428573-1.0928571428571416 0.024285714285714022q-0.46857142857142975-0.24571428571428555-1.4057142857142857-1.6285714285714281-0.4914285714285711-0.6928571428571431-0.5571428571428569-0.492857142857142-0.024285714285714022 0.06714285714285673-0.024285714285714022 0.22285714285714242 0 0.5571428571428569-0.3357142857142854 1.2614285714285707t-0.6571428571428566 1.2399999999999984-0.47142857142857153 1.2942857142857136 0.257142857142858 1.4057142857142857q-0.5114285714285707 0.13428571428571345-1.394285714285715 2.008571428571429t-1.0614285714285714 3.147142857142857q-0.042857142857142705 0.3999999999999986-0.03285714285714292 1.5399999999999991t-0.12285714285714278 1.3171428571428585q-0.17857142857142883 0.5357142857142847-0.6471428571428568 0.0671428571428585-0.7142857142857135-0.6914285714285704-0.8028571428571425-2.1000000000000014-0.042857142857142705-0.6242857142857154 0.08999999999999986-1.2485714285714273 0.08999999999999986-0.4242857142857126-0.02285714285714313-0.3999999999999986l-0.08999999999999986 0.10999999999999943q-0.8028571428571425 1.451428571428572 0.22285714285714242 3.7057142857142864 0.1114285714285721 0.2685714285714269 0.5571428571428569 0.6285714285714299t0.5371428571428574 0.44571428571428484q0.44571428571428484 0.5142857142857125 2.3200000000000003 2.0199999999999996t2.0757142857142856 1.707142857142859q0.3571428571428559 0.33571428571428896 0.3899999999999988 0.8500000000000014t-0.31428571428571495 0.9600000000000009-1.0142857142857142 0.5142857142857125q0.17857142857142883 0.33285714285714363 0.6471428571428568 0.9914285714285711t0.6257142857142846 1.2071428571428555 0.15714285714285836 1.5742857142857147q1.0285714285714285-0.5357142857142847 0.15714285714285836-2.0528571428571425-0.09142857142857252-0.1785714285714306-0.235714285714284-0.3571428571428541t-0.21142857142857174-0.2671428571428578-0.042857142857142705-0.134285714285717q0.06571428571428584-0.11428571428571388 0.28857142857143003-0.2142857142857153t0.44571428571428484 0.05714285714285694q1.0285714285714285 1.1599999999999966 3.7057142857142864 0.8028571428571425 2.9685714285714297-0.33428571428571274 3.951428571428572-1.942857142857143 0.5142857142857125-0.8471428571428561 0.7571428571428562-0.6685714285714255 0.2685714285714269 0.134285714285717 0.2242857142857133 1.1599999999999966-0.024285714285714022 0.5571428571428569-0.514285714285716 2.0528571428571425-0.1999999999999993 0.5142857142857125-0.13428571428571345 0.8371428571428581t0.5357142857142847 0.34285714285714164q0.06857142857142762-0.42285714285713993 0.3257142857142874-1.7171428571428606t0.3000000000000007-2.008571428571429q0.04571428571428626-0.46857142857142975-0.14285714285714235-1.6400000000000006t-0.16857142857142904-2.1657142857142873 0.514285714285716-1.5742857142857147q0.33285714285714363-0.3999999999999986 1.1371428571428588-0.3999999999999986 0.022857142857141355-0.8285714285714292 0.7714285714285722-1.1857142857142868t1.6171428571428557-0.2328571428571422 1.3399999999999999 0.5028571428571418z m-14.02-18.46q0.06857142857142762-0.379999999999999-0.05428571428571516-0.6714285714285699t-0.25714285714285623-0.33285714285714274q-0.1999999999999993-0.042857142857142705-0.1999999999999993 0.15714285714285747 0.04285714285714448 0.11000000000000032 0.10999999999999943 0.13285714285714256 0.22142857142857153 0 0.15428571428571303 0.33428571428571363-0.0671428571428585 0.4471428571428575 0.17857142857142705 0.4471428571428575 0.0671428571428585 0 0.0671428571428585-0.06714285714285673z m9.354285714285716 4.397142857142859q-0.04285714285714448-0.17857142857142883-0.14571428571428413-0.257142857142858t-0.28999999999999915-0.1114285714285721-0.32428571428571473-0.12285714285714278q-0.1114285714285721-0.06714285714285673-0.21142857142856997-0.17857142857142883t-0.15714285714285836-0.17999999999999972-0.12142857142857011-0.1457142857142859-0.08999999999999986-0.08999999999999986-0.08999999999999986 0.03142857142857203q-0.31428571428571317 0.35714285714285765 0.15714285714285836 0.9714285714285715t0.8685714285714283 0.7028571428571428q0.1999999999999993 0.02285714285714313 0.32428571428571473-0.17857142857142883t0.07857142857142918-0.4485714285714284z m-3.9714285714285715-4.7542857142857144q0-0.24571428571428555-0.11428571428571388-0.43571428571428594t-0.24285714285714377-0.27857142857142847-0.20285714285714107-0.06714285714285673q-0.31428571428571317 0.02285714285714313-0.15714285714285836 0.15714285714285747l0.09142857142857252 0.042857142857142705q0.31428571428571317 0.08999999999999986 0.3999999999999986 0.6914285714285722 0 0.06714285714285673 0.17999999999999972-0.042857142857142705z m1.2042857142857137-5.2q0-0.04571428571428582-0.05428571428571516-0.11428571428571432t-0.1999999999999993-0.15428571428571436-0.2142857142857153-0.13428571428571434q-0.33285714285714363-0.3342857142857145-0.5342857142857156-0.3342857142857145-0.1999999999999993 0.022857142857142687-0.25714285714285623 0.16714285714285726t-0.022857142857141355 0.29142857142857137-0.011428571428570677 0.27857142857142847q-0.022857142857141355 0.08857142857142852-0.13428571428571345 0.23285714285714265t-0.13428571428571345 0.20000000000000018 0.0671428571428585 0.19142857142857128q0.08999999999999986 0.06714285714285717 0.17857142857142705 0t0.24571428571428555-0.20000000000000018 0.33428571428571274-0.20285714285714285q0.022857142857141355-0.022857142857142687 0.1999999999999993-0.022857142857142687t0.3357142857142854-0.04571428571428582 0.1999999999999993-0.15714285714285703z m12.614285714285714 29.932857142857145q0.4457142857142884 0.2671428571428578 0.6899999999999977 0.5471428571428589t0.2671428571428578 0.5357142857142847-0.05714285714285694 0.5042857142857144-0.34285714285714164 0.4914285714285711-0.5257142857142867 0.4357142857142833-0.6714285714285708 0.41428571428571104-0.7000000000000028 0.3671428571428592-0.7142857142857153 0.34285714285714164-0.6042857142857159 0.29142857142856826q-0.8500000000000014 0.42428571428571615-1.9100000000000001 1.25t-1.6857142857142868 1.4285714285714306q-0.379999999999999 0.3571428571428541-1.5171428571428578 0.43428571428571416t-1.985714285714284-0.32428571428571473q-0.3999999999999986-0.20000000000000284-0.6571428571428584-0.5242857142857176t-0.3714285714285701-0.5685714285714312-0.48999999999999844-0.4357142857142833-1.048571428571428-0.21142857142856997q-0.9828571428571422-0.024285714285717575-2.8999999999999986-0.024285714285717575-0.42571428571428527 0-1.274285714285714 0.032857142857139365t-1.2928571428571445 0.05714285714285694q-0.9828571428571422 0.02142857142857224-1.774285714285714 0.33285714285714363t-1.194285714285714 0.6685714285714255-0.9714285714285715 0.6357142857142861-1.194285714285714 0.2571428571428598q-0.6457142857142859-0.022857142857141355-2.475714285714286-0.691428571428574t-3.257142857142857-0.96142857142857q-0.42571428571428616-0.09000000000000341-1.1399999999999997-0.21142857142856997t-1.1171428571428574-0.20285714285714107-0.8814285714285717-0.21142857142856997-0.7457142857142856-0.32428571428571473-0.3799999999999999-0.4357142857142833q-0.22285714285714286-0.5142857142857125 0.15714285714285703-1.4857142857142875t0.3999999999999999-1.2142857142857153q0.022857142857142687-0.3571428571428541-0.08999999999999986-0.894285714285715t-0.2242857142857142-0.9485714285714266-0.10000000000000009-0.8142857142857132 0.23428571428571443-0.6028571428571432q0.31428571428571406-0.2671428571428578 1.2714285714285714-0.31428571428571317t1.3428571428571425-0.2657142857142851q0.6685714285714282-0.3999999999999986 0.9357142857142859-0.7814285714285703t0.2671428571428569-1.138571428571428q0.4671428571428571 1.62857142857143-0.7142857142857144 2.3657142857142865-0.7142857142857144 0.4471428571428575-1.854285714285714 0.33428571428571274-0.7571428571428571-0.0671428571428585-0.96 0.2228571428571442-0.29000000000000004 0.33428571428571274 0.11142857142857121 1.2714285714285722 0.042857142857142705 0.13571428571428612 0.17857142857142883 0.4028571428571439t0.1900000000000004 0.3999999999999986 0.09999999999999964 0.38142857142857167 0.02285714285714313 0.4928571428571402q0 0.33428571428571274-0.3799999999999999 1.0942857142857108t-0.31428571428571406 1.0714285714285694q0.0685714285714285 0.38142857142857167 0.8285714285714283 0.5814285714285745 0.44571428571428573 0.134285714285717 1.8857142857142861 0.41428571428571104t2.2200000000000006 0.4571428571428555q0.5357142857142865 0.1328571428571408 1.6514285714285712 0.490000000000002t1.8428571428571434 0.5142857142857125 1.2371428571428567 0.08857142857142719q0.9600000000000009-0.134285714285717 1.4399999999999995-0.6257142857142881t0.5142857142857142-1.0714285714285694-0.16857142857142904-1.3057142857142878-0.4242857142857144-1.1600000000000037-0.4471428571428575-0.8142857142857167q-2.6999999999999993-4.242857142857144-3.7714285714285722-5.399999999999999-1.5185714285714287-1.652857142857144-2.524285714285714-0.894285714285715-0.24571428571428555 0.1999999999999993-0.3342857142857145-0.33428571428571274-0.06571428571428584-0.35714285714285765-0.042857142857142705-0.8485714285714288 0.02285714285714313-0.6471428571428568 0.22285714285714242-1.1600000000000001t0.5357142857142865-1.048571428571428 0.492857142857142-0.937142857142856q0.17857142857142883-0.46857142857142975 0.5914285714285707-1.6071428571428577t0.6571428571428566-1.7428571428571438 0.6714285714285708-1.3599999999999994 0.8685714285714283-1.2057142857142864q2.4571428571428573-3.1900000000000013 2.767142857142858-4.3514285714285705-0.2671428571428578-2.5-0.35714285714285765-6.920000000000001-0.042857142857142705-2.008571428571428 0.5357142857142865-3.3814285714285717t2.3628571428571465-2.329999999999978q0.8714285714285701-0.46857142857142864 2.321428571428573-0.46857142857142864 1.1857142857142868-0.022857142857142857 2.367142857142859 0.3t1.985714285714284 0.9285714285714286q1.274285714285714 0.9357142857142857 2.042857142857141 2.71t0.6600000000000001 3.291428571428571q-0.11428571428571388 2.120000000000001 0.668571428571429 4.777142857142856 0.7571428571428562 2.522857142857143 2.9685714285714297 4.8657142857142865 1.2285714285714278 1.3171428571428585 2.221428571428568 3.638571428571428t1.3285714285714292 4.2642857142857125q0.17999999999999972 1.0942857142857143 0.11428571428571388 1.8857142857142861t-0.2685714285714269 1.2385714285714293-0.4471428571428575 0.4914285714285711q-0.2242857142857133 0.04285714285714448-0.5257142857142867 0.4242857142857126t-0.6028571428571432 0.7928571428571445-0.904285714285713 0.7471428571428582-1.361428571428572 0.31428571428571317q-0.3999999999999986-0.022857142857141355-0.7028571428571411-0.1114285714285721t-0.5028571428571418-0.3000000000000007-0.3000000000000007-0.3471428571428561-0.25714285714285623-0.4571428571428555-0.20285714285714462-0.43714285714285595q-0.4914285714285711-0.8257142857142874-0.9142857142857146-0.6714285714285708t-0.6285714285714299 1.095714285714287 0.15714285714285836 2.1671428571428564q0.4471428571428575 1.562857142857144 0.022857142857141355 4.352857142857143-0.2228571428571442 1.451428571428572 0.3999999999999986 2.24285714285714t1.6314285714285717 0.7371428571428567 1.8971428571428568-0.7928571428571445q1.3171428571428585-1.0942857142857179 1.9971428571428582-1.4857142857142875t2.3100000000000023-0.9471428571428575q1.1814285714285688-0.3999999999999986 1.7171428571428535-0.8142857142857167t0.41428571428571104-0.7714285714285722-0.5600000000000023-0.634285714285717-1.1499999999999986-0.5242857142857176q-0.7371428571428567-0.24285714285714022-1.1042857142857159-1.071428571428573t-0.33428571428571274-1.6171428571428557 0.345714285714287-1.0599999999999987q0.022857142857141355 0.6914285714285704 0.1785714285714306 1.2614285714285707t0.32428571428571473 0.9028571428571439 0.4571428571428555 0.6357142857142861 0.46857142857142975 0.42428571428571615 0.4799999999999969 0.28999999999999915 0.36857142857142833 0.21142857142856997z"></path></svg>