<?xml version="1.0"?><svg viewBox="0 0 40 40" xmlns="http://www.w3.org/2000/svg" height="40" width="40"><path d="m11.5 10.7q-0.2 0-0.3 0.2t-0.1 0.1q-0.1 0-0.1-0.1 0-0.2 0.3-0.2h0.2z m1.5 0.2q0 0-0.2-0.1t-0.3-0.1q0.4-0.2 0.6 0.1 0 0.1-0.1 0.1z m-6.1 7.4q0 0-0.1 0.1t-0.1 0.2q0 0.1-0.1 0.2t-0.1 0.3q-0.1 0.1 0 0.2 0 0 0.2-0.2t0.2-0.3q0 0 0-0.1t0.1-0.1q0 0 0-0.1t0 0v-0.1q0 0 0 0t-0.1-0.1z m14.9 6.3q0-0.3-1-0.8 0.1-0.2 0.1-0.4t0.1-0.5q0.1-0.2 0.1-0.4t0-0.4q0-0.2 0-0.3t-0.1-0.4q0-0.3-0.1-0.3t0-0.5q-0.1-0.3-0.1-0.4-0.2-0.9-0.9-1.8t-1.2-1.3q0.4 0.3 1 1.4 1.5 2.8 0.9 4.8-0.2 0.7-0.8 0.8-0.6 0-0.7-0.3t-0.2-1.5q0-1.1-0.2-1.8-0.1-0.7-0.3-1.2t-0.3-0.8q-0.2-0.3-0.3-0.5t-0.2-0.2q-0.1-0.1-0.2-0.1-0.2-1.1-0.5-1.8t-0.5-1q-0.2-0.3-0.4-0.6t-0.3-0.7q0-0.3 0.1-0.9t0.1-0.9q-0.1-0.3-0.8-0.4-0.2 0-0.7-0.3t-0.6-0.3q-0.2 0-0.2-0.4t0.1-0.9q0.2-0.5 0.6-0.5 0.7 0 0.9 0.5t0.1 1q-0.2 0.4-0.1 0.5t0.6 0q0.2-0.1 0.2-0.6v-0.7q-0.1-0.5-0.2-0.8t-0.4-0.6q-0.2-0.1-0.4-0.2t-0.5-0.1q-1.8 0.1-1.5 2.3 0 0.2 0 0.2-0.2-0.1-0.6-0.1t-0.5 0q-0.3 0-0.3-0.1 0-1-0.3-1.6t-0.8-0.6q-0.4 0-0.7 0.5t-0.3 1q0 0.3 0.1 0.7t0.2 0.6q0.2 0.3 0.3 0.3 0.2-0.1 0.3-0.3 0-0.1-0.2-0.1-0.1 0-0.2-0.3t-0.2-0.6q0-0.3 0.2-0.6t0.6-0.2q0.3 0 0.4 0.3t0.2 0.7q0 0.3 0 0.4-0.4 0.2-0.6 0.5-0.1 0.2-0.5 0.4t-0.3 0.2q-0.2 0.3-0.3 0.5t0.2 0.3q0.2 0.1 0.4 0.3t0.3 0.4q0.1 0.1 0.3 0.2t0.6 0.1q0.8 0 1.8-0.3 0 0 0.4-0.1t0.6-0.2q0.2 0 0.5-0.2t0.3-0.3q0.2-0.2 0.4-0.1 0.1 0 0.1 0.1t0 0.2q-0.1 0.1-0.3 0.2-0.4 0.1-1 0.4t-0.8 0.3q-0.8 0.3-1.2 0.4-0.5 0.1-1.4 0-0.2-0.1-0.1 0t0.3 0.3q0.4 0.4 1.1 0.4 0.3 0 0.6-0.1t0.7-0.3q0.3-0.1 0.5-0.3t0.6-0.3q0.2-0.1 0.4-0.2t0.3 0q0.1 0 0.1 0.2 0 0 0 0.1t0 0.1q-0.1 0-0.1 0t-0.2 0.1q-0.1 0.1-0.2 0.1t-0.1 0.1q-0.1 0-0.2 0.1-0.5 0.2-1.2 0.7t-1.1 0.8q-0.5 0.2-0.9 0-0.3-0.2-1.1-1.3-0.3-0.5-0.4-0.4 0 0.1 0 0.2 0 0.4-0.3 1t-0.5 1q-0.2 0.4-0.3 1t0.2 1.1q-0.4 0.1-1.1 1.5t-0.9 2.5q0 0.3 0 1.2t-0.1 1q-0.1 0.4-0.5 0-0.5-0.5-0.6-1.6 0-0.5 0.1-1 0-0.3-0.1-0.3l0 0.1q-0.7 1.1 0.1 2.9 0.1 0.2 0.5 0.5t0.4 0.3q0.3 0.4 1.8 1.6t1.6 1.3q0.3 0.3 0.3 0.7t-0.2 0.7q-0.3 0.4-0.8 0.4 0.1 0.3 0.5 0.8t0.5 0.9q0.1 0.5 0.1 1.3 0.8-0.4 0.1-1.6 0-0.2-0.2-0.3t-0.1-0.2q-0.1-0.1-0.1-0.1 0.1-0.1 0.3-0.2t0.3 0.1q0.8 0.9 2.9 0.6 2.3-0.3 3.1-1.5 0.4-0.7 0.6-0.5 0.2 0.1 0.1 0.9 0 0.4-0.4 1.6-0.1 0.4-0.1 0.6t0.4 0.3q0.1-0.4 0.3-1.4t0.2-1.5q0.1-0.4-0.1-1.3t-0.1-1.7q0-0.8 0.4-1.2 0.2-0.3 0.9-0.3 0-0.7 0.6-0.9t1.2-0.2q0.7 0.1 1.1 0.4z m-10.9-14.4q0-0.3-0.1-0.5t-0.2-0.3q-0.1 0-0.1 0.1 0 0.1 0.1 0.2 0.1 0 0.1 0.2-0.1 0.4 0.1 0.4 0.1 0 0.1-0.1z m7.2 3.4q0-0.1-0.1-0.2t-0.2-0.1q-0.1 0-0.2-0.1-0.1 0-0.2-0.1t-0.1-0.1q-0.1-0.1-0.1-0.1t-0.1-0.1q0 0-0.1 0-0.2 0.3 0.2 0.8t0.6 0.5q0.2 0 0.3-0.1t0-0.4z m-3-3.7q0-0.2-0.1-0.3t-0.2-0.2q-0.1-0.1-0.2-0.1-0.2 0-0.1 0.1l0.1 0.1q0.2 0 0.3 0.5 0 0.1 0.1 0l0.1-0.1z m0.9-4q0-0.1-0.1-0.1t-0.1-0.1q-0.1-0.1-0.2-0.1-0.2-0.3-0.4-0.3-0.1 0-0.2 0.1t0 0.3q0 0.1 0 0.2 0 0.1-0.1 0.2t-0.1 0.1q0 0.1 0 0.2 0.1 0 0.2 0t0.2-0.2q0.1-0.1 0.2-0.1 0-0.1 0.2-0.1t0.2 0q0.2 0 0.2-0.1z m9.8 23.3q0.3 0.2 0.5 0.4t0.2 0.4q0.1 0.2 0 0.4t-0.3 0.4q-0.2 0.2-0.4 0.3t-0.5 0.3q-0.3 0.2-0.5 0.3t-0.6 0.3q-0.3 0.2-0.5 0.2-0.6 0.4-1.5 1t-1.3 1.1q-0.3 0.3-1.1 0.3t-1.6-0.2q-0.3-0.2-0.5-0.4t-0.3-0.5q-0.1-0.2-0.4-0.3t-0.8-0.2q-0.7 0-2.2 0-0.4 0-1 0t-1 0.1q-0.8 0-1.4 0.2t-0.9 0.6q-0.4 0.2-0.8 0.5t-0.9 0.2q-0.5-0.1-2-0.6t-2.5-0.7q-0.3-0.1-0.9-0.2t-0.8-0.1q-0.4-0.1-0.7-0.2t-0.6-0.3q-0.2-0.1-0.3-0.3-0.2-0.4 0.1-1.2t0.3-0.9q0-0.3 0-0.7t-0.2-0.7q-0.1-0.4-0.1-0.7t0.2-0.4q0.2-0.2 1-0.3t1-0.2q0.5-0.3 0.7-0.6t0.3-0.9q0.3 1.3-0.6 1.9-0.6 0.3-1.4 0.2-0.6 0-0.8 0.2-0.2 0.3 0.1 1 0 0.1 0.1 0.3t0.2 0.3q0 0.1 0.1 0.3t0 0.4q0 0.3-0.3 0.8t-0.3 0.9q0.1 0.3 0.7 0.4 0.3 0.1 1.5 0.3t1.7 0.4q0.4 0.1 1.3 0.4t1.4 0.4q0.6 0.1 1 0.1 0.7-0.2 1.1-0.5t0.4-0.9q0-0.4-0.2-1t-0.3-0.9q-0.2-0.3-0.3-0.6-2.1-3.3-3-4.2-1.1-1.3-1.9-0.7-0.2 0.1-0.3-0.3 0-0.3 0-0.6 0-0.5 0.2-0.9t0.4-0.9q0.2-0.4 0.4-0.7 0.1-0.3 0.4-1.2t0.5-1.4q0.2-0.5 0.5-1t0.7-1q1.9-2.5 2.2-3.4-0.2-1.9-0.3-5.4 0-1.5 0.4-2.6t1.9-1.8q0.6-0.4 1.8-0.4 0.9 0 1.8 0.3t1.5 0.7q1 0.7 1.6 2.1t0.5 2.6q0 1.6 0.6 3.7 0.6 1.9 2.3 3.8 0.9 1 1.7 2.8t1 3.3q0.2 0.9 0.1 1.5t-0.2 0.9q-0.1 0.4-0.3 0.4-0.2 0.1-0.4 0.4t-0.5 0.6q-0.2 0.3-0.7 0.6t-1.1 0.2q-0.3 0-0.5-0.1t-0.4-0.2q-0.2-0.2-0.2-0.3t-0.2-0.4q-0.2-0.2-0.2-0.3-0.4-0.6-0.7-0.5t-0.5 0.8q-0.2 0.8 0.1 1.7 0.4 1.2 0 3.4-0.1 1.1 0.4 1.8t1.2 0.5q0.8 0 1.5-0.6 1-0.8 1.6-1.1t1.7-0.8q1-0.3 1.4-0.6t0.3-0.6q-0.1-0.3-0.4-0.5t-0.9-0.4q-0.6-0.2-0.9-0.9t-0.2-1.2q0-0.6 0.2-0.8 0 0.5 0.2 0.9t0.2 0.8q0.1 0.2 0.4 0.4t0.3 0.4q0.2 0.1 0.4 0.2t0.3 0.2z"></path></svg>