<?xml version="1.0"?><svg xmlns="http://www.w3.org/2000/svg" width="40" height="40" viewBox="0 0 40 40"><path d="m8.571428571428571 26.42857142857143v1.428571428571427q0 0.28999999999999915-0.21142857142857174 0.5028571428571418t-0.5028571428571418 0.21142857142857352h-1.4285714285714288q-0.29000000000000004 0-0.5028571428571427-0.21142857142856997t-0.21142857142857174-0.5028571428571453v-1.428571428571427q0-0.28999999999999915 0.21142857142857174-0.5028571428571418t0.5028571428571427-0.21142857142857352h1.4285714285714288q0.28999999999999915 0 0.5028571428571436 0.21142857142856997t0.21142857142856997 0.5028571428571453z m0-5.714285714285715v1.428571428571427q0 0.28999999999999915-0.21142857142857174 0.5028571428571418t-0.5028571428571418 0.21142857142857352h-1.4285714285714288q-0.29000000000000004 0-0.5028571428571427-0.21142857142856997t-0.21142857142857174-0.5028571428571453v-1.428571428571427q0-0.28999999999999915 0.21142857142857174-0.5028571428571418t0.5028571428571427-0.21142857142857352h1.4285714285714288q0.28999999999999915 0 0.5028571428571436 0.21142857142856997t0.21142857142856997 0.5028571428571453z m0-5.714285714285715v1.428571428571427q0 0.28999999999999915-0.21142857142857174 0.5028571428571418t-0.5028571428571418 0.21142857142857352h-1.4285714285714288q-0.29000000000000004 0-0.5028571428571427-0.21142857142856997t-0.21142857142857174-0.5028571428571418v-1.4285714285714288q0-0.2900000000000009 0.21142857142857174-0.5028571428571436t0.5028571428571427-0.21142857142857174h1.4285714285714288q0.28999999999999915 0 0.5028571428571436 0.21142857142857174t0.21142857142856997 0.5028571428571418z m25.714285714285715 11.42857142857143v1.428571428571427q0 0.28999999999999915-0.21142857142856997 0.5028571428571418t-0.5028571428571453 0.21142857142857352h-21.42857142857143q-0.28999999999999915 0-0.5028571428571436-0.21142857142856997t-0.21142857142856641-0.5028571428571453v-1.428571428571427q0-0.28999999999999915 0.21142857142857174-0.5028571428571418t0.5028571428571418-0.21142857142857352h21.428571428571427q0.28999999999999915 0 0.5028571428571453 0.21142857142856997t0.21142857142856997 0.5028571428571453z m0-5.714285714285715v1.428571428571427q0 0.28999999999999915-0.21142857142856997 0.5028571428571418t-0.5028571428571453 0.21142857142857352h-21.42857142857143q-0.28999999999999915 0-0.5028571428571436-0.21142857142856997t-0.21142857142856641-0.5028571428571453v-1.428571428571427q0-0.28999999999999915 0.21142857142857174-0.5028571428571418t0.5028571428571418-0.21142857142857352h21.428571428571427q0.28999999999999915 0 0.5028571428571453 0.21142857142856997t0.21142857142856997 0.5028571428571453z m0-5.714285714285715v1.428571428571427q0 0.28999999999999915-0.21142857142856997 0.5028571428571418t-0.5028571428571453 0.21142857142857352h-21.42857142857143q-0.28999999999999915 0-0.5028571428571436-0.21142857142856997t-0.21142857142856641-0.5028571428571418v-1.4285714285714288q0-0.2900000000000009 0.21142857142857174-0.5028571428571436t0.5028571428571418-0.21142857142857174h21.428571428571427q0.28999999999999915 0 0.5028571428571453 0.21142857142857174t0.21142857142856997 0.5028571428571418z m2.857142857142854 15.714285714285715v-18.571428571428573q0-0.28999999999999915-0.21142857142856997-0.5028571428571436t-0.5028571428571382-0.21142857142856997h-32.85714285714286q-0.29000000000000004 0-0.5028571428571427 0.21142857142857174t-0.21142857142856952 0.5028571428571418v18.571428571428573q0 0.28999999999999915 0.2114285714285713 0.5028571428571418t0.5028571428571431 0.21142857142857352h32.85714285714286q0.28999999999999915 0 0.5028571428571453-0.21142857142856997t0.21142857142856997-0.5028571428571453z m2.857142857142854-24.285714285714285v24.285714285714285q0 1.471428571428568-1.048571428571428 2.5228571428571414t-2.5228571428571342 1.048571428571428h-32.85714285714286q-1.4714285714285715 0-2.522857142857143-1.048571428571428t-1.0485714285714263-2.5228571428571414v-24.285714285714285q0-1.4714285714285715 1.0485714285714285-2.522857142857143t2.522857142857143-1.0485714285714303h32.85714285714286q1.471428571428575 0 2.5228571428571414 1.0485714285714285t1.048571428571428 2.522857142857143z"></path></svg>