<?xml version="1.0"?><svg viewBox="0 0 40 40" xmlns="http://www.w3.org/2000/svg" height="40" width="40"><path d="m9.2 25v1.3q0 0.3-0.2 0.5t-0.5 0.2h-1.3q-0.3 0-0.5-0.2t-0.2-0.5v-1.3q0-0.3 0.2-0.5t0.5-0.2h1.3q0.3 0 0.5 0.2t0.2 0.5z m0-5.4v1.3q0 0.3-0.2 0.5t-0.5 0.2h-1.3q-0.3 0-0.5-0.2t-0.2-0.5v-1.3q0-0.3 0.2-0.5t0.5-0.2h1.3q0.3 0 0.5 0.2t0.2 0.5z m0-5.4v1.3q0 0.3-0.2 0.5t-0.5 0.2h-1.3q-0.3 0-0.5-0.2t-0.2-0.5v-1.3q0-0.3 0.2-0.5t0.5-0.2h1.3q0.3 0 0.5 0.2t0.2 0.5z m24.3 10.8v1.3q0 0.3-0.2 0.5t-0.5 0.2h-20.2q-0.3 0-0.5-0.2t-0.2-0.5v-1.3q0-0.3 0.2-0.5t0.5-0.2h20.2q0.3 0 0.5 0.2t0.2 0.5z m0-5.4v1.3q0 0.3-0.2 0.5t-0.5 0.2h-20.2q-0.3 0-0.5-0.2t-0.2-0.5v-1.3q0-0.3 0.2-0.5t0.5-0.2h20.2q0.3 0 0.5 0.2t0.2 0.5z m0-5.4v1.3q0 0.3-0.2 0.5t-0.5 0.2h-20.2q-0.3 0-0.5-0.2t-0.2-0.5v-1.3q0-0.3 0.2-0.5t0.5-0.2h20.2q0.3 0 0.5 0.2t0.2 0.5z m2.7 14.8v-17.5q0-0.3-0.2-0.5t-0.5-0.2h-31q-0.3 0-0.5 0.2t-0.2 0.5v17.5q0 0.3 0.2 0.5t0.5 0.2h31q0.3 0 0.5-0.2t0.2-0.5z m2.7-22.9v22.9q0 1.4-1 2.4t-2.4 1h-31q-1.4 0-2.4-1t-1-2.4v-22.9q0-1.4 1-2.4t2.4-1h31q1.4 0 2.4 1t1 2.4z"></path></svg>