<?xml version="1.0"?><svg xmlns="http://www.w3.org/2000/svg" width="40" height="40" viewBox="0 0 40 40"><path d="m5.714285714285714 29.285714285714285v4.285714285714285q0 0.28999999999999915-0.21142857142857174 0.5028571428571453t-0.5028571428571427 0.21142857142856997h-4.285714285714286q-0.29000000000000004 0-0.5028571428571429-0.21142857142856997t-0.21142857142857152-0.5028571428571453v-4.285714285714285q0-0.28999999999999915 0.2114285714285714-0.5028571428571418t0.5028571428571429-0.21142857142856997h4.285714285714286q0.29000000000000004 0 0.5028571428571427 0.21142857142856997t0.21142857142857174 0.5028571428571418z m0-8.57142857142857v4.285714285714285q0 0.28999999999999915-0.21142857142857174 0.5028571428571418t-0.5028571428571427 0.21142857142857352h-4.285714285714286q-0.29000000000000004 0-0.5028571428571429-0.21142857142856997t-0.21142857142857152-0.5028571428571453v-4.285714285714285q0-0.28999999999999915 0.2114285714285714-0.5028571428571418t0.5028571428571429-0.21142857142857352h4.285714285714286q0.29000000000000004 0 0.5028571428571427 0.21142857142856997t0.21142857142857174 0.5028571428571453z m0-8.571428571428571v4.2857142857142865q0 0.28999999999999915-0.21142857142857174 0.5028571428571418t-0.5028571428571427 0.21142857142856997h-4.285714285714286q-0.29000000000000004 0-0.5028571428571429-0.21142857142856997t-0.21142857142857152-0.5028571428571418v-4.285714285714285q0-0.28999999999999915 0.2114285714285714-0.5028571428571436t0.5028571428571429-0.21142857142857352h4.285714285714286q0.29000000000000004 0 0.5028571428571427 0.21142857142857174t0.21142857142857174 0.5028571428571418z m34.285714285714285 17.14285714285714v4.285714285714285q0 0.28999999999999915-0.21142857142856997 0.5028571428571453t-0.5028571428571453 0.21142857142856997h-30q-0.28999999999999915 0-0.5028571428571436-0.21142857142856997t-0.21142857142856997-0.5028571428571453v-4.285714285714285q0-0.28999999999999915 0.21142857142857174-0.5028571428571418t0.5028571428571436-0.21142857142856997h30q0.28999999999999915 0 0.5028571428571453 0.21142857142856997t0.21142857142856997 0.5028571428571418z m-34.285714285714285-25.71428571428571v4.285714285714285q-8.881784197001252e-16 0.28999999999999915-0.21142857142857263 0.5028571428571436t-0.5028571428571427 0.21142857142856997h-4.285714285714286q-0.29000000000000004 0-0.5028571428571429-0.21142857142857174t-0.21142857142857152-0.5028571428571418v-4.285714285714286q0-0.29000000000000004 0.2114285714285714-0.5028571428571427t0.5028571428571429-0.2114285714285722h4.285714285714286q0.29000000000000004 0 0.5028571428571427 0.2114285714285713t0.21142857142857174 0.5028571428571431z m34.285714285714285 17.142857142857142v4.285714285714285q0 0.28999999999999915-0.21142857142856997 0.5028571428571418t-0.5028571428571453 0.21142857142857352h-30q-0.28999999999999915 0-0.5028571428571436-0.21142857142856997t-0.21142857142856997-0.5028571428571453v-4.285714285714285q0-0.28999999999999915 0.21142857142857174-0.5028571428571418t0.5028571428571436-0.21142857142857352h30q0.28999999999999915 0 0.5028571428571453 0.21142857142856997t0.21142857142856997 0.5028571428571453z m0-8.571428571428571v4.2857142857142865q0 0.28999999999999915-0.21142857142856997 0.5028571428571418t-0.5028571428571453 0.21142857142856997h-30q-0.28999999999999915 0-0.5028571428571436-0.21142857142856997t-0.21142857142856997-0.5028571428571418v-4.285714285714285q0-0.28999999999999915 0.21142857142857174-0.5028571428571436t0.5028571428571436-0.21142857142857352h30q0.28999999999999915 0 0.5028571428571453 0.21142857142857174t0.21142857142856997 0.5028571428571418z m0-8.571428571428571v4.285714285714286q0 0.29000000000000004-0.21142857142856997 0.5028571428571427t-0.5028571428571453 0.21142857142856997h-30q-0.28999999999999915 0-0.5028571428571436-0.21142857142857174t-0.21142857142856997-0.5028571428571418v-4.285714285714286q0-0.29000000000000004 0.21142857142857174-0.5028571428571427t0.5028571428571436-0.2114285714285722h30q0.28999999999999915 0 0.5028571428571453 0.2114285714285713t0.21142857142856997 0.5028571428571431z"></path></svg>