<?xml version="1.0"?><svg xmlns="http://www.w3.org/2000/svg" width="40" height="40" viewBox="0 0 40 40"><path d="m8.504285714285714 36.160000000000004q0 1.7857142857142847-1.217142857142857 2.8142857142857167t-3.022857142857143 1.0257142857142796q-2.3657142857142857 0-3.8400000000000003-1.471428571428575l1.2714285714285716-1.9657142857142844q1.0957142857142859 1.0042857142857144 2.3671428571428574 1.0042857142857144 0.6471428571428568 0 1.128571428571429-0.32428571428571473t0.47857142857142865-0.9485714285714266q0-1.4285714285714306-2.342857142857143-1.25l-0.5814285714285714-1.2485714285714309q0.18000000000000016-0.2228571428571442 0.7285714285714286-0.9714285714285751t0.9471428571428575-1.2057142857142864 0.8257142857142856-0.8599999999999994v-0.022857142857141355q-0.35714285714285676 0-1.081428571428571 0.022857142857141355t-1.0828571428571427 0.022857142857141355v1.1828571428571415h-2.36857142857143v-3.3928571428571317h7.42857142857143v1.9628571428571426l-2.1171428571428583 2.565714285714286q1.1385714285714288 0.2685714285714269 1.8085714285714287 1.095714285714287t0.6714285714285708 1.9642857142857153z m0.042857142857142705-13.994285714285713v3.5485714285714245h-8.075714285714286q-0.13428571428571434-0.8028571428571425-0.13428571428571434-1.2057142857142864 0-1.138571428571428 0.5242857142857142-2.0757142857142874t1.2628571428571431-1.5171428571428578 1.4714285714285715-1.057142857142857 1.2628571428571425-0.9714285714285715 0.524285714285714-1.0057142857142871q0-0.5571428571428569-0.32428571428571473-0.8599999999999994t-0.8814285714285717-0.3000000000000007q-1.0257142857142858 0-1.807142857142857 1.2928571428571445l-1.8971428571428572-1.3185714285714276q0.5357142857142856-1.138571428571428 1.5957142857142856-1.774285714285714t2.3485714285714296-0.6357142857142843q1.628571428571429 0 2.7457142857142856 0.9257142857142853t1.1142857142857148 2.5114285714285725q0 1.1142857142857139-0.7571428571428571 2.0428571428571445t-1.6742857142857144 1.4400000000000013-1.685714285714286 1.12857142857143-0.7928571428571427 1.1714285714285708h2.8328571428571427v-1.3428571428571416h2.345714285714286z m31.45285714285714 7.119999999999994v4.285714285714285q0 0.28999999999999915-0.21142857142856997 0.5028571428571453t-0.5028571428571453 0.21142857142856997h-27.142857142857142q-0.28999999999999915 0-0.5028571428571436-0.21142857142856997t-0.21142857142856997-0.5028571428571453v-4.285714285714285q0-0.31428571428571317 0.1999999999999993-0.5142857142857125t0.5142857142857142-0.1999999999999993h27.142857142857142q0.28999999999999915 0 0.5028571428571453 0.21142857142856997t0.21142857142856997 0.5028571428571418z m-31.42857142857143-20.067142857142855v2.209999999999999h-7.477142857142855v-2.209999999999999h2.3885714285714283q0-0.9142857142857146 0.011428571428571566-2.7228571428571424t0.011428571428571566-2.6999999999999997v-0.2685714285714287h-0.042857142857142705q-0.18000000000000016 0.37857142857142856-1.117142857142857 1.2042857142857142l-1.585714285714286-1.6957142857142875 3.04-2.8357142857142854h2.3657142857142857v9.018571428571427h2.4057142857142857z m31.42857142857143 8.638571428571428v4.285714285714285q0 0.28999999999999915-0.21142857142856997 0.5028571428571418t-0.5028571428571453 0.21142857142857352h-27.142857142857142q-0.28999999999999915 0-0.5028571428571436-0.21142857142856997t-0.21142857142856997-0.5028571428571453v-4.285714285714285q0-0.31428571428571317 0.1999999999999993-0.514285714285716t0.5142857142857142-0.1999999999999993h27.142857142857142q0.28999999999999915 0 0.5028571428571453 0.21142857142856997t0.21142857142856997 0.5028571428571453z m0-11.428571428571429v4.2857142857142865q0 0.28999999999999915-0.21142857142856997 0.5028571428571436t-0.5028571428571453 0.21142857142856997h-27.142857142857142q-0.28999999999999915 0-0.5028571428571436-0.21142857142857174t-0.21142857142856997-0.5028571428571418v-4.285714285714286q0-0.29000000000000004 0.21142857142857174-0.5028571428571427t0.5028571428571418-0.21142857142857263h27.142857142857142q0.28999999999999915 0 0.5028571428571453 0.21142857142857174t0.21142857142856997 0.5028571428571427z"></path></svg>