<?xml version="1.0"?><svg viewBox="0 0 40 40" xmlns="http://www.w3.org/2000/svg" height="40" width="40"><path d="m6.5 27.7v4q0 0.3-0.2 0.5t-0.5 0.2h-4q-0.3 0-0.5-0.2t-0.2-0.5v-4q0-0.3 0.2-0.5t0.5-0.2h4q0.3 0 0.5 0.2t0.2 0.5z m0-8.1v4q0 0.3-0.2 0.5t-0.5 0.2h-4q-0.3 0-0.5-0.2t-0.2-0.5v-4q0-0.3 0.2-0.5t0.5-0.2h4q0.3 0 0.5 0.2t0.2 0.5z m0-8.1v4q0 0.3-0.2 0.5t-0.5 0.2h-4q-0.3 0-0.5-0.2t-0.2-0.5v-4q0-0.3 0.2-0.5t0.5-0.2h4q0.3 0 0.5 0.2t0.2 0.5z m32.4 16.2v4q0 0.3-0.2 0.5t-0.5 0.2h-28.3q-0.3 0-0.5-0.2t-0.2-0.5v-4q0-0.3 0.2-0.5t0.5-0.2h28.3q0.3 0 0.5 0.2t0.2 0.5z m-32.4-24.3v4q0 0.3-0.2 0.5t-0.5 0.2h-4q-0.3 0-0.5-0.2t-0.2-0.5v-4q0-0.3 0.2-0.5t0.5-0.2h4q0.3 0 0.5 0.2t0.2 0.5z m32.4 16.2v4q0 0.3-0.2 0.5t-0.5 0.2h-28.3q-0.3 0-0.5-0.2t-0.2-0.5v-4q0-0.3 0.2-0.5t0.5-0.2h28.3q0.3 0 0.5 0.2t0.2 0.5z m0-8.1v4q0 0.3-0.2 0.5t-0.5 0.2h-28.3q-0.3 0-0.5-0.2t-0.2-0.5v-4q0-0.3 0.2-0.5t0.5-0.2h28.3q0.3 0 0.5 0.2t0.2 0.5z m0-8.1v4q0 0.3-0.2 0.5t-0.5 0.2h-28.3q-0.3 0-0.5-0.2t-0.2-0.5v-4q0-0.3 0.2-0.5t0.5-0.2h28.3q0.3 0 0.5 0.2t0.2 0.5z"></path></svg>