<?xml version="1.0"?><svg viewBox="0 0 40 40" xmlns="http://www.w3.org/2000/svg" height="40" width="40"><path d="m6.6 31.7q0 1.4-0.9 2.2t-2.4 0.8q-1.8 0-3-1.2l1-1.5q0.9 0.8 1.9 0.8 0.5 0 0.8-0.3t0.4-0.7q0-1.1-1.8-1l-0.5-1q0.2-0.1 0.6-0.7t0.7-1q0.4-0.3 0.7-0.6v-0.1q-0.3 0-0.9 0.1t-0.8 0v0.9h-1.8v-2.6h5.7v1.5l-1.6 2q0.9 0.2 1.4 0.8t0.5 1.6z m0-10.9v2.7h-6.2q-0.1-0.6-0.1-0.9 0-0.9 0.4-1.6t0.9-1.2q0.6-0.4 1.2-0.8t1-0.8q0.4-0.4 0.4-0.8 0-0.4-0.3-0.6t-0.7-0.3q-0.8 0-1.4 1.1l-1.4-1.1q0.4-0.9 1.2-1.4t1.8-0.4q1.3 0 2.2 0.7t0.8 1.9q0 0.9-0.5 1.6t-1.4 1.1q-0.7 0.4-1.3 0.9t-0.6 0.9h2.2v-1h1.8z m24.5 5.5v3.4q0 0.2-0.2 0.3t-0.3 0.2h-21.2q-0.2 0-0.3-0.2t-0.2-0.3v-3.4q0-0.2 0.1-0.4t0.4-0.1h21.2q0.2 0 0.3 0.1t0.2 0.4z m-24.4-15.6v1.7h-5.8v-1.7h1.8q0-0.7 0-2.1t0-2.1v-0.2h0q-0.1 0.3-0.9 0.9l-1.2-1.3 2.4-2.2h1.8v7h1.9z m24.4 6.7v3.4q0 0.2-0.2 0.4t-0.3 0.1h-21.2q-0.2 0-0.3-0.1t-0.2-0.4v-3.4q0-0.2 0.1-0.4t0.4-0.1h21.2q0.2 0 0.3 0.1t0.2 0.4z m0-8.9v3.4q0 0.2-0.2 0.4t-0.3 0.1h-21.2q-0.2 0-0.3-0.1t-0.2-0.4v-3.4q0-0.2 0.2-0.3t0.3-0.2h21.2q0.2 0 0.3 0.2t0.2 0.3z"></path></svg>