<?xml version="1.0"?><svg viewBox="0 0 40 40" xmlns="http://www.w3.org/2000/svg" height="40" width="40"><path d="m4.4 26.3v3.4q0 0.2-0.1 0.3t-0.4 0.2h-3.3q-0.3 0-0.4-0.2t-0.2-0.3v-3.4q0-0.2 0.2-0.4t0.4-0.1h3.3q0.2 0 0.4 0.1t0.1 0.4z m0-6.6v3.3q0 0.2-0.1 0.4t-0.4 0.1h-3.3q-0.3 0-0.4-0.1t-0.2-0.4v-3.3q0-0.3 0.2-0.4t0.4-0.2h3.3q0.2 0 0.4 0.2t0.1 0.4z m0-6.7v3.3q0 0.2-0.1 0.4t-0.4 0.2h-3.3q-0.3 0-0.4-0.2t-0.2-0.4v-3.3q0-0.2 0.2-0.4t0.4-0.2h3.3q0.2 0 0.4 0.2t0.1 0.4z m26.7 13.3v3.4q0 0.2-0.2 0.3t-0.3 0.2h-23.4q-0.2 0-0.4-0.2t-0.1-0.3v-3.4q0-0.2 0.1-0.4t0.4-0.1h23.4q0.2 0 0.3 0.1t0.2 0.4z m-26.7-20v3.4q0 0.2-0.1 0.3t-0.4 0.2h-3.3q-0.3 0-0.4-0.2t-0.2-0.3v-3.4q0-0.2 0.2-0.4t0.4-0.1h3.3q0.2 0 0.4 0.1t0.1 0.4z m26.7 13.4v3.3q0 0.2-0.2 0.4t-0.3 0.1h-23.4q-0.2 0-0.4-0.1t-0.1-0.4v-3.3q0-0.3 0.1-0.4t0.4-0.2h23.4q0.2 0 0.3 0.2t0.2 0.4z m0-6.7v3.3q0 0.2-0.2 0.4t-0.3 0.2h-23.4q-0.2 0-0.4-0.2t-0.1-0.4v-3.3q0-0.2 0.1-0.4t0.4-0.2h23.4q0.2 0 0.3 0.2t0.2 0.4z m0-6.7v3.4q0 0.2-0.2 0.3t-0.3 0.2h-23.4q-0.2 0-0.4-0.2t-0.1-0.3v-3.4q0-0.2 0.1-0.4t0.4-0.1h23.4q0.2 0 0.3 0.1t0.2 0.4z"></path></svg>