<?xml version="1.0"?><svg xmlns="http://www.w3.org/2000/svg" width="40" height="40" viewBox="0 0 40 40"><path d="m8.571428571428571 31.42857142857143q0 1.7857142857142847-1.25 3.0357142857142847t-3.0357142857142856 1.25-3.0357142857142856-1.25-1.25-3.0357142857142847 1.25-3.0357142857142847 3.0357142857142856-1.2500000000000036 3.0357142857142856 1.25 1.25 3.0357142857142883z m0-11.42857142857143q0 1.7857142857142847-1.25 3.0357142857142847t-3.0357142857142856 1.25-3.0357142857142856-1.25-1.25-3.0357142857142847 1.25-3.0357142857142847 3.0357142857142856-1.25 3.0357142857142856 1.25 1.25 3.0357142857142847z m31.42857142857143 9.285714285714285v4.285714285714285q0 0.28999999999999915-0.21142857142856997 0.5028571428571453t-0.5028571428571453 0.21142857142856997h-27.142857142857142q-0.28999999999999915 0-0.5028571428571436-0.21142857142856997t-0.21142857142856997-0.5028571428571453v-4.285714285714285q0-0.28999999999999915 0.21142857142857174-0.5028571428571418t0.5028571428571418-0.21142857142856997h27.142857142857142q0.28999999999999915 0 0.5028571428571453 0.21142857142856997t0.21142857142856997 0.5028571428571418z m-31.42857142857143-20.714285714285715q1.7763568394002505e-15 1.7857142857142883-1.2499999999999982 3.0357142857142883t-3.0357142857142856 1.25-3.0357142857142856-1.25-1.25-3.0357142857142865 1.25-3.0357142857142856 3.0357142857142856-1.25 3.0357142857142856 1.25 1.25 3.0357142857142856z m31.42857142857143 9.285714285714288v4.285714285714285q0 0.28999999999999915-0.21142857142856997 0.5028571428571418t-0.5028571428571453 0.21142857142857352h-27.142857142857142q-0.28999999999999915 0-0.5028571428571436-0.21142857142856997t-0.21142857142856997-0.5028571428571453v-4.285714285714285q0-0.28999999999999915 0.21142857142857174-0.5028571428571418t0.5028571428571418-0.21142857142857352h27.142857142857142q0.28999999999999915 0 0.5028571428571453 0.21142857142856997t0.21142857142856997 0.5028571428571453z m0-11.428571428571429v4.2857142857142865q0 0.28999999999999915-0.21142857142856997 0.5028571428571436t-0.5028571428571453 0.21142857142856997h-27.142857142857142q-0.28999999999999915 0-0.5028571428571436-0.21142857142857174t-0.21142857142856997-0.5028571428571418v-4.285714285714286q0-0.29000000000000004 0.21142857142857174-0.5028571428571427t0.5028571428571418-0.21142857142857263h27.142857142857142q0.28999999999999915 0 0.5028571428571453 0.21142857142857174t0.21142857142856997 0.5028571428571427z"></path></svg>