<?xml version="1.0"?><svg xmlns="http://www.w3.org/2000/svg" width="40" height="40" viewBox="0 0 40 40"><path d="m14.285714285714286 17.142857142857142h11.428571428571429v-4.285714285714285q0-2.3657142857142865-1.6742857142857126-4.039999999999999t-4.040000000000003-1.6742857142857153-4.039999999999999 1.6742857142857135-1.6742857142857144 4.040000000000001v4.285714285714285z m18.571428571428577 2.1428571428571423v12.857142857142854q0 0.8928571428571459-0.6257142857142881 1.5171428571428578t-1.5171428571428578 0.6257142857142881h-21.42857142857143q-0.8928571428571423 0-1.5171428571428578-0.6257142857142881t-0.6257142857142837-1.5171428571428507v-12.857142857142858q0-0.8928571428571423 0.6257142857142854-1.5171428571428578t1.5171428571428578-0.6257142857142881h0.7142857142857135v-4.285714285714285q0-4.107142857142858 2.9471428571428575-7.052857142857143t7.0528571428571425-2.947142857142857 7.0528571428571425 2.947142857142858 2.9471428571428575 7.0528571428571425v4.285714285714285h0.7142857142857153q0.8928571428571423 0 1.5171428571428578 0.6257142857142846t0.6257142857142881 1.5171428571428578z"></path></svg>