<?xml version="1.0"?><svg viewBox="0 0 40 40" xmlns="http://www.w3.org/2000/svg" height="40" width="40"><path d="m27.6 12.3l6.1-6.2-2.2-2.3-6.2 6.2z m9.4-6.2q0 0.5-0.4 0.9l-27.1 27.2q-0.4 0.3-1 0.3t-0.9-0.3l-4.2-4.2q-0.4-0.4-0.4-1t0.4-0.9l27.1-27.2q0.4-0.3 1-0.3t0.9 0.3l4.2 4.2q0.4 0.4 0.4 1z m-28.5-4l2 0.6-2 0.6-0.7 2.1-0.6-2.1-2.1-0.6 2.1-0.6 0.6-2.1z m7.4 3.4l4.1 1.3-4.1 1.2-1.3 4.2-1.3-4.2-4.1-1.2 4.1-1.3 1.3-4.1z m19.6 10.1l2.1 0.6-2.1 0.6-0.6 2.1-0.7-2.1-2-0.6 2-0.6 0.7-2.1z m-13.5-13.5l2.1 0.6-2.1 0.6-0.6 2.1-0.7-2.1-2.1-0.6 2.1-0.6 0.7-2.1z"></path></svg>