<?xml version="1.0"?><svg xmlns="http://www.w3.org/2000/svg" width="40" height="40" viewBox="0 0 40 40"><path d="m27.991428571428575 12.968571428571428l6.539999999999996-6.539999999999999-2.3885714285714243-2.388571428571429-6.539999999999999 6.540000000000002z m9.977142857142855-6.539999999999999q0 0.6028571428571432-0.3999999999999986 1.0042857142857144l-28.70857142857143 28.705714285714286q-0.40000000000000036 0.3999999999999986-1.0042857142857144 0.3999999999999986t-1.0042857142857144-0.3999999999999986l-4.418571428571427-4.420000000000002q-0.40000000000000036-0.3999999999999986-0.40000000000000036-1.0042857142857144t0.3999999999999999-1.0042857142857144l28.70571428571429-28.705714285714286q0.3999999999999986-0.40000000000000024 1.0042857142857144-0.40000000000000024t1.0042857142857144 0.4l4.420000000000002 4.42q0.3999999999999986 0.40000000000000036 0.3999999999999986 1.0042857142857144z m-30.15714285714286-4.242857142857143l2.1885714285714286 0.6714285714285713-2.185714285714286 0.6714285714285713-0.6714285714285708 2.185714285714286-0.6714285714285717-2.185714285714286-2.185714285714286-0.6714285714285713 2.185714285714286-0.6714285714285713 0.6714285714285717-2.185714285714286z m7.814285714285713 3.6171428571428574l4.374285714285715 1.3399999999999999-4.374285714285715 1.339999999999999-1.339999999999998 4.374285714285715-1.3400000000000016-4.371428571428572-4.374285714285714-1.3428571428571425 4.374285714285714-1.3399999999999999 1.3400000000000016-4.3742857142857146z m20.757142857142856 10.67142857142857l2.1885714285714286 0.668571428571429-2.1857142857142833 0.6714285714285708-0.6714285714285708 2.185714285714287-0.6714285714285708-2.185714285714287-2.1857142857142833-0.6714285714285708 2.1857142857142833-0.6714285714285708 0.6714285714285708-2.185714285714285z m-14.285714285714285-14.285714285714286l2.1885714285714286 0.6685714285714304-2.185714285714287 0.6714285714285713-0.6714285714285673 2.185714285714286-0.6714285714285708-2.185714285714286-2.185714285714287-0.6714285714285713 2.185714285714287-0.6714285714285713 0.6714285714285708-2.185714285714286z"></path></svg>