<?xml version="1.0"?><svg viewBox="0 0 40 40" xmlns="http://www.w3.org/2000/svg" height="40" width="40"><path d="m20.7 13.6l5-5.1-1.8-1.8-5.1 5.1 1.9 1.8z m7.4-5.8q0.3 0.3 0.3 0.7t-0.3 0.8l-22.3 22.3q-0.3 0.4-0.8 0.4t-0.8-0.4l-3.4-3.4q-0.3-0.3-0.3-0.8t0.3-0.8l22.3-22.3q0.3-0.3 0.8-0.3t0.8 0.3l3.4 3.5z m-23.1-2.6l1.7 0.6-1.7 0.5-0.6 1.7-0.5-1.7-1.7-0.5 1.7-0.6 0.5-1.7 0.6 1.7z m6 2.9l3.4 1-3.4 1-1 3.4-1-3.4-3.4-1 3.4-1 1-3.4 1 3.4z m16.2 8.3l1.7 0.5-1.7 0.5-0.5 1.7-0.6-1.7-1.7-0.5 1.7-0.5 0.6-1.7 0.5 1.7z m-11.1-11.2l1.7 0.6-1.7 0.5-0.5 1.7-0.6-1.7-1.7-0.5 1.7-0.6 0.6-1.7 0.5 1.7z"></path></svg>