<?xml version="1.0"?><svg xmlns="http://www.w3.org/2000/svg" width="40" height="40" viewBox="0 0 40 40"><path d="m37.142857142857146 18.571428571428573v2.8571428571428577q0 4.4857142857142875-2.200000000000003 8.079999999999998t-6.114285714285714 5.614285714285714-8.82857142857143 2.020000000000003-8.82857142857143-2.020000000000003-6.114285714285715-5.614285714285714-2.199999999999999-8.079999999999998v-2.8571428571428577q0-0.5800000000000018 0.4242857142857144-1.0042857142857144t1.004285714285714-0.42428571428571615h8.571428571428573q0.5800000000000001 0 1.0042857142857144 0.4242857142857126t0.4242857142857144 1.004285714285718v2.8571428571428577q0 1.1600000000000001 0.524285714285714 2.008571428571429t1.194285714285714 1.2714285714285722 1.5857142857142854 0.6714285714285708 1.428571428571427 0.28999999999999915 0.9814285714285731 0.044285714285713595 0.9828571428571422-0.04285714285714448 1.428571428571427-0.2914285714285718 1.5857142857142854-0.6714285714285708 1.192857142857143-1.2714285714285722 0.5242857142857176-2.0085714285714253v-2.8571428571428577q0-0.5800000000000018 0.4242857142857126-1.0042857142857144t1.0042857142857144-0.42428571428571615h8.571428571428573q0.5799999999999983 0 1.0042857142857144 0.4242857142857126t0.42428571428571615 1.004285714285718z m-22.85714285714286-14.285714285714288v8.571428571428573q1.7763568394002505e-15 0.5800000000000001-0.4242857142857126 1.0042857142857144t-1.0042857142857144 0.4242857142857144h-8.571428571428573q-0.5799999999999992 0-1.0042857142857136-0.4242857142857144t-0.42428571428571393-1.0042857142857144v-8.571428571428573q0-0.5799999999999992 0.4242857142857144-1.0042857142857136t1.004285714285714-0.42428571428571393h8.571428571428573q0.5800000000000001 0 1.0042857142857144 0.4242857142857144t0.4242857142857144 1.004285714285714z m22.85714285714286 8.881784197001252e-16v8.571428571428573q0 0.5800000000000001-0.42428571428571615 1.0042857142857144t-1.0042857142857144 0.4242857142857144h-8.57142857142857q-0.5799999999999983 0-1.0042857142857144-0.4242857142857144t-0.42428571428571615-1.0042857142857144v-8.571428571428573q0-0.5799999999999992 0.4242857142857126-1.0042857142857136t1.0042857142857144-0.42428571428571393h8.571428571428573q0.5799999999999983 0 1.0042857142857144 0.4242857142857144t0.42428571428571615 1.004285714285714z"></path></svg>