<?xml version="1.0"?><svg viewBox="0 0 40 40" xmlns="http://www.w3.org/2000/svg" height="40" width="40"><path d="m26.7 18v2.2q0 3.5-1.7 6.3t-4.8 4.4q-3 1.5-6.9 1.5t-6.8-1.5q-3.1-1.6-4.8-4.4t-1.7-6.3v-2.2q0-0.5 0.3-0.8t0.8-0.3h6.7q0.4 0 0.8 0.3t0.3 0.8v2.2q0 0.9 0.4 1.6t0.9 1q0.5 0.3 1.3 0.5t1.1 0.2q0.4 0 0.7 0t0.8 0q0.4 0 1.1-0.2t1.2-0.5q0.6-0.4 1-1t0.4-1.6v-2.2q0-0.5 0.3-0.8t0.8-0.3h6.7q0.4 0 0.7 0.3t0.4 0.8z m-17.8-11.1v6.6q0 0.5-0.3 0.8t-0.8 0.4h-6.7q-0.4 0-0.8-0.4t-0.3-0.8v-6.6q0-0.5 0.3-0.8t0.8-0.3h6.7q0.4 0 0.8 0.3t0.3 0.8z m17.8 0v6.6q0 0.5-0.4 0.8t-0.7 0.4h-6.7q-0.5 0-0.8-0.4t-0.3-0.8v-6.6q0-0.5 0.3-0.8t0.8-0.3h6.7q0.4 0 0.7 0.3t0.4 0.8z"></path></svg>