<?xml version="1.0"?><svg xmlns="http://www.w3.org/2000/svg" width="40" height="40" viewBox="0 0 40 40"><path d="m31.42857142857143 15.714285714285715v9.285714285714285q0 0.8928571428571423-0.6257142857142846 1.5171428571428578t-1.5171428571428613 0.6257142857142846-1.5171428571428578-0.6257142857142846-0.6257142857142846-1.5171428571428578v-7.857142857142858h-1.428571428571427v20.357142857142858q0 1.028571428571425-0.7371428571428567 1.7628571428571433t-1.7628571428571433 0.7371428571428567-1.7628571428571433-0.7371428571428567-0.7371428571428567-1.7628571428571433v-10.357142857142858h-1.428571428571427v10.357142857142858q0 1.028571428571425-0.7371428571428567 1.7628571428571433t-1.762857142857147 0.7371428571428567-1.7628571428571433-0.7371428571428567-0.7371428571428549-1.7628571428571433v-20.357142857142858h-1.4285714285714288v7.857142857142858q0 0.8928571428571423-0.6257142857142863 1.5171428571428578t-1.517142857142856 0.6257142857142846-1.5171428571428578-0.6257142857142846-0.6257142857142863-1.5171428571428578v-9.285714285714285q0-1.7857142857142865 1.25-3.0357142857142847t3.0357142857142865-1.2500000000000018h14.285714285714288q1.7857142857142847 0 3.0357142857142847 1.25t1.25 3.0357142857142865z m-6.428571428571431-10q0 2.0757142857142856-1.46142857142857 3.5385714285714283t-3.53857142857143 1.4614285714285717-3.53857142857143-1.4614285714285717-1.46142857142857-3.538571428571429 1.46142857142857-3.5385714285714283 3.53857142857143-1.4614285714285717 3.53857142857143 1.4614285714285713 1.46142857142857 3.5385714285714287z"></path></svg>