<?xml version="1.0"?><svg xmlns="http://www.w3.org/2000/svg" width="40" height="40" viewBox="0 0 40 40"><path d="m38.95142857142857 6.628571428571428q0.2228571428571442 0.2242857142857142 0.2228571428571442 0.5142857142857142t-0.2228571428571442 0.5142857142857142l-3.1471428571428604 3.1428571428571423q-0.625714285714281 0.6285714285714299-1.518571428571427 0.6285714285714299h-30q-0.5785714285714278 0-1.0028571428571418-0.4242857142857144t-0.4257142857142857-1.0042857142857144v-5.714285714285714q0-0.5800000000000001 0.4257142857142857-1.0042857142857144t1.0028571428571427-0.42428571428571393h12.857142857142858v-1.4285714285714286q0-0.5800000000000001 0.42571428571428527-1.0042857142857142t1.0028571428571453-0.4242857142857144h2.8571428571428577q0.581428571428571 0 1.0057142857142871 0.42428571428571427t0.42285714285713993 1.0042857142857144v1.4285714285714284h11.428571428571427q0.894285714285715 0 1.518571428571427 0.6257142857142859z m-21.80857142857143 20.514285714285712h5.714285714285715v11.42857142857143q0 0.5799999999999983-0.4242857142857126 1.0042857142857144t-1.0042857142857144 0.42428571428571615h-2.8571428571428577q-0.5800000000000018 0-1.0042857142857144-0.42428571428571615t-0.42428571428571615-1.0042857142857144v-11.42857142857143z m18.571428571428573-9.999999999999996q0.5799999999999983 0 1.0042857142857144 0.4242857142857126t0.42428571428571615 1.004285714285718v5.714285714285715q0 0.5800000000000018-0.42428571428571615 1.0042857142857144t-1.0042857142857144 0.4242857142857126h-30q-0.8928571428571441 0-1.5171428571428578-0.6257142857142846l-3.1471428571428577-3.1457142857142877q-0.2214285714285713-0.22571428571428598-0.2214285714285713-0.5142857142857125t0.2214285714285713-0.5142857142857125l3.147142857142857-3.145714285714284q0.6257142857142863-0.6257142857142917 1.5171428571428578-0.6257142857142917h11.428571428571427v-4.285714285714285h5.714285714285715v4.285714285714285h12.857142857142858z"></path></svg>