<?xml version="1.0"?><svg xmlns="http://www.w3.org/2000/svg" width="40" height="40" viewBox="0 0 40 40"><path d="m20 24.285714285714285q1.4714285714285715 0 2.8571428571428577-0.33428571428571274v14.619999999999997q0 0.5799999999999983-0.4242857142857126 1.0042857142857144t-1.0042857142857144 0.42428571428571615h-2.8571428571428577q-0.5800000000000018 0-1.0042857142857144-0.42428571428571615t-0.42428571428571615-1.0042857142857144v-14.620000000000001q1.361428571428572 0.3342857142857163 2.8571428571428577 0.3342857142857163z m0-24.285714285714285q4.732857142857142 0 8.079999999999998 3.3485714285714283t3.3485714285714323 8.08-3.3485714285714288 8.08-8.080000000000002 3.3485714285714288-8.08-3.3485714285714288-3.3485714285714288-8.08 3.3485714285714288-8.08 8.08-3.3485714285714288z m0 5q0.31428571428571317 0 0.5142857142857125-0.20000000000000018t0.20000000000000284-0.5142857142857142-0.1999999999999993-0.5142857142857142-0.514285714285716-0.19999999999999973q-3.2571428571428562 0-5.557142857142857 2.3000000000000003t-2.3000000000000007 5.557142857142857q0 0.31428571428571495 0.1999999999999993 0.5142857142857142t0.514285714285716 0.1999999999999993 0.5142857142857142-0.1999999999999993 0.1999999999999993-0.5142857142857142q0-2.6571428571428566 1.8857142857142861-4.542857142857144t4.542857142857143-1.8857142857142852z"></path></svg>