<?xml version="1.0"?><svg viewBox="0 0 40 40" xmlns="http://www.w3.org/2000/svg" height="40" width="40"><path d="m37.9 6.3q0.2 0.2 0.2 0.5t-0.2 0.4l-3 3q-0.6 0.6-1.4 0.6h-28.4q-0.5 0-0.9-0.4t-0.4-0.9v-5.4q0-0.6 0.4-1t0.9-0.4h12.2v-1.3q0-0.6 0.4-1t0.9-0.4h2.8q0.5 0 0.9 0.4t0.4 1v1.3h10.8q0.8 0 1.4 0.6z m-20.6 19.4h5.4v10.8q0 0.5-0.4 0.9t-0.9 0.4h-2.8q-0.5 0-0.9-0.4t-0.4-0.9v-10.8z m17.6-9.5q0.5 0 0.9 0.4t0.4 1v5.4q0 0.5-0.4 0.9t-0.9 0.4h-28.4q-0.8 0-1.4-0.6l-3-3q-0.2-0.2-0.2-0.4t0.2-0.5l3-3q0.6-0.6 1.4-0.6h10.8v-4h5.4v4h12.2z"></path></svg>