<?xml version="1.0"?><svg xmlns="http://www.w3.org/2000/svg" width="40" height="40" viewBox="0 0 40 40"><path fill="#444" d="m11.4 0q0.3 0 0.5 0.2t0.2 0.5v32.9q0 0.4-0.3 0.6l-10.7 5.7q-0.2 0.1-0.4 0.1-0.3 0-0.5-0.2t-0.2-0.5v-32.9q0-0.4 0.4-0.6l10.7-5.7q0.2-0.1 0.3-0.1z m27.9 0q0.3 0 0.5 0.2t0.2 0.5v32.9q0 0.4-0.4 0.6l-10.7 5.7q-0.1 0.1-0.3 0.1-0.3 0-0.5-0.2t-0.2-0.5v-32.9q0-0.4 0.3-0.6l10.8-5.7q0.1-0.1 0.3-0.1z m-25 0q0.2 0 0.3 0.1l11.4 5.7q0.4 0.2 0.4 0.6v32.9q0 0.3-0.2 0.5t-0.5 0.2q-0.2 0-0.3-0.1l-11.4-5.7q-0.4-0.2-0.4-0.6v-32.9q0-0.3 0.2-0.5t0.5-0.2z"></path></svg>