<?xml version="1.0"?><svg viewBox="0 0 40 40" xmlns="http://www.w3.org/2000/svg" height="40" width="40"><path d="m8.9 3.5q0.2 0 0.4 0.2t0.1 0.4v25.6q0 0.3-0.3 0.4l-8.3 4.5q-0.1 0.1-0.2 0.1-0.3 0-0.4-0.2t-0.2-0.4v-25.6q0-0.3 0.3-0.4l8.3-4.5q0.2-0.1 0.3-0.1z m21.7 0q0.2 0 0.3 0.2t0.2 0.4v25.6q0 0.3-0.3 0.4l-8.3 4.5q-0.1 0.1-0.3 0.1-0.2 0-0.4-0.2t-0.1-0.4v-25.6q0-0.3 0.3-0.4l8.3-4.5q0.1-0.1 0.3-0.1z m-19.5 0q0.2 0 0.3 0.1l8.8 4.4q0.4 0.2 0.4 0.5v25.6q0 0.2-0.2 0.4t-0.4 0.2q-0.1 0-0.2-0.1l-8.9-4.4q-0.3-0.2-0.3-0.5v-25.6q0-0.2 0.1-0.4t0.4-0.2z"></path></svg>