<?xml version="1.0"?><svg viewBox="0 0 40 40" xmlns="http://www.w3.org/2000/svg" height="40" width="40"><path d="m11.9 0q0.3 0 0.5 0.2t0.2 0.5v31q0 0.5-0.4 0.6l-10.1 5.4q-0.2 0.1-0.3 0.1-0.3 0-0.5-0.2t-0.2-0.5v-31q0-0.4 0.4-0.6l10.1-5.4q0.1-0.1 0.3-0.1z m26.3 0q0.3 0 0.5 0.2t0.2 0.5v31q0 0.5-0.4 0.6l-10.1 5.4q-0.1 0.1-0.3 0.1-0.3 0-0.5-0.2t-0.2-0.5v-31q0-0.4 0.4-0.6l10.1-5.4q0.2-0.1 0.3-0.1z m-23.6 0q0.2 0 0.3 0.1l10.8 5.4q0.4 0.2 0.4 0.6v31q0 0.3-0.2 0.5t-0.5 0.2q-0.2 0-0.3-0.1l-10.8-5.4q-0.4-0.2-0.4-0.6v-31q0-0.3 0.2-0.5t0.5-0.2z"></path></svg>