<?xml version="1.0"?><svg xmlns="http://www.w3.org/2000/svg" width="40" height="40" viewBox="0 0 40 40"><path d="m21.42857142857143 14.375714285714286q4.842857142857142 0.5357142857142865 8.135714285714286 4.185714285714285t3.2928571428571445 8.581428571428571q0 3.7285714285714278-1.942857142857143 6.831428571428571t-5.265714285714285 4.732857142857142-7.120000000000001 1.2057142857142864q-2.968571428571428-0.33571428571428896-5.48-1.9657142857142844t-4.062857142857146-4.195714285714281-1.7971428571428572-5.557142857142857q-0.2671428571428569-3.46142857142857 1.1714285714285708-6.518571428571427t4.151428571428571-5 6.060000000000002-2.300000000000006v-2.944285714285714h-3.571428571428573q-0.31428571428571495 0-0.5142857142857142-0.1999999999999993t-0.1999999999999993-0.5171428571428578v-1.4285714285714288q0-0.3114285714285714 0.1999999999999993-0.5114285714285707t0.5142857142857142-0.1999999999999993h3.571428571428573v-3.6885714285714304l-2.052857142857146 2.057142857142857q-0.2228571428571442 0.20000000000000018-0.5142857142857125 0.20000000000000018t-0.4900000000000002-0.20000000000000018l-1.0285714285714285-1.0285714285714285q-0.1999999999999993-0.20000000000000018-0.1999999999999993-0.48857142857142843t0.1999999999999993-0.5142857142857142l4.5114285714285725-4.485714285714286q0.42285714285713993-0.42571428571428616 1.0028571428571418-0.42571428571428616t1.0042857142857144 0.42428571428571427l4.508571428571429 4.485714285714286q0.1999999999999993 0.2242857142857142 0.1999999999999993 0.5142857142857142t-0.1999999999999993 0.4914285714285711l-1.0285714285714285 1.0285714285714285q-0.19857142857143018 0.1985714285714293-0.490000000000002 0.1985714285714293t-0.514285714285716-0.20000000000000018l-2.0514285714285663-2.0528571428571425v3.6814285714285706h3.571428571428573q0.31428571428571317 0 0.514285714285716 0.20285714285714285t0.1999999999999993 0.5142857142857142v1.4285714285714288q0 0.3114285714285714-0.1999999999999993 0.5114285714285707t-0.5142857142857196 0.20000000000000107h-3.5714285714285694v2.9485714285714284z m-1.4285714285714306 22.767142857142858q4.12857142857143 0 7.064285714285717-2.9357142857142833t2.9357142857142833-7.06428571428572-2.935714285714287-7.064285714285713-7.064285714285713-2.935714285714287-7.064285714285715 2.935714285714287-2.935714285714285 7.064285714285713 2.935714285714287 7.064285714285713 7.064285714285713 2.9357142857142904z"></path></svg>