<?xml version="1.0"?><svg viewBox="0 0 40 40" xmlns="http://www.w3.org/2000/svg" height="40" width="40"><path d="m33 19.4q0.3 0.4 0.3 0.8t-0.3 0.8l-5.1 5.1q-0.2 0.2-0.4 0.2t-0.4-0.2l-0.8-0.8q-0.1-0.1-0.1-0.4t0.1-0.4l3.2-3.2h-5.1v3.9q0 0.3-0.1 0.4t-0.4 0.2h-1.1q-0.3 0-0.4-0.2t-0.2-0.4v-3.9h-2.3q-0.4 3.8-3.2 6.3t-6.7 2.6q-2.9 0-5.3-1.5t-3.7-4.1q-1.3-2.6-0.9-5.5 0.2-2.3 1.5-4.3t3.3-3.2q2-1.2 4.3-1.4 2.7-0.2 5.1 1t3.8 3.2q1.6 2.1 1.8 4.7h2.3v-3.9q0-0.2 0.2-0.4t0.4-0.1h1.1q0.2 0 0.4 0.1t0.1 0.4v3.9h5.1l-3.2-3.2q-0.1-0.2-0.1-0.4t0.1-0.4l0.8-0.8q0.2-0.2 0.4-0.2t0.4 0.2l5.1 5.1z m-28.5 6.3q2.3 2.3 5.5 2.3t5.5-2.3q2.3-2.3 2.3-5.5t-2.3-5.5q-2.3-2.3-5.5-2.3t-5.5 2.3q-2.3 2.3-2.3 5.5t2.3 5.5z"></path></svg>