<?xml version="1.0"?><svg viewBox="0 0 40 40" xmlns="http://www.w3.org/2000/svg" height="40" width="40"><path d="m11.1 14.7q3.8 0.4 6.3 3.3t2.6 6.7q0 2.9-1.5 5.3t-4.1 3.6q-2.6 1.3-5.5 1-2.4-0.3-4.3-1.5t-3.2-3.3q-1.2-2-1.4-4.3-0.2-2.7 0.9-5.1t3.3-3.9q2.1-1.5 4.7-1.8v-2.3h-2.8q-0.2 0-0.4-0.1t-0.1-0.4v-1.1q0-0.3 0.1-0.4t0.4-0.2h2.8v-2.9l-1.6 1.6q-0.2 0.2-0.4 0.2t-0.4-0.2l-0.8-0.8q-0.1-0.1-0.1-0.3t0.1-0.4l3.5-3.5q0.3-0.4 0.8-0.4t0.8 0.4l3.5 3.5q0.1 0.1 0.1 0.4t-0.1 0.3l-0.8 0.8q-0.2 0.2-0.4 0.2t-0.4-0.2l-1.6-1.6v2.9h2.8q0.2 0 0.4 0.2t0.1 0.4v1.1q0 0.2-0.1 0.4t-0.4 0.1h-2.8v2.3z m-6.6 15.4q2.3 2.3 5.5 2.3t5.5-2.3q2.3-2.2 2.3-5.4t-2.3-5.5q-2.3-2.3-5.5-2.3t-5.5 2.3q-2.3 2.2-2.3 5.5t2.3 5.4z"></path></svg>