<?xml version="1.0"?><svg viewBox="0 0 40 40" xmlns="http://www.w3.org/2000/svg" height="40" width="40"><path d="m34.9 2.7q0.5 0 0.9 0.4t0.4 1v8.7q0 0.3-0.2 0.5t-0.5 0.2h-1.3q-0.3 0-0.5-0.2t-0.2-0.5v-5.5l-4.5 4.5 3 3q0.2 0.2 0.2 0.5t-0.2 0.4l-1 1q-0.2 0.2-0.5 0.2t-0.5-0.2l-2.9-3-1.7 1.7q2.7 3.3 2.7 7.6 0 2.4-1 4.7t-2.6 3.8-3.8 2.6-4.8 1-4.7-1-3.8-2.6-2.6-3.8-1-4.7 1-4.8 2.6-3.8 3.8-2.6 4.7-1q4.3 0 7.6 2.7l1.7-1.7-3.7-3.6q-0.1-0.2-0.1-0.5t0.1-0.5l1-0.9q0.2-0.2 0.5-0.2t0.5 0.2l3.6 3.6 4.5-4.5h-5.5q-0.3 0-0.5-0.2t-0.2-0.5v-1.3q0-0.3 0.2-0.5t0.5-0.2h8.8z m-19 29.7q4 0 6.7-2.8t2.8-6.6-2.8-6.7-6.7-2.8-6.6 2.8-2.8 6.7 2.8 6.6 6.6 2.8z"></path></svg>