<?xml version="1.0"?><svg viewBox="0 0 40 40" xmlns="http://www.w3.org/2000/svg" height="40" width="40"><path d="m32 8.9q0-0.3 0.2-0.5t0.5-0.2h6q0.5 0 0.9 0.4t0.4 1v6q0 0.3-0.2 0.5t-0.5 0.1h-1.3q-0.3 0-0.5-0.1t-0.2-0.5v-2.8l-5.3 5.3q1.6 2 2.3 4.5t0.2 5.1q-0.7 3.8-3.5 6.5t-6.6 3.3q-4.4 0.6-8-1.7t-5-6.3q-2.5-0.1-4.6-1.2t-3.7-2.7-2.4-4-0.7-4.8q0.2-2.8 1.6-5.3t3.8-4 5.2-1.8q2.5-0.3 4.7 0.4t4.2 2.1l5.3-5.3h-2.8q-0.3 0-0.5-0.2t-0.2-0.5v-1.3q0-0.3 0.2-0.5t0.5-0.2h6q0.5 0 0.9 0.4t0.4 1v6q0 0.3-0.2 0.5t-0.4 0.1h-1.4q-0.3 0-0.4-0.1t-0.2-0.5v-2.8l-5.3 5.3q1.2 1.5 1.9 3.5 3.8 0.2 6.8 2.6l5.4-5.3h-2.8q-0.3 0-0.5-0.2t-0.2-0.5v-1.3z m-10.7 8.7q0-0.4 0-1.2-3.4 0.5-5.7 3.1t-2.3 6.1q0 0.4 0.1 1.2 3.4-0.5 5.7-3.1t2.2-6.1z m-18.6 0q0 3.5 2.3 6.1t5.7 3.1q0-0.6 0-1.2 0-4.4 2.8-7.7t7-4.1q-1.1-2.5-3.4-4t-5.1-1.6q-3.9 0-6.6 2.8t-2.7 6.6z m20 17.3q3.8 0 6.6-2.7t2.7-6.6q0-3.5-2.3-6.1t-5.8-3.1q0.1 0.6 0.1 1.2 0 4.4-2.8 7.7t-7.1 4.1q1.1 2.5 3.5 4t5.1 1.5z"></path></svg>