<?xml version="1.0"?><svg viewBox="0 0 40 40" xmlns="http://www.w3.org/2000/svg" height="40" width="40"><path d="m37.1 19.4q0.4 0.3 0.4 0.8t-0.4 0.9l-5.7 5.8q-0.2 0.1-0.5 0.1t-0.4-0.1l-0.9-0.9q-0.2-0.2-0.2-0.5t0.2-0.4l3.6-3.6h-5.7v4.4q0 0.2-0.2 0.4t-0.4 0.2h-1.3q-0.2 0-0.4-0.2t-0.2-0.4v-4.4h-2.6q-0.4 4.2-3.6 7.1t-7.5 2.9q-3.3 0-6-1.7t-4.2-4.6-1-6.3q0.3-2.6 1.7-4.8t3.7-3.5 4.8-1.6q3.1-0.2 5.7 1t4.4 3.7 2 5.3h2.6v-4.4q0-0.3 0.2-0.4t0.4-0.2h1.3q0.2 0 0.4 0.2t0.2 0.4v4.4h5.7l-3.6-3.6q-0.2-0.2-0.2-0.5t0.2-0.4l0.9-0.9q0.2-0.2 0.4-0.2t0.5 0.2z m-25.8 9.6q3.6 0 6.1-2.6t2.6-6.2-2.6-6.1-6.1-2.6-6.2 2.6-2.6 6.1 2.6 6.2 6.2 2.6z"></path></svg>