<?xml version="1.0"?><svg viewBox="0 0 40 40" xmlns="http://www.w3.org/2000/svg" height="40" width="40"><path d="m26.7 10.8q0-0.3 0.1-0.4t0.4-0.2h5q0.5 0 0.8 0.3t0.3 0.8v5q0 0.3-0.1 0.4t-0.4 0.2h-1.1q-0.3 0-0.4-0.2t-0.2-0.4v-2.3l-4.4 4.4q1.3 1.7 1.9 3.7t0.1 4.3q-0.5 3.2-2.8 5.4t-5.6 2.7q-3.6 0.6-6.6-1.3t-4.2-5.2q-2.1-0.2-3.9-1t-3.1-2.4q-1.2-1.4-1.9-3.3t-0.6-4q0.2-2.3 1.4-4.4t3.1-3.3q2-1.3 4.3-1.5 2.1-0.3 4 0.3t3.4 1.8l4.5-4.4h-2.4q-0.2 0-0.4-0.2t-0.1-0.4v-1.1q0-0.2 0.1-0.4t0.4-0.2h5q0.5 0 0.8 0.4t0.3 0.8v5q0 0.2-0.1 0.4t-0.4 0.1h-1.1q-0.3 0-0.4-0.1t-0.2-0.4v-2.4l-4.4 4.5q1 1.2 1.6 2.9 3.2 0.1 5.7 2.1l4.4-4.4h-2.3q-0.2 0-0.4-0.1t-0.1-0.4v-1.1z m-8.9 7.2q0-0.4-0.1-1-2.8 0.4-4.7 2.6t-1.9 5.1q0 0.3 0.1 1 2.8-0.5 4.7-2.6t1.9-5.1z m-15.6 0q0 2.9 1.9 5.1t4.8 2.6q0-0.5 0-1 0-3.7 2.3-6.5t5.9-3.4q-0.9-2.1-2.8-3.3t-4.3-1.3q-3.2 0-5.5 2.3t-2.3 5.5z m16.7 14.4q3.2 0 5.5-2.3t2.3-5.4q0-3-2-5.2t-4.8-2.5q0.1 0.5 0.1 1 0 3.6-2.3 6.4t-5.9 3.4q0.9 2.1 2.8 3.4t4.3 1.2z"></path></svg>