<?xml version="1.0"?><svg xmlns="http://www.w3.org/2000/svg" width="40" height="40" viewBox="0 0 40 40"><path d="m32 10q0-0.293333333333333 0.18666666666666742-0.4800000000000004t0.4799999999999969-0.18666666666666742h6q0.5413333333333341 0 0.9373333333333349 0.3960000000000008t0.3960000000000008 0.9373333333333331v5.999999999999998q0 0.293333333333333-0.18666666666666742 0.4800000000000004t-0.4799999999999969 0.18666666666666742h-1.3333333333333357q-0.29333333333333655 0-0.4799999999999969-0.18666666666666742t-0.18666666666667453-0.4800000000000004v-2.791999999999998l-5.2933333333333366 5.312000000000001q1.586666666666666 1.9786666666666655 2.240000000000002 4.458666666666666t0.20000000000000284 5.146666666666668q-0.6466666666666683 3.7906666666666666-3.460000000000001 6.498666666666665t-6.626666666666665 3.2506666666666675q-4.373333333333335 0.6039999999999992-8.00933333333333-1.6666666666666643t-5.030666666666667-6.2506666666666675q-2.437333333333333-0.12533333333333374-4.603999999999999-1.197333333333333t-3.696000000000001-2.7706666666666706-2.3666666666666667-4.0106666666666655-0.6666666666666665-4.792000000000002q0.18666666666666668-2.8133333333333326 1.6266666666666665-5.2506666666666675t3.7906666666666666-3.989333333333331 5.165333333333333-1.8639999999999999q2.4586666666666677-0.293333333333333 4.74 0.3959999999999999t4.133333333333333 2.144l5.313333333333333-5.293333333333333h-2.7893333333333317q-0.29066666666666663 0-0.47733333333333405-0.18666666666666654t-0.18666666666666742-0.48v-1.3333333333333333q0-0.29066666666666663 0.18666666666666742-0.4773333333333334t0.4800000000000004-0.18666666666666676h5.997333333333334q0.5399999999999991 0 0.9359999999999999 0.3946666666666665t0.3973333333333322 0.9399999999999995v6q0 0.29066666666666663-0.18666666666666742 0.47733333333333405t-0.4800000000000004 0.18666666666666742h-1.3333333333333321q-0.29066666666666663 0-0.47733333333333405-0.18666666666666742t-0.18666666666666742-0.4800000000000004v-2.7893333333333326l-5.295999999999996 5.312q1.229333333333333 1.5399999999999991 1.937333333333335 3.5199999999999996 3.7920000000000016 0.18666666666666742 6.833333333333332 2.5826666666666647l5.312000000000001-5.293333333333333h-2.7893333333333388q-0.29333333333333655 0-0.4799999999999969-0.18666666666666742t-0.18666666666666742-0.4800000000000004v-1.333333333333334z m-10.666666666666668 8.666666666666664q0-0.4173333333333318-0.08399999999999963-1.2079999999999984-3.373333333333335 0.5199999999999996-5.645333333333333 3.1253333333333337t-2.270666666666667 6.082666666666665q0 0.4173333333333318 0.08399999999999963 1.2079999999999984 3.373333333333335-0.5199999999999996 5.645333333333333-3.1253333333333337t2.270666666666667-6.082666666666665z m-18.666666666666664 0q-1.3322676295501878e-15 3.5 2.3119999999999985 6.125333333333334t5.749333333333333 3.103999999999999q-0.061333333333333684-0.6026666666666678-0.061333333333333684-1.229333333333333 0-4.373333333333335 2.810666666666666-7.697333333333333t7.040000000000001-4.093333333333334q-1.1026666666666678-2.5-3.4053333333333313-4.021333333333333t-5.11466666666667-1.5213333333333328q-3.8533333333333335 0-6.593333333333334 2.74t-2.7399999999999984 6.593333333333332z m20 17.333333333333336q3.8533333333333353 0 6.593333333333334-2.740000000000002t2.7399999999999984-6.593333333333334q0-3.5-2.312000000000001-6.125333333333334t-5.7493333333333325-3.103999999999999q0.061333333333333684 0.6026666666666678 0.061333333333333684 1.229333333333333 0 4.373333333333335-2.810666666666666 7.697333333333333t-7.039999999999999 4.093333333333334q1.102666666666666 2.5 3.405333333333335 4.021333333333331t5.114666666666661 1.521333333333338z"></path></svg>