<?xml version="1.0"?><svg xmlns="http://www.w3.org/2000/svg" width="40" height="40" viewBox="0 0 40 40"><path d="m35.714285714285715 2.857142857142857q0.5799999999999983 0 1.0042857142857144 0.4242857142857144t0.42428571428571615 1.004285714285714v9.285714285714288q0 0.31428571428571495-0.20000000000000284 0.5142857142857142t-0.5142857142857125 0.1999999999999993h-1.4285714285714306q-0.3142857142857167 0-0.5142857142857125-0.1999999999999993t-0.20000000000000284-0.514285714285716v-5.848571428571429l-8.528571428571428 8.54857142857143q2.8142857142857167 3.482857142857142 2.8142857142857167 8.014285714285712 0 2.6099999999999994-1.014285714285716 4.9857142857142875t-2.747142857142858 4.10857142857143-4.107142857142858 2.7457142857142856-4.988571428571429 1.0142857142857125-4.988571428571429-1.0142857142857125-4.107142857142858-2.7457142857142856-2.7471428571428533-4.108571428571434-1.0142857142857142-4.985714285714284 1.0142857142857142-4.990000000000002 2.747142857142857-4.107142857142858 4.107142857142858-2.7457142857142802 4.988571428571429-1.014285714285716q4.53142857142857 0 8.014285714285712 2.8114285714285714l8.525714285714287-8.528571428571428h-5.825714285714284q-0.31428571428571317 0-0.5142857142857125-0.20000000000000018t-0.1999999999999993-0.5142857142857142v-1.4285714285714288q0-0.3114285714285714 0.1999999999999993-0.5114285714285716t0.5142857142857125-0.19999999999999973h9.285714285714285z m-20 31.428571428571427q4.12857142857143 0 7.064285714285717-2.935714285714287t2.9357142857142833-7.064285714285713-2.935714285714287-7.064285714285717-7.064285714285713-2.9357142857142815-7.064285714285715 2.935714285714285-2.935714285714286 7.064285714285713 2.935714285714286 7.064285714285717 7.064285714285715 2.9357142857142833z"></path></svg>