<?xml version="1.0"?><svg viewBox="0 0 40 40" xmlns="http://www.w3.org/2000/svg" height="40" width="40"><path d="m31.5 17.8v2.4q0 0.5-0.3 0.8t-0.8 0.3h-4.3q-0.5 0-0.8-0.3t-0.3-0.8v-2.4q0-0.5 0.3-0.8t0.8-0.3h4.3q0.5 0 0.8 0.3t0.3 0.8z m-10.4 4.8v-5.3q0-1.1-0.7-1.8t-1.8-0.6h-2.8q-1.4 0-2 1-0.6-1-2-1h-2.8q-1.1 0-1.8 0.6t-0.7 1.8v5.3q0 0.5 0.5 0.5h1.1q0.5 0 0.5-0.5v-4.8q0-0.5 0.3-0.8t0.8-0.3h2q0.5 0 0.8 0.3t0.3 0.8v4.8q0 0.5 0.4 0.5h1.2q0.4 0 0.4-0.5v-4.8q0-0.5 0.3-0.8t0.8-0.3h2.1q0.5 0 0.8 0.3t0.3 0.8v4.8q0 0.5 0.4 0.5h1.2q0.4 0 0.4-0.5z m12.4-2v-3.3q0-1.1-0.7-1.8t-1.8-0.6h-5.5q-1.2 0-1.9 0.6t-0.6 1.8v8.7q0 0.4 0.4 0.4h1.2q0.4 0 0.4-0.4v-3.8q0.7 0.9 2 0.9h4q1.2 0 1.8-0.7t0.7-1.8z m2.7-13v22.6q0 2-1.4 3.5t-3.5 1.4h-22.6q-2 0-3.5-1.4t-1.4-3.5v-22.6q0-2 1.4-3.5t3.5-1.4h22.6q2 0 3.5 1.4t1.4 3.5z"></path></svg>