<?xml version="1.0"?><svg xmlns="http://www.w3.org/2000/svg" width="40" height="40" viewBox="0 0 40 40"><path d="m32.120000000000005 18.794285714285717v2.5428571428571445q0 0.5371428571428574-0.3000000000000007 0.8500000000000014t-0.8385714285714272 0.31428571428571317h-4.510000000000002q-0.5342857142857156 0-0.8471428571428561-0.31428571428571317t-0.31428571428571317-0.8471428571428561v-2.5428571428571445q0-0.5371428571428574 0.31428571428571317-0.8500000000000014t0.8485714285714288-0.31428571428571317h4.510000000000002q0.5357142857142847 0 0.8371428571428581 0.31428571428571317t0.29999999999999716 0.8485714285714288z m-10.93714285714286 5.1342857142857135v-5.579999999999998q0-1.1828571428571415-0.725714285714286-1.9085714285714275t-1.908571428571431-0.7257142857142895h-2.968571428571426q-1.5171428571428578 0-2.1428571428571423 1.1600000000000001-0.6257142857142881-1.1600000000000001-2.142857142857146-1.1600000000000001h-2.9000000000000004q-1.185714285714286 0-1.9100000000000001 0.725714285714286t-0.7285714285714286 1.9085714285714275v5.580000000000002q0 0.4914285714285711 0.47142857142857153 0.4914285714285711h1.225714285714286q0.4914285714285711 0 0.4914285714285711-0.4914285714285711v-5.1342857142857135q0-0.5357142857142847 0.2999999999999998-0.8485714285714288t0.8614285714285721-0.31428571428571317h2.0999999999999996q0.5342857142857138 0 0.8471428571428579 0.31428571428571317t0.31428571428571495 0.8485714285714288v5.1342857142857135q0 0.4914285714285711 0.4671428571428571 0.4914285714285711h1.2057142857142864q0.4900000000000002 0 0.4900000000000002-0.4914285714285711v-5.1342857142857135q0-0.5357142857142847 0.31428571428571495-0.8485714285714288t0.8471428571428579-0.31428571428571317h2.1657142857142873q0.5357142857142847 0 0.8371428571428581 0.31428571428571317t0.3000000000000007 0.8485714285714288v5.1342857142857135q0 0.4914285714285711 0.49285714285714377 0.4914285714285711h1.2285714285714278q0.4671428571428571 0 0.4671428571428571-0.4914285714285711z m13.147142857142853-2.1428571428571423v-3.437142857142856q0-1.1828571428571415-0.7357142857142875-1.9085714285714275t-1.9228571428571364-0.7257142857142895h-5.891428571428573q-1.1828571428571415 0-1.9200000000000017 0.725714285714286t-0.7371428571428567 1.9085714285714275v9.151428571428571q0 0.46857142857142975 0.4914285714285711 0.46857142857142975h1.2285714285714278q0.4671428571428571 0 0.4671428571428571-0.46857142857142975v-4.017142857142858q0.6914285714285704 0.937142857142856 2.1000000000000014 0.937142857142856h4.261428571428571q1.182857142857145 0 1.9200000000000017-0.725714285714286t0.7371428571428567-1.9085714285714275z m2.8128571428571476-13.750000000000002v23.92857142857143q0 2.142857142857146-1.5171428571428578 3.6599999999999966t-3.66 1.518571428571434h-23.92857142857143q-2.1428571428571423 0-3.66-1.518571428571427t-1.5171428571428573-3.6600000000000037v-23.92857142857143q0-2.1428571428571406 1.5171428571428573-3.6599999999999984t3.66-1.5185714285714291h23.92857142857143q2.1428571428571423 0 3.66 1.5185714285714282t1.5171428571428578 3.660000000000001z"></path></svg>