<?xml version="1.0"?><svg viewBox="0 0 40 40" xmlns="http://www.w3.org/2000/svg" height="40" width="40"><path d="m28.1 23q0 0.5-0.4 0.9t-0.9 0.4h-13.6q-0.5 0-0.9-0.4t-0.4-0.9 0.4-1 0.9-0.4h13.6q0.5 0 0.9 0.4t0.4 1z m-10.8-9.5q0 1.1-0.8 1.9t-1.9 0.8-1.9-0.8-0.8-1.9 0.8-1.9 1.9-0.8 1.9 0.8 0.8 1.9z m10.8 0q0 1.1-0.8 1.9t-1.9 0.8-1.9-0.8-0.8-1.9 0.8-1.9 1.9-0.8 1.9 0.8 0.8 1.9z m5.4 5.4q0-2.7-1.1-5.2t-2.9-4.3-4.3-2.9-5.2-1.1-5.2 1.1-4.3 2.9-2.9 4.3-1.1 5.2 1.1 5.2 2.9 4.3 4.3 2.9 5.2 1.1 5.2-1.1 4.3-2.9 2.9-4.3 1.1-5.2z m2.7 0q0 4.4-2.2 8.1t-5.9 5.9-8.1 2.2-8.1-2.2-5.9-5.9-2.2-8.1 2.2-8.1 5.9-5.9 8.1-2.2 8.1 2.2 5.9 5.9 2.2 8.1z"></path></svg>