<svg viewBox="0 0 1536 1896.0833" xmlns="http://www.w3.org/2000/svg"><path d="m1152 1088q0 26-19 45t-45 19h-640q-26 0-45-19t-19-45 19-45 45-19h640q26 0 45 19t19 45z m-512-448q0 53-37.5 90.5t-90.5 37.5-90.5-37.5-37.5-90.5 37.5-90.5 90.5-37.5 90.5 37.5 37.5 90.5z m512 0q0 53-37.5 90.5t-90.5 37.5-90.5-37.5-37.5-90.5 37.5-90.5 90.5-37.5 90.5 37.5 37.5 90.5z m256 256q0-130-51-248.5t-136.5-204-204-136.5-248.5-51-248.5 51-204 136.5-136.5 204-51 248.5 51 248.5 136.5 204 204 136.5 248.5 51 248.5-51 204-136.5 136.5-204 51-248.5z m128 0q0 209-103 385.5t-279.5 279.5-385.5 103-385.5-103-279.5-279.5-103-385.5 103-385.5 279.5-279.5 385.5-103 385.5 103 279.5 279.5 103 385.5z"/></svg>