<?xml version="1.0"?><svg viewBox="0 0 40 40" xmlns="http://www.w3.org/2000/svg" height="40" width="40"><path d="m20 15.8v2.2q0 3.8-2.6 6.7t-6.3 3.2v2.3h4.5q0.4 0 0.7 0.3t0.4 0.8q0 0.5-0.4 0.8t-0.7 0.3h-11.2q-0.4 0-0.7-0.3t-0.4-0.8q0-0.4 0.4-0.8t0.7-0.3h4.5v-2.3q-3.8-0.4-6.3-3.2t-2.6-6.7v-2.2q0-0.5 0.3-0.8t0.8-0.3q0.5 0 0.8 0.3t0.3 0.8v2.2q0 3.2 2.3 5.5t5.5 2.3q3.2 0 5.5-2.3t2.3-5.5v-2.2q0-0.5 0.3-0.8t0.8-0.3q0.4 0 0.8 0.3t0.3 0.8z m-4.4-6.7v8.9q0 2.3-1.7 3.9t-3.9 1.6q-2.3 0-3.9-1.6t-1.7-3.9v-8.9q0-2.3 1.7-3.9t3.9-1.7q2.3 0 3.9 1.7t1.7 3.9z"></path></svg>