<?xml version="1.0"?><svg viewBox="0 0 40 40" xmlns="http://www.w3.org/2000/svg" height="40" width="40"><path d="m10.9 19.9l-2.2 2.2q-0.9-2.2-0.9-4.5v-2.7q0-0.6 0.4-1t1-0.4 0.9 0.4 0.4 1v2.7q0 1.1 0.4 2.3z m23.5-12.7l-7.6 7.7v2.7q0 2.7-2 4.7t-4.8 2q-1.2 0-2.3-0.4l-2 2q2 1.1 4.3 1.1 3.9 0 6.7-2.8t2.8-6.6v-2.7q0-0.6 0.4-1t0.9-0.4 1 0.4 0.4 1v2.7q0 4.6-3.2 8.1t-7.6 3.9v2.8h5.4q0.5 0 0.9 0.4t0.4 1-0.4 0.9-0.9 0.4h-13.6q-0.5 0-0.9-0.4t-0.4-0.9 0.4-1 0.9-0.4h5.4v-2.8q-2.6-0.3-4.9-1.7l-5.4 5.4q-0.2 0.2-0.5 0.2t-0.4-0.2l-1.8-1.8q-0.2-0.2-0.2-0.4t0.2-0.5l26.1-26.1q0.2-0.2 0.5-0.2t0.4 0.2l1.8 1.8q0.2 0.2 0.2 0.5t-0.2 0.4z m-8.1-2.7l-13.1 13.1v-10.8q0-2.8 2-4.8t4.8-2q2.2 0 3.9 1.2t2.4 3.3z"></path></svg>