<?xml version="1.0"?><svg xmlns="http://www.w3.org/2000/svg" width="40" height="40" viewBox="0 0 40 40"><path d="m32.85714285714286 15.714285714285715v2.8571428571428577q0 4.9328571428571415-3.2928571428571445 8.582857142857144t-8.135714285714286 4.185714285714283v2.945714285714285h5.714285714285715q0.5799999999999983 0 1.0042857142857144 0.42571428571428527t0.4242857142857126 1.0028571428571453-0.4242857142857126 1.0057142857142836-1.004285714285718 0.42285714285714704h-14.285714285714285q-0.5800000000000001 0-1.0042857142857144-0.42285714285713993t-0.4242857142857144-1.0057142857142907 0.4242857142857144-1.0028571428571453 1.0042857142857144-0.42571428571428527h5.714285714285715v-2.9428571428571395q-4.842857142857143-0.5357142857142847-8.135714285714286-4.185714285714287t-3.2928571428571436-8.585714285714285v-2.8571428571428577q0-0.5800000000000001 0.4242857142857144-1.0042857142857144t1.0042857142857136-0.4242857142857144 1.0042857142857144 0.4242857142857144 0.4242857142857144 1.0042857142857144v2.8571428571428577q0 4.12857142857143 2.935714285714287 7.064285714285713t7.064285714285713 2.935714285714287 7.064285714285717-2.935714285714287 2.9357142857142833-7.064285714285713v-2.8571428571428577q0-0.5800000000000001 0.4242857142857126-1.0042857142857144t1.004285714285718-0.4242857142857144 1.0042857142857144 0.4242857142857144 0.42428571428571615 1.0042857142857144z m-5.714285714285715-8.571428571428571v11.428571428571429q0 2.9471428571428575-2.1000000000000014 5.042857142857141t-5.0428571428571445 2.1000000000000014-5.042857142857143-2.1000000000000014-2.0999999999999996-5.042857142857141v-11.42857142857143q0-2.9471428571428566 2.0999999999999996-5.042857142857142t5.042857142857143-2.1000000000000005 5.0428571428571445 2.1 2.099999999999998 5.042857142857143z"></path></svg>