<svg viewBox="0 0 1408 1896.0833" xmlns="http://www.w3.org/2000/svg"><path d="m271 945l-101 101q-42-103-42-214v-128q0-26 19-45t45-19 45 19 19 45v128q0 53 15 113z m1114-602l-361 361v128q0 132-94 226t-226 94q-55 0-109-19l-96 96q97 51 205 51 185 0 316.5-131.5t131.5-316.5v-128q0-26 19-45t45-19 45 19 19 45v128q0 221-147.5 384.5t-364.5 187.5v132h256q26 0 45 19t19 45-19 45-45 19h-640q-26 0-45-19t-19-45 19-45 45-19h256v-132q-125-13-235-81l-254 254q-10 10-23 10t-23-10l-82-82q-10-10-10-23t10-23l1234-1234q10-10 23-10t23 10l82 82q10 10 10 23t-10 23z m-380-132l-621 621v-512q0-132 94-226t226-94q102 0 184.5 59t116.5 152z"/></svg>