<?xml version="1.0"?><svg viewBox="0 0 40 40" xmlns="http://www.w3.org/2000/svg" height="40" width="40"><path d="m4.7 19.9l-1.7 1.8q-0.8-1.8-0.8-3.7v-2.2q0-0.5 0.4-0.8t0.7-0.3q0.5 0 0.8 0.3t0.3 0.8v2.2q0 0.9 0.3 1.9z m19.3-10.4l-6.2 6.3v2.2q0 2.3-1.7 3.9t-3.9 1.6q-0.9 0-1.9-0.3l-1.6 1.7q1.6 0.9 3.5 0.9 3.2 0 5.5-2.3t2.3-5.5v-2.2q0-0.5 0.3-0.8t0.8-0.3q0.5 0 0.8 0.3t0.3 0.8v2.2q0 3.8-2.5 6.7t-6.4 3.2v2.3h4.5q0.4 0 0.8 0.3t0.3 0.8q0 0.5-0.3 0.8t-0.8 0.3h-11.1q-0.5 0-0.8-0.3t-0.3-0.8q0-0.4 0.3-0.8t0.8-0.3h4.4v-2.3q-2.2-0.2-4.1-1.4l-4.4 4.4q-0.2 0.2-0.4 0.2t-0.4-0.2l-1.4-1.4q-0.2-0.2-0.2-0.4t0.2-0.4l21.4-21.4q0.2-0.2 0.4-0.2t0.4 0.2l1.4 1.4q0.2 0.2 0.2 0.4t-0.2 0.4z m-6.6-2.3l-10.7 10.8v-8.9q0-2.3 1.6-3.9t3.9-1.7q1.8 0 3.2 1.1t2 2.6z"></path></svg>