<?xml version="1.0"?><svg xmlns="http://www.w3.org/2000/svg" width="40" height="40" viewBox="0 0 40 40"><path d="m30 21.42857142857143v-2.8571428571428577q0-0.5800000000000018-0.4242857142857126-1.0042857142857144t-1.0042857142857144-0.42428571428571615h-17.142857142857146q-0.5799999999999983 0-1.0042857142857127 0.4242857142857126t-0.4242857142857144 1.004285714285718v2.8571428571428577q0 0.5799999999999983 0.4242857142857144 1.0042857142857144t1.0042857142857144 0.4242857142857126h17.14285714285714q0.5799999999999983 0 1.0042857142857144-0.4242857142857126t0.42428571428571615-1.0042857142857144z m7.142857142857146-1.428571428571427q0 4.665714285714284-2.299999999999997 8.604285714285712t-6.237142857142857 6.238571428571426-8.605714285714292 2.3000000000000043-8.6-2.3000000000000043-6.242857142857143-6.238571428571426-2.295714285714286-8.604285714285716 2.3000000000000003-8.604285714285714 6.234285714285714-6.238571428571428 8.604285714285714-2.3000000000000003 8.605714285714285 2.3000000000000003 6.238571428571426 6.238571428571428 2.298571428571435 8.604285714285714z"></path></svg>