<?xml version="1.0"?><svg xmlns="http://www.w3.org/2000/svg" width="40" height="40" viewBox="0 0 40 40"><path d="m31.42857142857143 21.42857142857143v-2.8571428571428577q0-0.5800000000000018-0.4242857142857126-1.0042857142857144t-1.004285714285718-0.42428571428571615h-20q-0.5800000000000001 0-1.0042857142857144 0.4242857142857126t-0.4242857142857144 1.004285714285718v2.8571428571428577q0 0.5799999999999983 0.4242857142857144 1.0042857142857144t1.0042857142857144 0.4242857142857126h20q0.5799999999999983 0 1.0042857142857144-0.4242857142857126t0.42428571428571615-1.0042857142857144z m5.714285714285715-12.142857142857142v21.42857142857143q0 2.657142857142855-1.8857142857142861 4.542857142857141t-4.5428571428571445 1.8857142857142861h-21.42857142857143q-2.6571428571428575 0-4.542857142857144-1.8857142857142861t-1.885714285714284-4.5428571428571445v-21.42857142857143q0-2.6571428571428575 1.8857142857142857-4.542857142857144t4.542857142857144-1.885714285714284h21.42857142857143q2.6571428571428584 0 4.5428571428571445 1.8857142857142857t1.8857142857142861 4.542857142857144z"></path></svg>