<?xml version="1.0"?><svg xmlns="http://www.w3.org/2000/svg" width="40" height="40" viewBox="0 0 40 40"><path d="m28.55888888888889 23.506666666666668q0-1.0244444444444447-0.5888888888888886-1.8488888888888901t-1.5111111111111128-1.18888888888889q-0.12222222222222356 0.7811111111111124-0.3999999999999986 1.5966666666666676-0.120000000000001 0.41555555555555657-0.47777777777777786 0.6588888888888889t-0.7711111111111109 0.24444444444444358q-0.20888888888888957 0-0.41777777777777914-0.053333333333334565-0.5377777777777766-0.173333333333332-0.7811111111111124-0.6688888888888904t-0.068888888888889-1.0155555555555544q0.3999999999999986-1.2333333333333343 0.3999999999999986-2.4833333333333343 0-2.1355555555555554-1.0599999999999987-3.9499999999999993t-2.8822222222222216-2.871111111111107-3.9588888888888896-1.0588888888888892q-2.326666666666666 0-4.288888888888888 1.2688888888888883t-2.8966666666666665 3.365555555555556q1.873333333333333 0.48888888888888893 3.2633333333333336 1.8411111111111111 0.3822222222222216 0.397777777777776 0.3822222222222216 0.9533333333333331t-0.3811111111111103 0.9377777777777787-0.9377777777777787 0.3822222222222216-0.9555555555555557-0.3822222222222216q-1.3000000000000007-1.3022222222222233-3.122222222222222-1.3022222222222233-1.8411111111111111 0-3.144444444444445 1.293333333333333t-1.2999999999999998 3.133333333333333 1.2999999999999998 3.133333333333333 3.144444444444445 1.293333333333333h18.15888888888889q1.3711111111111123 0 2.3355555555555547-0.9633333333333347t0.9633333333333347-2.3166666666666664z m2.655555555555555 0q0 2.4666666666666686-1.7444444444444436 4.199999999999999t-4.207777777777778 1.7377777777777794h-18.162222222222226q-2.933333333333332 0-5.016666666666665-2.0744444444444454t-2.083333333333333-5.00888888888889q0-2.655555555555555 1.7366666666666666-4.635555555555555t4.322222222222223-2.3611111111111107q1.0777777777777775-3.1944444444444446 3.837777777777779-5.173333333333332t6.144444444444446-1.9777777777777779q4.081111111111113 0 7.093333333333334 2.7511111111111113t3.4111111111111114 6.762222222222224q2.0155555555555544 0.43333333333333357 3.344444444444445 2.057777777777776t1.326666666666668 3.724444444444444z m4.341111111111111 0q0 3.0377777777777766-1.6844444444444449 5.537777777777777-0.3999999999999986 0.5733333333333341-1.1111111111111143 0.5733333333333341-0.4166666666666643 0-0.7466666666666697-0.2255555555555553-0.4511111111111106-0.29555555555555557-0.5555555555555571-0.8422222222222224t0.20777777777777828-0.9977777777777774q1.2311111111111117-1.8055555555555571 1.2311111111111117-4.044444444444444t-1.2333333333333343-4.046666666666667q-0.31111111111111-0.4511111111111106-0.206666666666667-0.9888888888888907t0.5555555555555536-0.852222222222224 0.9977777777777774-0.1999999999999993 0.8588888888888917 0.5644444444444439q1.6866666666666745 2.4666666666666686 1.6866666666666745 5.522222222222226z m4.444444444444443 0q0 4.236666666666668-2.326666666666668 7.691111111111113-0.3999999999999986 0.5888888888888886-1.1111111111111143 0.5888888888888886-0.3999999999999986 0-0.7288888888888891-0.224444444444444-0.4511111111111106-0.31111111111111-0.5644444444444474-0.8511111111111127t0.20000000000000284-0.9888888888888907q1.8744444444444426-2.847777777777779 1.8744444444444426-6.216666666666669 0-3.3855555555555554-1.8755555555555574-6.19777777777778-0.31111111111111-0.4511111111111106-0.20000000000000284-0.9977777777777774t0.5644444444444474-0.844444444444445q0.4511111111111106-0.3111111111111118 0.9888888888888872-0.206666666666667t0.852222222222224 0.5733333333333341q2.326666666666675 3.438888888888897 2.326666666666675 7.67444444444445z"></path></svg>