<?xml version="1.0"?><svg xmlns="http://www.w3.org/2000/svg" width="40" height="40" viewBox="0 0 40 40"><path d="m21.785714285714285 31.42857142857143q0-0.7371428571428567-0.524285714285714-1.2614285714285707t-1.2614285714285707-0.5242857142857176-1.2614285714285707 0.524285714285714-0.524285714285714 1.2614285714285742 0.524285714285714 1.2614285714285742 1.2614285714285707 0.5242857142857176 1.2614285714285707-0.5242857142857176 0.524285714285714-1.2614285714285742z m4.642857142857142-3.571428571428573v-15.714285714285715q0-0.28999999999999915-0.21142857142856997-0.5028571428571436t-0.5028571428571418-0.21142857142856997h-11.428571428571429q-0.2900000000000009 0-0.5028571428571436 0.21142857142857174t-0.21142857142857174 0.5028571428571418v15.714285714285715q0 0.28999999999999915 0.21142857142857174 0.5028571428571418t0.5028571428571436 0.21142857142857352h11.428571428571429q0.28999999999999915 0 0.5028571428571418-0.21142857142856997t0.21142857142856997-0.5028571428571418z m-4.285714285714285-18.92857142857143q0-0.3571428571428559-0.35714285714285765-0.3571428571428559h-3.571428571428573q-0.35714285714285765 0-0.35714285714285765 0.35714285714285765t0.35714285714285765 0.35714285714285765h3.571428571428573q0.35714285714285765 0 0.35714285714285765-0.35714285714285765z m6.428571428571431-0.3571428571428559v22.85714285714286q0 1.1599999999999966-0.8485714285714288 2.008571428571429t-2.008571428571429 0.8485714285714252h-11.428571428571429q-1.1600000000000001 0-2.008571428571429-0.8485714285714252t-0.8485714285714288-2.008571428571429v-22.85714285714286q0-1.1599999999999984 0.8485714285714288-2.008571428571427t2.008571428571429-0.8485714285714279h11.428571428571429q1.1600000000000001 0 2.008571428571429 0.8485714285714288t0.8485714285714288 2.008571428571428z"></path></svg>