<?xml version="1.0"?><svg viewBox="0 0 40 40" xmlns="http://www.w3.org/2000/svg" height="40" width="40"><path d="m18.6 29.7q0-0.7-0.5-1.2t-1.1-0.5-1.2 0.5-0.5 1.2 0.5 1.2 1.2 0.5 1.1-0.5 0.5-1.2z m4.4-3.4v-14.8q0-0.3-0.2-0.5t-0.4-0.2h-10.8q-0.3 0-0.5 0.2t-0.2 0.5v14.8q0 0.3 0.2 0.5t0.5 0.2h10.8q0.2 0 0.4-0.2t0.2-0.5z m-4-17.9q0-0.3-0.4-0.3h-3.3q-0.4 0-0.4 0.3t0.4 0.4h3.3q0.4 0 0.4-0.4z m6.1-0.3v21.6q0 1.1-0.8 1.9t-1.9 0.8h-10.8q-1.1 0-1.9-0.8t-0.8-1.9v-21.6q0-1.1 0.8-1.9t1.9-0.8h10.8q1.1 0 1.9 0.8t0.8 1.9z"></path></svg>