<?xml version="1.0"?><svg viewBox="0 0 40 40" xmlns="http://www.w3.org/2000/svg" height="40" width="40"><path d="m21.9 26.2q-0.9 0.1-1.9 0.1-3.2 0-5.9-1.5t-4.2-4.3q-1.6-2.7-1.6-5.8 0-3.4 1.8-6.2-3.5 1-5.7 3.9t-2.2 6.7q0 2.3 0.9 4.3t2.4 3.6q1.5 1.4 3.5 2.3t4.3 0.9q2.5 0 4.8-1.1t3.8-2.9z m3.5-1.5q-1.6 3.5-4.9 5.6t-7.2 2.1q-2.7 0-5.1-1t-4.3-2.9q-1.8-1.8-2.8-4.2t-1.1-5.2q0-2.7 1-5.1t2.7-4.2q1.7-1.7 4.1-2.8t5-1.2q0.8-0.1 1.1 0.7 0.3 0.7-0.3 1.2-1.5 1.4-2.3 3.2t-0.7 3.8q0 2.5 1.2 4.7t3.5 3.4q2.1 1.3 4.7 1.3 2 0 4-0.9 0.7-0.3 1.2 0.2 0.3 0.3 0.3 0.6t-0.1 0.7z"></path></svg>