<svg viewBox="0 0 1536 1896.0833" xmlns="http://www.w3.org/2000/svg"><path d="m1262 1303q-54 9-110 9-182 0-337-90t-245-245-90-337q0-192 104-357-201 60-328.5 229t-127.5 384q0 130 51 248.5t136.5 204 204 136.5 248.5 51q144 0 273.5-61.5t220.5-171.5z m203-85q-94 203-283.5 324.5t-413.5 121.5q-156 0-298-61t-245-164-164-245-61-298q0-153 57.5-292.5t156-241.5 235.5-164.5 290-68.5q44-2 61 39 18 41-15 72-86 78-131.5 181.5t-45.5 218.5q0 148 73 273t198 198 273 73q118 0 228-51 41-18 72 13 14 14 17.5 34t-4.5 38z"/></svg>