<?xml version="1.0"?><svg viewBox="0 0 40 40" xmlns="http://www.w3.org/2000/svg" height="40" width="40"><path d="m30.8 18.1l0.3 5.4q0.1 1.2-1.4 2.3t-4.1 1.6q-2.6 0.6-5.6 0.6t-5.6-0.6q-2.6-0.6-4.1-1.6t-1.4-2.3l0.3-5.4 10 3.1q0.3 0.1 0.8 0.1t0.8-0.1l10-3.1z m8.8-6.2q0.4 0.1 0.4 0.5t-0.4 0.6l-19.4 6.1q-0.1 0-0.2 0t-0.2 0l-11.3-3.6q-0.7 0.6-1.2 1.9t-0.6 3.1q1.1 0.7 1.1 1.9 0 1.2-1 1.9l1 7.5q0 0.2-0.2 0.4-0.1 0.2-0.4 0.2h-3.3q-0.3 0-0.4-0.2-0.2-0.2-0.2-0.4l1-7.5q-1-0.7-1-1.9 0-1.2 1.2-1.9 0.2-3.6 1.7-5.7l-5.8-1.8q-0.4-0.2-0.4-0.6t0.4-0.5l19.4-6.1q0.1 0 0.2 0t0.2 0l19.4 6.1z"></path></svg>