<?xml version="1.0"?><svg xmlns="http://www.w3.org/2000/svg" width="40" height="40" viewBox="0 0 40 40"><path d="m39.94777777777778 22.43111111111111q0.20777777777777828 1.7888888888888879-0.3822222222222251 3.4466666666666654t-1.7199999999999989 2.8388888888888886-2.7522222222222226 1.8399999999999999-3.4111111111111114 0.5388888888888879q-2.7955555555555556-0.19111111111111256-4.852222222222224-2.1700000000000017t-2.3355555555555547-4.755555555555556q-0.20777777777777828-1.9277777777777771 0.47777777777777786-3.655555555555555t2.0577777777777797-2.960000000000001l-1.2333333333333343-1.8577777777777769q-1.6666666666666679 1.3888888888888893-2.620000000000001 3.366666666666667t-0.9544444444444444 4.236666666666672q0 0.4688888888888876-0.3200000000000003 0.8077777777777762t-0.7888888888888879 0.3388888888888886h-5.644444444444446q-0.3977777777777778 2.8466666666666676-2.5855555555555547 4.755555555555556t-5.105555555555554 1.9122222222222227q-3.2111111111111112 0-5.493333333333333-2.283333333333335t-2.2844444444444454-5.495555555555555 2.2844444444444445-5.494444444444444 5.493333333333334-2.2833333333333314q1.3222222222222229 0 2.6400000000000006 0.4688888888888876l0.4166666666666661-0.7811111111111106q-2.134444444444444-1.9088888888888889-5.27888888888889-1.9088888888888889h-1.1111111111111107q-0.4500000000000002 0-0.7800000000000002-0.33000000000000007t-0.3311111111111109-0.7822222222222237 0.33333333333333304-0.7799999999999976 0.7777777777777781-0.3333333333333357h2.2222222222222223q1.3555555555555552 0 2.518888888888889 0.2333333333333325t2.022222222222222 0.6699999999999999 1.2411111111111115 0.6855555555555561 0.8855555555555554 0.6333333333333329h10.88777777777778l-1.4755555555555553-2.2222222222222214h-3.8577777777777804q-0.5199999999999996 0-0.8500000000000014-0.39111111111111185t-0.24444444444444358-0.9111111111111114q0.07111111111111157-0.40000000000000036 0.3999999999999986-0.6600000000000001t0.7466666666666661-0.2599999999999998h4.392222222222227q0.5733333333333341 0 0.9200000000000017 0.48666666666666636l1.2155555555555573 1.8222222222222229 1.9777777777777779-1.9777777777777779q0.3311111111111096-0.33000000000000007 0.8000000000000007-0.33000000000000007h1.7533333333333267q0.4511111111111106 0 0.7811111111111124 0.33000000000000007t0.3299999999999983 0.7811111111111106v2.222222222222223q0 0.4511111111111106-0.3299999999999983 0.7811111111111106t-0.7811111111111124 0.3322222222222244h-3.107777777777777l1.9966666666666661 2.985555555555555q2.2744444444444447-1.0922222222222224 4.774444444444445-0.6222222222222218 2.4822222222222194 0.45000000000000107 4.236666666666665 2.333333333333334t2.0488888888888894 4.402222222222225z m-32.17 6.457777777777778q1.9966666666666661 0 3.5244444444444447-1.2588888888888903t1.9266666666666676-3.1855555555555526h-5.451111111111112q-0.6077777777777778 0-0.9555555555555557-0.5377777777777766-0.3111111111111109-0.5555555555555571-0.016666666666666607-1.0933333333333337l2.5522222222222224-4.808888888888891q-0.8155555555555569-0.22666666666666657-1.58-0.22666666666666657-2.2922222222222226 0-3.922222222222222 1.6333333333333329t-1.6333333333333342 3.9222222222222243 1.6333333333333333 3.9244444444444433 3.922222222222223 1.6333333333333329z m24.44444444444445 0q2.2922222222222217 0 3.9222222222222243-1.6333333333333329t1.6333333333333258-3.9222222222222207-1.6333333333333329-3.9222222222222207-3.9222222222222243-1.6333333333333364q-1.0422222222222217 0-2.1000000000000014 0.41666666666666785l3.020000000000003 4.513333333333332q0.259999999999998 0.3999999999999986 0.173333333333332 0.8511111111111127t-0.46888888888889113 0.6944444444444429q-0.259999999999998 0.19111111111111256-0.6244444444444426 0.19111111111111256-0.6077777777777769 0-0.9200000000000017-0.5033333333333339l-3.022222222222222-4.513333333333335q-1.6133333333333297 1.6499999999999986-1.6133333333333297 3.9055555555555586 0 2.293333333333333 1.6333333333333329 3.9244444444444433t3.9222222222222207 1.6333333333333329z"></path></svg>