<?xml version="1.0"?><svg viewBox="0 0 40 40" xmlns="http://www.w3.org/2000/svg" height="40" width="40"><path d="m26.7 7.4v19.5q0 0.8-0.6 1.5t-1.5 1.1q-0.9 0.3-1.8 0.5t-1.7 0.2q-0.8 0-1.7-0.2t-1.8-0.5q-0.9-0.4-1.5-1.1t-0.5-1.5q0-0.9 0.5-1.6t1.5-1q0.9-0.4 1.8-0.6t1.7-0.2q1.8 0 3.3 0.7v-9.3l-13.3 4.1v12.3q0 0.9-0.6 1.6t-1.5 1q-0.9 0.4-1.8 0.6t-1.6 0.2q-0.8 0-1.7-0.2t-1.8-0.6q-0.9-0.4-1.5-1t-0.6-1.6q0-0.8 0.6-1.5t1.5-1.1q0.9-0.4 1.8-0.5t1.7-0.2q1.8 0 3.3 0.7v-16.8q0-0.6 0.3-1t0.9-0.6l14.4-4.5q0.2 0 0.5 0 0.7 0 1.2 0.4t0.5 1.2z"></path></svg>