<?xml version="1.0"?><svg xmlns="http://www.w3.org/2000/svg" width="40" height="40" viewBox="0 0 40 40"><path d="m32.85714285714286 12.857142857142858q0 4.9328571428571415-3.2928571428571445 8.582857142857144t-8.135714285714286 4.185714285714283v13.66q0 0.3142857142857167-0.1999999999999993 0.5142857142857125t-0.514285714285716 0.20000000000000284h-1.428571428571427q-0.31428571428571317 0-0.514285714285716-0.20000000000000284t-0.1999999999999993-0.5142857142857125v-13.66q-4.842857142857143-0.5357142857142847-8.135714285714286-4.185714285714287t-3.2928571428571436-8.58285714285714q0-2.611428571428572 1.0142857142857151-4.988571428571428t2.747142857142858-4.107142857142858 4.107142857142854-2.7471428571428573 4.988571428571429-1.0142857142857142 4.988571428571429 1.0142857142857142 4.107142857142858 2.7471428571428573 2.7457142857142856 4.107142857142858 1.0157142857142887 4.988571428571428z m-12.857142857142858 10q4.12857142857143 0 7.064285714285713-2.935714285714287t2.9357142857142833-7.064285714285713-2.935714285714287-7.064285714285715-7.064285714285713-2.9357142857142855-7.064285714285715 2.9357142857142855-2.935714285714285 7.064285714285715 2.935714285714287 7.064285714285713 7.064285714285713 2.935714285714287z"></path></svg>