<?xml version="1.0"?><svg xmlns="http://www.w3.org/2000/svg" width="40" height="40" viewBox="0 0 40 40"><path d="m20 12.5h-7.5v7.5h7.5v-7.5z m2.5 12.5v2.5h-12.5v-2.5h12.5z m0-15v12.5h-12.5v-12.5h12.5z m12.5 15v2.5h-10v-2.5h10z m0-5v2.5h-10v-2.5h10z m0-5v2.5h-10v-2.5h10z m0-5v2.5h-10v-2.5h10z m-30 18.75v-18.75h-2.5v18.75q0 0.5075000000000003 0.37124999999999986 0.8787500000000001t0.8787500000000001 0.37124999999999986 0.8787500000000001-0.37124999999999986 0.37124999999999986-0.8787500000000001z m32.5 0v-21.25h-30v21.25q0 0.6449999999999996-0.21499999999999986 1.25h28.965q0.5075000000000003 0 0.8787499999999966-0.37124999999999986t0.3712500000000034-0.8787500000000001z m2.5-23.75v23.75q0 1.5625-1.09375 2.65625t-2.65625 1.09375h-32.5q-1.5625 0-2.65625-1.09375t-1.09375-2.65625v-21.25h5v-2.5h35z"></path></svg>