<?xml version="1.0"?><svg viewBox="0 0 40 40" xmlns="http://www.w3.org/2000/svg" height="40" width="40"><path d="m20 11.5h-7.5v7.5h7.5v-7.5z m2.5 12.5v2.5h-12.5v-2.5h12.5z m0-15v12.5h-12.5v-12.5h12.5z m12.5 15v2.5h-10v-2.5h10z m0-5v2.5h-10v-2.5h10z m0-5v2.5h-10v-2.5h10z m0-5v2.5h-10v-2.5h10z m-30 18.7v-18.7h-2.5v18.7q0 0.5 0.4 0.9t0.9 0.4 0.8-0.4 0.4-0.9z m32.5 0v-21.2h-30v21.2q0 0.7-0.2 1.3h29q0.5 0 0.8-0.4t0.4-0.9z m2.5-23.7v23.7q0 1.6-1.1 2.7t-2.6 1.1h-32.5q-1.6 0-2.7-1.1t-1.1-2.7v-21.2h5v-2.5h35z"></path></svg>