<?xml version="1.0"?><svg viewBox="0 0 40 40" xmlns="http://www.w3.org/2000/svg" height="40" width="40"><path d="m40 16.9h-2.2v11.1h2.2v6.7h-6.7v-2.3h-15.5v2.3h-6.7v-6.7h2.2v-2.2h-6.6v2.2h-6.7v-6.7h2.2v-11.1h-2.2v-6.7h6.7v2.3h15.5v-2.3h6.7v6.7h-2.2v2.2h6.6v-2.2h6.7v6.7z m-4.4-4.5v2.3h2.2v-2.3h-2.2z m-11.2-6.6v2.2h2.3v-2.2h-2.3z m-22.2 0v2.2h2.2v-2.2h-2.2z m2.2 20v-2.3h-2.2v2.3h2.2z m22.3-2.3h-2.3v2.3h2.3v-2.3z m-20 0h15.5v-2.2h2.2v-11.1h-2.2v-2.2h-15.5v2.2h-2.3v11.1h2.3v2.2z m8.9 8.9v-2.2h-2.3v2.2h2.3z m22.2 0v-2.2h-2.2v2.2h2.2z m-2.2-4.4v-11.1h-2.3v-2.2h-6.6v6.6h2.2v6.7h-6.7v-2.2h-6.6v2.2h2.2v2.2h15.5v-2.2h2.3z"></path></svg>