<?xml version="1.0"?><svg viewBox="0 0 40 40" xmlns="http://www.w3.org/2000/svg" height="40" width="40"><path d="m35.6 10.2h-2.3v17.8h2.3v6.7h-6.7v-2.3h-22.2v2.3h-6.7v-6.7h2.2v-17.8h-2.2v-6.7h6.7v2.3h22.2v-2.3h6.7v6.7z m-4.5-4.4v2.2h2.2v-2.2h-2.2z m-28.9 0v2.2h2.2v-2.2h-2.2z m2.2 26.6v-2.2h-2.2v2.2h2.2z m24.5-2.2v-2.2h2.2v-17.8h-2.2v-2.2h-22.2v2.2h-2.3v17.8h2.3v2.2h22.2z m4.4 2.2v-2.2h-2.2v2.2h2.2z m-11.1-17.7h6.7v13.3h-15.6v-4.5h-6.6v-13.3h15.5v4.5z m-13.3 6.6h11.1v-8.9h-11.1v8.9z m17.8 4.5v-8.9h-4.5v6.6h-6.6v2.3h11.1z"></path></svg>