<?xml version="1.0"?><svg xmlns="http://www.w3.org/2000/svg" width="40" height="40" viewBox="0 0 40 40"><path d="m23.54857142857143 12.947142857142858q0 1.4714285714285715-1.03857142857143 2.5114285714285707t-2.5100000000000016 1.0414285714285718-2.5142857142857125-1.0385714285714283-1.0371428571428574-2.51 1.03857142857143-2.5114285714285707 2.51285714285714-1.0428571428571427 2.509999999999998 1.0385714285714283 1.03857142857143 2.5114285714285707z m4.777142857142856 8.100000000000001q-0.2228571428571442-0.44571428571428484-0.6257142857142846-0.7142857142857153t-1.0599999999999987-0.21000000000000085-1.3500000000000014 0.6142857142857139q-0.2228571428571442 0.17857142857142705-0.6471428571428568 0.4471428571428575t-1.8085714285714296 0.7142857142857153-2.8342857142857163 0.4442857142857157-2.767142857142858-0.3999999999999986-1.92-0.8042857142857152l-0.6042857142857141-0.4028571428571439q-0.6914285714285722-0.5571428571428569-1.3499999999999996-0.6142857142857139t-1.0600000000000005 0.21142857142856997-0.6257142857142863 0.7142857142857153q-0.4914285714285711 1.0042857142857144-0.042857142857142705 1.662857142857142t1.9414285714285722 1.6442857142857115q1.8528571428571432 1.1828571428571415 5.042857142857143 1.4957142857142856l-1.1371428571428588 1.1600000000000001q-3.171428571428571 3.171428571428571-4.262857142857143 4.242857142857144-0.4914285714285711 0.48999999999999844-0.4914285714285711 1.1714285714285744t0.4914285714285711 1.1714285714285708l0.1999999999999993 0.20000000000000284q0.492857142857142 0.4914285714285711 1.1714285714285708 0.4914285714285711t1.1714285714285708-0.490000000000002l4.2642857142857125-4.262857142857143q2.5428571428571445 2.567142857142855 4.262857142857143 4.262857142857143 0.48999999999999844 0.4914285714285711 1.1714285714285708 0.4914285714285711t1.1714285714285708-0.490000000000002l0.1999999999999993-0.20000000000000284q0.4914285714285711-0.4928571428571402 0.4914285714285711-1.1714285714285708t-0.4914285714285711-1.1714285714285708l-4.262857142857143-4.242857142857144-1.1600000000000001-1.1600000000000001q3.147142857142857-0.31428571428571317 5.022857142857141-1.4957142857142856 1.4957142857142856-0.9828571428571422 1.942857142857143-1.6400000000000006t-0.04571428571428626-1.662857142857142z m-1.0928571428571416-8.1q0-2.991428571428571-2.120000000000001-5.111428571428571t-5.112857142857145-2.1214285714285737-5.1085714285714285 2.1228571428571428-2.1199999999999974 5.11 2.1185714285714283 5.111428571428572 5.109999999999998 2.12142857142857 5.114285714285714-2.120000000000001 2.1185714285714283-5.109999999999999z m9.91-3.661428571428573v21.42857142857143q0 2.6571428571428584-1.8857142857142861 4.5428571428571445t-4.5428571428571445 1.8857142857142861h-21.42857142857143q-2.6571428571428575 0-4.542857142857144-1.8857142857142861t-1.885714285714284-4.5428571428571445v-21.42857142857143q0-2.6571428571428575 1.8857142857142857-4.542857142857144t4.542857142857144-1.885714285714284h21.42857142857143q2.6571428571428584 0 4.5428571428571445 1.8857142857142857t1.8857142857142861 4.542857142857144z"></path></svg>