<?xml version="1.0"?><svg viewBox="0 0 40 40" xmlns="http://www.w3.org/2000/svg" height="40" width="40"><path d="m23.4 12.2q0 1.4-1 2.4t-2.4 1-2.4-1-1-2.4 1-2.3 2.4-1 2.4 1 1 2.3z m4.5 7.7q-0.2-0.4-0.6-0.7t-1-0.2-1.3 0.6q-0.2 0.2-0.6 0.4t-1.7 0.7-2.7 0.4-2.6-0.4-1.8-0.7l-0.6-0.4q-0.7-0.5-1.3-0.6t-1 0.2-0.6 0.7q-0.4 0.9 0 1.6t1.8 1.5q1.8 1.1 4.8 1.4l-1.1 1.1q-3 3-4 4-0.5 0.5-0.5 1.1t0.5 1.1l0.2 0.2q0.4 0.5 1.1 0.5t1.1-0.5l4-4q2.4 2.4 4.1 4 0.4 0.5 1.1 0.5t1.1-0.5l0.2-0.2q0.4-0.4 0.4-1.1t-0.4-1.1l-4.1-4-1.1-1.1q3-0.3 4.8-1.4 1.4-0.9 1.8-1.5t0-1.6z m-1.1-7.7q0-2.8-2-4.8t-4.8-2-4.8 2-2 4.8 2 4.9 4.8 2 4.8-2 2-4.9z m9.4-3.4v20.2q0 2.5-1.8 4.3t-4.3 1.8h-20.2q-2.5 0-4.3-1.8t-1.8-4.3v-20.2q0-2.5 1.8-4.3t4.3-1.8h20.2q2.5 0 4.3 1.8t1.8 4.3z"></path></svg>