<?xml version="1.0"?><svg viewBox="0 0 40 40" xmlns="http://www.w3.org/2000/svg" height="40" width="40"><path d="m19.2 19.1q-4 0-6.8-2.8t-2.8-6.7q0-4 2.8-6.8t6.8-2.8 6.7 2.8 2.8 6.8q0 3.9-2.8 6.7t-6.7 2.8z m0-14.2q-2 0-3.4 1.3t-1.3 3.4q0 1.9 1.3 3.3t3.4 1.4 3.3-1.4 1.4-3.3q0-2-1.4-3.4t-3.3-1.3z m11 15.4q0.3 0.6 0.3 1t-0.1 0.9-0.5 0.8-0.9 0.8-1.3 0.9q-2.5 1.5-6.7 1.9l1.6 1.6 5.6 5.6q0.6 0.6 0.6 1.6t-0.6 1.5l-0.3 0.3q-0.6 0.6-1.5 0.6t-1.6-0.6q-1.4-1.5-5.6-5.7l-5.6 5.7q-0.7 0.6-1.6 0.6t-1.5-0.6l-0.3-0.3q-0.7-0.6-0.7-1.5t0.7-1.6l5.6-5.6 1.6-1.6q-4.3-0.4-6.7-1.9-0.9-0.6-1.3-0.9t-0.9-0.8-0.6-0.8-0.1-0.9 0.3-1q0.2-0.4 0.6-0.7t0.9-0.5 1.2 0 1.4 0.8q0.1 0.1 0.3 0.2t0.9 0.5 1.4 0.7 2 0.5 2.4 0.2q1.9 0 3.6-0.5t2.6-1.1l0.8-0.5q0.7-0.6 1.3-0.8t1.2 0 0.9 0.5 0.6 0.7z"></path></svg>