<?xml version="1.0"?><svg viewBox="0 0 40 40" xmlns="http://www.w3.org/2000/svg" height="40" width="40"><path d="m16.7 17q-2.3 2.3-5.6 2.3t-5.6-2.3q-2.3-2.3-2.3-5.6 0-3.2 2.3-5.6t5.6-2.3q3.3 0 5.6 2.3t2.3 5.6q0 3.3-2.3 5.6z m-2.9-8.3q-1.1-1.2-2.7-1.2t-2.7 1.2q-1.2 1.1-1.2 2.7 0 1.6 1.2 2.8t2.7 1.1q1.6 0 2.7-1.1t1.2-2.8q0-1.6-1.2-2.7z m6.4 11.5q0.2 0.5 0.3 0.9t-0.1 0.7q-0.1 0.3-0.5 0.7t-0.7 0.6q-0.4 0.3-1.1 0.7-2 1.3-5.5 1.7l1.3 1.2 4.6 4.7q0.6 0.5 0.6 1.2t-0.6 1.3l-0.2 0.2q-0.5 0.6-1.3 0.6t-1.2-0.6q-1.2-1.1-4.7-4.6l-4.6 4.6q-0.5 0.6-1.3 0.6t-1.3-0.6l-0.2-0.2q-0.5-0.5-0.5-1.3t0.5-1.2l4.7-4.7 1.2-1.2q-3.5-0.4-5.5-1.7-0.7-0.4-1.1-0.7t-0.7-0.6q-0.3-0.4-0.5-0.7t0-0.7q0-0.4 0.2-0.9 0.2-0.3 0.5-0.6t0.7-0.3q0.5-0.2 1 0t1.1 0.6q0.1 0.1 0.3 0.2t0.8 0.4q0.5 0.3 1.2 0.5t1.5 0.5q1 0.1 2 0.1 1.6 0 3-0.4t2.1-0.9l0.7-0.4q0.5-0.5 1.1-0.6t1 0q0.4 0.1 0.7 0.3t0.5 0.6z"></path></svg>