<?xml version="1.0"?><svg xmlns="http://www.w3.org/2000/svg" width="40" height="40" viewBox="0 0 40 40"><path d="m20 20.245714285714286q-4.1971428571428575 0-7.1657142857142855-2.9685714285714297t-2.968571428571428-7.142857142857142q0-4.1971428571428575 2.968571428571428-7.1657142857142855t7.1657142857142855-2.968571428571428 7.165714285714287 2.9685714285714284 2.9685714285714297 7.1657142857142855q0 4.174285714285714-2.9685714285714297 7.142857142857142t-7.165714285714287 2.9685714285714297z m0-15.11142857142857q-2.0528571428571425 0-3.5142857142857125 1.4614285714285717t-1.4642857142857153 3.5385714285714283q0 2.0528571428571425 1.46142857142857 3.5142857142857142t3.517142857142858 1.4657142857142844 3.5142857142857125-1.4614285714285717 1.4628571428571426-3.5142857142857142q0-2.0771428571428565-1.46142857142857-3.540000000000001t-3.515714285714285-1.4642857142857126z m11.674285714285716 16.338571428571427q0.28999999999999915 0.6042857142857159 0.33428571428571274 1.105714285714285t-0.10000000000000142 0.904285714285713-0.5914285714285725 0.8599999999999994-0.9485714285714302 0.8242857142857147-1.37142857142857 0.9257142857142853q-2.5685714285714276 1.62857142857143-7.032857142857143 2.1000000000000014l1.62857142857143 1.605714285714285 5.96142857142857 5.9571428571428555q0.6714285714285708 0.6928571428571431 0.6714285714285708 1.652857142857144t-0.6714285714285708 1.6285714285714263l-0.2671428571428578 0.29142857142856826q-0.6900000000000013 0.6714285714285708-1.6499999999999986 0.6714285714285708t-1.6514285714285712-0.6714285714285708q-1.4971428571428582-1.5142857142857125-5.9614285714285735-5.981428571428573l-5.959999999999997 5.98142857142858q-0.6928571428571431 0.6714285714285708-1.6499999999999968 0.6714285714285708t-1.6314285714285717-0.6714285714285708l-0.2671428571428578-0.28857142857143003q-0.6899999999999995-0.6714285714285708-0.6899999999999995-1.6285714285714263t0.6914285714285722-1.652857142857144l7.568571428571429-7.565714285714286q-4.531428571428572-0.46857142857142975-7.075714285714287-2.1000000000000014-0.8714285714285719-0.5571428571428569-1.3714285714285719-0.9242857142857162t-0.9499999999999993-0.8257142857142838-0.5914285714285707-0.8614285714285721-0.09999999999999964-0.904285714285713 0.3342857142857145-1.1042857142857159q0.22285714285714242-0.44571428571428484 0.6257142857142863-0.7800000000000011t0.9371428571428577-0.4914285714285711 1.25 0.04285714285714448 1.4499999999999993 0.7828571428571429q0.1114285714285721 0.08999999999999986 0.3342857142857145 0.24571428571428555t0.9571428571428573 0.5471428571428589 1.5428571428571427 0.6814285714285724 2.0514285714285716 0.5357142857142847 2.5228571428571414 0.24571428571428555q2.0314285714285703 0 3.885714285714286-0.5685714285714276t2.677142857142858-1.12857142857143l0.8485714285714288-0.5571428571428569q0.7371428571428567-0.581428571428571 1.451428571428572-0.7828571428571429t1.25-0.04285714285714448 0.9385714285714286 0.48999999999999844 0.6257142857142846 0.7814285714285703z"></path></svg>