<?xml version="1.0"?><svg viewBox="0 0 40 40" xmlns="http://www.w3.org/2000/svg" height="40" width="40"><path d="m26.5 30.6q0 1.2-0.9 2.1t-2 0.8-2-0.8-0.9-2.1 0.9-2 2-0.8 2 0.8 0.9 2z m-13 0q0 1.2-0.9 2.1t-2 0.8-2-0.8-0.9-2.1 0.9-2 2-0.8 2 0.8 0.9 2z m-13.5-25.9q1 1 1.9 1.8t2.1 1.4 2.4 1.1 2.9 0.8 3.4 0.6 4.4 0.3 5.2 0.2 6.5 0q2.4 0 4.3 0.1t3.1 0.3 2.2 0.5 1.2 0.6 0.4 0.9-0.3 1.1-1 1.4-1.6 1.6-2 1.8-2.4 2q-3.2 2.8-5 4.3 0.5-0.9 1.4-1.9t1.6-1.8 1.6-1.7 1.5-1.6 0.9-1.4 0.2-1.2-0.7-1-2.1-0.7-3.5-0.4-5.3-0.1q-2.9 0.1-5.4-0.1t-4.5-0.4-3.5-0.7-2.8-0.9-2.1-1.1-1.6-1.1-1.2-1.3-0.9-1.2-0.7-1.2-0.6-1z"></path></svg>