<?xml version="1.0"?><svg viewBox="0 0 40 40" xmlns="http://www.w3.org/2000/svg" height="40" width="40"><path d="m25.6 28.6q0.9 0.9 0.9 2t-0.9 2.1q-0.8 0.8-2 0.8t-2-0.8q-0.9-0.9-0.9-2.1t0.9-2q0.8-0.8 2-0.8t2 0.8z m-13 0q0.9 0.9 0.9 2t-0.9 2.1q-0.8 0.8-2 0.8t-2-0.8q-0.9-0.9-0.9-2.1t0.9-2q0.8-0.8 2-0.8t2 0.8z m-12.6-23.9q1 1 1.9 1.8t2.1 1.4q1.2 0.7 2.4 1.1t2.9 0.8q1.7 0.4 3.4 0.6t4.4 0.3q2.5 0.1 5.2 0.2t6.5 0q2.4 0 4.3 0.1t3.1 0.3q1.3 0.2 2.2 0.5t1.2 0.6q0.4 0.4 0.4 0.9t-0.3 1.1q-0.4 0.7-1 1.4t-1.6 1.6q-0.9 0.8-2 1.8t-2.4 2q-3.2 2.8-5 4.3 0.5-0.9 1.4-1.9t1.6-1.8q0.8-0.8 1.6-1.7t1.5-1.6q0.6-0.7 0.9-1.4t0.2-1.2q-0.1-0.5-0.7-1t-2.1-0.7q-1.3-0.3-3.5-0.4t-5.3-0.1q-2.9 0.1-5.4-0.1t-4.5-0.4q-1.9-0.2-3.5-0.7t-2.8-0.9q-1.1-0.4-2.1-1.1t-1.6-1.1q-0.6-0.5-1.2-1.3t-0.9-1.2q-0.3-0.5-0.7-1.2t-0.6-1z"></path></svg>