<svg viewBox="0 0 2296 1896.0833" xmlns="http://www.w3.org/2000/svg"><path d="m478 1675q-8 16-27 34.5t-37 25.5q-25 9-51.5-3.5t-28.5-31.5q-1-22 40-55t68-38q23-4 34 21.5t2 46.5z m1341 0q7 16 26 34.5t38 25.5q25 9 51.5-3.5t27.5-31.5q2-22-39.5-55t-68.5-38q-22-4-33 21.5t-2 46.5z m48-109q13 27 56.5 59.5t77.5 41.5q45 13 82-4.5t37-50.5q0-46-67.5-100.5t-115.5-59.5q-40-5-63.5 37.5t-6.5 76.5z m-1439 0q-13 27-56 59.5t-77 41.5q-45 13-82-4.5t-37-50.5q0-46 67.5-100.5t115.5-59.5q40-5 63 37.5t6 76.5z m730-1124h1q-41 0-76 15 27 8 44 30.5t17 49.5q0 35-27 60t-65 25q-52 0-80-43-5 23-5 42 0 74 56 126.5t135 52.5q80 0 136-52.5t56-126.5-56-126.5-136-52.5z m304-218q-99-109-220.5-131.5t-245.5 44.5q27-60 82.5-96.5t118-39.5 121.5 17 99.5 74.5 44.5 131.5z m750 1239q8 11-11 42 7 23 7 40 1 56-44.5 112.5t-109.5 91.5-118 37q-48 2-92-21.5t-66-65.5q-687 25-1259 0-23 41-66.5 65t-92.5 22q-86-3-179.5-80.5t-92.5-160.5q2-22 7-40-19-31-11-42 6-10 31-1 14-22 41-51-7-29 2-38 11-10 39 4 29-20 59-34 0-29 13-37 23-12 51 16 35-5 61 2 18 4 38 19v-73q-11 0-18-2-53-10-97-44.5t-55-87.5q-9-38 0-81 15-62 93-95 2-17 19-35.5t36-23.5 33 7.5 19 30.5h13q46 5 60 23 3 3 5 7 10-1 30.5-3.5t30.5-3.5q-15-11-30-17-23-40-91-43 0-6 1-10-62-2-118.5-18.5t-84.5-47.5q-32-36-42.5-92t-2.5-112q16-126 90-179 23-16 52-4.5t32 40.5q0 1 1.5 14t2.5 21 3 20 5.5 19 8.5 10q27 14 76 12 48-46 98-74-40-4-162 14l47-46q61-58 163-111 145-73 282-86-20-8-41-15.5t-47-14-42.5-10.5-47.5-11-43-10q595-126 904 139 98 84 158 222 85 10 121-9h1q5-3 8.5-10t5.5-19 3-19.5 3-21.5l1-14q3-28 32-40t52 5q73 52 91 178 7 57-3.5 113t-42.5 91q-28 32-83.5 48.5t-115.5 18.5v10q-71 2-95 43-14 5-31 17 11 1 32 3.5t30 3.5q1-4 5-8 16-18 60-23h13q5-18 19-30t33-8 36 23 19 36q79 32 93 95 9 40 1 81-12 53-56 88t-97 44q-10 2-17 2 0 49-1 73 20-15 38-19 26-7 61-2 28-28 51-16 14 9 14 37 33 16 59 34 27-13 38-4 10 10 2 38 28 30 41 51 23-8 31 1z m-275-952q0 29-9 54 82 32 112 132 4-37-9.5-98.5t-41.5-90.5q-20-19-36-17t-16 20z m-78 100q35 42 47.5 108.5t-0.5 124.5q67-13 97-45 13-14 18-28-3-64-31-114.5t-79-66.5q-15 15-52 21z m-37 4q-30 0-44-1 42 115 53 239 21 0 43-3 16-68 1-135t-53-100z m-1564 82q30-100 112-132-9-25-9-54 0-18-16.5-20t-35.5 17q-28 29-41.5 90.5t-9.5 98.5z m36 102q29 31 97 45-13-58-0.5-124.5t47.5-108.5v0q-37-6-52-21-51 16-78.5 66t-31.5 115q9 17 18 28z m177 54q14-124 73-235-19 4-55 18l-45 19v-1q-46 89-20 196 25 3 47 3z m963 39q8 38 16.5 108.5t11.5 89.5q3 18 9.5 21.5t23.5-4.5q40-20 62-85.5t23-125.5q-24-2-146-4z m-282-641q-116 0-199 82.5t-83 198.5q0 117 83 199.5t199 82.5 199-82.5 83-199.5q0-116-83-198.5t-199-82.5z m228 639q-106-2-211 0v-1q-1 27 2.5 86t13.5 66q29 14 93.5 14.5t95.5-10.5q9-3 11-39t-0.5-69.5-4.5-46.5z m-268 199q8-4 9.5-48t-0.5-88-4-63v-1q-212 3-214 3-4 20-7 62t0 83 14 46q34 15 101 16t101-10z m-394-189q-16 59 4.5 118.5t77.5 84.5q15 8 24 5t12-21q3-16 8-90t10-103q-69 2-136 6z m-127 126q3 23-34 36 132 141 271.5 240t305.5 154q172-49 310.5-146t293.5-250q-33-13-30-34l3-9v-1 1q-17-2-50-5.5t-48-4.5q-26 90-82 132-51 38-82-1-5-6-9-14-7-13-17-62-2 5-5 9t-7.5 7-8 5.5-9.5 4l-10 2.5t-12 2l-12 1.5t-13.5 1-13.5 0.5q-106 9-163-11-4 17-10 26.5t-21 15-23 7-36 3.5q-2 0-3 0.5t-3 0.5h-3q-179 17-203-40-2 63-56 54-47-8-91-54-12-13-20-26-17-29-26-65-58 6-87 10 1 2 4 10z m-84 628q3-14 3-30-17-71-51-130t-73-70q-41-12-101.5 14.5t-104.5 80-39 107.5q35 53 100 93t119 42q51 2 94-28t53-79z m3-171q23 63 27 119 195-113 392-174-98-52-180.5-120t-179.5-165q-6 4-29 13 0 2-1 5t-1 4q31 18 22 37-12 23-56 34-10 13-29 24h-1q-2 83 1 150 19 34 35 73z m69 166q532 21 1145 0-254-147-428-196-76 35-156 57-8 3-16 0-65-21-129-49-208 60-416 188h-1v1q1 0 1-1z m1184-46q4-54 28-120 14-38 33-71l-1 1q3-77 3-153-15-8-30-25-42-9-56-33-9-20 22-38-2-4-2-9-16-4-28-12-204 190-383 284 198 59 414 176z m392 23q5-54-39-107.5t-104-80-102-14.5q-38 11-72.5 70.5t-51.5 129.5q0 16 3 30 10 49 53 79t94 28q54-2 119-42t100-93z"/></svg>