<?xml version="1.0"?><svg xmlns="http://www.w3.org/2000/svg" width="40" height="40" viewBox="0 0 40 40"><path d="m8.3 33.52444444444445q-0.14000000000000057 0.27777777777777857-0.46999999999999975 0.6000000000000014t-0.6422222222222222 0.44111111111111256q-0.43555555555555525 0.15555555555555856-0.8955555555555552-0.06222222222222484t-0.49444444444444446-0.5466666666666669q-0.018888888888889177-0.3822222222222251 0.6933333333333334-0.9555555555555557t1.1800000000000006-0.6588888888888889q0.40000000000000036-0.07111111111110802 0.5888888888888886 0.37222222222222t0.035555555555555785 0.8077777777777797z m23.280000000000005 0q0.12222222222222356 0.27777777777777857 0.4511111111111106 0.6000000000000014t0.6599999999999966 0.44111111111111256q0.43333333333333 0.15555555555555856 0.8944444444444457-0.06222222222222484t0.4777777777777743-0.5466666666666669q0.03333333333333144-0.3822222222222251-0.6855555555555526-0.9555555555555557t-1.18888888888889-0.6588888888888889q-0.3822222222222216-0.07111111111110802-0.5733333333333341 0.37222222222222t-0.03333333333333499 0.8077777777777797z m0.8333333333333357-1.8922222222222231q0.22555555555555884 0.46666666666666856 0.9811111111111117 1.0333333333333314t1.3444444444444414 0.7188888888888911q0.7822222222222237 0.22555555555555884 1.4244444444444468-0.07777777777777573t0.6422222222222231-0.87777777777778q0-0.7977777777777781-1.1722222222222243-1.7444444444444436t-2.005555555555553-1.033333333333335q-0.6944444444444429-0.08555555555555472-1.102222222222224 0.6522222222222211t-0.11333333333333684 1.3277777777777793z m-24.983333333333334 0q-0.2255555555555553 0.46666666666666856-0.9722222222222223 1.0333333333333314t-1.336666666666667 0.7188888888888911q-0.7822222222222219 0.22555555555555884-1.4244444444444446-0.07777777777777573t-0.6422222222222222-0.87777777777778q0-0.7977777777777781 1.172222222222222-1.7444444444444436t2.0055555555555555-1.033333333333335q0.6944444444444446-0.08555555555555472 1.0933333333333337 0.6522222222222211t0.10444444444444478 1.3277777777777793z m12.67444444444444-19.515555555555558h0.017777777777777004q-0.7111111111111121 1.7763568394002505e-15-1.3200000000000003 0.26000000000000156 0.4688888888888876 0.13888888888888928 0.7644444444444431 0.5299999999999994t0.29555555555555557 0.8588888888888881q0 0.6077777777777786-0.4688888888888876 1.0422222222222217t-1.1288888888888877 0.43333333333333357q-0.9022222222222211 0-1.3888888888888893-0.7444444444444454-0.086666666666666 0.3977777777777778-0.086666666666666 0.7277777777777779 0 1.2844444444444463 0.9722222222222214 2.1966666666666654t2.344444444444445 0.9111111111111114q1.3888888888888893 0 2.3599999999999994-0.9111111111111114t0.9711111111111101-2.196666666666667-0.9722222222222214-2.196666666666667-2.362222222222222-0.9111111111111114z m5.277777777777779-3.7844444444444427q-1.7188888888888911-1.8911111111111136-3.8266666666666715-2.2822222222222237t-4.263333333333332 0.7722222222222221q0.4688888888888876-1.0422222222222217 1.4333333333333336-1.6755555555555555t2.047777777777778-0.6855555555555553 2.108888888888888 0.29555555555555557 1.7277777777777779 1.2944444444444443 0.7711111111111109 2.283333333333333z m13.022222222222226 21.511111111111113q0.137777777777778 0.18888888888889-0.1922222222222203 0.7277777777777779 0.12222222222222001 0.3999999999999986 0.12222222222222001 0.6944444444444429 0.017777777777780557 0.9722222222222214-0.7722222222222257 1.9533333333333331t-1.8999999999999986 1.5888888888888886-2.049999999999997 0.6422222222222231q-0.8333333333333357 0.03333333333333144-1.596666666666664-0.37333333333333485t-1.1444444444444457-1.1366666666666703q-11.927777777777777 0.43333333333333-21.858888888888888 0-0.40000000000000036 0.7111111111111086-1.155555555555556 1.1288888888888877t-1.6044444444444448 0.3822222222222251q-1.4944444444444525-0.051111111111111995-3.1188888888888973-1.3955555555555534t-1.6044444444444446-2.788888888888888q0.03333333333333344-0.3811111111111103 0.12222222222222223-0.6933333333333316-0.33111111111111113-0.5377777777777766-0.1922222222222223-0.7288888888888891 0.10444444444444434-0.173333333333332 0.5377777777777779-0.017777777777777004 0.24444444444444446-0.3822222222222216 0.7111111111111112-0.8855555555555554-0.1200000000000001-0.5033333333333339 0.03555555555555534-0.6600000000000001 0.1888888888888891-0.173333333333332 0.6755555555555555 0.07000000000000028 0.5033333333333334-0.34777777777777885 1.0244444444444447-0.5888888888888886 0-0.5044444444444451 0.2255555555555553-0.6444444444444457 0.40000000000000036-0.206666666666667 0.8855555555555554 0.27777777777777857 0.6077777777777778-0.08555555555555472 1.0588888888888892 0.03555555555555401 0.3111111111111109 0.07000000000000028 0.6600000000000001 0.3299999999999983v-1.2666666666666657q-0.1911111111111108 0-0.3111111111111109-0.03555555555555401-0.9222222222222225-0.173333333333332-1.6855555555555553-0.7722222222222221t-0.9555555555555557-1.5188888888888883q-0.1555555555555559-0.6588888888888889 0-1.405555555555555 0.26111111111111107-1.0777777777777793 1.6155555555555559-1.6488888888888873 0.033333333333333215-0.2944444444444443 0.33000000000000007-0.6155555555555559t0.6255555555555556-0.4077777777777776 0.5733333333333333 0.12888888888888772 0.3288888888888888 0.5300000000000011h0.22555555555555618q0.7977777777777781 0.086666666666666 1.0411111111111122 0.3999999999999986 0.052222222222221504 0.051111111111111995 0.086666666666666 0.120000000000001 0.17333333333333378-0.01666666666666572 0.5299999999999994-0.05999999999999872t0.5299999999999994-0.061111111111110006q-0.26111111111111107-0.18888888888889-0.5222222222222221-0.2944444444444443-0.40000000000000036-0.6944444444444429-1.58-0.7466666666666661 0-0.10444444444444301 0.017777777777777004-0.173333333333332-1.0777777777777775-0.03333333333333499-2.057777777777778-0.32222222222222285t-1.4666666666666668-0.8222222222222229q-0.5555555555555554-0.6255555555555539-0.7377777777777776-1.5977777777777789t-0.04444444444444429-1.9444444444444446q0.2777777777777777-2.188888888888888 1.5633333333333335-3.10888888888889 0.40000000000000036-0.27777777777777857 0.902222222222222-0.0777777777777775t0.5555555555555554 0.7033333333333331q0 0.017777777777777004 0.025555555555555998 0.24444444444444535t0.04444444444444429 0.3633333333333333 0.05111111111111111 0.3477777777777771 0.0955555555555554 0.33000000000000007 0.14777777777777779 0.17333333333333378q0.46888888888888935 0.24444444444444535 1.3200000000000003 0.20777777777777828 0.8333333333333339-0.8000000000000007 1.6999999999999993-1.2844444444444445-0.6933333333333334-0.07111111111111157-2.811111111111111 0.24222222222222278l0.815555555555556-0.8000000000000007q1.0588888888888892-1.0055555555555546 2.83-1.9255555555555564 2.517777777777779-1.2666666666666657 4.895555555555555-1.493333333333334-0.3477777777777771-0.137777777777778-0.7111111111111104-0.2666666666666675t-0.8166666666666664-0.24444444444444358-0.7377777777777776-0.18222222222222229-0.8222222222222229-0.1911111111111108-0.7477777777777774-0.17333333333333378q10.330000000000002-2.188888888888889 15.694444444444443 2.413333333333334 1.6999999999999993 1.4588888888888896 2.7444444444444436 3.855555555555556 1.4744444444444476 0.1722222222222225 2.099999999999998-0.15777777777777757h0.017777777777780557q0.086666666666666-0.052222222222221504 0.147777777777776-0.17333333333333378t0.09666666666666401-0.33000000000000007 0.05222222222221973-0.3388888888888886 0.05222222222221973-0.3733333333333331l0.01888888888888829-0.24444444444444358q0.05222222222221973-0.4855555555555551 0.5555555555555571-0.6933333333333334t0.9022222222222211 0.086666666666666q1.2666666666666657 0.9022222222222229 1.5777777777777757 3.0888888888888886 0.12222222222222001 0.9911111111111115-0.060000000000002274 1.963333333333333t-0.7377777777777794 1.5799999999999983q-0.4866666666666646 0.5555555555555571-1.4500000000000028 0.8422222222222224t-2.0055555555555564 0.32222222222222285v0.17222222222222072q-1.2333333333333343 0.03333333333333499-1.6488888888888873 0.7466666666666661-0.24444444444444358 0.086666666666666-0.5377777777777766 0.29555555555555557 0.19111111111111256 0.017777777777777004 0.5555555555555571 0.061111111111110006t0.5222222222222221 0.061111111111110006q0.01666666666666572-0.07000000000000028 0.08555555555555472-0.13888888888888928 0.27777777777777857-0.31111111111111 1.0444444444444443-0.3999999999999986h0.224444444444444q0.086666666666666-0.31111111111111 0.3299999999999983-0.5199999999999996t0.5722222222222229-0.13888888888888928 0.6244444444444426 0.3999999999999986 0.3299999999999983 0.6222222222222236q1.3711111111111123 0.5555555555555571 1.6144444444444446 1.6499999999999986 0.15555555555555856 0.6944444444444429 0.017777777777780557 1.4066666666666663-0.20777777777777828 0.9222222222222207-0.9722222222222214 1.5288888888888899t-1.6844444444444449 0.7644444444444431q-0.173333333333332 0.03333333333333499-0.295555555555552 0.03333333333333499 0 0.852222222222224-0.017777777777780557 1.2688888888888883 0.34777777777777885-0.26000000000000156 0.6599999999999966-0.3299999999999983 0.4511111111111106-0.12222222222222356 1.0588888888888874-0.03555555555555401 0.4866666666666646-0.48666666666666814 0.8855555555555554-0.27777777777777857 0.24444444444444713 0.155555555555555 0.24444444444444713 0.6422222222222231 0.5722222222222229 0.27777777777777857 1.0222222222222257 0.5888888888888886 0.46999999999999886-0.224444444444444 0.6611111111111114-0.068888888888889 0.17222222222222427 0.173333333333332 0.03333333333333144 0.6600000000000001 0.4866666666666646 0.5222222222222221 0.7111111111111086 0.8855555555555554 0.3999999999999986-0.13888888888888928 0.5388888888888914 0.017777777777777004z m-4.776666666666671-16.528888888888893q0 0.5033333333333356-0.15555555555555856 0.9377777777777787 1.4222222222222243 0.5555555555555554 1.9444444444444429 2.2922222222222217 0.06888888888888545-0.6411111111111119-0.1666666666666643-1.7088888888888896t-0.7188888888888911-1.5711111111111116q-0.3488888888888866-0.33000000000000007-0.6255555555555574-0.29555555555555557t-0.27777777777777857 0.3477777777777771z m-1.3555555555555543 1.7366666666666681q0.6088888888888917 0.7288888888888891 0.8255555555555532 1.8833333333333329t-0.011111111111112848 2.1611111111111114q1.1644444444444417-0.2255555555555553 1.6855555555555526-0.7811111111111124 0.22555555555555884-0.24444444444444358 0.31111111111111-0.48666666666666814-0.051111111111111995-1.1111111111111107-0.5366666666666688-1.988888888888889t-1.3688888888888826-1.1499999999999968q-0.259999999999998 0.2599999999999998-0.9022222222222211 0.36444444444444457z m-0.6411111111111119 0.068888888888889q-0.5222222222222221 0-0.7666666666666657-0.01888888888888829 0.7300000000000004 1.9966666666666661 0.9222222222222207 4.148888888888887 0.36333333333333684 0 0.7444444444444471-0.05222222222222328 0.27777777777777857-1.1799999999999997 0.01888888888888829-2.344444444444445t-0.9166666666666714-1.73111111111111z m-27.153333333333336 1.4244444444444433q0.5222222222222221-1.7333333333333325 1.9444444444444446-2.288888888888888-0.1555555555555559-0.43333333333333357-0.1555555555555559-0.9377777777777787 0-0.3111111111111118-0.28666666666666707-0.3477777777777771t-0.6166666666666663 0.29666666666666686q-0.48555555555555596 0.5-0.7188888888888894 1.5666666666666664t-0.16666666666666696 1.7111111111111104z m0.6266666666666669 1.7711111111111109q0.5033333333333339 0.5377777777777766 1.6844444444444449 0.7811111111111124-0.2255555555555553-1.0066666666666677-0.008888888888888502-2.1611111111111114t0.8244444444444445-1.8833333333333329q-0.6422222222222222-0.10444444444444478-0.902222222222222-0.36444444444444457-0.8855555555555554 0.27777777777777857-1.3633333333333333 1.144444444444444t-0.5466666666666669 1.996666666666668q0.1555555555555559 0.29555555555555557 0.3111111111111109 0.48666666666666814z m3.072222222222223 0.9377777777777787q0.24222222222222278-2.152222222222221 1.2666666666666675-4.08-0.33000000000000007 0.07000000000000028-0.9555555555555557 0.3111111111111118l-0.7800000000000002 0.33111111111111136v-0.017777777777777004q-0.7999999999999998 1.544444444444446-0.34777777777777796 3.403333333333334 0.43333333333333357 0.053333333333334565 0.8155555555555551 0.053333333333334565z m16.717777777777776 0.6777777777777771q0.13888888888888928 0.6588888888888889 0.2866666666666653 1.8822222222222216t0.1999999999999993 1.5533333333333346q0.05222222222222328 0.31111111111111 0.16444444444444528 0.37333333333333485t0.4077777777777776-0.07777777777777928q0.6933333333333351-0.34777777777777885 1.0755555555555567-1.4844444444444456t0.3999999999999986-2.177777777777777q-0.41777777777777914-0.03555555555555401-2.5355555555555576-0.07111111111111157z m-4.894444444444446-11.13111111111111q-2.014444444444443 0-3.4555555555555557 1.4333333333333336t-1.4399999999999995 3.4444444444444446q0 2.033333333333333 1.4411111111111108 3.464444444444444t3.4544444444444444 1.4355555555555526 3.4555555555555557-1.4333333333333336 1.4400000000000013-3.463333333333333q0-2.014444444444445-1.4411111111111126-3.446666666666667t-3.4544444444444444-1.4311111111111074z m3.9577777777777783 11.093333333333334q-1.8399999999999999-0.03333333333333499-3.663333333333334 0v-0.017777777777777004q-0.017777777777777004 0.4688888888888876 0.04444444444444429 1.4933333333333323t0.23333333333333428 1.1444444444444457q0.5033333333333339 0.24444444444444358 1.6222222222222236 0.25333333333333385t1.6588888888888889-0.18222222222222229q0.155555555555555-0.05222222222222328 0.19111111111111256-0.6777777777777771t-0.008888888888890278-1.2055555555555557-0.07777777777777928-0.8077777777777762z m-4.652222222222221 3.4555555555555557q0.13888888888888928-0.07000000000000028 0.16444444444444528-0.8333333333333321t-0.008888888888890278-1.5277777777777786-0.07000000000000028-1.0922222222222224v-0.017777777777777004l-3.7155555555555555 0.053333333333334565q-0.07000000000000028 0.34777777777777885-0.12222222222222179 1.0777777777777793t0 1.4400000000000013 0.24444444444444358 0.8000000000000007q0.5888888888888886 0.2588888888888903 1.7533333333333339 0.27777777777777857t1.7533333333333339-0.1744444444444433z m-6.84-3.2811111111111124q-0.27777777777777857 1.0244444444444447 0.0777777777777775 2.0577777777777797t1.344444444444445 1.4666666666666686q0.2599999999999998 0.13888888888888928 0.4166666666666661 0.086666666666666t0.20777777777777828-0.36444444444444457q0.052222222222221504-0.27777777777777857 0.13888888888888928-1.5622222222222213t0.17333333333333378-1.7888888888888879q-1.1977777777777785 0.03333333333333499-2.3611111111111107 0.10444444444444301z m-2.206666666666667 2.1877777777777787q0.052222222222221504 0.3999999999999986-0.5888888888888886 0.6255555555555539 2.2911111111111104 2.4477777777777767 4.711111111111112 4.166666666666668t5.304444444444446 2.6733333333333356q2.986666666666668-0.852222222222224 5.391111111111112-2.535555555555554t5.095555555555556-4.34q-0.5733333333333341-0.2255555555555553-0.5222222222222221-0.5888888888888886l0.053333333333334565-0.15777777777777757q-0.29555555555555557-0.03333333333333499-0.8666666666666671-0.09555555555555628t-0.8333333333333321-0.07777777777777928q-0.45222222222222186 1.5622222222222213-1.4244444444444433 2.2922222222222217-0.8855555555555554 0.6600000000000001-1.4222222222222207-0.017777777777777004-0.08888888888888857-0.10333333333333172-0.15777777777777757-0.242222222222221-0.12222222222222356-0.2255555555555553-0.29555555555555557-1.0777777777777793-0.03333333333333499 0.08888888888888857-0.086666666666666 0.15777777777777757t-0.129999999999999 0.12222222222222356-0.14000000000000057 0.094444444444445-0.16444444444444528 0.068888888888889l-0.173333333333332 0.04444444444444429-0.20777777777777828 0.03333333333333499-0.20777777777777828 0.025555555555555998-0.23333333333333428 0.017777777777777004-0.23555555555555685 0.011111111111112848q-1.8399999999999999 0.155555555555555-2.830000000000002-0.19222222222222385-0.07000000000000028 0.29555555555555557-0.173333333333332 0.46000000000000085t-0.3633333333333333 0.26111111111111285-0.3999999999999986 0.12222222222222356-0.6222222222222236 0.05999999999999872q-0.03555555555555401 0-0.053333333333334565 0.007777777777778994t-0.05222222222222328 0.008888888888890278h-0.05222222222222328q-3.1066666666666656 0.29555555555555557-3.522222222222222-0.6944444444444429-0.035555555555555785 1.0933333333333337-0.9733333333333327 0.9377777777777787-0.8155555555555551-0.13888888888888928-1.58-0.9377777777777787-0.20777777777777828-0.2255555555555553-0.3477777777777771-0.4511111111111106-0.29666666666666686-0.5033333333333339-0.45222222222222186-1.1288888888888877-1.0066666666666677 0.10444444444444301-1.511111111111111 0.173333333333332 0.01888888888888829 0.03333333333333499 0.07111111111111157 0.173333333333332z m-1.4577777777777783 10.904444444444447q0.052222222222221504-0.24444444444444713 0.052222222222221504-0.5222222222222257-0.29666666666666686-1.2311111111111117-0.8866666666666667-2.2555555555555564t-1.2666666666666666-1.2155555555555573q-0.7133333333333338-0.20777777777777828-1.7633333333333336 0.25222222222222257t-1.8144444444444447 1.3888888888888893-0.677777777777778 1.8666666666666636q0.608888888888889 0.9200000000000017 1.7377777777777776 1.6144444444444446t2.0666666666666673 0.7288888888888891q0.8844444444444441 0.03333333333333144 1.6311111111111112-0.4866666666666646t0.9200000000000008-1.3711111111111123z m0.052222222222221504-2.968888888888891q0.3977777777777778 1.0933333333333337 0.4666666666666668 2.06666666666667 3.3866666666666667-1.9633333333333347 6.806666666666668-3.022222222222222-1.6999999999999993-0.9022222222222211-3.133333333333333-2.083333333333332t-3.1155555555555576-2.8633333333333404q-0.1033333333333335 0.068888888888889-0.5022222222222226 0.224444444444444 0 0.03333333333333499-0.017777777777777004 0.086666666666666t-0.017777777777777004 0.07000000000000028q0.5377777777777784 0.31111111111111 0.3822222222222216 0.6422222222222231-0.20777777777777828 0.3999999999999986-0.9722222222222232 0.5911111111111111-0.17333333333333378 0.2255555555555553-0.5033333333333339 0.41666666666666785h-0.017777777777777004q-0.033333333333333215 1.4411111111111126 0.017777777777777004 2.604444444444443 0.33000000000000007 0.5911111111111111 0.6077777777777786 1.2688888888888883z m1.1966666666666672 2.882222222222225q9.235555555555553 0.36444444444444457 19.87777777777778 0-4.408888888888889-2.5522222222222233-7.428888888888888-3.4033333333333324-1.318888888888889 0.6077777777777769-2.7077777777777783 0.9888888888888907-0.13888888888888928 0.053333333333334565-0.27777777777777857 0-1.1288888888888877-0.3633333333333333-2.240000000000002-0.8500000000000014-3.6111111111111107 1.0422222222222217-7.222222222222221 3.264444444444443h-0.01777777777777878v0.017777777777780557q0.01888888888888829 0 0.01888888888888829-0.017777777777780557z m20.555555555555557-0.7999999999999972q0.07000000000000028-0.9366666666666674 0.48666666666666814-2.082222222222221 0.24444444444444358-0.6600000000000001 0.5733333333333341-1.2333333333333343l-0.01666666666666572 0.01888888888888829q0.05222222222222328-1.3377777777777773 0.05222222222222328-2.6577777777777776-0.26000000000000156-0.13888888888888928-0.5222222222222221-0.43333333333333357-0.7277777777777779-0.15777777777777757-0.9711111111111101-0.5744444444444454-0.155555555555555-0.34666666666666757 0.3822222222222216-0.6588888888888889-0.03333333333333499-0.07000000000000028-0.03333333333333499-0.155555555555555-0.27777777777777857-0.07111111111111157-0.48888888888888715-0.20888888888888957-3.539999999999999 3.297777777777778-6.647777777777776 4.93 3.4366666666666674 1.0244444444444447 7.186666666666667 3.055555555555557z m6.805555555555554 0.3999999999999986q0.086666666666666-0.9377777777777787-0.6777777777777771-1.8666666666666671t-1.8044444444444423-1.3888888888888893-1.7711111111111109-0.25222222222222257q-0.6599999999999966 0.18888888888889-1.2588888888888903 1.2222222222222214t-0.8933333333333344 2.2488888888888887q0 0.27777777777777857 0.05222222222222328 0.5222222222222257 0.173333333333332 0.8500000000000014 0.9200000000000017 1.3699999999999974t1.6333333333333329 0.4866666666666646q0.9377777777777752-0.03333333333333144 2.06666666666667-0.7288888888888891t1.7355555555555569-1.6155555555555523z"></path></svg>