<?xml version="1.0"?><svg viewBox="0 0 40 40" xmlns="http://www.w3.org/2000/svg" height="40" width="40"><path d="m6.7 13v10q0 0.1999999999999993-0.20000000000000018 0.3999999999999986t-0.40000000000000036 0.10000000000000142q-0.20000000000000018 0-0.40000000000000036-0.10000000000000142l-5-5q-0.09999999999999998-0.1999999999999993-0.09999999999999998-0.3999999999999986t0.09999999999999998-0.3999999999999986l5-5q0.20000000000000018-0.1999999999999993 0.40000000000000036-0.1999999999999993t0.40000000000000036 0.1999999999999993 0.20000000000000018 0.40000000000000036z m24.4 13.3v3.3999999999999986q0 0.1999999999999993-0.1999999999999993 0.3000000000000007t-0.3000000000000007 0.1999999999999993h-29.999999999999996q-0.30000000000000143 0-0.40000000000000147-0.1999999999999993t-0.2-0.3000000000000007v-3.3999999999999986q0-0.1999999999999993 0.2-0.3999999999999986t0.4-0.10000000000000142h30q0.1999999999999993 0 0.3000000000000007 0.10000000000000142t0.1999999999999993 0.3999999999999986z m0-6.599999999999998v3.299999999999997q0 0.1999999999999993-0.1999999999999993 0.3999999999999986t-0.3000000000000007 0.10000000000000142h-18.9q-0.3000000000000007 0-0.40000000000000036-0.10000000000000142t-0.1999999999999993-0.3999999999999986v-3.3000000000000007q0-0.3000000000000007 0.1999999999999993-0.3999999999999986t0.40000000000000036-0.1999999999999993h18.9q0.1999999999999993 0 0.3000000000000007 0.1999999999999993t0.1999999999999993 0.3999999999999986z m0-6.699999999999999v3.3000000000000007q0 0.1999999999999993-0.1999999999999993 0.3999999999999986t-0.3000000000000007 0.1999999999999993h-18.9q-0.3000000000000007 0-0.40000000000000036-0.1999999999999993t-0.1999999999999993-0.3999999999999986v-3.3000000000000043q0-0.1999999999999993 0.1999999999999993-0.40000000000000036t0.40000000000000036-0.1999999999999993h18.9q0.1999999999999993 0 0.3000000000000007 0.1999999999999993t0.1999999999999993 0.40000000000000036z m0-6.7v3.3999999999999995q0 0.1999999999999993-0.1999999999999993 0.3000000000000007t-0.3000000000000007 0.1999999999999993h-29.999999999999996q-0.30000000000000143 0-0.40000000000000147-0.1999999999999993t-0.19999999999999996-0.30000000000000426v-3.3999999999999995q0-0.20000000000000018 0.2-0.40000000000000036t0.4000000000000001-0.09999999999999964h30q0.1999999999999993 0 0.3000000000000007 0.09999999999999964t0.1999999999999993 0.40000000000000036z"></path></svg>