<?xml version="1.0"?><svg xmlns="http://www.w3.org/2000/svg" width="40" height="40" viewBox="0 0 40 40"><path d="m35.58 24.620000000000005q-0.7142857142857153 1.7857142857142847-1.6971428571428575 3.0799999999999983t-2.0314285714285703 1.975714285714286-2.210000000000001 1.03857142857143-2.267142857142858 0.32428571428571473-2.154285714285713-0.19000000000000128-1.9314285714285724-0.4914285714285711-1.5514285714285698-0.6142857142857139-1.0285714285714285-0.5028571428571418l-0.3785714285714299-0.2228571428571442q-2.5214285714285687 5.09-6.458571428571425 8.025714285714283t-8.585714285714287 2.9571428571428555q-0.4228571428571426 0-0.7142857142857144-0.29142857142856826t-0.28857142857142826-0.7142857142857153 0.29000000000000004-0.7028571428571411 0.7142857142857144-0.278571428571432q3.862857142857144-0.024285714285717575 7.2-2.3999999999999986t5.614285714285716-6.575714285714284q-0.8028571428571425 0.31428571428571317-1.6071428571428577 0.5142857142857125t-1.8528571428571432 0.28857142857143003-2.031428571428572-0.05714285714285694-2.0757142857142856-0.6357142857142861-2.0528571428571425-1.3171428571428585-1.8857142857142861-2.232857142857142-1.6628571428571428-3.2571428571428562q2.5428571428571436-1.0500000000000007 4.777142857142857-1.274285714285714t3.7385714285714293 0.16714285714285637 2.7785714285714285 1.2614285714285707 1.9728571428571406 1.7199999999999989 1.2628571428571433 1.831428571428571q1.1828571428571415-2.9242857142857126 1.7628571428571433-6.4957142857142856-0.15714285714285836 0.022857142857141355-0.3999999999999986 0.05714285714285694t-1.0399999999999991 0.05428571428571516-1.5514285714285698-0.011428571428570677-1.8200000000000038-0.22142857142857508-1.9742857142857133-0.514285714285716-1.8757142857142863-0.9485714285714302-1.6742857142857144-1.451428571428572-1.217142857142857-2.1099999999999994-0.6342857142857135-2.845714285714285q1.5628571428571423-0.6228571428571428 2.9800000000000004-0.814285714285715t2.5114285714285707 0.024285714285714022 2.0528571428571425 0.6714285714285708 1.6400000000000006 1.1142857142857139 1.25 1.361428571428572 0.937142857142856 1.4057142857142857 0.6142857142857139 1.25 0.35714285714285765 0.879999999999999l0.08999999999999986 0.35714285714285765q0.2657142857142851-2.7228571428571424 0.2657142857142851-4.352857142857143-0.17857142857142705-0.13571428571428612-0.4800000000000004-0.35714285714285765t-1.0942857142857143-0.9942857142857147-1.4171428571428564-1.5957142857142852-1.2057142857142864-2.0757142857142856-0.7371428571428567-2.5114285714285716 0.2671428571428578-2.8342857142857145 1.5614285714285714-3.0914285714285716q1.62857142857143 0.5571428571428572 2.845714285714287 1.3714285714285714t1.8857142857142861 1.7085714285714286 1.071428571428573 1.8971428571428568 0.4571428571428555 1.9857142857142858-0.011428571428570677 1.9100000000000001-0.28999999999999915 1.7057142857142864-0.4242857142857126 1.3857142857142861-0.379999999999999 0.935714285714285l-0.15428571428571303 0.33285714285714363q0.022857142857141355 0.1114285714285721 0.022857142857141355 1.1285714285714281t-0.022857142857141355 1.5942857142857143q0.0671428571428585-0.15714285714285658 0.2228571428571442-0.4142857142857146t0.6814285714285724-0.9600000000000009 1.12857142857143-1.2942857142857136 1.5828571428571436-1.2385714285714293 2.0428571428571445-0.992857142857142 2.5-0.32428571428571473 2.9571428571428555 0.5357142857142865q-0.04285714285714448 1.7428571428571438-0.4799999999999969 3.1571428571428566t-1.1142857142857139 2.3342857142857145-1.5528571428571425 1.595714285714287-1.8185714285714276 1.0142857142857125-1.8857142857142861 0.5357142857142847-1.7857142857142847 0.21142857142856997-1.5071428571428562-0.022857142857141355-1.03857142857143-0.10000000000000142l-0.379999999999999-0.0671428571428585q-0.514285714285716 3.2814285714285703-1.6314285714285717 6.3171428571428585 0.13428571428571345-0.15714285714285836 0.3999999999999986-0.4142857142857146t1.105714285714285-0.9142857142857146 1.7285714285714278-1.1714285714285708 2.222857142857144-0.937142857142856 2.6228571428571428-0.4471428571428575 2.879999999999999 0.524285714285714 3.057142857142857 1.7285714285714278z"></path></svg>