<?xml version="1.0"?><svg viewBox="0 0 40 40" xmlns="http://www.w3.org/2000/svg" height="40" width="40"><path d="m34.7 23.3q-0.6 1.7-1.6 2.9t-1.9 1.8-2.1 1-2.1 0.3-2.1-0.1-1.8-0.5-1.5-0.6-0.9-0.5l-0.4-0.2q-2.4 4.8-6.1 7.6t-8.1 2.8q-0.4 0-0.7-0.3t-0.3-0.6 0.3-0.7 0.7-0.3q3.6 0 6.8-2.2t5.3-6.3q-0.8 0.3-1.5 0.5t-1.8 0.3-1.9 0-1.9-0.6-2-1.3-1.8-2.1-1.5-3.1q2.4-1 4.5-1.2t3.5 0.2 2.6 1.2 1.9 1.6 1.2 1.7q1.1-2.7 1.7-6.1-0.2 0-0.4 0t-1 0.1-1.5 0-1.7-0.2-1.9-0.5-1.7-0.9-1.6-1.4-1.2-2-0.6-2.7q1.5-0.6 2.9-0.7t2.3 0 2 0.6 1.5 1.1 1.2 1.3 0.9 1.3 0.6 1.2 0.3 0.8l0.1 0.3q0.2-2.5 0.2-4.1-0.1-0.1-0.4-0.3t-1-1-1.4-1.5-1.1-1.9-0.7-2.4 0.2-2.7 1.5-2.9q1.6 0.5 2.7 1.3t1.8 1.6 1 1.8 0.4 1.9 0 1.8-0.3 1.6-0.4 1.3-0.3 0.9l-0.2 0.3q0.1 0.1 0.1 1.1t-0.1 1.5q0.1-0.2 0.2-0.4t0.7-0.9 1.1-1.2 1.5-1.2 1.9-0.9 2.3-0.4 2.8 0.6q0 1.6-0.4 2.9t-1.1 2.2-1.4 1.6-1.7 0.9-1.8 0.5-1.7 0.2-1.4 0-1-0.1l-0.4-0.1q-0.5 3.1-1.5 6 0.1-0.1 0.4-0.4t1-0.8 1.6-1.2 2.1-0.8 2.5-0.5 2.7 0.5 2.9 1.7z"></path></svg>