<?xml version="1.0"?><svg viewBox="0 0 40 40" xmlns="http://www.w3.org/2000/svg" height="40" width="40"><path d="m24.4 27.6q0 2-1.4 3.4t-3.4 1.4q-2.3 0-4.1-1.8l-13.5-13.4q-1.9-2-1.9-4.8 0-2.7 1.9-4.6t4.6-2q2.8 0 4.8 2l10.5 10.5q0.2 0.2 0.2 0.4 0 0.3-0.6 0.8t-0.8 0.5q-0.2 0-0.4-0.1l-10.5-10.6q-1.4-1.3-3.1-1.3-1.9 0-3.1 1.3t-1.3 3.1q0 1.9 1.3 3.2l13.5 13.5q1.1 1.1 2.5 1.1 1.1 0 1.8-0.8t0.8-1.8q0-1.4-1.1-2.5l-10.1-10.1q-0.5-0.4-1.1-0.4-0.5 0-0.8 0.3t-0.3 0.8q0 0.6 0.4 1.1l7.1 7.1q0.2 0.1 0.2 0.4 0 0.2-0.5 0.8t-0.8 0.5q-0.3 0-0.4-0.2l-7.1-7.1q-1.1-1-1.1-2.6 0-1.4 1-2.4t2.4-1q1.5 0 2.6 1.1l10 10.1q1.8 1.7 1.8 4.1z"></path></svg>