<?xml version="1.0"?><svg viewBox="0 0 40 40" xmlns="http://www.w3.org/2000/svg" height="40" width="40"><path d="m34.7 29.2q0 2.5-1.7 4.2t-4.1 1.6q-2.9 0-5-2.1l-16.4-16.4q-2.4-2.4-2.4-5.7 0-3.3 2.4-5.7t5.6-2.3q3.4 0 5.8 2.4l12.8 12.8q0.2 0.2 0.2 0.4 0 0.4-0.7 1t-1 0.6q-0.2 0-0.4-0.2l-12.8-12.8q-1.7-1.6-3.8-1.6-2.3 0-3.8 1.6t-1.6 3.8q0 2.2 1.6 3.8l16.4 16.4q1.3 1.3 3.1 1.3 1.3 0 2.2-0.8t0.9-2.3q0-1.7-1.3-3l-12.3-12.3q-0.5-0.5-1.3-0.5-0.6 0-1 0.4t-0.4 1q0 0.7 0.6 1.3l8.6 8.6q0.2 0.2 0.2 0.5 0 0.3-0.6 1t-1 0.6q-0.3 0-0.5-0.2l-8.6-8.6q-1.4-1.3-1.4-3.2 0-1.7 1.2-2.9t3-1.2q1.8 0 3.1 1.3l12.3 12.3q2.1 2 2.1 4.9z"></path></svg>