<?xml version="1.0"?><svg xmlns="http://www.w3.org/2000/svg" width="40" height="40" viewBox="0 0 40 40"><path d="m18.571428571428573 26.42857142857143v-12.857142857142858q0-0.31428571428571495-0.1999999999999993-0.5142857142857142t-0.514285714285716-0.20000000000000107h-5.714285714285715q-0.31428571428571495 0-0.5142857142857142 0.1999999999999993t-0.1999999999999993 0.5142857142857142v12.85714285714286q0 0.31428571428571317 0.1999999999999993 0.5142857142857125t0.5142857142857142 0.1999999999999993h5.714285714285715q0.31428571428571317 0 0.514285714285716-0.1999999999999993t0.1999999999999993-0.5142857142857125z m10 0v-12.857142857142858q0-0.31428571428571495-0.1999999999999993-0.5142857142857142t-0.514285714285716-0.20000000000000107h-5.714285714285715q-0.31428571428571317 0-0.514285714285716 0.1999999999999993t-0.19999999999999574 0.5142857142857142v12.85714285714286q0 0.31428571428571317 0.1999999999999993 0.5142857142857125t0.514285714285716 0.1999999999999993h5.714285714285715q0.31428571428571317 0 0.5142857142857125-0.1999999999999993t0.1999999999999993-0.5142857142857125z m8.571428571428573-6.428571428571431q0 4.665714285714287-2.299999999999997 8.604285714285716t-6.237142857142857 6.238571428571426-8.605714285714292 2.3000000000000043-8.6-2.3000000000000043-6.242857142857143-6.238571428571426-2.295714285714286-8.604285714285716 2.3000000000000003-8.604285714285714 6.234285714285714-6.238571428571428 8.604285714285714-2.3000000000000003 8.605714285714285 2.3000000000000003 6.238571428571426 6.238571428571428 2.298571428571435 8.604285714285714z"></path></svg>