<?xml version="1.0"?><svg viewBox="0 0 40 40" xmlns="http://www.w3.org/2000/svg" height="40" width="40"><path d="m13.5 11.7q0 1.1-0.3 2t-1.1 1.6q-0.7 0.7-1.8 0.7-1.3 0-2.4-1t-1.6-2.4q-0.5-1.3-0.5-2.6 0-1 0.3-2t1.1-1.6q0.8-0.6 1.8-0.6 1.4 0 2.4 1t1.6 2.3q0.5 1.4 0.5 2.6z m-5.9 8.4q0 1.4-0.7 2.4t-2.1 1.1q-1.3 0-2.4-1t-1.8-2.3q-0.6-1.4-0.6-2.7 0-1.4 0.7-2.4t2.1-1q1.3 0 2.5 0.9t1.7 2.4q0.6 1.3 0.6 2.6z m6.8-0.4q2.1 0 4.5 1.6t3.9 4.2q1.6 2.4 1.6 4.4 0 0.8-0.3 1.3t-0.8 0.8q-0.5 0.2-1.1 0.3t-1.3 0.1q-1.2 0-3.3-0.8t-3.2-0.7q-1.1 0-3.3 0.7t-3.5 0.8q-3.2 0-3.2-2.5 0-1.5 1-3.3t2.4-3.4q1.5-1.5 3.3-2.5t3.3-1z m4.2-3.7q-1.1 0-1.8-0.7t-1.1-1.6q-0.4-0.9-0.4-2 0-1.2 0.6-2.6t1.6-2.3q1-1 2.4-1 1 0 1.8 0.6t1.1 1.6q0.3 1 0.3 2 0 1.3-0.5 2.6t-1.6 2.4q-1.1 1-2.4 1z m7.5-1.8q1.3 0 2.1 1t0.7 2.4q0 1.3-0.6 2.7t-1.8 2.3q-1.1 1-2.4 1-1.4 0-2.1-1.1t-0.7-2.4q0-1.3 0.6-2.6t1.7-2.4q1.2-0.9 2.5-0.9z"></path></svg>