<svg viewBox="0 0 1664 1896.0833" xmlns="http://www.w3.org/2000/svg"><path d="m780 472q0 60-19 113.5t-63 92.5-105 39q-76 0-138-57.5t-92-135.5-30-151q0-60 19-113.5t63-92.5 105-39q77 0 138.5 57.5t91.5 135 30 151.5z m-342 483q0 80-42 139t-119 59q-76 0-141.5-55.5t-100.5-133.5-35-152q0-80 42-139.5t119-59.5q76 0 141.5 55.5t100.5 134 35 152.5z m394-27q118 0 255 97.5t229 237 92 254.5q0 46-17 76.5t-48.5 45-64.5 20-76 5.5q-68 0-187.5-45t-182.5-45q-66 0-192.5 44.5t-200.5 44.5q-183 0-183-146 0-86 56-191.5t139.5-192.5 187.5-146 193-59z m239-211q-61 0-105-39t-63-92.5-19-113.5q0-74 30-151.5t91.5-135 138.5-57.5q61 0 105 39t63 92.5 19 113.5q0 73-30 151t-92 135.5-138 57.5z m432-104q77 0 119 59.5t42 139.5q0 74-35 152t-100.5 133.5-141.5 55.5q-77 0-119-59t-42-139q0-74 35-152.5t100.5-134 141.5-55.5z"/></svg>