<?xml version="1.0"?><svg xmlns="http://www.w3.org/2000/svg" width="40" height="40" viewBox="0 0 40 40"><path d="m18.838571428571427 10.535714285714286q0 1.3399999999999999-0.4242857142857126 2.532857142857143t-1.4057142857142857 2.064285714285715-2.3428571428571434 0.8714285714285701q-1.6999999999999993 0-3.081428571428571-1.2857142857142865t-2.055714285714286-3.0214285714285705-0.6714285714285708-3.371428571428572q0-1.338571428571429 0.42571428571428527-2.531428571428572t1.4057142857142857-2.0642857142857145 2.345714285714287-0.8728571428571419q1.7200000000000006 0 3.0928571428571416 1.285714285714286t2.0428571428571445 3.0114285714285716 0.668571428571429 3.3814285714285717z m-7.632857142857143 10.781428571428572q0 1.7857142857142847-0.9371428571428577 3.102857142857143t-2.6571428571428575 1.3171428571428585q-1.6957142857142857 0-3.1571428571428575-1.2385714285714293t-2.242857142857143-2.981428571428573-0.7828571428571405-3.3914285714285697q0-1.7857142857142847 0.9385714285714288-3.114285714285714t2.6571428571428575-1.3285714285714292q1.6957142857142857 0 3.1571428571428575 1.2385714285714293t2.2428571428571438 2.991428571428571 0.781428571428572 3.402857142857144z m8.794285714285715-0.6028571428571432q2.6342857142857135 0 5.69142857142857 2.1757142857142853t5.111428571428572 5.289999999999999 2.0542857142857187 5.681428571428569q0 1.028571428571432-0.38142857142857167 1.7071428571428555t-1.0828571428571436 1.0042857142857144-1.4400000000000013 0.4485714285714266-1.6957142857142848 0.12142857142858077q-1.518571428571427 0-4.185714285714287-1.0042857142857144t-4.075714285714287-1.0042857142857144q-1.4714285714285715 0-4.297142857142857 0.9928571428571402t-4.477142857142857 0.9914285714285711q-4.085714285714285 0-4.085714285714285-3.25714285714286 0-1.9214285714285708 1.251428571428571-4.275714285714287t3.1142857142857157-4.295714285714286 4.185714285714287-3.2571428571428562 4.30857142857143-1.3185714285714276z m5.334285714285713-4.710000000000001q-1.361428571428572 0-2.3428571428571416-0.8714285714285719t-1.4071428571428584-2.0628571428571423-0.42571428571428527-2.534285714285714q0-1.6514285714285712 0.6714285714285708-3.3814285714285717t2.0428571428571445-3.0142857142857142 3.09-1.282857142857143q1.361428571428572 0 2.3428571428571416 0.8714285714285714t1.4071428571428584 2.0628571428571427 0.4242857142857126 2.532857142857143q0 1.6285714285714281-0.6714285714285708 3.3685714285714283t-2.0514285714285734 3.024285714285714-3.078571428571429 1.282857142857143z m9.642857142857139-2.321428571428571q1.7185714285714297 0 2.6571428571428584 1.3285714285714292t0.9357142857142833 3.1142857142857157q0 1.6514285714285712-0.7828571428571394 3.3928571428571423t-2.24285714285714 2.9800000000000004-3.1571428571428584 1.2371428571428567q-1.7199999999999989 0-2.6571428571428584-1.3171428571428585t-0.937142857142856-3.102857142857143q0-1.6514285714285712 0.7814285714285703-3.404285714285713t2.2428571428571438-2.9928571428571438 3.1571428571428584-1.2385714285714293z"></path></svg>