<?xml version="1.0"?><svg viewBox="0 0 40 40" xmlns="http://www.w3.org/2000/svg" height="40" width="40"><path d="m35.8 13.6q0.4 1.8 0 4.3-1.9 9.4-12 9.4h-0.9q-0.5 0-0.9 0.3t-0.5 0.9l-0.1 0.4-1.2 7.3 0 0.4q-0.1 0.5-0.5 0.9t-1 0.3h-5.3q-0.4 0-0.7-0.3t-0.1-0.8q0.1-1.2 0.5-3.5t0.6-3.6 0.5-3.5 0.6-3.5q0.1-0.8 0.9-0.8h2.8q2.8 0 5-0.5 3.7-0.8 6-3 2.2-2 3.3-5.2 0.5-1.5 0.7-2.8 0-0.1 0.1-0.1t0-0.1 0.2 0.1q1.6 1.3 2 3.4z m-3.6-5.9q0 2.2-1 5-1.6 4.9-6.3 6.6-2.4 0.8-5.3 0.9 0 0-1.9 0l-1.9 0q-2.1 0-2.5 2-0.1 0.2-1.8 11.2 0 0.2-0.3 0.2h-6.2q-0.5 0-0.8-0.3t-0.2-0.9l4.9-31q0.1-0.6 0.6-1t1-0.4h12.7q0.7 0 2 0.3t2.4 0.6q2.2 0.9 3.4 2.6t1.2 4.2z"></path></svg>