<?xml version="1.0"?><svg xmlns="http://www.w3.org/2000/svg" width="40" height="40" viewBox="0 0 40 40"><path d="m11.874285714285715 24.732857142857142l3.3928571428571423 3.3928571428571423-1.1600000000000001 1.1600000000000001h-1.25v-2.1428571428571423h-2.1428571428571423v-1.25z m9.242857142857144-8.705714285714286q0.3114285714285714 0.28857142857143003-0.06857142857142762 0.668571428571429l-6.4957142857142856 6.4957142857142856q-0.3800000000000008 0.379999999999999-0.6714285714285708 0.0671428571428585-0.3114285714285714-0.28999999999999915 0.0685714285714294-0.6714285714285708l6.495714285714284-6.494285714285716q0.379999999999999-0.3800000000000008 0.6714285714285708-0.0671428571428585z m-6.117142857142859 15.401428571428575l12.142857142857142-12.142857142857142-6.428571428571427-6.428571428571431-12.142857142857144 12.142857142857142v6.428571428571431h6.428571428571429z m13.57142857142857-13.57142857142857l2.0528571428571425-2.0528571428571425q0.6257142857142846-0.6257142857142863 0.6257142857142846-1.5171428571428578t-0.6257142857142846-1.5142857142857142l-3.3928571428571423-3.3942857142857132q-0.6257142857142846-0.6257142857142863-1.5171428571428578-0.6257142857142863t-1.5171428571428578 0.6257142857142863l-2.0542857142857116 2.0499999999999954z m8.57142857142857-8.571428571428571v21.42857142857143q0 2.6571428571428584-1.8857142857142861 4.5428571428571445t-4.542857142857137 1.885714285714279h-21.42857142857143q-2.6571428571428575 0-4.542857142857144-1.8857142857142861t-1.885714285714284-4.5428571428571445v-21.42857142857143q0-2.6571428571428575 1.8857142857142857-4.542857142857144t4.542857142857144-1.885714285714284h21.42857142857143q2.6571428571428584 0 4.5428571428571445 1.8857142857142857t1.8857142857142861 4.542857142857144z"></path></svg>