<?xml version="1.0"?><svg viewBox="0 0 40 40" xmlns="http://www.w3.org/2000/svg" height="40" width="40"><path d="m12.3 23.4l3.2 3.2-1.1 1.1h-1.2v-2h-2v-1.2z m8.8-8.3q0.3 0.3-0.1 0.7l-6.1 6.1q-0.4 0.4-0.7 0.1-0.3-0.3 0.1-0.7l6.1-6.1q0.4-0.3 0.7-0.1z m-5.8 14.6l11.5-11.5-6.1-6-11.5 11.4v6.1h6.1z m12.8-12.8l1.9-2q0.6-0.6 0.6-1.4t-0.6-1.4l-3.2-3.2q-0.6-0.6-1.4-0.6t-1.4 0.6l-2 1.9z m8.1-8.1v20.2q0 2.5-1.8 4.3t-4.3 1.8h-20.2q-2.5 0-4.3-1.8t-1.8-4.3v-20.2q0-2.5 1.8-4.3t4.3-1.8h20.2q2.5 0 4.3 1.8t1.8 4.3z"></path></svg>