<?xml version="1.0"?><svg viewBox="0 0 40 40" xmlns="http://www.w3.org/2000/svg" height="40" width="40"><path d="m19.8 25l2.5-2.5-3.2-3.2-2.5 2.5v1.2h2v2h1.2z m9.3-15.2q-0.3-0.3-0.7 0l-7.4 7.4q-0.3 0.4 0 0.7t0.7 0l7.4-7.4q0.4-0.4 0-0.7z m1.7 12.5v4q0 2.5-1.8 4.3t-4.3 1.8h-17.5q-2.5 0-4.3-1.8t-1.8-4.3v-17.5q0-2.5 1.8-4.3t4.3-1.8h17.5q1.4 0 2.5 0.5 0.3 0.2 0.4 0.5 0 0.4-0.2 0.6l-1.1 1.1q-0.2 0.3-0.6 0.1-0.5-0.1-1-0.1h-17.5q-1.4 0-2.4 1t-1 2.4v17.5q0 1.4 1 2.4t2.4 1h17.5q1.4 0 2.4-1t1-2.4v-2.6q0-0.3 0.2-0.5l1.3-1.3q0.4-0.4 0.8-0.2t0.4 0.6z m-2-15.5l6.1 6-14.2 14.2h-6.1v-6.1z m9.3 2.7l-1.9 2-6.1-6.1 2-1.9q0.6-0.6 1.4-0.6t1.4 0.6l3.2 3.2q0.6 0.6 0.6 1.4t-0.6 1.4z"></path></svg>