<?xml version="1.0"?><svg xmlns="http://www.w3.org/2000/svg" width="40" height="40" viewBox="0 0 40 40"><path d="m31.42857142857143 28.571428571428573q0-1.1600000000000001-0.8485714285714288-2.008571428571429t-2.008571428571429-0.8485714285714288-2.008571428571429 0.8485714285714288-0.8485714285714288 2.008571428571429 0.8485714285714288 2.008571428571429 2.008571428571429 0.8485714285714288 2.008571428571429-0.8485714285714288 0.8485714285714288-2.008571428571429z m-17.142857142857146-17.142857142857146q1.7763568394002505e-15-1.1599999999999984-0.848571428571427-2.008571428571427t-2.008571428571429-0.8485714285714288-2.008571428571429 0.8485714285714288-0.8485714285714288 2.008571428571429 0.8485714285714288 2.008571428571429 2.008571428571429 0.8485714285714288 2.008571428571429-0.8485714285714288 0.8485714285714288-2.008571428571429z m22.85714285714286 17.142857142857142q0 3.548571428571428-2.5114285714285742 6.060000000000002t-6.059999999999999 2.5114285714285742-6.059999999999999-2.5114285714285742-2.5114285714285742-6.059999999999999 2.5114285714285707-6.059999999999999 6.060000000000002-2.5114285714285742 6.059999999999999 2.5114285714285707 2.5114285714285742 6.060000000000002z m-2.142857142857146-24.285714285714285q0 0.4471428571428584-0.28999999999999915 0.8485714285714296l-23.571428571428573 31.428571428571434q-0.4242857142857126 0.5799999999999983-1.138571428571428 0.5799999999999983h-3.571428571428571q-0.5800000000000001 0-1.0042857142857144-0.42428571428571615t-0.4242857142857144-1.0042857142857144q0-0.4471428571428575 0.29000000000000004-0.8485714285714252l23.571428571428573-31.42857142857143q0.4242857142857126-0.5800000000000023 1.138571428571428-0.5800000000000023h3.5714285714285694q0.5799999999999983 0 1.0042857142857144 0.4242857142857144t0.42428571428571615 1.004285714285714z m-15 7.142857142857144q0 3.548571428571428-2.5114285714285707 6.0600000000000005t-6.0600000000000005 2.5114285714285707-6.0600000000000005-2.5114285714285707-2.511428571428571-6.0600000000000005 2.511428571428571-6.0600000000000005 6.0600000000000005-2.511428571428571 6.0600000000000005 2.511428571428571 2.5114285714285707 6.0600000000000005z"></path></svg>