<?xml version="1.0"?><svg viewBox="0 0 40 40" xmlns="http://www.w3.org/2000/svg" height="40" width="40"><path d="m24.4 25.1q0 0.4-0.1 1.2t-0.4 1.2q-0.4 0.8-2.1 1.8-1.6 0.9-3.2 0.9-0.5 0-1-0.1t-1-0.2q-0.5-0.1-0.8-0.2t-0.9-0.4q-0.7-0.2-0.9-0.3-1.7-0.6-3-1.4-2.2-1.4-4.6-3.8t-3.8-4.6q-0.8-1.3-1.4-3-0.1-0.2-0.3-0.9t-0.4-0.9q-0.1-0.3-0.2-0.8t-0.2-1q-0.1-0.5-0.1-1 0-1.5 0.9-3.2 1-1.7 1.8-2.1 0.5-0.2 1.2-0.4t1.2-0.1q0.3 0 0.4 0 0.3 0.1 0.9 1.3 0.2 0.4 0.5 1t0.7 1.1q0.2 0.5 0.5 0.9 0 0.1 0.3 0.4t0.4 0.7q0.1 0.2 0.1 0.4 0 0.4-0.5 0.9t-1.1 1q-0.6 0.4-1.1 0.9t-0.5 0.8q0 0.1 0.1 0.4t0.2 0.3q0 0.2 0.2 0.5t0.2 0.3q1.3 2.4 3 4.1t4.1 3q0.1 0 0.4 0.2t0.4 0.2q0.1 0.1 0.3 0.2t0.4 0.1q0.3 0 0.8-0.5t0.9-1.1q0.5-0.6 1-1.1t0.9-0.5q0.2 0 0.5 0.1t0.6 0.4q0.3 0.3 0.4 0.3 0.4 0.3 0.9 0.6t1.1 0.6q0.6 0.3 1 0.5 1.2 0.6 1.3 0.9 0 0.1 0 0.4z"></path></svg>