<?xml version="1.0"?><svg xmlns="http://www.w3.org/2000/svg" width="40" height="40" viewBox="0 0 40 40"><path d="m31.42857142857143 26.62857142857143q0-0.24285714285714377-0.04285714285714448-0.35714285714285765-0.06857142857142762-0.17714285714285793-0.8614285714285721-0.6571428571428584t-1.975714285714286-1.1042857142857159l-1.1828571428571415-0.6471428571428568q-0.1114285714285721-0.0671428571428585-0.4242857142857126-0.28999999999999915t-0.5599999999999987-0.33285714285714363-0.46857142857142975-0.1114285714285721q-0.3999999999999986 0-1.048571428571428 0.7242857142857133t-1.2714285714285722 1.46142857142857-0.985714285714284 0.7371428571428567q-0.15428571428571303 0-0.36714285714285566-0.07857142857142918t-0.3471428571428561-0.14285714285714235-0.379999999999999-0.2142857142857153-0.3114285714285714-0.1885714285714286q-2.210000000000001-1.2285714285714278-3.805714285714288-2.8242857142857147t-2.82428571428572-3.8057142857142807q-0.042857142857142705-0.0671428571428585-0.1885714285714286-0.31428571428571317t-0.21142857142857174-0.3785714285714299-0.1457142857142859-0.345714285714287-0.07857142857142918-0.36857142857142833q0-0.28999999999999915 0.4571428571428573-0.7471428571428582t1.0042857142857144-0.8614285714285721 1.0042857142857144-0.8814285714285717 0.4571428571428555-0.814285714285715q0-0.22285714285714242-0.11428571428571388-0.468571428571428t-0.33285714285714363-0.5571428571428569-0.28999999999999915-0.42571428571428527q-0.06571428571428228-0.1342857142857099-0.3328571428571401-0.6342857142857099t-0.5571428571428569-1.0171428571428578-0.5928571428571434-1.0600000000000005-0.5571428571428569-0.9042857142857148-0.3714285714285719-0.40000000000000036-0.355714285714285-0.04714285714285538q-1.0714285714285712 0-2.252857142857142 0.492857142857142-1.0285714285714285 0.468571428571428-1.7857142857142865 2.1099999999999994t-0.757142857142858 2.9142857142857146q0 0.35714285714285765 0.05428571428571516 0.757142857142858t0.1114285714285721 0.6814285714285706 0.1999999999999993 0.7357142857142875 0.2242857142857151 0.6571428571428584 0.27999999999999936 0.7385714285714293 0.24571428571428555 0.6714285714285708q1.3399999999999999 3.6571428571428584 4.832857142857144 7.15285714285714t7.157142857142855 4.831428571428571q0.13285714285714434 0.04285714285714448 0.668571428571429 0.24571428571428555t0.7371428571428567 0.27857142857142847 0.6571428571428584 0.22142857142857153 0.7385714285714293 0.1999999999999993 0.6828571428571415 0.11428571428571388 0.7571428571428562 0.05428571428571516q1.274285714285714 0 2.9142857142857146-0.7571428571428562t2.1099999999999994-1.7857142857142847q0.4914285714285711-1.1857142857142868 0.4914285714285711-2.2571428571428562z m5.714285714285715-17.34285714285714v21.428571428571427q0 2.6571428571428584-1.8857142857142861 4.5428571428571445t-4.5428571428571445 1.8857142857142861h-21.42857142857143q-2.6571428571428575 0-4.542857142857144-1.8857142857142861t-1.885714285714284-4.5428571428571445v-21.42857142857143q0-2.6571428571428575 1.8857142857142857-4.542857142857144t4.542857142857144-1.885714285714284h21.42857142857143q2.6571428571428584 0 4.5428571428571445 1.8857142857142857t1.8857142857142861 4.542857142857144z"></path></svg>