<?xml version="1.0"?><svg viewBox="0 0 40 40" xmlns="http://www.w3.org/2000/svg" height="40" width="40"><path d="m30.8 25.2q0-0.3 0-0.4-0.1-0.1-0.9-0.6t-1.8-1l-1.1-0.6q-0.1-0.1-0.4-0.3t-0.6-0.3-0.4-0.1q-0.4 0-1 0.6t-1.2 1.4-0.9 0.7q-0.2 0-0.4-0.1t-0.3-0.1-0.4-0.2-0.3-0.2q-2-1.1-3.6-2.6t-2.6-3.6q-0.1-0.1-0.2-0.3t-0.2-0.4-0.1-0.3-0.1-0.4q0-0.2 0.4-0.7t1-0.8 0.9-0.8 0.4-0.8q0-0.2-0.1-0.4t-0.3-0.6-0.2-0.4q-0.1-0.1-0.4-0.6t-0.5-0.9-0.6-1-0.5-0.9-0.3-0.4-0.4 0q-1 0-2.1 0.5-1 0.4-1.7 2t-0.7 2.7q0 0.3 0.1 0.7t0.1 0.7 0.1 0.7 0.3 0.6 0.2 0.7 0.3 0.6q1.2 3.5 4.5 6.8t6.8 4.5q0.1 0.1 0.6 0.3t0.7 0.2 0.6 0.3 0.7 0.1 0.7 0.2 0.7 0q1.2 0 2.7-0.7t2-1.7q0.5-1.1 0.5-2.1z m5.4-16.4v20.2q0 2.5-1.8 4.3t-4.3 1.8h-20.2q-2.5 0-4.3-1.8t-1.8-4.3v-20.2q0-2.5 1.8-4.3t4.3-1.8h20.2q2.5 0 4.3 1.8t1.8 4.3z"></path></svg>