<?xml version="1.0"?><svg xmlns="http://www.w3.org/2000/svg" width="40" height="40" viewBox="0 0 40 40"><path d="m26.205714285714286 22.767142857142858q0 1.428571428571427-0.8485714285714288 2.4328571428571415t-2.0314285714285703 1.0042857142857144q-0.9600000000000009 0-1.562857142857144-0.33428571428571274v-6.185714285714287q0.6257142857142846-0.3785714285714299 1.562857142857144-0.3785714285714299 1.1828571428571415 0 2.0314285714285703 1.014285714285716t0.8485714285714288 2.445714285714285z m-7.657142857142858-9.552857142857144q0 1.4285714285714288-0.8485714285714288 2.442857142857143t-2.031428571428572 1.017142857142856q-0.9600000000000009 0-1.5628571428571423-0.33428571428571274v-6.1828571428571415q0.6257142857142863-0.3800000000000008 1.5628571428571423-0.3800000000000008 1.1828571428571433 0 2.031428571428572 1.0042857142857144t0.8485714285714288 2.4328571428571433z m12.545714285714286 9.62q0-2.991428571428571-1.9642857142857153-5.111428571428572t-4.752857142857142-2.120000000000001q-0.4471428571428575 0-0.8714285714285701 0.06714285714285673-0.5114285714285707 1.7400000000000002-1.7399999999999984 3.034285714285714-1.942857142857143 2.120000000000001-4.710000000000001 2.2542857142857144v14.197142857142858l4.710000000000001-0.914285714285711v-4.600000000000001q1.138571428571428 0.4242857142857126 2.611428571428572 0.4242857142857126 2.789999999999999 0 4.7542857142857144-2.120000000000001t1.9657142857142844-5.111428571428572z m-7.657142857142858-9.531428571428572q0-2.991428571428571-1.975714285714286-5.11142857142857t-4.765714285714285-2.119999999999999q-1.6514285714285712 0-3.147142857142857 0.8028571428571425h-4.1514285714285695v18.75l4.709999999999999-0.9142857142857146v-4.600000000000001q1.2285714285714278 0.4242857142857126 2.59 0.4242857142857126 2.789999999999999 0 4.765714285714285-2.120000000000001t1.975714285714286-5.111428571428572z m13.70571428571429-4.017142857142854v21.42857142857143q0 2.6571428571428584-1.8857142857142861 4.5428571428571445t-4.5428571428571445 1.8857142857142861h-21.42857142857143q-2.6571428571428575 0-4.542857142857144-1.8857142857142861t-1.885714285714284-4.5428571428571445v-21.42857142857143q0-2.6571428571428575 1.8857142857142857-4.542857142857144t4.542857142857144-1.885714285714284h21.42857142857143q2.6571428571428584 0 4.5428571428571445 1.8857142857142857t1.8857142857142861 4.542857142857144z"></path></svg>