<?xml version="1.0"?><svg viewBox="0 0 40 40" xmlns="http://www.w3.org/2000/svg" height="40" width="40"><path d="m25.9 21.5q0 1.4-0.8 2.3t-2 1q-0.9 0-1.4-0.3v-5.9q0.6-0.4 1.4-0.4 1.2 0 2 1t0.8 2.3z m-7.3-9q0 1.3-0.8 2.3t-1.9 1q-0.9 0-1.5-0.4v-5.8q0.6-0.4 1.5-0.4 1.1 0 1.9 1t0.8 2.3z m11.9 9.1q0-2.8-1.9-4.8t-4.5-2.1q-0.4 0-0.8 0.1-0.5 1.7-1.6 2.9-1.9 2-4.5 2.1v13.4l4.5-0.8v-4.4q1 0.4 2.4 0.4 2.7 0 4.5-2t1.9-4.8z m-7.3-9q0-2.9-1.8-4.9t-4.5-2q-1.6 0-3 0.8h-3.9v17.7l4.4-0.8v-4.4q1.2 0.4 2.5 0.4 2.6 0 4.5-2t1.8-4.8z m13-3.8v20.2q0 2.5-1.8 4.3t-4.3 1.8h-20.2q-2.5 0-4.3-1.8t-1.8-4.3v-20.2q0-2.5 1.8-4.3t4.3-1.8h20.2q2.5 0 4.3 1.8t1.8 4.3z"></path></svg>