<?xml version="1.0"?><svg viewBox="0 0 40 40" xmlns="http://www.w3.org/2000/svg" height="40" width="40"><path d="m24 19.6q1.5 0 2.8 0.4t2.3 1.2 2 1.8 1.6 2.2 1.5 2.3q0.7 1.1 1.6 2.2t1.5 1.5 1.9 1.8q-0.9 0.6-2.1 1.1t-2.8 1.2-2.2 0.9q-0.9-0.7-1.4-2.3t-0.9-3.2-0.6-3.5-0.9-3.3-1.4-2.5-2.4-0.9l-0.2 0-0.1 0.1q0.1 0.1 0.2 0.3 0.2 0.1 0.6 0.4t0.5 0.5 0.4 0.3 0.3 0.4 0.2 0.4 0.2 0.6 0.1 0.6 0.1 0.8l0 0.6q0 0.5 0 1.2t-0.2 1-0.2 1.1-0.2 1.1q-0.7 0-2 0.2t-1.9 0.2q-0.8 0-1.5-0.2 0-0.3 0-1 0-1.4 0.1-1.8 0-0.3 0.6-0.9t1.1-1.1 0.5-1q-0.5-0.1-0.8 0.4-0.7 1.1-2.2 2t-2.7 0.9q-0.5 0-1.5-1.2t-2.1-2.8-1.6-1.9q-0.1 0-0.5-0.5-9.5 2.2-10.1 2.2-0.3 0-0.6-0.3t-0.2-0.5q0-0.3 0.2-0.5t0.4-0.3l9.6-2.1q-0.2-0.3-0.2-0.5t0.1-0.3 0.3-0.2 0.4-0.2 0.5-0.1 0.3 0q0.1-0.1 0.3-0.2t0.4-0.1q0.3 0 0.5 0.3t0.4 0.6q3.2-0.7 3.4-0.7 0.3 0 0.6 0.2t0.2 0.6q0 0.3-0.2 0.5t-0.4 0.3l-3.6 0.7 0 0.4q0 0.5 1.6 2.3t2 1.8q1 0 2.4-1.6t1.4-2.5q0-0.7-0.5-1.1t-1-0.3-1-0.3-0.4-0.6q0-0.3 0.2-0.7l-1.4-0.4q0.9-0.8 0.9-2.3 0-0.5-0.1-1.1 1.6-0.3 2.8-0.3 0.9 0 1.4 0t1 0.2 0.6 0.2 0.4 0.5 0.3 0.7 0.3 0.9 0.5 1.2l1-0.5q-0.1 0.8-0.5 1.2t-0.8 0.4-0.8 0.1-0.3 0.4z m1.2-4.6q-0.1-0.1-0.3-0.3t-0.2-0.3-0.2-0.2-0.2-0.2l-0.2-0.2-0.2-0.1-0.1-0.1-0.2-0.1q-0.1-0.1-0.3-0.1t-0.4 0-0.4-0.1h-1.4q-2.5 0-4.2 0.9 0.3-0.6 0.7-0.9t1-0.6 1.3-0.7 0.9-0.7 1-1.1 0.8-1q0.3 0.2 0.6 0.6t0.6 0.7 0.8 0.3l0.2 0v1.5l0.4 0q4.9-1.9 7.3-3.7 0.6-0.5 1-0.8t0.8-0.7 0.7-0.7 0.6-0.6 0.4-0.6 0.5-0.8 0.5-0.7 0.5-0.9 0.6-1.1l0.1-0.2q0 1.1-0.8 2.8-1.6 3.2-4.1 5.2t-6 2.7q-0.2 0.1-0.8 0.2t-1 0.2-0.7 0.3q0 0.3 0.5 0.9t0.4 0.6q0 0.2-0.5 0.6z m-4.4 18.1q0.8-0.5 2.6-0.9t2.9-0.5q0.2 0 0.4 0.3t0.6 0.9 0.5 1 0.5 1 0.2 0.6q-2.3 0.9-4.8 0.9-1.1 0-2.4-0.2z m-4.7-12.7l1-0.2 2.1 3.4-1.4 1z m9.9 10.1q0 0.3 0 0.4 0 0.1-0.3 0.2t-0.9 0.3-1.1 0.2-1 0.1-0.7 0.1l-0.1-0.8q0.4-0.1 1.2-0.2t1.4-0.2 1.2-0.1h0.3z m-9-12.3l-1.9 0.4-0.1-0.3q0.2 0 0.6-0.2t0.7-0.1q0.4 0 0.7 0.2z m3.8 12.5h0.6l0.2 1.6-0.8 0.2v-1.8z m17.5-29.3v0 0z m0 0l0 0.1-0.1 0 0 0z m0 0l0 0z"></path></svg>