<?xml version="1.0"?><svg viewBox="0 0 40 40" xmlns="http://www.w3.org/2000/svg" height="40" width="40"><path d="m17.5 19.3q0.7 0.8 0.7 1.9t-0.7 1.9q-0.7 0.8-1.6 0.8-0.7 0-1.2-0.2v-4.8q0.5-0.3 1.2-0.3 0.9 0 1.6 0.7z m-6-7.4q0.7 0.8 0.7 1.9t-0.7 1.9q-0.6 0.8-1.5 0.8-0.8 0-1.2-0.3v-4.8q0.4-0.3 1.2-0.3 0.9 0 1.5 0.8z m8.9 13.4q1.6-1.7 1.6-4t-1.6-4q-1.5-1.6-3.7-1.6-0.3 0-0.6 0-0.4 1.4-1.4 2.4-1.5 1.6-3.7 1.7v11.1l3.7-0.7v-3.6q0.9 0.3 2 0.3 2.2 0 3.7-1.6z m-5.9-7.4q1.5-1.7 1.5-4t-1.5-4q-1.6-1.6-3.7-1.6-1.3 0-2.5 0.6h-3.2v14.6l3.7-0.7v-3.6q0.9 0.3 2 0.3 2.1 0 3.7-1.6z m12.2-7.1v16.6q0 2.1-1.5 3.6t-3.5 1.4h-16.7q-2.1 0-3.5-1.4t-1.5-3.6v-16.6q0-2.1 1.5-3.6t3.5-1.4h16.7q2 0 3.5 1.4t1.5 3.6z"></path></svg>