<?xml version="1.0"?><svg xmlns="http://www.w3.org/2000/svg" width="40" height="40" viewBox="0 0 40 40"><path d="m23.8675 20.644999999999996q1.4649999999999999-0.05874999999999986 2.802500000000002 0.3999999999999986t2.3049999999999997 1.1424999999999983 1.9725000000000001 1.8462500000000013 1.641250000000003 2.1087500000000006 1.4750000000000014 2.3537500000000016q0.646250000000002 1.09375 1.5349999999999966 2.12875t1.4750000000000014 1.5725000000000016 1.9337500000000034 1.728749999999998q-0.9375 0.5874999999999986-2.1187499999999986 1.125t-2.7049999999999983 1.1499999999999986-2.2250000000000014 0.9287500000000009q-0.8625000000000007-0.7224999999999966-1.4462499999999991-2.2462500000000034t-0.8500000000000014-3.2124999999999986-0.6462499999999984-3.5249999999999986-0.8300000000000018-3.291249999999998-1.4175000000000004-2.4025-2.392500000000002-0.9462499999999991l-0.19500000000000028 0.03750000000000142-0.11749999999999972 0.0799999999999983q0.07874999999999943 0.09750000000000014 0.25375000000000014 0.2749999999999986 0.11749999999999972 0.09625000000000128 0.5474999999999994 0.4574999999999996t0.4974999999999987 0.4299999999999997 0.3724999999999987 0.3500000000000014 0.3500000000000014 0.3999999999999986 0.22500000000000142 0.4125000000000014 0.2062500000000007 0.5375000000000014 0.08749999999999858 0.6037500000000016 0.07874999999999943 0.7912500000000016l0.019999999999999574 0.6449999999999996q0.019999999999999574 0.5062500000000014-0.05000000000000071 1.1212499999999999t-0.14499999999999957 1.0150000000000006-0.24374999999999858 1.1412499999999994-0.22500000000000142 1.0350000000000001q-0.682500000000001-0.01875000000000071-1.9712500000000013 0.1875t-1.9125000000000014 0.20374999999999943q-0.7624999999999993 0-1.4074999999999989-0.19500000000000028-0.03750000000000142-0.3125-0.03750000000000142-0.9175000000000004 0-1.4450000000000003 0.057500000000000995-1.875 0.03750000000000142-0.25375000000000014 0.6149999999999984-0.8099999999999987t1.1125000000000007-1.1524999999999999 0.5187500000000007-1.0062500000000014q-0.46875-0.03750000000000142-0.8399999999999999 0.46875-0.7025000000000006 1.0350000000000001-2.1774999999999984 1.9437500000000014t-2.666249999999998 0.9087500000000013q-0.4875000000000007 0-1.4749999999999996-1.2300000000000004t-2.08-2.7250000000000014-1.6425-1.8837499999999991q-0.11749999999999972-0.07874999999999943-0.5274999999999999-0.5874999999999986-9.4125 2.1875-10.02 2.1875-0.3125 0-0.5474999999999999-0.21249999999999858t-0.23375-0.5287499999999987q0-0.2925000000000004 0.16625-0.5174999999999983t0.44000000000000006-0.2837500000000013l9.4925-2.071249999999999q-0.15625-0.2749999999999986-0.15625-0.4875000000000007t0.10749999999999993-0.34250000000000114 0.3125-0.22500000000000142 0.39124999999999943-0.1374999999999993 0.4499999999999993-0.08749999999999858 0.35999999999999943-0.08749999999999858q0.07874999999999943-0.019999999999999574 0.3025000000000002-0.14624999999999844t0.3412500000000005-0.12750000000000128q0.2912499999999998 0 0.5462500000000006 0.3125t0.39124999999999943 0.6462499999999984q3.1837500000000016-0.7225000000000001 3.360000000000001-0.7225000000000001 0.3324999999999996 0 0.5749999999999993 0.21249999999999858t0.245000000000001 0.5500000000000007q0 0.29125000000000156-0.16625000000000156 0.5062500000000014t-0.4574999999999996 0.2749999999999986l-3.5549999999999997 0.7800000000000011-0.019999999999999574 0.3125q-0.019999999999999574 0.5062500000000014 1.5912500000000005 2.2937499999999993t2.04125 1.7875000000000014q0.9175000000000004 0 2.3249999999999993-1.5625t1.4050000000000011-2.5199999999999996q0-0.7037499999999994-0.45874999999999844-1.0375000000000014t-0.9962499999999999-0.35999999999999943-0.9962499999999999-0.22500000000000142-0.45874999999999844-0.6625000000000014q0-0.3125 0.19500000000000028-0.6649999999999991l-1.3275000000000006-0.37124999999999986q0.8399999999999999-0.8599999999999994 0.8399999999999999-2.285 0-0.5075000000000003-0.09750000000000014-1.1325000000000003 1.6000000000000014-0.3125 2.8125-0.3125 0.8599999999999994 0 1.3962499999999984 0.027499999999999858t0.9499999999999993 0.1662499999999998 0.6037500000000016 0.2624999999999993 0.3999999999999986 0.4800000000000004 0.30249999999999844 0.6525000000000016 0.3324999999999996 0.9274999999999984 0.46999999999999886 1.1724999999999994l0.9750000000000014-0.4875000000000007q-0.057500000000000995 0.7800000000000011-0.44750000000000156 1.1712500000000006t-0.8300000000000018 0.4087500000000013-0.78125 0.12750000000000128-0.3249999999999993 0.3999999999999986z m1.1712500000000006-4.59q-0.09625000000000128-0.09750000000000014-0.2624999999999993-0.3025000000000002t-0.23375000000000057-0.2837499999999995-0.2049999999999983-0.22499999999999964-0.19624999999999915-0.20500000000000007l-0.15625-0.15499999999999936-0.16625000000000156-0.1462500000000002-0.15625-0.09999999999999964-0.16625000000000156-0.08750000000000036q-0.1374999999999993-0.05749999999999922-0.2837500000000013-0.0962499999999995t-0.3999999999999986-0.05000000000000071-0.4299999999999997-0.008749999999999147h-1.3674999999999997q-2.4624999999999986 0-4.237500000000001 0.8399999999999999 0.3125-0.5875000000000004 0.6999999999999993-0.9087499999999995t1.0562499999999986-0.5749999999999993 1.2787499999999987-0.7025000000000006 0.8999999999999986-0.7125000000000004 0.9750000000000014-1.0749999999999993 0.8500000000000014-0.9849999999999994q0.23375000000000057 0.1750000000000007 0.5474999999999994 0.6150000000000002t0.625 0.7125000000000004 0.7424999999999997 0.25375000000000014l0.23375000000000057-0.019999999999999574v1.4837500000000006l0.42875000000000085 0.019999999999999574q4.824999999999999-1.8550000000000004 7.24625-3.7125000000000004 0.5474999999999994-0.4087499999999995 0.9750000000000014-0.7599999999999998t0.8312499999999972-0.7324999999999999 0.6450000000000031-0.6062500000000002 0.5775000000000006-0.6625000000000005 0.46875-0.6062500000000002 0.478749999999998-0.7225000000000001 0.45000000000000284-0.7424999999999997 0.5249999999999986-0.9275000000000002 0.5775000000000006-1.0350000000000001l0.13750000000000284-0.17499999999999982q-0.03999999999999915 1.03375-0.8412500000000023 2.7125000000000004-1.5437500000000028 3.2249999999999996-4.005000000000003 5.157500000000001t-5.975000000000001 2.7750000000000004q-0.2749999999999986 0.05749999999999922-0.8212499999999991 0.14499999999999957t-0.9774999999999991 0.1850000000000005-0.7624999999999993 0.27500000000000036q0.05999999999999872 0.3699999999999992 0.4800000000000004 0.8975000000000009t0.4200000000000017 0.6624999999999996q0 0.2162500000000005-0.5075000000000003 0.5875000000000004z m-4.314999999999998 17.9875q0.7624999999999993-0.5075000000000003 2.5687500000000014-0.927500000000002t2.8625000000000007-0.4200000000000017q0.1750000000000007 0 0.4375 0.302500000000002t0.5500000000000007 0.8299999999999983 0.5062500000000014 0.9750000000000014 0.46875 0.9975000000000023 0.2837500000000013 0.6450000000000031q-2.3625000000000007 0.8787499999999966-4.766249999999999 0.8787499999999966-1.1912500000000001 0-2.44125-0.21625000000000227z m-4.6675-12.6375l0.9375-0.2325000000000017 2.12875 3.4574999999999996-1.4250000000000007 0.9375z m9.785 10.099999999999998q0.05874999999999986 0.29125000000000156 0.05874999999999986 0.3125 0 0.13500000000000156-0.34250000000000114 0.28249999999999886t-0.8999999999999986 0.2537499999999966-1.0537500000000009 0.18500000000000227-1.0449999999999982 0.14750000000000085-0.625 0.08749999999999858l-0.1374999999999993-0.8399999999999999q0.4125000000000014-0.03750000000000142 1.182500000000001-0.16625000000000156t1.40625-0.19500000000000028 1.1812499999999986-0.06875000000000142h0.2749999999999986z m-8.924999999999997-12.26625l-1.875 0.3924999999999983-0.11875000000000036-0.3324999999999996q0.19500000000000028-0.019999999999999574 0.6349999999999998-0.1374999999999993t0.6750000000000007-0.11625000000000085q0.370000000000001 0 0.682500000000001 0.19500000000000028z m3.807500000000001 12.38375h0.6050000000000004l0.19500000000000028 1.6212499999999963-0.8000000000000007 0.23375000000000057v-1.8537500000000016z m17.361249999999995-29.101249999999997z m0 1.3322676295501878e-15l-0.018749999999997158 0.09624999999999995-0.03750000000000142 0.03750000000000009 0.018749999999997158-0.05750000000000011z m0 0l0.022500000000000853-0.02124999999999977z"></path></svg>