<?xml version="1.0"?><svg viewBox="0 0 40 40" xmlns="http://www.w3.org/2000/svg" height="40" width="40"><path d="m36.2 18.9q0 4.4-2.2 8.1t-5.9 5.9-8.1 2.2q-2.3 0-4.6-0.7 1.2-1.9 1.6-3.4 0.2-0.7 1.2-4.5 0.4 0.8 1.5 1.4t2.4 0.6q2.6 0 4.6-1.4t3.1-4 1.1-5.7q0-2.4-1.3-4.5t-3.6-3.4-5.4-1.4q-2.2 0-4.1 0.7t-3.3 1.6-2.3 2.3-1.4 2.7-0.4 2.9q0 2.2 0.8 3.8t2.5 2.4q0.6 0.2 0.8-0.5 0-0.1 0.1-0.6t0.2-0.6q0.1-0.5-0.2-0.9-1.1-1.3-1.1-3.2 0-3.2 2.2-5.5t5.8-2.3q3.2 0 4.9 1.7t1.8 4.5q0 3.6-1.4 6.1t-3.7 2.5q-1.3 0-2.1-0.9t-0.5-2.2q0.2-0.7 0.6-2t0.6-2.1 0.3-1.6q0-1.1-0.6-1.8t-1.6-0.7q-1.3 0-2.3 1.2t-0.9 3q0 1.6 0.6 2.6l-2.1 8.8q-0.4 1.5-0.3 3.8-4.3-2-7-6t-2.7-8.9q0-4.4 2.2-8.1t5.9-5.9 8.1-2.2 8.1 2.2 5.9 5.9 2.2 8.1z"></path></svg>