<?xml version="1.0"?><svg viewBox="0 0 40 40" xmlns="http://www.w3.org/2000/svg" height="40" width="40"><path d="m6.5 12.6q0-2.3 0.8-4.3t2.2-3.5 3.2-2.6 3.9-1.7 4.2-0.5q3.4 0 6.2 1.4t4.7 4.1 1.8 6q0 2.1-0.4 4t-1.3 3.7-2.1 3.2-3 2.2-4 0.8q-1.5 0-2.9-0.7t-2-1.9q-0.2 0.9-0.6 2.4t-0.5 2-0.4 1.5-0.6 1.5-0.6 1.3-1 1.7-1.3 1.8l-0.3 0.1-0.2-0.2q-0.3-3.3-0.3-4 0-1.9 0.4-4.3t1.4-6.1 1.1-4.3q-0.6-1.3-0.6-3.5 0-1.8 1.1-3.3t2.7-1.6q1.3 0 2 0.9t0.8 2.1q0 1.4-1 4.1t-0.9 3.9q0 1.3 1 2.2t2.3 0.9q1.1 0 2.1-0.5t1.7-1.5 1.1-2 0.8-2.3 0.5-2.3 0.1-2.1q0-3.7-2.3-5.7t-6-2.1q-4.2 0-7.1 2.8t-2.8 6.9q0 0.9 0.3 1.8t0.5 1.4 0.6 0.9 0.3 0.7q0 0.6-0.3 1.5t-0.8 1q-0.1 0-0.4-0.1-1.1-0.3-1.9-1.2t-1.3-2-0.7-2.3-0.2-2.2z"></path></svg>