<?xml version="1.0"?><svg xmlns="http://www.w3.org/2000/svg" width="40" height="40" viewBox="0 0 40 40"><path d="m5.714285714285714 13.325714285714286q0-2.41 0.8371428571428572-4.542857142857143t2.3100000000000005-3.717142857142857 3.3928571428571423-2.7457142857142856 4.12857142857143-1.7428571428571429 4.511428571428571-0.5771428571428574q3.5285714285714285 0 6.562857142857144 1.4828571428571429t4.928571428571427 4.317142857142857 1.8999999999999986 6.408571428571428q0 2.1428571428571423-0.42428571428571615 4.1971428571428575t-1.3399999999999963 3.951428571428572-2.232857142857142 3.3357142857142854-3.2371428571428567 2.3000000000000007-4.21857142857143 0.8571428571428577q-1.5171428571428578 0-3.0142857142857125-0.7142857142857153t-2.1428571428571423-1.9628571428571426q-0.22142857142857153 0.8714285714285701-0.6242857142857154 2.514285714285716t-0.524285714285714 2.1185714285714283-0.4571428571428555 1.5857142857142854-0.581428571428571 1.5828571428571436-0.7142857142857135 1.3971428571428568-1.0285714285714285 1.7285714285714278-1.3828571428571426 1.932857142857145l-0.31428571428571495 0.11428571428571388-0.1999999999999993-0.2242857142857133q-0.3342857142857145-3.5042857142857144-0.3342857142857145-4.1971428571428575 0-2.0528571428571425 0.4814285714285713-4.609999999999999t1.4857142857142858-6.417142857142856 1.1571428571428566-4.53142857142857q-0.7142857142857135-1.451428571428572-0.7142857142857135-3.7714285714285722 0-1.854285714285714 1.161428571428571-3.4857142857142858t2.9471428571428557-1.6285714285714281q1.361428571428572 0 2.120000000000001 0.9042857142857148t0.7571428571428562 2.2885714285714283q0 1.4714285714285715-0.9814285714285731 4.261428571428571t-0.9828571428571422 4.174285714285713q0 1.4057142857142857 1.0042857142857144 2.3328571428571436t2.4328571428571415 0.9257142857142853q1.2285714285714278 0 2.277142857142856-0.5571428571428569t1.7528571428571418-1.518571428571427 1.2485714285714273-2.120000000000001 0.8485714285714288-2.4685714285714297 0.4471428571428575-2.477142857142857 0.1471428571428568-2.2214285714285715q0-3.861428571428571-2.442857142857143-6.014285714285714t-6.375714285714285-2.160000000000004q-4.462857142857143 0-7.454285714285714 2.891428571428572t-2.991428571428571 7.334285714285713q0 0.9828571428571422 0.27857142857142847 1.8971428571428568t0.6028571428571432 1.4514285714285702 0.6028571428571432 1.014285714285716 0.27857142857142847 0.6828571428571415q0 0.6257142857142846-0.3342857142857145 1.62857142857143t-0.8257142857142856 1.0057142857142871q-0.042857142857142705 0-0.3800000000000008-0.0671428571428585-1.138571428571428-0.3357142857142854-2.0199999999999996-1.2514285714285727t-1.3614285714285712-2.1099999999999994-0.7242857142857142-2.4085714285714257-0.24714285714285733-2.3771428571428572z"></path></svg>