<?xml version="1.0"?><svg viewBox="0 0 40 40" xmlns="http://www.w3.org/2000/svg" height="40" width="40"><path d="m30.1 2.7q2.5 0 4.3 1.8t1.8 4.3v20.2q0 2.5-1.8 4.3t-4.3 1.8h-15.3q1.8-2.6 2.3-4.4 0.2-0.7 1.1-4.4 0.5 0.8 1.6 1.4t2.4 0.6q3.8 0 6.2-3.1t2.4-7.9q0-1.8-0.7-3.5t-2.1-2.9-3.2-2-4.1-0.8q-2.2 0-4.1 0.6t-3.3 1.6-2.2 2.3-1.4 2.7-0.5 2.8q0 2.2 0.8 3.8t2.5 2.3q0.3 0.1 0.5 0t0.3-0.4q0.2-0.9 0.3-1.2 0.1-0.5-0.2-0.9-1.1-1.3-1.1-3.2 0-3.2 2.2-5.4t5.7-2.3q3.2 0 4.9 1.8t1.8 4.4q0 3.5-1.4 6t-3.7 2.5q-1.3 0-2.1-0.9t-0.4-2.2q0.1-0.7 0.5-1.9t0.6-2.2 0.3-1.6q0-1-0.6-1.7t-1.6-0.7q-1.3 0-2.2 1.2t-0.9 3q0 1.5 0.5 2.5l-2 8.7q-0.5 2.2-0.2 5.4h-3.8q-2.5 0-4.3-1.8t-1.8-4.3v-20.2q0-2.5 1.8-4.3t4.3-1.8h20.2z"></path></svg>