<?xml version="1.0"?><svg viewBox="0 0 40 40" xmlns="http://www.w3.org/2000/svg" height="40" width="40"><path d="m23.9 6.3q0.8 0.9 0.2 2.6t-1.9 3l-2.8 2.8 2.8 12.1q0.1 0.3-0.2 0.5l-2.2 1.7q-0.1 0.1-0.4 0.1 0 0-0.1 0-0.2-0.1-0.3-0.3l-4.9-8.8-4.5 4.5 0.9 3.3q0.1 0.3-0.1 0.6l-1.7 1.7q-0.1 0.1-0.4 0.1h0q-0.3 0-0.4-0.2l-3.3-4.4-4.4-3.3q-0.2-0.1-0.2-0.4 0-0.2 0.2-0.4l1.6-1.7q0.2-0.1 0.4-0.1 0.1 0 0.2 0l3.3 0.9 4.5-4.5-8.8-4.9q-0.2-0.1-0.3-0.4 0-0.2 0.2-0.4l2.2-2.3q0.2-0.2 0.5-0.1l11.6 2.8 2.7-2.8q1.4-1.3 3-1.9t2.6 0.2z"></path></svg>