<?xml version="1.0"?><svg viewBox="0 0 40 40" xmlns="http://www.w3.org/2000/svg" height="40" width="40"><path d="m34.2 3.4q0.9 1.1 0.2 3.1t-2.2 3.6l-3.4 3.4 3.3 14.7q0.1 0.4-0.2 0.7l-2.7 2q-0.2 0.2-0.4 0.2-0.1 0-0.2-0.1-0.3 0-0.4-0.3l-5.9-10.7-5.5 5.4 1.2 4.1q0.1 0.4-0.2 0.7l-2 2q-0.2 0.2-0.5 0.2h-0.1q-0.3 0-0.5-0.3l-4-5.3-5.3-4q-0.2-0.1-0.3-0.5 0-0.2 0.2-0.5l2.1-2q0.2-0.2 0.4-0.2 0.2 0 0.2 0l4.1 1.1 5.5-5.4-10.7-5.9q-0.3-0.2-0.4-0.5 0-0.4 0.2-0.6l2.7-2.7q0.3-0.3 0.6-0.2l14.1 3.4 3.3-3.4q1.6-1.6 3.7-2.3t3.1 0.3z"></path></svg>