<?xml version="1.0"?><svg xmlns="http://www.w3.org/2000/svg" width="40" height="40" viewBox="0 0 40 40"><path d="m29.285714285714285 20q0 0.8257142857142838-0.7142857142857153 1.2285714285714278l-12.142857142857142 7.142857142857142q-0.33428571428571274 0.20000000000000284-0.7142857142857117 0.20000000000000284-0.35714285714285765 0-0.7142857142857135-0.17857142857142705-0.7142857142857153-0.42428571428571615-0.7142857142857153-1.2500000000000036v-14.285714285714285q0-0.8257142857142856 0.7142857142857135-1.25 0.7371428571428567-0.40000000000000036 1.428571428571427 0.02285714285714313l12.142857142857142 7.142857142857144q0.7142857142857153 0.4028571428571439 0.7142857142857153 1.2285714285714278z m2.857142857142854 0q0-3.3028571428571425-1.62857142857143-6.094285714285714t-4.422857142857136-4.42-6.0914285714285725-1.6285714285714281-6.097142857142858 1.6285714285714281-4.417142857142856 4.42-1.6328571428571426 6.094285714285714 1.6285714285714281 6.094285714285714 4.421428571428573 4.419999999999998 6.097142857142856 1.6285714285714334 6.092857142857142-1.62857142857143 4.420000000000002-4.419999999999998 1.6300000000000026-6.094285714285718z m5 0q0 4.665714285714287-2.299999999999997 8.604285714285716t-6.237142857142857 6.238571428571426-8.605714285714285 2.3000000000000043-8.6-2.3000000000000043-6.242857142857143-6.238571428571426-2.295714285714286-8.604285714285716 2.3000000000000003-8.604285714285714 6.234285714285714-6.238571428571428 8.604285714285714-2.3000000000000003 8.605714285714285 2.3000000000000003 6.238571428571426 6.238571428571428 2.298571428571435 8.604285714285714z"></path></svg>