<?xml version="1.0"?><svg xmlns="http://www.w3.org/2000/svg" width="40" height="40" viewBox="0 0 40 40"><path d="m39.174285714285716 10.111428571428572q0.8257142857142838 0.8257142857142856 0.8257142857142838 2.008571428571429t-0.8257142857142838 2.031428571428572l-8.951428571428572 8.928571428571429 3.348571428571425 3.3485714285714288-3.5714285714285694 3.5714285714285694q-3.638571428571428 3.6385714285714315-8.694285714285716 4.162857142857142t-9.185714285714285-2.2428571428571438l-8.079999999999998 8.080000000000002h-4.040000000000001v-4.039999999999999l8.08-8.079999999999998q-2.767142857142858-4.12857142857143-2.242857142857143-9.185714285714283t4.162857142857143-8.69428571428572l3.571428571428571-3.571428571428571 3.348571428571427 3.3485714285714288 8.928571428571427-8.951428571428572q0.8485714285714323-0.8257142857142856 2.031428571428574-0.8257142857142856t2.008571428571429 0.8257142857142856 0.8257142857142874 2.02-0.8257142857142838 2.02l-8.92857142857143 8.951428571428572 5.222857142857144 5.222857142857144 8.951428571428572-8.928571428571429q0.8485714285714252-0.8257142857142856 2.0314285714285703-0.8257142857142856t2.008571428571429 0.8257142857142856z"></path></svg>