<?xml version="1.0"?><svg xmlns="http://www.w3.org/2000/svg" width="40" height="40" viewBox="0 0 40 40"><path d="m30 17.857142857142858v1.428571428571427q0 0.31428571428571317-0.1999999999999993 0.5142857142857125t-0.514285714285716 0.1999999999999993h-7.857142857142854v7.857142857142858q0 0.31428571428571317-0.1999999999999993 0.5142857142857125t-0.514285714285716 0.1999999999999993h-1.428571428571427q-0.31428571428571317 0-0.514285714285716-0.1999999999999993t-0.1999999999999993-0.5142857142857089v-7.857142857142858h-7.857142857142858q-0.31428571428571495 0-0.5142857142857142-0.1999999999999993t-0.20000000000000107-0.514285714285716v-1.428571428571427q0-0.31428571428571317 0.1999999999999993-0.514285714285716t0.514285714285716-0.1999999999999993h7.857142857142858v-7.857142857142856q0-0.31428571428571495 0.1999999999999993-0.5142857142857142t0.5142857142857125-0.20000000000000107h1.428571428571427q0.31428571428571317 0 0.514285714285716 0.1999999999999993t0.1999999999999993 0.5142857142857142v7.857142857142858h7.857142857142858q0.31428571428571317 0 0.5142857142857125 0.1999999999999993t0.1999999999999993 0.5142857142857125z m2.857142857142854 10v-18.571428571428573q0-1.4714285714285715-1.048571428571428-2.522857142857143t-2.5228571428571414-1.0485714285714272h-18.571428571428573q-1.4714285714285715 0-2.522857142857143 1.048571428571429t-1.0485714285714254 2.522857142857143v18.571428571428577q0 1.4714285714285715 1.048571428571429 2.5228571428571414t2.522857142857143 1.048571428571428h18.571428571428573q1.4714285714285715 0 2.522857142857145-1.048571428571428t1.048571428571428-2.522857142857145z m2.857142857142854-18.571428571428573v18.571428571428573q0 2.6571428571428584-1.8857142857142861 4.542857142857141t-4.542857142857137 1.8857142857142861h-18.571428571428573q-2.6571428571428584 0-4.542857142857144-1.8857142857142861t-1.8857142857142826-4.542857142857141v-18.571428571428573q0-2.6571428571428575 1.8857142857142861-4.542857142857144t4.542857142857144-1.885714285714284h18.571428571428573q2.6571428571428584 0 4.542857142857141 1.8857142857142857t1.8857142857142861 4.542857142857144z"></path></svg>