<?xml version="1.0"?><svg xmlns="http://www.w3.org/2000/svg" width="40" height="40" viewBox="0 0 40 40"><path d="m35.714285714285715 16.42857142857143v4.285714285714285q0 0.8928571428571423-0.6257142857142881 1.5171428571428578t-1.5171428571428578 0.6257142857142846h-9.285714285714285v9.285714285714288q0 0.8928571428571459-0.6257142857142846 1.5171428571428578t-1.5171428571428578 0.625714285714281h-4.285714285714285q-0.8928571428571423 0-1.5171428571428578-0.6257142857142881t-0.6257142857142846-1.5171428571428507v-9.285714285714288h-9.285714285714286q-0.8928571428571432 0-1.5171428571428578-0.6257142857142846t-0.6257142857142854-1.5171428571428578v-4.285714285714285q0-0.8928571428571423 0.6257142857142854-1.5171428571428578t1.5171428571428578-0.6257142857142863h9.285714285714286v-9.285714285714286q0-0.8928571428571432 0.6257142857142846-1.5171428571428573t1.5171428571428578-0.6257142857142854h4.285714285714285q0.8928571428571423 0 1.5171428571428578 0.6257142857142859t0.6257142857142846 1.517142857142857v9.285714285714286h9.285714285714285q0.8928571428571459 0 1.5171428571428578 0.6257142857142863t0.6257142857142881 1.5171428571428578z"></path></svg>