<?xml version="1.0"?><svg viewBox="0 0 40 40" xmlns="http://www.w3.org/2000/svg" height="40" width="40"><path d="m21.1 20.2v-2.2q0-0.5-0.3-0.8t-0.8-0.3h-4.4v-4.5q0-0.4-0.4-0.8t-0.8-0.3h-2.2q-0.4 0-0.8 0.3t-0.3 0.8v4.5h-4.4q-0.5 0-0.8 0.3t-0.3 0.8v2.2q0 0.5 0.3 0.8t0.8 0.3h4.4v4.5q0 0.4 0.3 0.7t0.8 0.4h2.2q0.5 0 0.8-0.4t0.4-0.7v-4.5h4.4q0.5 0 0.8-0.3t0.3-0.8z m3.8-7.8q1.8 3.1 1.8 6.7t-1.8 6.7q-1.8 3.1-4.9 4.8t-6.7 1.8q-3.6 0-6.7-1.8t-4.8-4.8q-1.8-3.1-1.8-6.7t1.8-6.7q1.8-3.1 4.8-4.8t6.7-1.8q3.7 0 6.7 1.8t4.9 4.8z"></path></svg>