<?xml version="1.0"?><svg viewBox="0 0 40 40" xmlns="http://www.w3.org/2000/svg" height="40" width="40"><path d="m36.2 18.9q0 3.3-1.3 6.3t-3.4 5.2-5.2 3.4-6.3 1.3-6.3-1.3-5.2-3.4-3.4-5.2-1.3-6.3q0-3.8 1.7-7.2t4.8-5.7q0.9-0.7 2-0.6t1.8 1.1q0.6 0.9 0.5 2t-1.1 1.8q-2 1.5-3.2 3.8t-1.1 4.8q0 2.2 0.9 4.2t2.3 3.4 3.4 2.3 4.2 0.9 4.2-0.9 3.4-2.3 2.3-3.4 0.9-4.2q0-2.6-1.1-4.8t-3.2-3.8q-0.9-0.7-1.1-1.8t0.5-2q0.7-0.9 1.8-1.1t2 0.6q3.1 2.3 4.8 5.7t1.7 7.2z m-13.5-16.2v13.5q0 1.1-0.8 1.9t-1.9 0.8-1.9-0.8-0.8-1.9v-13.5q0-1.1 0.8-1.9t1.9-0.8 1.9 0.8 0.8 1.9z"></path></svg>