<?xml version="1.0"?><svg xmlns="http://www.w3.org/2000/svg" width="40" height="40" viewBox="0 0 40 40"><path d="m38.57142857142857 24.50857142857143q0 1.8085714285714296-0.9928571428571402 3.0142857142857125t-2.75714285714286 1.2042857142857137q-0.914285714285711 0-1.7285714285714278-0.39142857142857324t-1.3185714285714276-0.8485714285714288-1.2614285714285707-0.8485714285714288-1.5857142857142854-0.39000000000000057q-2.457142857142859 0-2.457142857142859 2.767142857142858 0 0.8714285714285701 0.35714285714285765 2.5671428571428585t0.3357142857142854 2.5657142857142894v0.11142857142856855q-0.4914285714285711 0-0.7371428571428567 0.022857142857141355-0.7600000000000016 0.06714285714285495-2.177142857142858 0.2571428571428598t-2.578571428571429 0.29999999999999716-2.185714285714287 0.11428571428571388q-1.361428571428572 0-2.3000000000000007-0.5928571428571416t-0.9357142857142868-1.8642857142857139q0-0.8257142857142838 0.39000000000000057-1.5857142857142854t0.8485714285714288-1.2600000000000016 0.8485714285714288-1.3171428571428585 0.39000000000000057-1.7285714285714278q0-1.764285714285716-1.2071428571428555-2.7571428571428562t-3.0114285714285707-0.9914285714285676q-1.8742857142857137 0-3.1900000000000013 1.014285714285716t-1.317142857142855 2.8485714285714288q0 0.9600000000000009 0.3342857142857145 1.8528571428571432t0.7471428571428564 1.4400000000000013 0.7471428571428564 1.1828571428571415 0.3342857142857145 1.1285714285714263q0 1.0028571428571453-1.0285714285714285 1.9857142857142875-0.8242857142857147 0.7814285714285703-2.6099999999999994 0.7814285714285703-2.12 0-5.468571428571429-0.5357142857142847-0.20285714285714285-0.04285714285714448-0.6142857142857143-0.09000000000000341t-0.6142857142857143-0.09000000000000341l-0.29142857142857137-0.04285714285714448q-0.02285714285714291 0-0.06714285714285717-0.024285714285717575-0.04571428571428582 0-0.04571428571428582-0.022857142857141355v-22.857142857142847q0.04285714285714293 0.021428571428570464 0.3900000000000001 0.07714285714285474t0.7599999999999998 0.1114285714285721 0.48 0.07857142857142918q3.3485714285714283 0.5357142857142865 5.468571428571428 0.5357142857142865 1.7857142857142865 0 2.611428571428572-0.781428571428572 1.0285714285714285-0.9828571428571422 1.0285714285714285-1.9857142857142858 0-0.492857142857142-0.3357142857142854-1.1285714285714281t-0.7485714285714291-1.1828571428571433-0.7442857142857147-1.4385714285714295-0.33285714285714185-1.8571428571428568q0-1.8285714285714287 1.314285714285715-2.8457142857142856t3.2142857142857135-1.011428571428572q1.7857142857142847 0 2.9928571428571438 0.9914285714285713t1.2057142857142864 2.757142857142857q0 0.9142857142857146-0.3914285714285697 1.7285714285714286t-0.8485714285714288 1.3185714285714285-0.8485714285714288 1.2614285714285716-0.39000000000000057 1.5857142857142854q0 1.2714285714285722 0.937142857142856 1.862857142857143t2.3000000000000007 0.5914285714285707q1.428571428571427 0 4.017142857142858-0.3342857142857145t3.639999999999997-0.379999999999999v0.042857142857142705q-0.024285714285714022 0.04571428571428626-0.0799999999999983 0.39142857142857146t-0.1114285714285721 0.757142857142858-0.07857142857142918 0.4814285714285713q-0.5342857142857156 3.347142857142858-0.5342857142857156 5.467142857142855 0 1.7857142857142847 0.7814285714285703 2.611428571428572 0.9828571428571422 1.0285714285714285 1.985714285714284 1.0285714285714285 0.49285714285714377 0 1.12857142857143-0.3357142857142854t1.1828571428571415-0.7471428571428582 1.4428571428571395-0.7471428571428582 1.8471428571428703-0.3328571428571401q1.8285714285714292 0 2.845714285714287 1.3171428571428585t1.0142857142857125 3.1914285714285704z"></path></svg>