<?xml version="1.0"?><svg viewBox="0 0 40 40" xmlns="http://www.w3.org/2000/svg" height="40" width="40"><path d="m28.9 22.6q0 1.4-0.8 2.3t-2.1 1q-0.7 0-1.4-0.3t-1-0.7q-0.4-0.3-1-0.6t-1.2-0.3q-1.9 0-1.9 2.1 0 0.7 0.3 2t0.2 2v0.1q-0.4 0-0.6 0-0.5 0.1-1.6 0.2t-2.1 0.2q-0.9 0.1-1.7 0.1-1 0-1.7-0.4t-0.8-1.5q0-0.6 0.3-1.2t0.7-1q0.3-0.4 0.7-1t0.3-1.4q0-1.3-1-2.1t-2.3-0.8q-1.5 0-2.5 0.8t-1 2.2q0 0.8 0.2 1.5t0.6 1.1q0.3 0.4 0.6 0.9t0.3 0.9q0 0.8-0.8 1.5-0.7 0.6-2.1 0.6-1.6 0-4.2-0.4-0.2 0-0.5-0.1t-0.5 0l-0.2-0.1q0 0-0.1 0 0 0 0 0v-17.8q0 0 0.3 0.1t0.6 0.1q0.3 0 0.4 0 2.6 0.5 4.2 0.5 1.4 0 2.1-0.7 0.8-0.7 0.8-1.5 0-0.4-0.3-0.9t-0.6-0.9q-0.3-0.4-0.6-1.1t-0.2-1.5q0-1.4 1-2.2t2.5-0.8q1.4 0 2.3 0.8t1 2.2q0 0.7-0.3 1.3t-0.7 1q-0.4 0.4-0.7 1t-0.3 1.2q0 1 0.8 1.5t1.7 0.5q1.2 0 3.2-0.3t2.8-0.3v0q0 0.1-0.1 0.3t0 0.6q-0.1 0.3-0.1 0.4-0.4 2.6-0.4 4.3 0 1.3 0.6 2 0.7 0.8 1.5 0.8 0.4 0 0.9-0.3t0.9-0.6q0.5-0.3 1.1-0.5t1.5-0.3q1.4 0 2.2 1t0.8 2.5z"></path></svg>