<?xml version="1.0"?><svg viewBox="0 0 40 40" xmlns="http://www.w3.org/2000/svg" height="40" width="40"><path d="m6.8 17q-0.2-0.4-0.2-1.1 0-0.4 0.3-1t0.5-1q-0.1-0.4 0.1-1.1t0.5-0.9q0-2.9 1.9-6.1t4.6-4.4q3-1.4 6.9-1.4 2.8 0 5.6 1.2 1 0.4 1.9 1t1.5 1.2 1.1 1.4 0.9 1.5 0.7 1.8 0.5 1.9 0.5 2.1l0 0.1q1.2 1.7 1.2 3.2 0 0.3-0.2 0.8t-0.2 0.8q0 0 0 0.1t0.1 0.1 0.1 0.1q1.6 2.4 2.5 4.5t0.9 4.4q0 0.9-0.4 2.1t-1.2 1.2q-0.1 0-0.4-0.2t-0.4-0.3-0.4-0.6-0.3-0.5-0.3-0.6-0.2-0.4q0 0 0 0l-0.2 0.1q-1.2 3.3-2.7 4.7 0.4 0.4 1.3 0.8t1.4 0.9 0.8 1.4q-0.1 0.1-0.1 0.3t-0.2 0.4q-1.3 2-6.3 2-1.2 0-2.4-0.2t-2-0.4-2.2-0.6q-0.4-0.1-0.5-0.2-0.3 0-1-0.1t-0.8 0q-0.9 1-2.7 1.4t-3.6 0.4q-0.7 0-1.4 0t-2-0.2-2.1-0.4-1.6-0.9-0.7-1.3q0-0.9 0.2-1.3t0.9-1q0.2-0.1 0.8-0.3t1.1-0.2q0.1 0 0.3-0.1 0 0 0-0.1l0 0q-1-0.3-2.3-2.3t-1.5-3.3l-0.1 0q-0.1 0-0.3 0.4-0.4 0.9-1.1 1.6t-1.7 0.8h0q-0.1 0-0.1-0.1t-0.1-0.2q-0.5-1.1-0.5-2.1 0-5.8 5.3-9.8z"></path></svg>