<?xml version="1.0"?><svg xmlns="http://www.w3.org/2000/svg" width="40" height="40" viewBox="0 0 40 40"><path d="m6.0285714285714285 17.99142857142857q-0.17999999999999972-0.4242857142857126-0.17999999999999972-1.1600000000000001 0-0.4471428571428575 0.24571428571428555-1.0942857142857143t0.5357142857142856-1.0042857142857144q-0.021428571428571352-0.4914285714285711 0.16857142857142815-1.1828571428571433t0.5028571428571427-0.9600000000000009q0-3.102857142857143 2.064285714285714-6.44t4.854285714285714-4.675714285714286q3.102857142857143-1.4714285714285715 7.232857142857142-1.4714285714285715 2.9685714285714297 0 5.937142857142856 1.2257142857142858 1.0942857142857143 0.46857142857142864 2.008571428571429 1.0714285714285714t1.5857142857142854 1.25 1.2257142857142824 1.5171428571428578 0.9371428571428595 1.6514285714285712 0.7257142857142824 1.8857142857142861 0.5685714285714312 1.9971428571428564 0.4914285714285711 2.1885714285714286l0.022857142857141355 0.1114285714285721q1.2285714285714278 1.8528571428571432 1.2285714285714278 3.348571428571427 0 0.31428571428571317-0.20285714285714107 0.8928571428571423t-0.20000000000000284 0.8471428571428561q0 0.022857142857141355 0.03142857142857025 0.07857142857142918t0.07857142857142918 0.1114285714285721 0.04285714285714448 0.07857142857142918q1.7199999999999989 2.5457142857142863 2.691428571428574 4.789999999999999t0.9714285714285751 4.654285714285717q0 0.96142857142857-0.4357142857142833 2.234285714285715t-1.2385714285714258 1.2714285714285722q-0.20000000000000284 0-0.4357142857142833-0.16571428571428726t-0.42428571428571615-0.39000000000000057-0.42428571428571615-0.5800000000000018-0.3571428571428541-0.5928571428571416-0.29999999999999716-0.5799999999999983-0.20285714285714107-0.3914285714285697q-0.022857142857141355-0.022857142857141355-0.06714285714285495-0.022857142857141355l-0.11142857142856855 0.08999999999999986q-1.3185714285714312 3.437142857142856-2.9485714285714266 4.977142857142855 0.4471428571428575 0.4471428571428575 1.3714285714285737 0.8599999999999994t1.5428571428571445 0.9242857142857162 0.7914285714285683 1.451428571428572q-0.04285714285714448 0.09000000000000341-0.09000000000000341 0.3571428571428541t-0.15714285714285836 0.3999999999999986q-1.4285714285714306 2.1671428571428564-6.740000000000002 2.1671428571428564-1.1857142857142868 0-2.4685714285714297-0.20000000000000284t-2.185714285714287-0.4485714285714266-2.3342857142857127-0.6714285714285708q-0.33428571428571274-0.10999999999999943-0.514285714285716-0.15428571428571303-0.3114285714285714-0.09000000000000341-1.0257142857142867-0.10000000000000142t-0.8928571428571423-0.032857142857139365q-0.9142857142857146 1.0042857142857144-2.845714285714287 1.451428571428572t-3.7614285714285707 0.4485714285714266q-0.781428571428572 0-1.5399999999999991-0.032857142857139365t-2.0757142857142856-0.20000000000000284-2.257142857142857-0.4571428571428555-1.661428571428572-0.8928571428571459-0.725714285714286-1.4285714285714306q0-0.8928571428571459 0.22142857142857153-1.3285714285714292t0.9142857142857146-1.0828571428571436q0.24714285714285733-0.04285714285714448 0.9057142857142857-0.28999999999999915t1.1028571428571432-0.2671428571428578q0.08999999999999986 0 0.31428571428571495-0.04285714285714448 0.042857142857142705-0.04571428571428271 0.042857142857142705-0.09142857142857252l-0.042857142857142705-0.06714285714285495q-1.0714285714285712-0.24571428571428555-2.411428571428571-2.354285714285716t-1.6285714285714281-3.4928571428571438l-0.11428571428571388-0.0671428571428585q-0.08857142857142897 0-0.265714285714286 0.4471428571428575-0.3999999999999999 0.9142857142857146-1.217142857142857 1.6614285714285728t-1.7285714285714286 0.8371428571428581h-0.020000000000010676q-0.09142857142857141 0-0.13571428571428568-0.10000000000000142t-0.11142857142857143-0.12428571428571544q-0.5142857142857142-1.2057142857142864-0.5142857142857142-2.232857142857142 0-6.138571428571428 5.628571428571429-10.400000000000002z"></path></svg>