<?xml version="1.0"?><svg viewBox="0 0 40 40" xmlns="http://www.w3.org/2000/svg" height="40" width="40"><path d="m4.7 17.5q-0.2-0.3-0.2-0.9 0-0.3 0.2-0.8t0.5-0.8q-0.1-0.4 0.1-0.9t0.4-0.8q0-2.4 1.6-5t3.8-3.6q2.4-1.2 5.6-1.2 2.3 0 4.6 1 0.9 0.4 1.6 0.8t1.2 1q0.5 0.5 1 1.2t0.7 1.3q0.3 0.6 0.5 1.4t0.5 1.6q0.2 0.7 0.4 1.7l0 0.1q0.9 1.4 0.9 2.6 0 0.2-0.1 0.7t-0.2 0.6q0 0.1 0.1 0.1t0 0.1q0.1 0 0.1 0 1.3 2 2 3.8t0.8 3.6q0 0.7-0.3 1.7t-1 1q-0.2 0-0.3-0.1t-0.4-0.3q-0.1-0.2-0.3-0.5t-0.3-0.4q-0.1-0.2-0.2-0.5t-0.2-0.3q0 0 0 0l-0.1 0.1q-1 2.6-2.3 3.8 0.3 0.4 1.1 0.7t1.2 0.7q0.4 0.4 0.6 1.2-0.1 0-0.1 0.2t-0.1 0.3q-1.1 1.7-5.3 1.7-0.9 0-1.9-0.1t-1.7-0.4q-0.7-0.2-1.8-0.5-0.2-0.1-0.4-0.1-0.2-0.1-0.8-0.1t-0.7 0q-0.7 0.8-2.2 1.1t-2.9 0.4q-0.6 0-1.2-0.1t-1.6-0.1q-1.1-0.2-1.8-0.4t-1.3-0.7q-0.5-0.4-0.5-1.1 0-0.7 0.1-1t0.7-0.9q0.2 0 0.7-0.2t0.9-0.2q0.1 0 0.2 0 0.1-0.1 0.1-0.1l-0.1-0.1q-0.8-0.1-1.8-1.8t-1.3-2.7l-0.1-0.1q0 0-0.2 0.4-0.3 0.7-0.9 1.3t-1.4 0.6h0q-0.1 0-0.1 0t-0.1-0.1q-0.4-1-0.4-1.8 0-4.8 4.4-8.1z"></path></svg>