<?xml version="1.0"?><svg viewBox="0 0 40 40" xmlns="http://www.w3.org/2000/svg" height="40" width="40"><path d="m6.7 23.5v2.3h-2.3v-2.3h2.3z m0-13.3v2.2h-2.3v-2.2h2.3z m13.3 0v2.2h-2.2v-2.2h2.2z m-17.8 17.8h6.7v-6.7h-6.7v6.7z m0-13.3h6.7v-6.7h-6.7v6.7z m13.4 0h6.6v-6.7h-6.6v6.7z m-4.5 4.4v11.1h-11.1v-11.1h11.1z m8.9 8.9v2.2h-2.2v-2.2h2.2z m4.4 0v2.2h-2.2v-2.2h2.2z m0-8.9v6.7h-6.6v-2.3h-2.2v6.7h-2.3v-11.1h6.7v2.2h2.2v-2.2h2.2z m-13.3-13.3v11.1h-11.1v-11.1h11.1z m13.3 0v11.1h-11.1v-11.1h11.1z"></path></svg>