<?xml version="1.0"?><svg xmlns="http://www.w3.org/2000/svg" width="40" height="40" viewBox="0 0 40 40"><path d="m12.857142857142858 25.714285714285715v2.8571428571428577h-2.8571428571428577v-2.8571428571428577h2.8571428571428577z m0-17.142857142857146v2.8571428571428594h-2.8571428571428577v-2.8571428571428577h2.8571428571428577z m17.142857142857142 1.7763568394002505e-15v2.8571428571428577h-2.8571428571428577v-2.8571428571428577h2.8571428571428577z m-22.857142857142858 22.83428571428572h8.571428571428573v-8.548571428571432h-8.571428571428573v8.548571428571428z m8.881784197001252e-16-17.120000000000005h8.571428571428573v-8.57142857142857h-8.571428571428573v8.57142857142857z m17.142857142857142 1.7763568394002505e-15h8.57142857142857v-8.571428571428573h-8.57142857142857v8.571428571428571z m-5.714285714285715 5.7142857142857135v14.285714285714285h-14.285714285714285v-14.285714285714285h14.285714285714288z m11.42857142857143 11.42857142857143v2.857142857142854h-2.8571428571428577v-2.8571428571428577h2.8571428571428577z m5.714285714285715 0v2.857142857142854h-2.857142857142854v-2.8571428571428577h2.857142857142854z m0-11.42857142857143v8.57142857142857h-8.57142857142857v-2.8571428571428577h-2.8571428571428577v8.571428571428573h-2.8571428571428577v-14.285714285714285h8.57142857142857v2.8571428571428577h2.857142857142854v-2.8571428571428577h2.857142857142854z m-17.142857142857142-17.142857142857142v14.285714285714285h-14.285714285714288v-14.285714285714285h14.285714285714288z m17.142857142857142-4.440892098500626e-16v14.285714285714285h-14.285714285714285v-14.285714285714285h14.285714285714285z"></path></svg>