<?xml version="1.0"?><svg viewBox="0 0 40 40" xmlns="http://www.w3.org/2000/svg" height="40" width="40"><path d="m13.2 24.3v2.7h-2.7v-2.7h2.7z m0-16.2v2.7h-2.7v-2.7h2.7z m16.3 0v2.7h-2.7v-2.7h2.7z m-21.7 21.6h8.1v-8.1h-8.1v8.1z m0-16.2h8.1v-8.1h-8.1v8.1z m16.3 0h8.1v-8.1h-8.1v8.1z m-5.5 5.4v13.5h-13.5v-13.5h13.5z m10.9 10.8v2.7h-2.7v-2.7h2.7z m5.4 0v2.7h-2.7v-2.7h2.7z m0-10.8v8.1h-8.1v-2.7h-2.7v8.1h-2.7v-13.5h8.1v2.7h2.7v-2.7h2.7z m-16.3-16.2v13.5h-13.5v-13.5h13.5z m16.3 0v13.5h-13.5v-13.5h13.5z"></path></svg>