<?xml version="1.0"?><svg viewBox="0 0 40 40" xmlns="http://www.w3.org/2000/svg" height="40" width="40"><path d="m15.6 27.4v-3.3q0-0.2-0.2-0.4t-0.4-0.2h-3.3q-0.3 0-0.4 0.2t-0.2 0.4v3.3q0 0.3 0.2 0.4t0.4 0.2h3.3q0.2 0 0.4-0.2t0.2-0.4z m4.4-11.6q0-1.6-1-2.9t-2.4-2q-1.4-0.7-2.9-0.7-4.2 0-6.5 3.7-0.2 0.4 0.2 0.7l2.3 1.8q0.1 0.1 0.3 0.1 0.3 0 0.4-0.2 1-1.2 1.5-1.6 0.6-0.4 1.5-0.4 0.9 0 1.5 0.4t0.7 1q0 0.7-0.4 1.1t-1.2 0.8q-1.1 0.5-2 1.5t-0.9 2.1v0.7q0 0.2 0.2 0.4t0.4 0.1h3.3q0.2 0 0.4-0.1t0.2-0.4q0-0.4 0.3-0.9t1-0.8q0.5-0.4 0.8-0.5t0.8-0.6q0.5-0.5 0.8-0.9t0.5-1q0.2-0.7 0.2-1.4z m4.9-3.4q1.8 3.1 1.8 6.7t-1.8 6.7q-1.8 3.1-4.9 4.8t-6.7 1.8q-3.6 0-6.7-1.8t-4.8-4.8q-1.8-3.1-1.8-6.7t1.8-6.7q1.8-3.1 4.8-4.8t6.7-1.8q3.7 0 6.7 1.8t4.9 4.8z"></path></svg>