<?xml version="1.0"?><svg viewBox="0 0 40 40" xmlns="http://www.w3.org/2000/svg" height="40" width="40"><path d="m23.7 26.5v5.1q0 0.3-0.3 0.6t-0.5 0.2h-5.1q-0.3 0-0.6-0.2t-0.3-0.6v-5.1q0-0.3 0.3-0.6t0.6-0.2h5.1q0.3 0 0.5 0.2t0.3 0.6z m6.7-12.7q0 1.2-0.4 2.2t-0.7 1.6-1.2 1.2-1.2 1-1.3 0.7q-0.8 0.5-1.4 1.4t-0.6 1.4q0 0.3-0.2 0.7t-0.6 0.3h-5.1q-0.3 0-0.5-0.4t-0.3-0.8v-0.9q0-1.8 1.4-3.3t3-2.3q1.3-0.6 1.8-1.2t0.5-1.6q0-0.9-0.9-1.6t-2.3-0.6q-1.4 0-2.3 0.6-0.7 0.5-2.2 2.4-0.3 0.3-0.7 0.3-0.3 0-0.5-0.1l-3.5-2.7q-0.3-0.2-0.3-0.5t0.1-0.6q3.4-5.6 9.8-5.6 1.7 0 3.4 0.7t3.1 1.7 2.2 2.7 0.9 3.3z"></path></svg>