<?xml version="1.0"?><svg viewBox="0 0 40 40" xmlns="http://www.w3.org/2000/svg" height="40" width="40"><path d="m12.2 25.3v4.2q0 0.3-0.2 0.5t-0.5 0.2h-4.1q-0.3 0-0.5-0.2t-0.2-0.5v-4.2q0-0.2 0.2-0.4t0.5-0.2h4.1q0.3 0 0.5 0.2t0.2 0.4z m5.5-10.4q0 1-0.3 1.8t-0.6 1.3q-0.3 0.5-0.9 1t-1 0.8q-0.4 0.2-1.1 0.6-0.7 0.4-1.2 1.1t-0.4 1.2q0 0.3-0.3 0.6t-0.4 0.2h-4.2q-0.3 0-0.5-0.3t-0.1-0.6v-0.8q0-1.5 1.1-2.7t2.5-1.9q1-0.5 1.4-1t0.5-1.3q0-0.7-0.8-1.3t-1.9-0.5q-1.1 0-1.9 0.5-0.6 0.4-1.8 2-0.3 0.2-0.6 0.2-0.2 0-0.4-0.1l-2.9-2.2q-0.2-0.2-0.2-0.4t0.1-0.5q2.7-4.6 8-4.6 1.4 0 2.8 0.5t2.6 1.5q1.1 0.9 1.8 2.2t0.7 2.7z"></path></svg>