<?xml version="1.0"?><svg viewBox="0 0 40 40" xmlns="http://www.w3.org/2000/svg" height="40" width="40"><path d="m18.6 6.8v14.8q0 2.2-0.8 4.2t-2.3 3.4-3.5 2.3-4.2 0.9h-1.3q-0.6 0-1-0.4t-0.4-0.9v-2.7q0-0.6 0.4-1t1-0.4h1.3q2.3 0 3.9-1.6t1.5-3.8v-0.7q0-0.8-0.5-1.4t-1.5-0.6h-4.7q-1.7 0-2.9-1.2t-1.2-2.8v-8.1q0-1.7 1.2-2.9t2.9-1.2h8.1q1.7 0 2.9 1.2t1.1 2.9z m19 0v14.8q0 2.2-0.9 4.2t-2.3 3.4-3.5 2.3-4.1 0.9h-1.4q-0.5 0-0.9-0.4t-0.4-0.9v-2.7q0-0.6 0.4-1t0.9-0.4h1.4q2.2 0 3.8-1.6t1.6-3.8v-0.7q0-0.8-0.6-1.4t-1.5-0.6h-4.7q-1.7 0-2.9-1.2t-1.1-2.8v-8.1q0-1.7 1.1-2.9t2.9-1.2h8.1q1.7 0 2.9 1.2t1.2 2.9z"></path></svg>