<?xml version="1.0"?><svg xmlns="http://www.w3.org/2000/svg" width="40" height="40" viewBox="0 0 40 40"><path d="m18.571428571428573 7.142857142857143v15.714285714285715q0 2.321428571428573-0.904285714285713 4.431428571428572t-2.442857142857143 3.6499999999999986-3.6514285714285712 2.442857142857143-4.428571428571429 0.9057142857142821h-1.4300000000000024q-0.5814285714285718 0-1.0057142857142862-0.42285714285713993t-0.4228571428571426-1.0071428571428527v-2.8571428571428577q0-0.5785714285714292 0.4228571428571426-1.0028571428571418t1.0057142857142862-0.4257142857142888h1.4285714285714288q2.3642857142857148 0 4.038571428571429-1.6714285714285708t1.6757142857142853-4.0428571428571445v-0.7142857142857153q0-0.8914285714285732-0.6285714285714281-1.514285714285716t-1.5142857142857142-0.6285714285714263h-5.000000000000001q-1.7857142857142856 0-3.037142857142857-1.2485714285714273t-1.2485714285714289-3.0371428571428574v-8.571428571428573q0-1.7857142857142847 1.2485714285714284-3.034285714285714t3.0371428571428574-1.2514285714285713h8.57142857142857q1.7857142857142847 0 3.0342857142857156 1.2514285714285713t1.2514285714285727 3.0342857142857147z m19.999999999999996 0v15.714285714285715q0 2.321428571428573-0.904285714285713 4.431428571428572t-2.442857142857143 3.6499999999999986-3.6514285714285712 2.442857142857143-4.428571428571427 0.9057142857142821h-1.428571428571427q-0.581428571428571 0-1.0057142857142871-0.42285714285713993t-0.42428571428571615-1.0071428571428527v-2.8571428571428577q0-0.5785714285714292 0.4228571428571435-1.0028571428571418t1.0057142857142871-0.4257142857142888h1.428571428571427q2.364285714285714 0 4.0385714285714265-1.6714285714285708t1.6757142857142924-4.0428571428571445v-0.7142857142857153q0-0.8914285714285732-0.6285714285714263-1.514285714285716t-1.5142857142857196-0.6285714285714263h-5q-1.7857142857142847 0-3.0371428571428574-1.2485714285714273t-1.2485714285714273-3.0371428571428574v-8.571428571428573q0-1.7857142857142847 1.2485714285714273-3.034285714285714t3.0371428571428574-1.2514285714285713h8.57142857142857q1.7857142857142847 0 3.0342857142857156 1.2514285714285713t1.2514285714285691 3.0342857142857147z"></path></svg>