<?xml version="1.0"?><svg xmlns="http://www.w3.org/2000/svg" width="40" height="40" viewBox="0 0 40 40"><path d="m18.571428571428573 21.42857142857143v8.57142857142857q0 1.7857142857142847-1.25 3.0357142857142847t-3.0357142857142865 1.25h-8.571428571428573q-1.7857142857142847 0-3.0357142857142847-1.25t-1.2500000000000002-3.0357142857142847v-15.714285714285714q0-2.321428571428571 0.9042857142857141-4.431428571428571t2.442857142857143-3.6500000000000004 3.652857142857143-2.442857142857144 4.428571428571429-0.907142857142857h1.4285714285714288q0.581428571428571 0 1.0057142857142853 0.42285714285714304t0.4228571428571435 1.008571428571428v2.8571428571428568q0 0.5785714285714283-0.4228571428571435 1.0028571428571436t-1.0057142857142853 0.42571428571428527h-1.4285714285714288q-2.362857142857143 0-4.037142857142857 1.6714285714285726t-1.677142857142857 4.042857142857143v0.7142857142857135q0 0.8914285714285715 0.628571428571429 1.514285714285716t1.5142857142857142 0.6285714285714263h5q1.7857142857142865 0 3.0371428571428556 1.2485714285714273t1.2485714285714309 3.037142857142861z m19.999999999999996 0v8.57142857142857q0 1.7857142857142847-1.25 3.0357142857142847t-3.0357142857142847 1.25h-8.57142857142857q-1.7857142857142847 0-3.0357142857142847-1.25t-1.25-3.0357142857142847v-15.714285714285714q0-2.321428571428571 0.904285714285713-4.431428571428571t2.442857142857143-3.6500000000000004 3.6514285714285712-2.442857142857143 4.428571428571427-0.9057142857142857h1.4285714285714306q0.5814285714285745 0 1.0057142857142836 0.4228571428571426t0.42428571428571615 1.0071428571428562v2.8571428571428568q0 0.5785714285714283-0.42285714285713993 1.0028571428571436t-1.0057142857142907 0.42571428571428527h-1.4285714285714306q-2.364285714285714 0-4.03857142857143 1.6714285714285708t-1.6757142857142817 4.0428571428571445v0.7142857142857135q0 0.8914285714285715 0.6285714285714299 1.514285714285716t1.514285714285716 0.6285714285714299h4.9999999999999964q1.7857142857142847 0 3.037142857142854 1.2485714285714273t1.2485714285714309 3.0371428571428574z"></path></svg>