<?xml version="1.0"?><svg viewBox="0 0 40 40" xmlns="http://www.w3.org/2000/svg" height="40" width="40"><path d="m13.3 9.1v12.2q0 1.8-0.7 3.5t-1.9 2.8q-1.2 1.2-2.8 1.9t-3.5 0.7h-1.1q-0.4 0-0.7-0.3t-0.4-0.8v-2.2q0-0.5 0.4-0.8t0.7-0.3h1.1q1.9 0 3.2-1.3t1.3-3.2v-0.5q0-0.7-0.5-1.2t-1.2-0.5h-3.9q-1.4 0-2.3-1t-1-2.3v-6.7q0-1.4 1-2.4t2.3-0.9h6.7q1.4 0 2.4 0.9t0.9 2.4z m15.6 0v12.2q0 1.8-0.7 3.5t-1.9 2.8q-1.2 1.2-2.9 1.9t-3.4 0.7h-1.1q-0.5 0-0.8-0.3t-0.3-0.8v-2.2q0-0.5 0.3-0.8t0.8-0.3h1.1q1.8 0 3.1-1.3t1.3-3.2v-0.5q0-0.7-0.4-1.2t-1.2-0.5h-3.9q-1.4 0-2.4-1t-0.9-2.3v-6.7q0-1.4 0.9-2.4t2.4-0.9h6.7q1.3 0 2.3 0.9t1 2.4z"></path></svg>