<svg viewBox="0 0 1664 1896.0833" xmlns="http://www.w3.org/2000/svg"><path d="m768 960v384q0 80-56 136t-136 56h-384q-80 0-136-56t-56-136v-704q0-104 40.5-198.5t109.5-163.5 163.5-109.5 198.5-40.5h64q26 0 45 19t19 45v128q0 26-19 45t-45 19h-64q-106 0-181 75t-75 181v32q0 40 28 68t68 28h224q80 0 136 56t56 136z m896 0v384q0 80-56 136t-136 56h-384q-80 0-136-56t-56-136v-704q0-104 40.5-198.5t109.5-163.5 163.5-109.5 198.5-40.5h64q26 0 45 19t19 45v128q0 26-19 45t-45 19h-64q-106 0-181 75t-75 181v32q0 40 28 68t68 28h224q80 0 136 56t56 136z"/></svg>