<?xml version="1.0"?><svg viewBox="0 0 40 40" xmlns="http://www.w3.org/2000/svg" height="40" width="40"><path d="m1.5 18.4q0.2-4.5 2.4-8.5t6.5-6.7h0.1q0 0 0 0-0.2 0.2-0.6 0.7t-1.1 1.6-1.3 2.4-0.9 2.8-0.3 3.2 0.8 3.3 2.3 3.3q1 1 2.1 1.5t1.9 0.2 1.5-0.5 1-0.7l0.3-0.3q0.9-1.1 1.2-2.5t0.1-2.6-0.4-2.2-0.6-1.7l-0.3-0.6q-0.2-0.6-0.6-1.1t-0.9-0.8-1-0.7-0.7-0.4l-0.3-0.1 2.2-2.4q0.8 0.3 1.7 1.1t1.2 1.3l0.4 0.5q0-1-0.4-2.1t-0.8-1.9l-0.5-0.6 3.4-3.9 3.4 3.8q-0.7 1-1.1 2.2t-0.5 1.9l-0.1 0.7q0.5-0.8 1.3-1.5t1.5-1.2l0.6-0.3 2.1 2.4q-0.9 0.3-1.8 1.1t-1.2 1.3l-0.4 0.7q-0.7 1.1-1 2.8t-0.2 3.6 1.2 3.3q0.7 0.9 1.6 1.2t1.8 0.2 1.6-0.6 1.3-0.7l0.4-0.4q1.3-1.1 2-2.4t1.1-2.5 0.2-2.6-0.4-2.5-0.8-2.3-0.9-1.9-1-1.5-0.7-1l-0.3-0.4q-0.3-0.3-0.1-0.3l0.2 0.1q0.8 0.6 1.3 1t1.3 1 1.3 1.2 1.3 1.4 1.1 1.6 1 1.9 0.8 2.2 0.5 2.4 0.2 2.9q0.1 5.5-2.3 9.8t-6.5 6.8-9.7 2.4q-3.9 0-7.4-1.6t-5.9-4.1-3.9-6.2-1.3-7.5z"></path></svg>