<?xml version="1.0"?><svg xmlns="http://www.w3.org/2000/svg" width="40" height="40" viewBox="0 0 40 40"><path d="m0.42428571428571427 19.50857142857143q0.1785714285714286-4.842857142857143 2.59-9.062857142857144t6.808571428571428-7.1h0.1114285714285721q0 0.024285714285714466-0.02285714285714313 0.0685714285714285-0.17857142857142883 0.17857142857142838-0.6257142857142863 0.7471428571428573t-1.1600000000000001 1.7071428571428573-1.3399999999999999 2.467142857142857-0.9928571428571429 3.024285714285714-0.31428571428571406 3.3599999999999994 0.8714285714285719 3.5142857142857125 2.4214285714285726 3.4385714285714286q1.1142857142857139 1.1171428571428557 2.2771428571428576 1.5528571428571425t2.0199999999999996 0.25714285714285623 1.5514285714285716-0.524285714285714 1.048571428571428-0.725714285714286l0.35714285714285765-0.35714285714285765q0.8714285714285701-1.138571428571428 1.1828571428571415-2.6000000000000014t0.14571428571428413-2.734285714285715-0.46857142857142975-2.388571428571428-0.5914285714285725-1.7857142857142865l-0.31428571428571495-0.6471428571428568q-0.22142857142857153-0.5571428571428569-0.6799999999999997-1.104285714285714t-0.9600000000000009-0.9142857142857146-0.9714285714285715-0.6600000000000001-0.781428571428572-0.4242857142857144l-0.28857142857142826-0.13285714285714256 2.321428571428571-2.5671428571428567q0.8714285714285719 0.3799999999999999 1.7428571428571438 1.1600000000000001t1.3142857142857132 1.361428571428572l0.42571428571428527 0.6028571428571432q0.024285714285714022-1.0714285714285712-0.4114285714285728-2.3100000000000005t-0.904285714285713-1.9528571428571428l-0.4485714285714302-0.6914285714285713 3.5928571428571523-4.087142857142852 3.571428571428573 4.04q-0.7371428571428567 1.0285714285714285-1.1714285714285708 2.288571428571429t-0.5028571428571418 2.0199999999999996l-0.08999999999999986 0.7371428571428567q0.4914285714285711-0.8257142857142856 1.37142857142857-1.6185714285714283t1.508571428571429-1.1714285714285717l0.6257142857142846-0.3799999999999999 2.3000000000000007 2.5685714285714294q-0.9828571428571422 0.31428571428571495-1.8971428571428568 1.1142857142857139t-1.3399999999999999 1.4528571428571428l-0.4242857142857126 0.6471428571428568q-0.6914285714285704 1.25-1.071428571428573 2.9800000000000004t-0.15714285714285836 3.7942857142857154 1.274285714285714 3.4928571428571438q0.7357142857142875 1.0042857142857144 1.7285714285714278 1.3500000000000014t1.8971428571428568 0.12285714285714278 1.6971428571428575-0.5914285714285725 1.282857142857143-0.7471428571428582l0.46857142857142975-0.35714285714285765q1.3399999999999963-1.1857142857142868 2.154285714285713-2.5685714285714276t1.0828571428571436-2.71142857142857 0.2228571428571442-2.7114285714285717-0.3999999999999986-2.6342857142857152-0.8285714285714292-2.4000000000000004-1.0142857142857125-2.0757142857142856-1.0042857142857144-1.6085714285714285-0.7685714285714269-1.06l-0.28999999999999915-0.3799999999999999q-0.31428571428571317-0.29000000000000004-0.15714285714285836-0.29000000000000004l0.2228571428571442 0.06714285714285717q0.8928571428571423 0.6471428571428568 1.3957142857142841 1.0285714285714285t1.3857142857142861 1.1142857142857148 1.4285714285714306 1.2942857142857145 1.3042857142857116 1.451428571428571 1.2385714285714258 1.718571428571428 1.0142857142857125 1.9642857142857153 0.8500000000000014 2.3000000000000007 0.5242857142857176 2.6099999999999994 0.23428571428571132 3.0357142857142847q0.06571428571428584 5.78142857142857-2.411428571428573 10.379999999999999t-6.964285714285715 7.165714285714287-10.177142857142858 2.567142857142855q-4.12857142857143 0-7.8342857142857145-1.6499999999999986t-6.328571428571428-4.420000000000002-4.107142857142858-6.53857142857143-1.3499999999999999-7.879999999999999z"></path></svg>