<?xml version="1.0"?><svg xmlns="http://www.w3.org/2000/svg" width="40" height="40" viewBox="0 0 40 40"><path d="m14.865714285714287 10.737142857142857q-1.3399999999999999 2.0528571428571425-3.057142857142857 6.094285714285714-0.492857142857142-1.0042857142857144-0.8285714285714292-1.6185714285714283t-0.9028571428571421-1.418571428571429-1.138571428571428-1.2614285714285707-1.4057142857142857-0.781428571428572-1.8185714285714303-0.32285714285714207h-5q-0.3142857142857144 0-0.5142857142857143-0.1999999999999993t-0.20000000000000007-0.5142857142857142v-4.285714285714286q0-0.31428571428571406 0.2-0.5142857142857142t0.5142857142857142-0.20000000000000107h5q5.579999999999999 0 9.151428571428571 5.022857142857142z m25.134285714285713 17.834285714285716q0 0.31428571428571317-0.20000000000000284 0.514285714285716l-7.142857142857146 7.142857142857146q-0.20285714285714107 0.20000000000000284-0.5142857142857125 0.20000000000000284-0.28999999999999915 0-0.5028571428571418-0.21142857142856997t-0.21142857142856641-0.5028571428571524v-4.285714285714285q-0.7142857142857153 0-1.8971428571428568 0.011428571428570677t-1.8085714285714296 0.022857142857141355-1.62857142857143-0.022857142857141355-1.5857142857142854-0.1114285714285721-1.428571428571427-0.23428571428571487-1.4057142857142857-0.4142857142857146-1.2942857142857136-0.6342857142857135-1.3171428571428585-0.8928571428571423-1.2285714285714278-1.1942857142857157-1.2485714285714273-1.5500000000000007q1.3171428571428585-2.0757142857142874 3.0357142857142847-6.094285714285714 0.4914285714285711 1.0028571428571418 0.8257142857142838 1.6171428571428557t0.904285714285713 1.4171428571428564 1.138571428571428 1.2614285714285707 1.4057142857142857 0.7814285714285703 1.8185714285714312 0.32285714285714917h5.714285714285715v-4.285714285714285q0-0.3114285714285714 0.1999999999999993-0.5114285714285707t0.514285714285716-0.1999999999999993q0.2671428571428578 0 0.5357142857142847 0.22142857142857153l7.119999999999997 7.120000000000001q0.20000000000000284 0.20285714285714107 0.20000000000000284 0.5142857142857125z m0-20q0 0.31428571428571495-0.20000000000000284 0.5142857142857142l-7.142857142857146 7.142857142857144q-0.20285714285714107 0.1999999999999993-0.5142857142857125 0.1999999999999993-0.28999999999999915 0-0.5028571428571418-0.21142857142856997t-0.21142857142856641-0.5028571428571453v-4.2857142857142865h-5.714285714285715q-1.071428571428573 0-1.942857142857143 0.3342857142857145t-1.53857142857143 1.0042857142857144-1.138571428571428 1.3714285714285719-1.0042857142857144 1.7314285714285713q-0.7142857142857153 1.3828571428571443-1.7428571428571438 3.814285714285713-0.6457142857142841 1.4742857142857133-1.1028571428571432 2.4785714285714278t-1.2042857142857137 2.3428571428571416-1.4285714285714288 2.234285714285715-1.6514285714285712 1.8514285714285705-2.007142857142858 1.5285714285714285-2.38142857142857 0.9400000000000048-2.8571428571428568 0.36857142857142833h-5q-0.31142857142857155 0-0.5114285714285716-0.1999999999999993t-0.2-0.514285714285716v-4.285714285714285q0-0.31428571428571317 0.2-0.5142857142857125t0.5142857142857142-0.1999999999999993h4.997142857142857q1.0714285714285712 0 1.9400000000000004-0.33428571428571274t1.540000000000001-1.0042857142857144 1.138571428571428-1.37142857142857 1.0042857142857144-1.731428571428573q0.7142857142857135-1.3828571428571443 1.7428571428571438-3.814285714285713 0.6457142857142859-1.474285714285715 1.1028571428571432-2.4785714285714278t1.2057142857142864-2.3428571428571434 1.428571428571427-2.234285714285715 1.6514285714285712-1.8514285714285723 2.008571428571429-1.5285714285714285 2.379999999999999-0.9400000000000057 2.8571428571428577-0.36857142857142833h5.714285714285715v-4.285714285714286q0-0.3142857142857145 0.1999999999999993-0.5142857142857145t0.514285714285716-0.20000000000000007q0.2671428571428578 0 0.5357142857142847 0.22285714285714286l7.121428571428567 7.12q0.20000000000000284 0.1999999999999993 0.20000000000000284 0.5142857142857142z"></path></svg>