<?xml version="1.0"?><svg viewBox="0 0 40 40" xmlns="http://www.w3.org/2000/svg" height="40" width="40"><path d="m11.6 11.9q-1.1 1.6-2.4 4.7-0.4-0.8-0.7-1.2t-0.7-1.1q-0.4-0.7-0.8-1t-1.1-0.6q-0.7-0.3-1.5-0.3h-3.8q-0.3 0-0.4-0.1t-0.2-0.4v-3.4q0-0.2 0.2-0.4t0.4-0.1h3.8q4.4 0 7.2 3.9z m19.4 13.5q0.1 0.1 0.1 0.4t-0.1 0.4l-5.6 5.5q-0.2 0.2-0.4 0.2-0.2 0-0.4-0.2t-0.2-0.4v-3.3q-0.5 0-1.4 0t-1.4 0q-0.5 0-1.3 0t-1.2-0.1q-0.5-0.1-1.1-0.2t-1.1-0.3q-0.5-0.2-1-0.5t-1.1-0.7q-0.4-0.4-0.9-0.9t-1-1.2q1-1.6 2.4-4.8 0.3 0.8 0.6 1.3t0.7 1.1q0.4 0.6 0.9 1t1.1 0.6q0.6 0.2 1.4 0.2h4.4v-3.3q0-0.2 0.2-0.4t0.4-0.1q0.2 0 0.4 0.1l5.6 5.6z m0-15.6q0.1 0.2 0.1 0.4t-0.1 0.4l-5.6 5.6q-0.2 0.1-0.4 0.1-0.2 0-0.4-0.1t-0.2-0.4v-3.4h-4.4q-0.8 0-1.5 0.3t-1.2 0.8q-0.5 0.5-0.9 1t-0.8 1.4q-0.5 1.1-1.3 3-0.5 1.1-0.9 1.9t-0.9 1.8q-0.6 1-1.1 1.7t-1.3 1.5q-0.8 0.7-1.6 1.2t-1.8 0.7q-1.1 0.3-2.3 0.3h-3.8q-0.3 0-0.4-0.2t-0.2-0.4v-3.3q0-0.2 0.2-0.4t0.4-0.2h3.8q0.9 0 1.6-0.2t1.2-0.8q0.5-0.5 0.8-1.1t0.8-1.3q0.6-1.1 1.4-3 0.5-1.1 0.8-1.9t1-1.8q0.6-1.1 1.1-1.8t1.3-1.4q0.7-0.8 1.5-1.2t1.9-0.7q1-0.3 2.2-0.3h4.4v-3.3q0-0.3 0.2-0.4t0.4-0.2q0.2 0 0.4 0.2l5.6 5.5z"></path></svg>