<?xml version="1.0"?><svg viewBox="0 0 40 40" xmlns="http://www.w3.org/2000/svg" height="40" width="40"><path d="m14.5 23.8l-0.2 6.4-0.1 0.4-7.3-0.5q-0.6 0-1.1-0.5t-0.9-1.2q-0.1-0.4-0.2-0.9t0.1-1.2q0.1-0.6 0.2-0.9t0.3-1.1q0.3-0.8 0.4-1 1.3 0.3 8.8 0.5z m-6.7-10.1l3.1 6.5-2.5-1.6q-1.1 1.3-2 2.6t-1.2 2.1q-0.4 0.9-0.7 1.7t-0.3 1.1l-0.1 0.3-3.3-6.2q-0.3-0.4-0.3-0.9t0.1-0.9l0.1-0.3q0.6-1.1 2-3.2l-2.4-1.5 7.5 0.3z m21.4 8.9l-3.3 6.3q-0.2 0.5-0.6 0.8t-0.8 0.3l-0.3 0.1q-1.2 0.1-3.8 0.2l0.1 2.9-4-6.4 3.7-6.3 0.1 3q3 0.3 4.9 0.1t3-0.6l1-0.4z m-13.7-16q-0.8 1.1-4.6 7.5l-5.5-3.2-0.3-0.2 3.9-6.2q0.4-0.5 1.1-0.8t1.3-0.1q0.5 0 0.9 0.2t0.7 0.3q0.3 0.2 0.7 0.6t0.7 0.6q0.2 0.2 0.6 0.7t0.5 0.6z m11.4 5.3l3.7 6.3q0.3 0.7 0.2 1.3t-0.5 1.3q-0.2 0.4-0.5 0.7t-0.7 0.5q-0.3 0.2-0.8 0.3t-0.9 0.3q-0.2 0.1-0.9 0.3t-0.8 0.2q-0.5-1.3-4.6-7.6l5.5-3.4 0.3-0.2z m-2.5-3.9l2.5-1.4-3.8 6.4-7.3-0.3 2.6-1.5q-0.6-1.5-1.3-2.9t-1.3-2.1q-0.6-0.8-1.1-1.4t-0.8-0.8l-0.3-0.3 7 0.1q0.5-0.1 1 0.1t0.7 0.5l0.2 0.3q0.7 1.1 1.9 3.3z"></path></svg>