<?xml version="1.0"?><svg xmlns="http://www.w3.org/2000/svg" width="40" height="40" viewBox="0 0 40 40"><path d="m18.66 26.09428571428571l-0.33428571428571274 8.214285714285715-0.04285714285714448 0.4914285714285711-9.377142857142857-0.6471428571428604q-0.8028571428571425-0.06714285714285495-1.4957142857142856-0.7028571428571411t-1.048571428571428-1.46142857142857q-0.24571428571428555-0.6028571428571432-0.32428571428571473-1.2285714285714278t0.08999999999999986-1.4499999999999993 0.265714285714286-1.2285714285714278 0.4800000000000004-1.428571428571427 0.4242857142857144-1.1814285714285724q1.7399999999999993 0.2671428571428578 11.36 0.6257142857142846z m-8.637142857142857-13.079999999999997l4.017142857142856 8.457142857142857-3.281428571428572-2.05142857142857q-1.4042857142857148 1.6071428571428577-2.4857142857142858 3.225714285714286t-1.62 2.789999999999999-0.8814285714285717 2.1099999999999994-0.4142857142857146 1.4057142857142857l-0.08999999999999986 0.46857142857142975-4.242857142857143-7.96857142857143q-0.37857142857142856-0.5799999999999983-0.4-1.25t0.13428571428571423-1.047142857142859l0.17999999999999994-0.3999999999999986q0.7814285714285716-1.4071428571428584 2.542857142857143-4.199999999999999l-3.1242857142857123-1.918571428571429z m27.47714285714286 11.538571428571428l-4.1971428571428575 8.014285714285712q-0.2671428571428578 0.6457142857142841-0.8142857142857167 1.0371428571428538t-0.9714285714285715 0.4571428571428555l-0.3999999999999986 0.09000000000000341q-1.5857142857142854 0.15714285714285836-4.890000000000001 0.2671428571428578l0.17714285714285793 3.6599999999999966-5.1342857142857135-8.191428571428574 4.710000000000001-8.07857142857143 0.15714285714285836 3.861428571428572q3.792857142857141 0.35714285714285765 6.314285714285713 0.1114285714285721t3.7957142857142827-0.7371428571428567z m-17.52285714285714-20.624285714285712q-1.048571428571428 1.405714285714284-5.914285714285715 9.709999999999997l-7.077142857142858-4.174285714285713-0.4242857142857144-0.2671428571428578 5.024285714285714-7.9471428571428575q0.44285714285714306-0.6928571428571428 1.3371428571428563-1.0042857142857142t1.7857142857142865-0.22285714285714295q0.5357142857142865 0.04285714285714286 1.0828571428571436 0.2671428571428571t0.937142857142856 0.4685714285714285 0.928571428571427 0.7385714285714287 0.8000000000000007 0.7714285714285716 0.8042857142857152 0.8799999999999999 0.7142857142857153 0.7814285714285716z m14.622857142857143 6.852857142857141l4.731428571428573 8.102857142857145q0.3999999999999986 0.8242857142857147 0.278571428571432 1.6957142857142848t-0.6142857142857139 1.6514285714285712q-0.28999999999999915 0.4471428571428575-0.7371428571428567 0.8257142857142838t-0.8471428571428561 0.6285714285714299-1.0828571428571436 0.48999999999999844-1.0499999999999972 0.35714285714285765-1.1499999999999986 0.31428571428571317-1.028571428571432 0.2657142857142851q-0.7571428571428598-1.6085714285714268-5.914285714285715-9.734285714285715l6.985714285714284-4.352857142857143z m-3.1942857142857157-5.042857142857143l3.1714285714285744-1.854285714285714-4.911428571428573 8.324285714285715-9.352857142857143-0.4471428571428575 3.3685714285714283-1.92q-0.7571428571428562-1.9857142857142858-1.6742857142857126-3.7057142857142855t-1.6857142857142868-2.757142857142857-1.4400000000000013-1.7857142857142858-1.048571428571428-1.0385714285714285l-0.379999999999999-0.2914285714285714 9.040000000000003 0.022857142857142854q0.6914285714285704-0.06714285714285714 1.2942857142857136 0.23428571428571432t0.8714285714285701 0.6357142857142857l0.24285714285714377 0.33571428571428563q0.8714285714285701 1.3614285714285714 2.5 4.242857142857143z"></path></svg>