<?xml version="1.0"?><svg viewBox="0 0 40 40" xmlns="http://www.w3.org/2000/svg" height="40" width="40"><path d="m18.7 24.7l-0.3 7.7 0 0.5-8.9-0.6q-0.7-0.1-1.4-0.7t-1-1.4q-0.2-0.5-0.3-1.1t0.1-1.4 0.2-1.2 0.5-1.3 0.4-1.1q1.6 0.2 10.7 0.6z m-8.1-12.4l3.8 8-3.1-1.9q-1.4 1.5-2.4 3t-1.5 2.6-0.8 2-0.4 1.4l-0.1 0.4-4-7.5q-0.4-0.6-0.4-1.2t0.1-1l0.2-0.4q0.7-1.3 2.4-3.9l-3-1.9z m25.9 10.9l-3.9 7.6q-0.3 0.6-0.8 1t-0.9 0.4l-0.4 0.1q-1.5 0.1-4.6 0.2l0.2 3.5-4.9-7.8 4.5-7.6 0.1 3.7q3.6 0.3 6 0.1t3.6-0.7z m-16.5-19.5q-1 1.3-5.6 9.2l-6.7-4-0.4-0.2 4.7-7.5q0.5-0.7 1.3-1t1.7-0.2q0.5 0.1 1 0.3t0.9 0.4 0.9 0.7 0.7 0.7 0.8 0.9 0.7 0.7z m13.8 6.5l4.5 7.6q0.3 0.8 0.2 1.7t-0.5 1.5q-0.3 0.4-0.7 0.8t-0.8 0.6-1.1 0.4-1 0.4-1 0.3-1 0.2q-0.7-1.5-5.6-9.2l6.6-4.1z m-3-4.8l3-1.7-4.7 7.8-8.8-0.4 3.2-1.8q-0.7-1.9-1.6-3.5t-1.6-2.6-1.4-1.7-0.9-1l-0.4-0.2 8.5 0q0.7-0.1 1.3 0.2t0.8 0.6l0.2 0.3q0.8 1.3 2.4 4z"></path></svg>