<?xml version="1.0"?><svg viewBox="0 0 40 40" xmlns="http://www.w3.org/2000/svg" height="40" width="40"><path d="m16.3 23.1q0.2 0.3 0 0.5-0.9 0.9-3 0.9t-2.9-0.9q-0.3-0.2 0-0.5 0.1-0.1 0.2-0.1t0.2 0.1q0.7 0.8 2.5 0.8t2.6-0.8q0-0.1 0.2-0.1t0.2 0.1z m-4.6-2.7q0 0.6-0.4 1t-0.9 0.4q-0.5 0-0.9-0.4t-0.4-1q0-0.5 0.4-0.9t0.9-0.4q0.6 0 0.9 0.4t0.4 0.9z m5.9 0q0 0.6-0.4 1t-0.9 0.4q-0.6 0-1-0.4t-0.4-1q0-0.5 0.4-0.9t1-0.4q0.5 0 0.9 0.4t0.4 0.9z m3.7-1.8q0-0.7-0.5-1.2t-1.3-0.5q-0.7 0-1.2 0.5-2-1.3-4.7-1.4l1-4.2 3 0.6q0 0.6 0.4 1t0.9 0.4q0.5 0 0.9-0.4t0.4-1q0-0.5-0.4-0.9t-0.9-0.4q-0.8 0-1.2 0.7l-3.3-0.7q-0.3-0.1-0.4 0.2l-1 4.7q-2.7 0.1-4.6 1.4-0.5-0.5-1.3-0.5-0.7 0-1.2 0.5t-0.6 1.2q0 0.6 0.3 1t0.7 0.7q-0.1 0.4-0.1 0.8 0 2.1 2.1 3.6t5.1 1.5q2.9 0 5-1.5t2.1-3.6q0-0.4-0.1-0.9 0.4-0.2 0.7-0.6t0.2-1z m5.4-7.8v16.6q0 2.1-1.5 3.6t-3.5 1.4h-16.7q-2.1 0-3.5-1.4t-1.5-3.6v-16.6q0-2.1 1.5-3.6t3.5-1.4h16.7q2 0 3.5 1.4t1.5 3.6z"></path></svg>