<?xml version="1.0"?><svg xmlns="http://www.w3.org/2000/svg" width="40" height="40" viewBox="0 0 40 40"><path d="m40 18.885714285714286q0 1.2928571428571445-0.6571428571428584 2.352857142857143t-1.7771428571428558 1.6185714285714283q0.2671428571428578 1.0285714285714285 0.2671428571428578 2.1428571428571423 0 3.460000000000001-2.3771428571428572 6.405714285714286t-6.4857142857142875 4.654285714285717-8.92857142857143 1.7071428571428555-8.914285714285715-1.7071428571428555-6.474285714285714-4.654285714285713-2.3757142857142823-6.405714285714289q0-1.048571428571428 0.24571428571428555-2.1000000000000014-1.1385714285714286-0.5571428571428569-1.8285714285714287-1.638571428571428t-0.694285714285714-2.3757142857142846q0-1.831428571428571 1.2957142857142858-3.137142857142857t3.1471428571428572-1.305714285714286q1.8971428571428568 0 3.2371428571428567 1.4057142857142857 4.8657142857142865-3.3928571428571423 11.495714285714286-3.614285714285714l2.5900000000000034-11.634285714285715q0.0671428571428585-0.2899999999999997 0.33428571428571274-0.46857142857142825t0.5799999999999983-0.11142857142857143l8.237142857142857 1.8085714285714287q0.3999999999999986-0.8257142857142856 1.2057142857142864-1.3285714285714287t1.7628571428571433-0.5q1.3857142857142861 0 2.365714285714283 0.9714285714285715t0.9828571428571422 2.354285714285714-0.9828571428571422 2.3657142857142857-2.365714285714283 0.9828571428571431-2.354285714285716-0.9714285714285715-0.9714285714285715-2.354285714285714l-7.457142857142859-1.6514285714285712-2.3200000000000003 10.535714285714286q6.6971428571428575 0.1999999999999993 11.585714285714289 3.571428571428571 1.2928571428571445-1.361428571428572 3.1899999999999977-1.361428571428572 1.8542857142857159 0 3.1485714285714295 1.305714285714286t1.2928571428571445 3.137142857142857z m-30.67142857142857 4.438571428571432q0 1.3857142857142861 0.9714285714285715 2.3657142857142865t2.3571428571428577 0.9828571428571422 2.364285714285714-0.9828571428571422 0.9828571428571422-2.3657142857142865-0.9828571428571422-2.3542857142857123-2.3642857142857157-0.970000000000006q-1.362857142857143 0-2.345714285714285 0.9828571428571422t-0.9828571428571422 2.3428571428571416z m18.08142857142857 7.924285714285713q0.24571428571428555-0.24571428571428555 0.24571428571428555-0.5799999999999983t-0.24714285714285822-0.581428571428571q-0.2228571428571442-0.2228571428571442-0.5571428571428569-0.2228571428571442t-0.581428571428571 0.2228571428571442q-0.9142857142857146 0.937142857142856-2.6999999999999993 1.3857142857142861t-3.571428571428573 0.44571428571428484-3.571428571428573-0.4471428571428575-2.702857142857143-1.3857142857142861q-0.24571428571428555-0.22142857142857153-0.5800000000000001-0.22142857142857153t-0.5571428571428569 0.2228571428571442q-0.24714285714285644 0.2228571428571442-0.24714285714285644 0.5685714285714276t0.242857142857142 0.5928571428571416q0.9614285714285717 0.9600000000000009 2.647142857142857 1.5171428571428578t2.734285714285715 0.6571428571428584 2.0314285714285703 0.10000000000000142 2.0285714285714285-0.10000000000000142 2.7357142857142875-0.6571428571428584 2.645714285714284-1.5171428571428578z m-0.06571428571428584-4.575714285714284q1.3857142857142861 0 2.3571428571428577-0.9828571428571422t0.9714285714285715-2.3657142857142865q0-1.361428571428572-0.985714285714284-2.3428571428571416t-2.3428571428571416-0.985714285714284q-1.3857142857142861 0-2.3657142857142865 0.9714285714285715t-0.9828571428571422 2.3571428571428577 0.9828571428571422 2.364285714285714 2.3657142857142865 0.9828571428571422z"></path></svg>