<?xml version="1.0"?><svg xmlns="http://www.w3.org/2000/svg" width="40" height="40" viewBox="0 0 40 40"><path d="m24.442857142857143 26.04857142857143q0.35714285714285765 0.35714285714285765 0 0.6914285714285704-1.3857142857142861 1.3857142857142861-4.442857142857143 1.3857142857142861t-4.442857142857143-1.3857142857142861q-0.35714285714285765-0.33428571428571274 0-0.6914285714285704 0.13571428571428612-0.13428571428571345 0.3357142857142854-0.13428571428571345t0.33428571428571274 0.13428571428571345q1.0728571428571456 1.0942857142857108 3.772857142857145 1.0942857142857108 2.6785714285714306 0 3.7714285714285722-1.0942857142857143 0.13571428571428612-0.13428571428571345 0.3357142857142854-0.13428571428571345t0.33428571428571274 0.13428571428571345z m-6.852857142857143-4.039999999999999q0 0.8257142857142874-0.5800000000000018 1.4057142857142857t-1.4057142857142857 0.5799999999999983-1.4171428571428564-0.5799999999999983-0.5899999999999999-1.4057142857142857q0-0.8485714285714288 0.5914285714285707-1.428571428571427t1.418571428571429-0.5799999999999983 1.4057142857142875 0.5914285714285725 0.5799999999999983 1.4171428571428564z m8.814285714285713 0q0 0.8257142857142874-0.5899999999999999 1.4057142857142857t-1.4171428571428564 0.5799999999999983-1.4057142857142857-0.5799999999999983-0.5799999999999983-1.4057142857142857 0.5799999999999983-1.4171428571428564 1.4057142857142857-0.5914285714285725 1.4171428571428564 0.5800000000000018 0.5914285714285725 1.428571428571427z m5.604285714285716-2.678571428571427q0-1.0928571428571416-0.7814285714285703-1.8742857142857154t-1.8999999999999986-0.7814285714285703-1.918571428571429 0.8042857142857152q-2.8999999999999986-2.008571428571429-6.942857142857143-2.1428571428571423l1.4071428571428584-6.317142857142857 4.464285714285715 1.0057142857142853q0 0.8257142857142856 0.5800000000000018 1.4057142857142857t1.4057142857142857 0.5800000000000001 1.4171428571428564-0.5914285714285707 0.5899999999999999-1.4171428571428564-0.5914285714285725-1.4171428571428564-1.418571428571429-0.5914285714285716q-1.2057142857142864 0-1.7857142857142847 1.1142857142857148l-4.9328571428571415-1.0928571428571434q-0.4242857142857126-0.11142857142857121-0.5571428571428569 0.35714285714285765l-1.5428571428571445 6.964285714285715q-4.014285714285714 0.15714285714285658-6.895714285714286 2.1657142857142873-0.781428571428572-0.8257142857142838-1.942857142857143-0.8257142857142838-1.1142857142857139 0-1.895714285714286 0.7814285714285703t-0.7814285714285711 1.8757142857142846q0 0.7814285714285703 0.4142857142857137 1.428571428571427t1.1028571428571432 0.9828571428571422q-0.13428571428571345 0.6028571428571432-0.13428571428571345 1.25 0 3.171428571428571 3.128571428571428 5.424285714285716t7.521428571428572 2.2542857142857144q4.420000000000002 0 7.5428571428571445-2.2542857142857144t3.12857142857143-5.424285714285716q0-0.7142857142857153-0.15714285714285836-1.2714285714285722 0.6714285714285708-0.3357142857142854 1.071428571428573-0.9714285714285715t0.3999999999999986-1.418571428571429z m7.991428571428571 0.6699999999999946q0 4.062857142857144-1.585714285714289 7.767142857142858t-4.261428571428574 6.385714285714286-6.385714285714286 4.261428571428574-7.764285714285705 1.5857142857142819-7.765714285714285-1.585714285714289-6.385714285714285-4.262857142857143-4.261428571428572-6.385714285714286-1.5857142857142892-7.765714285714282 1.5857142857142859-7.767142857142858 4.261428571428572-6.385714285714285 6.385714285714285-4.261428571428572 7.762857142857143-1.5857142857142854 7.768571428571427 1.5857142857142859 6.385714285714286 4.262857142857143 4.261428571428574 6.385714285714286 1.5842857142857127 7.765714285714285z"></path></svg>