<svg viewBox="0 0 1792 1896.0833" xmlns="http://www.w3.org/2000/svg"><path d="m1095 1167q16 16 0 31-62 62-199 62t-199-62q-16-15 0-31 6-6 15-6t15 6q48 49 169 49 120 0 169-49 6-6 15-6t15 6z m-307-181q0 37-26 63t-63 26-63.5-26-26.5-63q0-38 26.5-64t63.5-26 63 26.5 26 63.5z m395 0q0 37-26.5 63t-63.5 26-63-26-26-63 26-63.5 63-26.5 63.5 26 26.5 64z m251-120q0-49-35-84t-85-35-86 36q-130-90-311-96l63-283 200 45q0 37 26 63t63 26 63.5-26.5 26.5-63.5-26.5-63.5-63.5-26.5q-54 0-80 50l-221-49q-19-5-25 16l-69 312q-180 7-309 97-35-37-87-37-50 0-85 35t-35 84q0 35 18.5 64t49.5 44q-6 27-6 56 0 142 140 243t337 101q198 0 338-101t140-243q0-32-7-57 30-15 48-43.5t18-63.5z m358 30q0 182-71 348t-191 286-286 191-348 71-348-71-286-191-191-286-71-348 71-348 191-286 286-191 348-71 348 71 286 191 191 286 71 348z"/></svg>