<?xml version="1.0"?><svg viewBox="0 0 40 40" xmlns="http://www.w3.org/2000/svg" height="40" width="40"><path d="m23.6 23.8q0.3 0.3 0 0.6-1.1 1.1-3.6 1.1t-3.6-1.1q-0.3-0.3 0-0.6 0.1-0.1 0.3-0.1t0.2 0.1q0.9 0.9 3.1 0.9t3.1-0.9q0.1-0.1 0.2-0.1t0.3 0.1z m-5.5-3.3q0 0.7-0.5 1.2t-1.2 0.5-1.1-0.5-0.5-1.2q0-0.6 0.5-1.1t1.1-0.5 1.2 0.5 0.5 1.1z m7.1 0q0 0.7-0.5 1.2t-1.1 0.5-1.2-0.5-0.5-1.2q0-0.6 0.5-1.1t1.2-0.5 1.1 0.5 0.5 1.1z m4.5-2.1q0-0.9-0.6-1.6t-1.5-0.6q-0.9 0-1.6 0.7-2.4-1.7-5.6-1.8l1.1-5.1 3.6 0.8q0 0.7 0.5 1.2t1.2 0.4q0.6 0 1.1-0.4t0.5-1.2-0.5-1.1-1.1-0.5q-1.1 0-1.5 0.9l-4-0.9q-0.4-0.1-0.4 0.3l-1.3 5.6q-3.2 0.2-5.6 1.8-0.6-0.7-1.6-0.7-0.9 0-1.5 0.6t-0.6 1.6q0 0.6 0.3 1.1t0.9 0.8q-0.1 0.5-0.1 1 0 2.6 2.5 4.4t6.1 1.9q3.6 0 6.1-1.9t2.6-4.4q0-0.5-0.2-1 0.6-0.3 0.9-0.8t0.3-1.1z m6.5-9.6v20.2q0 2.5-1.8 4.3t-4.3 1.8h-20.2q-2.5 0-4.3-1.8t-1.8-4.3v-20.2q0-2.5 1.8-4.3t4.3-1.8h20.2q2.5 0 4.3 1.8t1.8 4.3z"></path></svg>