<?xml version="1.0"?><svg viewBox="0 0 40 40" xmlns="http://www.w3.org/2000/svg" height="40" width="40"><path d="m23.1 14.8q0-1.8-1.3-2.5-0.7-0.4-2.5-0.4h-2.5v5.9h3.4q1.4 0 2.1-0.8t0.8-2.2z m1.1 6l4.3 7.9q0.2 0.4 0 0.7-0.2 0.3-0.6 0.3h-3.2q-0.4 0-0.6-0.4l-4.1-7.7h-3.2v7.4q0 0.3-0.2 0.5t-0.5 0.2h-2.9q-0.2 0-0.4-0.2t-0.2-0.5v-20.2q0-0.3 0.2-0.5t0.4-0.2h6.3q2.7 0 4 0.5 1.8 0.7 2.8 2.3t1 3.8q0 1.9-0.9 3.5t-2.4 2.3q0.1 0.2 0.2 0.3z m-4.2-17.4q-3.2 0-6 1.2t-5 3.3-3.3 5-1.2 6 1.2 6 3.3 5 5 3.3 6 1.2 6-1.2 5-3.3 3.3-5 1.2-6-1.2-6-3.3-5-5-3.3-6-1.2z m18.9 15.5q0 3.8-1.5 7.3t-4 6.1-6.1 4-7.3 1.5-7.3-1.5-6.1-4-4-6.1-1.5-7.3 1.5-7.3 4-6.1 6.1-4 7.3-1.5 7.3 1.5 6.1 4 4 6.1 1.5 7.3z"></path></svg>