<?xml version="1.0"?><svg viewBox="0 0 40 40" xmlns="http://www.w3.org/2000/svg" height="40" width="40"><path d="m18.1 15.7q0-1.5-1.1-2.1-0.5-0.3-2-0.3h-2.1v4.9h2.8q1.1 0 1.8-0.6t0.6-1.9z m0.9 5l3.6 6.5q0.1 0.3-0.1 0.5-0.1 0.3-0.4 0.3h-2.7q-0.3 0-0.5-0.3l-3.3-6.3h-2.7v6q0 0.3-0.2 0.4t-0.4 0.2h-2.3q-0.2 0-0.4-0.2t-0.2-0.4v-16.6q0-0.3 0.2-0.4t0.4-0.2h5.1q2.2 0 3.3 0.4 1.5 0.6 2.3 1.9t0.9 3.1q0 1.6-0.8 2.9t-2 1.9q0.1 0.2 0.2 0.3z m1.5-13.4q-2.3-1-4.9-1t-5 1q-2.4 1-4.1 2.8t-2.7 4q-1 2.4-1 5t1 5q1 2.3 2.7 4t4.1 2.8q2.4 1 5 1t4.9-1q2.4-1.1 4.1-2.8t2.7-4q1-2.4 1-5t-1-5q-1-2.3-2.7-4t-4.1-2.8z m9.4 5.8q1.2 2.8 1.2 6t-1.2 6q-1.3 2.9-3.3 5t-5 3.3q-2.9 1.3-6 1.3t-6.1-1.3q-2.9-1.2-5-3.3t-3.3-5q-1.2-2.8-1.2-6t1.2-6q1.3-2.9 3.3-5t5-3.3q2.9-1.3 6.1-1.3t6 1.3q2.9 1.2 5 3.3t3.3 5z"></path></svg>