<?xml version="1.0"?><svg xmlns="http://www.w3.org/2000/svg" width="40" height="40" viewBox="0 0 40 40"><path d="m28.147142857142857 35.042857142857144q-3.8185714285714276 2.1000000000000014-8.214285714285715 2.1000000000000014-4.375714285714283 0-8.19-2.1000000000000014 3.0785714285714274-1.9399999999999977 5.257142857142858-4.708571428571428t2.934285714285714-5.982857142857142q0.7814285714285703 3.2142857142857153 2.9571428571428555 5.982857142857142t5.257142857142856 4.709999999999997z m-11.047142857142855-31.871428571428574v10.824285714285715q0 5.625714285714288-2.8257142857142856 10.257142857142856t-7.377142857142857 6.842857142857145q-4.040000000000001-4.801428571428573-4.040000000000001-11.052857142857146-4.440892098500626e-16-4.174285714285714 1.8642857142857139-7.800000000000001t5.121428571428572-6.014285714285711 7.257142857142858-3.0571428571428574z m20.042857142857144 16.87142857142857q0 6.251428571428573-4.039999999999999 11.05-4.5528571428571425-2.210000000000001-7.377142857142857-6.842857142857142t-2.8242857142857147-10.257142857142856v-10.821428571428573q3.997142857142858 0.6714285714285722 7.257142857142856 3.0571428571428587t5.12142857142857 6.017142857142856 1.8628571428571448 7.797142857142855z"></path></svg>