<?xml version="1.0"?><svg viewBox="0 0 40 40" xmlns="http://www.w3.org/2000/svg" height="40" width="40"><path d="m26.7 31.6q0 0.3-0.2 0.5t-0.5 0.1h-20q-0.2 0-0.3 0t-0.2-0.1-0.1-0.2 0-0.2-0.1-0.3v-12.5h-4q-0.5 0-0.9-0.4t-0.4-0.9q0-0.5 0.3-0.9l6.7-8q0.4-0.4 1-0.4t1 0.4l6.7 8q0.3 0.4 0.3 0.9 0 0.5-0.4 0.9t-0.9 0.4h-4v8h12q0.3 0 0.5 0.2l3.3 4q0.2 0.3 0.2 0.5z m13.3-8.7q0 0.5-0.3 0.9l-6.7 8q-0.4 0.4-1 0.4t-1-0.4l-6.7-8q-0.3-0.4-0.3-0.9 0-0.5 0.4-0.9t0.9-0.4h4v-8h-12q-0.3 0-0.5-0.3l-3.3-4q-0.2-0.2-0.2-0.4 0-0.3 0.2-0.5t0.5-0.2h20q0.2 0 0.3 0.1t0.2 0.1 0.1 0.2 0 0.2 0.1 0.3v12.5h4q0.5 0 0.9 0.4t0.4 0.9z"></path></svg>