<?xml version="1.0"?><svg viewBox="0 0 40 40" xmlns="http://www.w3.org/2000/svg" height="40" width="40"><path d="m22.2 29.7q0 0.2-0.1 0.3t-0.4 0.2h-16.7q-0.1 0-0.2 0t-0.2-0.1q-0.1-0.1-0.1-0.2t0-0.2q-0.1-0.1-0.1-0.2v-10.4h-3.3q-0.4 0-0.8-0.3t-0.3-0.8q0-0.4 0.3-0.7l5.5-6.7q0.3-0.4 0.9-0.4t0.8 0.4l5.6 6.7q0.2 0.3 0.2 0.7 0 0.4-0.3 0.8t-0.8 0.3h-3.3v6.7h10q0.3 0 0.4 0.2l2.8 3.3q0.1 0.2 0.1 0.4z m11.1-7.3q0 0.4-0.2 0.7l-5.6 6.7q-0.3 0.4-0.8 0.4t-0.9-0.4l-5.5-6.7q-0.3-0.3-0.3-0.7 0-0.4 0.3-0.8t0.8-0.3h3.3v-6.6h-10q-0.2 0-0.4-0.3l-2.8-3.3q-0.1-0.1-0.1-0.3 0-0.3 0.2-0.4t0.4-0.2h16.6q0.2 0 0.3 0t0.1 0.2q0.1 0.1 0.1 0.1t0.1 0.2q0 0.1 0 0.2v10.4h3.3q0.5 0 0.8 0.3t0.3 0.8z"></path></svg>