<?xml version="1.0"?><svg viewBox="0 0 40 40" xmlns="http://www.w3.org/2000/svg" height="40" width="40"><path d="m23.1 21v-0.1l-0.5-6.7q0-0.2-0.2-0.4t-0.5-0.2h-3.8q-0.3 0-0.5 0.2t-0.2 0.4l-0.5 6.7v0.1q-0.1 0.2 0.1 0.4t0.5 0.2h5q0.3 0 0.5-0.2t0.1-0.4z m15.9 9.7q0 1.5-1 1.5h-14.7q0.3 0 0.5-0.1t0.2-0.5l-0.5-5.4q0-0.2-0.2-0.4t-0.5-0.2h-5.6q-0.3 0-0.5 0.2t-0.2 0.4l-0.5 5.4q0 0.3 0.2 0.5t0.5 0.1h-14.7q-1 0-1-1.5 0-1.1 0.6-2.4l8.7-21.7q0.1-0.4 0.5-0.7t0.8-0.3h7.1q-0.3 0-0.5 0.2t-0.2 0.4l-0.4 4q0 0.3 0.2 0.5t0.5 0.2h3.4q0.3 0 0.5-0.2t0.2-0.5l-0.4-4q0-0.2-0.2-0.4t-0.5-0.2h7.1q0.4 0 0.8 0.3t0.5 0.7l8.7 21.7q0.6 1.3 0.6 2.4z"></path></svg>