<?xml version="1.0"?><svg viewBox="0 0 40 40" xmlns="http://www.w3.org/2000/svg" height="40" width="40"><path d="m19.3 20.8v0l-0.4-5.6q0-0.2-0.2-0.4t-0.4-0.1h-3.2q-0.3 0-0.4 0.1t-0.2 0.4l-0.5 5.6v0q0 0.2 0.2 0.4t0.3 0.1h4.3q0.2 0 0.3-0.1t0.2-0.4z m13.2 8.1q0 1.3-0.8 1.3h-12.3q0.3 0 0.4-0.2t0.2-0.3l-0.4-4.5q0-0.2-0.2-0.4t-0.4-0.1h-4.7q-0.2 0-0.4 0.1t-0.2 0.4l-0.3 4.5q0 0.2 0.1 0.3t0.4 0.2h-12.2q-0.8 0-0.8-1.3 0-0.9 0.4-2l7.3-18.1q0.1-0.3 0.4-0.6t0.7-0.2h5.9q-0.3 0-0.4 0.2t-0.2 0.3l-0.3 3.4q0 0.2 0.1 0.4t0.4 0.1h2.9q0.2 0 0.4-0.1t0.1-0.4l-0.2-3.4q0-0.2-0.2-0.3t-0.4-0.2h5.9q0.3 0 0.6 0.2t0.5 0.6l7.2 18.1q0.5 1.1 0.5 2z"></path></svg>