<?xml version="1.0"?><svg viewBox="0 0 40 40" xmlns="http://www.w3.org/2000/svg" height="40" width="40"><path d="m24.5 12.5q0.5-0.5 0.5-1.2t-0.5-1.2q-0.5-0.4-1.2-0.4t-1.1 0.4q-0.5 0.5-0.5 1.2t0.5 1.2q0.4 0.5 1.1 0.5t1.2-0.5z m4.4-6.2q0 4.3-1.3 7.5t-4.4 6.3q-1.4 1.3-3.4 3l-0.4 6.6q0 0.3-0.2 0.4l-6.7 3.9q-0.1 0.1-0.3 0.1-0.2 0-0.4-0.2l-1.1-1.1q-0.2-0.2-0.1-0.5l1.4-4.8-4.8-4.9-4.8 1.5q-0.1 0-0.2 0-0.2 0-0.4-0.2l-1.1-1.1q-0.3-0.3-0.1-0.6l3.9-6.7q0.2-0.3 0.5-0.3l6.5-0.3q1.7-2 3.1-3.4 3.3-3.3 6.2-4.5t7.5-1.2q0.2 0 0.4 0.1t0.2 0.4z"></path></svg>