<?xml version="1.0"?><svg viewBox="0 0 40 40" xmlns="http://www.w3.org/2000/svg" height="40" width="40"><path d="m26.7 8v7.8q0 0.4-0.4 0.7t-0.7 0.4h-7.8q-0.8 0-1-0.7-0.3-0.7 0.2-1.2l2.4-2.4q-2.6-2.4-6.1-2.4-1.8 0-3.4 0.7t-2.9 1.9q-1.1 1.2-1.9 2.9t-0.7 3.4q0 1.8 0.7 3.4t1.9 2.9q1.2 1.2 2.9 1.9t3.4 0.7q2.1 0 3.9-0.9t3.1-2.6q0.2-0.1 0.4-0.2 0.3 0 0.5 0.2l2.4 2.4q0.1 0.1 0.1 0.3t-0.1 0.4q-1.9 2.3-4.6 3.6t-5.7 1.2q-2.7 0-5.1-1t-4.3-2.9q-1.8-1.8-2.8-4.2t-1.1-5.2q0-2.7 1.1-5.2t2.8-4.2q1.8-1.8 4.3-2.9t5.1-1q2.6 0 5 0.9t4.2 2.7l2.3-2.2q0.5-0.5 1.2-0.2 0.7 0.3 0.7 1z"></path></svg>