<?xml version="1.0"?><svg xmlns="http://www.w3.org/2000/svg" width="40" height="40" viewBox="0 0 40 40"><path d="m28.995714285714286 12.61142857142857q0-2.232857142857142-1.451428571428572-3.614285714285714t-3.814285714285713-1.3857142857142861h-7.142857142857142v9.999999999999998h7.142857142857142q2.364285714285714 0 3.814285714285713-1.3857142857142861t1.452857142857141-3.614285714285714z m5.289999999999999 0q0 4.308571428571428-2.8242857142857147 7.031428571428572t-7.28857142857143 2.722857142857144h-7.5871428571428545v2.6342857142857135h11.271428571428569q0.31428571428571317 0 0.5142857142857125 0.1999999999999993t0.1999999999999993 0.514285714285716v2.8571428571428577q0 0.31428571428571317-0.1999999999999993 0.514285714285716t-0.5142857142857125 0.1999999999999993h-11.271428571428569v4.285714285714288q0 0.3142857142857167-0.21142857142856997 0.5142857142857125t-0.5028571428571436 0.20000000000000284h-3.7285714285714295q-0.3114285714285714 0-0.5114285714285707-0.20000000000000284t-0.20285714285714285-0.5142857142857196v-4.285714285714285h-5q-0.31428571428571406 0-0.5142857142857142-0.1999999999999993t-0.20000000000000018-0.5142857142857125v-2.8571428571428577q0-0.31428571428571317 0.20000000000000018-0.5142857142857125t0.5142857142857142-0.1999999999999993h5v-2.6342857142857135h-5q-0.31428571428571406 0-0.5142857142857142-0.1999999999999993t-0.20000000000000018-0.514285714285716v-3.325714285714284q0-0.28999999999999915 0.20000000000000018-0.5028571428571418t0.5142857142857142-0.21142857142856997h5v-14.040000000000008q0-0.31428571428571406 0.1999999999999993-0.5142857142857138t0.5142857142857142-0.20000000000000018h12.028571428571428q4.465714285714284 0 7.289999999999999 2.722857142857143t2.8242857142857147 7.03142857142857z"></path></svg>