<?xml version="1.0"?><svg viewBox="0 0 40 40" xmlns="http://www.w3.org/2000/svg" height="40" width="40"><path d="m14.6 27q0-1.1-0.8-1.9t-1.9-0.8-1.9 0.8-0.8 1.9 0.8 1.9 1.9 0.8 1.9-0.8 0.8-1.9z m7.4 2q-0.3-4.9-3.7-8.4t-8.4-3.7q-0.3 0-0.5 0.2t-0.2 0.5v2.7q0 0.2 0.2 0.4t0.4 0.2q3.3 0.3 5.6 2.6t2.6 5.6q0 0.2 0.2 0.4t0.4 0.2h2.7q0.3 0 0.5-0.2t0.2-0.5z m8.1 0q-0.1-3.2-1.2-6.3t-2.9-5.5-4.3-4.3-5.5-2.9-6.3-1.2q-0.3 0-0.5 0.2-0.2 0.2-0.2 0.5v2.7q0 0.2 0.2 0.4t0.5 0.2q4.3 0.2 7.9 2.4t5.9 5.9 2.4 7.9q0 0.3 0.2 0.5t0.4 0.2h2.7q0.3 0 0.5-0.2 0.2-0.2 0.2-0.5z m6.1-20.2v20.2q0 2.5-1.8 4.3t-4.3 1.8h-20.2q-2.5 0-4.3-1.8t-1.8-4.3v-20.2q0-2.5 1.8-4.3t4.3-1.8h20.2q2.5 0 4.3 1.8t1.8 4.3z"></path></svg>