<?xml version="1.0"?><svg xmlns="http://www.w3.org/2000/svg" width="40" height="40" viewBox="0 0 40 40"><path d="m21.18285714285714 19.93285714285714q0 0.5800000000000018-0.36857142857142833 1.0042857142857144t-0.9257142857142853 0.4242857142857126q-0.5800000000000018 0-1.0042857142857144-0.36857142857142833t-0.42571428571428527-0.9257142857142853q0-0.5799999999999983 0.379999999999999-1.0042857142857144t0.937142857142856-0.4242857142857126 0.9828571428571422 0.36857142857142833 0.4242857142857126 0.9257142857142853z m0.33428571428571274 1.2942857142857136l7.814285714285713-12.971428571428572q-0.20285714285714107 0.17999999999999972-1.508571428571429 1.3971428571428568t-2.8000000000000007 2.5999999999999996-3.048571428571428 2.8342857142857145-2.611428571428572 2.467142857142857-1.12857142857143 1.1485714285714295l-7.788571428571428 12.947142857142858q0.15714285714285658-0.15714285714285836 1.4957142857142856-1.3857142857142861t2.8114285714285714-2.6000000000000014 3.0357142857142865-2.8328571428571436 2.611428571428572-2.4771428571428586 1.1171428571428557-1.12857142857143z m14.44285714285714-1.2285714285714278q0 4.485714285714284-2.3214285714285694 8.281428571428574-0.06714285714285495-0.04285714285714448-0.38000000000000256-0.24571428571428555t-0.5900000000000034-0.36857142857142833-0.36857142857142833-0.16714285714285637q-0.29142857142856826 0-0.29142857142856826 0.28999999999999915 0 0.2228571428571442 1.317142857142855 0.9828571428571422-1.6514285714285712 2.5-4.118571428571428 4.2542857142857144t-5.390000000000001 2.4671428571428606l-0.35714285714285765-1.4957142857142856q-0.022857142857141355-0.2228571428571442-0.33428571428571274-0.2228571428571442-0.1114285714285721 0-0.17857142857142705 0.12285714285714278t-0.04285714285714448 0.21142857142856997l0.35714285714285765 1.5171428571428578q-1.6085714285714268 0.33428571428571274-3.2600000000000016 0.33428571428571274-4.440000000000001 0-8.299999999999999-2.3428571428571416 0.02142857142857224-0.04571428571428271 0.28857142857142826-0.4571428571428555t0.4800000000000004-0.7485714285714309 0.21142857142857174-0.4242857142857126q0-0.28857142857143003-0.2900000000000009-0.28857142857143003-0.13428571428571345 0-0.3800000000000008 0.3242857142857112t-0.5028571428571436 0.7714285714285722-0.3000000000000007 0.5114285714285742q-2.524285714285714-1.6742857142857126-4.285714285714286-4.185714285714287t-2.4571428571428573-5.457142857142859l1.54-0.33428571428571274q0.22285714285714242-0.06857142857142762 0.22285714285714242-0.3357142857142854 0-0.1114285714285721-0.12428571428571455-0.17857142857142705t-0.234285714285714-0.04285714285714448l-1.5185714285714287 0.33285714285714363q-0.31428571428571406-1.6071428571428577-0.31428571428571406-3.102857142857143 0-4.597142857142856 2.434285714285714-8.457142857142857 0.045714285714285374 0.02142857142857224 0.4142857142857146 0.2657142857142851t0.6714285714285717 0.4242857142857144 0.3885714285714288 0.17857142857142883q0.29000000000000004 0 0.29000000000000004-0.2671428571428578 0-0.13285714285714256-0.27857142857142847-0.3428571428571434t-0.725714285714286-0.4814285714285713l-0.4471428571428575-0.2671428571428578q1.7157142857142968-2.502857142857142 4.215714285714297-4.22142857142857t5.4471428571428575-2.388571428571428l0.33428571428571274 1.4971428571428573q0.04285714285714448 0.2228571428571433 0.33285714285714363 0.2228571428571433 0.1114285714285721 0 0.17857142857142705-0.12285714285714278t0.04285714285714448-0.234285714285714l-0.33285714285714363-1.4714285714285715q1.5900000000000034-0.29285714285714537 2.997142857142858-0.29285714285714537 4.551428571428573 0 8.457142857142856 2.4328571428571433-0.8685714285714283 1.25-0.8685714285714283 1.451428571428572 0 0.28857142857142826 0.2671428571428578 0.28857142857142826 0.24285714285714377 0 1.071428571428573-1.4285714285714288 2.475714285714286 1.6742857142857144 4.185714285714287 4.151428571428571t2.3999999999999986 5.379999999999999l-1.2514285714285691 0.2671428571428578q-0.2228571428571442 0.04571428571428626-0.2228571428571442 0.35714285714285765 0 0.11428571428571388 0.12285714285714278 0.17999999999999972t0.21142857142856997 0.04285714285714448l1.2714285714285722-0.28857142857143003q0.3142857142857167 1.6071428571428577 0.3142857142857167 3.1257142857142846z m1.8971428571428604 0q0-3.638571428571428-1.4171428571428564-6.942857142857143t-3.805714285714288-5.69-5.69142857142857-3.805714285714286-6.9428571428571395-1.417142857142855-6.9399999999999995 1.4185714285714286-5.691428571428571 3.805714285714286-3.805714285714286 5.690000000000001-1.4171428571428573 6.942857142857141 1.4171428571428573 6.942857142857143 3.805714285714286 5.689999999999998 5.691428571428571 3.805714285714288 6.942857142857145 1.4171428571428564 6.939999999999998-1.4185714285714255 5.691428571428574-3.805714285714288 3.805714285714288-5.69142857142857 1.4171428571428564-6.940000000000001z m2.142857142857146 0q0 4.062857142857144-1.585714285714289 7.767142857142858t-4.261428571428574 6.385714285714283-6.385714285714286 4.261428571428574-7.764285714285705 1.587142857142858-7.765714285714285-1.585714285714289-6.385714285714285-4.262857142857143-4.261428571428572-6.385714285714286-1.5857142857142892-7.765714285714282 1.5857142857142859-7.767142857142858 4.261428571428572-6.385714285714285 6.385714285714285-4.261428571428572 7.762857142857143-1.5857142857142854 7.768571428571427 1.5857142857142859 6.385714285714286 4.262857142857143 4.261428571428574 6.385714285714286 1.5842857142857127 7.765714285714285z"></path></svg>