<?xml version="1.0"?><svg viewBox="0 0 40 40" xmlns="http://www.w3.org/2000/svg" height="40" width="40"><path d="m16.5 19q0 0.5-0.3 0.8t-0.7 0.4q-0.5 0-0.8-0.3t-0.3-0.8q0-0.4 0.3-0.7t0.7-0.4q0.4 0 0.7 0.3t0.4 0.7z m0.2 1.1l6.1-10.1q-0.1 0.1-1.2 1t-2.1 2.1q-1.2 1-2.4 2.2t-2 1.9q-0.9 0.8-0.9 0.9l-6.1 10.1q0.1-0.2 1.2-1.1t2.2-2q1.1-1.1 2.3-2.2t2.1-2q0.8-0.8 0.8-0.8z m11.3-1q0 3.5-1.8 6.4-0.1 0-0.3-0.2t-0.5-0.2q-0.2-0.2-0.3-0.2-0.2 0-0.2 0.3 0 0.1 1 0.7-1.3 2-3.2 3.3t-4.2 1.9l-0.3-1.1q0-0.2-0.2-0.2-0.1 0-0.2 0.1t0 0.2l0.3 1.1q-1.3 0.3-2.5 0.3-3.5 0-6.5-1.8 0 0 0.2-0.4t0.4-0.6q0.2-0.2 0.2-0.3 0-0.2-0.3-0.2-0.1 0-0.3 0.2t-0.4 0.6q-0.1 0.4-0.2 0.4-1.9-1.3-3.3-3.2t-1.9-4.3l1.2-0.2q0.1-0.1 0.1-0.3 0-0.1-0.1-0.1t-0.1-0.1l-1.2 0.3q-0.3-1.2-0.3-2.4 0-3.6 1.9-6.6 0.1 0 0.4 0.2t0.5 0.4q0.2 0.1 0.3 0.1 0.2 0 0.2-0.2 0-0.1-0.2-0.3t-0.6-0.4l-0.3-0.2q1.3-1.9 3.3-3.2t4.2-1.9l0.3 1.2q0 0.1 0.2 0.1 0.1 0 0.2-0.1t0-0.1l-0.3-1.2q1.3-0.2 2.4-0.2 3.5 0 6.5 1.9-0.6 0.9-0.6 1.1 0 0.2 0.2 0.2 0.2 0 0.8-1.1 1.9 1.3 3.3 3.2t1.8 4.2l-1 0.2q-0.1 0.1-0.1 0.3 0 0.1 0.1 0.2t0.1 0l1-0.2q0.3 1.2 0.3 2.4z m0.3 5.4q1.1-2.6 1.1-5.4t-1.1-5.4q-1.1-2.6-2.9-4.4t-4.4-3q-2.6-1.1-5.4-1.1t-5.4 1.1q-2.6 1.1-4.5 3t-2.9 4.4q-1.1 2.6-1.1 5.4t1.1 5.4q1.1 2.6 2.9 4.4t4.5 3q2.5 1.1 5.4 1.1t5.4-1.1q2.5-1.1 4.4-3t2.9-4.4z m1.6-11.4q1.2 2.8 1.2 6t-1.2 6q-1.3 2.9-3.3 5t-5 3.3q-2.9 1.3-6 1.3t-6.1-1.3q-2.9-1.2-5-3.3t-3.3-5q-1.2-2.8-1.2-6t1.2-6q1.3-2.9 3.3-5t5-3.3q2.9-1.3 6.1-1.3t6 1.3q2.9 1.2 5 3.3t3.3 5z"></path></svg>