<svg viewBox="0 0 1792 1896.0833" xmlns="http://www.w3.org/2000/svg"><path d="m949 893q0 26-16.5 45t-41.5 19q-26 0-45-16.5t-19-41.5q0-26 17-45t42-19 44 16.5 19 41.5z m15 58l350-581q-9 8-67.5 62.5t-125.5 116.5-136.5 127-117 110.5-50.5 51.5l-349 580q7-7 67-62t126-116.5 136-127 117-111 50-50.5z m647-55q0 201-104 371-3-2-17-11t-26.5-16.5-16.5-7.5q-13 0-13 13 0 10 59 44-74 112-184.5 190.5t-241.5 110.5l-16-67q-1-10-15-10-5 0-8 5.5t-2 9.5l16 68q-72 15-146 15-199 0-372-105 1-2 13-20.5t21.5-33.5 9.5-19q0-13-13-13-6 0-17 14.5t-22.5 34.5-13.5 23q-113-75-192-187.5t-110-244.5l69-15q10-3 10-15 0-5-5.5-8t-10.5-2l-68 15q-14-72-14-139 0-206 109-379 2 1 18.5 12t30 19 17.5 8q13 0 13-12 0-6-12.5-15.5t-32.5-21.5l-20-12q77-112 189-189t244-107l15 67q2 10 15 10 5 0 8-5.5t2-10.5l-15-66q71-13 134-13 204 0 379 109-39 56-39 65 0 13 12 13 11 0 48-64 111 75 187.5 186t107.5 241l-56 12q-10 2-10 16 0 5 5.5 8t9.5 2l57-13q14 72 14 140z m85 0q0-163-63.5-311t-170.5-255-255-170.5-311-63.5-311 63.5-255 170.5-170.5 255-63.5 311 63.5 311 170.5 255 255 170.5 311 63.5 311-63.5 255-170.5 170.5-255 63.5-311z m96 0q0 182-71 348t-191 286-286 191-348 71-348-71-286-191-191-286-71-348 71-348 191-286 286-191 348-71 348 71 286 191 191 286 71 348z"/></svg>