<?xml version="1.0"?><svg viewBox="0 0 40 40" xmlns="http://www.w3.org/2000/svg" height="40" width="40"><path d="m21.1 18.8q0 0.6-0.3 1t-0.9 0.4q-0.6 0-1-0.4t-0.4-0.8q0-0.6 0.4-1t0.9-0.4 0.9 0.4 0.4 0.8z m0.3 1.3l7.4-12.3q-0.2 0.2-1.4 1.3t-2.7 2.5-2.8 2.7-2.5 2.3-1.1 1.1l-7.3 12.2q0.1-0.1 1.4-1.3t2.6-2.5 2.9-2.6 2.5-2.4 1-1z m13.7-1.2q0 4.2-2.2 7.8-0.1 0-0.4-0.2t-0.5-0.4-0.4-0.1q-0.3 0-0.3 0.3 0 0.2 1.3 0.9-1.6 2.4-3.9 4t-5.1 2.3l-0.3-1.4q-0.1-0.2-0.3-0.2-0.2 0-0.2 0.1t-0.1 0.2l0.4 1.5q-1.5 0.3-3.1 0.3-4.2 0-7.8-2.2 0-0.1 0.2-0.5t0.5-0.7 0.2-0.4q0-0.2-0.3-0.2-0.1 0-0.4 0.3t-0.4 0.7-0.3 0.5q-2.4-1.6-4.1-4t-2.3-5.1l1.5-0.4q0.2 0 0.2-0.3 0-0.1-0.1-0.1t-0.3-0.1l-1.4 0.3q-0.3-1.5-0.3-2.9 0-4.3 2.3-8 0.1 0 0.4 0.3t0.6 0.4 0.4 0.1q0.3 0 0.3-0.2 0-0.2-0.3-0.4t-0.7-0.4l-0.4-0.3q1.6-2.3 4-3.9t5.1-2.3l0.4 1.4q0 0.2 0.3 0.2 0.1 0 0.1-0.1t0.1-0.2l-0.3-1.4q1.5-0.3 2.8-0.3 4.3 0 8 2.3-0.8 1.2-0.8 1.4 0 0.3 0.2 0.3 0.3 0 1-1.4 2.4 1.6 4 3.9t2.3 5.1l-1.2 0.3q-0.2 0-0.2 0.3 0 0.1 0.1 0.2t0.2 0l1.2-0.3q0.3 1.6 0.3 3z m1.8 0q0-3.4-1.4-6.6t-3.6-5.3-5.3-3.6-6.6-1.4-6.6 1.4-5.3 3.6-3.6 5.3-1.4 6.6 1.4 6.6 3.6 5.3 5.3 3.6 6.6 1.4 6.6-1.4 5.3-3.6 3.6-5.3 1.4-6.6z m2 0q0 3.8-1.5 7.3t-4 6.1-6.1 4-7.3 1.5-7.3-1.5-6.1-4-4-6.1-1.5-7.3 1.5-7.3 4-6.1 6.1-4 7.3-1.5 7.3 1.5 6.1 4 4 6.1 1.5 7.3z"></path></svg>