<?xml version="1.0"?><svg viewBox="0 0 40 40" xmlns="http://www.w3.org/2000/svg" height="40" width="40"><path d="m6.7 30.2h13.3v-6.699999999999999h-13.3v6.699999999999999z m15.5 0h2.1999999999999993v-15.5q0-0.3000000000000007-0.10000000000000142-0.6999999999999993t-0.3999999999999986-0.5999999999999996l-4.899999999999999-4.9q-0.10000000000000142-0.1999999999999993-0.5-0.3000000000000007t-0.6999999999999993-0.20000000000000018v7.2q0 0.6999999999999993-0.5 1.1999999999999993t-1.1999999999999993 0.5h-10q-0.7000000000000002 0-1.2000000000000002-0.5t-0.5-1.1999999999999993v-7.199999999999999h-2.200000000000001v22.2h2.2v-7.199999999999999q0-0.6999999999999993 0.5-1.1999999999999993t1.2000000000000002-0.5h14.5q0.6999999999999993 0 1.1000000000000014 0.5t0.5 1.1999999999999993v7.199999999999999z m-6.6-16.1v-5.599999999999998q0-0.1999999999999993-0.1999999999999993-0.3000000000000007t-0.40000000000000036-0.1999999999999993h-3.3000000000000007q-0.3000000000000007 0-0.40000000000000036 0.1999999999999993t-0.1999999999999993 0.3000000000000007v5.6q0 0.1999999999999993 0.1999999999999993 0.40000000000000036t0.40000000000000036 0.1999999999999993h3.3000000000000007q0.1999999999999993 0 0.40000000000000036-0.1999999999999993t0.1999999999999993-0.40000000000000036z m11.1 0.5999999999999996v16.1q0 0.6999999999999993-0.5 1.1000000000000014t-1.1999999999999993 0.5h-23.3q-0.6999999999999993 0-1.1999999999999993-0.5t-0.5-1.0999999999999979v-23.4q0-0.700000000000002 0.5-1.200000000000002t1.2-0.40000000000000036h16.1q0.6999999999999993 0 1.5 0.2999999999999998t1.3000000000000007 0.7999999999999998l4.899999999999999 4.900000000000001q0.5 0.5 0.8000000000000007 1.3000000000000007t0.3999999999999986 1.5999999999999996z"></path></svg>