<?xml version="1.0"?><svg xmlns="http://www.w3.org/2000/svg" width="40" height="40" viewBox="0 0 40 40"><path d="m31.134285714285717 28.302857142857146c-1.7142857142857153 0.2228571428571442-3.1428571428571423 0.9828571428571422-4.294285714285714 2.2857142857142847s-1.7328571428571422 2.8285714285714256-1.7328571428571422 4.59c0 1.1000000000000014 0.24285714285714377 2.125714285714288 0.7328571428571422 3.0799999999999983-2.171428571428571 1.1614285714285728-4.991428571428571 1.7428571428571402-8.457142857142856 1.7428571428571402-1.6242857142857137 0-3.114285714285714-0.1514285714285748-4.49-0.4642857142857153-1.3657142857142848-0.3142857142857167-2.508571428571429-0.7142857142857153-3.428571428571429-1.2142857142857153-0.9100000000000001-0.5-1.7428571428571429-1.0714285714285694-2.4642857142857144-1.7057142857142864-0.7328571428571431-0.6428571428571459-1.2942857142857145-1.2657142857142887-1.6971428571428566-1.8999999999999986-0.40000000000000036-0.6257142857142881-0.7328571428571431-1.2428571428571402-0.9914285714285711-1.8485714285714252s-0.4371428571428573-1.1071428571428577-0.5285714285714285-1.4828571428571422c-0.08857142857142852-0.3857142857142861-0.132857142857143-0.6714285714285708-0.132857142857143-0.8857142857142861 0-0.2857142857142847 0.03571428571428559-0.5971428571428561 0.10000000000000009-0.9457142857142848s0.20428571428571418-0.7671428571428578 0.40857142857142836-1.25c0.2071428571428573-0.4814285714285731 0.48571428571428577-0.9085714285714275 0.8142857142857141-1.2928571428571445s0.8142857142857141-0.7057142857142864 1.4285714285714288-0.9714285714285715c0.6142857142857139-0.2685714285714269 1.3214285714285712-0.4028571428571439 2.1071428571428577-0.4028571428571439s1.491428571428571 0.13428571428571345 2.0999999999999996 0.39285714285714235c0.605714285714285 0.25714285714285623 1.0785714285714292 0.562857142857144 1.4000000000000004 0.9200000000000017 0.3285714285714292 0.34857142857142875 0.5899999999999999 0.7428571428571438 0.7942857142857136 1.1857142857142868 0.1999999999999993 0.4385714285714286 0.33142857142857096 0.8042857142857152 0.394285714285715 1.0914285714285725s0.08999999999999986 0.5357142857142847 0.08999999999999986 0.75c0 0.5100000000000016-0.17142857142857082 1.1085714285714303-0.5099999999999998 1.8042857142857152 0.41999999999999993 0.40000000000000213 1.0285714285714285 0.7142857142857117 1.8285714285714292 0.937142857142856s1.4928571428571438 0.3471428571428561 2.071428571428573 0.3828571428571408l0.894285714285715 0.017142857142857792c1.7142857142857153 0 3.1242857142857154-0.3857142857142861 4.239999999999998-1.1342857142857135 1.1142857142857139-0.7571428571428562 1.678571428571427-1.75 1.678571428571427-2.9714285714285715 0-0.3857142857142861-0.06285714285714405-0.7514285714285727-0.1971428571428575-1.081428571428571s-0.36571428571428655-0.6714285714285708-0.7057142857142864-0.9928571428571438c-0.3285714285714292-0.3285714285714292-0.7042857142857137-0.6342857142857135-1.105714285714285-0.9100000000000001-0.3999999999999986-0.2857142857142847-0.9571428571428555-0.6071428571428577-1.6514285714285712-0.9828571428571422s-1.3928571428571423-0.7228571428571442-2.09-1.062857142857144c-0.6971428571428575-0.3285714285714292-1.5800000000000018-0.7571428571428562-2.671428571428571-1.2571428571428562-0.41857142857142904-0.1999999999999993-0.7314285714285713-0.34285714285714164-0.9628571428571426-0.4485714285714302-1.7228571428571424-0.821428571428573-3.114285714285714-1.562857142857144-4.171428571428571-2.232857142857142s-1.9628571428571426-1.428571428571427-2.7314285714285713-2.2785714285714285c-0.765714285714286-0.8485714285714288-1.2999999999999998-1.7857142857142865-1.6057142857142859-2.8028571428571425s-0.4571428571428573-2.232857142857142-0.4571428571428573-3.6257142857142846c0-1.1600000000000001 0.15285714285714302-2.2771428571428576 0.4571428571428573-3.3485714285714288s0.7942857142857145-2.097142857142857 1.4714285714285715-3.071428571428571c0.6799999999999997-0.9714285714285715 1.5185714285714278-1.8200000000000003 2.5100000000000007-2.542857142857143 1-0.7228571428571429 2.232857142857142-1.2942857142857143 3.7142857142857153-1.7142857142857142 1.4785714285714207-0.4314285714285722 3.121428571428563-0.6371428571428579 4.944285714285705-0.6371428571428579 1.7857142857142847-5.204170427930421e-17 3.4200000000000017 0.19714285714285712 4.91 0.5800000000000001s2.7142857142857153 0.8857142857142857 3.671428571428571 1.4914285714285713c0.9628571428571426 0.6071428571428572 1.7757142857142867 1.314285714285714 2.445714285714285 2.0999999999999996s1.1428571428571423 1.5714285714285712 1.428571428571427 2.3571428571428577c0.2857142857142847 0.7757142857142858 0.4200000000000017 1.5514285714285716 0.4200000000000017 2.3114285714285714 0 0.685714285714285-0.10857142857143032 1.2942857142857136-0.33142857142857096 1.8399999999999999s-0.4914285714285711 0.9714285714285715-0.8142857142857132 1.2942857142857136c-0.3200000000000003 0.3214285714285712-0.6771428571428579 0.5899999999999999-1.0785714285714292 0.8028571428571425s-0.7671428571428578 0.35714285714285765-1.1000000000000014 0.4371428571428577c-0.3285714285714292 0.07142857142857117-0.6142857142857139 0.10714285714285765-0.8642857142857139 0.10714285714285765h-0.8928571428571423s-0.4828571428571422-0.03428571428571381-0.8657142857142865-0.10571428571428498c-0.3857142857142861-0.07142857142857117-0.7142857142857153-0.17857142857142883-0.9828571428571422-0.31428571428571495s-0.571428571428573-0.33857142857142897-0.9214285714285708-0.6242857142857137c-0.33999999999999986-0.2857142857142865-0.6142857142857139-0.6285714285714281-0.821428571428573-1.0285714285714285s-0.3857142857142861-0.9285714285714288-0.5357142857142847-1.5714285714285712c-0.15142857142857125-0.6514285714285712-0.2228571428571442-1.3757142857142863-0.2228571428571442-2.178571428571429-0.2242857142857133-0.24285714285714288-0.6614285714285728-0.4285714285714288-1.3142857142857132-0.5714285714285712s-1.2571428571428562-0.22285714285714242-1.8142857142857132-0.2328571428571431l-0.8200000000000003-0.02857142857142847c-1.008571428571429 0-1.8857142857142861 0.234285714285714-2.6257142857142863 0.7000000000000002-0.7328571428571422 0.46285714285714263-1.257142857142858 0.9814285714285713-1.5714285714285712 1.5614285714285714s-0.4642857142857135 1.1428571428571423-0.4642857142857135 1.6971428571428575c0 0.35714285714285765 0.035714285714286476 0.6785714285714288 0.10714285714285765 0.9642857142857135s0.25 0.6257142857142863 0.5357142857142865 1.0285714285714285c0.2857142857142865 0.40000000000000036 0.6785714285714288 0.7757142857142867 1.185714285714285 1.1328571428571426s1.234285714285713 0.7599999999999998 2.161428571428571 1.1999999999999993c0.937142857142856 0.43571428571428505 2.0528571428571425 0.8714285714285719 3.3485714285714288 1.299999999999999 1.1342857142857135 0.3771428571428572 2.16 0.7685714285714269 3.09 1.1999999999999993s1.7428571428571438 0.8385714285714272 2.437142857142856 1.2399999999999984c0.6857142857142868 0.3999999999999986 1.3114285714285714 0.8399999999999999 1.8571428571428577 1.3142857142857132s0.9899999999999984 0.918571428571429 1.347142857142856 1.3285714285714292c0.35714285714285765 0.41000000000000014 0.6600000000000001 0.8742857142857154 0.9100000000000001 1.3928571428571423s0.4471428571428575 0.9828571428571422 0.5899999999999999 1.3857142857142861c0.14285714285714235 0.3999999999999986 0.25 0.8742857142857154 0.32142857142857295 1.418571428571429s0.11428571428571388 1.008571428571429 0.13428571428571345 1.3857142857142861c0.02857142857142847 0.3471428571428561 0.02857142857142847 0.8114285714285714 0.02857142857142847 1.3642857142857139z m5.205714285714286 6.2685714285714305c0 1.3214285714285694-0.4642857142857153 2.4571428571428555-1.3999999999999986 3.3999999999999986-0.9485714285714266 0.9571428571428555-2.0814285714285745 1.4285714285714306-3.421428571428571 1.4285714285714306s-2.482857142857142-0.471428571428568-3.428571428571427-1.4185714285714255c-0.9471428571428575-0.9471428571428575-1.4199999999999982-2.0799999999999983-1.4199999999999982-3.3999999999999986 0-1.3428571428571416 0.47142857142857153-2.4857142857142875 1.418571428571429-3.428571428571427s2.09-1.4214285714285708 3.428571428571427-1.4214285714285708 2.471428571428568 0.47142857142857153 3.4200000000000017 1.4199999999999982c0.9371428571428595 0.9471428571428575 1.3999999999999986 2.0799999999999983 1.3999999999999986 3.4200000000000017z"></path></svg>