<?xml version="1.0"?><svg xmlns="http://www.w3.org/2000/svg" width="40" height="40" viewBox="0 0 40 40"><path d="m27.142857142857142 18.571428571428573q0-4.12857142857143-2.935714285714287-7.064285714285715t-7.064285714285713-2.935714285714287-7.064285714285713 2.935714285714285-2.935714285714286 7.064285714285717 2.935714285714286 7.064285714285713 7.064285714285713 2.935714285714287 7.064285714285713-2.935714285714287 2.935714285714287-7.064285714285713z m11.428571428571427 18.571428571428573q0 1.1600000000000037-0.8485714285714252 2.008571428571429t-2.008571428571429 0.8485714285714252q-1.2057142857142864 0-2.008571428571429-0.8485714285714252l-7.657142857142858-7.634285714285717q-3.991428571428571 2.768571428571427-8.90285714285714 2.768571428571427-3.1900000000000013 0-6.102857142857143-1.240000000000002t-5.022857142857143-3.3485714285714288-3.3485714285714283-5.022857142857145-1.2428571428571444-6.102857142857136 1.242857142857143-6.107142857142859 3.345714285714285-5.0214285714285705 5.022857142857142-3.3485714285714288 6.102857142857143-1.237142857142857 6.105714285714285 1.237142857142857 5.022857142857145 3.3485714285714288 3.3485714285714288 5.022857142857143 1.2371428571428602 6.105714285714287q0 4.9085714285714275-2.765714285714285 8.904285714285717l7.657142857142855 7.657142857142858q0.8242857142857147 0.8242857142857147 0.8242857142857147 2.00714285714286z"></path></svg>