<?xml version="1.0"?><svg viewBox="0 0 40 40" xmlns="http://www.w3.org/2000/svg" height="40" width="40"><path d="m24 16.9v1.3q0 0.3-0.2 0.5t-0.5 0.2h-4.7v4.7q0 0.3-0.2 0.5t-0.5 0.2h-1.4q-0.2 0-0.4-0.2t-0.2-0.5v-4.7h-4.8q-0.2 0-0.4-0.2t-0.2-0.5v-1.3q0-0.3 0.2-0.5t0.4-0.2h4.8v-4.7q0-0.3 0.2-0.5t0.4-0.2h1.4q0.3 0 0.5 0.2t0.2 0.5v4.7h4.7q0.3 0 0.5 0.2t0.2 0.5z m2.7 0.7q0-4-2.8-6.7t-6.7-2.8-6.7 2.8-2.7 6.7 2.7 6.6 6.7 2.8 6.7-2.8 2.8-6.6z m10.8 17.5q0 1.1-0.8 1.9t-1.9 0.8q-1.2 0-1.9-0.8l-7.3-7.2q-3.7 2.6-8.4 2.6-3 0-5.8-1.2t-4.7-3.1-3.2-4.8-1.1-5.7 1.1-5.8 3.2-4.8 4.7-3.1 5.8-1.2 5.8 1.2 4.7 3.1 3.2 4.8 1.2 5.8q0 4.6-2.7 8.4l7.3 7.2q0.8 0.8 0.8 1.9z"></path></svg>