<?xml version="1.0"?><svg viewBox="0 0 40 40" xmlns="http://www.w3.org/2000/svg" height="40" width="40"><path d="m26 27.3v-12.7q0-0.3-0.2-0.6t-0.6-0.3h-1.6q-0.4 0-0.6 0.3t-0.3 0.6v12.7q0 0.4 0.3 0.7t0.6 0.2h1.6q0.3 0 0.6-0.2t0.2-0.7z m-4.9 0v-9.2q0-0.3-0.2-0.6t-0.7-0.2h-1.7q-0.4 0-0.6 0.2t-0.3 0.6v9.2q0 0.4 0.3 0.7t0.6 0.2h1.7q0.4 0 0.7-0.2t0.2-0.7z m-5.1 0v-7.4q0-0.4-0.2-0.6t-0.6-0.3h-1.8q-0.3 0-0.6 0.3t-0.2 0.6v7.4q0 0.4 0.2 0.7t0.6 0.2h1.8q0.3 0 0.6-0.2t0.2-0.7z m-5 0v-6.2q0-0.4-0.3-0.6t-0.6-0.3h-1.7q-0.4 0-0.7 0.3t-0.2 0.6v6.2q0 0.4 0.2 0.7t0.7 0.2h1.7q0.4 0 0.6-0.2t0.3-0.7z m24.6-2.5q0 2.9-2.1 4.9t-4.9 2.1h-21.6q-2.9 0-5-2.1t-2-4.9q0-2 1.1-3.7t2.9-2.6q-0.2-0.6-0.2-1.3 0-1.9 1.4-3.3t3.4-1.4q1.8 0 3.1 1.1 0.8-3.1 3.4-5.2t5.9-2q2.5 0 4.7 1.3t3.5 3.4q1.3 2.2 1.3 4.8 0 1.2-0.3 2.1 2.4 0.6 3.9 2.5t1.5 4.3z"></path></svg>