<?xml version="1.0"?><svg viewBox="0 0 40 40" xmlns="http://www.w3.org/2000/svg" height="40" width="40"><path d="m29.3 28.3v-14.4q0-0.4-0.3-0.7t-0.7-0.3h-1.8q-0.4 0-0.7 0.3t-0.3 0.7v14.4q0 0.4 0.3 0.6t0.7 0.3h1.8q0.4 0 0.7-0.3t0.3-0.6z m-5.5 0v-10.4q0-0.4-0.3-0.7t-0.7-0.3h-2q-0.4 0-0.7 0.3t-0.3 0.7v10.4q0 0.4 0.3 0.6t0.7 0.3h2q0.4 0 0.7-0.3t0.3-0.6z m-5.8 0v-8.4q0-0.4-0.2-0.7t-0.7-0.3h-2q-0.4 0-0.7 0.3t-0.3 0.7v8.4q0 0.4 0.3 0.6t0.7 0.3h2q0.4 0 0.7-0.3t0.2-0.6z m-5.7 0v-7.1q0-0.4-0.2-0.7t-0.7-0.3h-2q-0.4 0-0.7 0.3t-0.3 0.7v7.1q0 0.4 0.3 0.6t0.7 0.3h2q0.4 0 0.7-0.3t0.2-0.6z m27.7-2.9q0 3.3-2.3 5.6t-5.6 2.3h-24.2q-3.3 0-5.6-2.3t-2.3-5.6q0-2.3 1.2-4.2t3.3-2.9q-0.2-0.6-0.2-1.4 0-2.2 1.6-3.8t3.8-1.6q2 0 3.5 1.4 0.9-3.6 3.8-5.9t6.6-2.3q2.9 0 5.3 1.4t3.9 3.9 1.5 5.4q0 1.3-0.3 2.4 2.6 0.6 4.3 2.8t1.7 4.8z"></path></svg>