<?xml version="1.0"?><svg xmlns="http://www.w3.org/2000/svg" width="40" height="40" viewBox="0 0 40 40"><path d="m2.857142857142857 31.42857142857143h22.857142857142858v-2.8571428571428577h-22.857142857142858v2.8571428571428577z m0-11.42857142857143h22.857142857142858v-2.8571428571428577h-22.857142857142858v2.8571428571428577z m35 10q0-0.8928571428571423-0.6257142857142881-1.5171428571428578t-1.5171428571428507-0.6257142857142846-1.5171428571428578 0.6257142857142846-0.6257142857142881 1.5171428571428578 0.6257142857142881 1.5171428571428578 1.5171428571428578 0.6257142857142881 1.5171428571428578-0.6257142857142846 0.6257142857142881-1.5171428571428613z m-35-21.42857142857143h22.85714285714286v-2.857142857142855h-22.857142857142858v2.8571428571428568z m35 10q0-0.8928571428571423-0.6257142857142881-1.5171428571428578t-1.5171428571428507-0.625714285714281-1.5171428571428578 0.6257142857142846-0.6257142857142881 1.5171428571428578 0.6257142857142881 1.5171428571428578 1.5171428571428578 0.6257142857142846 1.5171428571428578-0.6257142857142846 0.6257142857142881-1.5171428571428578z m0-11.428571428571429q0-0.8928571428571432-0.6257142857142881-1.5171428571428578t-1.5171428571428507-0.6257142857142828-1.5171428571428578 0.6257142857142854-0.6257142857142881 1.5171428571428578 0.6257142857142881 1.517142857142857 1.5171428571428578 0.6257142857142863 1.5171428571428578-0.6257142857142863 0.6257142857142881-1.517142857142857z m2.142857142857146 18.571428571428577v8.57142857142857h-40v-8.57142857142857h40z m0-11.428571428571429v8.571428571428571h-40v-8.571428571428571h40z m0-11.428571428571429v8.571428571428571h-40v-8.571428571428571h40z"></path></svg>