<?xml version="1.0"?><svg xmlns="http://www.w3.org/2000/svg" width="40" height="40" viewBox="0 0 40 40"><path fill="#444" d="m2.9 31.4h22.8v-2.8h-22.8v2.8z m0-11.4h22.8v-2.9h-22.8v2.9z m35 10q0-0.9-0.7-1.5t-1.5-0.6-1.5 0.6-0.6 1.5 0.6 1.5 1.5 0.6 1.5-0.6 0.7-1.5z m-35-21.4h22.8v-2.9h-22.8v2.9z m35 10q0-0.9-0.7-1.5t-1.5-0.7-1.5 0.7-0.6 1.5 0.6 1.5 1.5 0.6 1.5-0.6 0.7-1.5z m0-11.5q0-0.8-0.7-1.5t-1.5-0.6-1.5 0.6-0.6 1.5 0.6 1.6 1.5 0.6 1.5-0.6 0.7-1.6z m2.1 18.6v8.6h-40v-8.6h40z m0-11.4v8.6h-40v-8.6h40z m0-11.4v8.5h-40v-8.5h40z"></path></svg>