<?xml version="1.0"?><svg xmlns="http://www.w3.org/2000/svg" width="40" height="40" viewBox="0 0 40 40"><path d="m32.85714285714286 22.075714285714284v5.781428571428574q0 2.6571428571428584-1.8857142857142861 4.542857142857141t-4.5428571428571445 1.8857142857142861h-18.571428571428573q-2.6571428571428575 0-4.542857142857144-1.8857142857142861t-1.8857142857142855-4.542857142857141v-18.571428571428573q0-2.6571428571428575 1.885714285714286-4.542857142857144t4.542857142857143-1.885714285714284h5.69142857142857q0.28999999999999915 0 0.5028571428571436 0.2114285714285713t0.21142857142857174 0.5028571428571427q0 0.6028571428571432-0.5800000000000001 0.7142857142857144-1.718571428571428 0.5800000000000001-2.968571428571428 1.3399999999999999-0.22285714285714242 0.08857142857142897-0.35714285714285765 0.08857142857142897h-2.5q-1.4714285714285715 0-2.522857142857143 1.0499999999999998t-1.048571428571429 2.5214285714285722v18.571428571428577q0 1.4742857142857133 1.048571428571429 2.524285714285714t2.522857142857143 1.0471428571428554h18.571428571428573q1.4714285714285715 0 2.5228571428571414-1.047142857142859t1.048571428571428-2.524285714285714v-4.775714285714287q0-0.4242857142857126 0.3999999999999986-0.6471428571428568 0.6285714285714299-0.28999999999999915 1.2071428571428555-0.8257142857142838 0.35714285714285765-0.35714285714285765 0.7814285714285703-0.17857142857142705 0.46857142857142975 0.20285714285714462 0.46857142857142975 0.6485714285714295z m5.289999999999999-11.071428571428571l-8.57142857142857 8.571428571428571q-0.4000000000000057 0.42428571428571615-1.004285714285718 0.42428571428571615-0.2671428571428578 0-0.5571428571428569-0.1114285714285721-0.8714285714285737-0.379999999999999-0.8714285714285737-1.317142857142855v-4.285714285714285h-3.571428571428573q-7.210000000000001 0-9.777142857142858 2.9242857142857126-2.6571428571428566 3.057142857142857-1.6514285714285712 10.557142857142857 0.06714285714285673 0.5142857142857125-0.4471428571428575 0.7600000000000016-0.1785714285714235 0.044285714285713595-0.26714285714285424 0.044285714285713595-0.35714285714285765 0-0.5800000000000001-0.28999999999999915-0.22285714285714242-0.31428571428571317-0.468571428571428-0.6914285714285704t-0.8814285714285717-1.5285714285714285-1.1057142857142868-2.2214285714285715-0.8600000000000003-2.5428571428571445-0.3899999999999988-2.725714285714286q0-1.0928571428571416 0.08000000000000007-2.0285714285714285t0.31428571428571406-2.01 0.6242857142857137-1.9642857142857135 1.048571428571428-1.8185714285714276 1.5285714285714285-1.6514285714285712 2.110000000000001-1.3742857142857146 2.7799999999999994-1.0814285714285745 3.5571428571428587-0.6814285714285715 4.385714285714286-0.24714285714285733h3.5714285714285694v-4.285714285714286q0-0.9357142857142859 0.8714285714285701-1.3142857142857145 0.28999999999999915-0.11428571428571432 0.5571428571428605-0.11428571428571432 0.581428571428571 0 1.0057142857142871 0.4257142857142857l8.57142857142857 8.571428571428571q0.42285714285713993 0.4242857142857144 0.42285714285713993 1.0028571428571436t-0.42285714285713993 1.0057142857142853z"></path></svg>