<?xml version="1.0"?><svg viewBox="0 0 40 40" xmlns="http://www.w3.org/2000/svg" height="40" width="40"><path d="m30.8 25.2q0-1.8-1.3-3.2t-3.2-1.3q-1.8 0-3.1 1.2l-5-2.5q0-0.4 0-0.5t0-0.5l5-2.5q1.3 1.2 3.1 1.2 1.9 0 3.2-1.3t1.3-3.2-1.3-3.2-3.2-1.3-3.2 1.3-1.3 3.2q0 0.1 0 0.5l-5 2.5q-1.4-1.2-3.1-1.2-1.9 0-3.2 1.3t-1.3 3.2 1.3 3.2 3.2 1.3q1.7 0 3.1-1.2l5 2.5q0 0.4 0 0.5 0 1.9 1.3 3.2t3.2 1.3 3.2-1.3 1.3-3.2z m5.4-16.4v20.2q0 2.5-1.8 4.3t-4.3 1.8h-20.2q-2.5 0-4.3-1.8t-1.8-4.3v-20.2q0-2.5 1.8-4.3t4.3-1.8h20.2q2.5 0 4.3 1.8t1.8 4.3z"></path></svg>