<?xml version="1.0"?><svg viewBox="0 0 40 40" xmlns="http://www.w3.org/2000/svg" height="40" width="40"><path d="m21.1 26.9q1.1-1.1 1.1-2.6t-1.1-2.6q-1-1.1-2.6-1.1-1.4 0-2.5 1l-4.2-2.1q0.1-0.3 0.1-0.4t-0.1-0.4l4.2-2.1q1.1 1 2.5 1 1.6 0 2.6-1.1t1.1-2.6q0-1.5-1.1-2.6t-2.6-1.1q-1.5 0-2.6 1.1t-1.1 2.6q0 0.1 0 0.4l-4.1 2.1q-1.1-1-2.6-1-1.5 0-2.6 1.1t-1.1 2.6q0 1.5 1.1 2.6t2.6 1.1q1.5 0 2.6-1l4.1 2.1q0 0.3 0 0.4 0 1.5 1.1 2.6t2.6 1.1q1.6 0 2.6-1.1z m5.6-16.1v16.6q0 2.1-1.5 3.6t-3.5 1.4h-16.7q-2.1 0-3.5-1.4t-1.5-3.6v-16.6q0-2.1 1.5-3.6t3.5-1.4h16.7q2 0 3.5 1.4t1.5 3.6z"></path></svg>