<?xml version="1.0"?><svg viewBox="0 0 40 40" xmlns="http://www.w3.org/2000/svg" height="40" width="40"><path d="m24.4 20.7v4.5q0 2.1-1.4 3.5t-3.6 1.5h-14.4q-2.1 0-3.5-1.5t-1.5-3.5v-14.4q0-2.1 1.5-3.6t3.5-1.4h4.4q0.3 0 0.4 0.1t0.2 0.4q0 0.5-0.5 0.6-1.3 0.4-2.3 1-0.2 0.1-0.3 0.1h-1.9q-1.1 0-2 0.8t-0.8 2v14.4q0 1.2 0.8 2t2 0.8h14.4q1.2 0 2-0.8t0.8-2v-3.7q0-0.3 0.3-0.5 0.5-0.2 1-0.7 0.3-0.2 0.6-0.1 0.3 0.2 0.3 0.5z m4.2-8.6l-6.7 6.7q-0.3 0.3-0.8 0.3-0.2 0-0.4-0.1-0.7-0.3-0.7-1v-3.3h-2.8q-5.6 0-7.6 2.2-2 2.4-1.3 8.2 0.1 0.4-0.3 0.6-0.2 0.1-0.2 0.1-0.3 0-0.5-0.3-0.1-0.2-0.3-0.5t-0.7-1.2q-0.5-0.9-0.9-1.7t-0.7-2q-0.3-1.1-0.3-2.1 0-0.9 0.1-1.6t0.2-1.6q0.2-0.8 0.5-1.5t0.9-1.4q0.5-0.7 1.1-1.3t1.7-1.1q0.9-0.5 2.1-0.8t2.8-0.5q1.6-0.2 3.4-0.2h2.8v-3.3q0-0.8 0.7-1.1 0.2-0.1 0.4-0.1 0.5 0 0.8 0.4l6.7 6.6q0.3 0.4 0.3 0.8t-0.3 0.8z"></path></svg>