<?xml version="1.0"?><svg viewBox="0 0 40 40" xmlns="http://www.w3.org/2000/svg" height="40" width="40"><path d="m17.2 14.4v8.6q0 0.1999999999999993-0.10000000000000142 0.3999999999999986t-0.3999999999999986 0.10000000000000142h-2.8000000000000007q-0.3000000000000007 0-0.40000000000000036-0.10000000000000142t-0.1999999999999993-0.3999999999999986v-8.6q0-2-1.4000000000000004-3.4000000000000004t-3.299999999999999-1.3000000000000007h-4.699999999999999v20q-4.440892098500626e-16 0.1999999999999993-0.20000000000000062 0.3999999999999986t-0.3999999999999999 0.10000000000000142h-2.6999999999999997q-0.3000000000000001 0-0.40000000000000013-0.10000000000000142t-0.2-0.3999999999999986v-23.4q0-0.20000000000000107 0.2-0.40000000000000124t0.4-0.09999999999999964h8q2.4000000000000004 0 4.299999999999999 1.1000000000000005t3.1999999999999993 3.200000000000001q1.1000000000000014 1.9000000000000004 1.1000000000000014 4.300000000000001z m6.699999999999999-8.1v15.3q0 2.3000000000000007-1.1999999999999993 4.300000000000001t-3.1000000000000014 3.1999999999999993q-2 1.1000000000000014-4.300000000000001 1.1000000000000014h-8.099999999999998q-0.1999999999999993 0-0.39999999999999947-0.10000000000000142t-0.09999999999999964-0.3999999999999986v-16.700000000000003q0-0.3000000000000007 0.09999999999999964-0.40000000000000036t0.40000000000000036-0.1999999999999993h2.8q0.1999999999999993 0 0.40000000000000036 0.1999999999999993t0.1999999999999993 0.40000000000000036v13.3h4.700000000000001q1.8999999999999986 0 3.3000000000000007-1.3999999999999986t1.3999999999999986-3.3000000000000007v-15.3q0-0.20000000000000107 0.1999999999999993-0.40000000000000124t0.3999999999999986-0.09999999999999964h2.6999999999999993q0.3000000000000007 0 0.3999999999999986 0.09999999999999964t0.1999999999999993 0.40000000000000036z"></path></svg>