<?xml version="1.0"?><svg xmlns="http://www.w3.org/2000/svg" width="40" height="40" viewBox="0 0 40 40"><path d="m35.37125 32.87125q0.3712499999999963-0.3712500000000034 0.8787499999999966-0.3712500000000034t0.8787499999999966 0.3712500000000034l2.5 2.5-1.7575000000000003 1.7575000000000003-1.6212499999999963-1.6212500000000034-1.6212500000000034 1.6212499999999963q-0.3500000000000014 0.3712500000000034-0.8787499999999966 0.3712500000000034t-0.8787499999999966-0.3712500000000034l-1.6212500000000034-1.6212499999999963-1.6212499999999999 1.6212499999999963q-0.37124999999999986 0.3712500000000034-0.8787500000000001 0.3712500000000034t-0.8787500000000001-0.3712500000000034l-1.6212499999999999-1.6212499999999963-1.6212499999999999 1.6212499999999963q-0.37124999999999986 0.3712500000000034-0.8787500000000001 0.3712500000000034t-0.8787500000000001-0.3712500000000034l-1.6212499999999999-1.6212499999999963-1.6212499999999999 1.6212499999999963q-0.37124999999999986 0.3712500000000034-0.8787500000000001 0.3712500000000034t-0.8787500000000001-0.3712500000000034l-1.6212499999999999-1.6212499999999963-1.6212499999999999 1.6212499999999963q-0.37124999999999986 0.3712500000000034-0.8787500000000001 0.3712500000000034t-0.8787500000000001-0.3712500000000034l-1.6212499999999999-1.6212499999999963-1.6212499999999999 1.6212499999999963q-0.37124999999999986 0.3712500000000034-0.8787500000000001 0.3712500000000034t-0.8787500000000001-0.3712500000000034l-1.6212499999999999-1.6212499999999963-1.6212499999999999 1.6212499999999963q-0.37124999999999986 0.3712500000000034-0.8787500000000001 0.3712500000000034t-0.8787500000000001-0.3712500000000034l-2.5-2.5 1.7574999999999998-1.7575000000000003 1.6212500000000003 1.6212500000000034 1.6212499999999999-1.6212499999999963q0.37125000000000075-0.3712500000000034 0.8787500000000001-0.3712500000000034t0.8787500000000001 0.3712500000000034l1.6212499999999999 1.6212499999999963 1.6212499999999999-1.6212499999999963q0.37124999999999986-0.3712500000000034 0.8787500000000001-0.3712500000000034t0.8787500000000001 0.3712500000000034l1.6212499999999999 1.6212499999999963 1.6212499999999999-1.6212499999999963q0.37124999999999986-0.3712500000000034 0.8787500000000001-0.3712500000000034t0.8787500000000001 0.3712500000000034l1.6212499999999999 1.6212499999999963 1.6212499999999999-1.6212499999999963q0.37124999999999986-0.3712500000000034 0.8787500000000001-0.3712500000000034t0.8787500000000001 0.3712500000000034l1.6212499999999999 1.6212499999999963 1.6212499999999999-1.6212499999999963q0.37124999999999986-0.3712500000000034 0.8787500000000001-0.3712500000000034t0.8787500000000001 0.3712500000000034l1.6212499999999999 1.6212499999999963 1.6212499999999999-1.6212499999999963q0.37124999999999986-0.3712500000000034 0.8787500000000001-0.3712500000000034t0.8787499999999966 0.3712500000000034l1.6212500000000034 1.6212499999999963z m-30.7425-0.7424999999999997q-0.3712500000000034 0.3712499999999963-0.8787500000000037 0.3712499999999963t-0.8787500000000001-0.3712500000000034l-2.5-2.5 1.7574999999999998-1.7575000000000003 1.6212500000000003 1.600000000000005 1.6212499999999999-1.6000000000000014q0.37125000000000075-0.37124999999999986 0.8787500000000001-0.37124999999999986t0.8787500000000001 0.37124999999999986l1.6212499999999999 1.6000000000000014 1.25-1.25v-5.721250000000001l-4.1-6.1325q-0.3337500000000002-0.5075000000000003-0.13750000000000018-1.1037499999999998t0.78125-0.7900000000000009l3.45625-1.1337499999999991v-5.84h2.5v-2.5h5v-2.5h5v2.5h5v2.5h2.5v5.84l3.458750000000002 1.1325000000000003q0.5874999999999986 0.19500000000000028 0.78125 0.7912499999999998t-0.13750000000000284 1.1049999999999986l-4.098749999999999 6.131250000000001v5.7225l0.37124999999999986-0.3500000000000014q0.3687499999999986-0.3724999999999987 0.875-0.3724999999999987t0.8787499999999966 0.37124999999999986l1.6212500000000034 1.6000000000000014 1.6212500000000034-1.6000000000000014q0.37249999999999517-0.37124999999999986 0.8787499999999966-0.37124999999999986t0.8787499999999966 0.37124999999999986l2.5 2.5-1.7575000000000003 1.7574999999999967-1.6212499999999963-1.6212499999999963-1.6212500000000034 1.6212499999999963q-0.3500000000000014 0.3712500000000034-0.8787499999999966 0.3712500000000034t-0.8787499999999966-0.3712500000000034l-1.6212500000000034-1.6212499999999963-1.6212499999999999 1.6212499999999963q-0.37124999999999986 0.3712500000000034-0.8787500000000001 0.3712500000000034t-0.8787500000000001-0.3712500000000034l-1.6212499999999999-1.6212499999999963-1.6212499999999999 1.6212499999999963q-0.37124999999999986 0.3712500000000034-0.8787500000000001 0.3712500000000034t-0.8787500000000001-0.3712500000000034l-1.6212499999999999-1.6212499999999963-1.6212499999999999 1.6212499999999963q-0.37124999999999986 0.3712500000000034-0.8787500000000001 0.3712500000000034t-0.8787500000000001-0.3712500000000034l-1.6212499999999999-1.6212499999999963-1.6212499999999999 1.6212499999999963q-0.37124999999999986 0.3712500000000034-0.8787500000000001 0.3712500000000034t-0.8787500000000001-0.3712500000000034l-1.6212499999999999-1.6212499999999963-1.6212499999999999 1.6212499999999963q-0.36875000000000036 0.3712500000000034-0.8762500000000006 0.3712500000000034t-0.8787500000000001-0.3712500000000034l-1.6237499999999994-1.6212499999999963z m7.871249999999996-22.128750000000004v2.5l7.5-2.5 7.5 2.5v-2.5h-2.5v-2.5h-10v2.5h-2.5z"></path></svg>