<?xml version="1.0"?><svg xmlns="http://www.w3.org/2000/svg" width="40" height="40" viewBox="0 0 40 40"><path d="m2.857142857142857 0h34.285714285714285v31.071428571428573l-17.321428571428573 7.542857142857141-16.964285714285708-7.542857142857141v-31.071428571428573z m32.05285714285714 29.620000000000005v-20.671428571428578h-29.82142857142857v20.671428571428578l14.754285714285714 6.5628571428571405z m0-22.900000000000002v-4.491428571428574h-29.82142857142857v4.485714285714286h29.821428571428577z m-28.014285714285712 6.648571428571428v2.565714285714286h-0.824285714285713v-2.562857142857146h0.8257142857142856z m1.7763568394002505e-15 3.3028571428571407v2.5671428571428585h-0.8242857142857147v-2.5671428571428585h0.8257142857142856z m0 3.3028571428571425v2.5671428571428585h-0.8242857142857147v-2.565714285714286h0.8257142857142856z m0 3.304285714285715v2.5671428571428585h-0.8242857142857147v-2.5671428571428585h0.8257142857142856z m0 3.3028571428571425v2.565714285714286h-0.8242857142857147v-2.5614285714285714h0.8257142857142856z m0.581428571428571 3.1914285714285704l0.3342857142857145-0.7571428571428562 2.3428571428571434 1.0471428571428554-0.33285714285714363 0.7371428571428567z m3.0357142857142865 1.3385714285714272l0.33285714285714363-0.7571428571428562 2.3428571428571434 1.0285714285714285-0.33142857142857274 0.7600000000000051z m3.0142857142857142 1.3428571428571416l0.33285714285714363-0.7600000000000016 2.3428571428571434 1.0285714285714285-0.33285714285714363 0.7571428571428598z m3.034285714285714 1.3142857142857167l0.33428571428571274-0.7357142857142875 2.321428571428573 1.028571428571425-0.33428571428571274 0.7571428571428598z m4.085714285714285 0.29142857142856826l2.3428571428571416-1.028571428571432 0.33428571428571274 0.7385714285714258-2.3428571428571416 1.0499999999999972z m3.0114285714285707-1.3399999999999963l2.3428571428571416-1.0285714285714285 0.3357142857142854 0.7600000000000016-2.3428571428571416 1.028571428571432z m3.0371428571428574-1.3385714285714272l2.3428571428571416-1.0285714285714285 0.3357142857142854 0.7571428571428562-2.3428571428571416 1.028571428571425z m3.014285714285716-1.3185714285714276l2.3428571428571416-1.048571428571428 0.33428571428571274 0.7571428571428562-2.3428571428571416 1.0285714285714285z m-21.071428571428573-26.781428571428574v0.8028571428571443h-2.5457142857142845v-0.8042857142857143h2.5428571428571427z m3.614285714285714 1.3322676295501878e-15v0.8028571428571429h-2.567142857142855v-0.8042857142857143h2.571428571428571z m3.614285714285714 0v0.8028571428571429h-2.5628571428571423v-0.8042857142857143h2.5671428571428567z m3.595714285714287 0v0.8028571428571429h-2.5428571428571445v-0.8042857142857143h2.5428571428571445z m3.614285714285714 0v0.8028571428571429h-2.5428571428571445v-0.8042857142857143h2.5428571428571445z m3.6185714285714283 0v0.8028571428571429h-2.567142857142855v-0.8042857142857143h2.5685714285714276z m3.614285714285714 0v0.8028571428571429h-2.565714285714286v-0.8042857142857143h2.5671428571428585z m3.5942857142857143 0v0.8028571428571429h-2.5428571428571445v-0.8042857142857143h2.5428571428571445z m-27.007142857142856 7.59v1.7614285714285725h-0.8257142857142856v-2.5671428571428585h2.5671428571428567v0.8028571428571425h-1.7428571428571429z m5.357142857142858-0.8042857142857134v0.8028571428571425h-2.5685714285714276v-0.8042857142857152h2.571428571428571z m3.614285714285714 0v0.8028571428571425h-2.564285714285715v-0.8042857142857152h2.5671428571428567z m3.595714285714287 0v0.8028571428571425h-2.5428571428571445v-0.8042857142857152h2.5428571428571445z m3.614285714285714 0v0.8028571428571425h-2.5428571428571445v-0.8042857142857152h2.5428571428571445z m3.6185714285714283 0v0.8028571428571425h-2.5685714285714276v-0.8042857142857152h2.5685714285714276z m3.614285714285714 0v0.8028571428571425h-2.565714285714286v-0.8042857142857152h2.5671428571428585z m2.7914285714285683 2.5671428571428567v-1.7628571428571433h-1.7428571428571438v-0.8028571428571425h2.5685714285714276v2.5671428571428567h-0.8257142857142838z m0 3.3028571428571425v-2.5657142857142876h0.8257142857142838v2.565714285714286h-0.8257142857142838z m0 3.3042857142857134v-2.5700000000000003h0.8257142857142838v2.5671428571428585h-0.8257142857142838z m0 3.3000000000000007v-2.565714285714286h0.8257142857142838v2.5671428571428585h-0.8257142857142838z m0 3.3057142857142843v-2.5671428571428585h0.8257142857142838v2.5671428571428585h-0.8257142857142838z m0 3.3028571428571425v-2.564285714285713h0.8257142857142838v2.565714285714286h-0.8257142857142838z m-13.28142857142857-0.7814285714285703q-2.879999999999999 0-4.9328571428571415-2.0428571428571445t-2.0528571428571425-4.945714285714285q0-2.879999999999999 2.0528571428571425-4.9328571428571415t4.9328571428571415-2.0528571428571425q2.8999999999999986 0 4.942857142857143 2.0528571428571425t2.0428571428571445 4.9328571428571415q0 2.8999999999999986-2.0428571428571445 4.942857142857143t-4.942857142857143 2.042857142857141z m-3.6828571428571415-8.505714285714284q0 0.8028571428571425 0.43571428571428683 1.2614285714285707t1.1042857142857159 0.5571428571428569 1.428571428571427 0.15714285714285836 1.428571428571427 0.04285714285714448 1.1042857142857159 0.1999999999999993 0.43571428571428683 0.6828571428571415q0 1.0942857142857143-2.5 1.0942857142857143-2.1657142857142873 0-2.7457142857142856-1.138571428571428h-0.06571428571428584l-0.6914285714285704 1.4057142857142857q1.4957142857142856 0.9385714285714286 3.614285714285714 0.9385714285714286 0.6485714285714295 0 1.2628571428571433-0.1114285714285721t1.2385714285714293-0.35714285714285765 1.0171428571428578-0.7385714285714293 0.39000000000000057-1.1828571428571415q0-1.0285714285714285-0.6142857142857139-1.5514285714285734t-1.5071428571428562-0.6042857142857159-1.774285714285714-0.0671428571428585-1.4957142857142856-0.1114285714285721-0.6142857142857139-0.5685714285714276q0-0.46857142857142975 0.4571428571428555-0.7371428571428567t0.9057142857142857-0.33428571428571274 0.9142857142857146-0.0671428571428585q0.7600000000000016 0 1.5757142857142874 0.24571428571428555t1.1499999999999986 0.7571428571428562h0.0671428571428585l0.668571428571429-1.2942857142857136q-0.0671428571428585-0.022857142857141355-0.46857142857142975-0.19000000000000128t-0.5028571428571418-0.1999999999999993-0.43571428571428683-0.15714285714285836-0.4914285714285711-0.15428571428571303-0.4485714285714302-0.10000000000000142-0.5357142857142847-0.08999999999999986-0.5114285714285707-0.024285714285714022q-0.6471428571428568 0-1.2614285714285707 0.1114285714285721t-1.2071428571428555 0.3714285714285701-0.9600000000000009 0.7571428571428562-0.36857142857142833 1.1942857142857157z"></path></svg>