<?xml version="1.0"?><svg xmlns="http://www.w3.org/2000/svg" width="40" height="40" viewBox="0 0 40 40"><path d="m39.21857142857143 31.42857142857143l0.7814285714285703 6.9857142857142875q0.06714285714285495 0.6285714285714263-0.3571428571428541 1.1171428571428592-0.42428571428571615 0.46857142857142264-1.0714285714285765 0.46857142857142264h-37.14285714285714q-0.6471428571428591 0-1.0714285714285734-0.46857142857142975-0.42428571428571427-0.4914285714285711-0.35714285714285715-1.1142857142857139l0.7814285714285714-6.988571428571426h38.43714285714286z m-2.075714285714284-18.728571428571428l1.9200000000000017 17.299999999999997h-38.12571428571429l1.9199999999999977-17.299999999999997q0.06714285714285717-0.5342857142857156 0.4685714285714284-0.9028571428571439t0.96-0.3685714285714301h5.714285714285714v2.8571428571428577q0 1.1828571428571433 0.8371428571428563 2.0200000000000014t2.0200000000000014 0.8371428571428545 2.0199999999999996-0.8371428571428581 0.8371428571428581-2.019999999999998v-2.8571428571428577h8.57142857142857v2.8571428571428577q0 1.1828571428571433 0.8371428571428581 2.0200000000000014t2.0199999999999996 0.8371428571428545 2.0199999999999996-0.8371428571428581 0.8371428571428581-2.019999999999998v-2.8571428571428577h5.714285714285715q0.5571428571428569 0 0.9600000000000009 0.36857142857142833t0.46857142857142975 0.9028571428571439z m-8.571428571428573-4.128571428571432v5.7142857142857135q0 0.5800000000000001-0.4242857142857126 1.0042857142857144t-1.004285714285718 0.42428571428571615-1.0042857142857144-0.4242857142857144-0.4242857142857126-1.0042857142857144v-5.714285714285715q0-2.3657142857142857-1.6742857142857126-4.04t-4.040000000000003-1.674285714285714-4.039999999999999 1.674285714285714-1.6742857142857144 4.04v5.7142857142857135q0 0.5800000000000001-0.4242857142857144 1.0042857142857144t-1.0042857142857144 0.42428571428571615-1.0042857142857144-0.4242857142857144-0.4242857142857144-1.0042857142857144v-5.714285714285715q0-3.548571428571428 2.5114285714285725-6.0600000000000005t6.059999999999999-2.5114285714285707 6.060000000000002 2.5114285714285716 2.5114285714285707 6.06z"></path></svg>