<?xml version="1.0"?><svg viewBox="0 0 40 40" xmlns="http://www.w3.org/2000/svg" height="40" width="40"><path d="m15.9 32.4q0 1.1-0.8 1.9t-1.9 0.8-1.8-0.8-0.9-1.9 0.9-1.9 1.8-0.8 1.9 0.8 0.8 1.9z m19 0q0 1.1-0.8 1.9t-1.9 0.8-1.9-0.8-0.8-1.9 0.8-1.9 1.9-0.8 1.9 0.8 0.8 1.9z m2.7-22.9v10.8q0 0.5-0.4 0.8t-0.9 0.5l-22 2.6q0.3 1.2 0.3 1.5 0 0.3-0.5 1.3h19.4q0.6 0 1 0.4t0.4 1-0.4 0.9-1 0.4h-21.6q-0.5 0-1-0.4t-0.4-0.9q0-0.3 0.2-0.7t0.4-0.8 0.4-0.8 0.3-0.6l-3.7-17.4h-4.3q-0.6 0-1-0.4t-0.4-0.9 0.4-1 1-0.4h5.4q0.3 0 0.6 0.1t0.4 0.4 0.3 0.5 0.2 0.5 0.1 0.7 0.1 0.5h25.3q0.6 0 1 0.4t0.4 1z"></path></svg>