<svg viewBox="0 0 1536 1896.0833" xmlns="http://www.w3.org/2000/svg"><path d="m1184 896q0 26-19 45l-544 544q-19 19-45 19t-45-19-19-45v-288h-448q-26 0-45-19t-19-45v-384q0-26 19-45t45-19h448v-288q0-26 19-45t45-19 45 19l544 544q19 19 19 45z m352-352v704q0 119-84.5 203.5t-203.5 84.5h-320q-13 0-22.5-9.5t-9.5-22.5q0-4-1-20t-0.5-26.5 3-23.5 10-19.5 20.5-6.5h320q66 0 113-47t47-113v-704q0-66-47-113t-113-47h-288-11-13t-11.5-1-11.5-3-8-5.5-7-9-2-13.5q0-4-1-20t-0.5-26.5 3-23.5 10-19.5 20.5-6.5h320q119 0 203.5 84.5t84.5 203.5z"/></svg>