<?xml version="1.0"?><svg viewBox="0 0 40 40" xmlns="http://www.w3.org/2000/svg" height="40" width="40"><path d="m13.6 24.8q1.4-1.4 1.4-3.3t-1.4-3.4q-1.4-1.3-3.3-1.3t-3.3 1.3q-1.4 1.4-1.4 3.4t1.4 3.3q1.3 1.3 3.3 1.3t3.3-1.3z m15 0q1.4-1.4 1.4-3.4t-1.4-3.3q-1.4-1.3-3.3-1.3t-3.3 1.3q-1.4 1.4-1.4 3.3 0 2 1.4 3.4t3.3 1.3q1.9 0 3.3-1.3z m7-17.4v23.4q0 0.8-0.6 1.3t-1.3 0.6h-31.8q-0.8 0-1.4-0.6t-0.5-1.3v-23.4q0-0.8 0.5-1.3t1.4-0.6h7.5q0.7 0 1.3 0.6t0.5 1.3v2.8h13.1v-2.8q0-0.8 0.6-1.3t1.3-0.6h7.5q0.8 0 1.3 0.6t0.6 1.3z"></path></svg>