<?xml version="1.0"?><svg viewBox="0 0 40 40" xmlns="http://www.w3.org/2000/svg" height="40" width="40"><path d="m24.8 13.7z m4.5 3.5q2.6 0 4.4 1.7t1.9 4.3q0 2.7-1.9 4.5t-4.7 1.8q-1.4 0-2.8-0.5t-2.4-1.2q-1-0.8-2-1.9t-1.9-2.2q-0.9-1.1-1.8-2.3t-1.9-2.2q-1-1-2-1.8t-2.4-1.3q-1.3-0.5-2.8-0.5-2.6 0-4.3 1.6t-1.7 4.3q0 2.7 1.8 4.3t4.6 1.6q1.7 0 3.6-0.6t3.3-1.7q0.1-0.1 0.4-0.4t0.5-0.4q0.2-0.1 0.4-0.1 0.2 0 0.4 0.1t0.2 0.5q0 0.4-1 1.3-1.8 1.5-4.1 2.5t-4.5 0.9q-2.3 0-4.3-1t-3.1-2.9q-1.2-1.8-1.2-4.1 0-3.6 2.5-6t6-2.3q2.1 0 3.9 0.7t3.2 2q1.4 1.2 2.7 2.6t2.4 3q1.1 1.4 2.3 2.6t2.6 2q1.4 0.7 3 0.7 1.8 0 2.9-1t1.2-2.8q0-1.7-1.1-2.8t-2.8-1.1q-0.5 0-1.4 0.3t-1.2 0.3q-0.4 0-0.6-0.2t-0.3-0.6q0-0.4 0.1-1t0.2-1.1q0-2.7-1.9-4.5t-4.6-1.8q-1 0-1.9 0.3t-1.5 0.7q-0.5 0.4-1 0.7t-0.5 0.3q-0.3 0-0.5-0.2t-0.2-0.4q0-0.3 0.5-0.8 1-1.2 2.5-1.8t3.2-0.6q3.3 0 5.5 2.1t2.2 5.5q0 0.7-0.1 1.2 1-0.3 2-0.3z"></path></svg>