<?xml version="1.0"?><svg viewBox="0 0 40 40" xmlns="http://www.w3.org/2000/svg" height="40" width="40"><path d="m28.5 22.4q0-1-0.4-1.9t-1-1.5-1.5-1-1.8-0.7-1.8-0.5l-2.2-0.5q-0.6-0.1-0.9-0.2t-0.8-0.3-0.6-0.3-0.4-0.4-0.1-0.7q0-1.6 3-1.6 0.9 0 1.6 0.3t1.2 0.6 0.8 0.7 0.8 0.6 1 0.2q1 0 1.6-0.6t0.6-1.7q0-1.1-1.1-2.1t-3-1.4-3.9-0.5q-1.4 0-2.8 0.4t-2.5 0.9-1.9 1.9-0.7 2.7q0 1.3 0.4 2.2t1.2 1.6 1.7 1.1 2.2 0.6l3.1 0.8q1.9 0.5 2.3 0.8 0.7 0.4 0.7 1.2 0 0.8-0.9 1.4t-2.2 0.5q-1 0-1.9-0.3t-1.4-0.8-0.9-1-1-0.8-1.1-0.3q-1.1 0-1.6 0.6t-0.6 1.6q0 1.9 2.6 3.3t6.1 1.4q1.6 0 3-0.4t2.6-1.1 1.8-2 0.7-2.8z m7.7 4.6q0 3.4-2.4 5.7t-5.7 2.4q-2.7 0-4.9-1.7-1.7 0.4-3.2 0.4-3 0-5.8-1.2t-4.7-3.2-3.2-4.7-1.2-5.8q0-1.5 0.4-3.2-1.7-2.2-1.7-4.9 0-3.4 2.4-5.7t5.7-2.4q2.7 0 4.9 1.7 1.7-0.3 3.2-0.3 3 0 5.8 1.1t4.7 3.2 3.2 4.7 1.2 5.8q0 1.5-0.4 3.2 1.7 2.2 1.7 4.9z"></path></svg>