<?xml version="1.0"?><svg xmlns="http://www.w3.org/2000/svg" width="40" height="40" viewBox="0 0 40 40"><path d="m29.04 23.728571428571428q0-1.1171428571428557-0.43571428571428683-2.0428571428571445t-1.0828571428571436-1.5285714285714285-1.62857142857143-1.095714285714287-1.8428571428571416-0.7571428571428562-1.952857142857141-0.5142857142857125l-2.321428571428573-0.5357142857142847q-0.6714285714285708-0.15714285714285836-0.9828571428571422-0.23428571428571487t-0.7814285714285703-0.25714285714285623-0.6714285714285708-0.35714285714285765-0.36714285714285566-0.468571428571428-0.16571428571428726-0.6714285714285708q0-1.717142857142857 3.2142857142857153-1.717142857142857 0.9600000000000009 0 1.7185714285714297 0.2671428571428578t1.2057142857142864 0.637142857142857 0.8500000000000014 0.7471428571428564 0.8928571428571423 0.6457142857142859 1.071428571428573 0.2671428571428578q1.048571428571428 0 1.6857142857142868-0.7142857142857135t0.6357142857142861-1.7200000000000006q0-1.2285714285714278-1.25-2.2214285714285715t-3.171428571428571-1.5057142857142853-4.061428571428571-0.5142857142857142q-1.5171428571428578 0-2.9471428571428575 0.34714285714285786t-2.6671428571428564 1.0471428571428572-1.9857142857142858 1.942857142857143-0.7485714285714291 2.8671428571428574q0 1.3614285714285703 0.4242857142857144 2.377142857142859t1.25 1.6857142857142868 1.7857142857142865 1.0828571428571436 2.3000000000000007 0.725714285714286l3.2571428571428562 0.8028571428571425q2.008571428571429 0.4914285714285711 2.5 0.8028571428571425 0.7142857142857153 0.4471428571428575 0.7142857142857153 1.3399999999999999 0 0.8714285714285701-0.8928571428571423 1.4400000000000013t-2.3428571428571416 0.5685714285714276q-1.1400000000000006 0-2.042857142857141-0.35714285714285765t-1.452857142857141-0.8599999999999994-1.0142857142857142-1.0042857142857144-1.0285714285714285-0.8599999999999994-1.2057142857142864-0.35714285714285765q-1.1171428571428574 0-1.685714285714285 0.6714285714285708t-0.5714285714285712 1.6742857142857126q0 2.0528571428571425 2.724285714285715 3.5142857142857125t6.4957142857142856 1.4628571428571426q1.62857142857143 0 3.1242857142857154-0.4142857142857146t2.735714285714284-1.192857142857143 1.975714285714286-2.0857142857142854 0.7371428571428567-2.935714285714287z m8.102857142857147 4.842857142857145q0 3.5485714285714316-2.5114285714285742 6.059999999999999t-6.059999999999999 2.5114285714285742q-2.8999999999999986 0-5.222857142857144-1.7857142857142847-1.7199999999999989 0.3571428571428541-3.3485714285714288 0.3571428571428541-3.1914285714285704 0-6.104285714285714-1.2385714285714258t-5.024285714285714-3.347142857142863-3.347142857142857-5.024285714285714-1.2385714285714293-6.104285714285712q0-1.62857142857143 0.35714285714285676-3.3485714285714288-1.7857142857142851-2.322857142857144-1.7857142857142851-5.222857142857142 0-3.548571428571428 2.511428571428571-6.0600000000000005t6.0600000000000005-2.511428571428571q2.9000000000000004 0 5.222857142857142 1.785714285714286 1.7199999999999989-0.35714285714285765 3.3485714285714288-0.35714285714285765 3.1914285714285704 0 6.104285714285716 1.2385714285714284t5.0242857142857105 3.347142857142858 3.347142857142856 5.024285714285714 1.2385714285714329 6.104285714285714q0 1.62857142857143-0.3571428571428541 3.3485714285714288 1.7857142857142847 2.322857142857142 1.7857142857142847 5.222857142857144z"></path></svg>