<svg viewBox="0 0 1536 1896.0833" xmlns="http://www.w3.org/2000/svg"><path d="m1173 1063q0-50-19.5-91.5t-48.5-68.5-73-49-82.5-34-87.5-23l-104-24q-30-7-44-10.5t-35-11.5-30-16-16.5-21-7.5-30q0-77 144-77 43 0 77 12t54 28.5 38 33.5 40 29 48 12q47 0 75.5-32t28.5-77q0-55-56-99.5t-142-67.5-182-23q-68 0-132 15.5t-119.5 47-89 87-33.5 128.5q0 61 19 106.5t56 75.5 80 48.5 103 32.5l146 36q90 22 112 36 32 20 32 60 0 39-40 64.5t-105 25.5q-51 0-91.5-16t-65-38.5-45.5-45-46-38.5-54-16q-50 0-75.5 30t-25.5 75q0 92 122 157.5t291 65.5q73 0 140-18.5t122.5-53.5 88.5-93.5 33-131.5z m363 217q0 159-112.5 271.5t-271.5 112.5q-130 0-234-80-77 16-150 16-143 0-273.5-55.5t-225-150-150-225-55.5-273.5q0-73 16-150-80-104-80-234 0-159 112.5-271.5t271.5-112.5q130 0 234 80 77-16 150-16 143 0 273.5 55.5t225 150 150 225 55.5 273.5q0 73-16 150 80 104 80 234z"/></svg>