<?xml version="1.0"?><svg viewBox="0 0 40 40" xmlns="http://www.w3.org/2000/svg" height="40" width="40"><path d="m20.4 22q0-0.9-0.4-1.6t-0.8-1.2q-0.5-0.5-1.3-0.8t-1.4-0.6q-0.7-0.2-1.5-0.4l-1.8-0.4q-0.6-0.2-0.8-0.2t-0.6-0.2q-0.4-0.2-0.5-0.3t-0.3-0.4q-0.1-0.2-0.1-0.5 0-1.3 2.5-1.3 0.7 0 1.3 0.2t0.9 0.5q0.4 0.3 0.7 0.6t0.7 0.5q0.4 0.2 0.8 0.2 0.8 0 1.3-0.6t0.5-1.3q0-1-1-1.7t-2.4-1.2q-1.5-0.4-3.2-0.4-1.2 0-2.3 0.3t-2 0.8q-1 0.5-1.6 1.5t-0.6 2.2q0 1.1 0.4 1.9t0.9 1.3q0.7 0.5 1.4 0.8t1.8 0.6l2.5 0.6q1.6 0.4 2 0.6 0.5 0.4 0.5 1.1 0 0.6-0.7 1.1t-1.8 0.4q-0.9 0-1.6-0.2t-1.1-0.7q-0.4-0.4-0.8-0.8t-0.8-0.7q-0.4-0.2-0.9-0.2-0.9 0-1.3 0.5t-0.5 1.3q0 1.6 2.1 2.7t5.1 1.2q1.3 0 2.4-0.4t2.2-0.9q0.9-0.6 1.5-1.6t0.6-2.3z m6.3 3.8q0 2.7-2 4.7t-4.7 1.9q-2.3 0-4.1-1.4-1.3 0.3-2.6 0.3-2.4 0-4.7-0.9t-3.9-2.6q-1.7-1.7-2.6-4t-1-4.7q0-1.3 0.3-2.6-1.4-1.8-1.4-4.1 0-2.7 2-4.7t4.7-1.9q2.2 0 4 1.4 1.4-0.3 2.6-0.3 2.5 0 4.8 0.9t3.9 2.6q1.6 1.7 2.6 3.9t1 4.8q0 1.3-0.3 2.6 1.4 1.8 1.4 4.1z"></path></svg>