<?xml version="1.0"?><svg viewBox="0 0 40 40" xmlns="http://www.w3.org/2000/svg" height="40" width="40"><path d="m34.5 16.4q1.3 0 2.2 0.8t0.9 2.2q0 2-2 2.7l-3.6 1.3 1.1 3.5q0.2 0.4 0.2 1 0 1.2-0.9 2.1t-2.1 0.9q-1 0-1.8-0.5t-1.2-1.6l-1.1-3.4-6.6 2.2 1.2 3.5q0.2 0.5 0.2 0.9 0 1.3-0.9 2.2t-2.2 0.9q-1 0-1.8-0.6t-1.1-1.5l-1.1-3.4-3.3 1.1q-0.6 0.2-1 0.2-1.3 0-2.2-0.9t-0.8-2.1q0-1 0.6-1.8t1.5-1.1l3.3-1.1-2.3-6.6-3.2 1.1q-0.6 0.2-1.1 0.2-1.2 0-2.1-0.9t-0.9-2.1q0-1 0.6-1.8t1.5-1.1l3.3-1.1-1.1-3.4q-0.1-0.5-0.1-1 0-1.2 0.8-2.1t2.2-0.9q1 0 1.8 0.5t1.1 1.6l1.2 3.3 6.5-2.2-1.1-3.3q-0.2-0.6-0.2-1 0-1.3 0.9-2.2t2.1-0.9q1 0 1.8 0.6t1.2 1.5l1.1 3.4 3.4-1.2q0.4-0.1 0.9-0.1 1.3 0 2.2 0.8t0.9 2.1q0 1-0.7 1.7t-1.5 1.1l-3.4 1.2 2.3 6.6 3.4-1.2q0.5-0.1 1-0.1z m-16.8 5.5l6.6-2.2-2.2-6.7-6.6 2.3z"></path></svg>