<?xml version="1.0"?><svg xmlns="http://www.w3.org/2000/svg" width="40" height="40" viewBox="0 0 40 40"><path d="m35.33428571428572 17.321428571428573q1.3857142857142861 0 2.3100000000000023 0.904285714285713t0.9285714285714306 2.265714285714285q0 2.1657142857142873-2.07714285714286 2.8999999999999986l-3.8400000000000034 1.3185714285714276 1.25 3.7285714285714278q0.15714285714285836 0.4671428571428571 0.15714285714285836 1.0471428571428554 0 1.3171428571428585-0.9385714285714286 2.277142857142856t-2.2542857142857144 0.9600000000000009q-1.048571428571428 0-1.9085714285714275-0.6028571428571396t-1.1942857142857157-1.6071428571428577l-1.2285714285714278-3.685714285714287-6.918571428571429 2.367142857142859 1.2285714285714278 3.6599999999999966q0.17714285714285793 0.5342857142857156 0.17714285714285793 1.047142857142859 0 1.317142857142855-0.937142857142856 2.277142857142856t-2.277142857142863 0.9642857142857224q-1.048571428571428 0-1.8971428571428568-0.6042857142857159t-1.185714285714285-1.607142857142854l-1.225714285714286-3.638571428571428-3.4142857142857146 1.1828571428571415q-0.6485714285714277 0.20000000000000284-1.1171428571428574 0.20000000000000284-1.3614285714285712 0-2.265714285714286-0.8914285714285697t-0.9042857142857139-2.2571428571428562q0-1.0471428571428554 0.6142857142857139-1.8957142857142841t1.5971428571428579-1.1828571428571415l3.482857142857142-1.1828571428571415-2.3428571428571434-6.985714285714284-3.4857142857142858 1.2042857142857137q-0.5785714285714283 0.17857142857142705-1.0714285714285712 0.17857142857142705-1.338571428571429 0-2.2528571428571427-0.904285714285713t-0.9171428571428573-2.2428571428571438q0-1.048571428571428 0.6142857142857143-1.8971428571428568t1.5957142857142856-1.1828571428571433l3.5042857142857136-1.1828571428571433-1.1828571428571433-3.548571428571428q-0.17857142857142883-0.5357142857142865-0.17857142857142883-1.048571428571428 0-1.3399999999999999 0.9371428571428568-2.2885714285714283t2.2785714285714294-0.9485714285714284q1.048571428571428 0 1.8971428571428568 0.6028571428571432t1.1800000000000015 1.6071428571428417l1.2071428571428573 3.571428571428571 6.921428571428574-2.3428571428571416-1.2085714285714317-3.571428571428572q-0.17857142857142705-0.5357142857142856-0.17857142857142705-1.0485714285714285 0-1.3171428571428572 0.9485714285714302-2.277142857142857t2.2671428571428542-0.96q1.048571428571428 0 1.9085714285714275 0.6142857142857143t1.1942857142857157 1.5957142857142856l1.1828571428571415 3.5942857142857143 3.614285714285714-1.2285714285714286q0.47142857142857153-0.13285714285714256 0.96142857142857-0.13285714285714256 1.3399999999999999 0 2.2885714285714265 0.8814285714285717t0.9485714285714266 2.2q0 1.0028571428571427-0.6714285714285708 1.8171428571428576t-1.6514285714285712 1.1485714285714295l-3.5042857142857144 1.2057142857142864 2.345714285714287 7.0528571428571425 3.66-1.25q0.5357142857142847-0.17857142857142705 1.028571428571432-0.17857142857142705z m-17.722857142857148 5.849999999999998l6.920000000000002-2.345714285714287-2.3428571428571416-7.03142857142857-6.921428571428571 2.388571428571428z"></path></svg>