<?xml version="1.0"?><svg viewBox="0 0 40 40" xmlns="http://www.w3.org/2000/svg" height="40" width="40"><path d="m15.2 16.4q0 1.4-1.1 2.5t-2.7 1q-1.5 0-2.6-1t-1.1-2.5q0-1.5 1.1-2.5t2.6-1q1.6 0 2.7 1t1.1 2.5z m8.7 0q0 1.4-1.1 2.5t-2.7 1q-1.5 0-2.6-1t-1.1-2.5q0-1.5 1.1-2.5t2.6-1q1.6 0 2.7 1t1.1 2.5z m3.9 3.1v-11.6q0-1.5-0.6-2.1t-1.9-0.6h-19.3q-1.5 0-2 0.5t-0.5 2.2v11.7q0.8 0.4 1.6 0.7t1.4 0.5q0.6 0.2 1.4 0.3t1.2 0.2q0.4 0.1 1.2 0.1t1 0q0.3 0 1 0t0.8-0.1q1.2 0 1.6 0.5 0.1 0.1 0.2 0.1 0.5 0.5 1.1 0.9 0.1-1.6 2-1.5 0.1 0 0.7 0t0.7 0.1q0.2 0 0.8 0t0.9 0q0.3 0 1-0.1t1-0.1q0.5-0.1 1.1-0.3t1.2-0.3q0.5-0.2 1.1-0.5t1.3-0.6z m2.8-0.1q-2.1 2.6-6.5 4.4 1.5 4.9-0.3 8.1-1.2 1.9-3.2 2.5-1.8 0.6-3.2-0.2-1.5-0.9-1.4-2.9l0-5.6v0q-0.2-0.1-0.5-0.1t-0.4-0.1l0 5.8q0.1 2-1.4 2.9-1.4 0.8-3.2 0.2-2-0.6-3.2-2.6-1.8-3.1-0.3-8-4.4-1.8-6.5-4.4-0.4-0.6-0.1-1.1t1.1 0q0 0.1 0.2 0.2t0.2 0.1v-12q0-1.3 0.8-2.2t2-0.9h21.8q1.1 0 2 0.9t0.8 2.2v12l0.3-0.3q0.7-0.4 1.1 0t-0.1 1.1z"></path></svg>