<?xml version="1.0"?><svg xmlns="http://www.w3.org/2000/svg" width="40" height="40" viewBox="0 0 40 40"><path d="m19.485714285714288 16.517142857142858q0 1.8528571428571432-1.4142857142857146 3.1814285714285724t-3.4057142857142857 1.3285714285714292-3.404285714285715-1.3285714285714292-1.4171428571428581-3.1828571428571415q0-1.8757142857142863 1.418571428571429-3.1914285714285704t3.404285714285715-1.3171428571428567 3.404285714285715 1.3171428571428567 1.4142857142857146 3.1914285714285704z m11.205714285714286 0q0 1.8528571428571432-1.4057142857142857 3.1814285714285724t-3.4142857142857146 1.3285714285714292q-1.9885714285714293 0-3.4057142857142857-1.3285714285714292t-1.4171428571428564-3.1828571428571415q0-1.8757142857142863 1.4171428571428564-3.1914285714285704t3.404285714285713-1.3171428571428567q2.0071428571428562 0 3.4142857142857146 1.3171428571428567t1.4057142857142857 3.1914285714285704z m5.022857142857141 4.018571428571427v-14.888571428571428q0-1.942857142857143-0.7142857142857153-2.757142857142857t-2.4771428571428586-0.8142857142857141h-24.822857142857142q-1.8514285714285714 0-2.51 0.7571428571428571t-0.6571428571428575 2.814285714285714v15.024285714285718q0.9571428571428573 0.5114285714285707 1.9742857142857142 0.8914285714285732t1.8085714285714296 0.6257142857142846 1.8100000000000005 0.4142857142857146 1.5857142857142854 0.24285714285714377 1.5614285714285714 0.09142857142857252 1.305714285714286 0.011428571428570677 1.2614285714285707-0.04285714285714448 0.9928571428571438-0.04571428571428626q1.5171428571428578-0.022857142857141355 2.120000000000001 0.6028571428571432 0.13428571428571345 0.13428571428571345 0.2228571428571442 0.1999999999999993 0.5800000000000018 0.5599999999999987 1.361428571428572 1.1400000000000006 0.15714285714285836-2.0314285714285703 2.6342857142857135-1.942857142857143 0.10999999999999943 0 0.8142857142857132 0.034285714285715585t0.9571428571428555 0.04285714285714448 1.0171428571428578 0.024285714285714022 1.1828571428571415-0.022857142857141355 1.217142857142857-0.10000000000000142 1.361428571428572-0.19000000000000128 1.3857142857142861-0.3000000000000007 1.4942857142857129-0.43714285714285595 1.508571428571429-0.6028571428571432 1.607142857142854-0.7714285714285722z m3.6385714285714315-0.1114285714285721q-2.700000000000003 3.3257142857142874-8.302857142857142 5.625714285714285 1.875714285714288 6.361428571428576-0.5142857142857125 10.380000000000003-1.4714285714285715 2.5242857142857176-4.082857142857144 3.3042857142857116-2.321428571428573 0.7142857142857153-4.062857142857144-0.33428571428571274-1.9200000000000017-1.1400000000000006-1.8285714285714292-3.661428571428573l-0.024285714285714022-7.277142857142856v-0.022857142857141355q-0.17857142857142705-0.04285714285714448-0.5471428571428589-0.13428571428571345t-0.524285714285714-0.1114285714285721l-0.022857142857141355 7.5428571428571445q0.08999999999999986 2.5457142857142827-1.8528571428571432 3.661428571428573-1.7628571428571433 1.048571428571428-4.085714285714285 0.33428571428571274-2.6099999999999994-0.8028571428571425-4.061428571428571-3.348571428571425-2.3428571428571434-4.017142857142858-0.4914285714285711-10.334285714285713-5.602857142857143-2.3000000000000007-8.302857142857144-5.625714285714288-0.5571428571428572-0.8257142857142838-0.08999999999999997-1.4057142857142857t1.3428571428571425 0.022857142857141355q0.06571428571428561 0.04285714285714448 0.24285714285714288 0.15714285714285836t0.24714285714285733 0.17714285714285793v-15.491428571428576q0-1.6071428571428568 1.0485714285714285-2.745714285714285t2.5414285714285696-1.1371428571428575h28.06142857142857q1.4942857142857164 0 2.5428571428571445 1.1371428571428572t1.048571428571428 2.7457142857142856v15.49142857142857l0.46857142857142975-0.33428571428571274q0.8714285714285737-0.6028571428571432 1.3400000000000034-0.022857142857141355t-0.09000000000000341 1.4057142857142857z"></path></svg>