<?xml version="1.0"?><svg viewBox="0 0 40 40" xmlns="http://www.w3.org/2000/svg" height="40" width="40"><path d="m11.2 29.7v2.7h-7.4v-2.7h7.4z m7.4-2.7q0.6 0 1 0.4t0.4 1v5.4q0 0.5-0.4 0.9t-1 0.4h-5.4q-0.5 0-0.9-0.4t-0.4-0.9v-5.4q0-0.6 0.4-1t0.9-0.4h5.4z m3.4-8.1v2.7h-18.2v-2.7h18.2z m-13.5-10.8v2.7h-4.7v-2.7h4.7z m27.7 21.6v2.7h-15.5v-2.7h15.5z m-20.3-24.3q0.6 0 1 0.4t0.4 1v5.4q0 0.5-0.4 0.9t-1 0.4h-5.4q-0.5 0-0.9-0.4t-0.4-0.9v-5.4q0-0.6 0.4-1t0.9-0.4h5.4z m13.6 10.8q0.5 0 0.9 0.4t0.4 1v5.4q0 0.5-0.4 0.9t-0.9 0.4h-5.4q-0.6 0-1-0.4t-0.4-0.9v-5.4q0-0.6 0.4-1t1-0.4h5.4z m6.7 2.7v2.7h-4.7v-2.7h4.7z m0-10.8v2.7h-18.2v-2.7h18.2z"></path></svg>