<?xml version="1.0"?><svg xmlns="http://www.w3.org/2000/svg" width="40" height="40" viewBox="0 0 40 40"><path d="m10.714285714285715 31.42857142857143v2.857142857142854h-7.857142857142858v-2.8571428571428577h7.857142857142858z m7.857142857142858-2.8571428571428577q0.5800000000000018 0 1.0042857142857144 0.4242857142857126t0.4242857142857126 1.0042857142857144v5.714285714285715q0 0.5799999999999983-0.4242857142857126 1.0042857142857144t-1.0042857142857144 0.42428571428571615h-5.714285714285715q-0.5800000000000001 0-1.0042857142857144-0.42428571428571615t-0.4242857142857144-1.0042857142857144v-5.714285714285715q0-0.5799999999999983 0.4242857142857144-1.0042857142857144t1.0042857142857144-0.4242857142857126h5.714285714285715z m3.571428571428573-8.571428571428573v2.8571428571428577h-19.28571428571429v-2.8571428571428577h19.285714285714285z m-14.285714285714286-11.428571428571429v2.8571428571428577h-5.000000000000002v-2.8571428571428577h5z m29.285714285714285 22.85714285714286v2.857142857142854h-16.42857142857143v-2.8571428571428577h16.42857142857143z m-21.42857142857143-25.714285714285715q0.5799999999999983-8.881784197001252e-16 1.0042857142857144 0.4242857142857135t0.4242857142857126 1.0042857142857144v5.714285714285714q0 0.5800000000000001-0.4242857142857126 1.0042857142857144t-1.0042857142857144 0.4242857142857144h-5.714285714285715q-0.5800000000000001 0-1.0042857142857144-0.4242857142857144t-0.4242857142857144-1.0042857142857144v-5.714285714285714q0-0.5800000000000001 0.4242857142857144-1.0042857142857144t1.0042857142857144-0.4242857142857144h5.714285714285715z m14.285714285714285 11.428571428571427q0.5799999999999983 0 1.0042857142857144 0.4242857142857126t0.42428571428571615 1.004285714285718v5.714285714285715q0 0.5800000000000018-0.4242857142857126 1.0042857142857144t-1.004285714285718 0.4242857142857126h-5.714285714285715q-0.5799999999999983 0-1.0042857142857144-0.4242857142857126t-0.4242857142857126-1.004285714285718v-5.714285714285715q0-0.5799999999999983 0.4242857142857126-1.0042857142857144t1.0042857142857144-0.4242857142857126h5.714285714285715z m7.142857142857146 2.8571428571428577v2.8571428571428577h-5v-2.8571428571428577h5z m0-11.428571428571429v2.8571428571428577h-19.28571428571429v-2.8571428571428577h19.28571428571429z"></path></svg>