<?xml version="1.0"?><svg viewBox="0 0 40 40" xmlns="http://www.w3.org/2000/svg" height="40" width="40"><path d="m19.5 15.6q0 1.8-1.3 3t-3.2 1.3-3.3-1.3-1.3-3q0-1.8 1.3-3t3.3-1.3 3.2 1.3 1.3 3z m10.6 0q0 1.8-1.3 3t-3.3 1.3q-1.8 0-3.2-1.3t-1.3-3q0-1.8 1.3-3t3.2-1.3q1.9 0 3.3 1.3t1.3 3z m4.8 3.8v-14.1q0-1.8-0.7-2.6t-2.4-0.7h-23.4q-1.8 0-2.4 0.7t-0.6 2.6v14.2q0.9 0.5 1.8 0.9t1.8 0.6 1.7 0.4 1.5 0.2 1.4 0.1 1.3 0 1.2-0.1 0.9 0q1.4 0 2 0.6 0.1 0.1 0.2 0.2 0.6 0.5 1.3 1 0.2-1.9 2.5-1.8 0.1 0 0.8 0t0.9 0.1 0.9 0 1.2 0 1.1-0.1 1.3-0.2 1.3-0.3 1.4-0.4 1.4-0.6 1.6-0.7z m3.4-0.1q-2.6 3.1-7.9 5.3 1.8 6-0.4 9.8-1.4 2.4-3.9 3.2-2.2 0.6-3.8-0.4-1.9-1-1.8-3.4l0-6.9v0q-0.2-0.1-0.5-0.2t-0.5-0.1l0 7.2q0.1 2.4-1.8 3.4-1.6 1-3.8 0.4-2.5-0.8-3.9-3.2-2.2-3.8-0.4-9.8-5.3-2.2-7.9-5.3-0.5-0.8-0.1-1.3t1.3 0q0.1 0 0.2 0.1t0.3 0.2v-14.6q0-1.5 0.9-2.6t2.5-1.1h26.5q1.4 0 2.4 1.1t1 2.6v14.6l0.4-0.3q0.8-0.6 1.3 0t-0.1 1.3z"></path></svg>