<?xml version="1.0"?><svg viewBox="0 0 40 40" xmlns="http://www.w3.org/2000/svg" height="40" width="40"><path d="m27.7 22.7q-0.8 2.5-2.9 4.1t-4.8 1.6-4.8-1.6-2.9-4.1q-0.2-0.5 0.1-1t0.8-0.7q0.5-0.2 1 0.1t0.7 0.8q0.5 1.7 1.9 2.7t3.2 1.1 3.2-1.1 1.9-2.7q0.2-0.6 0.7-0.8t1.1-0.1 0.7 0.7 0.1 1z m-10.4-9.2q0 1.1-0.8 1.9t-1.9 0.8-1.9-0.8-0.8-1.9 0.8-1.9 1.9-0.8 1.9 0.8 0.8 1.9z m10.8 0q0 1.1-0.8 1.9t-1.9 0.8-1.9-0.8-0.8-1.9 0.8-1.9 1.9-0.8 1.9 0.8 0.8 1.9z m5.4 5.4q0-2.7-1.1-5.2t-2.9-4.3-4.3-2.9-5.2-1.1-5.2 1.1-4.3 2.9-2.9 4.3-1.1 5.2 1.1 5.2 2.9 4.3 4.3 2.9 5.2 1.1 5.2-1.1 4.3-2.9 2.9-4.3 1.1-5.2z m2.7 0q0 4.4-2.2 8.1t-5.9 5.9-8.1 2.2-8.1-2.2-5.9-5.9-2.2-8.1 2.2-8.1 5.9-5.9 8.1-2.2 8.1 2.2 5.9 5.9 2.2 8.1z"></path></svg>