<?xml version="1.0"?><svg xmlns="http://www.w3.org/2000/svg" width="40" height="40" viewBox="0 0 40 40"><path d="m32.900000000000006 29.308571428571426q0-1.4057142857142857-0.9814285714285731-2.59t-2.3000000000000007-1.1828571428571415q-1.1571428571428584 0-1.8514285714285705 0.8257142857142838t-0.6914285714285704 2.1000000000000014 0.8142857142857132 2.1185714285714283 2.3328571428571436 0.8485714285714288q1.1142857142857139 0 1.8971428571428568-0.6028571428571432t0.7814285714285703-1.5171428571428578z m-13.614285714285721 2.83428571428572q0 0.2671428571428578-0.2228571428571442 0.5357142857142847l-7.119999999999997 7.121428571428567q-0.22285714285714242 0.20000000000000284-0.5142857142857142 0.20000000000000284-0.2657142857142851 0-0.5114285714285707-0.20000000000000284l-7.142857142857143-7.142857142857146q-0.3342857142857145-0.3571428571428541-0.15714285714285703-0.7828571428571429 0.18285714285714239-0.44571428571427774 0.6728571428571422-0.44571428571427774h4.285714285714286v-30.714285714285715q0-0.3142857142857153 0.1999999999999993-0.5142857142857152t0.5142857142857142-0.2h4.285714285714285q0.31428571428571495 0 0.5142857142857142 0.2t0.1957142857142884 0.5142857142857142v30.714285714285715h4.2857142857142865q0.31428571428571317 0 0.514285714285716 0.1999999999999993t0.1999999999999993 0.514285714285716z m16.74285714285714-1.5399999999999991q0 1.3857142857142861-0.29142857142856826 2.71142857142857t-0.914285714285711 2.5428571428571445-1.518571428571427 2.132857142857141-2.1999999999999993 1.46142857142857-2.8428571428571416 0.5471428571428589q-1.3857142857142861 0-2.411428571428573-0.3571428571428541-0.5357142857142847-0.17999999999999972-0.937142857142856-0.33571428571428896l0.8685714285714283-2.5228571428571414q0.33428571428571274 0.15428571428571303 0.6914285714285704 0.24285714285714022 0.8257142857142874 0.29142857142856826 1.6742857142857126 0.29142857142856826 1.8757142857142846 0 3.002857142857142-1.3057142857142878t1.485714285714284-3.2471428571428547h-0.04571428571428271q-0.46857142857142975 0.5142857142857125-1.37142857142857 0.8257142857142838t-1.8857142857142861 0.3142857142857167q-2.3671428571428557 0-3.862857142857141-1.597142857142856t-1.4957142857142856-3.8500000000000014q0-2.3428571428571416 1.6071428571428577-3.9714285714285715t4.041428571428565-1.6285714285714263q2.7457142857142856 0 4.575714285714284 2.1099999999999994t1.8285714285714292 5.635714285714286z m-0.6714285714285708-16.004285714285714v2.54428571428571h-10.46857142857143v-2.5428571428571427h3.7285714285714278v-9.642857142857142q0-0.15714285714285747 0.010000000000001563-0.42571428571428527t0.010000000000001563-0.3799999999999999v-0.3571428571428572h-0.04285714285714448l-0.15714285714285836 0.26714285714285735q-0.17857142857142705 0.29000000000000004-0.5799999999999983 0.6914285714285713l-1.3828571428571443 1.2942857142857145-1.8285714285714292-1.92 4.285714285714285-4.131428571428572h2.7428571428571438v14.600000000000001h3.6857142857142833z"></path></svg>