<?xml version="1.0"?><svg viewBox="0 0 40 40" xmlns="http://www.w3.org/2000/svg" height="40" width="40"><path d="m16.6 30.4q0 0.2-0.2 0.5l-6.7 6.7q-0.2 0.2-0.5 0.2-0.3 0-0.5-0.2l-6.7-6.7q-0.4-0.4-0.2-0.8 0.2-0.4 0.6-0.4h4.1v-29q0-0.3 0.2-0.5t0.5-0.2h4q0.3 0 0.5 0.2t0.2 0.5v29h4q0.3 0 0.5 0.2t0.2 0.5z m22.3 2.7v4q0 0.3-0.2 0.5t-0.5 0.2h-17.5q-0.3 0-0.5-0.2t-0.2-0.5v-4q0-0.3 0.2-0.5t0.5-0.2h17.5q0.3 0 0.5 0.2t0.2 0.5z m-4-10.8v4q0 0.3-0.2 0.5t-0.5 0.2h-13.5q-0.3 0-0.5-0.2t-0.2-0.5v-4q0-0.3 0.2-0.5t0.5-0.2h13.5q0.3 0 0.5 0.2t0.2 0.5z m-4.1-10.8v4q0 0.3-0.2 0.5t-0.5 0.2h-9.4q-0.3 0-0.5-0.2t-0.2-0.5v-4q0-0.3 0.2-0.5t0.5-0.2h9.4q0.3 0 0.5 0.2t0.2 0.5z m-4-10.8v4q0 0.3-0.2 0.5t-0.5 0.2h-5.4q-0.3 0-0.5-0.2t-0.2-0.5v-4q0-0.3 0.2-0.5t0.5-0.2h5.4q0.3 0 0.5 0.2t0.2 0.5z"></path></svg>