<?xml version="1.0"?><svg viewBox="0 0 40 40" xmlns="http://www.w3.org/2000/svg" height="40" width="40"><path d="m27.6 8.6h3.7l-1.5-4.6-0.3-1q0-0.3 0-0.4h-0.1l-0.1 0.4q0 0 0 0.4t-0.2 0.6z m-9.6 21.8q0 0.2-0.2 0.5l-6.8 6.7q-0.2 0.2-0.5 0.2-0.2 0-0.4-0.2l-6.8-6.7q-0.3-0.4-0.1-0.8 0.1-0.4 0.6-0.4h4v-29q0-0.3 0.2-0.5t0.5-0.2h4.1q0.3 0 0.5 0.2t0.1 0.5v29h4.1q0.3 0 0.5 0.2t0.2 0.5z m17.6 2.5v4.9h-12.3v-1.9l7.8-11.2q0.2-0.3 0.4-0.5l0.3-0.2v-0.1q-0.1 0-0.2 0t-0.1 0q-0.3 0.1-0.7 0.1h-4.9v2.4h-2.5v-4.8h12v1.9l-7.8 11.2q-0.2 0.1-0.5 0.5l-0.2 0.2v0.1l0.3-0.1q0.2 0 0.6 0h5.3v-2.5h2.5z m1.9-18.9v2.2h-6.1v-2.2h1.6l-1-3.1h-5.1l-1 3.1h1.6v2.2h-6.1v-2.2h1.5l4.8-14h3.5l4.8 14h1.5z"></path></svg>