<?xml version="1.0"?><svg xmlns="http://www.w3.org/2000/svg" width="40" height="40" viewBox="0 0 40 40"><path d="m28.014285714285712 9.107142857142858h3.9499999999999993l-1.607142857142854-4.864285714285715-0.2671428571428578-1.0499999999999998q-0.04285714285714448-0.3571428571428572-0.04285714285714448-0.44714285714285706h-0.09142857142857252l-0.06857142857142762 0.44714285714285706q0 0.022857142857142687-0.07857142857142918 0.3999999999999999t-0.16714285714285637 0.6485714285714281z m-10.157142857142855 23.03571428571429q0 0.2671428571428578-0.2228571428571442 0.5357142857142847l-7.119999999999999 7.121428571428567q-0.22285714285714242 0.20000000000000284-0.5142857142857142 0.20000000000000284-0.2657142857142851 0-0.5114285714285707-0.20000000000000284l-7.142857142857143-7.142857142857146q-0.3342857142857145-0.3571428571428541-0.15714285714285703-0.7828571428571429 0.18285714285714283-0.44571428571427774 0.6728571428571426-0.44571428571427774h4.285714285714285v-30.714285714285715q0-0.3142857142857153 0.20000000000000018-0.5142857142857152t0.5142857142857142-0.2h4.285714285714286q0.31428571428571495 0 0.5142857142857142 0.2t0.19571428571428662 0.5142857142857142v30.714285714285715h4.285714285714285q0.31428571428571317 0 0.514285714285716 0.1999999999999993t0.1999999999999993 0.514285714285716z m18.661428571428576 2.6571428571428584v5.199999999999996h-13.035714285714285v-2.008571428571429l8.237142857142857-11.80857142857143q0.2671428571428578-0.3999999999999986 0.46857142857142975-0.6028571428571432l0.24571428571428555-0.1999999999999993v-0.06857142857142762q-0.04285714285714448 0-0.14571428571428413 0.011428571428570677t-0.16714285714285637 0.011428571428570677q-0.2671428571428578 0.0671428571428585-0.6714285714285708 0.0671428571428585h-5.177142857142858v2.5685714285714276h-2.677142857142858v-5.112857142857141h12.657142857142858v1.985714285714284l-8.23857142857143 11.831428571428575q-0.13571428571428612 0.1785714285714306-0.47142857142857153 0.5799999999999983l-0.24285714285714377 0.24571428571428555v0.04285714285714448l0.3114285714285714-0.04285714285714448q0.1999999999999993-0.04285714285714448 0.6714285714285708-0.04285714285714448h5.534285714285712v-2.6571428571428584h2.700000000000003z m1.9857142857142875-20.022857142857145v2.365714285714283h-6.428571428571431v-2.3657142857142865h1.6742857142857162l-1.048571428571428-3.2142857142857153h-5.4228571428571435l-1.048571428571428 3.2142857142857153h1.6742857142857126v2.3657142857142865h-6.405714285714286v-2.3657142857142865h1.562857142857144l5.132857142857137-14.777142857142856h3.614285714285714l5.135714285714283 14.777142857142856h1.5642857142857167z"></path></svg>