<?xml version="1.0"?><svg xmlns="http://www.w3.org/2000/svg" width="40" height="40" viewBox="0 0 40 40"><path d="m31.42857142857143 24.285714285714285q0 0.5799999999999983-0.4242857142857126 1.0042857142857144l-10 10q-0.42428571428571615 0.42428571428571615-1.004285714285718 0.42428571428571615t-1.0042857142857144-0.42428571428571615l-10-10q-0.4242857142857144-0.42428571428571615-0.4242857142857144-1.0042857142857144t0.4242857142857144-1.0042857142857144 1.0042857142857144-0.4242857142857126h20q0.5799999999999983 0 1.0042857142857144 0.4242857142857126t0.42428571428571615 1.0042857142857144z m0-8.571428571428571q0 0.5800000000000001-0.4242857142857126 1.0042857142857127t-1.004285714285718 0.42428571428571615h-20q-0.5800000000000001 0-1.0042857142857144-0.4242857142857126t-0.4242857142857144-1.0042857142857144 0.4242857142857144-1.0042857142857144l10-10q0.42428571428571615-0.42428571428571527 1.0042857142857144-0.42428571428571527t1.0042857142857144 0.4242857142857144l10 10q0.42428571428571615 0.4242857142857126 0.42428571428571615 1.0042857142857144z"></path></svg>