<?xml version="1.0"?><svg viewBox="0 0 40 40" xmlns="http://www.w3.org/2000/svg" height="40" width="40"><path d="m20.7 10.6h3.1l-1.3-3.8-0.2-0.8q0-0.3 0-0.3h-0.1l-0.1 0.3q0 0 0 0.3t-0.2 0.5l-1.2 3.8z m-7.9 17.9q0 0.2-0.2 0.5l-5.5 5.5q-0.2 0.2-0.4 0.2-0.2 0-0.4-0.2l-5.6-5.6q-0.2-0.2-0.1-0.6 0.1-0.3 0.5-0.3h3.3v-23.9q0-0.2 0.2-0.4t0.4-0.2h3.3q0.3 0 0.4 0.2t0.2 0.4v23.9h3.3q0.3 0 0.4 0.1t0.2 0.4z m14.5 2.1v4.1h-10.1v-1.6l6.4-9.2q0.2-0.3 0.3-0.5l0.2-0.1v-0.1q0 0-0.1 0t-0.1 0q-0.2 0.1-0.5 0.1h-4.1v2h-2.1v-4h9.9v1.6l-6.4 9.2q-0.1 0.1-0.4 0.4l-0.2 0.2v0l0.3 0q0.1 0 0.5 0h4.3v-2.1h2.1z m1.5-15.6v1.9h-5v-1.9h1.3l-0.8-2.5h-4.2l-0.8 2.5h1.3v1.9h-5v-1.9h1.2l4-11.5h2.8l4 11.5h1.2z"></path></svg>