<?xml version="1.0"?><svg viewBox="0 0 40 40" xmlns="http://www.w3.org/2000/svg" height="40" width="40"><path d="m23.4 8.6q0-1.1-0.8-2.1t-1.8-0.9q-0.9 0-1.4 0.7t-0.6 1.6q0 1 0.7 1.6t1.8 0.7q0.9 0 1.5-0.5t0.6-1.1z m-10.6 19.9q0 0.2-0.2 0.5l-5.5 5.5q-0.2 0.2-0.4 0.2-0.2 0-0.4-0.2l-5.6-5.6q-0.2-0.2-0.1-0.6 0.1-0.3 0.5-0.3h3.3v-23.9q0-0.2 0.2-0.4t0.4-0.2h3.3q0.3 0 0.4 0.2t0.2 0.4v23.9h3.3q0.3 0 0.4 0.1t0.2 0.4z m12.5 4.2v2h-8.2v-2h2.9v-7.5q0-0.1 0-0.4t0.1-0.3v-0.2h-0.1l-0.1 0.2q-0.1 0.2-0.5 0.5l-1 1-1.5-1.5 3.4-3.2h2.1v11.4h2.9z m0.5-23.1q0 1-0.2 2.1t-0.7 2q-0.5 0.9-1.2 1.6t-1.7 1.1q-1 0.5-2.2 0.5-1.1 0-1.9-0.3-0.4-0.1-0.7-0.3l0.6-1.9q0.3 0.1 0.6 0.2 0.6 0.2 1.3 0.2 1.4 0 2.3-1t1.2-2.6h-0.1q-0.3 0.4-1 0.7t-1.5 0.2q-1.8 0-3-1.2t-1.2-3q0-1.8 1.3-3.1t3.1-1.3q2.2 0 3.6 1.7t1.4 4.4z"></path></svg>