<?xml version="1.0"?><svg xmlns="http://www.w3.org/2000/svg" width="40" height="40" viewBox="0 0 40 40"><path d="m16.42857142857143 32.142857142857146q0 0.2671428571428578-0.2228571428571442 0.5357142857142847l-7.119999999999999 7.121428571428567q-0.2228571428571442 0.20000000000000284-0.514285714285716 0.20000000000000284-0.2657142857142851 0-0.5114285714285707-0.20000000000000284l-7.142857142857143-7.142857142857146q-0.3342857142857143-0.3571428571428541-0.15714285714285714-0.7828571428571429 0.18285714285714283-0.44571428571427774 0.6728571428571427-0.44571428571427774h4.285714285714285v-30.714285714285715q0-0.3142857142857153 0.20000000000000018-0.5142857142857152t0.5142857142857142-0.2h4.285714285714286q0.31428571428571495 0 0.5142857142857142 0.2t0.19571428571428662 0.5142857142857142v30.714285714285715h4.2857142857142865q0.31428571428571317 0 0.5142857142857125 0.1999999999999993t0.1999999999999993 0.514285714285716z m23.57142857142857 2.857142857142854v4.285714285714285q0 0.3142857142857167-0.20000000000000284 0.5142857142857125t-0.5142857142857125 0.20000000000000284h-18.571428571428573q-0.31428571428571317 0-0.514285714285716-0.20000000000000284t-0.19999999999999574-0.5142857142857125v-4.285714285714285q0-0.3142857142857167 0.1999999999999993-0.5142857142857125t0.514285714285716-0.20000000000000284h18.571428571428577q0.3142857142857167 0 0.5142857142857125 0.20000000000000284t0.20000000000000284 0.5142857142857125z m-4.285714285714285-11.42857142857143v4.285714285714285q0 0.31428571428571317-0.20000000000000284 0.5142857142857125t-0.5142857142857125 0.1999999999999993h-14.285714285714285q-0.31428571428571317 0-0.5142857142857125-0.1999999999999993t-0.20000000000000284-0.5142857142857089v-4.285714285714285q0-0.31428571428571317 0.1999999999999993-0.514285714285716t0.514285714285716-0.1999999999999993h14.285714285714285q0.3142857142857167 0 0.5142857142857125 0.1999999999999993t0.20000000000000284 0.5142857142857125z m-4.285714285714285-11.428571428571429v4.2857142857142865q0 0.31428571428571317-0.1999999999999993 0.514285714285716t-0.514285714285716 0.1999999999999993h-10q-0.31428571428571317 0-0.5142857142857125-0.1999999999999993t-0.20000000000000284-0.5142857142857125v-4.285714285714285q0-0.31428571428571495 0.1999999999999993-0.5142857142857142t0.514285714285716-0.20000000000000284h10q0.31428571428571317 0 0.5142857142857125 0.1999999999999993t0.1999999999999993 0.5142857142857142z m-4.285714285714285-11.428571428571429v4.285714285714286q0 0.31428571428571406-0.1999999999999993 0.5142857142857142t-0.514285714285716 0.20000000000000284h-5.714285714285715q-0.31428571428571317 0-0.5142857142857125-0.20000000000000018t-0.20000000000000284-0.5142857142857142v-4.285714285714286q0-0.3142857142857143 0.1999999999999993-0.5142857142857142t0.514285714285716-0.20000000000000018h5.714285714285715q0.31428571428571317 0 0.5142857142857125 0.2t0.1999999999999993 0.5142857142857142z"></path></svg>