<?xml version="1.0"?><svg xmlns="http://www.w3.org/2000/svg" width="40" height="40" viewBox="0 0 40 40"><path d="m13.611111111111112 28.264444444444443l0.27777777777777857-4.184444444444445-0.27777777777777857-9.080000000000002q-0.017777777777777004-0.17333333333333378-0.13000000000000078-0.29555555555555557t-0.28666666666666707-0.12222222222222179q-0.155555555555555 0-0.27777777777777857 0.12222222222222179t-0.12222222222222179 0.29555555555555557l-0.24222222222222278 9.080000000000002 0.24444444444444535 4.184444444444445q0.016666666666667496 0.173333333333332 0.1288888888888895 0.2866666666666653t0.2688888888888883 0.11333333333333329q0.3822222222222216 0 0.4166666666666661-0.3999999999999986z m5.1388888888888875-0.5044444444444451l0.19111111111111256-3.663333333333334-0.20777777777777828-10.173333333333334q0-0.27777777777777857-0.2255555555555553-0.4155555555555548-0.13888888888888928-0.086666666666666-0.27777777777777857-0.086666666666666t-0.27777777777777857 0.086666666666666q-0.2255555555555553 0.13888888888888928-0.2255555555555553 0.4166666666666661l-0.017777777777777004 0.10555555555555607-0.173333333333332 10.052222222222223 0.19111111111111256 4.096666666666668v0.01666666666666572q0 0.173333333333332 0.10444444444444301 0.29555555555555557 0.155555555555555 0.19222222222222385 0.3999999999999986 0.19222222222222385 0.18888888888889 0 0.34666666666666757-0.155555555555555 0.155555555555555-0.12222222222222356 0.155555555555555-0.34888888888889014z m-18.142222222222223-5.902222222222218l0.34777777777777885 2.2222222222222214-0.34777777777777774 2.18888888888889q-0.033333333333333326 0.155555555555555-0.15555555555555556 0.155555555555555t-0.1577777777777778-0.155555555555555l-0.2944444444444446-2.1911111111111126 0.29444444444444445-2.2222222222222214q0.033333333333333326-0.155555555555555 0.1555555555555556-0.155555555555555t0.1577777777777778 0.155555555555555z m1.4933333333333345-1.3711111111111123l0.4522222222222223 3.5933333333333337-0.451111111111111 3.5244444444444447q-0.033333333333333215 0.155555555555555-0.17222222222222228 0.155555555555555-0.15555555555555567 0-0.15555555555555567-0.17222222222222072l-0.3999999999999999-3.507777777777779 0.3999999999999999-3.5933333333333337q0-0.15777777777777757 0.15555555555555567-0.15777777777777757 0.13888888888888906 0 0.17333333333333312 0.155555555555555z m1.5977777777777775-0.6600000000000001l0.43333333333333357 4.253333333333334-0.43333333333333357 4.114444444444445q0 0.19111111111111256-0.19111111111111123 0.19111111111111256-0.17333333333333334 0-0.20777777777777784-0.19111111111111256l-0.3666666666666667-4.114444444444445 0.3666666666666667-4.253333333333334q0.033333333333333215-0.20777777777777828 0.20666666666666655-0.20777777777777828 0.19111111111111123 0 0.19111111111111123 0.20777777777777828z m1.6333333333333337-0.12222222222222356l0.3977777777777778 4.375555555555554-0.40000000000000036 4.236666666666668q-0.033333333333333215 0.2255555555555553-0.2422222222222219 0.2255555555555553-0.2255555555555553 0-0.2255555555555553-0.2255555555555553l-0.36444444444444457-4.236666666666668 0.36444444444444457-4.375555555555557q0-0.2255555555555553 0.2255555555555553-0.2255555555555553 0.2077777777777774 0 0.24444444444444446 0.22666666666666657z m1.6311111111111112 0.3133333333333326l0.36444444444444457 4.062222222222221-0.36444444444444457 4.271111111111111q-0.033333333333333215 0.27777777777777857-0.2777777777777777 0.27777777777777857-0.10444444444444478 0-0.18222222222222229-0.07777777777777928t-0.0777777777777775-0.1999999999999993l-0.34777777777777796-4.271111111111111 0.3466666666666667-4.062222222222221q0-0.10444444444444301 0.0777777777777775-0.18222222222222229t0.18222222222222229-0.07777777777777928q0.24444444444444446 0 0.2777777777777777 0.26000000000000156z m1.6311111111111112-2.5355555555555576l0.36444444444444457 6.597777777777779-0.36444444444444457 4.271111111111111q0 0.12222222222222356-0.086666666666666 0.216666666666665t-0.20777777777777828 0.09666666666666757q-0.27777777777777857 0-0.31333333333333346-0.31111111111111l-0.3111111111111109-4.272222222222222 0.3111111111111109-6.597777777777779q0.0333333333333341-0.31111111111111 0.3111111111111109-0.31111111111111 0.12222222222222179 0 0.20888888888888957 0.094444444444445t0.086666666666666 0.21555555555555728z m1.6333333333333329-1.4922222222222228l0.3288888888888888 8.126666666666667-0.33000000000000007 4.236666666666668q0 0.13888888888888928-0.09555555555555628 0.23333333333333428t-0.2333333333333325 0.09666666666666757q-0.3133333333333326 0-0.34888888888888836-0.3299999999999983l-0.27777777777777857-4.236666666666668 0.27777777777777857-8.125555555555556q0.033333333333333215-0.3288888888888888 0.3477777777777771-0.3288888888888888 0.13888888888888928 0 0.2333333333333325 0.09555555555555628t0.09666666666666579 0.2333333333333325z m1.6999999999999993-0.6933333333333334l0.3111111111111118 8.784444444444443-0.3111111111111118 4.199999999999999q-0.033333333333333215 0.36666666666666714-0.3822222222222216 0.36666666666666714-0.33000000000000007 0-0.36444444444444457-0.36666666666666714l-0.27777777777777857-4.199999999999999 0.27777777777777857-8.784444444444444q0-0.155555555555555 0.11333333333333329-0.2688888888888883t0.25222222222222257-0.11333333333333329q0.15777777777777757 0 0.26111111111111107 0.11333333333333329t0.12222222222222179 0.2688888888888883z m6.805555555555557 12.881111111111114z m-3.438888888888888-12.953333333333331l0.2599999999999998 8.855555555555556-0.2599999999999998 4.14777777777778q0 0.173333333333332-0.13000000000000078 0.30333333333333456t-0.3044444444444441 0.12888888888888772-0.29555555555555557-0.12222222222222356-0.13888888888888928-0.31111111111111l-0.24444444444444535-4.148888888888887 0.24444444444444358-8.855555555555556q0-0.18888888888888822 0.13000000000000078-0.3111111111111118t0.3033333333333328-0.12222222222222179 0.3033333333333328 0.12222222222222179 0.13000000000000078 0.3111111111111118z m1.7188888888888894 0.33000000000000007l0.24444444444444358 8.542222222222222-0.24444444444444358 4.096666666666668q0 0.19111111111111256-0.13888888888888928 0.3299999999999983t-0.3299999999999983 0.13888888888888928-0.32888888888889056-0.13888888888888928-0.155555555555555-0.3299999999999983l-0.20888888888888957-4.096666666666668 0.20777777777777828-8.542222222222222q0.017777777777777004-0.20777777777777828 0.155555555555555-0.3477777777777771t0.3311111111111096-0.13888888888888928 0.32222222222222285 0.13888888888888928 0.14777777777777956 0.3477777777777771z m3.6799999999999997 8.54111111111111l-0.24444444444444358 4.011111111111113q0 0.224444444444444-0.155555555555555 0.3811111111111103t-0.3822222222222216 0.155555555555555-0.3811111111111103-0.155555555555555-0.173333333333332-0.3822222222222216l-0.10333333333333172-1.9777777777777779-0.10444444444444301-2.033333333333335 0.20777777777777828-11.04111111111111v-0.053333333333334565q0.03333333333333499-0.2599999999999998 0.20777777777777828-0.4166666666666661 0.155555555555555-0.12222222222222179 0.34777777777777885-0.12222222222222179 0.13888888888888928 0 0.26000000000000156 0.08888888888888857 0.24444444444444358 0.137777777777778 0.27777777777777857 0.4499999999999993z m19.306666666666665-0.328888888888887q0 2.033333333333335-1.4411111111111126 3.464444444444446t-3.4722222222222214 1.4333333333333336h-13.644444444444446q-0.22666666666666657-0.03555555555555401-0.38333333333333286-0.19222222222222385t-0.155555555555555-0.3822222222222216v-15.606666666666671q0-0.40000000000000036 0.48555555555555685-0.5733333333333341 1.4755555555555553-0.5888888888888886 3.142222222222223-0.5888888888888886 3.3855555555555554 0 5.866666666666667 2.282222222222222t2.777777777777775 5.616666666666667q0.9222222222222243-0.3822222222222216 1.9111111111111114-0.3822222222222216 2.031111111111109 0 3.4722222222222214 1.4411111111111126t1.4411111111111126 3.4877777777777794z"></path></svg>