<?xml version="1.0"?><svg xmlns="http://www.w3.org/2000/svg" width="40" height="40" viewBox="0 0 40 40"><path d="m11.39764705882353 24.11764705882353q-2.023529411764706 1.1764705882352935-4.9270588235294115 1.1764705882352935h-2.352941176470588v-1.1764705882352935h-1.1764705882352944q-0.23882352941176466 0-0.4141176470588235-0.4317647058823546t-0.1741176470588246-1.0388235294117614q0-0.4411764705882355 0.12941176470588234-0.9011764705882364-1.0670588235294118-0.0352941176470587-1.7764705882352942-0.19294117647058684t-0.7058823529411764-0.37647058823529633 0.7058823529411765-0.3764705882352928 1.776470588235294-0.19294117647058684q-0.12941176470588234-0.4588235294117702-0.12941176470588234-0.9011764705882364 0-0.6070588235294103 0.1741176470588237-1.038823529411765t0.4141176470588235-0.4317647058823546h1.1764705882352944v-1.1764705882352935h2.352941176470588q2.905882352941177 0 4.927058823529412 1.1764705882352935h20.458823529411767q0.7729411764705887 0.1294117647058819 1.9588235294117666 0.3294117647058812t1.4788235294117626 0.25882352941176734q1.6376470588235321 0.27529411764705713 2.758823529411764 0.7447058823529424t1.5352941176470623 0.8729411764705866 0.4141176470588235 0.735294117647058-0.4141176470588235 0.735294117647058-1.5352941176470551 0.8729411764705866-2.758823529411771 0.744705882352946q-0.29411764705882604 0.05529411764705827-1.4788235294117626 0.2588235294117638t-1.9576470588235289 0.3294117647058812h-20.461176470588242z m20.569411764705887-4.631764705882354q0.9741176470588222 0.6611764705882379 0.9741176470588222 1.6905882352941184t-0.9741176470588222 1.6905882352941184l1.4894117647058813 0.5529411764705898q1.2494117647058829-0.8835294117647088 1.2494117647058829-2.243529411764708t-1.2494117647058829-2.2423529411764704z m-20.477647058823536 4.92588235294118h18.658823529411766l-8.383529411764705 1.470588235294116q-1.0470588235294116 0-2.07764705882353 0.4411764705882355t-1.5258823529411778 0.882352941176471l-0.5141176470588213 0.4411764705882355-5.294117647058824 5.294117647058826q-0.4788235294117644 0.4776470588235284-1.2976470588235287 0.8270588235294127t-1.6435294117647068 0.3494117647058772h-1.7647058823529411l-1.710588235294118-8.529411764705884h0.5341176470588236q2.8847058823529412 0 5.017647058823529-1.1764705882352935z m-5.018823529411764-7.647058823529413h-0.5329411764705885l1.7094117647058829-8.529411764705882h1.7647058823529411q0.8470588235294123 0 1.6541176470588237 0.34941176470588253t1.2870588235294118 0.827058823529411l5.294117647058824 5.294117647058824q0.07411764705882362 0.07411764705882362 0.2023529411764713 0.19294117647058862t0.5611764705882365 0.42352941176470615 0.8905882352941177 0.5317647058823525 1.129411764705882 0.4235294117647044 1.3341176470588216 0.19176470588235262l8.383529411764705 1.470588235294116h-18.658823529411762q-2.131764705882354-1.1764705882352935-5.017647058823531-1.1764705882352935z"></path></svg>