<?xml version="1.0"?><svg viewBox="0 0 40 40" xmlns="http://www.w3.org/2000/svg" height="40" width="40"><path d="m11.4 23.2q-2 1.1-4.9 1.1h-2.4v-1.1h-1.2q-0.2 0-0.4-0.5t-0.1-1q0-0.5 0.1-0.9-1.1 0-1.8-0.2t-0.7-0.4 0.7-0.4 1.8-0.2q-0.1-0.4-0.1-0.9 0-0.6 0.1-1t0.4-0.4h1.2v-1.2h2.4q2.9 0 4.9 1.2h20.5q0.7 0.1 1.9 0.3t1.5 0.3q1.6 0.2 2.8 0.7t1.5 0.9 0.4 0.7-0.4 0.8-1.5 0.8-2.8 0.8q-0.3 0-1.5 0.2t-1.9 0.4h-20.5z m20.6-4.7q0.9 0.7 0.9 1.7t-0.9 1.7l1.5 0.6q1.2-0.9 1.2-2.3t-1.2-2.2z m-20.5 5h18.6q-3.9 0.7-8.3 1.4-1.1 0-2.1 0.5t-1.5 0.8l-0.6 0.5-5.2 5.3q-0.5 0.5-1.3 0.8t-1.7 0.4h-1.8l-1.7-8.6h0.6q2.9 0 5-1.1z m-5-7.7h-0.6l1.7-8.5h1.8q0.9 0 1.7 0.3t1.3 0.9l5.2 5.2q0.1 0.1 0.2 0.2t0.6 0.5 0.9 0.5 1.1 0.4 1.4 0.2l8.3 1.5h-18.6q-2.1-1.2-5-1.2z"></path></svg>