<?xml version="1.0"?><svg xmlns="http://www.w3.org/2000/svg" width="40" height="40" viewBox="0 0 40 40"><path d="m11.742857142857144 31.114285714285717q0 1.1857142857142868-0.838571428571429 2.0214285714285687t-2.0199999999999996 0.8371428571428581q-1.161428571428571 0-2.01-0.8471428571428561t-0.845714285714287-2.0114285714285707q0-1.1814285714285724 0.8357142857142854-2.0185714285714305t2.0199999999999996-0.8371428571428581 2.0185714285714287 0.8385714285714272 0.8371428571428563 2.0199999999999996z m11.114285714285714 4.599999999999998q0 1.182857142857145-0.8371428571428581 2.020000000000003t-2.0199999999999996 0.837142857142851-2.0199999999999996-0.8371428571428581-0.8371428571428581-2.019999999999996 0.8371428571428581-2.020000000000003 2.0199999999999996-0.837142857142851 2.0199999999999996 0.8371428571428581 0.8371428571428581 2.019999999999996z m-15.714285714285715-15.714285714285715q8.881784197001252e-16 1.1828571428571415-0.8371428571428563 2.0199999999999996t-2.0200000000000005 0.8371428571428581-2.02-0.8371428571428581-0.837142857142857-2.0199999999999996 0.837142857142857-2.0199999999999996 2.02-0.8371428571428581 2.0200000000000005 0.8371428571428581 0.8371428571428572 2.0199999999999996z m26.828571428571433 11.114285714285714q0 1.1614285714285728-0.8471428571428561 2.009999999999998t-2.008571428571429 0.8485714285714252q-1.1814285714285724 0-2.018571428571427-0.835714285714289t-0.8371428571428581-2.0199999999999996 0.8385714285714272-2.0185714285714305 2.0199999999999996-0.8371428571428581 2.0214285714285687 0.8385714285714272 0.8371428571428581 2.0199999999999996z m-21.514285714285716-22.228571428571428q0 1.4714285714285715-1.0500000000000007 2.5214285714285722t-2.5214285714285722 1.0500000000000007-2.524285714285714-1.0500000000000007-1.0471428571428572-2.5214285714285722 1.0471428571428572-2.524285714285714 2.524285714285714-1.0471428571428572 2.5214285714285722 1.0471428571428572 1.048571428571428 2.522857142857143z m26.11428571428571 11.114285714285714q0 1.1828571428571415-0.8371428571428581 2.0199999999999996t-2.019999999999996 0.8371428571428581-2.020000000000003-0.8371428571428581-0.837142857142851-2.0199999999999996 0.8371428571428581-2.0199999999999996 2.019999999999996-0.8371428571428581 2.020000000000003 0.8371428571428581 0.837142857142851 2.0199999999999996z m-14.285714285714285-15.714285714285715q0 1.7857142857142865-1.25 3.0357142857142865t-3.0357142857142847 1.25-3.0357142857142847-1.25-1.25-3.0357142857142856 1.25-3.0357142857142856 3.0357142857142847-1.25 3.0357142857142847 1.25 1.25 3.0357142857142856z m11.82857142857143 4.600000000000001q0 2.0742857142857147-1.471428571428575 3.5371428571428574t-3.5285714285714214 1.4628571428571426q-2.0742857142857147 0-3.5371428571428574-1.4628571428571426t-1.4628571428571426-3.5371428571428574q0-2.0542857142857143 1.4628571428571426-3.5285714285714285t3.53857142857143-1.4714285714285715q2.0542857142857116 0 3.528571428571432 1.4714285714285715t1.471428571428568 3.5285714285714285z"></path></svg>