<?xml version="1.0"?><svg viewBox="0 0 40 40" xmlns="http://www.w3.org/2000/svg" height="40" width="40"><path d="m12.2 29.4q0 1.1-0.8 1.9t-1.9 0.8q-1.1 0-1.9-0.8t-0.8-1.9q0-1.1 0.8-1.9t1.9-0.8 1.9 0.8 0.8 1.9z m10.5 4.4q0 1.1-0.8 1.9t-1.9 0.8-1.9-0.8-0.8-1.9 0.8-2 1.9-0.7 1.9 0.7 0.8 2z m-14.9-14.9q0 1.1-0.7 1.9t-2 0.8-1.9-0.8-0.8-1.9 0.8-1.9 1.9-0.8 2 0.8 0.7 1.9z m25.4 10.5q0 1.1-0.8 1.9t-1.9 0.8q-1.1 0-1.9-0.8t-0.8-1.9 0.8-1.9 1.9-0.8 1.9 0.8 0.8 1.9z m-20.3-21q0 1.4-1 2.4t-2.4 1-2.4-1-1-2.4 1-2.4 2.4-1 2.4 1 1 2.4z m24.7 10.5q0 1.1-0.8 1.9t-1.9 0.8-2-0.8-0.7-1.9 0.7-1.9 2-0.8 1.9 0.8 0.8 1.9z m-13.5-14.8q0 1.6-1.2 2.8t-2.9 1.2-2.9-1.2-1.2-2.8 1.2-2.9 2.9-1.2 2.9 1.2 1.2 2.9z m11.1 4.3q0 2-1.4 3.3t-3.3 1.4q-2 0-3.3-1.4t-1.4-3.3q0-1.9 1.4-3.3t3.3-1.4q1.9 0 3.3 1.4t1.4 3.3z"></path></svg>