<?xml version="1.0"?><svg xmlns="http://www.w3.org/2000/svg" width="40" height="40" viewBox="0 0 40 40"><path d="m28.014285714285712 27.00857142857143q0-0.7142857142857153-0.6714285714285708-1.138571428571428-4.30857142857143-2.5685714285714276-9.977142857142859-2.5685714285714276-2.968571428571428 0-6.405714285714286 0.7571428571428562-0.9371428571428577 0.20285714285714462-0.9371428571428577 1.1614285714285728 0 0.4471428571428575 0.3000000000000007 0.7714285714285722t0.7942857142857136 0.32285714285714207q0.1114285714285721 0 0.8257142857142856-0.17714285714285793 2.9471428571428575-0.6028571428571432 5.424285714285713-0.6028571428571432 5.0428571428571445 0 8.861428571428572 2.3000000000000007 0.4242857142857126 0.24285714285714377 0.7371428571428567 0.24285714285714377 0.4242857142857126 0 0.7371428571428567-0.3000000000000007t0.31428571428571317-0.7714285714285722z m2.1428571428571423-4.800000000000001q0-0.8914285714285732-0.7828571428571429-1.3599999999999994-5.2885714285714265-3.148571428571426-12.23142857142857-3.148571428571426-3.4171428571428564 0-6.764285714285716 0.9385714285714286-1.0714285714285712 0.28999999999999915-1.0714285714285712 1.428571428571427 0 0.5571428571428569 0.39000000000000057 0.9485714285714302t0.9485714285714284 0.3914285714285697q0.15714285714285658 0 0.8257142857142856-0.17857142857142705 2.7228571428571424-0.7385714285714293 5.602857142857145-0.7385714285714293 6.228571428571428 0 10.892857142857142 2.767142857142858 0.5357142857142847 0.28999999999999915 0.8485714285714288 0.28999999999999915 0.5599999999999987 0 0.9499999999999993-0.39000000000000057t0.39000000000000057-0.9485714285714302z m2.41-5.534285714285716q0-1.048571428571428-0.8928571428571423-1.5628571428571423-2.814285714285713-1.6285714285714281-6.540000000000003-2.467142857142857t-7.657142857142858-0.8357142857142854q-4.551428571428572 0-8.124285714285715 1.048571428571428-0.5142857142857142 0.1542857142857148-0.8599999999999994 0.5671428571428567t-0.3457142857142852 1.0828571428571436q0 0.6914285714285722 0.4571428571428573 1.1600000000000001t1.1500000000000004 0.46857142857142975q0.24571428571428555 0 0.8928571428571423-0.17857142857142883 2.968571428571428-0.8257142857142856 6.852857142857141-0.8257142857142856 3.548571428571428 0 6.9085714285714275 0.757142857142858t5.657142857142858 2.121428571428572q0.47142857142857153 0.2671428571428578 0.894285714285715 0.2671428571428578 0.6471428571428568 0 1.1285714285714263-0.4571428571428555t0.47857142857142776-1.1499999999999986z m4.575714285714291 3.3257142857142874q0 4.665714285714287-2.299999999999997 8.604285714285716t-6.237142857142857 6.238571428571426-8.605714285714292 2.3000000000000043-8.6-2.3000000000000043-6.242857142857143-6.238571428571426-2.295714285714286-8.604285714285716 2.3000000000000003-8.604285714285714 6.234285714285714-6.238571428571428 8.604285714285714-2.3000000000000003 8.605714285714285 2.3000000000000003 6.238571428571426 6.238571428571428 2.298571428571435 8.604285714285714z"></path></svg>