<?xml version="1.0"?><svg viewBox="0 0 40 40" xmlns="http://www.w3.org/2000/svg" height="40" width="40"><path d="m27.6 25.5q0-0.6-0.7-1-4-2.5-9.4-2.5-2.8 0-6 0.7-0.9 0.2-0.9 1.1 0 0.5 0.3 0.8t0.7 0.3q0.1 0 0.8-0.2 2.8-0.6 5.1-0.6 4.8 0 8.4 2.2 0.4 0.2 0.7 0.2 0.4 0 0.7-0.2t0.3-0.8z m2-4.5q0-0.9-0.7-1.3-5-3-11.6-3-3.2 0-6.4 0.9-1 0.3-1 1.4 0 0.5 0.4 0.9t0.9 0.3q0.1 0 0.7-0.1 2.6-0.7 5.3-0.7 5.9 0 10.3 2.6 0.5 0.3 0.8 0.3 0.6 0 0.9-0.4t0.4-0.9z m2.3-5.2q0-1-0.9-1.5-2.6-1.6-6.1-2.3t-7.3-0.8q-4.3 0-7.7 1-0.4 0.1-0.8 0.5t-0.3 1q0 0.7 0.4 1.1t1.1 0.5q0.2 0 0.9-0.2 2.8-0.8 6.4-0.8 3.4 0 6.6 0.7t5.3 2q0.5 0.3 0.9 0.3 0.6 0 1-0.5t0.5-1z m4.3 3.1q0 4.4-2.2 8.1t-5.9 5.9-8.1 2.2-8.1-2.2-5.9-5.9-2.2-8.1 2.2-8.1 5.9-5.9 8.1-2.2 8.1 2.2 5.9 5.9 2.2 8.1z"></path></svg>