<?xml version="1.0"?><svg xmlns="http://www.w3.org/2000/svg" width="40" height="40" viewBox="0 0 40 40"><path d="m27.900000000000002 21.361428571428572l5.738571428571429-5.58-9.420000000000002-1.3857142857142861-0.6714285714285708-1.338571428571429-3.547142857142859-7.185714285714285v21.49428571428571l1.3171428571428585 0.6914285714285704 7.099999999999998 3.75-1.3428571428571416-7.924285714285713-0.2657142857142851-1.4714285714285715z m10.091428571428569-5.848571428571429l-8.102857142857143 7.899999999999999 1.9200000000000017 11.160000000000004q0.1114285714285721 0.7371428571428567-0.13428571428571345 1.1499999999999986t-0.7571428571428562 0.41428571428571104q-0.38142857142857167 0-0.894285714285715-0.2685714285714269l-10.022857142857145-5.268571428571427-10.022857142857143 5.271428571428572q-0.5142857142857142 0.2657142857142887-0.8928571428571423 0.2657142857142887-0.5142857142857142 0-0.7599999999999998-0.41428571428571104t-0.13428571428571345-1.1485714285714295l1.92-11.16-8.124285714285715-7.9000000000000075q-0.714285714285714-0.7142857142857135-0.514285714285714-1.3285714285714292t1.207142857142857-0.7714285714285722l11.207142857142857-1.6285714285714263 5.021428571428572-10.157142857142858q0.4471428571428575-0.9142857142857138 1.0928571428571416-0.9142857142857138 0.6285714285714299 0 1.095714285714287 0.9142857142857143l5.022857142857141 10.157142857142858 11.205714285714286 1.6285714285714281q1.0042857142857144 0.15714285714285658 1.2057142857142864 0.7714285714285722t-0.5342857142857156 1.3285714285714292z"></path></svg>