<?xml version="1.0"?><svg viewBox="0 0 40 40" xmlns="http://www.w3.org/2000/svg" height="40" width="40"><path d="m26.2 10.7q1.3 1.2 1.3 2.9t-1.3 3q-1.2 1.3-3 1.3t-3-1.3q-1.2-1.2-1.2-3t1.2-2.9q1.3-1.3 3-1.3t3 1.3z m-13.4 18.9q1.3-1.3 1.3-3.1t-1.3-3q-1.2-1.3-3-1.3-0.5 0-1 0.1l1.8 0.7q1.4 0.6 1.9 1.9t0.1 2.6q-0.6 1.3-1.9 1.9t-2.6 0q-0.4-0.1-1.1-0.4t-1.1-0.4q0.6 1 1.6 1.6t2.3 0.7q1.8 0 3-1.3z m15.7-15.9q0-2.2-1.5-3.8t-3.8-1.5q-2.2 0-3.7 1.5t-1.6 3.8q0 2.2 1.6 3.7t3.7 1.6q2.2 0 3.8-1.6t1.5-3.7z m2.6 0q0 3.2-2.3 5.6t-5.6 2.3l-7.6 5.5q-0.2 2.2-1.9 3.8t-3.9 1.5q-2.1 0-3.8-1.3t-2-3.3l-4-1.6v-7.5l6.8 2.8q1.3-0.9 3-0.9 0.2 0 0.6 0.1l4.9-7.1q0-3.3 2.3-5.5t5.6-2.3q3.3 0 5.6 2.3t2.3 5.6z"></path></svg>