<?xml version="1.0"?><svg viewBox="0 0 40 40" xmlns="http://www.w3.org/2000/svg" height="40" width="40"><path d="m30 13.6q0-1.6-1.2-2.8t-2.9-1.2-2.9 1.2-1.2 2.8q0 1.7 1.2 2.9t2.9 1.2 2.9-1.2 1.2-2.9z m-12.9 12.5q0 1.7-1.2 2.9t-2.9 1.2q-1.2 0-2.2-0.6t-1.5-1.6q1.1 0.4 2 0.8 1.3 0.5 2.6 0t1.8-1.8q0.5-1.3-0.1-2.5t-1.8-1.8l-1.7-0.7q0.4-0.1 0.9-0.1 1.7 0 2.9 1.2t1.2 3z m19.1-17.3v20.2q0 2.5-1.8 4.3t-4.3 1.8h-20.2q-2.5 0-4.3-1.8t-1.8-4.3v-3.2l3.6 1.5q0.4 1.9 2 3.2t3.6 1.2q2.1 0 3.8-1.4t1.8-3.7l7.3-5.3q3.2 0 5.4-2.2t2.2-5.4q0-3.2-2.2-5.4t-5.4-2.2q-3.1 0-5.4 2.2t-2.2 5.3l-4.8 6.8q-0.1 0-0.5 0-1.6 0-2.9 0.8l-6.3-2.6v-9.8q0-2.5 1.8-4.3t4.3-1.8h20.2q2.5 0 4.3 1.8t1.8 4.3z m-5.2 4.9q0 2.1-1.5 3.6t-3.6 1.5-3.6-1.5-1.5-3.6 1.5-3.6 3.6-1.5q2.1 0 3.6 1.5t1.5 3.6z"></path></svg>