<?xml version="1.0"?><svg xmlns="http://www.w3.org/2000/svg" width="40" height="40" viewBox="0 0 40 40"><path d="m32.85714285714286 15.714285714285715q0-0.5800000000000001-0.42428571428571615-1.0042857142857144t-1.0042857142857144-0.4242857142857144-1.0042857142857144 0.4242857142857144-0.42428571428571615 1.0042857142857144 0.4242857142857126 1.0042857142857144 1.004285714285718 0.4242857142857126 1.0042857142857144-0.4242857142857126 0.42428571428571615-1.0042857142857144z m2.857142857142854 0q0 1.3857142857142861-0.7928571428571445 2.4771428571428586t-2.0642857142857096 1.5628571428571405v8.817142857142859q0 3.5485714285714316-2.935714285714287 6.059999999999999t-7.064285714285717 2.5114285714285742-7.064285714285715-2.5114285714285742-2.935714285714285-6.059999999999999v-2.9471428571428575q-3.66-0.4471428571428575-6.114285714285715-2.8571428571428577t-2.4571428571428573-5.624285714285715v-11.428571428571427q0-0.5814285714285727 0.4242857142857144-1.0057142857142871t1.0042857142857144-0.4228571428571426q0.13428571428571434 0 0.35714285714285676 0.042857142857142705 0.3799999999999999-0.6714285714285713 1.048571428571428-1.0714285714285712t1.451428571428572-0.3999999999999999q1.1828571428571433 0 2.0199999999999996 0.8357142857142859t0.8371428571428581 2.0214285714285714-0.8371428571428563 2.0185714285714287-2.0200000000000014 0.8385714285714281q-0.7371428571428575 0-1.4285714285714288-0.40285714285714214v8.971428571428572q0 2.367142857142859 2.0999999999999996 4.0428571428571445t5.0428571428571445 1.6699999999999982 5.042857142857143-1.6714285714285708 2.1000000000000014-4.042857142857141v-8.96714285714286q-0.6914285714285704 0.40000000000000036-1.428571428571427 0.40000000000000036-1.1828571428571415 0-2.0199999999999996-0.8357142857142854t-0.8371428571428616-2.0214285714285714 0.8371428571428581-2.0214285714285714 2.0199999999999996-0.8357142857142859q0.7814285714285703 0 1.451428571428572 0.3999999999999999t1.048571428571428 1.0714285714285712q0.2228571428571442-0.042857142857142705 0.35714285714285765-0.042857142857142705 0.5800000000000018 0 1.0042857142857144 0.4228571428571426t0.4242857142857126 1.0057142857142862v11.428571428571427q0 3.2142857142857153-2.4571428571428555 5.624285714285715t-6.114285714285714 2.8571428571428577v2.9471428571428575q0 2.3657142857142865 2.1000000000000014 4.040000000000003t5.042857142857141 1.674285714285709 5.042857142857141-1.6742857142857162 2.1000000000000014-4.039999999999996v-8.817142857142859q-1.2714285714285722-0.46857142857142975-2.064285714285713-1.562857142857144t-0.7928571428571445-2.477142857142855q0-1.7857142857142865 1.25-3.0357142857142847t3.0357142857142883-1.2500000000000018 3.0357142857142847 1.25 1.25 3.0357142857142865z"></path></svg>