<?xml version="1.0"?><svg xmlns="http://www.w3.org/2000/svg" width="40" height="40" viewBox="0 0 40 40"><path d="m34.10714285714286 28.571428571428573h-5.535714285714288v5.535714285714288q0.6471428571428568-0.2228571428571442 0.9142857142857146-0.4914285714285711l4.131428571428572-4.12857142857143q0.2671428571428578-0.2671428571428578 0.4914285714285711-0.9142857142857146z m-6.2500000000000036-2.8571428571428577h6.428571428571427v-20h-28.57142857142857v28.57142857142857h20v-6.428571428571431q0-0.8928571428571423 0.6257142857142846-1.5171428571428578t1.5171428571428578-0.625714285714281z m9.285714285714288-20.714285714285715v22.857142857142858q0 0.8928571428571423-0.4471428571428575 1.9642857142857153t-1.0714285714285694 1.6971428571428575l-4.107142857142858 4.107142857142858q-0.6257142857142846 0.6257142857142881-1.6971428571428575 1.0714285714285694t-1.9628571428571462 0.4457142857142884h-22.857142857142858q-0.8942857142857141 0-1.5185714285714287-0.6242857142857119t-0.6242857142857141-1.518571428571434v-30q0-0.8914285714285715 0.6242857142857141-1.5142857142857142t1.5185714285714287-0.6285714285714286h30q0.8914285714285697 0 1.5142857142857125 0.6285714285714286t0.6285714285714334 1.5142857142857142z"></path></svg>