<?xml version="1.0"?><svg xmlns="http://www.w3.org/2000/svg" width="40" height="40" viewBox="0 0 40 40"><path d="m35.714285714285715 34.285714285714285q0 1.4057142857142892-1.3714285714285737 2.5328571428571465t-3.661428571428573 1.808571428571426-5.022857142857141 1.0257142857142867-5.6585714285714275 0.3471428571428561-5.657142857142858-0.345714285714287-5.024285714285714-1.028571428571432-3.66142857142857-1.8057142857142807-1.3714285714285719-2.5342857142857156q0-1.0942857142857108 0.7371428571428575-1.9757142857142824t2.031428571428572-1.4857142857142875 2.6342857142857135-0.9914285714285711 2.9242857142857144-0.6571428571428584q0.5785714285714292-0.11428571428571388 1.0714285714285712 0.2328571428571422t0.5785714285714292 0.9257142857142853q0.1114285714285721 0.5799999999999983-0.23428571428571487 1.071428571428573t-0.9242857142857144 0.5800000000000018q-1.2942857142857136 0.2228571428571442-2.3657142857142848 0.5242857142857176t-1.7071428571428573 0.5685714285714312-1.0828571428571427 0.5242857142857176-0.6142857142857148 0.4357142857142833-0.1900000000000004 0.2671428571428578q0.0685714285714285 0.24571428571428555 0.6042857142857141 0.5914285714285725t1.628571428571429 0.7371428571428567 2.5457142857142863 0.7257142857142824 3.5828571428571436 0.5571428571428569 4.494285714285713 0.22571428571428243 4.5-0.2242857142857133 3.581428571428571-0.5571428571428569 2.5428571428571445-0.7385714285714258 1.6314285714285681-0.7471428571428547 0.6000000000000014-0.6142857142857139q-0.02142857142857224-0.09000000000000341-0.1885714285714286-0.24571428571428555t-0.6142857142857139-0.42285714285713993-1.0828571428571436-0.5242857142857176-1.7071428571428555-0.5571428571428569-2.3657142857142865-0.5257142857142867q-0.581428571428571-0.09142857142857252-0.928571428571427-0.581428571428571t-0.2328571428571422-1.071428571428573q0.08999999999999986-0.5799999999999983 0.5799999999999983-0.9257142857142853t1.071428571428573-0.23428571428571487q1.5857142857142854 0.2685714285714269 2.9242857142857126 0.6600000000000001t2.634285714285717 0.9928571428571438 2.0314285714285703 1.485714285714284 0.7371428571428567 1.9742857142857133z m-8.57142857142857-20v8.57142857142857q0 0.5799999999999983-0.4242857142857126 1.0042857142857144t-1.004285714285718 0.42428571428571615h-1.428571428571427v8.57142857142857q0 0.5799999999999983-0.4242857142857126 1.0042857142857144t-1.004285714285718 0.42428571428571615h-5.714285714285715q-0.5800000000000018 0-1.0042857142857144-0.42428571428571615t-0.4242857142857126-1.0042857142857073v-8.57142857142857h-1.4285714285714288q-0.5800000000000001 0-1.0042857142857144-0.4242857142857126t-0.4242857142857144-1.0042857142857216v-8.571428571428571q0-1.1828571428571433 0.8371428571428563-2.0199999999999996t2.0200000000000014-0.8371428571428581h8.57142857142857q1.1828571428571415 0 2.0199999999999996 0.8371428571428563t0.8371428571428581 2.0200000000000014z m-2.1428571428571423-8.571428571428571q0 2.0757142857142856-1.46142857142857 3.5385714285714283t-3.5385714285714336 1.4614285714285735-3.53857142857143-1.4614285714285717-1.46142857142857-3.538571428571429 1.46142857142857-3.5385714285714283 3.53857142857143-1.4614285714285717 3.53857142857143 1.4614285714285713 1.46142857142857 3.5385714285714287z"></path></svg>