<?xml version="1.0"?><svg viewBox="0 0 40 40" xmlns="http://www.w3.org/2000/svg" height="40" width="40"><path d="m33.5 32.4q0 1.3-1.3 2.4t-3.5 1.7-4.7 1-5.4 0.3-5.3-0.3-4.7-1-3.5-1.7-1.3-2.4q0-1 0.7-1.9t1.9-1.4 2.5-0.9 2.8-0.6q0.5-0.1 1 0.2t0.5 0.9q0.1 0.5-0.2 1t-0.9 0.5q-1.2 0.2-2.2 0.5t-1.6 0.6-1 0.5-0.6 0.4-0.2 0.2q0.1 0.3 0.6 0.6t1.5 0.7 2.4 0.7 3.4 0.5 4.2 0.2 4.3-0.2 3.4-0.5 2.4-0.7 1.5-0.7 0.6-0.6q0-0.1-0.2-0.2t-0.6-0.5-1-0.4-1.6-0.6-2.2-0.5q-0.6-0.1-0.9-0.5t-0.2-1q0.1-0.6 0.5-0.9t1-0.2q1.5 0.2 2.8 0.6t2.5 0.9 1.9 1.4 0.7 1.9z m-8.1-18.9v8.1q0 0.6-0.4 1t-0.9 0.4h-1.4v8.1q0 0.5-0.4 0.9t-0.9 0.4h-5.5q-0.5 0-0.9-0.4t-0.4-0.9v-8.1h-1.4q-0.5 0-0.9-0.4t-0.4-1v-8.1q0-1.1 0.8-1.9t1.9-0.8h8.1q1.1 0 1.9 0.8t0.8 1.9z m-2-8.1q0 2-1.4 3.3t-3.4 1.4-3.3-1.4-1.4-3.3 1.4-3.3 3.3-1.4 3.4 1.4 1.4 3.3z"></path></svg>