<?xml version="1.0"?><svg xmlns="http://www.w3.org/2000/svg" width="40" height="40" viewBox="0 0 40 40"><path d="m39.285714285714285 20q0.3142857142857167 0 0.5142857142857125 0.1999999999999993t0.20000000000000284 0.514285714285716v1.428571428571427q0 0.31428571428571317-0.20000000000000284 0.514285714285716t-0.5142857142857125 0.1999999999999993h-38.57142857142857q-0.3142857142857153 0-0.5142857142857152-0.1999999999999993t-0.20000000000000007-0.514285714285716v-1.428571428571427q0-0.31428571428571317 0.2-0.5142857142857125t0.5142857142857142-0.20000000000000284h38.57142857142857z m-28.504285714285714-1.428571428571427q-0.6257142857142846-0.7814285714285703-1.1385714285714261-1.7857142857142847-1.071428571428573-2.1657142857142873-1.071428571428573-4.197142857142861 0-4.039999999999999 2.991428571428571-6.897142857142858 2.9685714285714297-2.8342857142857123 8.771428571428574-2.8342857142857123 1.1171428571428557 0 3.7285714285714278 0.4242857142857144 1.4714285714285715 0.26714285714285735 3.951428571428572 1.0714285714285716 0.2228571428571442 0.8485714285714288 0.46857142857142975 2.6342857142857143 0.31428571428571317 2.7471428571428573 0.31428571428571317 4.0857142857142845 0 0.40000000000000036-0.11428571428571388 1.0042857142857144l-0.2657142857142851 0.06714285714285673-1.8757142857142846-0.13428571428571345-0.31428571428571317-0.042857142857142705q-1.1142857142857139-3.328571428571429-2.3000000000000007-4.577142857142857-1.9628571428571426-2.031428571428571-4.685714285714287-2.031428571428571-2.5428571428571445 0-4.062857142857144 1.3171428571428567-1.4957142857142856 1.2942857142857145-1.4957142857142856 3.2571428571428562 0 1.6314285714285717 1.4714285714285715 3.128571428571428t6.228571428571431 2.878571428571428q1.53857142857143 0.4471428571428575 3.8599999999999994 1.4714285714285715 1.2942857142857136 0.6285714285714299 2.120000000000001 1.1614285714285728h-16.582857142857147z m11.317142857142859 5.714285714285715h9.17142857142857q0.15714285714285836 0.8714285714285701 0.15714285714285836 2.0528571428571425 0 2.4771428571428586-0.9142857142857146 4.732857142857142-0.5142857142857125 1.2285714285714313-1.5857142857142854 2.321428571428573-0.8257142857142874 0.7814285714285703-2.4328571428571415 1.808571428571426-1.7857142857142847 1.0714285714285694-3.4142857142857146 1.4742857142857133-1.7857142857142847 0.46857142857142975-4.532857142857143 0.46857142857142975-2.5428571428571445 0-4.352857142857143-0.5142857142857125l-3.1257142857142863-0.8914285714285697q-1.274285714285714-0.3571428571428541-1.6085714285714285-0.6257142857142881-0.17857142857142883-0.1785714285714306-0.17857142857142883-0.4914285714285711v-0.28999999999999915q0-2.4085714285714275-0.04571428571428626-3.481428571428573-0.02285714285714313-0.6714285714285708 0-1.5171428571428578l0.042857142857142705-0.8242857142857147v-0.9828571428571422l2.2785714285714285-0.04285714285714448q0.3342857142857145 0.7571428571428562 0.6714285714285708 1.5828571428571436t0.5 1.25 0.27999999999999936 0.6028571428571432q0.7799999999999994 1.2714285714285687 1.7857142857142865 2.099999999999998 0.9571428571428573 0.7999999999999972 2.3428571428571416 1.2714285714285722 1.3171428571428585 0.4914285714285711 2.9471428571428575 0.4914285714285711 1.428571428571427 0 3.102857142857143-0.6028571428571396 1.7185714285714297-0.5799999999999983 2.722857142857144-1.9200000000000017 1.0500000000000007-1.361428571428572 1.0500000000000007-2.879999999999999 0-1.8757142857142846-1.8085714285714296-3.5042857142857144-0.7600000000000016-0.6485714285714295-3.0599999999999987-1.5857142857142854z"></path></svg>