<?xml version="1.0"?><svg viewBox="0 0 40 40" xmlns="http://www.w3.org/2000/svg" height="40" width="40"><path d="m38.2 18.9q0.3 0 0.5 0.2t0.2 0.5v1.3q0 0.3-0.2 0.5t-0.5 0.2h-36.4q-0.3 0-0.5-0.2t-0.2-0.5v-1.3q0-0.3 0.2-0.5t0.5-0.2h36.4z m-26.9-1.3q-0.6-0.8-1.1-1.7-1-2.1-1-4 0-3.8 2.8-6.5 2.8-2.7 8.3-2.7 1.1 0 3.5 0.4 1.4 0.3 3.8 1 0.2 0.8 0.4 2.5 0.3 2.6 0.3 3.9 0 0.3-0.1 0.9l-0.2 0.1-1.8-0.2-0.3 0q-1.1-3.1-2.2-4.3-1.8-1.9-4.4-1.9-2.4 0-3.9 1.2-1.4 1.2-1.4 3.1 0 1.5 1.4 2.9t5.9 2.8q1.5 0.4 3.7 1.4 1.2 0.5 2 1.1h-15.7z m10.7 5.4h8.7q0.1 0.8 0.1 1.9 0 2.3-0.9 4.5-0.4 1.1-1.5 2.2-0.7 0.7-2.3 1.7-1.6 1-3.2 1.4-1.7 0.4-4.3 0.4-2.4 0-4.1-0.5l-2.9-0.8q-1.2-0.4-1.6-0.6-0.1-0.2-0.1-0.5v-0.3q0-2.2-0.1-3.2 0-0.7 0-1.5l0.1-0.8v-0.9l2.1 0q0.3 0.7 0.7 1.5t0.4 1.1 0.3 0.6q0.7 1.2 1.7 2 0.9 0.8 2.2 1.2 1.2 0.5 2.8 0.5 1.3 0 2.9-0.6 1.6-0.6 2.6-1.8 1-1.3 1-2.7 0-1.8-1.7-3.3-0.7-0.7-2.9-1.5z"></path></svg>