<?xml version="1.0"?><svg viewBox="0 0 40 40" xmlns="http://www.w3.org/2000/svg" height="40" width="40"><path d="m30.6 19.1q0.2 0 0.4 0.2t0.1 0.4v1.1q0 0.2-0.1 0.4t-0.4 0.1h-30q-0.3 0-0.4-0.1t-0.2-0.4v-1.1q0-0.3 0.2-0.4t0.4-0.2h30z m-22.2-1.1q-0.5-0.6-0.9-1.4-0.8-1.7-0.8-3.3 0-3.1 2.3-5.3 2.3-2.2 6.8-2.2 0.9 0 2.9 0.3 1.2 0.2 3.1 0.8 0.2 0.7 0.4 2.1 0.2 2.1 0.2 3.2 0 0.3-0.1 0.7l-0.2 0.1-1.5-0.1-0.2-0.1q-0.9-2.5-1.8-3.5-1.5-1.6-3.6-1.6-2 0-3.2 1-1.2 1-1.2 2.6 0 1.2 1.2 2.4t4.8 2.2q1.2 0.4 3 1.2 1 0.5 1.7 0.9h-12.9z m8.8 4.4h7.1q0.1 0.7 0.1 1.6 0 2-0.7 3.7-0.4 1-1.2 1.8-0.6 0.6-1.9 1.4-1.4 0.9-2.6 1.2-1.4 0.3-3.6 0.3-2 0-3.4-0.4l-2.4-0.7q-1-0.2-1.2-0.5-0.2-0.1-0.2-0.3v-0.3q0-1.8 0-2.7 0-0.5 0-1.1l0-0.7v-0.8l1.8 0q0.3 0.6 0.5 1.2t0.4 1q0.1 0.3 0.2 0.5 0.6 1 1.4 1.6 0.8 0.6 1.8 1 1.1 0.4 2.3 0.4 1.1 0 2.4-0.5 1.4-0.4 2.2-1.5 0.8-1 0.8-2.2 0-1.5-1.4-2.7-0.6-0.5-2.4-1.3z"></path></svg>