<?xml version="1.0"?><svg viewBox="0 0 40 40" xmlns="http://www.w3.org/2000/svg" height="40" width="40"><path d="m22.1 17.7l1.9-0.6v-1.3q0-1.6-1.3-2.8t-2.9-1.2-2.9 1.2-1.2 2.8v6q0 0.4-0.3 0.7t-0.7 0.3-0.7-0.3-0.3-0.7v-2.6h-3.2v2.6q0 1.7 1.3 2.9t2.9 1.2q1.7 0 2.9-1.1t1.2-2.9v-5.9q0-0.4 0.3-0.7t0.7-0.3q0.4 0 0.7 0.3t0.3 0.7v1.1z m7 4.1v-2.6h-3.2v2.7q0 0.4-0.3 0.7t-0.7 0.3q-0.4 0-0.6-0.3t-0.3-0.7v-2.6l-1.9 0.6-1.3-0.6v2.6q0 1.6 1.2 2.8t3 1.2 2.9-1.2 1.2-2.9z m7.1-2.9q0 4.4-2.2 8.1t-5.9 5.9-8.1 2.2-8.1-2.2-5.9-5.9-2.2-8.1 2.2-8.1 5.9-5.9 8.1-2.2 8.1 2.2 5.9 5.9 2.2 8.1z"></path></svg>