<?xml version="1.0"?><svg viewBox="0 0 40 40" xmlns="http://www.w3.org/2000/svg" height="40" width="40"><path d="m15 18.1l1.6-0.5v-1q0-1.4-1-2.4t-2.4-1q-1.4 0-2.4 1t-1 2.3v5q0 0.3-0.3 0.5t-0.5 0.3q-0.4 0-0.6-0.3t-0.2-0.5v-2.1h-2.6v2.1q0 1.4 1 2.4t2.4 1q1.4 0 2.4-1t1-2.4v-4.8q0-0.3 0.2-0.6t0.6-0.2q0.3 0 0.6 0.2t0.2 0.6v0.9l1 0.5z m5.8 3.4v-2.1h-2.6v2.2q0 0.3-0.2 0.5t-0.6 0.3q-0.3 0-0.6-0.3t-0.2-0.5v-2.2l-1.6 0.5-1-0.5v2.1q0 1.4 1 2.4t2.4 1q1.4 0 2.4-1t1-2.4z m4.1-9.1q1.8 3.1 1.8 6.7t-1.8 6.7q-1.8 3.1-4.9 4.8t-6.7 1.8q-3.6 0-6.7-1.8t-4.8-4.8q-1.8-3.1-1.8-6.7t1.8-6.7q1.8-3.1 4.8-4.8t6.7-1.8q3.7 0 6.7 1.8t4.9 4.8z"></path></svg>