<?xml version="1.0"?><svg xmlns="http://www.w3.org/2000/svg" width="40" height="40" viewBox="0 0 40 40"><path d="m14.285714285714286 8.571428571428571h11.428571428571429v-2.8571428571428568h-11.428571428571429v2.8571428571428568z m-7.857142857142858 0v28.571428571428577h-1.4285714285714288q-2.052857142857143 0-3.528571428571429-1.471428571428568t-1.471428571428571-3.528571428571432v-18.571428571428573q0-2.0528571428571425 1.4714285714285715-3.5285714285714285t3.5285714285714285-1.4714285714285733h1.4285714285714288z m25 0v28.571428571428577h-22.85714285714286v-28.571428571428577h2.8571428571428594v-3.5714285714285694q0-0.8928571428571432 0.6257142857142863-1.5171428571428573t1.517142857142856-0.6257142857142854h12.85714285714286q0.8928571428571423 0 1.5171428571428578 0.6257142857142859t0.6257142857142846 1.517142857142857v3.571428571428571h2.8571428571428577z m8.57142857142857 5v18.571428571428577q0 2.0528571428571425-1.471428571428575 3.528571428571432t-3.528571428571425 1.471428571428568h-1.4285714285714306v-28.571428571428577h1.4285714285714306q2.0528571428571425 1.7763568394002505e-15 3.528571428571432 1.4714285714285733t1.471428571428568 3.5285714285714285z"></path></svg>