<?xml version="1.0"?><svg xmlns="http://www.w3.org/2000/svg" width="40" height="40" viewBox="0 0 40 40"><path d="m32.85714285714286 20q0-2.611428571428572-1.0142857142857125-4.988571428571429t-2.747142857142858-4.107142857142858-4.107142857142858-2.7457142857142856-4.988571428571433-1.0157142857142842-4.988571428571429 1.0142857142857151-4.107142857142858 2.747142857142858-2.7457142857142856 4.107142857142858-1.0157142857142842 4.988571428571426 1.0142857142857151 4.988571428571429 2.747142857142858 4.107142857142858 4.107142857142858 2.7457142857142856 4.988571428571426 1.0157142857142887 4.988571428571429-1.0142857142857125 4.107142857142858-2.747142857142858 2.7457142857142856-4.107142857142858 1.0157142857142887-4.988571428571433z m6.159999999999997 6.182857142857145q-0.09000000000000341 0.33428571428571274-0.4471428571428575 0.4471428571428575l-6.518571428571427 2.1428571428571423v6.831428571428571q0 0.3571428571428541-0.28999999999999915 0.5799999999999983-0.33428571428571274 0.2228571428571442-0.6471428571428568 0.09000000000000341l-6.514285714285716-2.097142857142856-4.018571428571427 5.535714285714285q-0.22428571428571686 0.2871428571428538-0.5814285714285745 0.2871428571428538t-0.5785714285714292-0.28999999999999915l-4.017142857142858-5.535714285714285-6.517142857142858 2.1000000000000014q-0.3114285714285714 0.1328571428571408-0.6457142857142859-0.09142857142857252-0.29000000000000004-0.2228571428571442-0.29000000000000004-0.5799999999999983v-6.828571428571429l-6.517142857142858-2.1428571428571423q-0.3571428571428572-0.11428571428571388-0.4471428571428572-0.4485714285714302-0.11142857142857143-0.379999999999999 0.08999999999999997-0.6471428571428568l4.015714285714289-5.535714285714288-4.017142857142858-5.535714285714285q-0.19999999999999973-0.28999999999999915-0.08999999999999975-0.6471428571428568 0.08999999999999997-0.3342857142857145 0.4471428571428572-0.4471428571428575l6.517142857142858-2.1428571428571423v-6.831428571428573q0-0.35714285714285676 0.2900000000000009-0.5800000000000001 0.3342857142857145-0.22285714285714286 0.6471428571428568-0.08999999999999986l6.518571428571429 2.097142857142857 4.015714285714287-5.532857142857143q0.1999999999999993-0.2671428571428571 0.5800000000000018-0.2671428571428571t0.581428571428571 0.2671428571428571l4.017142857142858 5.535714285714286 6.514285714285716-2.1q0.31428571428571317-0.132857142857143 0.6485714285714295 0.09142857142857164 0.28999999999999915 0.22285714285714286 0.28999999999999915 0.5799999999999996v6.828571428571429l6.51857142857142 2.145714285714284q0.3571428571428541 0.11428571428571388 0.4457142857142884 0.4485714285714284 0.11142857142856855 0.35714285714285765-0.09000000000000341 0.6471428571428568l-4.018571428571427 5.532857142857145 4.017142857142858 5.535714285714285q0.20000000000000284 0.2671428571428578 0.08857142857142719 0.6471428571428568z"></path></svg>