<?xml version="1.0"?><svg viewBox="0 0 40 40" xmlns="http://www.w3.org/2000/svg" height="40" width="40"><path d="m15.6 27.3v2.9h-4.3l-2.8-4.4-0.4-0.7q-0.1-0.2-0.2-0.4h-0.1l-0.1 0.4q-0.2 0.4-0.4 0.8l-2.7 4.3h-4.5v-2.9h2.2l3.4-5-3.2-4.8h-2.4v-2.9h4.8l2.4 4q0.1 0 0.4 0.7 0.2 0.2 0.2 0.4h0.1q0-0.2 0.2-0.4l0.4-0.7 2.4-4h4.5v2.9h-2.2l-3.2 4.7 3.6 5.1h1.9z m11-11.8v3.6h-8.9l0-0.5q-0.1-0.5-0.1-0.8 0-1.1 0.4-2t1.2-1.5q0.6-0.6 1.4-1.1t1.5-1q0.7-0.4 1.1-0.9t0.5-1.1q0-0.7-0.5-1.1t-1.3-0.4q-0.9 0-1.7 0.6-0.2 0.2-0.6 0.7l-1.8-1.6q0.4-0.6 1.1-1.1 1.4-1.2 3.3-1.2 1.9 0 3 1.1t1.2 2.7q0 1-0.4 1.8t-1.1 1.3q-0.6 0.5-1.4 1t-1.4 0.9q-0.7 0.4-1.2 0.9t-0.5 1.1h4v-1.4h2.2z"></path></svg>