<?xml version="1.0"?><svg xmlns="http://www.w3.org/2000/svg" width="40" height="40" viewBox="0 0 40 40"><path d="m12.857142857142858 30.714285714285715v-4.285714285714285q0-0.31428571428571317-0.1999999999999993-0.5142857142857125t-0.514285714285716-0.20000000000000284h-7.142857142857143q-0.31428571428571406 0-0.5142857142857142 0.1999999999999993t-0.1999999999999993 0.514285714285716v4.285714285714285q0 0.31428571428571317 0.20000000000000018 0.5142857142857125t0.5142857142857142 0.1999999999999993h7.142857142857142q0.31428571428571495 0 0.5142857142857142-0.1999999999999993t0.20000000000000107-0.5142857142857125z m0-8.57142857142857v-4.285714285714285q0-0.31428571428571317-0.1999999999999993-0.5142857142857125t-0.514285714285716-0.2000000000000064h-7.142857142857143q-0.31428571428571406 0-0.5142857142857142 0.1999999999999993t-0.1999999999999993 0.514285714285716v4.285714285714285q0 0.31428571428571317 0.20000000000000018 0.514285714285716t0.5142857142857142 0.1999999999999993h7.142857142857142q0.31428571428571495 0 0.5142857142857142-0.1999999999999993t0.20000000000000107-0.514285714285716z m11.428571428571427 8.57142857142857v-4.285714285714285q0-0.31428571428571317-0.1999999999999993-0.5142857142857125t-0.5142857142857125-0.20000000000000284h-7.142857142857142q-0.31428571428571317 0-0.5142857142857142 0.1999999999999993t-0.1999999999999993 0.514285714285716v4.285714285714285q0 0.31428571428571317 0.1999999999999993 0.5142857142857125t0.5142857142857142 0.1999999999999993h7.142857142857142q0.31428571428571317 0 0.514285714285716-0.1999999999999993t0.1999999999999993-0.5142857142857125z m-11.428571428571429-17.142857142857142v-4.285714285714285q0-0.31428571428571495-0.1999999999999993-0.5142857142857142t-0.5142857142857142-0.20000000000000284h-7.142857142857143q-0.31428571428571406 0-0.5142857142857142 0.1999999999999993t-0.1999999999999993 0.514285714285716v4.2857142857142865q0 0.31428571428571495 0.20000000000000018 0.5142857142857142t0.5142857142857142 0.1999999999999993h7.142857142857142q0.31428571428571495 0 0.5142857142857142-0.1999999999999993t0.20000000000000107-0.514285714285716z m11.428571428571429 8.571428571428573v-4.285714285714285q0-0.31428571428571317-0.1999999999999993-0.5142857142857125t-0.5142857142857125-0.2000000000000064h-7.142857142857142q-0.31428571428571317 0-0.5142857142857142 0.1999999999999993t-0.1999999999999993 0.5142857142857125v4.285714285714285q0 0.31428571428571317 0.1999999999999993 0.5142857142857125t0.5142857142857142 0.1999999999999993h7.142857142857142q0.31428571428571317 0 0.514285714285716-0.1999999999999993t0.1999999999999993-0.5142857142857125z m11.42857142857143 8.57142857142857v-4.285714285714285q0-0.31428571428571317-0.20000000000000284-0.5142857142857125t-0.5142857142857125-0.20000000000000284h-7.142857142857142q-0.31428571428571317 0-0.514285714285716 0.1999999999999993t-0.1999999999999993 0.514285714285716v4.285714285714285q0 0.31428571428571317 0.1999999999999993 0.5142857142857125t0.5142857142857125 0.1999999999999993h7.142857142857146q0.3142857142857167 0 0.5142857142857125-0.1999999999999993t0.20000000000000284-0.5142857142857125z m-11.42857142857143-17.142857142857142v-4.285714285714285q0-0.31428571428571495-0.1999999999999993-0.5142857142857142t-0.5142857142857125-0.20000000000000284h-7.142857142857142q-0.31428571428571317 0-0.5142857142857142 0.1999999999999993t-0.20000000000000107 0.514285714285716v4.2857142857142865q0 0.31428571428571495 0.1999999999999993 0.5142857142857142t0.514285714285716 0.1999999999999993h7.142857142857142q0.31428571428571317 0 0.514285714285716-0.1999999999999993t0.19999999999999574-0.514285714285716z m11.42857142857143 8.571428571428573v-4.285714285714285q0-0.31428571428571317-0.20000000000000284-0.5142857142857125t-0.5142857142857125-0.2000000000000064h-7.142857142857142q-0.31428571428571317 0-0.514285714285716 0.1999999999999993t-0.1999999999999993 0.5142857142857125v4.285714285714285q0 0.31428571428571317 0.1999999999999993 0.5142857142857125t0.5142857142857125 0.1999999999999993h7.142857142857146q0.3142857142857167 0 0.5142857142857125-0.1999999999999993t0.20000000000000284-0.5142857142857125z m0-8.571428571428571v-4.2857142857142865q0-0.31428571428571495-0.20000000000000284-0.5142857142857142t-0.5142857142857125-0.20000000000000284h-7.142857142857142q-0.31428571428571317 0-0.514285714285716 0.1999999999999993t-0.1999999999999993 0.514285714285716v4.2857142857142865q0 0.31428571428571495 0.1999999999999993 0.5142857142857142t0.5142857142857125 0.1999999999999993h7.142857142857146q0.3142857142857167 0 0.5142857142857125-0.1999999999999993t0.20000000000000284-0.514285714285716z m2.857142857142854-7.142857142857143v24.285714285714285q0 1.471428571428568-1.048571428571428 2.5228571428571414t-2.5228571428571414 1.048571428571428h-30q-1.4714285714285715 0-2.522857142857143-1.048571428571428t-1.0485714285714283-2.5228571428571414v-24.285714285714285q0-1.4714285714285715 1.0485714285714283-2.522857142857143t2.522857142857143-1.0485714285714303h30q1.471428571428575 0 2.5228571428571414 1.0485714285714285t1.048571428571428 2.522857142857143z"></path></svg>