<?xml version="1.0"?><svg viewBox="0 0 40 40" xmlns="http://www.w3.org/2000/svg" height="40" width="40"><path d="m13.2 29v-4q0-0.3-0.1-0.5t-0.5-0.2h-6.8q-0.3 0-0.5 0.2t-0.2 0.5v4q0 0.3 0.2 0.5t0.5 0.2h6.8q0.3 0 0.5-0.2t0.1-0.5z m0-8.1v-4q0-0.3-0.1-0.5t-0.5-0.2h-6.8q-0.3 0-0.5 0.2t-0.2 0.5v4q0 0.3 0.2 0.5t0.5 0.2h6.8q0.3 0 0.5-0.2t0.1-0.5z m10.9 8.1v-4q0-0.3-0.2-0.5t-0.5-0.2h-6.8q-0.3 0-0.5 0.2t-0.2 0.5v4q0 0.3 0.2 0.5t0.5 0.2h6.8q0.3 0 0.5-0.2t0.2-0.5z m-10.9-16.2v-4q0-0.3-0.1-0.5t-0.5-0.2h-6.8q-0.3 0-0.5 0.2t-0.2 0.5v4q0 0.3 0.2 0.5t0.5 0.2h6.8q0.3 0 0.5-0.2t0.1-0.5z m10.9 8.1v-4q0-0.3-0.2-0.5t-0.5-0.2h-6.8q-0.3 0-0.5 0.2t-0.2 0.5v4q0 0.3 0.2 0.5t0.5 0.2h6.8q0.3 0 0.5-0.2t0.2-0.5z m10.8 8.1v-4q0-0.3-0.2-0.5t-0.5-0.2h-6.8q-0.3 0-0.5 0.2t-0.1 0.5v4q0 0.3 0.1 0.5t0.5 0.2h6.8q0.3 0 0.5-0.2t0.2-0.5z m-10.8-16.2v-4q0-0.3-0.2-0.5t-0.5-0.2h-6.8q-0.3 0-0.5 0.2t-0.2 0.5v4q0 0.3 0.2 0.5t0.5 0.2h6.8q0.3 0 0.5-0.2t0.2-0.5z m10.8 8.1v-4q0-0.3-0.2-0.5t-0.5-0.2h-6.8q-0.3 0-0.5 0.2t-0.1 0.5v4q0 0.3 0.1 0.5t0.5 0.2h6.8q0.3 0 0.5-0.2t0.2-0.5z m0-8.1v-4q0-0.3-0.2-0.5t-0.5-0.2h-6.8q-0.3 0-0.5 0.2t-0.1 0.5v4q0 0.3 0.1 0.5t0.5 0.2h6.8q0.3 0 0.5-0.2t0.2-0.5z m2.7-6.7v22.9q0 1.4-1 2.4t-2.4 1h-28.4q-1.4 0-2.4-1t-1-2.4v-22.9q0-1.4 1-2.4t2.4-1h28.4q1.4 0 2.4 1t1 2.4z"></path></svg>