<?xml version="1.0"?><svg xmlns="http://www.w3.org/2000/svg" width="40" height="40" viewBox="0 0 40 40"><path d="m21.42857142857143 31.42857142857143q0-0.5799999999999983-0.4242857142857126-1.0042857142857144t-1.004285714285718-0.42428571428571615-1.0042857142857144 0.4242857142857126-0.4242857142857126 1.004285714285718 0.4242857142857126 1.0042857142857144 1.0042857142857144 0.42428571428571615 1.0042857142857144-0.42428571428571615 0.42428571428571615-1.0042857142857144z m8.57142857142857-3.571428571428573v-21.42857142857143q0-0.29000000000000004-0.21142857142856997-0.5028571428571427t-0.5028571428571453-0.21142857142856997h-18.571428571428573q-0.28999999999999915 0-0.5028571428571436 0.21142857142857174t-0.2114285714285682 0.5028571428571427v21.42857142857143q0 0.28999999999999915 0.21142857142857174 0.5028571428571418t0.5028571428571436 0.21142857142856997h18.571428571428573q0.28999999999999915 0 0.5028571428571418-0.21142857142856997t0.21142857142856997-0.5028571428571453z m2.857142857142854-21.42857142857143v24.285714285714285q0 1.4714285714285715-1.048571428571428 2.522857142857145t-2.5228571428571414 1.048571428571428h-18.571428571428573q-1.4714285714285715 0-2.522857142857143-1.048571428571428t-1.0485714285714254-2.5228571428571414v-24.285714285714285q0-1.4714285714285715 1.048571428571429-2.522857142857143t2.522857142857143-1.0485714285714303h18.571428571428573q1.4714285714285715 0 2.522857142857145 1.0485714285714285t1.048571428571428 2.522857142857143z"></path></svg>