<?xml version="1.0"?><svg viewBox="0 0 40 40" xmlns="http://www.w3.org/2000/svg" height="40" width="40"><path d="m6 25.1q0.7000000000000002-0.6000000000000014 0.7000000000000002-1.6000000000000014t-0.7000000000000002-1.5q-0.5999999999999996-0.6999999999999993-1.5999999999999996-0.6999999999999993t-1.5 0.6999999999999993q-0.7000000000000002 0.6000000000000014-0.7000000000000002 1.5t0.7000000000000002 1.6000000000000014q0.6000000000000001 0.6999999999999993 1.5 0.6999999999999993t1.5999999999999996-0.6999999999999993z m3.3000000000000007-7.800000000000001q0.6999999999999993-0.6000000000000014 0.6999999999999993-1.5t-0.6999999999999993-1.5999999999999996q-0.5999999999999996-0.6999999999999993-1.5-0.6999999999999993t-1.5999999999999996 0.6999999999999993q-0.5999999999999996 0.5999999999999996-0.5999999999999996 1.5999999999999996t0.5999999999999996 1.5q0.7000000000000002 0.6999999999999993 1.5999999999999996 0.6999999999999993t1.5-0.6999999999999993z m8.099999999999998 6.800000000000001l1.8000000000000007-6.600000000000001q0.10000000000000142-0.5-0.10000000000000142-0.8999999999999986t-0.6999999999999993-0.5q-0.3999999999999986-0.10000000000000142-0.8000000000000007 0.10000000000000142t-0.6000000000000014 0.6999999999999993l-1.6999999999999993 6.699999999999999q-1.0999999999999996 0-1.9000000000000004 0.6999999999999993t-1.099999999999996 1.6999999999999993q-0.3000000000000007 1.3999999999999986 0.40000000000000036 2.6000000000000014t2 1.5q1.299999999999999 0.3999999999999986 2.5000000000000018-0.3000000000000007t1.6000000000000014-2.1000000000000014q0.3000000000000007-1-0.10000000000000142-2t-1.3000000000000007-1.6000000000000014z m10.8 1q0.6999999999999993-0.6000000000000014 0.6999999999999993-1.6000000000000014t-0.6999999999999993-1.5q-0.6000000000000014-0.6999999999999993-1.5-0.6999999999999993t-1.6000000000000014 0.6999999999999993q-0.6999999999999993 0.6000000000000014-0.6999999999999993 1.5t0.6999999999999993 1.6000000000000014q0.6000000000000014 0.6999999999999993 1.6000000000000014 0.6999999999999993t1.5-0.6999999999999993z m-11.099999999999998-11.100000000000001q0.6999999999999993-0.6999999999999993 0.6999999999999993-1.5999999999999996t-0.6999999999999993-1.5q-0.6000000000000014-0.6999999999999993-1.5-0.6999999999999993t-1.5999999999999996 0.6999999999999993q-0.6999999999999993 0.5999999999999996-0.6999999999999993 1.5t0.6999999999999975 1.5999999999999996q0.5999999999999996 0.6999999999999993 1.5999999999999996 0.6999999999999993t1.5000000000000018-0.6999999999999993z m7.800000000000001 3.3000000000000007q0.6999999999999993-0.6000000000000014 0.6999999999999993-1.5t-0.6999999999999993-1.5999999999999996q-0.6000000000000014-0.6999999999999993-1.6000000000000014-0.6999999999999993t-1.5 0.6999999999999993q-0.6999999999999993 0.5999999999999996-0.6999999999999993 1.5999999999999996t0.6999999999999993 1.5q0.6000000000000014 0.6999999999999993 1.5 0.6999999999999993t1.6000000000000014-0.6999999999999993z m6.199999999999999 6.199999999999999q0 4.600000000000001-2.3999999999999986 8.399999999999999-0.3999999999999986 0.5-1 0.5h-24.300000000000004q-0.5999999999999988 0-0.9999999999999987-0.5-2.4-3.799999999999997-2.4-8.399999999999999 0-3.1000000000000014 1.2-6t3.3-5q2.0999999999999996-2 5-3.3000000000000007t6.1-1.1999999999999993q3.0999999999999996 0 6.000000000000002 1.1999999999999993t5 3.3000000000000007q2 2.0999999999999996 3.3000000000000007 5t1.1999999999999993 6z"></path></svg>