<?xml version="1.0"?><svg viewBox="0 0 40 40" xmlns="http://www.w3.org/2000/svg" height="40" width="40"><path d="m6 25.1q0.7-0.6 0.7-1.6t-0.7-1.5q-0.6-0.7-1.6-0.7t-1.5 0.7q-0.7 0.6-0.7 1.5t0.7 1.6q0.6 0.7 1.5 0.7t1.6-0.7z m3.3-7.8q0.7-0.6 0.7-1.5t-0.7-1.6q-0.6-0.7-1.5-0.7t-1.6 0.7q-0.6 0.6-0.6 1.6t0.6 1.5q0.7 0.7 1.6 0.7t1.5-0.7z m8.1 6.8l1.8-6.6q0.1-0.5-0.1-0.9t-0.7-0.5q-0.4-0.1-0.8 0.1t-0.6 0.7l-1.7 6.7q-1.1 0-1.9 0.7t-1.1 1.7q-0.3 1.4 0.4 2.6t2 1.5q1.3 0.4 2.5-0.3t1.6-2.1q0.3-1-0.1-2t-1.3-1.6z m10.8 1q0.7-0.6 0.7-1.6t-0.7-1.5q-0.6-0.7-1.5-0.7t-1.6 0.7q-0.7 0.6-0.7 1.5t0.7 1.6q0.6 0.7 1.6 0.7t1.5-0.7z m-11.1-11.1q0.7-0.7 0.7-1.6t-0.7-1.5q-0.6-0.7-1.5-0.7t-1.6 0.7q-0.7 0.6-0.7 1.5t0.7 1.6q0.6 0.7 1.6 0.7t1.5-0.7z m7.8 3.3q0.7-0.6 0.7-1.5t-0.7-1.6q-0.6-0.7-1.6-0.7t-1.5 0.7q-0.7 0.6-0.7 1.6t0.7 1.5q0.6 0.7 1.5 0.7t1.6-0.7z m6.2 6.2q0 4.6-2.4 8.4-0.4 0.5-1 0.5h-24.3q-0.6 0-1-0.5-2.4-3.8-2.4-8.4 0-3.1 1.2-6t3.3-5q2.1-2 5-3.3t6.1-1.2q3.1 0 6 1.2t5 3.3q2 2.1 3.3 5t1.2 6z"></path></svg>