<?xml version="1.0"?><svg viewBox="0 0 40 40" xmlns="http://www.w3.org/2000/svg" height="40" width="40"><path d="m9.2 24.3q0-1.1-0.8-1.9t-1.9-0.8-1.9 0.8-0.8 1.9 0.8 1.9 1.9 0.8 1.9-0.8 0.8-1.9z m4-9.4q0-1.2-0.7-2t-2-0.7-1.9 0.7-0.8 2 0.8 1.9 1.9 0.8 2-0.8 0.7-1.9z m9.1 10.1l2.1-8.1q0.1-0.5-0.1-1t-0.9-0.6-1 0.1-0.6 0.9l-2.1 8q-1.3 0.1-2.3 0.9t-1.3 2.1q-0.4 1.6 0.4 3.1t2.5 1.9 3-0.4 1.9-2.5q0.4-1.3-0.1-2.5t-1.5-1.9z m13.9-0.7q0-1.1-0.8-1.9t-1.9-0.8-1.9 0.8-0.8 1.9 0.8 1.9 1.9 0.8 1.9-0.8 0.8-1.9z m-13.5-13.5q0-1.1-0.8-1.9t-1.9-0.8-1.9 0.8-0.8 1.9 0.8 1.9 1.9 0.8 1.9-0.8 0.8-1.9z m9.5 4.1q0-1.2-0.8-2t-1.9-0.7-2 0.7-0.7 2 0.7 1.9 2 0.8 1.9-0.8 0.8-1.9z m6.7 9.4q0 5.5-3 10.2-0.4 0.6-1.1 0.6h-29.6q-0.7 0-1.1-0.6-3-4.7-3-10.2 0-3.8 1.5-7.3t4-6.1 6.1-4 7.3-1.5 7.3 1.5 6.1 4 4 6.1 1.5 7.3z"></path></svg>