<?xml version="1.0"?><svg xmlns="http://www.w3.org/2000/svg" width="40" height="40" viewBox="0 0 40 40"><path d="m12.857142857142858 10q0-1.1828571428571433-0.8371428571428563-2.0199999999999996t-2.0200000000000014-0.8371428571428572-2.0199999999999996 0.8371428571428572-0.8371428571428572 2.0199999999999996 0.8371428571428572 2.0199999999999996 2.0199999999999996 0.8371428571428581 2.0199999999999996-0.8371428571428563 0.8371428571428581-2.0200000000000014z m23.81714285714286 12.857142857142858q0 1.1828571428571415-0.8257142857142838 2.008571428571429l-10.96 10.982857142857146q-0.8714285714285701 0.8257142857142838-2.0314285714285703 0.8257142857142838-1.1828571428571415 0-2.008571428571429-0.8257142857142838l-15.960000000000004-15.982857142857146q-0.8485714285714288-0.8257142857142874-1.44-2.2542857142857144t-0.5914285714285707-2.611428571428572v-9.285714285714285q0-1.160000000000001 0.8485714285714283-2.0085714285714293t2.008571428571429-0.8485714285714288h9.285714285714285q1.1828571428571415 0 2.611428571428572 0.5914285714285712t2.277142857142856 1.4399999999999995l15.960000000000004 15.937142857142856q0.8257142857142838 0.8714285714285701 0.8257142857142838 2.0314285714285703z"></path></svg>