<?xml version="1.0"?><svg viewBox="0 0 40 40" xmlns="http://www.w3.org/2000/svg" height="40" width="40"><path d="m9.3 9.6q0-1.1-0.7-1.9t-1.9-0.8-1.9 0.8-0.8 1.9 0.8 1.9 1.9 0.7 1.9-0.7 0.7-1.9z m22.3 12q0 1.1-0.8 1.9l-10.2 10.2q-0.8 0.8-1.9 0.8-1.1 0-1.9-0.8l-14.9-14.9q-0.8-0.8-1.3-2.1t-0.6-2.5v-8.6q0-1.1 0.8-1.9t1.9-0.8h8.6q1.1 0 2.5 0.6t2.1 1.3l14.9 14.9q0.8 0.8 0.8 1.9z m8 0q0 1.1-0.8 1.9l-10.2 10.2q-0.8 0.8-1.9 0.8-0.8 0-1.3-0.3t-1.1-1l9.8-9.7q0.8-0.8 0.8-1.9 0-1.1-0.8-1.9l-14.9-14.9q-0.8-0.8-2.1-1.3t-2.4-0.6h4.6q1.1 0 2.5 0.6t2.1 1.3l14.9 14.9q0.8 0.8 0.8 1.9z"></path></svg>