<?xml version="1.0"?><svg xmlns="http://www.w3.org/2000/svg" width="40" height="40" viewBox="0 0 40 40"><path d="m22.857142857142858 31.42857142857143h14.285714285714288v-2.8571428571428577h-14.285714285714288v2.8571428571428577z m-8.571428571428571-11.42857142857143h22.85714285714286v-2.8571428571428577h-22.85714285714286v2.8571428571428577z m14.285714285714286-11.428571428571429h8.571428571428573v-2.8571428571428568h-8.57142857142857v2.8571428571428568z m11.428571428571427 18.571428571428577v5.714285714285715q0 0.5799999999999983-0.42428571428571615 1.0042857142857144t-1.0042857142857144 0.42428571428570905h-37.14285714285714q-0.5800000000000021 0-1.0042857142857162-0.42428571428571615t-0.4242857142857144-1.0042857142857073v-5.714285714285715q0-0.5799999999999983 0.42428571428571427-1.0042857142857144t1.0042857142857144-0.42428571428571615h37.142857142857146q0.5799999999999983 0 1.0042857142857144 0.4242857142857126t0.42428571428570905 1.0042857142857144z m0-11.428571428571429v5.7142857142857135q0 0.5799999999999983-0.42428571428571615 1.0042857142857144t-1.0042857142857144 0.4242857142857126h-37.14285714285714q-0.5800000000000021 0-1.0042857142857162-0.4242857142857126t-0.4242857142857144-1.0042857142857144v-5.714285714285715q0-0.5800000000000001 0.42428571428571427-1.0042857142857144t1.0042857142857144-0.4242857142857144h37.142857142857146q0.5799999999999983 0 1.0042857142857144 0.4242857142857144t0.42428571428570905 1.0042857142857144z m0-11.428571428571429v5.714285714285715q0 0.5800000000000001-0.42428571428571615 1.0042857142857144t-1.0042857142857144 0.4242857142857108h-37.14285714285714q-0.5800000000000021 0-1.0042857142857162-0.4242857142857144t-0.4242857142857144-1.0042857142857144v-5.714285714285714q0-0.5800000000000001 0.42428571428571427-1.0042857142857144t1.0042857142857144-0.42428571428571393h37.142857142857146q0.5799999999999983 0 1.0042857142857144 0.4242857142857144t0.42428571428570905 1.004285714285714z"></path></svg>