<?xml version="1.0"?><svg viewBox="0 0 40 40" xmlns="http://www.w3.org/2000/svg" height="40" width="40"><path d="m22.7 29.7h13.5v-2.7h-13.5v2.7z m-8.1-10.8h21.6v-2.7h-21.6v2.7z m13.5-10.8h8.1v-2.7h-8.1v2.7z m10.8 17.6v5.4q0 0.5-0.4 0.9t-0.9 0.4h-35.2q-0.5 0-0.9-0.4t-0.4-0.9v-5.4q0-0.6 0.4-1t0.9-0.4h35.2q0.5 0 0.9 0.4t0.4 1z m0-10.8v5.4q0 0.5-0.4 0.9t-0.9 0.4h-35.2q-0.5 0-0.9-0.4t-0.4-0.9v-5.4q0-0.6 0.4-1t0.9-0.4h35.2q0.5 0 0.9 0.4t0.4 1z m0-10.8v5.4q0 0.5-0.4 0.9t-0.9 0.4h-35.2q-0.5 0-0.9-0.4t-0.4-0.9v-5.4q0-0.6 0.4-1t0.9-0.4h35.2q0.5 0 0.9 0.4t0.4 1z"></path></svg>