<?xml version="1.0"?><svg viewBox="0 0 40 40" xmlns="http://www.w3.org/2000/svg" height="40" width="40"><path d="m31.7 19.1q1.5999999999999979 0 2.6999999999999993 1.1000000000000014t1.2000000000000028 2.8000000000000007v6.699999999999999q0 0.1999999999999993-0.20000000000000284 0.3999999999999986t-0.3999999999999986 0.10000000000000142h-1.7000000000000028v1.1000000000000014q0 1.3999999999999986-0.8999999999999986 2.3999999999999986t-2.3999999999999986 1q-1.3999999999999986 0-2.3999999999999986-1t-0.8999999999999986-2.3999999999999986v-1.1000000000000014h-17.800000000000004v1.1000000000000014q1.7763568394002505e-15 1.3999999999999986-0.9999999999999982 2.3999999999999986t-2.3 1q-1.3999999999999995 0-2.4-1t-1-2.3999999999999986v-1.1000000000000014h-1.6000000000000005q-0.3000000000000001 0-0.40000000000000013-0.10000000000000142t-0.2-0.3999999999999986v-6.700000000000003q0-1.6000000000000014 1.1-2.8000000000000007t2.8-1.1000000000000014h0.5000000000000004l1.7999999999999998-7.300000000000001q0.40000000000000036-1.5999999999999996 1.7999999999999998-2.6999999999999993t3.0999999999999996-1.0999999999999979h2.200000000000001v-3.9000000000000004q0-0.20000000000000018 0.1999999999999993-0.3999999999999999t0.40000000000000036-0.20000000000000018h7.799999999999999q0.1999999999999993 0 0.3999999999999986 0.20000000000000018t0.10000000000000142 0.3999999999999999v3.9000000000000004h2.1999999999999993q1.6999999999999993 0 3.1999999999999993 1.0999999999999996t1.8000000000000007 2.700000000000001l1.8000000000000007 7.300000000000001h0.5z m-28.099999999999998 7.5q0.7999999999999989 0.8000000000000007 1.9999999999999982 0.8000000000000007t1.9000000000000004-0.8000000000000007q0.8000000000000007-0.8000000000000007 0.8000000000000007-1.8999999999999986t-0.7999999999999998-2q-0.7999999999999998-0.8000000000000007-1.8999999999999995-0.8000000000000007t-2 0.8000000000000007q-0.7999999999999998 0.8000000000000007-0.7999999999999998 2t0.7999999999999998 1.8999999999999986z m5.399999999999999-7.5h17.6l-1.5-6.199999999999999q-0.10000000000000142-0.09999999999999964-0.3000000000000007-0.3000000000000007t-0.3999999999999986-0.1999999999999993h-13.300000000000002q-0.09999999999999964 0-0.40000000000000036 0.1999999999999993t-0.1999999999999993 0.3000000000000007l-1.5 6.199999999999999z m19 7.5q0.8999999999999986 0.8000000000000007 2 0.8000000000000007t2-0.8000000000000007q0.7999999999999972-0.8000000000000007 0.7999999999999972-1.8999999999999986t-0.8000000000000007-2q-0.8999999999999986-0.8000000000000007-2-0.8000000000000007t-2 0.8000000000000007q-0.8000000000000007 0.8000000000000007-0.8000000000000007 2t0.8000000000000007 1.8999999999999986z"></path></svg>