<?xml version="1.0"?><svg viewBox="0 0 40 40" xmlns="http://www.w3.org/2000/svg" height="40" width="40"><path d="m1.4 5.8l0.9 0.4q0.3 0.1 3.7 0.1 0.8 0 2.3 0t2.3 0q1.2 0 4.3-0.1t5.3 0q2.2 0 4.2 0.1 0.6 0 1-0.5l0.7 0q0.1 0 0.3 0t0.2 0q0.1 1.9 0.1 5.8 0 1.4-0.1 1.9-0.7 0.2-1.2 0.3-0.4-0.7-0.9-2.2-0.1-0.2-0.2-0.8t-0.3-1.3q-0.1-0.6-0.1-0.6-0.2-0.3-0.5-0.4-0.1 0-1.1 0-0.5 0-1.6 0t-1.8 0q-0.7 0-1.7 0t-1.6 0.1q-0.2 1.4-0.2 2.4l0.1 2.6v-0.9q0 1 0 2.7t0 3.1q0 1.4 0 2.7 0 0.3 0 1.2t0 1.6q0 0.6 0.2 1.2 0.7 0.4 2.1 0.7t2.1 0.7q0.1 0.7 0.1 0.9 0 0.2-0.1 0.5l-0.5 0q-1.4 0-3.8-0.2t-3.6-0.1q-0.9 0-2.6 0.1t-2.7 0.2q0-0.9 0-0.9v-0.2q0.3-0.4 1-0.7t1.7-0.5q1-0.2 1.4-0.5 0.1-0.3 0.2-1.3t0.1-2.5q0-1.5 0-2.7t0-2.7q0-1.5 0-1.5 0-0.1 0-0.4t-0.1-0.4q0-0.1 0-0.7t0.1-1.3q0-0.6 0-1.3t-0.1-1.2q0-0.5-0.1-0.6-0.2-0.2-2.8-0.2-0.7 0-2.9 0.3t-2.4 0.4q-0.3 0.2-0.5 1.2t-0.6 2q-0.3 0.9-0.7 0.9-0.8-0.4-1-0.8v-6.6l1.4 0z m21.3 22.2q0.3 0 0.8 0.4t1 0.7q0.4 0.4 1 0.8t0.6 0.6q0.5 0.3 0.5 0.8t-0.5 0.9q0 0-0.6 0.5t-1 0.8q-0.5 0.4-1 0.8t-0.8 0.3q-0.2 0-0.3-0.2t-0.2-0.5q0-0.3 0-0.6t0-0.5q0-0.3 0-0.4h-17.8q0 0.1 0.1 0.4t0 0.5q0 0.3 0 0.6t-0.2 0.5q-0.2 0.2-0.4 0.2-0.2 0-0.7-0.3t-1-0.8q-0.5-0.3-1-0.8t-0.7-0.5q-0.4-0.4-0.4-0.9t0.4-0.8q0.1-0.1 0.7-0.6t1-0.8q0.5-0.4 1-0.7t0.7-0.4q0.2 0 0.4 0.2t0.2 0.5q0 0.3 0 0.6t0 0.6q-0.1 0.3-0.1 0.3h17.8q0 0 0-0.3t0-0.6q0-0.3 0-0.6t0.2-0.5q0.1-0.2 0.3-0.2z"></path></svg>