<?xml version="1.0"?><svg xmlns="http://www.w3.org/2000/svg" width="40" height="40" viewBox="0 0 40 40"><path d="m4.6657142857142855 2.88l1.2057142857142855 0.6028571428571428q0.2671428571428569 0.11142857142857165 4.71 0.11142857142857165 0.9828571428571422 0 2.9471428571428575-0.042857142857142705t2.9471428571428575-0.04571428571428582q1.562857142857144 0 5.502857142857142-0.022857142857142687t6.797142857142859-0.011428571428571566 5.5142857142857125 0.10000000000000009q0.7357142857142875 0.022857142857142687 1.2485714285714309-0.6914285714285713l0.9371428571428595-0.02285714285714313q0.09000000000000341 0 0.3142857142857167 0.011428571428571566t0.3114285714285714 0.011428571428571566q0.04571428571428271 2.5000000000000004 0.04571428571428271 7.5 0 1.7857142857142865-0.11142857142856855 2.4328571428571433-0.8714285714285737 0.3114285714285714-1.5171428571428578 0.40000000000000036-0.5571428571428569-0.9828571428571422-1.2057142857142864-2.8571428571428577-0.06714285714285495-0.1999999999999993-0.24571428571428555-1.0600000000000005t-0.33428571428571274-1.6399999999999997-0.15714285714285836-0.8028571428571434q-0.22142857142856798-0.29000000000000004-0.6000000000000014-0.4242857142857144-0.11428571428571388-0.042857142857142705-1.4742857142857133-0.042857142857142705-0.6714285714285708 0-2.0757142857142874-0.02285714285714313t-2.3000000000000007-0.02285714285714313-2.097142857142856 0.042857142857142705-2.1428571428571423 0.15714285714285747q-0.20285714285714462 1.8085714285714287-0.17999999999999972 3.0357142857142856l0.022857142857141355 3.3928571428571423v-1.1600000000000001q0 1.2285714285714295 0.022857142857141355 3.4371428571428577t0.03285714285714292 4.017142857142858 0.010000000000001563 3.4142857142857146q0 0.35714285714285765-0.05714285714285694 1.597142857142856t0 2.042857142857141 0.28000000000000114 1.5399999999999991q0.8928571428571423 0.46857142857142975 2.767142857142858 0.9485714285714302t2.678571428571427 0.8371428571428581q0.1114285714285721 0.8928571428571423 0.1114285714285721 1.1142857142857139 0 0.31428571428571317-0.0671428571428585 0.6485714285714295l-0.7571428571428562 0.022857142857141355q-1.6999999999999993 0.04285714285714448-4.867142857142856-0.17857142857142705t-4.62142857142857-0.2228571428571442q-1.1142857142857139 0-3.371428571428572 0.1999999999999993t-3.387142857142864 0.2014285714285755l-0.06571428571428584-1.1571428571428584v-0.20285714285714107q0.3800000000000008-0.6028571428571432 1.3714285714285719-0.9600000000000009t2.200000000000001-0.6471428571428568 1.7428571428571438-0.6028571428571432q0.15428571428571303-0.35714285714285765 0.25714285714285623-1.6499999999999986t0.13285714285714434-3.247142857142858 0.03285714285714292-3.460000000000001-0.011428571428570677-3.4257142857142853-0.011428571428570677-1.9857142857142858q0-0.15714285714285658-0.05714285714285694-0.4814285714285713t-0.05428571428571516-0.5028571428571436q0-0.15714285714285658 0.011428571428570677-0.9828571428571422t0.022857142857141355-1.6285714285714281 0-1.7085714285714282-0.0671428571428585-1.508571428571429-0.14571428571428413-0.7142857142857144q-0.24285714285714377-0.2671428571428569-3.614285714285714-0.2671428571428569-0.9142857142857146 0-3.638571428571428 0.2999999999999998t-3.08 0.5485714285714289q-0.4242857142857144 0.2685714285714287-0.7571428571428571 1.5971428571428579t-0.7100000000000017 2.487142857142855-0.9485714285714284 1.2057142857142864q-0.9371428571428573-0.5800000000000001-1.25-0.9828571428571422v-8.548571428571432z m27.432857142857138 28.614285714285717q0.2657142857142887 0 0.9357142857142833 0.43714285714285595t1.2828571428571465 0.9257142857142888 1.3285714285714292 1.0942857142857179 0.8028571428571425 0.6714285714285708q0.5799999999999983 0.46714285714286063 0.5799999999999983 1.0928571428571416t-0.5785714285714292 1.095714285714287q-0.09000000000000341 0.06714285714285495-0.8028571428571425 0.6714285714285708t-1.3285714285714292 1.0928571428571416-1.2828571428571465 0.9257142857142853-0.9371428571428595 0.4357142857142833q-0.2914285714285718 0-0.4571428571428555-0.23428571428571132t-0.2242857142857133-0.634285714285717-0.05714285714285694-0.7471428571428547 0.034285714285715585-0.7371428571428567 0.03285714285714292-0.4357142857142833h-22.855714285714278q-1.7763568394002505e-15 0.04285714285714448 0.03285714285714114 0.4357142857142833t0.03285714285714292 0.7371428571428567-0.05714285714285694 0.7471428571428547-0.22142857142857153 0.6357142857142861-0.4571428571428573 0.23571428571428754q-0.265714285714286 0-0.9357142857142859-0.4357142857142833t-1.282857142857143-0.9257142857142853-1.3285714285714283-1.0942857142857179-0.8028571428571429-0.6714285714285708q-0.5799999999999996-0.46999999999999886-0.5799999999999996-1.095714285714294t0.5785714285714287-1.0928571428571416q0.08999999999999986-0.06714285714285495 0.8028571428571429-0.6714285714285708t1.3285714285714292-1.0928571428571416 1.282857142857143-0.9257142857142853 0.9371428571428568-0.43571428571428683q0.2914285714285709 0 0.4571428571428564 0.23428571428571487t0.2242857142857151 0.6371428571428552 0.05714285714285694 0.7471428571428547-0.03428571428571381 0.7357142857142875-0.034285714285715585 0.43285714285714505h22.85714285714286q0-0.04285714285714448-0.03285714285714292-0.4357142857142833t-0.03285714285714292-0.7371428571428567 0.05714285714285694-0.7485714285714309 0.22142857142857153-0.6357142857142861 0.45714285714285907-0.2328571428571422z"></path></svg>