<?xml version="1.0"?><svg xmlns="http://www.w3.org/2000/svg" width="40" height="40" viewBox="0 0 40 40"><path d="m38.92857142857143 31.42857142857143q0.7371428571428567 0 0.9371428571428595 0.4142857142857146t-0.24571428571428555 0.9914285714285747l-2.8142857142857167 3.614285714285714q-0.4457142857142884 0.5814285714285745-1.0928571428571416 0.5814285714285745t-1.095714285714287-0.5785714285714292l-2.814285714285713-3.614285714285714q-0.44571428571428484-0.5814285714285745-0.24285714285714377-0.9942857142857129t0.9357142857142833-0.4142857142857146h1.7857142857142847v-22.85714285714287h-1.7857142857142847q-0.7371428571428567 1.7763568394002505e-15-0.937142857142856-0.4142857142857128t0.24571428571428555-0.9914285714285711l2.814285714285713-3.614285714285714q0.4457142857142884-0.5814285714285714 1.0928571428571416-0.5814285714285714t1.0928571428571416 0.5785714285714287l2.8142857142857167 3.614285714285714q0.4457142857142884 0.5814285714285718 0.24285714285714022 0.9942857142857138t-0.9328571428571379 0.4142857142857146h-1.7857142857142847v22.85714285714286h1.7857142857142847z m-37.120000000000005-28.54857142857143l1.2057142857142882 0.6028571428571436q0.2671428571428569 0.11142857142857165 4.71 0.11142857142857165 0.9828571428571431 0 2.9471428571428566-0.042857142857142705t2.9471428571428575-0.04571428571428582q0.8028571428571425 0 2.3999999999999986 0.011428571428571566t2.3999999999999986 0.011428571428571566h6.539999999999999q0.13571428571428612 0 0.47142857142857153 0.011428571428571566t0.4571428571428555 0 0.35714285714285765-0.06714285714285717 0.3885714285714279-0.20000000000000018 0.33428571428571274-0.3900000000000001l0.9357142857142939-0.0257142857142858q0.08999999999999986 0 0.31428571428571317 0.014285714285714235t0.3114285714285714 0.009999999999999787q0.04285714285714448 2.5000000000000004 0.04285714285714448 7.5 0 1.7857142857142865-0.10999999999999943 2.4328571428571433-0.8714285714285701 0.31428571428571495-1.5171428571428578 0.40000000000000036-0.5571428571428569-0.9814285714285713-1.2042857142857137-2.8571428571428577-0.0671428571428585-0.1999999999999993-0.24571428571428555-1.0714285714285712t-0.32428571428571473-1.6385714285714288-0.16714285714285637-0.7928571428571427q-0.13285714285714434-0.17857142857142883-0.2657142857142851-0.27857142857142847t-0.345714285714287-0.13428571428571434-0.28999999999999915-0.05714285714285694-0.4028571428571439-0.011428571428571566-0.36857142857142833 0.011428571428571566q-0.379999999999999 0-1.485714285714284-0.011428571428571566t-1.6614285714285728-0.011428571428571566-1.428571428571427 0.042857142857142705-1.5857142857142854 0.13571428571428612q-0.1999999999999993 1.807142857142857-0.17714285714285793 3.034285714285714 0 2.0999999999999996 0.04285714285714448 8.66t0.04571428571428626 10.157142857142858q0 0.35714285714285765-0.05714285714285694 1.5942857142857143t0 2.0428571428571445 0.28000000000000114 1.5399999999999991q0.894285714285715 0.46857142857142975 2.768571428571427 0.9485714285714266t2.6785714285714306 0.8371428571428581q0.1114285714285721 0.8928571428571459 0.1114285714285721 1.1142857142857139 0 0.3142857142857167-0.06571428571428584 0.6485714285714295l-0.7571428571428562 0.022857142857141355q-1.6999999999999993 0.04285714285714448-4.867142857142859-0.1785714285714306t-4.620000000000001-0.2228571428571442q-1.1142857142857139 0-3.371428571428572 0.20000000000000284t-3.3942857142857195 0.2042857142857173l-0.07142857142857117-1.1571428571428584v-0.20285714285714107q0.3799999999999999-0.6028571428571396 1.371428571428571-0.9600000000000009t2.1999999999999993-0.6471428571428604 1.7428571428571438-0.6028571428571396q0.4228571428571435-0.9357142857142833 0.4228571428571435-8.547142857142859 0-2.2542857142857144-0.06714285714285673-6.762857142857143t-0.06285714285714405-6.762857142857142v-2.6142857142857157q0-0.042857142857142705 0.011428571428570677-0.3428571428571434t0.011428571428570677-0.5600000000000005-0.02285714285714313-0.5685714285714285-0.06714285714285673-0.5357142857142856-0.1114285714285721-0.31428571428571406q-0.24714285714285644-0.265714285714286-3.6171428571428574-0.265714285714286-0.7371428571428575 0-2.0757142857142856 0.265714285714286t-1.7857142857142856 0.5800000000000001q-0.4242857142857144 0.29000000000000004-0.7571428571428571 1.6185714285714292t-0.7071428571428546 2.4800000000000004-0.9485714285714286 1.192857142857143q-0.9342857142857144-0.5785714285714292-1.2471428571428573-0.982857142857144v-8.548571428571428z"></path></svg>