<?xml version="1.0"?><svg viewBox="0 0 40 40" xmlns="http://www.w3.org/2000/svg" height="40" width="40"><path d="m18.6 21.6v8.1q0 1.1-0.8 1.9t-1.9 0.8h-10.8q-1 0-1.9-0.8t-0.8-1.9v-8.1q0-1.1 0.8-1.9t1.9-0.8h10.8q1.1 0 1.9 0.8t0.8 1.9z m0-16.2v8.1q0 1.1-0.8 1.9t-1.9 0.8h-10.8q-1 0-1.9-0.8t-0.8-1.9v-8.1q0-1.1 0.8-1.9t1.9-0.8h10.8q1.1 0 1.9 0.8t0.8 1.9z m19 16.2v8.1q0 1.1-0.8 1.9t-1.9 0.8h-10.8q-1.1 0-1.9-0.8t-0.8-1.9v-8.1q0-1.1 0.8-1.9t1.9-0.8h10.8q1 0 1.9 0.8t0.8 1.9z m0-16.2v8.1q0 1.1-0.8 1.9t-1.9 0.8h-10.8q-1.1 0-1.9-0.8t-0.8-1.9v-8.1q0-1.1 0.8-1.9t1.9-0.8h10.8q1 0 1.9 0.8t0.8 1.9z"></path></svg>