<?xml version="1.0"?><svg viewBox="0 0 40 40" xmlns="http://www.w3.org/2000/svg" height="40" width="40"><path d="m11.9 26.3v4.1q0 0.8-0.6 1.4t-1.4 0.6h-6.8q-0.8 0-1.4-0.6t-0.6-1.4v-4.1q0-0.8 0.6-1.4t1.4-0.6h6.8q0.8 0 1.4 0.6t0.6 1.4z m0-10.8v4.1q0 0.8-0.6 1.4t-1.4 0.6h-6.8q-0.8 0-1.4-0.6t-0.6-1.4v-4.1q0-0.8 0.6-1.4t1.4-0.6h6.8q0.8 0 1.4 0.6t0.6 1.4z m27 10.8v4.1q0 0.8-0.6 1.4t-1.4 0.6h-20.3q-0.8 0-1.4-0.6t-0.6-1.4v-4.1q0-0.8 0.6-1.4t1.4-0.6h20.3q0.8 0 1.4 0.6t0.6 1.4z m-27-21.6v4.1q0 0.8-0.6 1.4t-1.4 0.6h-6.8q-0.8 0-1.4-0.6t-0.6-1.4v-4.1q0-0.8 0.6-1.4t1.4-0.6h6.8q0.8 0 1.4 0.6t0.6 1.4z m27 10.8v4.1q0 0.8-0.6 1.4t-1.4 0.6h-20.3q-0.8 0-1.4-0.6t-0.6-1.4v-4.1q0-0.8 0.6-1.4t1.4-0.6h20.3q0.8 0 1.4 0.6t0.6 1.4z m0-10.8v4.1q0 0.8-0.6 1.4t-1.4 0.6h-20.3q-0.8 0-1.4-0.6t-0.6-1.4v-4.1q0-0.8 0.6-1.4t1.4-0.6h20.3q0.8 0 1.4 0.6t0.6 1.4z"></path></svg>