<?xml version="1.0"?><svg xmlns="http://www.w3.org/2000/svg" width="40" height="40" viewBox="0 0 40 40"><path fill="#444" d="m18.6 22.9v8.5q0 1.2-0.8 2t-2 0.9h-11.4q-1.2 0-2.1-0.9t-0.8-2v-8.5q0-1.2 0.8-2.1t2.1-0.8h11.4q1.1 0 2 0.8t0.8 2.1z m0-17.2v8.6q0 1.1-0.8 2t-2 0.8h-11.4q-1.2 0-2.1-0.8t-0.8-2v-8.6q0-1.1 0.8-2t2.1-0.8h11.4q1.1 0 2 0.8t0.8 2z m20 17.2v8.5q0 1.2-0.8 2t-2 0.9h-11.4q-1.2 0-2.1-0.9t-0.8-2v-8.5q0-1.2 0.8-2.1t2.1-0.8h11.4q1.1 0 2 0.8t0.8 2.1z m0-17.2v8.6q0 1.1-0.8 2t-2 0.8h-11.4q-1.2 0-2.1-0.8t-0.8-2v-8.6q0-1.1 0.8-2t2.1-0.8h11.4q1.1 0 2 0.8t0.8 2z"></path></svg>