<?xml version="1.0"?><svg viewBox="0 0 40 40" xmlns="http://www.w3.org/2000/svg" height="40" width="40"><path d="m13.3 21.3v6.7q0 0.9-0.6 1.5t-1.6 0.7h-8.9q-0.9 0-1.5-0.7t-0.7-1.5v-6.7q0-0.9 0.7-1.5t1.5-0.7h8.9q0.9 0 1.6 0.7t0.6 1.5z m0-13.3v6.7q0 0.9-0.6 1.5t-1.6 0.7h-8.9q-0.9 0-1.5-0.7t-0.7-1.5v-6.7q0-0.9 0.7-1.6t1.5-0.6h8.9q0.9 0 1.6 0.6t0.6 1.6z m15.6 13.3v6.7q0 0.9-0.7 1.5t-1.5 0.7h-8.9q-0.9 0-1.6-0.7t-0.6-1.5v-6.7q0-0.9 0.6-1.5t1.6-0.7h8.9q0.9 0 1.5 0.7t0.7 1.5z m0-13.3v6.7q0 0.9-0.7 1.5t-1.5 0.7h-8.9q-0.9 0-1.6-0.7t-0.6-1.5v-6.7q0-0.9 0.6-1.6t1.6-0.6h8.9q0.9 0 1.5 0.6t0.7 1.6z"></path></svg>