<?xml version="1.0"?><svg xmlns="http://www.w3.org/2000/svg" width="40" height="40" viewBox="0 0 40 40"><path d="m18.571428571428573 22.857142857142858v8.571428571428573q0 1.1599999999999966-0.8485714285714288 2.008571428571429t-2.008571428571429 0.8485714285714252h-11.42857142857143q-1.1599999999999993 0-2.0085714285714276-0.8485714285714252t-0.8485714285714285-2.008571428571429v-8.57142857142857q0-1.1600000000000001 0.8485714285714285-2.008571428571429t2.0085714285714285-0.8485714285714323h11.42857142857143q1.1600000000000001 0 2.008571428571429 0.8485714285714288t0.8485714285714288 2.008571428571429z m0-17.142857142857142v8.571428571428571q0 1.1600000000000001-0.8485714285714288 2.008571428571427t-2.008571428571429 0.8485714285714288h-11.42857142857143q-1.1599999999999993 0-2.0085714285714276-0.8485714285714288t-0.8485714285714285-2.008571428571427v-8.571428571428573q0-1.1599999999999993 0.8485714285714285-2.0085714285714276t2.0085714285714285-0.8485714285714288h11.42857142857143q1.1600000000000001 0 2.008571428571429 0.8485714285714283t0.8485714285714288 2.008571428571429z m19.999999999999996 17.142857142857142v8.571428571428573q0 1.1599999999999966-0.8485714285714252 2.008571428571429t-2.008571428571429 0.8485714285714252h-11.42857142857143q-1.1600000000000001 0-2.008571428571429-0.8485714285714252t-0.8485714285714252-2.008571428571429v-8.57142857142857q0-1.1600000000000001 0.8485714285714288-2.008571428571429t2.0085714285714253-0.8485714285714323h11.42857142857143q1.1600000000000037 0 2.008571428571429 0.8485714285714288t0.8485714285714252 2.008571428571429z m0-17.142857142857142v8.571428571428571q0 1.1600000000000001-0.8485714285714252 2.008571428571427t-2.008571428571429 0.8485714285714288h-11.42857142857143q-1.1600000000000001 0-2.008571428571429-0.8485714285714288t-0.8485714285714252-2.008571428571427v-8.571428571428573q0-1.1599999999999993 0.8485714285714288-2.0085714285714276t2.0085714285714253-0.8485714285714288h11.42857142857143q1.1600000000000037 0 2.008571428571429 0.8485714285714283t0.8485714285714252 2.008571428571429z"></path></svg>