<?xml version="1.0"?><svg xmlns="http://www.w3.org/2000/svg" width="40" height="40" viewBox="0 0 40 40"><path fill="#444" d="m11.4 27.9v4.2q0 0.9-0.6 1.6t-1.5 0.6h-7.2q-0.9 0-1.5-0.6t-0.6-1.6v-4.2q0-0.9 0.6-1.6t1.5-0.6h7.2q0.9 0 1.5 0.6t0.6 1.6z m0-11.5v4.3q0 0.9-0.6 1.5t-1.5 0.7h-7.2q-0.9 0-1.5-0.7t-0.6-1.5v-4.3q0-0.9 0.6-1.5t1.5-0.6h7.2q0.9 0 1.5 0.6t0.6 1.5z m14.3 11.5v4.2q0 0.9-0.6 1.6t-1.5 0.6h-7.2q-0.9 0-1.5-0.6t-0.6-1.6v-4.2q0-0.9 0.6-1.6t1.5-0.6h7.2q0.9 0 1.5 0.6t0.6 1.6z m-14.3-22.9v4.3q0 0.9-0.6 1.5t-1.5 0.6h-7.2q-0.9 0-1.5-0.6t-0.6-1.5v-4.3q0-0.9 0.6-1.5t1.5-0.6h7.2q0.9 0 1.5 0.6t0.6 1.5z m14.3 11.4v4.3q0 0.9-0.6 1.5t-1.5 0.7h-7.2q-0.9 0-1.5-0.7t-0.6-1.5v-4.3q0-0.9 0.6-1.5t1.5-0.6h7.2q0.9 0 1.5 0.6t0.6 1.5z m14.3 11.5v4.2q0 0.9-0.6 1.6t-1.5 0.6h-7.2q-0.9 0-1.5-0.6t-0.6-1.6v-4.2q0-0.9 0.6-1.6t1.5-0.6h7.2q0.9 0 1.5 0.6t0.6 1.6z m-14.3-22.9v4.3q0 0.9-0.6 1.5t-1.5 0.6h-7.2q-0.9 0-1.5-0.6t-0.6-1.5v-4.3q0-0.9 0.6-1.5t1.5-0.6h7.2q0.9 0 1.5 0.6t0.6 1.5z m14.3 11.4v4.3q0 0.9-0.6 1.5t-1.5 0.7h-7.2q-0.9 0-1.5-0.7t-0.6-1.5v-4.3q0-0.9 0.6-1.5t1.5-0.6h7.2q0.9 0 1.5 0.6t0.6 1.5z m0-11.4v4.3q0 0.9-0.6 1.5t-1.5 0.6h-7.2q-0.9 0-1.5-0.6t-0.6-1.5v-4.3q0-0.9 0.6-1.5t1.5-0.6h7.2q0.9 0 1.5 0.6t0.6 1.5z"></path></svg>