<?xml version="1.0"?><svg viewBox="0 0 40 40" xmlns="http://www.w3.org/2000/svg" height="40" width="40"><path d="m8.9 25.2v3.3q0 0.7-0.5 1.2t-1.2 0.5h-5.5q-0.7 0-1.2-0.5t-0.5-1.2v-3.3q0-0.7 0.5-1.2t1.2-0.5h5.5q0.7 0 1.2 0.5t0.5 1.2z m0-8.9v3.4q0 0.6-0.5 1.1t-1.2 0.5h-5.5q-0.7 0-1.2-0.5t-0.5-1.1v-3.4q0-0.7 0.5-1.2t1.2-0.4h5.5q0.7 0 1.2 0.4t0.5 1.2z m11.1 8.9v3.3q0 0.7-0.5 1.2t-1.2 0.5h-5.5q-0.7 0-1.2-0.5t-0.5-1.2v-3.3q0-0.7 0.5-1.2t1.2-0.5h5.5q0.7 0 1.2 0.5t0.5 1.2z m-11.1-17.8v3.4q0 0.7-0.5 1.1t-1.2 0.5h-5.5q-0.7 0-1.2-0.5t-0.5-1.1v-3.4q0-0.7 0.5-1.2t1.2-0.4h5.5q0.7 0 1.2 0.4t0.5 1.2z m11.1 8.9v3.4q0 0.6-0.5 1.1t-1.2 0.5h-5.5q-0.7 0-1.2-0.5t-0.5-1.1v-3.4q0-0.7 0.5-1.2t1.2-0.4h5.5q0.7 0 1.2 0.4t0.5 1.2z m11.1 8.9v3.3q0 0.7-0.5 1.2t-1.2 0.5h-5.5q-0.7 0-1.2-0.5t-0.5-1.2v-3.3q0-0.7 0.5-1.2t1.2-0.5h5.5q0.7 0 1.2 0.5t0.5 1.2z m-11.1-17.8v3.4q0 0.7-0.5 1.1t-1.2 0.5h-5.5q-0.7 0-1.2-0.5t-0.5-1.1v-3.4q0-0.7 0.5-1.2t1.2-0.4h5.5q0.7 0 1.2 0.4t0.5 1.2z m11.1 8.9v3.4q0 0.6-0.5 1.1t-1.2 0.5h-5.5q-0.7 0-1.2-0.5t-0.5-1.1v-3.4q0-0.7 0.5-1.2t1.2-0.4h5.5q0.7 0 1.2 0.4t0.5 1.2z m0-8.9v3.4q0 0.7-0.5 1.1t-1.2 0.5h-5.5q-0.7 0-1.2-0.5t-0.5-1.1v-3.4q0-0.7 0.5-1.2t1.2-0.4h5.5q0.7 0 1.2 0.4t0.5 1.2z"></path></svg>