<?xml version="1.0"?><svg xmlns="http://www.w3.org/2000/svg" width="40" height="40" viewBox="0 0 40 40"><path d="m8.571428571428571 10q0-0.5800000000000001-0.4242857142857144-1.0042857142857144t-1.0042857142857136-0.4242857142857144-1.0042857142857144 0.4242857142857144-0.4242857142857144 1.0042857142857144 0.4242857142857144 1.0042857142857144 1.0042857142857144 0.4242857142857144 1.0042857142857136-0.4242857142857144 0.4242857142857144-1.0042857142857144z m25.714285714285715 12.857142857142858q0-0.7814285714285703-0.4799999999999969-1.8085714285714296t-1.1942857142857193-1.048571428571428q0.33428571428571274-0.379999999999999 0.5571428571428569-1.0599999999999987t0.2242857142857133-1.2385714285714293q0-1.53857142857143-1.182857142857145-2.654285714285715 0.3999999999999986-0.7142857142857135 0.3999999999999986-1.540000000000001t-0.38857142857143145-1.6400000000000006-1.0599999999999987-1.1714285714285708q0.1114285714285721-0.6714285714285708 0.1114285714285721-1.25 0-1.895714285714286-1.0928571428571416-2.8114285714285714t-3.0371428571428503-0.9171428571428564h-2.8571428571428577q-2.924285714285716 0-7.634285714285717 1.6285714285714281-0.1114285714285721 0.042857142857142705-0.6471428571428568 0.234285714285714t-0.7928571428571427 0.27857142857142847-0.781428571428572 0.2571428571428571-0.8471428571428579 0.24714285714285644-0.7371428571428567 0.1457142857142859-0.6999999999999993 0.06714285714285673h-0.7171428571428535v14.285714285714285h0.7142857142857135q0.35714285714285765 0 0.7914285714285718 0.1999999999999993t0.8928571428571423 0.6042857142857159 0.8571428571428577 0.7928571428571445 0.894285714285715 0.9828571428571422 0.7714285714285722 0.9485714285714302 0.6999999999999993 0.9142857142857146 0.514285714285716 0.6714285714285708q1.2285714285714278 1.5171428571428578 1.7185714285714297 2.0314285714285703 0.9142857142857146 0.9600000000000009 1.3285714285714292 2.4428571428571466t0.6799999999999997 2.8028571428571425 0.8485714285714288 1.8971428571428604q2.1428571428571423 0 2.8571428571428577-1.048571428571428t0.7142857142857153-3.2371428571428567q0-1.3171428571428585-1.071428571428573-3.5828571428571436t-1.071428571428573-3.5599999999999987h7.859999999999999q1.1142857142857139 0 1.9857142857142875-0.8599999999999994t0.8714285714285737-1.9971428571428582z m2.857142857142854 0.022857142857141355q0 2.3000000000000007-1.6971428571428575 3.9957142857142856t-4.017142857142851 1.6957142857142884h-3.9285714285714306q1.071428571428573 2.2114285714285735 1.071428571428573 4.285714285714288 0 2.635714285714286-0.7814285714285703 4.152857142857144-0.7814285714285703 1.5399999999999991-2.277142857142856 2.2657142857142887t-3.3700000000000045 0.7242857142857062q-1.138571428571428 0-2.008571428571429-0.8242857142857147-0.7571428571428562-0.7371428571428567-1.2057142857142864-1.8285714285714292t-0.5685714285714276-2.0214285714285722-0.39000000000000057-1.8857142857142861-0.6928571428571431-1.4285714285714306q-1.071428571428573-1.1142857142857139-2.388571428571428-2.8342857142857127-2.2542857142857144-2.924285714285716-3.057142857142857-3.460000000000001h-6.1171428571428565q-1.1814285714285715 0-2.0185714285714287-0.8371428571428581t-0.8385714285714285-2.019999999999996v-14.285714285714286q0-1.1828571428571433 0.8385714285714285-2.0199999999999996t2.0185714285714287-0.8371428571428563h6.428571428571428q0.492857142857142 0 3.081428571428571-0.8928571428571432 2.8571428571428577-0.9828571428571427 4.977142857142859-1.4714285714285715t4.465714285714284-0.4957142857142851h2.5q3.1257142857142846 0 5.057142857142857 1.762857142857143t1.9042857142857201 4.822857142857143v0.11428571428571388q1.3428571428571416 1.717142857142857 1.3428571428571416 3.9714285714285715 0 0.4914285714285711-0.06857142857143117 0.9600000000000009 0.8485714285714252 1.4957142857142856 0.8485714285714252 3.2142857142857153 0 0.8028571428571425-0.20000000000000284 1.5399999999999991 1.0928571428571416 1.6514285714285712 1.0928571428571416 3.638571428571428z"></path></svg>