<?xml version="1.0"?><svg viewBox="0 0 40 40" xmlns="http://www.w3.org/2000/svg" height="40" width="40"><path d="m7.8 28.4q0-0.6-0.4-1t-0.9-0.4q-0.6 0-1 0.4t-0.4 1q0 0.5 0.4 0.9t1 0.4q0.5 0 0.9-0.4t0.4-0.9z m3.4-10.8v13.5q0 0.5-0.4 0.9t-0.9 0.4h-6.1q-0.6 0-1-0.4t-0.4-0.9v-13.5q0-0.6 0.4-1t1-0.4h6.1q0.5 0 0.9 0.4t0.4 1z m25 0q0 1.8-1.2 3.1 0.4 0.9 0.4 1.6 0 1.6-0.9 2.9 0.3 1.2 0 2.5-0.4 1.2-1.2 1.9 0.2 2.4-1 3.9-1.4 1.6-4.2 1.6h-2.7q-1.4 0-3-0.3t-2.6-0.6-2.5-0.9q-2.6-0.9-3.4-0.9-0.5 0-0.9-0.4t-0.4-0.9v-13.6q0-0.5 0.4-0.9t0.9-0.4q0.5-0.1 1.6-1.3t2.1-2.5q1.4-1.9 2.1-2.5 0.4-0.4 0.7-1.1t0.3-1 0.3-1.3q0.2-0.8 0.3-1.2t0.4-1.1 0.7-1.1q0.4-0.4 1-0.4 0.9 0 1.7 0.2t1.3 0.6 0.8 0.8 0.5 1 0.3 1 0.1 1 0 0.8q0 0.8-0.2 1.6t-0.4 1.3-0.6 1.2q0 0.1-0.2 0.3t-0.2 0.5-0.2 0.5h5.9q1.6 0 2.8 1.2t1.2 2.9z"></path></svg>