<?xml version="1.0"?><svg xmlns="http://www.w3.org/2000/svg" width="40" height="40" viewBox="0 0 40 40"><path d="m17.857142857142858 19.285714285714285v-10q0-0.31428571428571495-0.1999999999999993-0.5142857142857142t-0.514285714285716-0.1999999999999993-0.514285714285716 0.1999999999999993-0.1999999999999993 0.5142857142857142v10q0 0.31428571428571317 0.1999999999999993 0.5142857142857125t0.514285714285716 0.20000000000000284 0.514285714285716-0.1999999999999993 0.1999999999999993-0.514285714285716z m15.000000000000004 7.857142857142858q0 0.5800000000000018-0.42428571428571615 1.0042857142857144t-1.0042857142857144 0.42428571428571615h-9.575714285714284l-1.1385714285714315 10.781428571428574q-0.04285714285714448 0.2671428571428578-0.23428571428571487 0.4571428571428555t-0.4571428571428555 0.18999999999999773h-0.022857142857144908q-0.6028571428571432 0-0.7142857142857153-0.6028571428571396l-1.697142857142854-10.825714285714287h-9.01714285714286q-0.5800000000000001 0-1.0042857142857144-0.4242857142857126t-0.4242857142857135-1.004285714285718q0-2.7457142857142856 1.7528571428571427-4.942857142857143t3.9614285714285717-2.1999999999999993v-11.428571428571429q-1.1600000000000001 0-2.008571428571429-0.8485714285714288t-0.8485714285714288-2.008571428571428 0.8485714285714288-2.0085714285714285 2.008571428571429-0.8485714285714288h14.285714285714288q1.1600000000000001 0 2.008571428571429 0.8485714285714283t0.8485714285714252 2.008571428571429-0.8485714285714288 2.008571428571428-2.008571428571429 0.8485714285714288v11.428571428571429q2.210000000000001 0 3.9614285714285735 2.1999999999999993t1.7528571428571453 4.942857142857143z"></path></svg>