<?xml version="1.0"?><svg viewBox="0 0 40 40" xmlns="http://www.w3.org/2000/svg" height="40" width="40"><path d="m4.4 13.5q0 0.5-0.3 0.8t-0.8 0.4q-0.4 0-0.8-0.4t-0.3-0.8q0-0.4 0.3-0.7t0.8-0.4q0.5 0 0.8 0.4t0.3 0.7z m2.8 8.9v-11.1q0-0.4-0.3-0.8t-0.8-0.3h-5q-0.4 0-0.8 0.3t-0.3 0.8v11.1q0 0.5 0.3 0.8t0.8 0.3h5q0.5 0 0.8-0.3t0.3-0.8z m19.6-2.6q1 1.1 1 2.6 0 1.4-1 2.4t-2.4 1h-4.8q0.1 0.2 0.2 0.4t0.2 0.4q0.1 0.2 0.1 0.3 0.4 0.6 0.5 1t0.3 1q0.2 0.6 0.2 1.3 0 0.4 0 0.7t-0.1 0.8q-0.1 0.5-0.2 0.8t-0.4 0.8q-0.3 0.4-0.7 0.7t-1 0.5q-0.7 0.2-1.5 0.2-0.4 0-0.8-0.4-0.3-0.3-0.5-0.8t-0.4-0.9q-0.1-0.4-0.2-1.1-0.2-0.7-0.2-1.1t-0.3-0.8q-0.3-0.5-0.6-0.8-0.6-0.6-1.7-2.1-0.9-1.1-1.8-2.1t-1.3-1q-0.4-0.1-0.8-0.4t-0.3-0.8v-11.1q0-0.4 0.4-0.8t0.7-0.3q0.7 0 2.8-0.8 1.3-0.4 2.1-0.6t2.1-0.5q1.3-0.3 2.5-0.3h2.2q2.3 0 3.4 1.3 1.1 1.2 0.9 3.2 0.7 0.6 0.9 1.6 0.3 1.1 0 2 0.8 1.1 0.8 2.4 0 0.6-0.3 1.3z"></path></svg>