<?xml version="1.0"?><svg viewBox="0 0 40 40" xmlns="http://www.w3.org/2000/svg" height="40" width="40"><path d="m4.1 12.1q0.3-0.3 0.3-0.8t-0.3-0.8q-0.3-0.3-0.8-0.3t-0.7 0.3q-0.4 0.4-0.4 0.8t0.4 0.8q0.3 0.3 0.7 0.3t0.8-0.3z m20.3 9.2q0-0.6-0.3-1.4t-1-0.8q0.3-0.3 0.5-0.8t0.2-1q0-1.2-1-2.1 0.3-0.5 0.3-1.2t-0.3-1.2q-0.3-0.7-0.8-0.9 0.1-0.6 0.1-1 0-1.5-0.8-2.2t-2.4-0.7h-2.2q-2.3 0-6 1.3-0.1 0-0.5 0.1t-0.6 0.3q-0.2 0-0.6 0.2t-0.7 0.1q-0.2 0.1-0.5 0.2t-0.6 0h-0.5v11.1h0.5q0.3 0 0.6 0.2t0.7 0.4q0.4 0.4 0.7 0.7t0.7 0.7q0.4 0.5 0.6 0.8t0.5 0.7q0.4 0.4 0.4 0.5 1 1.2 1.4 1.6 0.7 0.7 1 1.9t0.5 2.2q0.2 1 0.7 1.4 1.7 0 2.2-0.8t0.6-2.5q0-1-0.9-2.8t-0.8-2.8h6.1q0.9 0 1.6-0.6t0.6-1.6z m2.3 0q0 1.8-1.4 3.1t-3.1 1.4h-3q0.8 1.7 0.8 3.3 0 2-0.6 3.2-0.6 1.2-1.8 1.8t-2.6 0.6q-0.9 0-1.6-0.7-0.6-0.6-0.9-1.4t-0.4-1.6q-0.1-0.7-0.3-1.5t-0.6-1.1q-0.8-0.8-1.8-2.2-1.8-2.2-2.4-2.7h-4.8q-0.9 0-1.5-0.6t-0.7-1.6v-11.1q0-0.9 0.7-1.6t1.5-0.6h5q0.4 0 2.4-0.7 2.2-0.8 3.9-1.2t3.5-0.3h1.9q2.4 0 3.9 1.3t1.5 3.8v0.1q1.1 1.3 1.1 3.1 0 0.3-0.1 0.7 0.7 1.2 0.7 2.5 0 0.6-0.2 1.2 0.9 1.3 0.9 2.8z"></path></svg>