<?xml version="1.0"?><svg viewBox="0 0 40 40" xmlns="http://www.w3.org/2000/svg" height="40" width="40"><path d="m4.4 26.9q0-0.5-0.3-0.8t-0.8-0.3q-0.4 0-0.8 0.3t-0.3 0.8q0 0.4 0.3 0.8t0.8 0.3q0.5 0 0.8-0.3t0.3-0.8z m2.8-8.9v11.1q0 0.4-0.3 0.8t-0.8 0.3h-5q-0.4 0-0.8-0.3t-0.3-0.8v-11.1q0-0.5 0.3-0.8t0.8-0.3h5q0.5 0 0.8 0.3t0.3 0.8z m20.6 0q0 1.5-1 2.6 0.3 0.7 0.3 1.3 0 1.3-0.8 2.4 0.3 0.9 0 2-0.2 1-0.9 1.6 0.2 2-0.9 3.2-1.1 1.3-3.4 1.3h-2.2q-1.2 0-2.5-0.2t-2.1-0.5q-0.8-0.3-2.1-0.7-2.1-0.8-2.8-0.8-0.4 0-0.7-0.3t-0.4-0.8v-11.1q0-0.5 0.3-0.8t0.8-0.3q0.4-0.1 1.3-1.1t1.8-2.1q1.1-1.5 1.7-2.1 0.3-0.3 0.6-0.8t0.3-0.8q0-0.3 0.2-1.1 0.1-0.7 0.2-1t0.4-0.9q0.2-0.6 0.5-0.9 0.4-0.3 0.8-0.3 0.8 0 1.5 0.1t1 0.5q0.4 0.3 0.7 0.7t0.4 0.8q0.1 0.3 0.2 0.8t0.1 0.8q0 0.3 0 0.7 0 0.7-0.2 1.3t-0.3 1.1q-0.1 0.4-0.5 0.9 0 0.1-0.1 0.4t-0.2 0.3q-0.1 0.2-0.2 0.5h4.8q1.4 0 2.4 0.9t1 2.4z"></path></svg>