<?xml version="1.0"?><svg viewBox="0 0 40 40" xmlns="http://www.w3.org/2000/svg" height="40" width="40"><path d="m9.2 28.4q0-0.6-0.4-1t-1-0.4-0.9 0.4-0.4 1 0.4 0.9 0.9 0.4 1-0.4 0.4-0.9z m24.3-12.2q0-1.1-0.8-1.9t-1.9-0.8h-7.4q0-1.2 1-3.4t1-3.3q0-2.1-0.7-3.1t-2.7-1q-0.5 0.5-0.8 1.8t-0.6 2.6-1.3 2.4q-0.4 0.4-1.6 1.9-0.1 0.1-0.5 0.6t-0.6 0.9-0.8 0.9-0.8 0.9-0.8 0.7-0.9 0.6-0.7 0.2h-0.7v13.5h0.7q0.2 0 0.6 0.1t0.7 0.1 0.8 0.2 0.8 0.3 0.7 0.2 0.6 0.3q4.5 1.5 7.3 1.5h2.5q4.1 0 4.1-3.5 0-0.6-0.2-1.2 0.7-0.3 1.1-1.1t0.3-1.6-0.4-1.4q1.2-1.1 1.2-2.5 0-0.6-0.3-1.2t-0.5-1q0.7 0 1.1-1t0.5-1.7z m2.7 0q0 1.9-1 3.4 0.2 0.7 0.2 1.5 0 1.6-0.8 3 0 0.5 0 0.9 0 2.2-1.2 3.8 0 2.9-1.8 4.6t-4.8 1.7h-2.7q-2.1 0-4-0.5t-4.6-1.4q-2.5-0.8-2.9-0.8h-6.1q-1.1 0-1.9-0.8t-0.8-1.9v-13.5q0-1.1 0.8-1.9t1.9-0.8h5.8q0.7-0.5 2.9-3.3 1.2-1.6 2.2-2.7 0.5-0.5 0.8-1.8t0.6-2.6 1.3-2.3q0.8-0.8 1.9-0.8 1.8 0 3.2 0.7t2.2 2.1 0.7 4q0 1.9-1 4h3.7q2.2 0 3.8 1.6t1.6 3.8z"></path></svg>