<?xml version="1.0"?><svg xmlns="http://www.w3.org/2000/svg" width="40" height="40" viewBox="0 0 40 40"><path d="m8.571428571428571 30q0-0.5799999999999983-0.4242857142857144-1.0042857142857144t-1.0042857142857136-0.4242857142857126-1.0042857142857144 0.4242857142857126-0.4242857142857144 1.0042857142857144 0.4242857142857144 1.0042857142857144 1.0042857142857144 0.42428571428571615 1.0042857142857136-0.4242857142857126 0.4242857142857144-1.004285714285718z m25.714285714285715-12.857142857142858q0-1.138571428571428-0.8714285714285737-1.9971428571428564t-1.9857142857142804-0.8599999999999994h-7.857142857142858q0-1.2942857142857136 1.071428571428573-3.5600000000000005t1.0714285714285694-3.5828571428571427q0-2.185714285714286-0.7142857142857153-3.237142857142857t-2.8571428571428577-1.048571428571429q-0.5800000000000018 0.5800000000000001-0.8485714285714288 1.8971428571428572t-0.6814285714285724 2.8-1.3271428571428565 2.4457142857142857q-0.49285714285714377 0.5142857142857142-1.7199999999999989 2.031428571428572-0.08999999999999986 0.1114285714285721-0.5142857142857125 0.6714285714285708t-0.6999999999999993 0.9142857142857146-0.7714285714285722 0.9485714285714284-0.8928571428571423 0.9828571428571422-0.8571428571428577 0.7928571428571445-0.894285714285715 0.6000000000000014-0.7928571428571427 0.20285714285714107h-0.7142857142857153v14.285714285714285h0.7142857142857135q0.28857142857142826 0 0.6999999999999993 0.0671428571428585t0.7385714285714293 0.14285714285714235 0.8485714285714288 0.24714285714285822 0.7828571428571429 0.25714285714285623 0.7928571428571445 0.278571428571432 0.6471428571428568 0.23428571428571132q4.710000000000001 1.6285714285714263 7.634285714285717 1.6285714285714263h2.6999999999999993q4.285714285714285 0 4.285714285714285-3.725714285714286 0-0.5800000000000018-0.10999999999999943-1.25 0.6714285714285708-0.35714285714285765 1.0599999999999987-1.1714285714285708t0.39000000000000057-1.6428571428571423-0.3999999999999986-1.53857142857143q1.1814285714285688-1.1142857142857139 1.1814285714285688-2.6571428571428584 0-0.5571428571428569-0.2228571428571442-1.2371428571428567t-0.5600000000000023-1.0599999999999987q0.7142857142857153-0.022857142857141355 1.1942857142857122-1.048571428571428t0.480000000000004-1.8028571428571425z m2.857142857142854-0.022857142857141355q0 1.985714285714284-1.0942857142857179 3.638571428571428 0.20000000000000284 0.7385714285714293 0.20000000000000284 1.5428571428571445 0 1.717142857142857-0.8471428571428561 3.2142857142857153 0.06857142857143117 0.4671428571428571 0.06857142857143117 0.9571428571428555 0 2.2571428571428562-1.3400000000000034 3.9742857142857133 0.022857142857141355 3.1028571428571396-1.8971428571428604 4.899999999999999t-5.0685714285714205 1.7957142857142898h-2.87857142857143q-2.1428571428571423 0-4.231428571428573-0.5028571428571453t-4.832857142857144-1.46142857142857q-2.589999999999998-0.8928571428571459-3.0785714285714256-0.8928571428571459h-6.428571428571428q-1.185714285714286 0-2.0214285714285714-0.8371428571428581t-0.8357142857142859-2.019999999999996v-14.285714285714288q0-1.1828571428571433 0.8357142857142859-2.0199999999999996t2.0214285714285714-0.8371428571428563h6.114285714285715q0.8028571428571425-0.5357142857142865 3.057142857142857-3.460000000000001 1.2957142857142863-1.6742857142857144 2.3900000000000006-2.8571428571428577 0.5357142857142847-0.5571428571428569 0.7928571428571445-1.9085714285714293t0.6814285714285724-2.8242857142857143 1.3857142857142861-2.41q0.8671428571428521-0.8257142857142843 2.0071428571428527-0.8257142857142843 1.8757142857142846 0 3.37142857142857 0.7257142857142858t2.2757142857142867 2.265714285714286 0.7814285714285738 4.151428571428571q0 2.0757142857142865-1.071428571428573 4.285714285714286h3.9285714285714306q2.3214285714285694 0 4.017142857142858 1.6971428571428575t1.6971428571428575 3.9957142857142838z"></path></svg>