<?xml version="1.0"?><svg xmlns="http://www.w3.org/2000/svg" width="40" height="40" viewBox="0 0 40 40"><path d="m7.857142857142858 12.857142857142858q0 0.5800000000000001-0.4242857142857144 1.0042857142857144t-1.0042857142857144 0.4242857142857144q-0.6028571428571432 0-1.0142857142857142-0.4242857142857144t-0.4142857142857146-1.0042857142857144q0-0.6028571428571432 0.4142857142857146-1.0142857142857142t1.0142857142857142-0.4142857142857146q0.5800000000000001 0 1.0042857142857144 0.4142857142857146t0.4242857142857144 1.0142857142857142z m3.571428571428571 11.428571428571427v-14.285714285714285q0-0.5800000000000001-0.4242857142857144-1.0042857142857144t-1.0042857142857144-0.4242857142857144h-6.428571428571429q-0.5799999999999996 0-1.0042857142857136 0.4242857142857144t-0.4242857142857148 1.0042857142857144v14.285714285714285q0 0.5799999999999983 0.4242857142857144 1.0042857142857144t1.0042857142857144 0.42428571428571615h6.428571428571429q0.5800000000000001 0 1.0042857142857144-0.4242857142857126t0.4242857142857144-1.004285714285718z m25.200000000000003-3.325714285714284q1.2285714285714278 1.361428571428572 1.2285714285714278 3.325714285714284-0.022857142857141355 1.7428571428571438-1.2828571428571394 3.0142857142857125t-3.0028571428571524 1.2714285714285758h-6.182857142857145q0.08999999999999986 0.31428571428571317 0.17857142857142705 0.5357142857142847t0.24571428571428555 0.4914285714285711 0.22142857142857153 0.3999999999999986q0.3999999999999986 0.8257142857142874 0.6028571428571432 1.2714285714285722t0.4242857142857126 1.3071428571428605 0.22428571428572042 1.7085714285714246q0 0.5357142857142847-0.011428571428570677 0.8714285714285737t-0.1114285714285721 1.0028571428571453-0.2671428571428578 1.1142857142857139-0.5357142857142847 1.0057142857142836-0.8928571428571423 0.904285714285713-1.3399999999999999 0.5785714285714292-1.8414285714285725 0.23714285714285666q-0.5799999999999983 0-1.0042857142857144-0.42571428571428527-0.4471428571428575-0.4471428571428575-0.7571428571428562-1.1142857142857139t-0.43714285714285595-1.1614285714285728-0.2771428571428558-1.3628571428571448q-0.1999999999999993-0.9371428571428595-0.3000000000000007-1.3500000000000014t-0.39142857142857324-1.0814285714285745-0.6914285714285704-1.0714285714285694q-0.7371428571428567-0.7371428571428567-2.2542857142857144-2.6785714285714306-1.0942857142857143-1.428571428571427-2.2542857142857144-2.6999999999999993t-1.6971428571428575-1.3185714285714276q-0.5571428571428569-0.04285714285714448-0.9600000000000009-0.4571428571428555t-0.40000000000000036-0.9714285714285715v-14.307142857142853q0-0.581428571428571 0.4228571428571435-0.9942857142857147t1.0014285714285727-0.43428571428571416q0.7828571428571429-0.024285714285714022 3.5285714285714302-0.9857142857142858 1.7185714285714297-0.5785714285714283 2.6900000000000013-0.8799999999999999t2.71142857142857-0.6471428571428568 3.2128571428571426-0.3442857142857143h2.8814285714285717q2.9685714285714297 0.042857142857142705 4.397142857142853 1.7400000000000002 1.2942857142857136 1.54 1.0942857142857179 4.04 0.8714285714285737 0.8257142857142856 1.2071428571428555 2.0999999999999996 0.38000000000000256 1.3599999999999994 0 2.6099999999999994 1.028571428571425 1.361428571428572 0.9600000000000009 3.057142857142857 0 0.7142857142857153-0.33428571428571274 1.6999999999999993z"></path></svg>