<?xml version="1.0"?><svg viewBox="0 0 40 40" xmlns="http://www.w3.org/2000/svg" height="40" width="40"><path d="m4.1 27.7q0.3-0.4 0.3-0.8t-0.3-0.8q-0.3-0.3-0.8-0.3t-0.7 0.3q-0.4 0.3-0.4 0.8t0.4 0.8q0.3 0.3 0.7 0.3t0.8-0.3z m20.3-10.8q0-0.9-0.6-1.6t-1.6-0.6h-6.1q0-1.1 0.8-2.8t0.9-2.8q0-1.7-0.6-2.5t-2.2-0.8q-0.5 0.4-0.7 1.4t-0.5 2.2q-0.3 1.2-1 1.9-0.4 0.4-1.4 1.6 0 0.1-0.4 0.5t-0.5 0.7q-0.2 0.3-0.6 0.8t-0.7 0.7q-0.3 0.3-0.7 0.6t-0.7 0.5q-0.3 0.2-0.6 0.2h-0.5v11.1h0.5q0.2 0 0.6 0t0.5 0.2q0.3 0 0.7 0.1t0.6 0.2q0.2 0.1 0.6 0.3t0.5 0.1q3.7 1.3 6 1.3h2.1q3.3 0 3.3-2.9 0-0.4-0.1-1 0.5-0.2 0.8-0.9t0.3-1.3q0-0.6-0.3-1.1 0.9-0.9 0.9-2.1 0-0.4-0.1-1t-0.5-0.8q0.6 0 1-0.8t0.3-1.4z m2.3 0q0 1.5-0.9 2.8 0.2 0.6 0.2 1.2 0 1.3-0.7 2.5 0.1 0.3 0.1 0.7 0 1.8-1.1 3.1 0 2.4-1.5 3.8t-3.9 1.4h-2.2q-1.7 0-3.3-0.4t-3.8-1.1q-2-0.7-2.4-0.7h-5q-0.9 0-1.5-0.6t-0.7-1.6v-11.1q0-0.9 0.7-1.6t1.5-0.6h4.8q0.6-0.5 2.4-2.7 1-1.3 1.8-2.3 0.4-0.4 0.6-1.4t0.6-2.2q0.3-1.2 1-1.9 0.7-0.7 1.6-0.7 1.5 0 2.6 0.6t1.8 1.8q0.6 1.2 0.6 3.2 0 1.6-0.8 3.3h3q1.8 0 3.1 1.3t1.4 3.2z"></path></svg>