<?xml version="1.0"?><svg viewBox="0 0 40 40" xmlns="http://www.w3.org/2000/svg" height="40" width="40"><path d="m7.8 12.2q0 0.5-0.4 0.9t-0.9 0.4q-0.6 0-1-0.4t-0.4-0.9q0-0.6 0.4-1t1-0.4q0.5 0 0.9 0.4t0.4 1z m3.4 10.8v-13.5q0-0.6-0.4-1t-0.9-0.4h-6.1q-0.6 0-1 0.4t-0.4 1v13.5q0 0.5 0.4 0.9t1 0.4h6.1q0.5 0 0.9-0.4t0.4-0.9z m23.8-3.2q1.2 1.3 1.2 3.2 0 1.6-1.2 2.8t-2.8 1.2h-5.9q0.1 0.3 0.2 0.5t0.2 0.5 0.2 0.4q0.4 0.7 0.6 1.2t0.4 1.2 0.2 1.6q0 0.5 0 0.8t-0.1 1-0.3 1-0.5 1-0.8 0.8-1.3 0.6-1.7 0.2q-0.6 0-1-0.4-0.4-0.4-0.7-1.1t-0.4-1-0.3-1.3q-0.2-0.9-0.3-1.3t-0.3-1-0.7-1q-0.7-0.7-2.1-2.6-1-1.3-2.1-2.5t-1.6-1.3q-0.6 0-0.9-0.4t-0.4-0.9v-13.5q0-0.6 0.4-1t0.9-0.4q0.8 0 3.4-0.9 1.6-0.6 2.5-0.9t2.6-0.6 3-0.3h2.7q2.8 0 4.2 1.6 1.2 1.5 1 3.9 0.8 0.7 1.2 1.9 0.3 1.3 0 2.5 0.9 1.3 0.9 2.9 0 0.7-0.4 1.6z"></path></svg>