<?xml version="1.0"?><svg viewBox="0 0 40 40" xmlns="http://www.w3.org/2000/svg" height="40" width="40"><path d="m9.2 9.5q0-0.6-0.4-1t-1-0.4-0.9 0.4-0.4 1 0.4 0.9 0.9 0.4 1-0.4 0.4-0.9z m24.3 12.1q0-0.7-0.5-1.7t-1.1-1q0.3-0.4 0.5-1t0.3-1.2q0-1.4-1.2-2.5 0.4-0.7 0.4-1.4t-0.3-1.6-1.1-1.1q0.2-0.6 0.2-1.2 0-1.8-1.1-2.6t-2.8-0.9h-2.7q-2.8 0-7.3 1.5-0.1 0.1-0.6 0.3t-0.7 0.2-0.8 0.3-0.8 0.2-0.7 0.1-0.6 0.1h-0.7v13.5h0.7q0.3 0 0.7 0.2t0.9 0.6 0.8 0.7 0.8 0.9 0.8 0.9 0.6 0.9 0.5 0.6q1.2 1.5 1.6 2 0.9 0.9 1.3 2.3t0.6 2.6 0.8 1.8q2.1 0 2.7-1t0.7-3q0-1.3-1-3.4t-1-3.4h7.4q1.1 0 1.9-0.8t0.8-1.9z m2.7 0q0 2.2-1.6 3.8t-3.8 1.6h-3.7q1 2.1 1 4.1 0 2.4-0.7 3.9-0.8 1.4-2.2 2.1t-3.2 0.7q-1.1 0-1.9-0.8-0.7-0.7-1.1-1.7t-0.6-1.9-0.3-1.8-0.7-1.3q-1-1.1-2.2-2.7-2.2-2.8-2.9-3.3h-5.8q-1.1 0-1.9-0.8t-0.8-1.9v-13.5q0-1.1 0.8-1.9t1.9-0.8h6.1q0.4 0 2.9-0.8 2.7-1 4.7-1.4t4.2-0.5h2.4q2.9 0 4.8 1.7t1.8 4.5v0.1q1.2 1.7 1.2 3.8 0 0.4 0 0.9 0.8 1.4 0.8 3 0 0.8-0.2 1.5 1 1.5 1 3.4z"></path></svg>