<?xml version="1.0"?><svg xmlns="http://www.w3.org/2000/svg" width="40" height="40" viewBox="0 0 40 40"><path d="m28.504285714285714 25.042857142857144q0-0.5785714285714292-0.4242857142857126-1.0028571428571418l-4.040000000000003-4.040000000000003 4.039999999999999-4.039999999999999q0.4242857142857126-0.4242857142857144 0.4242857142857126-1.0042857142857144 0-0.6042857142857141-0.4242857142857126-1.0285714285714285l-2.0085714285714253-2.007142857142858q-0.4242857142857126-0.4242857142857144-1.0285714285714285-0.4242857142857144-0.5785714285714292 0-1.0028571428571418 0.4242857142857144l-4.040000000000003 4.040000000000001-4.039999999999999-4.040000000000001q-0.4242857142857144-0.4242857142857144-1.0042857142857144-0.4242857142857144-0.6042857142857141 0-1.0285714285714285 0.4242857142857144l-2.0071428571428562 2.008571428571429q-0.4242857142857144 0.4242857142857144-0.4242857142857144 1.0285714285714285 0 0.5785714285714292 0.4242857142857144 1.0028571428571436l4.039999999999999 4.039999999999999-4.039999999999999 4.039999999999999q-0.4242857142857144 0.4242857142857126-0.4242857142857144 1.0042857142857144 0 0.6042857142857159 0.4242857142857144 1.0285714285714285l2.008571428571429 2.008571428571429q0.4242857142857144 0.4242857142857126 1.0285714285714285 0.4242857142857126 0.5785714285714292 0 1.0028571428571436-0.4242857142857126l4.039999999999997-4.041428571428572 4.039999999999999 4.039999999999999q0.4242857142857126 0.4242857142857126 1.0042857142857144 0.4242857142857126 0.6042857142857159 0 1.0285714285714285-0.4242857142857126l2.008571428571429-2.008571428571429q0.4242857142857126-0.4242857142857126 0.4242857142857126-1.0285714285714285z m8.638571428571431-5.0428571428571445q0 4.665714285714287-2.299999999999997 8.604285714285716t-6.237142857142857 6.238571428571426-8.605714285714292 2.3000000000000043-8.6-2.3000000000000043-6.242857142857143-6.238571428571426-2.295714285714286-8.604285714285716 2.3000000000000003-8.604285714285714 6.234285714285714-6.238571428571428 8.604285714285714-2.3000000000000003 8.605714285714285 2.3000000000000003 6.238571428571426 6.238571428571428 2.298571428571435 8.604285714285714z"></path></svg>