<?xml version="1.0"?><svg viewBox="0 0 40 40" xmlns="http://www.w3.org/2000/svg" height="40" width="40"><path d="m19.9 23q0-0.4-0.3-0.8l-3.1-3.1 3.1-3.1q0.3-0.4 0.3-0.8 0-0.5-0.3-0.8l-1.5-1.6q-0.4-0.3-0.8-0.3-0.5 0-0.8 0.3l-3.2 3.2-3.1-3.2q-0.3-0.3-0.8-0.3-0.5 0-0.8 0.3l-1.6 1.6q-0.3 0.3-0.3 0.8 0 0.4 0.3 0.8l3.2 3.1-3.2 3.1q-0.3 0.4-0.3 0.8 0 0.5 0.3 0.8l1.6 1.6q0.3 0.3 0.8 0.3 0.5 0 0.8-0.3l3.1-3.2 3.2 3.2q0.3 0.3 0.8 0.3 0.4 0 0.8-0.3l1.5-1.6q0.3-0.3 0.3-0.8z m5-10.6q1.8 3.1 1.8 6.7t-1.8 6.7q-1.8 3.1-4.9 4.8t-6.7 1.8q-3.6 0-6.7-1.8t-4.8-4.8q-1.8-3.1-1.8-6.7t1.8-6.7q1.8-3.1 4.8-4.8t6.7-1.8q3.7 0 6.7 1.8t4.9 4.8z"></path></svg>