<?xml version="1.0"?><svg viewBox="0 0 40 40" xmlns="http://www.w3.org/2000/svg" height="40" width="40"><path d="m26.9 22.8l-3 3q-0.3 0.3-0.5 0.3t-0.5-0.3l-2.9-2.8-2.9 2.8q-0.2 0.3-0.5 0.3t-0.5-0.3l-3-3q-0.3-0.2-0.3-0.5t0.3-0.5l2.8-2.9-2.8-2.9q-0.3-0.2-0.3-0.5t0.3-0.5l3-3q0.3-0.2 0.5-0.2t0.5 0.2l2.9 2.9 2.9-2.9q0.2-0.2 0.5-0.2t0.5 0.2l3 3q0.3 0.3 0.3 0.5t-0.3 0.5l-2.8 2.9 2.8 2.9q0.3 0.2 0.3 0.5t-0.3 0.5z m4.6-3.9q0-3.1-1.6-5.8t-4.1-4.1-5.8-1.6-5.8 1.6-4.1 4.1-1.6 5.8 1.6 5.8 4.1 4.1 5.8 1.6 5.8-1.6 4.1-4.1 1.6-5.8z m4.7 0q0 4.4-2.2 8.1t-5.9 5.9-8.1 2.2-8.1-2.2-5.9-5.9-2.2-8.1 2.2-8.1 5.9-5.9 8.1-2.2 8.1 2.2 5.9 5.9 2.2 8.1z"></path></svg>