<?xml version="1.0"?><svg xmlns="http://www.w3.org/2000/svg" width="40" height="40" viewBox="0 0 40 40"><path d="m20 25.714285714285715q0-0.8028571428571425-0.4471428571428575-1.5399999999999991-0.022857142857141355-0.022857142857141355-0.345714285714287-0.5028571428571418t-0.5685714285714276-0.8485714285714288-0.5571428571428569-0.9828571428571422-0.47142857142857153-1.12857142857143q-0.08857142857142719-0.35714285714285765-0.4671428571428571-0.35714285714285765t-0.46857142857142975 0.35714285714285765q-0.15714285714285836 0.514285714285716-0.46857142857142975 1.12857142857143t-0.5571428571428569 0.9828571428571422-0.5714285714285712 0.8485714285714288-0.3428571428571434 0.5028571428571418q-0.44857142857142485 0.7371428571428531-0.44857142857142485 1.5399999999999991 0 1.1828571428571415 0.8371428571428563 2.0199999999999996t2.0199999999999996 0.8371428571428581 2.0199999999999996-0.8371428571428581 0.8371428571428581-2.0199999999999996z m11.42857142857143-2.8571428571428577q0 4.732857142857142-3.3485714285714288 8.080000000000002t-8.080000000000002 3.348571428571425-8.08-3.3485714285714288-3.3485714285714288-8.079999999999998q0-3.2371428571428567 1.8085714285714278-6.138571428571428 0.13428571428571345-0.1999999999999993 1.395714285714286-2.0199999999999996t2.2528571428571436-3.370000000000001 2.222857142857144-3.9714285714285715 1.8528571428571432-4.5q0.1999999999999993-0.668571428571429 0.7571428571428562-1.0471428571428576t1.1414285714285732-0.38142857142857145 1.1514285714285712 0.38142857142857145 0.7457142857142856 1.0471428571428572q0.6242857142857154 2.077142857142857 1.8514285714285705 4.5t2.2214285714285715 3.9714285714285715 2.2571428571428562 3.371428571428572 1.394285714285715 2.0185714285714287q1.8085714285714296 2.8342857142857127 1.8085714285714296 6.138571428571428z"></path></svg>