<?xml version="1.0"?><svg viewBox="0 0 40 40" xmlns="http://www.w3.org/2000/svg" height="40" width="40"><path d="m8.9 23.5q0-0.6-0.4-1.2 0 0-0.2-0.3t-0.5-0.7q-0.2-0.3-0.4-0.8t-0.4-0.8q0-0.3-0.3-0.3t-0.4 0.3q-0.1 0.4-0.4 0.8t-0.4 0.8q-0.2 0.3-0.4 0.7t-0.3 0.3q-0.4 0.6-0.4 1.2 0 1 0.7 1.6t1.6 0.7q0.9 0 1.5-0.7t0.7-1.6z m8.9-2.2q0 3.7-2.6 6.3t-6.3 2.6q-3.7 0-6.3-2.6t-2.6-6.3q0-2.5 1.4-4.8 0.1-0.1 1.1-1.5t1.7-2.6q0.8-1.3 1.8-3.1t1.4-3.5q0.2-0.6 0.6-0.9t0.9-0.2q0.4 0 0.9 0.2t0.6 0.9q0.5 1.6 1.4 3.5t1.7 3.1q0.8 1.2 1.8 2.6t1.1 1.5q1.4 2.2 1.4 4.8z"></path></svg>