<?xml version="1.0"?><svg viewBox="0 0 40 40" xmlns="http://www.w3.org/2000/svg" height="40" width="40"><path d="m22.5 19q0-2-0.8-3.9t-2.1-3.2-3.2-2.1-3.9-0.8-3.9 0.8-3.2 2.1-2.1 3.2-0.8 3.9 0.8 3.9 2.1 3.2 3.2 2.1 3.9 0.8 3.9-0.8 3.2-2.1 2.1-3.2 0.8-3.9z m15 0q0-2-0.8-3.9t-2.1-3.2-3.2-2.1-3.9-0.8h-7.5q2.3 1.7 3.6 4.4t1.4 5.6-1.4 5.6-3.6 4.4h7.5q2 0 3.9-0.8t3.2-2.1 2.1-3.2 0.8-3.9z m2.5 0q0 2.5-1 4.8t-2.7 4-3.9 2.7-4.9 1h-15q-2.5 0-4.9-1t-3.9-2.7-2.7-4-1-4.8 1-4.9 2.7-4 3.9-2.6 4.9-1h15q2.5 0 4.9 1t3.9 2.6 2.7 4 1 4.9z"></path></svg>