<?xml version="1.0"?><svg xmlns="http://www.w3.org/2000/svg" width="40" height="40" viewBox="0 0 40 40"><path d="m0 20q0-2.5375000000000014 0.9962500000000001-4.85375t2.66625-3.9837500000000006 3.9837500000000006-2.66625 4.85375-0.9962499999999999h15q2.5375000000000014 0 4.853749999999998 0.9962499999999999t3.9837500000000006 2.66625 2.666249999999998 3.983749999999999 0.9962500000000034 4.853750000000002-0.9962500000000034 4.853749999999998-2.666249999999998 3.9837500000000006-3.9837500000000006 2.666249999999998-4.853749999999998 0.9962500000000034h-15q-2.5374999999999996 0-4.85375-0.9962499999999999t-3.98375-2.6662500000000016-2.66625-3.9837500000000006-0.9962500000000003-4.853749999999998z m27.5 10q2.03125 0 3.8775000000000013-0.7912500000000016t3.193749999999998-2.1374999999999993 2.137500000000003-3.1950000000000003 0.7924999999999969-3.875-0.7899999999999991-3.87875-2.137500000000003-3.1937499999999996-3.1950000000000003-2.137500000000001-3.8787499999999966-0.7949999999999982-3.8775000000000013 0.7912499999999998-3.1937500000000014 2.1400000000000006-2.1374999999999993 3.1937499999999996-0.7937499999999993 3.87875 0.7899999999999991 3.875 2.1374999999999993 3.1950000000000003 3.1950000000000003 2.1374999999999993 3.8800000000000026 0.7925000000000004z"></path></svg>