<?xml version="1.0"?><svg xmlns="http://www.w3.org/2000/svg" width="40" height="40" viewBox="0 0 40 40"><path d="m22.5 20q0-2.03125-0.7912500000000016-3.8775000000000013t-2.1374999999999993-3.1937499999999996-3.1950000000000003-2.137500000000001-3.875-0.7925000000000004-3.87875 0.7899999999999991-3.1937499999999996 2.1374999999999993-2.1375 3.1950000000000003-0.7949999999999986 3.8787500000000037 0.7912500000000002 3.8775000000000013 2.1399999999999997 3.1937500000000014 3.1937499999999996 2.1374999999999993 3.8774999999999995 0.7925000000000004 3.8750000000000018-0.7899999999999991 3.1950000000000003-2.1374999999999993 2.1374999999999993-3.1950000000000003 0.7937499999999993-3.8787500000000037z m15 0q0-2.03125-0.791249999999998-3.8775000000000013t-2.137500000000003-3.1937499999999996-3.1950000000000003-2.137500000000001-3.875-0.7925000000000004h-7.539999999999999q2.3249999999999993 1.7562499999999996 3.6812499999999986 4.375t1.3575000000000017 5.626250000000002-1.3587500000000006 5.625-3.6812499999999986 4.375h7.537500000000001q2.032499999999999 0 3.87875-0.7925000000000004t3.195000000000004-2.1374999999999993 2.137500000000003-3.1950000000000003 0.7924999999999969-3.8775000000000013z m2.5 0q0 2.5375000000000014-0.9962500000000034 4.853749999999998t-2.666249999999998 3.9837500000000006-3.9837500000000006 2.666249999999998-4.853749999999998 0.9962500000000034h-15q-2.5374999999999996 0-4.85375-0.9962499999999999t-3.98375-2.6662500000000016-2.66625-3.9837500000000006-0.9962500000000003-4.853749999999998 0.9962500000000001-4.85375 2.66625-3.9837500000000006 3.9837500000000006-2.66625 4.85375-0.9962499999999999h15q2.5375000000000014 0 4.853749999999998 0.9962499999999999t3.9837500000000006 2.66625 2.666249999999998 3.983749999999999 0.9962500000000034 4.853750000000002z"></path></svg>