<?xml version="1.0"?><svg viewBox="0 0 40 40" xmlns="http://www.w3.org/2000/svg" height="40" width="40"><path d="m17.8 13.5v11.2q0 0.3999999999999986-0.3999999999999986 0.6999999999999993t-0.6999999999999993 0.3999999999999986q-0.3999999999999986 0-0.6999999999999993-0.1999999999999993l-7.800000000000004-5.599999999999998q-0.40000000000000036-0.3000000000000007-0.40000000000000036-0.8999999999999986t0.40000000000000036-0.8999999999999986l7.800000000000001-5.6q0.3000000000000007-0.1999999999999993 0.6999999999999993-0.1999999999999993 0.3999999999999986 0 0.6999999999999993 0.40000000000000036t0.3999999999999986 0.6999999999999993z m4.400000000000002 13.899999999999999v-16.599999999999998q0-0.3000000000000007-0.10000000000000142-0.40000000000000036t-0.3999999999999986-0.1999999999999993h-16.700000000000003q-0.20000000000000018 0-0.40000000000000036 0.1999999999999993t-0.20000000000000018 0.40000000000000036v16.6q0 0.3000000000000007 0.20000000000000018 0.3999999999999986t0.40000000000000036 0.1999999999999993h16.7q0.1999999999999993 0 0.3999999999999986-0.1999999999999993t0.10000000000000142-0.3999999999999986z m4.5-16.6v16.6q0 2.1000000000000014-1.5 3.6000000000000014t-3.5 1.3999999999999986h-16.700000000000003q-2.1 0-3.5-1.3999999999999986t-1.5-3.6000000000000014v-16.599999999999998q0-2.0999999999999996 1.5-3.5999999999999996t3.5-1.4000000000000012h16.7q2 0 3.5 1.3999999999999995t1.5 3.5999999999999996z"></path></svg>