<?xml version="1.0"?><svg viewBox="0 0 40 40" xmlns="http://www.w3.org/2000/svg" height="40" width="40"><path d="m0.9 23.4q-0.9-2-0.9-4.3t0.9-4.3q0.9-2.1 2.4-3.6t3.5-2.3q2.1-0.9 4.3-0.9h13.3q2.3 0 4.4 0.9t3.5 2.3q1.5 1.5 2.4 3.6t0.9 4.3q0 2.3-0.9 4.3t-2.4 3.6q-1.5 1.4-3.5 2.3t-4.4 0.9h-13.3q-2.2 0-4.3-0.9t-3.5-2.3q-1.5-1.5-2.4-3.6z m20.1 3.9q1.6 0.7 3.4 0.7t3.5-0.7q1.6-0.7 2.8-1.9t1.9-2.9q0.7-1.6 0.7-3.4t-0.7-3.4q-0.7-1.7-1.9-2.9t-2.8-1.9q-1.6-0.7-3.5-0.7t-3.4 0.7q-1.6 0.7-2.8 1.9t-1.9 2.9q-0.7 1.6-0.7 3.4t0.7 3.4q0.7 1.7 1.9 2.9t2.8 1.9z"></path></svg>