<?xml version="1.0"?><svg viewBox="0 0 40 40" xmlns="http://www.w3.org/2000/svg" height="40" width="40"><path d="m17.4 11.8v2.4q0 0.2-0.2 0.4t-0.5 0.2h-6v16.5q0 0.2-0.2 0.4t-0.4 0.2h-2.8q-0.2 0-0.4-0.2t-0.2-0.4v-16.5h-6.1q-0.2 0-0.4-0.2t-0.2-0.4v-2.4q0-0.3 0.2-0.5t0.4-0.1h16.1q0.3 0 0.5 0.2t0.2 0.4z m21-0.1l1.6 19.5q0 0.3-0.2 0.5-0.2 0.2-0.4 0.2h-2.8q-0.2 0-0.4-0.2t-0.2-0.4l-0.9-11.9-3.9 8.6q-0.1 0.4-0.5 0.4h-2.5q-0.4 0-0.6-0.4l-3.8-8.6-0.9 11.9q0 0.3-0.2 0.4t-0.4 0.2h-2.8q-0.2 0-0.4-0.2-0.2-0.2-0.2-0.5l1.6-19.5q0-0.2 0.2-0.4t0.4-0.1h2.9q0.4 0 0.6 0.3l4.4 10.6q0.2 0.5 0.4 1 0.1-0.1 0.2-0.5t0.2-0.5l4.5-10.6q0.2-0.3 0.6-0.3h2.9q0.2 0 0.4 0.1t0.2 0.4z"></path></svg>