<?xml version="1.0"?><svg viewBox="0 0 40 40" xmlns="http://www.w3.org/2000/svg" height="40" width="40"><path d="m14.9 13v2q0 0.2-0.2 0.4t-0.4 0.2h-5.2v14.1q0 0.2-0.1 0.3t-0.4 0.2h-2.3q-0.3 0-0.4-0.1t-0.2-0.4v-14.1h-5.1q-0.3 0-0.4-0.2t-0.2-0.4v-2q0-0.3 0.2-0.4t0.4-0.2h13.7q0.2 0 0.4 0.2t0.2 0.4z m18-0.1l1.3 16.7q0.1 0.2-0.1 0.4-0.2 0.2-0.4 0.2h-2.3q-0.2 0-0.4-0.1t-0.2-0.4l-0.8-10.2-3.2 7.4q-0.2 0.3-0.5 0.3h-2.1q-0.4 0-0.5-0.3l-3.3-7.4-0.8 10.2q0 0.2-0.2 0.4t-0.3 0.1h-2.4q-0.2 0-0.4-0.2-0.1-0.1-0.1-0.4l1.3-16.7q0.1-0.2 0.2-0.3t0.4-0.2h2.4q0.4 0 0.5 0.4l3.9 9q0.1 0.4 0.3 0.9 0.1-0.1 0.2-0.5t0.2-0.4l3.8-9q0.1-0.4 0.5-0.4h2.4q0.3 0 0.4 0.2t0.2 0.3z"></path></svg>