<?xml version="1.0"?><svg viewBox="0 0 40 40" xmlns="http://www.w3.org/2000/svg" height="40" width="40"><path d="m17.8 4.1q0-0.20000000000000018 0.10000000000000142-0.3999999999999999t0.3999999999999986-0.20000000000000018h5q0.5 0 0.8000000000000007 0.3999999999999999t0.3000000000000007 0.7999999999999998v5q0 0.1999999999999993-0.10000000000000142 0.40000000000000036t-0.3999999999999986 0.09999999999999964h-1.1000000000000014q-0.3000000000000007 0-0.3999999999999986-0.09999999999999964t-0.1999999999999993-0.40000000000000036v-2.3999999999999995l-4.399999999999999 4.500000000000001q2.1999999999999957 2.6999999999999993 2.1999999999999957 6.199999999999999 0 3.8000000000000007-2.6000000000000014 6.699999999999999t-6.300000000000001 3.1999999999999993v2.3000000000000007h1.6999999999999993q0.1999999999999993 0 0.40000000000000036 0.1999999999999993t0.09999999999999964 0.3999999999999986v1.1000000000000014q0 0.20000000000000284-0.09999999999999964 0.3999999999999986t-0.40000000000000036 0.10000000000000142h-1.6999999999999993v1.7000000000000028q0 0.20000000000000284-0.09999999999999964 0.3999999999999986t-0.40000000000000036 0.20000000000000284h-1.1999999999999975q-0.1999999999999993 0-0.40000000000000036-0.20000000000000284t-0.09999999999999964-0.3999999999999986v-1.7000000000000028h-1.7000000000000002q-0.20000000000000018 0-0.40000000000000036-0.10000000000000142t-0.09999999999999964-0.3999999999999986v-1.1000000000000014q0-0.3000000000000007 0.09999999999999964-0.3999999999999986t0.40000000000000036-0.1999999999999993h1.7000000000000002v-2.3000000000000007q-2.5999999999999996-0.3000000000000007-4.7-1.8000000000000007t-3.2-3.8999999999999986q-1.2-2.3000000000000007-1-5 0.3-3.5999999999999996 2.8-6.199999999999999t6.000000000000001-2.9000000000000004q2.0999999999999996-0.2999999999999998 4 0.3000000000000007t3.3999999999999986 1.8000000000000007l4.5-4.4h-2.3999999999999986q-0.1999999999999993 0-0.3999999999999986-0.20000000000000018t-0.10000000000000142-0.40000000000000036v-1.1000000000000005z m-13.3 19.4q2.3 2.3000000000000007 5.5 2.3000000000000007t5.5-2.3000000000000007q2.3000000000000007-2.3000000000000007 2.3000000000000007-5.5t-2.3000000000000007-5.5q-2.3000000000000007-2.3000000000000007-5.5-2.3000000000000007t-5.5 2.3000000000000007q-2.3 2.3000000000000007-2.3 5.5t2.3 5.5z"></path></svg>