<svg viewBox="0 0 1792 1896.0833" xmlns="http://www.w3.org/2000/svg"><path d="m1280 32q0-14 9-23t23-9h288q26 0 45 19t19 45v288q0 14-9 23t-23 9h-64q-14 0-23-9t-9-23v-134l-254 255q126 158 126 359 0 221-147.5 384.5t-364.5 187.5v132h96q14 0 23 9t9 23v64q0 14-9 23t-23 9h-96v96q0 14-9 23t-23 9h-64q-14 0-23-9t-9-23v-96h-96q-14 0-23-9t-9-23v-64q0-14 9-23t23-9h96v-132q-217-24-364.5-187.5t-147.5-384.5q0-201 126-359l-52-53-101 111q-9 10-22 10.5t-23-7.5l-48-44q-10-8-10.5-21.5t8.5-23.5l105-115-111-112v134q0 14-9 23t-23 9h-64q-14 0-23-9t-9-23v-288q0-26 19-45t45-19h288q14 0 23 9t9 23v64q0 14-9 23t-23 9h-133l106 107 86-94q9-10 22-10.5t23 7.5l48 44q10 8 10.5 21.5t-8.5 23.5l-90 99 57 56q158-126 359-126t359 126l255-254h-134q-14 0-23-9t-9-23v-64z m-448 1248q185 0 316.5-131.5t131.5-316.5-131.5-316.5-316.5-131.5-316.5 131.5-131.5 316.5 131.5 316.5 316.5 131.5z"/></svg>