<?xml version="1.0"?><svg xmlns="http://www.w3.org/2000/svg" width="40" height="40" viewBox="0 0 40 40"><path d="m30 0.7142857142857143q0-0.3142857142857143 0.1999999999999993-0.5142857142857142t0.514285714285716-0.20000000000000007h6.428571428571431q0.5799999999999983 0 1.0042857142857144 0.42428571428571427t0.42428571428570905 1.0042857142857144v6.428571428571429q0 0.31428571428571495-0.20000000000000284 0.5142857142857142t-0.5142857142857054 0.1999999999999993h-1.4285714285714306q-0.3142857142857167 0-0.5142857142857125-0.1999999999999993t-0.20000000000000284-0.5142857142857142v-2.991428571428572l-5.671428571428571 5.691428571428571q2.8142857142857167 3.5285714285714285 2.8142857142857167 8.014285714285716 0 4.931428571428572-3.2928571428571445 8.581428571428571t-8.135714285714286 4.185714285714287v2.947142857142854h2.1428571428571423q0.31428571428571317 0 0.514285714285716 0.20000000000000284t0.1999999999999993 0.5142857142857125v1.4285714285714306q0 0.3142857142857167-0.1999999999999993 0.5142857142857125t-0.5142857142857125 0.20000000000000284h-2.142857142857146v2.142857142857146q0 0.3142857142857167-0.1999999999999993 0.5142857142857125t-0.514285714285716 0.20000000000000284h-1.428571428571427q-0.31428571428571317 0-0.514285714285716-0.20000000000000284t-0.1999999999999993-0.5142857142857196v-2.142857142857139h-2.1428571428571423q-0.31428571428571317 0-0.5142857142857142-0.20000000000000284t-0.20000000000000107-0.5142857142857125v-1.4285714285714306q0-0.3142857142857167 0.1999999999999993-0.5142857142857125t0.514285714285716-0.20000000000000284h2.1428571428571423v-2.9471428571428575q-4.842857142857143-0.5357142857142847-8.135714285714286-4.185714285714287t-3.2928571428571436-8.581428571428567q0-4.488571428571429 2.814285714285714-8.014285714285714l-1.161428571428571-1.1828571428571433-2.2528571428571436 2.477142857142855q-0.20285714285714285 0.22285714285714242-0.4928571428571429 0.23428571428571487t-0.5142857142857142-0.16714285714285637l-1.0714285714285712-0.9828571428571422q-0.22142857142857153-0.17857142857142883-0.2328571428571431-0.4800000000000004t0.1900000000000004-0.5257142857142849l2.3428571428571425-2.5671428571428567-2.475714285714286-2.5v2.994285714285713q0 0.3114285714285714-0.20000000000000018 0.5114285714285707t-0.5142857142857142 0.1999999999999993h-1.4285714285714288q-0.3142857142857143 0-0.5142857142857142-0.1999999999999993t-0.19999999999999996-0.5142857142857142v-6.425714285714285q6.661338147750939e-16-0.5800000000000003 0.4257142857142864-1.0042857142857144t1-0.4242857142857144h6.428571428571429q0.31428571428571495 0 0.5142857142857142 0.2t0.1999999999999993 0.5142857142857142v1.4285714285714286q0 0.3114285714285714-0.1999999999999993 0.5114285714285716t-0.5142857142857142 0.20000000000000018h-2.965714285714287l2.3657142857142874 2.391428571428572 1.92-2.097142857142857q0.1999999999999993-0.22285714285714286 0.4914285714285711-0.23428571428571443t0.5142857142857142 0.16714285714285726l1.0714285714285712 0.9828571428571427q0.22142857142857153 0.17857142857142883 0.2328571428571422 0.4800000000000004t-0.1885714285714286 0.5228571428571431l-2.01 2.2085714285714273 1.2714285714285722 1.2500000000000009q3.5285714285714285-2.814285714285715 8.014285714285716-2.814285714285715t8.014285714285712 2.814285714285715l5.689999999999998-5.671428571428572h-2.99285714285714q-0.3114285714285714 0-0.5114285714285707-0.20000000000000018t-0.1999999999999993-0.5142857142857142v-1.4285714285714286z m-10 27.857142857142858q4.12857142857143 0 7.064285714285717-2.935714285714287t2.9357142857142833-7.064285714285713-2.935714285714287-7.064285714285715-7.064285714285713-2.935714285714287-7.064285714285715 2.935714285714285-2.935714285714285 7.064285714285717 2.935714285714287 7.064285714285713 7.064285714285713 2.935714285714287z"></path></svg>