<?xml version="1.0"?><svg xmlns="http://www.w3.org/2000/svg" width="40" height="40" viewBox="0 0 40 40"><path d="m15.714285714285715 16.42857142857143v12.857142857142858q0 0.31428571428571317-0.1999999999999993 0.514285714285716t-0.514285714285716 0.19999999999999574h-1.4285714285714288q-0.31428571428571495 0-0.5142857142857142-0.1999999999999993t-0.1999999999999993-0.514285714285716v-12.857142857142858q0-0.31428571428571317 0.1999999999999993-0.5142857142857142t0.5142857142857142-0.1999999999999975h1.4285714285714288q0.31428571428571495 0 0.5142857142857142 0.1999999999999993t0.1999999999999993 0.514285714285716z m5.714285714285715 0v12.857142857142858q0 0.31428571428571317-0.1999999999999993 0.514285714285716t-0.514285714285716 0.1999999999999993h-1.428571428571427q-0.31428571428571317 0-0.514285714285716-0.1999999999999993t-0.1999999999999993-0.5142857142857196v-12.857142857142858q0-0.31428571428571317 0.1999999999999993-0.5142857142857142t0.5142857142857125-0.1999999999999993h1.428571428571427q0.31428571428571317 0 0.514285714285716 0.1999999999999993t0.1999999999999993 0.5142857142857142z m5.714285714285715 0v12.857142857142858q0 0.31428571428571317-0.1999999999999993 0.514285714285716t-0.514285714285716 0.1999999999999993h-1.428571428571427q-0.31428571428571317 0-0.514285714285716-0.1999999999999993t-0.20000000000000284-0.5142857142857196v-12.857142857142858q0-0.31428571428571317 0.1999999999999993-0.5142857142857142t0.514285714285716-0.1999999999999993h1.428571428571427q0.31428571428571317 0 0.514285714285716 0.1999999999999993t0.1999999999999993 0.5142857142857142z m2.8571428571428577 16.161428571428573v-21.161428571428573h-20.000000000000004v21.161428571428573q0 0.4914285714285711 0.15714285714285658 0.904285714285713t0.32285714285714207 0.6028571428571396 0.23428571428571665 0.1885714285714286h18.571428571428573q0.0671428571428585 0 0.23428571428571487-0.1885714285714286t0.32428571428571473-0.6028571428571396 0.15714285714285836-0.904285714285713z m-15.000000000000004-24.018571428571434h10l-1.071428571428573-2.6114285714285703q-0.15714285714285836-0.20000000000000018-0.379999999999999-0.24571428571428555h-7.0771428571428565q-0.22142857142857153 0.042857142857142705-0.3785714285714299 0.24571428571428555z m20.714285714285715 0.7142857142857153v1.4285714285714288q0 0.31428571428571495-0.20000000000000284 0.5142857142857142t-0.5142857142857125 0.20000000000000107h-2.142857142857139v21.159999999999997q0 1.8528571428571396-1.048571428571428 3.202857142857141t-2.5228571428571485 1.3514285714285776h-18.571428571428573q-1.4714285714285715 0-2.522857142857143-1.307142857142857t-1.0485714285714254-3.1571428571428584v-21.252857142857145h-2.1428571428571432q-0.31428571428571406 1.7763568394002505e-15-0.5142857142857142-0.20285714285714107t-0.20000000000000018-0.5114285714285725v-1.4285714285714288q0-0.3114285714285714 0.20000000000000018-0.5114285714285707t0.5142857142857142-0.20000000000000107h6.897142857142857l1.5628571428571423-3.7285714285714286q0.3342857142857145-0.8257142857142856 1.2057142857142864-1.4057142857142857t1.7628571428571451-0.5799999999999996h7.142857142857142q0.8928571428571423 0 1.7628571428571433 0.5800000000000001t1.2057142857142864 1.4057142857142861l1.5628571428571405 3.7285714285714278h6.897142857142857q0.3142857142857167 0 0.5142857142857125 0.1999999999999993t0.20000000000000284 0.5142857142857142z"></path></svg>