<?xml version="1.0"?><svg viewBox="0 0 40 40" xmlns="http://www.w3.org/2000/svg" height="40" width="40"><path d="m15.9 29v-14.8q0-0.3-0.1-0.5t-0.5-0.2h-1.4q-0.3 0-0.5 0.2t-0.2 0.5v14.8q0 0.3 0.2 0.5t0.5 0.2h1.4q0.3 0 0.5-0.2t0.1-0.5z m5.5 0v-14.8q0-0.3-0.2-0.5t-0.5-0.2h-1.4q-0.3 0-0.5 0.2t-0.2 0.5v14.8q0 0.3 0.2 0.5t0.5 0.2h1.4q0.3 0 0.5-0.2t0.2-0.5z m5.4 0v-14.8q0-0.3-0.2-0.5t-0.5-0.2h-1.4q-0.3 0-0.5 0.2t-0.1 0.5v14.8q0 0.3 0.1 0.5t0.5 0.2h1.4q0.3 0 0.5-0.2t0.2-0.5z m-11.5-20.9h9.4l-1-2.5q-0.1-0.2-0.3-0.2h-6.7q-0.2 0-0.4 0.2z m19.6 0.7v1.3q0 0.3-0.2 0.5t-0.5 0.2h-2v20q0 1.8-1 3t-2.4 1.3h-17.6q-1.4 0-2.4-1.2t-1-3v-20.1h-2q-0.3 0-0.5-0.2t-0.2-0.5v-1.3q0-0.3 0.2-0.5t0.5-0.2h6.5l1.5-3.5q0.3-0.8 1.2-1.4t1.6-0.5h6.8q0.8 0 1.6 0.5t1.2 1.4l1.5 3.5h6.5q0.3 0 0.5 0.2t0.2 0.5z"></path></svg>