<?xml version="1.0"?><svg viewBox="0 0 40 40" xmlns="http://www.w3.org/2000/svg" height="40" width="40"><path d="m8.9 27.4v-12.2q0-0.2-0.2-0.4t-0.4-0.1h-1.1q-0.2 0-0.4 0.1t-0.1 0.4v12.2q0 0.3 0.1 0.4t0.4 0.2h1.1q0.3 0 0.4-0.2t0.2-0.4z m4.4 0v-12.2q0-0.2-0.1-0.4t-0.4-0.1h-1.1q-0.3 0-0.4 0.1t-0.2 0.4v12.2q0 0.3 0.2 0.4t0.4 0.2h1.1q0.2 0 0.4-0.2t0.1-0.4z m4.5 0v-12.2q0-0.2-0.2-0.4t-0.4-0.1h-1.1q-0.2 0-0.4 0.1t-0.1 0.4v12.2q0 0.3 0.1 0.4t0.4 0.2h1.1q0.3 0 0.4-0.2t0.2-0.4z m-9.5-17.2h7.8l-0.8-2q-0.1-0.2-0.3-0.2h-5.5q-0.2 0-0.3 0.2l-0.9 2z m16.1 0.6v1.1q0 0.2-0.1 0.4t-0.4 0.1h-1.7v16.5q0 1.4-0.8 2.5t-2 1h-14.4q-1.1 0-2-1t-0.8-2.4v-16.6h-1.6q-0.3 0-0.4-0.1t-0.2-0.4v-1.1q0-0.3 0.2-0.4t0.4-0.2h5.3l1.2-2.9q0.3-0.6 1-1.1t1.3-0.4h5.6q0.7 0 1.4 0.4t0.9 1.1l1.2 2.9h5.4q0.2 0 0.4 0.2t0.1 0.4z"></path></svg>