<?xml version="1.0"?><svg xmlns="http://www.w3.org/2000/svg" width="40" height="40" viewBox="0 0 40 40"><path d="m36.42857142857143 32.85714285714286q0 0.5799999999999983-0.42428571428571615 1.0042857142857144t-1.0042857142857144 0.42428571428570905h-10.314285714285717q0.024285714285714022 0.38000000000000256 0.13571428571428612 1.952857142857141t0.1114285714285721 2.421428571428571q0 0.5571428571428569-0.3999999999999986 0.9485714285714266t-0.96142857142857 0.3914285714285768h-7.142857142857142q-0.5571428571428569 0-0.9600000000000009-0.3914285714285697t-0.40000000000000036-0.9485714285714266q0-0.8485714285714252 0.10999999999999943-2.421428571428571t0.13571428571428612-1.9528571428571482h-10.314285714285715q-0.5800000000000001 0-1.0042857142857144-0.42428571428571615t-0.42428571428571393-1.0042857142857073 0.4242857142857144-1.0042857142857144l8.971428571428572-8.995714285714289h-5.109999999999999q-0.5800000000000001 0-1.0042857142857144-0.4242857142857126t-0.4242857142857144-1.0042857142857144 0.4242857142857144-1.0042857142857144l8.971428571428572-8.995714285714287h-4.395714285714286q-0.5800000000000001 0-1.0042857142857144-0.4242857142857144t-0.4242857142857144-1.0042857142857144 0.4242857142857144-1.0042857142857144l8.571428571428571-8.571428571428571q0.4242857142857126-0.4242857142857144 1.0042857142857144-0.4242857142857144t1.0042857142857144 0.42428571428571427l8.57142857142857 8.571428571428571q0.42428571428571615 0.4242857142857144 0.42428571428571615 1.0042857142857144t-0.4242857142857126 1.0042857142857144-1.0042857142857144 0.4242857142857144h-4.397142857142857l8.971428571428575 8.995714285714287q0.42571428571428527 0.4242857142857126 0.42571428571428527 1.0042857142857144t-0.42428571428571615 1.0042857142857144-1.0042857142857144 0.4242857142857126h-5.111428571428572l8.971428571428572 8.995714285714286q0.42571428571428527 0.4242857142857126 0.42571428571428527 1.004285714285711z"></path></svg>