<?xml version="1.0"?><svg viewBox="0 0 40 40" xmlns="http://www.w3.org/2000/svg" height="40" width="40"><path d="m35.5 31.1q0 0.5-0.4 0.9t-0.9 0.4h-9.8q0.1 0.4 0.2 1.8t0.1 2.3q0 0.6-0.4 0.9t-0.9 0.4h-6.8q-0.5 0-0.9-0.4t-0.4-0.9q0-0.8 0.1-2.3t0.2-1.8h-9.8q-0.5 0-0.9-0.4t-0.4-0.9 0.4-1l8.5-8.5h-4.9q-0.5 0-0.9-0.4t-0.4-0.9 0.4-1l8.5-8.5h-4.2q-0.5 0-1-0.4t-0.4-0.9 0.4-1l8.2-8.1q0.4-0.4 0.9-0.4t0.9 0.4l8.2 8.1q0.4 0.4 0.4 1t-0.4 0.9-1 0.4h-4.2l8.5 8.5q0.4 0.4 0.4 1t-0.4 0.9-0.9 0.4h-4.9l8.5 8.5q0.4 0.4 0.4 1z"></path></svg>