<?xml version="1.0"?><svg viewBox="0 0 40 40" xmlns="http://www.w3.org/2000/svg" height="40" width="40"><path d="m11.3 20.8q0 0.7-0.5 1.2t-1.1 0.5q-0.7 0-1.2-0.5t-0.4-1.2q0-0.6 0.4-1.1t1.2-0.5q0.6 0 1.1 0.5t0.5 1.1z m19.6-1.1q0.4 0.5 0.4 1.1t-0.4 1.2q-0.5 0.5-1.2 0.5t-1.1-0.5q-0.5-0.5-0.5-1.2t0.5-1.1q0.4-0.5 1.1-0.5t1.2 0.5z m-17.6 1.1q0-1.3-1-2.3t-2.4-1q-1.4 0-2.3 1t-1 2.3q0 1.4 1 2.4t2.3 1q1.4 0 2.4-1t1-2.4z m19 2.4q1-1 1-2.4t-1-2.3q-1-1-2.4-1-1.3 0-2.3 1t-1 2.3q0 1.4 1 2.4t2.3 1q1.4 0 2.4-1z m-17.5-2.4q0 2.1-1.5 3.5t-3.4 1.4q-2 0-3.4-1.4t-1.4-3.5q0-1.9 1.4-3.4t3.4-1.4q2 0 3.4 1.4t1.5 3.4z m18.6-3.4q1.4 1.4 1.4 3.4t-1.4 3.4q-1.4 1.5-3.5 1.5-1.9 0-3.4-1.5t-1.4-3.4q0-2 1.4-3.4t3.4-1.4q2.1 0 3.5 1.4z m-17.7 9.2q2.4-2.4 2.4-5.7t-2.4-5.7q-2.3-2.3-5.7-2.3-2.1 0-4 1t-2.9 3q-1.1 1.8-1.1 4t1.1 4q1.1 1.9 2.9 2.9t4 1.1q3.4 0 5.7-2.3z m14-15.7q-4.5-1.9-9.7-1.9-5.5 0-9.9 1.9 2 0 3.8 0.8t3.2 2.1q1.3 1.4 2.1 3.2t0.8 3.9q0-2 0.8-3.8t2-3.2q1.3-1.3 3.1-2.1t3.8-0.9z m5.9 15.7q2.4-2.4 2.4-5.7t-2.4-5.7q-2.3-2.3-5.6-2.3t-5.7 2.3q-2.4 2.4-2.4 5.7t2.4 5.7q2.3 2.3 5.7 2.3t5.6-2.3z m-2.2-15.5h6.6q-0.8 0.8-1.3 1.9t-0.7 2q1.9 2.7 1.9 5.9 0 2.7-1.3 5t-3.7 3.6q-2.2 1.3-4.9 1.3-2.3 0-4.4-0.9t-3.4-2.7q-0.8 0.9-2.2 3.1-0.2-0.4-0.9-1.5t-1.3-1.6q-1.4 1.7-3.4 2.7t-4.4 0.9q-2.7 0-4.9-1.3t-3.7-3.6q-1.3-2.3-1.3-5 0-3.2 1.9-5.9-0.2-0.9-0.7-2t-1.3-1.9h6.3q2.6-1.8 6.2-2.8t7.5-0.9q3.9 0 7.3 0.9t6.1 2.8z"></path></svg>