<?xml version="1.0"?><svg xmlns="http://www.w3.org/2000/svg" width="40" height="40" viewBox="0 0 40 40"><path d="m11.302222222222223 21.753333333333334q0 0.6777777777777771-0.47777777777777786 1.155555555555555t-1.1366666666666667 0.47777777777777786q-0.6777777777777771 0-1.155555555555555-0.47777777777777786t-0.47777777777777786-1.155555555555555q0-0.6600000000000001 0.47777777777777786-1.1366666666666667t1.155555555555555-0.47777777777777786q0.6588888888888889 0 1.1355555555555554 0.47777777777777786t0.47777777777777786 1.1366666666666667z m20.033333333333335-0.01666666666666572q0 0.6777777777777771-0.47777777777777786 1.155555555555555t-1.1533333333333324 0.47777777777777786-1.155555555555555-0.47777777777777786-0.47777777777777786-1.155555555555555 0.47777777777777786-1.1444444444444457 1.155555555555555-0.46999999999999886 1.155555555555555 0.4688888888888876 0.47777777777777786 1.1444444444444457z m-18.055555555555557 0.01666666666666572q0-1.3711111111111123-0.9800000000000004-2.3611111111111107t-2.370000000000001-0.9888888888888872-2.37 0.9800000000000004-0.9811111111111108 2.370000000000001 0.9822222222222221 2.370000000000001 2.37 0.982222222222223 2.370000000000001-0.9811111111111117 0.9811111111111117-2.3688888888888897z m20.01888888888889-0.01666666666666572q0-1.3888888888888893-0.9822222222222194-2.370000000000001t-2.370000000000001-0.9811111111111117q-1.3711111111111123 0-2.3611111111111107 0.9811111111111117t-0.9888888888888872 2.370000000000001 0.9800000000000004 2.370000000000001 2.370000000000001 0.9811111111111117 2.3699999999999974-0.982222222222223 0.9811111111111117-2.370000000000001z m-18.544444444444448 0.01666666666666572q0 2.014444444444443-1.413333333333334 3.4288888888888884t-3.4111111111111114 1.4144444444444453q-2.014444444444445 0-3.4288888888888884-1.4222222222222207t-1.4144444444444444-3.4222222222222243 1.4222222222222225-3.4111111111111114 3.419999999999999-1.413333333333334 3.4111111111111114 1.4144444444444453 1.4144444444444453 3.4111111111111114z m20.036666666666665-0.01666666666666572q0 1.9966666666666661-1.4144444444444417 3.4111111111111114t-3.4288888888888884 1.4144444444444453q-1.9966666666666661 0-3.4111111111111114-1.4144444444444453t-1.4144444444444453-3.4111111111111114 1.4155555555555566-3.4111111111111114 3.4111111111111114-1.4144444444444453q2.014444444444443 0 3.428888888888892 1.4144444444444453t1.4144444444444417 3.4111111111111114z m-16.736666666666668 0.051111111111111995q0-3.3166666666666664-2.352222222222222-5.669999999999998t-5.668888888888883-2.3511111111111145q-2.1688888888888886 0-4.008888888888889 1.0777777777777775t-2.9166666666666656 2.9222222222222243-1.077777777777778 4.018888888888888 1.0777777777777775 4.017777777777777 2.916666666666667 2.9255555555555546 4.011111111111111 1.0755555555555567q3.3144444444444456 0 5.666666666666666-2.3522222222222204t2.3533333333333353-5.666666666666668z m11.597777777777779-9.94888888888889q-4.409999999999993-1.9255555555555564-9.652222222222218-1.9255555555555564-5.536666666666665 0-9.946666666666667 1.9111111111111114 2.0311111111111106 0 3.8711111111111105 0.7888888888888896t3.1688888888888904 2.126666666666667 2.1177777777777784 3.177777777777777 0.7888888888888879 3.870000000000001q0-1.9977777777777774 0.7555555555555564-3.81111111111111t2.0500000000000007-3.133333333333333 3.081111111111113-2.1366666666666667 3.7666666666666657-0.8666666666666671z m8.315555555555552 9.947777777777778q0-3.3166666666666664-2.3444444444444414-5.670000000000002t-5.656666666666663-2.3499999999999996-5.669999999999998 2.352222222222222-2.352222222222224 5.66888888888889 2.352222222222224 5.666666666666668 5.66888888888889 2.3533333333333317 5.658888888888892-2.352222222222224 2.3444444444444414-5.666666666666668z m-4.617777777777775-9.826666666666666h6.650000000000006q-0.7644444444444431 0.8855555555555554-1.3022222222222197 1.988888888888889t-0.6944444444444429 1.9866666666666664q1.9111111111111114 2.622222222222222 1.9111111111111114 5.851111111111111 0 2.7088888888888896-1.3377777777777808 5t-3.6300000000000026 3.620000000000001-4.982222222222223 1.3277777777777793q-2.31111111111111 0-4.324444444444445-0.9722222222222214t-3.4033333333333324-2.6911111111111126q-0.8155555555555551 0.9722222222222214-2.240000000000002 3.107777777777777-0.19222222222222385-0.3822222222222216-0.9299999999999997-1.4333333333333336t-1.2888888888888843-1.6877777777777823q-1.3888888888888893 1.7199999999999989-3.4111111111111114 2.6999999999999993t-4.333333333333332 0.982222222222223q-2.688888888888889 0-4.981111111111111-1.3277777777777793t-3.6300000000000017-3.6233333333333313-1.3333333333333337-5q9.71445146547012e-17-3.227777777777778 1.9111111111111112-5.85-0.1577777777777778-0.8855555555555554-0.6955555555555555-1.988888888888889t-1.3044444444444445-1.9855555555555533h6.336666666666667q2.5855555555555556-1.7377777777777776 6.163333333333333-2.71777777777778t7.5-0.9800000000000004q3.8888888888888893 0 7.308888888888887 0.9711111111111119t6.041111111111114 2.7255555555555553z"></path></svg>