<?xml version="1.0"?><svg xmlns="http://www.w3.org/2000/svg" width="40" height="40" viewBox="0 0 40 40"><path d="m13.793103448275863 31.03448275862069q0-1.120000000000001-0.8193103448275867-1.939310344827586t-1.939310344827586-0.8193103448275849-1.939310344827586 0.8193103448275849-0.8193103448275867 1.939310344827586 0.8193103448275867 1.9393103448275895 1.939310344827586 0.8193103448275849 1.939310344827586-0.8193103448275849 0.8193103448275867-1.9393103448275895z m-8.275862068965518-11.03448275862069h8.275862068965518v-5.517241379310345h-3.406896551724138q-0.27862068965517217 0-0.4731034482758627 0.19310344827586157l-4.2027586206896554 4.206896551724141q-0.19310344827586245 0.19310344827586334-0.19310344827586245 0.4744827586206881v0.6482758620689637z m27.586206896551726 11.03448275862069q0-1.120000000000001-0.8193103448275849-1.939310344827586t-1.9393103448275895-0.8193103448275849-1.939310344827586 0.8193103448275849-0.8193103448275849 1.939310344827586 0.8193103448275849 1.9393103448275895 1.939310344827586 0.8193103448275849 1.9393103448275895-0.8193103448275849 0.8193103448275849-1.9393103448275895z m5.517241379310342-23.448275862068968v22.06896551724138q0 0.32275862068965466-0.0868965517241378 0.5710344827586198t-0.289655172413795 0.3999999999999986-0.3586206896551758 0.24827586206896513-0.5048275862068934 0.12827586206896413-0.48275862068965836 0.04137931034482634-0.551724137931032 0-0.4841379310344749-0.009655172413786772q0 2.2841379310344863-1.6179310344827584 3.900689655172414t-3.8993103448275903 1.6165517241379348-3.9034482758620683-1.6165517241379277-1.6137931034482733-3.900689655172421h-8.275862068965516q0 2.2841379310344863-1.6179310344827584 3.900689655172414t-3.8993103448275903 1.6165517241379348-3.903448275862069-1.6165517241379277-1.613793103448276-3.900689655172421h-1.3793103448275863q-0.06620689655172374 0-0.48689655172413815 0.011034482758621067t-0.5489655172413794 0-0.48689655172413815-0.04137931034482634-0.5062068965517241-0.13103448275862206-0.3558620689655172-0.24827586206896513-0.289655172413793-0.3999999999999986-0.0882758620689652-0.5696551724137926q0-0.5599999999999987 0.4096551724137931-0.9696551724137947t0.9710344827586206-0.40965517241379246v-6.896551724137932q0-0.1724137931034484-0.011034482758620623-0.7544827586206893t0-0.8193103448275849 0.05517241379310356-0.7448275862068954 0.13793103448275845-0.7972413793103463 0.30344827586206913-0.6579310344827576 0.4855172413793105-0.6482758620689673l4.267586206896552-4.266206896551726q0.40965517241379334-0.40965517241379246 1.089655172413793-0.6896551724137936t1.257931034482759-0.2772413793103432h3.4510344827586206v-4.13793103448276q0-0.5613793103448277 0.40827586206896527-0.971034482758621t0.9710344827586201-0.4082758620689644h22.068965517241377q0.5586206896551715 0 0.968275862068964 0.40827586206896527t0.4110344827586232 0.9710344827586201z"></path></svg>