<?xml version="1.0"?><svg viewBox="0 0 40 40" xmlns="http://www.w3.org/2000/svg" height="40" width="40"><path d="m14.6 29.7q0-1.1-0.8-1.9t-1.9-0.8-1.9 0.8-0.8 1.9 0.8 1.9 1.9 0.8 1.9-0.8 0.8-1.9z m-8.1-10.8h8.1v-5.4h-3.3q-0.3 0-0.5 0.2l-4.1 4.1q-0.2 0.2-0.2 0.5v0.6z m27 10.8q0-1.1-0.8-1.9t-1.9-0.8-1.9 0.8-0.8 1.9 0.8 1.9 1.9 0.8 1.9-0.8 0.8-1.9z m5.4-22.9v21.6q0 0.3-0.1 0.5t-0.3 0.4-0.3 0.2-0.5 0.2-0.5 0-0.5 0-0.5 0q0 2.2-1.6 3.8t-3.8 1.6-3.8-1.6-1.6-3.8h-8.1q0 2.2-1.6 3.8t-3.8 1.6-3.8-1.6-1.6-3.8h-1.4q0 0-0.4 0t-0.6 0-0.4 0-0.5-0.2-0.4-0.2-0.3-0.4-0.1-0.5q0-0.6 0.4-1t1-0.4v-6.7q0-0.2 0-0.8t0-0.8 0-0.7 0.2-0.8 0.3-0.6 0.4-0.7l4.2-4.1q0.4-0.5 1.1-0.7t1.2-0.3h3.4v-4q0-0.6 0.4-1t0.9-0.4h21.7q0.5 0 0.9 0.4t0.4 1z"></path></svg>