<?xml version="1.0"?><svg xmlns="http://www.w3.org/2000/svg" width="40" height="40" viewBox="0 0 40 40"><path d="m10 29.285714285714285v4.285714285714285q0 0.3142857142857167-0.1999999999999993 0.5142857142857125t-0.5142857142857142 0.20000000000000284h-4.285714285714286q-0.31428571428571406 0-0.5142857142857142-0.20000000000000284t-0.20000000000000107-0.5142857142857125v-4.285714285714285q0-0.31428571428571317 0.20000000000000018-0.5142857142857125t0.5142857142857142-0.1999999999999993h4.285714285714285q0.31428571428571495 0 0.5142857142857142 0.1999999999999993t0.1999999999999993 0.5142857142857125z m-4.285714285714286-8.57142857142857v4.285714285714285q0 0.31428571428571317-0.20000000000000018 0.5142857142857125t-0.5142857142857142 0.20000000000000284h-4.285714285714286q-0.3142857142857143 0-0.5142857142857142-0.1999999999999993t-0.20000000000000018-0.514285714285716v-4.285714285714285q0-0.31428571428571317 0.2-0.5142857142857125t0.5142857142857142-0.20000000000000284h4.285714285714286q0.31428571428571406 0 0.5142857142857142 0.1999999999999993t0.20000000000000018 0.514285714285716z m12.857142857142858 8.57142857142857v4.285714285714285q0 0.3142857142857167-0.1999999999999993 0.5142857142857125t-0.5142857142857125 0.20000000000000284h-4.285714285714285q-0.31428571428571495 0-0.5142857142857142-0.20000000000000284t-0.20000000000000462-0.5142857142857125v-4.285714285714285q0-0.31428571428571317 0.1999999999999993-0.5142857142857125t0.5142857142857142-0.1999999999999993h4.2857142857142865q0.31428571428571317 0 0.514285714285716 0.1999999999999993t0.1999999999999993 0.5142857142857125z m-4.285714285714285-8.57142857142857v4.285714285714285q0 0.31428571428571317-0.1999999999999993 0.5142857142857125t-0.5142857142857178 0.20000000000000284h-4.2857142857142865q-0.31428571428571495 0-0.5142857142857142-0.1999999999999993t-0.1999999999999993-0.514285714285716v-4.285714285714285q0-0.31428571428571317 0.1999999999999993-0.5142857142857125t0.514285714285716-0.20000000000000284h4.2857142857142865q0.31428571428571495 0 0.5142857142857142 0.1999999999999993t0.1999999999999993 0.514285714285716z m-12.814285714285717-3.571428571428573q-0.6242857142857143 0-1.0471428571428572-0.4242857142857126t-0.4242857142857144-1.0285714285714285v-2.8757142857142863h11.471428571428572v2.880000000000001q0 0.6028571428571432-0.4228571428571435 1.0285714285714285t-1.0285714285714285 0.4228571428571435h-8.545714285714284z m25.67142857142857 12.142857142857142v4.285714285714285q0 0.3142857142857167-0.1999999999999993 0.5142857142857125t-0.5142857142857125 0.20000000000000284h-4.285714285714285q-0.31428571428571317 0-0.5142857142857125-0.20000000000000284t-0.20000000000000284-0.5142857142857125v-4.285714285714285q0-0.31428571428571317 0.1999999999999993-0.5142857142857125t0.514285714285716-0.1999999999999993h4.285714285714285q0.31428571428571317 0 0.5142857142857125 0.1999999999999993t0.1999999999999993 0.5142857142857125z m-4.285714285714285-8.57142857142857v4.285714285714285q0 0.31428571428571317-0.1999999999999993 0.5142857142857125t-0.5142857142857125 0.1999999999999993h-4.285714285714285q-0.31428571428571317 0-0.5142857142857125-0.1999999999999993t-0.2000000000000064-0.5142857142857125v-4.285714285714285q0-0.31428571428571317 0.1999999999999993-0.5142857142857125t0.5142857142857125-0.1999999999999993h4.285714285714285q0.31428571428571317 0 0.5142857142857125 0.1999999999999993t0.1999999999999993 0.5142857142857125z m12.857142857142858 8.57142857142857v4.285714285714285q0 0.3142857142857167-0.20000000000000284 0.5142857142857125t-0.5142857142857125 0.20000000000000284h-4.285714285714285q-0.31428571428571317 0-0.5142857142857125-0.20000000000000284t-0.20000000000000284-0.5142857142857125v-4.285714285714285q0-0.31428571428571317 0.1999999999999993-0.5142857142857125t0.514285714285716-0.1999999999999993h4.285714285714285q0.3142857142857167 0 0.5142857142857125 0.1999999999999993t0.20000000000000284 0.5142857142857125z m-4.285714285714285-8.57142857142857v4.285714285714285q0 0.31428571428571317-0.1999999999999993 0.5142857142857125t-0.514285714285716 0.1999999999999993h-4.285714285714285q-0.31428571428571317 0-0.5142857142857125-0.1999999999999993t-0.20000000000000284-0.5142857142857125v-4.285714285714285q0-0.31428571428571317 0.1999999999999993-0.5142857142857125t0.514285714285716-0.1999999999999993h4.285714285714285q0.31428571428571317 0 0.5142857142857125 0.1999999999999993t0.1999999999999993 0.5142857142857125z m8.57142857142857-9.107142857142858v0.28999999999999915h-11.471428571428572v-0.22285714285714242q0-2.321428571428571-8.528571428571428-2.2771428571428576-8.528571428571428 0.02285714285714313-8.528571428571428 2.2771428571428576v0.22285714285714242h-11.471428571428572v-0.28999999999999915q0-0.3800000000000008 0.19-0.9600000000000009t0.7571428571428573-1.4285714285714288 1.4628571428571429-1.685714285714286 2.467142857142857-1.6971428571428566 3.571428571428571-1.5071428571428571 5-1.06 6.551428571428572-0.4142857142857137 6.539999999999999 0.41428571428571415 5 1.0600000000000005 3.5828571428571436 1.5071428571428571 2.4671428571428606 1.6971428571428566 1.46142857142857 1.685714285714285 0.7571428571428598 1.4285714285714288 0.19142857142857395 0.9600000000000009z m0 9.107142857142858v4.285714285714285q0 0.31428571428571317-0.20000000000000284 0.5142857142857125t-0.5142857142857125 0.1999999999999993h-4.285714285714285q-0.3142857142857167 0-0.5142857142857125-0.1999999999999993t-0.20000000000000284-0.5142857142857125v-4.285714285714285q0-0.31428571428571317 0.20000000000000284-0.5142857142857125t0.5142857142857125-0.1999999999999993h4.285714285714285q0.3142857142857167 0 0.5142857142857125 0.1999999999999993t0.20000000000000284 0.5142857142857125z m0-7.9v2.878571428571428q0 0.6028571428571432-0.42428571428571615 1.0285714285714285t-1.028571428571425 0.4228571428571435h-8.57142857142857q-0.6000000000000014 0-1.0257142857142867-0.4228571428571435t-0.4242857142857126-1.0285714285714285v-2.878571428571428h11.471428571428572z"></path></svg>