<?xml version="1.0"?><svg viewBox="0 0 40 40" xmlns="http://www.w3.org/2000/svg" height="40" width="40"><path d="m7.8 26.3v3.4q0 0.2-0.2 0.4t-0.4 0.1h-3.3q-0.3 0-0.4-0.1t-0.2-0.4v-3.4q0-0.2 0.2-0.4t0.4-0.1h3.3q0.3 0 0.4 0.1t0.2 0.4z m-3.4-6.6v3.3q0 0.2-0.1 0.4t-0.4 0.1h-3.3q-0.3 0-0.4-0.1t-0.2-0.4v-3.3q0-0.3 0.2-0.4t0.4-0.2h3.3q0.2 0 0.4 0.2t0.1 0.4z m10 6.6v3.4q0 0.2-0.1 0.4t-0.4 0.1h-3.3q-0.3 0-0.4-0.1t-0.2-0.4v-3.4q0-0.2 0.2-0.4t0.4-0.1h3.3q0.2 0 0.4 0.1t0.1 0.4z m-3.3-6.6v3.3q0 0.2-0.1 0.4t-0.4 0.1h-3.4q-0.2 0-0.4-0.1t-0.1-0.4v-3.3q0-0.3 0.1-0.4t0.4-0.2h3.4q0.2 0 0.4 0.2t0.1 0.4z m-10-2.8q-0.4 0-0.8-0.4t-0.3-0.8v-2.2h8.9v2.2q0 0.5-0.3 0.8t-0.8 0.4h-6.7z m20 9.4v3.4q0 0.2-0.1 0.4t-0.4 0.1h-3.4q-0.2 0-0.4-0.1t-0.1-0.4v-3.4q0-0.2 0.1-0.4t0.4-0.1h3.4q0.2 0 0.4 0.1t0.1 0.4z m-3.3-6.6v3.3q0 0.2-0.2 0.4t-0.4 0.1h-3.3q-0.3 0-0.4-0.1t-0.2-0.4v-3.3q0-0.3 0.2-0.4t0.4-0.2h3.3q0.3 0 0.4 0.2t0.2 0.4z m10 6.6v3.4q0 0.2-0.2 0.4t-0.4 0.1h-3.3q-0.3 0-0.4-0.1t-0.2-0.4v-3.4q0-0.2 0.2-0.4t0.4-0.1h3.3q0.3 0 0.4 0.1t0.2 0.4z m-3.4-6.6v3.3q0 0.2-0.1 0.4t-0.4 0.1h-3.3q-0.3 0-0.4-0.1t-0.2-0.4v-3.3q0-0.3 0.2-0.4t0.4-0.2h3.3q0.2 0 0.4 0.2t0.1 0.4z m6.7-7.1v0.2h-8.9v-0.2q0-1.8-6.6-1.8-6.7 0.1-6.7 1.8v0.2h-8.9v-0.2q0-0.3 0.1-0.8t0.6-1.1q0.5-0.6 1.2-1.3t1.9-1.3q1.2-0.7 2.8-1.2t3.9-0.8q2.3-0.3 5.1-0.3t5 0.3q2.4 0.3 3.9 0.8t2.8 1.2q1.2 0.6 1.9 1.3t1.2 1.3q0.4 0.7 0.6 1.1t0.1 0.8z m0 7.1v3.3q0 0.2-0.1 0.4t-0.4 0.1h-3.4q-0.2 0-0.4-0.1t-0.1-0.4v-3.3q0-0.3 0.1-0.4t0.4-0.2h3.4q0.2 0 0.4 0.2t0.1 0.4z m0-6.2v2.2q0 0.5-0.3 0.8t-0.8 0.4h-6.7q-0.5 0-0.8-0.4t-0.3-0.8v-2.2h8.9z"></path></svg>