<?xml version="1.0"?><svg viewBox="0 0 40 40" xmlns="http://www.w3.org/2000/svg" height="40" width="40"><path d="m19.7 28.9l-1.1-3.2q-0.7 0.4-1.7 0.4-0.7 0-1.1-0.2t-0.7-0.5q-0.2-0.4-0.3-0.7t-0.1-0.8v-6.9h4.5v-3.4h-4.5v-5.6h-3.2q-0.2 0-0.2 0.2-0.1 0.7-0.3 1.5t-0.7 1.6q-0.4 0.9-1.3 1.7t-2.1 1.1v2.9h2.3v7.3q0 1 0.4 2t1.1 1.9q0.8 0.9 2.1 1.5t3.1 0.5q1.2 0 2.3-0.4t1.5-0.9z m7-18.1v16.6q0 2.1-1.5 3.6t-3.5 1.4h-16.7q-2.1 0-3.5-1.4t-1.5-3.6v-16.6q0-2.1 1.5-3.6t3.5-1.4h16.7q2 0 3.5 1.4t1.5 3.6z"></path></svg>