<?xml version="1.0"?><svg xmlns="http://www.w3.org/2000/svg" width="40" height="40" viewBox="0 0 40 40"><path d="m21.42857142857143 18.482857142857146v12.945714285714285q0 2.3228571428571456-1.6971428571428575 4.018571428571427t-4.017142857142858 1.6957142857142884-4.017142857142858-1.6957142857142884-1.6971428571428575-4.018571428571427q0-0.5785714285714292 0.4242857142857144-1.0028571428571418t1.0042857142857144-0.4257142857142888 1.0042857142857144 0.42571428571428527 0.4242857142857144 1.0028571428571453q0 1.1171428571428592 0.8714285714285719 1.9885714285714258t1.9857142857142858 0.8714285714285737 1.985714285714284-0.8714285714285737 0.8714285714285701-1.985714285714284v-12.94857142857143q0.7371428571428567-0.24571428571428555 1.428571428571427-0.24571428571428555t1.428571428571427 0.24571428571428555z m17.14285714285714 0.6000000000000014q0 0.2914285714285718-0.21142857142856997 0.5042857142857144t-0.5028571428571453 0.2142857142857153q-0.24571428571428555 0-0.5142857142857125-0.2242857142857133-1.0928571428571416-1.0285714285714285-2.0742857142857147-1.5399999999999991t-2.277142857142856-0.514285714285716q-1.5171428571428578 0-2.8571428571428577 0.8285714285714292t-2.3000000000000007 2.1642857142857146q-0.15428571428571303 0.2228571428571442-0.3885714285714279 0.6257142857142846t-0.32428571428571473 0.5357142857142847q-0.24571428571428555 0.379999999999999-0.6257142857142846 0.379999999999999-0.3999999999999986 0-0.6471428571428568-0.38142857142857167-0.08999999999999986-0.13428571428571345-0.32428571428571473-0.5357142857142847t-0.39000000000000057-0.6257142857142846q-0.9600000000000009-1.3399999999999999-2.28857142857143-2.1657142857142873t-2.8457142857142834-0.8257142857142874-2.845714285714287 0.8257142857142874-2.2885714285714283 2.1657142857142873q-0.15714285714285658 0.2228571428571442-0.39000000000000057 0.6257142857142846t-0.32428571428571473 0.5357142857142847q-0.24571428571428555 0.379999999999999-0.6471428571428568 0.379999999999999-0.3800000000000008 0-0.6257142857142863-0.38142857142857167-0.08999999999999986-0.13428571428571345-0.32428571428571473-0.5357142857142847t-0.39000000000000057-0.6257142857142846q-0.9600000000000009-1.3399999999999999-2.3000000000000007-2.1657142857142873t-2.8571428571428577-0.8257142857142874q-1.2928571428571427 0-2.275714285714286 0.5142857142857125t-2.07428571428571 1.53857142857143q-0.2685714285714287 0.2228571428571442-0.5142857142857142 0.2228571428571442-0.29000000000000004 0-0.5028571428571429-0.2142857142857153t-0.2114285714285713-0.4971428571428582q0-0.11428571428571388 0.02285714285714291-0.15714285714285836 1.004285714285714-4.085714285714285 3.85-7.131428571428572t6.652857142857142-4.564285714285714 8.045714285714286-1.518571428571427q3.1257142857142846 0 6.12857142857143 0.8942857142857141t5.5 2.5342857142857156 4.342857142857145 4.171428571428573 2.578571428571429 5.614285714285714q0.022857142857141355 0.04571428571428626 0.022857142857141355 0.15714285714285836z m-17.14285714285714-16.22571428571429v2.185714285714285q-0.937142857142856-0.042857142857142705-1.428571428571427-0.042857142857142705t-1.428571428571427 0.042857142857142705v-2.1857142857142855q0-0.5800000000000001 0.4242857142857126-1.0042857142857142t1.004285714285711-0.4242857142857144 1.0042857142857144 0.42428571428571416 0.42428571428571615 1.0042857142857144z"></path></svg>