<?xml version="1.0"?><svg viewBox="0 0 40 40" xmlns="http://www.w3.org/2000/svg" height="40" width="40"><path d="m15.6 17.9v10.1q0 1.8-1.4 3.1t-3.1 1.3q-1.8 0-3.1-1.3t-1.3-3.1q0-0.5 0.3-0.8t0.8-0.3q0.4 0 0.8 0.3t0.3 0.8q0 0.9 0.7 1.5t1.5 0.7q0.9 0 1.6-0.7t0.6-1.5v-10.1q0.6-0.2 1.1-0.2t1.2 0.2z m13.3 0.5q0 0.2-0.2 0.4t-0.4 0.1q-0.2 0-0.4-0.1-0.8-0.8-1.6-1.2t-1.8-0.4q-1.1 0-2.2 0.6t-1.8 1.7q-0.1 0.2-0.3 0.5t-0.2 0.4q-0.2 0.3-0.5 0.3-0.3 0-0.5-0.3-0.1-0.1-0.3-0.4t-0.3-0.5q-0.7-1-1.7-1.7t-2.3-0.6q-1.1 0-2.2 0.6t-1.7 1.7q-0.2 0.2-0.4 0.5t-0.2 0.4q-0.2 0.3-0.5 0.3-0.3 0-0.5-0.3-0.1-0.1-0.2-0.4t-0.3-0.5q-0.8-1-1.8-1.7t-2.3-0.6q-1 0-1.7 0.4t-1.6 1.2q-0.3 0.1-0.4 0.1-0.3 0-0.4-0.1t-0.2-0.4q0-0.1 0-0.1 0.8-3.2 3-5.6t5.2-3.5q2.9-1.2 6.2-1.2 2.5 0 4.8 0.7t4.3 2q1.9 1.2 3.4 3.2t2 4.4q0 0 0 0.1z m-13.3-12.6v1.7q-0.8-0.1-1.2-0.1t-1.1 0.1v-1.7q0-0.5 0.4-0.8t0.7-0.3q0.5 0 0.8 0.3t0.4 0.8z"></path></svg>