<?xml version="1.0"?><svg xmlns="http://www.w3.org/2000/svg" width="40" height="40" viewBox="0 0 40 40"><path d="m3.928571428571429 4.977142857142857q-0.8257142857142856-0.042857142857142705-1.0042857142857144-0.08999999999999986l-0.06714285714285717-1.9628571428571426q0.29000000000000004-0.022857142857142687 0.8928571428571428-0.022857142857142687 1.3399999999999999 0 2.5 0.08999999999999986 2.9471428571428575 0.15714285714285703 3.7057142857142864 0.15714285714285703 1.918571428571429 0 3.748571428571429-0.0685714285714285l3.257142857142858-0.11142857142857121q1.2514285714285727 0 1.9214285714285708-0.042857142857142705l-0.024285714285714022 0.3114285714285714 0.04285714285714448 1.4285714285714288v0.20000000000000018q-1.3385714285714272 0.20285714285714285-2.765714285714285 0.20285714285714285-1.3399999999999999 0-1.7628571428571433 0.5571428571428569-0.28999999999999915 0.31428571428571406-0.28999999999999915 2.9485714285714284 0 0.2914285714285718 0.011428571428570677 0.7285714285714278t0.011428571428570677 0.5671428571428567l0.02285714285714313 5.11142857142857 0.31428571428571495 6.25q0.13285714285714256 2.767142857142858 1.137142857142857 4.508571428571429 0.781428571428572 1.3171428571428585 2.142857142857144 2.0528571428571425 1.9642857142857153 1.048571428571428 3.951428571428572 1.048571428571428 2.321428571428573 0 4.262857142857143-0.6257142857142846 1.25-0.4028571428571439 2.210000000000001-1.1400000000000006 1.071428571428573-0.8028571428571425 1.451428571428572-1.428571428571427 0.8042857142857152-1.25 1.1857142857142868-2.5428571428571445 0.4671428571428571-1.6314285714285717 0.4671428571428571-5.114285714285714 0-1.7614285714285707-0.07857142857142918-2.8571428571428577t-0.24428571428572354-2.7328571428571404-0.3000000000000007-3.5614285714285714l-0.09142857142857252-1.3171428571428567q-0.11142857142856855-1.4957142857142864-0.5371428571428538-1.9642857142857144-0.7571428571428562-0.7814285714285711-1.717142857142857-0.7571428571428571l-2.232857142857142 0.042857142857142705-0.31428571428571317-0.06714285714285673 0.047142857142851824-1.9185714285714295h1.8757142857142846l4.575714285714287 0.22142857142857153q1.6971428571428575 0.06714285714285717 4.375714285714288-0.22285714285714286l0.3999999999999986 0.042857142857142705q0.13571428571428612 0.8485714285714288 0.13571428571428612 1.1385714285714288 0 0.15714285714285747-0.08857142857142719 0.6914285714285713-1.0042857142857144 0.2685714285714287-1.875714285714288 0.2914285714285718-1.6285714285714263 0.24571428571428555-1.7628571428571433 0.3799999999999999-0.33285714285714363 0.3342857142857145-0.33285714285714363 0.9142857142857146 0 0.15714285714285747 0.032857142857139365 0.6042857142857141t0.032857142857139365 0.6914285714285713q0.1785714285714306 0.4242857142857135 0.4914285714285711 8.84 0.134285714285717 4.352857142857143-0.33428571428571274 6.785714285714285-0.33428571428571274 1.6971428571428575-0.914285714285711 2.722857142857144-0.8500000000000014 1.4528571428571446-2.5 2.747142857142858-1.6757142857142853 1.2714285714285722-4.064285714285717 1.985714285714284-2.4328571428571415 0.7385714285714293-5.69142857142857 0.7385714285714293-3.7285714285714278 0-6.34-1.0285714285714285-2.6571428571428584-1.0471428571428554-3.9957142857142856-2.7214285714285715-1.362857142857143-1.6971428571428575-1.854285714285714-4.352857142857143-0.35714285714285676-1.7857142857142847-0.35714285714285676-5.289999999999999v-7.434285714285714q0-4.1971428571428575-0.3799999999999999-4.7542857142857144-0.5571428571428569-0.8028571428571425-3.2814285714285716-0.8714285714285719z m33.214285714285715 31.451428571428572v-1.4285714285714306q0-0.3142857142857167-0.20000000000000284-0.5142857142857125t-0.5142857142857125-0.20000000000000284h-32.85714285714286q-0.3142857142857123 0-0.514285714285712 0.20000000000000284t-0.20000000000000018 0.5142857142857125v1.4285714285714306q0 0.3142857142857167 0.20000000000000018 0.5142857142857125t0.5142857142857142 0.20000000000000284h32.85714285714286q0.3142857142857167 0 0.5142857142857125-0.20000000000000284t0.20000000000000284-0.5142857142857125z"></path></svg>