<?xml version="1.0"?><svg viewBox="0 0 40 40" xmlns="http://www.w3.org/2000/svg" height="40" width="40"><path d="m4.3 4.7q-0.8 0-1-0.1l0-1.8q0.3-0.1 0.8-0.1 1.3 0 2.4 0.1 2.8 0.2 3.5 0.2 1.8 0 3.5-0.1 2.5-0.1 3.1-0.1 1.2 0 1.8 0l0 0.3 0 1.3v0.2q-1.2 0.2-2.6 0.2-1.2 0-1.6 0.5-0.3 0.3-0.3 2.8 0 0.3 0 0.7t0 0.5l0 4.9 0.3 5.9q0.2 2.6 1.1 4.2 0.7 1.3 2 2 1.9 1 3.8 1 2.2 0 4-0.6 1.2-0.4 2.1-1.1 1-0.8 1.4-1.4 0.7-1.1 1.1-2.4 0.4-1.5 0.4-4.8 0-1.7-0.1-2.7t-0.2-2.6-0.3-3.3l-0.1-1.3q-0.1-1.4-0.5-1.8-0.7-0.8-1.6-0.8l-2.1 0.1-0.3-0.1 0-1.8h1.8l4.3 0.2q1.6 0.1 4.2-0.2l0.4 0q0.1 0.8 0.1 1.1 0 0.2-0.1 0.7-1 0.2-1.8 0.2-1.5 0.3-1.6 0.4-0.4 0.3-0.4 0.9 0 0.1 0.1 0.5t0 0.7q0.2 0.4 0.5 8.3 0.1 4.2-0.3 6.5-0.4 1.6-0.9 2.5-0.8 1.4-2.4 2.6-1.6 1.2-3.8 1.9-2.3 0.7-5.4 0.7-3.5 0-6-1-2.5-1-3.8-2.5-1.2-1.6-1.7-4.2-0.3-1.6-0.3-5v-7q0-3.9-0.4-4.5-0.5-0.7-3.1-0.8z m31.4 29.7v-1.3q0-0.3-0.2-0.5t-0.5-0.2h-31q-0.3 0-0.5 0.2t-0.2 0.5v1.3q0 0.3 0.2 0.5t0.5 0.2h31q0.3 0 0.5-0.2t0.2-0.5z"></path></svg>