<?xml version="1.0"?><svg viewBox="0 0 40 40" xmlns="http://www.w3.org/2000/svg" height="40" width="40"><path d="m25.6 13.9q1.1000000000000014 2.4999999999999982 1.1000000000000014 5.200000000000001t-1.1000000000000014 5.199999999999999q-1.1000000000000014 2.3999999999999986-2.8000000000000007 4.199999999999999t-4.300000000000001 2.8999999999999986q-2.5 1-5.199999999999999 1-3 0-5.6-1.1999999999999993t-4.6-3.6000000000000014q-0.10000000000000009-0.1999999999999993-0.10000000000000009-0.3999999999999986t0.10000000000000009-0.3000000000000007l2.4000000000000004-2.3999999999999986q0.20000000000000018-0.1999999999999993 0.40000000000000036-0.1999999999999993 0.2999999999999998 0.10000000000000142 0.40000000000000036 0.1999999999999993 1.2999999999999998 1.6999999999999993 3.0999999999999996 2.6000000000000014t3.9000000000000004 0.8999999999999986q1.8000000000000007 0 3.5000000000000018-0.6999999999999993t2.8000000000000007-1.8999999999999986q1.1999999999999993-1.1999999999999993 1.8999999999999986-2.8999999999999986t0.6999999999999993-3.3999999999999986q0-1.8000000000000007-0.6999999999999993-3.4000000000000004t-1.8999999999999986-2.9000000000000004q-1.1999999999999993-1.1999999999999993-2.8000000000000007-1.9000000000000004t-3.5-0.6999999999999993q-1.6999999999999993 0-3.1999999999999993 0.5999999999999996t-2.8 1.8000000000000007l2.399999999999994 2.399999999999995q0.5 0.5 0.1999999999999993 1.1999999999999993t-1 0.6999999999999993h-7.799999999999999q-0.3999999999999996 0-0.7999999999999996-0.3999999999999986t-0.3-0.6999999999999993v-7.800000000000001q0-0.7000000000000002 0.7-1 0.7-0.2999999999999998 1.2 0.20000000000000018l2.1999999999999997 2.2q1.9000000000000004-1.7000000000000002 4.300000000000001-2.7t4.9-0.9000000000000004q2.6999999999999993 0 5.199999999999999 1t4.300000000000001 2.8999999999999995q1.6999999999999993 1.8000000000000007 2.8000000000000007 4.199999999999999z"></path></svg>