<?xml version="1.0"?><svg xmlns="http://www.w3.org/2000/svg" width="40" height="40" viewBox="0 0 40 40"><path d="m38.57142857142857 12.857142857142858v5.714285714285715q0 0.5800000000000018-0.42428571428571615 1.0042857142857144t-1.0042857142857073 0.4242857142857126h-1.4285714285714306q-0.5799999999999983 0-1.0042857142857144-0.4242857142857126t-0.42428571428571615-1.0042857142857144v-5.714285714285715q0-2.3657142857142865-1.6742857142857162-4.039999999999999t-4.039999999999996-1.6742857142857153-4.039999999999999 1.6742857142857135-1.6742857142857162 4.040000000000001v4.285714285714285h2.1428571428571423q0.8928571428571423 0 1.5171428571428578 0.6257142857142846t0.6257142857142846 1.5171428571428578v12.857142857142854q0 0.8928571428571459-0.6257142857142846 1.5171428571428578t-1.5171428571428578 0.6257142857142881h-21.42857142857143q-0.8928571428571428 0-1.5171428571428573-0.6257142857142881t-0.6257142857142834-1.5171428571428507v-12.857142857142858q0-0.8928571428571423 0.6257142857142857-1.5171428571428578t1.5171428571428573-0.6257142857142881h15.000000000000002v-4.285714285714285q0-4.12857142857143 2.935714285714287-7.064285714285715t7.064285714285713-2.9357142857142855 7.064285714285713 2.9357142857142855 2.9357142857142833 7.064285714285715z"></path></svg>