<?xml version="1.0"?><svg viewBox="0 0 40 40" xmlns="http://www.w3.org/2000/svg" height="40" width="40"><path d="m17.4 21.6q0.3999999999999986 0.3999999999999986 0.3999999999999986 0.8000000000000007t-0.3999999999999986 0.8000000000000007l-7.699999999999999 7.799999999999997q-0.40000000000000036 0.3000000000000007-0.8000000000000007 0.3000000000000007t-0.8000000000000007-0.3000000000000007l-7.799999999999998-7.800000000000001q-0.2999999999999998-0.3000000000000007-0.2999999999999998-0.8000000000000007t0.3-0.8000000000000007q0.39999999999999997-0.3000000000000007 0.8-0.3000000000000007h15.6q0.3999999999999986 0 0.6999999999999993 0.3000000000000007z m0-6.6q0.3999999999999986 0.3000000000000007 0.3999999999999986 0.8000000000000007t-0.3999999999999986 0.7000000000000011q-0.3000000000000007 0.3999999999999986-0.6999999999999993 0.3999999999999986h-15.6q-0.3999999999999996 0-0.7999999999999996-0.3999999999999986t-0.3-0.6999999999999993q0-0.5 0.3-0.8000000000000007l7.8-7.8q0.3000000000000007-0.2999999999999998 0.8000000000000007-0.2999999999999998t0.8000000000000007 0.2999999999999998l7.700000000000001 7.8z"></path></svg>