<?xml version="1.0"?><svg xmlns="http://www.w3.org/2000/svg" width="40" height="40" viewBox="0 0 40 40"><path d="m39.72222222222222 18.42q0.27777777777777857 0.13888888888888928 0.27777777777777857 0.4688888888888876t-0.27777777777777857 0.4688888888888876l-5.555555555555557 3.333333333333332q-0.13888888888888573 0.086666666666666-0.27777777777777857 0.086666666666666-0.15555555555555856 0-0.27777777777777857-0.07000000000000028-0.27777777777777146-0.17444444444443974-0.27777777777777146-0.4855555555555533v-2.2222222222222214h-14.895555555555557q0.6422222222222231 1.0055555555555564 1.4411111111111126 2.8633333333333333 0.27777777777777857 0.6422222222222231 0.42666666666666586 0.9555555555555557t0.41666666666666785 0.8500000000000014 0.466666666666665 0.8155555555555551 0.46999999999999886 0.5888888888888886 0.5466666666666669 0.45222222222222186 0.5733333333333341 0.13888888888888928h1.6655555555555566v-1.6666666666666679q0-0.24444444444444358 0.15777777777777757-0.3999999999999986t0.3999999999999986-0.155555555555555h5.555555555555557q0.242222222222221 0 0.397777777777776 0.155555555555555t0.155555555555555 0.3999999999999986v5.555555555555557q0 0.24444444444444358-0.155555555555555 0.3999999999999986t-0.3999999999999986 0.155555555555555h-5.555555555555557q-0.242222222222221 0-0.397777777777776-0.155555555555555t-0.155555555555555-0.3999999999999986v-1.6666666666666679h-1.6666666666666679q-0.5555555555555571 0-1.0599999999999987-0.173333333333332t-0.8855555555555554-0.4077777777777776-0.7800000000000011-0.7033333333333331-0.6422222222222231-0.8000000000000007-0.5811111111111096-0.9888888888888907-0.4944444444444436-0.9977777777777774-0.48666666666666814-1.0500000000000007q-0.3999999999999986-0.9222222222222207-0.6422222222222231-1.4155555555555566t-0.6244444444444461-1.1288888888888877-0.7722222222222221-0.9288888888888884-0.8088888888888892-0.29555555555555557h-6.249999999999998q-0.3822222222222216 1.4588888888888896-1.58 2.395555555555557t-2.7255555555555553 0.9377777777777787q-1.8399999999999999 0-3.1422222222222222-1.3022222222222233t-1.3022222222222228-3.1411111111111154 1.3022222222222222-3.142222222222223 3.1422222222222222-1.3022222222222215q1.5277777777777777 0 2.7255555555555553 0.9377777777777769t1.580000000000001 2.395555555555557h1.8055555555555554q0.4166666666666661 0 0.8077777777777779-0.29555555555555557t0.7711111111111109-0.9288888888888884 0.6244444444444444-1.1288888888888895 0.6422222222222214-1.4144444444444435q0.33000000000000007-0.7111111111111104 0.48666666666666636-1.0500000000000007t0.49444444444444535-0.9977777777777774 0.5811111111111114-0.9888888888888889 0.6422222222222214-0.8000000000000007 0.7811111111111124-0.7033333333333331 0.8866666666666667-0.4066666666666663 1.0588888888888874-0.17333333333333378h1.8588888888888881q0.36444444444444457-0.9888888888888889 1.2155555555555573-1.605555555555556t1.9244444444444468-0.6177777777777731q1.3888888888888893 0 2.362222222222222 0.9722222222222223t0.9711111111111101 2.3611111111111116-0.9711111111111101 2.3611111111111107-2.362222222222222 0.9722222222222232q-1.0755555555555567 0-1.9255555555555546-0.6166666666666671t-1.2155555555555573-1.605555555555556h-1.8588888888888881q-0.2944444444444443 0-0.5722222222222229 0.13888888888888928t-0.5466666666666669 0.4511111111111106-0.4688888888888876 0.5888888888888886-0.466666666666665 0.8155555555555551-0.41777777777777736 0.8511111111111109-0.42555555555555635 0.9555555555555557q-0.7977777777777781 1.8555555555555543-1.4399999999999995 2.8633333333333333h19.337777777777774v-2.2222222222222214q0-0.3111111111111118 0.27777777777777857-0.48666666666666636t0.5555555555555571 0.016666666666667496z"></path></svg>