<?xml version="1.0"?><svg viewBox="0 0 40 40" xmlns="http://www.w3.org/2000/svg" height="40" width="40"><path d="m28.7 25q0 3.2-2.1 5.6t-5.4 2.8v3.7q0 0.3-0.2 0.5t-0.5 0.2h-2.8q-0.3 0-0.5-0.2t-0.2-0.5v-3.7q-1.4-0.2-2.7-0.6t-2.1-1-1.6-1-1-0.8-0.4-0.3q-0.3-0.5 0-0.9l2.2-2.9q0.1-0.2 0.5-0.2 0.3 0 0.5 0.2l0 0q2.4 2.1 5.1 2.7 0.8 0.1 1.6 0.1 1.7 0 3-0.9t1.3-2.5q0-0.6-0.3-1.2t-0.7-0.9-1.3-0.7-1.4-0.7-1.6-0.7q-0.9-0.3-1.3-0.5t-1.3-0.6-1.4-0.6-1.1-0.8-1.2-0.9-0.9-1-0.7-1.2-0.5-1.4-0.2-1.7q0-2.9 2.1-5.1t5.4-2.8v-3.8q0-0.3 0.2-0.5t0.5-0.2h2.8q0.3 0 0.5 0.2t0.2 0.5v3.7q1.2 0.1 2.3 0.5t1.8 0.7 1.4 0.8 0.8 0.6 0.3 0.3q0.4 0.4 0.1 0.8l-1.7 3.1q-0.1 0.3-0.5 0.3-0.3 0.1-0.5-0.2-0.1 0-0.3-0.2t-0.9-0.6-1.2-0.6-1.6-0.6-1.8-0.2q-2 0-3.2 0.9t-1.3 2.3q0 0.6 0.2 1t0.6 0.9 0.8 0.7 1.2 0.7 1.3 0.5 1.5 0.6q1.1 0.4 1.7 0.7t1.6 0.7 1.6 0.9 1.3 1.1 1.1 1.3 0.7 1.6 0.2 2z"></path></svg>