<?xml version="1.0"?><svg viewBox="0 0 40 40" xmlns="http://www.w3.org/2000/svg" height="40" width="40"><path d="m13.8 19q-3.2 0-5.4-2.2t-2.1-5.3 2.1-5.3 5.4-2.2 5.3 2.2 2.2 5.3-2.2 5.3-5.3 2.2z m21 6.2l4.8 4.9q0.2 0.2 0.2 0.4 0 0.3-0.2 0.5l-2.6 2.6q-0.2 0.2-0.4 0.2-0.3 0-0.5-0.2l-4.8-4.8-4.9 4.8q-0.2 0.2-0.5 0.2-0.2 0-0.4-0.2l-2.6-2.6q-0.2-0.2-0.2-0.5 0-0.2 0.2-0.4l4.8-4.9-4.8-4.8q-0.2-0.2-0.2-0.5 0-0.2 0.2-0.4l2.6-2.7q0.2-0.1 0.4-0.1 0.3 0 0.5 0.1l4.9 4.9 4.8-4.9q0.2-0.1 0.5-0.1 0.2 0 0.4 0.1l2.6 2.7q0.2 0.2 0.2 0.4 0 0.3-0.2 0.5z m-9.7 0l-3.6 3.6q-0.7 0.7-0.7 1.7 0 1.1 0.7 1.8l1.6 1.6q-0.4 0.1-0.8 0.1h-17.1q-2.3 0-3.8-1.4t-1.4-3.7q0-1 0.1-2t0.2-2.1 0.6-2.1 0.8-1.9 1.2-1.6 1.7-1.1 2.2-0.4q0.3 0 0.7 0.4 3 2.3 6.3 2.3t6.2-2.3q0.4-0.4 0.7-0.4 0.6 0 1.2 0.2-0.6 0.5-0.8 0.9t-0.3 1.1q0 1.1 0.7 1.8z"></path></svg>