<?xml version="1.0"?><svg xmlns="http://www.w3.org/2000/svg" width="40" height="40" viewBox="0 0 40 40"><path d="m13.75 20q-3.1050000000000004 0-5.3025-2.197499999999998t-2.1975-5.302500000000002 2.1975-5.3025 5.3025-2.1975 5.302500000000002 2.1975 2.197499999999998 5.3025-2.197499999999998 5.302500000000002-5.302500000000002 2.197499999999998z m21.034999999999997 6.25l4.862499999999997 4.862500000000001q0.177500000000002 0.17749999999999844 0.177500000000002 0.4499999999999993 0 0.25375000000000014-0.17499999999999716 0.4299999999999997l-2.657499999999999 2.65625q-0.17499999999999716 0.17499999999999716-0.4299999999999997 0.17499999999999716-0.2749999999999986 0-0.45000000000000284-0.17499999999999716l-4.862499999999997-4.864999999999998-4.862500000000001 4.862500000000001q-0.17749999999999844 0.177500000000002-0.4499999999999993 0.177500000000002-0.25375000000000014 0-0.4299999999999997-0.17499999999999716l-2.65625-2.657499999999999q-0.1750000000000007-0.1750000000000007-0.1750000000000007-0.4299999999999997 0-0.2749999999999986 0.1750000000000007-0.4499999999999993l4.864999999999998-4.861250000000009-4.862500000000001-4.862500000000001q-0.17749999999999844-0.17749999999999844-0.17749999999999844-0.4499999999999993 0-0.25375000000000014 0.1750000000000007-0.4299999999999997l2.657499999999999-2.65625q0.1750000000000007-0.1750000000000007 0.4299999999999997-0.1750000000000007 0.2749999999999986 0 0.4499999999999993 0.1750000000000007l4.861250000000002 4.864999999999998 4.862499999999997-4.862500000000001q0.177500000000002-0.17749999999999844 0.45000000000000284-0.17749999999999844 0.2537499999999966 0 0.4299999999999997 0.1750000000000007l2.65625 2.657499999999999q0.17499999999999716 0.1750000000000007 0.17499999999999716 0.4299999999999997 0 0.2749999999999986-0.17499999999999716 0.4499999999999993z m-9.725000000000001 0l-3.5375000000000014 3.535q-0.7212500000000013 0.7225000000000001-0.7212500000000013 1.7774999999999999 0 1.0349999999999966 0.7250000000000014 1.7575000000000003l1.620000000000001 1.6212499999999963q-0.41000000000000014 0.05875000000000341-0.8599999999999994 0.05875000000000341h-17.071249999999996q-2.3625 0-3.7874999999999996-1.3474999999999966t-1.4275000000000002-3.712500000000002q0-1.0337500000000013 0.06875-2.0199999999999996t0.275-2.12875 0.51625-2.1187499999999986 0.8400000000000002-1.9037499999999987 1.2125-1.5824999999999996 1.6687499999999997-1.0462500000000006 2.1775-0.3900000000000041q0.37124999999999986 0 0.7625000000000002 0.3324999999999996 3.00375 2.3825000000000003 6.22875 2.3825000000000003t6.23-2.3825000000000003q0.39124999999999943-0.3324999999999996 0.7624999999999993-0.3324999999999996 0.5462500000000006 0 1.1125000000000007 0.11749999999999972-0.5474999999999994 0.5274999999999999-0.8000000000000007 0.9750000000000014t-0.254999999999999 1.0949999999999989q0 1.0549999999999997 0.7225000000000001 1.7774999999999999z"></path></svg>