<?xml version="1.0"?><svg viewBox="0 0 40 40" xmlns="http://www.w3.org/2000/svg" height="40" width="40"><path d="m6.3 26.1q0.4 0.3 0.4 0.8t-0.4 0.8q-0.3 0.3-0.7 0.3t-0.8-0.3q-0.4-0.4-0.4-0.8t0.4-0.8q0.3-0.3 0.8-0.3t0.7 0.3z m18.1 1.8q0 2.1-1.2 3.3t-3.4 1.2h-15.2q-2.1 0-3.3-1.2t-1.3-3.3q0-1.1 0.1-2.2t0.4-2.4q0.3-1.3 0.8-2.3t1.4-1.8q0.9-0.8 2.1-1.1-0.4 0.9-0.4 2.1v3.5q-1 0.4-1.6 1.2t-0.6 2q0 1.4 1 2.3t2.4 1q1.3 0 2.3-1t1-2.3q0-1.1-0.6-2t-1.6-1.2v-3.5q0-1.1 0.4-1.6 2.3 1.8 5.1 1.8t5.1-1.8q0.5 0.5 0.5 1.6v1.1q-1.9 0-3.2 1.3t-1.3 3.2v1.5q-0.5 0.5-0.5 1.2 0 0.7 0.5 1.2t1.1 0.5q0.7 0 1.2-0.5t0.5-1.2q0-0.7-0.5-1.2v-1.5q0-0.9 0.6-1.6t1.6-0.7q0.9 0 1.5 0.7t0.7 1.6v1.5q-0.6 0.5-0.6 1.2 0 0.7 0.5 1.2t1.2 0.5q0.7 0 1.2-0.5t0.5-1.2q0-0.7-0.6-1.2v-1.5q0-1.2-0.6-2.3t-1.6-1.6q0-0.1 0-0.7t0-0.8q0-0.3 0-0.8t-0.2-0.8q0-0.3-0.2-0.7 1.2 0.3 2.1 1.1t1.4 1.8q0.5 1 0.8 2.3t0.4 2.4q0.1 1.1 0.1 2.2z m-7.5-20.2q2 2 2 4.7t-2 4.7q-1.9 2-4.7 2t-4.7-2q-1.9-1.9-1.9-4.7t1.9-4.7q2-1.9 4.7-1.9t4.7 1.9z"></path></svg>