<?xml version="1.0"?><svg viewBox="0 0 40 40" xmlns="http://www.w3.org/2000/svg" height="40" width="40"><path d="m16.9 17.1q-1.9 2-4.7 2t-4.7-2q-1.9-1.9-1.9-4.7t1.9-4.7q2-1.9 4.7-1.9t4.7 1.9q2 2 2 4.7t-2 4.7z m12 4.2h6.1q0.2 0 0.4 0.2t0.2 0.4v3.3q0 0.2-0.2 0.4t-0.4 0.2h-6.1v6.1q0 0.2-0.2 0.4t-0.4 0.1h-3.3q-0.2 0-0.4-0.1t-0.2-0.4v-6.1h-6.1q-0.2 0-0.4-0.2t-0.1-0.4v-3.3q0-0.3 0.1-0.4t0.4-0.2h6.1v-6.1q0-0.2 0.2-0.4t0.4-0.1h3.3q0.3 0 0.4 0.1t0.2 0.4v6.1z m-12.8 3.9q0 0.9 0.7 1.6t1.5 0.6h4.5v4.2q-1.2 0.8-3 0.8h-15.2q-2.1 0-3.3-1.2t-1.3-3.3q0-0.9 0.1-1.8t0.2-1.9q0.2-1 0.5-1.8t0.7-1.7q0.5-0.9 1.1-1.4t1.5-1q0.8-0.3 1.9-0.3 0.3 0 0.7 0.3 1.4 1 2.7 1.6t2.8 0.5q1.6 0 2.9-0.5t2.7-1.6q0.3-0.3 0.6-0.3 2.3 0 3.8 1.7h-3.9q-0.9 0-1.5 0.6t-0.7 1.6v3.3z"></path></svg>