<?xml version="1.0"?><svg width="40" height="40" viewBox="0 0 40 40" xmlns="http://www.w3.org/2000/svg"><path d="m11.8 20q-3.6 0.1-5.9 2.9h-3q-1.8 0-3.1-0.9t-1.2-2.7q0-7.9 2.7-7.9 0.2 0 1 0.5t2.2 0.9 2.6 0.5q1.5 0 3-0.5-0.1 0.8-0.1 1.5 0 3.1 1.8 5.7z m23.9 14.2q0 2.7-1.6 4.2t-4.3 1.6h-19.6q-2.7 0-4.3-1.6t-1.6-4.2q0-1.2 0.1-2.3t0.3-2.4 0.6-2.4 0.9-2.2 1.4-1.8 1.9-1.2 2.5-0.5q0.2 0 1 0.5t1.6 1.1 2.4 1.1 3 0.4 3-0.4 2.4-1.1 1.6-1.1 1-0.5q1.4 0 2.5 0.5t1.9 1.2 1.4 1.8 0.9 2.2 0.6 2.4 0.3 2.4 0.1 2.3z m-22.8-28.5q0 2.4-1.7 4.1t-4.1 1.6-4-1.6-1.7-4.1 1.7-4 4-1.7 4.1 1.7 1.7 4z m15.7 8.6q0 3.5-2.5 6t-6.1 2.6-6.1-2.6-2.5-6 2.5-6.1 6.1-2.5 6.1 2.5 2.5 6.1z m12.8 5q0 1.7-1.2 2.7t-3.1 0.9h-3q-2.3-2.8-5.9-2.9 1.8-2.6 1.8-5.7 0-0.7-0.1-1.5 1.5 0.5 3 0.5 1.3 0 2.6-0.5t2.2-0.9 1-0.5q2.7 0 2.7 7.9z m-2.8-13.6q0 2.4-1.7 4.1t-4 1.6-4.1-1.6-1.7-4.1 1.7-4 4.1-1.7 4 1.7 1.7 4z"></path></svg>
