<?xml version="1.0"?><svg xmlns="http://www.w3.org/2000/svg" width="40" height="40" viewBox="0 0 40 40"><path d="m17.142857142857142 34.285714285714285l2.1428571428571423-10-2.1428571428571423-2.857142857142854-2.8571428571428577-1.428571428571427z m5.714285714285715 0l2.8571428571428577-14.285714285714285-2.8571428571428577 1.428571428571427-2.1428571428571423 2.8571428571428577z m3.571428571428573-22.54285714285714q-0.04285714285714448-0.09142857142857075-0.08999999999999986-0.13571428571428612-0.2242857142857133-0.17857142857142883-2.1428571428571495-0.17857142857142883-1.562857142857144 0-3.7285714285714278 0.4242857142857144-0.15428571428571303 0.042857142857142705-0.4671428571428571 0.042857142857142705t-0.46857142857142975-0.042857142857142705q-2.16571428571428-0.4242857142857144-3.728571428571424-0.4242857142857144-1.918571428571429 0-2.1428571428571423 0.17857142857142883-0.042857142857142705 0.042857142857142705-0.08857142857142897 0.13428571428571345 0.042857142857142705 0.40000000000000036 0.08999999999999986 0.5999999999999996 0.042857142857142705 0.0685714285714294 0.16714285714285637 0.1471428571428568t0.16714285714285637 0.23428571428571487q0.042857142857142705 0.08999999999999986 0.16714285714285637 0.4571428571428573t0.15714285714285658 0.4571428571428573 0.16571428571428548 0.3800000000000008 0.1899999999999995 0.3800000000000008 0.1999999999999993 0.3114285714285714 0.2685714285714287 0.3000000000000007 0.31428571428571495 0.21428571428571352 0.39000000000000057 0.17714285714285793 0.4571428571428555 0.08999999999999986 0.5471428571428589 0.042857142857142705q0.8028571428571425 0 1.3171428571428585-0.2771428571428576t0.725714285714286-0.668571428571429 0.32428571428571473-0.7714285714285722 0.25714285714285623-0.6571428571428566 0.39000000000000057-0.27857142857142847h0.2671428571428578q0.24571428571428555 0 0.39000000000000057 0.27857142857142847t0.25714285714285623 0.6571428571428566 0.32428571428571473 0.7714285714285722 0.725714285714286 0.6714285714285708 1.3185714285714276 0.2771428571428576q0.28999999999999915 0 0.5471428571428589-0.042857142857142705t0.4571428571428555-0.09142857142857075 0.39000000000000057-0.17857142857142883 0.3114285714285714-0.21142857142857174 0.2671428571428578-0.3028571428571425 0.1999999999999993-0.31428571428571495 0.1914285714285704-0.3785714285714281 0.16571428571428726-0.3800000000000008 0.15714285714285836-0.4571428571428573 0.16571428571428726-0.4571428571428573q0.04285714285714448-0.15714285714285658 0.16714285714285637-0.23428571428571487t0.16571428571428726-0.1457142857142859q0.04285714285714448-0.1999999999999993 0.08999999999999986-0.5999999999999996z m9.285714285714285 19.61714285714286q0 2.6999999999999993-1.6285714285714263 4.242857142857144t-4.332857142857144 1.5399999999999991h-19.50714285714286q-2.6999999999999993 0-4.328571428571428-1.5399999999999991t-1.6314285714285717-4.242857142857144q0-1.360000000000003 0.09999999999999964-2.6314285714285752t0.4242857142857144-2.8028571428571425 0.8371428571428572-2.7571428571428562 1.4171428571428573-2.3099999999999987 2.0857142857142863-1.6614285714285728l-2.007142857142857-4.911428571428571h4.777142857142857q-0.4914285714285711-1.4285714285714288-0.4914285714285711-2.8571428571428577 0-0.2671428571428578 0.042857142857142705-0.7142857142857135-4.328571428571428-0.8928571428571441-4.328571428571428-2.142857142857144 0-1.2714285714285714 4.685714285714286-2.21 0.38142857142857167-1.3857142857142852 1.1514285714285712-2.991428571428571t1.574285714285713-2.545714285714286q0.7142857142857135-0.8242857142857143 1.6971428571428593-0.8242857142857143 0.6714285714285708 0 1.8757142857142846 0.6914285714285714t1.8728571428571428 0.6914285714285714 1.8757142857142846-0.6914285714285714 1.87857142857143-0.6914285714285714q0.9828571428571422 0 1.6971428571428575 0.8257142857142856 0.8028571428571425 0.9371428571428573 1.5742857142857147 2.542857142857143t1.1499999999999986 2.9928571428571433q4.685714285714283 0.9371428571428568 4.685714285714283 2.210000000000001 0 1.25-4.328571428571429 2.1428571428571423 0.15714285714285836 1.8085714285714296-0.4471428571428575 3.571428571428571h4.777142857142856l-1.8285714285714292 5.022857142857143q1.404285714285713 0.7371428571428567 2.3999999999999986 2.154285714285713t1.4600000000000009 3.2028571428571446 0.6471428571428604 3.3814285714285717 0.17714285714285438 3.314285714285713z"></path></svg>