<?xml version="1.0"?><svg viewBox="0 0 40 40" xmlns="http://www.w3.org/2000/svg" height="40" width="40"><path d="m13 28.4q0 0.5-0.4 0.9t-0.9 0.4-1-0.4-0.4-0.9 0.4-1 1-0.4 0.9 0.4 0.4 1z m21.6 1.2q0 2.6-1.5 4t-4.1 1.5h-18.4q-2.6 0-4.1-1.5t-1.6-4q0-1.4 0.2-2.7t0.5-2.9 1-2.8 1.7-2.2 2.5-1.3q-0.5 1.1-0.5 2.6v4.2q-1.2 0.5-1.9 1.5t-0.8 2.4q0 1.6 1.2 2.8t2.9 1.2 2.9-1.2 1.1-2.8q0-1.3-0.7-2.4t-2-1.5v-4.2q0-1.4 0.6-2 2.8 2.2 6.2 2.2t6.2-2.2q0.5 0.6 0.5 2v1.3q-2.2 0-3.8 1.6t-1.6 3.8v1.9q-0.6 0.6-0.6 1.5 0 0.8 0.6 1.4t1.4 0.6 1.4-0.6 0.6-1.4q0-0.9-0.7-1.5v-1.9q0-1.1 0.8-1.9t1.9-0.8 1.9 0.8 0.8 1.9v1.9q-0.6 0.6-0.6 1.5 0 0.8 0.6 1.4t1.4 0.6 1.4-0.6 0.6-1.4q0-0.9-0.7-1.5v-1.9q0-1.4-0.7-2.7t-2-2q0-0.2 0.1-0.9t0-1-0.1-0.8-0.1-1-0.3-0.9q1.4 0.3 2.5 1.3t1.7 2.2 1 2.8 0.5 2.9 0.1 2.7z m-6.7-18.8q0 3.4-2.4 5.7t-5.7 2.4-5.7-2.4-2.4-5.7 2.4-5.7 5.7-2.4 5.7 2.4 2.4 5.7z"></path></svg>