<?xml version="1.0"?><svg xmlns="http://www.w3.org/2000/svg" width="40" height="40" viewBox="0 0 40 40"><path d="m32.85714285714286 12.857142857142858q0 4.9328571428571415-3.2928571428571445 8.582857142857144t-8.135714285714286 4.185714285714283v5.802857142857146h5q0.31428571428571317 0 0.5142857142857125 0.1999999999999993t0.1999999999999993 0.514285714285716v1.4285714285714306q0 0.3142857142857167-0.1999999999999993 0.5142857142857125t-0.5142857142857125 0.20000000000000284h-5v5q0 0.3142857142857167-0.1999999999999993 0.5142857142857125t-0.514285714285716 0.19999999999999574h-1.428571428571427q-0.31428571428571317 0-0.514285714285716-0.20000000000000284t-0.1999999999999993-0.5142857142857125v-5h-5.000000000000002q-0.31428571428571495 0-0.5142857142857142-0.20000000000000284t-0.1999999999999993-0.5142857142857125v-1.4285714285714306q0-0.31428571428571317 0.1999999999999993-0.5142857142857125t0.5142857142857142-0.19999999999999574h5.000000000000002v-5.8028571428571425q-3.3485714285714288-0.35714285714285765-6.0600000000000005-2.3000000000000007t-4.151428571428573-5-1.1714285714285717-6.514285714285714q0.24571428571428644-2.9942857142857164 1.797142857142858-5.561428571428573t4.062857142857142-4.1971428571428575 5.48-1.9628571428571424q3.7942857142857136-0.4242857142857144 7.120000000000001 1.2057142857142857t5.265714285714285 4.732857142857142 1.9428571428571466 6.828571428571429z m-22.85714285714286 0q0 4.12857142857143 2.935714285714287 7.064285714285713t7.064285714285713 2.935714285714287 7.064285714285717-2.935714285714287 2.9357142857142833-7.064285714285713-2.935714285714287-7.064285714285715-7.064285714285713-2.9357142857142855-7.064285714285715 2.9357142857142855-2.935714285714285 7.064285714285715z"></path></svg>