<svg viewBox="0 0 1792 1896.0833" xmlns="http://www.w3.org/2000/svg"><path d="m1790 529q12 155-52.5 292t-186 224-271.5 103v260h224q14 0 23 9t9 23v64q0 14-9 23t-23 9h-224v224q0 14-9 23t-23 9h-64q-14 0-23-9t-9-23v-224h-512v224q0 14-9 23t-23 9h-64q-14 0-23-9t-9-23v-224h-224q-14 0-23-9t-9-23v-64q0-14 9-23t23-9h224v-260q-150-16-271.5-103t-186-224-52.5-292q17-206 164.5-356.5t352.5-169.5q206-21 377 94 171-115 377-94 205 19 352.5 169.5t164.5 356.5z m-894 360q128-131 128-313t-128-313q-128 131-128 313t128 313z m-320 135q115 0 218-57-154-165-154-391 0-224 154-391-103-57-218-57-185 0-316.5 131.5t-131.5 316.5 131.5 316.5 316.5 131.5z m576 384v-260q-137-15-256-94-119 79-256 94v260h512z m64-384q185 0 316.5-131.5t131.5-316.5-131.5-316.5-316.5-131.5q-115 0-218 57 154 167 154 391 0 226-154 391 103 57 218 57z"/></svg>