<?xml version="1.0"?><svg viewBox="0 0 40 40" xmlns="http://www.w3.org/2000/svg" height="40" width="40"><path d="m20 13.5q0 3.9-2.6 6.7t-6.3 3.3v4.5h3.9q0.2 0 0.4 0.1t0.2 0.4v1.2q0 0.2-0.2 0.4t-0.4 0.1h-3.9v3.9q0 0.2-0.1 0.4t-0.4 0.2h-1.2q-0.2 0-0.4-0.2t-0.1-0.4v-3.9h-3.9q-0.2 0-0.4-0.1t-0.2-0.4v-1.2q0-0.2 0.2-0.4t0.4-0.1h3.9v-4.5q-2.6-0.3-4.7-1.8t-3.3-3.9q-1.1-2.4-0.9-5.1 0.2-2.3 1.4-4.3t3.2-3.3q1.9-1.2 4.3-1.5 2.9-0.3 5.5 0.9t4.1 3.7q1.5 2.4 1.5 5.3z m-15.5-5.5q-2.3 2.3-2.3 5.5t2.3 5.5q2.3 2.3 5.5 2.3t5.5-2.3q2.3-2.2 2.3-5.5t-2.3-5.5q-2.3-2.2-5.5-2.2t-5.5 2.2z"></path></svg>