<?xml version="1.0"?><svg viewBox="0 0 40 40" xmlns="http://www.w3.org/2000/svg" height="40" width="40"><path d="m38.9 11.2q0.2 3.2-1.1 6.1t-4 4.7-5.7 2.2v5.5h4.7q0.3 0 0.5 0.2t0.2 0.5v1.3q0 0.3-0.2 0.5t-0.5 0.2h-4.7v4.7q0 0.3-0.2 0.5t-0.5 0.2h-1.3q-0.3 0-0.5-0.2t-0.2-0.5v-4.7h-10.8v4.7q0 0.3-0.2 0.5t-0.5 0.2h-1.3q-0.3 0-0.5-0.2t-0.2-0.5v-4.7h-4.7q-0.3 0-0.5-0.2t-0.2-0.5v-1.3q0-0.3 0.2-0.5t0.5-0.2h4.7v-5.5q-3.2-0.3-5.7-2.2t-4-4.7-1.1-6.1q0.4-4.4 3.5-7.6t7.4-3.5q4.4-0.5 8 1.9 3.6-2.4 8-1.9 4.3 0.4 7.4 3.5t3.5 7.6z m-18.9 7.6q2.7-2.8 2.7-6.6t-2.7-6.7q-2.7 2.8-2.7 6.7t2.7 6.6z m-6.8 2.8q2.5 0 4.6-1.2-3.2-3.5-3.2-8.2 0-4.8 3.2-8.3-2.1-1.2-4.6-1.2-3.9 0-6.6 2.8t-2.8 6.7 2.8 6.6 6.6 2.8z m12.2 8.1v-5.5q-2.9-0.3-5.4-2-2.5 1.7-5.4 2v5.5h10.8z m1.4-8.1q3.9 0 6.6-2.8t2.8-6.6-2.8-6.7-6.6-2.8q-2.5 0-4.6 1.2 3.2 3.5 3.2 8.3 0 4.7-3.2 8.2 2.1 1.2 4.6 1.2z"></path></svg>