<?xml version="1.0"?><svg viewBox="0 0 40 40" xmlns="http://www.w3.org/2000/svg" height="40" width="40"><path d="m22.4 14.6q0.2-3.7-2.8-3.8-4-0.2-5.4 4.5 0.8-0.3 1.4-0.3 1.5 0 1.3 1.6 0 1-1.3 2.9t-1.8 1.9q-0.7 0-1.4-2.9-0.2-0.9-0.8-4.4-0.5-3.3-2.8-3.1-1 0.1-2.8 1.7l-1.4 1.3-1.4 1.2 0.9 1.2q1.3-0.9 1.5-0.9 1 0 1.8 3.1 0.3 1 0.8 2.9t0.8 2.8q1.2 3.1 2.9 3.1 2.7 0 6.6-5.1 3.8-4.9 3.9-7.7z m4.3-3.8v16.6q0 2.1-1.5 3.6t-3.5 1.4h-16.7q-2.1 0-3.5-1.4t-1.5-3.6v-16.6q0-2.1 1.5-3.6t3.5-1.4h16.7q2 0 3.5 1.4t1.5 3.6z"></path></svg>