<?xml version="1.0"?><svg xmlns="http://www.w3.org/2000/svg" width="40" height="40" viewBox="0 0 40 40"><path d="m31.697142857142858 14.242857142857144q0.2228571428571442-4.822857142857142-3.5942857142857143-4.957142857142857-5.157142857142858-0.17857142857142883-6.964285714285715 5.825714285714286 0.9828571428571422-0.4242857142857144 1.8285714285714292-0.4242857142857144 1.8999999999999986 0 1.652857142857144 2.142857142857144-0.08999999999999986 1.274285714285714-1.6514285714285712 3.7285714285714278t-2.3428571428571416 2.457142857142859q-0.96142857142857 0-1.831428571428571-3.774285714285714-0.28999999999999915-1.2057142857142864-1.0042857142857144-5.69142857142857-0.6714285714285708-4.21857142857143-3.571428571428571-3.951428571428572-1.3171428571428567 0.15714285714285658-3.66 2.232857142857142l-3.614285714285714 3.2142857142857153 1.1600000000000001 1.4971428571428582q1.6971428571428575-1.1600000000000001 1.942857142857143-1.1600000000000001 1.2714285714285722 0 2.385714285714286 3.9957142857142856l1.0057142857142853 3.671428571428571 1.0042857142857144 3.671428571428571q1.5142857142857107 3.99285714285714 3.657142857142855 3.99285714285714 3.505714285714287 0 8.55-6.562857142857144 4.91-6.3171428571428585 5.042857142857141-9.91z m5.445714285714288-4.957142857142857v21.42857142857143q0 2.6571428571428584-1.8857142857142861 4.5428571428571445t-4.5428571428571445 1.8857142857142861h-21.42857142857143q-2.6571428571428575 0-4.542857142857144-1.8857142857142861t-1.885714285714284-4.5428571428571445v-21.42857142857143q0-2.6571428571428575 1.8857142857142857-4.542857142857144t4.542857142857144-1.885714285714284h21.42857142857143q2.6571428571428584 0 4.5428571428571445 1.8857142857142857t1.8857142857142861 4.542857142857144z"></path></svg>