<?xml version="1.0"?><svg viewBox="0 0 40 40" xmlns="http://www.w3.org/2000/svg" height="40" width="40"><path d="m31.1 13.5q0.2-4.6-3.4-4.7-4.9-0.2-6.6 5.5 0.9-0.4 1.7-0.4 1.8 0 1.6 2-0.1 1.2-1.6 3.5t-2.2 2.4q-0.9 0-1.7-3.6-0.3-1.2-1-5.4-0.6-4-3.4-3.7-1.2 0.1-3.4 2.1l-1.7 1.5-1.7 1.5 1.1 1.4q1.6-1.1 1.8-1.1 1.2 0 2.2 3.8 0.4 1.2 1 3.5t0.9 3.5q1.5 3.7 3.5 3.7 3.3 0 8.1-6.2 4.6-5.9 4.8-9.3z m5.1-4.7v20.2q0 2.5-1.8 4.3t-4.3 1.8h-20.2q-2.5 0-4.3-1.8t-1.8-4.3v-20.2q0-2.5 1.8-4.3t4.3-1.8h20.2q2.5 0 4.3 1.8t1.8 4.3z"></path></svg>