<?xml version="1.0"?><svg viewBox="0 0 40 40" xmlns="http://www.w3.org/2000/svg" height="40" width="40"><path d="m35.4 17.4v4.2q-2.2 0.5-4.2 0.5-1.4 2.9-3.5 5.7t-3.8 4.6-2.7 2.2q-1.7 1-3.4 0-0.6-0.4-1.3-1t-1.8-1.7-2.2-2.7-2.2-3.9-2.3-5.2-1.9-6.6-1.5-8.2h6q0.5 4.6 1.5 8.4t2.2 6.7 2.5 4.9 3 4.2q3.6-3.6 6-8.6-3-1.5-4.7-4.7t-1.7-7q0-4 2.2-6.6t6-2.6q3.8 0 5.8 2.2t2 6.3q0 3.4-1.2 6-0.2 0.1-0.5 0.1t-0.9 0-1.4-0.1-1.3-0.5-1-1.1q0.6-2.2 0.6-3.9 0-1.8-0.6-2.8t-1.7-0.9q-1.1 0-1.7 1t-0.7 3q0 3.9 2.2 6.2t5.6 2.2q1.3 0 2.6-0.3z"></path></svg>