<?xml version="1.0"?><svg viewBox="0 0 40 40" xmlns="http://www.w3.org/2000/svg" height="40" width="40"><path d="m39.9 11.1q0.5 1.3-3.1 6.1-0.5 0.7-1.3 1.8-1.7 2.1-1.9 2.7-0.4 0.9 0.3 1.7 0.3 0.4 1.7 1.7h0l0 0 0 0 0.1 0.1q2.9 2.7 3.9 4.6 0.1 0.1 0.2 0.2t0.1 0.6 0 0.7-0.5 0.6-1.2 0.2l-5.4 0.1q-0.5 0.1-1.1-0.1t-1.1-0.4l-0.4-0.3q-0.7-0.4-1.5-1.3t-1.4-1.6-1.3-1.2-1.2-0.4q0 0.1-0.1 0.1t-0.4 0.3-0.4 0.6-0.4 1.1-0.1 1.6q0 0.3-0.1 0.6t-0.1 0.4l-0.1 0.1q-0.4 0.4-1.1 0.4h-2.4q-1.5 0.1-3.1-0.3t-2.7-1.1-2.1-1.4-1.5-1.2l-0.5-0.5q-0.2-0.2-0.6-0.6t-1.5-1.9-2.2-3.1-2.6-4.4-2.7-5.7q-0.1-0.3-0.1-0.6t0.1-0.3l0-0.1q0.4-0.4 1.2-0.4l5.7-0.1q0.3 0.1 0.5 0.2t0.4 0.2l0.1 0q0.3 0.2 0.5 0.7 0.4 1 0.9 2.1t0.9 1.7l0.3 0.6q0.6 1.3 1.2 2.2t1 1.4 0.8 0.8 0.7 0.3 0.6-0.1q0.1 0 0.1-0.1t0.3-0.4 0.2-1 0.2-1.7 0-2.6q0-0.8-0.1-1.5t-0.3-1l-0.2-0.2q-0.5-0.7-1.7-0.9-0.3-0.1 0.1-0.5 0.3-0.4 0.8-0.7 1.1-0.5 4.9-0.5 1.7 0.1 2.9 0.3 0.4 0.1 0.6 0.3t0.5 0.5 0.2 0.7 0.1 0.9-0.1 1.2 0 1.4 0 1.7q0 0.3-0.1 0.9t0 1 0.1 0.9 0.2 0.8 0.5 0.5q0.2 0 0.4 0.1t0.5-0.3 0.8-0.7 1.1-1.4 1.4-2.2q1.2-2.2 2.2-4.7 0.1-0.2 0.2-0.4t0.3-0.2l0-0.1 0.2 0 0.2-0.1 0.4 0 6 0q0.8-0.1 1.4 0t0.6 0.4z"></path></svg>