<?xml version="1.0"?><svg xmlns="http://www.w3.org/2000/svg" width="40" height="40" viewBox="0 0 40 40"><path d="m39.93733333333333 12.166666666666666q0.4799999999999969 1.333333333333334-3.12533333333333 6.1253333333333355-0.501333333333335 0.6666666666666679-1.3560000000000016 1.769333333333332-1.6266666666666652 2.0839999999999996-1.8746666666666698 2.729333333333333-0.3546666666666667 0.8533333333333317 0.29333333333333655 1.6879999999999988 0.3533333333333317 0.4373333333333349 1.6866666666666674 1.706666666666667h0.021333333333330984l0.08400000000000318 0.0853333333333346q2.93866666666667 2.729333333333333 3.979999999999997 4.603999999999999 0.0626666666666651 0.1039999999999992 0.13600000000000279 0.26000000000000156t0.14666666666666828 0.5519999999999996-0.013333333333335418 0.7066666666666634-0.5200000000000031 0.5733333333333306-1.2293333333333365 0.261333333333333l-5.333333333333336 0.08400000000000318q-0.5 0.1039999999999992-1.1666666666666679-0.1039999999999992t-1.0826666666666682-0.4586666666666659l-0.4173333333333318-0.24933333333333252q-0.6266666666666652-0.4373333333333349-1.458666666666666-1.3333333333333321t-1.4266666666666659-1.6133333333333333-1.269333333333332-1.2093333333333334-1.1773333333333333-0.3240000000000016q-0.0626666666666651 0.021333333333334537-0.16666666666666785 0.07333333333333414t-0.3546666666666667 0.3026666666666671-0.4480000000000004 0.6133333333333333-0.3546666666666667 1.0826666666666682-0.13599999999999923 1.6133333333333333q0 0.3133333333333326-0.07333333333333414 0.5733333333333306t-0.1559999999999988 0.38666666666666316l-0.08399999999999963 0.1039999999999992q-0.37333333333333485 0.3960000000000008-1.1039999999999992 0.4586666666666659h-2.397333333333325q-1.4800000000000004 0.08400000000000318-3.039999999999999-0.3440000000000012t-2.7413333333333334-1.1039999999999992-2.1466666666666665-1.3733333333333348-1.4666666666666668-1.1999999999999993l-0.522666666666666-0.49866666666666504q-0.20800000000000018-0.2079999999999984-0.5733333333333341-0.6266666666666652t-1.4893333333333327-1.8933333333333344-2.208-3.1466666666666683-2.5533333333333332-4.396000000000001-2.7199999999999998-5.666666666666666q-0.124-0.3333333333333339-0.124-0.5626666666666669t0.06266666666666666-0.3333333333333339l0.08266666666666643-0.12266666666666204q0.312-0.39466666666666583 1.1866666666666665-0.39466666666666583l5.709333333333333-0.03999999999999915q0.2493333333333334 0.03999999999999915 0.4800000000000004 0.13333333333333286t0.33333333333333304 0.17866666666666653l0.1026666666666669 0.06266666666666687q0.3333333333333339 0.22933333333333294 0.5013333333333332 0.6666666666666661 0.41733333333333356 1.040000000000001 0.9600000000000009 2.1560000000000006t0.8533333333333335 1.697333333333333l0.3333333333333339 0.6039999999999992q0.6039999999999992 1.2506666666666675 1.166666666666666 2.166666666666668t1.0133333333333336 1.4266666666666659 0.8626666666666658 0.8026666666666671 0.706666666666667 0.293333333333333 0.5640000000000001-0.10666666666666558q0.03999999999999915-0.019999999999999574 0.1039999999999992-0.1026666666666678t0.24933333333333252-0.4586666666666659 0.27999999999999936-0.9786666666666655 0.1999999999999993-1.6879999999999988 0-2.603999999999999q-0.0426666666666673-0.8320000000000007-0.1893333333333338-1.5199999999999996t-0.293333333333333-0.9600000000000009l-0.12400000000000055-0.24799999999999933q-0.5199999999999996-0.706666666666667-1.770666666666667-0.8960000000000008-0.27066666666666706-0.03999999999999915 0.1039999999999992-0.5 0.3546666666666667-0.3960000000000008 0.7919999999999998-0.6266666666666669 1.1039999999999992-0.5399999999999991 4.978666666666667-0.4986666666666668 1.706666666666667 0.02133333333333276 2.8133333333333326 0.27066666666666706 0.41600000000000037 0.1039999999999992 0.6960000000000015 0.27999999999999936t0.42666666666666586 0.5013333333333332 0.21866666666666745 0.6666666666666661 0.07333333333333414 0.9466666666666672-0.022666666666665947 1.1466666666666665-0.053333333333334565 1.4693333333333332-0.029333333333333655 1.7200000000000006q0 0.22666666666666657-0.019999999999999574 0.8733333333333348t-0.010666666666665492 1 0.07333333333333414 0.8426666666666662 0.23999999999999844 0.8133333333333326 0.46933333333333493 0.5093333333333341q0.16666666666666785 0.03999999999999915 0.3546666666666667 0.08399999999999963t0.5413333333333341-0.22933333333333294 0.7920000000000016-0.7199999999999989 1.0826666666666682-1.3946666666666658 1.4160000000000004-2.2399999999999984q1.2506666666666675-2.1679999999999993 2.229333333333333-4.689333333333334 0.08399999999999963-0.20800000000000018 0.2079999999999984-0.36400000000000077t0.22933333333333294-0.21866666666666745l0.08399999999999963-0.06266666666666687 0.1039999999999992-0.05333333333333279 0.27066666666666706-0.06266666666666687 0.4173333333333318-0.010666666666667268 6.0000000000000036-0.03999999999999915q0.8133333333333326-0.10666666666666735 1.3333333333333357 0.050666666666666416t0.6466666666666683 0.3439999999999994z"></path></svg>