<?xml version="1.0"?><svg viewBox="0 0 40 40" xmlns="http://www.w3.org/2000/svg" height="40" width="40"><path d="m13.3 9.7v18.8q0 0.5-0.3 0.8t-0.8 0.4q-0.4 0-0.8-0.4l-5.7-5.8h-4.6q-0.4 0-0.8-0.3t-0.3-0.8v-6.6q0-0.5 0.3-0.8t0.8-0.3h4.6l5.7-5.8q0.4-0.4 0.8-0.4t0.8 0.4q0.3 0.3 0.3 0.8z m6 6.9q0.7 1.2 0.7 2.5t-0.7 2.5q-0.8 1.1-2 1.6-0.2 0.1-0.4 0.1-0.5 0-0.8-0.4t-0.3-0.7q0-0.4 0.2-0.7t0.5-0.4q0.3-0.2 0.6-0.4t0.5-0.6q0.2-0.4 0.2-1t-0.2-1q-0.2-0.4-0.5-0.6t-0.6-0.4q-0.3-0.2-0.5-0.4t-0.2-0.7q0-0.4 0.3-0.7t0.8-0.4q0.2 0 0.4 0.1 1.2 0.5 2 1.6z"></path></svg>