<?xml version="1.0"?><svg xmlns="http://www.w3.org/2000/svg" width="40" height="40" viewBox="0 0 40 40"><path d="m18.571428571428573 7.857142857142858v24.28571428571428q0 0.5799999999999983-0.4242857142857126 1.0042857142857144t-1.004285714285718 0.42428571428571615-1.0042857142857144-0.42428571428571615l-7.4328571428571415-7.432857142857138h-5.848571428571429q-0.5800000000000005 0-1.0042857142857147-0.4242857142857126t-0.4242857142857144-1.004285714285718v-8.571428571428571q0-0.5800000000000001 0.42428571428571416-1.0042857142857144t1.0042857142857144-0.4242857142857126h5.848571428571429l7.432857142857145-7.432857142857143q0.4242857142857126-0.4242857142857144 1.004285714285711-0.4242857142857144t1.0042857142857144 0.4242857142857144 0.42428571428571615 1.0042857142857144z m8.571428571428573 12.142857142857142q0 1.6971428571428575-0.9485714285714302 3.1571428571428584t-2.5114285714285707 2.088571428571427q-0.2228571428571442 0.1114285714285721-0.5571428571428569 0.1114285714285721-0.581428571428571 0-1.0057142857142871-0.4142857142857146t-0.4242857142857126-1.0142857142857125q0-0.46857142857142975 0.2671428571428578-0.7928571428571445t0.6471428571428568-0.5571428571428569 0.7571428571428562-0.5142857142857125 0.6485714285714295-0.7928571428571445 0.269999999999996-1.2714285714285722-0.2671428571428578-1.274285714285714-0.6457142857142841-0.7928571428571445-0.7571428571428562-0.514285714285716-0.6485714285714295-0.5571428571428569-0.2671428571428578-0.7928571428571445q0-0.6028571428571432 0.4242857142857126-1.0142857142857142t1.0042857142857144-0.4142857142857146q0.33428571428571274 0 0.5571428571428569 0.1114285714285721 1.5642857142857132 0.6028571428571432 2.5142857142857125 2.0757142857142856t0.9428571428571466 3.1685714285714326z m5.714285714285715 0q0 3.4142857142857146-1.8971428571428568 6.305714285714284t-5.022857142857145 4.207142857142859q-0.28999999999999915 0.10999999999999943-0.5571428571428569 0.10999999999999943-0.6042857142857159 0-1.0285714285714285-0.4242857142857126t-0.4242857142857126-1.0042857142857144q0-0.8714285714285701 0.8685714285714283-1.3171428571428585 1.25-0.6471428571428568 1.6971428571428575-0.9828571428571422 1.6514285714285712-1.2057142857142864 2.578571428571429-3.024285714285714t0.9285714285714235-3.870000000000001-0.928571428571427-3.8742857142857154-2.5771428571428565-3.024285714285714q-0.4471428571428575-0.33285714285714363-1.6971428571428575-0.9814285714285713-0.8714285714285701-0.4471428571428575-0.8714285714285701-1.3171428571428567 0-0.5785714285714292 0.42571428571428527-1.0028571428571436t1.0042857142857144-0.4242857142857144q0.28857142857143003 0 0.5785714285714292 0.11428571428571388 3.1257142857142846 1.314285714285715 5.022857142857145 4.205714285714286t1.8999999999999986 6.301428571428573z m5.714285714285715 0q0 5.1342857142857135-2.8342857142857127 9.431428571428572t-7.5428571428571445 6.328571428571426q-0.2914285714285718 0.11142857142856855-0.581428571428571 0.11142857142856855-0.581428571428571 0-1.0057142857142871-0.42428571428571615t-0.4242857142857126-1.0042857142857144q0-0.8028571428571425 0.8685714285714283-1.317142857142855 0.15714285714285836-0.09000000000000341 0.5028571428571418-0.23428571428571132t0.5028571428571418-0.23428571428571132q1.0285714285714285-0.5571428571428569 1.8285714285714292-1.138571428571428 2.747142857142858-2.0314285714285703 4.285714285714288-5.0671428571428585t1.5471428571428518-6.451428571428572-1.5428571428571445-6.451428571428572-4.285714285714285-5.0671428571428585q-0.8000000000000007-0.5800000000000001-1.8285714285714292-1.1385714285714288-0.15714285714285836-0.08999999999999986-0.5028571428571418-0.234285714285714t-0.5028571428571418-0.234285714285714q-0.8714285714285701-0.5142857142857142-0.8714285714285701-1.3171428571428576 0-0.5800000000000001 0.42571428571428527-1.0042857142857144t1.0042857142857144-0.4242857142857144q0.28857142857143003 0 0.5785714285714292 0.11142857142857121 4.709999999999997 2.031428571428571 7.542857142857141 6.328571428571428t2.835714285714282 9.431428571428574z"></path></svg>