<?xml version="1.0"?><svg viewBox="0 0 40 40" xmlns="http://www.w3.org/2000/svg" height="40" width="40"><path d="m13.3 9.7v18.8q0 0.5-0.3 0.8t-0.8 0.4q-0.4 0-0.8-0.4l-5.7-5.8h-4.6q-0.4 0-0.8-0.3t-0.3-0.8v-6.6q0-0.5 0.3-0.8t0.8-0.3h4.6l5.7-5.8q0.4-0.4 0.8-0.4t0.8 0.4q0.3 0.3 0.3 0.8z m6 6.9q0.7 1.2 0.7 2.5t-0.7 2.5q-0.8 1.1-2 1.6-0.2 0.1-0.4 0.1-0.5 0-0.8-0.4t-0.3-0.7q0-0.4 0.2-0.7t0.5-0.4q0.3-0.2 0.6-0.4t0.5-0.6q0.2-0.4 0.2-1t-0.2-1q-0.2-0.4-0.5-0.6t-0.6-0.4q-0.3-0.2-0.5-0.4t-0.2-0.7q0-0.4 0.3-0.7t0.8-0.4q0.2 0 0.4 0.1 1.2 0.5 2 1.6z m3.7-2.4q1.4 2.2 1.4 4.9t-1.4 4.9q-1.5 2.2-3.9 3.3-0.3 0.1-0.5 0.1-0.4 0-0.8-0.4t-0.3-0.8q0-0.6 0.7-1 0.9-0.5 1.3-0.7 1.3-1 2-2.4t0.7-3q0-1.6-0.7-3t-2-2.4q-0.4-0.2-1.3-0.7-0.7-0.4-0.7-1.1 0-0.4 0.3-0.7t0.8-0.4q0.2 0 0.5 0.1 2.4 1 3.9 3.3z m3.7-2.4q2.2 3.3 2.2 7.3t-2.2 7.3q-2.2 3.4-5.9 5-0.2 0-0.4 0-0.5 0-0.8-0.3t-0.3-0.8q0-0.6 0.6-1 0.2-0.1 0.4-0.2t0.4-0.2q0.8-0.4 1.4-0.8 2.2-1.6 3.4-4t1.2-5q0-2.7-1.2-5t-3.4-4q-0.6-0.4-1.4-0.8-0.1-0.1-0.4-0.2t-0.4-0.2q-0.6-0.4-0.6-1 0-0.5 0.3-0.8t0.8-0.3q0.2 0 0.4 0 3.7 1.6 5.9 5z"></path></svg>