<?xml version="1.0"?><svg viewBox="0 0 40 40" xmlns="http://www.w3.org/2000/svg" height="40" width="40"><path d="m18.6 7.4v23q0 0.5-0.4 0.9t-0.9 0.4-0.9-0.4l-7.1-7h-5.5q-0.6 0-1-0.4t-0.4-0.9v-8.1q0-0.6 0.4-1t1-0.4h5.5l7.1-7q0.4-0.4 0.9-0.4t0.9 0.4 0.4 0.9z m8.2 11.5q0 1.6-0.9 3t-2.4 2q-0.2 0.1-0.5 0.1-0.6 0-1-0.4t-0.4-1q0-0.4 0.3-0.7t0.6-0.6 0.7-0.4 0.6-0.8 0.3-1.2-0.3-1.2-0.6-0.7-0.7-0.5-0.6-0.6-0.3-0.7q0-0.6 0.4-1t1-0.4q0.3 0 0.5 0.1 1.5 0.6 2.4 2t0.9 3z m5.4 0q0 3.2-1.8 6t-4.8 3.9q-0.3 0.1-0.5 0.1-0.6 0-1-0.4t-0.4-0.9q0-0.8 0.8-1.3 1.2-0.6 1.6-0.9 1.6-1.1 2.5-2.8t0.9-3.7-0.9-3.7-2.5-2.8q-0.4-0.3-1.6-0.9-0.8-0.5-0.8-1.3 0-0.5 0.4-0.9t1-0.4q0.2 0 0.5 0.1 3 1.2 4.8 3.9t1.8 6z m5.4 0q0 4.9-2.7 8.9t-7.2 6q-0.2 0.1-0.5 0.1-0.6 0-1-0.4t-0.4-0.9q0-0.8 0.9-1.3 0.1-0.1 0.4-0.2t0.5-0.2q1-0.6 1.7-1.1 2.6-1.9 4.1-4.8t1.5-6.1-1.5-6.1-4.1-4.8q-0.7-0.5-1.7-1.1-0.1 0-0.5-0.2t-0.4-0.2q-0.9-0.5-0.9-1.2 0-0.6 0.4-1t1-0.4q0.3 0 0.5 0.1 4.5 1.9 7.2 6t2.7 8.9z"></path></svg>