<svg viewBox="0 0 2048 1896.0833" xmlns="http://www.w3.org/2000/svg"><path d="m580 461q0-41-25-66t-66-25q-43 0-76 25.5t-33 65.5q0 39 33 64.5t76 25.5q41 0 66-24.5t25-65.5z m743 507q0-28-25.5-50t-65.5-22q-27 0-49.5 22.5t-22.5 49.5q0 28 22.5 50.5t49.5 22.5q40 0 65.5-22t25.5-51z m-236-507q0-41-24.5-66t-65.5-25q-43 0-76 25.5t-33 65.5q0 39 33 64.5t76 25.5q41 0 65.5-24.5t24.5-65.5z m635 507q0-28-26-50t-65-22q-27 0-49.5 22.5t-22.5 49.5q0 28 22.5 50.5t49.5 22.5q39 0 65-22t26-51z m-266-397q-31-4-70-4-169 0-311 77t-223.5 208.5-81.5 287.5q0 78 23 152-35 3-68 3-26 0-50-1.5t-55-6.5-44.5-7-54.5-10.5-50-10.5l-253 127 72-218q-290-203-290-490 0-169 97.5-311t264-223.5 363.5-81.5q176 0 332.5 66t262 182.5 136.5 260.5z m592 561q0 117-68.5 223.5t-185.5 193.5l55 181-199-109q-150 37-218 37-169 0-311-70.5t-223.5-191.5-81.5-264 81.5-264 223.5-191.5 311-70.5q161 0 303 70.5t227.5 192 85.5 263.5z"/></svg>