<?xml version="1.0"?><svg viewBox="0 0 40 40" xmlns="http://www.w3.org/2000/svg" height="40" width="40"><path d="m11.3 10.5q0-0.8-0.5-1.3t-1.2-0.5q-0.9 0-1.5 0.5t-0.7 1.3q0 0.7 0.7 1.2t1.5 0.5q0.8 0 1.2-0.4t0.5-1.3z m14.5 9.9q0-0.6-0.5-1t-1.2-0.4q-0.6 0-1 0.4t-0.4 1q0 0.5 0.4 1t1 0.4q0.7 0 1.2-0.4t0.5-1z m-4.6-9.9q0-0.8-0.4-1.3t-1.3-0.5q-0.9 0-1.5 0.5t-0.7 1.3q0 0.7 0.7 1.2t1.5 0.5q0.8 0 1.3-0.4t0.4-1.3z m12.4 9.9q0-0.6-0.5-1t-1.2-0.4q-0.6 0-1 0.4t-0.5 1q0 0.5 0.5 1t1 0.4q0.7 0 1.2-0.4t0.5-1z m-5.2-7.8q-0.6 0-1.3 0-3.3 0-6.1 1.5t-4.4 4-1.6 5.6q0 1.6 0.5 3-0.7 0.1-1.3 0.1-0.5 0-1-0.1t-1.1-0.1-0.9-0.1-1-0.2-1-0.2l-4.9 2.5 1.4-4.3q-5.7-4-5.7-9.6 0-3.3 1.9-6t5.2-4.4 7.1-1.6q3.4 0 6.5 1.3t5.1 3.5 2.6 5.1z m11.6 11q0 2.3-1.3 4.4t-3.7 3.7l1.1 3.6-3.9-2.2q-2.9 0.8-4.2 0.8-3.3 0-6.1-1.4t-4.4-3.8-1.6-5.1 1.6-5.2 4.4-3.7 6.1-1.4q3.1 0 5.9 1.4t4.4 3.7 1.7 5.2z"></path></svg>