<?xml version="1.0"?><svg viewBox="0 0 40 40" xmlns="http://www.w3.org/2000/svg" height="40" width="40"><path d="m11.7 25.8q0.4-0.6 0.2-1.2t-0.8-0.8q-0.6-0.3-1.2-0.1t-1.1 0.8q-0.4 0.6-0.2 1.2t0.7 0.9q0.6 0.3 1.3 0.1t1.1-0.9z m1.7-2.1q0.1-0.2 0-0.4t-0.3-0.3q-0.2-0.1-0.5 0t-0.4 0.3q-0.3 0.5 0.3 0.8 0.2 0 0.5 0t0.4-0.4z m3 1.9q-0.8 1.8-2.8 2.6t-3.9 0.2q-1.8-0.6-2.5-2.2t0.1-3.2q0.8-1.7 2.6-2.5t3.7-0.3q1.9 0.5 2.7 2.1t0.1 3.3z m5.4-2.8q-0.2-1.7-1.6-2.9t-3.6-1.9q-2.2-0.6-4.7-0.4-3.9 0.4-6.5 2.5t-2.3 4.6q0.2 1.6 1.6 2.9t3.6 1.9q2.2 0.6 4.8 0.4 3.8-0.4 6.4-2.5t2.3-4.6z m5.3 0.1q0 1.2-0.6 2.4t-1.9 2.4q-1.2 1.1-2.9 2t-3.9 1.5q-2.3 0.5-4.7 0.5t-4.8-0.6q-2.3-0.6-4.2-1.6t-3-2.6q-1.1-1.6-1.1-3.5 0-2 1.2-4.2t3.4-4.5q3-2.9 6-4.1t4.2 0.1q1.2 1.1 0.4 3.6-0.1 0.3 0 0.4t0.1 0.1q0.2 0 0.3 0t0.2-0.1l0.1 0q2.5-1 4.3-1t2.7 1q0.7 1.1 0 3.1-0.1 0.3-0.1 0.4t0.1 0.2q0.1 0.1 0.2 0.1t0.3 0.1q1 0.3 1.8 0.8t1.3 1.5q0.6 0.9 0.6 2z m-3-12q1 0.3 1.8 1.1t0.9 1.9q0.2 1.1-0.1 2.1-0.2 0.4-0.5 0.6t-0.8 0q-0.4-0.1-0.6-0.5t-0.1-0.8q0.4-1-0.4-1.9t-1.8-0.6q-0.5 0.1-0.8-0.1t-0.4-0.7q-0.1-0.4 0.1-0.7t0.6-0.5q1.1-0.2 2.1 0.1z m4.9-1.7q1.5 1.7 1.9 3.9t-0.2 4.2q-0.1 0.4-0.6 0.7t-0.9 0q-0.4-0.1-0.7-0.6t-0.1-0.9q0.5-1.4 0.2-2.9t-1.4-2.8q-1.1-1.2-2.5-1.6t-3.1-0.2q-0.4 0.1-0.9-0.2t-0.5-0.7q-0.1-0.5 0.2-0.9t0.7-0.5q2.2-0.5 4.3 0.2t3.6 2.3z"></path></svg>