<?xml version="1.0"?><svg xmlns="http://www.w3.org/2000/svg" width="40" height="40" viewBox="0 0 40 40"><path d="m15.067142857142859 28.660000000000004q0.468571428571428-0.7571428571428562 0.24571428571428555-1.5399999999999991t-1.0057142857142853-1.1142857142857139q-0.757142857142858-0.31428571428571317-1.6285714285714281-0.024285714285714022t-1.3428571428571434 1.0285714285714285q-0.4900000000000002 0.7571428571428562-0.28857142857142826 1.5285714285714285t0.9600000000000009 1.1257142857142846 1.662857142857142 0.05714285714285694 1.395714285714286-1.0614285714285714z m2.1000000000000014-2.6999999999999993q0.17714285714285793-0.28999999999999915 0.07714285714285651-0.5914285714285725t-0.3885714285714279-0.4142857142857146q-0.31428571428571317-0.10999999999999943-0.6357142857142861 0.014285714285716011t-0.4800000000000004 0.4114285714285728q-0.3800000000000008 0.6914285714285704 0.28999999999999915 1.0042857142857144 0.31428571428571317 0.10999999999999943 0.6471428571428568-0.014285714285716011t0.4914285714285711-0.4114285714285728z m3.8814285714285717 2.388571428571428q-1.0042857142857144 2.277142857142856-3.5285714285714285 3.3485714285714288t-5 0.2671428571428578q-2.385714285714286-0.7571428571428562-3.291428571428572-2.8242857142857147t0.1457142857142859-4.185714285714287q1.048571428571428-2.0757142857142874 3.3814285714285717-3.102857142857143t4.697142857142856-0.4228571428571435q2.4771428571428586 0.6457142857142841 3.5385714285714265 2.6657142857142873t0.05714285714285694 4.252857142857142z m6.964285714285715-3.571428571428573q-0.20285714285714462-2.1428571428571423-1.9885714285714293-3.7942857142857136t-4.654285714285713-2.4328571428571415-6.12857142857143-0.46857142857142975q-4.975714285714286 0.5142857142857125-8.245714285714286 3.1571428571428584t-2.9571428571428573 5.905714285714286q0.20000000000000018 2.1428571428571423 1.9857142857142858 3.7957142857142863t4.657142857142857 2.432857142857145 6.125714285714286 0.46857142857142975q4.977142857142855-0.5142857142857125 8.247142857142858-3.1571428571428584t2.9571428571428555-5.905714285714286z m6.874285714285715 0.08857142857142719q0 1.5171428571428578-0.8257142857142838 3.114285714285714t-2.4328571428571415 3.057142857142857-3.7600000000000016 2.6242857142857154-5.0428571428571445 1.8528571428571396-6.039999999999999 0.691428571428574-6.138571428571428-0.7471428571428547-5.368571428571428-2.0742857142857147-3.8285714285714287-3.37142857142857-1.4500000000000068-4.4514285714285755q0-2.5671428571428585 1.55-5.46857142857143t4.408571428571428-5.757142857142858q3.774285714285714-3.7785714285714267 7.624285714285714-5.271428571428569t5.502857142857144 0.15714285714285658q1.4499999999999993 1.4285714285714288 0.44571428571428484 4.664285714285715-0.08999999999999986 0.31428571428571495-0.022857142857141355 0.4485714285714284t0.2228571428571442 0.15714285714285658 0.32428571428571473-0.014285714285714235 0.3000000000000007-0.07714285714285651l0.13428571428571345-0.042857142857142705q3.102857142857143-1.3185714285714294 5.491428571428571-1.3185714285714294t3.4142857142857146 1.361428571428572q1.0057142857142871 1.4057142857142857 0 3.9714285714285698-0.04285714285714448 0.2914285714285718-0.10000000000000142 0.4485714285714302t0.10000000000000142 0.27857142857142847 0.2685714285714269 0.16571428571428726 0.379999999999999 0.13428571428571345q1.2714285714285722 0.3999999999999986 2.299999999999997 1.048571428571428t1.7857142857142847 1.8185714285714276 0.7571428571428598 2.6000000000000014z m-1.6514285714285677-13.928571428571429q0.9371428571428595 1.048571428571428 1.2171428571428606 2.4214285714285726t-0.14571428571428413 2.6242857142857137q-0.1785714285714306 0.5142857142857142-0.6571428571428584 0.757142857142858t-0.9942857142857164 0.09142857142857252q-0.5142857142857125-0.17714285714285793-0.7571428571428562-0.6571428571428584t-0.09142857142857252-0.992857142857142q0.44714285714285396-1.4057142857142857-0.5357142857142847-2.477142857142857t-2.385714285714286-0.7799999999999994q-0.5371428571428574 0.1114285714285721-1.0057142857142871-0.17857142857142883t-0.5571428571428569-0.8285714285714292q-0.11428571428571388-0.5342857142857138 0.17714285714285793-0.9914285714285711t0.8257142857142874-0.5685714285714294q1.3399999999999999-0.2900000000000009 2.6571428571428584 0.12285714285714278t2.2528571428571453 1.4614285714285717z m4.039999999999999-3.638571428571429q1.942857142857143 2.1428571428571432 2.5114285714285742 4.965714285714287t-0.29999999999999716 5.390000000000001q-0.20285714285714107 0.6000000000000014-0.759999999999998 0.8914285714285732t-1.1600000000000037 0.08999999999999986-0.8928571428571459-0.7571428571428562-0.11142857142856855-1.1614285714285728q0.6257142857142881-1.8285714285714292 0.2228571428571442-3.84t-1.7857142857142847-3.5285714285714285q-1.3828571428571408-1.5385714285714283-3.3000000000000007-2.128571428571428t-3.862857142857141-0.19142857142857128q-0.6257142857142846 0.13428571428571434-1.1600000000000001-0.21142857142857174t-0.6714285714285708-0.9714285714285715 0.2142857142857153-1.1500000000000004 0.9714285714285715-0.6600000000000001q2.7428571428571438-0.5800000000000001 5.445714285714288 0.2571428571428571t4.642857142857146 3.0028571428571427z"></path></svg>