<?xml version="1.0"?><svg viewBox="0 0 40 40" xmlns="http://www.w3.org/2000/svg" height="40" width="40"><path d="m15.3 27.1q0.5-0.7 0.3-1.5t-1-1q-0.7-0.3-1.5 0t-1.3 0.9q-0.4 0.7-0.3 1.5t0.9 1 1.6 0.1 1.3-1z m2-2.6q0.2-0.2 0.1-0.5t-0.4-0.4q-0.3-0.1-0.6 0t-0.4 0.4q-0.4 0.6 0.2 0.9 0.3 0.1 0.7 0t0.4-0.4z m3.7 2.3q-1 2.1-3.3 3.2t-4.8 0.2q-2.2-0.7-3.1-2.7t0.2-3.9q0.9-2 3.2-2.9t4.4-0.4q2.3 0.6 3.3 2.5t0.1 4z m6.6-3.4q-0.2-2-1.9-3.6t-4.4-2.3-5.8-0.4q-4.7 0.5-7.8 3t-2.8 5.6q0.2 2 1.9 3.5t4.4 2.3 5.8 0.5q4.7-0.5 7.8-3t2.8-5.6z m6.5 0.1q0 1.4-0.8 2.9t-2.3 2.9-3.6 2.5-4.7 1.8-5.7 0.6-5.8-0.7-5.1-2-3.6-3.1-1.4-4.2q0-2.5 1.5-5.2t4.1-5.5q3.6-3.5 7.2-4.9t5.2 0.1q1.4 1.4 0.5 4.4-0.1 0.3-0.1 0.4t0.2 0.2 0.4 0 0.2-0.1l0.2 0q2.9-1.3 5.2-1.3t3.2 1.3q0.9 1.3 0 3.8-0.1 0.2-0.1 0.4t0.1 0.2 0.2 0.2 0.4 0.1q1.2 0.4 2.2 1t1.7 1.7 0.7 2.5z m-1.6-13.2q0.9 1 1.2 2.3t-0.2 2.5q-0.1 0.5-0.6 0.7t-0.9 0.1q-0.5-0.2-0.8-0.6t0-1q0.4-1.3-0.5-2.3t-2.3-0.7q-0.5 0.1-1-0.2t-0.5-0.8q-0.1-0.5 0.2-0.9t0.8-0.6q1.2-0.2 2.5 0.2t2.1 1.3z m3.8-3.4q1.9 2 2.4 4.7t-0.3 5.1q-0.2 0.6-0.7 0.8t-1.1 0.1-0.8-0.7-0.1-1.1q0.5-1.7 0.2-3.6t-1.7-3.4q-1.3-1.4-3.1-2t-3.7-0.2q-0.6 0.2-1.1-0.2t-0.6-0.9 0.2-1.1 0.9-0.6q2.6-0.5 5.1 0.3t4.4 2.8z"></path></svg>