<?xml version="1.0"?><svg viewBox="0 0 40 40" xmlns="http://www.w3.org/2000/svg" height="40" width="40"><path d="m9.6 12.7q0.5-0.4 0.5-1.2t-0.5-1.1q-0.4-0.4-1.1-0.4-0.8 0-1.3 0.4t-0.6 1.1q0 0.7 0.6 1.2t1.3 0.4q0.7 0 1.1-0.4z m13.4 7.6q0-0.4-0.5-0.8t-1.1-0.4q-0.5 0-0.9 0.4t-0.4 0.8q0 0.5 0.4 0.9t0.9 0.4q0.7 0 1.1-0.4t0.5-0.9z m-4.6-7.6q0.5-0.4 0.5-1.2t-0.5-1.1q-0.4-0.4-1.1-0.4-0.7 0-1.3 0.4t-0.6 1.1q0 0.7 0.6 1.2t1.3 0.4q0.7 0 1.1-0.4z m11.5 7.6q0-0.4-0.5-0.8t-1.1-0.4q-0.5 0-0.8 0.4t-0.4 0.8q0 0.5 0.4 0.9t0.8 0.4q0.7 0 1.1-0.4t0.5-0.9z m-4.6-6.8q-0.6-0.1-1.2-0.1-3 0-5.4 1.3t-3.9 3.6q-1.4 2.3-1.4 5 0 1.4 0.4 2.7-0.6 0-1.2 0-0.5 0-0.9 0t-0.9-0.1q-0.6-0.1-0.8-0.1t-1-0.2q-0.7-0.2-0.8-0.2l-4.4 2.2 1.2-3.8q-5-3.5-5-8.5 0-2.9 1.7-5.4t4.6-3.9q2.9-1.4 6.3-1.4 3 0 5.8 1.2t4.5 3.1q1.8 2.1 2.4 4.6z m10.3 9.7q0 2-1.2 3.9t-3.3 3.3l1 3.2-3.5-1.9q-2.6 0.6-3.7 0.6-3 0-5.4-1.2t-3.9-3.3q-1.4-2.1-1.4-4.6t1.4-4.6q1.4-2.1 3.9-3.3t5.4-1.2q2.8 0 5.2 1.2t4 3.3q1.5 2.1 1.5 4.6z"></path></svg>