<?xml version="1.0"?><svg xmlns="http://www.w3.org/2000/svg" width="40" height="40" viewBox="0 0 40 40"><path d="m24.842857142857145 21.742857142857144q0.2914285714285718 0 2.177142857142858 0.9814285714285731t1.9971428571428582 1.1828571428571415q0.04285714285714448 0.1114285714285721 0.04285714285714448 0.33428571428571274 0 0.7357142857142875-0.3785714285714299 1.6957142857142848-0.35714285714285765 0.8714285714285701-1.5857142857142854 1.46142857142857t-2.2757142857142867 0.5914285714285725q-1.2714285714285722 0-4.242857142857144-1.3857142857142861-2.185714285714287-1.0028571428571418-3.7928571428571445-2.6328571428571443t-3.304285714285715-4.12857142857143q-1.6071428571428577-2.388571428571428-1.5857142857142854-4.328571428571429v-0.17999999999999972q0.0685714285714294-2.031428571428572 1.652857142857144-3.5285714285714285 0.5357142857142865-0.4900000000000002 1.1600000000000001-0.4900000000000002 0.13428571428571345 0 0.40000000000000036 0.03428571428571381t0.42571428571428527 0.03285714285714292q0.4242857142857144 0 0.5914285714285707 0.1457142857142859t0.345714285714287 0.6142857142857139q0.17857142857142705 0.4457142857142866 0.7371428571428567 1.9628571428571426t0.5571428571428569 1.6742857142857144q0 0.46857142857142975-0.7685714285714305 1.282857142857143t-0.7714285714285722 1.03857142857143q0 0.15714285714285836 0.11428571428571388 0.3357142857142854 0.7571428571428562 1.62857142857143 2.2757142857142867 3.057142857142857 1.2514285714285727 1.1857142857142868 3.37142857142857 2.2571428571428562 0.2671428571428578 0.15428571428571303 0.4914285714285711 0.15428571428571303 0.33428571428571274 0 1.2057142857142864-1.0828571428571436t1.1600000000000001-1.0828571428571436z m-4.5285714285714285 11.828571428571426q2.8328571428571436 0 5.434285714285714-1.1142857142857139t4.475714285714286-2.9928571428571438 2.9914285714285676-4.475714285714286 1.1171428571428592-5.435714285714287-1.1142857142857139-5.435714285714287-2.9928571428571438-4.475714285714286-4.475714285714286-2.9928571428571438-5.435714285714287-1.1142857142857139-5.437142857142858 1.1142857142857139-4.477142857142855 2.99428571428572-2.9885714285714275 4.471428571428573-1.1142857142857139 5.435714285714285q0 4.531428571428574 2.677142857142858 8.214285714285715l-1.7614285714285716 5.199999999999999 5.3999999999999995-1.717142857142857q3.527142857142856 2.324285714285711 7.701428571428572 2.324285714285711z m0-30.848571428571432q3.4142857142857146 0 6.5285714285714285 1.3399999999999999t5.367142857142856 3.5942857142857143 3.5942857142857108 5.368571428571428 1.3400000000000034 6.5285714285714285-1.3385714285714272 6.5285714285714285-3.594285714285718 5.368571428571428-5.368571428571428 3.594285714285718-6.5285714285714285 1.3400000000000034q-4.354285714285714 0-8.148571428571428-2.1000000000000014l-9.308571428571428 2.9942857142857164 3.0357142857142847-9.04q-2.4099999999999993-3.9728571428571477-2.4099999999999993-8.682857142857145 0-3.4171428571428564 1.3399999999999999-6.5285714285714285t3.5942857142857134-5.371428571428571 5.36857142857143-3.5914285714285716 6.52857142857143-1.3399999999999999z"></path></svg>