<?xml version="1.0"?><svg xmlns="http://www.w3.org/2000/svg" width="40" height="40" viewBox="0 0 40 40"><path d="m20 32.24625q-0.39124999999999943 0-1.8162500000000001-1.4349999999999987t-1.4250000000000007-1.8275000000000006q0-0.625 1.2199999999999989-1.0549999999999997t2.021250000000002-0.4287500000000044 2.021250000000002 0.4299999999999997 1.2212500000000013 1.0549999999999997q0 0.39124999999999943-1.4250000000000007 1.8249999999999993t-1.8175000000000026 1.4400000000000013z m5.274999999999999-5.2925q-0.03999999999999915 0-0.7824999999999989-0.4875000000000007t-1.9825000000000017-0.9774999999999991-2.509999999999998-0.4887500000000031-2.509999999999998 0.4875000000000007-1.9725000000000001 0.9774999999999991-0.7912499999999998 0.4875000000000007q-0.34999999999999964 0-1.8249999999999993-1.4624999999999986t-1.4749999999999996-1.817499999999999q0-0.25375000000000014 0.19500000000000028-0.4499999999999993 1.5250000000000004-1.5025000000000013 3.8287499999999994-2.3625000000000007t4.549999999999997-0.860000000000003 4.550000000000001 0.8599999999999994 3.830000000000002 2.3625000000000007q0.19500000000000028 0.19624999999999915 0.19500000000000028 0.4499999999999993 0 0.3500000000000014-1.4750000000000014 1.8162500000000001t-1.8249999999999993 1.4662499999999987z m5.329999999999998-5.3125q-0.21499999999999986 0-0.4499999999999993-0.15625-2.655000000000001-2.0500000000000007-4.921250000000001-3.017500000000002t-5.233749999999997-0.9675000000000011q-1.6625000000000014 0-3.3312500000000007 0.4312499999999986t-2.91 1.0350000000000001-2.2162500000000005 1.2124999999999986-1.5424999999999986 1.0337500000000013-0.6050000000000004 0.4299999999999997q-0.3324999999999996 0-1.7962500000000006-1.4649999999999999t-1.4662499999999996-1.8149999999999977q0-0.23499999999999943 0.19500000000000028-0.4312499999999986 2.5787500000000003-2.5787499999999994 6.250000000000001-4.00375t7.422499999999999-1.4250000000000007 7.425000000000001 1.4250000000000007 6.2499999999999964 4.00375q0.19375000000000142 0.19500000000000028 0.19375000000000142 0.4299999999999997 0 0.3500000000000014-1.4649999999999963 1.8150000000000013t-1.7962500000000006 1.4649999999999999z m5.293750000000003-5.293749999999999q-0.21625000000000227 0-0.4312499999999986-0.1750000000000007-3.49625-3.067500000000001-7.256250000000001-4.620000000000001t-8.21125-1.552500000000002-8.2125 1.552500000000002-7.25625 4.618749999999999q-0.21499999999999986 0.1750000000000007-0.4299999999999997 0.1750000000000007-0.3312499999999998 0-1.8049999999999997-1.4625000000000004t-1.4762500000000005-1.8187500000000014q0-0.25375000000000014 0.19500000000000006-0.4499999999999993 3.6525000000000003-3.6312499999999996 8.69125-5.625t10.29375-1.9900000000000002 10.291250000000002 1.9924999999999997 8.69125 5.625q0.19500000000000028 0.19500000000000028 0.19500000000000028 0.4499999999999993 0 0.34999999999999964-1.4750000000000014 1.8149999999999995t-1.8062499999999986 1.464999999999998z"></path></svg>