<?xml version="1.0"?><svg viewBox="0 0 40 40" xmlns="http://www.w3.org/2000/svg" height="40" width="40"><path d="m19.4 28.7q-1.3 1.3-1.6 1.3t-1.6-1.3q-1.3-1.3-1.3-1.6 0-0.6 1.1-1t1.8-0.3q0.7 0 1.8 0.3t1.1 1q0 0.3-1.3 1.6z m3.1-3.4q-0.1 0-0.7-0.5t-1.8-0.8q-1.1-0.5-2.2-0.5t-2.3 0.5q-1.1 0.4-1.7 0.8t-0.7 0.5q-0.3 0-1.6-1.3t-1.3-1.6q0-0.3 0.1-0.4 1.4-1.4 3.4-2.1t4.1-0.8q2 0 4 0.8t3.4 2.1q0.2 0.1 0.2 0.4 0 0.3-1.3 1.6t-1.6 1.3z m4.7-4.7q-0.2 0-0.4-0.2-2.4-1.8-4.4-2.7t-4.6-0.8q-1.5 0-3 0.4t-2.6 0.9q-1.1 0.5-1.9 1.1t-1.4 0.9q-0.5 0.4-0.5 0.4-0.3 0-1.6-1.3t-1.3-1.7q0-0.2 0.1-0.3 2.3-2.3 5.6-3.6t6.6-1.3q3.3 0 6.6 1.3t5.5 3.6q0.2 0.1 0.2 0.3 0 0.4-1.3 1.7t-1.6 1.3z m4.7-4.8q-0.2 0-0.4-0.1-3.1-2.7-6.4-4.1t-7.3-1.4q-4 0-7.3 1.4t-6.5 4.1q-0.2 0.1-0.4 0.1-0.2 0-1.6-1.3t-1.3-1.6q0-0.2 0.2-0.4 3.2-3.2 7.7-5t9.2-1.7q4.6 0 9.1 1.7t7.8 5q0.1 0.2 0.1 0.4 0 0.3-1.3 1.6t-1.6 1.3z"></path></svg>