<?xml version="1.0"?><svg xmlns="http://www.w3.org/2000/svg" width="40" height="40" viewBox="0 0 40 40"><path d="m2.8342857142857145 20q0-3.638571428571428 1.4957142857142856-6.985714285714286l8.192857142857143 22.42857142857143q-4.375714285714286-2.1199999999999974-7.031428571428571-6.271428571428572t-2.6571428571428575-9.175714285714285z m28.75-0.8714285714285701q0 0.42571428571428527-0.05714285714285694 0.8614285714285721t-0.2228571428571442 1.1042857142857159-0.25714285714285623 0.9828571428571422-0.39000000000000057 1.3171428571428585-0.3885714285714279 1.2942857142857136l-1.6971428571428575 5.714285714285715-6.205714285714286-18.43714285714286q1.0285714285714285-0.06714285714285673 1.9642857142857153-0.17857142857142883 0.42571428571428527-0.042857142857142705 0.581428571428571-0.41142857142857103t-0.05714285714285694-0.6914285714285722-0.6342857142857135-0.3000000000000007l-4.575714285714284 0.22142857142857153q-1.6742857142857126-0.02285714285714313-4.508571428571429-0.22285714285714242-0.2671428571428578-0.02285714285714313-0.4571428571428573 0.1114285714285721t-0.257142857142858 0.3342857142857145-0.03285714285714292 0.41142857142857103 0.20285714285714285 0.36857142857142833 0.43571428571428505 0.17857142857142883l1.7857142857142847 0.17999999999999972 2.6785714285714306 7.321428571428571-3.75 11.251428571428573-6.25-18.571428571428573q1.0285714285714285-0.06714285714285673 1.9642857142857153-0.17857142857142883 0.4242857142857144-0.042857142857142705 0.5800000000000001-0.41142857142857103t-0.05714285714285694-0.6914285714285722-0.6342857142857152-0.3000000000000007l-4.577142857142857 0.22142857142857153q-0.15714285714285747 0-0.5142857142857142-0.011428571428570677t-0.5785714285714283-0.011428571428570677q2.345714285714285-3.571428571428571 6.128571428571428-5.6571428571428575t8.202857142857141-2.0885714285714285q3.2814285714285703 0 6.261428571428571 1.1828571428571428t5.324285714285715 3.3257142857142856h-0.2228571428571442q-1.2285714285714278 0-2.0528571428571425 0.9057142857142848t-0.8285714285714292 2.1314285714285717q0 0.2671428571428578 0.04571428571428626 0.5357142857142865t0.08999999999999986 0.4814285714285713 0.17857142857142705 0.5142857142857142 0.1999999999999993 0.4671428571428571 0.2685714285714269 0.5028571428571436 0.27857142857142847 0.468571428571428 0.32428571428571473 0.5357142857142865 0.31428571428571317 0.5114285714285707q1.404285714285713 2.388571428571428 1.404285714285713 4.732857142857142z m-11.295714285714286 2.3671428571428557l5.289999999999999 14.442857142857143q0.022857142857141355 0.1328571428571408 0.1114285714285721 0.24285714285714022-2.814285714285713 0.9857142857142875-5.69142857142857 0.9857142857142875-2.5 0-4.842857142857143-0.7142857142857153z m14.754285714285718-9.732857142857142q2.1214285714285737 3.885714285714286 2.1214285714285737 8.237142857142857 0 4.665714285714287-2.3214285714285694 8.604285714285716t-6.228571428571428 6.217142857142861l5.247142857142855-15.134285714285713q1.317142857142855-3.7714285714285722 1.317142857142855-6.157142857142857 0-0.9385714285714286-0.134285714285717-1.7642857142857142z m-15.042857142857144-11.762857142857143q4.062857142857144 0 7.767142857142858 1.5857142857142859t6.385714285714286 4.2614285714285725 4.261428571428574 6.385714285714284 1.5857142857142819 7.764285714285716-1.585714285714289 7.765714285714285-4.262857142857143 6.385714285714286-6.385714285714286 4.261428571428574-7.765714285714282 1.5857142857142819-7.767142857142858-1.585714285714289-6.385714285714285-4.261428571428574-4.261428571428572-6.385714285714286-1.5857142857142854-7.762857142857136 1.5857142857142859-7.7714285714285705 4.262857142857143-6.385714285714285 6.385714285714286-4.261428571428572 7.765714285714285-1.5814285714285727z m0 39.08571428571429q3.861428571428572 0 7.399999999999999-1.518571428571427t6.094285714285711-4.074285714285715 4.074285714285715-6.094285714285714 1.517142857142865-7.398571428571433-1.5171428571428578-7.399999999999999-4.074285714285715-6.095714285714286-6.094285714285718-4.075714285714287-7.399999999999999-1.5142857142857136-7.399999999999999 1.514285714285714-6.094285714285715 4.077142857142858-4.074285714285715 6.094285714285714-1.5171428571428571 7.399999999999999 1.5171428571428571 7.399999999999999 4.074285714285714 6.092857142857142 6.094285714285714 4.074285714285715 7.4 1.518571428571434z"></path></svg>