<?xml version="1.0"?><svg viewBox="0 0 40 40" xmlns="http://www.w3.org/2000/svg" height="40" width="40"><path d="m2.2 19.1q0-2.8 1.2-5.4l6.3 17.4q-3.4-1.6-5.4-4.9t-2.1-7.1z m22.4-0.7q0 0.3-0.1 0.7t-0.2 0.8q-0.1 0.6-0.2 0.8t-0.3 1q-0.2 0.8-0.3 1l-1.3 4.5-4.8-14.4q0.8 0 1.5-0.1 0.4 0 0.5-0.3t-0.1-0.6q-0.1-0.2-0.5-0.2l-3.5 0.2q-1.3 0-3.5-0.2-0.2 0-0.4 0.1t-0.2 0.3q0 0.1 0 0.3t0.1 0.3q0.2 0.1 0.4 0.1l1.4 0.1 2.1 5.7-3 8.8-4.8-14.5q0.8 0 1.5-0.1 0.3 0 0.5-0.3t-0.1-0.6q-0.2-0.2-0.5-0.2l-3.5 0.2q-0.2 0-0.4 0t-0.5 0q1.8-2.8 4.8-4.4t6.4-1.7q2.5 0 4.8 1t4.2 2.6h-0.2q-1 0-1.6 0.7t-0.6 1.6q0 0.2 0 0.4t0.1 0.4q0 0.2 0.1 0.4t0.2 0.4q0 0.1 0.2 0.4t0.2 0.3q0 0.1 0.2 0.4t0.3 0.4q1.1 1.9 1.1 3.7z m-8.8 1.9l4.1 11.2q0 0.1 0.1 0.2-2.2 0.7-4.4 0.7-2 0-3.8-0.5l4-11.6z m11.5-7.6q1.6 3 1.6 6.4 0 3.6-1.8 6.7t-4.8 4.8l4-11.7q1.1-3 1.1-4.8 0-0.8-0.1-1.4z m-17.8-7.9q2.9-1.3 6.1-1.3t6 1.3q2.9 1.2 5 3.3t3.3 5q1.2 2.8 1.2 6t-1.2 6q-1.3 2.9-3.3 5t-5 3.3q-2.9 1.3-6 1.3t-6.1-1.3q-2.9-1.2-5-3.3t-3.3-5q-1.2-2.8-1.2-6t1.2-6q1.3-2.9 3.3-5t5-3.3z m0.3 28q2.8 1.1 5.8 1.1t5.7-1.1q2.8-1.2 4.8-3.2t3.1-4.7q1.2-2.8 1.2-5.8t-1.2-5.8q-1.2-2.7-3.1-4.7t-4.8-3.2q-2.7-1.1-5.7-1.1t-5.8 1.1q-2.8 1.2-4.7 3.2t-3.2 4.7q-1.2 2.8-1.2 5.8t1.2 5.8q1.2 2.7 3.2 4.7t4.7 3.2z"></path></svg>