<?xml version="1.0"?><svg viewBox="0 0 40 40" xmlns="http://www.w3.org/2000/svg" height="40" width="40"><path d="m10.5 31.1q0-0.6-0.4-1t-0.9-0.4-1 0.4-0.4 1 0.4 0.9 1 0.4 0.9-0.4 0.4-0.9z m13.6-8.9l-14.4 14.4q-0.7 0.8-1.9 0.8-1 0-1.9-0.8l-2.2-2.3q-0.8-0.8-0.8-1.9 0-1.1 0.8-1.9l14.4-14.4q0.8 2.1 2.4 3.7t3.6 2.4z m13.4-9.2q0 0.8-0.5 2.3-1 2.8-3.4 4.5t-5.5 1.8q-3.9 0-6.7-2.8t-2.8-6.6 2.8-6.7 6.7-2.8q1.2 0 2.6 0.3t2.2 1q0.4 0.3 0.4 0.6t-0.4 0.6l-6.1 3.6v4.7l4 2.3q0.1-0.1 1.7-1.1t2.8-1.7 1.5-0.7q0.4 0 0.5 0.2t0.2 0.5z"></path></svg>