<?xml version="1.0"?><svg xmlns="http://www.w3.org/2000/svg" width="40" height="40" viewBox="0 0 40 40"><path d="m10 32.85714285714286q0-0.5799999999999983-0.4242857142857144-1.0042857142857144t-1.0042857142857144-0.42428571428571615-1.0042857142857144 0.4242857142857126-0.4242857142857135 1.004285714285718 0.4242857142857144 1.0042857142857144 1.0042857142857136 0.42428571428570905 1.0042857142857144-0.42428571428571615 0.4242857142857144-1.0042857142857073z m14.375714285714288-9.374285714285715l-15.222857142857144 15.22285714285714q-0.8257142857142856 0.8257142857142838-2.008571428571429 0.8257142857142838-1.1571428571428575 0-2.0285714285714285-0.8257142857142838l-2.3700000000000006-2.4099999999999966q-0.8457142857142859-0.8028571428571496-0.8457142857142859-2.010000000000005 0-1.1814285714285688 0.8471428571428572-2.028571428571432l15.2-15.202857142857141q0.8714285714285701 2.185714285714287 2.557142857142857 3.87142857142857t3.87142857142857 2.557142857142857z m14.152857142857137-9.711428571428574q0 0.8714285714285719-0.5142857142857125 2.367142857142859-1.048571428571428 2.991428571428571-3.671428571428571 4.854285714285716t-5.771428571428569 1.8642857142857103q-4.12857142857143 0-7.062857142857144-2.935714285714287t-2.937142857142856-7.064285714285713 2.937142857142856-7.064285714285715 7.062857142857144-2.9357142857142855q1.2957142857142863 0 2.7142857142857153 0.36857142857142877t2.400000000000002 1.0385714285714283q0.3571428571428541 0.24571428571428555 0.3571428571428541 0.6257142857142854t-0.3571428571428541 0.6257142857142854l-6.542857142857148 3.774285714285716v5l4.309999999999999 2.3885714285714297q0.1114285714285721-0.0671428571428585 1.7628571428571433-1.0828571428571436t3.027142857142863-1.8100000000000005 1.5742857142857147-0.7928571428571427q0.33428571428571274 0 0.5242857142857176 0.22285714285714242t0.18999999999999773 0.5600000000000005z"></path></svg>