<?xml version="1.0"?><svg xmlns="http://www.w3.org/2000/svg" width="40" height="40" viewBox="0 0 40 40"><path d="m18.147142857142857 17.075714285714284q0-0.022857142857141355-2.814285714285715-4.957142857142857-0.4671428571428571-0.757142857142858-1.1571428571428566-0.757142857142858h-4.109999999999999q-0.40000000000000036 0-0.5800000000000001 0.24571428571428555-0.1542857142857148 0.2671428571428578 0.024285714285714022 0.6471428571428568l2.790000000000001 4.821428571428573v0.022857142857141355l-4.375714285714286 7.7214285714285715q-0.20000000000000018 0.31428571428571317 0 0.6257142857142846 0.17857142857142883 0.28999999999999915 0.5357142857142865 0.28999999999999915h4.12857142857143q0.6928571428571431 0 1.1171428571428574-0.8028571428571425z m13.928571428571427-11.092857142857143q-0.1571428571428548-0.268571428571426-0.5357142857142847-0.268571428571426h-4.174285714285716q-0.6714285714285708 0-1.0942857142857143 0.7828571428571429l-9.174285714285713 16.271428571428572q0.022857142857141355 0.04571428571428626 5.848571428571429 10.73857142857143 0.4471428571428575 0.7814285714285703 1.1600000000000001 0.7814285714285703h4.107142857142858q0.3999999999999986 0 0.5571428571428569-0.2671428571428578 0.17857142857142705-0.28999999999999915-0.022857142857141355-0.6257142857142881l-5.8028571428571425-10.625714285714288v-0.024285714285714022l9.12857142857143-16.13857142857143q0.17999999999999972-0.35714285714285676 0-0.6257142857142854z m5.067142857142862 3.302857142857146v21.42857142857143q0 2.6571428571428584-1.8857142857142861 4.5428571428571445t-4.5428571428571445 1.8857142857142861h-21.42857142857143q-2.6571428571428575 0-4.542857142857144-1.8857142857142861t-1.885714285714284-4.5428571428571445v-21.42857142857143q0-2.6571428571428575 1.8857142857142857-4.542857142857144t4.542857142857144-1.885714285714284h21.42857142857143q2.6571428571428584 0 4.5428571428571445 1.8857142857142857t1.8857142857142861 4.542857142857144z"></path></svg>