<?xml version="1.0"?><svg viewBox="0 0 40 40" xmlns="http://www.w3.org/2000/svg" height="40" width="40"><path d="m18.2 16.1q0 0-2.6-4.6-0.5-0.8-1.1-0.8h-3.9q-0.4 0-0.5 0.3-0.2 0.2 0 0.6l2.6 4.5v0.1l-4.1 7.3q-0.2 0.3 0 0.5 0.2 0.3 0.5 0.3h3.9q0.7 0 1.1-0.7z m13.2-10.4q-0.1-0.3-0.5-0.3h-3.9q-0.7 0-1.1 0.7l-8.6 15.4q0 0.1 5.5 10.2 0.4 0.7 1.1 0.7h3.9q0.3 0 0.5-0.2 0.2-0.3 0-0.6l-5.5-10.1v0l8.6-15.3q0.2-0.3 0-0.5z m4.8 3.1v20.2q0 2.5-1.8 4.3t-4.3 1.8h-20.2q-2.5 0-4.3-1.8t-1.8-4.3v-20.2q0-2.5 1.8-4.3t4.3-1.8h20.2q2.5 0 4.3 1.8t1.8 4.3z"></path></svg>