<?xml version="1.0"?><svg viewBox="0 0 40 40" xmlns="http://www.w3.org/2000/svg" height="40" width="40"><path d="m11.9 16.8q0 0-2.2-3.8-0.4-0.6-0.9-0.6h-3.2q-0.3 0-0.4 0.2-0.2 0.2 0 0.5l2.1 3.7v0l-3.4 6q-0.1 0.3 0 0.5 0.2 0.3 0.5 0.3h3.2q0.5 0 0.8-0.7l3.5-6.1z m10.8-8.6q-0.1-0.2-0.4-0.2h-3.2q-0.6 0-0.9 0.6l-7.1 12.6q0 0.1 4.5 8.4 0.4 0.6 0.9 0.6h3.2q0.3 0 0.5-0.2 0.1-0.2-0.1-0.5l-4.5-8.3v0l7.1-12.5q0.2-0.3 0-0.5z m4 2.6v16.6q0 2.1-1.5 3.6t-3.5 1.4h-16.7q-2.1 0-3.5-1.4t-1.5-3.6v-16.6q0-2.1 1.5-3.6t3.5-1.4h16.7q2 0 3.5 1.4t1.5 3.6z"></path></svg>