<?xml version="1.0"?><svg xmlns="http://www.w3.org/2000/svg" width="40" height="40" viewBox="0 0 40 40"><path d="m22.031428571428574 21.361428571428572l0.28999999999999915 15.781428571428574q-1.3857142857142861-0.24571428571428555-2.3428571428571416-0.24571428571428555-0.9171428571428564 0-2.345714285714287 0.24571428571428555l0.28999999999999915-15.78142857142857q-0.8928571428571423-1.5399999999999991-3.7614285714285707-6.595714285714287t-4.832857142857144-8.360000000000003-4.040000000000001-6.405714285714286q1.2942857142857145 0.3342857142857143 2.41 0.3342857142857143 0.9571428571428573 0 2.475714285714286-0.3342857142857143 1.4057142857142857 2.4771428571428573 2.9800000000000004 5.122857142857143t3.7257142857142878 6.171428571428571 3.0914285714285725 5.0671428571428585q0.8257142857142838-1.361428571428572 2.442857142857143-3.9614285714285717t2.6242857142857154-4.242857142857142 2.3428571428571416-3.928571428571429 2.392857142857139-4.2285714285714295q1.2057142857142864 0.3142857142857143 2.388571428571428 0.3142857142857143 1.25 0 2.5428571428571445-0.3142857142857143-0.6242857142857119 0.8714285714285714-1.3385714285714272 1.9757142857142858t-1.1042857142857159 1.752857142857143-1.2614285714285707 2.1428571428571432-1.0928571428571416 1.8757142857142854q-3.2571428571428562 5.535714285714286-7.879999999999999 13.614285714285714z"></path></svg>