<?xml version="1.0"?><svg xmlns="http://www.w3.org/2000/svg" width="40" height="40" viewBox="0 0 40 40"><path d="m20.111428571428572 29.442857142857143v2.8328571428571436q-0.022857142857141355 6.517142857142858-0.13428571428571345 6.808571428571426-0.2671428571428578 0.7142857142857153-1.138571428571428 0.8914285714285697-1.2057142857142864 0.20000000000000284-4.051428571428572-0.8485714285714252t-3.625714285714288-1.9842857142857113q-0.2900000000000009-0.33571428571428896-0.3800000000000008-0.8042857142857116-0.02285714285714313-0.2671428571428578 0.08999999999999986-0.5799999999999983 0.08857142857142897-0.22142857142856798 0.757142857142858-1.047142857142859t4.040000000000001-4.821428571428569q0.02285714285714313 0 1.3399999999999999-1.562857142857144 0.33428571428571274-0.4242857142857126 0.8814285714285717-0.5471428571428554t1.1042857142857159 0.07857142857142918q0.5357142857142847 0.2228571428571442 0.8371428571428581 0.6471428571428568t0.27857142857142847 0.937142857142856z m-3.3257142857142874-5.604285714285712q-0.0671428571428585 1.2285714285714278-1.1600000000000001 1.562857142857144l-2.678571428571429 0.8714285714285701q-6.138571428571427 1.9628571428571426-6.518571428571427 1.9628571428571426-0.7800000000000002-0.04285714285714448-1.2042857142857137-0.8028571428571425-0.2671428571428569-0.5571428571428569-0.3799999999999999-1.6742857142857126-0.17714285714285705-1.6971428571428575 0.024285714285714022-3.717142857142857t0.6714285714285717-2.7785714285714285 1.248571428571429-0.7142857142857153q0.2914285714285718 0 4.51 1.7185714285714297 1.5628571428571423 0.6471428571428568 2.5671428571428567 1.048571428571428l1.8757142857142863 0.7571428571428562q0.5142857142857142 0.20285714285714107 0.7928571428571427 0.6828571428571415t0.25714285714285623 1.0828571428571436z m18.43714285714286 6.62857142857143q-0.15714285714285836 1.2057142857142864-2.0428571428571445 3.594285714285718t-3.024285714285714 2.8342857142857127q-0.8285714285714292 0.3142857142857167-1.4071428571428584-0.15714285714285836-0.31428571428571317-0.22142857142856798-4.107142857142858-6.404285714285713l-1.048571428571428-1.7185714285714297q-0.31428571428571317-0.46857142857142975-0.25714285714285623-1.0285714285714285t0.43571428571428683-1.0257142857142867q0.7828571428571429-0.9600000000000009 1.8542857142857159-0.5800000000000018 0.022857142857141355 0.022857142857141355 2.6571428571428584 0.8928571428571423 4.528571428571432 1.4714285714285715 5.399999999999999 1.774285714285714t1.048571428571428 0.4571428571428555q0.6257142857142881 0.4914285714285711 0.4914285714285711 1.361428571428572z m-15-14.107142857142858q0.1114285714285721 2.277142857142856-1.2057142857142864 2.722857142857144-1.2942857142857136 0.3785714285714299-2.5428571428571445-1.5857142857142854l-8.439999999999998-13.34571428571429q-0.17857142857142883-0.7814285714285707 0.4242857142857144-1.3857142857142848 0.9142857142857146-0.9571428571428573 4.631428571428572-1.9957142857142858t5.0114285714285725-0.7042857142857143q0.8928571428571423 0.22285714285714286 1.0942857142857143 1.0042857142857144 0.0671428571428585 0.3999999999999999 0.4914285714285711 6.818571428571429t0.5357142857142847 8.47142857142857z m14.777142857142856 2.4114285714285693q0.06714285714285495 0.8714285714285701-0.5799999999999983 1.3185714285714276-0.33428571428571274 0.2228571428571442-7.342857142857142 1.9200000000000017-1.4971428571428582 0.33428571428571274-2.032857142857143 0.514285714285716l0.024285714285714022-0.04571428571428626q-0.5142857142857125 0.13428571428571345-1.0285714285714285-0.08999999999999986t-0.8242857142857147-0.7142857142857153q-0.6714285714285708-1.048571428571428 0-1.942857142857143 0.022857142857141355-0.02142857142857224 1.6742857142857126-2.2757142857142867 2.789999999999999-3.8185714285714276 3.3485714285714288-4.554285714285715t0.7571428571428562-0.8714285714285719q0.6285714285714299-0.4228571428571435 1.452857142857141-0.042857142857142705 1.071428571428573 0.5142857142857142 2.7457142857142856 2.9800000000000004t1.808571428571426 3.7385714285714293v0.0671428571428585z"></path></svg>