<svg viewBox="0 0 1536 1896.0833" xmlns="http://www.w3.org/2000/svg"><path d="m773 1319v127q-1 292-6 305-12 32-51 40-54 9-181.5-38t-162.5-89q-13-15-17-36-1-12 4-26 4-10 34-47t181-216q1 0 60-70 15-19 39.5-24.5t49.5 3.5q24 10 37.5 29t12.5 42z m-149-251q-3 55-52 70l-120 39q-275 88-292 88-35-2-54-36-12-25-17-75-8-76 1-166.5t30-124.5 56-32q13 0 202 77 70 29 115 47l84 34q23 9 35.5 30.5t11.5 48.5z m826 297q-7 54-91.5 161t-135.5 127q-37 14-63-7-14-10-184-287l-47-77q-14-21-11.5-46t19.5-46q35-43 83-26 1 1 119 40 203 66 242 79.5t47 20.5q28 22 22 61z m-672-632q5 102-54 122-58 17-114-71l-378-598q-8-35 19-62 41-43 207.5-89.5t224.5-31.5q40 10 49 45 3 18 22 305.5t24 379.5z m662 108q3 39-26 59-15 10-329 86-67 15-91 23l1-2q-23 6-46-4t-37-32q-30-47 0-87 1-1 75-102 125-171 150-204t34-39q28-19 65-2 48 23 123 133.5t81 167.5v3z"/></svg>