<?xml version="1.0"?><svg xmlns="http://www.w3.org/2000/svg" width="40" height="40" viewBox="0 0 40 40"><path d="m23.37142857142857 29.085714285714285v-3.505714285714287q0-1.1142857142857139-0.6485714285714295-1.1142857142857139-0.379999999999999 0-0.7371428571428567 0.35714285714285765v5q0.35714285714285765 0.35714285714285765 0.7371428571428567 0.35714285714285765 0.6471428571428568 0 0.6471428571428568-1.095714285714287z m4.105714285714285-2.7242857142857133h1.4714285714285715v-0.7571428571428562q0-1.1400000000000006-0.7357142857142875-1.1400000000000006t-0.7385714285714293 1.138571428571428v0.7571428571428562z m-12.742857142857144-5.937142857142856v1.562857142857144h-1.7857142857142865v9.44142857142857h-1.6542857142857113v-9.442857142857143h-1.7428571428571438v-1.5614285714285714h5.18z m4.4857142857142875 2.814285714285713v8.190000000000001h-1.4971428571428582v-0.8928571428571423q-0.8714285714285701 1.0042857142857144-1.6971428571428575 1.0042857142857144-0.7371428571428567 0-0.9371428571428577-0.6257142857142846-0.13428571428571345-0.35714285714285765-0.13428571428571345-1.2057142857142864v-6.4714285714285715h1.4714285714285733v6.025714285714287q0 0.5357142857142847 0.024285714285714022 0.5800000000000018 0.022857142857141355 0.33428571428571274 0.33428571428571274 0.33428571428571274 0.44571428571428484 0 0.9357142857142868-0.6914285714285704v-6.25h1.4957142857142856z m5.622857142857146 2.475714285714286v3.2571428571428562q0 1.1614285714285728-0.15428571428571303 1.6314285714285717-0.2671428571428578 0.937142857142856-1.1828571428571415 0.937142857142856-0.7814285714285703 0-1.5171428571428578-0.9142857142857146v0.8000000000000007h-1.4957142857142856v-11.002857142857145h1.4957142857142856v3.5942857142857143q0.7142857142857153-0.8928571428571423 1.5171428571428578-0.8928571428571423 0.9142857142857146 0 1.1828571428571415 0.937142857142856 0.15714285714285836 0.46857142857142975 0.15714285714285836 1.6514285714285712z m5.604285714285712 2.879999999999999v0.1999999999999993q0 0.6485714285714295-0.04285714285714448 0.96142857142857-0.06857142857142762 0.48999999999999844-0.3357142857142854 0.8914285714285697-0.6028571428571432 0.8928571428571423-1.7857142857142847 0.8928571428571423-1.1600000000000001 0-1.8085714285714296-0.8500000000000014-0.46857142857142975-0.6028571428571432-0.46857142857142975-1.9200000000000017v-2.87857142857143q0-1.3171428571428585 0.4471428571428575-1.9200000000000017 0.6471428571428568-0.8471428571428561 1.7857142857142847-0.8471428571428561t1.7428571428571438 0.8485714285714288q0.4671428571428571 0.6285714285714299 0.4671428571428571 1.9214285714285708v1.6971428571428575h-2.9685714285714297v1.451428571428572q0 1.1371428571428588 0.7571428571428562 1.1371428571428588 0.5371428571428574 0 0.6714285714285708-0.5799999999999983 0-0.022857142857141355 0.011428571428570677-0.15714285714285836t0.011428571428570677-0.36714285714285566v-0.4800000000000004h1.5171428571428578z m-10.067142857142859-18.394285714285715v3.4857142857142858q0 1.137142857142857-0.7142857142857153 1.137142857142857t-0.7142857142857153-1.138571428571428v-3.484285714285715q0-1.1571428571428566 0.7142857142857153-1.1571428571428566t0.7142857142857153 1.1571428571428566z m11.897142857142857 15.914285714285715q0-3.9499999999999993-0.4242857142857126-5.800000000000001-0.2228571428571442-0.985714285714284-0.9600000000000009-1.6428571428571423t-1.6971428571428575-0.7685714285714269q-3.0357142857142847-0.33428571428571274-9.197142857142858-0.33428571428571274-6.140000000000001 0-9.175714285714285 0.33428571428571274-0.9828571428571422 0.1114285714285721-1.7071428571428573 0.7714285714285722t-0.9485714285714284 1.638571428571428q-0.4471428571428575 1.9400000000000013-0.4471428571428575 5.800000000000001 0 3.9285714285714306 0.4471428571428575 5.804285714285715 0.22285714285714242 0.9599999999999973 0.9485714285714284 1.62857142857143t1.685714285714285 0.7828571428571465q3.057142857142857 0.33571428571428896 9.197142857142858 0.33571428571428896t9.197142857142858-0.33428571428571274q0.9600000000000009-0.10999999999999943 1.6857142857142868-0.7800000000000011t0.9485714285714302-1.62857142857143q0.44714285714285396-1.8771428571428572 0.44714285714285396-5.804285714285715z m-16.85285714285714-14.528571428571428l2.008571428571429-6.608571428571429h-1.6757142857142888l-1.1357142857142861 4.351428571428573-1.1828571428571433-4.351428571428571h-1.742857142857142l0.5371428571428574 1.54 0.5142857142857142 1.5399999999999991q0.7799999999999994 2.3000000000000007 1.025714285714285 3.5285714285714285v4.485714285714284h1.6514285714285712v-4.485714285714284z m6.449999999999999 1.807142857142857v-2.9000000000000004q0-1.2957142857142863-0.46857142857142975-1.942857142857143-0.6471428571428568-0.8485714285714288-1.7428571428571438-0.8485714285714288-1.1371428571428588 0-1.7399999999999984 0.8499999999999996-0.46857142857142975 0.6471428571428568-0.46857142857142975 1.942857142857143v2.9000000000000004q0 1.2942857142857136 0.46857142857142975 1.942857142857143 0.6028571428571432 0.8471428571428579 1.7428571428571438 0.8471428571428579 1.0928571428571416 0 1.7399999999999984-0.8485714285714288 0.46857142857142975-0.6028571428571432 0.46857142857142975-1.942857142857143z m4.042857142857141 2.678571428571427h1.4942857142857129v-8.257142857142856h-1.4971428571428547v6.314285714285715q-0.48999999999999844 0.6928571428571431-0.9357142857142868 0.6928571428571431-0.33428571428571274 0-0.35714285714285765-0.35714285714285765-0.022857142857141355-0.042857142857142705-0.022857142857141355-0.5800000000000001v-6.069999999999999h-1.4985714285714273v6.538571428571429q0 0.8257142857142856 0.13428571428571345 1.2285714285714278 0.24571428571428555 0.6000000000000014 0.9600000000000009 0.6000000000000014 0.8028571428571425 0 1.7185714285714297-1.0028571428571436v0.8928571428571441z m11.22571428571429-6.785714285714283v21.42857142857143q0 2.6571428571428584-1.8857142857142861 4.5428571428571445t-4.5428571428571445 1.8857142857142861h-21.42857142857143q-2.6571428571428575 0-4.542857142857144-1.8857142857142861t-1.885714285714284-4.5428571428571445v-21.42857142857143q0-2.6571428571428575 1.8857142857142857-4.542857142857144t4.542857142857144-1.885714285714284h21.42857142857143q2.6571428571428584 0 4.5428571428571445 1.8857142857142857t1.8857142857142861 4.542857142857144z"></path></svg>