<?xml version="1.0"?><svg viewBox="0 0 40 40" xmlns="http://www.w3.org/2000/svg" height="40" width="40"><path d="m16.9 25.1v3.7q0 1.2-0.7 1.2-0.4 0-0.8-0.4v-5.2q0.4-0.4 0.8-0.4 0.7 0 0.7 1.1z m5.8 0.1v0.8h-1.5v-0.8q0-1.2 0.7-1.2t0.8 1.2z m-16.7-3.8h1.8v-1.7h-5.4v1.7h1.8v9.8h1.8v-9.8z m5 9.8h1.5v-8.5h-1.5v6.5q-0.6 0.8-1 0.8-0.3 0-0.4-0.4 0-0.1 0-0.6v-6.3h-1.6v6.8q0 0.8 0.2 1.2 0.2 0.7 1 0.7 0.8 0 1.8-1.1v0.9z m7.4-2.5v-3.4q0-1.3-0.2-1.8-0.2-0.9-1.2-0.9-0.9 0-1.6 0.9v-3.8h-1.5v11.5h1.5v-0.8q0.8 1 1.6 1 1 0 1.2-1 0.2-0.5 0.2-1.7z m5.9-0.2v-0.2h-1.6q0 0.9 0 1-0.2 0.7-0.7 0.7-0.8 0-0.8-1.2v-1.5h3.1v-1.8q0-1.4-0.5-2-0.7-0.9-1.8-0.9-1.2 0-1.9 0.9-0.5 0.6-0.5 2v3q0 1.3 0.5 2 0.7 0.9 1.9 0.9 1.2 0 1.9-0.9 0.3-0.5 0.3-1 0.1-0.1 0.1-1z m-10.6-15.8v-3.7q0-1.2-0.7-1.2t-0.8 1.2v3.7q0 1.2 0.8 1.2t0.7-1.2z m12.5 13q0 4.1-0.5 6.1-0.2 1-1 1.7t-1.7 0.8q-3.2 0.4-9.7 0.4t-9.6-0.4q-1-0.1-1.8-0.8t-1-1.7q-0.4-2-0.4-6.1 0-4.1 0.4-6.1 0.3-1 1-1.7t1.8-0.8q3.2-0.4 9.6-0.4t9.7 0.4q1 0.1 1.7 0.8t1 1.7q0.5 2 0.5 6.1z m-17.3-22.2h1.7l-2.1 7v4.7h-1.7v-4.7q-0.2-1.3-1.1-3.7-0.6-1.8-1.1-3.3h1.9l1.2 4.6 1.2-4.6z m6.4 5.8v3.1q0 1.4-0.5 2-0.6 0.9-1.8 0.9-1.2 0-1.9-0.9-0.4-0.7-0.4-2v-3.1q0-1.4 0.4-2 0.7-0.9 1.9-0.9 1.2 0 1.8 0.9 0.5 0.6 0.5 2z m5.8-2.8v8.7h-1.6v-1q-0.9 1.1-1.8 1.1-0.8 0-1-0.6-0.1-0.5-0.1-1.4v-6.8h1.6v6.4q0 0.6 0 0.6 0 0.4 0.3 0.4 0.5 0 1-0.8v-6.6h1.6z"></path></svg>