<?xml version="1.0"?><svg viewBox="0 0 40 40" xmlns="http://www.w3.org/2000/svg" height="40" width="40"><path d="m16 26.2v-2.8q0-0.8-0.5-0.8-0.3 0-0.6 0.2v3.9q0.3 0.3 0.6 0.3 0.5 0 0.5-0.8z m3.1-2.2h1.2v-0.5q0-0.9-0.6-0.9t-0.6 0.9v0.5z m-9.9-4.6v1.2h-1.4v7.4h-1.2v-7.4h-1.4v-1.2h4z m3.5 2.2v6.4h-1.1v-0.7q-0.7 0.8-1.4 0.8-0.5 0-0.7-0.5-0.1-0.3-0.1-1v-5h1.2v4.7q0 0.4 0 0.5 0 0.2 0.2 0.2 0.4 0 0.8-0.5v-4.9h1.1z m4.4 1.9v2.6q0 0.9-0.1 1.2-0.2 0.8-0.9 0.8-0.6 0-1.2-0.7v0.6h-1.2v-8.6h1.2v2.8q0.5-0.7 1.2-0.7 0.7 0 0.9 0.8 0.1 0.3 0.1 1.2z m4.4 2.3v0.1q0 0.5-0.1 0.8 0 0.4-0.2 0.7-0.5 0.7-1.4 0.7-0.9 0-1.4-0.7-0.4-0.5-0.4-1.5v-2.2q0-1 0.4-1.5 0.5-0.7 1.3-0.7t1.4 0.7q0.4 0.5 0.4 1.5v1.3h-2.4v1.1q0 0.9 0.6 0.9 0.5 0 0.6-0.4 0-0.1 0-0.2t0-0.2v-0.4h1.2z m-7.9-14.3v2.7q0 0.9-0.5 0.9t-0.6-0.9v-2.7q0-0.9 0.6-0.9t0.5 0.9z m9.3 12.4q0-3.1-0.3-4.6-0.2-0.7-0.8-1.2t-1.3-0.6q-2.4-0.3-7.2-0.3-4.7 0-7.1 0.3-0.8 0.1-1.3 0.6t-0.8 1.2q-0.3 1.5-0.3 4.6 0 3 0.3 4.5 0.2 0.7 0.8 1.2t1.3 0.6q2.4 0.3 7.1 0.3t7.2-0.3q0.7 0 1.3-0.6t0.7-1.2q0.4-1.5 0.4-4.5z m-13.1-11.3l1.5-5.2h-1.3l-0.9 3.4-0.9-3.4h-1.3l0.4 1.2q0.3 0.8 0.4 1.2 0.6 1.8 0.8 2.8v3.4h1.3v-3.4z m5 1.4v-2.3q0-1-0.4-1.5-0.5-0.7-1.3-0.7-0.9 0-1.4 0.7-0.3 0.5-0.3 1.5v2.3q0 1 0.3 1.5 0.5 0.6 1.4 0.6 0.8 0 1.3-0.6 0.4-0.5 0.4-1.5z m3.1 2h1.2v-6.4h-1.2v4.9q-0.3 0.6-0.7 0.6-0.3 0-0.3-0.3 0 0 0-0.5v-4.7h-1.2v5.1q0 0.6 0.2 1 0.1 0.4 0.7 0.4 0.6 0 1.3-0.8v0.7z m8.8-5.2v16.6q0 2.1-1.5 3.6t-3.5 1.4h-16.7q-2.1 0-3.5-1.4t-1.5-3.6v-16.6q0-2.1 1.5-3.6t3.5-1.4h16.7q2 0 3.5 1.4t1.5 3.6z"></path></svg>