<?xml version="1.0"?><svg viewBox="0 0 40 40" xmlns="http://www.w3.org/2000/svg" height="40" width="40"><path d="m24.2 26.2v4.5q0 1.4-0.9 1.4-0.4 0-0.9-0.5v-6.3q0.5-0.5 0.9-0.5 0.9 0 0.9 1.4z m7.1 0.1v0.9h-1.9v-0.9q0-1.5 1-1.5t0.9 1.5z m-20.4-4.6h2.3v-2h-6.6v2h2.2v12h2.1v-12z m6.1 12h1.9v-10.5h-1.9v8q-0.6 0.9-1.2 0.9-0.4 0-0.4-0.4-0.1-0.1-0.1-0.8v-7.7h-1.8v8.3q0 1 0.1 1.5 0.3 0.8 1.2 0.8 1.1 0 2.2-1.3v1.2z m9-3.2v-4.1q0-1.5-0.1-2.1-0.4-1.2-1.5-1.2-1.1 0-2 1.2v-4.6h-1.9v14h1.9v-1q0.9 1.1 2 1.1 1.1 0 1.5-1.1 0.1-0.6 0.1-2.2z m7.2-0.2v-0.2h-1.9q0 1-0.1 1.2-0.1 0.8-0.8 0.8-1 0-1-1.4v-1.9h3.8v-2.2q0-1.6-0.6-2.4-0.8-1.1-2.2-1.1-1.5 0-2.3 1.1-0.6 0.8-0.6 2.4v3.7q0 1.7 0.6 2.4 0.9 1.1 2.3 1.1 1.5 0 2.3-1.1 0.4-0.6 0.4-1.1 0.1-0.2 0.1-1.3z m-12.8-19.2v-4.5q0-1.4-1-1.4t-0.9 1.4v4.5q0 1.5 0.9 1.5t1-1.5z m15.1 15.8q0 5-0.5 7.4-0.3 1.2-1.3 2.1t-2.1 1q-3.9 0.4-11.7 0.4t-11.7-0.4q-1.2-0.2-2.2-1t-1.2-2.1q-0.5-2.4-0.5-7.4 0-4.9 0.5-7.4 0.3-1.2 1.2-2.1t2.2-0.9q3.9-0.5 11.7-0.5t11.7 0.5q1.2 0.1 2.2 0.9t1.2 2.1q0.5 2.4 0.5 7.4z m-21-26.9h2.1l-2.5 8.4v5.7h-2.1v-5.7q-0.3-1.5-1.3-4.5-0.8-2.1-1.4-3.9h2.2l1.5 5.5z m7.8 7v3.7q0 1.7-0.6 2.5-0.8 1.1-2.3 1.1-1.4 0-2.2-1.1-0.6-0.8-0.6-2.5v-3.7q0-1.7 0.6-2.4 0.8-1.1 2.2-1.1 1.5 0 2.3 1.1 0.6 0.7 0.6 2.4z m7-3.4v10.5h-1.9v-1.1q-1.1 1.3-2.2 1.3-0.9 0-1.2-0.8-0.2-0.5-0.2-1.6v-8.3h2v7.7q0 0.7 0 0.8 0 0.5 0.4 0.5 0.6 0 1.2-1v-8h1.9z"></path></svg>