<?xml version="1.0"?><svg viewBox="0 0 40 40" xmlns="http://www.w3.org/2000/svg" height="40" width="40"><path d="m21.7 20q0.5-0.3 0.5-0.9t-0.5-0.9l-8.9-5.6q-0.5-0.3-1.1 0-0.6 0.3-0.6 0.9v11.2q0 0.6 0.6 0.9 0.3 0.2 0.5 0.2 0.4 0 0.6-0.2l8.9-5.6z m9.4-3.5q0 0.9 0 2.6t0 2.6q0 0.9-0.2 2.4t-0.3 2.5q-0.3 1.3-1.2 2.2t-2.2 1q-3.8 0.4-11.6 0.4t-11.7-0.4q-1.2-0.2-2.2-1t-1.2-2.2q-0.2-1.1-0.3-2.5t-0.2-2.4q0-0.9 0-2.6t0-2.6q0-0.9 0.2-2.4t0.4-2.5q0.2-1.3 1.2-2.2t2.1-1q3.9-0.4 11.7-0.4t11.6 0.4q1.2 0.2 2.2 1t1.2 2.2q0.2 1.1 0.3 2.5t0.2 2.4z"></path></svg>