<?xml version="1.0" encoding="utf-8"?>
<!-- Generated by IcoMoon.io -->
<!DOCTYPE svg PUBLIC "-//W3C//DTD SVG 1.1//EN" "http://www.w3.org/Graphics/SVG/1.1/DTD/svg11.dtd">
<svg version="1.1" xmlns="http://www.w3.org/2000/svg" xmlns:xlink="http://www.w3.org/1999/xlink" width="16" height="16" viewBox="0 0 16 16">
<path d="M0.53 14.724c0.005 0 0.011 0 0.017-0.001 0.253-0.008 0.412-0.204 0.434-0.457 0.017-0.185 0.515-4.673 7.519-4.668l0.016 2.87c0 0.193 0.111 0.37 0.287 0.452 0.173 0.083 0.382 0.057 0.531-0.066l6.484-5.372c0.116-0.095 0.183-0.237 0.183-0.387s-0.068-0.292-0.184-0.387l-6.484-5.321c-0.149-0.122-0.356-0.145-0.53-0.064-0.174 0.083-0.286 0.259-0.286 0.452l-0.016 2.807c-2.905 0.092-5.156 1.027-6.614 2.734-2.374 2.778-1.844 6.815-1.819 6.983 0.037 0.245 0.217 0.425 0.463 0.425zM9.017 8.591c-0.001 0-0.001 0-0.001 0-5.003 0.003-6.915 1.692-8.007 3.185 0.16-1.195 0.626-2.636 1.641-3.813 1.349-1.564 3.522-2.388 6.368-2.388 0.276 0 0.5-0.224 0.5-0.5v-2.247l5.194 4.271-5.194 4.311v-2.319c0-0.133-0.053-0.26-0.147-0.354s-0.22-0.146-0.353-0.146z"></path>
</svg>
