<?xml version="1.0" encoding="utf-8"?>
<!-- Generated by IcoMoon.io -->
<!DOCTYPE svg PUBLIC "-//W3C//DTD SVG 1.1//EN" "http://www.w3.org/Graphics/SVG/1.1/DTD/svg11.dtd">
<svg version="1.1" xmlns="http://www.w3.org/2000/svg" xmlns:xlink="http://www.w3.org/1999/xlink" width="16" height="16" viewBox="0 0 16 16">
<path d="M15.954 11.428l-1.286-2.364c-0.002-0.003-0.002-0.006-0.004-0.009l-0.092-0.159c-0.051-0.088-0.132-0.144-0.222-0.165s-0.187-0.008-0.272 0.046l-0.154 0.099c-0.003 0.002-0.005 0.005-0.008 0.007l-2.275 1.536c-0.17 0.11-0.225 0.339-0.124 0.514l0.102 0.113c0.101 0.175 0.332 0.182 0.502 0.072l1.36-0.925c-0.322 2.594-2.418 4.584-4.984 4.815v-10.025h2.001c0.276 0 0.5-0.224 0.5-0.5s-0.224-0.5-0.5-0.5h-2.023c-0.004-0.013-0.007-0.026-0.012-0.038 0.892-0.208 1.558-1.006 1.558-1.962 0-1.113-0.902-2.016-2.016-2.016s-2.015 0.902-2.015 2.016c0 0.95 0.658 1.745 1.543 1.958-0.005 0.014-0.009 0.028-0.013 0.042h-2.022c-0.276 0-0.5 0.224-0.5 0.5s0.224 0.5 0.5 0.5h2v10.025c-2.565-0.231-4.659-2.221-4.981-4.814l1.359 0.924c0.17 0.11 0.401 0.102 0.502-0.072l0.103-0.113c0.101-0.175 0.046-0.405-0.124-0.514l-2.275-1.536c-0.003-0.002-0.005-0.005-0.007-0.007l-0.154-0.099c-0.085-0.055-0.183-0.068-0.272-0.046s-0.171 0.078-0.222 0.165l-0.092 0.159c-0.002 0.003-0.002 0.006-0.003 0.009l-1.286 2.364c-0.102 0.175-0.046 0.404 0.124 0.514l0.142 0.053c0.17 0.109 0.379 0.010 0.48-0.165l0.749-1.39c0.459 3.199 3.205 5.591 6.457 5.591 3.251 0 5.999-2.392 6.459-5.589l0.748 1.389c0.101 0.175 0.311 0.274 0.481 0.165l0.143-0.053c0.17-0.11 0.226-0.339 0.124-0.514zM6.992 1.984c0-0.56 0.455-1.016 1.015-1.016s1.016 0.456 1.016 1.016-0.456 1.016-1.016 1.016c-0.56-0-1.016-0.456-1.016-1.016z"></path>
</svg>
