<?xml version="1.0" encoding="utf-8"?>
<!-- Generated by IcoMoon.io -->
<!DOCTYPE svg PUBLIC "-//W3C//DTD SVG 1.1//EN" "http://www.w3.org/Graphics/SVG/1.1/DTD/svg11.dtd">
<svg version="1.1" xmlns="http://www.w3.org/2000/svg" xmlns:xlink="http://www.w3.org/1999/xlink" width="16" height="16" viewBox="0 0 16 16">
<path d="M0 8c0 4.418 3.582 8 8 8s8-3.582 8-8c0-4.418-3.582-8-8-8s-8 3.582-8 8zM15.016 8c0 3.86-3.156 7-7.016 7s-7-3.14-7-7 3.14-7 7-7 7.016 3.14 7.016 7zM7.495 4.495v5.632l-1.809-1.809c-0.195-0.195-0.512-0.195-0.707 0s-0.195 0.512 0 0.707l3.032 2.953 3.031-2.953c0.098-0.098 0.146-0.226 0.146-0.354s-0.049-0.256-0.146-0.354c-0.195-0.195-0.512-0.195-0.707 0l-1.84 1.84v-5.663c0-0.276-0.224-0.5-0.5-0.5s-0.5 0.224-0.5 0.5z"></path>
</svg>
