<?xml version="1.0" encoding="utf-8"?>
<!-- Generated by IcoMoon.io -->
<!DOCTYPE svg PUBLIC "-//W3C//DTD SVG 1.1//EN" "http://www.w3.org/Graphics/SVG/1.1/DTD/svg11.dtd">
<svg version="1.1" xmlns="http://www.w3.org/2000/svg" xmlns:xlink="http://www.w3.org/1999/xlink" width="16" height="16" viewBox="0 0 16 16">
<path d="M13.5 2.48h-2.987v-0.959c0-0.827-0.673-1.5-1.5-1.5h-1.994c-0.827 0-1.5 0.673-1.5 1.5v0.959h-3.018c-0.552 0-1 0.448-1 1v11.5c0 0.552 0.448 1 1 1h11c0.552 0 1-0.448 1-1v-11.499c0-0.552-0.448-1-1-1zM6.519 1.521c0-0.276 0.224-0.5 0.5-0.5h1.994c0.276 0 0.5 0.224 0.5 0.5v0.959h-2.994v-0.959zM13.5 14.979h-11v-11.499h3.018v1.029c0 0-0.013 0.5 0.497 0.5 0.563 0 0.503-0.5 0.503-0.5v-1.029h2.994v1.029c0 0-0.033 0.502 0.498 0.502 0.5 0 0.502-0.502 0.502-0.502v-1.029h2.987v11.499z"></path>
</svg>
