<?xml version="1.0" encoding="utf-8"?>
<!-- Generated by IcoMoon.io -->
<!DOCTYPE svg PUBLIC "-//W3C//DTD SVG 1.1//EN" "http://www.w3.org/Graphics/SVG/1.1/DTD/svg11.dtd">
<svg version="1.1" xmlns="http://www.w3.org/2000/svg" xmlns:xlink="http://www.w3.org/1999/xlink" width="16" height="16" viewBox="0 0 16 16">
<path d="M8 0c-4.418 0-8 3.582-8 8s3.582 8 8 8c4.418 0 8-3.582 8-8s-3.582-8-8-8zM1 8c0-1.754 0.65-3.359 1.72-4.588l9.873 9.873c-1.23 1.076-2.837 1.732-4.593 1.732-3.86 0-7-3.156-7-7.016zM13.297 12.575l-9.869-9.869c1.228-1.062 2.825-1.706 4.572-1.706 3.86 0 7 3.14 7 7 0 1.745-0.643 3.344-1.703 4.575z"></path>
</svg>
