<?xml version="1.0" encoding="utf-8"?>
<!-- Generated by IcoMoon.io -->
<!DOCTYPE svg PUBLIC "-//W3C//DTD SVG 1.1//EN" "http://www.w3.org/Graphics/SVG/1.1/DTD/svg11.dtd">
<svg version="1.1" xmlns="http://www.w3.org/2000/svg" xmlns:xlink="http://www.w3.org/1999/xlink" width="16" height="16" viewBox="0 0 16 16">
<path d="M4.251 5h-3.501c-0.276 0-0.5 0.224-0.5 0.5v10c0 0.276 0.224 0.5 0.5 0.5h3.501c0.276 0 0.5-0.224 0.5-0.5v-10c0-0.276-0.224-0.5-0.5-0.5zM3.751 15h-2.501v-9h2.501v9zM9.746 7.973h-3.501c-0.276 0-0.5 0.224-0.5 0.5v7.027c0 0.276 0.224 0.5 0.5 0.5h3.501c0.276 0 0.5-0.224 0.5-0.5v-7.027c0-0.277-0.223-0.5-0.5-0.5zM9.246 15h-2.501v-6.027h2.501v6.027zM15.25 0h-3.496c-0.276 0-0.5 0.224-0.5 0.5v15c0 0.276 0.224 0.5 0.5 0.5h3.496c0.276 0 0.5-0.224 0.5-0.5v-15c0-0.276-0.224-0.5-0.5-0.5zM14.75 15h-2.496v-14h2.496v14z"></path>
</svg>
