<?xml version="1.0" encoding="utf-8"?>
<!-- Generated by IcoMoon.io -->
<!DOCTYPE svg PUBLIC "-//W3C//DTD SVG 1.1//EN" "http://www.w3.org/Graphics/SVG/1.1/DTD/svg11.dtd">
<svg version="1.1" xmlns="http://www.w3.org/2000/svg" xmlns:xlink="http://www.w3.org/1999/xlink" width="16" height="16" viewBox="0 0 16 16">
<path d="M15.87 4.438c-0.093-0.132-0.245-0.211-0.406-0.211h-1.559l-3.205-2.732c-0.39-0.39-1.024-0.391-1.414 0l-3.151 2.732h-1.283l-0.803-2.77c-0.315-1.091-1.063-1.208-1.37-1.208h-2.142c-0.275 0-0.496 0.222-0.496 0.496s0.222 0.496 0.496 0.496h2.142c0.068 0 0.275 0 0.415 0.487l2.763 10.155c0.060 0.214 0.255 0.362 0.478 0.362h6.75c0.21 0 0.396-0.131 0.467-0.329l2.379-7.026c0.055-0.152 0.032-0.322-0.061-0.454zM9.993 2.202l2.376 2.025h-4.752l2.376-2.025zM12.735 11.253h-6.023l-1.58-6.033h9.627l-2.023 6.033zM11.75 13.252c-0.691 0-1.25 0.559-1.25 1.25s0.559 1.25 1.25 1.25 1.25-0.559 1.25-1.25-0.559-1.25-1.25-1.25zM7.25 13.252c-0.691 0-1.25 0.559-1.25 1.25s0.559 1.25 1.25 1.25 1.25-0.559 1.25-1.25-0.559-1.25-1.25-1.25z"></path>
</svg>
