<?xml version="1.0" encoding="utf-8"?>
<!-- Generated by IcoMoon.io -->
<!DOCTYPE svg PUBLIC "-//W3C//DTD SVG 1.1//EN" "http://www.w3.org/Graphics/SVG/1.1/DTD/svg11.dtd">
<svg version="1.1" xmlns="http://www.w3.org/2000/svg" xmlns:xlink="http://www.w3.org/1999/xlink" width="16" height="16" viewBox="0 0 16 16">
<path d="M14.15 11.123c-0.584-0.71-1.383-1.715-1.383-2.74v-3.265c0-2.813-2.104-5.101-4.792-5.101s-4.776 2.288-4.776 5.101v3.265c0 1.008-0.867 1.961-1.417 2.7-0.494 0.664-0.885 1.189-0.621 1.713 0.232 0.462 0.812 0.521 1.292 0.521h2.865c0.001 1.472 1.194 2.665 2.667 2.665s2.666-1.193 2.667-2.665h2.932c0.305 0 1.018 0 1.264-0.519 0.248-0.525-0.149-1.008-0.697-1.675zM7.984 14.935c-0.894 0-1.619-0.724-1.62-1.618h3.241c-0.001 0.893-0.726 1.618-1.62 1.618zM13.584 12.253h-11.131c-0.076 0-0.14-0.002-0.193-0.006 0.103-0.159 0.254-0.363 0.377-0.529 0.609-0.819 1.627-1.975 1.627-3.335v-3.265c0-2.226 1.61-4.037 3.711-4.037s3.727 1.811 3.727 4.037v3.265c0 1.406 0.939 2.582 1.624 3.416 0.116 0.14 0.254 0.309 0.361 0.453-0.032 0.001-0.067 0.001-0.105 0.001z"></path>
</svg>
