<?xml version="1.0" encoding="utf-8"?>
<!-- Generated by IcoMoon.io -->
<!DOCTYPE svg PUBLIC "-//W3C//DTD SVG 1.1//EN" "http://www.w3.org/Graphics/SVG/1.1/DTD/svg11.dtd">
<svg version="1.1" xmlns="http://www.w3.org/2000/svg" xmlns:xlink="http://www.w3.org/1999/xlink" width="16" height="16" viewBox="0 0 16 16">
<path d="M14.876 0.024l-6.61 1.79c-0.168 0.045-0.533 0.044-0.7-0.002l-6.44-1.784c-0.575-0.158-1.131 0.256-1.131 0.848v12.158c0 0.502 0.38 0.981 0.864 1.116l6.44 1.785c0.172 0.048 0.394 0.074 0.624 0.074 0.158 0 0.391-0.012 0.605-0.071l6.61-1.79c0.485-0.131 0.867-0.61 0.867-1.113v-12.158c0-0.591-0.556-1.007-1.129-0.852zM7.5 14.952l-6.389-1.767c-0.048-0.013-0.116-0.101-0.116-0.152v-12.001l6.304 1.743c0.061 0.017 0.13 0.030 0.201 0.042v12.134zM15.005 13.034c0 0.049-0.081 0.135-0.129 0.149l-6.376 1.727v-12.124c0.009-0.002 0.019-0.003 0.028-0.006l6.477-1.752v12.006zM10.031 5.723c0.045 0 0.091-0.006 0.136-0.019l3.499-0.985c0.266-0.075 0.421-0.351 0.346-0.617s-0.352-0.42-0.617-0.346l-3.499 0.985c-0.266 0.075-0.421 0.351-0.346 0.617 0.062 0.221 0.263 0.365 0.481 0.365zM10.031 8.723c0.045 0 0.091-0.006 0.136-0.018l3.499-0.985c0.266-0.075 0.421-0.351 0.346-0.617s-0.352-0.42-0.617-0.346l-3.499 0.985c-0.266 0.075-0.421 0.351-0.346 0.616 0.062 0.221 0.263 0.365 0.481 0.365zM10.031 11.723c0.045 0 0.091-0.006 0.136-0.018l3.499-0.985c0.266-0.075 0.421-0.351 0.346-0.617s-0.352-0.42-0.617-0.346l-3.499 0.985c-0.266 0.075-0.421 0.351-0.346 0.617 0.062 0.22 0.263 0.365 0.481 0.365zM6.166 4.742l-3.499-0.985c-0.264-0.074-0.542 0.080-0.617 0.346s0.080 0.542 0.346 0.617l3.499 0.985c0.045 0.013 0.091 0.019 0.136 0.019 0.218 0 0.419-0.144 0.481-0.365 0.075-0.266-0.080-0.542-0.346-0.617zM6.166 7.742l-3.499-0.985c-0.264-0.074-0.542 0.080-0.617 0.346s0.080 0.542 0.346 0.617l3.499 0.985c0.045 0.013 0.091 0.018 0.136 0.018 0.218 0 0.419-0.144 0.481-0.365 0.075-0.265-0.080-0.542-0.346-0.617zM6.166 10.742l-3.499-0.985c-0.264-0.074-0.542 0.081-0.617 0.346s0.080 0.541 0.346 0.617l3.499 0.985c0.045 0.013 0.091 0.018 0.136 0.018 0.218 0 0.419-0.144 0.481-0.365 0.075-0.266-0.080-0.541-0.346-0.617z"></path>
</svg>
