<?xml version="1.0" encoding="utf-8"?>
<!-- Generated by IcoMoon.io -->
<!DOCTYPE svg PUBLIC "-//W3C//DTD SVG 1.1//EN" "http://www.w3.org/Graphics/SVG/1.1/DTD/svg11.dtd">
<svg version="1.1" xmlns="http://www.w3.org/2000/svg" xmlns:xlink="http://www.w3.org/1999/xlink" width="16" height="16" viewBox="0 0 16 16">
<path d="M15 2.992h-3.994v-0.969c0-0.827-0.673-1.5-1.5-1.5h-3.007c-0.827 0-1.5 0.673-1.5 1.5v0.969h-3.999c-0.55 0-1 0.45-1 1v3.504h-0.001v1h0.001v5.982c0 0.55 0.45 1 1 1h14c0.55 0 1-0.45 1-1v-10.486c0-0.55-0.45-1-1-1zM6 2.023c0-0.276 0.224-0.5 0.5-0.5h3.007c0.276 0 0.5 0.224 0.5 0.5v0.969h-4.007v-0.969zM1 3.992h14v3.504h-5.506v-0.512c0-0.551-0.449-1-1-1h-0.996c-0.551 0-1 0.449-1 1v0.512h-5.498v-3.504zM8.495 9.502h-0.997v-2.518h0.996l0.001 2.518zM1 14.477v-5.982h5.498v1.006c0 0.551 0.449 1 1 1h0.996c0.551 0 1-0.449 1-1v-1.006h5.506v5.982h-14z"></path>
</svg>
