<?xml version="1.0" encoding="utf-8"?>
<!-- Generated by IcoMoon.io -->
<!DOCTYPE svg PUBLIC "-//W3C//DTD SVG 1.1//EN" "http://www.w3.org/Graphics/SVG/1.1/DTD/svg11.dtd">
<svg version="1.1" xmlns="http://www.w3.org/2000/svg" xmlns:xlink="http://www.w3.org/1999/xlink" width="16" height="16" viewBox="0 0 16 16">
<path d="M8 2c3.86 0 7 2.243 7 5s-3.14 5-7 5l-0.414 0.002c-0.275 0-0.455-0.007-0.736-0.049l-0.56-0.080-0.359 0.435c-0.165 0.2-1.008 0.893-1.939 1.338 0.189-0.501 0.329-1.047 0.341-1.588l0.005-0.030v-0.697l-0.545-0.278c-1.775-0.908-2.793-2.385-2.793-4.053 0-2.757 3.14-5 7-5M8 1c-4.419 0-8 2.687-8 6 0 2.063 1.223 3.862 3.337 4.943 0 0.013-0.004 0.022-0.004 0.036 0 0.896-0.502 1.882-0.797 2.39h0.001c-0.023 0.055-0.037 0.114-0.037 0.178 0 0.251 0.203 0.453 0.453 0.453 0.038 0 0.098-0.008 0.12-0.008 0.005 0 0.008 0 0.008 0.002 1.563-0.255 3.28-1.636 3.622-2.052 0.351 0.052 0.588 0.060 0.883 0.060 0.124 0 0.258-0.002 0.414-0.002 4.418 0 8-2.686 8-6s-3.582-6-8-6v0z"></path>
</svg>
