<?xml version="1.0" encoding="utf-8"?>
<!-- Generated by IcoMoon.io -->
<!DOCTYPE svg PUBLIC "-//W3C//DTD SVG 1.1//EN" "http://www.w3.org/Graphics/SVG/1.1/DTD/svg11.dtd">
<svg version="1.1" xmlns="http://www.w3.org/2000/svg" xmlns:xlink="http://www.w3.org/1999/xlink" width="16" height="16" viewBox="0 0 16 16">
<path d="M6.638 10.615c3.609 0 6.405-2.061 6.362-5.119 0-2.706-2.863-4.869-6.471-4.869s-6.534 2.163-6.534 4.869c0 1.686 0.827 3.483 2.553 4.365 0 0.010-0.003 0.018-0.003 0.029 0 0.732-0.61 1.737-0.85 2.151h0.001c-0.019 0.045-0.030 0.094-0.030 0.146 0 0.205 0.165 0.37 0.37 0.37 0.030 0 0.079-0.006 0.097-0.006 0.005 0 0.007 0 0.006 0.002 1.276-0.209 3.16-1.645 3.44-1.985 0.287 0.043 0.48 0.049 0.72 0.049 0.102-0 0.21-0.002 0.339-0.002zM5.167 9.539l-0.64 0.532c-0.149 0.171-0.794 0.71-1.349 1.059 0.338-0.964 0.324-1.269 0.324-1.269l0.047-0.612-0.545-0.278c-1.385-0.709-2.008-2.184-2.008-3.475 0-2.151 2.482-3.869 5.534-3.869s5.471 1.718 5.471 3.869c-0.009 2.385-2.279 4.135-5.33 4.135 0 0-0.466 0.018-0.944-0.053l-0.558-0.039zM16.005 9.534c0-1.355-0.53-2.389-1.851-3.164-0.032 0.361-0.135 0.747-0.247 1.087 0.854 0.59 1.098 1.196 1.098 2.077 0 1.079-0.502 1.861-1.671 2.459l-0.498 0.247c0 0 0.052 1.281 0.129 1.605-0.976-0.715-1.311-1.313-1.311-1.313l-0.526 0.081c-0.208 0.030-0.771 0.031-0.771 0.031-1.358 0-2.365-0.324-3.224-0.996 0.233-0.014-1.393-0.014-1.43 0.018 0.993 1.213 2.617 1.978 4.654 1.978 0.111 0 0.204 0.001 0.293 0.001 0.207 0 0.375-0.006 0.623-0.042 0.242 0.293 1.597 1.586 2.7 1.766-0.001-0.001 0.001-0.001 0.006-0.001 0.015 0 0.057 0.005 0.084 0.005 0.177 0 0.32-0.143 0.32-0.32 0-0.045-0.010-0.088-0.026-0.126h0.001c-0.207-0.357-0.533-1.402-0.533-2.035 0-0.010-0.003-0.017-0.003-0.025 1.492-0.763 2.183-1.876 2.183-3.333z"></path>
</svg>
