<?xml version="1.0" encoding="utf-8"?>
<!-- Generated by IcoMoon.io -->
<!DOCTYPE svg PUBLIC "-//W3C//DTD SVG 1.1//EN" "http://www.w3.org/Graphics/SVG/1.1/DTD/svg11.dtd">
<svg version="1.1" xmlns="http://www.w3.org/2000/svg" xmlns:xlink="http://www.w3.org/1999/xlink" width="16" height="16" viewBox="0 0 16 16">
<path d="M8 0c-3.094 0-5.518 2.517-5.518 5.612 0 2.331 1.145 3.442 2.050 4.252 0.582 0.522 0.974 0.837 0.974 1.224v0.848c0 0.022 0.003 0.043 0.006 0.065h-0.011v1.447c0 1.527 0.987 2.553 2.517 2.553 1.476 0 2.483-1.026 2.483-2.553v-1.447h-0.014c0.003-0.021 0.007-0.043 0.007-0.065v-0.848c0-0.59 0.438-0.947 1.102-1.527 0.899-0.784 1.922-1.761 1.922-3.95 0-3.094-2.424-5.612-5.518-5.612zM7.981 15c-0.936 0-1.479-0.581-1.479-1.553l-0.007-0.667c0.36 0.123 0.85 0.22 1.506 0.22 0.647 0 1.138-0.104 1.501-0.231v0.678c0 0.987-0.551 1.553-1.521 1.553zM10.938 8.808c-0.679 0.593-1.444 1.207-1.444 2.28v0.632c-0.237 0.133-0.675 0.29-1.502 0.29-0.868 0-1.28-0.154-1.485-0.273v-0.649c0-0.853-0.667-1.395-1.308-1.969-0.849-0.761-1.717-1.623-1.717-3.507-0-2.542 1.975-4.611 4.517-4.611s4.518 2.069 4.518 4.612c0 1.735-0.757 2.478-1.58 3.197z"></path>
</svg>
