<?xml version="1.0" encoding="utf-8"?>
<!-- Generated by IcoMoon.io -->
<!DOCTYPE svg PUBLIC "-//W3C//DTD SVG 1.1//EN" "http://www.w3.org/Graphics/SVG/1.1/DTD/svg11.dtd">
<svg version="1.1" xmlns="http://www.w3.org/2000/svg" xmlns:xlink="http://www.w3.org/1999/xlink" width="16" height="16" viewBox="0 0 16 16">
<path d="M15-0.002h-14c-0.55 0-1 0.45-1 1v14.003c0 0.55 0.45 1 1 1h14c0.55 0 1-0.45 1-1v-14.003c0-0.55-0.45-1-1-1zM15 15.002h-14v-14.003h14v14.003zM3.5 5.505h1v1c0 0.276 0.224 0.5 0.5 0.5s0.5-0.224 0.5-0.5v-1h1c0.276 0 0.5-0.224 0.5-0.5s-0.224-0.5-0.5-0.5h-1v-1c0-0.276-0.224-0.5-0.5-0.5s-0.5 0.224-0.5 0.5v1h-1c-0.276 0-0.5 0.224-0.5 0.5s0.224 0.5 0.5 0.5zM6.768 9.237c-0.195-0.195-0.512-0.195-0.707 0l-1.061 1.060-1.061-1.060c-0.195-0.195-0.512-0.195-0.707 0s-0.195 0.512 0 0.707l1.060 1.060-1.061 1.060c-0.195 0.195-0.195 0.512 0 0.707s0.512 0.195 0.707 0l1.061-1.060 1.061 1.060c0.195 0.195 0.512 0.195 0.707 0s0.195-0.512 0-0.707l-1.061-1.060 1.061-1.060c0.195-0.195 0.195-0.512 0-0.707zM9.5 5.505h3c0.276 0 0.5-0.224 0.5-0.5s-0.224-0.5-0.5-0.5h-3c-0.276 0-0.5 0.224-0.5 0.5s0.224 0.5 0.5 0.5zM9.5 10.505h3c0.276 0 0.5-0.224 0.5-0.5s-0.224-0.5-0.5-0.5h-3c-0.276 0-0.5 0.224-0.5 0.5s0.224 0.5 0.5 0.5zM9.5 12.505h3c0.276 0 0.5-0.224 0.5-0.5s-0.224-0.5-0.5-0.5h-3c-0.276 0-0.5 0.224-0.5 0.5s0.224 0.5 0.5 0.5z"></path>
</svg>
