<?xml version="1.0" encoding="utf-8"?>
<!-- Generated by IcoMoon.io -->
<!DOCTYPE svg PUBLIC "-//W3C//DTD SVG 1.1//EN" "http://www.w3.org/Graphics/SVG/1.1/DTD/svg11.dtd">
<svg version="1.1" xmlns="http://www.w3.org/2000/svg" xmlns:xlink="http://www.w3.org/1999/xlink" width="16" height="16" viewBox="0 0 16 16">
<path d="M15 1.498h-4.003v-0.997c0-0.276-0.224-0.5-0.5-0.5s-0.5 0.224-0.5 0.5v0.996h-4v-0.996c0-0.276-0.224-0.5-0.5-0.5s-0.5 0.224-0.5 0.5v0.996h-3.997c-0.552 0-1 0.448-1 1v12.5c0 0.552 0.448 1 1 1h14c0.552 0 1-0.448 1-1v-12.5c0-0.552-0.448-1-1-1zM15 14.998h-14v-12.5h3.997v0.504c0 0.276 0.224 0.5 0.5 0.5s0.5-0.224 0.5-0.5v-0.503h4v0.504c0 0.276 0.224 0.5 0.5 0.5s0.5-0.224 0.5-0.5v-0.504h4.003v12.5zM11.5 7.998h1c0.276 0 0.5-0.224 0.5-0.5v-1c0-0.276-0.224-0.5-0.5-0.5h-1c-0.276 0-0.5 0.224-0.5 0.5v1c0 0.276 0.224 0.5 0.5 0.5zM11.5 11.998h1c0.276 0 0.5-0.224 0.5-0.5v-1c0-0.276-0.224-0.5-0.5-0.5h-1c-0.276 0-0.5 0.224-0.5 0.5v1c0 0.277 0.224 0.5 0.5 0.5zM8.5 9.998h-1c-0.276 0-0.5 0.224-0.5 0.5v1c0 0.276 0.224 0.5 0.5 0.5h1c0.276 0 0.5-0.224 0.5-0.5v-1c0-0.276-0.224-0.5-0.5-0.5zM8.5 5.998h-1c-0.276 0-0.5 0.224-0.5 0.5v1c0 0.276 0.224 0.5 0.5 0.5h1c0.276 0 0.5-0.224 0.5-0.5v-1c0-0.276-0.224-0.5-0.5-0.5zM4.5 5.998h-1c-0.276 0-0.5 0.224-0.5 0.5v1c0 0.276 0.224 0.5 0.5 0.5h1c0.276 0 0.5-0.224 0.5-0.5v-1c0-0.276-0.224-0.5-0.5-0.5zM4.5 9.998h-1c-0.276 0-0.5 0.224-0.5 0.5v1c0 0.276 0.224 0.5 0.5 0.5h1c0.276 0 0.5-0.224 0.5-0.5v-1c0-0.276-0.224-0.5-0.5-0.5z"></path>
</svg>
