<?xml version="1.0" encoding="utf-8"?>
<!-- Generated by IcoMoon.io -->
<!DOCTYPE svg PUBLIC "-//W3C//DTD SVG 1.1//EN" "http://www.w3.org/Graphics/SVG/1.1/DTD/svg11.dtd">
<svg version="1.1" xmlns="http://www.w3.org/2000/svg" xmlns:xlink="http://www.w3.org/1999/xlink" width="16" height="16" viewBox="0 0 16 16">
<path d="M15.027 3.118c0 0.017-0.002 0.030-0.004 0.041-0.409 0.281-2.694 1.791-3.122 2.065-0.045 0.001-0.159-0.014-0.322-0.1-0.174-0.091-0.68-0.375-1.389-0.78l-0.551-0.314-0.52 0.365c-0.386 0.272-1.226 0.919-2.505 2.197-1.284 1.284-1.929 2.12-2.2 2.505l-0.365 0.52 0.315 0.551c0.305 0.534 0.671 1.18 0.781 1.39 0.089 0.168 0.096 0.284 0.096 0.315 0 0.005 0 0.009-0 0.013-0.24 0.383-1.79 2.718-2.073 3.13-0.040 0.007-0.127 0.001-0.236-0.075-0.879-0.634-1.796-1.535-1.928-1.887 0.088-1.876 1.736-4.507 4.649-7.42s5.543-4.561 7.412-4.647c0.354 0.127 1.26 1.044 1.889 1.915 0.044 0.064 0.070 0.144 0.070 0.219M15.995 3.118c0-0.265-0.080-0.546-0.249-0.789-0.017-0.023-1.691-2.377-2.662-2.345-2.726 0.087-5.929 2.735-8.136 4.942s-4.856 5.41-4.944 8.146v0.023c0 0.958 2.323 2.642 2.346 2.658 0.631 0.442 1.326 0.281 1.609-0.121 0.172-0.245 1.953-2.923 2.153-3.251 0.088-0.143 0.13-0.318 0.13-0.507 0-0.245-0.072-0.516-0.21-0.78-0.136-0.258-0.58-1.039-0.798-1.421 0.236-0.336 0.842-1.127 2.088-2.373 1.237-1.238 2.034-1.849 2.373-2.087 0.382 0.218 1.162 0.662 1.419 0.796 0.485 0.256 0.968 0.285 1.294 0.077 0.307-0.195 2.966-1.968 3.219-2.151 0.239-0.173 0.367-0.482 0.367-0.817v0z"></path>
</svg>
