<?xml version="1.0" encoding="utf-8"?>
<!-- Generated by IcoMoon.io -->
<!DOCTYPE svg PUBLIC "-//W3C//DTD SVG 1.1//EN" "http://www.w3.org/Graphics/SVG/1.1/DTD/svg11.dtd">
<svg version="1.1" xmlns="http://www.w3.org/2000/svg" xmlns:xlink="http://www.w3.org/1999/xlink" width="16" height="16" viewBox="0 0 16 16">
<path d="M15.63 12.056c-0.245-0.172-2.923-1.953-3.251-2.153-0.143-0.088-0.318-0.13-0.507-0.13-0.245 0-0.516 0.071-0.78 0.21-0.258 0.136-1.039 0.58-1.421 0.798-0.336-0.236-1.127-0.842-2.373-2.088-1.238-1.237-1.849-2.034-2.087-2.373 0.218-0.382 0.662-1.162 0.796-1.42 0.256-0.484 0.285-0.968 0.077-1.295-0.195-0.308-1.968-2.997-2.151-3.25-0.172-0.239-0.482-0.368-0.817-0.368-0.265 0-0.546 0.080-0.789 0.249-0.023 0.017-2.377 1.723-2.345 2.693 0.087 2.726 2.735 5.928 4.942 8.136s5.41 4.857 8.146 4.944h0.023c0.958 0 2.642-2.323 2.658-2.346 0.442-0.631 0.281-1.326-0.122-1.608zM14.94 13.082c-0.634 0.879-1.535 1.796-1.887 1.927-1.876-0.088-4.507-1.736-7.42-4.649s-4.561-5.542-4.647-7.412c0.127-0.353 1.044-1.26 1.915-1.889 0.064-0.044 0.144-0.070 0.218-0.070 0.017 0 0.030 0.001 0.041 0.003 0.281 0.409 1.791 2.694 2.065 3.122 0.001 0.045-0.014 0.159-0.1 0.322-0.091 0.174-0.375 0.68-0.78 1.389l-0.314 0.551 0.365 0.519c0.272 0.386 0.919 1.226 2.197 2.505 1.284 1.284 2.12 1.929 2.505 2.2l0.52 0.365 0.551-0.315c0.534-0.305 1.18-0.671 1.39-0.781 0.168-0.089 0.284-0.096 0.315-0.096 0.005 0 0.009 0 0.013 0.001 0.383 0.24 2.718 1.79 3.13 2.073 0.007 0.040 0.001 0.127-0.075 0.236zM10.060 5.883c0.065 0.065 0.155 0.105 0.256 0.102l0.183-0.004c0.004 0 0.006-0.002 0.010-0.002l3.586 0.016c0.202-0.005 0.369-0.172 0.374-0.374l0-0.256c-0.030-0.238-0.218-0.378-0.42-0.373l-2.367-0.006 4.093-4.088c0.195-0.195 0.195-0.512 0-0.707s-0.512-0.195-0.707 0l-4.104 4.099 0.014-2.419c0.005-0.202-0.156-0.378-0.358-0.373l-0.257 0c-0.203 0.005-0.37 0.125-0.374 0.327l-0.010 3.61c0 0.003 0.014 0.006 0.014 0.010l-0.020 0.183c-0.002 0.101 0.022 0.192 0.087 0.257z"></path>
</svg>
