<?xml version="1.0" encoding="utf-8"?>
<!-- Generated by IcoMoon.io -->
<!DOCTYPE svg PUBLIC "-//W3C//DTD SVG 1.1//EN" "http://www.w3.org/Graphics/SVG/1.1/DTD/svg11.dtd">
<svg version="1.1" xmlns="http://www.w3.org/2000/svg" xmlns:xlink="http://www.w3.org/1999/xlink" width="16" height="16" viewBox="0 0 16 16">
<path d="M9.971 3.49c0.020 0 0.036 0.016 0.036 0.035v1.998c0 0.37 0.204 0.71 0.531 0.883 0.147 0.078 0.308 0.117 0.469 0.117 0.196 0 0.423-0.058 0.591-0.172l3.402-1.925v7.132l-3.421-1.867c-0.171-0.12-0.371-0.18-0.573-0.18-0.158 0-0.316 0.037-0.462 0.113-0.33 0.172-0.537 0.514-0.538 0.886l-0.002 1.966c0 0.020-0.016 0.035-0.036 0.035h-8.933c-0.020 0-0.036-0.015-0.036-0.035l0.002-8.95c0-0.019 0.016-0.035 0.036-0.035h8.932M15.475 2.99c-0.107 0-0.317 0.031-0.437 0.151l-4.031 2.382v-1.998c0-0.571-0.464-1.035-1.036-1.035h-8.932c-0.573 0-1.036 0.463-1.036 1.035l-0.002 8.949c0 0.571 0.463 1.035 1.036 1.035h8.933c0.573 0 1.036-0.464 1.036-1.035l0.002-1.965 4.109 2.396c0.12 0.12 0.254 0.104 0.361 0.104 0.111 0 0.193-0.034 0.204-0.038 0.194-0.081 0.32-0.268 0.32-0.479v-8.984c0-0.211-0.126-0.399-0.32-0.479-0.011-0.005-0.094-0.039-0.206-0.039v0z"></path>
</svg>
