<?xml version="1.0" encoding="utf-8"?>
<!-- Generated by IcoMoon.io -->
<!DOCTYPE svg PUBLIC "-//W3C//DTD SVG 1.1//EN" "http://www.w3.org/Graphics/SVG/1.1/DTD/svg11.dtd">
<svg version="1.1" xmlns="http://www.w3.org/2000/svg" xmlns:xlink="http://www.w3.org/1999/xlink" width="16" height="16" viewBox="0 0 16 16">
<path d="M14.5 3.5h-2.3l-1.2-2h-6l-1.2 2h-2.3c-0.5 0-1.5 0.5-1.5 1.484v8.015c0 0.828 0.75 1.5 1.396 1.5h13.136c0.656 0 1.469-0.703 1.469-1.484v-8.016c0-0.5-0.5-1.5-1.5-1.5zM15 13.016c0 0.197-0.32 0.473-0.469 0.485h-13.133c-0.116-0.009-0.399-0.235-0.399-0.5v-8.015c0-0.317 0.425-0.476 0.5-0.484h2.866l1.2-2h4.901l0.893 1.515 0.275 0.485h2.865c0.352 0 0.495 0.46 0.5 0.5v8.016zM8 5c-1.933 0-3.5 1.567-3.5 3.5s1.567 3.5 3.5 3.5 3.5-1.567 3.5-3.5-1.567-3.5-3.5-3.5zM8 11c-1.378 0-2.5-1.121-2.5-2.5s1.122-2.5 2.5-2.5 2.5 1.122 2.5 2.5-1.121 2.5-2.5 2.5z"></path>
</svg>
