<?xml version="1.0" encoding="utf-8"?>
<!-- Generated by IcoMoon.io -->
<!DOCTYPE svg PUBLIC "-//W3C//DTD SVG 1.1//EN" "http://www.w3.org/Graphics/SVG/1.1/DTD/svg11.dtd">
<svg version="1.1" xmlns="http://www.w3.org/2000/svg" xmlns:xlink="http://www.w3.org/1999/xlink" width="16" height="16" viewBox="0 0 16 16">
<path d="M12.663 15.168l-2.662-3.151v-5.524h0.333c0.276 0 0.5-0.224 0.5-0.5s-0.224-0.5-0.5-0.5h-0.833c-0.276 0-0.5 0.224-0.5 0.5v6.216c0 0.124 0.046 0.243 0.129 0.335l2.037 2.459h-6.332l2.037-2.459c0.083-0.092 0.129-0.211 0.129-0.335v-6.216c0-0.276-0.224-0.5-0.5-0.5h-0.833c-0.276 0-0.5 0.224-0.5 0.5s0.224 0.5 0.5 0.5h0.333v5.524l-2.663 3.151c-0.132 0.146-0.166 0.357-0.086 0.538s0.259 0.297 0.457 0.297h8.584c0.198 0 0.377-0.116 0.457-0.297s0.046-0.392-0.086-0.538zM7.5 4.995c0.551 0 0.998-0.447 0.998-0.998s-0.447-0.997-0.998-0.997c-0.551 0-0.998 0.447-0.998 0.997s0.446 0.998 0.998 0.998zM10.758 3.511c0.975 0 1.764-0.787 1.764-1.756s-0.79-1.756-1.764-1.756c-0.974 0-1.764 0.786-1.764 1.756s0.79 1.756 1.764 1.756zM10.75 0.995c0.416 0 0.755 0.337 0.755 0.752s-0.339 0.752-0.755 0.752-0.755-0.337-0.755-0.752c0-0.415 0.339-0.752 0.755-0.752z"></path>
</svg>
