<?xml version="1.0" encoding="utf-8"?>
<!-- Generated by IcoMoon.io -->
<!DOCTYPE svg PUBLIC "-//W3C//DTD SVG 1.1//EN" "http://www.w3.org/Graphics/SVG/1.1/DTD/svg11.dtd">
<svg version="1.1" xmlns="http://www.w3.org/2000/svg" xmlns:xlink="http://www.w3.org/1999/xlink" width="16" height="16" viewBox="0 0 16 16">
<path d="M8 0c-4.418 0-8 3.582-8 8s3.582 8 8 8c4.418 0 8-3.582 8-8s-3.582-8-8-8zM8 15.016c-3.86 0-7-3.156-7-7.016s3.14-7 7-7 7 3.14 7 7-3.14 7.016-7 7.016zM10.828 5.172c-0.195-0.195-0.512-0.195-0.707 0l-2.121 2.121-2.121-2.121c-0.195-0.195-0.512-0.195-0.707 0s-0.195 0.512 0 0.707l2.121 2.121-2.121 2.121c-0.195 0.195-0.195 0.512 0 0.707s0.512 0.195 0.707 0l2.121-2.121 2.121 2.121c0.195 0.195 0.512 0.195 0.707 0s0.195-0.512 0-0.707l-2.121-2.121 2.121-2.121c0.195-0.196 0.195-0.512 0-0.707z"></path>
</svg>
