<?xml version="1.0" encoding="utf-8"?>
<!-- Generated by IcoMoon.io -->
<!DOCTYPE svg PUBLIC "-//W3C//DTD SVG 1.1//EN" "http://www.w3.org/Graphics/SVG/1.1/DTD/svg11.dtd">
<svg version="1.1" xmlns="http://www.w3.org/2000/svg" xmlns:xlink="http://www.w3.org/1999/xlink" width="16" height="16" viewBox="0 0 16 16">
<path d="M11.922 4.062c-0.697-1.851-2.196-3.022-4.46-3.022-2.881 0-4.897 2.139-5.070 4.93-1.389 0.444-2.392 1.861-2.392 3.466 0 1.965 1.544 3.624 3.372 3.624h1.444c0.276 0 0.5-0.224 0.5-0.5s-0.224-0.5-0.5-0.5h-1.444c-1.286 0-2.388-1.202-2.388-2.624 0-1.257 0.881-2.392 1.987-2.582l0.454-0.078-0.040-0.458-0.004-0.006c0-2.436 1.603-4.272 4.081-4.272 1.986 0 3.102 0.978 3.618 2.647l0.107 0.344 0.36 0.008c1.857 0.039 3.486 1.546 3.486 3.418 0 1.704-1.129 3.603-2.839 3.603h-1.143c-0.276 0-0.5 0.224-0.5 0.5s0.224 0.5 0.5 0.5l1.139-0.002c2.5-0.066 3.802-2.454 3.802-4.601 0-2.308-1.809-4.152-4.070-4.396zM8.375 8.046c-0.003-0.003-0.004-0.005-0.005-0.008l-0.127-0.132c-0.069-0.073-0.162-0.109-0.254-0.109-0.092-0.001-0.184 0.036-0.255 0.109l-0.127 0.132c-0.003 0.002-0.003 0.005-0.005 0.008l-1.805 1.996c-0.14 0.146-0.14 0.382 0 0.529l0.126 0.085c0.14 0.146 0.366 0.099 0.506-0.047l1.064-1.187v5.038c0 0.276 0.224 0.5 0.5 0.5s0.5-0.224 0.5-0.5v-5.033l1.099 1.213c0.14 0.146 0.366 0.193 0.505 0.047l0.126-0.085c0.14-0.146 0.14-0.383 0-0.529l-1.85-2.027z"></path>
</svg>
