<?xml version="1.0" encoding="utf-8"?>
<!-- Generated by IcoMoon.io -->
<!DOCTYPE svg PUBLIC "-//W3C//DTD SVG 1.1//EN" "http://www.w3.org/Graphics/SVG/1.1/DTD/svg11.dtd">
<svg version="1.1" xmlns="http://www.w3.org/2000/svg" xmlns:xlink="http://www.w3.org/1999/xlink" width="16" height="16" viewBox="0 0 16 16">
<path d="M11.456 4.379l-4.893 2.104c-0.088 0.045-0.16 0.117-0.205 0.205l-2.242 4.519c-0.092 0.18-0.059 0.399 0.083 0.543 0.091 0.092 0.213 0.141 0.337 0.141 0.069 0 0.14-0.015 0.205-0.047l4.777-1.984c0.088-0.042 0.16-0.11 0.207-0.195l2.357-4.639c0.101-0.181 0.071-0.407-0.073-0.556s-0.368-0.186-0.553-0.092zM5.591 10.388l1.359-2.776 1.373 1.718-2.732 1.058zM9.136 8.744l-1.388-1.737 2.762-1.090-1.375 2.827zM8 0c-4.418 0-8 3.582-8 8s3.582 8 8 8c4.418 0 8-3.582 8-8s-3.582-8-8-8zM8 15.016c-3.86 0-7-3.156-7-7.016s3.14-7 7-7 7 3.14 7 7-3.14 7.016-7 7.016z"></path>
</svg>
