<?xml version="1.0" encoding="utf-8"?>
<!-- Generated by IcoMoon.io -->
<!DOCTYPE svg PUBLIC "-//W3C//DTD SVG 1.1//EN" "http://www.w3.org/Graphics/SVG/1.1/DTD/svg11.dtd">
<svg version="1.1" xmlns="http://www.w3.org/2000/svg" xmlns:xlink="http://www.w3.org/1999/xlink" width="16" height="16" viewBox="0 0 16 16">
<path d="M7.032 3.092l7.895 4.908-7.895 4.908v-3.859l-6 3.859v-9.816l6 3.859v-3.998M7.074 2.092c-0.168 0-0.355 0.042-0.507 0.126-0.317 0.176-0.535 0.511-0.535 0.874v2.060l-4.66-2.909c-0.161-0.1-0.334-0.151-0.517-0.151-0.167 0-0.246 0.042-0.398 0.126-0.317 0.176-0.425 0.511-0.425 0.874v9.816c0 0.363 0.113 0.698 0.431 0.874 0.151 0.084 0.277 0.126 0.444 0.126 0.183 0 0.325-0.050 0.486-0.151l4.639-2.909v2.060c0 0.363 0.218 0.698 0.535 0.874 0.152 0.084 0.329 0.126 0.497 0.126 0.183 0 0.372-0.050 0.533-0.151l7.898-4.908c0.293-0.182 0.473-0.504 0.473-0.849s-0.178-0.667-0.471-0.849l-7.895-4.908c-0.161-0.1-0.345-0.151-0.527-0.151v0z"></path>
</svg>
