<?xml version="1.0" encoding="utf-8"?>
<!-- Generated by IcoMoon.io -->
<!DOCTYPE svg PUBLIC "-//W3C//DTD SVG 1.1//EN" "http://www.w3.org/Graphics/SVG/1.1/DTD/svg11.dtd">
<svg version="1.1" xmlns="http://www.w3.org/2000/svg" xmlns:xlink="http://www.w3.org/1999/xlink" width="16" height="16" viewBox="0 0 16 16">
<path d="M15.233 1.022c0-0.363-0.197-0.698-0.514-0.874-0.151-0.084-0.318-0.126-0.486-0.126-0.183 0-0.367 0.051-0.528 0.151l-11.496 6.978c-0.249 0.155-0.414 0.41-0.459 0.694v-7.344c0-0.276-0.224-0.5-0.5-0.5s-0.5 0.224-0.5 0.5v15c0 0.276 0.224 0.5 0.5 0.5s0.5-0.224 0.5-0.5v-7.345c0.045 0.284 0.21 0.539 0.459 0.694l11.511 6.979c0.161 0.101 0.345 0.151 0.528 0.151 0.168 0 0.335-0.042 0.486-0.126 0.318-0.176 0.514-0.511 0.514-0.874l-0.015-13.957zM2.737 8l11.496-6.978 0.016 13.956-11.512-6.979z"></path>
</svg>
