<?xml version="1.0" encoding="utf-8"?>
<!-- Generated by IcoMoon.io -->
<!DOCTYPE svg PUBLIC "-//W3C//DTD SVG 1.1//EN" "http://www.w3.org/Graphics/SVG/1.1/DTD/svg11.dtd">
<svg version="1.1" xmlns="http://www.w3.org/2000/svg" xmlns:xlink="http://www.w3.org/1999/xlink" width="16" height="16" viewBox="0 0 16 16">
<path d="M2.26 1.022l11.496 6.978-11.511 6.978 0.015-13.957M2.26 0.022c-0.167 0-0.335 0.042-0.486 0.126-0.317 0.176-0.514 0.511-0.514 0.874l-0.016 13.956c0 0.363 0.197 0.698 0.514 0.874 0.151 0.084 0.318 0.126 0.486 0.126 0.183 0 0.367-0.050 0.528-0.151l11.511-6.979c0.294-0.182 0.473-0.504 0.473-0.849s-0.179-0.667-0.473-0.849l-11.496-6.978c-0.161-0.1-0.345-0.15-0.528-0.15v0z"></path>
</svg>
