<?xml version="1.0" encoding="utf-8"?>
<!-- Generated by IcoMoon.io -->
<!DOCTYPE svg PUBLIC "-//W3C//DTD SVG 1.1//EN" "http://www.w3.org/Graphics/SVG/1.1/DTD/svg11.dtd">
<svg version="1.1" xmlns="http://www.w3.org/2000/svg" xmlns:xlink="http://www.w3.org/1999/xlink" width="16" height="16" viewBox="0 0 16 16">
<path d="M14.749 0c-0.276 0-0.5 0.224-0.5 0.5v7.344c-0.045-0.284-0.21-0.538-0.459-0.693l-11.495-6.978c-0.161-0.1-0.345-0.151-0.528-0.151-0.167 0-0.335 0.042-0.486 0.126-0.318 0.176-0.514 0.511-0.514 0.874l-0.016 13.957c0 0.363 0.197 0.698 0.514 0.874 0.151 0.084 0.318 0.126 0.486 0.126 0.183 0 0.367-0.050 0.528-0.151l11.511-6.978c0.249-0.154 0.414-0.409 0.459-0.693v7.344c0 0.276 0.224 0.5 0.5 0.5s0.5-0.224 0.5-0.5v-15c0-0.276-0.224-0.5-0.5-0.5zM1.751 14.978l0.016-13.957 11.496 6.978-11.511 6.979z"></path>
</svg>
