<?xml version="1.0" encoding="utf-8"?>
<!-- Generated by IcoMoon.io -->
<!DOCTYPE svg PUBLIC "-//W3C//DTD SVG 1.1//EN" "http://www.w3.org/Graphics/SVG/1.1/DTD/svg11.dtd">
<svg version="1.1" xmlns="http://www.w3.org/2000/svg" xmlns:xlink="http://www.w3.org/1999/xlink" width="16" height="16" viewBox="0 0 16 16">
<path d="M14.502 2.75h-13.005c-0.829 0-1.5 0.671-1.5 1.5v7.5c0 0.829 0.671 1.5 1.5 1.5h13.005c0.829 0 1.5-0.671 1.5-1.5v-7.5c0-0.829-0.671-1.5-1.5-1.5zM1.498 3.75h13.005c0.276 0 0.5 0.224 0.5 0.5v1h-14.005v-1c0-0.276 0.224-0.5 0.5-0.5zM14.502 12.25h-13.005c-0.276 0-0.5-0.224-0.5-0.5v-4.5h14.005v4.5c0 0.276-0.224 0.5-0.5 0.5z"></path>
</svg>
