<?xml version="1.0" encoding="utf-8"?>
<!-- Generated by IcoMoon.io -->
<!DOCTYPE svg PUBLIC "-//W3C//DTD SVG 1.1//EN" "http://www.w3.org/Graphics/SVG/1.1/DTD/svg11.dtd">
<svg version="1.1" xmlns="http://www.w3.org/2000/svg" xmlns:xlink="http://www.w3.org/1999/xlink" width="16" height="16" viewBox="0 0 16 16">
<path d="M15.5 12.5h-2v-9.28l1.867-1.864c0.195-0.195 0.195-0.512 0-0.707s-0.512-0.195-0.707 0l-1.853 1.851h-9.306v-2c0-0.276-0.224-0.5-0.5-0.5s-0.5 0.224-0.5 0.5v2h-2c-0.276 0-0.5 0.224-0.5 0.5s0.224 0.5 0.5 0.5h2v9.5c0 0.046 0.015 0.088 0.026 0.13 0.005 0.019 0.004 0.039 0.011 0.057 0.050 0.126 0.15 0.226 0.276 0.276 0.022 0.009 0.045 0.008 0.067 0.013 0.039 0.010 0.077 0.024 0.119 0.024h9.5v2c0 0.276 0.224 0.5 0.5 0.5s0.5-0.224 0.5-0.5v-2h2c0.276 0 0.5-0.224 0.5-0.5s-0.224-0.5-0.5-0.5zM11.805 3.5l-8.305 8.293v-8.293h8.305zM4.207 12.5l8.293-8.281v8.281h-8.293z"></path>
</svg>
