<?xml version="1.0" encoding="utf-8"?>
<!-- Generated by IcoMoon.io -->
<!DOCTYPE svg PUBLIC "-//W3C//DTD SVG 1.1//EN" "http://www.w3.org/Graphics/SVG/1.1/DTD/svg11.dtd">
<svg version="1.1" xmlns="http://www.w3.org/2000/svg" xmlns:xlink="http://www.w3.org/1999/xlink" width="16" height="16" viewBox="0 0 16 16">
<path d="M13.009 6.497c-0.13 0-0.55-0.003-1.005-0.006l0.002-1c0-0.552-0.448-1-1-1l-10.008-0.003c-0.552 0-1 0.448-1 1v7.515c0 1.657 1.343 3 3 3h6.010c1.657 0 2.985-1.343 2.985-3l0.001-0.513c0.454 0.004 0.916 0.006 1.015 0.006 1.653 0 2.993-1.329 2.993-2.986s-1.341-3.014-2.994-3.014zM10.993 13.004c0 1.103-0.881 2-1.985 2h-6.010c-1.103 0-2-0.897-2-2l-0.001-7.515 10.009 0.003-0.013 7.512zM13.009 11.511c-0.099 0-0.561-0.003-1.014-0.006l0.007-4.013c0.455 0.003 0.876 0.006 1.006 0.006 1.143 0 2.010 0.852 2.010 1.998s-0.867 2.016-2.009 2.016zM8.998 3.496c0.276 0 0.5-0.224 0.5-0.5v-2.5c0-0.276-0.224-0.5-0.5-0.5s-0.5 0.224-0.5 0.5v2.5c0 0.276 0.224 0.5 0.5 0.5zM2.998 3.496c0.276 0 0.5-0.224 0.5-0.5v-2.5c0-0.276-0.224-0.5-0.5-0.5s-0.5 0.224-0.5 0.5v2.5c0 0.276 0.224 0.5 0.5 0.5zM5.998 3.496c0.276 0 0.5-0.224 0.5-0.5v-2.5c0-0.276-0.224-0.5-0.5-0.5s-0.5 0.224-0.5 0.5v2.5c0 0.276 0.224 0.5 0.5 0.5z"></path>
</svg>
