<?xml version="1.0" encoding="utf-8"?>
<!-- Generated by IcoMoon.io -->
<!DOCTYPE svg PUBLIC "-//W3C//DTD SVG 1.1//EN" "http://www.w3.org/Graphics/SVG/1.1/DTD/svg11.dtd">
<svg version="1.1" xmlns="http://www.w3.org/2000/svg" xmlns:xlink="http://www.w3.org/1999/xlink" width="16" height="16" viewBox="0 0 16 16">
<path d="M15.918 4.617l-2.186-4.179c-0.127-0.244-0.457-0.443-0.732-0.443h-5.030c-0.005-0-0.011-0.002-0.016-0.002s-0.009 0.002-0.013 0.002h-4.94c-0.275 0-0.606 0.199-0.735 0.442l-2.18 4.098c-0.13 0.243-0.103 0.624 0.057 0.848l7.5 10.456c0.080 0.112 0.188 0.169 0.294 0.169s0.212-0.055 0.293-0.165l7.623-10.379c0.162-0.222 0.192-0.602 0.064-0.846zM14.725 4.494h-2.679l1.073-3.072 1.606 3.072zM8.99 0.995h3.218l-0.998 2.858-2.22-2.858zM10.441 4.494h-4.651l2.198-3.158 2.453 3.158zM4.904 4.017l-1.003-3.022h3.107l-2.104 3.022zM10.637 5.494l-2.688 7.696-2.554-7.696h5.242zM6.827 12.986l-5.374-7.492h2.888l2.486 7.492zM11.696 5.494h2.893l-5.515 7.509 2.622-7.509zM2.945 1.288l1.064 3.207h-2.769l1.705-3.207z"></path>
</svg>
