<?xml version="1.0" encoding="utf-8"?>
<!-- Generated by IcoMoon.io -->
<!DOCTYPE svg PUBLIC "-//W3C//DTD SVG 1.1//EN" "http://www.w3.org/Graphics/SVG/1.1/DTD/svg11.dtd">
<svg version="1.1" xmlns="http://www.w3.org/2000/svg" xmlns:xlink="http://www.w3.org/1999/xlink" width="16" height="16" viewBox="0 0 16 16">
<path d="M15.108 4.659l-2.799-3c-0.095-0.101-0.227-0.159-0.366-0.159h-4.174l-0.016-1.031c0-0.259-0.224-0.469-0.5-0.469s-0.469 0.21-0.469 0.469l-0.015 1.031h-5.512c-0.276 0-0.5 0.224-0.5 0.5v6c0 0.276 0.224 0.5 0.5 0.5h5.505v7.031c0 0.259 0.224 0.469 0.5 0.469s0.5-0.21 0.5-0.469v-7.031h4.18c0.139 0 0.271-0.057 0.366-0.159l2.799-3c0.179-0.192 0.179-0.49 0-0.683zM11.726 7.5h-9.968v-5h9.968l2.332 2.5-2.332 2.5z"></path>
</svg>
