<?xml version="1.0" encoding="utf-8"?>
<!-- Generated by IcoMoon.io -->
<!DOCTYPE svg PUBLIC "-//W3C//DTD SVG 1.1//EN" "http://www.w3.org/Graphics/SVG/1.1/DTD/svg11.dtd">
<svg version="1.1" xmlns="http://www.w3.org/2000/svg" xmlns:xlink="http://www.w3.org/1999/xlink" width="16" height="16" viewBox="0 0 16 16">
<path d="M15.892 2.907l-1.558-1.74c-0.095-0.107-0.231-0.168-0.374-0.168h-5.473v-0.531c0-0.259-0.224-0.469-0.5-0.469s-0.5 0.21-0.5 0.469v0.531h-3.997c-0.276 0-0.5 0.224-0.5 0.5v3.495c0 0.276 0.224 0.5 0.5 0.5h3.997v1.002h-5.447c-0.143 0-0.279 0.061-0.374 0.168l-1.558 1.77c-0.168 0.19-0.168 0.475 0 0.664l1.558 1.755c0.095 0.107 0.231 0.152 0.374 0.152h5.447v4.526c0 0.259 0.224 0.469 0.5 0.469s0.5-0.21 0.5-0.469v-4.526h4.007c0.276 0 0.5-0.224 0.5-0.5v-3.51c0-0.276-0.224-0.5-0.5-0.5h-4.007v-1.002h5.473c0.143 0 0.279-0.061 0.374-0.168l1.558-1.755c0.168-0.189 0.168-0.474 0-0.664zM11.995 10.005h-9.729l-1.114-1.239 1.114-1.271h9.729v2.509zM13.735 4.494h-9.745v-2.495h9.745l1.114 1.24-1.114 1.255z"></path>
</svg>
