<?xml version="1.0" encoding="utf-8"?>
<!-- Generated by IcoMoon.io -->
<!DOCTYPE svg PUBLIC "-//W3C//DTD SVG 1.1//EN" "http://www.w3.org/Graphics/SVG/1.1/DTD/svg11.dtd">
<svg version="1.1" xmlns="http://www.w3.org/2000/svg" xmlns:xlink="http://www.w3.org/1999/xlink" width="16" height="16" viewBox="0 0 16 16">
<path d="M8 0c-4.418 0-8 3.582-8 8s3.582 8 8 8 8-3.582 8-8-3.582-8-8-8zM15 8c0 1.036-0.228 2.020-0.634 2.905l-4.425-2.368c0.047-0.171 0.075-0.351 0.075-0.537 0-1.113-0.902-2.016-2.016-2.016-0.229 0-0.447 0.040-0.652 0.11l-2.65-4.264c0.984-0.529 2.108-0.83 3.302-0.83 3.86 0 7 3.14 7 7zM8 6.984c0.56 0 1.016 0.455 1.016 1.016s-0.456 1.015-1.016 1.015-1.016-0.456-1.016-1.016 0.455-1.016 1.016-1.016zM3.853 2.365l2.659 4.279c-0.012 0.013-0.024 0.026-0.036 0.039l-4.425-2.368c0.472-0.759 1.084-1.421 1.801-1.95zM1 8c0-0.995 0.21-1.941 0.586-2.8l4.443 2.377c-0.029 0.136-0.045 0.277-0.045 0.422 0 1.113 0.902 2.016 2.016 2.016 0.194 0 0.38-0.029 0.558-0.080l2.659 4.278c-0.964 0.501-2.057 0.786-3.217 0.786-3.86 0-7-3.14-7-7zM12.069 13.69l-2.649-4.261c0.008-0.008 0.015-0.016 0.023-0.024l4.442 2.377c-0.48 0.744-1.098 1.392-1.816 1.908z"></path>
</svg>
