<?xml version="1.0" encoding="utf-8"?>
<!-- Generated by IcoMoon.io -->
<!DOCTYPE svg PUBLIC "-//W3C//DTD SVG 1.1//EN" "http://www.w3.org/Graphics/SVG/1.1/DTD/svg11.dtd">
<svg version="1.1" xmlns="http://www.w3.org/2000/svg" xmlns:xlink="http://www.w3.org/1999/xlink" width="16" height="16" viewBox="0 0 16 16">
<path d="M12 0h-5.5c-0.552 0-1 0.448-1 1h5.5v4h4v8h-3.5v1h3.5c0.552 0 1-0.448 1-1v-9l-4-4zM12 4v-2.586l2.585 2.586h-2.585zM1 2c-0.552 0-1 0.448-1 1v12c0 0.552 0.448 1 1 1h8.5c0.552 0 1-0.448 1-1v-9l-4-4h-5.5zM9.5 15h-8.5v-12h4.5v4h4v8zM6.5 6v-2.586l2.585 2.586h-2.585z"></path>
</svg>
