<?xml version="1.0" encoding="utf-8"?>
<!-- Generated by IcoMoon.io -->
<!DOCTYPE svg PUBLIC "-//W3C//DTD SVG 1.1//EN" "http://www.w3.org/Graphics/SVG/1.1/DTD/svg11.dtd">
<svg version="1.1" xmlns="http://www.w3.org/2000/svg" xmlns:xlink="http://www.w3.org/1999/xlink" width="16" height="16" viewBox="0 0 16 16">
<path d="M15.984 7.968l-1.836-6.361c-0.060-0.217-0.257-0.367-0.482-0.367h-11.49c-0.226 0-0.425 0.152-0.484 0.371l-1.678 6.037c-0.031 0.117-0.016 0.234 0.031 0.337-0.027 0.090-0.046 0.185-0.046 0.284v5.489c0 0.552 0.448 1 1 1h14c0.552 0 1-0.448 1-1v-5.489c0-0.027-0.006-0.052-0.008-0.078 0.013-0.072 0.013-0.148-0.008-0.223zM2.561 2.241h10.725l1.455 5.029h-4.662c-0.023 1.2-0.873 2.026-2.079 2.026s-2.041-0.826-2.063-2.026h-4.778l1.402-5.029zM15 13.759h-14v-5.489h4.111c0.436 1.257 1.497 2.026 2.889 2.026s2.468-0.77 2.904-2.026h4.096v5.489z"></path>
</svg>
