<?xml version="1.0" encoding="utf-8"?>
<!-- Generated by IcoMoon.io -->
<!DOCTYPE svg PUBLIC "-//W3C//DTD SVG 1.1//EN" "http://www.w3.org/Graphics/SVG/1.1/DTD/svg11.dtd">
<svg version="1.1" xmlns="http://www.w3.org/2000/svg" xmlns:xlink="http://www.w3.org/1999/xlink" width="16" height="16" viewBox="0 0 16 16">
<path d="M7.975 15.98c-3.021 0-5.478-2.424-5.478-5.403 0-3.479 4.869-10.076 5.077-10.355 0.094-0.126 0.241-0.201 0.398-0.202 0.175-0.002 0.306 0.072 0.401 0.196 0.21 0.274 5.13 6.753 5.13 10.36 0 2.979-2.48 5.403-5.528 5.403zM7.981 1.37c-1.163 1.651-4.484 6.595-4.484 9.207 0 2.428 2.009 4.403 4.478 4.403 2.496 0 4.528-1.975 4.528-4.403 0-2.709-3.346-7.579-4.522-9.207z"></path>
</svg>
