<?xml version="1.0" encoding="utf-8"?>
<!-- Generated by IcoMoon.io -->
<!DOCTYPE svg PUBLIC "-//W3C//DTD SVG 1.1//EN" "http://www.w3.org/Graphics/SVG/1.1/DTD/svg11.dtd">
<svg version="1.1" xmlns="http://www.w3.org/2000/svg" xmlns:xlink="http://www.w3.org/1999/xlink" width="16" height="16" viewBox="0 0 16 16">
<path d="M15.998 8.946c0.002-0.329-0.050-1.57-0.090-1.925-0.455-4.074-3.762-7.031-7.862-7.031-4.271 0-7.731 3.291-7.966 7.655-0.005 0.095-0.040 0.771-0.043 1.173l-0.001 0.224c-0.021 0.092-0.033 0.188-0.033 0.287v3.354c0 0.732 0.596 1.328 1.328 1.328h1.348c0.732 0 1.328-0.596 1.328-1.328v-3.354c0-0.732-0.596-1.328-1.329-1.328h-1.349c-0.092 0-0.182 0.010-0.268 0.027 0.008-0.162 0.014-0.29 0.016-0.329 0.206-3.825 3.237-6.708 6.968-6.708 3.582 0 6.471 2.583 6.868 6.143 0.017 0.149 0.038 0.526 0.056 0.905-0.097-0.023-0.197-0.037-0.3-0.037h-1.332c-0.732 0-1.328 0.596-1.328 1.328v3.338c0 0.506 0.287 0.941 0.704 1.165l-3.21 1.26v-0.082c0-0.276-0.224-0.5-0.5-0.5h-1.5c-0.276 0-0.5 0.224-0.5 0.5v0.5c0 0.276 0.224 0.5 0.5 0.5h1.5c0.004 0 0.008-0.001 0.012-0.001l0.896-0.003 5.149-2.021c0.068-0.028 0.125-0.070 0.172-0.12 0.451-0.213 0.765-0.668 0.765-1.198v-3.338c0-0.082-0.010-0.161-0.024-0.238 0.014-0.046 0.024-0.094 0.024-0.144zM1.331 9h1.348c0.181 0 0.329 0.147 0.329 0.328v3.354c0 0.181-0.147 0.328-0.329 0.328h-1.348c-0.181 0-0.328-0.147-0.328-0.328v-3.354c0-0.181 0.147-0.328 0.328-0.328zM13.008 9.328c0-0.181 0.147-0.328 0.328-0.328h1.332c0.181 0 0.329 0.147 0.329 0.328v3.338c0 0.181-0.148 0.328-0.329 0.328h-1.332c-0.181 0-0.328-0.147-0.328-0.328v-3.338z"></path>
</svg>
