<?xml version="1.0" encoding="utf-8"?>
<!-- Generated by IcoMoon.io -->
<!DOCTYPE svg PUBLIC "-//W3C//DTD SVG 1.1//EN" "http://www.w3.org/Graphics/SVG/1.1/DTD/svg11.dtd">
<svg version="1.1" xmlns="http://www.w3.org/2000/svg" xmlns:xlink="http://www.w3.org/1999/xlink" width="16" height="16" viewBox="0 0 16 16">
<path d="M12.207 9.487c-0.254-0.114-0.548 0.001-0.66 0.253-0.010 0.022-1.033 2.253-3.585 2.283-0.016 0-0.031 0.001-0.047 0.001-2.401 0-3.437-2.193-3.479-2.287-0.114-0.25-0.409-0.361-0.661-0.248s-0.363 0.409-0.249 0.662c0.053 0.118 1.334 2.874 4.388 2.874 0.020 0 0.040-0.001 0.061-0.001 3.186-0.037 4.435-2.76 4.486-2.876 0.113-0.252-0.001-0.548-0.252-0.66zM8 0c-4.418 0-8 3.582-8 8s3.582 8 8 8 8-3.582 8-8-3.582-8-8-8zM8 15c-3.86 0-7-3.14-7-7s3.14-7 7-7 7 3.14 7 7-3.14 7-7 7zM5.492 7.497c0.551 0 0.998-0.447 0.998-0.997s-0.447-0.997-0.998-0.997c-0.551 0-0.998 0.447-0.998 0.997s0.446 0.997 0.998 0.997zM10.492 7.497c0.551 0 0.998-0.447 0.998-0.997s-0.447-0.997-0.998-0.997c-0.551 0-0.998 0.447-0.998 0.997s0.446 0.997 0.998 0.997z"></path>
</svg>
