<?xml version="1.0" encoding="utf-8"?>
<!-- Generated by IcoMoon.io -->
<!DOCTYPE svg PUBLIC "-//W3C//DTD SVG 1.1//EN" "http://www.w3.org/Graphics/SVG/1.1/DTD/svg11.dtd">
<svg version="1.1" xmlns="http://www.w3.org/2000/svg" xmlns:xlink="http://www.w3.org/1999/xlink" width="16" height="16" viewBox="0 0 16 16">
<path d="M9.302 1.011h0.003M9.302 1.011l-1.128 5.928 4.087 0.014-5.564 8.036 1.128-6.521-4.087-0.014 5.563-7.442M9.303 0.011c-0.027 0-0.054 0.001-0.081 0.003-0.177 0.014-0.293 0.073-0.432 0.167-0.077 0.051-0.148 0.114-0.209 0.186-0.018 0.022-0.036 0.044-0.052 0.067l-5.603 7.416c-0.221 0.303-0.254 0.704-0.084 1.038s0.513 0.546 0.889 0.549l2.886 0.021-0.907 5.347c-0.086 0.46 0.159 0.918 0.59 1.102 0.128 0.055 0.263 0.082 0.397 0.082 0.314 0 0.572-0.147 0.766-0.412l5.61-8.036c0.221-0.303 0.254-0.704 0.084-1.038s-0.513-0.546-0.889-0.549l-2.886-0.005 0.898-4.701c0.019-0.076 0.028-0.154 0.028-0.235 0-0.541-0.431-0.982-0.97-1-0.012-0.001-0.024-0.001-0.036-0.001v0z"></path>
</svg>
