<?xml version="1.0" encoding="utf-8"?>
<!-- Generated by IcoMoon.io -->
<!DOCTYPE svg PUBLIC "-//W3C//DTD SVG 1.1//EN" "http://www.w3.org/Graphics/SVG/1.1/DTD/svg11.dtd">
<svg version="1.1" xmlns="http://www.w3.org/2000/svg" xmlns:xlink="http://www.w3.org/1999/xlink" width="16" height="16" viewBox="0 0 16 16">
<path d="M15.992 3.625c0.016-0.096 0.003-0.195-0.039-0.285-0.126-0.554-0.526-0.84-1.203-0.84h-13c-0.595 0-1.236 0.219-1.551 0.648-0.027 0.021-0.053 0.044-0.077 0.071-0.101 0.116-0.136 0.266-0.114 0.407-0.004 0.041-0.009 0.081-0.009 0.124v8c0 0.829 0.922 1.75 1.75 1.75h13c0.829 0 1.25-0.921 1.25-1.75v-8c0-0.044-0.006-0.083-0.008-0.125zM1.75 3.5h13c0.003 0 0.005 0 0.007 0l-6.757 5.385-6.729-5.363c0.153-0.028 0.341-0.022 0.48-0.022zM14.75 12.5h-13c-0.276 0-0.75-0.474-0.75-0.75v-7.163l6.673 5.338c0.094 0.081 0.211 0.122 0.327 0.122s0.233-0.040 0.328-0.122l6.672-5.338v7.163c0 0.276 0.026 0.75-0.25 0.75z"></path>
</svg>
