<?xml version="1.0" encoding="utf-8"?>
<!-- Generated by IcoMoon.io -->
<!DOCTYPE svg PUBLIC "-//W3C//DTD SVG 1.1//EN" "http://www.w3.org/Graphics/SVG/1.1/DTD/svg11.dtd">
<svg version="1.1" xmlns="http://www.w3.org/2000/svg" xmlns:xlink="http://www.w3.org/1999/xlink" width="16" height="16" viewBox="0 0 16 16">
<path d="M15.989 7.395c-0.021-0.177-0.088-0.339-0.189-0.476h0.002l-0.014-0.014c-0.051-0.067-0.111-0.127-0.178-0.18l-2.612-2.631v-1.614c0-0.276-0.224-0.5-0.5-0.5h-1.583l-1.825-1.558c-0.566-0.566-1.555-0.567-2.122 0l-1.819 1.558h-1.651c-0.276 0-0.5 0.224-0.5 0.5v1.646l-2.549 2.549c-0.271 0.179-0.451 0.486-0.451 0.833v7.492c0 0.55 0.45 1 1 1h14c0.55 0 1-0.45 1-1v-7.473c0.003-0.045-0.001-0.090-0.010-0.135zM4.201 11.336l-3.202 2.97v-5.795l3.202 2.825zM5.165 11.805c0.066-0.028 0.127-0.071 0.178-0.129 0.027-0.030 0.048-0.063 0.066-0.098l2.155-1.999c0.113-0.091 0.247-0.139 0.389-0.139 0.143 0 0.287 0.050 0.383 0.125l5.997 5.436h-12.614l3.446-3.197zM11.849 11.402l3.15-2.795v5.65l-3.15-2.855zM14.030 6.51h-0.015l0.858 0.872-1.874 1.663v-3.566l1.031 1.031zM7.676 1.13c0.095-0.094 0.22-0.146 0.354-0.146s0.259 0.052 0.354 0.146l1.010 0.851h-2.726l1.008-0.851zM11.999 2.981v6.951l-0.896 0.795-2.13-1.931c-0.589-0.461-1.434-0.482-2.058 0.021l-1.978 1.835-0.938-0.828v-6.843h8zM1.621 6.919l1.377-1.377v3.4l-1.822-1.608 0.422-0.415h0.023z"></path>
</svg>
