<?xml version="1.0" encoding="utf-8"?>
<!-- Generated by IcoMoon.io -->
<!DOCTYPE svg PUBLIC "-//W3C//DTD SVG 1.1//EN" "http://www.w3.org/Graphics/SVG/1.1/DTD/svg11.dtd">
<svg version="1.1" xmlns="http://www.w3.org/2000/svg" xmlns:xlink="http://www.w3.org/1999/xlink" width="16" height="16" viewBox="0 0 16 16">
<path d="M15.989 7.395c-0.021-0.177-0.088-0.339-0.189-0.476h0.002l-0.014-0.014c-0.051-0.067-0.111-0.127-0.178-0.18l-6.52-6.303c-0.566-0.566-1.555-0.567-2.122 0l-6.519 6.254c-0.141 0.131-0.451 0.486-0.451 0.833v7.492c0 0.55 0.45 1 1 1h14c0.55 0 1-0.45 1-1v-7.473c0.003-0.045-0.001-0.090-0.010-0.135zM4.215 11.349l-3.216 2.962v-5.8l3.216 2.838zM5.243 11.761c0.036-0.024 0.070-0.051 0.099-0.085 0.006-0.007 0.010-0.014 0.015-0.021l2.206-2.031c0.113-0.091 0.247-0.139 0.389-0.139 0.143 0 0.287 0.050 0.383 0.125l5.994 5.392h-12.605l3.519-3.241zM11.835 11.415l3.164-2.808v5.654l-3.164-2.846zM1.621 6.919l6.055-5.79c0.095-0.094 0.22-0.146 0.353-0.146s0.259 0.052 0.354 0.146l5.646 5.38h-0.015l0.858 0.872-3.786 3.36-2.113-1.901c-0.589-0.462-1.434-0.482-2.058 0.021l-1.961 1.806-3.778-3.333 0.422-0.415h0.023z"></path>
</svg>
