<?xml version="1.0" encoding="utf-8"?>
<!-- Generated by IcoMoon.io -->
<!DOCTYPE svg PUBLIC "-//W3C//DTD SVG 1.1//EN" "http://www.w3.org/Graphics/SVG/1.1/DTD/svg11.dtd">
<svg version="1.1" xmlns="http://www.w3.org/2000/svg" xmlns:xlink="http://www.w3.org/1999/xlink" width="16" height="16" viewBox="0 0 16 16">
<path d="M2.501 6.061v-5.561c0-0.276-0.224-0.5-0.5-0.5s-0.5 0.224-0.5 0.5v5.56c-0.865 0.223-1.506 1.007-1.506 1.94s0.642 1.717 1.506 1.94v5.56c0 0.276 0.224 0.5 0.5 0.5s0.5-0.224 0.5-0.5v-5.56c0.864-0.223 1.505-1.007 1.505-1.94s-0.641-1.716-1.505-1.939zM2.006 9.001c-0.002 0-0.004-0.001-0.006-0.001s-0.004 0.001-0.006 0.001c-0.549-0.003-0.995-0.451-0.995-1.001s0.446-0.998 0.996-1c0.002 0 0.004 0 0.006 0s0.004-0 0.006-0c0.549 0.003 0.995 0.451 0.995 1s-0.446 0.997-0.995 1.001zM8.501 9.060v-8.56c0-0.276-0.224-0.5-0.5-0.5s-0.5 0.224-0.5 0.5v8.56c-0.864 0.223-1.506 1.007-1.506 1.94s0.642 1.717 1.506 1.94v2.56c0 0.276 0.224 0.5 0.5 0.5s0.5-0.224 0.5-0.5v-2.56c0.864-0.223 1.505-1.007 1.505-1.94s-0.641-1.716-1.505-1.94zM8.007 12.001c-0.002 0-0.004-0.001-0.006-0.001s-0.004 0.001-0.006 0.001c-0.549-0.003-0.995-0.451-0.995-1.001s0.447-0.998 0.997-1.001c0.002 0 0.003 0.001 0.005 0.001s0.003-0.001 0.005-0.001c0.55 0.003 0.996 0.45 0.996 1.001s-0.446 0.997-0.995 1.001zM14.501 3.061v-2.561c0-0.276-0.224-0.5-0.5-0.5s-0.5 0.224-0.5 0.5v2.56c-0.864 0.223-1.506 1.007-1.506 1.94s0.642 1.718 1.506 1.94v8.56c0 0.276 0.224 0.5 0.5 0.5s0.5-0.224 0.5-0.5v-8.56c0.864-0.223 1.504-1.007 1.504-1.94s-0.641-1.716-1.505-1.939zM14.007 6c-0.002 0-0.004-0-0.005-0s-0.005 0-0.007 0c-0.549-0.003-0.995-0.45-0.995-1s0.446-0.998 0.995-1c0.002 0 0.005 0 0.007 0s0.004-0.001 0.005-0.001c0.549 0.004 0.995 0.451 0.995 1.001s-0.445 0.997-0.995 1z"></path>
</svg>
