<?xml version="1.0" encoding="utf-8"?>
<!-- Generated by IcoMoon.io -->
<!DOCTYPE svg PUBLIC "-//W3C//DTD SVG 1.1//EN" "http://www.w3.org/Graphics/SVG/1.1/DTD/svg11.dtd">
<svg version="1.1" xmlns="http://www.w3.org/2000/svg" xmlns:xlink="http://www.w3.org/1999/xlink" width="16" height="16" viewBox="0 0 16 16">
<path d="M8.054 5.022c-1.657 0-3 1.343-3 3s1.343 3 3 3 3-1.343 3-3c0-1.657-1.343-3-3-3zM8.054 10.022c-1.103 0-2.023-0.919-2.023-2.022s0.897-2 2-2c1.103 0 2 0.897 2 2s-0.874 2.022-1.977 2.022zM15.995 7.884c-0.006-0.025-0.003-0.052-0.011-0.077-0.003-0.011-0.010-0.016-0.014-0.026-0.005-0.014-0.004-0.031-0.011-0.045-1.454-3.33-4.588-5.246-7.928-5.246s-6.537 1.913-7.992 5.243c-0.006 0.014-0.005 0.029-0.010 0.045-0.003 0.010-0.011 0.015-0.014 0.024-0.008 0.025-0.005 0.051-0.009 0.077-0.009 0.045-0.018 0.089-0.018 0.134s0.009 0.088 0.018 0.134c0.005 0.025 0.002 0.052 0.009 0.076 0.003 0.011 0.011 0.016 0.014 0.026 0.005 0.014 0.004 0.031 0.010 0.044 1.455 3.329 4.621 5.214 7.961 5.214s6.505-1.881 7.96-5.211c0.007-0.014 0.006-0.029 0.011-0.045 0.004-0.009 0.010-0.015 0.013-0.025 0.008-0.024 0.005-0.051 0.011-0.077 0.009-0.045 0.017-0.088 0.017-0.135 0-0.044-0.008-0.088-0.017-0.133zM8 12.509c-2.833 0-5.621-1.493-6.991-4.495 1.357-2.992 4.183-4.524 7.022-4.524s5.601 1.534 6.959 4.527c-1.357 2.991-4.151 4.492-6.99 4.492z"></path>
</svg>
