<?xml version="1.0" encoding="utf-8"?>
<!-- Generated by IcoMoon.io -->
<!DOCTYPE svg PUBLIC "-//W3C//DTD SVG 1.1//EN" "http://www.w3.org/Graphics/SVG/1.1/DTD/svg11.dtd">
<svg version="1.1" xmlns="http://www.w3.org/2000/svg" xmlns:xlink="http://www.w3.org/1999/xlink" width="16" height="16" viewBox="0 0 16 16">
<path d="M16.021 10.184c-0.015-0.216-0.828-4.989-0.956-5.753-0.012-0.073-0.022-0.151-0.033-0.234-0.098-0.768-0.282-2.197-2.585-2.197-0.276 0-0.5 0.224-0.5 0.5s0.224 0.5 0.5 0.5c1.424 0 1.499 0.584 1.594 1.325 0.012 0.095 0.024 0.186 0.038 0.27 0.059 0.352 0.323 1.752 0.552 3.141-0.587-0.447-1.317-0.716-2.111-0.716-1.276 0-2.411 0.687-3.036 1.709-0.3-0.114-0.81-0.255-1.49-0.255-0.671 0-1.164 0.143-1.469 0.267-0.607-1.029-1.723-1.721-3.004-1.721-0.832 0-1.605 0.292-2.216 0.779 0.232-1.406 0.506-2.844 0.566-3.204 0.014-0.085 0.026-0.175 0.038-0.27 0.095-0.74 0.17-1.325 1.594-1.325 0.276 0 0.5-0.224 0.5-0.5s-0.224-0.5-0.5-0.5c-2.304 0-2.487 1.429-2.586 2.197-0.011 0.082-0.020 0.16-0.033 0.234-0.127 0.764-0.891 5.506-0.906 5.722-0.003 0.048 0.002 0.095 0.012 0.14-0.005 0.072-0.011 0.144-0.011 0.217 0 1.927 1.615 3.49 3.542 3.49s3.49-1.563 3.49-3.49c0-0.291-0.040-0.573-0.107-0.844 0.205-0.082 0.575-0.193 1.091-0.193 0.503 0 0.882 0.101 1.098 0.177-0.072 0.275-0.114 0.562-0.114 0.859 0 1.927 1.615 3.49 3.542 3.49s3.49-1.563 3.49-3.49c0-0.052-0.006-0.103-0.008-0.155 0.015-0.055 0.024-0.111 0.019-0.171zM3.521 13c-1.378 0-2.542-1.14-2.542-2.49s1.164-2.49 2.542-2.49c1.373 0 2.49 1.117 2.49 2.49s-1.117 2.49-2.49 2.49zM12.521 13c-1.378 0-2.542-1.14-2.542-2.49s1.164-2.49 2.542-2.49c1.188 0 2.182 0.836 2.429 1.95 0.010 0.102 0.019 0.198 0.025 0.286 0.003 0.042 0.014 0.082 0.029 0.12 0.002 0.045 0.007 0.089 0.007 0.135 0 1.373-1.117 2.489-2.49 2.489z"></path>
</svg>
