<?xml version="1.0" encoding="utf-8"?>
<!-- Generated by IcoMoon.io -->
<!DOCTYPE svg PUBLIC "-//W3C//DTD SVG 1.1//EN" "http://www.w3.org/Graphics/SVG/1.1/DTD/svg11.dtd">
<svg version="1.1" xmlns="http://www.w3.org/2000/svg" xmlns:xlink="http://www.w3.org/1999/xlink" width="16" height="16" viewBox="0 0 16 16">
<path d="M1.592 5.16c-0.283 0-0.512 0.229-0.512 0.512s0.229 0.512 0.512 0.512c4.734 0 8.209 3.506 8.209 8.24 0 0.283 0.229 0.512 0.512 0.512s0.512-0.229 0.512-0.512c0-5.318-3.915-9.264-9.232-9.264zM1.596 0.041c-0.283 0-0.512 0.229-0.512 0.512s0.229 0.512 0.512 0.512c7.347 0 13.323 5.976 13.323 13.323 0 0.283 0.229 0.512 0.512 0.512s0.512-0.229 0.512-0.512c-0-7.911-6.436-14.347-14.347-14.347zM2.875 10.306c-1.554 0-2.818 1.268-2.818 2.826s1.264 2.827 2.818 2.827 2.819-1.268 2.819-2.827c0-1.559-1.264-2.826-2.819-2.826zM2.875 14.969c-1.010 0-1.831-0.824-1.831-1.837s0.821-1.836 1.831-1.836c1.010 0 1.831 0.824 1.831 1.837s-0.822 1.837-1.832 1.837z"></path>
</svg>
