<?xml version="1.0" encoding="utf-8"?>
<!-- Generated by IcoMoon.io -->
<!DOCTYPE svg PUBLIC "-//W3C//DTD SVG 1.1//EN" "http://www.w3.org/Graphics/SVG/1.1/DTD/svg11.dtd">
<svg version="1.1" xmlns="http://www.w3.org/2000/svg" xmlns:xlink="http://www.w3.org/1999/xlink" width="16" height="16" viewBox="0 0 16 16">
<path d="M12.5 4.255h1c0.276 0 0.5-0.224 0.5-0.5v-0.5c0-0.276-0.224-0.5-0.5-0.5h-1c-0.276 0-0.5 0.224-0.5 0.5v0.5c0 0.276 0.224 0.5 0.5 0.5zM12.5 7.255h1c0.276 0 0.5-0.224 0.5-0.5v-0.5c0-0.276-0.224-0.5-0.5-0.5h-1c-0.276 0-0.5 0.224-0.5 0.5v0.5c0 0.276 0.224 0.5 0.5 0.5zM12.5 10.255h1c0.276 0 0.5-0.224 0.5-0.5v-0.5c0-0.276-0.224-0.5-0.5-0.5h-1c-0.276 0-0.5 0.224-0.5 0.5v0.5c0 0.276 0.224 0.5 0.5 0.5zM12.5 13.255h1c0.276 0 0.5-0.224 0.5-0.5v-0.5c0-0.276-0.224-0.5-0.5-0.5h-1c-0.276 0-0.5 0.224-0.5 0.5v0.5c0 0.276 0.224 0.5 0.5 0.5zM2.5 4.255h1c0.276 0 0.5-0.224 0.5-0.5v-0.5c0-0.276-0.224-0.5-0.5-0.5h-1c-0.276 0-0.5 0.224-0.5 0.5v0.5c0 0.276 0.224 0.5 0.5 0.5zM2.5 7.255h1c0.276 0 0.5-0.224 0.5-0.5v-0.5c0-0.276-0.224-0.5-0.5-0.5h-1c-0.276 0-0.5 0.224-0.5 0.5v0.5c0 0.276 0.224 0.5 0.5 0.5zM2.5 10.255h1c0.276 0 0.5-0.224 0.5-0.5v-0.5c0-0.276-0.224-0.5-0.5-0.5h-1c-0.276 0-0.5 0.224-0.5 0.5v0.5c0 0.276 0.224 0.5 0.5 0.5zM2.5 13.255h1c0.276 0 0.5-0.224 0.5-0.5v-0.5c0-0.276-0.224-0.5-0.5-0.5h-1c-0.276 0-0.5 0.224-0.5 0.5v0.5c0 0.276 0.224 0.5 0.5 0.5zM15 0.248h-14c-0.55 0-1 0.45-1 1v13.503c0 0.55 0.45 1 1 1h14c0.55 0 1-0.45 1-1v-13.503c0-0.55-0.45-1-1-1zM15 14.752h-14v-13.503h14v13.503z"></path>
</svg>
