<?xml version="1.0" encoding="utf-8"?>
<!-- Generated by IcoMoon.io -->
<!DOCTYPE svg PUBLIC "-//W3C//DTD SVG 1.1//EN" "http://www.w3.org/Graphics/SVG/1.1/DTD/svg11.dtd">
<svg version="1.1" xmlns="http://www.w3.org/2000/svg" xmlns:xlink="http://www.w3.org/1999/xlink" width="16" height="16" viewBox="0 0 16 16">
<path d="M7.944 15.989c-3.769 0-6.443-2.614-6.443-6.215 0-1.912 1.147-3.972 1.195-4.058 0.099-0.177 0.295-0.274 0.499-0.251 0.202 0.026 0.368 0.171 0.42 0.368 0.003 0.012 0.312 1.168 0.72 1.81 0.274 0.432 0.552 0.737 0.864 0.949-0.212-0.917-0.373-2.296-0.11-3.71 0.724-3.884 3.781-4.813 3.912-4.851 0.168-0.048 0.347-0.005 0.476 0.112s0.187 0.293 0.153 0.464c-0.005 0.027-0.51 2.747 0.562 5.063 0.097 0.21 0.233 0.455 0.379 0.7 0.041-0.336 0.106-0.693 0.205-1.040 0.393-1.375 1.409-1.844 1.452-1.863 0.169-0.077 0.367-0.052 0.514 0.063s0.216 0.301 0.182 0.485c-0.005 0.034-0.147 0.969 0.649 2.296 0.719 1.198 0.926 1.975 0.926 3.464 0 3.601-2.757 6.215-6.555 6.215zM3.058 7.308c-0.275 0.692-0.557 1.613-0.557 2.466 0 3.022 2.253 5.215 5.443 5.215 3.219 0 5.555-2.193 5.555-5.215 0-1.305-0.161-1.911-0.784-2.949-0.416-0.693-0.621-1.317-0.72-1.813-0.099 0.16-0.191 0.356-0.258 0.592-0.305 1.066-0.228 2.312-0.227 2.324 0.015 0.223-0.121 0.429-0.332 0.504s-0.446 0.001-0.575-0.182c-0.037-0.053-0.927-1.312-1.319-2.16-0.814-1.759-0.8-3.662-0.717-4.757-0.824 0.48-2.088 1.552-2.495 3.733-0.396 2.122 0.373 4.244 0.381 4.265 0.066 0.173 0.031 0.37-0.091 0.509s-0.311 0.2-0.493 0.157c-0.062-0.015-1.469-0.381-2.38-1.817-0.163-0.257-0.309-0.569-0.432-0.871z"></path>
</svg>
