<?xml version="1.0" encoding="utf-8"?>
<!-- Generated by IcoMoon.io -->
<!DOCTYPE svg PUBLIC "-//W3C//DTD SVG 1.1//EN" "http://www.w3.org/Graphics/SVG/1.1/DTD/svg11.dtd">
<svg version="1.1" xmlns="http://www.w3.org/2000/svg" xmlns:xlink="http://www.w3.org/1999/xlink" width="16" height="16" viewBox="0 0 16 16">
<path d="M10.625 1.49c-2.5 0-3.167-1.5-6.333-1.5-2.042 0-3.292 1.542-3.292 1.542v13.979c0 0.276 0.224 0.5 0.5 0.5s0.5-0.224 0.5-0.5v-6.373c0.527-0.34 1.255-0.648 2.167-0.648 3.167 0 4.083 1.5 6.583 1.5s4.25-1.5 4.25-1.5v-8.5c0 0-1.875 1.5-4.375 1.5zM14 7.98c-0.565 0.368-1.762 1.009-3.25 1.009-0.983 0-1.654-0.27-2.503-0.611-1.035-0.416-2.21-0.888-4.080-0.888-0.854 0-1.579 0.215-2.167 0.503v-6.054c0.377-0.343 1.197-0.948 2.292-0.948 1.471 0 2.298 0.357 3.175 0.734 0.873 0.376 1.776 0.765 3.158 0.765 1.332 0 2.502-0.368 3.375-0.764v6.255z"></path>
</svg>
