<?xml version="1.0" encoding="utf-8"?>
<!-- Generated by IcoMoon.io -->
<!DOCTYPE svg PUBLIC "-//W3C//DTD SVG 1.1//EN" "http://www.w3.org/Graphics/SVG/1.1/DTD/svg11.dtd">
<svg version="1.1" xmlns="http://www.w3.org/2000/svg" xmlns:xlink="http://www.w3.org/1999/xlink" width="16" height="16" viewBox="0 0 16 16">
<path d="M11.613 1.181c-0.4-0.188-0.778-0.365-1.123-0.537-0.882-0.442-1.682-0.657-2.445-0.657-1.536 0-2.598 0.886-3.265 1.552l-3.232 3.235c-1.73 1.731-2.006 3.494-0.895 5.716 0.172 0.345 0.35 0.724 0.537 1.126 1.011 2.162 2.056 4.398 3.767 4.398 0.048 0 0.096-0.002 0.144-0.005 1.765-0.138 2.266-2.411 2.708-4.415 0.070-0.318 0.137-0.622 0.205-0.895 0.119-0.472 0.352-0.765 0.993-1.407l0.088-0.088 0.054-0.054 0.143-0.142c0.642-0.642 0.935-0.876 1.408-0.995 0.271-0.068 0.574-0.135 0.891-0.205 2.003-0.442 4.275-0.943 4.413-2.711 0.139-1.794-2.163-2.873-4.39-3.915zM14.976 5.005c-0.097 1.247-2.888 1.614-4.548 2.031-0.735 0.186-1.181 0.574-1.856 1.249-0.047 0.047-0.094 0.094-0.142 0.142s-0.094 0.095-0.142 0.142c-0.675 0.675-1.063 1.122-1.247 1.857-0.417 1.662-0.784 4.456-2.029 4.554-0.022 0.002-0.045 0.002-0.067 0.002-1.321 0-2.433-3.004-3.413-4.963-0.996-1.992-0.569-3.285 0.709-4.564 0.245-0.246 0.55-0.551 0.924-0.925 0.382-0.382 0.836-0.837 1.374-1.375 0.373-0.374 0.678-0.679 0.924-0.925 0.794-0.794 1.593-1.26 2.561-1.26 0.591 0 1.244 0.173 1.998 0.551 1.992 0.998 5.061 2.132 4.956 3.484zM7.481 5.489h1v-1h-1v1zM7.481 3.989h1v-1h-1v1zM8.981 3.989h1v-1h-1v1zM8.981 5.489h1v-1h-1v1zM5.154 8.491l0.38-0.38c0.188-0.188 0.188-0.492 0-0.679s-0.491-0.188-0.679 0l-0.38 0.38-0.38-0.38c-0.188-0.188-0.491-0.188-0.679 0s-0.188 0.492 0 0.679l0.381 0.38-0.381 0.38c-0.188 0.187-0.188 0.491 0 0.679s0.491 0.188 0.679 0l0.38-0.38 0.391 0.392c0.188 0.188 0.491 0.188 0.679 0s0.188-0.492 0-0.679l-0.391-0.392z"></path>
</svg>
