<?xml version="1.0" encoding="utf-8"?>
<!-- Generated by IcoMoon.io -->
<!DOCTYPE svg PUBLIC "-//W3C//DTD SVG 1.1//EN" "http://www.w3.org/Graphics/SVG/1.1/DTD/svg11.dtd">
<svg version="1.1" xmlns="http://www.w3.org/2000/svg" xmlns:xlink="http://www.w3.org/1999/xlink" width="16" height="16" viewBox="0 0 16 16">
<path d="M8-0.002c-3.582 0-6.495 3.123-6.495 6.963v8.542c0 0.207 0.127 0.392 0.32 0.466 0.058 0.023 0.119 0.034 0.18 0.034 0.138 0 0.274-0.057 0.37-0.165l1.884-2.080 1.476 2.038c0.093 0.129 0.242 0.205 0.401 0.207h0.003c0.158 0 0.307-0.075 0.401-0.202l1.482-1.99 1.456 1.987c0.094 0.129 0.244 0.204 0.403 0.204s0.309-0.076 0.403-0.204l1.493-2.036 1.844 2.072c0.138 0.155 0.358 0.209 0.551 0.135s0.322-0.26 0.322-0.467v-8.542c0-3.839-2.914-6.962-6.495-6.962zM13.495 14.188l-1.381-1.553c-0.101-0.113-0.247-0.177-0.397-0.167-0.151 0.007-0.29 0.082-0.38 0.204l-1.455 1.985-1.453-1.983c-0.094-0.128-0.243-0.204-0.401-0.204h-0.002c-0.158 0-0.307 0.075-0.401 0.202l-1.479 1.987-1.438-1.986c-0.088-0.122-0.227-0.198-0.378-0.206-0.009-0.001-0.018-0.001-0.027-0.001-0.141 0-0.276 0.059-0.37 0.165l-1.428 1.576v-7.245c0-3.288 2.465-5.963 5.495-5.963s5.495 2.675 5.495 5.963v7.228zM10.5 5.503c-0.551 0-0.998 0.447-0.998 0.997s0.446 0.997 0.998 0.997 0.998-0.447 0.998-0.998c0-0.55-0.446-0.997-0.998-0.997zM5.5 5.503c-0.551 0-0.998 0.447-0.998 0.997s0.447 0.997 0.998 0.997 0.998-0.447 0.998-0.998c0-0.55-0.446-0.997-0.998-0.997z"></path>
</svg>
