<?xml version="1.0" encoding="utf-8"?>
<!-- Generated by IcoMoon.io -->
<!DOCTYPE svg PUBLIC "-//W3C//DTD SVG 1.1//EN" "http://www.w3.org/Graphics/SVG/1.1/DTD/svg11.dtd">
<svg version="1.1" xmlns="http://www.w3.org/2000/svg" xmlns:xlink="http://www.w3.org/1999/xlink" width="16" height="16" viewBox="0 0 16 16">
<path d="M16.016 8c0-4.25-3.338-7.736-7.536-7.985-0.086-0.009-0.173-0.016-0.261-0.016-0.026 0-0.052 0.003-0.078 0.004-0.047-0.001-0.093-0.004-0.141-0.004-4.42 0-8.016 3.589-8.016 8.001s3.596 8.001 8.016 8.001c0.047 0 0.094-0.003 0.141-0.004 0.026 0.001 0.052 0.004 0.078 0.004 0.088 0 0.175-0.006 0.261-0.016 4.197-0.249 7.536-3.734 7.536-7.985zM14.524 10.575c-0.275-0.080-0.967-0.254-2.188-0.397 0.101-0.691 0.156-1.42 0.156-2.179 0-0.598-0.034-1.177-0.098-1.734 1.547-0.185 2.225-0.418 2.27-0.434l-0.186-0.525c0.348 0.83 0.54 1.739 0.54 2.693 0 0.909-0.176 1.778-0.493 2.575zM4.461 8c0-0.559 0.037-1.106 0.105-1.631 0.811 0.064 1.78 0.111 2.92 0.122v3.47c-1.109 0.011-2.057 0.056-2.854 0.117-0.11-0.659-0.17-1.357-0.17-2.077zM8.483 1.066c1.226 0.355 2.276 2.058 2.746 4.314-0.756 0.060-1.666 0.104-2.746 0.114v-4.429zM7.485 1.078v4.416c-1.068-0.011-1.982-0.054-2.751-0.113 0.48-2.228 1.538-3.918 2.751-4.303zM7.485 10.957v3.965c-1.131-0.359-2.128-1.853-2.646-3.86 0.746-0.055 1.627-0.095 2.646-0.105zM8.483 14.934v-3.978c1.030 0.010 1.907 0.051 2.644 0.108-0.509 2.033-1.5 3.538-2.644 3.869zM8.483 9.96v-3.469c1.146-0.011 2.109-0.059 2.909-0.125 0.066 0.527 0.101 1.074 0.101 1.634 0 0.721-0.058 1.42-0.165 2.080-0.788-0.064-1.731-0.11-2.846-0.12zM14.294 4.905c-0.151 0.047-0.782 0.226-2.047 0.375-0.282-1.499-0.792-2.781-1.455-3.706 1.524 0.662 2.768 1.849 3.502 3.33zM5.606 1.415c-0.816 0.937-1.482 2.284-1.845 3.877-1.133-0.123-1.811-0.267-2.083-0.333 0.792-1.635 2.204-2.918 3.928-3.544zM1.307 5.894c0.192 0.052 0.921 0.234 2.274 0.383-0.078 0.554-0.12 1.13-0.12 1.724 0 0.754 0.068 1.48 0.191 2.167-1.163 0.126-1.877 0.276-2.198 0.353-0.304-0.783-0.472-1.632-0.472-2.521 0-0.734 0.114-1.441 0.325-2.107zM1.892 11.443c0.364-0.077 1.014-0.195 1.978-0.296 0.38 1.402 0.997 2.588 1.737 3.437-1.58-0.574-2.895-1.699-3.715-3.141zM10.791 14.425c0.597-0.832 1.070-1.954 1.364-3.262 0.991 0.114 1.613 0.247 1.927 0.326-0.75 1.298-1.904 2.334-3.29 2.937z"></path>
</svg>
