<?xml version="1.0" encoding="utf-8"?>
<!-- Generated by IcoMoon.io -->
<!DOCTYPE svg PUBLIC "-//W3C//DTD SVG 1.1//EN" "http://www.w3.org/Graphics/SVG/1.1/DTD/svg11.dtd">
<svg version="1.1" xmlns="http://www.w3.org/2000/svg" xmlns:xlink="http://www.w3.org/1999/xlink" width="16" height="16" viewBox="0 0 16 16">
<path d="M14.524 6.475c0-2.637-1.39-5.029-3.718-6.399-0.238-0.141-0.545-0.060-0.684 0.178s-0.060 0.544 0.178 0.684c2.020 1.188 3.225 3.258 3.225 5.537 0 3.787-2.749 6.536-6.536 6.536-0.847 0-1.668-0.159-2.442-0.471-0.256-0.104-0.548 0.020-0.651 0.276s0.020 0.548 0.276 0.651c0.894 0.361 1.842 0.544 2.817 0.544 0.003 0 0.006-0 0.009-0v0.985h-1.452c-0.288 0-0.522 0.223-0.522 0.499s0.234 0.499 0.522 0.499h3.951c0.288 0 0.523-0.223 0.523-0.499s-0.234-0.499-0.523-0.499h-1.506v-1.044c3.841-0.446 6.535-3.452 6.535-7.476zM12.49 6.52c0-3.042-2.465-5.522-5.506-5.522s-5.507 2.481-5.507 5.522 2.465 5.491 5.507 5.491c3.042 0 5.506-2.45 5.506-5.491zM2.477 6.52c0-2.485 2.022-4.522 4.507-4.522s4.506 2.037 4.506 4.522-2.021 4.491-4.506 4.491c-2.485 0-4.507-2.006-4.507-4.491z"></path>
</svg>
