<?xml version="1.0" encoding="utf-8"?>
<!-- Generated by IcoMoon.io -->
<!DOCTYPE svg PUBLIC "-//W3C//DTD SVG 1.1//EN" "http://www.w3.org/Graphics/SVG/1.1/DTD/svg11.dtd">
<svg version="1.1" xmlns="http://www.w3.org/2000/svg" xmlns:xlink="http://www.w3.org/1999/xlink" width="16" height="16" viewBox="0 0 16 16">
<path d="M15.482 10.88v-4.034l0.252-0.133c0.164-0.085 0.267-0.253 0.268-0.438s-0.098-0.354-0.259-0.443l-7.522-4.025c-0.15-0.083-0.332-0.082-0.484 0.002l-7.481 4.030c-0.159 0.089-0.258 0.257-0.257 0.44s0.102 0.35 0.263 0.437l3.287 1.75c-0.041 0.073-0.067 0.156-0.067 0.245v4.231c0 0.143 0.061 0.279 0.167 0.373 0.108 0.096 1.148 0.939 4.324 0.939 3.165 0 4.232-0.796 4.344-0.887 0.116-0.095 0.184-0.237 0.184-0.387v-4.339c0-0.070-0.015-0.137-0.041-0.197l2.022-1.068v3.508c-0.296 0.174-0.498 0.492-0.498 0.86 0 0.552 0.448 1 1 1s1-0.448 1-1c0-0.37-0.204-0.69-0.502-0.863zM11.501 12.693c-0.393 0.189-1.433 0.561-3.527 0.561-2.107 0-3.124-0.396-3.492-0.586v-3.705l3.247 1.729c0.074 0.040 0.156 0.060 0.237 0.060 0.080 0 0.159-0.019 0.231-0.057l3.303-1.745v3.744zM7.97 9.684l-6.431-3.415 6.442-3.453 6.463 3.443-6.474 3.425z"></path>
</svg>
