<?xml version="1.0" encoding="utf-8"?>
<!-- Generated by IcoMoon.io -->
<!DOCTYPE svg PUBLIC "-//W3C//DTD SVG 1.1//EN" "http://www.w3.org/Graphics/SVG/1.1/DTD/svg11.dtd">
<svg version="1.1" xmlns="http://www.w3.org/2000/svg" xmlns:xlink="http://www.w3.org/1999/xlink" width="16" height="16" viewBox="0 0 16 16">
<path d="M14.75 3.5c-0.691 0-1.25 0.56-1.25 1.25 0 0.142 0.029 0.276 0.072 0.402l-3.047 2.624c-0.214-0.17-0.48-0.276-0.775-0.276-0.34 0-0.647 0.136-0.872 0.356l-2.387-1.195c-0.046-0.648-0.581-1.162-1.241-1.162-0.69 0-1.25 0.56-1.25 1.25 0 0.189 0.045 0.366 0.12 0.527l-2.433 2.806c-0.137-0.051-0.282-0.083-0.437-0.083-0.69 0-1.25 0.56-1.25 1.25s0.56 1.25 1.25 1.25 1.25-0.56 1.25-1.25c0-0.166-0.034-0.325-0.093-0.47l2.473-2.842c0.118 0.037 0.24 0.062 0.37 0.062 0.364 0 0.688-0.158 0.917-0.406l2.335 1.17c0.008 0.684 0.563 1.236 1.249 1.236 0.691 0 1.25-0.56 1.25-1.25 0-0.022-0.005-0.043-0.007-0.065l3.252-2.793c0.155 0.069 0.325 0.108 0.505 0.108 0.691 0 1.25-0.559 1.25-1.25s-0.559-1.25-1.25-1.25z"></path>
</svg>
