<?xml version="1.0" encoding="utf-8"?>
<!-- Generated by IcoMoon.io -->
<!DOCTYPE svg PUBLIC "-//W3C//DTD SVG 1.1//EN" "http://www.w3.org/Graphics/SVG/1.1/DTD/svg11.dtd">
<svg version="1.1" xmlns="http://www.w3.org/2000/svg" xmlns:xlink="http://www.w3.org/1999/xlink" width="16" height="16" viewBox="0 0 16 16">
<path d="M15.98 14.729l-1.303-7.872c-0.116-1.021-1.046-1.851-2.074-1.851h-1.104v-1.333c0-2.034-1.451-3.688-3.484-3.688s-3.515 1.654-3.515 3.688v1.333h-1.198c-1.027 0-1.958 0.83-2.071 1.829l-1.208 7.877c-0.046 0.415 0.035 0.742 0.241 0.973 0.194 0.217 0.477 0.328 0.84 0.328h13.649c0.514 0 0.809-0.207 0.966-0.38 0.144-0.159 0.307-0.44 0.26-0.905zM5.501 3.674c0-1.482 1.033-2.688 2.515-2.688s2.484 1.206 2.484 2.688v1.333h-4.999v-1.333zM14.8 15.007l-13.633 0.007c-0.086 0-0.172-0.046-0.152-0.167l1.207-7.877c0.060-0.522 0.555-0.964 1.080-0.964h1.198v1.139c-0.298 0.173-0.501 0.492-0.501 0.862 0 0.552 0.448 1 1 1s1-0.448 1-1c0-0.369-0.202-0.688-0.499-0.861v-1.141h4.998v1.141c-0.297 0.173-0.499 0.492-0.499 0.861 0 0.552 0.448 1 1 1s1-0.448 1-1c0-0.37-0.203-0.689-0.501-0.862v-1.139h1.104c0.526 0 1.021 0.442 1.085 0.991l1.302 7.864c0.006 0.064-0.044 0.146-0.191 0.146z"></path>
</svg>
