<?xml version="1.0" encoding="utf-8"?>
<!-- Generated by IcoMoon.io -->
<!DOCTYPE svg PUBLIC "-//W3C//DTD SVG 1.1//EN" "http://www.w3.org/Graphics/SVG/1.1/DTD/svg11.dtd">
<svg version="1.1" xmlns="http://www.w3.org/2000/svg" xmlns:xlink="http://www.w3.org/1999/xlink" width="16" height="16" viewBox="0 0 16 16">
<path d="M4.5 1.784c0.49 0 1.377 0.235 2.814 1.65l0.713 0.702 0.702-0.713c0.998-1.014 2.060-1.644 2.771-1.644 0.96 0 1.716 0.328 2.453 1.064 0.695 0.693 1.078 1.615 1.078 2.595s-0.382 1.904-1.085 2.604c-0.057 0.058-3.078 3.317-5.609 6.048-0.119 0.113-0.255 0.13-0.328 0.13s-0.206-0.016-0.325-0.127c-0.617-0.686-5.087-5.656-5.606-6.176-0.696-0.694-1.079-1.617-1.079-2.597s0.383-1.902 1.079-2.596c0.676-0.676 1.468-0.942 2.421-0.942M4.5 0.784c-1.196 0-2.25 0.358-3.128 1.235-1.829 1.825-1.829 4.783 0 6.609 0.522 0.523 5.591 6.162 5.591 6.162 0.289 0.289 0.668 0.432 1.046 0.432s0.756-0.143 1.046-0.432c0 0 5.545-5.985 5.604-6.044 1.829-1.826 1.829-4.785 0-6.609-0.908-0.906-1.922-1.356-3.159-1.356-1.182 0-2.5 0.943-3.485 1.943-1.016-1-2.293-1.937-3.515-1.937v0z"></path>
</svg>
