<?xml version="1.0" encoding="utf-8"?>
<!-- Generated by IcoMoon.io -->
<!DOCTYPE svg PUBLIC "-//W3C//DTD SVG 1.1//EN" "http://www.w3.org/Graphics/SVG/1.1/DTD/svg11.dtd">
<svg version="1.1" xmlns="http://www.w3.org/2000/svg" xmlns:xlink="http://www.w3.org/1999/xlink" width="16" height="16" viewBox="0 0 16 16">
<path d="M15.886 8.021l-7.506-7.862c-0.094-0.099-0.225-0.154-0.361-0.154s-0.266 0.056-0.361 0.154l-7.545 7.862c-0.191 0.199-0.184 0.515 0.015 0.707s0.515 0.185 0.707-0.015l0.672-0.7v7.482c0 0.276 0.224 0.5 0.5 0.5h3.493c0.276 0 0.499-0.223 0.5-0.498l0.016-4.995h3.984v4.993c0 0.276 0.224 0.5 0.5 0.5h3.492c0.276 0 0.5-0.224 0.5-0.5v-7.484l0.672 0.704c0.098 0.102 0.229 0.154 0.361 0.154 0.124 0 0.249-0.046 0.346-0.14 0.199-0.191 0.206-0.508 0.014-0.707zM13.493 7.106v7.888h-2.492v-4.993c0-0.276-0.224-0.5-0.5-0.5h-4.982c-0.276 0-0.499 0.223-0.5 0.498l-0.016 4.995h-2.495v-7.888c0-0.041-0.006-0.081-0.016-0.119l5.527-5.76 5.491 5.753c-0.011 0.040-0.018 0.082-0.018 0.126z"></path>
</svg>
