<?xml version="1.0" encoding="utf-8"?>
<!-- Generated by IcoMoon.io -->
<!DOCTYPE svg PUBLIC "-//W3C//DTD SVG 1.1//EN" "http://www.w3.org/Graphics/SVG/1.1/DTD/svg11.dtd">
<svg version="1.1" xmlns="http://www.w3.org/2000/svg" xmlns:xlink="http://www.w3.org/1999/xlink" width="16" height="16" viewBox="0 0 16 16">
<path d="M13.017 1.010h-1.007v3.366c0 1.631-0.885 2.865-2.783 3.831 1.97 0.997 2.799 2.221 2.799 4.048 0 1.19-0.005 2.188-0.009 2.736h1.001c0.276 0 0.5 0.223 0.5 0.499s-0.224 0.5-0.5 0.5h-10.033c-0.276 0-0.5-0.224-0.5-0.5s0.224-0.499 0.5-0.499h1.030c-0.004-0.549-0.009-1.547-0.009-2.736 0-1.827 0.817-3.051 2.784-4.048-1.894-0.966-2.768-2.2-2.768-3.831v-3.366h-1.037c-0.276 0-0.5-0.224-0.5-0.5s0.224-0.5 0.5-0.5h10.033c0.276 0 0.5 0.224 0.5 0.5s-0.224 0.5-0.5 0.5zM5.004 12.255c0 1.192 0.005 2.191 0.009 2.736h6.003c0.004-0.546 0.009-1.544 0.009-2.736 0-1.391-0.518-2.469-3.018-3.506-2.5 1.037-3.003 2.115-3.003 3.506zM11.010 1.010h-5.99v3.366c0 0.959 0.322 2.194 2.987 3.29 2.665-1.095 3.003-2.33 3.003-3.29v-3.366z"></path>
</svg>
