<?xml version="1.0" encoding="utf-8"?>
<!-- Generated by IcoMoon.io -->
<!DOCTYPE svg PUBLIC "-//W3C//DTD SVG 1.1//EN" "http://www.w3.org/Graphics/SVG/1.1/DTD/svg11.dtd">
<svg version="1.1" xmlns="http://www.w3.org/2000/svg" xmlns:xlink="http://www.w3.org/1999/xlink" width="16" height="16" viewBox="0 0 16 16">
<path d="M10.245 0c-2.485 0-4.5 2.018-4.5 4.507 0 1.116 0.407 2.135 1.077 2.922-0.138-0.008-0.279 0.038-0.384 0.144l-5.037 5.068c-0.195 0.195-0.195 0.512 0 0.707 0.004 0.004 0.008 0.006 0.012 0.010 0.001 0.001 0.002 0.003 0.003 0.004l2.452 2.498c0.195 0.195 0.512 0.195 0.707 0s0.195-0.512 0-0.707l-2.117-2.157 1.289-1.297 2.121 2.161c0.195 0.195 0.512 0.195 0.707 0s0.195-0.512 0-0.707l-2.123-2.163 2.694-2.71c0.104-0.104 0.151-0.243 0.144-0.379 0.791 0.692 1.823 1.114 2.956 1.114 2.485 0 4.5-2.018 4.5-4.508s-2.015-4.507-4.5-4.507zM10.245 8c-1.926 0-3.5-1.567-3.5-3.5s1.574-3.5 3.5-3.5 3.5 1.567 3.5 3.5c0 1.933-1.574 3.5-3.5 3.5z"></path>
</svg>
