<?xml version="1.0" encoding="utf-8"?>
<!-- Generated by IcoMoon.io -->
<!DOCTYPE svg PUBLIC "-//W3C//DTD SVG 1.1//EN" "http://www.w3.org/Graphics/SVG/1.1/DTD/svg11.dtd">
<svg version="1.1" xmlns="http://www.w3.org/2000/svg" xmlns:xlink="http://www.w3.org/1999/xlink" width="16" height="16" viewBox="0 0 16 16">
<path d="M0.341 4.716l7.423 4.043c0.075 0.040 0.157 0.061 0.239 0.061s0.163-0.020 0.237-0.060l7.502-4.043c0.164-0.088 0.265-0.26 0.263-0.446s-0.108-0.356-0.274-0.44l-7.424-3.77c-0.142-0.072-0.309-0.072-0.451-0.001l-7.501 3.77c-0.166 0.083-0.273 0.253-0.276 0.439s0.098 0.359 0.261 0.447zM8.081 1.067l6.346 3.223-6.421 3.461-6.346-3.456 6.422-3.228zM15.646 7.505l-1.484-0.753-1.071 0.578 1.25 0.635-6.421 3.46-6.347-3.456 1.333-0.67-1.068-0.582-1.567 0.787c-0.166 0.083-0.273 0.253-0.276 0.439s0.098 0.358 0.261 0.447l7.423 4.043c0.075 0.040 0.157 0.061 0.239 0.061 0.082 0 0.163-0.020 0.237-0.060l7.502-4.043c0.164-0.088 0.265-0.26 0.263-0.446s-0.108-0.356-0.273-0.44zM15.646 11.005l-1.406-0.691-1.071 0.578 1.172 0.572-6.421 3.46-6.347-3.456 1.239-0.56-1.068-0.582-1.474 0.678c-0.166 0.084-0.273 0.252-0.276 0.438s0.098 0.358 0.261 0.447l7.423 4.043c0.075 0.040 0.157 0.061 0.239 0.061s0.163-0.020 0.237-0.060l7.502-4.043c0.164-0.088 0.265-0.26 0.263-0.446s-0.108-0.356-0.273-0.44z"></path>
</svg>
