<?xml version="1.0" encoding="utf-8"?>
<!-- Generated by IcoMoon.io -->
<!DOCTYPE svg PUBLIC "-//W3C//DTD SVG 1.1//EN" "http://www.w3.org/Graphics/SVG/1.1/DTD/svg11.dtd">
<svg version="1.1" xmlns="http://www.w3.org/2000/svg" xmlns:xlink="http://www.w3.org/1999/xlink" width="16" height="16" viewBox="0 0 16 16">
<path d="M9.508 15.996c-4.544 0-4.579-0.188-5.142-0.612-0.298-0.225-0.862-0.38-2.919-0.514-0.149-0.010-0.291-0.067-0.387-0.182-0.044-0.053-1.072-1.553-1.072-3.954 0-2.366 0.736-3.445 0.767-3.495 0.091-0.146 0.252-0.235 0.424-0.235 1.689 0 4.031-2.156 5.605-5.92 0.272-0.651 0.329-1.079 1.329-1.079 0.569 0 1.206 0.407 1.521 0.93 0.646 1.067 0.318 3.36 0.014 4.585 1.031-0.008 2.898-0.022 3.786-0.022 1.236 0 2.053 0.737 2.078 1.814 0.008 0.356-0.039 0.81-0.141 1.045 0.272 0.271 0.623 0.68 0.638 1.207 0.019 0.68-0.426 1.198-0.71 1.495 0.065 0.198 0.196 0.46 0.183 0.774-0.031 0.771-0.627 1.268-0.997 1.527 0.031 0.211 0.055 0.609-0.013 0.917-0.268 1.228-2.069 1.722-4.964 1.722zM1.713 13.856c1.792 0.148 2.75 0.349 3.255 0.729 0.391 0.294 0.331 0.411 4.54 0.411 1.284 0 3.795-0.053 3.988-0.935 0.076-0.352-0.295-0.699-0.296-0.702-0.101-0.251 0.011-0.544 0.259-0.653 0.004-0.002 1.002-0.36 1.025-0.918 0.015-0.357-0.23-0.571-0.236-0.58-0.146-0.226-0.092-0.536 0.129-0.69 0.002-0.002 0.649-0.394 0.633-0.928-0.012-0.425-0.572-0.723-0.588-0.733-0.125-0.072-0.216-0.195-0.245-0.337s0.004-0.29 0.091-0.404c0 0 0.254-0.404 0.245-0.783-0.018-0.811-0.891-0.837-1.078-0.837-1.261 0-4.5 0.013-4.5 0.013-0.175 0.001-0.326-0.082-0.42-0.221s-0.101-0.313-0.046-0.472c0.489-1.407 0.761-3.614 0.308-4.368-0.133-0.222-0.164-0.444-0.664-0.444-0.069 0-0.234 0.055-0.406 0.465-1.671 3.997-4.166 6.31-6.21 6.518-0.176 0.402-0.508 1.235-0.508 2.747 0 1.543 0.489 2.736 0.723 3.123z"></path>
</svg>
