<?xml version="1.0" encoding="utf-8"?>
<!-- Generated by IcoMoon.io -->
<!DOCTYPE svg PUBLIC "-//W3C//DTD SVG 1.1//EN" "http://www.w3.org/Graphics/SVG/1.1/DTD/svg11.dtd">
<svg version="1.1" xmlns="http://www.w3.org/2000/svg" xmlns:xlink="http://www.w3.org/1999/xlink" width="16" height="16" viewBox="0 0 16 16">
<path d="M4.62 11.444c0.098 0.098 0.226 0.146 0.354 0.146s0.256-0.049 0.354-0.146l6.057-6.104c0.195-0.195 0.195-0.512 0-0.707s-0.512-0.195-0.707 0l-6.057 6.105c-0.196 0.195-0.196 0.512 0 0.707zM7.436 10.38c0.165 0.729-0.013 1.444-0.576 2.007l-2.019 1.957c-0.425 0.425-0.99 0.659-1.591 0.659s-1.166-0.234-1.591-0.659c-0.877-0.877-0.877-2.305-0.005-3.177l1.973-2.035c0.425-0.425 0.99-0.659 1.591-0.659 0.205 0 0.404 0.037 0.596 0.090l0.78-0.78c-0.436-0.204-0.905-0.309-1.377-0.309-0.832 0-1.663 0.317-2.298 0.952l-1.968 2.030c-1.269 1.269-1.269 3.327 0 4.596 0.635 0.635 1.466 0.952 2.298 0.952s1.663-0.317 2.298-0.952l2.015-1.952c0.971-0.971 1.181-2.324 0.666-3.511l-0.793 0.793zM15.049 0.95c-0.635-0.634-1.466-0.952-2.298-0.952s-1.664 0.318-2.298 0.952l-2.014 1.952c-1.006 1.006-1.212 2.507-0.622 3.719l0.776-0.776c-0.23-0.767-0.053-1.63 0.548-2.232l2.020-1.957c0.425-0.425 0.99-0.659 1.591-0.659s1.166 0.234 1.591 0.659c0.877 0.877 0.877 2.305 0.005 3.177l-2.020 2.019c-0.425 0.425-0.99 0.659-1.591 0.659-0.153 0-0.288 0.016-0.435-0.014l-0.796 0.797c0.398 0.165 0.807 0.218 1.232 0.218 0.832 0 1.663-0.317 2.298-0.952l2.015-2.015c1.269-1.269 1.269-3.326-0-4.596z"></path>
</svg>
