<?xml version="1.0" encoding="utf-8"?>
<!-- Generated by IcoMoon.io -->
<!DOCTYPE svg PUBLIC "-//W3C//DTD SVG 1.1//EN" "http://www.w3.org/Graphics/SVG/1.1/DTD/svg11.dtd">
<svg version="1.1" xmlns="http://www.w3.org/2000/svg" xmlns:xlink="http://www.w3.org/1999/xlink" width="16" height="16" viewBox="0 0 16 16">
<path d="M1.5 7h-1c-0.276 0-0.5 0.224-0.5 0.5v1c0 0.276 0.224 0.5 0.5 0.5h1c0.276 0 0.5-0.224 0.5-0.5v-1c0-0.276-0.224-0.5-0.5-0.5zM15.5 7.5h-10.5c-0.276 0-0.5 0.224-0.5 0.5s0.224 0.5 0.5 0.5h10.5c0.276 0 0.5-0.224 0.5-0.5s-0.224-0.5-0.5-0.5zM1.5 11h-1c-0.276 0-0.5 0.224-0.5 0.5v1c0 0.276 0.224 0.5 0.5 0.5h1c0.276 0 0.5-0.224 0.5-0.5v-1c0-0.276-0.224-0.5-0.5-0.5zM15.5 11.5h-10.5c-0.276 0-0.5 0.224-0.5 0.5s0.224 0.5 0.5 0.5h10.5c0.276 0 0.5-0.224 0.5-0.5s-0.224-0.5-0.5-0.5zM1.5 3h-1c-0.276 0-0.5 0.224-0.5 0.5v1c0 0.276 0.224 0.5 0.5 0.5h1c0.276 0 0.5-0.224 0.5-0.5v-1c0-0.276-0.224-0.5-0.5-0.5zM5 4.5h10.5c0.276 0 0.5-0.224 0.5-0.5s-0.224-0.5-0.5-0.5h-10.5c-0.276 0-0.5 0.224-0.5 0.5s0.224 0.5 0.5 0.5z"></path>
</svg>
