<?xml version="1.0" encoding="utf-8"?>
<!-- Generated by IcoMoon.io -->
<!DOCTYPE svg PUBLIC "-//W3C//DTD SVG 1.1//EN" "http://www.w3.org/Graphics/SVG/1.1/DTD/svg11.dtd">
<svg version="1.1" xmlns="http://www.w3.org/2000/svg" xmlns:xlink="http://www.w3.org/1999/xlink" width="16" height="16" viewBox="0 0 16 16">
<path d="M12.5 6h-0.5v-1.908c0-2.295-1.66-4.092-4.019-4.092-2.368 0-3.982 1.835-3.982 4.092v1.908h-0.5c-1.103 0-2 0.897-2 2v6c0 1.103 0.897 2 2 2h9c1.103 0 2-0.897 2-2v-6c0-1.103-0.897-2-2-2zM5 4.092c0-1.704 1.165-3.092 2.982-3.092 1.798 0 3.018 1.358 3.018 3.092v1.908h-6v-1.908zM13.5 14c0 0.551-0.449 1-1 1h-9c-0.551 0-1-0.449-1-1v-6c0-0.551 0.449-1 1-1h9c0.551 0 1 0.449 1 1v6zM8 9c-0.552 0-1 0.448-1 1 0 0.369 0.202 0.688 0.5 0.861v1.639c0 0.276 0.224 0.5 0.5 0.5s0.5-0.224 0.5-0.5v-1.639c0.297-0.173 0.5-0.492 0.5-0.861 0-0.552-0.448-1-1-1z"></path>
</svg>
