<?xml version="1.0" encoding="utf-8"?>
<!-- Generated by IcoMoon.io -->
<!DOCTYPE svg PUBLIC "-//W3C//DTD SVG 1.1//EN" "http://www.w3.org/Graphics/SVG/1.1/DTD/svg11.dtd">
<svg version="1.1" xmlns="http://www.w3.org/2000/svg" xmlns:xlink="http://www.w3.org/1999/xlink" width="16" height="16" viewBox="0 0 16 16">
<path d="M12.5 6.017h-7.14l-0.259-1.16c-0.441-1.647 0.325-3.288 2.079-3.758 1.736-0.465 3.267 0.53 3.716 2.205l0.213 0.843c0.072 0.267 0.345 0.425 0.613 0.354s0.425-0.346 0.354-0.612l-0.213-0.843c-0.594-2.216-2.662-3.522-4.941-2.912-2.287 0.613-3.37 2.804-2.787 4.983l0.201 0.902h-0.837c-1.103 0-2 0.897-2 2v6c0 1.103 0.897 2 2 2h9c1.103 0 2-0.897 2-2v-6c0-1.103-0.897-2-2-2zM13.5 14.017c0 0.551-0.449 1-1 1h-9c-0.551 0-1-0.449-1-1v-6c0-0.551 0.449-1 1-1h9c0.551 0 1 0.449 1 1v6zM8 9.017c-0.552 0-1 0.448-1 1 0 0.369 0.202 0.688 0.5 0.861v1.639c0 0.276 0.224 0.5 0.5 0.5s0.5-0.224 0.5-0.5v-1.639c0.297-0.173 0.5-0.492 0.5-0.861 0-0.552-0.448-1-1-1z"></path>
</svg>
