<?xml version="1.0" encoding="utf-8"?>
<!-- Generated by IcoMoon.io -->
<!DOCTYPE svg PUBLIC "-//W3C//DTD SVG 1.1//EN" "http://www.w3.org/Graphics/SVG/1.1/DTD/svg11.dtd">
<svg version="1.1" xmlns="http://www.w3.org/2000/svg" xmlns:xlink="http://www.w3.org/1999/xlink" width="16" height="16" viewBox="0 0 16 16">
<path d="M1.825 8.495h8.663c0.277 0 0.5-0.224 0.5-0.5s-0.223-0.5-0.5-0.5h-8.632l1.809-1.809c0.195-0.195 0.195-0.512 0-0.707s-0.512-0.195-0.707 0l-2.953 3.031 2.953 3.031c0.098 0.098 0.225 0.146 0.353 0.146s0.256-0.049 0.353-0.146c0.195-0.195 0.195-0.512 0-0.707l-1.84-1.84zM14.995 0h-8.5c-0.553 0-1 0.448-1 1v4.5h1.006v-3.89c0-0.334 0.271-0.605 0.605-0.605h7.261c0.334 0 0.605 0.271 0.605 0.605l0.016 12.786c0 0.334-0.271 0.605-0.605 0.605h-7.277c-0.334 0-0.605-0.271-0.605-0.605v-3.912l-1.006 0.001v4.515c0 0.552 0.447 1 1 1h8.5c0.553 0 1-0.448 1-1v-14c-0-0.552-0.448-1-1-1z"></path>
</svg>
