<?xml version="1.0" encoding="utf-8"?>
<!-- Generated by IcoMoon.io -->
<!DOCTYPE svg PUBLIC "-//W3C//DTD SVG 1.1//EN" "http://www.w3.org/Graphics/SVG/1.1/DTD/svg11.dtd">
<svg version="1.1" xmlns="http://www.w3.org/2000/svg" xmlns:xlink="http://www.w3.org/1999/xlink" width="16" height="16" viewBox="0 0 16 16">
<path d="M15 1.591h-14c-0.552 0-1 0.448-1 1v9c0 0.553 0.448 1 1 1h2.5c0.32 0 0.5-0.411 0.5-0.5v-0c0-0.091-0.17-0.507-0.5-0.507h-1.89c-0.334 0-0.605-0.271-0.605-0.605v-7.761c0-0.334 0.271-0.605 0.605-0.605l12.786-0.016c0.334 0 0.605 0.271 0.605 0.605v7.777c0 0.334-0.271 0.605-0.605 0.605h-6.3l1.187-1.077c0.146-0.14 0.193-0.366 0.047-0.505l-0.085-0.126c-0.146-0.14-0.383-0.14-0.529 0l-2.027 1.851c-0.003 0.002-0.006 0.004-0.008 0.006l-0.133 0.127c-0.073 0.069-0.109 0.162-0.109 0.254s0.036 0.184 0.109 0.255l0.133 0.127c0.003 0.002 0.006 0.003 0.008 0.005l1.996 1.805c0.146 0.14 0.382 0.14 0.529 0l0.085-0.126c0.146-0.14 0.099-0.366-0.047-0.506l-1.205-1.081h6.953c0.552 0 1-0.447 1-1v-9c0-0.552-0.448-1-1-1z"></path>
</svg>
