<?xml version="1.0" encoding="utf-8"?>
<!-- Generated by IcoMoon.io -->
<!DOCTYPE svg PUBLIC "-//W3C//DTD SVG 1.1//EN" "http://www.w3.org/Graphics/SVG/1.1/DTD/svg11.dtd">
<svg version="1.1" xmlns="http://www.w3.org/2000/svg" xmlns:xlink="http://www.w3.org/1999/xlink" width="16" height="16" viewBox="0 0 16 16">
<path d="M15.945 6.709l-1.606-2.401 0.799-2.794c0.050-0.175 0.001-0.364-0.129-0.492s-0.316-0.177-0.493-0.125l-2.789 0.815-2.411-1.623c-0.152-0.102-0.346-0.114-0.507-0.030-0.162 0.083-0.266 0.248-0.272 0.43l-0.086 2.905-2.289 1.791c-0.144 0.112-0.214 0.294-0.186 0.474s0.153 0.33 0.325 0.391l2.148 0.77c-0.014 0.011-0.030 0.022-0.043 0.035l-8.293 8.293c-0.195 0.195-0.195 0.512 0 0.707 0.098 0.098 0.226 0.146 0.353 0.146s0.256-0.049 0.353-0.146l8.293-8.293c0.032-0.032 0.057-0.069 0.079-0.106l0.841 2.305c0.063 0.171 0.213 0.294 0.393 0.323 0.025 0.004 0.051 0.006 0.077 0.006 0.153 0 0.3-0.071 0.396-0.194l1.778-2.3 2.873-0.103c0.182-0.006 0.346-0.111 0.429-0.274s0.069-0.357-0.033-0.508zM12.407 6.602c-0.149 0.005-0.287 0.076-0.378 0.194l-1.367 1.767-0.765-2.099c-0.051-0.14-0.161-0.249-0.301-0.299l-2.103-0.754 1.76-1.376c0.117-0.092 0.187-0.231 0.192-0.379l0.066-2.233 1.853 1.248c0.123 0.083 0.278 0.107 0.419 0.066l2.145-0.627-0.615 2.148c-0.040 0.143-0.016 0.296 0.068 0.42l1.259 1.846-2.233 0.079z"></path>
</svg>
