<?xml version="1.0" encoding="utf-8"?>
<!-- Generated by IcoMoon.io -->
<!DOCTYPE svg PUBLIC "-//W3C//DTD SVG 1.1//EN" "http://www.w3.org/Graphics/SVG/1.1/DTD/svg11.dtd">
<svg version="1.1" xmlns="http://www.w3.org/2000/svg" xmlns:xlink="http://www.w3.org/1999/xlink" width="16" height="16" viewBox="0 0 16 16">
<path d="M15.854 15.141l-4.858-4.888c0.905-1.085 1.451-2.48 1.451-4.003 0-3.452-2.798-6.25-6.25-6.25s-6.25 2.798-6.25 6.25c0 3.452 2.798 6.25 6.25 6.25 1.568 0 3.001-0.579 4.098-1.534l4.851 4.882c0.195 0.195 0.512 0.195 0.707 0s0.195-0.512 0-0.707zM6.197 11.508c-2.904 0-5.258-2.354-5.258-5.258s2.354-5.258 5.258-5.258 5.258 2.354 5.258 5.258-2.354 5.258-5.258 5.258z"></path>
</svg>
