<?xml version="1.0" encoding="utf-8"?>
<!-- Generated by IcoMoon.io -->
<!DOCTYPE svg PUBLIC "-//W3C//DTD SVG 1.1//EN" "http://www.w3.org/Graphics/SVG/1.1/DTD/svg11.dtd">
<svg version="1.1" xmlns="http://www.w3.org/2000/svg" xmlns:xlink="http://www.w3.org/1999/xlink" width="16" height="16" viewBox="0 0 16 16">
<path d="M15.005 0.94v-0.453c0-0.276-0.224-0.5-0.5-0.5h-3.51c-0.276 0-0.5 0.224-0.5 0.5v2.042c0 0.001 0.001 0.002 0.001 0.002v6.211c0 1.505-0.849 2.729-2.354 2.729s-2.635-1.224-2.635-2.729v-7.802h-0.002v-0.453c0-0.276-0.224-0.5-0.5-0.5h-3.51c-0.276 0-0.5 0.224-0.5 0.5v2.042c0 0.010 0.005 0.019 0.006 0.029v6.414c0 3.889 3.106 7.041 6.995 7.041s7.010-3.152 7.010-7.041v-8.031h-0.001zM14.005 0.987v2.005h-2.504v-2.005h2.504zM4.505 0.987v2.005h-2.504v-2.005h2.504zM7.995 15.013c-3.332 0-5.995-2.71-5.995-6.042v-4.979h2.505v4.75c0 2.059 1.576 3.729 3.635 3.729s3.354-1.669 3.354-3.729v-4.75h2.51v4.979c0 3.331-2.678 6.041-6.010 6.041z"></path>
</svg>
