<?xml version="1.0" encoding="utf-8"?>
<!-- Generated by IcoMoon.io -->
<!DOCTYPE svg PUBLIC "-//W3C//DTD SVG 1.1//EN" "http://www.w3.org/Graphics/SVG/1.1/DTD/svg11.dtd">
<svg version="1.1" xmlns="http://www.w3.org/2000/svg" xmlns:xlink="http://www.w3.org/1999/xlink" width="16" height="16" viewBox="0 0 16 16">
<path d="M15.854 15.141l-4.422-4.45c0.947-1.131 1.517-2.59 1.517-4.183 0-3.595-2.899-6.509-6.493-6.509s-6.508 2.914-6.508 6.508c0 3.594 2.914 6.509 6.508 6.509 1.641 0 3.136-0.609 4.277-1.611l4.415 4.442c0.195 0.195 0.512 0.195 0.707 0s0.196-0.512 0-0.707zM6.447 12c-3.024 0-5.5-2.476-5.5-5.5s2.476-5.5 5.5-5.5 5.5 2.476 5.5 5.5-2.476 5.5-5.5 5.5zM8.947 6h-5c-0.276 0-0.5 0.224-0.5 0.5s0.224 0.5 0.5 0.5h5c0.276 0 0.5-0.224 0.5-0.5s-0.224-0.5-0.5-0.5z"></path>
</svg>
