<?xml version="1.0" encoding="utf-8"?>
<!-- Generated by IcoMoon.io -->
<!DOCTYPE svg PUBLIC "-//W3C//DTD SVG 1.1//EN" "http://www.w3.org/Graphics/SVG/1.1/DTD/svg11.dtd">
<svg version="1.1" xmlns="http://www.w3.org/2000/svg" xmlns:xlink="http://www.w3.org/1999/xlink" width="16" height="16" viewBox="0 0 16 16">
<path d="M15.518 2.11l-5.015-2.079-4.991 1.975-5.031-1.974c-0.043-0.013-0.085-0.018-0.124-0.018-0.205-0.001-0.357 0.152-0.357 0.383v12.969c0 0.274 0.217 0.56 0.481 0.634l5.037 1.987 4.984-2.024 5.016 1.971c0.043 0.012 0.085 0.018 0.124 0.018 0.205 0 0.357-0.152 0.357-0.383v-12.824c0-0.275-0.217-0.561-0.482-0.635zM6 2.83l4-1.567v11.899l-4 1.581v-11.912zM1 1.355l4 1.478v11.902l-4-1.629v-11.751zM15 14.656l-4-1.506v-11.872l4 1.725v11.653z"></path>
</svg>
