<?xml version="1.0" encoding="utf-8"?>
<!-- Generated by IcoMoon.io -->
<!DOCTYPE svg PUBLIC "-//W3C//DTD SVG 1.1//EN" "http://www.w3.org/Graphics/SVG/1.1/DTD/svg11.dtd">
<svg version="1.1" xmlns="http://www.w3.org/2000/svg" xmlns:xlink="http://www.w3.org/1999/xlink" width="16" height="16" viewBox="0 0 16 16">
<path d="M7.982 11h0.119c1.39 0 2.399-1.025 2.399-2.437v-5.96c0-1.46-1.054-2.603-2.399-2.603h-0.119c-1.369 0-2.482 1.168-2.482 2.603v5.96c0 1.389 1.067 2.437 2.482 2.437zM6.5 2.603c0-0.884 0.665-1.603 1.482-1.603h0.119c0.797 0 1.399 0.69 1.399 1.603v5.96c0 0.859-0.562 1.437-1.399 1.437h-0.119c-0.873 0-1.482-0.591-1.482-1.437v-5.96zM12.5 5.5c-0.276 0-0.5 0.224-0.5 0.5v2.079c0 2.975-1.062 4.421-3.246 4.421h-1.486c-2.856 0-3.268-2.404-3.268-4.421v-2.079c0-0.276-0.224-0.5-0.5-0.5s-0.5 0.224-0.5 0.5v2.079c0 3.445 1.436 5.421 4.268 5.421h0.232v1.5h-2.5c-0.276 0-0.5 0.224-0.5 0.5s0.224 0.5 0.5 0.5h6c0.276 0 0.5-0.224 0.5-0.5s-0.224-0.5-0.5-0.5h-2.5v-1.5h0.254c1.937 0 4.246-0.941 4.246-5.421v-2.079c0-0.276-0.224-0.5-0.5-0.5z"></path>
</svg>
