<?xml version="1.0" encoding="utf-8"?>
<!-- Generated by IcoMoon.io -->
<!DOCTYPE svg PUBLIC "-//W3C//DTD SVG 1.1//EN" "http://www.w3.org/Graphics/SVG/1.1/DTD/svg11.dtd">
<svg version="1.1" xmlns="http://www.w3.org/2000/svg" xmlns:xlink="http://www.w3.org/1999/xlink" width="16" height="16" viewBox="0 0 16 16">
<path d="M12.388 11.511c-1.584 0-2.482-0.744-3.077-1.237-0.21-0.174-0.402-0.342-0.576-0.495-0.264-0.232-0.594-0.521-0.709-0.561-0.004 0-0.058-0.002-0.061-0.003-0.018 0.002-0.065 0.011-0.069 0.011-0.079 0.032-0.361 0.274-0.587 0.469-0.205 0.176-0.439 0.377-0.704 0.584l-0.048 0.037c-0.679 0.53-1.525 1.19-3.018 1.19-1.109 0-2.202-0.502-2.853-1.31-0.436-0.542-0.895-1.485-0.604-2.898 0.035-0.171 0.157-0.311 0.319-0.369 0.164-0.059 0.344-0.027 0.478 0.084 0.010 0.007 0.353 0.271 0.923 0.271 0.287 0 0.586-0.068 0.888-0.202 0.518-0.231 0.886-0.877 1.277-1.314 0.534-0.596 1.138-1.272 2.136-1.28 0.688 0 1.309 0.255 1.863 0.758 0.552-0.501 1.168-0.754 1.839-0.754 1.017 0.008 1.634 0.684 2.179 1.281 0.398 0.436 0.773 1.082 1.291 1.312 0.302 0.134 0.604 0.202 0.898 0.202 0.592 0 0.961-0.271 0.976-0.282 0.137-0.101 0.318-0.128 0.476-0.066s0.276 0.201 0.308 0.37c0.267 1.397-0.203 2.335-0.643 2.874-0.668 0.819-1.78 1.328-2.9 1.328zM7.98 8.217c0.016 0 0.057 0.002 0.072 0.003 0.001 0 0.073 0.005 0.073 0.006 0.005 0.001 0.047 0.006 0.052 0.007 0.362 0.051 0.697 0.346 1.207 0.792 0.167 0.147 0.351 0.309 0.554 0.476 0.543 0.45 1.22 1.010 2.45 1.010 0.833 0 1.652-0.369 2.137-0.964 0.319-0.39 0.485-0.855 0.495-1.387-0.235 0.073-0.52 0.128-0.849 0.128-0.432 0-0.868-0.097-1.296-0.287-0.707-0.314-1.192-1.080-1.62-1.549-0.54-0.592-0.898-0.955-1.439-0.959-0.721 0-1.187 0.454-1.475 0.795-0.094 0.111-0.232 0.175-0.377 0.175v0c-0.145 0-0.282-0.064-0.376-0.176-0.29-0.343-0.756-0.799-1.466-0.799-0.548 0.004-0.897 0.364-1.422 0.951-0.423 0.472-0.901 1.242-1.613 1.558-0.428 0.19-0.861 0.287-1.286 0.287-0.319 0-0.595-0.053-0.822-0.126-0 0.543 0.158 1.014 0.474 1.407 0.468 0.581 1.266 0.941 2.085 0.941 1.156 0 1.795-0.499 2.413-0.982l0.048-0.038c0.251-0.196 0.473-0.387 0.667-0.554 0.446-0.383 0.74-0.636 1.057-0.692v0c0 0 0.152-0.025 0.256-0.025z"></path>
</svg>
