<?xml version="1.0" encoding="utf-8"?>
<!-- Generated by IcoMoon.io -->
<!DOCTYPE svg PUBLIC "-//W3C//DTD SVG 1.1//EN" "http://www.w3.org/Graphics/SVG/1.1/DTD/svg11.dtd">
<svg version="1.1" xmlns="http://www.w3.org/2000/svg" xmlns:xlink="http://www.w3.org/1999/xlink" width="16" height="16" viewBox="0 0 16 16">
<path d="M8.025 0c-2.471 0-4.524 2.003-4.524 4.474v7.052c0 2.471 2.053 4.474 4.524 4.474s4.474-2.003 4.474-4.474v-7.052c0-2.47-2.003-4.474-4.474-4.474zM11.499 11.526c0 1.915-1.559 3.474-3.474 3.474s-3.524-1.559-3.524-3.474v-7.052c0-1.915 1.608-3.474 3.524-3.474s3.474 1.558 3.474 3.474v7.052zM8.005 3c-0.276 0-0.5 0.224-0.5 0.5v2.5c0 0.276 0.224 0.5 0.5 0.5s0.5-0.224 0.5-0.5v-2.5c0-0.276-0.224-0.5-0.5-0.5z"></path>
</svg>
