<?xml version="1.0" encoding="utf-8"?>
<!-- Generated by IcoMoon.io -->
<!DOCTYPE svg PUBLIC "-//W3C//DTD SVG 1.1//EN" "http://www.w3.org/Graphics/SVG/1.1/DTD/svg11.dtd">
<svg version="1.1" xmlns="http://www.w3.org/2000/svg" xmlns:xlink="http://www.w3.org/1999/xlink" width="16" height="16" viewBox="0 0 16 16">
<path d="M15.496 11.022c0-0.009 0.002-0.017 0.002-0.025v-10.422c0.006-0.055 0.004-0.111-0.009-0.168-0.043-0.233-0.246-0.41-0.491-0.41-0.092 0-0.177 0.026-0.251 0.070l-9.342 2.432c-0.168 0.042-0.293 0.167-0.344 0.323-0.039 0.071-0.063 0.151-0.063 0.237v8.946c-0.476-0.319-1.085-0.51-1.748-0.51-1.524 0-2.76 1.010-2.76 2.254s1.236 2.255 2.76 2.255c1.524 0 2.76-1.009 2.76-2.255 0-0.063-0.005-0.126-0.011-0.188 0-0.001 0-0.001 0-0.002v-10.182l8.5-2.212v8.34c-0.476-0.319-1.085-0.51-1.748-0.51-1.524 0-2.76 1.010-2.76 2.254s1.236 2.255 2.76 2.255c1.524 0 2.76-1.010 2.76-2.255-0-0.077-0.005-0.152-0.014-0.227zM3.261 14.999c-1.040 0-1.765-0.659-1.765-1.25s0.725-1.249 1.765-1.249c0.926 0 1.6 0.522 1.737 1.053v0.006c0 0.050 0.010 0.098 0.024 0.144 0.001 0.015 0.003 0.031 0.003 0.046 0 0.591-0.725 1.25-1.764 1.25zM12.745 12.499c-1.031 0-1.749-0.659-1.749-1.25s0.719-1.249 1.749-1.249c1.030 0 1.749 0.658 1.749 1.249s-0.718 1.25-1.749 1.25z"></path>
</svg>
