<?xml version="1.0" encoding="utf-8"?>
<!-- Generated by IcoMoon.io -->
<!DOCTYPE svg PUBLIC "-//W3C//DTD SVG 1.1//EN" "http://www.w3.org/Graphics/SVG/1.1/DTD/svg11.dtd">
<svg version="1.1" xmlns="http://www.w3.org/2000/svg" xmlns:xlink="http://www.w3.org/1999/xlink" width="16" height="16" viewBox="0 0 16 16">
<path d="M13.322 5.051l-4.889-4.889c-0.155-0.155-0.386-0.185-0.572-0.094-0.196 0.068-0.338 0.252-0.338 0.471v11.069c-0.53-0.393-1.226-0.633-1.99-0.633-1.657 0-3.002 1.121-3.002 2.505s1.345 2.505 3.002 2.505c1.658 0 3.001-1.121 3.001-2.505 0-0.061-0.006-0.121-0.011-0.182v-11.63l4.092 4.091c0.195 0.195 0.512 0.195 0.707 0s0.195-0.512 0-0.707zM5.521 14.978c-1.182 0-2.006-0.79-2.006-1.498s0.824-1.497 2.006-1.497c1.157 0 1.969 0.756 2.002 1.453v0.089c-0.034 0.697-0.845 1.454-2.002 1.454z"></path>
</svg>
