<?xml version="1.0" encoding="utf-8"?>
<!-- Generated by IcoMoon.io -->
<!DOCTYPE svg PUBLIC "-//W3C//DTD SVG 1.1//EN" "http://www.w3.org/Graphics/SVG/1.1/DTD/svg11.dtd">
<svg version="1.1" xmlns="http://www.w3.org/2000/svg" xmlns:xlink="http://www.w3.org/1999/xlink" width="16" height="16" viewBox="0 0 16 16">
<path d="M13.268 0h-9.969c-0.719 0-1.032 0.531-1.032 1.031v1.989h-0.546c-0.27 0-0.49 0.219-0.49 0.49s0.219 0.49 0.49 0.49h0.546v2.012h-0.499c-0.27 0-0.49 0.219-0.49 0.49s0.219 0.49 0.49 0.49h0.499v2.022h-0.51c-0.27 0-0.49 0.219-0.49 0.49s0.219 0.49 0.49 0.49h0.51v2.007h-0.51c-0.27 0-0.49 0.219-0.49 0.49s0.219 0.49 0.49 0.49h0.51v2.020c0 0.829 0.649 1 1.008 1h9.992c0.829 0 1.5-0.671 1.5-1.5v-13c0-0.829-0.671-1.5-1.5-1.5zM3.268 15v-2.020h0.521c0.271 0 0.49-0.219 0.49-0.49s-0.219-0.49-0.49-0.49h-0.521v-2.007h0.521c0.271 0 0.49-0.219 0.49-0.49s-0.219-0.49-0.49-0.49h-0.521v-2.022h0.532c0.271 0 0.49-0.219 0.49-0.49s-0.219-0.49-0.49-0.49h-0.532v-2.012h0.485c0.271 0 0.49-0.219 0.49-0.49s-0.219-0.49-0.49-0.49h-0.485v-1.989c0-0.012 0.001-0.022 0.002-0.030 0.008-0 0.018-0.001 0.029-0.001h7.969v14h-8.001zM13.768 14.5c0 0.276-0.224 0.5-0.5 0.5h-1v-14h1c0.276 0 0.5 0.224 0.5 0.5v13z"></path>
</svg>
