<?xml version="1.0" encoding="utf-8"?>
<!-- Generated by IcoMoon.io -->
<!DOCTYPE svg PUBLIC "-//W3C//DTD SVG 1.1//EN" "http://www.w3.org/Graphics/SVG/1.1/DTD/svg11.dtd">
<svg version="1.1" xmlns="http://www.w3.org/2000/svg" xmlns:xlink="http://www.w3.org/1999/xlink" width="16" height="16" viewBox="0 0 16 16">
<path d="M12.49 15.005h-11.5v-12.5h7.025l1.011-0.974-0.026-0.026h-8.010c-0.552 0-1 0.448-1 1v12.5c0 0.552 0.448 1 1 1h11.5c0.552 0 1-0.448 1-1v-7.323l-1 0.955v6.368zM15.222 0.647c-0.451-0.432-0.949-0.652-1.48-0.652-0.832 0-1.438 0.537-1.603 0.702-0.234 0.231-6.862 6.849-6.862 6.849-0.052 0.053-0.090 0.118-0.109 0.19-0.179 0.663-1.079 3.609-1.088 3.639-0.046 0.151-0.005 0.316 0.106 0.425 0.080 0.080 0.186 0.123 0.295 0.123 0.043 0 0.086-0.006 0.129-0.020 0.030-0.010 3.070-0.993 3.571-1.143 0.066-0.020 0.126-0.055 0.175-0.104 0.316-0.312 6.408-6.309 6.901-6.819 0.51-0.526 0.763-1.073 0.754-1.627-0.009-0.547-0.275-1.073-0.787-1.565zM14.538 3.143c-0.278 0.287-2.457 2.44-6.476 6.399l-0.308 0.303c-0.461 0.143-1.564 0.497-2.398 0.766 0.269-0.887 0.591-1.958 0.734-2.465 0.859-0.857 6.537-6.527 6.753-6.74 0.042-0.042 0.425-0.41 0.898-0.41 0.268 0 0.526 0.122 0.788 0.374 0.313 0.301 0.475 0.59 0.479 0.86 0.005 0.278-0.154 0.585-0.472 0.913z"></path>
</svg>
