<?xml version="1.0" encoding="utf-8"?>
<!-- Generated by IcoMoon.io -->
<!DOCTYPE svg PUBLIC "-//W3C//DTD SVG 1.1//EN" "http://www.w3.org/Graphics/SVG/1.1/DTD/svg11.dtd">
<svg version="1.1" xmlns="http://www.w3.org/2000/svg" xmlns:xlink="http://www.w3.org/1999/xlink" width="16" height="16" viewBox="0 0 16 16">
<path d="M2.699 15.744c-0.678 0-1.329-0.281-1.849-0.8-1.151-1.155-1.151-3.032-0-4.186l8.973-9.528c1.4-1.402 3.544-1.276 5.11 0.291 0.701 0.703 1.095 1.715 1.080 2.78-0.015 1.053-0.426 2.061-1.13 2.766l-6.782 7.22c-0.189 0.202-0.505 0.211-0.707 0.022s-0.211-0.507-0.021-0.709l6.792-7.231c0.531-0.532 0.836-1.287 0.847-2.082s-0.276-1.545-0.787-2.057c-0.96-0.962-2.523-1.466-3.685-0.301l-8.973 9.528c-0.771 0.774-0.771 2.016-0.010 2.779 0.357 0.357 0.781 0.531 1.232 0.504 0.446-0.027 0.905-0.256 1.292-0.644l7.139-7.599c0.259-0.259 0.779-0.895 0.249-1.425-0.3-0.3-0.51-0.282-0.579-0.276-0.198 0.018-0.429 0.154-0.668 0.395l-5.374 5.715c-0.19 0.202-0.506 0.211-0.707 0.021s-0.211-0.507-0.021-0.708l5.383-5.726c0.423-0.425 0.856-0.656 1.296-0.695 0.344-0.030 0.855 0.043 1.377 0.566 0.774 0.776 0.678 1.913-0.239 2.832l-7.139 7.599c-0.57 0.572-1.258 0.904-1.949 0.947-0.051 0.004-0.102 0.005-0.152 0.005z"></path>
</svg>
