<?xml version="1.0" encoding="utf-8"?>
<!-- Generated by IcoMoon.io -->
<!DOCTYPE svg PUBLIC "-//W3C//DTD SVG 1.1//EN" "http://www.w3.org/Graphics/SVG/1.1/DTD/svg11.dtd">
<svg version="1.1" xmlns="http://www.w3.org/2000/svg" xmlns:xlink="http://www.w3.org/1999/xlink" width="16" height="16" viewBox="0 0 16 16">
<path d="M15.688 0c-0.095 0-0.211 0.027-0.345 0.084l-14.916 6.33c-0.537 0.228-0.571 0.667-0.076 0.976l4.215 2.625c0.495 0.309 1.151 0.97 1.456 1.47l2.527 4.137c0.145 0.237 0.32 0.355 0.489 0.355 0.186 0 0.364-0.143 0.485-0.425l6.379-14.902c0.173-0.404 0.074-0.648-0.213-0.648zM5.087 9.124l-3.417-2.128 11.463-4.863-7.378 7.503c-0.226-0.2-0.455-0.379-0.668-0.511zM8.949 14.301l-2.038-3.336c-0.12-0.197-0.279-0.407-0.456-0.616l7.412-7.537-4.918 11.489z"></path>
</svg>
