<?xml version="1.0" encoding="utf-8"?>
<!-- Generated by IcoMoon.io -->
<!DOCTYPE svg PUBLIC "-//W3C//DTD SVG 1.1//EN" "http://www.w3.org/Graphics/SVG/1.1/DTD/svg11.dtd">
<svg version="1.1" xmlns="http://www.w3.org/2000/svg" xmlns:xlink="http://www.w3.org/1999/xlink" width="16" height="16" viewBox="0 0 16 16">
<path d="M15.066 0.776c-0.545-0.522-1.146-0.786-1.787-0.786-1.003 0-1.735 0.648-1.935 0.847-0.282 0.279-9.893 9.894-9.893 9.894-0.063 0.063-0.109 0.142-0.132 0.228-0.217 0.801-1.302 4.355-1.313 4.391-0.056 0.182-0.006 0.38 0.128 0.514 0.097 0.096 0.225 0.147 0.357 0.147 0.052 0 0.104-0.008 0.155-0.024 0.037-0.012 3.705-1.198 4.309-1.378 0.080-0.024 0.152-0.067 0.212-0.126 0.381-0.377 9.346-9.242 9.941-9.856 0.616-0.634 0.921-1.295 0.91-1.963-0.012-0.659-0.332-1.294-0.95-1.888zM11.185 2.435c0.255 0.062 0.855 0.264 1.469 0.882 0.62 0.625 0.788 1.34 0.819 1.503-1.966 1.956-6.492 6.433-8.275 8.198-0.165-0.384-0.431-0.846-0.859-1.277-0.523-0.527-1.055-0.825-1.466-0.992 1.766-1.766 6.376-6.378 8.313-8.314zM2.193 11.593c0.275 0.073 0.845 0.285 1.427 0.871 0.448 0.452 0.659 0.95 0.754 1.254-0.695 0.223-2.217 0.749-3.184 1.060 0.286-0.943 0.77-2.411 1.002-3.185zM14.382 3.912c-0.021 0.021-0.054 0.055-0.095 0.096-0.158-0.407-0.435-0.93-0.915-1.414-0.491-0.494-0.988-0.786-1.387-0.959 0.034-0.034 0.060-0.060 0.070-0.070 0.057-0.056 0.576-0.553 1.224-0.553 0.373 0 0.738 0.17 1.088 0.505 0.414 0.397 0.628 0.789 0.635 1.166 0.007 0.384-0.202 0.797-0.62 1.229z"></path>
</svg>
