<?xml version="1.0" encoding="utf-8"?>
<!-- Generated by IcoMoon.io -->
<!DOCTYPE svg PUBLIC "-//W3C//DTD SVG 1.1//EN" "http://www.w3.org/Graphics/SVG/1.1/DTD/svg11.dtd">
<svg version="1.1" xmlns="http://www.w3.org/2000/svg" xmlns:xlink="http://www.w3.org/1999/xlink" width="16" height="16" viewBox="0 0 16 16">
<path d="M15 1.248h-14c-0.55 0-1 0.45-1 1v11.503c0 0.55 0.45 1 1 1h14c0.55 0 1-0.45 1-1v-11.503c0-0.55-0.45-1-1-1zM15 13.752h-14v-2.946l4.013-3.889 4.137 4.133c0.171 0.207 0.474 0.181 0.69 0.018l1.826-1.653 3.294 3.381c0.012 0.012 0.027 0.022 0.040 0.033v0.925zM15 11.403l-2.938-3.007c-0.178-0.176-0.457-0.194-0.655-0.043l-1.884 1.641-4.14-4.095c-0.088-0.107-0.216-0.172-0.354-0.181-0.138-0.005-0.274 0.040-0.375 0.135l-3.654 3.556v-7.161h14v9.155zM11.5 6.252c0.551 0 0.998-0.447 0.998-0.997s-0.446-0.997-0.998-0.997-0.998 0.447-0.998 0.997c0 0.55 0.446 0.998 0.998 0.998z"></path>
</svg>
