<?xml version="1.0" encoding="utf-8"?>
<!-- Generated by IcoMoon.io -->
<!DOCTYPE svg PUBLIC "-//W3C//DTD SVG 1.1//EN" "http://www.w3.org/Graphics/SVG/1.1/DTD/svg11.dtd">
<svg version="1.1" xmlns="http://www.w3.org/2000/svg" xmlns:xlink="http://www.w3.org/1999/xlink" width="16" height="16" viewBox="0 0 16 16">
<path d="M8.994 1.46c-0.276 0-0.5 0.224-0.5 0.5s0.224 0.5 0.5 0.5c3.538 0 6.006 2.585 6.006 6.123s-2.878 6.417-6.417 6.417c-3.538 0-6.124-2.556-6.124-6.095 0-0.276-0.224-0.5-0.5-0.5s-0.5 0.224-0.5 0.5c0 4.090 3.034 7.095 7.124 7.095s7.417-3.327 7.417-7.417c0-4.089-2.917-7.123-7.006-7.123zM7.504 7.004v-6.504c0-0.276-0.224-0.5-0.5-0.5-3.894 0-7.004 3.11-7.004 7.004 0 0.276 0.224 0.5 0.5 0.5h6.504c0.276 0 0.5-0.224 0.5-0.5zM6.504 6.504h-5.484c0.242-2.945 2.538-5.242 5.484-5.484v5.484z"></path>
</svg>
