<?xml version="1.0" encoding="utf-8"?>
<!-- Generated by IcoMoon.io -->
<!DOCTYPE svg PUBLIC "-//W3C//DTD SVG 1.1//EN" "http://www.w3.org/Graphics/SVG/1.1/DTD/svg11.dtd">
<svg version="1.1" xmlns="http://www.w3.org/2000/svg" xmlns:xlink="http://www.w3.org/1999/xlink" width="16" height="16" viewBox="0 0 16 16">
<path d="M15.857 5.932l-5.753-5.782c-0.124-0.124-0.303-0.175-0.474-0.133s-0.306 0.17-0.358 0.337c-0.346 1.114-0.386 2.123-0.122 3.042-0.024 0.017-0.047 0.035-0.069 0.057l-2.674 2.673c-0.862-0.4-1.79-0.617-2.714-0.617-0.587 0-1.163 0.087-1.712 0.257-0.167 0.052-0.295 0.188-0.337 0.357s0.007 0.349 0.131 0.473l3.421 3.444-4.784 4.86-0.416 1.096 1.006-0.389 4.896-4.86 3.466 3.489c0.095 0.096 0.223 0.148 0.354 0.148 0.040 0 0.079-0.005 0.119-0.014 0.171-0.042 0.306-0.17 0.358-0.338 0.453-1.457 0.32-3.021-0.318-4.424l2.73-2.73c0.010-0.010 0.017-0.021 0.025-0.031 0.412 0.118 0.839 0.181 1.282 0.181 0.55 0 1.134-0.079 1.734-0.266 0.167-0.052 0.295-0.188 0.337-0.357s-0.008-0.348-0.131-0.473zM9.424 12.877l-6.293-6.335c1.615-0.189 3.357 0.463 4.618 1.724 1.255 1.255 1.867 2.989 1.675 4.611zM9.379 8.696c-0.263-0.402-0.57-0.784-0.922-1.137-0.351-0.351-0.734-0.66-1.14-0.927l2.252-2.252c0.23 0.399 0.526 0.781 0.891 1.146 0.373 0.372 0.767 0.674 1.181 0.907l-2.262 2.262zM11.166 4.819c-0.962-0.962-1.332-2.033-1.136-3.326l4.483 4.506c-1.291 0.185-2.369-0.202-3.347-1.18z"></path>
</svg>
