<?xml version="1.0" encoding="utf-8"?>
<!-- Generated by IcoMoon.io -->
<!DOCTYPE svg PUBLIC "-//W3C//DTD SVG 1.1//EN" "http://www.w3.org/Graphics/SVG/1.1/DTD/svg11.dtd">
<svg version="1.1" xmlns="http://www.w3.org/2000/svg" xmlns:xlink="http://www.w3.org/1999/xlink" width="16" height="16" viewBox="0 0 16 16">
<path d="M14.599 1.030v0c0.163 0 0.278 0.030 0.338 0.053 0.072 0.191 0.168 0.875-0.54 1.584l-3.609 3.609 0.026 0.448c0.055 0.937 0.156 2.616 0.244 4.056 0.077 1.281 0.15 2.491 0.155 2.594 0.002 0.071 0.004 0.088-0.063 0.167-0.148 0.179-0.423 0.483-0.655 0.735-0.36-0.969-1.116-3.017-1.533-4.162l-0.537-1.474-1.11 1.11-2.041 1.962-0.284 0.284-0.009 0.401c-0.007 0.32-0.005 0.895-0.005 1.402 0.001 0.353 0.002 0.674-0 0.851-0.005 0.008 0.068 0.018 0.061 0.030-0.043-0.070-0.090-0.145-0.14-0.223-0.412-0.656-0.981-1.564-1.155-1.847l-0.127-0.207-0.208-0.126c-0.758-0.458-1.598-0.987-2.111-1.317 0.018-0.010 0.032 0.044 0.044 0.038h0.033c0.161 0 0.428 0.004 0.726 0.008 0.391 0.005 0.834 0.012 1.173 0.012 0.13 0 0.245-0.001 0.338-0.003l0.401-0.009 0.284-0.284 1.965-2.027 1.106-1.106-1.468-0.54c-1.103-0.406-3.216-1.195-4.204-1.566 0.254-0.234 0.559-0.511 0.737-0.658 0.050-0.041 0.088-0.062 0.115-0.062l0.035 0.001c0.11 0.005 1.48 0.095 2.803 0.181 1.405 0.092 2.991 0.195 3.893 0.253l0.451 0.028 3.61-3.61c0.507-0.506 1.005-0.582 1.257-0.582M14.599 0.030c-0.591 0-1.316 0.227-1.964 0.875l-3.291 3.29c-1.854-0.117-6.601-0.431-6.718-0.434-0.021-0.001-0.047-0.002-0.076-0.002-0.16 0-0.437 0.031-0.752 0.291-0.37 0.306-1.141 1.031-1.141 1.031-0.186 0.186-0.28 0.418-0.258 0.635 0.014 0.131 0.085 0.37 0.407 0.497 0.196 0.077 3.311 1.242 4.75 1.772l-1.965 2.027c-0.087 0.002-0.195 0.003-0.317 0.003-0.599 0-1.528-0.020-1.9-0.020-0.049 0-0.089 0-0.117 0.001-0.113 0.004-0.348-0.052-0.966 0.465l-0.044 0.041c-0.185 0.185-0.229 0.37-0.233 0.493-0.004 0.126 0.030 0.307 0.212 0.454 0.109 0.088 1.513 0.987 2.664 1.682 0.276 0.45 1.546 2.469 1.612 2.578 0.097 0.164 0.255 0.257 0.444 0.263 0.005 0 0.010 0 0.016 0 0.184 0 0.373-0.091 0.558-0.271 0.524-0.612 0.451-0.866 0.454-0.972 0.008-0.334-0.006-1.749 0.006-2.31l2.041-1.963c0.521 1.432 1.662 4.516 1.738 4.712 0.127 0.322 0.366 0.393 0.498 0.406 0.021 0.002 0.043 0.004 0.065 0.004 0.197 0 0.402-0.093 0.569-0.26 0 0 0.723-0.767 1.030-1.14s0.296-0.691 0.29-0.842c-0.002-0.104-0.292-4.825-0.399-6.669l3.291-3.292c1.166-1.167 0.981-2.573 0.548-3.006-0.191-0.192-0.579-0.338-1.052-0.338v0z"></path>
</svg>
