<?xml version="1.0" encoding="utf-8"?>
<!-- Generated by IcoMoon.io -->
<!DOCTYPE svg PUBLIC "-//W3C//DTD SVG 1.1//EN" "http://www.w3.org/Graphics/SVG/1.1/DTD/svg11.dtd">
<svg version="1.1" xmlns="http://www.w3.org/2000/svg" xmlns:xlink="http://www.w3.org/1999/xlink" width="16" height="16" viewBox="0 0 16 16">
<path d="M0.527 0.996h7c0.276 0 0.5-0.224 0.5-0.5s-0.224-0.5-0.5-0.5h-7c-0.276 0-0.5 0.224-0.5 0.5s0.224 0.5 0.5 0.5zM0.527 3.996h7c0.276 0 0.5-0.224 0.5-0.5s-0.224-0.5-0.5-0.5h-7c-0.276 0-0.5 0.224-0.5 0.5s0.224 0.5 0.5 0.5zM8.027 6.496c0-0.276-0.224-0.5-0.5-0.5h-7c-0.276 0-0.5 0.224-0.5 0.5s0.224 0.5 0.5 0.5h7c0.276 0 0.5-0.224 0.5-0.5zM15.826 5.071l-4.889-4.889c-0.155-0.155-0.385-0.185-0.572-0.094-0.196 0.068-0.338 0.252-0.338 0.471v11.069c-0.53-0.393-1.226-0.633-1.99-0.633-1.657 0-3.002 1.121-3.002 2.505s1.344 2.505 3.002 2.505c1.658 0 3.002-1.122 3.002-2.505 0-0.063-0.006-0.124-0.011-0.185v-11.627l4.091 4.091c0.195 0.195 0.512 0.195 0.707 0s0.195-0.512 0-0.707zM10.027 13.547c-0.036 0.695-0.847 1.45-2.002 1.45-1.182 0-2.005-0.79-2.005-1.498s0.824-1.498 2.005-1.498c1.155 0 1.966 0.754 2.002 1.45v0.095z"></path>
</svg>
