<?xml version="1.0" encoding="utf-8"?>
<!-- Generated by IcoMoon.io -->
<!DOCTYPE svg PUBLIC "-//W3C//DTD SVG 1.1//EN" "http://www.w3.org/Graphics/SVG/1.1/DTD/svg11.dtd">
<svg version="1.1" xmlns="http://www.w3.org/2000/svg" xmlns:xlink="http://www.w3.org/1999/xlink" width="16" height="16" viewBox="0 0 16 16">
<path d="M8 0c-4.418 0-8 3.582-8 8s3.582 8 8 8c4.418 0 8-3.582 8-8s-3.582-8-8-8zM8 15.016c-3.86 0-7-3.156-7-7.016s3.14-7 7-7 7 3.14 7 7-3.14 7.016-7 7.016zM11.5 7.5h-3v-3c0-0.276-0.224-0.5-0.5-0.5s-0.5 0.224-0.5 0.5v3h-3c-0.276 0-0.5 0.224-0.5 0.5s0.224 0.5 0.5 0.5h3v3c0 0.276 0.224 0.5 0.5 0.5s0.5-0.224 0.5-0.5v-3h3c0.276 0 0.5-0.224 0.5-0.5s-0.224-0.5-0.5-0.5z"></path>
</svg>
