<?xml version="1.0" encoding="utf-8"?>
<!-- Generated by IcoMoon.io -->
<!DOCTYPE svg PUBLIC "-//W3C//DTD SVG 1.1//EN" "http://www.w3.org/Graphics/SVG/1.1/DTD/svg11.dtd">
<svg version="1.1" xmlns="http://www.w3.org/2000/svg" xmlns:xlink="http://www.w3.org/1999/xlink" width="16" height="16" viewBox="0 0 16 16">
<path d="M8.057-0.006c-3.28 0-6.057 2.793-6.057 6.102 0 3.465 3.219 7.009 5.385 9.499 0.008 0.010 0.358 0.399 0.79 0.399h0.038c0.431 0 0.779-0.389 0.787-0.399 2.032-2.336 5-6.188 5-9.499 0-3.309-2.166-6.102-5.943-6.102zM8.258 14.925c-0.018 0.018-0.043 0.037-0.066 0.053-0.023-0.016-0.048-0.036-0.066-0.053l-0.261-0.301c-2.053-2.355-4.864-5.581-4.864-8.527 0-2.766 2.316-5.103 5.057-5.103 3.415 0 4.943 2.563 4.943 5.103 0 2.237-1.596 5.208-4.742 8.828zM8.018 3.022c-1.657 0-3 1.343-3 3s1.343 3 3 3 3-1.343 3-3-1.343-3-3-3zM8.018 8.022c-1.103 0-2.023-0.919-2.023-2.022s0.897-2 2-2c1.104 0 2 0.897 2 2s-0.873 2.022-1.977 2.022z"></path>
</svg>
