<?xml version="1.0" encoding="utf-8"?>
<!-- Generated by IcoMoon.io -->
<!DOCTYPE svg PUBLIC "-//W3C//DTD SVG 1.1//EN" "http://www.w3.org/Graphics/SVG/1.1/DTD/svg11.dtd">
<svg version="1.1" xmlns="http://www.w3.org/2000/svg" xmlns:xlink="http://www.w3.org/1999/xlink" width="16" height="16" viewBox="0 0 16 16">
<path d="M10.962 2.564c-0.25-0.116-0.547-0.009-0.665 0.241s-0.009 0.547 0.241 0.665c2.537 1.188 3.914 3.937 3.349 6.686-0.671 3.264-3.87 5.372-7.134 4.704-1.581-0.325-2.878-1.245-3.767-2.593s-1.199-2.961-0.874-4.542c0.386-1.878 1.603-3.427 3.34-4.248 0.25-0.118 0.356-0.416 0.238-0.666s-0.415-0.355-0.665-0.238c-2.023 0.957-3.442 2.761-3.892 4.951-0.379 1.843-0.017 3.723 1.018 5.293s2.558 2.643 4.401 3.022c0.476 0.098 0.95 0.145 1.418 0.145 3.273 0 6.213-2.299 6.896-5.627 0.658-3.203-0.948-6.408-3.905-7.792zM8 6.5c0.276 0 0.5-0.224 0.5-0.5v-5.5c0-0.276-0.224-0.5-0.5-0.5s-0.5 0.224-0.5 0.5v5.5c0 0.276 0.224 0.5 0.5 0.5z"></path>
</svg>
