<?xml version="1.0" encoding="utf-8"?>
<!-- Generated by IcoMoon.io -->
<!DOCTYPE svg PUBLIC "-//W3C//DTD SVG 1.1//EN" "http://www.w3.org/Graphics/SVG/1.1/DTD/svg11.dtd">
<svg version="1.1" xmlns="http://www.w3.org/2000/svg" xmlns:xlink="http://www.w3.org/1999/xlink" width="16" height="16" viewBox="0 0 16 16">
<path d="M16 5.008c0-0.552-0.448-1-1-1h-1.707c0.442-0.436 0.725-1.007 0.725-1.71 0-0.866-0.498-1.807-1.894-1.807-1.838 0-3.373 1.956-4.094 3.053-0.722-1.096-2.304-3.053-4.141-3.053-1.397 0-1.894 0.941-1.894 1.807 0 0.703 0.29 1.275 0.741 1.71h-1.736c-0.552 0-1 0.448-1 1v2.993h1.009v6.509c0 0.552 0.448 1 1 1h11.995c0.552 0 1-0.448 1-1v-6.509h0.996v-2.993zM12.123 1.49c0.618 0 0.894 0.26 0.894 0.807 0 1.111-1.24 1.71-2.406 1.71h-1.693c0.71-1.055 1.961-2.517 3.204-2.517zM3.889 1.49c1.244 0 2.542 1.462 3.252 2.517h-1.693c-1.166 0-2.453-0.615-2.453-1.726 0-0.547 0.276-0.792 0.894-0.792zM15 7.001h-6.5v-1.993h6.5v1.993zM1 5.008h6.5v1.993h-6.5v-1.993zM2.009 8.001h5.491v6.509h-5.491v-6.509zM14.004 14.51h-5.504v-6.509h5.504v6.509z"></path>
</svg>
