<?xml version="1.0" encoding="utf-8"?>
<!-- Generated by IcoMoon.io -->
<!DOCTYPE svg PUBLIC "-//W3C//DTD SVG 1.1//EN" "http://www.w3.org/Graphics/SVG/1.1/DTD/svg11.dtd">
<svg version="1.1" xmlns="http://www.w3.org/2000/svg" xmlns:xlink="http://www.w3.org/1999/xlink" width="16" height="16" viewBox="0 0 16 16">
<path d="M14.886 3.983h-1.886v-3.976h-10.001v3.976h-1.886c-0.614 0-1.114 0.5-1.114 1.115v6.779c0 0.615 0.5 1.115 1.114 1.115h1.886v3h10.001v-3h1.886c0.614 0 1.114-0.5 1.114-1.115v-6.779c0-0.615-0.5-1.115-1.114-1.115zM4 0.992h8.001v2.991h-8.001v-2.991zM12 14.992h-8.001v-5.506h8.001v5.506zM15.001 11.877c0 0.064-0.051 0.115-0.114 0.115h-1.886v-3.506h-10.001v3.506h-1.886c-0.063 0-0.114-0.051-0.114-0.115v-6.779c0-0.064 0.051-0.115 0.114-0.115h13.773c0.063 0 0.114 0.051 0.114 0.115v6.779zM13 5.991h-0.5c-0.276 0-0.5 0.224-0.5 0.5s0.224 0.5 0.5 0.5h0.5c0.276 0 0.5-0.224 0.5-0.5s-0.224-0.5-0.5-0.5z"></path>
</svg>
