<?xml version="1.0" encoding="utf-8"?>
<!-- Generated by IcoMoon.io -->
<!DOCTYPE svg PUBLIC "-//W3C//DTD SVG 1.1//EN" "http://www.w3.org/Graphics/SVG/1.1/DTD/svg11.dtd">
<svg version="1.1" xmlns="http://www.w3.org/2000/svg" xmlns:xlink="http://www.w3.org/1999/xlink" width="16" height="16" viewBox="0 0 16 16">
<path d="M8 16.003c-0.317 0-0.615-0.123-0.84-0.347l-6.821-6.82c-0.462-0.464-0.462-1.218-0.001-1.681l2.498-2.498c0.154-0.154 0.391-0.191 0.585-0.090s0.299 0.316 0.261 0.531c-0.026 0.143-0.037 0.258-0.037 0.361 0 1.094 0.89 2.002 1.985 2.002s1.895-0.909 1.895-2.002c0-1.095-0.8-1.986-1.895-1.986-0.103 0-0.217 0.012-0.36 0.037-0.217 0.040-0.43-0.067-0.531-0.261s-0.064-0.431 0.090-0.585l2.329-2.33c0.451-0.449 1.232-0.448 1.681-0.001l1.706 1.706c0.356-1.107 1.395-1.91 2.618-1.91 1.516 0 2.749 1.234 2.749 2.751 0 1.223-0.803 2.262-1.91 2.617l1.657 1.656c0.463 0.464 0.463 1.218 0.001 1.681l-6.819 6.82c-0.226 0.225-0.524 0.348-0.841 0.348zM2.733 6.175l-1.686 1.686c-0.073 0.073-0.073 0.194 0.001 0.269l6.818 6.819c0.096 0.095 0.171 0.096 0.268-0.001l6.818-6.819c0.073-0.074 0.073-0.194-0.001-0.268l-2.405-2.403c-0.15-0.151-0.19-0.38-0.097-0.571s0.294-0.305 0.508-0.279l0.076 0.010c0.042 0.006 0.084 0.013 0.128 0.013 0.965 0 1.749-0.784 1.749-1.748 0-0.965-0.785-1.75-1.749-1.75s-1.749 0.785-1.749 1.75c0 0.040 0.006 0.079 0.012 0.118l0.011 0.089c0.023 0.211-0.090 0.413-0.282 0.504-0.19 0.091-0.419 0.052-0.569-0.098l-2.452-2.454c-0.096-0.095-0.171-0.096-0.269 0.001l-1.518 1.518c1.301 0.322 2.178 1.5 2.178 2.899 0 1.646-1.249 3.002-2.895 3.002-1.399-0-2.576-0.986-2.897-2.286z"></path>
</svg>
