<?xml version="1.0" encoding="utf-8"?>
<!-- Generated by IcoMoon.io -->
<!DOCTYPE svg PUBLIC "-//W3C//DTD SVG 1.1//EN" "http://www.w3.org/Graphics/SVG/1.1/DTD/svg11.dtd">
<svg version="1.1" xmlns="http://www.w3.org/2000/svg" xmlns:xlink="http://www.w3.org/1999/xlink" width="16" height="16" viewBox="0 0 16 16">
<path d="M8 0c-4.418 0-8 3.582-8 8s3.582 8 8 8c4.418 0 8-3.582 8-8s-3.582-8-8-8zM8 15.016c-3.86 0-7-3.156-7-7.016s3.14-7 7-7 7 3.14 7 7-3.14 7.016-7 7.016zM7.265 12.508h1.258v-1.27h-1.258v1.27zM7.985 3.493c-0.732 0-1.336 0.197-1.81 0.592s-0.705 1.185-0.693 1.84l0.019 0.037h1.147c0-0.391 0.13-0.952 0.391-1.154s0.576-0.302 0.946-0.302c0.427 0 0.755 0.116 0.986 0.348s0.345 0.564 0.345 0.995c0 0.362-0.085 0.671-0.256 0.928s-0.458 0.622-0.861 1.099c-0.415 0.374-0.672 0.675-0.769 0.903s-0.149 0.637-0.152 1.227h1.203c0-0.37 0.024-0.643 0.070-0.818s0.18-0.372 0.399-0.592c0.472-0.456 0.851-0.901 1.139-1.337s0.43-0.915 0.43-1.441c0-0.732-0.222-1.303-0.665-1.712s-1.067-0.613-1.868-0.613z"></path>
</svg>
