<?xml version="1.0" encoding="utf-8"?>
<!-- Generated by IcoMoon.io -->
<!DOCTYPE svg PUBLIC "-//W3C//DTD SVG 1.1//EN" "http://www.w3.org/Graphics/SVG/1.1/DTD/svg11.dtd">
<svg version="1.1" xmlns="http://www.w3.org/2000/svg" xmlns:xlink="http://www.w3.org/1999/xlink" width="16" height="16" viewBox="0 0 16 16">
<path d="M7.772 14.040c-0.001-0.003-0.004-0.005-0.006-0.008l-1.436-2.245c-0.102-0.168-0.323-0.227-0.496-0.133l-0.128 0.079c-0.172 0.094-0.168 0.337-0.066 0.504l0.921 1.428c-0.079-0.017-0.158-0.031-0.235-0.052-1.612-0.422-2.977-1.513-3.743-2.994-0.724-1.399-0.86-2.995-0.383-4.496s1.559-2.726 2.958-3.45c0.238-0.123 0.331-0.416 0.208-0.654s-0.416-0.332-0.654-0.208c-1.629 0.843-2.881 2.27-3.437 4.018s-0.397 3.607 0.446 5.236c0.893 1.724 2.482 2.995 4.36 3.486 0.021 0.005 0.043 0.009 0.065 0.014l-1.271 0.644c-0.172 0.094-0.229 0.307-0.127 0.474l0.049 0.128c0.103 0.168 0.279 0.227 0.45 0.133l2.325-1.191c0.003-0.002 0.006-0.002 0.009-0.004l0.156-0.085c0.086-0.047 0.143-0.124 0.166-0.211s0.013-0.182-0.038-0.265l-0.093-0.151zM14.28 5.013c-0.892-1.724-2.431-2.994-4.309-3.486-0.134-0.035-0.271-0.062-0.407-0.089l1.247-0.632c0.172-0.094 0.274-0.307 0.172-0.474l-0.049-0.128c-0.102-0.168-0.324-0.227-0.496-0.133l-2.325 1.191c-0.003 0.002-0.006 0.001-0.009 0.003l-0.156 0.085c-0.087 0.048-0.143 0.125-0.166 0.211s-0.013 0.182 0.038 0.265l0.093 0.152c0.002 0.003 0.004 0.005 0.006 0.008l1.436 2.245c0.102 0.168 0.323 0.227 0.495 0.133l0.113-0.079c0.172-0.094 0.183-0.337 0.082-0.504l-0.925-1.435c0.203 0.031 0.406 0.069 0.604 0.121 1.613 0.422 2.928 1.514 3.694 2.993 0.724 1.399 0.86 2.995 0.383 4.496s-1.51 2.726-2.909 3.45c-0.238 0.123-0.331 0.416-0.207 0.654 0.086 0.166 0.255 0.262 0.431 0.262 0.075 0 0.151-0.018 0.223-0.055 1.629-0.843 2.832-2.27 3.388-4.018s0.397-3.608-0.447-5.237z"></path>
</svg>
