<?xml version="1.0" encoding="utf-8"?>
<!-- Generated by IcoMoon.io -->
<!DOCTYPE svg PUBLIC "-//W3C//DTD SVG 1.1//EN" "http://www.w3.org/Graphics/SVG/1.1/DTD/svg11.dtd">
<svg version="1.1" xmlns="http://www.w3.org/2000/svg" xmlns:xlink="http://www.w3.org/1999/xlink" width="16" height="16" viewBox="0 0 16 16">
<path d="M7.989 0c-3.997 0-7.249 3.252-7.249 7.249 0 3.757 2.895 6.899 6.618 7.22l-1.435 0.727c-0.177 0.097-0.283 0.316-0.178 0.489l0.051 0.131c0.106 0.173 0.334 0.234 0.511 0.137l2.396-1.226c0.003-0.002 0.006-0.002 0.009-0.004l0.161-0.088c0.089-0.049 0.148-0.129 0.171-0.217 0.024-0.089 0.013-0.188-0.040-0.274l-0.095-0.156c-0.002-0.003-0.005-0.005-0.006-0.008l-1.479-2.312c-0.105-0.173-0.333-0.234-0.511-0.137l-0.116 0.081c-0.177 0.097-0.189 0.347-0.084 0.519l0.873 1.354c-0.005-0-0.009-0.002-0.013-0.002-3.27-0.214-5.831-2.954-5.831-6.235 0-3.446 2.803-6.249 6.249-6.249s6.265 2.803 6.265 6.249c0 1.984-0.911 3.806-2.5 5-0.221 0.166-0.265 0.479-0.1 0.7s0.479 0.265 0.7 0.1c1.843-1.384 2.899-3.498 2.899-5.799-0-3.997-3.268-7.249-7.265-7.249z"></path>
</svg>
