<?xml version="1.0" encoding="utf-8"?>
<!-- Generated by IcoMoon.io -->
<!DOCTYPE svg PUBLIC "-//W3C//DTD SVG 1.1//EN" "http://www.w3.org/Graphics/SVG/1.1/DTD/svg11.dtd">
<svg version="1.1" xmlns="http://www.w3.org/2000/svg" xmlns:xlink="http://www.w3.org/1999/xlink" width="16" height="16" viewBox="0 0 16 16">
<path d="M3.276 13.801c-0.314 0.653-0.513 1.088-2.261 1.152 0.050-1.687 0.372-1.868 1.016-2.189 0.27-0.135 0.607-0.302 0.97-0.582l-0.609-0.777c-0.288 0.221-0.552 0.337-0.808 0.464-1.073 0.535-1.578 1.062-1.578 3.573l0.009 0.511 0.491-0.011c2.651 0 3.146-0.599 3.642-1.63 0.109-0.226 0.169-0.379 0.353-0.683l-0.742-0.674c-0.222 0.303-0.361 0.592-0.484 0.846zM11.015 2.948c-1.106 0-2.005 0.9-2.005 2.005s0.9 2.006 2.005 2.006 2.005-0.9 2.005-2.005c0-1.106-0.9-2.005-2.005-2.005zM11.015 5.954c-0.552 0-1.001-0.449-1.001-1.001s0.449-1.001 1.001-1.001 1.001 0.45 1.001 1.001c-0 0.552-0.449 1.001-1.001 1.001zM15.996 0.458c-0.015-0.249-0.213-0.45-0.463-0.468 0 0-2.798-0.204-5.49 0.801-0.983 0.367-1.793 0.949-2.549 1.83-0.63 0.735-1.256 2.063-1.809 3.166-0.213 0.426-0.418 0.833-0.591 1.144h-2.781c-0.143 0-0.279 0.061-0.374 0.168l-1.833 1.986c-0.117 0.132-0.156 0.316-0.102 0.485s0.193 0.296 0.364 0.335l2.983 0.682c0.203 0.251 0.542 0.627 1.084 1.228l1.13 1.253 0.609 2.574c0.040 0.169 0.166 0.306 0.332 0.36 0.051 0.016 0.103 0.024 0.155 0.024 0.118 0 0.234-0.041 0.325-0.12l1.853-1.843c0.111-0.095 0.175-0.233 0.175-0.38v-2.58c0.249-0.155 0.691-0.393 1.106-0.626 1.132-0.633 2.822-1.421 3.523-2.043 0.987-0.877 1.346-1.52 1.699-2.47 0.839-2.261 0.661-5.375 0.652-5.507zM14.406 5.617c-0.308 0.829-0.587 1.325-1.426 2.071-0.62 0.551-2.314 1.341-3.347 1.918-0.771 0.431-1.232 0.682-1.434 0.848-0.116 0.095-0.184 0.237-0.184 0.387v2.613l-1.055 1.159-0.449-1.9c-0.019-0.082-0.059-0.157-0.115-0.22-0.92-1.019-2.309-2.559-2.415-2.682-0.070-0.085-0.166-0.145-0.275-0.169l-2.291-0.524 1.123-1.188h2.844c0.174 0 0.335-0.090 0.426-0.238 0.22-0.358 0.475-0.868 0.771-1.458 0.501-0.999 1.124-2.321 1.674-2.963 0.65-0.758 1.31-1.234 2.139-1.544 1.845-0.69 3.749-0.762 4.62-0.755 0.016 0.922-0.018 3.060-0.607 4.644z"></path>
</svg>
