<?xml version="1.0" encoding="utf-8"?>
<!-- Generated by IcoMoon.io -->
<!DOCTYPE svg PUBLIC "-//W3C//DTD SVG 1.1//EN" "http://www.w3.org/Graphics/SVG/1.1/DTD/svg11.dtd">
<svg version="1.1" xmlns="http://www.w3.org/2000/svg" xmlns:xlink="http://www.w3.org/1999/xlink" width="16" height="16" viewBox="0 0 16 16">
<path d="M15 1.497h-14c-0.55 0-1 0.45-1 1v8.503c0 0.55 0.45 1 1 1h6.5v1.503h-2.5c-0.276 0-0.5 0.224-0.5 0.5s0.224 0.5 0.5 0.5h6c0.276 0 0.5-0.224 0.5-0.5s-0.224-0.5-0.5-0.5h-2.5v-1.503h6.5c0.55 0 1-0.45 1-1v-8.503c0-0.55-0.45-1-1-1zM15 11h-14v-8.503h14v8.503z"></path>
</svg>
