<?xml version="1.0" encoding="utf-8"?>
<!-- Generated by IcoMoon.io -->
<!DOCTYPE svg PUBLIC "-//W3C//DTD SVG 1.1//EN" "http://www.w3.org/Graphics/SVG/1.1/DTD/svg11.dtd">
<svg version="1.1" xmlns="http://www.w3.org/2000/svg" xmlns:xlink="http://www.w3.org/1999/xlink" width="16" height="16" viewBox="0 0 16 16">
<path d="M11.002 0h-6.005c-0.829 0-1.5 0.671-1.5 1.5v13c0 0.829 0.671 1.5 1.5 1.5h6.005c0.829 0 1.5-0.671 1.5-1.5v-13c0-0.829-0.671-1.5-1.5-1.5zM11.502 14.5c0 0.276-0.224 0.5-0.5 0.5h-6.005c-0.276 0-0.5-0.224-0.5-0.5v-13c0-0.276 0.224-0.5 0.5-0.5h6.005c0.276 0 0.5 0.224 0.5 0.5v13zM8.001 12.503c-0.551 0-0.998 0.447-0.998 0.997s0.447 0.998 0.998 0.998c0.551 0 0.998-0.447 0.998-0.998s-0.446-0.997-0.998-0.997zM9.001 1.5h-2c-0.276 0-0.5 0.224-0.5 0.5s0.224 0.5 0.5 0.5h2c0.276 0 0.5-0.224 0.5-0.5s-0.224-0.5-0.5-0.5z"></path>
</svg>
