<?xml version="1.0" encoding="utf-8"?>
<!-- Generated by IcoMoon.io -->
<!DOCTYPE svg PUBLIC "-//W3C//DTD SVG 1.1//EN" "http://www.w3.org/Graphics/SVG/1.1/DTD/svg11.dtd">
<svg version="1.1" xmlns="http://www.w3.org/2000/svg" xmlns:xlink="http://www.w3.org/1999/xlink" width="16" height="16" viewBox="0 0 16 16">
<path d="M14.091 14.834h-13v-10h4.025l1.011-0.974-0.026-0.026h-5.010c-0.552 0-1 0.448-1 1v10c0 0.552 0.448 1 1 1h13c0.552 0 1-0.448 1-1v-7.823l-1 0.955v6.869zM4.221 10.834h1.008c0.701-3.976 4.165-7 8.342-7 0.175 0 0.341 0.002 0.51 0.003l-1.832 1.832c-0.195 0.195-0.195 0.512 0 0.707 0.098 0.098 0.226 0.146 0.354 0.146s0.255-0.049 0.353-0.146l2.954-3.031-2.954-3.032c-0.195-0.195-0.511-0.195-0.707 0s-0.195 0.512 0 0.707l1.815 1.815c-0.157-0-0.312-0.001-0.472-0.001-4.735 0-8.649 3.468-9.37 8z"></path>
</svg>
