<?xml version="1.0" encoding="utf-8"?>
<!-- Generated by IcoMoon.io -->
<!DOCTYPE svg PUBLIC "-//W3C//DTD SVG 1.1//EN" "http://www.w3.org/Graphics/SVG/1.1/DTD/svg11.dtd">
<svg version="1.1" xmlns="http://www.w3.org/2000/svg" xmlns:xlink="http://www.w3.org/1999/xlink" width="16" height="16" viewBox="0 0 16 16">
<path d="M13.5 11c-0.823 0-1.552 0.4-2.007 1.014l-6.584-3.355c0.057-0.21 0.090-0.43 0.090-0.659 0-0.286-0.050-0.559-0.139-0.815l6.621-3.213c0.454 0.622 1.188 1.028 2.018 1.028 1.381 0 2.5-1.119 2.5-2.5s-1.119-2.5-2.5-2.5-2.5 1.119-2.5 2.5c0 0.194 0.024 0.382 0.066 0.564l-6.716 3.259c-0.458-0.504-1.115-0.823-1.85-0.823-1.381 0-2.5 1.119-2.5 2.5s1.119 2.5 2.5 2.5c0.795 0 1.502-0.372 1.96-0.951l6.611 3.369c-0.045 0.187-0.071 0.381-0.071 0.582 0 1.381 1.119 2.5 2.5 2.5s2.5-1.119 2.5-2.5-1.119-2.5-2.5-2.5zM13.5 1c0.828 0 1.5 0.672 1.5 1.5s-0.672 1.5-1.5 1.5-1.5-0.672-1.5-1.5 0.672-1.5 1.5-1.5zM2.5 9.5c-0.829 0-1.5-0.672-1.5-1.5s0.671-1.5 1.5-1.5c0.828 0 1.5 0.672 1.5 1.5s-0.672 1.5-1.5 1.5zM13.5 15c-0.828 0-1.5-0.672-1.5-1.5s0.672-1.5 1.5-1.5 1.5 0.672 1.5 1.5-0.672 1.5-1.5 1.5z"></path>
</svg>
