<?xml version="1.0" encoding="utf-8"?>
<!-- Generated by IcoMoon.io -->
<!DOCTYPE svg PUBLIC "-//W3C//DTD SVG 1.1//EN" "http://www.w3.org/Graphics/SVG/1.1/DTD/svg11.dtd">
<svg version="1.1" xmlns="http://www.w3.org/2000/svg" xmlns:xlink="http://www.w3.org/1999/xlink" width="16" height="16" viewBox="0 0 16 16">
<path d="M14.187 2.257c-0.185-0.173-0.43-0.269-0.682-0.269-0.023 0-0.046 0.001-0.069 0.002-0.014 0.001-0.175 0.011-0.426 0.011-0.416 0-1.229-0.028-1.999-0.218-0.995-0.244-2.143-1.377-2.476-1.601-0.168-0.112-0.362-0.169-0.556-0.169s-0.387 0.056-0.555 0.168c-0.040 0.027-1.242 1.313-2.418 1.601-0.769 0.19-1.598 0.218-2.014 0.218-0.252 0-0.412-0.010-0.428-0.011-0.022-0.002-0.044-0.002-0.066-0.002-0.253 0-0.498 0.096-0.684 0.27-0.202 0.189-0.317 0.453-0.317 0.73v2.501c0 9.244 6.049 10.434 6.306 10.481 0.059 0.010 0.118 0.016 0.177 0.016s0.119-0.005 0.177-0.016c0.257-0.046 6.35-1.237 6.35-10.481v-2.501c0.001-0.277-0.115-0.542-0.318-0.731zM13.505 5.489c0 8.514-5.527 9.496-5.527 9.496s-5.482-0.982-5.482-9.496c0-2.183 0-2.501 0-2.501s0.189 0.013 0.495 0.013c0.524 0 1.407-0.038 2.253-0.247 1.385-0.34 2.735-1.741 2.735-1.741s1.41 1.401 2.793 1.741c0.847 0.208 1.714 0.247 2.238 0.247 0.306 0 0.495-0.013 0.495-0.013s0 0.318 0 2.501zM10.119 5.41c-0.195-0.195-0.512-0.195-0.707 0l-1.414 1.414-1.414-1.414c-0.195-0.195-0.512-0.195-0.707 0s-0.195 0.512 0 0.707l1.414 1.414-1.414 1.414c-0.195 0.195-0.195 0.512 0 0.707s0.512 0.195 0.707 0l1.414-1.414 1.414 1.414c0.195 0.195 0.512 0.195 0.707 0s0.195-0.512 0-0.707l-1.414-1.414 1.414-1.414c0.195-0.195 0.195-0.512 0-0.707z"></path>
</svg>
