<?xml version="1.0" encoding="utf-8"?>
<!-- Generated by IcoMoon.io -->
<!DOCTYPE svg PUBLIC "-//W3C//DTD SVG 1.1//EN" "http://www.w3.org/Graphics/SVG/1.1/DTD/svg11.dtd">
<svg version="1.1" xmlns="http://www.w3.org/2000/svg" xmlns:xlink="http://www.w3.org/1999/xlink" width="16" height="16" viewBox="0 0 16 16">
<path d="M6.286 7.904l0.614-0.863-2.098-2.864h-4.758v1h4.242l2.001 2.727zM14.356 5.177l-1.211 1.087c-0.146 0.14-0.193 0.366-0.047 0.506l0.085 0.126c0.146 0.14 0.383 0.14 0.528 0l1.996-1.805c0.003-0.003 0.006-0.003 0.008-0.005l0.132-0.127c0.073-0.070 0.11-0.162 0.109-0.255 0.001-0.092-0.036-0.184-0.109-0.253l-0.132-0.127c-0.002-0.003-0.005-0.003-0.008-0.006l-2.027-1.851c-0.146-0.14-0.382-0.14-0.529 0l-0.085 0.126c-0.146 0.14-0.099 0.366 0.047 0.505l1.188 1.078h-3.621l-6.396 9h-4.242v1h4.758l6.396-9h3.159zM15.716 13.325c-0.002-0.002-0.005-0.004-0.008-0.006l-2.027-1.851c-0.146-0.14-0.382-0.14-0.529 0l-0.085 0.126c-0.146 0.14-0.099 0.366 0.047 0.505l1.193 1.082-3.11-0.004-1.788-2.766-0.614 0.863 1.885 2.902 3.671 0.005-1.207 1.082c-0.146 0.14-0.193 0.366-0.047 0.506l0.085 0.126c0.146 0.14 0.383 0.14 0.528 0l1.996-1.805c0.003-0.002 0.006-0.003 0.008-0.005l0.132-0.127c0.073-0.070 0.11-0.162 0.109-0.255 0.001-0.092-0.036-0.184-0.109-0.254l-0.132-0.126z"></path>
</svg>
