<?xml version="1.0" encoding="utf-8"?>
<!-- Generated by IcoMoon.io -->
<!DOCTYPE svg PUBLIC "-//W3C//DTD SVG 1.1//EN" "http://www.w3.org/Graphics/SVG/1.1/DTD/svg11.dtd">
<svg version="1.1" xmlns="http://www.w3.org/2000/svg" xmlns:xlink="http://www.w3.org/1999/xlink" width="16" height="16" viewBox="0 0 16 16">
<path d="M10.717 5.987l4.301-4.274-0.014 2.423c-0.005 0.202 0.156 0.378 0.358 0.373l0.257-0c0.202-0.005 0.37-0.125 0.374-0.327l0.010-3.61c0-0.003-0.014-0.006-0.014-0.010l0.020-0.183c0.002-0.101-0.022-0.192-0.087-0.257s-0.155-0.105-0.256-0.102l-0.183 0.004c-0.004 0-0.006 0.001-0.010 0.002l-3.586-0.016c-0.202 0.005-0.369 0.172-0.374 0.374l-0.001 0.257c0.031 0.238 0.218 0.377 0.42 0.373l2.363 0.006-4.286 4.26c-0.195 0.195-0.195 0.512 0 0.707s0.512 0.195 0.707 0zM5.298 10.013l-4.301 4.261 0.014-2.41c0.005-0.202-0.156-0.378-0.358-0.373l-0.272 0.001c-0.203 0.005-0.369 0.125-0.374 0.327l-0.011 3.61c0 0.004 0.014 0.006 0.014 0.010l-0.020 0.182c-0.002 0.101 0.021 0.193 0.087 0.257 0.064 0.066 0.156 0.105 0.256 0.102l0.183-0.005c0.003 0 0.006-0.002 0.010-0.002l3.602 0.016c0.202-0.005 0.369-0.172 0.374-0.374l0-0.257c-0.031-0.238-0.218-0.377-0.42-0.373l-2.363-0.006 4.285-4.259c0.195-0.195 0.195-0.512 0-0.707s-0.511-0.195-0.707-0zM16.003 15.428l-0.011-3.61c-0.005-0.202-0.172-0.322-0.374-0.327l-0.257-0.001c-0.202-0.005-0.362 0.171-0.358 0.373l0.014 2.423-4.301-4.274c-0.195-0.195-0.512-0.195-0.707 0s-0.195 0.512 0 0.707l4.285 4.259-2.363 0.006c-0.202-0.005-0.389 0.135-0.42 0.373l0.001 0.257c0.005 0.202 0.172 0.369 0.374 0.374l3.586-0.016c0.004 0 0.007 0.002 0.010 0.002l0.183 0.005c0.101 0.002 0.192-0.037 0.256-0.102 0.066-0.065 0.089-0.155 0.087-0.257l-0.020-0.182c0-0.004 0.014-0.006 0.014-0.010zM1.72 1.021l2.364-0.006c0.202 0.004 0.389-0.135 0.42-0.373l-0-0.257c-0.005-0.202-0.172-0.369-0.374-0.374l-3.602 0.015c-0.004-0.001-0.006-0.002-0.010-0.002l-0.183-0.004c-0.101-0.003-0.192 0.037-0.256 0.102-0.066 0.065-0.089 0.155-0.087 0.257l0.020 0.183c0 0.003-0.014 0.006-0.014 0.010l0.011 3.61c0.005 0.202 0.171 0.322 0.374 0.327l0.272 0c0.202 0.005 0.362-0.171 0.358-0.373l-0.014-2.41 4.301 4.261c0.195 0.195 0.512 0.195 0.707 0s0.195-0.512 0-0.707l-4.286-4.259z"></path>
</svg>
