<?xml version="1.0" encoding="utf-8"?>
<!-- Generated by IcoMoon.io -->
<!DOCTYPE svg PUBLIC "-//W3C//DTD SVG 1.1//EN" "http://www.w3.org/Graphics/SVG/1.1/DTD/svg11.dtd">
<svg version="1.1" xmlns="http://www.w3.org/2000/svg" xmlns:xlink="http://www.w3.org/1999/xlink" width="16" height="16" viewBox="0 0 16 16">
<path d="M9.090 1.258c0.059 0 0.094 0.002 0.094 0.002h1.306l-0.007 1.5h-1.297c-0.714 0-0.697 0.61-0.697 0.61v2.378h2.526l-0.352 1.498h-2.181v7.497h-1.498l-0.001-7.497h-1.991l-0.004-1.498h1.995c0 0 0-1.834 0-2.331 0-2.033 1.688-2.159 2.109-2.159M10.489 1.26h0.002M9.090 0.258v0c-0.36 0-1.062 0.059-1.728 0.461-0.63 0.379-1.381 1.155-1.381 2.698v1.331h-0.995c-0.266 0-0.521 0.106-0.708 0.294s-0.292 0.443-0.292 0.71l0.004 1.498c0.002 0.551 0.449 0.996 1 0.996h0.991l0.001 6.497c0 0.552 0.448 1 1 1h1.498c0.552 0 1-0.448 1-1v-6.497h1.181c0.444 0 0.835-0.293 0.96-0.718l0.352-1.498c0.089-0.302 0.030-0.629-0.159-0.881s-0.485-0.401-0.8-0.401h-1.525v-0.987l0.994-0.001c0.55 0 0.998-0.445 1-0.996l0.007-1.449c0.001-0.018 0.002-0.036 0.002-0.055 0-0.552-0.447-1-0.999-1h-1.28c-0.029-0.002-0.070-0.003-0.122-0.003v0z"></path>
</svg>
