<?xml version="1.0" encoding="utf-8"?>
<!-- Generated by IcoMoon.io -->
<!DOCTYPE svg PUBLIC "-//W3C//DTD SVG 1.1//EN" "http://www.w3.org/Graphics/SVG/1.1/DTD/svg11.dtd">
<svg version="1.1" xmlns="http://www.w3.org/2000/svg" xmlns:xlink="http://www.w3.org/1999/xlink" width="16" height="16" viewBox="0 0 16 16">
<path d="M8 0.004c-1.091 0-2.132 0.221-3.081 0.618-0.033 0.010-0.065 0.024-0.096 0.042-2.832 1.232-4.819 4.056-4.819 7.336 0 4.409 3.587 7.995 7.995 7.995s7.996-3.587 7.996-7.995c0-4.409-3.587-7.996-7.996-7.996zM14.996 8c0 0.056-0.003 0.111-0.004 0.167-0.766-0.203-2.709-0.585-5.106-0.059-0.211-0.483-0.445-0.978-0.707-1.482-0.022-0.042-0.043-0.082-0.065-0.124 2.565-0.99 3.655-2.323 4.106-3.155 1.104 1.238 1.777 2.868 1.777 4.653zM12.461 2.616c-0.233 0.55-1.079 1.969-3.824 2.998-1.233-2.253-2.191-3.604-2.728-4.291 0.66-0.207 1.362-0.319 2.090-0.319 1.694 0 3.25 0.606 4.462 1.612zM4.938 1.711c0.425 0.52 1.412 1.829 2.736 4.226-3.125 0.942-5.663 0.829-6.544 0.747 0.419-2.19 1.861-4.021 3.808-4.973zM1.004 8c0-0.108 0.003-0.215 0.008-0.322 0.301 0.030 0.768 0.064 1.38 0.064 1.358 0 3.402-0.168 5.766-0.909 0.044 0.084 0.088 0.168 0.133 0.254 0.226 0.434 0.429 0.862 0.616 1.282-0.428 0.134-0.866 0.298-1.311 0.499-2.853 1.292-4.191 3.136-4.667 3.943-1.192-1.255-1.925-2.949-1.925-4.813zM3.689 13.504c0.254-0.48 1.416-2.408 4.319-3.723 0.437-0.198 0.867-0.356 1.287-0.483 0.949 2.411 1.278 4.399 1.378 5.165-0.824 0.342-1.727 0.532-2.674 0.532-1.625 0-3.122-0.559-4.311-1.492zM11.619 13.985c-0.144-0.963-0.502-2.772-1.343-4.932 2.319-0.462 4.155-0.009 4.619 0.126-0.347 2.034-1.574 3.773-3.276 4.806z"></path>
</svg>
