<?xml version="1.0" encoding="utf-8"?>
<!-- Generated by IcoMoon.io -->
<!DOCTYPE svg PUBLIC "-//W3C//DTD SVG 1.1//EN" "http://www.w3.org/Graphics/SVG/1.1/DTD/svg11.dtd">
<svg version="1.1" xmlns="http://www.w3.org/2000/svg" xmlns:xlink="http://www.w3.org/1999/xlink" width="16" height="16" viewBox="0 0 16 16">
<path d="M15.991 3.512c-0.011-0.16-0.098-0.304-0.234-0.389l-4.456-2.781c-0.181-0.113-0.413-0.099-0.579 0.036l-2.722 2.202-2.722-2.202c-0.165-0.134-0.399-0.149-0.579-0.036l-4.456 2.781c-0.136 0.085-0.223 0.229-0.234 0.389s0.054 0.315 0.177 0.418l2.582 2.169-2.212 1.737c-0.127 0.099-0.197 0.253-0.191 0.413s0.089 0.307 0.222 0.396l2.046 1.364c-0.1 0.091-0.165 0.222-0.165 0.369v2.005c0 0.174 0.090 0.335 0.238 0.426l5.031 2.851c0.080 0.049 0.171 0.074 0.262 0.074s0.182-0.025 0.262-0.074l4.972-2.851c0.148-0.091 0.238-0.252 0.238-0.426v-2.352c0-0.032-0.004-0.064-0.009-0.094l1.938-1.292c0.133-0.089 0.216-0.236 0.222-0.396s-0.064-0.314-0.19-0.413l-2.202-1.737 2.583-2.17c0.123-0.103 0.189-0.258 0.177-0.418zM11.511 6.104l-3.511 2.2-3.511-2.2 3.511-2.285 3.511 2.285zM1.356 3.607l3.57-2.228 2.224 1.8-3.552 2.312-2.242-1.884zM3.592 6.722l3.531 2.212-2.001 1.532-3.406-2.271 1.877-1.474zM3.469 10.566l1.396 0.931c0.177 0.118 0.411 0.11 0.581-0.019l2.022-1.547v4.419l-3.999-2.245v-1.538zM12.472 12.104l-4.004 2.276v-4.497l2.073 1.593c0.089 0.069 0.197 0.104 0.305 0.104 0.097 0 0.193-0.028 0.277-0.084l1.349-0.899v1.507zM14.273 8.195l-3.407 2.271-1.991-1.53 3.531-2.213 1.867 1.472zM12.401 5.491l-3.552-2.312 2.225-1.8 3.57 2.228-2.242 1.884z"></path>
</svg>
