<?xml version="1.0" encoding="utf-8"?>
<!-- Generated by IcoMoon.io -->
<!DOCTYPE svg PUBLIC "-//W3C//DTD SVG 1.1//EN" "http://www.w3.org/Graphics/SVG/1.1/DTD/svg11.dtd">
<svg version="1.1" xmlns="http://www.w3.org/2000/svg" xmlns:xlink="http://www.w3.org/1999/xlink" width="16" height="16" viewBox="0 0 16 16">
<path d="M8.25 0.996v3.498h3.505v1.5h-3.489l-0.005 4.352c0 0.809 0.042 1.328 0.127 1.559 0.133 0.363 0.618 0.828 1.518 0.828 0.698 0 1.64-0.21 2.346-0.738v2.333c-0.589 0.281-1.136 0.394-1.613 0.507s-0.995 0.169-1.549 0.169c-0.618 0-2.401-0.017-3.133-1.881-0.132-0.335-0.198-0.823-0.198-1.46v-5.666h-2.013l0.010-1.533c0.666 0 2.666-0.405 2.666-3.467h1.828M8.25-0.004h-1.828c-0.552 0-1 0.448-1 1 0 2.289-1.276 2.467-1.666 2.467-0.55 0-0.998 0.445-1 0.995l-0.010 1.533c-0.002 0.266 0.103 0.521 0.291 0.71s0.443 0.295 0.709 0.295h1.013v4.666c0 0.771 0.088 1.369 0.267 1.826 0.451 1.147 1.522 2.516 4.064 2.516 0.63 0 1.228-0.066 1.779-0.196l0.11-0.026c0.467-0.11 1.063-0.246 1.703-0.552 0.348-0.166 0.57-0.517 0.57-0.903v-2.333c0-0.379-0.214-0.725-0.552-0.894-0.142-0.071-0.295-0.106-0.448-0.106-0.212 0-0.423 0.068-0.599 0.199-0.595 0.446-1.357 0.539-1.747 0.539-0.4 0-0.549-0.145-0.582-0.184-0.017-0.079-0.065-0.371-0.065-1.203l0.004-3.352h2.491c0.552 0 1-0.448 1-1v-1.5c0-0.552-0.448-1-1-1h-2.505v-2.498c0-0.552-0.448-1-1-1v0z"></path>
</svg>
