<?xml version="1.0" encoding="utf-8"?>
<!-- Generated by IcoMoon.io -->
<!DOCTYPE svg PUBLIC "-//W3C//DTD SVG 1.1//EN" "http://www.w3.org/Graphics/SVG/1.1/DTD/svg11.dtd">
<svg version="1.1" xmlns="http://www.w3.org/2000/svg" xmlns:xlink="http://www.w3.org/1999/xlink" width="16" height="16" viewBox="0 0 16 16">
<path d="M14.699 2.964c-0.434-0.312-1.642-0.727-6.703-0.727-5.424 0-6.229 0.476-6.487 0.632-1.375 0.826-1.505 4.481-1.517 5.223 0.017 0.979 0.175 4.236 1.516 5.042 0.258 0.155 1.058 0.629 6.488 0.629 5.065 0 6.271-0.412 6.703-0.723 1.171-0.843 1.306-3.745 1.309-4.96-0.003-0.977-0.105-4.248-1.309-5.115zM14.115 12.228c-0.174 0.126-1.175 0.535-6.119 0.535-4.78 0-5.783-0.371-5.973-0.485-0.482-0.29-0.992-1.826-1.032-4.188 0.040-2.357 0.556-4.077 1.033-4.363 0.19-0.115 1.197-0.489 5.972-0.489 4.941 0 5.944 0.412 6.119 0.538 0.428 0.308 0.887 1.933 0.893 4.307-0.007 2.412-0.468 3.839-0.893 4.145zM11.257 7.607l-4.499-2.761c-0.155-0.093-0.347-0.096-0.504-0.007s-0.255 0.255-0.255 0.436v5.522c0 0.18 0.097 0.347 0.255 0.435 0.076 0.043 0.161 0.065 0.245 0.065 0.089 0 0.179-0.024 0.258-0.072l4.499-2.762c0.15-0.091 0.242-0.253 0.242-0.428s-0.091-0.338-0.242-0.428zM6.999 9.911v-3.752l3.031 1.876-3.031 1.876z"></path>
</svg>
