<?xml version="1.0" encoding="utf-8"?>
<!-- Generated by IcoMoon.io -->
<!DOCTYPE svg PUBLIC "-//W3C//DTD SVG 1.1//EN" "http://www.w3.org/Graphics/SVG/1.1/DTD/svg11.dtd">
<svg version="1.1" xmlns="http://www.w3.org/2000/svg" xmlns:xlink="http://www.w3.org/1999/xlink" width="16" height="16" viewBox="0 0 16 16">
<path d="M10.694 2.479c0.826 0 1.572 0.338 2.098 0.881 0.654-0.127 1.27-0.357 1.824-0.676-0.214 0.651-0.67 1.196-1.263 1.542 0.58-0.068 1.135-0.217 1.651-0.44-0.386 0.558-0.873 1.050-1.434 1.443 0.005 0.119 0.008 0.24 0.008 0.36 0 3.683-2.891 7.931-8.177 7.931-1.623 0-3.134-0.463-4.405-1.254 0.224 0.026 0.453 0.040 0.685 0.040 1.346 0 2.586-0.445 3.57-1.194-1.258-0.021-2.32-0.828-2.684-1.935 0.175 0.033 0.356 0.050 0.541 0.050 0.261 0 0.516-0.034 0.756-0.098-1.314-0.255-2.305-1.382-2.305-2.733 0-0.012 0-0.024 0-0.036 0.388 0.209 0.83 0.335 1.302 0.349-0.772-0.5-1.279-1.353-1.279-2.32 0-0.511 0.142-0.99 0.389-1.401 1.417 1.686 3.534 2.796 5.923 2.912-0.049-0.204-0.075-0.418-0.075-0.635 0-1.54 1.287-2.788 2.875-2.788M15.003 3.786h0.002M10.694 1.48c-1.963 0-3.59 1.435-3.841 3.288-1.607-0.323-3.067-1.173-4.117-2.421-0.191-0.227-0.471-0.357-0.765-0.357-0.026 0-0.052 0.001-0.079 0.003-0.322 0.026-0.611 0.205-0.778 0.481-0.349 0.579-0.533 1.241-0.533 1.917 0 0.451 0.081 0.89 0.235 1.3-0.163 0.182-0.258 0.42-0.258 0.67v0.036c0 0.979 0.387 1.889 1.030 2.57-0.037 0.171-0.029 0.351 0.028 0.523 0.222 0.675 0.626 1.256 1.149 1.699-0.352 0.078-0.714 0.118-1.085 0.118-0.196 0-0.386-0.011-0.567-0.033-0.040-0.005-0.079-0.007-0.119-0.007-0.42 0-0.801 0.265-0.943 0.668-0.155 0.443 0.017 0.933 0.415 1.181 1.477 0.919 3.183 1.404 4.933 1.404 5.688 0 9.11-4.453 9.176-8.802 0.466-0.385 0.877-0.831 1.226-1.33 0.127-0.167 0.203-0.375 0.203-0.602 0-0.34-0.17-0.641-0.43-0.822 0.112-0.385-0.016-0.801-0.328-1.056-0.182-0.149-0.406-0.224-0.631-0.224-0.172 0-0.344 0.044-0.499 0.134-0.331 0.191-0.684 0.341-1.056 0.45-0.674-0.507-1.508-0.789-2.366-0.789v0z"></path>
</svg>
