<?xml version="1.0" encoding="utf-8"?>
<!-- Generated by IcoMoon.io -->
<!DOCTYPE svg PUBLIC "-//W3C//DTD SVG 1.1//EN" "http://www.w3.org/Graphics/SVG/1.1/DTD/svg11.dtd">
<svg version="1.1" xmlns="http://www.w3.org/2000/svg" xmlns:xlink="http://www.w3.org/1999/xlink" width="16" height="16" viewBox="0 0 16 16">
<path d="M15 0.994h-14c-0.552 0-1 0.448-1 1v9.024c0 0.552 0.448 1 1 1h1.993v2.489c0 0.202 0.121 0.383 0.307 0.461 0.063 0.026 0.128 0.039 0.193 0.039 0.129 0 0.255-0.050 0.35-0.143l2.891-2.846h8.266c0.552 0 1-0.448 1-1v-9.024c0-0.552-0.448-1-1-1zM15 11.017h-8.675l-2.332 2.296v-2.296h-2.993v-9.023h14v9.023zM3.5 7.016h9c0.276 0 0.5-0.224 0.5-0.5s-0.224-0.5-0.5-0.5h-9c-0.276 0-0.5 0.224-0.5 0.5s0.224 0.5 0.5 0.5zM3.5 5.016h9c0.276 0 0.5-0.224 0.5-0.5s-0.224-0.5-0.5-0.5h-9c-0.276 0-0.5 0.224-0.5 0.5s0.224 0.5 0.5 0.5zM3.5 9.016h6c0.276 0 0.5-0.224 0.5-0.5s-0.224-0.5-0.5-0.5h-6c-0.276 0-0.5 0.224-0.5 0.5s0.224 0.5 0.5 0.5z"></path>
</svg>
