<?xml version="1.0" encoding="utf-8"?>
<!-- Generated by IcoMoon.io -->
<!DOCTYPE svg PUBLIC "-//W3C//DTD SVG 1.1//EN" "http://www.w3.org/Graphics/SVG/1.1/DTD/svg11.dtd">
<svg version="1.1" xmlns="http://www.w3.org/2000/svg" xmlns:xlink="http://www.w3.org/1999/xlink" width="16" height="16" viewBox="0 0 16 16">
<path d="M8 0.565c-4.406 0-7.99 3.585-7.99 7.99 0 2.768 1.401 5.3 3.748 6.772 0.233 0.148 0.542 0.076 0.689-0.158s0.076-0.543-0.158-0.689c-0.845-0.53-1.548-1.22-2.085-2.014l0.524-0.303c0.239-0.138 0.321-0.444 0.183-0.683s-0.445-0.321-0.683-0.183l-0.525 0.303c-0.381-0.789-0.614-1.653-0.676-2.553h0.556c0.276 0 0.5-0.224 0.5-0.5s-0.224-0.5-0.5-0.5h-0.554c0.066-0.917 0.309-1.786 0.696-2.572l0.503 0.29c0.079 0.045 0.164 0.067 0.249 0.067 0.173 0 0.341-0.090 0.433-0.25 0.138-0.239 0.056-0.545-0.183-0.683l-0.498-0.287c0.502-0.732 1.139-1.364 1.875-1.86l0.282 0.487c0.093 0.161 0.261 0.25 0.434 0.25 0.085 0 0.171-0.022 0.25-0.067 0.239-0.138 0.321-0.444 0.183-0.683l-0.28-0.486c0.771-0.372 1.62-0.604 2.515-0.669v0.623c0 0.276 0.224 0.5 0.5 0.5s0.5-0.224 0.5-0.5v-0.625c0.915 0.064 1.783 0.303 2.569 0.687l-0.271 0.47c-0.138 0.239-0.056 0.545 0.183 0.683 0.079 0.046 0.165 0.067 0.249 0.067 0.173 0 0.341-0.089 0.434-0.25l0.27-0.468c0.729 0.497 1.361 1.127 1.857 1.857l-0.468 0.271c-0.239 0.138-0.321 0.444-0.183 0.683 0.093 0.161 0.261 0.25 0.434 0.25 0.085 0 0.171-0.021 0.249-0.067l0.471-0.272c0.384 0.785 0.624 1.654 0.688 2.569h-0.549c-0.276 0-0.5 0.224-0.5 0.5s0.224 0.5 0.5 0.5h0.549c-0.063 0.889-0.29 1.741-0.664 2.521l-0.495-0.286c-0.239-0.138-0.546-0.056-0.683 0.183s-0.056 0.545 0.183 0.683l0.496 0.287c-0.549 0.816-1.273 1.522-2.146 2.060-0.235 0.145-0.308 0.453-0.164 0.688 0.095 0.153 0.258 0.238 0.426 0.238 0.089 0 0.18-0.024 0.262-0.074 2.382-1.467 3.804-4.012 3.804-6.807 0-4.405-3.585-7.99-7.99-7.99zM11.689 6.996c0.239-0.138 0.321-0.444 0.183-0.683s-0.444-0.321-0.683-0.183l-2.716 1.568c-0.145-0.082-0.31-0.133-0.489-0.133-0.551 0-0.998 0.447-0.998 0.997s0.447 0.998 0.998 0.998c0.551 0 0.998-0.447 0.998-0.998 0-0.001-0-0.002-0-0.003l2.707-1.563z"></path>
</svg>
