<?xml version="1.0" encoding="utf-8"?>
<!-- Generated by IcoMoon.io -->
<!DOCTYPE svg PUBLIC "-//W3C//DTD SVG 1.1//EN" "http://www.w3.org/Graphics/SVG/1.1/DTD/svg11.dtd">
<svg version="1.1" xmlns="http://www.w3.org/2000/svg" xmlns:xlink="http://www.w3.org/1999/xlink" width="16" height="16" viewBox="0 0 16 16">
<path d="M8 1.211l2.148 4.455 4.884 0.726-3.538 3.529 0.119 0.708 0.707 4.221-4.322-2.325-4.322 2.326 0.708-4.222 0.119-0.708-3.537-3.529 4.884-0.726 0.321-0.665 1.827-3.789M8 0.243c-0.448 0-0.856 0.253-1.046 0.648l-1.811 3.76-4.167 0.62c-0.428 0.064-0.783 0.356-0.921 0.756-0.138 0.401-0.034 0.842 0.269 1.143l3.053 3.050-0.708 4.229c-0.071 0.426 0.113 0.854 0.474 1.103 0.199 0.136 0.432 0.206 0.666 0.206 0.193 0 0.385-0.047 0.559-0.14l3.633-1.956 3.633 1.956c0.175 0.094 0.367 0.14 0.559 0.14 0.234 0 0.467-0.069 0.666-0.206 0.361-0.249 0.546-0.677 0.474-1.103l-0.709-4.229 3.055-3.050c0.302-0.301 0.406-0.742 0.268-1.143s-0.494-0.692-0.921-0.756l-4.166-0.62-1.812-3.76c-0.189-0.396-0.598-0.648-1.046-0.648v0z"></path>
</svg>
