<?xml version="1.0" encoding="utf-8"?>
<!-- Generated by IcoMoon.io -->
<!DOCTYPE svg PUBLIC "-//W3C//DTD SVG 1.1//EN" "http://www.w3.org/Graphics/SVG/1.1/DTD/svg11.dtd">
<svg version="1.1" xmlns="http://www.w3.org/2000/svg" xmlns:xlink="http://www.w3.org/1999/xlink" width="16" height="16" viewBox="0 0 16 16">
<path d="M8 0c-4.418 0-8 3.582-8 8s3.582 8 8 8 8-3.582 8-8-3.582-8-8-8zM10 1.296c2.253 0.672 4.026 2.45 4.698 4.704h-3.243c-0.35-0.602-0.853-1.104-1.455-1.454v-3.249zM10.994 8.003c0 1.655-1.341 2.997-2.994 2.997s-2.994-1.342-2.994-2.997 1.341-2.997 2.994-2.997 2.994 1.342 2.994 2.997zM7 1.077c0.327-0.047 0.66-0.072 1-0.072s0.673 0.026 1 0.072v3.059c-0.32-0.083-0.654-0.131-1-0.131s-0.68 0.048-1 0.131v-3.059zM6 1.296v3.249c-0.603 0.35-1.105 0.852-1.455 1.454h-3.243c0.672-2.253 2.445-4.032 4.698-4.704zM1.005 8.002c0-0.341 0.029-0.675 0.076-1.002h3.053c-0.083 0.321-0.129 0.656-0.129 1.003 0 0.345 0.045 0.678 0.128 0.997h-3.053c-0.046-0.326-0.075-0.659-0.075-0.998zM6 14.708c-2.255-0.672-4.028-2.453-4.7-4.708h3.242c0.351 0.604 0.854 1.108 1.458 1.459v3.249zM9 14.928c-0.327 0.047-0.661 0.072-1 0.072s-0.673-0.026-1-0.072v-3.059c0.32 0.083 0.654 0.131 1 0.131s0.68-0.049 1-0.131v3.059zM10 14.708v-3.249c0.604-0.351 1.108-0.855 1.458-1.459h3.242c-0.672 2.255-2.445 4.036-4.7 4.708zM11.867 9c0.082-0.319 0.127-0.652 0.127-0.997 0-0.347-0.046-0.682-0.129-1.003h3.053c0.047 0.328 0.076 0.662 0.076 1.003 0 0.339-0.029 0.671-0.075 0.998h-3.053z"></path>
</svg>
