<?xml version="1.0" encoding="utf-8"?>
<!-- Generated by IcoMoon.io -->
<!DOCTYPE svg PUBLIC "-//W3C//DTD SVG 1.1//EN" "http://www.w3.org/Graphics/SVG/1.1/DTD/svg11.dtd">
<svg version="1.1" xmlns="http://www.w3.org/2000/svg" xmlns:xlink="http://www.w3.org/1999/xlink" width="16" height="16" viewBox="0 0 16 16">
<path d="M15.989 0.354c0.002-0.101-0.021-0.192-0.087-0.257s-0.155-0.105-0.256-0.102l-0.183 0.004c-0.004 0-0.006 0.001-0.010 0.002l-4.586-0.016c-0.202 0.004-0.369 0.172-0.374 0.374l-0.001 0.257c0.031 0.238 0.218 0.377 0.42 0.373l3.363 0.007-4.002 3.978c-1.086-0.91-2.485-1.459-4.012-1.459-3.452 0-6.25 2.798-6.25 6.25s2.798 6.25 6.25 6.25c3.452 0 6.25-2.798 6.25-6.25 0-1.564-0.576-2.993-1.526-4.089l4.014-3.989-0.015 3.424c-0.005 0.202 0.155 0.378 0.358 0.373l0.257-0c0.203-0.005 0.37-0.125 0.374-0.327l0.011-4.609c0-0.004-0.014-0.006-0.014-0.010l0.020-0.183zM11.519 9.765c0 2.904-2.354 5.258-5.258 5.258s-5.258-2.354-5.258-5.258 2.354-5.258 5.258-5.258c2.904-0 5.258 2.354 5.258 5.258z"></path>
</svg>
