<?xml version="1.0" encoding="utf-8"?>
<!-- Generated by IcoMoon.io -->
<!DOCTYPE svg PUBLIC "-//W3C//DTD SVG 1.1//EN" "http://www.w3.org/Graphics/SVG/1.1/DTD/svg11.dtd">
<svg version="1.1" xmlns="http://www.w3.org/2000/svg" xmlns:xlink="http://www.w3.org/1999/xlink" width="16" height="16" viewBox="0 0 16 16">
<path d="M9.745-0.004c-3.452 0-6.25 2.798-6.25 6.25 0 1.539 0.558 2.948 1.48 4.037l-1.989 2.002-2.114-2.133c-0.195-0.195-0.512-0.195-0.707 0s-0.195 0.512 0 0.707l2.115 2.136-2.131 2.143c-0.195 0.195-0.195 0.512 0 0.707s0.512 0.195 0.707 0l2.127-2.14 2.132 2.152c0.195 0.195 0.512 0.195 0.707 0s0.195-0.512 0-0.707l-2.135-2.155 1.991-2.003c1.093 0.937 2.512 1.505 4.065 1.505 3.452 0 6.25-2.798 6.25-6.25s-2.798-6.25-6.25-6.25zM9.745 11.505c-2.904 0-5.258-2.354-5.258-5.258s2.354-5.258 5.258-5.258 5.258 2.354 5.258 5.258c0 2.904-2.354 5.258-5.258 5.258z"></path>
</svg>
