<?xml version="1.0" encoding="utf-8"?>
<!-- Generated by IcoMoon.io -->
<!DOCTYPE svg PUBLIC "-//W3C//DTD SVG 1.1//EN" "http://www.w3.org/Graphics/SVG/1.1/DTD/svg11.dtd">
<svg version="1.1" xmlns="http://www.w3.org/2000/svg" xmlns:xlink="http://www.w3.org/1999/xlink" width="16" height="16" viewBox="0 0 16 16">
<path d="M16 6.504v-5.287c0-0.671-0.546-1.217-1.217-1.217h-5.396c-0.339 0-0.851 0-1.186 0.335l-7.905 7.906c-0.19 0.19-0.295 0.442-0.295 0.711s0.104 0.521 0.294 0.712l6.044 6.043c0.189 0.19 0.442 0.295 0.71 0.295s0.521-0.104 0.711-0.294l7.905-7.906c0.339-0.338 0.337-0.825 0.335-1.295zM14.958 7.093l-7.913 7.905-6.043-6.050 7.897-7.899c0.079-0.049 0.366-0.049 0.484-0.049l0.225 0.001 5.175-0.001c0.12 0 0.217 0.097 0.217 0.217v5.291c0.001 0.19 0.002 0.508-0.042 0.585zM12 2c-1.104 0-2 0.896-2 2s0.896 2 2 2 2-0.896 2-2-0.896-2-2-2zM12 5c-0.552 0-1-0.448-1-1s0.448-1 1-1 1 0.448 1 1-0.448 1-1 1z"></path>
</svg>
