<?xml version="1.0" encoding="utf-8"?>
<!-- Generated by IcoMoon.io -->
<!DOCTYPE svg PUBLIC "-//W3C//DTD SVG 1.1//EN" "http://www.w3.org/Graphics/SVG/1.1/DTD/svg11.dtd">
<svg version="1.1" xmlns="http://www.w3.org/2000/svg" xmlns:xlink="http://www.w3.org/1999/xlink" width="16" height="16" viewBox="0 0 16 16">
<path d="M15.5 7.5h-1.523c-0.241-2.915-2.563-5.235-5.477-5.476v-1.524c0-0.276-0.224-0.5-0.5-0.5s-0.5 0.224-0.5 0.5v1.524c-2.914 0.241-5.237 2.561-5.478 5.476h-1.522c-0.276 0-0.5 0.224-0.5 0.5s0.224 0.5 0.5 0.5h1.522c0.241 2.914 2.564 5.235 5.478 5.476v1.524c0 0.276 0.224 0.5 0.5 0.5s0.5-0.224 0.5-0.5v-1.524c2.914-0.241 5.237-2.562 5.477-5.476h1.523c0.276 0 0.5-0.224 0.5-0.5s-0.224-0.5-0.5-0.5zM7.5 3.025v4.475h-4.476c0.235-2.362 2.113-4.241 4.476-4.475zM3.024 8.5h4.476v4.475c-2.362-0.235-4.241-2.113-4.476-4.475zM8.5 12.975v-4.475h4.476c-0.235 2.363-2.113 4.241-4.476 4.475zM8.5 7.5v-4.475c2.363 0.235 4.241 2.113 4.476 4.475h-4.476z"></path>
</svg>
