<?xml version="1.0" encoding="utf-8"?>
<!-- Generated by IcoMoon.io -->
<!DOCTYPE svg PUBLIC "-//W3C//DTD SVG 1.1//EN" "http://www.w3.org/Graphics/SVG/1.1/DTD/svg11.dtd">
<svg version="1.1" xmlns="http://www.w3.org/2000/svg" xmlns:xlink="http://www.w3.org/1999/xlink" width="16" height="16" viewBox="0 0 16 16">
<path d="M14.012 2.485h-3.52v-1.363c0-0.633-0.516-1.133-1.149-1.133h-2.687c-0.633 0-1.149 0.499-1.149 1.133v1.363h-3.52c-0.276 0-0.5 0.224-0.5 0.5s0.224 0.5 0.5 0.5h0.688l1.16 11.561c0.049 0.541 0.51 0.965 1.049 0.965h6.231c0.54 0 1-0.424 1.048-0.96l1.161-11.566h0.688c0.276 0 0.5-0.224 0.5-0.5s-0.224-0.5-0.5-0.5zM6.508 1.121c0-0.082 0.067-0.148 0.149-0.148h2.687c0.082 0 0.149 0.067 0.149 0.148v1.363h-2.985v-1.363zM11.168 14.956c-0.002 0.028-0.035 0.055-0.053 0.055h-6.231c-0.018 0-0.051-0.027-0.053-0.060l-1.151-11.466h8.639l-1.151 11.471z"></path>
</svg>
