<?xml version="1.0" encoding="utf-8"?>
<!-- Generated by IcoMoon.io -->
<!DOCTYPE svg PUBLIC "-//W3C//DTD SVG 1.1//EN" "http://www.w3.org/Graphics/SVG/1.1/DTD/svg11.dtd">
<svg version="1.1" xmlns="http://www.w3.org/2000/svg" xmlns:xlink="http://www.w3.org/1999/xlink" width="16" height="16" viewBox="0 0 16 16">
<path d="M16.005 7.962c0 0.276-0.223 0.5-0.499 0.5h-7.014v5.066c0 1.362-1.108 2.47-2.47 2.47s-2.47-1.108-2.47-2.47c0-0.276 0.224-0.5 0.5-0.5s0.5 0.224 0.5 0.5c0 0.811 0.66 1.471 1.471 1.471s1.471-0.66 1.471-1.471v-5.066h-6.998c-0.276 0-0.5-0.224-0.5-0.5 0-3.864 2.827-6.314 7.498-6.476v-0.984c0-0.276 0.224-0.499 0.5-0.499s0.5 0.224 0.5 0.499v0.984c4.672 0.162 7.513 2.612 7.513 6.476zM14.987 7.463c-0.246-3.133-2.795-4.986-6.995-4.986s-6.733 1.853-6.979 4.986h13.974z"></path>
</svg>
