<?xml version="1.0" encoding="utf-8"?>
<!-- Generated by IcoMoon.io -->
<!DOCTYPE svg PUBLIC "-//W3C//DTD SVG 1.1//EN" "http://www.w3.org/Graphics/SVG/1.1/DTD/svg11.dtd">
<svg version="1.1" xmlns="http://www.w3.org/2000/svg" xmlns:xlink="http://www.w3.org/1999/xlink" width="16" height="16" viewBox="0 0 16 16">
<path d="M11.656 13.051l-3.148-1.744c1.17-0.921 1.488-2.729 1.488-3.744v-2.111c0-1.398-1.857-2.955-3.723-2.955s-3.772 1.557-3.772 2.955v2.111c0 0.922 0.39 2.788 1.572 3.736l-3.229 1.752c0 0-0.844 0.376-0.844 0.845v1.267c0 0.466 0.379 0.845 0.844 0.845h10.813c0.466 0 0.844-0.379 0.844-0.845v-1.267c0-0.497-0.844-0.845-0.844-0.845zM11.501 15.008h-10.501v-0.894c0.072-0.052 0.172-0.113 0.251-0.149 0.024-0.011 0.047-0.022 0.069-0.035l3.229-1.752c0.295-0.16 0.49-0.456 0.519-0.79s-0.109-0.66-0.37-0.87c-0.838-0.672-1.198-2.161-1.198-2.955v-2.111c0-0.718 1.354-1.955 2.772-1.955 1.444 0 2.723 1.22 2.723 1.955v2.111c0 0.783-0.243 2.279-1.106 2.958-0.264 0.208-0.406 0.535-0.378 0.87s0.223 0.633 0.517 0.794l3.148 1.744c0.028 0.015 0.063 0.032 0.092 0.044 0.074 0.031 0.165 0.084 0.231 0.13v0.905zM15.156 10.562l-3.195-1.744c1.17-0.92 1.535-2.729 1.535-3.744v-2.111c0-1.398-1.904-2.971-3.77-2.971-1.213 0-2.452 0.659-3.174 1.504 0.412 0.026 0.865 0.026 1.257 0.151 0.527-0.41 1.193-0.654 1.917-0.654 1.444 0 2.77 1.235 2.77 1.971v2.111c0 0.783-0.29 2.279-1.153 2.958-0.264 0.208-0.406 0.535-0.379 0.87s0.223 0.633 0.518 0.794l3.195 1.744c0.028 0.015 0.063 0.032 0.092 0.044 0.074 0.031 0.165 0.084 0.231 0.13v0.889h-2.018c0.305 0.23 0.397 0.559 0.515 1h1.659c0.466 0 0.844-0.379 0.844-0.845v-1.252c-0-0.498-0.845-0.845-0.845-0.845z"></path>
</svg>
