<?xml version="1.0" encoding="utf-8"?>
<!-- Generated by IcoMoon.io -->
<!DOCTYPE svg PUBLIC "-//W3C//DTD SVG 1.1//EN" "http://www.w3.org/Graphics/SVG/1.1/DTD/svg11.dtd">
<svg version="1.1" xmlns="http://www.w3.org/2000/svg" xmlns:xlink="http://www.w3.org/1999/xlink" width="16" height="16" viewBox="0 0 16 16">
<path d="M15.001 12.542l-4.351-2.063c0.581-0.291 2.848-0.383 3.035-0.895 0 0-0.896-1.375-1.115-3.162-0.085-0.693-0.23-1.603-0.375-2.884-0.235-2.078-1.982-3.538-4.191-3.538-0.001 0-0.003 0-0.004 0s-0.003 0-0.004 0c-2.208 0-3.956 1.46-4.19 3.538-0.144 1.281-0.29 2.191-0.375 2.884-0.219 1.787-1.115 3.162-1.115 3.162 0.188 0.512 2.454 0.604 3.035 0.895l-4.352 2.064c0 0-1 0.351-1 1.179v1.321c0 0.553 0.447 0.958 1 0.958h14.001c0.552 0 1-0.405 1-0.958v-1.321c0-0.828-0.999-1.179-0.999-1.179zM1 15v-1.279c0-0.053 0.189-0.181 0.343-0.24 0.033-0.012 0.054-0.021 0.085-0.036l4.351-2.063c0.346-0.164 0.567-0.511 0.572-0.893s-0.21-0.734-0.552-0.905c-0.339-0.17-0.787-0.254-1.488-0.376-0.167-0.029-0.394-0.070-0.615-0.114 0.286-0.642 0.603-1.54 0.727-2.557 0.031-0.253 0.070-0.538 0.114-0.853 0.076-0.537 0.17-1.217 0.262-2.035 0.175-1.545 1.489-2.649 3.197-2.649 0.001 0 0.003 0 0.004 0s0.003 0 0.004 0c1.708 0 3.022 1.105 3.197 2.65 0.092 0.818 0.186 1.498 0.262 2.035 0.044 0.315 0.084 0.6 0.114 0.853 0.124 1.016 0.441 1.914 0.727 2.557-0.221 0.044-0.448 0.085-0.615 0.114-0.702 0.121-1.149 0.206-1.488 0.376-0.342 0.171-0.556 0.523-0.552 0.905s0.226 0.729 0.572 0.893l4.351 2.063c0.031 0.015 0.052 0.024 0.085 0.036 0.154 0.059 0.32 0.187 0.343 0.24l0.001 1.278h-14.001z"></path>
</svg>
