<?xml version="1.0" encoding="utf-8"?>
<!-- Generated by IcoMoon.io -->
<!DOCTYPE svg PUBLIC "-//W3C//DTD SVG 1.1//EN" "http://www.w3.org/Graphics/SVG/1.1/DTD/svg11.dtd">
<svg version="1.1" xmlns="http://www.w3.org/2000/svg" xmlns:xlink="http://www.w3.org/1999/xlink" width="16" height="16" viewBox="0 0 16 16">
<path d="M12.486 5.998v-2.499c0-1.655-2.291-3.498-4.498-3.498s-4.502 1.843-4.502 3.498v2.499c0 1.092 0.498 3.3 1.897 4.423l-4.391 2.072c0 0-0.999 0.445-0.999 0.999v1.501c0 0.552 0.448 0.999 0.999 0.999h9.499v-1l-9.498 0.001v-1.015c0-0.398 0.298-0.522 0.417-0.577l4.391-2.072c0.315-0.145 0.532-0.443 0.574-0.787s-0.096-0.685-0.367-0.902c-1.039-0.834-1.523-2.667-1.523-3.644v-2.499c0-1.045 1.819-2.498 3.502-2.498 1.698 0 3.498 1.43 3.498 2.498v2.499c0 0.962-0.4 2.802-1.472 3.646-0.274 0.215-0.416 0.557-0.374 0.903 0.040 0.346 0.259 0.646 0.576 0.791l0.283 0.13 0.438-0.809-0.305-0.23c1.385-1.089 1.854-3.231 1.854-4.431zM14.447 13.731l1.414-1.414c0.195-0.195 0.195-0.512 0-0.707s-0.512-0.195-0.707 0l-1.414 1.415-1.414-1.415c-0.195-0.195-0.512-0.195-0.707 0s-0.195 0.512 0 0.707l1.414 1.414-1.414 1.414c-0.195 0.195-0.195 0.512 0 0.707s0.512 0.195 0.707 0l1.414-1.414 1.414 1.414c0.195 0.195 0.512 0.195 0.707 0s0.195-0.512 0-0.707l-1.414-1.414z"></path>
</svg>
