<?xml version="1.0" encoding="utf-8"?>
<!-- Generated by IcoMoon.io -->
<!DOCTYPE svg PUBLIC "-//W3C//DTD SVG 1.1//EN" "http://www.w3.org/Graphics/SVG/1.1/DTD/svg11.dtd">
<svg version="1.1" xmlns="http://www.w3.org/2000/svg" xmlns:xlink="http://www.w3.org/1999/xlink" width="16" height="16" viewBox="0 0 16 16">
<path d="M0.992 14.996v-1.015c0-0.398 0.299-0.522 0.417-0.577l4.391-2.072c0.315-0.145 0.532-0.443 0.574-0.786s-0.096-0.685-0.367-0.902c-1.039-0.834-1.523-2.667-1.523-3.643v-2.499c0-1.045 1.819-2.498 3.502-2.498 1.698 0 3.499 1.43 3.499 2.498v2.499c0 0.962-0.4 2.802-1.473 3.646-0.274 0.215-0.415 0.557-0.374 0.903s0.259 0.646 0.576 0.791l2.535 1.207 0.596-0.845-2.713-1.271c1.385-1.090 1.854-3.232 1.854-4.432v-2.499c0-1.655-2.291-3.498-4.499-3.498s-4.502 1.843-4.502 3.498v2.499c0 1.092 0.498 3.301 1.897 4.423l-4.391 2.073c0 0-0.999 0.445-0.999 0.999v1.501c0 0.552 0.448 0.999 0.999 0.999h9.995l-0.813-1-9.182 0zM15.816 11.305c-0.217-0.171-0.532-0.132-0.702 0.085l-2.138 3.261-1.329-1.329c-0.195-0.195-0.512-0.195-0.707 0s-0.195 0.512 0 0.707l1.768 1.768c0.195 0.195 0.512 0.195 0.707 0 0.047-0.047 0.083-0.102 0.107-0.161l2.38-3.63c0.17-0.217 0.132-0.531-0.086-0.701z"></path>
</svg>
