<?xml version="1.0" encoding="utf-8"?>
<!-- Generated by IcoMoon.io -->
<!DOCTYPE svg PUBLIC "-//W3C//DTD SVG 1.1//EN" "http://www.w3.org/Graphics/SVG/1.1/DTD/svg11.dtd">
<svg version="1.1" xmlns="http://www.w3.org/2000/svg" xmlns:xlink="http://www.w3.org/1999/xlink" width="16" height="16" viewBox="0 0 16 16">
<path d="M15.5 10.5h-0.504v-0.025c0-2.53-1.352-4.747-3.37-5.975h2.513c0.173 0.298 0.492 0.5 0.861 0.5 0.552 0 1-0.448 1-1s-0.448-1-1-1c-0.369 0-0.688 0.203-0.861 0.5h-4.639v-0.5c0-0.276-0.224-0.5-0.5-0.5h-2c-0.276 0-0.5 0.224-0.5 0.5v0.5h-4.639c-0.173-0.297-0.492-0.5-0.861-0.5-0.552 0-1 0.448-1 1s0.448 1 1 1c0.369 0 0.688-0.202 0.861-0.5h2.513c-2.018 1.228-3.369 3.445-3.369 5.975v0.025h-0.504c-0.276 0-0.5 0.224-0.5 0.5v2c0 0.276 0.224 0.5 0.5 0.5h2c0.276 0 0.5-0.224 0.5-0.5v-2c0-0.276-0.224-0.5-0.5-0.5h-0.496v-0.025c0-2.788 1.913-5.136 4.496-5.803v0.328c0 0.276 0.224 0.5 0.5 0.5h2c0.276 0 0.5-0.224 0.5-0.5v-0.328c2.582 0.668 4.496 3.015 4.496 5.803v0.025h-0.496c-0.276 0-0.5 0.224-0.5 0.5v2c0 0.276 0.224 0.5 0.5 0.5h2c0.276 0 0.5-0.224 0.5-0.5v-2c0-0.276-0.224-0.5-0.5-0.5zM2 12.5h-1v-1h1v1zM8.5 4.5h-1v-1h1v1zM15 12.5h-1v-1h1v1z"></path>
</svg>
