<?xml version="1.0" encoding="utf-8"?>
<!-- Generated by IcoMoon.io -->
<!DOCTYPE svg PUBLIC "-//W3C//DTD SVG 1.1//EN" "http://www.w3.org/Graphics/SVG/1.1/DTD/svg11.dtd">
<svg version="1.1" xmlns="http://www.w3.org/2000/svg" xmlns:xlink="http://www.w3.org/1999/xlink" width="16" height="16" viewBox="0 0 16 16">
<path d="M8.993 1.030c-0.163-0.087-0.361-0.077-0.514 0.026l-5.017 3.939-1.666 0.001c-0.852 0-1.545 0.604-1.545 1.35l0.027 3.299c0 0.743 0.693 1.347 1.545 1.347l1.665 0.001 4.99 3.949c0.084 0.057 0.182 0.085 0.28 0.085 0.081 0 0.161-0.020 0.235-0.059 0.164-0.086 0.266-0.256 0.266-0.441v-13.057c0-0.185-0.102-0.355-0.265-0.442zM8.258 13.588l-4.338-3.508c-0.083-0.056-0.18-0.085-0.28-0.085l-1.819-0.001c-0.321 0-0.545-0.183-0.545-0.351l-0.027-3.299c0-0.164 0.224-0.346 0.545-0.346l1.819-0.001c0.099 0 0.196-0.030 0.279-0.085l4.364-3.5v11.178zM13.969 8.008l1.634-1.654c0.195-0.195 0.195-0.512 0-0.707s-0.512-0.195-0.707 0l-1.63 1.649-1.63-1.649c-0.195-0.195-0.512-0.195-0.707 0s-0.195 0.512 0 0.707l1.634 1.654-1.619 1.638c-0.195 0.195-0.195 0.512 0 0.707s0.512 0.195 0.707 0l1.614-1.633 1.614 1.633c0.195 0.195 0.512 0.195 0.707 0s0.195-0.512 0-0.707l-1.618-1.638z"></path>
</svg>
