<?xml version="1.0" encoding="utf-8"?>
<!-- Generated by IcoMoon.io -->
<!DOCTYPE svg PUBLIC "-//W3C//DTD SVG 1.1//EN" "http://www.w3.org/Graphics/SVG/1.1/DTD/svg11.dtd">
<svg version="1.1" xmlns="http://www.w3.org/2000/svg" xmlns:xlink="http://www.w3.org/1999/xlink" width="16" height="16" viewBox="0 0 16 16">
<path d="M15.995 4.539c0.007-0.37-0.092-1.232-1.216-1.532l-11.288-2.26c-0.827 0-1.5 0.673-1.5 1.5v2.011l-0.5-0.001c-0.824 0.003-1.494 0.674-1.494 1.5v7.997c0 0.827 0.673 1.5 1.5 1.5h13.007c0.827 0 1.5-0.673 1.5-1.5l-0.009-9.214zM2.99 2.247c0-0.261 0.201-0.476 0.457-0.498l11.031 2.232c0.004 0.002-0.082 0.28-0.482 0.275h-11.005v-2.010zM15.004 13.753c0 0.276-0.224 0.5-0.5 0.5h-13.008c-0.276 0-0.5-0.224-0.5-0.5v-7.997c0-0.276 0.224-0.5 0.5-0.5h12.501c0.491 0 1.006-0.167 1.006-0.498v8.995zM2.997 8.758c-0.552 0-1 0.448-1 1s0.448 1 1 1 1-0.448 1-1-0.448-1-1-1z"></path>
</svg>
