<?xml version="1.0" encoding="utf-8"?>
<!-- Generated by IcoMoon.io -->
<!DOCTYPE svg PUBLIC "-//W3C//DTD SVG 1.1//EN" "http://www.w3.org/Graphics/SVG/1.1/DTD/svg11.dtd">
<svg version="1.1" xmlns="http://www.w3.org/2000/svg" xmlns:xlink="http://www.w3.org/1999/xlink" width="16" height="16" viewBox="0 0 16 16">
<path d="M15.725 3.374c-0.168-0.078-0.368-0.048-0.509 0.076l-2.521 2.264-2.275-2.334 2.253-2.602c0.123-0.141 0.152-0.337 0.076-0.508s-0.245-0.277-0.43-0.277h-0.136c-1.393 0-3.796 0.12-4.87 1.208l-0.216 0.215c-1.145 1.168-1.348 3.084-0.745 4.54l-5.77 5.889c-0.778 0.789-0.778 2.067 0 2.857l0.704 0.714c0.389 0.394 0.899 0.592 1.409 0.592s1.020-0.197 1.409-0.591l5.855-5.902c0.554 0.299 1.313 0.495 1.95 0.495 1.021 0 1.99-0.412 2.727-1.16l0.213-0.216c1.166-1.182 1.148-3.708 1.153-4.819 0-0.189-0.108-0.361-0.277-0.439zM14.151 7.953l-0.185 0.217c-0.559 0.567-1.289 0.838-2.057 0.838-0.38 0-0.892-0.072-1.238-0.216-0.313-0.13-0.603-0.317-0.863-0.553l-6.409 6.463c-0.188 0.191-0.438 0.296-0.704 0.296s-0.516-0.105-0.704-0.296l-0.704-0.714c-0.389-0.394-0.389-1.035-0-1.429l6.262-6.388c-0.21-0.306-0.353-0.639-0.438-0.984h-0c-0.241-0.975-0.101-2.322 0.657-3.095l0.215-0.218c0.649-0.659 2.335-0.854 3.269-0.911l-1.834 2.118c-0.164 0.189-0.156 0.475 0.019 0.654l2.899 2.974c0.176 0.181 0.46 0.191 0.649 0.024l2.041-1.838c-0.061 0.99-0.253 2.428-0.874 3.058z"></path>
</svg>
