<?xml version="1.0"?><svg xmlns="http://www.w3.org/2000/svg" width="40" height="40" viewBox="0 0 40 40"><path fill="#444" d="m0 32.5v-2.5h21.3v2.5h-21.3z m28.8 0v-2.5h6.2v2.5h-6.2z m-1.3 2.5c0 1.4-1.1 2.5-2.5 2.5s-2.5-1.1-2.5-2.5v-7.5c0-1.4 1.1-2.5 2.5-2.5s2.5 1.1 2.5 2.5v7.5z m-27.5-13.7v-2.5h6.3v2.5h-6.3z m13.8 0v-2.5h21.2v2.5h-21.2z m-1.3 2.5c0 1.4-1.1 2.5-2.5 2.5s-2.5-1.1-2.5-2.5v-7.5c0-1.5 1.1-2.5 2.5-2.5s2.5 1 2.5 2.5v7.5z m-12.5-13.8v-2.5h21.3v2.5h-21.3z m28.8 0v-2.5h6.2v2.5h-6.2z m-1.3 2.5c0 1.4-1.1 2.5-2.5 2.5s-2.5-1.1-2.5-2.5v-7.5c0-1.4 1.1-2.5 2.5-2.5s2.5 1.1 2.5 2.5v7.5z"></path></svg>