<?xml version="1.0"?><svg xmlns="http://www.w3.org/2000/svg" width="40" height="40" viewBox="0 0 40 40"><path fill="#444" d="m31.3 2.5c0.7 0 1.2 0.5 1.2 1.3v32.5c0 0.7-0.5 1.2-1.2 1.2h-22.5c-0.8 0-1.3-0.5-1.3-1.2v-32.5c0-0.8 0.5-1.3 1.3-1.3h22.5z m-20 13.8v2.5h2.5v-2.5h-2.5z m0 5v2.5h2.5v-2.5h-2.5z m0 5v2.5h2.5v-2.5h-2.5z m7.5 7.5v-2.5h-7.5v2.5h7.5z m0-5v-2.5h-2.5v2.5h2.5z m0-5v-2.5h-2.5v2.5h2.5z m0-5v-2.5h-2.5v2.5h2.5z m5 15v-2.5h-2.5v2.5h2.5z m0-5v-2.5h-2.5v2.5h2.5z m0-5v-2.5h-2.5v2.5h2.5z m0-5v-2.5h-2.5v2.5h2.5z m5 15v-7.5h-2.5v7.5h2.5z m0-10v-2.5h-2.5v2.5h2.5z m0-5v-2.5h-2.5v2.5h2.5z m0-6.3v-6.2h-17.5v6.2h17.5z"></path></svg>