<?xml version="1.0"?><svg xmlns="http://www.w3.org/2000/svg" width="40" height="40" viewBox="0 0 40 40"><path fill="#444" d="m12.5 12c0 0.3-0.2 0.5-0.5 0.5h-4c-0.3 0-0.5-0.2-0.5-0.5v-4c0-0.3 0.2-0.5 0.5-0.5h4c0.3 0 0.5 0.2 0.5 0.5v4z m10 0c0 0.3-0.2 0.5-0.5 0.5h-4c-0.3 0-0.5-0.2-0.5-0.5v-4c0-0.3 0.2-0.5 0.5-0.5h4c0.3 0 0.5 0.2 0.5 0.5v4z m10 0c0 0.3-0.2 0.5-0.5 0.5h-4c-0.3 0-0.5-0.2-0.5-0.5v-4c0-0.3 0.2-0.5 0.5-0.5h4c0.3 0 0.5 0.2 0.5 0.5v4z m-20 10c0 0.3-0.2 0.5-0.5 0.5h-4c-0.3 0-0.5-0.2-0.5-0.5v-4c0-0.3 0.2-0.5 0.5-0.5h4c0.3 0 0.5 0.2 0.5 0.5v4z m10 0c0 0.3-0.2 0.5-0.5 0.5h-4c-0.3 0-0.5-0.2-0.5-0.5v-4c0-0.3 0.2-0.5 0.5-0.5h4c0.3 0 0.5 0.2 0.5 0.5v4z m10 0c0 0.3-0.2 0.5-0.5 0.5h-4c-0.3 0-0.5-0.2-0.5-0.5v-4c0-0.3 0.2-0.5 0.5-0.5h4c0.3 0 0.5 0.2 0.5 0.5v4z m-20 10c0 0.3-0.2 0.5-0.5 0.5h-4c-0.3 0-0.5-0.2-0.5-0.5v-4c0-0.3 0.2-0.5 0.5-0.5h4c0.3 0 0.5 0.2 0.5 0.5v4z m10 0c0 0.3-0.2 0.5-0.5 0.5h-4c-0.3 0-0.5-0.2-0.5-0.5v-4c0-0.3 0.2-0.5 0.5-0.5h4c0.3 0 0.5 0.2 0.5 0.5v4z m10 0c0 0.3-0.2 0.5-0.5 0.5h-4c-0.3 0-0.5-0.2-0.5-0.5v-4c0-0.3 0.2-0.5 0.5-0.5h4c0.3 0 0.5 0.2 0.5 0.5v4z"></path></svg>