<?xml version="1.0"?><svg xmlns="http://www.w3.org/2000/svg" width="40" height="40" viewBox="0 0 40 40"><path fill="#444" d="m28.5 5c1.4 0 2.5 1.1 2.5 2.5v25c0 1.4-1.1 2.5-2.5 2.5h-17.5c-1.4 0-2.5-1.1-2.5-2.5v-25c0-1.4 1.1-2.5 2.5-2.5h17.5z m-0.6 16.9h-3.8v10h3.8v-10z m0-6.3h-3.8v3.8h3.8v-3.8z m-6.3 12.5h-3.7v3.8h3.7v-3.8z m0-6.2h-3.7v3.7h3.7v-3.7z m0-6.3h-3.7v3.8h3.7v-3.8z m-6.2 12.5h-3.8v3.8h3.8v-3.8z m0-6.2h-3.8v3.7h3.8v-3.7z m0-6.3h-3.8v3.8h3.8v-3.8z m-3.8-3.7h16.3v-3.8h-16.3v3.8z"></path></svg>