<?xml version="1.0"?><svg xmlns="http://www.w3.org/2000/svg" width="40" height="40" viewBox="0 0 40 40"><path fill="#444" d="m33.8 6.3h-27.5v27.5h27.5v-27.5z m1.2-1.3v30h-30v-30h30z m-20 8.1v-1.2h15v1.2h-15z m0 7.5v-1.2h15v1.2h-15z m0 7.5v-1.2h15v1.2h-15z m-5-15.6c0-0.9 0.4-1.2 1.3-1.2s1.2 0.3 1.2 1.2-0.4 1.3-1.2 1.3-1.3-0.4-1.3-1.3z m0 7.5c0-0.9 0.4-1.2 1.3-1.2s1.2 0.3 1.2 1.2-0.4 1.3-1.2 1.3-1.3-0.4-1.3-1.3z m0 7.5c0-0.9 0.4-1.2 1.3-1.2s1.2 0.3 1.2 1.2-0.4 1.3-1.2 1.3-1.3-0.4-1.3-1.3z"></path></svg>