<?xml version="1.0" encoding="utf-8"?>
<!-- Generated by IcoMoon.io -->
<!DOCTYPE svg PUBLIC "-//W3C//DTD SVG 1.1//EN" "http://www.w3.org/Graphics/SVG/1.1/DTD/svg11.dtd">
<svg version="1.1" xmlns="http://www.w3.org/2000/svg" xmlns:xlink="http://www.w3.org/1999/xlink" width="20" height="20" viewBox="0 0 20 20">
<path fill="#000000" d="M2.782 3.782c-1.794 1.794-2.782 4.18-2.782 6.718s0.988 4.923 2.782 6.718 4.18 2.782 6.718 2.782 4.923-0.988 6.718-2.782 2.782-4.18 2.782-6.717-0.988-4.923-2.782-6.718-4.18-2.782-6.718-2.782-4.923 0.988-6.718 2.782zM18 10.5c0 4.687-3.813 8.5-8.5 8.5s-8.5-3.813-8.5-8.5c0-4.687 3.813-8.5 8.5-8.5s8.5 3.813 8.5 8.5z"></path>
<path fill="#000000" d="M9.147 4.647l-4 4c-0.195 0.195-0.195 0.512 0 0.707s0.512 0.195 0.707 0l3.146-3.147v10.293c0 0.276 0.224 0.5 0.5 0.5s0.5-0.224 0.5-0.5v-10.293l3.147 3.146c0.195 0.195 0.512 0.195 0.707 0 0.098-0.098 0.146-0.226 0.146-0.353s-0.049-0.256-0.147-0.353l-4-4c-0.195-0.195-0.512-0.195-0.707 0z"></path>
</svg>
