<?xml version="1.0" encoding="utf-8"?>
<!-- Generated by IcoMoon.io -->
<!DOCTYPE svg PUBLIC "-//W3C//DTD SVG 1.1//EN" "http://www.w3.org/Graphics/SVG/1.1/DTD/svg11.dtd">
<svg version="1.1" xmlns="http://www.w3.org/2000/svg" xmlns:xlink="http://www.w3.org/1999/xlink" width="20" height="20" viewBox="0 0 20 20">
<path fill="#000000" d="M14.5 18h-10c-0.276 0-0.5-0.224-0.5-0.5s0.224-0.5 0.5-0.5h10c0.276 0 0.5 0.224 0.5 0.5s-0.224 0.5-0.5 0.5z"></path>
<path fill="#000000" d="M16.5 3c-0.276 0-0.5 0.224-0.5 0.5v15c0 0.276-0.224 0.5-0.5 0.5h-11c-0.827 0-1.5-0.673-1.5-1.5s0.673-1.5 1.5-1.5h9c0.827 0 1.5-0.673 1.5-1.5v-12c0-0.827-0.673-1.5-1.5-1.5h-10c-0.827 0-1.5 0.673-1.5 1.5v15c0 1.378 1.122 2.5 2.5 2.5h11c0.827 0 1.5-0.673 1.5-1.5v-15c0-0.276-0.224-0.5-0.5-0.5zM3.5 2h10c0.276 0 0.5 0.224 0.5 0.5v12c0 0.276-0.224 0.5-0.5 0.5h-9c-0.562 0-1.082 0.187-1.5 0.501v-13.001c0-0.276 0.224-0.5 0.5-0.5z"></path>
</svg>
