<?xml version="1.0" encoding="utf-8"?>
<!-- Generated by IcoMoon.io -->
<!DOCTYPE svg PUBLIC "-//W3C//DTD SVG 1.1//EN" "http://www.w3.org/Graphics/SVG/1.1/DTD/svg11.dtd">
<svg version="1.1" xmlns="http://www.w3.org/2000/svg" xmlns:xlink="http://www.w3.org/1999/xlink" width="20" height="20" viewBox="0 0 20 20">
<path fill="#000000" d="M2.782 3.782c1.794-1.794 4.18-2.782 6.718-2.782s4.923 0.988 6.718 2.782 2.782 4.18 2.782 6.717-0.988 4.923-2.782 6.718-4.18 2.782-6.718 2.782-4.923-0.988-6.718-2.782-2.782-4.18-2.782-6.718 0.988-4.923 2.782-6.717zM9.5 19c4.687 0 8.5-3.813 8.5-8.5s-3.813-8.5-8.5-8.5c-4.687 0-8.5 3.813-8.5 8.5s3.813 8.5 8.5 8.5z"></path>
<path fill="#000000" d="M11 16c0.128 0 0.256-0.049 0.354-0.146 0.195-0.195 0.195-0.512 0-0.707l-4.646-4.646 4.646-4.646c0.195-0.195 0.195-0.512 0-0.707s-0.512-0.195-0.707 0l-5 5c-0.195 0.195-0.195 0.512 0 0.707l5 5c0.098 0.098 0.226 0.146 0.354 0.146z"></path>
</svg>
