<?xml version="1.0" encoding="utf-8"?>
<!-- Generated by IcoMoon.io -->
<!DOCTYPE svg PUBLIC "-//W3C//DTD SVG 1.1//EN" "http://www.w3.org/Graphics/SVG/1.1/DTD/svg11.dtd">
<svg version="1.1" xmlns="http://www.w3.org/2000/svg" xmlns:xlink="http://www.w3.org/1999/xlink" width="20" height="20" viewBox="0 0 20 20">
<path fill="#000000" d="M16.32 17.113c1.729-1.782 2.68-4.124 2.68-6.613 0-2.37-0.862-4.608-2.438-6.355l0.688-0.688 0.647 0.646c0.098 0.098 0.226 0.146 0.353 0.146s0.256-0.049 0.353-0.146c0.195-0.195 0.195-0.512 0-0.707l-2-2c-0.195-0.195-0.512-0.195-0.707 0s-0.195 0.512 0 0.707l0.647 0.646-0.688 0.688c-1.747-1.576-3.985-2.438-6.355-2.438s-4.608 0.862-6.355 2.438l-0.688-0.688 0.646-0.646c0.195-0.195 0.195-0.512 0-0.707s-0.512-0.195-0.707 0l-2 2c-0.195 0.195-0.195 0.512 0 0.707 0.098 0.098 0.226 0.146 0.354 0.146s0.256-0.049 0.354-0.146l0.646-0.646 0.688 0.688c-1.576 1.747-2.438 3.985-2.438 6.355 0 2.489 0.951 4.831 2.68 6.613l-2.034 2.034c-0.195 0.195-0.195 0.512 0 0.707 0.098 0.098 0.226 0.147 0.354 0.147s0.256-0.049 0.354-0.147l2.060-2.059c1.705 1.428 3.836 2.206 6.087 2.206s4.382-0.778 6.087-2.206l2.059 2.059c0.098 0.098 0.226 0.147 0.354 0.147s0.256-0.049 0.353-0.147c0.195-0.195 0.195-0.512 0-0.707l-2.034-2.034zM1 10.5c0-4.687 3.813-8.5 8.5-8.5s8.5 3.813 8.5 8.5c0 4.687-3.813 8.5-8.5 8.5s-8.5-3.813-8.5-8.5z"></path>
<path fill="#000000" d="M15.129 7.25c-0.138-0.239-0.444-0.321-0.683-0.183l-4.92 2.841-3.835-2.685c-0.226-0.158-0.538-0.103-0.696 0.123s-0.103 0.538 0.123 0.696l4.096 2.868c0.001 0.001 0.002 0.001 0.002 0.002 0.009 0.006 0.018 0.012 0.027 0.017 0.002 0.001 0.004 0.003 0.006 0.004 0.009 0.005 0.018 0.010 0.027 0.015 0.002 0.001 0.004 0.002 0.006 0.003 0.010 0.005 0.020 0.009 0.031 0.014 0.006 0.003 0.013 0.005 0.019 0.007 0.004 0.001 0.008 0.003 0.013 0.005 0.007 0.002 0.014 0.004 0.021 0.006 0.004 0.001 0.008 0.002 0.012 0.003 0.007 0.002 0.014 0.003 0.022 0.005 0.004 0.001 0.008 0.002 0.012 0.002 0.007 0.001 0.014 0.002 0.021 0.003 0.005 0.001 0.010 0.001 0.015 0.002 0.006 0.001 0.012 0.001 0.018 0.002 0.009 0.001 0.018 0.001 0.027 0.001 0.002 0 0.004 0 0.006 0 0 0 0-0 0-0s0 0 0.001 0c0.019 0 0.037-0.001 0.056-0.003 0.001-0 0.002-0 0.003-0 0.018-0.002 0.036-0.005 0.054-0.010 0.002-0 0.003-0.001 0.005-0.001 0.017-0.004 0.034-0.009 0.050-0.015 0.003-0.001 0.006-0.002 0.008-0.003 0.016-0.006 0.031-0.012 0.046-0.020 0.004-0.002 0.007-0.004 0.011-0.006 0.005-0.003 0.011-0.005 0.016-0.008l5.196-3c0.239-0.138 0.321-0.444 0.183-0.683z"></path>
</svg>
