<?xml version="1.0" encoding="utf-8"?>
<!-- Generated by IcoMoon.io -->
<!DOCTYPE svg PUBLIC "-//W3C//DTD SVG 1.1//EN" "http://www.w3.org/Graphics/SVG/1.1/DTD/svg11.dtd">
<svg version="1.1" xmlns="http://www.w3.org/2000/svg" xmlns:xlink="http://www.w3.org/1999/xlink" width="20" height="20" viewBox="0 0 20 20">
<path fill="#000000" d="M16.006 16h-2.506c-0.276 0-0.5-0.224-0.5-0.5s0.224-0.5 0.5-0.5h2.506c1.651 0 2.994-1.343 2.994-2.994s-1.343-2.994-2.994-2.994c-0.352 0-0.696 0.060-1.023 0.179-0.218 0.079-0.462-0.002-0.589-0.196s-0.104-0.45 0.056-0.618c0.355-0.373 0.55-0.862 0.55-1.377 0-1.103-0.897-2-2-2-0.642 0-1.229 0.297-1.61 0.814-0.229 0.31-0.362 0.677-0.386 1.061-0.013 0.212-0.159 0.393-0.364 0.451s-0.423-0.021-0.545-0.195l-0.005-0.007c-0.107-0.152-0.226-0.302-0.351-0.442-0.949-1.068-2.312-1.681-3.74-1.681-2.757 0-5 2.243-5 5s2.243 5 5 5h1.5c0.276 0 0.5 0.224 0.5 0.5s-0.224 0.5-0.5 0.5h-1.5c-3.308 0-6-2.692-6-6s2.692-6 6-6c1.603 0 3.137 0.643 4.261 1.775 0.087-0.195 0.196-0.381 0.324-0.555 0.564-0.764 1.467-1.22 2.415-1.22 1.654 0 3 1.346 3 3 0 0.351-0.061 0.694-0.176 1.017 0.061-0.003 0.122-0.004 0.183-0.004 2.202 0 3.994 1.792 3.994 3.994s-1.792 3.994-3.994 3.994z"></path>
<path fill="#000000" d="M12.854 13.146c-0.195-0.195-0.512-0.195-0.707 0l-1.146 1.146v-3.793c0-0.276-0.224-0.5-0.5-0.5s-0.5 0.224-0.5 0.5v3.793l-1.146-1.146c-0.195-0.195-0.512-0.195-0.707 0s-0.195 0.512 0 0.707l2 2c0.098 0.098 0.226 0.146 0.354 0.146s0.256-0.049 0.354-0.146l2-2c0.195-0.195 0.195-0.512 0-0.707z"></path>
</svg>
