<?xml version="1.0" encoding="utf-8"?>
<!-- Generated by IcoMoon.io -->
<!DOCTYPE svg PUBLIC "-//W3C//DTD SVG 1.1//EN" "http://www.w3.org/Graphics/SVG/1.1/DTD/svg11.dtd">
<svg version="1.1" xmlns="http://www.w3.org/2000/svg" xmlns:xlink="http://www.w3.org/1999/xlink" width="20" height="20" viewBox="0 0 20 20">
<path fill="#000000" d="M16.006 8.012c-0.061 0-0.122 0.001-0.183 0.004 0.116-0.322 0.177-0.666 0.177-1.017 0-1.654-1.346-3-3-3-0.948 0-1.851 0.456-2.415 1.22-0.129 0.174-0.237 0.36-0.324 0.555-1.123-1.132-2.658-1.775-4.261-1.775-3.308 0-6 2.692-6 6s2.692 6 6 6h10.006c2.202 0 3.994-1.792 3.994-3.994s-1.792-3.994-3.994-3.994zM16.006 15h-10.006c-2.757 0-5-2.243-5-5s2.243-5 5-5c1.428 0 2.791 0.613 3.74 1.681 0.125 0.141 0.243 0.29 0.351 0.442l0.005 0.007c0.122 0.174 0.34 0.253 0.545 0.195s0.351-0.238 0.364-0.451c0.024-0.384 0.157-0.751 0.386-1.061 0.382-0.517 0.969-0.814 1.611-0.814 1.103 0 2 0.897 2 2 0 0.515-0.195 1.004-0.55 1.377-0.16 0.168-0.183 0.424-0.056 0.618s0.371 0.275 0.589 0.196c0.327-0.119 0.671-0.179 1.023-0.179 1.651 0 2.994 1.343 2.994 2.994s-1.343 2.994-2.994 2.994z"></path>
<path fill="#000000" d="M6.404 11.959c-0.132 0.027-0.268 0.041-0.404 0.041-1.103 0-2-0.897-2-2v-0.293l0.146 0.146c0.098 0.098 0.226 0.146 0.354 0.146s0.256-0.049 0.354-0.146c0.195-0.195 0.195-0.512 0-0.707l-1-1c-0.195-0.195-0.512-0.195-0.707 0l-1 1c-0.195 0.195-0.195 0.512 0 0.707s0.512 0.195 0.707 0l0.146-0.146v0.293c0 1.654 1.346 3 3 3 0.203 0 0.406-0.021 0.604-0.061 0.271-0.055 0.445-0.32 0.39-0.59s-0.319-0.445-0.59-0.39z"></path>
<path fill="#000000" d="M9.146 10.146l-0.146 0.146v-0.293c0-1.654-1.346-3-3-3-0.203 0-0.406 0.021-0.604 0.061-0.271 0.055-0.445 0.32-0.39 0.59s0.32 0.445 0.59 0.39c0.132-0.027 0.268-0.041 0.404-0.041 1.103 0 2 0.897 2 2v0.293l-0.146-0.146c-0.195-0.195-0.512-0.195-0.707 0s-0.195 0.512 0 0.707l1 1c0.098 0.098 0.226 0.146 0.354 0.146s0.256-0.049 0.354-0.146l1-1c0.195-0.195 0.195-0.512 0-0.707s-0.512-0.195-0.707 0z"></path>
</svg>
