<?xml version="1.0" encoding="utf-8"?>
<!-- Generated by IcoMoon.io -->
<!DOCTYPE svg PUBLIC "-//W3C//DTD SVG 1.1//EN" "http://www.w3.org/Graphics/SVG/1.1/DTD/svg11.dtd">
<svg version="1.1" xmlns="http://www.w3.org/2000/svg" xmlns:xlink="http://www.w3.org/1999/xlink" width="20" height="20" viewBox="0 0 20 20">
<path fill="#000000" d="M10 15c-1.654 0-3-1.346-3-3s1.346-3 3-3 3 1.346 3 3-1.346 3-3 3zM10 10c-1.103 0-2 0.897-2 2s0.897 2 2 2c1.103 0 2-0.897 2-2s-0.897-2-2-2z"></path>
<path fill="#000000" d="M15.904 2.056l-0.177-0.707c-0.189-0.756-0.948-1.349-1.728-1.349h-8c-0.78 0-1.538 0.593-1.728 1.349l-0.177 0.707c-0.631 0.177-1.096 0.757-1.096 1.444v1c0 0.663 0.432 1.226 1.029 1.424l0.901 12.614c0.058 0.806 0.762 1.462 1.57 1.462h7c0.808 0 1.512-0.656 1.57-1.462l0.901-12.614c0.597-0.198 1.029-0.761 1.029-1.424v-1c0-0.687-0.464-1.267-1.096-1.444zM6 1h8c0.319 0 0.68 0.282 0.757 0.591l0.102 0.409h-9.719l0.102-0.409c0.077-0.309 0.438-0.591 0.757-0.591zM14.892 7h-9.783l-0.071-1h9.926l-0.071 1zM14.249 16h-8.497l-0.571-8h9.64l-0.571 8zM13.5 19h-7c-0.29 0-0.552-0.244-0.573-0.533l-0.105-1.467h8.355l-0.105 1.467c-0.021 0.289-0.283 0.533-0.573 0.533zM16 4.5c0 0.276-0.224 0.5-0.5 0.5h-11c-0.276 0-0.5-0.224-0.5-0.5v-1c0-0.275 0.224-0.499 0.499-0.5 0.001 0 0.001 0 0.002 0s0.002-0 0.003-0h10.997c0.276 0 0.5 0.224 0.5 0.5v1z"></path>
</svg>
