<?xml version="1.0" encoding="utf-8"?>
<!-- Generated by IcoMoon.io -->
<!DOCTYPE svg PUBLIC "-//W3C//DTD SVG 1.1//EN" "http://www.w3.org/Graphics/SVG/1.1/DTD/svg11.dtd">
<svg version="1.1" xmlns="http://www.w3.org/2000/svg" xmlns:xlink="http://www.w3.org/1999/xlink" width="20" height="20" viewBox="0 0 20 20">
<path fill="#000000" d="M7.631 19.702c-0.041 0-0.083-0.005-0.125-0.016-0.898-0.231-1.761-0.587-2.564-1.059-0.233-0.137-0.315-0.434-0.186-0.671 0.159-0.292 0.243-0.622 0.243-0.957 0-1.103-0.897-2-2-2-0.334 0-0.665 0.084-0.957 0.243-0.237 0.129-0.534 0.047-0.671-0.186-0.472-0.804-0.828-1.666-1.059-2.564-0.065-0.254 0.077-0.515 0.325-0.598 0.814-0.274 1.362-1.036 1.362-1.895s-0.547-1.621-1.362-1.895c-0.248-0.084-0.39-0.344-0.325-0.598 0.231-0.898 0.587-1.761 1.059-2.564 0.137-0.233 0.434-0.315 0.671-0.186 0.291 0.159 0.622 0.243 0.957 0.243 1.103 0 2-0.897 2-2 0-0.334-0.084-0.665-0.243-0.957-0.129-0.237-0.047-0.534 0.186-0.671 0.804-0.472 1.666-0.828 2.564-1.059 0.254-0.065 0.515 0.077 0.598 0.325 0.274 0.814 1.036 1.362 1.895 1.362s1.621-0.547 1.895-1.362c0.084-0.248 0.345-0.39 0.598-0.325 0.898 0.231 1.761 0.587 2.564 1.059 0.233 0.137 0.315 0.434 0.186 0.671-0.159 0.292-0.243 0.622-0.243 0.957 0 1.103 0.897 2 2 2 0.334 0 0.665-0.084 0.957-0.243 0.237-0.129 0.534-0.047 0.671 0.186 0.472 0.804 0.828 1.666 1.059 2.564 0.065 0.254-0.077 0.515-0.325 0.598-0.814 0.274-1.362 1.036-1.362 1.895s0.547 1.621 1.362 1.895c0.248 0.084 0.39 0.344 0.325 0.598-0.231 0.898-0.587 1.761-1.059 2.564-0.137 0.233-0.434 0.315-0.671 0.186-0.292-0.159-0.622-0.243-0.957-0.243-1.103 0-2 0.897-2 2 0 0.334 0.084 0.665 0.243 0.957 0.129 0.237 0.047 0.534-0.186 0.671-0.804 0.472-1.666 0.828-2.564 1.059-0.254 0.065-0.515-0.077-0.598-0.325-0.274-0.814-1.036-1.362-1.895-1.362s-1.621 0.547-1.895 1.362c-0.070 0.207-0.264 0.341-0.474 0.341zM10 17c1.127 0 2.142 0.628 2.655 1.602 0.52-0.161 1.026-0.369 1.51-0.622-0.108-0.314-0.164-0.646-0.164-0.98 0-1.654 1.346-3 3-3 0.334 0 0.666 0.056 0.98 0.164 0.253-0.484 0.462-0.989 0.622-1.51-0.974-0.512-1.602-1.527-1.602-2.655s0.628-2.142 1.602-2.655c-0.161-0.52-0.369-1.026-0.622-1.51-0.314 0.108-0.646 0.164-0.98 0.164-1.654 0-3-1.346-3-3 0-0.334 0.056-0.666 0.164-0.98-0.484-0.253-0.989-0.462-1.51-0.622-0.512 0.974-1.527 1.602-2.655 1.602s-2.142-0.628-2.655-1.602c-0.52 0.16-1.026 0.369-1.51 0.622 0.108 0.314 0.164 0.646 0.164 0.98 0 1.654-1.346 3-3 3-0.334 0-0.666-0.056-0.98-0.164-0.253 0.484-0.462 0.989-0.622 1.51 0.974 0.512 1.602 1.527 1.602 2.655s-0.628 2.142-1.602 2.655c0.16 0.52 0.369 1.026 0.622 1.51 0.314-0.108 0.646-0.164 0.98-0.164 1.654 0 3 1.346 3 3 0 0.334-0.056 0.666-0.164 0.98 0.484 0.253 0.989 0.462 1.51 0.622 0.512-0.974 1.527-1.602 2.655-1.602z"></path>
<path fill="#000000" d="M10 13c-1.654 0-3-1.346-3-3s1.346-3 3-3 3 1.346 3 3-1.346 3-3 3zM10 8c-1.103 0-2 0.897-2 2s0.897 2 2 2c1.103 0 2-0.897 2-2s-0.897-2-2-2z"></path>
</svg>
