<?xml version="1.0" encoding="utf-8"?>
<!-- Generated by IcoMoon.io -->
<!DOCTYPE svg PUBLIC "-//W3C//DTD SVG 1.1//EN" "http://www.w3.org/Graphics/SVG/1.1/DTD/svg11.dtd">
<svg version="1.1" xmlns="http://www.w3.org/2000/svg" xmlns:xlink="http://www.w3.org/1999/xlink" width="20" height="20" viewBox="0 0 20 20">
<path fill="#000000" d="M18.067 1.609c-0.497-0.326-1.193-0.615-2.069-0.858-1.742-0.484-4.050-0.75-6.498-0.75s-4.756 0.267-6.498 0.75c-0.877 0.243-1.573 0.532-2.069 0.858-0.619 0.407-0.933 0.874-0.933 1.391v12c0 0.517 0.314 0.985 0.933 1.391 0.497 0.326 1.193 0.615 2.069 0.858 1.742 0.484 4.050 0.75 6.498 0.75s4.756-0.267 6.498-0.751c0.877-0.243 1.573-0.532 2.069-0.858 0.619-0.406 0.933-0.874 0.933-1.391v-12c0-0.517-0.314-0.985-0.933-1.391zM3.27 1.714c1.658-0.46 3.87-0.714 6.23-0.714s4.573 0.254 6.23 0.714c1.795 0.499 2.27 1.059 2.27 1.286s-0.474 0.787-2.27 1.286c-1.658 0.46-3.87 0.714-6.23 0.714s-4.573-0.254-6.23-0.714c-1.795-0.499-2.27-1.059-2.27-1.286s0.474-0.787 2.27-1.286zM15.73 16.286c-1.658 0.46-3.87 0.714-6.23 0.714s-4.573-0.254-6.23-0.714c-1.795-0.499-2.27-1.059-2.27-1.286v-2.566c0.492 0.309 1.164 0.583 2.002 0.816 1.742 0.484 4.050 0.75 6.498 0.75s4.756-0.267 6.498-0.751c0.838-0.233 1.511-0.507 2.002-0.816v2.566c0 0.227-0.474 0.787-2.27 1.286zM15.73 12.286c-1.658 0.46-3.87 0.714-6.23 0.714s-4.573-0.254-6.23-0.714c-1.795-0.499-2.27-1.059-2.27-1.286v-2.566c0.492 0.309 1.164 0.583 2.002 0.816 1.742 0.484 4.050 0.75 6.498 0.75s4.756-0.267 6.498-0.75c0.838-0.233 1.511-0.507 2.002-0.816v2.566c0 0.227-0.474 0.787-2.27 1.286zM15.73 8.286c-1.658 0.46-3.87 0.714-6.23 0.714s-4.573-0.254-6.23-0.714c-1.795-0.499-2.27-1.059-2.27-1.286v-2.566c0.492 0.309 1.164 0.583 2.002 0.816 1.742 0.484 4.050 0.75 6.498 0.75s4.756-0.267 6.498-0.75c0.838-0.233 1.511-0.507 2.002-0.816v2.566c0 0.227-0.474 0.787-2.27 1.286z"></path>
</svg>
