<?xml version="1.0" encoding="utf-8"?>
<!-- Generated by IcoMoon.io -->
<!DOCTYPE svg PUBLIC "-//W3C//DTD SVG 1.1//EN" "http://www.w3.org/Graphics/SVG/1.1/DTD/svg11.dtd">
<svg version="1.1" xmlns="http://www.w3.org/2000/svg" xmlns:xlink="http://www.w3.org/1999/xlink" width="20" height="20" viewBox="0 0 20 20">
<path fill="#000000" d="M12.854 11.646c-0.195-0.195-0.512-0.195-0.707 0l-2.146 2.146v-12.293c0-0.276-0.224-0.5-0.5-0.5s-0.5 0.224-0.5 0.5v12.293l-2.146-2.146c-0.195-0.195-0.512-0.195-0.707 0s-0.195 0.512 0 0.707l3 3c0.098 0.098 0.226 0.146 0.354 0.146s0.256-0.049 0.354-0.146l3-3c0.195-0.195 0.195-0.512 0-0.707z"></path>
<path fill="#000000" d="M15.5 20h-12c-0.827 0-1.5-0.673-1.5-1.5v-10c0-0.827 0.673-1.5 1.5-1.5h4c0.276 0 0.5 0.224 0.5 0.5s-0.224 0.5-0.5 0.5h-4c-0.276 0-0.5 0.224-0.5 0.5v10c0 0.276 0.224 0.5 0.5 0.5h12c0.276 0 0.5-0.224 0.5-0.5v-10c0-0.276-0.224-0.5-0.5-0.5h-4c-0.276 0-0.5-0.224-0.5-0.5s0.224-0.5 0.5-0.5h4c0.827 0 1.5 0.673 1.5 1.5v10c0 0.827-0.673 1.5-1.5 1.5z"></path>
</svg>
