<?xml version="1.0" encoding="utf-8"?>
<!-- Generated by IcoMoon.io -->
<!DOCTYPE svg PUBLIC "-//W3C//DTD SVG 1.1//EN" "http://www.w3.org/Graphics/SVG/1.1/DTD/svg11.dtd">
<svg version="1.1" xmlns="http://www.w3.org/2000/svg" xmlns:xlink="http://www.w3.org/1999/xlink" width="20" height="20" viewBox="0 0 20 20">
<path fill="#000000" d="M14.5 9h-2c-0.827 0-1.5-0.673-1.5-1.5v-2c0-0.276 0.224-0.5 0.5-0.5s0.5 0.224 0.5 0.5v2c0 0.276 0.224 0.5 0.5 0.5h2c0.276 0 0.5 0.224 0.5 0.5s-0.224 0.5-0.5 0.5z"></path>
<path fill="#000000" d="M6.5 9h-2c-0.276 0-0.5-0.224-0.5-0.5s0.224-0.5 0.5-0.5h2c0.276 0 0.5-0.224 0.5-0.5v-2c0-0.276 0.224-0.5 0.5-0.5s0.5 0.224 0.5 0.5v2c0 0.827-0.673 1.5-1.5 1.5z"></path>
<path fill="#000000" d="M11.5 16c-0.276 0-0.5-0.224-0.5-0.5v-2c0-0.827 0.673-1.5 1.5-1.5h2c0.276 0 0.5 0.224 0.5 0.5s-0.224 0.5-0.5 0.5h-2c-0.276 0-0.5 0.224-0.5 0.5v2c0 0.276-0.224 0.5-0.5 0.5z"></path>
<path fill="#000000" d="M7.5 16c-0.276 0-0.5-0.224-0.5-0.5v-2c0-0.276-0.224-0.5-0.5-0.5h-2c-0.276 0-0.5-0.224-0.5-0.5s0.224-0.5 0.5-0.5h2c0.827 0 1.5 0.673 1.5 1.5v2c0 0.276-0.224 0.5-0.5 0.5z"></path>
</svg>
