<?xml version="1.0" encoding="utf-8"?>
<!-- Generated by IcoMoon.io -->
<!DOCTYPE svg PUBLIC "-//W3C//DTD SVG 1.1//EN" "http://www.w3.org/Graphics/SVG/1.1/DTD/svg11.dtd">
<svg version="1.1" xmlns="http://www.w3.org/2000/svg" xmlns:xlink="http://www.w3.org/1999/xlink" width="20" height="20" viewBox="0 0 20 20">
<path fill="#000000" d="M17 4c-0.364 0-0.706 0.098-1 0.269v-1.269c0-1.103-0.897-2-2-2-0.412 0-0.794 0.125-1.113 0.339-0.274-0.779-1.016-1.339-1.887-1.339s-1.614 0.56-1.887 1.339c-0.318-0.214-0.701-0.339-1.113-0.339-1.103 0-2 0.897-2 2v7.373l-1.346-2.333c-0.261-0.475-0.687-0.813-1.199-0.953-0.499-0.136-1.018-0.064-1.462 0.202-0.907 0.544-1.253 1.774-0.77 2.742 0.030 0.061 0.668 1.368 2.66 5.35 0.938 1.875 1.967 3.216 3.059 3.984 0.857 0.603 1.449 0.634 1.559 0.634h5c0.851 0 1.642-0.277 2.352-0.822 0.667-0.513 1.246-1.255 1.72-2.204 0.934-1.868 1.428-4.452 1.428-7.474v-3.5c0-1.103-0.897-2-2-2zM18 9.5c0 2.867-0.457 5.296-1.322 7.026-0.564 1.128-1.574 2.474-3.178 2.474h-4.99c-0.039-0.003-0.46-0.050-1.095-0.525-0.633-0.474-1.605-1.472-2.638-3.54-2.027-4.054-2.65-5.331-2.656-5.343-0.001-0.002-0.001-0.003-0.002-0.004-0.251-0.503-0.073-1.162 0.389-1.439 0.208-0.125 0.451-0.158 0.685-0.095 0.249 0.068 0.458 0.236 0.587 0.472 0.002 0.003 0.004 0.007 0.006 0.010l1.561 2.705c0.319 0.583 0.678 0.828 1.067 0.729 0.39-0.099 0.587-0.489 0.587-1.157v-7.813c0-0.551 0.449-1 1-1s1 0.449 1 1v6.5c0 0.276 0.224 0.5 0.5 0.5s0.5-0.224 0.5-0.5v-7.5c0-0.551 0.449-1 1-1s1 0.449 1 1v7.5c0 0.276 0.224 0.5 0.5 0.5s0.5-0.224 0.5-0.5v-6.5c0-0.551 0.449-1 1-1s1 0.449 1 1v7.5c0 0.276 0.224 0.5 0.5 0.5s0.5-0.224 0.5-0.5v-4.5c0-0.551 0.449-1 1-1s1 0.449 1 1v3.5z"></path>
</svg>
