<?xml version="1.0" encoding="utf-8"?>
<!-- Generated by IcoMoon.io -->
<!DOCTYPE svg PUBLIC "-//W3C//DTD SVG 1.1//EN" "http://www.w3.org/Graphics/SVG/1.1/DTD/svg11.dtd">
<svg version="1.1" xmlns="http://www.w3.org/2000/svg" xmlns:xlink="http://www.w3.org/1999/xlink" width="20" height="20" viewBox="0 0 20 20">
<path fill="#000000" d="M17.071 2.929c-1.889-1.889-4.4-2.929-7.071-2.929-3.094 0-5.975 1.425-7.853 3.807v-1.307c0-0.276-0.224-0.5-0.5-0.5s-0.5 0.224-0.5 0.5v2.972c0 0.229 0.155 0.428 0.377 0.485 0.097 0.025 0.195 0.019 0.284-0.011v0l2.853-0.972c0.261-0.089 0.401-0.373 0.312-0.634s-0.373-0.401-0.634-0.312l-1.49 0.508c1.688-2.208 4.32-3.534 7.152-3.534 4.963 0 9 4.037 9 9s-4.037 9-9 9c-3.316 0-6.354-1.815-7.928-4.737-0.131-0.243-0.434-0.334-0.677-0.203s-0.334 0.434-0.203 0.677c1.749 3.246 5.125 5.263 8.809 5.263 2.671 0 5.182-1.040 7.071-2.929s2.929-4.4 2.929-7.071c0-2.671-1.040-5.182-2.929-7.071z"></path>
<path fill="#000000" d="M10 10.5c-0.084 0-0.167-0.021-0.243-0.063l-4.5-2.5c-0.241-0.134-0.328-0.438-0.194-0.68s0.438-0.328 0.68-0.194l4.24 2.355 5.249-3.34c0.233-0.148 0.542-0.080 0.69 0.153s0.080 0.542-0.153 0.69l-5.5 3.5c-0.082 0.052-0.175 0.078-0.268 0.078z"></path>
</svg>
