<?xml version="1.0" encoding="utf-8"?>
<!-- Generated by IcoMoon.io -->
<!DOCTYPE svg PUBLIC "-//W3C//DTD SVG 1.1//EN" "http://www.w3.org/Graphics/SVG/1.1/DTD/svg11.dtd">
<svg version="1.1" xmlns="http://www.w3.org/2000/svg" xmlns:xlink="http://www.w3.org/1999/xlink" width="20" height="20" viewBox="0 0 20 20">
<path fill="#000000" d="M15.5 2h-4.001c-0.001 0-0.003 0-0.004 0h-3.995c-0.276 0-0.5 0.224-0.5 0.5s0.224 0.5 0.5 0.5h3.39l-2.8 14h-3.59c-0.276 0-0.5 0.224-0.5 0.5s0.224 0.5 0.5 0.5h3.999c0.001 0 0.001 0 0.002 0s0.001-0 0.002-0h3.997c0.276 0 0.5-0.224 0.5-0.5s-0.224-0.5-0.5-0.5h-3.39l2.8-14h3.59c0.276 0 0.5-0.224 0.5-0.5s-0.224-0.5-0.5-0.5z"></path>
</svg>
