<?xml version="1.0" encoding="utf-8"?>
<!-- Generated by IcoMoon.io -->
<!DOCTYPE svg PUBLIC "-//W3C//DTD SVG 1.1//EN" "http://www.w3.org/Graphics/SVG/1.1/DTD/svg11.dtd">
<svg version="1.1" xmlns="http://www.w3.org/2000/svg" xmlns:xlink="http://www.w3.org/1999/xlink" width="20" height="20" viewBox="0 0 20 20">
<path fill="#000000" d="M18.5 5h-10c-0.276 0-0.5-0.224-0.5-0.5s0.224-0.5 0.5-0.5h10c0.276 0 0.5 0.224 0.5 0.5s-0.224 0.5-0.5 0.5z"></path>
<path fill="#000000" d="M18.5 9h-10c-0.276 0-0.5-0.224-0.5-0.5s0.224-0.5 0.5-0.5h10c0.276 0 0.5 0.224 0.5 0.5s-0.224 0.5-0.5 0.5z"></path>
<path fill="#000000" d="M18.5 13h-10c-0.276 0-0.5-0.224-0.5-0.5s0.224-0.5 0.5-0.5h10c0.276 0 0.5 0.224 0.5 0.5s-0.224 0.5-0.5 0.5z"></path>
<path fill="#000000" d="M18.5 17h-10c-0.276 0-0.5-0.224-0.5-0.5s0.224-0.5 0.5-0.5h10c0.276 0 0.5 0.224 0.5 0.5s-0.224 0.5-0.5 0.5z"></path>
<path fill="#000000" d="M5.146 13.646l-1.146 1.146v-8.586l1.146 1.146c0.098 0.098 0.226 0.146 0.354 0.146s0.256-0.049 0.354-0.146c0.195-0.195 0.195-0.512 0-0.707l-2-2c-0.195-0.195-0.512-0.195-0.707 0l-2 2c-0.195 0.195-0.195 0.512 0 0.707s0.512 0.195 0.707 0l1.146-1.146v8.586l-1.146-1.146c-0.195-0.195-0.512-0.195-0.707 0s-0.195 0.512 0 0.707l2 2c0.098 0.098 0.226 0.146 0.354 0.146s0.256-0.049 0.354-0.146l2-2c0.195-0.195 0.195-0.512 0-0.707s-0.512-0.195-0.707 0z"></path>
</svg>
