<?xml version="1.0" encoding="utf-8"?>
<!-- Generated by IcoMoon.io -->
<!DOCTYPE svg PUBLIC "-//W3C//DTD SVG 1.1//EN" "http://www.w3.org/Graphics/SVG/1.1/DTD/svg11.dtd">
<svg version="1.1" xmlns="http://www.w3.org/2000/svg" xmlns:xlink="http://www.w3.org/1999/xlink" width="20" height="20" viewBox="0 0 20 20">
<path fill="#000000" d="M18.763 1.075c-0.147-0.091-0.331-0.099-0.486-0.022l-5.776 2.888-5.776-2.888c-0.141-0.070-0.306-0.070-0.447 0l-6 3c-0.169 0.085-0.276 0.258-0.276 0.447v15c0 0.173 0.090 0.334 0.237 0.425 0.080 0.050 0.171 0.075 0.263 0.075 0.076 0 0.153-0.018 0.224-0.053l5.776-2.888 5.776 2.888c0.141 0.070 0.307 0.070 0.447 0l6-3c0.169-0.085 0.276-0.258 0.276-0.447v-15c-0-0.173-0.090-0.334-0.237-0.425zM6 16.191l-5 2.5v-13.882l5-2.5v13.882zM7 2.309l5 2.5v13.882l-5-2.5v-13.882zM18 16.191l-5 2.5v-13.882l5-2.5v13.882z"></path>
</svg>
