<?xml version="1.0" encoding="utf-8"?>
<!-- Generated by IcoMoon.io -->
<!DOCTYPE svg PUBLIC "-//W3C//DTD SVG 1.1//EN" "http://www.w3.org/Graphics/SVG/1.1/DTD/svg11.dtd">
<svg version="1.1" xmlns="http://www.w3.org/2000/svg" xmlns:xlink="http://www.w3.org/1999/xlink" width="20" height="20" viewBox="0 0 20 20">
<path fill="#000000" d="M10.25 20c-2.738 0-5.312-1.066-7.248-3.002s-3.002-4.51-3.002-7.248c0-2.251 0.723-4.375 2.090-6.143 0.655-0.847 1.439-1.585 2.331-2.194 0.899-0.614 1.888-1.083 2.938-1.392 0.192-0.057 0.399 0.007 0.527 0.161s0.151 0.369 0.060 0.547c-0.645 1.257-0.945 2.455-0.945 3.772 0 4.687 3.813 8.5 8.5 8.5 1.317 0 2.515-0.3 3.772-0.945 0.178-0.091 0.393-0.068 0.547 0.060s0.217 0.335 0.161 0.527c-0.31 1.050-0.778 2.039-1.392 2.938-0.609 0.892-1.347 1.676-2.194 2.331-1.768 1.367-3.893 2.090-6.143 2.090zM6.57 1.365c-3.374 1.445-5.57 4.689-5.57 8.385 0 5.1 4.15 9.25 9.25 9.25 3.696 0 6.94-2.197 8.385-5.57-1.024 0.383-2.058 0.57-3.135 0.57-2.538 0-4.923-0.988-6.717-2.782s-2.783-4.18-2.783-6.718c0-1.077 0.188-2.111 0.57-3.135z"></path>
</svg>
