<?xml version="1.0" encoding="utf-8"?>
<!-- Generated by IcoMoon.io -->
<!DOCTYPE svg PUBLIC "-//W3C//DTD SVG 1.1//EN" "http://www.w3.org/Graphics/SVG/1.1/DTD/svg11.dtd">
<svg version="1.1" xmlns="http://www.w3.org/2000/svg" xmlns:xlink="http://www.w3.org/1999/xlink" width="20" height="20" viewBox="0 0 20 20">
<path fill="#000000" d="M9.5 20c-2.481 0-4.5-2.019-4.5-4.5v-12c0-1.93 1.57-3.5 3.5-3.5s3.5 1.57 3.5 3.5v11c0 1.378-1.122 2.5-2.5 2.5s-2.5-1.122-2.5-2.5v-6c0-0.276 0.224-0.5 0.5-0.5s0.5 0.224 0.5 0.5v6c0 0.827 0.673 1.5 1.5 1.5s1.5-0.673 1.5-1.5v-11c0-1.378-1.122-2.5-2.5-2.5s-2.5 1.122-2.5 2.5v12c0 1.93 1.57 3.5 3.5 3.5s3.5-1.57 3.5-3.5v-7c0-0.276 0.224-0.5 0.5-0.5s0.5 0.224 0.5 0.5v7c0 2.481-2.019 4.5-4.5 4.5z"></path>
</svg>
