<?xml version="1.0" encoding="utf-8"?>
<!-- Generated by IcoMoon.io -->
<!DOCTYPE svg PUBLIC "-//W3C//DTD SVG 1.1//EN" "http://www.w3.org/Graphics/SVG/1.1/DTD/svg11.dtd">
<svg version="1.1" xmlns="http://www.w3.org/2000/svg" xmlns:xlink="http://www.w3.org/1999/xlink" width="20" height="20" viewBox="0 0 20 20">
<path fill="#000000" d="M19.104 0.896c-0.562-0.562-1.309-0.871-2.104-0.871s-1.542 0.309-2.104 0.871l-12.75 12.75c-0.052 0.052-0.091 0.114-0.116 0.183l-2 5.5c-0.066 0.183-0.021 0.387 0.116 0.524 0.095 0.095 0.223 0.146 0.354 0.146 0.057 0 0.115-0.010 0.171-0.030l5.5-2c0.069-0.025 0.131-0.065 0.183-0.116l12.75-12.75c0.562-0.562 0.871-1.309 0.871-2.104s-0.309-1.542-0.871-2.104zM5.725 17.068l-4.389 1.596 1.596-4.389 11.068-11.068 2.793 2.793-11.068 11.068zM18.396 4.396l-0.896 0.896-2.793-2.793 0.896-0.896c0.373-0.373 0.869-0.578 1.396-0.578s1.023 0.205 1.396 0.578c0.373 0.373 0.578 0.869 0.578 1.396s-0.205 1.023-0.578 1.396z"></path>
</svg>
