<?xml version="1.0" encoding="utf-8"?>
<!-- Generated by IcoMoon.io -->
<!DOCTYPE svg PUBLIC "-//W3C//DTD SVG 1.1//EN" "http://www.w3.org/Graphics/SVG/1.1/DTD/svg11.dtd">
<svg version="1.1" xmlns="http://www.w3.org/2000/svg" xmlns:xlink="http://www.w3.org/1999/xlink" width="20" height="20" viewBox="0 0 20 20">
<path fill="#000000" d="M8.5 20c-2.27 0-4.405-0.884-6.010-2.49s-2.49-3.74-2.49-6.010c0-2.27 0.884-4.405 2.49-6.010s3.74-2.49 6.010-2.49c0.276 0 0.5 0.224 0.5 0.5v7.5h7.5c0.276 0 0.5 0.224 0.5 0.5 0 2.27-0.884 4.405-2.49 6.010s-3.74 2.49-6.010 2.49zM8 4.016c-3.903 0.258-7 3.516-7 7.484 0 4.136 3.364 7.5 7.5 7.5 3.967 0 7.225-3.097 7.484-7h-7.484c-0.276 0-0.5-0.224-0.5-0.5v-7.484z"></path>
<path fill="#000000" d="M18.5 10h-8c-0.276 0-0.5-0.224-0.5-0.5v-8c0-0.276 0.224-0.5 0.5-0.5 2.27 0 4.405 0.884 6.010 2.49s2.49 3.74 2.49 6.010c0 0.276-0.224 0.5-0.5 0.5zM11 9h6.984c-0.247-3.738-3.246-6.736-6.984-6.984v6.984z"></path>
</svg>
