<?xml version="1.0" encoding="utf-8"?>
<!-- Generated by IcoMoon.io -->
<!DOCTYPE svg PUBLIC "-//W3C//DTD SVG 1.1//EN" "http://www.w3.org/Graphics/SVG/1.1/DTD/svg11.dtd">
<svg version="1.1" xmlns="http://www.w3.org/2000/svg" xmlns:xlink="http://www.w3.org/1999/xlink" width="20" height="20" viewBox="0 0 20 20">
<path fill="#000000" d="M15.5 2h-8.5c-2.206 0-4 1.794-4 4s1.794 4 4 4h1v7.5c0 0.276 0.224 0.5 0.5 0.5s0.5-0.224 0.5-0.5v-14.5h3v14.5c0 0.276 0.224 0.5 0.5 0.5s0.5-0.224 0.5-0.5v-14.5h2.5c0.276 0 0.5-0.224 0.5-0.5s-0.224-0.5-0.5-0.5zM8 9h-1c-1.654 0-3-1.346-3-3s1.346-3 3-3h1v6z"></path>
</svg>
