<?xml version="1.0" encoding="utf-8"?>
<!-- Generated by IcoMoon.io -->
<!DOCTYPE svg PUBLIC "-//W3C//DTD SVG 1.1//EN" "http://www.w3.org/Graphics/SVG/1.1/DTD/svg11.dtd">
<svg version="1.1" xmlns="http://www.w3.org/2000/svg" xmlns:xlink="http://www.w3.org/1999/xlink" width="20" height="20" viewBox="0 0 20 20">
<path fill="#000000" d="M17.057 13.303c-0.077-0.044-0.157-0.087-0.239-0.129 0.955-0.749 1.181-1.568 1.181-2.174 0-1.419-1.193-2.655-3.175-3.409 0.115-0.351 0.175-0.72 0.175-1.091 0-1.93-1.57-3.5-3.5-3.5-0.684 0-1.5-0.173-1.5-1 0-0.453 0.578-0.948 0.779-1.085 0.183-0.123 0.264-0.35 0.2-0.561s-0.258-0.354-0.478-0.354c-1.567 0-3.178 0.515-4.418 1.413-0.633 0.458-1.135 0.988-1.493 1.575-0.391 0.641-0.589 1.318-0.589 2.012 0 0.288 0.024 0.574 0.070 0.855-0.849 0.41-1.566 0.951-2.090 1.581-0.641 0.77-0.98 1.657-0.98 2.564 0 0.546 0.123 1.103 0.356 1.641-0.888 0.854-1.356 1.836-1.356 2.859 0 1.525 1.028 2.936 2.893 3.973 1.773 0.985 4.119 1.527 6.607 1.527 2.558 0 4.879-0.333 6.535-0.937 2.45-0.893 2.965-2.159 2.965-3.063 0-0.728-0.337-1.787-1.943-2.697zM15.693 18.124c-1.55 0.565-3.749 0.876-6.193 0.876-2.32 0-4.494-0.498-6.121-1.402-1.534-0.852-2.379-1.953-2.379-3.098 0-0.797 0.41-1.461 0.867-1.952 0.115 0.164 0.24 0.324 0.377 0.479 0.796 0.909 1.904 1.603 3.118 1.953 0.046 0.013 0.093 0.020 0.139 0.020 0.217 0 0.417-0.142 0.48-0.361 0.077-0.265-0.076-0.542-0.342-0.619-2.074-0.599-3.639-2.327-3.639-4.020 0-1.224 0.88-2.399 2.329-3.155 0.524 1.443 1.63 2.641 3.004 3.127 0.055 0.019 0.111 0.029 0.167 0.029 0.206 0 0.399-0.128 0.471-0.333 0.092-0.26-0.044-0.546-0.305-0.638-1.52-0.537-2.667-2.269-2.667-4.029 0-1.012 0.592-1.998 1.668-2.777 0.744-0.538 1.643-0.918 2.578-1.1-0.144 0.258-0.246 0.554-0.246 0.877 0 0.967 0.657 2 2.5 2 1.378 0 2.5 1.122 2.5 2.5 0 0.271-0.042 0.533-0.125 0.784-0.408-0.111-0.841-0.204-1.295-0.277-0.273-0.044-0.529 0.142-0.573 0.414s0.142 0.529 0.414 0.573c1.387 0.223 2.563 0.647 3.401 1.226 0.538 0.372 1.179 0.982 1.179 1.78 0 0.645-0.428 1.218-1.273 1.705-0.915-0.325-1.986-0.564-3.169-0.702-0.274-0.032-0.523 0.164-0.555 0.439s0.164 0.523 0.439 0.555c1.686 0.197 3.112 0.604 4.122 1.176 0.655 0.371 1.436 0.989 1.436 1.827 0 1.060-1.255 1.74-2.307 2.124z"></path>
</svg>
