<?xml version="1.0" encoding="utf-8"?>
<!-- Generated by IcoMoon.io -->
<!DOCTYPE svg PUBLIC "-//W3C//DTD SVG 1.1//EN" "http://www.w3.org/Graphics/SVG/1.1/DTD/svg11.dtd">
<svg version="1.1" xmlns="http://www.w3.org/2000/svg" xmlns:xlink="http://www.w3.org/1999/xlink" width="20" height="20" viewBox="0 0 20 20">
<path fill="#000000" d="M18.5 4h-1.5v-2.5c0-0.827-0.673-1.5-1.5-1.5h-11c-0.827 0-1.5 0.673-1.5 1.5v2.5h-1.5c-0.827 0-1.5 0.673-1.5 1.5v9c0 0.827 0.673 1.5 1.5 1.5h1.5v2.5c0 0.827 0.673 1.5 1.5 1.5h11c0.827 0 1.5-0.673 1.5-1.5v-2.5h1.5c0.827 0 1.5-0.673 1.5-1.5v-9c0-0.827-0.673-1.5-1.5-1.5zM4 1.5c0-0.276 0.224-0.5 0.5-0.5h11c0.276 0 0.5 0.224 0.5 0.5v2.5h-12v-2.5zM15.5 19h-11c-0.276 0-0.5-0.224-0.5-0.5v-6.5h12v6.5c0 0.276-0.224 0.5-0.5 0.5zM19 14.5c0 0.276-0.224 0.5-0.5 0.5h-1.5v-3h0.5c0.276 0 0.5-0.224 0.5-0.5s-0.224-0.5-0.5-0.5h-15c-0.276 0-0.5 0.224-0.5 0.5s0.224 0.5 0.5 0.5h0.5v3h-1.5c-0.276 0-0.5-0.224-0.5-0.5v-9c0-0.276 0.224-0.5 0.5-0.5h17c0.276 0 0.5 0.224 0.5 0.5v9z"></path>
<path fill="#000000" d="M14.5 14h-9c-0.276 0-0.5-0.224-0.5-0.5s0.224-0.5 0.5-0.5h9c0.276 0 0.5 0.224 0.5 0.5s-0.224 0.5-0.5 0.5z"></path>
<path fill="#000000" d="M14.5 16h-9c-0.276 0-0.5-0.224-0.5-0.5s0.224-0.5 0.5-0.5h9c0.276 0 0.5 0.224 0.5 0.5s-0.224 0.5-0.5 0.5z"></path>
<path fill="#000000" d="M14.5 18h-9c-0.276 0-0.5-0.224-0.5-0.5s0.224-0.5 0.5-0.5h9c0.276 0 0.5 0.224 0.5 0.5s-0.224 0.5-0.5 0.5z"></path>
<path fill="#000000" d="M16.5 9c-0.827 0-1.5-0.673-1.5-1.5s0.673-1.5 1.5-1.5 1.5 0.673 1.5 1.5-0.673 1.5-1.5 1.5zM16.5 7c-0.276 0-0.5 0.224-0.5 0.5s0.224 0.5 0.5 0.5 0.5-0.224 0.5-0.5-0.224-0.5-0.5-0.5z"></path>
</svg>
