<?xml version="1.0" encoding="utf-8"?>
<!-- Generated by IcoMoon.io -->
<!DOCTYPE svg PUBLIC "-//W3C//DTD SVG 1.1//EN" "http://www.w3.org/Graphics/SVG/1.1/DTD/svg11.dtd">
<svg version="1.1" xmlns="http://www.w3.org/2000/svg" xmlns:xlink="http://www.w3.org/1999/xlink" width="20" height="20" viewBox="0 0 20 20">
<path fill="#000000" d="M2.49 4.49c1.605-1.605 3.74-2.49 6.010-2.49s4.405 0.884 6.010 2.49 2.49 3.74 2.49 6.010v1.293l2.146-2.146c0.195-0.195 0.512-0.195 0.707 0s0.195 0.512 0 0.707l-3 3c-0.098 0.098-0.226 0.146-0.354 0.146s-0.256-0.049-0.354-0.146l-3-3c-0.195-0.195-0.195-0.512 0-0.707s0.512-0.195 0.707 0l2.146 2.146v-1.293c0-4.136-3.364-7.5-7.5-7.5s-7.5 3.364-7.5 7.5c0 4.136 3.364 7.5 7.5 7.5 0.276 0 0.5 0.224 0.5 0.5s-0.224 0.5-0.5 0.5c-2.27 0-4.405-0.884-6.010-2.49s-2.49-3.74-2.49-6.010c0-2.27 0.884-4.405 2.49-6.010z"></path>
</svg>
