<?xml version="1.0" encoding="utf-8"?>
<!-- Generated by IcoMoon.io -->
<!DOCTYPE svg PUBLIC "-//W3C//DTD SVG 1.1//EN" "http://www.w3.org/Graphics/SVG/1.1/DTD/svg11.dtd">
<svg version="1.1" xmlns="http://www.w3.org/2000/svg" xmlns:xlink="http://www.w3.org/1999/xlink" width="20" height="20" viewBox="0 0 20 20">
<path fill="#000000" d="M5.499 8.333c-0.24 0-0.452-0.173-0.493-0.418-0.045-0.272 0.139-0.53 0.411-0.575l1.749-0.291 0.386-0.772c0.123-0.247 0.424-0.347 0.671-0.224s0.347 0.424 0.224 0.671l-0.5 1c-0.072 0.143-0.207 0.243-0.365 0.27l-2 0.333c-0.028 0.005-0.056 0.007-0.083 0.007z"></path>
<path fill="#000000" d="M2.5 10c-0.128 0-0.256-0.049-0.354-0.146l-1-1c-0.132-0.132-0.18-0.328-0.123-0.506s0.209-0.31 0.394-0.341l2-0.333c0.273-0.045 0.53 0.139 0.575 0.411s-0.139 0.53-0.411 0.575l-1.042 0.174 0.313 0.313c0.195 0.195 0.195 0.512 0 0.707-0.098 0.098-0.226 0.146-0.354 0.146z"></path>
<path fill="#000000" d="M14.833 15c-0.24 0-0.452-0.173-0.493-0.418l-0.333-2c-0.027-0.159 0.025-0.322 0.14-0.436l1-1c0.195-0.195 0.512-0.195 0.707 0s0.195 0.512 0 0.707l-0.818 0.818 0.291 1.746c0.045 0.272-0.139 0.53-0.411 0.575-0.028 0.005-0.055 0.007-0.083 0.007z"></path>
<path fill="#000000" d="M15.5 19c-0.082 0-0.164-0.020-0.239-0.061l-3-1.636c-0.242-0.132-0.332-0.436-0.2-0.678s0.436-0.332 0.678-0.2l2.099 1.145-0.165-0.987c-0.045-0.272 0.139-0.53 0.411-0.575s0.53 0.139 0.575 0.411l0.333 2c0.031 0.189-0.048 0.379-0.203 0.49-0.086 0.061-0.188 0.093-0.29 0.093z"></path>
<path fill="#000000" d="M5.334 14c-0.027 0-0.055-0.002-0.083-0.007-0.272-0.045-0.456-0.303-0.411-0.575l0.124-0.746-0.818-0.818c-0.195-0.195-0.195-0.512 0-0.707s0.512-0.195 0.707 0l1 1c0.114 0.114 0.166 0.276 0.14 0.436l-0.167 1c-0.041 0.245-0.253 0.418-0.493 0.418z"></path>
<path fill="#000000" d="M4.5 19c-0.102 0-0.204-0.031-0.29-0.093-0.156-0.111-0.235-0.301-0.203-0.49l0.5-3c0.045-0.272 0.303-0.456 0.575-0.411s0.456 0.303 0.411 0.575l-0.331 1.987 1.099-0.599c0.242-0.132 0.546-0.043 0.678 0.199s0.043 0.546-0.2 0.678l-2 1.091c-0.075 0.041-0.157 0.061-0.239 0.061z"></path>
<path fill="#000000" d="M8.5 16.818c-0.177 0-0.349-0.094-0.439-0.261-0.132-0.242-0.043-0.546 0.2-0.678l1.5-0.818c0.149-0.081 0.33-0.081 0.479 0l0.5 0.273c0.242 0.132 0.332 0.436 0.2 0.678s-0.436 0.332-0.678 0.2l-0.261-0.142-1.261 0.688c-0.076 0.041-0.158 0.061-0.239 0.061z"></path>
<path fill="#000000" d="M17.5 10c-0.128 0-0.256-0.049-0.354-0.146-0.195-0.195-0.195-0.512 0-0.707l0.313-0.313-2.042-0.34c-0.272-0.045-0.456-0.303-0.411-0.575s0.303-0.456 0.575-0.411l3 0.5c0.185 0.031 0.337 0.162 0.394 0.341s0.010 0.374-0.123 0.506l-1 1c-0.098 0.098-0.226 0.147-0.354 0.147z"></path>
<path fill="#000000" d="M13.501 8.167c-0.027 0-0.055-0.002-0.083-0.007l-1-0.167c-0.158-0.026-0.293-0.127-0.365-0.27l-1-2c-0.123-0.247-0.023-0.547 0.224-0.671s0.547-0.023 0.671 0.224l0.886 1.772 0.749 0.125c0.272 0.045 0.456 0.303 0.411 0.575-0.041 0.244-0.253 0.418-0.493 0.418z"></path>
<path fill="#000000" d="M9 5c-0.075 0-0.151-0.017-0.223-0.053-0.247-0.123-0.347-0.424-0.224-0.671l1-2c0.085-0.169 0.258-0.276 0.447-0.276 0 0 0 0 0 0 0.189 0 0.363 0.107 0.447 0.276l0.5 1c0.123 0.247 0.023 0.547-0.224 0.671s-0.547 0.023-0.671-0.224l-0.053-0.106-0.553 1.106c-0.088 0.175-0.264 0.277-0.448 0.277z"></path>
</svg>
