<?xml version="1.0" encoding="utf-8"?>
<!-- Generated by IcoMoon.io -->
<!DOCTYPE svg PUBLIC "-//W3C//DTD SVG 1.1//EN" "http://www.w3.org/Graphics/SVG/1.1/DTD/svg11.dtd">
<svg version="1.1" xmlns="http://www.w3.org/2000/svg" xmlns:xlink="http://www.w3.org/1999/xlink" width="20" height="20" viewBox="0 0 20 20">
<path fill="#000000" d="M9.5 14.993c-2.477 0-4.493-2.015-4.493-4.493s2.015-4.493 4.493-4.493 4.493 2.015 4.493 4.493-2.015 4.493-4.493 4.493zM9.5 7.007c-1.926 0-3.493 1.567-3.493 3.493s1.567 3.493 3.493 3.493 3.493-1.567 3.493-3.493-1.567-3.493-3.493-3.493z"></path>
<path fill="#000000" d="M9.5 5c-0.276 0-0.5-0.224-0.5-0.5v-3c0-0.276 0.224-0.5 0.5-0.5s0.5 0.224 0.5 0.5v3c0 0.276-0.224 0.5-0.5 0.5z"></path>
<path fill="#000000" d="M9.5 20c-0.276 0-0.5-0.224-0.5-0.5v-3c0-0.276 0.224-0.5 0.5-0.5s0.5 0.224 0.5 0.5v3c0 0.276-0.224 0.5-0.5 0.5z"></path>
<path fill="#000000" d="M3.5 11h-3c-0.276 0-0.5-0.224-0.5-0.5s0.224-0.5 0.5-0.5h3c0.276 0 0.5 0.224 0.5 0.5s-0.224 0.5-0.5 0.5z"></path>
<path fill="#000000" d="M18.5 11h-3c-0.276 0-0.5-0.224-0.5-0.5s0.224-0.5 0.5-0.5h3c0.276 0 0.5 0.224 0.5 0.5s-0.224 0.5-0.5 0.5z"></path>
<path fill="#000000" d="M4.5 6c-0.128 0-0.256-0.049-0.354-0.146l-2-2c-0.195-0.195-0.195-0.512 0-0.707s0.512-0.195 0.707 0l2 2c0.195 0.195 0.195 0.512 0 0.707-0.098 0.098-0.226 0.146-0.354 0.146z"></path>
<path fill="#000000" d="M2.5 18c-0.128 0-0.256-0.049-0.354-0.146-0.195-0.195-0.195-0.512 0-0.707l2-2c0.195-0.195 0.512-0.195 0.707 0s0.195 0.512 0 0.707l-2 2c-0.098 0.098-0.226 0.146-0.354 0.146z"></path>
<path fill="#000000" d="M16.5 18c-0.128 0-0.256-0.049-0.354-0.146l-2-2c-0.195-0.195-0.195-0.512 0-0.707s0.512-0.195 0.707 0l2 2c0.195 0.195 0.195 0.512 0 0.707-0.098 0.098-0.226 0.146-0.354 0.146z"></path>
<path fill="#000000" d="M14.5 6c-0.128 0-0.256-0.049-0.354-0.146-0.195-0.195-0.195-0.512 0-0.707l2-2c0.195-0.195 0.512-0.195 0.707 0s0.195 0.512 0 0.707l-2 2c-0.098 0.098-0.226 0.146-0.354 0.146z"></path>
</svg>
