<?xml version="1.0" encoding="utf-8"?>
<!-- Generated by IcoMoon.io -->
<!DOCTYPE svg PUBLIC "-//W3C//DTD SVG 1.1//EN" "http://www.w3.org/Graphics/SVG/1.1/DTD/svg11.dtd">
<svg version="1.1" xmlns="http://www.w3.org/2000/svg" xmlns:xlink="http://www.w3.org/1999/xlink" width="20" height="20" viewBox="0 0 20 20">
<path fill="#000000" d="M19.854 8.646c-0.195-0.195-0.512-0.195-0.707 0l-1.149 1.149c-0.051-2.060-0.878-3.99-2.341-5.452-1.511-1.511-3.52-2.343-5.657-2.343-2.974 0-5.686 1.635-7.077 4.266-0.129 0.244-0.036 0.547 0.208 0.676s0.547 0.036 0.676-0.208c1.217-2.303 3.59-3.734 6.193-3.734 3.789 0 6.885 3.027 6.997 6.789l-1.143-1.143c-0.195-0.195-0.512-0.195-0.707 0s-0.195 0.512 0 0.707l2 2c0.098 0.098 0.226 0.146 0.354 0.146s0.256-0.049 0.354-0.146l2-2c0.195-0.195 0.195-0.512 0-0.707z"></path>
<path fill="#000000" d="M16.869 13.058c-0.244-0.129-0.547-0.036-0.676 0.208-1.217 2.303-3.59 3.734-6.193 3.734-3.789 0-6.885-3.027-6.997-6.789l1.143 1.143c0.098 0.098 0.226 0.146 0.354 0.146s0.256-0.049 0.354-0.146c0.195-0.195 0.195-0.512 0-0.707l-2-2c-0.195-0.195-0.512-0.195-0.707 0l-2 2c-0.195 0.195-0.195 0.512 0 0.707s0.512 0.195 0.707 0l1.149-1.149c0.051 2.060 0.878 3.99 2.341 5.452 1.511 1.511 3.52 2.343 5.657 2.343 2.974 0 5.686-1.635 7.077-4.266 0.129-0.244 0.036-0.547-0.208-0.676z"></path>
</svg>
