<?xml version="1.0" encoding="utf-8"?>
<!-- Generated by IcoMoon.io -->
<!DOCTYPE svg PUBLIC "-//W3C//DTD SVG 1.1//EN" "http://www.w3.org/Graphics/SVG/1.1/DTD/svg11.dtd">
<svg version="1.1" xmlns="http://www.w3.org/2000/svg" xmlns:xlink="http://www.w3.org/1999/xlink" width="20" height="20" viewBox="0 0 20 20">
<path fill="#000000" d="M16.5 20h-13c-0.827 0-1.5-0.673-1.5-1.5v-17c0-0.827 0.673-1.5 1.5-1.5h13c0.827 0 1.5 0.673 1.5 1.5v17c0 0.827-0.673 1.5-1.5 1.5zM3.5 1c-0.276 0-0.5 0.224-0.5 0.5v17c0 0.276 0.224 0.5 0.5 0.5h13c0.276 0 0.5-0.224 0.5-0.5v-17c0-0.276-0.224-0.5-0.5-0.5h-13z"></path>
<path fill="#000000" d="M10.5 18h-1c-0.276 0-0.5-0.224-0.5-0.5s0.224-0.5 0.5-0.5h1c0.276 0 0.5 0.224 0.5 0.5s-0.224 0.5-0.5 0.5z"></path>
<path fill="#000000" d="M15.5 16h-11c-0.276 0-0.5-0.224-0.5-0.5v-13c0-0.276 0.224-0.5 0.5-0.5h11c0.276 0 0.5 0.224 0.5 0.5v13c0 0.276-0.224 0.5-0.5 0.5zM5 15h10v-12h-10v12z"></path>
</svg>
