<?xml version="1.0" encoding="utf-8"?>
<!-- Generated by IcoMoon.io -->
<!DOCTYPE svg PUBLIC "-//W3C//DTD SVG 1.1//EN" "http://www.w3.org/Graphics/SVG/1.1/DTD/svg11.dtd">
<svg version="1.1" xmlns="http://www.w3.org/2000/svg" xmlns:xlink="http://www.w3.org/1999/xlink" width="20" height="20" viewBox="0 0 20 20">
<path fill="#000000" d="M17.5 5h-15c-0.276 0-0.5-0.224-0.5-0.5s0.224-0.5 0.5-0.5h15c0.276 0 0.5 0.224 0.5 0.5s-0.224 0.5-0.5 0.5z"></path>
<path fill="#000000" d="M17.5 8h-15c-0.276 0-0.5-0.224-0.5-0.5s0.224-0.5 0.5-0.5h15c0.276 0 0.5 0.224 0.5 0.5s-0.224 0.5-0.5 0.5z"></path>
<path fill="#000000" d="M17.5 11h-15c-0.276 0-0.5-0.224-0.5-0.5s0.224-0.5 0.5-0.5h15c0.276 0 0.5 0.224 0.5 0.5s-0.224 0.5-0.5 0.5z"></path>
<path fill="#000000" d="M17.5 14h-15c-0.276 0-0.5-0.224-0.5-0.5s0.224-0.5 0.5-0.5h15c0.276 0 0.5 0.224 0.5 0.5s-0.224 0.5-0.5 0.5z"></path>
<path fill="#000000" d="M17.5 17h-15c-0.276 0-0.5-0.224-0.5-0.5s0.224-0.5 0.5-0.5h15c0.276 0 0.5 0.224 0.5 0.5s-0.224 0.5-0.5 0.5z"></path>
</svg>
