<?xml version="1.0" encoding="utf-8"?>
<!-- Generated by IcoMoon.io -->
<!DOCTYPE svg PUBLIC "-//W3C//DTD SVG 1.1//EN" "http://www.w3.org/Graphics/SVG/1.1/DTD/svg11.dtd">
<svg version="1.1" xmlns="http://www.w3.org/2000/svg" xmlns:xlink="http://www.w3.org/1999/xlink" width="20" height="20" viewBox="0 0 20 20">
<path fill="#000000" d="M11.762 12.552c-0.145 0-0.289-0.063-0.388-0.184-0.174-0.214-0.142-0.529 0.072-0.703 0.352-0.287 0.554-0.711 0.554-1.164s-0.202-0.878-0.554-1.164c-0.214-0.174-0.247-0.489-0.072-0.703s0.489-0.247 0.703-0.072c0.587 0.477 0.923 1.184 0.923 1.94s-0.337 1.463-0.923 1.94c-0.093 0.075-0.204 0.112-0.315 0.112z"></path>
<path fill="#000000" d="M8.15 3.207c-0.247 0-0.494 0.104-0.736 0.309l-4.098 3.483h-1.816c-0.827 0-1.5 0.673-1.5 1.5v4c0 0.827 0.673 1.5 1.5 1.5h1.816l4.098 3.483c0.241 0.205 0.489 0.309 0.736 0.309 0 0 0 0 0 0 0.272 0 0.516-0.132 0.67-0.362 0.119-0.179 0.18-0.408 0.18-0.68v-12.5c0-0.72-0.427-1.043-0.85-1.043zM1 12.5v-4c0-0.276 0.224-0.5 0.5-0.5h1.5v5h-1.5c-0.276 0-0.5-0.224-0.5-0.5zM8 16.669l-4-3.4v-5.538l4-3.4v12.338z"></path>
</svg>
