<svg xmlns="http://www.w3.org/2000/svg" width="600" height="600"><g fill="none" stroke="#E91E63" stroke-width="24" stroke-miterlimit="10"><path d="M371.987 227.641c47.628 47.628 85.039 98.708 106.914 143.552 26.358 54.033 30.096 99.722 11.103 118.714-19.793 19.793-68.267 15.884-125.731-12.979-43.445-21.821-92.031-59.119-137.242-104.331-46.354-46.354-84.95-95.545-106.667-139.816-27.48-56.023-30.057-103.743-10.643-123.157 18.838-18.839 63.248-16.056 116.694 9.757 45.159 21.812 97.48 60.167 145.572 108.26z"/><path d="M272.931 201.125c65.052-17.465 127.989-24.354 177.767-20.902 59.974 4.16 101.42 23.747 108.385 49.688 7.259 27.033-20.345 67.073-74.054 102.434-40.608 26.733-97.189 50.188-158.941 66.769-63.312 16.998-125.207 25.858-174.408 22.553-62.26-4.181-104.884-25.789-112.004-52.306-6.907-25.731 17.688-62.811 66.75-96.214 41.453-28.224 100.817-54.386 166.505-72.022z"/><path d="M200.469 273.707c17.357-65.081 42.82-123.05 70.671-164.45 33.556-49.882 71.225-76.008 97.178-69.086 27.045 7.212 47.949 51.123 51.76 115.315 2.883 48.533-5.055 109.266-21.531 171.046-16.892 63.341-40.126 121.389-67.562 162.365-34.716 51.852-74.723 77.988-101.252 70.913-25.743-6.865-45.584-46.692-50.021-105.881-3.749-50.009 3.232-114.505 20.757-180.222z"/></g><path fill="#E91E63" d="M300 349.369c-1.019 0-1.881-.353-2.586-1.058l-36.679-35.386c-.392-.313-.931-.822-1.617-1.528-.686-.705-1.773-1.988-3.262-3.851-1.489-1.86-2.822-3.771-3.997-5.73s-2.224-4.33-3.145-7.112c-.92-2.782-1.381-5.486-1.381-8.111 0-8.621 2.488-15.361 7.465-20.221 4.977-4.859 11.854-7.289 20.631-7.289 2.43 0 4.909.421 7.436 1.264a30.105 30.105 0 0 1 7.054 3.41c2.174 1.43 4.046 2.772 5.613 4.026s3.057 2.586 4.467 3.997a54.066 54.066 0 0 1 4.467-3.997c1.568-1.254 3.438-2.596 5.614-4.026a30.066 30.066 0 0 1 7.054-3.41c2.527-.842 5.006-1.264 7.435-1.264 8.778 0 15.655 2.43 20.632 7.289 4.978 4.859 7.466 11.6 7.466 20.221 0 8.66-4.487 17.477-13.461 26.451l-36.619 35.268c-.706.705-1.568 1.057-2.587 1.057z"/></svg>