<svg version="1.2" baseProfile="tiny" xmlns="http://www.w3.org/2000/svg" width="24" height="24" viewBox="0 0 24 24"><path d="M4 9h3.5c.736 0 1.393.391 1.851 1.001.325-.604.729-1.163 1.191-1.662-.803-.823-1.866-1.339-3.042-1.339h-3.5c-.553 0-1 .448-1 1s.447 1 1 1zM11.685 12.111c.551-1.657 2.256-3.111 3.649-3.111h1.838l-1.293 1.293c-.391.391-.391 1.023 0 1.414.195.195.451.293.707.293s.512-.098.707-.293l3.707-3.707-3.707-3.707c-.391-.391-1.023-.391-1.414 0s-.391 1.023 0 1.414l1.293 1.293h-1.838c-2.274 0-4.711 1.967-5.547 4.479l-.472 1.411c-.641 1.926-2.072 3.11-2.815 3.11h-2.5c-.553 0-1 .448-1 1s.447 1 1 1h2.5c1.837 0 3.863-1.925 4.713-4.479l.472-1.41zM15.879 13.293c-.391.391-.391 1.023 0 1.414l1.293 1.293h-2.338c-1.268 0-2.33-.891-2.691-2.108-.256.75-.627 1.499-1.09 2.185.886 1.162 2.243 1.923 3.781 1.923h2.338l-1.293 1.293c-.391.391-.391 1.023 0 1.414.195.195.451.293.707.293s.512-.098.707-.293l3.707-3.707-3.707-3.707c-.391-.391-1.023-.391-1.414 0z"/></svg>