<svg version="1.2" baseProfile="tiny" xmlns="http://www.w3.org/2000/svg" width="24" height="24" viewBox="0 0 24 24"><path d="M4 19.999c-.096 0-.191-.015-.286-.042-.424-.126-.714-.516-.714-.958v-1c0-4.8 3.381-8.864 8-9.796v-1.704c0-.534.208-1.036.585-1.414.756-.757 2.075-.756 2.829-.001l6.288 6.203c.191.188.298.443.298.712s-.107.524-.298.712l-6.293 6.207c-.746.746-2.067.751-2.823-.005-.378-.378-.586-.88-.586-1.414v-1.437c-2.495.201-4.523.985-6.164 3.484-.19.288-.505.453-.836.453zm8-5.989l1-.01v3.499l5.576-5.5-5.576-5.496v3.497s-.384-.004-.891.052c-3.416.378-6.125 2.864-6.892 6.08 2.121-1.728 4.551-2.066 6.783-2.122z"/></svg>