<svg version="1.2" baseProfile="tiny" xmlns="http://www.w3.org/2000/svg" width="24" height="24" viewBox="0 0 24 24"><path d="M12 21.312l-7.121-7.121c-1.17-1.17-1.17-3.073 0-4.242 1.094-1.094 2.978-1.138 4.121-.115v-4.834c0-1.654 1.346-3 3-3s3 1.346 3 3v4.834c1.143-1.023 3.027-.979 4.121.115 1.17 1.169 1.17 3.072 0 4.242l-7.121 7.121zm-5-10.242c-.268 0-.518.104-.707.293-.391.39-.391 1.023 0 1.414l5.707 5.707 5.707-5.707c.391-.391.391-1.024 0-1.414-.379-.379-1.035-.379-1.414 0l-3.293 3.293v-9.656c0-.551-.448-1-1-1s-1 .449-1 1v9.656l-3.293-3.293c-.189-.189-.439-.293-.707-.293z"/></svg>