<svg version="1.2" baseProfile="tiny" xmlns="http://www.w3.org/2000/svg" width="24" height="24" viewBox="0 0 24 24"><path d="M12 21c-1.654 0-3-1.346-3-3v-4.764c-1.143 1.024-3.025.979-4.121-.115-1.17-1.169-1.17-3.073 0-4.242l7.121-7.121 7.121 7.121c1.17 1.169 1.17 3.073 0 4.242-1.094 1.095-2.979 1.14-4.121.115v4.764c0 1.654-1.346 3-3 3zm-1-12.586v9.586c0 .551.448 1 1 1s1-.449 1-1v-9.586l3.293 3.293c.379.378 1.035.378 1.414 0 .391-.391.391-1.023 0-1.414l-5.707-5.707-5.707 5.707c-.391.391-.391 1.023 0 1.414.379.378 1.035.378 1.414 0l3.293-3.293z"/></svg>