<svg version="1.2" baseProfile="tiny" xmlns="http://www.w3.org/2000/svg" width="24" height="24" viewBox="0 0 24 24"><path d="M17.707 8.293c-.391-.391-1.023-.391-1.414 0s-.391 1.023 0 1.414l1.293 1.293h-4.586v-4.586l1.293 1.293c.195.195.451.293.707.293s.512-.098.707-.293c.391-.391.391-1.023 0-1.414l-3.707-3.707-3.707 3.707c-.391.391-.391 1.023 0 1.414s1.023.391 1.414 0l1.293-1.293v4.586h-4.586l1.293-1.293c.391-.391.391-1.023 0-1.414s-1.023-.391-1.414 0l-3.707 3.707 3.707 3.707c.195.195.451.293.707.293s.512-.098.707-.293c.391-.391.391-1.023 0-1.414l-1.293-1.293h4.586v4.586l-1.293-1.293c-.391-.391-1.023-.391-1.414 0s-.391 1.023 0 1.414l3.707 3.707 3.707-3.707c.391-.391.391-1.023 0-1.414s-1.023-.391-1.414 0l-1.293 1.293v-4.586h4.586l-1.293 1.293c-.391.391-.391 1.023 0 1.414.195.195.451.293.707.293s.512-.098.707-.293l3.707-3.707-3.707-3.707z"/></svg>