<svg version="1.2" baseProfile="tiny" xmlns="http://www.w3.org/2000/svg" width="24" height="24" viewBox="0 0 24 24"><path d="M10.928 21c-.801 0-1.555-.312-2.121-.879l-7.121-7.121 7.121-7.121c1.133-1.134 3.109-1.134 4.242 0 .566.564.879 1.317.879 2.119 0 .746-.27 1.451-.764 2.002h4.836c1.654 0 3 1.346 3 3s-1.346 3-3 3h-4.836c.493.549.764 1.252.764 1.998.002.802-.312 1.557-.879 2.124-.567.566-1.32.878-2.121.878zm-6.414-8l5.707 5.707c.379.378 1.035.378 1.414 0 .189-.189.293-.441.293-.708s-.104-.517-.291-.705l-3.295-3.294h9.658c.552 0 1-.449 1-1s-.448-1-1-1h-9.658l3.293-3.293c.189-.189.293-.441.293-.708s-.104-.517-.292-.705c-.381-.38-1.036-.379-1.415-.001l-5.707 5.707z"/></svg>