<svg version="1.2" baseProfile="tiny" xmlns="http://www.w3.org/2000/svg" width="24" height="24" viewBox="0 0 24 24"><path d="M21.5 12.473c0-2.495-.818-4.426-2.653-6.259-.309-.309-.676-.533-1.073-.682l-.946-.946-3.707-3.707c-.566-.567-1.32-.879-2.121-.879s-1.555.312-2.121.879c-.567.566-.879 1.32-.879 2.121 0 .277.037.549.11.809-1.029.461-1.974 1.12-2.827 1.974-1.795 1.793-2.783 4.178-2.783 6.717 0 2.495.818 4.426 2.653 6.259.299.298.652.521 1.034.669l.985.986 3.707 3.707c.566.567 1.32.879 2.121.879s1.555-.312 2.121-.879c.567-.566.879-1.32.879-2.121 0-.286-.04-.566-.117-.834 1.031-.461 1.978-1.121 2.833-1.975 1.796-1.794 2.784-4.18 2.784-6.718zm-9.13 7.484l1.337 1.336c.391.391.391 1.023 0 1.414-.195.195-.451.293-.707.293s-.512-.098-.707-.293l-3.707-3.707 3.707-3.707c.195-.195.451-.293.707-.293s.512.098.707.293c.391.391.391 1.023 0 1.414l-1.247 1.247c1.351-.091 2.425-.59 3.428-1.593 1.039-1.038 1.611-2.419 1.611-3.888 0-1.422-.401-2.351-1.48-3.429-.391-.391-.391-1.023 0-1.415.195-.195.451-.293.708-.293.256 0 .512.098.707.292 1.448 1.447 2.066 2.896 2.066 4.844 0 2.004-.78 3.887-2.197 5.303-1.39 1.39-3.01 2.1-4.933 2.182zm-.766-14.939l-1.311-1.311c-.391-.391-.391-1.023 0-1.414.195-.195.451-.293.707-.293s.512.098.707.293l3.707 3.707-3.707 3.707c-.195.195-.451.293-.707.293s-.512-.098-.707-.293c-.391-.391-.391-1.023 0-1.414l1.275-1.275c-1.365.086-2.448.584-3.456 1.593-1.04 1.039-1.612 2.42-1.612 3.889 0 1.422.401 2.351 1.48 3.429.391.391.391 1.023 0 1.415-.195.195-.452.293-.708.293s-.512-.098-.707-.292c-1.447-1.448-2.065-2.897-2.065-4.845 0-2.004.78-3.887 2.197-5.303 1.382-1.383 2.993-2.093 4.907-2.179zm-2.916 10.204c-.888-.887-1.188-1.574-1.188-2.722 0-1.202.468-2.332 1.318-3.181l.187-.179c.033.481.236.93.581 1.274.378.378.88.586 1.414.586s1.036-.208 1.414-.586l2.339-2.339c-.078.596.104 1.219.56 1.675.888.887 1.188 1.574 1.188 2.722 0 1.202-.468 2.332-1.318 3.181l-.188.181c-.039-.472-.241-.91-.579-1.248-.38-.378-.882-.586-1.416-.586s-1.036.208-1.414.586l-2.342 2.342c.089-.605-.093-1.242-.556-1.706z"/></svg>