<svg version="1.2" baseProfile="tiny" xmlns="http://www.w3.org/2000/svg" width="24" height="24" viewBox="0 0 24 24"><path d="M12 4c-4.411 0-8 3.589-8 8s3.589 8 8 8c1.616 0 3.172-.479 4.499-1.384.456-.312.574-.934.263-1.39-.311-.457-.932-.572-1.39-.263-.994.679-2.16 1.037-3.372 1.037-3.309 0-6-2.691-6-6s2.691-6 6-6 6 2.691 6 6v.5c0 .552-.448 1-1 1s-1-.448-1-1v-3c0-.553-.447-1-1-1-.441 0-.805.29-.938.688-.58-.427-1.289-.688-2.062-.688-1.93 0-3.5 1.57-3.5 3.5s1.57 3.5 3.5 3.5c1.045 0 1.975-.47 2.616-1.199.548.723 1.408 1.199 2.384 1.199 1.654 0 3-1.346 3-3v-.5c0-4.411-3.589-8-8-8zm0 9.5c-.827 0-1.5-.673-1.5-1.5s.673-1.5 1.5-1.5 1.5.673 1.5 1.5-.673 1.5-1.5 1.5z"/></svg>