<?xml version="1.0"?><svg version="1.2" baseProfile="tiny" xmlns="http://www.w3.org/2000/svg" width="40" height="40" viewBox="0 0 40 40"><path d="m25.9 7.4c1.7 0 3.4 0.7 4.7 2 2.6 2.6 2.6 6.8 0 9.4l-11.8 11.8c-1.3 1.3-3 2-4.7 2s-3.4-0.7-4.7-2c-2.6-2.6-2.6-6.8 0-9.4l1.3-1.4c0 1.4 0.5 2.6 1.2 3.6l-0.1 0.1c-1.3 1.3-1.3 3.5 0 4.8 0.6 0.6 1.5 0.9 2.3 0.9s1.7-0.3 2.4-0.9l4.2-4.3 7.6-7.5c1.2-1.3 1.2-3.5 0-4.7-0.7-0.7-1.6-1-2.4-1-0.9 0-1.7 0.3-2.4 0.9l-7.5 7.6c-0.2 0.2-0.3 0.5-0.3 0.6 0 0.1 0.1 0.4 0.3 0.6 0.1 0.2 0.4 0.2 0.6 0.2 0.2 0 0.4-0.1 0.6-0.2l3.5-3.5 2.3-2.4c0.7 0.6 1 1.5 1 2.4 0 0.8-0.3 1.7-0.9 2.3l-3.6 3.5c-0.8 0.9-1.9 1.3-2.9 1.3s-2.2-0.4-3-1.3c-0.8-0.7-1.2-1.8-1.2-2.9 0-1.1 0.4-2.2 1.2-3l7.6-7.5c1.3-1.3 3-2 4.7-2m0-3.3c-2.7 0-5.2 1-7.1 2.9l-11.8 11.8c-1.9 1.9-2.9 4.4-2.9 7.1s1 5.2 2.9 7.1c1.9 1.8 4.4 2.9 7.1 2.9s5.2-1.1 7.1-2.9l11.8-11.8c1.8-1.9 2.9-4.4 2.9-7.1 0-2.7-1-5.2-2.9-7.1-1.9-1.9-4.4-2.9-7.1-2.9z"></path></svg>