<svg version="1.2" baseProfile="tiny" xmlns="http://www.w3.org/2000/svg" width="24" height="24" viewBox="0 0 24 24"><path d="M19 21h-10c-1.436 0-3.145-.88-3.977-2.046l-2.619-3.667-1.188-1.661c-.246-.344-.249-.894-.008-1.241l1.204-1.686 2.608-3.653c.835-1.167 2.546-2.046 3.98-2.046h10c1.654 0 3 1.346 3 3v10c0 1.654-1.346 3-3 3zm-15.771-8.001l.806 1.125 2.618 3.667c.451.633 1.57 1.209 2.348 1.209h10c.552 0 1-.45 1-1.001v-9.999c0-.551-.448-1-1-1h-10c-.776 0-1.897.576-2.351 1.209l-2.608 3.652-.813 1.138zM13.707 13l2.646-2.646c.194-.194.194-.512 0-.707-.195-.194-.513-.194-.707 0l-2.646 2.646-2.646-2.646c-.195-.194-.513-.194-.707 0-.195.195-.195.513 0 .707l2.646 2.646-2.646 2.646c-.195.195-.195.513 0 .707.097.098.225.147.353.147s.256-.049.354-.146l2.646-2.647 2.646 2.646c.098.098.226.147.354.147s.256-.049.354-.146c.194-.194.194-.512 0-.707l-2.647-2.647z"/></svg>