<?xml version="1.0"?><svg version="1.2" baseProfile="tiny" xmlns="http://www.w3.org/2000/svg" width="40" height="40" viewBox="0 0 40 40"><path d="m31.7 35h-16.7c-2.4 0-5.2-1.5-6.6-3.4l-4.4-6.1-2-2.8c-0.4-0.6-0.4-1.5 0-2.1l2-2.8 4.4-6.1c1.4-1.9 4.2-3.4 6.6-3.4h16.7c2.7 0 5 2.3 5 5v16.7c0 2.8-2.3 5-5 5z m-26.3-13.3l1.3 1.8 4.4 6.2c0.7 1 2.6 2 3.9 2h16.7c0.9 0 1.6-0.8 1.6-1.7v-16.7c0-0.9-0.7-1.6-1.6-1.6h-16.7c-1.3 0-3.2 0.9-3.9 2l-4.4 6.1-1.3 1.9z m17.4 0l4.5-4.4c0.3-0.4 0.3-0.9 0-1.2-0.4-0.3-0.9-0.3-1.2 0l-4.4 4.4-4.4-4.4c-0.4-0.3-0.9-0.3-1.2 0-0.3 0.3-0.3 0.8 0 1.2l4.4 4.4-4.4 4.4c-0.3 0.3-0.3 0.8 0 1.2 0.1 0.1 0.4 0.2 0.6 0.2s0.4-0.1 0.6-0.2l4.4-4.5 4.4 4.5c0.1 0.1 0.4 0.2 0.6 0.2s0.4-0.1 0.6-0.2c0.3-0.4 0.3-0.9 0-1.2l-4.5-4.4z"></path></svg>