<svg version="1.2" baseProfile="tiny" xmlns="http://www.w3.org/2000/svg" width="24" height="24" viewBox="0 0 24 24"><path d="M17 2h-8c-1.654 0-3 1.346-3 3v14c0 .514.104.946.308 1.285.564.935 1.815 1.008 2.813.008l3.172-3.172c.375-.374 1.039-.374 1.414 0l3.172 3.172c.491.491 1.002.74 1.52.74.797 0 1.601-.629 1.601-2.033v-14c0-1.654-1.346-3-3-3zm-8 2h8c.551 0 1 .449 1 1v9.905l-2.451-2.247c-1.406-1.289-3.693-1.288-5.099 0l-2.45 2.247v-9.905c0-.551.449-1 1-1zm6.121 11.707c-.565-.565-1.318-.876-2.121-.876s-1.556.312-2.121.876l-2.879 2.879v-2.324l3.126-2.866c1.033-.947 2.714-.947 3.747 0l3.127 2.866v2.324l-2.879-2.879z"/></svg>