<svg version="1.2" baseProfile="tiny" xmlns="http://www.w3.org/2000/svg" width="24" height="24" viewBox="0 0 24 24"><g><path d="M18 7c0-1.654-1.346-3-3-3h-6c-1.654 0-3 1.346-3 3-1.654 0-3 1.346-3 3v7c0 1.654 1.346 3 3 3h12c1.654 0 3-1.346 3-3v-7c0-1.654-1.346-3-3-3zm-9-1h6c.551 0 1 .449 1 1h-8c0-.551.449-1 1-1zm10 11c0 .551-.449 1-1 1h-12c-.551 0-1-.449-1-1v-1h14v1zm-14-2v-5c0-.551.449-1 1-1h12c.551 0 1 .449 1 1v5h-14zM13 12h-2c-.55 0-1 .45-1 1s.45 1 1 1h2c.55 0 1-.45 1-1s-.45-1-1-1z"/></g></svg>