<?xml version="1.0"?><svg version="1.2" baseProfile="tiny" xmlns="http://www.w3.org/2000/svg" width="40" height="40" viewBox="0 0 40 40"><path d="m33.3 33.3h-26.6c-2.8 0-5-2.2-5-5v-16.6c0-2.8 2.2-5 5-5h26.6c2.8 0 5 2.2 5 5v16.6c0 2.8-2.2 5-5 5z m-26.6-23.3c-0.9 0-1.7 0.8-1.7 1.7v16.6c0 1 0.8 1.7 1.7 1.7h26.6c1 0 1.7-0.7 1.7-1.7v-16.6c0-0.9-0.7-1.7-1.7-1.7h-26.6z m10 15h-6.7c-0.9 0-1.7-0.7-1.7-1.7s0.8-1.6 1.7-1.6h6.7c0.9 0 1.6 0.7 1.6 1.6s-0.7 1.7-1.6 1.7z m0-6.7h-6.7c-0.9 0-1.7-0.7-1.7-1.6s0.8-1.7 1.7-1.7h6.7c0.9 0 1.6 0.7 1.6 1.7s-0.7 1.6-1.6 1.6z"></path><circle cx="26.666666666666668" cy="17.5" r="3.3333333333333335"></circle><path d="m26.7 22.3c-2.6 0-4.2 1.2-4.2 2.3 0 0.6 1.6 1.2 4.2 1.2 2.4 0 4.1-0.6 4.1-1.2 0-1.1-1.6-2.3-4.1-2.3z"></path></svg>