<?xml version="1.0"?><svg version="1.2" baseProfile="tiny" xmlns="http://www.w3.org/2000/svg" width="40" height="40" viewBox="0 0 40 40"><path d="m28.3 35h-13.3c-2.8 0-5-2.2-5-5v-20c0-2.8 2.2-5 5-5h13.3c2.9 0 5 2.2 5 5v20c0 2.8-2.1 5-5 5z m-13.3-26.7c-1 0-1.7 0.7-1.7 1.7v20c0 1 0.7 1.7 1.7 1.7h13.3c1 0 1.7-0.7 1.7-1.7v-20c0-1-0.7-1.7-1.7-1.7h-13.3z"></path><circle cx="16.666666666666668" cy="18.333333333333336" r="1.6666666666666667"></circle><circle cx="21.666666666666668" cy="18.333333333333336" r="1.6666666666666667"></circle><circle cx="26.666666666666668" cy="18.333333333333336" r="1.6666666666666667"></circle><circle cx="16.666666666666668" cy="23.333333333333336" r="1.6666666666666667"></circle><circle cx="21.666666666666668" cy="23.333333333333336" r="1.6666666666666667"></circle><circle cx="26.666666666666668" cy="23.333333333333336" r="1.6666666666666667"></circle><circle cx="16.666666666666668" cy="28.333333333333336" r="1.6666666666666667"></circle><circle cx="21.666666666666668" cy="28.333333333333336" r="1.6666666666666667"></circle><circle cx="26.666666666666668" cy="28.333333333333336" r="1.6666666666666667"></circle><path d="m26.7 11.7v1.6h-10v-1.6h10m1.6-1.7h-13.3v5h13.3v-5z"></path></svg>