<svg version="1.2" baseProfile="tiny" xmlns="http://www.w3.org/2000/svg" width="24" height="24" viewBox="0 0 24 24"><path d="M19 20h-14c-1.654 0-3-1.346-3-3v-8c0-1.654 1.346-3 3-3h1.586l1-1c.579-.579 1.596-1 2.414-1h4c.818 0 1.835.421 2.414 1l1 1h1.586c1.654 0 3 1.346 3 3v8c0 1.654-1.346 3-3 3zm-14-12c-.552 0-1 .448-1 1v8c0 .552.448 1 1 1h14c.552 0 1-.448 1-1v-8c0-.552-.448-1-1-1h-2c-.266 0-.52-.105-.707-.293l-1.293-1.293c-.201-.201-.715-.414-1-.414h-4c-.285 0-.799.213-1 .414l-1.293 1.293c-.187.188-.441.293-.707.293h-2zM12 10c1.379 0 2.5 1.121 2.5 2.5s-1.121 2.5-2.5 2.5-2.5-1.121-2.5-2.5 1.121-2.5 2.5-2.5m0-1c-1.934 0-3.5 1.566-3.5 3.5 0 1.932 1.566 3.5 3.5 3.5s3.5-1.568 3.5-3.5c0-1.934-1.566-3.5-3.5-3.5zM18 8.699c-.719 0-1.3.582-1.3 1.301s.581 1.299 1.3 1.299 1.3-.58 1.3-1.299-.581-1.301-1.3-1.301z"/></svg>