<svg version="1.2" baseProfile="tiny" xmlns="http://www.w3.org/2000/svg" width="24" height="24" viewBox="0 0 24 24"><path d="M17 9l-.351.015c-.825-2.377-3.062-4.015-5.649-4.015-3.309 0-6 2.691-6 6l.001.126c-1.724.445-3.001 2.013-3.001 3.874 0 2.206 1.794 4 4 4h5v-4.586l-1.293 1.293c-.195.195-.451.293-.707.293s-.512-.098-.707-.293c-.391-.391-.391-1.023 0-1.414l2.999-2.999c.093-.093.203-.166.326-.217.244-.101.52-.101.764 0 .123.051.233.124.326.217l2.999 2.999c.391.391.391 1.023 0 1.414-.195.195-.451.293-.707.293s-.512-.098-.707-.293l-1.293-1.293v4.586h4c2.757 0 5-2.243 5-5s-2.243-5-5-5z"/></svg>