<svg version="1.2" baseProfile="tiny" xmlns="http://www.w3.org/2000/svg" width="24" height="24" viewBox="0 0 24 24"><g><path d="M7.828 19c-.801 0-1.555-.312-2.121-.879l-5.121-5.121 5.121-5.121c1.133-1.134 3.112-1.134 4.243.001 1.169 1.168 1.169 3.072-.001 4.241l-.878.879.878.879c1.17 1.169 1.17 3.073 0 4.242-.564.567-1.318.879-2.121.879zm-4.414-6l3.707 3.707c.38.379 1.039.377 1.413.001.391-.391.391-1.025.001-1.415l-2.292-2.293 2.292-2.293c.39-.39.39-1.024 0-1.414-.378-.379-1.036-.377-1.414 0l-3.707 3.707zM16.172 19c-.803 0-1.557-.312-2.122-.88-1.169-1.168-1.169-3.072.001-4.241l.878-.879-.878-.879c-1.17-1.169-1.17-3.073 0-4.242 1.129-1.133 3.109-1.134 4.242 0l5.121 5.121-5.121 5.121c-.566.567-1.32.879-2.121.879zm-.001-10c-.267 0-.518.104-.705.292-.391.391-.391 1.025-.001 1.415l2.292 2.293-2.292 2.293c-.39.39-.39 1.024 0 1.414.377.378 1.035.379 1.414 0l3.707-3.707-3.707-3.707c-.19-.189-.441-.293-.708-.293z"/></g></svg>