<svg version="1.2" baseProfile="tiny" xmlns="http://www.w3.org/2000/svg" width="24" height="24" viewBox="0 0 24 24"><path d="M18.983 8.791c-.176-3.704-3.236-6.666-6.983-6.666s-6.807 2.962-6.983 6.666l-.017.084v6.25c0 3.86 3.141 7 7 7s7-3.14 7-7v-6.25l-.017-.084zm-6.983 8.834c-2.22 0-4.132-1.324-5-3.222v-.388c1.271 1.3 3.042 2.11 5 2.11s3.729-.811 5-2.11v.388c-.868 1.898-2.78 3.222-5 3.222zm0-13.5c2.757 0 5 2.243 5 5s-2.243 5-5 5-5-2.243-5-5 2.243-5 5-5zm0 16c-2.271 0-4.172-1.532-4.778-3.609 1.188 1.293 2.888 2.109 4.778 2.109s3.59-.816 4.778-2.109c-.606 2.077-2.507 3.609-4.778 3.609z"/></svg>