<svg version="1.2" baseProfile="tiny" xmlns="http://www.w3.org/2000/svg" width="24" height="24" viewBox="0 0 24 24"><path d="M12 3c-4.963 0-9 4.038-9 9s4.037 9 9 9 9-4.038 9-9-4.037-9-9-9zm0 16c-3.859 0-7-3.14-7-7s3.141-7 7-7 7 3.14 7 7-3.141 7-7 7zM12.707 12l2.646-2.646c.194-.194.194-.512 0-.707-.195-.194-.513-.194-.707 0l-2.646 2.646-2.646-2.647c-.195-.194-.513-.194-.707 0-.195.195-.195.513 0 .707l2.646 2.647-2.646 2.646c-.195.195-.195.513 0 .707.097.098.225.147.353.147s.256-.049.354-.146l2.646-2.647 2.646 2.646c.098.098.226.147.354.147s.256-.049.354-.146c.194-.194.194-.512 0-.707l-2.647-2.647z"/></svg>