<svg version="1.2" baseProfile="tiny" xmlns="http://www.w3.org/2000/svg" width="24" height="24" viewBox="0 0 24 24"><path d="M21.989 16.049c.009-.315.011-.657.011-1.049v-9c0-1.654-1.346-3-3-3h-14c-1.654 0-3 1.346-3 3v9c0 .385.002.73.012 1.049-1.145.228-2.012 1.24-2.012 2.451 0 1.378 1.122 2.5 2.5 2.5h19c1.378 0 2.5-1.122 2.5-2.5 0-1.211-.866-2.222-2.011-2.451zm-17.989-10.049c0-.551.449-1 1-1h14c.551 0 1 .449 1 1v9c0 .388-.005.726-.014 1h-.986v-9c0-.55-.45-1-1-1h-12c-.55 0-1 .45-1 1v9h-.98c-.012-.264-.02-.599-.02-1v-9zm14 10h-12v-9h12v9zm3.5 3h-19c-.271 0-.5-.229-.5-.5s.229-.5.5-.5h19c.271 0 .5.229.5.5s-.229.5-.5.5z"/></svg>