<svg version="1.2" baseProfile="tiny" xmlns="http://www.w3.org/2000/svg" width="24" height="24" viewBox="0 0 24 24"><path d="M12 8.5c-1.654 0-3-1.346-3-3s1.346-3 3-3 3 1.346 3 3-1.346 3-3 3zm0-4c-.552 0-1 .449-1 1s.448 1 1 1 1-.449 1-1-.448-1-1-1zM12 21.5c-1.654 0-3-1.346-3-3s1.346-3 3-3 3 1.346 3 3-1.346 3-3 3zm0-4c-.552 0-1 .449-1 1s.448 1 1 1 1-.449 1-1-.448-1-1-1zM18 15h-12c-1.654 0-3-1.346-3-3s1.346-3 3-3h12c1.654 0 3 1.346 3 3s-1.346 3-3 3zm-12-4c-.552 0-1 .449-1 1s.448 1 1 1h12c.552 0 1-.449 1-1s-.448-1-1-1h-12z"/></svg>