<svg version="1.2" baseProfile="tiny" xmlns="http://www.w3.org/2000/svg" width="24" height="24" viewBox="0 0 24 24"><path d="M16.707 7.404c-.189-.188-.448-.283-.707-.283s-.518.095-.707.283l-2.293 2.293v-6.697c0-.552-.448-1-1-1s-1 .448-1 1v6.697l-2.293-2.293c-.189-.188-.44-.293-.707-.293s-.518.105-.707.293c-.39.39-.39 1.024 0 1.414l4.707 4.682 4.709-4.684c.388-.387.388-1.022-.002-1.412zM20.987 16c0-.105-.004-.211-.039-.316l-2-6c-.136-.409-.517-.684-.948-.684h-.219c-.094.188-.21.368-.367.525l-1.482 1.475h1.348l1.667 5h-13.893l1.667-5h1.348l-1.483-1.475c-.157-.157-.274-.337-.367-.525h-.219c-.431 0-.812.275-.948.684l-2 6c-.035.105-.039.211-.039.316-.013 0-.013 5-.013 5 0 .553.447 1 1 1h16c.553 0 1-.447 1-1 0 0 0-5-.013-5z"/></svg>