<svg version="1.2" baseProfile="tiny" xmlns="http://www.w3.org/2000/svg" width="24" height="24" viewBox="0 0 24 24"><path d="M21.561 5.318l-2.879-2.879c-.293-.293-.677-.439-1.061-.439-.385 0-.768.146-1.061.439l-3.56 3.561h-9c-.552 0-1 .447-1 1v13c0 .553.448 1 1 1h13c.552 0 1-.447 1-1v-9l3.561-3.561c.293-.293.439-.677.439-1.061s-.146-.767-.439-1.06zm-10.061 9.354l-2.172-2.172 6.293-6.293 2.172 2.172-6.293 6.293zm-2.561-1.339l1.756 1.728-1.695-.061-.061-1.667zm7.061 5.667h-11v-11h6l-3.18 3.18c-.293.293-.478.812-.629 1.289-.16.5-.191 1.056-.191 1.47v3.061h3.061c.414 0 1.108-.1 1.571-.29.464-.19.896-.347 1.188-.64l3.18-3.07v6zm2.5-11.328l-2.172-2.172 1.293-1.293 2.171 2.172-1.292 1.293z"/></svg>