<?xml version="1.0"?><svg version="1.2" baseProfile="tiny" xmlns="http://www.w3.org/2000/svg" width="40" height="40" viewBox="0 0 40 40"><path d="m21.7 29.2c-4.2 0-7.5-3.4-7.5-7.5 0-1-0.8-1.7-1.7-1.7s-1.7 0.7-1.7 1.7c0 5.9 4.9 10.8 10.9 10.8s10.8-4.9 10.8-10.8-4.9-10.9-10.8-10.9c-1 0-1.7 0.8-1.7 1.7s0.7 1.7 1.7 1.7c4.1 0 7.5 3.3 7.5 7.5s-3.4 7.5-7.5 7.5z m-3.9-22.5c0.9 0 1.6 0.7 1.6 1.6s-0.7 1.7-1.6 1.7h-5.4l2.8 2.8 6.8 6.9c0.7 0.6 0.7 1.7 0 2.3-0.3 0.3-0.7 0.5-1.2 0.5s-0.8-0.2-1.1-0.5l-6.9-6.8-2.8-2.8v5.4c0 0.9-0.7 1.6-1.7 1.6s-1.6-0.7-1.6-1.6v-11.1h11.1"></path></svg>