<svg version="1.2" baseProfile="tiny" xmlns="http://www.w3.org/2000/svg" width="24" height="24" viewBox="0 0 24 24"><path d="M22.711 9.796c-.041-.041-4.055-4.096-5.982-6.146-.42-.414-.999-.65-1.586-.65-1.182 0-2.143.896-2.143 2h-8c-.553 0-1 .448-1 1v14c0 .552.447 1 1 1h14c.553 0 1-.448 1-1v-6.045c1.434-1.461 2.688-2.729 2.711-2.751.387-.39.387-1.018 0-1.408zm-7.432 6.145l-.136.059-.144-.04v-3.96h-1c-1.771.034-3.336.68-4.753 1.958.43-2.215 1.6-4.958 4.753-4.958h1v-3.958l.144-.042.154.05c1.436 1.525 4.051 4.187 5.297 5.45-.253.257-4.342 4.422-5.315 5.441zm-9.279 3.059v-12h8v1c-4.66 0-6 4.871-6 8.5v.5c1.691-2.578 3.6-3.953 6-4v3c0 .551.512 1 1.143 1 .364 0 .676-.158.883-.391.539-.565 1.242-1.291 1.976-2.043v4.434h-12.002z"/></svg>