<svg version="1.2" baseProfile="tiny" xmlns="http://www.w3.org/2000/svg" width="24" height="24" viewBox="0 0 24 24"><path d="M12 9c1.211 0 2.381.355 3.297 1.004 1.301.92 2.43 2.124 3.165 2.996-.735.872-1.864 2.077-3.166 2.996-.915.649-2.085 1.004-3.296 1.004s-2.382-.355-3.299-1.004c-1.301-.92-2.43-2.124-3.164-2.996.734-.872 1.863-2.076 3.164-2.995.917-.65 2.088-1.005 3.299-1.005m0-2c-1.691 0-3.242.516-4.453 1.371-2.619 1.852-4.547 4.629-4.547 4.629s1.928 2.777 4.547 4.629c1.211.855 2.762 1.371 4.453 1.371s3.242-.516 4.451-1.371c2.619-1.852 4.549-4.629 4.549-4.629s-1.93-2.777-4.549-4.629c-1.209-.855-2.76-1.371-4.451-1.371zM12 12c-.553 0-1 .447-1 1 0 .551.447 1 1 1 .551 0 1-.449 1-1 0-.553-.449-1-1-1zM12 16c-1.654 0-3-1.346-3-3s1.346-3 3-3 3 1.346 3 3-1.346 3-3 3zm0-5c-1.104 0-2 .896-2 2s.896 2 2 2 2-.896 2-2-.896-2-2-2z"/></svg>