<svg version="1.2" baseProfile="tiny" xmlns="http://www.w3.org/2000/svg" width="24" height="24" viewBox="0 0 24 24"><path d="M21.821 12.43c-.083-.119-2.062-2.944-4.793-4.875-1.416-1.003-3.202-1.555-5.028-1.555-1.825 0-3.611.552-5.03 1.555-2.731 1.931-4.708 4.756-4.791 4.875-.238.343-.238.798 0 1.141.083.119 2.06 2.944 4.791 4.875 1.419 1.002 3.205 1.554 5.03 1.554 1.826 0 3.612-.552 5.028-1.555 2.731-1.931 4.71-4.756 4.793-4.875.239-.342.239-.798 0-1.14zm-9.821 4.07c-1.934 0-3.5-1.57-3.5-3.5 0-1.934 1.566-3.5 3.5-3.5 1.93 0 3.5 1.566 3.5 3.5 0 1.93-1.57 3.5-3.5 3.5zM14 13c0 1.102-.898 2-2 2-1.105 0-2-.898-2-2 0-1.105.895-2 2-2 1.102 0 2 .895 2 2z"/></svg>