<svg version="1.2" baseProfile="tiny" xmlns="http://www.w3.org/2000/svg" width="24" height="24" viewBox="0 0 24 24"><path d="M18.383 4.318c-.374-.155-.804-.069-1.09.217-1.264 1.263-3.321 1.264-4.586 0-2.045-2.043-5.37-2.043-7.414 0-.188.187-.293.442-.293.707v13c0 .552.448 1 1 1s1-.448 1-1v-4.553c1.271-.997 3.121-.911 4.293.26 2.045 2.043 5.371 2.043 7.414 0 .188-.188.293-.442.293-.707v-8c0-.405-.244-.769-.617-.924zm-7.09 1.631c1.54 1.539 3.808 1.918 5.707 1.138v2.311c-1.446.916-3.387.749-4.646-.51-1.448-1.447-3.598-1.743-5.354-.927v-2.272c1.271-.997 3.121-.912 4.293.26zm1.414 6.585c-1.022-1.021-2.365-1.532-3.707-1.532-.681 0-1.361.131-2 .394v-2.311c1.446-.916 3.387-.749 4.646.51.925.924 2.139 1.386 3.354 1.386.687 0 1.366-.164 2-.459v2.272c-1.272.997-3.122.911-4.293-.26z"/></svg>