<svg version="1.2" baseProfile="tiny" xmlns="http://www.w3.org/2000/svg" width="24" height="24" viewBox="0 0 24 24"><path d="M14.5 4h.005m-.005 0l-2.5 6 5 2.898-7.5 7.102 2.5-6-5-2.9 7.5-7.1m0-2c-.562.012-1.029.219-1.379.551l-7.497 7.095c-.458.435-.685 1.059-.61 1.686.072.626.437 1.182.982 1.498l3.482 2.021-1.826 4.381c-.362.871-.066 1.879.712 2.416.344.236.739.354 1.135.354.498 0 .993-.186 1.375-.548l7.5-7.103c.458-.434.685-1.058.61-1.685-.073-.627-.438-1.183-.982-1.498l-3.482-2.018 1.789-4.293c.123-.26.192-.551.192-.857 0-1.102-.89-1.996-2.001-2z"/></svg>