<svg version="1.2" baseProfile="tiny" xmlns="http://www.w3.org/2000/svg" width="24" height="24" viewBox="0 0 24 24"><path d="M18 6h-6c0-1.104-.896-2-2-2h-4c-1.654 0-3 1.346-3 3v10c0 1.654 1.346 3 3 3h12c1.654 0 3-1.346 3-3v-8c0-1.654-1.346-3-3-3zm0 12h-12c-.552 0-1-.448-1-1v-7h4c.275 0 .5-.225.5-.5s-.225-.5-.5-.5h-4v-2c0-.552.448-1 1-1h4c0 1.104.896 2 2 2h6c.552 0 1 .448 1 1h-4c-.275 0-.5.225-.5.5s.225.5.5.5h4v7c0 .552-.448 1-1 1zM15 12h-2v-2c0-.553-.447-1-1-1s-1 .447-1 1v2h-2c-.553 0-1 .447-1 1s.447 1 1 1h2v2c0 .553.447 1 1 1s1-.447 1-1v-2h2c.553 0 1-.447 1-1s-.447-1-1-1z"/></svg>