<?xml version="1.0"?><svg version="1.2" baseProfile="tiny" xmlns="http://www.w3.org/2000/svg" width="40" height="40" viewBox="0 0 40 40"><path d="m20 23.3c4.6 0 8.3-3.7 8.3-8.3s-3.7-8.3-8.3-8.3-8.3 3.7-8.3 8.3 3.7 8.3 8.3 8.3z m0-13.3c2.8 0 5 2.2 5 5s-2.2 5-5 5-5-2.2-5-5 2.2-5 5-5z m13.3 15c2.3 0 4.2-1.9 4.2-4.2 0-2.3-1.9-4.1-4.2-4.1-2.3 0-4.1 1.8-4.1 4.1 0 2.3 1.8 4.2 4.1 4.2z m0-6.7c1.4 0 2.5 1.2 2.5 2.5s-1.1 2.5-2.5 2.5-2.5-1.1-2.5-2.5 1.2-2.5 2.5-2.5z m0 7.7c-2.2 0-3.9 0.7-4.8 1.6-1.9-1.5-4.8-2.6-8.5-2.6-3.8 0-6.7 1.1-8.5 2.6-1-0.9-2.7-1.6-4.8-1.6-3.7 0-5.9 1.8-5.9 3.6 0 0.9 2.2 1.8 5.9 1.8 1 0 1.9 0 2.7-0.2l-0.1 0.5c0 1.6 4 3.3 10.7 3.3 6.3 0 10.7-1.7 10.7-3.3l0-0.5c0.7 0.2 1.6 0.2 2.6 0.2 3.4 0 5.9-0.9 5.9-1.8 0-1.8-2.3-3.6-5.9-3.6z m-26.6 3.8c-2.2 0-3.5-0.4-4.1-0.6 0.4-0.7 1.7-1.6 4.1-1.6 1.8 0 3 0.6 3.6 1.2l-0.3 0.6c-0.8 0.2-1.9 0.4-3.3 0.4z m13.3 1.9c-3.6 0-5.8-0.6-7-1 0.9-1.1 3.2-2.4 7-2.4 3.6 0 6 1.3 6.9 2.4-1.2 0.5-3.6 1-6.9 1z m13.3-1.9c-1.5 0-2.5-0.2-3.3-0.4-0.1-0.2-0.2-0.4-0.4-0.6 0.6-0.6 1.8-1.1 3.7-1.1 2.2 0 3.6 0.8 4 1.5-0.6 0.2-2 0.6-4 0.6z m-26.6-4.8c2.3 0 4.1-1.9 4.1-4.2s-1.8-4.1-4.1-4.1c-2.3 0-4.2 1.8-4.2 4.1s1.9 4.2 4.2 4.2z m0-6.7c1.3 0 2.5 1.2 2.5 2.5s-1.2 2.5-2.5 2.5-2.5-1.1-2.5-2.5 1.1-2.5 2.5-2.5z"></path></svg>