<svg version="1.2" baseProfile="tiny" xmlns="http://www.w3.org/2000/svg" width="24" height="24" viewBox="0 0 24 24"><path d="M22.262 10.468c-3.39-2.854-9.546-8.171-9.607-8.225l-.655-.563-.652.563c-.062.053-6.221 5.368-9.66 8.248-.438.394-.688.945-.688 1.509 0 1.104.896 2 2 2h1v6c0 1.104.896 2 2 2h12c1.104 0 2-.896 2-2v-6h1c1.104 0 2-.896 2-2 0-.598-.275-1.161-.738-1.532zm-8.262 9.532h-4v-5h4v5zm4-8l.002 8h-3.002v-6h-6v6h-3v-8h-3.001c2.765-2.312 7.315-6.227 9.001-7.68 1.686 1.453 6.234 5.367 9 7.681l-3-.001z"/></svg>