<?xml version="1.0"?><svg version="1.2" baseProfile="tiny" xmlns="http://www.w3.org/2000/svg" width="40" height="40" viewBox="0 0 40 40"><path d="m35.3 25.7l-9.9-16.4c-1.3-2.2-3.2-3.5-5.4-3.5s-4.1 1.3-5.4 3.4l-9.9 16.5c-0.7 1.2-1.1 2.5-1.1 3.7 0 0.9 0.3 1.8 0.7 2.7 1.1 1.8 3.2 2.9 5.7 2.9h20c2.5 0 4.6-1.1 5.7-3 0.5-0.8 0.7-1.7 0.7-2.6 0-1.2-0.4-2.5-1.1-3.7z m-15.3-11.6c1.4 0 2.6 1.1 2.6 2.6 0 1.4-1.2 2.5-2.6 2.5-1.4 0-2.6-1.1-2.6-2.5 0-1.5 1.2-2.6 2.6-2.6z m2.8 14.1c0 0.1-1.3 1.5-3.4 1.5h-0.3c-0.8 0-1.5-0.4-1.9-1-0.6-0.8-0.6-1.9-0.2-3.1l0.6-2c0.4-1.1 0.1-1.3-0.1-1.4l-0.3-0.1c-0.4 0-1 0.3-1.2 0.4-0.1 0.1-0.3 0.1-0.5-0.1-0.1-0.2-0.1-0.4 0-0.6 0.1 0 1.5-1.6 3.7-1.5 0.9 0.1 1.6 0.5 2 1.1 0.5 0.8 0.6 1.8 0.2 3l-0.7 2.1c-0.4 1.1 0 1.3 0.2 1.4l0.2 0c0.5 0 1-0.2 1.2-0.3 0.2-0.1 0.4-0.1 0.5 0.1 0.1 0.1 0.1 0.3 0 0.5z"></path></svg>