<svg version="1.2" baseProfile="tiny" xmlns="http://www.w3.org/2000/svg" width="24" height="24" viewBox="0 0 24 24"><path d="M14.234 16.014l.554-1.104c.808-1.61.897-3.228.253-4.552-.122-.252-.277-.479-.443-.693 1.411-.619 2.402-2.026 2.402-3.664 0-2.206-1.794-4-4-4s-4 1.794-4 4c0 .783.234 1.508.624 2.126-1.696.33-2.806 1.248-2.947 1.375-.716.631-.885 1.68-.405 2.504.324.559.886.909 1.494.98l-.554 1.104c-.808 1.61-.897 3.228-.254 4.552.565 1.164 1.621 1.955 2.972 2.229.413.084.836.127 1.254.127 2.368 0 3.965-1.347 4.14-1.501.716-.63.887-1.678.407-2.503-.325-.556-.887-.909-1.497-.98zm-1.234-12.013c1.104 0 2 .896 2 2s-.896 2-2 2c-1.105 0-2-.896-2-2s.895-2 2-2zm-1.816 14.999c-.271 0-.559-.025-.854-.087-1.642-.334-2.328-1.933-1.328-3.927l1-1.995c.5-.996.47-1.63-.108-2.035-.181-.125-.431-.169-.689-.169-.577 0-1.201.214-1.201.214s1.133-1.001 2.812-1.001c.271 0 .56.025.856.087 1.64.334 2.328 1.933 1.328 3.927l-1 1.993c-.5.998-.472 1.632.106 2.035.181.126.433.169.692.169.577 0 1.2-.212 1.2-.212s-1.133 1.001-2.814 1.001z"/></svg>