<svg version="1.2" baseProfile="tiny" xmlns="http://www.w3.org/2000/svg" width="24" height="24" viewBox="0 0 24 24"><path d="M13.839 17.525c-.006.002-.559.186-1.039.186-.265 0-.372-.055-.406-.079-.168-.117-.48-.336.054-1.4l1-1.994c.593-1.184.681-2.329.245-3.225-.356-.733-1.039-1.236-1.92-1.416-.317-.065-.639-.097-.958-.097-1.849 0-3.094 1.08-3.146 1.126-.179.158-.221.42-.102.626.12.206.367.3.595.222.005-.002.559-.187 1.039-.187.263 0 .369.055.402.078.169.118.482.34-.051 1.402l-1 1.995c-.594 1.185-.681 2.33-.245 3.225.356.733 1.038 1.236 1.921 1.416.314.063.636.097.954.097 1.85 0 3.096-1.08 3.148-1.126.179-.157.221-.42.102-.626-.12-.205-.369-.297-.593-.223z"/><circle cx="13" cy="6.001" r="2.5"/></svg>