<svg version="1.2" baseProfile="tiny" xmlns="http://www.w3.org/2000/svg" width="24" height="24" viewBox="0 0 24 24"><path d="M21.17,15.4l-5.91-9.85C14.48,4.25,13.3,3.51,12,3.51S9.52,4.25,8.74,5.54L2.83,15.4c-0.44,0.73-0.66,1.49-0.66,2.21
	c0,0.57,0.14,1.13,0.42,1.62C3.23,20.35,4.47,21,6,21h12c1.53,0,2.77-0.65,3.41-1.77c0.28-0.49,0.42-1.02,0.42-1.58
	C21.84,16.91,21.62,16.14,21.17,15.4z M12,8.45c0.85,0,1.55,0.7,1.55,1.55c0,0.85-0.69,1.55-1.55,1.55c-0.85,0-1.55-0.7-1.55-1.55
	C10.45,9.14,11.14,8.45,12,8.45z M13.69,16.91c-0.03,0.04-0.8,0.92-2.07,0.92l-0.15,0c-0.51-0.03-0.93-0.25-1.18-0.63
	c-0.31-0.47-0.36-1.11-0.12-1.82l0.41-1.22c0.23-0.68,0.01-0.79-0.11-0.85l-0.14-0.02c-0.25,0-0.6,0.15-0.71,0.21
	c-0.1,0.05-0.23,0.03-0.31-0.07c-0.07-0.1-0.07-0.23,0.01-0.32c0.03-0.04,0.87-0.99,2.22-0.91c0.51,0.03,0.93,0.25,1.18,0.63
	c0.32,0.47,0.36,1.11,0.12,1.83l-0.41,1.22c-0.23,0.68-0.01,0.79,0.11,0.85l0.14,0.02c0.25,0,0.6-0.15,0.71-0.2
	c0.11-0.06,0.23-0.03,0.31,0.07C13.77,16.69,13.77,16.82,13.69,16.91z"/>
</svg>
