<svg version="1.2" baseProfile="tiny" xmlns="http://www.w3.org/2000/svg" width="24" height="24" viewBox="0 0 24 24"><path d="M20 11c0-4.9-3.499-9.1-8.32-9.983l-.18-.034-.18.033c-4.821.884-8.32 5.084-8.32 9.984 0 4.617 3.108 8.61 7.5 9.795v1.205c0 .553.448 1 1 1s1-.447 1-1v-1.205c4.392-1.185 7.5-5.178 7.5-9.795zm-7.5 7.7v-2.993l4.354-4.354c.195-.195.195-.512 0-.707s-.512-.195-.707 0l-3.647 3.647v-3.586l2.354-2.354c.195-.195.195-.512 0-.707s-.512-.195-.707 0l-1.647 1.647v-3.293c0-.553-.448-1-1-1s-1 .447-1 1v3.293l-1.646-1.647c-.195-.195-.512-.195-.707 0s-.195.512 0 .707l2.354 2.354v3.586l-3.646-3.646c-.195-.195-.512-.195-.707 0s-.195.512 0 .707l4.354 4.354v2.992c-3.249-1.116-5.502-4.179-5.502-7.7 0-3.874 2.723-7.201 6.5-7.981 3.777.78 6.5 4.107 6.5 7.981 0 3.521-2.253 6.584-5.5 7.7z"/></svg>