<svg version="1.2" baseProfile="tiny" xmlns="http://www.w3.org/2000/svg" width="24" height="24" viewBox="0 0 24 24"><g><path d="M12.5 5.5c-.276 0-.5.224-.5.5s.224.5.5.5c1.083 0 1.964.881 1.964 1.964 0 .276.224.5.5.5s.5-.224.5-.5c0-1.634-1.33-2.964-2.964-2.964zM12.5 1c-4.136 0-7.5 3.364-7.5 7.5 0 1.486.44 2.922 1.274 4.165l.08.135c1.825 2.606 2.146 3.43 2.146 4.2v3c0 .552.448 1 1 1h2c0 .26.11.52.29.71.19.18.45.29.71.29.26 0 .52-.11.71-.29.18-.19.29-.45.29-.71h2c.552 0 1-.448 1-1v-3c0-.782.319-1.61 2.132-4.199.895-1.275 1.368-2.762 1.368-4.301 0-4.136-3.364-7.5-7.5-7.5zm2 18h-4v-1h4v1zm2.495-7.347c-1.466 2.093-2.143 3.289-2.385 4.347h-1.11v-2c0-.552-.448-1-1-1s-1 .448-1 1v2h-1.113c-.24-1.03-.898-2.2-2.306-4.22l-.077-.129c-.657-.934-1.004-2.024-1.004-3.151 0-3.033 2.467-5.5 5.5-5.5s5.5 2.467 5.5 5.5c0 1.126-.347 2.216-1.005 3.153z"/></g></svg>