<svg version="1.2" baseProfile="tiny" xmlns="http://www.w3.org/2000/svg" width="24" height="24" viewBox="0 0 24 24"><path d="M12 5c1.609 0 3.12.614 4.254 1.73 1.126 1.107 1.746 2.579 1.746 4.14s-.62 3.03-1.745 4.139l-4.255 4.184-4.254-4.186c-1.125-1.107-1.745-2.576-1.745-4.139s.62-3.032 1.745-4.141c1.135-1.113 2.647-1.727 4.254-1.727m0-2c-2.047 0-4.096.768-5.657 2.305-3.124 3.074-3.124 8.057 0 11.131l5.657 5.563 5.657-5.565c3.124-3.072 3.124-8.056 0-11.129-1.561-1.537-3.609-2.305-5.657-2.305zM12 8.499c.668 0 1.296.26 1.768.731.976.976.976 2.562 0 3.537-.473.472-1.1.731-1.768.731s-1.295-.26-1.768-.731c-.976-.976-.976-2.562 0-3.537.473-.471 1.101-.731 1.768-.731m0-1c-.896 0-1.792.342-2.475 1.024-1.367 1.367-1.367 3.584 0 4.951.684.684 1.578 1.024 2.475 1.024s1.792-.342 2.475-1.024c1.366-1.367 1.366-3.584 0-4.951-.683-.683-1.579-1.024-2.475-1.024z"/></svg>