<?xml version="1.0"?><svg version="1.2" baseProfile="tiny" xmlns="http://www.w3.org/2000/svg" width="40" height="40" viewBox="0 0 40 40"><circle cx="20" cy="28.333333333333336" r="2.166666666666667"></circle><path d="m30 6.7c-3.7 0-6.7 3-6.7 6.6v5h-6.6v-1.6h-5c-1.9 0-3.4 1.5-3.4 3.3v11.7c0 1.8 1.5 3.3 3.4 3.3h16.6c1.9 0 3.4-1.5 3.4-3.3v-11.7c0-1.8-1.5-3.3-3.4-3.3h-1.6v-3.4c0-1.8 1.5-3.3 3.3-3.3s3.3 1.5 3.3 3.3v5c0 1 0.8 1.7 1.7 1.7s1.7-0.7 1.7-1.7v-5c0-3.6-3-6.6-6.7-6.6z m-1.7 25h-16.6v-11.7h16.6l0 11.7z"></path></svg>