<svg version="1.2" baseProfile="tiny" xmlns="http://www.w3.org/2000/svg" width="24" height="24" viewBox="0 0 24 24"><path d="M19 7h-14c-1.104 0-2 .896-2 2v9c0 1.104.896 2 2 2h14c1.104 0 2-.896 2-2v-9c0-1.104-.896-2-2-2zm-9.684 7.316l1.602 1.4c.305.266.691.398 1.082.398s.777-.133 1.082-.398l1.602-1.4-.037.037 3.646 3.646h-12.586l3.646-3.646-.037-.037zm-4.316 2.977v-6.753l3.602 3.151-3.602 3.602zm10.398-3.602l3.602-3.151v6.75l-3.602-3.599zm3.602-4.691v.21l-6.576 5.754c-.227.198-.621.198-.848 0l-6.576-5.754v-.21h14z"/></svg>