<svg version="1.2" baseProfile="tiny" xmlns="http://www.w3.org/2000/svg" width="24" height="24" viewBox="0 0 24 24"><g><path d="M16 21h-8c-1.654 0-3-1.346-3-3s1.346-3 3-3h8c1.654 0 3 1.346 3 3s-1.346 3-3 3zm-8-4c-.551 0-1 .448-1 1s.449 1 1 1h8c.551 0 1-.448 1-1s-.449-1-1-1h-8zM12 6.866l4.964 5.096.036.038-10 .004.08-.087 4.92-5.051m0-2.866s-3.859 3.963-6.433 6.604c-.349.363-.567.853-.567 1.396 0 1.104.896 2 2 2h10c1.104 0 2-.896 2-2 0-.543-.218-1.033-.568-1.393-2.573-2.644-6.432-6.607-6.432-6.607z"/></g></svg>