<svg version="1.2" baseProfile="tiny" xmlns="http://www.w3.org/2000/svg" width="24" height="24" viewBox="0 0 24 24"><path d="M20.5 7.9s-5.8-2.9-6.9-3.5-1.7-.7-3 0c-1.3.6-6.7 3.3-6.7 3.3-.8.4-1.5 1.2-1.5 2s.2 1.2.2 1.2-.1.3-.3 1.5c-.3 1.2-.3 2.7-.3 3.3 0 1.5 1.3 2.6 2.2 2.7.9.1 1.6-.1 1.6-.1 1.4 1.3 3.7 2.1 6.4 2.1 4.4 0 7.8-2.2 7.8-5 0-1.1-.4-2.7-.4-2.7l1.1-.6c.9-.5 1.3-1.4 1.3-2.3-.1-.8-.6-1.5-1.5-1.9zm-8.2 10.4c-3.2 0-5.8-1.3-5.8-3l.5-2.8 4.2 2.1c.6.3 1.5.3 2.2 0l4.3-2.1.4 2.8c0 1.6-2.5 3-5.8 3zm7.3-8.1l-6.6 3.4c-.4.2-1 .2-1.4 0l-5.7-2.9c-.2.5-.3 1.2-.3 2 0 1.4.2 2.4.2 2.9s-.3.8-.7.8h-.1c-.4 0-.8-.3-.8-.8s0-1.6.3-3.1c.2-.9.4-1.7.6-2.2l-.2-.1c-.4-.2-.4-.5 0-.7l6.7-3.4c.4-.2.9-.2 1.3 0s6.7 3.4 6.7 3.4c.4.2.4.5 0 .7z"/></svg>