<svg version="1.2" baseProfile="tiny" xmlns="http://www.w3.org/2000/svg" width="24" height="24" viewBox="0 0 24 24"><path d="M21 4h-18c-1.104 0-2 .896-2 2v12c0 1.104.896 2 2 2h18c1.104 0 2-.896 2-2v-12c0-1.104-.896-2-2-2zm-18 2h8v12h-8v-12zm18 12h-9v-12h9.003l-.003 12zM20 13.5c0-.275-.225-.5-.5-.5h-1c-.275 0-.5.225-.5.5v3c0 .275.225.5.5.5h1c.275 0 .5-.225.5-.5v-3zM17 7.5c0-.275-.225-.5-.5-.5h-3c-.275 0-.5.225-.5.5v5c0 .275.225.5.5.5h3c.275 0 .5-.225.5-.5v-5zM18.5 10h1c.275 0 .5-.225.5-.5s-.225-.5-.5-.5h-1c-.275 0-.5.225-.5.5s.225.5.5.5zM18.5 12h1c.275 0 .5-.225.5-.5s-.225-.5-.5-.5h-1c-.275 0-.5.225-.5.5s.225.5.5.5zM13.5 15h3c.275 0 .5-.225.5-.5s-.225-.5-.5-.5h-3c-.275 0-.5.225-.5.5s.225.5.5.5zM16.5 16h-3c-.275 0-.5.225-.5.5s.225.5.5.5h3c.275 0 .5-.225.5-.5s-.225-.5-.5-.5zM18.5 8h1c.275 0 .5-.225.5-.5s-.225-.5-.5-.5h-1c-.275 0-.5.225-.5.5s.225.5.5.5zM10 7.5c0-.275-.225-.5-.5-.5h-5c-.275 0-.5.225-.5.5v3c0 .275.225.5.5.5h5c.275 0 .5-.225.5-.5v-3zM9.501 14h-5c-.274 0-.5.225-.5.5s.226.5.5.5h5c.274 0 .499-.225.499-.5s-.225-.5-.499-.5zM9.501 12h-5c-.274 0-.5.225-.5.5s.226.5.5.5h5c.274 0 .499-.225.499-.5s-.225-.5-.499-.5zM9.501 16h-5c-.274 0-.5.225-.5.5s.226.5.5.5h5c.274 0 .499-.225.499-.5s-.225-.5-.499-.5z"/></svg>