<svg version="1.2" baseProfile="tiny" xmlns="http://www.w3.org/2000/svg" width="24" height="24" viewBox="0 0 24 24"><path d="M21.436 7.586l-3.998-4.02c-.752-.756-2.063-.764-2.83-.006-.196.196-.35.436-.418.629-.653 1.362-1.354 2.215-2.254 2.727l-.217.105c-.968.485-2.285.979-4.719.979-.266 0-.521.052-.766.152-.484.202-.879.595-1.082 1.084-.199.484-.199 1.041 0 1.525.104.249.25.471.435.651l3.235 3.235-3.822 5.353 5.352-3.822 3.227 3.227c.186.189.406.339.656.441.247.103.503.154.766.154s.519-.052.765-.154c.498-.205.883-.592 1.08-1.078.103-.242.155-.507.155-.768 0-2.436.494-3.752.978-4.721.496-.992 1.369-1.748 2.754-2.414.271-.104.51-.256.711-.457.772-.782.768-2.051-.008-2.822zm-5.248 4.801c-.819 1.643-1.188 3.37-1.195 5.604l-7.993-7.991c2.139 0 3.814-.335 5.396-1.084l.235-.105c1.399-.699 2.468-1.893 3.388-3.834l3.924 4.051c-1.863.893-3.056 1.96-3.755 3.359z"/></svg>