<svg version="1.2" baseProfile="tiny" xmlns="http://www.w3.org/2000/svg" width="24" height="24" viewBox="0 0 24 24"><g><path d="M20.988 12.396l-4.988-2.851v-4.795c0-1.93-1.57-3.5-3.5-3.5s-3.5 1.57-3.5 3.5v4.795l-4.988 2.851c-1.317.752-1.865 2.371-1.276 3.769.589 1.399 2.132 2.135 3.589 1.72l2.675-.765v.838l-.874.699c-1.198.959-1.48 2.667-.653 3.959.827 1.293 2.494 1.753 3.869 1.066.004-.001.5-.183 1.158-.183l1.158.183c1.375.687 3.042.227 3.869-1.066.827-1.292.545-3-.653-3.959l-.874-.699v-.838l2.676.765c1.457.415 3-.321 3.589-1.72s.041-3.017-1.277-3.769zm-.566 2.992c-.197.466-.711.713-1.196.573l-5.226-1.492v4.451l1.625 1.3c.399.319.493.889.218 1.32-.275.43-.828.583-1.29.355-.008-.004-.824-.395-2.053-.395s-2.045.391-2.053.395c-.462.227-1.015.074-1.29-.355-.275-.431-.182-1 .218-1.32l1.625-1.3v-4.451l-5.226 1.493c-.485.14-.999-.107-1.196-.573-.196-.466-.014-1.005.426-1.256l5.996-3.427v-5.956c0-.827.673-1.5 1.5-1.5s1.5.673 1.5 1.5v5.956l5.996 3.426c.44.251.622.79.426 1.256z"/><circle cx="12.5" cy="4.5" r=".5"/></g></svg>