<svg version="1.2" baseProfile="tiny" xmlns="http://www.w3.org/2000/svg" width="24" height="24" viewBox="0 0 24 24"><path d="M16.5 11c1.93 0 3.5-1.57 3.5-3.5s-1.57-3.5-3.5-3.5-3.5 1.57-3.5 3.5v1.5h-2v-1.5c0-1.93-1.57-3.5-3.5-3.5s-3.5 1.57-3.5 3.5 1.57 3.5 3.5 3.5h1.5v2h-1.5c-1.93 0-3.5 1.57-3.5 3.5s1.57 3.5 3.5 3.5 3.5-1.57 3.5-3.5v-1.5h2v1.5c0 1.93 1.57 3.5 3.5 3.5s3.5-1.57 3.5-3.5-1.57-3.5-3.5-3.5h-1.5v-2h1.5zm-1.5-3.5c0-.828.673-1.5 1.5-1.5s1.5.672 1.5 1.5c0 .826-.673 1.5-1.5 1.5h-1.5v-1.5zm-6 9c0 .826-.673 1.5-1.5 1.5s-1.5-.674-1.5-1.5c0-.828.673-1.5 1.5-1.5h1.5v1.5zm0-7.5h-1.5c-.827 0-1.5-.674-1.5-1.5 0-.828.673-1.5 1.5-1.5s1.5.672 1.5 1.5v1.5zm4 4h-2v-2h2v2zm3.5 2c.827 0 1.5.672 1.5 1.5 0 .826-.673 1.5-1.5 1.5s-1.5-.674-1.5-1.5v-1.5h1.5z"/></svg>