<svg version="1.2" baseProfile="tiny" xmlns="http://www.w3.org/2000/svg" width="24" height="24" viewBox="0 0 24 24"><path d="M16.5 4c1.93 0 3.5 1.57 3.5 3.5s-1.57 3.5-3.5 3.5h-1.5v2h1.5c1.93 0 3.5 1.57 3.5 3.5s-1.57 3.5-3.5 3.5-3.5-1.57-3.5-3.5v-1.5h-2v1.5c0 1.93-1.57 3.5-3.5 3.5s-3.5-1.57-3.5-3.5 1.57-3.5 3.5-3.5h1.5v-2h-1.5c-1.93 0-3.5-1.57-3.5-3.5s1.57-3.5 3.5-3.5 3.5 1.57 3.5 3.5v1.5h2v-1.5c0-1.93 1.57-3.5 3.5-3.5m-1.5 5h1.5c.827 0 1.5-.674 1.5-1.5 0-.828-.673-1.5-1.5-1.5s-1.5.672-1.5 1.5v1.5m-7.5 0h1.5v-1.5c0-.828-.673-1.5-1.5-1.5s-1.5.672-1.5 1.5c0 .826.673 1.5 1.5 1.5m9 9c.827 0 1.5-.674 1.5-1.5 0-.828-.673-1.5-1.5-1.5h-1.5v1.5c0 .826.673 1.5 1.5 1.5m-9 0c.827 0 1.5-.674 1.5-1.5v-1.5h-1.5c-.827 0-1.5.672-1.5 1.5 0 .826.673 1.5 1.5 1.5m9-16c-1.857 0-3.504.926-4.5 2.341-.996-1.415-2.643-2.341-4.5-2.341-3.033 0-5.5 2.468-5.5 5.5 0 1.857.926 3.504 2.341 4.5-1.415.996-2.341 2.643-2.341 4.5 0 3.032 2.467 5.5 5.5 5.5 1.857 0 3.504-.926 4.5-2.341.996 1.415 2.643 2.341 4.5 2.341 3.033 0 5.5-2.468 5.5-5.5 0-1.857-.926-3.504-2.341-4.5 1.415-.996 2.341-2.643 2.341-4.5 0-3.032-2.467-5.5-5.5-5.5zM13 11h-2v2h2z"/></svg>