<svg version="1.2" baseProfile="tiny" xmlns="http://www.w3.org/2000/svg" width="24" height="24" viewBox="0 0 24 24"><path d="M11.5 18.573c-1.736 0-3.368-.676-4.596-1.903-1.227-1.228-1.904-2.86-1.904-4.597s.677-3.369 1.904-4.597c.391-.391 1.023-.391 1.414 0s.391 1.023 0 1.414c-.85.851-1.318 1.981-1.318 3.183s.468 2.333 1.318 3.183c.85.85 1.979 1.317 3.182 1.317s2.332-.468 3.182-1.317c.851-.85 1.318-1.98 1.318-3.183s-.468-2.333-1.318-3.183c-.391-.391-.391-1.023 0-1.414s1.023-.391 1.414 0c1.227 1.229 1.904 2.861 1.904 4.597s-.677 3.369-1.904 4.597c-1.228 1.227-2.86 1.903-4.596 1.903zM11.5 11c-.553 0-1-.448-1-1v-5c0-.552.447-1 1-1s1 .448 1 1v5c0 .552-.447 1-1 1z"/></svg>