<svg version="1.2" baseProfile="tiny" xmlns="http://www.w3.org/2000/svg" width="24" height="24" viewBox="0 0 24 24"><path d="M11.997 4.5c-4.685 0-8.497 3.812-8.497 8.5s3.813 8.5 8.5 8.5c4.688 0 8.5-3.812 8.5-8.5s-3.812-8.5-8.503-8.5zm.003 15c-3.584 0-6.5-2.916-6.5-6.5s2.914-6.5 6.5-6.5c3.584 0 6.5 2.916 6.5 6.5s-2.916 6.5-6.5 6.5zM15.348 12.031l.152-.031h.879c-.383-1.677-1.699-2.995-3.379-3.378v.878c0 .551-.449 1-1 1-.497 0-.892-.371-.969-.846l-.031-.154v-.88c-1.678.382-2.997 1.702-3.38 3.38h.88l.153.031c.476.076.847.472.847.969s-.371.893-.846.969l-.154.031h-.878c.384 1.677 1.702 2.995 3.378 3.379v-.879l.031-.154c.077-.476.472-.846.969-.846s.893.371.969.848l.031.152v.879c1.677-.383 2.996-1.702 3.379-3.379h-.879l-.152-.031c-.477-.076-.848-.472-.848-.969s.371-.893.848-.969zm-.446 2.867c-.264.399-.604.74-1.004 1.002-.256-.81-1.004-1.401-1.897-1.401s-1.642.592-1.898 1.401c-.4-.262-.74-.603-1.003-1.002.81-.256 1.401-1.006 1.401-1.898 0-.895-.592-1.643-1.402-1.898.263-.399.603-.74 1.004-1.002.256.81 1.005 1.401 1.898 1.401.894 0 1.644-.593 1.899-1.403.399.264.74.604 1.002 1.004-.81.256-1.401 1.006-1.401 1.898-.001.893.591 1.643 1.401 1.898z"/></svg>