<?xml version="1.0"?><svg version="1.2" baseProfile="tiny" xmlns="http://www.w3.org/2000/svg" width="40" height="40" viewBox="0 0 40 40"><path d="m30.2 8.8l0.4 0c0.3 0 0.6 0 0.8 0.1 0.2 0.1 0.5 0.2 0.7 0.3 0.4 0.2 0.8 0.4 1.1 0.7 0.2 0.2 0.4 0.4 0.5 0.6l0.2 0.2-0.3-0.1c-0.2-0.1-0.4-0.2-0.7-0.2-0.3-0.1-0.5-0.1-0.8-0.1l-0.2 0-0.6 0.1c-0.1 0-0.3 0.1-0.5 0.2-0.3 0.1-0.5 0.3-0.7 0.5l-0.1 0.2c0.7 0.8 1.2 1.8 1.2 3 0 2.5-2 4.4-4.4 4.4-1.6 0-2.9-0.7-3.7-1.9l-2.7 4.4c2.8 3.2 5.3 7.3 5.3 7.3 1.7 2.3-1.3 6.5-1.3 6.5l-5.9-10.8-5.9 10.8s-3.1-4.2-1.3-6.5c0 0 2.5-4.1 5.3-7.3l-2.7-4.4c-0.8 1.2-2.2 2-3.7 2-2.4 0-4.4-2-4.4-4.5 0-2.4 2-4.4 4.4-4.4 1.6 0 2.9 0.8 3.7 1.9 1.6 2.4 2.9 5.3 4.6 7.3 1.7-2 3-4.9 4.6-7.3 0.8-1.1 2.1-1.9 3.7-1.9l0.3 0 0.5-0.3 0.7-0.4c0.2-0.1 0.5-0.2 0.7-0.2 0.4-0.2 0.8-0.2 1.2-0.2m-3.4 7.3c0.4 0 0.9-0.2 1.2-0.5 0.7-0.7 0.7-1.9 0-2.6-0.3-0.3-0.8-0.5-1.2-0.5s-0.9 0.2-1.3 0.5l-0.4 0.7c-0.2 0.6-0.1 1.4 0.4 1.9 0.4 0.3 0.8 0.5 1.3 0.5m-16.6 0c0.5 0 0.9-0.2 1.3-0.5 0.5-0.5 0.6-1.3 0.4-1.9l-0.4-0.7c-0.4-0.3-0.8-0.5-1.3-0.5s-0.9 0.2-1.2 0.5c-0.7 0.7-0.7 1.9 0 2.6 0.3 0.3 0.8 0.5 1.2 0.5m8.3 6.3c0.3 0 0.6-0.3 0.6-0.7 0-0.4-0.2-0.7-0.6-0.7-0.4 0-0.7 0.3-0.7 0.7 0 0.4 0.3 0.7 0.7 0.7m11.7-16.9c-0.7 0-1.5 0.1-2.2 0.3l-0.2 0c-0.3 0.1-0.7 0.2-1.2 0.5l-0.4 0.2c-2.3 0.2-4.4 1.4-5.8 3.3l-0.1 0.2c-0.7 1-1.3 2-1.8 3-0.6-1-1.2-2-1.8-3l-0.2-0.2c-1.4-2.1-3.8-3.3-6.3-3.3-4.3 0-7.8 3.5-7.8 7.8s3.5 7.8 7.8 7.8c0.5 0 1-0.1 1.5-0.2-1.7 2.3-2.9 4.2-3.2 4.7-2.9 4.1 0.6 9.4 1.4 10.4 0.6 0.8 1.6 1.4 2.7 1.4l0.2 0c1.1-0.1 2.1-0.8 2.7-1.8l3-5.5 3 5.5c0.5 1 1.5 1.7 2.7 1.8l0.2 0c1.1 0 2.1-0.6 2.7-1.4 0.7-1 4.2-6.3 1.4-10.4-0.3-0.5-1.6-2.4-3.3-4.7 0.5 0.1 1 0.2 1.6 0.2 4.2 0 7.7-3.5 7.7-7.8l0-0.3c0.8-0.2 1.5-0.6 2-1.3 0.9-1.2 0.9-2.9 0-4l-0.1-0.2-0.1 0c-0.1-0.3-0.4-0.7-0.9-1.1-0.6-0.6-1.3-0.9-1.8-1.2-0.4-0.2-0.8-0.3-1-0.4l-0.1 0c-0.6-0.2-1.1-0.3-1.3-0.3l-0.1 0-0.2 0-0.7-0.1z"></path></svg>