<svg version="1.2" baseProfile="tiny" xmlns="http://www.w3.org/2000/svg" width="24" height="24" viewBox="0 0 24 24"><path d="M17 4h-10c-1.654 0-3 1.346-3 3v11c0 1.654 1.346 3 3 3h10c1.654 0 3-1.346 3-3v-11c0-1.654-1.346-3-3-3zm1 14c0 .551-.448 1-1 1h-10c-.552 0-1-.449-1-1v-7.28c.296.174.635.28 1 .28h1.5c0 1.93 1.57 3.5 3.5 3.5s3.5-1.57 3.5-3.5h1.5c.365 0 .704-.106 1-.279v7.279zm-8.5-7h5c0 1.378-1.121 2.5-2.5 2.5s-2.5-1.122-2.5-2.5zm8.5-2c0 .551-.448 1-1 1h-10c-.552 0-1-.449-1-1v-2c0-.551.448-1 1-1h10c.552 0 1 .449 1 1v2z"/></svg>