<?xml version="1.0"?><svg version="1.2" baseProfile="tiny" xmlns="http://www.w3.org/2000/svg" width="40" height="40" viewBox="0 0 40 40"><path d="m25.9 29.9v-3.5c-1.1 0.8-2.2 1.1-3.3 1.1-0.5 0-1-0.1-1.6-0.4-0.4-0.3-0.6-0.5-0.7-0.9-0.2-0.3-0.3-1.1-0.3-2.4v-5.5h5v-3.3h-5v-5.6h-3c-0.2 1.3-0.4 2.2-0.7 2.8-0.3 0.7-0.8 1.3-1.5 1.9-0.7 0.5-1.4 0.9-2.1 1.2v3h2.3v7.6c0 0.8 0.1 1.6 0.4 2.2 0.2 0.5 0.5 1 1.1 1.5 0.4 0.4 1 0.8 1.8 1.1 1 0.3 1.9 0.4 2.6 0.4 0.9 0 1.7-0.1 2.5-0.3 0.8-0.2 1.7-0.5 2.5-0.9"></path></svg>