<svg version="1.2" baseProfile="tiny" xmlns="http://www.w3.org/2000/svg" width="24" height="24" viewBox="0 0 24 24"><path d="M8.865 5c.751 0 1.44.202 2.069.609.324-.08.711-.121 1.157-.121 1.846 0 3.418.67 4.717 2.008 1.299 1.339 1.948 2.962 1.948 4.87 0 .466-.051.953-.152 1.461.264.589.396 1.187.396 1.794 0 1.097-.38 2.036-1.142 2.815-.761.781-1.668 1.173-2.725 1.173-.629 0-1.237-.162-1.825-.488-.527.081-.933.122-1.217.122-1.847 0-3.425-.67-4.733-2.009s-1.963-2.962-1.963-4.868c0-.447.051-.902.152-1.37-.364-.609-.547-1.288-.547-2.039 0-1.096.376-2.029 1.126-2.799.75-.772 1.664-1.158 2.739-1.158m3.135 10.53c-.406 0-.729-.061-.975-.183-.263-.142-.445-.284-.547-.425-.243-.447-.376-.681-.396-.7-.081-.243-.202-.447-.364-.609-.203-.14-.406-.213-.61-.213-.284 0-.517.091-.7.274-.183.182-.274.396-.274.639 0 .386.144.801.428 1.248.263.405.629.741 1.096 1.003.648.346 1.45.519 2.404.519.79 0 1.49-.122 2.1-.365.609-.284 1.055-.639 1.339-1.065.304-.467.456-.975.456-1.522 0-.445-.08-.852-.242-1.217-.163-.304-.416-.578-.762-.82-.365-.225-.75-.407-1.156-.548-.689-.204-1.178-.336-1.461-.396-.143-.021-.32-.055-.533-.107l-.41-.106c-.243-.08-.416-.152-.518-.212-.163-.081-.294-.193-.396-.336-.103-.1-.152-.233-.152-.396 0-.243.142-.455.426-.639.265-.203.649-.305 1.156-.305.508 0 .884.092 1.127.273.263.225.456.478.577.762.163.264.295.446.396.547.162.123.355.184.578.184.264 0 .498-.102.699-.306.184-.181.275-.404.275-.669 0-.202-.072-.467-.214-.791-.162-.243-.376-.486-.639-.729-.284-.224-.659-.417-1.127-.579-.485-.143-1.004-.213-1.552-.213-.73 0-1.38.11-1.948.335-.566.2-1.003.505-1.307.911-.305.406-.457.872-.457 1.4 0 .527.143.984.426 1.37.346.405.73.688 1.156.851.488.224 1.076.407 1.766.548.121.021.27.056.441.106l.457.123.319.075c.284.103.517.243.699.427.183.141.274.354.274.639 0 .346-.162.629-.486.853-.364.243-.821.364-1.369.364m-3.135-12.53c-1.609 0-3.053.61-4.174 1.765-1.105 1.134-1.691 2.585-1.691 4.192 0 .832.156 1.619.466 2.348-.047.357-.07.713-.07 1.062 0 2.438.853 4.547 2.532 6.267 1.693 1.732 3.768 2.61 6.164 2.61.254 0 .547-.02.896-.06.69.283 1.409.426 2.146.426 1.588 0 3.025-.614 4.157-1.777 1.117-1.143 1.709-2.6 1.709-4.211 0-.677-.111-1.349-.332-2.004.059-.427.089-.846.089-1.251 0-2.437-.846-4.544-2.513-6.263-1.685-1.735-3.755-2.615-6.152-2.615-.279 0-.546.013-.801.038-.756-.35-1.568-.527-2.426-.527z"/></svg>