<svg version="1.2" baseProfile="tiny" xmlns="http://www.w3.org/2000/svg" width="24" height="24" viewBox="0 0 24 24"><g><path d="M15.279 10.283c.358-.221.597-.521.713-.904-.349.186-.697.312-1.045.383-.312-.336-.708-.507-1.182-.507-.464 0-.855.163-1.175.479-.317.318-.478.706-.478 1.158 0 .137.017.26.052.364-1.368-.048-2.499-.614-3.391-1.706-.151.267-.227.539-.227.82 0 .578.244 1.036.73 1.373-.277-.023-.521-.094-.73-.209 0 .413.121.758.365 1.062.243.3.557.492.939.573-.139.036-.285.053-.435.053-.14 0-.237-.012-.296-.037.104.337.296.609.574.818.277.21.597.32.957.33-.591.465-1.269.694-2.035.694-.188 0-.32-.002-.4-.017.754.489 1.594.733 2.521.733.951 0 1.792-.241 2.522-.723.73-.479 1.271-1.07 1.617-1.767.348-.695.521-1.419.521-2.174v-.209c.336-.253.609-.538.818-.854-.298.133-.611.222-.935.267zM12 21c-2.49 0-4.635-.89-6.376-2.646-1.741-1.751-2.624-3.889-2.624-6.354 0-2.488.884-4.634 2.627-6.375 1.74-1.741 3.884-2.625 6.373-2.625 2.466 0 4.604.883 6.354 2.624 1.756 1.742 2.646 3.888 2.646 6.376 0 2.465-.889 4.604-2.644 6.357-1.751 1.753-3.889 2.643-6.356 2.643zm0-16c-1.966 0-3.588.667-4.958 2.04-1.375 1.372-2.042 2.994-2.042 4.96 0 1.944.668 3.562 2.043 4.945 1.372 1.383 2.993 2.055 4.957 2.055 1.943 0 3.56-.673 4.942-2.057 1.385-1.384 2.058-3.002 2.058-4.943 0-1.963-.672-3.585-2.055-4.957-1.383-1.375-3-2.043-4.945-2.043z"/></g></svg>