<svg version="1.2" baseProfile="tiny" xmlns="http://www.w3.org/2000/svg" width="24" height="24" viewBox="0 0 24 24"><g><path d="M12 21c-2.489 0-4.635-.89-6.376-2.646-1.741-1.751-2.624-3.889-2.624-6.354 0-2.488.884-4.634 2.627-6.375 1.74-1.741 3.885-2.625 6.373-2.625 2.466 0 4.604.883 6.354 2.624 1.755 1.742 2.646 3.888 2.646 6.376 0 2.465-.89 4.604-2.644 6.357-1.751 1.753-3.889 2.643-6.356 2.643zm0-16c-1.966 0-3.588.667-4.958 2.04-1.374 1.372-2.042 2.994-2.042 4.96 0 1.944.668 3.562 2.043 4.945 1.372 1.383 2.993 2.055 4.957 2.055 1.943 0 3.56-.673 4.941-2.057 1.386-1.384 2.059-3.002 2.059-4.943 0-1.963-.672-3.585-2.055-4.957-1.383-1.375-3-2.043-4.945-2.043zM9 14.5c-1.379 0-2.5-1.121-2.5-2.5s1.121-2.5 2.5-2.5 2.5 1.121 2.5 2.5-1.121 2.5-2.5 2.5zm0-4c-.827 0-1.5.673-1.5 1.5s.673 1.5 1.5 1.5 1.5-.673 1.5-1.5-.673-1.5-1.5-1.5zM15 14.5c-1.379 0-2.5-1.121-2.5-2.5s1.121-2.5 2.5-2.5 2.5 1.121 2.5 2.5-1.121 2.5-2.5 2.5z"/></g></svg>