<svg version="1.2" baseProfile="tiny" xmlns="http://www.w3.org/2000/svg" width="24" height="24" viewBox="0 0 24 24"><path d="M18.89 7.012c.808-.496 1.343-1.173 1.605-2.034-.786.417-1.569.703-2.351.861-.703-.756-1.593-1.14-2.66-1.14-1.043 0-1.924.366-2.643 1.078-.715.717-1.076 1.588-1.076 2.605 0 .309.039.585.117.819-3.076-.105-5.622-1.381-7.628-3.837-.34.601-.51 1.213-.51 1.846 0 1.301.549 2.332 1.645 3.089-.625-.053-1.176-.211-1.645-.47 0 .929.273 1.705.82 2.388.549.676 1.254 1.107 2.115 1.291-.312.08-.641.118-.979.118-.312 0-.533-.026-.664-.083.23.757.664 1.371 1.291 1.841.625.472 1.344.721 2.152.743-1.332 1.045-2.855 1.562-4.578 1.562-.422 0-.721-.006-.902-.038 1.697 1.102 3.586 1.649 5.676 1.649 2.139 0 4.029-.542 5.674-1.626 1.645-1.078 2.859-2.408 3.639-3.974.784-1.564 1.172-3.192 1.172-4.892v-.468c.758-.57 1.371-1.212 1.84-1.921-.68.293-1.383.492-2.11.593z"/></svg>