<svg version="1.2" baseProfile="tiny" xmlns="http://www.w3.org/2000/svg" width="24" height="24" viewBox="0 0 24 24"><path d="M15.527 17.921v-2.066c-.669.448-1.32.67-1.952.67-.298 0-.631-.094-1.004-.277-.223-.151-.354-.317-.393-.503-.11-.224-.178-.708-.178-1.454v-3.291h3v-2h-3v-3.356h-1.772c-.149.782-.298 1.338-.448 1.673-.184.41-.482.782-.891 1.116-.411.337-.837.577-1.285.725v1.842h1.396v4.521c0 .52.073.964.223 1.337.111.298.334.595.671.893.259.262.631.484 1.115.67.595.15 1.114.223 1.562.223.52 0 1.004-.056 1.45-.167.521-.112 1.023-.298 1.506-.556"/></svg>