<?xml version="1.0"?><svg version="1.2" baseProfile="tiny" xmlns="http://www.w3.org/2000/svg" width="40" height="40" viewBox="0 0 40 40"><path d="m38 14.3c-0.29999999999999716-2.5-0.7000000000000028-4.300000000000001-1.7000000000000028-5-1-0.8000000000000007-9.600000000000001-1-16.3-1s-15.3 0.1999999999999993-16.3 1c-1 0.6999999999999993-1.4 2.5-1.7 5s-0.30000000000000004 4-0.30000000000000004 5.699999999999999 0 3.1999999999999993 0.30000000000000004 5.699999999999999 0.7 4.300000000000001 1.7 5c1 0.8000000000000007 9.6 1 16.3 1 6.699999999999999 0 15.3-0.1999999999999993 16.3-1 1-0.6999999999999993 1.3999999999999986-2.5 1.7000000000000028-5s0.29999999999999716-4 0.29999999999999716-5.699999999999999 0-3.1999999999999993-0.29999999999999716-5.699999999999999z m-21.3 11.7v-12l10 6-10 6z"></path></svg>