<svg version="1.2" baseProfile="tiny" xmlns="http://www.w3.org/2000/svg" width="24" height="24" viewBox="0 0 24 24"><path d="M20.668 13.312c.059-.427.089-.846.089-1.251 0-2.437-.846-4.544-2.513-6.263-1.685-1.735-3.755-2.615-6.152-2.615-.279 0-.546.013-.801.038-.756-.35-1.568-.526-2.426-.526-1.609 0-3.053.61-4.174 1.765-1.105 1.135-1.691 2.585-1.691 4.192 0 .832.156 1.619.466 2.348-.047.357-.07.713-.07 1.062 0 2.438.853 4.547 2.532 6.267 1.693 1.732 3.768 2.61 6.164 2.61.254 0 .547-.02.896-.06.69.283 1.409.426 2.146.426 1.588 0 3.025-.614 4.157-1.777 1.117-1.143 1.709-2.6 1.709-4.211 0-.677-.111-1.349-.332-2.005zm-5.168 2.036c-.284.427-.729.781-1.339 1.065-.609.243-1.31.365-2.1.365-.954 0-1.756-.173-2.404-.519-.467-.262-.833-.598-1.096-1.003-.284-.447-.428-.862-.428-1.248 0-.243.092-.457.274-.639.184-.184.416-.274.7-.274.203 0 .406.072.609.213.162.162.283.366.364.609.021.02.153.253.396.7.102.141.284.283.547.425.245.122.568.183.975.183.548 0 1.005-.121 1.37-.364.324-.224.486-.507.486-.853 0-.284-.092-.498-.274-.639-.183-.184-.415-.324-.699-.427l-.319-.075-.457-.123c-.172-.051-.32-.086-.441-.106-.689-.141-1.277-.324-1.766-.548-.426-.162-.811-.445-1.156-.851-.283-.386-.426-.843-.426-1.37 0-.528.152-.994.457-1.4.304-.406.74-.711 1.308-.913.569-.224 1.219-.334 1.949-.334.548 0 1.066.07 1.552.213.468.162.843.355 1.127.579.263.243.477.486.639.729.142.324.214.589.214.791 0 .265-.092.488-.275.669-.201.204-.436.306-.699.306-.223 0-.416-.061-.578-.184-.102-.101-.233-.283-.396-.547-.121-.284-.314-.537-.577-.762-.243-.182-.619-.273-1.127-.273-.507 0-.892.102-1.156.305-.284.184-.426.396-.426.639 0 .162.05.296.152.396.102.143.232.255.396.336.102.06.274.132.518.212l.41.106c.213.053.391.087.533.107.283.061.771.192 1.461.396.406.141.791.323 1.156.548.346.242.599.517.762.82.162.365.242.771.242 1.217-.002.548-.154 1.056-.458 1.523z"/></svg>