<svg version="1.2" baseProfile="tiny" xmlns="http://www.w3.org/2000/svg" width="24" height="24" viewBox="0 0 24 24"><g><path d="M12 21c-2.489 0-4.635-.89-6.376-2.646-1.741-1.751-2.624-3.89-2.624-6.354 0-2.489.884-4.633 2.627-6.375 1.74-1.741 3.885-2.625 6.373-2.625 2.466 0 4.604.883 6.354 2.624 1.755 1.742 2.646 3.887 2.646 6.376 0 2.464-.89 4.604-2.644 6.357-1.751 1.754-3.889 2.643-6.356 2.643zm0-16c-1.966 0-3.588.667-4.958 2.04-1.374 1.372-2.042 2.994-2.042 4.96 0 1.944.668 3.562 2.043 4.945 1.372 1.383 2.993 2.055 4.957 2.055 1.943 0 3.56-.673 4.941-2.056 1.386-1.385 2.059-3.002 2.059-4.944 0-1.963-.672-3.585-2.055-4.957-1.383-1.375-3-2.043-4.945-2.043zM14.199 14.333c1.335 0 2-.444 2-1.333 0-.733-.422-1.199-1.267-1.4l-.632-.133c-.354-.089-.534-.277-.534-.566 0-.334.224-.5.666-.5.49 0 .746.188.767.565l.967-.1c-.063-.822-.622-1.233-1.666-1.233-1.134 0-1.699.467-1.699 1.401 0 .665.365 1.088 1.099 1.267l.668.133c.443.11.666.312.666.601 0 .354-.345.532-1.034.532-.844 0-1.398-.411-1.666-1.233l-.334-.967c-.199-.644-.449-1.095-.75-1.35-.3-.255-.771-.384-1.416-.384-.601 0-1.128.223-1.584.667-.456.445-.683 1.033-.683 1.767 0 .688.216 1.239.649 1.649.435.413.95.617 1.55.617.602 0 1.078-.144 1.434-.433l-.299-.834c-.311.312-.679.468-1.101.468-.354 0-.662-.14-.916-.417-.257-.277-.385-.64-.385-1.084 0-.556.139-.961.417-1.217s.594-.383.951-.383c.379 0 .648.1.816.299.167.201.315.512.45.935l.3.967c.356 1.133 1.212 1.699 2.566 1.699"/></g></svg>