<?xml version="1.0"?><svg version="1.2" baseProfile="tiny" xmlns="http://www.w3.org/2000/svg" width="40" height="40" viewBox="0 0 40 40"><path d="m20 5c-8.3 0-15 6.699999999999999-15 15s6.699999999999999 15 15 15 15-6.699999999999999 15-15-6.699999999999999-15-15-15z m0 11.7c1.8000000000000007 0 3.3000000000000007 1.5 3.3000000000000007 3.3000000000000007s-1.5 3.3000000000000007-3.3000000000000007 3.3000000000000007-3.3000000000000007-1.5-3.3000000000000007-3.3000000000000007 1.5-3.3000000000000007 3.3000000000000007-3.3000000000000007z m4.699999999999999-3.4000000000000004c0-1.0999999999999996 1-2 2-2s2 1 2 2-0.8999999999999986 2-2 2-2-0.8000000000000007-2-2z m-4.699999999999999 18.4c-6.5 3.552713678800501e-15-11.7-5.199999999999996-11.7-11.699999999999996h5c0 3.6999999999999993 3 6.699999999999999 6.699999999999999 6.699999999999999s6.699999999999999-3 6.699999999999999-6.699999999999999h5c0 6.5-5.199999999999999 11.7-11.7 11.7z"></path></svg>