<svg version="1.2" baseProfile="tiny" xmlns="http://www.w3.org/2000/svg" width="24" height="24" viewBox="0 0 24 24"><path d="M18.92 8.776c-.329 1.929-1.211 3.758-2.649 5.48-1.436 1.725-2.71 2.957-3.819 3.695-.699.331-1.293.34-1.786.034-.493-.31-.883-.751-1.169-1.325-.165-.328-.565-1.569-1.202-3.728-.636-2.155-1.017-3.315-1.139-3.479-.083-.163-.288-.184-.616-.061-.33.122-.555.226-.678.309-.123.081-.226.165-.308.245l-.554-.737.616-.74c.452-.492 1.026-1.007 1.724-1.54.7-.534 1.314-.862 1.848-.987.371-.08.679-.028.924.156.247.184.452.484.616.894.165.409.289.811.369 1.199.083.392.165.854.248 1.387.081.534.164.945.246 1.232.451 1.93.821 2.896 1.109 2.896.41 0 1.067-.863 1.971-2.59.41-.779.432-1.426.062-1.941-.369-.512-.943-.522-1.724-.029.123-.78.472-1.456 1.046-2.031 1.026-1.109 2.157-1.521 3.388-1.234 1.273.247 1.765 1.213 1.477 2.895z"/></svg>