<svg version="1.2" baseProfile="tiny" xmlns="http://www.w3.org/2000/svg" width="24" height="24" viewBox="0 0 24 24"><path d="M4 18c-.552 0-1-.448-1-1v-6.382l-.553.276c-.495.248-1.095.046-1.342-.447-.247-.494-.046-1.094.448-1.342l2-1c.31-.155.678-.139.973.044.294.183.474.504.474.851v8c0 .552-.448 1-1 1zM13 18h-5c-.404 0-.769-.244-.924-.617-.155-.374-.069-.804.217-1.09l4-4c.254-.254.394-.591.394-.95 0-.358-.14-.695-.394-.949-.508-.508-1.39-.508-1.9.001-.253.252-.393.589-.393.948 0 .552-.448 1-1 1s-1-.448-1-1c0-.894.348-1.733.98-2.364 1.265-1.263 3.464-1.263 4.727.001.632.631.979 1.471.979 2.363 0 .893-.348 1.733-.979 2.364l-2.293 2.293h2.586c.552 0 1 .448 1 1s-.448 1-1 1zM20.955 12.377c.338-.457.545-1.016.545-1.627 0-1.517-1.234-2.75-2.75-2.75-1.031 0-1.966.569-2.44 1.484-.254.49-.063 1.094.428 1.348.49.254 1.094.062 1.348-.428.128-.249.383-.404.664-.404.414 0 .75.336.75.75s-.336.75-.75.75c-.552 0-1 .448-1 1s.448 1 1 1c.689 0 1.25.561 1.25 1.25s-.561 1.25-1.25 1.25-1.25-.561-1.25-1.25c0-.552-.448-1-1-1s-1 .448-1 1c0 1.792 1.458 3.25 3.25 3.25s3.25-1.458 3.25-3.25c0-.939-.406-1.779-1.045-2.373z"/></svg>