<svg version="1.2" baseProfile="tiny" xmlns="http://www.w3.org/2000/svg" width="24" height="24" viewBox="0 0 24 24"><path d="M21.556 11.169l-1.849-1.232.984-1.993c.148-.3.137-.654-.03-.943-.168-.29-.468-.477-.802-.498l-2.218-.143-.144-2.218c-.02-.334-.208-.635-.497-.802-.29-.167-.645-.18-.943-.03l-1.991.985-1.233-1.849c-.371-.557-1.293-.557-1.664 0l-1.234 1.848-1.992-.984c-.299-.15-.654-.137-.943.03-.29.167-.477.468-.498.802l-.143 2.217-2.218.143c-.334.022-.635.209-.802.498s-.179.644-.03.943l.984 1.993-1.849 1.233c-.278.186-.445.498-.445.832s.167.646.445.832l1.85 1.233-.985 1.992c-.148.3-.137.654.03.943s.468.477.802.498l2.218.143.143 2.218c.021.333.208.634.498.801s.642.179.943.031l1.992-.985 1.233 1.849c.186.278.498.445.832.445s.646-.167.832-.445l1.233-1.849 1.991.985c.299.148.653.136.943-.03.29-.167.477-.468.498-.802l.143-2.217 2.219-.144c.334-.021.635-.208.802-.498s.179-.644.03-.943l-.984-1.992 1.849-1.233c.278-.186.445-.498.445-.832 0-.334-.167-.647-.445-.832zm-4.032 2.997l.71 1.435-1.6.104c-.502.033-.901.432-.934.934l-.103 1.598-1.435-.709c-.45-.224-.996-.077-1.275.342l-.887 1.33-.889-1.333c-.191-.287-.508-.445-.833-.445-.149 0-.3.033-.442.104l-1.436.709-.103-1.598c-.032-.501-.432-.901-.934-.934l-1.596-.103.71-1.435c.223-.451.076-.997-.342-1.275l-1.333-.889 1.332-.888c.418-.279.564-.825.342-1.275l-.71-1.436 1.6-.103c.502-.033.901-.432.934-.934l.103-1.598 1.435.709c.448.221.996.076 1.275-.342l.887-1.331.889 1.333c.279.418.826.563 1.275.342l1.436-.71.104 1.599c.033.501.433.9.934.933l1.598.103-.709 1.437c-.223.451-.076.996.342 1.275l1.332.888-1.333.889c-.42.277-.566.823-.344 1.274z"/></svg>