<svg version="1.2" baseProfile="tiny" xmlns="http://www.w3.org/2000/svg" width="24" height="24" viewBox="0 0 24 24"><path d="M9.362 9.158l-5.268.584c-.19.023-.358.15-.421.343s0 .394.14.521c1.566 1.429 3.919 3.569 3.919 3.569-.002 0-.646 3.113-1.074 5.19-.036.188.032.387.196.506.163.119.373.121.538.028 1.844-1.048 4.606-2.624 4.606-2.624l4.604 2.625c.168.092.378.09.541-.029.164-.119.232-.318.195-.505l-1.071-5.191 3.919-3.566c.14-.131.202-.332.14-.524s-.23-.319-.42-.341c-2.108-.236-5.269-.586-5.269-.586l-2.183-4.83c-.082-.173-.254-.294-.456-.294s-.375.122-.453.294l-2.183 4.83z"/></svg>