<?xml version="1.0"?><svg version="1.2" baseProfile="tiny" xmlns="http://www.w3.org/2000/svg" width="40" height="40" viewBox="0 0 40 40"><path d="m28.1 34.9c-0.4 0-0.7 0-1.1-0.2l-0.2-0.1-6.8-3.9-6.8 3.9-0.2 0.1c-0.8 0.4-1.8 0.3-2.6-0.2-0.7-0.6-1.1-1.6-0.9-2.6l1.6-7.7-2.7-2.4-3.2-2.9-0.1-0.1c-0.6-0.7-0.8-1.6-0.6-2.5 0.3-0.9 1.1-1.5 2-1.7l0.1 0 7.9-0.9 3.2-7.2 0.1-0.2c0.4-0.7 1.3-1.2 2.2-1.2 0.9 0 1.7 0.5 2.2 1.2l0.1 0.2 3.2 7.2 7.9 0.9 0.1 0c0.9 0.2 1.7 0.8 2 1.7 0.2 0.9 0 1.8-0.6 2.5l-0.1 0.1-5.9 5.3 1.6 7.7c0.2 1-0.2 2-1 2.6-0.4 0.3-0.9 0.4-1.4 0.4z m-13.6-10.9l-1.4 6.8 6.1-3.5c0.5-0.2 1.1-0.2 1.6 0l6.1 3.5-1.4-6.8c-0.1-0.6 0.1-1.2 0.5-1.6l5.2-4.7-7-0.8c-0.6 0-1.1-0.4-1.3-1l-2.9-6.3-2.9 6.3c-0.2 0.6-0.7 1-1.3 1l-7 0.8 5.2 4.7c0.5 0.4 0.6 1 0.5 1.6z"></path></svg>