<svg version="1.2" baseProfile="tiny" xmlns="http://www.w3.org/2000/svg" width="24" height="24" viewBox="0 0 24 24"><g><path d="M19.414 8.902c.104-.048.206-.108.293-.195l.5-.5c.391-.391.391-1.023 0-1.414s-1.023-.391-1.414 0l-.5.5-.115.173c-1.387-1.312-3.188-2.19-5.189-2.41l.011-.056v-1h1c.55 0 1-.45 1-1s-.45-1-1-1h-4c-.55 0-1 .45-1 1s.45 1 1 1h1v1l.012.057c-4.506.492-8.012 4.307-8.012 8.943 0 4.971 4.029 9 9 9s9-4.029 9-9c0-1.894-.588-3.648-1.586-5.098zm-7.414 12.098c-3.859 0-7-3.14-7-7s3.141-7 7-7 7 3.14 7 7-3.141 7-7 7zM13 13v-2c0-.55-.45-1-1-1s-1 .45-1 1v3c0 .55.45 1 1 1h3c.55 0 1-.45 1-1s-.45-1-1-1h-2zM12 8c-3.312 0-6 2.688-6 6s2.688 6 6 6 6-2.688 6-6-2.688-6-6-6zm0 11c-2.757 0-5-2.243-5-5s2.243-5 5-5 5 2.243 5 5-2.243 5-5 5z"/></g></svg>