<svg version="1.2" baseProfile="tiny" xmlns="http://www.w3.org/2000/svg" width="24" height="24" viewBox="0 0 24 24"><g><path d="M21.422 9.594l-6.465-6.535c-1.329-1.33-3.087-2.059-4.957-2.059s-3.628.729-4.95 2.051c-1.416 1.414-2.127 3.356-2.027 5.314-.662 1.085-1.023 2.33-1.023 3.634 0 1.87.729 3.628 2.051 4.95l3.053 2.984 3.482 3.48c.391.392.902.587 1.414.587s1.023-.195 1.414-.586l7-7c.778-.778.782-2.038.008-2.82l-.093-.094 1.085-1.086c.778-.778.782-2.038.008-2.82zm-9.422 12.406l-3.498-3.497-3.037-2.968c-1.953-1.953-1.953-5.119 0-7.07.976-.977 2.256-1.465 3.535-1.465s2.559.488 3.535 1.465l6.465 6.535-7 7zm1.957-14.941c-1.329-1.33-3.087-2.059-4.957-2.059-1.276 0-2.497.347-3.565.982.241-.55.579-1.067 1.03-1.518.976-.976 2.256-1.464 3.535-1.464s2.559.488 3.535 1.465l6.465 6.535-1.078 1.078-4.965-5.019zM9 10.499c.83 0 1.5.672 1.5 1.501 0 .83-.67 1.499-1.5 1.499s-1.5-.669-1.5-1.499c0-.829.67-1.501 1.5-1.501m0-1c-1.378 0-2.5 1.122-2.5 2.501 0 1.378 1.122 2.499 2.5 2.499s2.5-1.121 2.5-2.499c0-1.379-1.122-2.501-2.5-2.501z"/></g></svg>