<svg version="1.2" baseProfile="tiny" xmlns="http://www.w3.org/2000/svg" width="24" height="24" viewBox="0 0 24 24"><path d="M9 2h-5c-1.103 0-2 .896-2 2v5c0 1.104.897 2 2 2h5c1.103 0 2-.896 2-2v-5c0-1.104-.897-2-2-2zm0 7h-5v-5h5v5zM20 2h-5c-1.104 0-2 .896-2 2v5c0 1.104.896 2 2 2h5c1.104 0 2-.896 2-2v-5c0-1.104-.896-2-2-2zm0 7h-5v-5h5v5zM9 13h-5c-1.103 0-2 .896-2 2v5c0 1.104.897 2 2 2h5c1.103 0 2-.896 2-2v-5c0-1.104-.897-2-2-2zm0 7h-5v-5h5v5zM20 13h-5c-1.104 0-2 .896-2 2v5c0 1.104.896 2 2 2h5c1.104 0 2-.896 2-2v-5c0-1.104-.896-2-2-2zm0 7h-5v-5h5v5z"/></svg>