<svg version="1.2" baseProfile="tiny" xmlns="http://www.w3.org/2000/svg" width="24" height="24" viewBox="0 0 24 24"><path d="M8 3h-2c-.825 0-1.575.337-2.119.881-.544.544-.881 1.294-.881 2.119v2c0 .825.337 1.575.881 2.119.544.544 1.294.881 2.119.881h2c.825 0 1.575-.337 2.119-.881.544-.544.881-1.294.881-2.119v-2c0-.825-.337-1.575-.881-2.119-.544-.544-1.294-.881-2.119-.881zM18 3h-2c-.825 0-1.575.337-2.119.881-.544.544-.881 1.294-.881 2.119v2c0 .825.337 1.575.881 2.119.544.544 1.294.881 2.119.881h2c.825 0 1.575-.337 2.119-.881.544-.544.881-1.294.881-2.119v-2c0-.825-.337-1.575-.881-2.119-.544-.544-1.294-.881-2.119-.881zM8 13h-2c-.825 0-1.575.337-2.119.881-.544.544-.881 1.294-.881 2.119v2c0 .825.337 1.575.881 2.119.544.544 1.294.881 2.119.881h2c.825 0 1.575-.337 2.119-.881.544-.544.881-1.294.881-2.119v-2c0-.825-.337-1.575-.881-2.119-.544-.544-1.294-.881-2.119-.881zM18 13h-2c-.825 0-1.575.337-2.119.881-.544.544-.881 1.294-.881 2.119v2c0 .825.337 1.575.881 2.119.544.544 1.294.881 2.119.881h2c.825 0 1.575-.337 2.119-.881.544-.544.881-1.294.881-2.119v-2c0-.825-.337-1.575-.881-2.119-.544-.544-1.294-.881-2.119-.881z"/></svg>