<?xml version="1.0"?><svg xmlns="http://www.w3.org/2000/svg" width="40" height="40" viewBox="0 0 40 40"><path fill="#444" d="m31.7 28.3h-11.7c-1.8 0-3.3 1.5-3.3 3.4s1.5 3.3 3.3 3.3h11.7c1.8 0 3.3-1.5 3.3-3.3s-1.5-3.4-3.3-3.4z m0-11.6h-11.7c-1.8 0-3.3 1.5-3.3 3.3s1.5 3.3 3.3 3.3h11.7c1.8 0 3.3-1.5 3.3-3.3s-1.5-3.3-3.3-3.3z m0-11.7h-11.7c-1.8 0-3.3 1.5-3.3 3.3s1.5 3.4 3.3 3.4h11.7c1.8 0 3.3-1.5 3.3-3.4s-1.5-3.3-3.3-3.3z m-19.2 26.7c0 2.3-1.9 4.1-4.2 4.1s-4.1-1.8-4.1-4.1c0-2.3 1.8-4.2 4.1-4.2s4.2 1.9 4.2 4.2z m0-11.7c0 2.3-1.9 4.2-4.2 4.2s-4.1-1.9-4.1-4.2c0-2.3 1.8-4.2 4.1-4.2s4.2 1.9 4.2 4.2z m0-11.7c0 2.3-1.9 4.2-4.2 4.2s-4.1-1.9-4.1-4.2c0-2.3 1.8-4.1 4.1-4.1s4.2 1.8 4.2 4.1z"></path></svg>