<?xml version="1.0"?><svg version="1.2" baseProfile="tiny" xmlns="http://www.w3.org/2000/svg" width="40" height="40" viewBox="0 0 40 40"><path d="m13.3 5h-3.3c-1.4 0-2.6 0.6-3.5 1.5-0.9 0.9-1.5 2.1-1.5 3.5v3.3c0 1.4 0.6 2.7 1.5 3.6 0.9 0.9 2.1 1.4 3.5 1.4h3.3c1.4 0 2.7-0.5 3.6-1.4 0.9-0.9 1.4-2.2 1.4-3.6v-3.3c0-1.4-0.5-2.6-1.4-3.5-0.9-0.9-2.2-1.5-3.6-1.5z m16.7 0h-3.3c-1.4 0-2.7 0.6-3.6 1.5-0.9 0.9-1.4 2.1-1.4 3.5v3.3c0 1.4 0.5 2.7 1.4 3.6 0.9 0.9 2.2 1.4 3.6 1.4h3.3c1.4 0 2.6-0.5 3.5-1.4 0.9-0.9 1.5-2.2 1.5-3.6v-3.3c0-1.4-0.6-2.6-1.5-3.5-0.9-0.9-2.1-1.5-3.5-1.5z m-16.7 16.7h-3.3c-1.4 0-2.6 0.5-3.5 1.4-0.9 0.9-1.5 2.2-1.5 3.6v3.3c0 1.4 0.6 2.6 1.5 3.5 0.9 0.9 2.1 1.5 3.5 1.5h3.3c1.4 0 2.7-0.6 3.6-1.5 0.9-0.9 1.4-2.1 1.4-3.5v-3.3c0-1.4-0.5-2.7-1.4-3.6-0.9-0.9-2.2-1.4-3.6-1.4z m16.7 0h-3.3c-1.4 0-2.7 0.5-3.6 1.4-0.9 0.9-1.4 2.2-1.4 3.6v3.3c0 1.4 0.5 2.6 1.4 3.5 0.9 0.9 2.2 1.5 3.6 1.5h3.3c1.4 0 2.6-0.6 3.5-1.5 0.9-0.9 1.5-2.1 1.5-3.5v-3.3c0-1.4-0.6-2.7-1.5-3.6-0.9-0.9-2.1-1.4-3.5-1.4z"></path></svg>