<?xml version="1.0"?><svg version="1.2" baseProfile="tiny" xmlns="http://www.w3.org/2000/svg" width="40" height="40" viewBox="0 0 40 40"><path d="m31.7 28.3h-11.7c-1.8 0-3.3 1.5-3.3 3.4s1.5 3.3 3.3 3.3h11.7c1.8 0 3.3-1.5 3.3-3.3s-1.5-3.4-3.3-3.4z m0-11.6h-11.7c-1.8 0-3.3 1.5-3.3 3.3s1.5 3.3 3.3 3.3h11.7c1.8 0 3.3-1.5 3.3-3.3s-1.5-3.3-3.3-3.3z m0-11.7h-11.7c-1.8 0-3.3 1.5-3.3 3.3s1.5 3.4 3.3 3.4h11.7c1.8 0 3.3-1.5 3.3-3.4s-1.5-3.3-3.3-3.3z"></path><circle cx="8.333333333333334" cy="31.666666666666668" r="4.166666666666667"></circle><circle cx="8.333333333333334" cy="20" r="4.166666666666667"></circle><circle cx="8.333333333333334" cy="8.333333333333334" r="4.166666666666667"></circle></svg>