<?xml version="1.0"?><svg xmlns="http://www.w3.org/2000/svg" width="40" height="40" viewBox="0 0 40 40"><path fill="#444" d="m31.7 30c0.9 0 1.6 0.8 1.6 1.7s-0.7 1.6-1.6 1.6h-23.4c-0.9 0-1.6-0.7-1.6-1.6s0.7-1.7 1.6-1.7h23.4z m0-3.3h-23.4c-2.7 0-5 2.2-5 5s2.3 5 5 5h23.4c2.7 0 5-2.3 5-5s-2.3-5-5-5z m0-8.4c0.9 0 1.6 0.8 1.6 1.7s-0.7 1.7-1.6 1.7h-23.4c-0.9 0-1.6-0.8-1.6-1.7s0.7-1.7 1.6-1.7h23.4z m0-3.3h-23.4c-2.7 0-5 2.2-5 5s2.3 5 5 5h23.4c2.7 0 5-2.2 5-5s-2.3-5-5-5z m0-8.3c0.9 0 1.6 0.7 1.6 1.6s-0.7 1.7-1.6 1.7h-23.4c-0.9 0-1.6-0.7-1.6-1.7s0.7-1.6 1.6-1.6h23.4z m0-3.4h-23.4c-2.7 0-5 2.3-5 5s2.3 5 5 5h23.4c2.7 0 5-2.2 5-5s-2.3-5-5-5z"></path></svg>