<?xml version="1.0"?><svg xmlns="http://www.w3.org/2000/svg" width="40" height="40" viewBox="0 0 40 40"><path fill="#444" d="m31.666666666666668 28.333333333333336h-23.333333333333336c-1.8383333333333312 0-3.333333333333332 1.495000000000001-3.333333333333332 3.333333333333332s1.495 3.333333333333332 3.333333333333334 3.333333333333332h23.333333333333336c1.8383333333333312 0 3.3333333333333357-1.4949999999999974 3.3333333333333357-3.333333333333332s-1.4949999999999974-3.333333333333332-3.333333333333332-3.333333333333332z m0-11.666666666666668h-23.333333333333336c-1.8383333333333312 0-3.333333333333332 1.495000000000001-3.333333333333332 3.333333333333332s1.495 3.333333333333332 3.333333333333334 3.333333333333332h23.333333333333336c1.8383333333333312 0 3.3333333333333357-1.495000000000001 3.3333333333333357-3.333333333333332s-1.4949999999999974-3.333333333333332-3.333333333333332-3.333333333333332z m0-11.666666666666668h-23.333333333333336c-1.8383333333333312 0-3.333333333333332 1.495-3.333333333333332 3.333333333333334s1.495 3.333333333333334 3.333333333333334 3.333333333333334h23.333333333333336c1.8383333333333312 0 3.3333333333333357-1.495000000000001 3.3333333333333357-3.333333333333334s-1.4949999999999974-3.333333333333334-3.333333333333332-3.333333333333334z"></path></svg>