<svg version="1.2" baseProfile="tiny" xmlns="http://www.w3.org/2000/svg" width="24" height="24" viewBox="0 0 24 24"><path d="M6 16h-2c-1.104 0-2 .896-2 2v2c0 1.104.896 2 2 2h2c1.104 0 2-.896 2-2v-2c0-1.104-.896-2-2-2zm0 4h-2v-2h2v2zM6 9h-2c-1.104 0-2 .896-2 2v2c0 1.104.896 2 2 2h2c1.104 0 2-.896 2-2v-2c0-1.104-.896-2-2-2zm0 4h-2v-2h2v2zM6 2h-2c-1.104 0-2 .896-2 2v2c0 1.104.896 2 2 2h2c1.104 0 2-.896 2-2v-2c0-1.104-.896-2-2-2zm0 4h-2v-2h2v2zM13 16h-2c-1.104 0-2 .896-2 2v2c0 1.104.896 2 2 2h2c1.104 0 2-.896 2-2v-2c0-1.104-.896-2-2-2zm0 4h-2v-2h2v2zM13 9h-2c-1.104 0-2 .896-2 2v2c0 1.104.896 2 2 2h2c1.104 0 2-.896 2-2v-2c0-1.104-.896-2-2-2zm0 4h-2v-2h2v2zM13 2h-2c-1.104 0-2 .896-2 2v2c0 1.104.896 2 2 2h2c1.104 0 2-.896 2-2v-2c0-1.104-.896-2-2-2zm0 4h-2v-2h2v2zM20 16h-2c-1.104 0-2 .896-2 2v2c0 1.104.896 2 2 2h2c1.104 0 2-.896 2-2v-2c0-1.104-.896-2-2-2zm0 4h-2v-2h2v2zM20 9h-2c-1.104 0-2 .896-2 2v2c0 1.104.896 2 2 2h2c1.104 0 2-.896 2-2v-2c0-1.104-.896-2-2-2zm0 4h-2v-2h2v2zM20 2h-2c-1.104 0-2 .896-2 2v2c0 1.104.896 2 2 2h2c1.104 0 2-.896 2-2v-2c0-1.104-.896-2-2-2zm0 4h-2v-2h2v2z"/></svg>