<?xml version="1.0"?><svg xmlns="http://www.w3.org/2000/svg" width="40" height="40" viewBox="0 0 40 40"><path d="m12.5 31.666666666666668c0 2.3000000000000007-1.8666666666666671 4.166666666666668-4.166666666666668 4.166666666666668s-4.166666666666665-1.8666666666666671-4.166666666666665-4.166666666666668 1.8666666666666671-4.166666666666668 4.166666666666667-4.166666666666668 4.166666666666666 1.8666666666666671 4.166666666666666 4.166666666666668z m0-11.666666666666668c0 2.3000000000000007-1.8666666666666671 4.166666666666668-4.166666666666668 4.166666666666668s-4.166666666666665-1.8666666666666671-4.166666666666665-4.166666666666668 1.8666666666666671-4.166666666666666 4.166666666666667-4.166666666666666 4.166666666666666 1.8666666666666654 4.166666666666666 4.166666666666666z m0-11.666666666666666c0 2.299999999999999-1.8666666666666671 4.166666666666666-4.166666666666668 4.166666666666666s-4.166666666666665-1.8666666666666671-4.166666666666665-4.166666666666666 1.8666666666666671-4.166666666666667 4.166666666666667-4.166666666666667 4.166666666666666 1.8666666666666671 4.166666666666666 4.166666666666667z m11.666666666666668 23.333333333333336c0 2.299999999999997-1.8666666666666671 4.166666666666664-4.166666666666668 4.166666666666664s-4.166666666666666-1.8666666666666671-4.166666666666666-4.166666666666668 1.8666666666666654-4.166666666666668 4.166666666666666-4.166666666666668 4.166666666666668 1.8666666666666671 4.166666666666668 4.166666666666668z m0-11.666666666666671c0 2.3000000000000007-1.8666666666666671 4.166666666666668-4.166666666666668 4.166666666666668s-4.166666666666666-1.8666666666666671-4.166666666666666-4.166666666666668 1.8666666666666654-4.166666666666668 4.166666666666666-4.166666666666668 4.166666666666668 1.8666666666666671 4.166666666666668 4.166666666666668z m0-11.666666666666666c0 2.299999999999999-1.8666666666666671 4.166666666666666-4.166666666666668 4.166666666666666s-4.166666666666666-1.8666666666666671-4.166666666666666-4.166666666666666 1.8666666666666654-4.166666666666667 4.166666666666666-4.166666666666667 4.166666666666668 1.8666666666666671 4.166666666666668 4.166666666666667z m11.666666666666668 23.333333333333336c0 2.299999999999997-1.8666666666666671 4.166666666666664-4.166666666666668 4.166666666666664s-4.166666666666668-1.8666666666666671-4.166666666666668-4.166666666666668 1.8666666666666671-4.166666666666668 4.166666666666668-4.166666666666668 4.166666666666668 1.8666666666666671 4.166666666666668 4.166666666666668z m0-11.666666666666671c0 2.3000000000000007-1.8666666666666671 4.166666666666668-4.166666666666668 4.166666666666668s-4.166666666666668-1.8666666666666671-4.166666666666668-4.166666666666668 1.8666666666666671-4.166666666666668 4.166666666666668-4.166666666666668 4.166666666666668 1.8666666666666671 4.166666666666668 4.166666666666668z m0-11.666666666666666c0 2.299999999999999-1.8666666666666671 4.166666666666666-4.166666666666668 4.166666666666666s-4.166666666666668-1.8666666666666671-4.166666666666668-4.166666666666666 1.8666666666666671-4.166666666666667 4.166666666666668-4.166666666666667 4.166666666666668 1.8666666666666671 4.166666666666668 4.166666666666667z"></path></svg>