<?xml version="1.0"?><svg xmlns="http://www.w3.org/2000/svg" width="40" height="40" viewBox="0 0 40 40"><path fill="#444" d="m12.5 31.7c0 2.3-1.9 4.1-4.2 4.1s-4.1-1.8-4.1-4.1c0-2.3 1.8-4.2 4.1-4.2s4.2 1.9 4.2 4.2z m0-11.7c0 2.3-1.9 4.2-4.2 4.2s-4.1-1.9-4.1-4.2c0-2.3 1.8-4.2 4.1-4.2s4.2 1.9 4.2 4.2z m0-11.7c0 2.3-1.9 4.2-4.2 4.2s-4.1-1.9-4.1-4.2c0-2.3 1.8-4.1 4.1-4.1s4.2 1.8 4.2 4.1z m11.7 23.4c0 2.3-1.9 4.1-4.2 4.1s-4.2-1.8-4.2-4.1c0-2.3 1.9-4.2 4.2-4.2s4.2 1.9 4.2 4.2z m0-11.7c0 2.3-1.9 4.2-4.2 4.2s-4.2-1.9-4.2-4.2c0-2.3 1.9-4.2 4.2-4.2s4.2 1.9 4.2 4.2z m0-11.7c0 2.3-1.9 4.2-4.2 4.2s-4.2-1.9-4.2-4.2c0-2.3 1.9-4.1 4.2-4.1s4.2 1.8 4.2 4.1z m11.6 23.4c0 2.3-1.8 4.1-4.1 4.1s-4.2-1.8-4.2-4.1c0-2.3 1.9-4.2 4.2-4.2s4.1 1.9 4.1 4.2z m0-11.7c0 2.3-1.8 4.2-4.1 4.2s-4.2-1.9-4.2-4.2c0-2.3 1.9-4.2 4.2-4.2s4.1 1.9 4.1 4.2z m0-11.7c0 2.3-1.8 4.2-4.1 4.2s-4.2-1.9-4.2-4.2c0-2.3 1.9-4.1 4.2-4.1s4.1 1.8 4.1 4.1z"></path></svg>