<svg version="1.2" baseProfile="tiny" xmlns="http://www.w3.org/2000/svg" width="24" height="24" viewBox="0 0 24 24"><path d="M16 19c-.802 0-1.555-.312-2.122-.879l-1.878-1.879-1.879 1.879c-1.133 1.133-3.109 1.133-4.243 0-.566-.566-.878-1.32-.878-2.121s.312-1.555.879-2.122l1.878-1.878-1.878-1.879c-.567-.566-.879-1.32-.879-2.121s.312-1.555.879-2.122c1.133-1.132 3.109-1.133 4.243.001l1.878 1.879 1.879-1.879c1.133-1.133 3.109-1.133 4.243 0 .566.566.878 1.32.878 2.121s-.312 1.555-.879 2.122l-1.878 1.878 1.878 1.879c.567.566.879 1.32.879 2.121s-.312 1.555-.879 2.122c-.566.566-1.319.878-2.121.878zm-4-5.586l3.293 3.293c.378.378 1.037.377 1.414 0 .189-.189.293-.439.293-.707s-.104-.518-.293-.707l-3.292-3.293 3.292-3.293c.189-.189.293-.44.293-.707s-.104-.518-.293-.707c-.378-.379-1.037-.378-1.414-.001l-3.293 3.294-3.293-3.293c-.378-.378-1.037-.377-1.414 0-.189.189-.293.44-.293.707s.104.518.293.707l3.292 3.293-3.292 3.293c-.189.189-.293.439-.293.707s.104.518.293.707c.378.379 1.037.378 1.414.001l3.293-3.294z"/></svg>