<svg version="1.2" baseProfile="tiny" xmlns="http://www.w3.org/2000/svg" width="24" height="24" viewBox="0 0 24 24"><path d="M16 13c0-.55-.45-1-1-1h-3c-.55 0-1 .45-1 1s.45 1 1 1h3c.55 0 1-.45 1-1zM12 6c3.859 0 7 3.141 7 7s-3.141 7-7 7-7-3.141-7-7 3.141-7 7-7m0-2c-4.971 0-9 4.029-9 9s4.029 9 9 9 9-4.029 9-9-4.029-9-9-9zM13 10c0-.55-.45-1-1-1s-1 .45-1 1v3c0 .55.45 1 1 1s1-.45 1-1v-3zM12 8c2.757 0 5 2.243 5 5s-2.243 5-5 5-5-2.243-5-5 2.243-5 5-5m0-1c-3.312 0-6 2.686-6 6 0 3.312 2.688 6 6 6s6-2.688 6-6c0-3.314-2.688-6-6-6z"/></svg>