<svg version="1.2" baseProfile="tiny" xmlns="http://www.w3.org/2000/svg" width="24" height="24" viewBox="0 0 24 24"><path d="M17.414 6.586c-.78-.781-2.048-.781-2.828 0l-2.586 2.586-2.586-2.586c-.78-.781-2.048-.781-2.828 0-.781.781-.781 2.047 0 2.828l2.585 2.586-2.585 2.586c-.781.781-.781 2.047 0 2.828.39.391.902.586 1.414.586s1.024-.195 1.414-.586l2.586-2.586 2.586 2.586c.39.391.902.586 1.414.586s1.024-.195 1.414-.586c.781-.781.781-2.047 0-2.828l-2.585-2.586 2.585-2.586c.781-.781.781-2.047 0-2.828z"/></svg>