<?xml version="1.0"?><svg xmlns="http://www.w3.org/2000/svg" width="40" height="40" viewBox="0 0 40 40"><path d="m29.023333333333337 10.976666666666668c-1.3000000000000007-1.3000000000000007-3.413333333333334-1.3000000000000007-4.713333333333335 0l-4.310000000000002 4.3100000000000005-4.3100000000000005-4.3100000000000005c-1.3000000000000007-1.3000000000000007-3.413333333333334-1.3000000000000007-4.713333333333333 0-1.3000000000000007 1.3000000000000007-1.3000000000000007 3.411666666666667 0 4.713333333333333l4.306666666666667 4.309999999999999-4.306666666666667 4.309999999999999c-1.3000000000000007 1.3000000000000007-1.3000000000000007 3.4116666666666653 0 4.713333333333335 0.6500000000000004 0.6499999999999986 1.5033333333333339 0.9766666666666666 2.3566666666666656 0.9766666666666666s1.706666666666667-0.3249999999999993 2.3566666666666656-0.9766666666666666l4.310000000000002-4.309999999999999 4.309999999999999 4.309999999999999c0.6499999999999986 0.6499999999999986 1.5033333333333339 0.9766666666666666 2.3566666666666656 0.9766666666666666s1.706666666666667-0.3249999999999993 2.3566666666666656-0.9766666666666666c1.3000000000000007-1.3000000000000007 1.3000000000000007-3.411666666666669 0-4.713333333333331l-4.306666666666661-4.310000000000002 4.306666666666665-4.309999999999999c1.3000000000000007-1.3000000000000007 1.3000000000000007-3.411666666666667 0-4.713333333333333z"></path></svg>