<svg version="1.2" baseProfile="tiny" xmlns="http://www.w3.org/2000/svg" width="24" height="24" viewBox="0 0 24 24"><path d="M18 7h-1v-1c0-1.104-.896-2-2-2h-7c-1.104 0-2 .896-2 2v1h-1c-.552 0-1 .448-1 1s.448 1 1 1v8c0 2.206 1.794 4 4 4h5c2.206 0 4-1.794 4-4v-8c.552 0 1-.448 1-1s-.448-1-1-1zm-10-1h7v1h-7v-1zm8 11c0 1.104-.896 2-2 2h-5c-1.104 0-2-.896-2-2v-8h9v8zM8.5 10.5c-.275 0-.5.225-.5.5v6c0 .275.225.5.5.5s.5-.225.5-.5v-6c0-.275-.225-.5-.5-.5zM10.5 10.5c-.275 0-.5.225-.5.5v6c0 .275.225.5.5.5s.5-.225.5-.5v-6c0-.275-.225-.5-.5-.5zM12.5 10.5c-.275 0-.5.225-.5.5v6c0 .275.225.5.5.5s.5-.225.5-.5v-6c0-.275-.225-.5-.5-.5zM14.5 10.5c-.275 0-.5.225-.5.5v6c0 .275.225.5.5.5s.5-.225.5-.5v-6c0-.275-.225-.5-.5-.5z"/></svg>