<svg version="1.2" baseProfile="tiny" xmlns="http://www.w3.org/2000/svg" width="24" height="24" viewBox="0 0 24 24"><path d="M20.987 16c0-.105-.004-.211-.039-.316l-2-6c-.136-.409-.517-.684-.948-.684h-4v2h3.279l1.667 5h-13.892l1.667-5h3.279v-2h-4c-.431 0-.812.275-.948.684l-2 6c-.035.105-.039.211-.039.316-.013 0-.013 5-.013 5 0 .553.447 1 1 1h16c.553 0 1-.447 1-1 0 0 0-5-.013-5zM16 7.904c.259 0 .518-.095.707-.283.39-.39.39-1.024 0-1.414l-4.707-4.707-4.707 4.707c-.39.39-.39 1.024 0 1.414.189.189.448.283.707.283s.518-.094.707-.283l2.293-2.293v6.672c0 .552.448 1 1 1s1-.448 1-1v-6.672l2.293 2.293c.189.189.448.283.707.283z"/></svg>