<svg version="1.2" baseProfile="tiny" xmlns="http://www.w3.org/2000/svg" width="24" height="24" viewBox="0 0 24 24"><path d="M9 14c1.381 0 2.631-.56 3.536-1.465.904-.904 1.464-2.154 1.464-3.535s-.56-2.631-1.464-3.535c-.905-.905-2.155-1.465-3.536-1.465s-2.631.56-3.536 1.465c-.904.904-1.464 2.154-1.464 3.535s.56 2.631 1.464 3.535c.905.905 2.155 1.465 3.536 1.465zM9 21c3.518 0 6-1 6-2 0-2-2.354-4-6-4-3.75 0-6 2-6 4 0 1 2.25 2 6 2zM21 12h-2v-2c0-.553-.447-1-1-1s-1 .447-1 1v2h-2c-.553 0-1 .447-1 1s.447 1 1 1h2v2c0 .553.447 1 1 1s1-.447 1-1v-2h2c.553 0 1-.447 1-1s-.447-1-1-1z"/></svg>