<svg version="1.2" baseProfile="tiny" xmlns="http://www.w3.org/2000/svg" width="24" height="24" viewBox="0 0 24 24"><path d="M21 14h-6c-.553 0-1-.448-1-1s.447-1 1-1h6c.553 0 1 .448 1 1s-.447 1-1 1zM9 6c1.654 0 3 1.346 3 3s-1.346 3-3 3-3-1.346-3-3 1.346-3 3-3m0-2c-2.764 0-5 2.238-5 5s2.236 5 5 5 5-2.238 5-5-2.236-5-5-5zM9 17c2.021 0 3.301.771 3.783 1.445-.683.26-1.969.555-3.783.555-1.984 0-3.206-.305-3.818-.542.459-.715 1.777-1.458 3.818-1.458m0-2c-3.75 0-6 2-6 4 0 1 2.25 2 6 2 3.518 0 6-1 6-2 0-2-2.354-4-6-4z"/></svg>