<?xml version="1.0"?><svg version="1.2" baseProfile="tiny" xmlns="http://www.w3.org/2000/svg" width="40" height="40" viewBox="0 0 40 40"><path d="m16.7 20.8c0-0.5-0.4-0.8-0.9-0.8h-10c-0.5 0-0.8 0.3-0.8 0.8v8.4c0 0.5 0.3 0.8 0.8 1l10 1.1c0.5 0 0.9-0.3 0.9-0.6v-9.9z m2.5-0.8c-0.5 0-0.9 0.3-0.9 0.8v9.9c0 0.5 0.4 0.8 0.9 1l15 1.6c0.5 0 0.8-0.3 0.8-0.6v-11.7c0-0.5-0.3-0.8-0.8-0.8l-15-0.2z m-2.5-12.2c0-0.5-0.4-0.8-0.9-0.6l-10 1.1c-0.5 0-0.8 0.4-0.8 0.9v8.3c0 0.5 0.3 0.8 0.8 0.8h10c0.5 0 0.9-0.3 0.9-0.8v-9.7z m2.5-1c-0.5 0-0.9 0.5-0.9 1v9.9c0 0.5 0.4 0.8 0.9 0.8h15c0.5 0 0.8-0.3 0.8-0.8v-11.7c0-0.5-0.3-0.8-0.8-0.7l-15 1.5z"></path></svg>