<svg version="1.2" baseProfile="tiny" xmlns="http://www.w3.org/2000/svg" width="24" height="24" viewBox="0 0 24 24"><circle cx="7" cy="11" r="1"/><path d="M21.585 7.188c-.262-.188-.599-.241-.901-.137l-1.707.568c-.188-1.477-1.451-2.62-2.977-2.62h-11c-1.654 0-3 1.347-3 3v6c0 1.653 1.346 3 3 3h3v1.111l.008.09c.066.738.381 1.423.887 1.928.562.562 1.311.872 2.104.872s1.542-.31 2.104-.87c.574-.577.898-1.346.896-2.113v-1.017h2c1.524 0 2.789-1.145 2.978-2.62l1.707.568c.303.104.64.051.9-.138.262-.188.415-.49.415-.812v-6c.001-.318-.153-.621-.414-.81zm-9.585 10.835c.001.248-.119.5-.309.689-.191.189-.441.286-.692.286-.25 0-.501-.097-.69-.286-.19-.189-.285-.441-.309-.691v-2.021h2v2.023zm5-4.023c0 .552-.448 1-1 1h-11c-.552 0-1-.448-1-1v-6c0-.552.448-1 1-1h11c.552 0 1 .448 1 1v6zm3-1.389s-1.895-.605-2-.605v-2.012c.105 0 2-.605 2-.605v3.222z"/></svg>