<svg version="1.2" baseProfile="tiny" xmlns="http://www.w3.org/2000/svg" width="24" height="24" viewBox="0 0 24 24"><g><path d="M15.138 5.824c-.449 0-.905.152-1.356.453l-2.672 1.781c-.753.503-2.206.942-3.11.942-1.654 0-3 1.346-3 3v2c0 1.654 1.346 3 3 3 .904 0 2.357.439 3.109.941l2.672 1.781c.451.301.907.453 1.356.453.898.001 1.863-.68 1.863-2.175v-10c0-1.495-.965-2.176-1.862-2.176zm-7.138 9.176c-.552 0-1-.448-1-1v-2c0-.552.448-1 1-1 1.211 0 2.907-.495 4-1.146v6.293c-1.093-.652-2.789-1.147-4-1.147zm7 3l-.006.12-.104-.062-1.89-1.26v-7.596l1.891-1.261.104-.062.005.121v10zM18.292 10.294c-.39.391-.39 1.023.002 1.414.345.345.535.803.535 1.291 0 .489-.19.948-.536 1.294-.391.39-.391 1.023 0 1.414.195.195.451.293.707.293s.512-.098.707-.293c.724-.723 1.122-1.685 1.122-2.708s-.398-1.984-1.123-2.707c-.389-.389-1.023-.391-1.414.002z"/></g></svg>