<svg version="1.2" baseProfile="tiny" xmlns="http://www.w3.org/2000/svg" width="24" height="24" viewBox="0 0 24 24"><path d="M19.707 5.293c-.391-.391-1.023-.391-1.414 0l-1.551 1.551c-.345-.688-.987-1.02-1.604-1.02-.449 0-.905.152-1.356.453l-2.672 1.781c-.753.503-2.206.942-3.11.942-1.654 0-3 1.346-3 3v2c0 1.237.754 2.302 1.826 2.76l-1.533 1.533c-.391.391-.391 1.023 0 1.414.195.195.451.293.707.293s.512-.098.707-.293l2.527-2.527c.697.174 1.416.455 1.875.762l2.672 1.781c.451.301.907.453 1.356.453.898 0 1.863-.681 1.863-2.176v-8.586l2.707-2.707c.391-.391.391-1.023 0-1.414zm-4.816 2.648l.104-.062.005.121v1.293l-2 2v-2.091l1.891-1.261zm-7.891 4.059c0-.552.448-1 1-1 1.211 0 2.907-.495 4-1.146v2.439l-2.83 2.83c-.413-.077-.814-.123-1.17-.123-.552 0-1-.448-1-1v-2zm3.301 3.406l1.699-1.699v2.439c-.481-.287-1.075-.542-1.699-.74zm4.693 2.714l-.104-.062-1.89-1.26v-4.091l2-2v7.293l-.006.12z"/></svg>