<?xml version="1.0"?><svg version="1.2" baseProfile="tiny" xmlns="http://www.w3.org/2000/svg" width="40" height="40" viewBox="0 0 40 40"><path d="m20 9.2c0.9 0 1.9 0.6 2.6 1.8l9.8 16.4c1.4 2.3 0.4 4.3-2.4 4.3h-20c-2.7 0-3.8-2-2.4-4.3l9.8-16.4c0.7-1.2 1.7-1.8 2.6-1.8m0-3.4c-2.2 0-4.1 1.3-5.4 3.4l-9.9 16.5c-1.3 2.1-1.4 4.5-0.4 6.3s3.2 3 5.7 3h20c2.5 0 4.6-1.1 5.7-3s0.9-4.2-0.4-6.3l-9.9-16.5c-1.3-2.1-3.2-3.4-5.4-3.4z"></path><circle cx="20" cy="26.666666666666668" r="2.166666666666667"></circle><path d="m22.5 16.7c0-1.4-1.1-2.5-2.5-2.5s-2.5 1.1-2.5 2.5c0 0.3 0.1 0.6 0.2 0.9 0.9 2.3 2.3 5.7 2.3 5.7l2.3-5.7c0.1-0.3 0.2-0.6 0.2-0.9z"></path></svg>