<?xml version="1.0"?><svg xmlns="http://www.w3.org/2000/svg" width="40" height="40" viewBox="0 0 40 40"><path fill="#444" d="m25 31.7c-2.2 0-4.5-0.9-6.2-2.6-2.1-2.1-5.5-2.1-7.6 0-0.7 0.7-1.7 0.7-2.4 0s-0.6-1.7 0-2.3c3.4-3.4 9-3.4 12.4 0 2.1 2.1 5.5 2.1 7.6 0 0.7-0.7 1.7-0.7 2.4 0s0.6 1.7 0 2.3c-1.7 1.7-4 2.6-6.2 2.6z m0-6.7c-2.2 0-4.5-0.9-6.2-2.6-2.1-2.1-5.5-2.1-7.6 0-0.7 0.7-1.7 0.7-2.4 0s-0.6-1.7 0-2.3c3.4-3.4 9-3.4 12.4 0 2.1 2.1 5.5 2.1 7.6 0 0.7-0.7 1.7-0.7 2.4 0s0.6 1.7 0 2.3c-1.7 1.7-4 2.6-6.2 2.6z m0-6.7c-2.2 0-4.5-0.8-6.2-2.5-2.1-2.1-5.5-2.1-7.6 0-0.7 0.6-1.7 0.6-2.4 0s-0.6-1.7 0-2.4c3.4-3.4 9-3.4 12.4 0 2.1 2.1 5.5 2.1 7.6 0 0.7-0.6 1.7-0.6 2.4 0s0.6 1.7 0 2.4c-1.7 1.7-4 2.5-6.2 2.5z"></path></svg>