<svg version="1.2" baseProfile="tiny" xmlns="http://www.w3.org/2000/svg" width="24" height="24" viewBox="0 0 24 24"><path d="M20.5 15.134l-2.457-.503 1.483-.396c.533-.143.85-.69.707-1.225-.142-.533-.689-.85-1.225-.707l-1.508.403c.037-.231.071-.464.071-.706s-.034-.476-.071-.707l1.51.404.26.034c.441 0 .846-.295.965-.741.143-.533-.174-1.082-.707-1.225l-1.483-.397 2.455-.502c.216-.044.42-.156.577-.333.386-.436.347-1.102-.089-1.488-.436-.386-1.102-.347-1.488.089l-1.663 1.874.398-1.479c.144-.533-.173-1.082-.706-1.226-.531-.142-1.082.173-1.226.706l-.407 1.517c-.366-.299-.771-.544-1.219-.717l1.102-1.102c.391-.391.391-1.023 0-1.414s-1.023-.391-1.414 0l-1.086 1.086.793-2.379c.069-.209.075-.441 0-.667-.184-.552-.781-.851-1.333-.666-.552.184-.85.78-.667 1.333l.793 2.379-1.086-1.086c-.391-.391-1.023-.391-1.414 0s-.391 1.023 0 1.414l1.102 1.102c-.447.173-.853.419-1.219.717l-.405-1.515c-.143-.534-.697-.852-1.224-.708-.534.143-.851.69-.708 1.224l.396 1.485-1.662-1.877c-.146-.164-.345-.285-.578-.333-.57-.117-1.127.25-1.244.82s.251 1.128.822 1.245l2.454.503-1.48.396c-.533.143-.85.691-.707 1.225.119.447.523.741.965.741l.26-.034 1.508-.404c-.039.231-.073.465-.073.706 0 .242.034.475.071.707l-1.508-.404c-.532-.142-1.081.173-1.225.707-.144.533.174 1.082.707 1.225l1.483.397-2.455.502c-.216.044-.42.156-.577.334-.387.436-.347 1.102.089 1.487.436.387 1.103.347 1.488-.089l1.665-1.878-.398 1.484c-.144.533.173 1.082.707 1.225l.26.034c.441 0 .845-.294.965-.741l.406-1.515c.366.298.771.544 1.22.716l-1.104 1.102c-.391.39-.391 1.023 0 1.414s1.023.391 1.414 0l.706-.707h.252l-.666 1.999c-.069.209-.075.441 0 .667.184.552.781.851 1.333.666.553-.184.851-.78.667-1.333l-.666-1.999h.252l.707.707c.196.195.451.293.707.293s.512-.098.707-.293c.391-.39.391-1.023 0-1.414l-1.102-1.103c.448-.172.854-.418 1.22-.717l.406 1.517c.12.447.523.741.965.741l.26-.034c.533-.143.851-.691.707-1.225l-.397-1.48 1.662 1.874c.146.165.345.285.577.333.57.117 1.128-.251 1.244-.821.117-.57-.251-1.127-.821-1.244zm-7.428-.634c-1.379 0-2.5-1.121-2.5-2.5s1.121-2.5 2.5-2.5 2.5 1.121 2.5 2.5-1.121 2.5-2.5 2.5z"/></svg>