<svg version="1.2" baseProfile="tiny" xmlns="http://www.w3.org/2000/svg" width="24" height="24" viewBox="0 0 24 24"><g><path d="M17 18c-.553 0-1-.447-1-1s.447-1 1-1c1.654 0 3-1.346 3-3s-1.346-3-3-3c-.238 0-.496.042-.813.131l-1.071.301-.186-1.098c-.326-1.932-1.979-3.334-3.93-3.334-2.205 0-4 1.794-4 4 0 .274.027.545.082.806l.26 1.24-1.436-.052c-1.01.006-1.906.903-1.906 2.006s.896 2 2 2c.553 0 1 .447 1 1s-.447 1-1 1c-2.205 0-4-1.794-4-4 0-1.861 1.277-3.429 3.002-3.874l-.002-.126c0-3.309 2.691-6 6-6 2.587 0 4.824 1.638 5.649 4.015 2.925-.241 5.351 2.112 5.351 4.985 0 2.757-2.243 5-5 5zM12.639 14l-4.5 4.051 3 1.449-1.5 3.5 4.5-4.05-3-1.45z"/></g></svg>