<svg version="1.2" baseProfile="tiny" xmlns="http://www.w3.org/2000/svg" width="24" height="24" viewBox="0 0 24 24"><path d="M10.5 20c-.861 0-1.71-.151-2.523-.451l-1.317-.485.89-1.087c1.275-1.56 1.95-3.454 1.95-5.477s-.675-3.917-1.951-5.477l-.89-1.087 1.317-.485c.814-.3 1.663-.451 2.524-.451 4.136 0 7.5 3.364 7.5 7.5s-3.364 7.5-7.5 7.5zm-.509-2.024c.169.016.339.024.509.024 3.032 0 5.5-2.468 5.5-5.5s-2.468-5.5-5.5-5.5c-.17 0-.34.008-.509.024.991 1.645 1.509 3.511 1.509 5.476s-.518 3.831-1.509 5.476z"/></svg>