<svg version="1.2" baseProfile="tiny" xmlns="http://www.w3.org/2000/svg" width="24" height="24" viewBox="0 0 24 24"><path d="M13.414 19.412c.783-.779.783-2.047 0-2.826-.781-.785-2.049-.785-2.828-.002-.783.783-.783 2.051 0 2.831.781.78 2.049.781 2.828-.003zM20.485 11.515c-.512 0-1.024-.195-1.414-.586-3.899-3.899-10.243-3.898-14.143 0-.782.781-2.048.78-2.829 0-.781-.781-.781-2.047 0-2.829 5.459-5.458 14.341-5.458 19.799 0 .781.781.781 2.047 0 2.828-.389.391-.901.587-1.413.587zM7.757 15.757c-.512 0-1.024-.195-1.414-.586-.781-.781-.781-2.047 0-2.828 3.118-3.119 8.194-3.119 11.313 0 .781.781.781 2.047 0 2.829-.781.781-2.047.781-2.829 0-1.559-1.56-4.097-1.559-5.657 0-.389.39-.901.585-1.413.585z"/></svg>