<svg version="1.2" baseProfile="tiny" xmlns="http://www.w3.org/2000/svg" width="24" height="24" viewBox="0 0 24 24"><path d="M12 2c-4.971 0-9 4.029-9 9s4.029 9 9 9 9-4.029 9-9-4.029-9-9-9zm0 6c0-.553.447-1 1-1s1 .447 1 1v3c-.552 0-1 .448-1 1s.448 1 1 1c.553 0 1-.448 1-1h1v-2l1 1-1 1c0 3 0 3-2 4 0-1-1-1-3-1v-2l-2-2v-2c-1 0-1 1-1 1l-.561-.561-1.652-1.651c1.167-2.247 3.512-3.788 6.213-3.788.688 0 1.353.104 1.981.29-.086.895-.579 1.71-1.481 1.71-1 0-1.5 1-1.5 2v3s1 0 1-3zm0 10c-3.859 0-7-3.14-7-7 0-.776.133-1.521.367-2.219l1.926 1.926 1 1 1.707 1.707v1.586c0 .552.447 1 1 1 .779 0 1.651 0 2.006.091.038.301.209.582.468.742.168.104.36.16.552.16.145 0 .289-.032.422-.098 2.348-1.174 2.539-1.644 2.552-4.479l.708-.708c.391-.391.391-1.023 0-1.414l-1-1c-.192-.192-.448-.294-.708-.294-.129 0-.259.025-.383.076-.373.155-.617.52-.617.924v-2c0-.689-.351-1.298-.883-1.658.421-.411.712-.995.826-1.685 2.392 1.115 4.057 3.535 4.057 6.343 0 3.86-3.141 7-7 7z"/></svg>