<svg version="1.2" baseProfile="tiny" xmlns="http://www.w3.org/2000/svg" width="24" height="24" viewBox="0 0 24 24"><path d="M14 8c1.656 0 3 1.344 3 3s-1.344 3-3 3-3-1.344-3-3 1.344-3 3-3m0-1c-2.206 0-4 1.794-4 4s1.794 4 4 4 4-1.794 4-4-1.794-4-4-4zM4.195 17.674c0 1.727 1.404 3.131 3.131 3.131.756 0 1.503-.277 2.104-.783l2.397-2.386c.685.227 1.412.364 2.173.364 3.86 0 7-3.141 7-7s-3.14-7-7-7c-3.859 0-7 3.141-7 7 0 .761.136 1.486.364 2.173l-2.245 2.283c-.596.59-.924 1.378-.924 2.218zm6.459-1.694l-2.512 2.511c-.223.187-.504.313-.816.313-.624 0-1.131-.506-1.131-1.131 0-.311.127-.594.332-.797l2.492-2.531c.435.645.99 1.2 1.635 1.635zm3.346.02c-2.757 0-5-2.243-5-5s2.243-5 5-5 5 2.243 5 5-2.243 5-5 5z"/></svg>