<svg version="1.2" baseProfile="tiny" xmlns="http://www.w3.org/2000/svg" width="24" height="24" viewBox="0 0 24 24"><path d="M13 12h-5c-.275 0-.5-.225-.5-.5s.225-.5.5-.5h5c.275 0 .5.225.5.5s-.225.5-.5.5zM19.381 15.956l-2.245-2.283c.228-.687.364-1.412.364-2.173 0-3.859-3.141-7-7-7s-7 3.141-7 7 3.141 7 7 7c.761 0 1.488-.137 2.173-.364l2.397 2.386c.601.506 1.348.783 2.104.783 1.727 0 3.131-1.404 3.131-3.131 0-.84-.328-1.628-.924-2.218zm-3.901-1.11l2.492 2.531c.205.203.332.486.332.797 0 .625-.507 1.131-1.131 1.131-.312 0-.594-.127-.816-.313l-2.512-2.511c.646-.436 1.201-.991 1.635-1.635zm-9.98-3.346c0-2.757 2.243-5 5-5s5 2.243 5 5-2.243 5-5 5-5-2.243-5-5z"/></svg>