<svg version="1.2" baseProfile="tiny" xmlns="http://www.w3.org/2000/svg" width="24" height="24" viewBox="0 0 24 24"><path d="M13 4c-3.859 0-7 3.141-7 7 0 .763.127 1.495.354 2.183l-.749.75-.511.512-1.008 1.045c-.562.557-.891 1.345-.891 2.185 0 1.727 1.404 3.131 3.13 3.131.757 0 1.504-.278 2.104-.784l.064-.055.061-.061 1.512-1.51.75-.749c.688.226 1.421.353 2.184.353 3.859 0 7-3.141 7-7s-3.141-7-7-7zm0 12c-2.757 0-5-2.243-5-5s2.243-5 5-5 5 2.243 5 5-2.243 5-5 5zM13 7c-2.205 0-4 1.794-4 4s1.795 4 4 4 4-1.794 4-4-1.795-4-4-4zm0 7c-1.656 0-3-1.344-3-3s1.344-3 3-3 3 1.344 3 3-1.344 3-3 3z"/></svg>