<?xml version="1.0" encoding="utf-8"?>
<!-- Generator: Adobe Illustrator 19.2.1, SVG Export Plug-In . SVG Version: 6.00 Build 0)  -->
<svg version="1.1" id="Layer_1" xmlns="http://www.w3.org/2000/svg" xmlns:xlink="http://www.w3.org/1999/xlink" x="0px" y="0px"
	 width="92px" height="92px" viewBox="0 0 92 92" enable-background="new 0 0 92 92" xml:space="preserve">
<path d="M82.4,30.2c1.1-1,5.5-5.1,5.6-11.2c0.1-4.4-2-8.4-6.2-12c0,0-0.1-0.1-0.1-0.1c-5-3.9-9.4-4.1-12.2-3.6
	c-4.9,0.9-8.2,4.4-9.6,6.3C55.5,7.9,50.8,7,46,7c-4.8,0-9.5,0.9-13.8,2.4c-1.5-1.9-4.7-5.4-9.6-6.3c-2.8-0.5-7.2-0.3-12.2,3.6
	c0,0-0.1,0.1-0.1,0.1C6,10.6,3.9,14.6,4,19c0.1,6.1,4.4,10.2,5.6,11.2c-2.5,5.2-3.8,11-3.8,17.2c0,10.1,3.8,19.4,10,26.5
	c-0.1,0.1-0.1,0.1-0.2,0.2l-5.8,8.7c-1.2,1.8-0.7,4.3,1.1,5.5c0.7,0.5,1.5,0.7,2.2,0.7c1.3,0,2.6-0.6,3.3-1.8l5.2-7.8
	c6.8,5.2,15.2,8.3,24.4,8.3c9.2,0,17.7-3.1,24.5-8.4l5.3,7.9c0.8,1.2,2,1.8,3.3,1.8c0.8,0,1.5-0.2,2.2-0.7c1.8-1.2,2.3-3.7,1.1-5.5
	l-5.8-8.7c-0.1-0.1-0.2-0.2-0.3-0.3c6.1-7.1,9.8-16.3,9.8-26.4C86.2,41.2,84.9,35.4,82.4,30.2z M70.9,11.1c1.7-0.3,3.6,0.4,5.7,2
	c2.3,2,3.4,3.9,3.4,5.8c0,1.7-1,3.3-1.9,4.3c-3-4-6.7-7.3-10.9-10C68.2,12.2,69.5,11.3,70.9,11.1z M12,18.9c0-1.9,1.1-3.8,3.4-5.8
	c2.1-1.6,4-2.3,5.7-2c1.4,0.3,2.7,1.2,3.7,2.1c-4.2,2.6-7.9,6-10.9,10C13.1,22.1,12,20.6,12,18.9z M46,79.7
	c-17.8,0-32.2-14.5-32.2-32.3S28.2,15,46,15s32.2,14.5,32.2,32.3S63.8,79.7,46,79.7z M60.5,56.2c1.6,1.6,1.6,4.1,0,5.7
	c-0.8,0.8-1.8,1.2-2.8,1.2c-1,0-2-0.4-2.8-1.2L43.2,50.2c-0.7-0.8-1.2-1.8-1.2-2.8V25.8c0-2.2,1.8-4,4-4s4,1.8,4,4v19.9L60.5,56.2z"
	/>
</svg>
