<?xml version="1.0" encoding="utf-8"?>
<!-- Generator: Adobe Illustrator 19.2.1, SVG Export Plug-In . SVG Version: 6.00 Build 0)  -->
<svg version="1.1" id="Layer_1" xmlns="http://www.w3.org/2000/svg" xmlns:xlink="http://www.w3.org/1999/xlink" x="0px" y="0px"
	 width="92px" height="92px" viewBox="0 0 92 92" enable-background="new 0 0 92 92" xml:space="preserve">
<path id="XMLID_81_" d="M82,18H10c-2.2,0-4-1.8-4-4s1.8-4,4-4h72c2.2,0,4,1.8,4,4S84.2,18,82,18z M55.4,35.4c0-2.2-1.8-4-4-4H10
	c-2.2,0-4,1.8-4,4s1.8,4,4,4h41.4C53.6,39.4,55.4,37.6,55.4,35.4z M67.6,56.7c0-2.2-1.8-4-4-4H10c-2.2,0-4,1.8-4,4s1.8,4,4,4h53.6
	C65.8,60.7,67.6,58.9,67.6,56.7z M82.4,78c0-2.2-1.8-4-4-4H10.3c-2.2,0-4,1.8-4,4s1.8,4,4,4h68.1C80.6,82,82.4,80.2,82.4,78z"/>
</svg>
