<?xml version="1.0" encoding="utf-8"?>
<!-- Generator: Adobe Illustrator 19.2.1, SVG Export Plug-In . SVG Version: 6.00 Build 0)  -->
<svg version="1.1" id="Layer_1" xmlns="http://www.w3.org/2000/svg" xmlns:xlink="http://www.w3.org/1999/xlink" x="0px" y="0px"
	 width="92px" height="92px" viewBox="0 0 92 92" enable-background="new 0 0 92 92" xml:space="preserve">
<path id="XMLID_84_" d="M82,18H10c-2.2,0-4-1.8-4-4s1.8-4,4-4h72c2.2,0,4,1.8,4,4S84.2,18,82,18z M86,35.4c0-2.2-1.8-4-4-4H10
	c-2.2,0-4,1.8-4,4s1.8,4,4,4h72C84.2,39.4,86,37.6,86,35.4z M86,56.7c0-2.2-1.8-4-4-4H10c-2.2,0-4,1.8-4,4s1.8,4,4,4h72
	C84.2,60.7,86,58.9,86,56.7z M50,78c0-2.2-1.8-4-4-4H10.3c-2.2,0-4,1.8-4,4s1.8,4,4,4H46C48.2,82,50,80.2,50,78z"/>
</svg>
