<?xml version="1.0" encoding="utf-8"?>
<!-- Generator: Adobe Illustrator 19.2.1, SVG Export Plug-In . SVG Version: 6.00 Build 0)  -->
<svg version="1.1" id="Layer_1" xmlns="http://www.w3.org/2000/svg" xmlns:xlink="http://www.w3.org/1999/xlink" x="0px" y="0px"
	 width="92px" height="92px" viewBox="0 0 92 92" enable-background="new 0 0 92 92" xml:space="preserve">
<path id="XMLID_1720_" d="M87.1,53.3C86.3,52.4,85.2,52,84,52H71.1c-2.2,0-4,1.8-4,4s1.8,4,4,4h7.8C74.9,73,63.6,82.2,50,83.8V30.7
	c6.6-1.8,11.5-7.9,11.5-15.1C61.5,7,54.6,0,46,0c-8.6,0-15.5,7-15.5,15.6c0,7.2,4.5,13.3,11.5,15.1v53.1C28,82.2,17.1,73,13.1,60
	h7.8c2.2,0,4-1.8,4-4s-1.8-4-4-4H8c-1.2,0-2.3,0.4-3.1,1.3c-0.8,0.9-1.1,2-0.9,3.2C7.5,77.1,25.2,92,46,92s38.5-14.9,41.9-35.5
	C88.1,55.3,87.8,54.2,87.1,53.3z M38.5,15.6c0-4.2,3.4-7.6,7.5-7.6c4.2,0,7.5,3.4,7.5,7.6c0,4.2-3.4,7.6-7.5,7.6
	C41.8,23.2,38.5,19.8,38.5,15.6z"/>
</svg>
