<?xml version="1.0" encoding="utf-8"?>
<!-- Generated by IcoMoon.io -->
<!DOCTYPE svg PUBLIC "-//W3C//DTD SVG 1.1//EN" "http://www.w3.org/Graphics/SVG/1.1/DTD/svg11.dtd">
<svg version="1.1" xmlns="http://www.w3.org/2000/svg" xmlns:xlink="http://www.w3.org/1999/xlink" width="32" height="32" viewBox="0 0 32 32">
<path fill="#444444" d="M6.802 20.283c0 1.23-0.857 2.237-1.904 2.237s-1.905-1.006-1.905-2.237v-7.321c0-1.23 0.857-2.237 1.905-2.237s1.904 1.007 1.904 2.237v7.321zM29.007 20.283c0 1.23-0.857 2.237-1.905 2.237s-1.905-1.006-1.905-2.237v-7.321c0-1.23 0.857-2.237 1.905-2.237s1.905 1.007 1.905 2.237v7.321zM20.164 3.649l1.222-2.193c0.1-0.179 0.070-0.388-0.065-0.463s-0.329 0.009-0.428 0.188l-1.25 2.244c-1.115-0.439-2.364-0.684-3.684-0.684-1.33 0-2.588 0.25-3.71 0.695l-1.256-2.254c-0.1-0.179-0.293-0.264-0.428-0.188s-0.165 0.284-0.065 0.463l1.228 2.204c-2.555 1.2-4.276 3.453-4.276 6.035 0 0.262 0.019 0.521 0.053 0.776h16.909c0.035-0.255 0.053-0.513 0.053-0.776 0-2.59-1.732-4.849-4.301-6.046zM12.097 7.477c-0.411 0-0.744-0.333-0.744-0.744s0.333-0.744 0.744-0.744 0.744 0.333 0.744 0.744c0 0.411-0.333 0.744-0.744 0.744zM19.861 7.477c-0.411 0-0.744-0.333-0.744-0.744s0.333-0.744 0.744-0.744 0.744 0.333 0.744 0.744c0 0.411-0.333 0.744-0.744 0.744zM7.45 11.211v12.471h0.007c0.087 1.053 1.056 1.89 2.23 1.89h12.541c1.173 0 2.142-0.837 2.23-1.89h0.007v-12.471h-17.014zM14.74 25.51v3.858c0 1.23-0.857 2.237-1.905 2.237s-1.904-1.007-1.904-2.237v-3.855zM21.088 25.508v3.86c0 1.23-0.857 2.237-1.905 2.237s-1.905-1.007-1.905-2.237v-3.86z"></path>
</svg>
