<?xml version="1.0" encoding="utf-8"?>
<!-- Generated by IcoMoon.io -->
<!DOCTYPE svg PUBLIC "-//W3C//DTD SVG 1.1//EN" "http://www.w3.org/Graphics/SVG/1.1/DTD/svg11.dtd">
<svg version="1.1" xmlns="http://www.w3.org/2000/svg" xmlns:xlink="http://www.w3.org/1999/xlink" width="34" height="32" viewBox="0 0 34 32">
<path fill="#444444" d="M29.767 26.049l-12.068-20.902c-0.16-0.277-0.457-0.449-0.777-0.449s-0.616 0.171-0.776 0.449l-12.069 20.902c-0.161 0.277-0.161 0.573 0 0.852s0.457 0.401 0.777 0.401h24.137c0.321 0 0.615-0.124 0.776-0.401s0.161-0.574 0-0.852v0zM22.089 24.362l0.032-0.906-3.482 0.615-0.158-0.166 0.045-1.212h-0.091c0 0-0.954 1.598-3.068 1.598-1.568 0-3.045-0.632-3.045-3.176 0-2.569 1.931-3.427 3.954-3.427h2.128v-1.026c0-1.023-0.689-1.613-1.962-1.613-1.432 0-3.12 0.227-3.12 0.227l-0.12-0.159v-1.727c0 0 1.821-0.227 3.708-0.227 1.727 0 3.798 0.454 3.798 2.999v5.856l1.163-0.221-0.331-0.848 2.903 1.273-2.353 2.138zM14.526 20.942c0 1.181 0.825 1.451 1.62 1.451 0.75 0 1.665-0.186 2.257-1.117v-1.941h-1.536c-1.546 0-2.341 0.38-2.341 1.607v0z"></path>
</svg>
