<?xml version="1.0" encoding="utf-8"?>
<!-- Generated by IcoMoon.io -->
<!DOCTYPE svg PUBLIC "-//W3C//DTD SVG 1.1//EN" "http://www.w3.org/Graphics/SVG/1.1/DTD/svg11.dtd">
<svg version="1.1" xmlns="http://www.w3.org/2000/svg" xmlns:xlink="http://www.w3.org/1999/xlink" width="32" height="32" viewBox="0 0 32 32">
<path fill="#444444" d="M13.951 15.861l1.917-3.34c0.143-0.25 0.057-0.571-0.193-0.716l-1.364-0.78c-0.249-0.144-0.571-0.057-0.714 0.192l-6.316 11c-0.144 0.25-0.057 0.57 0.193 0.713l1.363 0.784c0.25 0.143 0.572 0.056 0.716-0.192l4.398-7.661zM26.806 14.859h-4.602c0.541 1.015 1.044 1.97 1.397 2.646 0.244 0.467 0.438 0.836 0.507 0.96 0.071 0.131 0.123 0.267 0.157 0.405h2.541c0.261 0 0.474-0.212 0.474-0.473v-3.064c0-0.261-0.213-0.473-0.474-0.473zM15.619 14.859l-2.303 4.011h6.249c-0.453-0.895-1.054-2.176-1.862-4.011h-2.084zM10.415 14.859h-5.298c-0.261 0-0.473 0.212-0.473 0.473v3.064c0 0.261 0.212 0.473 0.473 0.473h2.995l2.303-4.010zM8.392 24.315l-1.363-0.782c-0.25-0.143-0.481-0.026-0.514 0.26l-0.236 2.053c-0.033 0.286 0.135 0.388 0.373 0.226l1.761-1.201c0.239-0.161 0.228-0.412-0.021-0.556zM23.278 18.921c-0.008-0.013-0.018-0.032-0.028-0.051v0c-0.127-0.234-0.444-0.844-0.861-1.635-0.005-0.011-0.010-0.020-0.015-0.030-0.031-0.061-0.064-0.122-0.097-0.185-0.024-0.045-0.048-0.090-0.073-0.137-0.020-0.040-0.041-0.079-0.062-0.119-0.037-0.070-0.075-0.14-0.112-0.212-0.012-0.023-0.023-0.045-0.035-0.067-0.042-0.081-0.085-0.162-0.129-0.244-0.012-0.024-0.024-0.047-0.037-0.071-0.96-1.816-2.166-4.052-2.91-5.227-1.303-2.060-3.043-5.493-3.529-5.249-0.68 0.339 1.426 4.697 2.122 6.335s3.417 7.913 3.962 8.187c0.547 0.273 0.757 0.121 1.121-0.029 0.365-0.152 1.017-0.656 0.684-1.264zM24.832 22.154l-0.649-1.246c-0.147-0.282-0.493-0.396-0.769-0.256l-0.783 0.403c-0.276 0.143-0.362 0.477-0.193 0.746l0.822 1.298c0.17 0.268 0.528 0.355 0.794 0.195l0.559-0.336c0.267-0.16 0.366-0.522 0.22-0.804zM24.632 23.959c-0.205 0.196-0.691 0.621-0.102 1.447 0.586 0.828 1.897 0.865 2.070 1.414 0 0 0.411-4.204-1.968-2.862z"></path>
</svg>
