<?xml version="1.0" encoding="utf-8"?>
<!-- Generator: Adobe Illustrator 19.2.1, SVG Export Plug-In . SVG Version: 6.00 Build 0)  -->
<svg version="1.1" id="Layer_1" xmlns="http://www.w3.org/2000/svg" xmlns:xlink="http://www.w3.org/1999/xlink" x="0px" y="0px"
	 width="92px" height="92px" viewBox="0 0 92 92" enable-background="new 0 0 92 92" xml:space="preserve">
<path id="XMLID_1478_" d="M15.7,22c0-2.2,1.8-4,4-4h52.5c2.2,0,4,1.8,4,4s-1.8,4-4,4H19.7C17.5,26,15.7,24.2,15.7,22z M26.3,12h39.4
	c1.9,0,3.5-1.6,3.5-3.5S67.6,5,65.7,5H26.3c-1.9,0-3.5,1.6-3.5,3.5S24.4,12,26.3,12z M92,26.6v10.9c0,0,0,0,0,0c0,0,0,0,0,0
	c0,0,0,0,0,0c0,0,0,0,0,0c0,0.4-0.1,0.8-0.2,1.1L79,85.1C78.5,86.8,77,88,75.2,88H16.6c-1.8,0-3.4-1.2-3.9-3L0.2,38.6
	C0.1,38.4,0.1,38.2,0,38c0-0.2,0-0.4,0-0.6V26.6c0-2.2,1.8-4,4-4s4,1.8,4,4V34h76v-7.4c0-2.2,1.8-4,4-4S92,24.4,92,26.6z M82.7,42
	H9.2l10.4,38H46h26.1L82.7,42z M34.2,62h23.6c2.2,0,4-1.8,4-4s-1.8-4-4-4H34.2c-2.2,0-4,1.8-4,4S32,62,34.2,62z"/>
</svg>
