<?xml version="1.0" encoding="utf-8"?>
<!-- Generator: Adobe Illustrator 19.2.1, SVG Export Plug-In . SVG Version: 6.00 Build 0)  -->
<svg version="1.1" id="Layer_1" xmlns="http://www.w3.org/2000/svg" xmlns:xlink="http://www.w3.org/1999/xlink" x="0px" y="0px"
	 width="92px" height="92px" viewBox="0 0 92 92" enable-background="new 0 0 92 92" xml:space="preserve">
<path id="XMLID_864_" d="M84.8,43.1l-30.6-30c-1.2-1.1-3.1-1.5-4.5-0.8C48.2,12.9,47,14.4,47,16v13H10c-2.2,0-4,2.3-4,4.5v25
	c0,2.2,1.8,4.5,4,4.5h37v13c0,1.6,1.2,3.1,2.6,3.7c0.5,0.2,1.1,0.3,1.6,0.3c1,0,2.1-0.4,2.8-1.1l30.6-30c0.8-0.8,1.2-1.8,1.2-2.9
	S85.6,43.9,84.8,43.1z M55,66.5v-8c0-2.2-1.4-3.5-3.6-3.5H14V37h37.4c2.2,0,3.6-1.3,3.6-3.5v-8L75.9,46L55,66.5z"/>
</svg>
