<?xml version="1.0" encoding="utf-8"?>
<!-- Generator: Adobe Illustrator 19.2.1, SVG Export Plug-In . SVG Version: 6.00 Build 0)  -->
<svg version="1.1" id="Layer_1" xmlns="http://www.w3.org/2000/svg" xmlns:xlink="http://www.w3.org/1999/xlink" x="0px" y="0px"
	 width="92px" height="92px" viewBox="0 0 92 92" enable-background="new 0 0 92 92" xml:space="preserve">
<path id="XMLID_546_" d="M84,46c0,2.2-1.8,4-4,4H21.6l18.1,18.2c1.6,1.6,1.6,4.1,0,5.7C39,74.6,38,75,36.9,75c-1,0-2.1-0.4-2.8-1.2
	l-24.9-25c-1.6-1.6-1.6-4.1,0-5.6l24.9-25c1.6-1.6,4.1-1.6,5.7,0c1.6,1.6,1.6,4.1,0,5.7L21.6,42H80C82.2,42,84,43.8,84,46z"/>
</svg>
