<?xml version="1.0" encoding="utf-8"?>
<!-- Generator: Adobe Illustrator 19.2.1, SVG Export Plug-In . SVG Version: 6.00 Build 0)  -->
<svg version="1.1" id="Layer_1" xmlns="http://www.w3.org/2000/svg" xmlns:xlink="http://www.w3.org/1999/xlink" x="0px" y="0px"
	 width="92px" height="92px" viewBox="0 0 92 92" enable-background="new 0 0 92 92" xml:space="preserve">
<path id="XMLID_877_" d="M78.9,37.8l-30-30.6C48.1,6.4,47.1,6,46,6s-2.1,0.4-2.9,1.2l-30,30.6c-1.1,1.1-1.5,3.1-0.8,4.5
	c0.6,1.5,2.1,2.6,3.7,2.6h13v37c0,2.2,2.3,4,4.5,4h25c2.2,0,4.5-1.8,4.5-4V45h13c1.6,0,3.1-1.2,3.7-2.6C80.3,40.9,80,39,78.9,37.8z
	 M58.5,37c-2.2,0-3.5,1.4-3.5,3.6V78H37V40.6c0-2.2-1.3-3.6-3.5-3.6h-8L46,16.1L66.5,37H58.5z"/>
</svg>
