<?xml version="1.0" encoding="utf-8"?>
<!-- Generator: Adobe Illustrator 19.2.1, SVG Export Plug-In . SVG Version: 6.00 Build 0)  -->
<svg version="1.1" id="Layer_1" xmlns="http://www.w3.org/2000/svg" xmlns:xlink="http://www.w3.org/1999/xlink" x="0px" y="0px"
	 width="92px" height="92px" viewBox="0 0 92 92" enable-background="new 0 0 92 92" xml:space="preserve">
<path id="XMLID_851_" d="M82,29H45V16c0-1.6-1.2-3.1-2.6-3.7c-1.5-0.6-3.3-0.3-4.4,0.8l-30.7,30C6.5,43.9,6,44.9,6,46
	s0.4,2.1,1.2,2.9l30.6,30c0.8,0.7,1.8,1.1,2.8,1.1c0.5,0,1.2-0.1,1.7-0.3c1.5-0.6,2.6-2.1,2.6-3.7V63h37c2.2,0,4-2.3,4-4.5v-25
	C86,31.3,84.2,29,82,29z M78,55H40.6c-2.2,0-3.6,1.3-3.6,3.5v8L16.1,46L37,25.5v8c0,2.2,1.4,3.5,3.6,3.5H78V55z"/>
</svg>
