<?xml version="1.0" encoding="utf-8"?>
<!-- Generator: Adobe Illustrator 19.2.1, SVG Export Plug-In . SVG Version: 6.00 Build 0)  -->
<svg version="1.1" id="Layer_1" xmlns="http://www.w3.org/2000/svg" xmlns:xlink="http://www.w3.org/1999/xlink" x="0px" y="0px"
	 width="92px" height="92px" viewBox="0 0 92 92" enable-background="new 0 0 92 92" xml:space="preserve">
<path id="XMLID_512_" d="M82.8,48.8l-24.9,25c-0.8,0.8-1.8,1.2-2.8,1.2c-1,0-2-0.4-2.8-1.2c-1.6-1.6-1.6-4.1,0-5.7L70.4,50H12
	c-2.2,0-4-1.8-4-4c0-2.2,1.8-4,4-4h58.4L52.2,23.8c-1.6-1.6-1.6-4.1,0-5.7c1.6-1.6,4.1-1.6,5.7,0l24.9,25
	C84.4,44.7,84.4,47.3,82.8,48.8z"/>
</svg>
