<?xml version="1.0" encoding="utf-8"?>
<!-- Generator: Adobe Illustrator 19.2.1, SVG Export Plug-In . SVG Version: 6.00 Build 0)  -->
<svg version="1.1" id="Layer_1" xmlns="http://www.w3.org/2000/svg" xmlns:xlink="http://www.w3.org/1999/xlink" x="0px" y="0px"
	 width="92px" height="92px" viewBox="0 0 92 92" enable-background="new 0 0 92 92" xml:space="preserve">
<path id="XMLID_341_" d="M73.8,57.9l-25,24.9C48,83.6,47,84,46,84s-2-0.4-2.8-1.2l-25-24.9c-1.6-1.6-1.6-4.1,0-5.7
	c1.6-1.6,4.1-1.6,5.7,0L42,70.4V12c0-2.2,1.8-4,4-4c2.2,0,4,1.8,4,4v58.4l18.2-18.1c1.6-1.6,4.1-1.6,5.7,0
	C75.4,53.8,75.4,56.3,73.8,57.9z"/>
</svg>
