<?xml version="1.0" encoding="utf-8"?>
<!-- Generator: Adobe Illustrator 19.2.1, SVG Export Plug-In . SVG Version: 6.00 Build 0)  -->
<svg version="1.1" id="Layer_1" xmlns="http://www.w3.org/2000/svg" xmlns:xlink="http://www.w3.org/1999/xlink" x="0px" y="0px"
	 width="92px" height="92px" viewBox="0 0 92 92" enable-background="new 0 0 92 92" xml:space="preserve">
<path id="XMLID_356_" d="M73.8,39.8c-0.8,0.8-1.8,1.2-2.8,1.2c-1,0-2-0.4-2.8-1.2L50,21.6V80c0,2.2-1.8,4-4,4c-2.2,0-4-1.8-4-4V21.6
	L23.8,39.8c-1.6,1.6-4.1,1.6-5.7,0c-1.6-1.6-1.6-4.1,0-5.7l25-24.9c1.6-1.6,4.1-1.6,5.6,0l25,24.9C75.4,35.7,75.4,38.2,73.8,39.8z"
	/>
</svg>
