<?xml version="1.0" encoding="utf-8"?>
<!-- Generator: Adobe Illustrator 19.2.1, SVG Export Plug-In . SVG Version: 6.00 Build 0)  -->
<svg version="1.1" id="Layer_1" xmlns="http://www.w3.org/2000/svg" xmlns:xlink="http://www.w3.org/1999/xlink" x="0px" y="0px"
	 width="92px" height="92px" viewBox="0 0 92 92" enable-background="new 0 0 92 92" xml:space="preserve">
<path id="XMLID_1210_" d="M76,2H16c-2.2,0-4,1.8-4,4v80c0,2.2,1.8,4,4,4h60c2.2,0,4-1.8,4-4V6C80,3.8,78.2,2,76,2z M72,82H20V10h52
	V82z M30,67.5c0-1.9,1.6-3.5,3.5-3.5h23.8c1.9,0,3.5,1.6,3.5,3.5S59.3,71,57.3,71H33.5C31.6,71,30,69.4,30,67.5z M30,53.5
	c0-1.9,1.6-3.5,3.5-3.5h23.8c1.9,0,3.5,1.6,3.5,3.5S59.3,57,57.3,57H33.5C31.6,57,30,55.4,30,53.5z M61,24.5c0-1.9-1.6-3.5-3.5-3.5
	h-24c-1.9,0-3.5,1.6-3.5,3.5v14c0,1.9,1.6,3.5,3.5,3.5h24c1.9,0,3.5-1.6,3.5-3.5V24.5z M37,28h17v7H37V28z"/>
</svg>
