<?xml version="1.0" encoding="utf-8"?>
<!-- Generated by IcoMoon.io -->
<!DOCTYPE svg PUBLIC "-//W3C//DTD SVG 1.1//EN" "http://www.w3.org/Graphics/SVG/1.1/DTD/svg11.dtd">
<svg version="1.1" xmlns="http://www.w3.org/2000/svg" xmlns:xlink="http://www.w3.org/1999/xlink" width="34" height="32" viewBox="0 0 34 32">
<path fill="#444444" d="M21.7 14.129c0.838-0.476 1.533-0.874 1.545-0.883s-0.31-0.571-0.716-1.248c-0.482-0.803-0.781-1.205-0.863-1.157-0.068 0.041-0.526 0.332-1.017 0.648s-1.215 0.781-1.608 1.034l-0.715 0.46 0.149-4.103h-2.927l0.043 2.012c0.037 1.731 0.022 2.004-0.11 1.953-0.084-0.032-0.852-0.514-1.706-1.071s-1.566-0.999-1.582-0.982c-0.087 0.092-1.416 2.352-1.416 2.409-0 0.037 0.779 0.509 1.732 1.050s1.732 1.007 1.732 1.036-0.779 0.495-1.732 1.036c-0.953 0.541-1.732 1.014-1.732 1.050 0 0.057 1.329 2.317 1.417 2.41 0.017 0.018 0.798-0.445 1.735-1.028l1.705-1.060-0.043 1.999-0.043 1.999h2.927l-0.075-2.006c-0.062-1.65-0.051-1.991 0.063-1.922 0.076 0.047 0.775 0.481 1.553 0.964s1.496 0.924 1.596 0.977c0.154 0.082 0.295-0.092 0.92-1.135 0.52-0.867 0.701-1.253 0.61-1.305-0.071-0.041-0.879-0.498-1.796-1.016l-1.667-0.942 0.249-0.157c0.137-0.086 0.934-0.546 1.772-1.023z"></path>
<path fill="#444444" d="M29.574 12.050c-0.062-0.501-0.224-1.235-0.361-1.628s-0.456-1.078-0.706-1.523c-0.573-1.018-1.792-2.258-2.675-2.724-0.355-0.187-0.675-0.341-0.715-0.341s0.165 0.191 0.46 0.423c0.591 0.467 1.32 1.346 1.68 2.025l0.236 0.44-0.236-0.315c-0.129-0.173-0.592-0.675-1.031-1.113-0.607-0.607-1.009-0.901-1.69-1.237-0.58-0.287-1.26-0.516-1.943-0.66-0.776-0.163-1.448-0.222-2.573-0.226-1.681-0.006-2.888 0.168-4.244 0.61-0.456 0.149-1.186 0.436-1.621 0.637s-1.243 0.665-1.795 1.034c-0.552 0.368-1.393 1.009-1.867 1.421s-1.2 1.137-1.611 1.611c-0.412 0.475-0.991 1.229-1.287 1.674s-0.553 0.792-0.574 0.771c-0.087-0.087 0.721-1.644 1.283-2.475l0.604-0.893-0.65 0.63c-0.357 0.347-0.992 1.087-1.415 1.644s-0.985 1.408-1.247 1.89-0.634 1.325-0.824 1.874l-0.345 0.998v0.197c-0.154 0.503-0.218 0.872-0.218 1.459 0.003 0.643 0.064 1.145 0.218 1.708v0.207l0.285 0.84c0.156 0.462 0.461 1.147 0.679 1.52s0.724 1.022 1.122 1.444 1.036 0.977 1.418 1.231c1.138 0.756 2.29 1.208 3.738 1.467 0.462 0.082 1.425 0.152 2.14 0.158s1.796-0.064 2.402-0.154c0.607-0.090 1.657-0.324 2.334-0.519s1.717-0.568 2.314-0.83l1.086-0.476 0.689 0.207c0.784 0.237 4.352 1.046 4.401 0.998 0.018-0.018-0.388-0.875-0.903-1.907l-0.935-1.877 0.83-0.998c0.458-0.549 1.097-1.395 1.418-1.881s0.808-1.359 1.086-1.943c0.278-0.584 0.602-1.415 0.722-1.848s0.267-1.203 0.325-1.713c0.073-0.64 0.071-1.209-0.007-1.838zM26.161 17.544c-0.195 0.404-0.557 1.042-0.804 1.418s-0.818 1.064-1.267 1.533c-0.449 0.468-0.814 0.882-0.814 0.916s0.378 0.639 0.84 1.346c0.462 0.707 0.84 1.324 0.84 1.372s-0.024 0.085-0.056 0.085c-0.031 0-0.734-0.26-1.559-0.578s-1.622-0.578-1.769-0.578-0.52 0.112-0.83 0.249c-1.025 0.452-2.936 1.017-3.965 1.172-0.557 0.084-1.389 0.148-1.851 0.141-1.668-0.024-2.922-0.313-4.359-1.004-0.841-0.405-1.139-0.622-1.9-1.385-0.688-0.69-0.995-1.093-1.287-1.694-0.21-0.433-0.454-1.070-0.542-1.415-0.226-0.887-0.204-2.365 0.049-3.374 0.115-0.457 0.447-1.313 0.738-1.904s0.809-1.445 1.152-1.9c0.343-0.455 1.050-1.232 1.569-1.726 1.009-0.96 2.231-1.824 3.423-2.419 1.032-0.515 2.403-0.981 3.656-1.244 0.804-0.169 1.436-0.225 2.54-0.223 1.151 0.002 1.647 0.052 2.288 0.223 0.45 0.12 1.136 0.367 1.523 0.551 0.499 0.237 0.938 0.567 1.503 1.132 0.613 0.612 0.897 1.005 1.234 1.69 0.241 0.491 0.509 1.223 0.594 1.628s0.153 1.097 0.154 1.539c0.003 1.392-0.385 2.96-1.103 4.447z"></path>
</svg>
