<?xml version="1.0" encoding="utf-8"?>
<!-- Generated by IcoMoon.io -->
<!DOCTYPE svg PUBLIC "-//W3C//DTD SVG 1.1//EN" "http://www.w3.org/Graphics/SVG/1.1/DTD/svg11.dtd">
<svg version="1.1" xmlns="http://www.w3.org/2000/svg" xmlns:xlink="http://www.w3.org/1999/xlink" width="34" height="32" viewBox="0 0 34 32">
<path fill="#444444" d="M10.871 28.625l-3.22-1.155v-4.72l3.22 1.097z"></path>
<path fill="#444444" d="M11.461 28.625l3.22-1.155v-4.72l-3.22 1.097z"></path>
<path fill="#444444" d="M7.981 22.396l3.259-0.917 3.022 0.974-3.022 1.026z"></path>
<path fill="#444444" d="M7.037 22.031l-3.22-1.155v-4.72l3.22 1.097z"></path>
<path fill="#444444" d="M7.628 22.031l3.22-1.155v-4.72l-3.22 1.097z"></path>
<path fill="#444444" d="M4.148 15.802l3.259-0.917 3.022 0.975-3.022 1.026z"></path>
<path fill="#444444" d="M14.551 22.031l-3.221-1.155v-4.72l3.221 1.097z"></path>
<path fill="#444444" d="M15.142 22.031l3.22-1.155v-4.72l-3.22 1.097z"></path>
<path fill="#444444" d="M11.662 15.802l3.259-0.917 3.022 0.975-3.022 1.026z"></path>
<path fill="#444444" d="M18.385 15.436l-3.22-1.155v-4.72l3.22 1.097z"></path>
<path fill="#444444" d="M18.976 15.436l3.22-1.155v-4.72l-3.22 1.097z"></path>
<path fill="#444444" d="M15.496 9.208l3.259-0.917 3.022 0.974-3.022 1.026z"></path>
<path fill="#444444" d="M25.899 15.436l-3.22-1.155v-4.72l3.22 1.097z"></path>
<path fill="#444444" d="M26.49 15.436l3.221-1.155v-4.72l-3.221 1.097z"></path>
<path fill="#444444" d="M23.010 9.208l3.259-0.917 3.022 0.974-3.022 1.026z"></path>
</svg>
