<?xml version="1.0" encoding="utf-8"?>
<!-- Generator: Adobe Illustrator 19.2.1, SVG Export Plug-In . SVG Version: 6.00 Build 0)  -->
<svg version="1.1" id="Layer_1" xmlns="http://www.w3.org/2000/svg" xmlns:xlink="http://www.w3.org/1999/xlink" x="0px" y="0px"
	 width="92px" height="92px" viewBox="0 0 92 92" enable-background="new 0 0 92 92" xml:space="preserve">
<path id="XMLID_548_" d="M92,45.6v17.7c0,2.4-1.5,4.4-4,4.4s-4-2-4-4.4V50.1l-68.3,0l10.2,10.1c1.7,1.7,1.6,4.5-0.2,6.3
	c-0.9,0.9-2.1,1.3-3.3,1.3c-1.1,0-2.3-0.4-3.2-1.3l-18-17.7C0.5,48,0,46.8,0,45.6c0-1.2,0.5-2.3,1.3-3.1l17.9-17.7
	c1.7-1.7,4.6-1.7,6.3,0c1.7,1.7,1.7,4.5-0.1,6.3L15.2,41.2l72.2,0c1.2,0,2.5,0.5,3.3,1.3C91.5,43.3,92,44.5,92,45.6z"/>
</svg>
