<?xml version="1.0" encoding="utf-8"?>
<!-- Generator: Adobe Illustrator 19.2.1, SVG Export Plug-In . SVG Version: 6.00 Build 0)  -->
<svg version="1.1" id="Layer_1" xmlns="http://www.w3.org/2000/svg" xmlns:xlink="http://www.w3.org/1999/xlink" x="0px" y="0px"
	 width="92px" height="92px" viewBox="0 0 92 92" enable-background="new 0 0 92 92" xml:space="preserve">
<path id="XMLID_2075_" d="M46,0C20.6,0,0,20.6,0,46s20.6,46,46,46s46-20.6,46-46S71.4,0,46,0z M75,70.5c-2.6-2.4-6.9-7.4-8.5-15.1
	c7.8-1.1,13.4-2.7,17.1-4C82.6,58.5,79.5,65.1,75,70.5z M8.4,51.3c3.7,1.3,9.3,2.9,17.1,4c-1.5,7.7-5.9,12.8-8.5,15.1
	C12.5,65.1,9.4,58.5,8.4,51.3z M14.7,24.4c3.2,3.4,10.1,12,11.1,22.9c-9.7-1.5-15.4-3.7-17.7-4.7C8.8,35.9,11.1,29.7,14.7,24.4z
	 M83.8,42.6c-2.3,1-7.9,3.3-17.7,4.7c1-10.8,8-19.5,11.1-22.9C80.9,29.7,83.2,35.9,83.8,42.6z M58.1,48.2c-2.5,0.2-5.2,0.3-8.1,0.4
	V8.2c8.5,0.9,16.1,4.6,22,10.1C68.3,22.2,58.7,33.5,58.1,48.2z M42,48.7c-2.9-0.1-5.6-0.2-8.1-0.4c-0.7-14.8-10.3-26-14-29.9
	c5.9-5.5,13.5-9.2,22-10.1V48.7z M33.4,56.2c2.7,0.2,5.5,0.4,8.6,0.4v27.1C34.8,83,28.2,80.2,22.7,76C26.3,72.6,31.7,66.1,33.4,56.2
	z M50,56.7c3-0.1,5.9-0.2,8.6-0.4c1.8,9.8,7.1,16.4,10.7,19.8c-5.4,4.2-12.1,7-19.3,7.8V56.7z"/>
</svg>
