<?xml version="1.0" encoding="utf-8"?>
<!-- Generator: Adobe Illustrator 19.2.1, SVG Export Plug-In . SVG Version: 6.00 Build 0)  -->
<svg version="1.1" id="Layer_1" xmlns="http://www.w3.org/2000/svg" xmlns:xlink="http://www.w3.org/1999/xlink" x="0px" y="0px"
	 width="92px" height="92px" viewBox="0 0 92 92" enable-background="new 0 0 92 92" xml:space="preserve">
<path id="XMLID_1989_" d="M88,29H77c0,0-0.1-0.3-0.1-0.4L58,5.5c-1.4-1.7-3.9-2-5.6-0.6s-2,4.1-0.6,5.8L66.7,29H25.3l14.9-18.3
	C41.6,9,41.4,6.4,39.6,5c-1.7-1.4-4.2-1.2-5.6,0.5L15.1,28.7c0,0.1-0.1,0.3-0.1,0.3H4c-2.2,0-4,1.4-4,3.6v15C0,49.8,1.8,52,4,52h1.3
	l7.5,30.4c0.8,3.5,3.9,5.6,7.5,5.6h51.4c3.6,0,6.6-2.2,7.5-5.6L86.7,52H88c2.2,0,4-2.2,4-4.4v-15C92,30.4,90.2,29,88,29z M8,37h76v7
	h-0.4H8.4H8V37z M71.5,80h-51l-7-28h65L71.5,80z"/>
</svg>
