<?xml version="1.0" encoding="utf-8"?>
<!-- Generator: Adobe Illustrator 19.2.1, SVG Export Plug-In . SVG Version: 6.00 Build 0)  -->
<svg version="1.1" id="Layer_1" xmlns="http://www.w3.org/2000/svg" xmlns:xlink="http://www.w3.org/1999/xlink" x="0px" y="0px"
	 width="92px" height="92px" viewBox="0 0 92 92" enable-background="new 0 0 92 92" xml:space="preserve">
<path d="M35,54V38c0-2.2,1.8-4,4-4h7c2.2,0,4,1.8,4,4v16c0,2.2-1.8,4-4,4h-7C36.8,58,35,56.2,35,54z M60,58h7c2.2,0,4-1.8,4-4V43.8
	c0-1-0.2-1.9-0.9-2.6l-5.3-6c-0.8-0.9-1.8-1.2-3-1.2H60c-2.2,0-4,1.5-4,3.8V54C56,56.2,57.8,58,60,58z M18,58h7c2.2,0,4-1.8,4-4V38
	c0-2.2-1.8-4-4-4h-7c-2.2,0-4,1.8-4,4v16C14,56.2,15.8,58,18,58z M92,38.6v14.8c0,2.2-1.8,3.6-4,3.6h-3v11c0,2.2-1.7,4-4,4H4
	c-2.2,0-4-1.8-4-4V24c0-2.2,1.8-4,4-4h77c2.2,0,4,1.8,4,4v11h3C90.2,35,92,36.4,92,38.6z M77,28H8v36h69V53.4V38.6V28z"/>
</svg>
