<?xml version="1.0" encoding="utf-8"?>
<!-- Generator: Adobe Illustrator 19.2.1, SVG Export Plug-In . SVG Version: 6.00 Build 0)  -->
<svg version="1.1" id="Layer_1" xmlns="http://www.w3.org/2000/svg" xmlns:xlink="http://www.w3.org/1999/xlink" x="0px" y="0px"
	 width="92px" height="92px" viewBox="0 0 92 92" enable-background="new 0 0 92 92" xml:space="preserve">
<path id="XMLID_1645_" d="M88,35h-3V24c0-2.2-1.7-4-4-4H4c-2.2,0-4,1.8-4,4v44c0,2.2,1.8,4,4,4h77c2.2,0,4-1.8,4-4V57h3
	c2.2,0,4-1.4,4-3.6V38.6C92,36.4,90.2,35,88,35z M77,64H8V28h69v10.6v14.8V64z M29,54c0,2.2-1.8,4-4,4h-7c-2.2,0-4-1.8-4-4V38
	c0-2.2,1.8-4,4-4h7c2.2,0,4,1.8,4,4V54z M50,54c0,2.2-1.8,4-4,4h-7c-2.2,0-4-1.8-4-4V38c0-2.2,1.8-4,4-4h7c2.2,0,4,1.8,4,4V54z"/>
</svg>
