<?xml version="1.0" encoding="utf-8"?>
<!-- Generator: Adobe Illustrator 19.2.1, SVG Export Plug-In . SVG Version: 6.00 Build 0)  -->
<svg version="1.1" id="Layer_1" xmlns="http://www.w3.org/2000/svg" xmlns:xlink="http://www.w3.org/1999/xlink" x="0px" y="0px"
	 width="92px" height="92px" viewBox="0 0 92 92" enable-background="new 0 0 92 92" xml:space="preserve">
<path id="XMLID_1404_" d="M84,71.5c-6.7,0-9.3-3.9-9.3-28.4c0-19.2-8.7-31.2-23.7-33V3.9c0-2.2-1.8-4-4-4s-4,1.8-4,4v6
	c-16,1.3-25.3,13.5-25.3,33.1c0,24.5-2.9,28.4-9.7,28.4C5.9,71.5,4,73,4,75.2C4,77.5,5.8,79,8,79h26c0.3,3,1.2,6.7,3.6,9.3
	c2.1,2.3,4.9,3.6,8.2,3.6c3.3,0,6.1-1.4,8.2-3.6c2.5-2.7,3.5-6.3,3.9-9.3H84c2.2,0,4-1.5,4-3.8C88,73,86.2,71.5,84,71.5z M48.2,82.9
	c-0.4,0.4-1,1-2.4,1c-1.3,0-1.9-0.6-2.3-1C42.8,82,42.3,81,42.1,79h3.4c0.2,0,0.4,0,0.6,0c0.2,0,0.4,0,0.6,0h3.3
	C49.6,81,49.1,82,48.2,82.9z M46.6,71c-0.2,0-0.4,0-0.6,0c-0.2,0-0.4,0-0.6,0H21.8c3.7-7,3.7-17.9,3.7-28.1
	c0-16.3,7.1-24.9,19.9-24.9h1.1c12.8,0,19.9,8.6,19.9,24.9c0,10.2,0,21.1,3.7,28.1H46.6z M60.8,35.5c0.1,1.9-1.4,3.6-3.3,3.7
	c-0.1,0-0.1,0-0.2,0c-1.8,0-3.4-1.4-3.5-3.3c-0.3-4.5-3.8-6.1-4.2-6.3c-1.8-0.8-2.6-2.8-1.9-4.6c0.7-1.8,2.7-2.6,4.5-1.9
	C52.6,23.3,60.3,26.5,60.8,35.5z"/>
</svg>
