<?xml version="1.0" encoding="utf-8"?>
<!-- Generated by IcoMoon.io -->
<!DOCTYPE svg PUBLIC "-//W3C//DTD SVG 1.1//EN" "http://www.w3.org/Graphics/SVG/1.1/DTD/svg11.dtd">
<svg version="1.1" xmlns="http://www.w3.org/2000/svg" xmlns:xlink="http://www.w3.org/1999/xlink" width="32" height="32" viewBox="0 0 32 32">
<path fill="#444444" d="M26.323 18.216c-0.172 0.003-0.298 0.088-0.162 0.29 0.438 0.651 0.061 1.254-0.139 1.851-0.097 0.289-0.342 0.219-0.452-0.014-0.27-0.57-0.582-1.146-0.279-1.806 0.055-0.119 0.076-0.25-0.054-0.279-0.404-0.091-0.854-0.166-1.211 0.017-0.283 0.145 0.126 0.394 0.115 0.63-0.010 0.2 0.070 0.404 0.104 0.607 0.135 0.817 0.384 1.533 1.442 1.55-0.286 0.388-0.497 0.727-0.998 0.494-0.163-0.076-0.341-0.001-0.43 0.171-0.137 0.265 0.076 0.364 0.247 0.478 0.168 0.099 0.353 0.032 0.529 0.051 0.51-0.042 0.854-0.33 1.121-0.742 0.235-0.362 0.404-0.753 0.572-1.149 0.273-0.643 0.275-1.346 0.488-1.999 0-0.038 0-0.075 0-0.113-0.298-0.014-0.596-0.043-0.893-0.037zM8.789 15.004c0.498 0.32 1.053 0.474 1.631 0.574 0.257 0.044 0.319-0.027 0.335-0.276 0.051-0.805 0.114-1.61 0.205-2.412 0.033-0.289-0.133-0.445-0.267-0.644-0.143-0.213-0.378-0.368-0.418-0.647 0.046-0.052 0.097-0.056 0.152-0.014 0.267 0.035 0.297 0.374 0.598 0.443 0.147-1.069 0.291-2.132 0.527-3.177 0.068-0.122 0.074-0.36 0.312-0.168-0.293 1.458-0.335 2.941-0.439 4.418-0.021 0.302 0.083 0.358 0.346 0.295 0.645-0.156 1.231-0.44 1.781-0.805 0.071 0.071 0.081 0.151 0.037 0.239-0.526 0.472-1.141 0.793-1.814 0.983-0.29 0.082-0.376 0.202-0.383 0.498-0.052 2.157-0.102 4.314 0.207 6.458 0.039 0.268-0.042 0.368-0.274 0.311-0.25-0.061-0.69 0.257-0.702-0.334-0.027-1.37-0.043-2.741 0.064-4.106 0.035-0.447-0.064-0.624-0.508-0.712-0.571-0.113-1.098-0.373-1.566-0.733-0.061-0.173 0.020-0.216 0.175-0.191zM8.048 8.167c0 1.413 0 1.413-1.399 1.413-1.437 0-1.437 0-1.437-1.44 0-0.132-0.001-0.263 0-0.394 0.005-0.813 0.183-0.993 0.988-0.995 0.319-0.001 0.638-0.002 0.958 0 0.706 0.005 0.884 0.188 0.89 0.909 0.001 0.169 0 0.338 0 0.507zM8.789 15.004c-0.058 0.064-0.117 0.127-0.175 0.191-0.692 0.26-1.409 0.134-2.111 0.098-0.362-0.018-0.489-0.37-0.494-0.717-0.007-0.431-0.003-0.863-0.002-1.294 0.001-0.483 0.271-0.731 0.726-0.757 0.467-0.027 0.939-0.029 1.406-0.002 0.439 0.026 0.68 0.286 0.676 0.738-0.004 0.581-0.017 1.162-0.026 1.743zM15.244 19.807c0.051 0.297-0.116 0.668 0.179 0.976 0.12 0.126 0.044 0.265-0.123 0.274-0.355 0.019-0.713 0.020-1.069 0.004-0.195-0.009-0.257-0.12-0.143-0.306 0.34-0.558 0.127-1.164 0.131-1.749 0.001-0.209-0.161-0.329-0.383-0.328-0.257 0-0.475 0.118-0.492 0.368-0.039 0.567-0.199 1.15 0.102 1.699 0.018 0.032 0.049 0.059 0.062 0.092 0.046 0.114-0.031 0.206-0.114 0.212-0.41 0.029-0.825 0.073-1.229-0.022-0.134-0.032-0.070-0.172-0.029-0.283 0.251-0.676 0.338-1.357-0.060-2.007-0.102-0.166-0.055-0.276 0.068-0.312 0.328-0.094 0.659-0.564 1.009-0.030 0.076 0.116 0.148 0.033 0.233-0.003 1.268-0.536 1.857-0.153 1.857 1.204 0 0.056 0 0.112 0 0.212zM13.589 12.829c-0.012-0.080-0.024-0.159-0.037-0.239 0.006-0.412 0.014-0.825 0.017-1.238 0.004-0.438 0.226-0.659 0.658-0.666 0.394-0.006 0.788-0.002 1.182 0.001 0.074 0.001 0.161-0.002 0.22 0.033 0.774 0.472 0.303 1.225 0.386 1.845 0.055 0.408-0.289 0.606-0.669 0.574-0.593-0.050-1.253 0.239-1.758-0.312zM9.81 10.489c-1.312-0.027-1.312-0.027-1.307-1.365 0.003-0.794 0.125-0.92 0.903-0.924 1.441-0.008 1.412-0.008 1.439 1.421 0.012 0.643-0.298 0.865-0.847 0.936-0.081 0.029-0.125-0.046-0.188-0.068zM16.042 19.787c0-0.244-0.007-0.488 0.002-0.732 0.007-0.2 0.008-0.373-0.264-0.388-0.122-0.007-0.202-0.098-0.194-0.231 0.008-0.136 0.106-0.194 0.225-0.21 0.397-0.053 0.509-0.346 0.557-0.675 0.037-0.252 0.161-0.373 0.412-0.347 0.264 0.028 0.261 0.234 0.251 0.423-0.018 0.338-0.029 0.65 0.464 0.591 0.11-0.013 0.228 0.050 0.239 0.187 0.013 0.161-0.108 0.275-0.234 0.262-0.566-0.059-0.45 0.334-0.454 0.65-0.003 0.244 0.008 0.488-0.003 0.732-0.014 0.315 0.031 0.569 0.432 0.564 0.14-0.002 0.276 0.036 0.28 0.206 0.005 0.195-0.139 0.243-0.304 0.25-0.038 0.001-0.075 0.003-0.113 0.002-1.466-0.013-1.283 0.172-1.297-1.284zM14.471 5.956c-0 1.008-0 1.008-1.107 1.008-0.951-0-0.953-0.003-0.953-1.11 0-0.954 0-0.954 1.105-0.953 0.944 0.001 0.954 0.013 0.954 1.055zM19.258 18.608c0.173-0.137 0.334-0.299 0.527-0.405s0.406-0.081 0.566 0.096c0.142 0.157 0.15 0.348 0.058 0.525-0.102 0.196-0.272 0.234-0.48 0.152-0.253-0.1-0.429 0.041-0.47 0.26-0.094 0.501-0.285 1.021 0.112 1.492 0.165 0.196 0.077 0.317-0.147 0.335-0.243 0.020-0.489 0.022-0.732 0.004-0.315-0.024-0.824 0.221-0.404-0.542 0.252-0.458 0.38-1.239-0.212-1.76-0.127-0.111-0.117-0.212-0.002-0.331 0.379-0.392 0.97-0.304 1.184 0.174zM17.112 8.667c0.935 0 0.958 0.024 0.958 0.994-0 0.933-0.077 1.007-1.032 1.006-0.87-0.001-0.977-0.113-0.977-1.019 0.001-0.925 0.062-0.982 1.050-0.982zM10.145 5.282c0.82 0 0.917 0.094 0.918 0.886 0.001 0.848-0.067 0.915-0.936 0.914-0.842-0.001-0.865-0.026-0.863-0.966 0.002-0.8 0.039-0.835 0.881-0.834zM8.14 11.027c-0 0.819-0.011 0.83-0.855 0.829-0.83-0-0.835-0.006-0.835-0.847 0-0.801 0.060-0.862 0.852-0.861 0.776 0 0.838 0.065 0.838 0.879zM11.865 8.683c-0.155-0.037-0.223 0.086-0.312 0.169-0.104-0.359-0.123-0.725-0.142-1.097-0.031-0.606 0.33-0.661 0.786-0.659 0.445 0.003 0.812 0.031 0.802 0.645-0.014 0.924 0.012 0.924-1.135 0.942zM15.967 7.803c-0.002 0.669-0.017 0.643-0.765 0.687-0.598 0.035-0.683-0.249-0.662-0.743 0.030-0.699 0.021-0.712 0.743-0.708 0.675 0.003 0.686 0.016 0.684 0.764zM5.906 11.769c0.088 0.465-0.149 0.58-0.569 0.591-0.484 0.013-0.597-0.203-0.598-0.647-0-0.449 0.166-0.573 0.597-0.582 0.49-0.009 0.65 0.185 0.569 0.638zM17.718 12.287c-0.389 0.064-0.544-0.090-0.542-0.491 0.002-0.378 0.114-0.538 0.515-0.54 0.405-0.001 0.582 0.127 0.576 0.548-0.005 0.397-0.169 0.551-0.55 0.483zM9.728 11.464c0.082 0.424-0.155 0.484-0.512 0.493-0.405 0.011-0.501-0.163-0.505-0.533-0.005-0.406 0.174-0.498 0.54-0.503 0.407-0.005 0.538 0.167 0.477 0.543zM14.272 9.898c-0.34 0.054-0.516-0.053-0.512-0.44 0.004-0.355 0.076-0.555 0.49-0.551 0.385 0.004 0.524 0.152 0.524 0.53 0 0.366-0.14 0.518-0.502 0.461zM15.803 5.593c0.038 0.335-0.086 0.497-0.438 0.488-0.275-0.007-0.477-0.028-0.464-0.386 0.011-0.29 0.027-0.524 0.408-0.523 0.301 0.002 0.534 0.050 0.495 0.42zM10.427 11.585c-0.051 0.005-0.101 0.009-0.152 0.014-0.152-0.146-0.182-0.347-0.24-0.535-0.031-0.097-0.006-0.149 0.105-0.131 0.096 0.217 0.191 0.435 0.287 0.652zM10.141 10.933c-0.035 0.044-0.070 0.087-0.105 0.131-0.14-0.166-0.183-0.371-0.226-0.575 0.063 0.023 0.126 0.046 0.188 0.068 0.048 0.125 0.095 0.251 0.143 0.376zM23.785 20.779c-0.326-0.297-0.192-0.659-0.228-0.967 0-1.195-0.298-1.59-1.238-1.655-0.338-0.023-0.675-0.007-1.005 0.089-0.203 0.059-0.402 0.117-0.479 0.343-0.042 0.126 0.029 0.233 0.125 0.287 0.222 0.125 0.436 0.077 0.62-0.093 0.177-0.163 0.374-0.259 0.614-0.173 0.193 0.069 0.326 0.219 0.311 0.424-0.018 0.24-0.231 0.121-0.357 0.136-0.393 0.049-0.784 0.101-1.123 0.329-0.584 0.393-0.554 1.199 0.063 1.521 0.41 0.214 0.827 0.206 1.241-0.015 0.093-0.050 0.154-0.237 0.318-0.072 0.28 0.282 0.64 0.1 0.963 0.127 0.175 0.015 0.329-0.142 0.174-0.282zM22.577 19.919c-0.067 0.334-0.134 0.689-0.569 0.719-0.296 0.020-0.389-0.209-0.366-0.454 0.038-0.409 0.329-0.561 0.698-0.602 0.274-0.031 0.236 0.163 0.237 0.337zM9.52 18.702c-0.092-0.038-0.182-0.079-0.322-0.139 0.133-0.086 0.233-0.126 0.298-0.198 0.171-0.188 0.394-0.366 0.477-0.591 0.208-0.562-0.167-1.089-0.832-1.204-0.285-0.049-0.58-0.044-0.871-0.047-0.645-0.006-1.291-0.007-1.936 0.005-0.109 0.002-0.216 0.082-0.325 0.127 0.053 0.090 0.113 0.176 0.159 0.269 0.056 0.116 0.141 0.238 0.142 0.358 0.011 1.020 0.010 2.040-0 3.061-0.001 0.113-0.073 0.228-0.126 0.335-0.050 0.102-0.117 0.194-0.176 0.291 0.12 0.045 0.24 0.126 0.361 0.128 0.801 0.011 1.603 0.014 2.405 0 0.226-0.004 0.458-0.046 0.674-0.113 0.545-0.169 0.877-0.598 0.897-1.115 0.020-0.521-0.278-0.942-0.824-1.167zM7.458 17.227c0.006-0.1 0.149-0.271 0.234-0.274 0.294-0.011 0.608-0.016 0.881 0.076 0.364 0.123 0.418 0.639 0.122 0.976-0.314 0.357-0.738 0.512-1.247 0.608 0-0.499-0.015-0.944 0.011-1.386zM8.844 20.416c-0.032 0.026-0.067 0.050-0.104 0.071-0.25 0.142-0.669 0.275-0.956 0.223-0.296-0.053-0.341-0.366-0.343-0.613-0.001-0.093-0-0.187-0-0.28-0-0.717-0-0.717 0.701-0.892 0.381-0.095 0.738 0.091 0.927 0.484 0.17 0.352 0.067 0.774-0.224 1.007z"></path>
</svg>
