<?xml version="1.0" encoding="utf-8"?>
<!-- Generator: Adobe Illustrator 19.2.1, SVG Export Plug-In . SVG Version: 6.00 Build 0)  -->
<svg version="1.1" id="Layer_1" xmlns="http://www.w3.org/2000/svg" xmlns:xlink="http://www.w3.org/1999/xlink" x="0px" y="0px"
	 width="92px" height="92px" viewBox="0 0 92 92" enable-background="new 0 0 92 92" xml:space="preserve">
<path id="XMLID_1960_" d="M76,2H16c-2.2,0-4,1.8-4,4v80c0,2.2,1.8,4,4,4h60c2.2,0,4-1.8,4-4V6C80,3.8,78.2,2,76,2z M72,82H20V10h52
	V82z M28.5,65c0-2.2,1.8-4,4-4h27c2.2,0,4,1.8,4,4s-1.8,4-4,4h-27C30.3,69,28.5,67.2,28.5,65z M29.1,46c0-2.2,1.8-4,4-4h26.3
	c2.2,0,4,1.8,4,4s-1.8,4-4,4H33.1C30.9,50,29.1,48.2,29.1,46z M29.1,27c0-2.2,1.8-4,4-4h26.3c2.2,0,4,1.8,4,4s-1.8,4-4,4H33.1
	C30.9,31,29.1,29.2,29.1,27z"/>
</svg>
