<?xml version="1.0" encoding="utf-8"?>
<!-- Generator: Adobe Illustrator 19.2.1, SVG Export Plug-In . SVG Version: 6.00 Build 0)  -->
<svg version="1.1" id="Layer_1" xmlns="http://www.w3.org/2000/svg" xmlns:xlink="http://www.w3.org/1999/xlink" x="0px" y="0px"
	 width="92px" height="92px" viewBox="0 0 92 92" enable-background="new 0 0 92 92" xml:space="preserve">
<path id="XMLID_2208_" d="M51.9,46l17.9-17.7c1.6-1.5,1.6-4.1,0-5.6l-21-21.4C47.7,0,46-0.3,44.5,0.3C43,0.9,42,2.4,42,4l0,32.1
	L27.8,22.1c-1.6-1.6-4.1-1.5-5.7,0c-1.6,1.6-1.5,4.1,0,5.7L40.6,46L22.2,64.3c-1.6,1.6-1.6,4.1,0,5.7c0.8,0.8,1.8,1.2,2.8,1.2
	c1,0,2-0.4,2.8-1.2L42,55.9L42,88c0,1.6,1,3.1,2.5,3.7c0.5,0.2,1,0.3,1.5,0.3c1.1,0,2.1-0.4,2.9-1.2l21-21.4c1.5-1.6,1.5-4.1,0-5.6
	L51.9,46z M50,13.8l11.3,11.6L50,36.6L50,13.8z M50,78.2l0-22.8l11.3,11.3L50,78.2z"/>
</svg>
