<?xml version="1.0" encoding="utf-8"?>
<!-- Generator: Adobe Illustrator 19.2.1, SVG Export Plug-In . SVG Version: 6.00 Build 0)  -->
<svg version="1.1" id="Layer_1" xmlns="http://www.w3.org/2000/svg" xmlns:xlink="http://www.w3.org/1999/xlink" x="0px" y="0px"
	 width="92px" height="92px" viewBox="0 0 92 92" enable-background="new 0 0 92 92" xml:space="preserve">
<path id="XMLID_2286_" d="M60.1,44.2c3.7-3.6,6-8.7,6-14.2c0-11-9-20-20-20H25c-2.2,0-4,1.8-4,4v32v32c0,2.2,1.8,4,4,4h26
	c11,0,20-9,20-20C71,54.3,66.6,47.6,60.1,44.2z M29,18h17.1c6.6,0,12,5.4,12,12s-5.4,12-12,12H29V18z M51,74H29V50h17.1H51
	c6.6,0,12,5.4,12,12S57.6,74,51,74z"/>
</svg>
