<?xml version="1.0" encoding="utf-8"?>
<!-- Generator: Adobe Illustrator 19.2.1, SVG Export Plug-In . SVG Version: 6.00 Build 0)  -->
<svg version="1.1" id="Layer_1" xmlns="http://www.w3.org/2000/svg" xmlns:xlink="http://www.w3.org/1999/xlink" x="0px" y="0px"
	 width="92px" height="92px" viewBox="0 0 92 92" enable-background="new 0 0 92 92" xml:space="preserve">
<path id="XMLID_1669_" d="M53,17H24c-2.2,0-4,1.5-4,3.7V88c0,1.6,1,3.1,2.5,3.7c0.5,0.2,1,0.3,1.5,0.3c1.1,0,2.1-0.4,2.9-1.2
	l11.3-11.9l11.9,12c1.1,1.1,2.9,1.5,4.4,0.9C56,91.1,57,89.6,57,88V20.7C57,18.5,55.2,17,53,17z M49,78.3l-8-8.1
	c-0.8-0.8-1.8-1.2-2.8-1.2c0,0,0,0,0,0c-1.1,0-2.1,0.5-2.9,1.3L28,78V25h21V78.3z M71,3v67.3c0,1.9-1.6,3.5-3.5,3.5S64,72.2,64,70.3
	V7H43v1.3c0,1.9-1.6,3.5-3.5,3.5S36,10.2,36,8.3V3c0-1.9,1.1-3,3-3h29C69.9,0,71,1.1,71,3z"/>
</svg>
