<?xml version="1.0" encoding="utf-8"?>
<!-- Generator: Adobe Illustrator 19.2.1, SVG Export Plug-In . SVG Version: 6.00 Build 0)  -->
<svg version="1.1" id="Layer_1" xmlns="http://www.w3.org/2000/svg" xmlns:xlink="http://www.w3.org/1999/xlink" x="0px" y="0px"
	 width="92px" height="92px" viewBox="0 0 92 92" enable-background="new 0 0 92 92" xml:space="preserve">
<path id="XMLID_1685_" d="M64,0H28c-2.2,0-4,1.8-4,4v84c0,1.6,1,3.1,2.5,3.7c0.5,0.2,1,0.3,1.5,0.3c1.1,0,2.1-0.4,2.9-1.3l14.7-15.6
	l15.5,15.6c1.1,1.1,2.9,1.5,4.4,0.9C67,91.1,68,89.6,68,88V4C68,1.8,66.2,0,64,0z M60,78.3L48.4,66.4c-0.8-0.8-1.8-1.4-2.8-1.4
	c0,0,0,0,0,0c-1.1,0-2.1,0.7-2.9,1.5L32,77.9V8h28V78.3z"/>
</svg>
