<?xml version="1.0" encoding="utf-8"?>
<!-- Generated by IcoMoon.io -->
<!DOCTYPE svg PUBLIC "-//W3C//DTD SVG 1.1//EN" "http://www.w3.org/Graphics/SVG/1.1/DTD/svg11.dtd">
<svg version="1.1" xmlns="http://www.w3.org/2000/svg" xmlns:xlink="http://www.w3.org/1999/xlink" width="32" height="32" viewBox="0 0 32 32">
<path fill="#444444" d="M8.171 4.999c-0.562 0.083-1.237 0.347-1.716 0.675-0.313 0.207-0.717 0.596-0.95 0.901-0.26 0.343-0.577 1.003-0.702 1.456l-0.106 0.377v15.727l0.106 0.377c0.124 0.453 0.441 1.113 0.702 1.456 0.49 0.641 1.245 1.181 2.003 1.426 0.626 0.2 0.313 0.192 8.486 0.192 8.177 0 7.864 0.008 8.486-0.196 0.762-0.245 1.516-0.781 2.003-1.422 0.26-0.347 0.581-1.007 0.705-1.456l0.102-0.377v-15.727l-0.106-0.377c-0.124-0.452-0.441-1.113-0.701-1.456-0.234-0.306-0.637-0.694-0.95-0.901-0.336-0.23-0.883-0.479-1.305-0.596l-0.37-0.102-7.732-0.004c-4.251-0.004-7.834 0.008-7.954 0.026zM18.709 9.159c1.192 0.196 2.006 0.588 2.538 1.222 0.226 0.268 0.49 0.8 0.6 1.196 0.068 0.26 0.079 0.407 0.083 1.056 0.004 0.683-0.004 0.784-0.083 1.052-0.23 0.8-0.732 1.414-1.543 1.89l-0.279 0.162 0.2 0.064c0.305 0.102 0.815 0.366 1.075 0.562 0.649 0.49 1.101 1.252 1.282 2.161 0.087 0.453 0.087 1.422-0.004 1.837-0.358 1.633-1.622 2.768-3.523 3.149-0.728 0.147-0.916 0.155-4.824 0.155h-3.82v-14.6l3.953 0.015c3.538 0.011 3.99 0.019 4.345 0.079zM13.655 13.277v1.72l1.822-0.015c1.709-0.019 1.837-0.023 2.112-0.098 0.86-0.234 1.233-0.728 1.233-1.633 0-0.694-0.245-1.143-0.777-1.407-0.471-0.234-0.981-0.283-2.983-0.287h-1.407v1.72zM13.655 19.176v2.003l1.991-0.015c2.237-0.015 2.312-0.023 2.863-0.29 0.634-0.309 0.916-0.815 0.916-1.641 0-1.063-0.422-1.652-1.395-1.946-0.275-0.087-0.328-0.087-2.327-0.102l-2.048-0.011v2.003z"></path>
</svg>
