<?xml version="1.0" encoding="utf-8"?>
<!-- Generated by IcoMoon.io -->
<!DOCTYPE svg PUBLIC "-//W3C//DTD SVG 1.1//EN" "http://www.w3.org/Graphics/SVG/1.1/DTD/svg11.dtd">
<svg version="1.1" xmlns="http://www.w3.org/2000/svg" xmlns:xlink="http://www.w3.org/1999/xlink" width="32" height="32" viewBox="0 0 32 32">
<path fill="#444444" d="M13.43 10.26c-0.652 0-1.182 0.529-1.182 1.181s0.529 1.182 1.182 1.182c0.653 0 1.181-0.529 1.181-1.182s-0.529-1.181-1.181-1.181zM13.43 11.346c-0.38 0-0.688-0.192-0.688-0.428s0.308-0.428 0.688-0.428c0.38 0 0.688 0.192 0.688 0.428s-0.308 0.428-0.688 0.428zM26.894 16.055c-1.165-1.12-6.992-1.819-8.83-2.022 0.089-0.21 0.165-0.428 0.228-0.652 0.251-0.11 0.521-0.212 0.801-0.297 0.034 0.101 0.195 0.486 0.286 0.669 3.697 0.102 3.887-2.747 4.037-3.528 0.147-0.763 0.14-1.501 1.408-2.849-1.889-0.551-4.606 0.853-5.516 2.943-0.342-0.128-0.685-0.223-1.024-0.281-0.243-0.98-1.508-3.71-4.827-3.71-2.15 0-4.318 0.888-5.948 2.436-0.878 0.834-1.568 1.824-2.051 2.944-0.521 1.209-0.785 2.54-0.785 3.957 0 4.934 3.368 9.257 5.271 9.257 0.831 0 1.546-0.622 1.714-1.18 0.141 0.383 0.572 1.572 0.714 1.874 0.21 0.448 1.179 0.835 1.603 0.37 0.545 0.303 1.546 0.485 2.091-0.323 1.050 0.222 1.979-0.404 1.999-1.152 0.515-0.027 0.768-0.751 0.656-1.327-0.083-0.424-0.969-1.947-1.315-2.472 0.684 0.557 2.418 0.714 2.628 0 1.103 0.866 2.823 0.412 2.959-0.293 1.341 0.348 2.878-0.417 2.626-1.343 2.154-0.149 1.878-2.44 1.274-3.021zM21.285 12.257c-0.567-0.223-1.287-0.364-1.791-0.364-0.715 0-1.151 0.405-1.824 0.405-0.141 0-0.478 0.001-0.749-0.096 0.178 0.187 0.399 0.288 0.828 0.288 0.256 0 0.764-0.131 1.175-0.254 0.006 0.087 0.015 0.172 0.027 0.258-0.77 0.184-1.578 0.674-1.812 0.801-0.52-1.149-0.073-2.235 0.34-2.736 1.852 0.004 3.348 1.276 3.805 1.698zM22.086 12.171l-0.283-0.265c-0.291-0.273-0.594-0.519-0.906-0.738 0.464-0.92 1.047-1.925 1.783-2.547-0.81 0.327-1.611 1.303-2.084 2.346-0.241-0.153-0.486-0.29-0.733-0.409 0.66-1.409 2.193-2.585 3.883-2.677-1.132 1.027-0.707 3.075-1.661 4.289zM19.761 13.131c-0.125-0.271-0.251-0.72-0.236-0.984 0.21-0.005 0.614 0.074 0.678 0.089-0.025 0.124-0.038 0.396-0.038 0.431 0.040-0.069 0.151-0.306 0.196-0.4 0.404 0.077 0.935 0.206 1.246 0.351-0.366 0.237-0.987 0.494-1.847 0.512zM17.238 9.955c-1.477 1.497-0.894 3.391-0.356 4.246-0.765 1.273-2.269 2.143-4.016 2.539 1.961 0 3.115-0.505 3.786-0.999 0.428-0.316 0.66-0.627 0.779-0.8 2.908 0.188 7.512 1.125 7.961 1.428 0.18 0.122 0.366 0.391 0.394 0.649-2.185-0.306-6.124-0.628-7.155-0.682 0.732 0.104 6.072 1.115 6.998 1.352-0.282 0.459-0.924 0.784-1.891 0.558 0.523 0.712-0.492 1.566-1.906 1.096 0.311 0.699-0.947 1.328-2.378 0.6 0.018 0.699-1.775 0.78-2.483 0.007 0.014 0.092 0.098 0.268 0.134 0.346-0.228 2.042-1.901 3.309-3.614 3.309-4.194 0-7.848-3.407-7.848-7.939 0-4.791 3.541-8.367 7.814-8.367 2.448-0 3.554 1.927 3.781 2.657z"></path>
</svg>
