<?xml version="1.0" encoding="utf-8"?>
<!-- Generator: Adobe Illustrator 19.2.1, SVG Export Plug-In . SVG Version: 6.00 Build 0)  -->
<svg version="1.1" id="Layer_1" xmlns="http://www.w3.org/2000/svg" xmlns:xlink="http://www.w3.org/1999/xlink" x="0px" y="0px"
	 width="92px" height="92px" viewBox="0 0 92 92" enable-background="new 0 0 92 92" xml:space="preserve">
<path d="M74.7,24H17.3c-2.2,0-4,1.8-4,4l-0.6,51c0,1.1,0.4,2.1,1.2,2.9s1.8,1.2,2.8,1.2h58.4c1.1,0,2.1-0.4,2.8-1.2
	c0.8-0.8,1.2-1.8,1.2-2.8l-0.4-51C78.7,25.8,76.9,24,74.7,24z M46,75H20.7l0.5-43h49.5l0.3,43H46z M58.8,43c0,2.2-1.8,4-4,4H37.2
	c-2.2,0-4-1.8-4-4s1.8-4,4-4h17.5C57,39,58.8,40.8,58.8,43z M88.8,26.9C88.5,27,88.2,27,88,27c-1.9,0-3.6-1.3-3.9-3.2L82.8,17H9.2
	l-1.3,6.8c-0.4,2.2-2.5,3.6-4.7,3.2c-2.2-0.4-3.6-2.5-3.2-4.7l1.9-10C2.4,10.4,4,9,5.9,9h80.1c1.9,0,3.6,1.4,3.9,3.2l1.9,10
	C92.3,24.4,90.9,26.5,88.8,26.9z"/>
</svg>
