<?xml version="1.0" encoding="utf-8"?>
<!-- Generator: Adobe Illustrator 19.2.1, SVG Export Plug-In . SVG Version: 6.00 Build 0)  -->
<svg version="1.1" id="Layer_1" xmlns="http://www.w3.org/2000/svg" xmlns:xlink="http://www.w3.org/1999/xlink" x="0px" y="0px"
	 width="92px" height="92px" viewBox="0 0 92 92" enable-background="new 0 0 92 92" xml:space="preserve">
<path id="XMLID_2102_" d="M90.8,22.9C90.1,22.2,89.1,22,88,22H67V10c0-2.2-2-4-4.2-4H29.2C27,6,25,7.8,25,10v12H4
	c-2.2,0-4,1.3-4,3.5V82c0,2.2,1.8,4,4,4h84c2.2,0,4-1.8,4-4l0-56.3C92,24.6,91.6,23.7,90.8,22.9z M33,14h26v8H33V14z M84,30l0,21H56
	v-1.5c0-1.7-1.6-2.5-3.3-2.5H39.3c-1.7,0-3.3,0.9-3.3,2.5V51H8V30H84z M50,53v2h-8v-2H50z M8,78V57h28v1c0,1.7,1.6,3,3.3,3h13.5
	c1.7,0,3.3-1.4,3.3-3v-1h28l0,21H8z"/>
</svg>
