<?xml version="1.0" encoding="utf-8"?>
<!-- Generator: Adobe Illustrator 19.2.1, SVG Export Plug-In . SVG Version: 6.00 Build 0)  -->
<svg version="1.1" id="Layer_1" xmlns="http://www.w3.org/2000/svg" xmlns:xlink="http://www.w3.org/1999/xlink" x="0px" y="0px"
	 width="92px" height="92px" viewBox="0 0 92 92" enable-background="new 0 0 92 92" xml:space="preserve">
<path id="XMLID_1831_" d="M46,28.7c-9.5,0-17.3,7.8-17.3,17.3c0,9.5,7.8,17.3,17.3,17.3S63.3,55.5,63.3,46
	C63.3,36.5,55.5,28.7,46,28.7z M46,55.3c-5.1,0-9.3-4.2-9.3-9.3c0-5.1,4.2-9.3,9.3-9.3s9.3,4.2,9.3,9.3C55.3,51.1,51.1,55.3,46,55.3
	z M42,18.6V15c0-2.2,1.8-4,4-4s4,1.8,4,4v3.6c0,2.2-1.8,4-4,4S42,20.8,42,18.6z M81,46c0,2.2-1.8,4-4,4h-3.6c-2.2,0-4-1.8-4-4
	s1.8-4,4-4H77C79.2,42,81,43.8,81,46z M50,73.4V77c0,2.2-1.8,4-4,4s-4-1.8-4-4v-3.6c0-2.2,1.8-4,4-4S50,71.2,50,73.4z M18.6,50H15
	c-2.2,0-4-1.8-4-4s1.8-4,4-4h3.6c2.2,0,4,1.8,4,4S20.8,50,18.6,50z M62.5,29.5c-1.6-1.6-1.6-4.1,0-5.7l2.5-2.5
	c1.6-1.6,4.1-1.6,5.7,0c1.6,1.6,1.6,4.1,0,5.7l-2.5,2.5c-0.8,0.8-1.8,1.2-2.8,1.2C64.4,30.6,63.3,30.2,62.5,29.5z M70.7,65.1
	c1.6,1.6,1.6,4.1,0,5.7c-0.8,0.8-1.8,1.2-2.8,1.2c-1,0-2-0.4-2.8-1.2l-2.5-2.5c-1.6-1.6-1.6-4.1,0-5.7c1.6-1.6,4.1-1.6,5.7,0
	L70.7,65.1z M29.5,62.5c1.6,1.6,1.6,4.1,0,5.7l-2.5,2.5c-0.8,0.8-1.8,1.2-2.8,1.2c-1,0-2-0.4-2.8-1.2c-1.6-1.6-1.6-4.1,0-5.7
	l2.5-2.5C25.4,61,27.9,61,29.5,62.5z M21.3,26.9c-1.6-1.6-1.6-4.1,0-5.7c1.6-1.6,4.1-1.6,5.7,0l2.5,2.5c1.6,1.6,1.6,4.1,0,5.7
	c-0.8,0.8-1.8,1.2-2.8,1.2c-1,0-2-0.4-2.8-1.2L21.3,26.9z"/>
</svg>
