<?xml version="1.0" encoding="utf-8"?>
<!-- Generator: Adobe Illustrator 19.2.1, SVG Export Plug-In . SVG Version: 6.00 Build 0)  -->
<svg version="1.1" id="Layer_1" xmlns="http://www.w3.org/2000/svg" xmlns:xlink="http://www.w3.org/1999/xlink" x="0px" y="0px"
	 width="92px" height="92px" viewBox="0 0 92 92" enable-background="new 0 0 92 92" xml:space="preserve">
<path id="XMLID_2215_" d="M91.5,34.3c-0.9-3-2.7-5.4-5.4-6.8c-3.4-1.8-7.4-1.6-10.2-1.1L70.1,5.9c-0.4-1.4-1.5-2.5-2.9-2.8
	c-1.4-0.3-2.9,0.1-3.9,1.2c-14.3,16-20.2,19.9-36,26.8l-12.4,3.6C4,37.8-2.3,49.4,0.8,60.3c1.5,5.3,5,9.8,9.9,12.5
	c3.1,1.7,6.5,2.6,9.9,2.6c1.6,0,3.3-0.2,4.9-0.6l1.3,4.7c0.7,2.5,2.1,4.7,3.9,6.5l2.1,2c0.8,0.7,1.8,1.1,2.8,1.1
	c1.1,0,2.1-0.4,2.9-1.2c1.5-1.6,1.5-4.1-0.2-5.7l-2.1-2c-0.8-0.8-1.4-1.8-1.7-2.9l-1.3-4.7l5.8-1.7c16.6-2.5,24.1-2.3,44.4,3.5
	c0.4,0.1,0.7,0.2,1.1,0.2c1,0,2.1-0.4,2.8-1.2c1-1,1.4-2.5,1-3.9l-5.9-20.5c2.6-1,6.1-2.8,8.1-6.1C92,40.3,92.4,37.4,91.5,34.3z
	 M14.6,65.8c-3-1.6-5.1-4.4-6.1-7.6c-1.9-6.8,2-13.8,8.6-15.8l9-2.6l4.1,14.5l2.8,10l-9,2.6C20.9,67.8,17.5,67.4,14.6,65.8z
	 M55.3,61.4c-4.5,0-9,0.4-14.3,1.1l-5.8-20.5l-1.4-5C46.4,31.2,53.2,26.7,64.4,15l14.2,49.9C69.1,62.4,62.3,61.4,55.3,61.4z
	 M83.7,38.7c-0.6,1.1-2.1,1.9-3.5,2.5l-2-7c1.5-0.2,3.2-0.2,4.3,0.4c0.5,0.3,1,0.7,1.4,1.8C84.2,37.6,83.9,38.2,83.7,38.7z
	 M58.3,32.1c1.1,1.6,0.8,3.8-0.8,4.9c-3.7,2.6-7.9,4.9-8.1,5c-0.5,0.3-1.1,0.4-1.6,0.4c-1.3,0-2.5-0.7-3.1-1.9
	c-0.9-1.7-0.2-3.8,1.5-4.7c0,0,4-2.1,7.2-4.4C55,30.1,57.2,30.5,58.3,32.1z"/>
</svg>
