<?xml version="1.0" encoding="utf-8"?>
<!-- Generator: Adobe Illustrator 19.2.1, SVG Export Plug-In . SVG Version: 6.00 Build 0)  -->
<svg version="1.1" id="Layer_1" xmlns="http://www.w3.org/2000/svg" xmlns:xlink="http://www.w3.org/1999/xlink" x="0px" y="0px"
	 width="92px" height="92px" viewBox="0 0 92 92" enable-background="new 0 0 92 92" xml:space="preserve">
<path id="XMLID_1315_" d="M88,9H4c-2.2,0-4,1.8-4,4v66c0,2.2,1.8,4,4,4h84c2.2,0,4-1.8,4-4V13C92,10.8,90.2,9,88,9z M84,26H56v-9h28
	V26z M24,26v-9h10v9H24z M40,17h10v9H40V17z M18,17v9H8v-9H18z M8,75V33h76v42H8z"/>
</svg>
