<?xml version="1.0" encoding="utf-8"?>
<!-- Generator: Adobe Illustrator 19.2.1, SVG Export Plug-In . SVG Version: 6.00 Build 0)  -->
<svg version="1.1" id="Layer_1" xmlns="http://www.w3.org/2000/svg" xmlns:xlink="http://www.w3.org/1999/xlink" x="0px" y="0px"
	 width="92px" height="92px" viewBox="0 0 92 92" enable-background="new 0 0 92 92" xml:space="preserve">
<path id="XMLID_2158_" d="M92,8.7c0-2.3-0.9-4.4-2.5-6l-0.2-0.2C86-0.8,80.7-0.8,77.4,2.4L28.6,47.7c-6.6-1.4-13.7,0.4-18.7,5.5
	C3,60,3.1,67.6,3.2,72.2c0,0.6,0,1.2,0,1.7c-0.1,3.7-2,8.2-2.8,9.7c-0.5,1-0.6,2.2-0.2,3.2c0.4,1.1,1.2,1.9,2.2,2.3
	c4.7,2,9.4,2.9,13.9,2.9c7.9,0,15.4-3,21.1-8.7c4.7-4.7,7.3-10.4,7.3-16.1c0-1.4-0.2-2.7-0.4-4l45.2-48.6C91.1,13,92,10.9,92,8.7z
	 M31.8,77.6c-5.9,5.9-14,7.8-22.5,5.4c0.9-2.5,1.8-5.8,1.9-9v0c0-0.6,0-1.3,0-2c-0.1-4.1-0.2-8.7,4.3-13.1c4.8-4.8,12.7-4.8,17.6,0
	c2.4,2.4,3.7,5.3,3.7,8.3C36.8,70.7,35,74.4,31.8,77.6z M83.9,9c0,0-0.1,0.1-0.1,0.1L40.7,55.4c-0.6-0.8-1.2-1.5-1.9-2.2
	c-0.7-0.7-1.5-1.3-2.2-1.9L82.9,8.2c0,0,0.1-0.1,0.1-0.1c0.2-0.2,0.5-0.2,0.7,0l0.2,0.2C84,8.5,84,8.6,84,8.7C84,8.8,84,8.9,83.9,9z
	"/>
</svg>
