<?xml version="1.0" encoding="utf-8"?>
<!-- Generator: Adobe Illustrator 19.2.1, SVG Export Plug-In . SVG Version: 6.00 Build 0)  -->
<svg version="1.1" id="Layer_1" xmlns="http://www.w3.org/2000/svg" xmlns:xlink="http://www.w3.org/1999/xlink" x="0px" y="0px"
	 width="92px" height="92px" viewBox="0 0 92 92" enable-background="new 0 0 92 92" xml:space="preserve">
<path id="XMLID_1160_" d="M46,27c-12.6,0-22.9,10.4-22.9,23.2c0,12.8,10.3,23.2,22.9,23.2s22.9-10.4,22.9-23.2
	C68.9,37.4,58.6,27,46,27z M46,65.5c-8.2,0-14.9-6.8-14.9-15.2S37.8,35,46,35s14.9,6.8,14.9,15.2S54.2,65.5,46,65.5z M57.1,51.2
	c-0.2,1.8-1.7,3-3.5,3c-0.2,0-0.3,0-0.5,0c-1.9-0.3-3.3-2-3-3.9c0.4-2.9-3-4.5-3.2-4.6c-1.7-0.8-2.5-2.9-1.7-4.6
	c0.8-1.7,2.8-2.5,4.6-1.8C53,40.7,58,44.7,57.1,51.2z M49.4,55.6c0.7,0.7,1.2,1.8,1.2,2.8c0,1-0.4,2.1-1.2,2.8
	c-0.8,0.7-1.8,1.2-2.8,1.2s-2.1-0.4-2.8-1.2c-0.7-0.8-1.2-1.8-1.2-2.8c0-1.1,0.4-2.1,1.2-2.8c0.8-0.8,1.8-1.2,2.8-1.2
	S48.7,54.8,49.4,55.6z M88,26H72.6l-4.3-16c-0.5-1.7-2.1-3-3.9-3H27.5c-1.8,0-3.4,1.3-3.9,3l-4.3,16H4c-2.2,0-4,1.7-4,3.9V81
	c0,2.2,1.8,4,4,4h84c2.2,0,4-1.8,4-4V29.9C92,27.7,90.2,26,88,26z M84,77H8V34h14.4c1.8,0,3.4-1.3,3.9-3l4.3-16h30.8l4.3,16
	c0.5,1.7,2.1,3,3.9,3H84V77z"/>
</svg>
