<?xml version="1.0" encoding="utf-8"?>
<!-- Generated by IcoMoon.io -->
<!DOCTYPE svg PUBLIC "-//W3C//DTD SVG 1.1//EN" "http://www.w3.org/Graphics/SVG/1.1/DTD/svg11.dtd">
<svg version="1.1" xmlns="http://www.w3.org/2000/svg" xmlns:xlink="http://www.w3.org/1999/xlink" width="32" height="32" viewBox="0 0 32 32">
<path fill="#444444" d="M15.125 7.937c-0.934 0.288-1.667 1.136-1.897 2.242-0.086 0.388-0.187 0.474-0.632 0.546-1.092 0.173-1.984 1.092-2.171 2.242-0.086 0.431-0.158 0.503-0.589 0.589-0.791 0.129-1.409 0.518-1.84 1.164-0.331 0.503-0.388 0.748-0.388 1.552s0.058 1.049 0.388 1.552c0.431 0.647 1.049 1.035 1.84 1.165 0.431 0.086 0.503 0.158 0.589 0.589 0.187 1.15 1.078 2.070 2.171 2.242 0.446 0.072 0.546 0.158 0.632 0.546 0.374 1.725 2.012 2.76 3.579 2.242 1.035-0.345 1.941-1.437 1.941-2.343 0-0.302 0.086-0.359 0.575-0.431 1.049-0.144 2.070-1.164 2.242-2.3 0.086-0.474 0.144-0.532 0.518-0.532 0.747 0 1.667-0.69 2.127-1.581 0.244-0.46 0.244-1.84 0-2.3-0.46-0.891-1.38-1.581-2.127-1.581-0.374 0-0.431-0.057-0.518-0.546-0.172-1.121-1.193-2.142-2.242-2.286-0.489-0.072-0.575-0.129-0.575-0.417-0-1.581-1.955-2.861-3.622-2.357zM17.152 9.174c0.489 0.417 0.819 1.279 0.675 1.825-0.259 1.049-1.437 1.711-2.458 1.366-1.437-0.474-1.653-2.63-0.331-3.364 0.589-0.331 1.624-0.244 2.113 0.172zM14.248 11.919c0.474 0.316 0.762 0.92 0.762 1.639 0 0.503-0.086 0.69-0.561 1.15-0.503 0.503-0.632 0.561-1.265 0.561-0.805 0-1.337-0.316-1.696-1.006-0.877-1.682 1.15-3.392 2.76-2.343zM19.524 11.732c0.704 0.287 1.092 0.877 1.092 1.624 0 1.179-0.69 1.912-1.797 1.912-1.121 0-1.797-0.704-1.797-1.84 0-0.819 0.359-1.38 1.064-1.696 0.575-0.244 0.848-0.244 1.437 0zM11.661 15.038c0.402 0.431 0.474 0.618 0.474 1.236s-0.072 0.805-0.474 1.236c-1.15 1.251-3.162 0.474-3.162-1.236 0-1.164 0.862-1.926 2.056-1.811 0.503 0.043 0.733 0.158 1.107 0.575zM17.037 14.736c0.316 0.216 0.561 0.546 0.704 0.934 0.187 0.532 0.187 0.676 0 1.207-0.69 1.969-3.594 1.495-3.594-0.589 0-0.762 0.259-1.207 0.92-1.61 0.604-0.374 1.366-0.345 1.969 0.057zM22.499 14.621c1.279 0.676 1.279 2.631 0 3.306-1.020 0.517-2.213 0.043-2.602-1.049-0.187-0.532-0.187-0.676 0-1.207 0.388-1.092 1.581-1.567 2.602-1.049zM14.449 17.841c0.475 0.46 0.561 0.647 0.561 1.15 0 1.509-1.279 2.372-2.63 1.768-1.84-0.819-1.236-3.479 0.805-3.479 0.633 0 0.762 0.058 1.265 0.561zM19.754 17.496c0.546 0.288 0.862 0.906 0.862 1.711 0 1.667-2.127 2.386-3.22 1.078-0.445-0.532-0.517-1.639-0.144-2.228 0.489-0.733 1.653-1.006 2.501-0.561zM17.022 20.414c0.992 0.733 1.092 1.984 0.216 2.86-0.402 0.402-0.575 0.474-1.164 0.474-0.834-0.014-1.265-0.23-1.653-0.805-1.092-1.653 0.992-3.694 2.602-2.53z"></path>
</svg>
