<?xml version="1.0" encoding="utf-8"?>
<!-- Generator: Adobe Illustrator 19.2.1, SVG Export Plug-In . SVG Version: 6.00 Build 0)  -->
<svg version="1.1" id="Layer_1" xmlns="http://www.w3.org/2000/svg" xmlns:xlink="http://www.w3.org/1999/xlink" x="0px" y="0px"
	 width="92px" height="92px" viewBox="0 0 92 92" enable-background="new 0 0 92 92" xml:space="preserve">
<path id="XMLID_1466_" d="M36.2,14c0-2.8,2.2-5,5-5H85c2.8,0,5,2.2,5,5s-2.2,5-5,5H41.2C38.5,19,36.2,16.8,36.2,14z M85,41H41.2
	c-2.8,0-5,2.2-5,5s2.2,5,5,5H85c2.8,0,5-2.2,5-5S87.8,41,85,41z M85,73H41.2c-2.8,0-5,2.2-5,5s2.2,5,5,5H85c2.8,0,5-2.2,5-5
	S87.8,73,85,73z M25,6.5C25,4.6,23.4,3,21.5,3h-15C4.6,3,3,4.6,3,6.5v15C3,23.4,4.6,25,6.5,25h15c1.9,0,3.5-1.6,3.5-3.5V6.5z
	 M25,53.5c0,1.9-1.6,3.5-3.5,3.5h-15C4.6,57,3,55.4,3,53.5v-15C3,36.6,4.6,35,6.5,35h15c1.9,0,3.5,1.6,3.5,3.5V53.5z M19,42h-9v8h9
	V42z M25,85.5c0,1.9-1.6,3.5-3.5,3.5h-15C4.6,89,3,87.4,3,85.5v-15C3,68.6,4.6,67,6.5,67h15c1.9,0,3.5,1.6,3.5,3.5V85.5z M19,74h-9
	v9h9V74z"/>
</svg>
