<?xml version="1.0" encoding="utf-8"?>
<!-- Generated by IcoMoon.io -->
<!DOCTYPE svg PUBLIC "-//W3C//DTD SVG 1.1//EN" "http://www.w3.org/Graphics/SVG/1.1/DTD/svg11.dtd">
<svg version="1.1" xmlns="http://www.w3.org/2000/svg" xmlns:xlink="http://www.w3.org/1999/xlink" width="32" height="32" viewBox="0 0 32 32">
<path fill="#444444" d="M4.009 16.403c-0.14 0-0.275 0.054-0.377 0.152s-0.161 0.23-0.166 0.371v1.209c0.010 0.137 0.072 0.266 0.172 0.359s0.233 0.146 0.37 0.146 0.27-0.052 0.37-0.146c0.101-0.094 0.162-0.222 0.173-0.359v-1.209c-0.005-0.141-0.065-0.274-0.166-0.371s-0.236-0.152-0.377-0.152zM7.015 14.902c-0.14 0-0.275 0.054-0.377 0.152s-0.161 0.23-0.166 0.371v2.71c0.010 0.137 0.072 0.265 0.173 0.359s0.233 0.146 0.37 0.146 0.27-0.052 0.37-0.146c0.101-0.094 0.162-0.222 0.173-0.359v-2.71c-0.006-0.14-0.065-0.273-0.166-0.371s-0.236-0.152-0.377-0.152zM10.005 12.841c-0.14 0-0.275 0.055-0.377 0.152s-0.161 0.23-0.166 0.371v5.861c0.010 0.137 0.072 0.266 0.172 0.359s0.233 0.146 0.37 0.146c0.137 0 0.27-0.052 0.37-0.146s0.162-0.222 0.173-0.359v-5.861c-0.006-0.141-0.065-0.273-0.166-0.371s-0.236-0.152-0.377-0.152zM13.010 14.902c-0.14 0-0.275 0.054-0.377 0.152s-0.161 0.23-0.166 0.371v2.71c0.010 0.137 0.072 0.265 0.173 0.359s0.233 0.146 0.37 0.146c0.137 0 0.27-0.052 0.37-0.146s0.162-0.222 0.172-0.359v-2.71c-0.006-0.14-0.065-0.273-0.166-0.371s-0.236-0.152-0.377-0.152zM16.003 16.403c-0.14 0-0.275 0.054-0.377 0.152s-0.161 0.23-0.166 0.371v1.209c0.010 0.137 0.072 0.266 0.173 0.359s0.233 0.146 0.37 0.146c0.137 0 0.27-0.052 0.37-0.146s0.162-0.222 0.173-0.359v-1.209c-0.006-0.141-0.065-0.274-0.166-0.371s-0.236-0.152-0.377-0.152zM19.006 14.902c-0.14 0-0.275 0.054-0.377 0.152s-0.161 0.23-0.166 0.371v2.71c0.010 0.137 0.072 0.265 0.173 0.359s0.233 0.146 0.37 0.146c0.137 0 0.27-0.052 0.37-0.146s0.162-0.222 0.172-0.359v-2.71c-0.006-0.14-0.065-0.273-0.166-0.371s-0.236-0.152-0.377-0.152zM21.996 12.841c-0.14 0-0.276 0.055-0.377 0.152s-0.161 0.23-0.166 0.371v5.861c0.010 0.137 0.072 0.266 0.173 0.359s0.233 0.146 0.37 0.146 0.27-0.052 0.37-0.146c0.101-0.093 0.163-0.222 0.172-0.359v-5.861c-0.006-0.141-0.065-0.273-0.166-0.371s-0.236-0.152-0.377-0.152zM24.997 14.902c-0.14 0-0.275 0.054-0.376 0.152s-0.161 0.23-0.166 0.371v2.71c0.010 0.137 0.072 0.265 0.173 0.359s0.233 0.146 0.37 0.146 0.27-0.052 0.37-0.146c0.101-0.094 0.163-0.222 0.173-0.359v-2.71c-0.006-0.14-0.065-0.273-0.167-0.371s-0.236-0.152-0.377-0.152zM28.367 16.554c-0.101-0.097-0.236-0.152-0.376-0.152s-0.275 0.054-0.376 0.152-0.161 0.23-0.166 0.371v1.209c0.010 0.137 0.072 0.265 0.172 0.359s0.233 0.146 0.37 0.146c0.137 0 0.27-0.052 0.37-0.146s0.162-0.222 0.173-0.359v-1.209c-0.006-0.141-0.065-0.273-0.167-0.371z"></path>
</svg>
