<?xml version="1.0" encoding="utf-8"?>
<!-- Generator: Adobe Illustrator 19.2.1, SVG Export Plug-In . SVG Version: 6.00 Build 0)  -->
<svg version="1.1" id="Layer_1" xmlns="http://www.w3.org/2000/svg" xmlns:xlink="http://www.w3.org/1999/xlink" x="0px" y="0px"
	 width="92px" height="92px" viewBox="0 0 92 92" enable-background="new 0 0 92 92" xml:space="preserve">
<path id="XMLID_1924_" d="M77,9h-8h-1h-5.9l-1.6-4.2c-1.1-2.9-3.9-4.8-7-4.8H39.3c-3.1,0-5.9,1.9-7,4.8L30.8,9H24h-1h-8
	c-2.2,0-4,2-4,4.2V88c0,2.2,1.8,4,4,4h62c2.2,0,4-1.8,4-4V13.2C81,11,79.2,9,77,9z M33.6,17c1.7,0,3.2-1,3.8-2.5L39.8,8h13.4
	l2.4,6.5c0.6,1.6,2.1,2.5,3.8,2.5h3.2l-2.9,5.7c-0.5,0.8-1.4,1.3-2.4,1.3H35.5c-0.9,0-1.8-0.4-2.3-1.2L29.9,17H33.6z M73,84H19V17
	h1.7l5.6,10c0,0.1,0.1,0,0.1,0.1c2,3.1,5.4,4.9,9.1,4.9h21.7c3.8,0,7.4-1.9,9.3-5.3c0-0.1,0.1-0.2,0.1-0.2l4.8-9.5H73V84z"/>
</svg>
