<?xml version="1.0" encoding="utf-8"?>
<!-- Generator: Adobe Illustrator 19.2.1, SVG Export Plug-In . SVG Version: 6.00 Build 0)  -->
<svg version="1.1" id="Layer_1" xmlns="http://www.w3.org/2000/svg" xmlns:xlink="http://www.w3.org/1999/xlink" x="0px" y="0px"
	 width="92px" height="92px" viewBox="0 0 92 92" enable-background="new 0 0 92 92" xml:space="preserve">
<path id="XMLID_275_" d="M86.9,41.8L73,55.8c-0.8,0.8-1.8,1.2-2.9,1.2s-2.1-0.4-2.9-1.2l-13.8-14c-1.5-1.6-1.5-4.1,0-5.7
	c1.6-1.5,4.1-1.5,5.7,0l7.7,7.8c-1-14.5-12.9-26-27.4-26C24.3,18,12,30.6,12,46s12.3,28,27.5,28c5.6,0,11-1.7,15.5-4.9
	c1.8-1.3,4.3-0.8,5.6,1c1.3,1.8,0.8,4.3-1,5.6C53.7,79.8,46.7,82,39.5,82C19.9,82,4,65.9,4,46s15.9-36,35.5-36
	c18.4,0,33.6,14.3,35.3,32.6l6.3-6.4c1.6-1.6,4.1-1.6,5.7,0C88.4,37.7,88.4,40.2,86.9,41.8z"/>
</svg>
