<?xml version="1.0" encoding="utf-8"?>
<!-- Generator: Adobe Illustrator 19.2.1, SVG Export Plug-In . SVG Version: 6.00 Build 0)  -->
<svg version="1.1" id="Layer_1" xmlns="http://www.w3.org/2000/svg" xmlns:xlink="http://www.w3.org/1999/xlink" x="0px" y="0px"
	 width="92px" height="92px" viewBox="0 0 92 92" enable-background="new 0 0 92 92" xml:space="preserve">
<path d="M46,0C20.6,0,0,20.6,0,46s20.6,46,46,46s46-20.6,46-46S71.4,0,46,0z M46,84C25,84,8,67,8,46S25,8,46,8s38,17,38,38
	S67,84,46,84z M61.3,55.6c1.6,1.6,1.6,4.1,0,5.7c-0.8,0.8-1.8,1.2-2.8,1.2s-2-0.4-2.8-1.2L43.2,48.8C42.4,48.1,42,47.1,42,46V22.2
	c0-2.2,1.8-4,4-4s4,1.8,4,4v22.2L61.3,55.6z"/>
</svg>
