<?xml version="1.0" encoding="utf-8"?>
<!-- Generator: Adobe Illustrator 19.2.1, SVG Export Plug-In . SVG Version: 6.00 Build 0)  -->
<svg version="1.1" id="Layer_1" xmlns="http://www.w3.org/2000/svg" xmlns:xlink="http://www.w3.org/1999/xlink" x="0px" y="0px"
	 width="92px" height="92px" viewBox="0 0 92 92" enable-background="new 0 0 92 92" xml:space="preserve">
<path id="XMLID_161_" d="M71.2,78c-20,0-52.9-0.1-53.5-0.1C9,77.9,1.6,71.3,0.2,62.2c-1.1-7.1,1.9-16.6,13.1-21.6
	c-2.6-11.1,3.7-20.5,12.1-24.4c5.3-2.5,11.1-2.8,16.5-1c4.7,1.6,8.9,4.8,12.1,9.3c5-2.8,10.9-3,15.8-0.3c4.2,2.4,8.1,7.4,7.7,15
	C88.2,42.5,92.5,51.8,92,59.8C91.3,68.6,84.6,78,71.2,78z M34.9,22c-2.2,0-4.4,0.5-6.2,1.4c-5.8,2.7-10.3,9.5-6.8,18.1
	c0.4,1,0.4,2.2-0.1,3.2c-0.5,1-1.4,1.8-2.4,2.1C7.5,50.5,7.8,58.6,8.1,61c0.7,4.4,4.2,8.9,9.6,8.9c0,0,0,0,0,0
	c0.3,0,33.4,0.1,53.5,0.1c8.3,0,12.4-5.4,12.8-10.8c0.4-5.5-3-11.7-11.6-12.9c-1.1-0.2-2.1-0.8-2.7-1.7c-0.6-0.9-0.8-2.1-0.6-3.2
	c1.1-4.8-0.1-8.5-3.2-10.3c-2.6-1.5-6.7-1.4-10.2,2c-0.9,0.9-2.2,1.3-3.4,1.1c-1.3-0.2-2.3-1-2.9-2.1C45.4,24.6,39.9,22,34.9,22z"/>
</svg>
