<?xml version="1.0" encoding="utf-8"?>
<!-- Generated by IcoMoon.io -->
<!DOCTYPE svg PUBLIC "-//W3C//DTD SVG 1.1//EN" "http://www.w3.org/Graphics/SVG/1.1/DTD/svg11.dtd">
<svg version="1.1" xmlns="http://www.w3.org/2000/svg" xmlns:xlink="http://www.w3.org/1999/xlink" width="32" height="32" viewBox="0 0 32 32">
<path fill="#444444" d="M27.382 17.297c-0.321-1.439-1.479-2.748-2.885-3.206-0.474-0.155-1.012-0.269-1.51-0.299-0.294-0.018-0.574-0.012-0.863 0.038-0.381 0.066-0.435 0.019-0.522-0.339-0.106-0.546-0.282-1.067-0.541-1.559-0.366-0.657-0.832-1.23-1.421-1.7-1.064-0.846-2.432-1.282-3.791-1.166-0.91 0.077-1.764 0.354-2.535 0.844-0.435 0.276-0.805 0.627-1.161 0.995-0.063 0.066-0.121 0.136-0.179 0.206-0.365 0.44-0.6 0.954-0.825 1.472-0.061 0.151-0.093 0.31-0.142 0.465-0.031 0.080-0.035 0.167-0.084 0.239-1.396-0.396-3.022-0.137-4.229 0.667-0.316 0.21-0.643 0.465-0.9 0.746-0.836 0.911-1.325 2.188-1.287 3.426 0.031 1.014 0.337 2.077 0.944 2.899 0.174 0.236 0.381 0.463 0.604 0.654 1.048 0.896 2.521 1.462 3.863 1.716 0.385 0.073 0.776 0.116 1.168 0.119 2.673 0.019 5.347 0.009 8.020 0.006 0.96-0.001 1.92 0.023 2.878-0.069 1.254-0.121 2.414-0.729 3.487-1.352 0.606-0.352 1.17-0.739 1.482-1.387 0.503-1.042 0.681-2.284 0.429-3.414zM18.454 18.676c-0.262 0.523-0.589 1.010-0.932 1.482-0.307 0.423-0.617 0.977-1.040 1.294-0.12 0.090-0.253 0.158-0.4 0.188-0.401 0.081-0.817-0.113-1.135-0.342-0.16-0.115-0.235-0.27-0.325-0.437-0.049-0.090-0.128-0.181-0.088-0.289 0.034-0.094 0.131-0.153 0.199-0.219 0.058-0.056 0.122-0.108 0.174-0.168 0.127-0.147 0.28-0.26 0.397-0.418 0.117-0.16 0.212-0.334 0.313-0.504 0.151-0.256 0.288-0.583 0.297-0.885 0.012-0.406-0.437-0.34-0.702-0.333-1.119 0.027-1.929-0.832-2.29-1.822-0.338-0.926-0.368-2.005-0.035-2.936 0.078-0.202 0.166-0.398 0.292-0.575 0.162-0.251 0.347-0.481 0.591-0.657 0.219-0.198 0.472-0.341 0.741-0.46 0.493-0.217 1.162-0.307 1.696-0.316 0.543-0.009 1.081 0.111 1.564 0.358 0.854 0.436 1.456 1.21 1.648 2.149 0.1 0.49 0.165 1.073 0.115 1.572-0.052 0.523-0.129 1.042-0.29 1.544zM5.184 20.301c0 0 0 0 0 0l0 0c0 0 0-0-0-0zM27.384 18.508c0.001-0.002 0.002-0.004 0.003-0.006 0 0.002 0 0.005 0 0.007-0.001-0-0.002-0-0.003-0.001zM16.954 15.15c-0.007-0.089-0.017-0.177-0.029-0.263-0.040-0.292-0.094-0.578-0.198-0.854-0.103-0.273-0.26-0.556-0.552-0.661-0.248-0.089-0.51 0.054-0.639 0.264-0.144 0.236-0.164 0.552-0.163 0.822 0.001 0.204 0.020 0.429 0.075 0.626 0.086 0.308 0.19 0.685 0.438 0.903 0.339 0.297 0.869 0.269 1.016-0.21 0.061-0.2 0.067-0.416 0.051-0.627z"></path>
</svg>
