<?xml version="1.0" encoding="utf-8"?>
<!-- Generator: Adobe Illustrator 19.2.1, SVG Export Plug-In . SVG Version: 6.00 Build 0)  -->
<svg version="1.1" id="Layer_1" xmlns="http://www.w3.org/2000/svg" xmlns:xlink="http://www.w3.org/1999/xlink" x="0px" y="0px"
	 width="92px" height="92px" viewBox="0 0 92 92" enable-background="new 0 0 92 92" xml:space="preserve">
<path id="XMLID_1601_" d="M91,44.4c-0.6,8.6-7.2,17.8-20.3,17.8c-6,0-9.1,0-9.1,0c-2.2,0-4-1.9-4-4.1c0-2.2,1.8-4.1,4-4.1
	c0,0,0,0,0,0c0,0,3.1,0.1,9.1,0.1c8,0,12-5.1,12.4-10.3c0.4-5.3-3-11.2-11.3-12.4c-1.1-0.2-2.1-0.8-2.7-1.7
	c-0.6-0.9-0.8-2.1-0.6-3.2c1.1-4.5-0.1-8.1-3-9.8c-2.5-1.4-6.5-1.4-9.9,1.9c-0.9,0.9-2.2,1.3-3.4,1.1c-1.2-0.2-2.3-1-2.9-2.1
	c-5.6-10.5-14.3-11.1-20-8.4c-5.5,2.6-9.9,9.1-6.5,17.3c0.4,1,0.4,2.2-0.1,3.2c-0.5,1-1.4,1.8-2.4,2.1C8.5,35.5,8.8,43.3,9.1,45.5
	c0.6,4.3,4,8.6,9.3,8.6l12.2,0c2.2,0,4,1.8,4,4c0,2.2-1.8,3.9-4,3.9c0,0,0,0,0,0l-12.2,0C9.8,62,2.5,55.6,1.2,46.7
	c-1-6.9,1.8-16.1,12.7-21C11.5,15,17.5,6,25.7,2.1c8.4-4,20.2-2.9,28.1,8c4.9-2.7,10.7-2.9,15.5-0.2c4.1,2.3,7.8,7.2,7.5,14.5
	C87.2,27.6,91.5,36.6,91,44.4z M59.7,68.6L50,78.4l-0.1-36.3c0-2.2-1.8-4.1-4-4.1c0,0,0,0,0,0c-2.2,0-4,1.9-4,4.1L42,78.3l-9.7-9.7
	c-1.6-1.6-4.1-1.6-5.7,0c-1.6,1.6-1.6,4.1,0,5.7l16.5,16.6c0.8,0.8,1.8,1.2,2.8,1.2s2.1-0.4,2.8-1.2l16.5-16.5
	c1.6-1.6,1.6-4.1,0-5.7C63.8,67.1,61.3,67.1,59.7,68.6z"/>
</svg>
