<?xml version="1.0" encoding="utf-8"?>
<!-- Generator: Adobe Illustrator 19.2.1, SVG Export Plug-In . SVG Version: 6.00 Build 0)  -->
<svg version="1.1" id="Layer_1" xmlns="http://www.w3.org/2000/svg" xmlns:xlink="http://www.w3.org/1999/xlink" x="0px" y="0px"
	 width="92px" height="92px" viewBox="0 0 92 92" enable-background="new 0 0 92 92" xml:space="preserve">
<path id="XMLID_31_" d="M59,75c-1.1,0-2.1-0.4-2.9-1.2c-1.5-1.6-1.5-4.1,0.1-5.7l23-22.1l-23-22.1c-1.6-1.5-1.6-4.1-0.1-5.7
	c1.5-1.6,4.1-1.6,5.7-0.1l26,25c0.8,0.8,1.2,1.8,1.2,2.9s-0.4,2.1-1.2,2.9l-26,25C61,74.6,60,75,59,75z M35.9,73.8
	c1.5-1.6,1.5-4.1-0.1-5.7L12.8,46l23-22.1c1.6-1.5,1.6-4.1,0.1-5.7c-1.5-1.6-4.1-1.6-5.7-0.1l-26,25C3.4,43.9,3,44.9,3,46
	s0.4,2.1,1.2,2.9l26,25C31,74.6,32,75,33,75C34,75,35.1,74.6,35.9,73.8z"/>
</svg>
