<?xml version="1.0" encoding="utf-8"?>
<!-- Generated by IcoMoon.io -->
<!DOCTYPE svg PUBLIC "-//W3C//DTD SVG 1.1//EN" "http://www.w3.org/Graphics/SVG/1.1/DTD/svg11.dtd">
<svg version="1.1" xmlns="http://www.w3.org/2000/svg" xmlns:xlink="http://www.w3.org/1999/xlink" width="27" height="32" viewBox="0 0 27 32">
<path fill="#444444" d="M13.96 30.326c0.557-0.261 0.962-0.629 0.962-0.899 0-0.108 1.429-1.537 1.618-1.618 0.027-0.009 0.216 0.045 0.396 0.117l0.342 0.144-0.638 0.404c-0.351 0.216-0.674 0.396-0.728 0.396zM16.71 28.789l0.611-0.306c1.232-0.62 4.557-1.762 5.816-2.005 0.557-0.099 0.431-0.189-0.153-0.108-0.306 0.036-0.611 0.099-0.683 0.117-0.252 0.099 0.198-0.315 0.737-0.683 0.297-0.189 0.467-0.351 0.387-0.351-0.431 0-4.324 1.555-5.061 2.031-0.279 0.18-0.297 0.171-0.297-0.216 0-0.324 0.027-0.342 0.611-0.665 0.512-0.279 3.658-1.69 3.766-1.69 0.018 0-0.072 0.189-0.207 0.422l-0.252 0.431 0.683-0.629c0.378-0.351 0.683-0.656 0.692-0.683 0-0.036-0.216-0.009-0.485 0.054s-0.512 0.090-0.53 0.054c-0.090-0.144 0.117-1.169 0.306-1.537 0.108-0.216 0.252-0.719 0.315-1.115 0.261-1.564 0.584-2.831 0.944-3.694 0.764-1.807 0.836-2.076 0.719-2.58-0.063-0.243-0.090-0.557-0.054-0.71 0.027-0.144 0.009-0.369-0.036-0.494-0.063-0.171-0.063-0.279 0.009-0.36 0.081-0.108 0.027-0.225-0.279-0.584-0.207-0.243-0.369-0.458-0.351-0.467 0.018-0.018 0.18-0.090 0.351-0.162l0.315-0.144 0.090-1.231c0.054-0.674 0.081-1.223 0.081-1.223-0.009 0-0.404 0.117-0.89 0.27-0.485 0.144-0.926 0.27-0.989 0.27-0.126 0-0.243-0.234-0.629-1.312-0.252-0.683-0.297-0.899-0.252-1.348 0.054-0.62-0.162-2.049-0.431-2.849-0.36-1.079-1.492-3.038-1.861-3.2-0.315-0.153-0.539-0.117-0.656 0.090-0.117 0.225-0.108 0.252 0.315 1.231l0.324 0.755-0.557-0.441c-1.249-0.971-2.454-1.627-3.137-1.708-0.432-0.054-0.449-0.045-0.548 0.225-0.063 0.153-0.18 0.297-0.27 0.315-0.117 0.036-0.162 0.135-0.162 0.386 0 0.315 0.072 0.405 0.926 1.222 0.503 0.476 0.881 0.872 0.845 0.881-0.036 0-0.387-0.207-0.764-0.467-0.566-0.378-0.764-0.467-1.088-0.476-0.755 0-0.737 0.521 0.036 1.070 0.27 0.198 0.809 0.674 1.187 1.070l0.701 0.719-0.629 0.108c-0.989 0.18-1.384 0.306-1.483 0.503-0.189 0.351-0.072 0.449 0.971 0.791 0.557 0.189 1.097 0.422 1.213 0.521 0.36 0.333 1.178 0.809 1.663 0.971 0.315 0.099 0.512 0.225 0.575 0.36 0.054 0.117 0.189 0.252 0.306 0.306 0.144 0.063 0.252 0.234 0.36 0.593 0.081 0.279 0.126 0.53 0.099 0.557-0.027 0.018-0.396 0.153-0.818 0.279l-0.773 0.243 0.656 1.168c0.602 1.088 0.665 1.169 0.899 1.142 0.297-0.027 0.297-0.027 0.045 0.396l-0.198 0.333 0.207 0.378c0.135 0.261 0.18 0.458 0.144 0.584-0.054 0.171-0.090 0.144-0.27-0.243-0.234-0.503-0.872-1.339-1.258-1.663-0.665-0.539-0.944-0.647-1.807-0.656l-0.809-0.018-0.422-0.405c-0.225-0.225-0.647-0.521-0.935-0.665-0.494-0.243-0.584-0.261-1.645-0.261h-1.124l-0.854 0.449c-1.097 0.566-2.229 1.681-2.939 2.876-0.261 0.44-0.476 0.755-0.476 0.71-0.009-0.045-0.045-0.252-0.081-0.458-0.072-0.368-0.072-0.377 0.198-0.405 0.261-0.027 0.279-0.054 0.467-0.836 0.108-0.449 0.225-0.899 0.261-0.998 0.054-0.18 0-0.207-0.755-0.396-0.611-0.153-0.809-0.234-0.809-0.351 0-0.279 0.261-1.106 0.386-1.258 0.072-0.081 0.153-0.225 0.171-0.324s0.207-0.279 0.44-0.405c0.629-0.342 0.665-0.386 1.321-1.654 0.476-0.926 0.737-1.321 1.249-1.87 0.36-0.386 0.656-0.737 0.656-0.773 0-0.153-0.369-0.557-0.503-0.557-0.27 0-0.072-0.162 1.151-0.944 1.609-1.016 1.654-1.061 1.501-1.178-0.099-0.081-0.647 0.225-2.328 1.276-1.213 0.764-2.229 1.384-2.256 1.384s-0.135-0.27-0.243-0.593l-0.189-0.584 0.62-0.584c0.656-0.62 0.8-0.863 0.629-1.070-0.081-0.099-0.243-0.054-0.926 0.279-0.458 0.225-1.16 0.503-1.573 0.638-0.692 0.216-0.755 0.216-0.908 0.081-0.378-0.342-0.62-0.135-1.555 1.312-0.189 0.288-0.369 0.521-0.404 0.521-0.045 0-0.27-0.351-0.512-0.791-0.243-0.431-0.521-0.872-0.62-0.989-0.243-0.261-0.476-0.252-0.548 0.018-0.090 0.36 0.315 2.005 0.962 3.991 0.207 0.62 0.216 0.656 0.063 0.737-0.144 0.072-0.153 0.126-0.063 0.36 0.072 0.198 0.144 0.252 0.261 0.216 0.135-0.036 0.216 0.063 0.422 0.53 0.261 0.575 0.261 0.584 0.117 1.106-0.081 0.297-0.144 0.539-0.153 0.548 0 0.009-0.225-0.036-0.494-0.108-0.818-0.216-0.764-0.279-0.881 1.052-0.063 0.656-0.108 1.258-0.108 1.339 0 0.108 0.117 0.171 0.413 0.216l0.413 0.054-0.063 0.539c-0.054 0.431-0.036 0.575 0.081 0.701 0.153 0.162 0.198 1.142 0.225 4.656l0.009 1.267 0.342 0.108c0.423 0.144 0.647 0.333 0.647 0.575 0 0.117 0.144 0.288 0.386 0.458 0.207 0.144 0.998 0.719 1.744 1.276 1.303 0.962 1.366 1.025 1.276 1.222-0.081 0.189-0.063 0.252 0.162 0.476 0.216 0.225 0.234 0.261 0.090 0.288-0.081 0.018-0.369-0.018-0.629-0.072-0.602-0.135-2.67-0.234-2.661-0.126 0 0.045 0.431 0.297 0.962 0.557s0.881 0.404 0.782 0.315c-0.108-0.090-0.351-0.297-0.539-0.458l-0.36-0.306 0.53 0.063c0.971 0.117 4.072 0.971 4.279 1.187 0.126 0.126 0.072 0.135-0.494 0.081-1.663-0.153-2.382-0.162-3.524-0.054-0.683 0.063-1.294 0.144-1.357 0.18-0.162 0.081 1.249 0.18 2.679 0.18 1.124 0 2.472 0.207 4.98 0.764l0.656 0.144-0.153 0.333c-0.243 0.494-0.647 1.897-0.584 1.995zM17.285 2.776c1.258 0.683 2.085 1.348 2.085 1.672-0.009 0.18 0.036 0.243 0.162 0.243 0.090 0 0.243 0.045 0.342 0.090 0.135 0.072 0.171 0.063 0.171-0.027 0-0.18-0.216-0.791-0.557-1.564-0.288-0.665-0.288-0.926 0-0.926 0.225 0 0.351 0.162 0.881 1.079 0.548 0.953 0.899 1.717 1.124 2.499 0.225 0.764 0.324 2.139 0.189 2.535-0.081 0.225-0.072 0.351 0.036 0.611 0.315 0.728 0.755 1.861 0.755 1.951s-1.807 0.674-2.058 0.674c-0.045 0-0.117-0.090-0.153-0.207-0.207-0.674-0.422-1.142-0.53-1.142-0.072 0-0.189-0.117-0.27-0.27-0.162-0.324-0.306-0.396-0.944-0.53-0.333-0.072-0.755-0.279-1.303-0.638-0.629-0.413-0.935-0.548-1.393-0.638-0.324-0.054-0.656-0.144-0.737-0.189-0.207-0.099-0.207-0.315 0.009-0.422 0.189-0.108 1.986-0.27 2.292-0.216 0.135 0.027 0.351-0.054 0.593-0.207 0.413-0.279 0.36-0.404-0.081-0.18-0.422 0.225-0.602 0.18-0.953-0.252-0.18-0.225-0.746-0.773-1.267-1.222-0.908-0.8-1.070-1.034-0.809-1.133 0.153-0.063 0.458 0.090 1.429 0.719 0.404 0.261 0.98 0.611 1.276 0.773 0.494 0.279 0.521 0.288 0.36 0.081-0.467-0.566-1.744-1.969-2.13-2.337-0.431-0.413-0.557-0.755-0.306-0.854 0.198-0.072 0.629 0.189 2.031 1.24 0.836 0.62 1.133 0.818 0.836 0.53-0.467-0.44-1.645-1.339-2.202-1.672-0.162-0.099-0.306-0.27-0.324-0.386-0.054-0.342 0.405-0.243 1.447 0.315zM9.079 4.196c0 0.162-0.18 0.369-0.719 0.818-0.396 0.333-0.719 0.611-0.719 0.62s0.090 0.009 0.189 0.009c0.153-0.009 0.234 0.081 0.36 0.44 0.225 0.647 0.216 0.836-0.063 0.908-0.189 0.045-0.297-0.009-0.584-0.288-0.396-0.386-0.44-0.665-0.144-0.881 0.171-0.117 0.144-0.117-0.144 0.009l-0.351 0.162-0.261-0.315c-0.144-0.171-0.252-0.369-0.234-0.44 0.009-0.063 0.36-0.27 0.782-0.449s0.944-0.431 1.169-0.566c0.53-0.306 0.719-0.315 0.719-0.027zM6.121 5.247c0.108 0.162 0.521 0.629 0.908 1.025 0.701 0.737 0.818 0.962 0.557 1.061-0.378 0.144-0.809-0.027-1.393-0.548-0.198-0.18-0.378-0.306-0.396-0.279-0.027 0.018-0.063 0.18-0.099 0.351-0.036 0.243-0.027 0.279 0.054 0.144 0.054-0.081 0.135-0.153 0.189-0.153 0.171 0 0.98 0.593 0.98 0.719 0 0.117-2.679 1.708-3.011 1.78-0.162 0.036-1.061-2.742-1.258-3.874-0.045-0.288-0.027-0.333 0.117-0.333 0.207 0 0.485 0.404 1.043 1.51 0.234 0.458 0.431 0.827 0.44 0.827 0.018 0 0.018-0.108 0-0.252-0.027-0.18 0.117-0.485 0.602-1.258 0.728-1.142 0.908-1.24 1.267-0.719zM10.589 6.524c0.027 0.207-0.054 0.342-0.368 0.674-0.431 0.449-1.178 1.519-1.501 2.166-0.252 0.503-0.755 1.043-1.187 1.267-0.27 0.135-0.333 0.234-0.386 0.521-0.036 0.198-0.117 0.405-0.18 0.458s-0.189 0.36-0.279 0.683-0.216 0.611-0.279 0.638c-0.063 0.027-0.566-0.063-1.115-0.198l-0.998-0.252 0.045-0.342c0.027-0.189 0.108-0.467 0.189-0.629 0.135-0.27 0.135-0.306-0.189-0.962-0.216-0.449-0.297-0.719-0.243-0.791 0.135-0.198 3.263-2.103 3.443-2.103 0.099 0 0.297-0.099 0.449-0.225 0.413-0.351 2.094-1.196 2.346-1.187 0.18 0.018 0.234 0.072 0.252 0.279zM24.396 11.719c-0.036 0.458-0.081 0.863-0.117 0.899-0.072 0.081-4.18 1.51-4.351 1.51-0.135 0-0.989-1.483-0.935-1.645 0.036-0.108 4.899-1.573 5.258-1.582 0.207-0.009 0.207 0 0.144 0.818zM5.645 13.023c1.267 0.324 2.346 0.629 2.391 0.665 0.072 0.063-0.162 1.106-0.297 1.33-0.045 0.072-0.71 0.009-2.445-0.225-1.303-0.18-2.4-0.351-2.427-0.377-0.036-0.036-0.018-0.494 0.036-1.034 0.081-0.845 0.117-0.962 0.261-0.962 0.099 0 1.213 0.27 2.481 0.602zM14.328 12.807c0.809 0.387 1.267 0.845 1.447 1.438 0.171 0.575 0.18 1.456 0.009 1.609-0.081 0.072-0.108 0.234-0.081 0.44 0.099 0.71-0.396 1.519-1.303 2.139-1.124 0.755-1.411 0.836-3.838 1.088-1.879 0.189-2.157 0.279-2.49 0.719-0.108 0.153-0.252 0.27-0.315 0.27-0.162 0-0.144-0.413 0.027-0.71 0.27-0.467 0.692-0.647 2.265-1.007 1.717-0.396 2.346-0.602 3.137-1.034 0.548-0.306 0.836-0.584 0.836-0.827 0-0.072-0.153-0.009-0.422 0.171-0.746 0.521-1.69 0.791-3.595 1.025-1.106 0.144-1.96 0.396-2.472 0.728-0.36 0.234-0.611 0.279-0.611 0.117 0-0.054 0.225-0.459 0.503-0.899 0.872-1.375 2.355-2.562 3.739-3.002 0.944-0.297 2.679-0.324 3.29-0.045 0.207 0.099 0.36 0.135 0.333 0.090-0.099-0.162-1.088-0.467-1.663-0.512-1.447-0.117-3.389 0.593-4.36 1.591-0.297 0.306-0.773 0.629-0.917 0.629-0.117 0 0.162-0.521 0.755-1.42 1.052-1.573 2.103-2.436 3.353-2.751 1.195-0.297 1.474-0.279 2.373 0.153zM23.901 13.427c0.315 0.324 0.369 0.431 0.324 0.647-0.027 0.144 0 0.315 0.054 0.378 0.063 0.072 0.081 0.252 0.036 0.449-0.063 0.351-0.009 0.342-0.818 0.171-0.171-0.036-0.081 0.045 0.279 0.243 0.512 0.279 0.539 0.315 0.566 0.674 0.027 0.368-0.216 1.052-0.827 2.364-0.126 0.27-0.234 0.602-0.234 0.737 0 0.126-0.045 0.252-0.090 0.27-0.135 0.045-0.333 0.854-0.494 1.968-0.090 0.647-0.216 1.151-0.404 1.564s-0.288 0.827-0.333 1.267c-0.045 0.566-0.081 0.674-0.288 0.827-0.369 0.27-3.209 1.474-3.389 1.438-0.108-0.018-0.252-0.225-0.387-0.566-0.306-0.764-0.332-1.195-0.117-1.627 0.099-0.189 0.234-0.53 0.297-0.746 0.063-0.207 0.171-0.404 0.234-0.431s0.198-0.18 0.306-0.351c0.099-0.171 0.234-0.306 0.297-0.306s0.153 0.279 0.216 0.719c0.063 0.387 0.171 0.845 0.243 1.007 0.126 0.297 0.126 0.288 0.135-0.378 0.018-0.926 0.108-1.384 0.279-1.42 0.117-0.018 0.153 0.072 0.189 0.449 0.027 0.261 0.108 0.62 0.18 0.791 0.126 0.297 0.135 0.279 0.090-0.593-0.018-0.503 0.009-1.178 0.072-1.546 0.126-0.782 0.234-0.818 0.845-0.279 0.225 0.198 0.413 0.333 0.413 0.297 0-0.189-0.611-0.98-0.953-1.223-0.575-0.413-0.521-0.521 0.261-0.521 0.351 0 0.791 0.036 0.962 0.090l0.315 0.081-0.36-0.315c-0.198-0.171-0.539-0.378-0.764-0.459l-0.404-0.144-0.207-0.863c-0.243-1.007-0.243-1.106-0.054-1.645 0.126-0.387 0.126-0.422-0.045-0.71-0.234-0.377-0.234-0.593-0.018-0.917 0.090-0.144 0.144-0.333 0.126-0.431-0.036-0.117 0.018-0.198 0.162-0.261 0.431-0.198 2.733-1.070 2.831-1.070 0.063-0.009 0.27 0.162 0.476 0.369zM17.42 14.003c0.404 0.117 0.611 0.252 0.98 0.62 0.252 0.261 0.539 0.629 0.647 0.836l0.18 0.36-0.198-0.045c-0.108-0.027-0.396-0.153-0.647-0.279-0.369-0.189-0.611-0.243-1.348-0.288l-0.899-0.045-0.027-0.575c-0.018-0.405 0.009-0.602 0.090-0.647 0.189-0.117 0.674-0.090 1.222 0.063zM5.483 15.036c0.764 0.108 1.438 0.243 1.492 0.297s0.189 0.584 0.297 1.169c0.162 0.944 0.171 1.097 0.054 1.222-0.279 0.306-1.213 2.589-1.213 2.957 0 0.072 0.171-0.144 0.386-0.485 0.207-0.351 0.458-0.638 0.548-0.656 0.153-0.036 0.162 0.009 0.117 0.369-0.099 0.674 0.135 1.699 0.467 2.121 0.162 0.207 0.306 0.369 0.315 0.369s0.009-0.126-0.018-0.27c-0.045-0.306 0.144-0.369 0.351-0.126 0.063 0.081 0.333 0.27 0.593 0.413 0.557 0.315 0.611 0.485 0.548 1.6l-0.045 0.701 0.27-0.324c0.144-0.18 0.315-0.404 0.378-0.503 0.090-0.126 0.18-0.153 0.36-0.108 0.261 0.063 1.124 0.827 1.124 0.989 0 0.054-0.081 0.252-0.171 0.422-0.144 0.261-0.171 0.441-0.126 0.818 0.045 0.44 0.027 0.512-0.189 0.728-0.126 0.126-0.234 0.279-0.234 0.333 0 0.045-0.072 0.090-0.153 0.090-0.279 0-2.004-0.494-2.004-0.566 0-0.045-0.063-0.216-0.144-0.387s-0.126-0.431-0.108-0.584c0.045-0.27 0-0.315-1.133-1.16-0.647-0.476-1.411-1.025-1.699-1.213-0.566-0.378-0.908-0.845-0.854-1.16 0.036-0.162 0.009-0.198-0.144-0.171-0.108 0.027-0.306-0.009-0.449-0.063l-0.261-0.099 0.063-0.647c0.135-1.51 0.144-2.076 0.054-3.506-0.063-1.007-0.144-1.582-0.225-1.708-0.171-0.27-0.018-1.052 0.207-1.052 0.081 0 0.782 0.090 1.546 0.189zM17.78 15.432c0.566 0.171 1.573 0.782 1.762 1.079 0.279 0.413 0.153 0.602-0.243 0.387-0.126-0.063-0.045 0.063 0.189 0.324 0.396 0.431 0.692 0.989 0.755 1.402 0.018 0.189-0.009 0.234-0.234 0.252-0.153 0.018-0.611-0.081-1.025-0.216-0.656-0.207-1.187-0.512-1.969-1.142-0.063-0.045-0.117-0.063-0.117-0.036 0 0.036 0.306 0.315 0.674 0.638 0.584 0.494 0.764 0.593 1.285 0.719 0.467 0.108 1.825 0.324 2.049 0.324 0.018 0 0.036 0.054 0.036 0.117 0 0.162-2.4 0.288-2.894 0.153-0.899-0.252-1.825-0.818-2.157-1.33-0.108-0.162-0.162-0.413-0.162-0.737 0-0.548 0.099-0.773 0.297-0.692 0.108 0.036 0.117-0.027 0.081-0.342-0.018-0.216-0.009-0.539 0.018-0.71l0.063-0.324h0.566c0.306 0 0.773 0.063 1.025 0.135zM16.018 18.533c0.467 0.665 2.364 1.888 2.948 1.888 0.135 0 0.315 0.081 0.404 0.189 0.144 0.153 0.153 0.225 0.063 0.467-0.099 0.27-0.090 0.279 0.036 0.108 0.072-0.099 0.162-0.288 0.189-0.431 0.036-0.18 0.099-0.243 0.261-0.243 0.261 0 0.279 0.207 0.081 0.701-0.207 0.476-0.485 0.737-0.782 0.737-0.198 0-0.297 0.063-0.413 0.279-0.279 0.512-0.683 0.917-1.142 1.133-0.441 0.198-0.441 0.207-0.108 0.153 0.387-0.063 0.396-0.036 0.162 0.602-0.557 1.456-1.681 2.184-3.515 2.292-0.728 0.045-0.782 0.036-1.223-0.225-0.342-0.198-0.539-0.395-0.737-0.746-0.279-0.494-1.339-1.564-1.978-1.977-0.207-0.135-0.449-0.404-0.557-0.602-0.144-0.288-0.243-0.369-0.494-0.422-0.36-0.063-0.638-0.378-0.935-1.025-0.297-0.656-0.261-0.854 0.243-1.169 0.611-0.387 1.151-0.521 2.481-0.629 1.258-0.099 2.013-0.252 2.544-0.521 0.189-0.099 0.458-0.198 0.602-0.234 0.243-0.063 0.252-0.054 0.144 0.099-0.063 0.090-0.225 0.252-0.351 0.36l-0.225 0.198 0.342-0.081c0.449-0.099 1.016-0.503 1.294-0.917 0.117-0.189 0.27-0.342 0.324-0.342 0.054 0.009 0.207 0.171 0.342 0.36zM12.081 25.508c0.144 0.234 0.467 0.548 0.746 0.737 0.539 0.36 0.521 0.413-0.216 0.512-0.818 0.108-0.557 0.243 0.333 0.171 0.575-0.045 0.809-0.027 0.809 0.045 0 0.054-0.045 0.099-0.099 0.099-0.198 0-1.582 0.719-1.798 0.935-0.342 0.332-0.62 0.234-0.62-0.225 0-0.189-0.045-0.441-0.099-0.566-0.090-0.189-0.072-0.27 0.108-0.521 0.144-0.198 0.216-0.431 0.225-0.701 0.009-0.413 0.162-0.899 0.279-0.899 0.045 0 0.189 0.189 0.333 0.413zM17.708 25.931c0.162 0.413 0.18 0.539 0.090 0.647-0.072 0.090-0.090 0.27-0.054 0.521 0.054 0.351 0.036 0.404-0.171 0.512-0.198 0.108-0.27 0.099-0.611-0.063-0.207-0.099-0.647-0.279-0.98-0.387-0.62-0.198-0.791-0.36-0.395-0.36 0.117 0 0.548 0.099 0.962 0.216 0.413 0.126 0.773 0.207 0.791 0.189 0.18-0.18-0.665-0.584-1.223-0.584-0.306 0-0.252-0.153 0.108-0.27 0.18-0.063 0.494-0.306 0.737-0.584 0.234-0.261 0.458-0.449 0.485-0.413 0.027 0.027 0.144 0.288 0.261 0.575zM15.587 27.387c0.279 0.126 0.503 0.243 0.503 0.261s-0.288 0.27-0.629 0.548l-0.638 0.521-0.782-0.369c-0.431-0.207-0.899-0.396-1.043-0.431-0.216-0.054-0.234-0.072-0.108-0.144 0.342-0.189 1.213-0.467 1.672-0.521 0.27-0.036 0.503-0.072 0.503-0.081 0.009 0 0.243 0.090 0.521 0.216zM13.609 20.214l-0.27 0.333-0.944-0.108c-1.348-0.153-1.636-0.144-1.843 0.081l-0.171 0.198 0.315-0.054c0.53-0.081 2.355 0.189 2.553 0.378 0.234 0.234 0.315 1.294 0.117 1.519-0.135 0.144-0.117 0.18 0.261 0.485 0.225 0.18 0.458 0.315 0.53 0.288 0.144-0.054 0.881-1.025 0.782-1.025-0.036 0-0.234 0.162-0.422 0.36s-0.396 0.36-0.458 0.36c-0.234 0-0.351-0.306-0.351-0.89 0-0.395-0.054-0.701-0.162-0.926-0.171-0.333-0.171-0.333 0.054-0.629 0.198-0.261 0.396-0.701 0.315-0.701-0.018 0-0.153 0.153-0.306 0.333zM14.148 20.268c0.045 0.369 0.252 0.602 0.665 0.773 0.135 0.054 0.297 0.216 0.36 0.36 0.081 0.189 0.207 0.279 0.539 0.36 0.827 0.216 0.98 0.225 1.151 0.018 0.090-0.108 0.216-0.189 0.27-0.189 0.063 0 0.135-0.063 0.162-0.144 0.054-0.126 0.027-0.126-0.189 0.018-0.369 0.243-1.519 0.243-1.699 0-0.207-0.279-0.153-0.342 0.243-0.288 0.342 0.045 1.286-0.144 1.447-0.297 0.036-0.027-0.27-0.036-0.674-0.027-0.404 0.018-1.016-0.009-1.348-0.072-0.602-0.108-0.62-0.117-0.791-0.485l-0.171-0.369 0.036 0.342zM10.404 21.309c0.401-0.312 0.924-0.144 1.373-0.078 0.351-0.064 0.704-0.13 1.066-0.091 0.050 0.031 0.152 0.090 0.202 0.12-0.24 0.025-0.479 0.062-0.719 0.088-0.262 0.119-0.507 0.301-0.813 0.253-0.112-0.070-0.222-0.144-0.323-0.228-0.257-0.070-0.524-0.041-0.787-0.064zM14.621 23.479c0.302 0.009 0.613 0.002 0.87-0.179 0.026 0.097 0.071 0.185 0.133 0.264-0.084 0.018-0.167 0.037-0.25 0.056-0.47-0.182-0.884 0.236-1.344 0.262-0.154-0.015-0.271-0.115-0.377-0.217-0.183-0.008-0.375-0.030-0.54 0.067-0.249 0.133-0.532 0.114-0.805 0.103 0.090-0.089 0.18-0.179 0.271-0.268 0.154-0.002 0.307-0.005 0.462-0.009 0.056-0.059 0.112-0.119 0.169-0.177 0.276-0.036 0.554 0.055 0.731 0.275 0.251 0.047 0.454-0.109 0.68-0.177zM13.864 24.202c0.205-0.005 0.405-0.049 0.603-0.095 0.273 0.030 0.536 0.16 0.741 0.343-0.177-0.037-0.354-0.070-0.534-0.088-0.467-0.208-0.905 0.161-1.325 0.326-0.129 0.238-0.239 0.491-0.242 0.768-0.057-0.062-0.113-0.122-0.17-0.183-0.015-0.31 0.037-0.675 0.322-0.856 0.193-0.093 0.403-0.147 0.605-0.217z"></path>
</svg>
