<?xml version="1.0" encoding="utf-8"?>
<!-- Generator: Adobe Illustrator 19.2.1, SVG Export Plug-In . SVG Version: 6.00 Build 0)  -->
<svg version="1.1" id="Layer_1" xmlns="http://www.w3.org/2000/svg" xmlns:xlink="http://www.w3.org/1999/xlink" x="0px" y="0px"
	 width="92px" height="92px" viewBox="0 0 92 92" enable-background="new 0 0 92 92" xml:space="preserve">
<path id="XMLID_1149_" d="M40.5,51.3c0.7,0.8,1.2,1.9,1.2,2.9l0,20.9c0,2.2-1.8,3.8-4,3.8h0.1c-2.2,0-3.8-1.5-3.8-3.7V64L9,88.8
	C8.2,89.6,7,90,6,90s-2-0.4-2.8-1.2c-1.6-1.6-1.6-4.2,0-5.7L28,58H16.7c-2.2,0-4-1.8-4-4c0-2.2,1.8-4,4-4h21
	C38.8,50,39.8,50.5,40.5,51.3z M88.8,3.2c-1.6-1.6-4-1.6-5.6,0L58,28.5V17.1c0-2.2-1.8-4.1-4.1-4.1h0c-2.2,0-4,1.8-4,4l0,21
	c0,1.1,0.4,2,1.2,2.8c0.8,0.8,1.8,1.1,2.8,1.1h21c2.2,0,4-1.8,4-4c0-2.2-1.8-4-4-4H63.5L88.8,8.8C90.4,7.2,90.4,4.7,88.8,3.2z"/>
</svg>
