<?xml version="1.0" encoding="utf-8"?>
<!-- Generator: Adobe Illustrator 19.2.1, SVG Export Plug-In . SVG Version: 6.00 Build 0)  -->
<svg version="1.1" id="Layer_1" xmlns="http://www.w3.org/2000/svg" xmlns:xlink="http://www.w3.org/1999/xlink" x="0px" y="0px"
	 width="92px" height="92px" viewBox="0 0 92 92" enable-background="new 0 0 92 92" xml:space="preserve">
<path id="XMLID_1129_" d="M88.4,83.2c1.6,1.6,1.6,4.1,0,5.7c-0.8,0.8-1.8,1.2-2.8,1.2c-1,0-2.1-0.4-2.9-1.2L61,67.2v10.3
	c0,2.2-1.8,4-4,4c-2.2,0-4-1.8-4-4v-20c0-1.1,0.5-2.1,1.2-2.8c0.8-0.7,1.8-1.2,2.9-1.2h0l20,0c2.2,0,4,1.8,4,4s-1.8,4-4,4
	c0,0,0,0,0,0l-10.3,0L88.4,83.2z M56.9,39h20c2.2,0,4-1.8,4-4c0-2.2-1.8-4-4-4H66.6L88.8,8.8c1.6-1.6,1.6-4.1,0-5.6
	c-1.6-1.6-4.1-1.5-5.6,0L61,25.4V15.1c0-2.2-1.8-4.1-4-4.1h0c-2.2,0-4,1.8-4,4l0,20c0,1.1,0.4,2,1.2,2.8C54.9,38.6,55.9,39,56.9,39z
	 M34.9,11.3c-2.2,0-3.9,1.8-3.9,4v10.3L8.9,3.5C7.3,2,4.8,2,3.2,3.5c-1.6,1.6-1.6,4,0,5.5l22,21.9H15v0.1c-2,0-4.1,1.9-4.1,4.1
	c0,2.2,1.8,4,4,4l20,0v0c1,0,2-0.4,2.8-1.2c0.8-0.8,1.1-1.8,1.1-2.8l0-20C38.9,13.1,37.1,11.3,34.9,11.3z M34.7,53h-20
	c-2.2,0-4,1.8-4,4c0,2.2,1.8,4,4,4H25L3.2,83c-1.6,1.6-1.6,4.2,0,5.7C4,89.5,5,89.9,6.1,89.9c1,0,2.2-0.4,3-1.2L31,67v10.3
	c0,2.2,1.6,3.7,3.8,3.7h-0.1c2.2,0,4-1.6,4-3.8l0-19.9c0-1.1-0.4-2.2-1.2-3C36.8,53.5,35.8,53,34.7,53z"/>
</svg>
