<?xml version="1.0" encoding="utf-8"?>
<!-- Generator: Adobe Illustrator 19.2.1, SVG Export Plug-In . SVG Version: 6.00 Build 0)  -->
<svg version="1.1" id="Layer_1" xmlns="http://www.w3.org/2000/svg" xmlns:xlink="http://www.w3.org/1999/xlink" x="0px" y="0px"
	 width="92px" height="92px" viewBox="0 0 92 92" enable-background="new 0 0 92 92" xml:space="preserve">
<path id="XMLID_1525_" d="M46,21.9c-0.7-0.7-1.6-0.9-2.5-0.9H13.6c-2,0-4.6,1.2-4.6,3.1v63.3c0,2,2.6,4.5,4.6,4.5H61
	c2,0,3-2.6,3-4.5V41.8c0-0.9-0.1-1.7-0.8-2.4L46,21.9z M55.9,42H43V29.1L55.9,42z M17,84V28h19v17.2c0,2,1.8,3.8,3.8,3.8H57v35H17z
	 M82.4,18L65,0.6C64.4,0.1,63.8,0,63,0H33.1C31.4,0,30,0.9,30,2.5v9.6c0,1.7,1.3,3,3,3c1.7,0,3-1.4,3-3V6h21v16.9
	c0,1.7,1.4,3.1,3.1,3.1H77v37h-4.1c-1.7,0-3,1.3-3,3s1.4,3,3,3h7.6c1.7,0,2.5-1.5,2.5-3.2V20.2C83,19.4,82.9,18.6,82.4,18z M63,7
	l12.9,13H63V7z"/>
</svg>
