<?xml version="1.0" encoding="utf-8"?>
<!-- Generator: Adobe Illustrator 19.2.1, SVG Export Plug-In . SVG Version: 6.00 Build 0)  -->
<svg version="1.1" id="Layer_1" xmlns="http://www.w3.org/2000/svg" xmlns:xlink="http://www.w3.org/1999/xlink" x="0px" y="0px"
	 width="92px" height="92px" viewBox="0 0 92 92" enable-background="new 0 0 92 92" xml:space="preserve">
<path id="XMLID_1653_" d="M88.8,9.8c1.6-1.5,1.6-4.1,0-5.7c-1.5-1.6-4.1-1.5-5.7,0L71.2,16H21V8.7c0-2.2-1.8-4-4-4s-4,1.8-4,4V16H6
	c-2.2,0-4,1.8-4,4s1.8,4,4,4h7v49.9c0,0.1,0.1,0.2,0.1,0.3c0,0.2,0.1,0.3,0.1,0.5c0,0.1,0.1,0.2,0.1,0.4c0,0.1,0.1,0.3,0.1,0.4
	c0.1,0.1,0.1,0.2,0.2,0.4c0.1,0.1,0.1,0.2,0.2,0.3c0.1,0.1,0.2,0.3,0.3,0.4c0.1,0.1,0.1,0.1,0.2,0.2c0,0,0,0,0,0
	c0.2,0.2,0.4,0.3,0.6,0.5c0.1,0,0.1,0.1,0.2,0.1c0.2,0.1,0.4,0.2,0.6,0.3c0.1,0,0.2,0.1,0.4,0.1c0.1,0,0.3,0.1,0.4,0.1
	c0.3,0.1,0.5,0.1,0.8,0.1c0,0,0,0,0,0H69v7c0,2.2,1.8,4,4,4s4-1.8,4-4v-7h7c2.2,0,4-1.8,4-4s-1.8-4-4-4h-7V21.4L88.8,9.8z M63,24
	L21,64.5V24H63z M69,70H27l42-40.8V70z"/>
</svg>
