<?xml version="1.0" encoding="utf-8"?>
<!-- Generated by IcoMoon.io -->
<!DOCTYPE svg PUBLIC "-//W3C//DTD SVG 1.1//EN" "http://www.w3.org/Graphics/SVG/1.1/DTD/svg11.dtd">
<svg version="1.1" xmlns="http://www.w3.org/2000/svg" xmlns:xlink="http://www.w3.org/1999/xlink" width="32" height="32" viewBox="0 0 32 32">
<path fill="#444444" d="M13.632 5.289c-0.613 0.129-1.823 0.565-2.662 0.984-1.275 0.613-1.759 0.968-2.921 2.13s-1.517 1.646-2.13 2.921c-1.646 3.373-1.646 6.6 0 10.005 0.613 1.291 0.952 1.759 2.13 2.921 1.178 1.178 1.63 1.501 2.921 2.13 1.969 0.936 2.921 1.162 5.002 1.162s3.034-0.226 5.002-1.162c1.275-0.613 1.727-0.952 2.921-2.13 1.178-1.194 1.517-1.646 2.13-2.921 0.774-1.63 1-2.388 1.178-4.002l0.113-1h-3.195l-0.21 1.243c-1.017 6.471-8.907 9.069-13.587 4.47-3.792-3.712-2.969-10.005 1.678-12.732 0.871-0.516 2.63-1.049 3.437-1.049h0.532v-3.227l-0.597 0.016c-0.339 0-1.113 0.113-1.743 0.242zM14.213 9.645c-3.421 0.92-5.648 4.325-5.067 7.745 0.662 3.792 4.212 6.39 7.891 5.761 3.776-0.645 6.39-4.212 5.761-7.859-0.71-4.115-4.647-6.713-8.585-5.648z"></path>
</svg>
