<?xml version="1.0" encoding="utf-8"?>
<!-- Generator: Adobe Illustrator 19.2.1, SVG Export Plug-In . SVG Version: 6.00 Build 0)  -->
<svg version="1.1" id="Layer_1" xmlns="http://www.w3.org/2000/svg" xmlns:xlink="http://www.w3.org/1999/xlink" x="0px" y="0px"
	 width="92px" height="92px" viewBox="0 0 92 92" enable-background="new 0 0 92 92" xml:space="preserve">
<path id="XMLID_1393_" d="M82.8,81.2c1.6,1.6,1.6,4.1,0,5.7C82,87.6,81,88,80,88c-1,0-2-0.4-2.8-1.2L45.4,55L14,86.8
	c-0.8,0.8-1.8,1.2-2.8,1.2c-1,0-2-0.4-2.8-1.2c-1.6-1.6-1.6-4.1,0-5.7l31.4-31.8L34.4,44l-0.8,0.8c-2.5,2.5-5.9,3.9-9.5,3.9
	s-7-1.4-9.5-3.9L1.2,31.7c-1.6-1.6-1.6-4.1,0-5.7s4.1-1.6,5.7,0l13.3,13.2c1,1,2.4,1.6,3.9,1.6s2.8-0.6,3.9-1.6l0.9-0.9L11.6,21.3
	c-1.6-1.6-1.6-4.1,0-5.7c1.6-1.6,4.1-1.6,5.7,0l17.1,17.1l1-1c2.1-2.1,2.1-5.6,0-7.8L22.1,10.8c-1.6-1.6-1.6-4.1,0-5.7
	c1.6-1.6,4.1-1.6,5.7,0L41,18.3c5.3,5.3,5.3,13.8,0,19.1l-1,1l5.3,5.3L80.6,7.9c0.7-0.8,1.8-1.2,2.8-1.2c1,0,2.1,0.4,2.8,1.2
	c8.9,8.9,7.4,21.4-3.8,32.6L68.9,54c-1.6,1.6-4.1,1.6-5.7,0c-1.6-1.6-1.6-4.1,0-5.7l13.5-13.5c8.1-8.1,7.9-14.2,6.2-17.9L51,49.3
	L82.8,81.2z"/>
</svg>
