<?xml version="1.0" encoding="utf-8"?>
<!-- Generated by IcoMoon.io -->
<!DOCTYPE svg PUBLIC "-//W3C//DTD SVG 1.1//EN" "http://www.w3.org/Graphics/SVG/1.1/DTD/svg11.dtd">
<svg version="1.1" xmlns="http://www.w3.org/2000/svg" xmlns:xlink="http://www.w3.org/1999/xlink" width="32" height="32" viewBox="0 0 32 32">
<path fill="#444444" d="M18.885 17.41c0.167-0.13 0.319-0.262 0.454-0.391-0.377 0.092-0.76 0.094-1.146 0.059-0.463 0.006 0.088 0.239 0.692 0.332zM20.679 16.458c0.276-0.381 0.477-0.798 0.548-1.229-0.062 0.307-0.229 0.572-0.386 0.852-0.866 0.545-0.081-0.324-0-0.654-0.931 1.172-0.128 0.703-0.162 1.030zM21.597 14.070c0.056-0.834-0.164-0.571-0.238-0.252 0.086 0.045 0.155 0.588 0.238 0.252zM16.436 2.667c0.247 0.044 0.534 0.078 0.494 0.137 0.27-0.059 0.332-0.114-0.494-0.137zM16.918 2.826l0.012-0.022-0.175 0.036zM16.287 20.066c-0.667-0.312-1.277-0.784-1.779-1.361 0.266 0.39 0.554 0.769 0.925 1.067-0.629-0.213-1.468-1.523-1.713-1.576 1.084 1.94 4.396 3.402 6.131 2.677-0.803 0.029-1.822 0.016-2.724-0.317-0.347-0.179-0.807-0.532-0.811-0.648-0.017 0.045-0.046 0.090-0.028 0.158zM16.322 19.885c-0.005 0.006-0.007 0.013-0.007 0.022 0.003-0.007 0.005-0.015 0.007-0.022zM26.274 12.297c0.008-0.425 0.118-0.223 0.161-0.328-0.084-0.048-0.303-0.374-0.436-0.999 0.097-0.147 0.258 0.381 0.39 0.403-0.085-0.497-0.23-0.876-0.236-1.258-0.384-0.803-0.136 0.107-0.448-0.345-0.409-1.276 0.339-0.296 0.39-0.875 0.62 0.898 0.973 2.289 1.135 2.866-0.124-0.703-0.324-1.383-0.568-2.042 0.188 0.079-0.303-1.446 0.245-0.436-0.585-2.153-2.504-4.165-4.27-5.109 0.216 0.198 0.489 0.446 0.391 0.485-0.878-0.523-0.724-0.564-0.849-0.784-0.716-0.291-0.762 0.023-1.236 0.001-1.348-0.715-1.608-0.639-2.849-1.087l0.057 0.264c-0.893-0.297-1.041 0.113-2.006 0.001-0.059-0.046 0.309-0.166 0.612-0.21-0.864 0.114-0.823-0.17-1.668 0.031 0.208-0.146 0.428-0.243 0.651-0.367-0.704 0.043-1.681 0.41-1.38 0.076-1.149 0.513-3.189 1.232-4.334 2.306l-0.036-0.241c-0.525 0.63-2.288 1.881-2.428 2.697l-0.14 0.033c-0.273 0.462-0.45 0.986-0.666 1.462-0.357 0.608-0.524 0.234-0.473 0.329-0.702 1.424-1.051 2.62-1.352 3.601 0.215 0.321 0.005 1.932 0.086 3.222-0.353 6.369 4.47 12.552 9.741 13.98 0.773 0.276 1.922 0.266 2.899 0.294-1.153-0.33-1.302-0.175-2.425-0.566-0.81-0.382-0.988-0.817-1.562-1.315l0.227 0.401c-1.126-0.398-0.655-0.493-1.571-0.783l0.243-0.317c-0.365-0.028-0.966-0.615-1.131-0.94l-0.399 0.016c-0.48-0.592-0.735-1.018-0.716-1.348l-0.129 0.23c-0.146-0.251-1.764-2.219-0.925-1.761-0.156-0.143-0.363-0.232-0.588-0.64l0.171-0.195c-0.404-0.52-0.743-1.186-0.718-1.408 0.216 0.291 0.365 0.345 0.513 0.395-1.020-2.531-1.077-0.139-1.85-2.576l0.163-0.013c-0.125-0.189-0.201-0.394-0.302-0.595l0.071-0.709c-0.734-0.849-0.205-3.611-0.099-5.125 0.073-0.616 0.613-1.272 1.023-2.3l-0.25-0.043c0.478-0.834 2.729-3.348 3.772-3.219 0.505-0.634-0.1-0.002-0.199-0.162 1.109-1.148 1.458-0.811 2.207-1.018 0.807-0.479-0.693 0.187-0.31-0.183 1.396-0.356 0.989-0.81 2.81-0.991 0.192 0.109-0.446 0.169-0.606 0.311 1.163-0.569 3.68-0.44 5.315 0.316 1.897 0.887 4.029 3.507 4.113 5.973l0.096 0.026c-0.048 0.98 0.15 2.114-0.194 3.155l0.234-0.493c0.027 0.749-0.219 1.113-0.442 1.756l-0.401 0.2c-0.328 0.636 0.032 0.404-0.203 0.91-0.512 0.455-1.552 1.423-1.885 1.511-0.243-0.005 0.165-0.287 0.218-0.397-0.684 0.47-0.549 0.706-1.596 0.992l-0.031-0.068c-2.583 1.215-6.17-1.193-6.123-4.478-0.028 0.209-0.078 0.156-0.136 0.241-0.133-1.691 0.781-3.388 2.322-4.081 1.508-0.746 3.275-0.44 4.355 0.566-0.593-0.777-1.774-1.601-3.173-1.524-1.371 0.022-2.653 0.893-3.081 1.838-0.702 0.442-0.784 1.704-1.090 1.935-0.412 3.026 0.774 4.333 2.781 5.871 0.162 0.109 0.181 0.171 0.167 0.227 0.001-0.001 0.001-0.003 0.003-0.004 2.367 0.884 4.812 0.67 6.86-0.972 0.521-0.406 1.090-1.096 1.255-1.106-0.248 0.373 0.042 0.179-0.148 0.508 0.519-0.837-0.226-0.341 0.537-1.446l0.282 0.388c-0.105-0.695 0.863-1.539 0.765-2.638 0.222-0.336 0.248 0.362 0.012 1.135 0.327-0.858 0.086-0.996 0.17-1.704 0.091 0.238 0.21 0.491 0.271 0.742-0.213-0.829 0.218-1.396 0.325-1.878-0.105-0.047-0.329 0.366-0.38-0.613zM13.071 18.038c0.304 0.414 0.546 0.862 0.935 1.185-0.28-0.546-0.487-0.772-0.87-1.51l-0.065 0.325zM13.856 17.685c-0.161-0.178-0.257-0.393-0.363-0.607 0.102 0.376 0.311 0.698 0.506 1.027l-0.143-0.42zM25.717 17.664c0.456-0.858 0.752-1.796 0.875-2.747l-0.068 0.171c-0.125 0.886-0.394 1.763-0.807 2.576zM17.63 2.307c-0.433 0.036-0.864 0.058-1.29 0.113l0.188 0.026c0.313-0.115 0.77-0.063 1.102-0.138zM5.659 8.779c0.322-0.724-0.089-0.26-0.125-0.453 0.050 0.643-0.495 0.886 0.125 0.453zM5.018 10.414c-0.401 0.513-0.185 0.622-0.227 0.971 0.145-0.446 0.171-0.713 0.227-0.971z"></path>
</svg>
