<?xml version="1.0" encoding="utf-8"?>
<!-- Generator: Adobe Illustrator 19.2.1, SVG Export Plug-In . SVG Version: 6.00 Build 0)  -->
<svg version="1.1" id="Layer_1" xmlns="http://www.w3.org/2000/svg" xmlns:xlink="http://www.w3.org/1999/xlink" x="0px" y="0px"
	 width="92px" height="92px" viewBox="0 0 92 92" enable-background="new 0 0 92 92" xml:space="preserve">
<path id="XMLID_641_" d="M84.4,7H7.6C3.4,7,0,10.4,0,14.6v44.3C0,63.1,3.4,67,7.6,67H33v4.1l-7.6,6.1C24,78.3,23.4,80.4,24,82
	c0.6,1.6,2.1,3,3.8,3h36c1.7,0,3.3-1.4,3.9-3c0.6-1.6,0.1-3.6-1.2-4.7L59,71.1V67h25.4c4.2,0,7.6-3.9,7.6-8.1V14.6
	C92,10.4,88.6,7,84.4,7z M53.2,75.8l2.4,2.2H36l2.6-2.3c0.8-0.7,1.4-1.9,1.4-3V67h12v5.8C52,73.8,52.4,75.1,53.2,75.8z M84,59H8V15
	h76V59z"/>
</svg>
