<?xml version="1.0" encoding="utf-8"?>
<!-- Generator: Adobe Illustrator 19.2.1, SVG Export Plug-In . SVG Version: 6.00 Build 0)  -->
<svg version="1.1" id="Layer_1" xmlns="http://www.w3.org/2000/svg" xmlns:xlink="http://www.w3.org/1999/xlink" x="0px" y="0px"
	 width="92px" height="92px" viewBox="0 0 92 92" enable-background="new 0 0 92 92" xml:space="preserve">
<path id="XMLID_1419_" d="M52.8,76c0,1.7-1.3,3-3,3h-7.7c-1.7,0-3-1.3-3-3s1.3-3,3-3h7.7C51.5,73,52.8,74.3,52.8,76z M72,7.6v76.8
	c0,4.2-3.4,7.6-7.6,7.6H27.6c-4.2,0-7.6-3.4-7.6-7.6V7.6C20,3.4,23.4,0,27.6,0h36.8C68.6,0,72,3.4,72,7.6z M28,8v53h36V8H28z M64,84
	V67H28v17H64z"/>
</svg>
