<?xml version="1.0" encoding="utf-8"?>
<!-- Generator: Adobe Illustrator 19.2.1, SVG Export Plug-In . SVG Version: 6.00 Build 0)  -->
<svg version="1.1" id="Layer_1" xmlns="http://www.w3.org/2000/svg" xmlns:xlink="http://www.w3.org/1999/xlink" x="0px" y="0px"
	 width="92px" height="92px" viewBox="0 0 92 92" enable-background="new 0 0 92 92" xml:space="preserve">
<path id="XMLID_1432_" d="M51.6,77c0,1.7-1.3,3-3,3h-5.2c-1.7,0-3-1.3-3-3s1.3-3,3-3h5.2C50.3,74,51.6,75.3,51.6,77z M83,7.6v76.8
	c0,4.2-3.4,7.6-7.6,7.6H16.6C12.4,92,9,88.6,9,84.4V7.6C9,3.4,12.4,0,16.6,0h58.8C79.6,0,83,3.4,83,7.6z M17,8v55h58V8H17z M75,84
	V69H17v15H75z"/>
</svg>
