<?xml version="1.0" encoding="utf-8"?>
<!-- Generator: Adobe Illustrator 19.2.1, SVG Export Plug-In . SVG Version: 6.00 Build 0)  -->
<svg version="1.1" id="Layer_1" xmlns="http://www.w3.org/2000/svg" xmlns:xlink="http://www.w3.org/1999/xlink" x="0px" y="0px"
	 width="92px" height="92px" viewBox="0 0 92 92" enable-background="new 0 0 92 92" xml:space="preserve">
<path id="XMLID_1570_" d="M46,0C20.6,0,0,20.6,0,46s20.6,46,46,46s46-20.6,46-46S71.4,0,46,0z M46,8c21,0,38,17,38,38
	c0,5.3-1.1,10.4-3.1,15.1L58.4,49.9c1.4-4.5,0.3-9.6-3.2-13.2l0,0c-3.6-3.6-8.7-4.6-13.2-3.2l-8.1-16.4c-0.7-1.5-2.5-2.1-4-1.4
	c-1.5,0.7-2.1,2.5-1.4,4l8.3,16.8c0,0,0,0-0.1,0.1c0,0-0.1,0.1-0.1,0.1L13.9,25.6C20.7,15,32.5,8,46,8z M41.7,41.7
	c1.2-1.2,2.7-1.8,4.3-1.8s3.1,0.6,4.3,1.8c2.4,2.4,2.4,6.2,0,8.6c-2.4,2.4-6.2,2.4-8.6,0C39.4,47.9,39.4,44.1,41.7,41.7z M66.4,78
	l-5.2-10.6c-0.7-1.5-2.5-2.1-4-1.4c-1.5,0.7-2.1,2.5-1.4,4l5.3,10.7c-4.6,2-9.8,3.2-15.1,3.2C25,84,8,67,8,46
	c0-5.3,1.1-10.4,3.1-15.1l22.5,11.1c-1.4,4.5-0.3,9.6,3.2,13.2c2.5,2.5,5.9,3.8,9.2,3.8s6.7-1.3,9.2-3.8c0,0,0.1-0.1,0.1-0.1
	l22.7,11.3C75.1,71,71.1,75,66.4,78z M57.5,59.5c0.6,0.6,1,1.5,1,2.5c0,0.9-0.4,1.8-1,2.5s-1.6,1-2.5,1s-1.8-0.4-2.5-1s-1-1.6-1-2.5
	s0.4-1.8,1-2.5C53.8,58.2,56.2,58.2,57.5,59.5z"/>
</svg>
