<?xml version="1.0" encoding="utf-8"?>
<!-- Generator: Adobe Illustrator 19.2.1, SVG Export Plug-In . SVG Version: 6.00 Build 0)  -->
<svg version="1.1" id="Layer_1" xmlns="http://www.w3.org/2000/svg" xmlns:xlink="http://www.w3.org/1999/xlink" x="0px" y="0px"
	 width="92px" height="92px" viewBox="0 0 92 92" enable-background="new 0 0 92 92" xml:space="preserve">
<path id="XMLID_1197_" d="M76,2H16c-2.2,0-4,1.8-4,4v80c0,2.2,1.8,4,4,4h60c2.2,0,4-1.8,4-4V6C80,3.8,78.2,2,76,2z M72,82H20V10h52
	V82z M29.5,55.5c0-1.9,1.6-3.5,3.5-3.5h11.8c1.9,0,3.5,1.6,3.5,3.5S46.7,59,44.8,59H33C31,59,29.5,57.4,29.5,55.5z M30,39.5
	c0-1.9,1.6-3.5,3.5-3.5h23.8c1.9,0,3.5,1.6,3.5,3.5S59.3,43,57.3,43H33.5C31.6,43,30,41.4,30,39.5z M30,24.5c0-1.9,1.6-3.5,3.5-3.5
	h23.8c1.9,0,3.5,1.6,3.5,3.5S59.3,28,57.3,28H33.5C31.6,28,30,26.4,30,24.5z M59.7,53.3c0.6,0.6,1,1.5,1,2.5c0,0.9-0.4,1.8-1,2.5
	s-1.6,1-2.5,1s-1.8-0.4-2.5-1c-0.7-0.6-1-1.5-1-2.5c0-0.9,0.4-1.8,1-2.5C56,52,58.4,52,59.7,53.3z"/>
</svg>
