<?xml version="1.0" encoding="utf-8"?>
<!-- Generator: Adobe Illustrator 19.2.1, SVG Export Plug-In . SVG Version: 6.00 Build 0)  -->
<svg version="1.1" id="Layer_1" xmlns="http://www.w3.org/2000/svg" xmlns:xlink="http://www.w3.org/1999/xlink" x="0px" y="0px"
	 width="92px" height="92px" viewBox="0 0 92 92" enable-background="new 0 0 92 92" xml:space="preserve">
<path id="XMLID_1235_" d="M78.8,25.5L56.7,3.2C55.9,2.4,54.9,2,53.8,2H16c-2.2,0-4,1.8-4,4v80c0,2.2,1.8,4,4,4h60c2.2,0,4-1.8,4-4
	V28.3C80,27.2,79.6,26.2,78.8,25.5z M72,30H52V10h0.2L72,30z M20,82V10h24v23.9c0,2.2,1.7,4.1,3.9,4.1H72v44H20z M57.5,52.1
	l-6.6,6.6l6.6,6.6c1.4,1.4,1.4,3.6,0,4.9c-0.7,0.7-1.6,1-2.5,1c-0.9,0-1.8-0.3-2.5-1L46,63.7l-6.5,6.6c-0.7,0.7-1.6,1-2.5,1
	c-0.9,0-1.8-0.3-2.5-1c-1.4-1.4-1.4-3.6,0-4.9l6.6-6.6l-6.6-6.6c-1.4-1.4-1.4-3.6,0-4.9c1.4-1.4,3.6-1.4,4.9,0l6.5,6.6l6.5-6.6
	c1.4-1.4,3.6-1.4,4.9,0C58.9,48.5,58.9,50.7,57.5,52.1z"/>
</svg>
