<?xml version="1.0" encoding="utf-8"?>
<!-- Generator: Adobe Illustrator 19.2.1, SVG Export Plug-In . SVG Version: 6.00 Build 0)  -->
<svg version="1.1" id="Layer_1" xmlns="http://www.w3.org/2000/svg" xmlns:xlink="http://www.w3.org/1999/xlink" x="0px" y="0px"
	 width="92px" height="92px" viewBox="0 0 92 92" enable-background="new 0 0 92 92" xml:space="preserve">
<path id="XMLID_1246_" d="M78.8,25.5L56.7,3.2C55.9,2.4,54.9,2,53.8,2H16c-2.2,0-4,1.8-4,4v80c0,2.2,1.8,4,4,4h60c2.2,0,4-1.8,4-4
	V28.3C80,27.2,79.6,26.2,78.8,25.5z M72,30H52V10h0.2L72,30z M20,82V10h24v23.9c0,2.2,1.7,4.1,3.9,4.1H72v44H20z M58.5,58.5
	c0,1.9-1.6,3.5-3.5,3.5H37c-1.9,0-3.5-1.6-3.5-3.5S35,55,37,55h18C57,55,58.5,56.6,58.5,58.5z"/>
</svg>
