<?xml version="1.0" encoding="utf-8"?>
<!-- Generator: Adobe Illustrator 19.2.1, SVG Export Plug-In . SVG Version: 6.00 Build 0)  -->
<svg version="1.1" id="Layer_1" xmlns="http://www.w3.org/2000/svg" xmlns:xlink="http://www.w3.org/1999/xlink" x="0px" y="0px"
	 width="92px" height="92px" viewBox="0 0 92 92" enable-background="new 0 0 92 92" xml:space="preserve">
<path id="XMLID_1259_" d="M86.1,9.2L79,1.9C78.4,1.3,77.6,1,76.8,1h0c-0.8,0-1.6,0.3-2.1,0.9L32.8,44.4c-0.3,0.3-0.5,0.6-0.7,1
	l-4.7,11.9c-0.4,1.1-0.2,2.4,0.7,3.2c0.6,0.6,1.3,0.9,2.1,0.9c0.4,0,0.7-0.1,1.1-0.2l11.8-4.7c0.4-0.2,0.7-0.4,1-0.7l41.9-42.5
	C87.3,12.2,87.3,10.3,86.1,9.2z M40.4,51.2l-4.8,1.9l1.9-4.9L76.8,8.3l3,3L40.4,51.2z M71,47.6V88c0,2.2-2,4-4.2,4H10
	c-2.2,0-4-1.8-4-4V11.8C6,9.6,7.8,8,10,8h41.6c2.2,0,4,1.8,4,4s-1.8,4-4,4H14v68h49V47.6c0-2.2,1.8-4,4-4S71,45.4,71,47.6z"/>
</svg>
