<?xml version="1.0" encoding="utf-8"?>
<!-- Generated by IcoMoon.io -->
<!DOCTYPE svg PUBLIC "-//W3C//DTD SVG 1.1//EN" "http://www.w3.org/Graphics/SVG/1.1/DTD/svg11.dtd">
<svg version="1.1" xmlns="http://www.w3.org/2000/svg" xmlns:xlink="http://www.w3.org/1999/xlink" width="32" height="32" viewBox="0 0 32 32">
<path fill="#444444" d="M8.172 9.056c0 0.029 0 1.914 0 4.199v4.152l-0.189 0.383c-0.259 0.512-0.889 1.143-1.431 1.425-0.613 0.318-1.031 0.424-1.679 0.424-0.984 0-1.708-0.306-2.421-1.019-0.889-0.895-1.243-2.103-0.966-3.298 0.153-0.654 0.418-1.107 0.942-1.631 0.772-0.777 1.514-1.060 2.621-1.007 0.724 0.035 1.172 0.171 1.714 0.518 0.2 0.13 0.365 0.23 0.377 0.218 0.006-0.012 0.041-0.259 0.082-0.548 0.041-0.294 0.088-0.583 0.106-0.654 0.024-0.1-0.047-0.153-0.436-0.336-0.683-0.318-1.16-0.418-2.020-0.418-0.913 0-1.355 0.1-2.156 0.495-1.225 0.595-2.103 1.714-2.462 3.127-0.141 0.571-0.13 1.726 0.029 2.291 0.424 1.543 1.543 2.709 3.116 3.251 0.536 0.183 0.601 0.189 1.443 0.194 0.766 0 0.942-0.018 1.325-0.141 0.583-0.177 1.060-0.418 1.549-0.777 0.218-0.159 0.4-0.289 0.412-0.289 0.006 0 0.012 0.218 0.012 0.483v0.489l1.502 0.035v-11.609h-0.736c-0.406 0-0.736 0.018-0.736 0.041zM20.306 10.222v0.913h1.178v-1.826h-1.178v0.913zM13.014 9.716c-0.047 0.029-0.071 0.13-0.059 0.247l0.018 0.2 1.985 0.018 1.991 0.012 0.035-0.141c0.018-0.076 0.024-0.194 0.012-0.253-0.018-0.1-0.135-0.106-1.961-0.118-1.072-0.012-1.979 0.006-2.020 0.035zM25.147 9.733c-0.076 0.076-0.088 0.218-0.035 0.365 0.030 0.083 0.265 0.094 2.003 0.094h1.967l0.065-0.141c0.047-0.1 0.047-0.171 0-0.265-0.071-0.124-0.088-0.124-1.997-0.124-1.425 0-1.95 0.018-2.002 0.071zM14.092 11.512c-0.907 0.177-1.72 0.577-2.321 1.137-0.701 0.642-1.107 1.319-1.39 2.279-0.124 0.43-0.147 0.642-0.147 1.237 0 0.895 0.094 1.302 0.477 2.091 0.259 0.536 0.371 0.683 0.836 1.154 0.63 0.63 1.119 0.942 1.926 1.219 0.536 0.183 0.595 0.189 1.472 0.194 0.883 0 0.931-0.006 1.473-0.194 1.997-0.695 3.239-2.397 3.251-4.459 0.006-0.836-0.118-1.36-0.495-2.15-0.265-0.548-0.359-0.677-0.866-1.178-0.459-0.459-0.666-0.618-1.107-0.842-0.3-0.153-0.754-0.336-1.001-0.401-0.595-0.153-1.567-0.194-2.109-0.088zM16.118 12.843c0.842 0.3 1.608 0.989 2.008 1.808 0.948 1.949-0.118 4.246-2.268 4.883-0.477 0.141-1.355 0.141-1.82 0-1.225-0.365-2.185-1.384-2.474-2.627-0.424-1.802 0.683-3.64 2.503-4.152 0.471-0.13 1.555-0.082 2.050 0.088zM26.225 11.512c-1.808 0.359-3.098 1.514-3.646 3.263-0.136 0.442-0.153 0.583-0.153 1.414 0 0.966 0.053 1.243 0.342 1.908 0.524 1.196 1.631 2.15 2.986 2.58 0.624 0.2 1.72 0.23 2.397 0.065 2.768-0.66 4.341-3.469 3.434-6.137-0.501-1.467-1.679-2.568-3.21-2.998-0.571-0.159-1.584-0.206-2.15-0.094zM27.956 12.755c0.919 0.218 1.849 0.954 2.268 1.796 0.289 0.589 0.389 0.99 0.389 1.59 0 0.901-0.295 1.673-0.889 2.321-0.448 0.483-0.895 0.777-1.526 1.001-0.424 0.147-0.589 0.171-1.089 0.177-0.995 0-1.714-0.295-2.415-0.995-0.448-0.442-0.766-0.984-0.948-1.59-0.159-0.524-0.141-1.467 0.030-1.973 0.395-1.131 1.272-1.985 2.391-2.303 0.448-0.13 1.29-0.141 1.791-0.024zM20.883 11.712l-0.577 0.018v4.282c0 4.706 0.006 4.6-0.359 5.325-0.106 0.206-0.353 0.542-0.559 0.76-0.206 0.212-0.377 0.406-0.377 0.43 0 0.071 0.707 1.037 0.754 1.031 0.13-0.006 1.043-1.296 1.331-1.873 0.412-0.825 0.389-0.501 0.377-5.483l-0.018-4.506-0.571 0.018z"></path>
</svg>
