<?xml version="1.0" encoding="utf-8"?>
<!-- Generator: Adobe Illustrator 19.2.1, SVG Export Plug-In . SVG Version: 6.00 Build 0)  -->
<svg version="1.1" id="Layer_1" xmlns="http://www.w3.org/2000/svg" xmlns:xlink="http://www.w3.org/1999/xlink" x="0px" y="0px"
	 width="92px" height="92px" viewBox="0 0 92 92" enable-background="new 0 0 92 92" xml:space="preserve">
<path id="XMLID_1335_" d="M89,58.8V86c0,2.8-2.2,5-5,5H8c-2.8,0-5-2.2-5-5V58.8c0-2.8,2.2-5,5-5s5,2.2,5,5V81h66V58.8
	c0-2.8,2.2-5,5-5S89,56,89,58.8z M42.4,65c0.9,1,2.2,1.5,3.6,1.5s2.6-0.5,3.6-1.5l19.9-20.4c1.9-2,1.9-5.1-0.1-7.1
	c-2-1.9-5.1-1.9-7.1,0.1L51,49.3V6c0-2.8-2.2-5-5-5s-5,2.2-5,5v43.3L29.6,37.7c-1.9-2-5.1-2-7.1-0.1c-2,1.9-2,5.1-0.1,7.1L42.4,65z"
	/>
</svg>
