<?xml version="1.0" encoding="utf-8"?>
<!-- Generated by IcoMoon.io -->
<!DOCTYPE svg PUBLIC "-//W3C//DTD SVG 1.1//EN" "http://www.w3.org/Graphics/SVG/1.1/DTD/svg11.dtd">
<svg version="1.1" xmlns="http://www.w3.org/2000/svg" xmlns:xlink="http://www.w3.org/1999/xlink" width="32" height="32" viewBox="0 0 32 32">
<path fill="#444444" d="M4.673 4.959c0 7.551 0 15.103 0 22.654 7.551 0 15.103 0 22.654 0 0-7.551 0-15.103 0-22.654-7.551 0-15.103 0-22.654 0zM25.554 25.801c-6.352 0-12.687 0-19.042 0 0-6.331 0-12.648 0-18.981 6.352 0 12.686 0 19.042 0 0 6.322 0 12.639 0 18.981zM8.067 16.082c-0-1.484 0-2.968-0.001-4.452-0-0.135-0.005-0.24 0.181-0.265 1.266-0.165 2.535-0.28 3.798-0.013 1.708 0.361 2.747 1.425 3.117 3.124 0.238 1.092 0.191 2.188-0.117 3.262-0.479 1.669-1.586 2.677-3.282 3.029-1.179 0.245-2.366 0.173-3.553 0.061-0.145-0.014-0.142-0.102-0.142-0.204 0.001-0.452-0-0.904-0-1.356-0-1.062 0-2.124-0-3.186zM9.597 16.083c-0.001 0-0.001 0-0.002 0 0 0.535-0 1.070 0 1.604s0.007 1.070-0.003 1.604c-0.003 0.174 0.051 0.247 0.226 0.246 0.308-0.002 0.618 0.030 0.925 0.008 1.491-0.106 2.395-0.836 2.767-2.259 0.23-0.88 0.246-1.775 0.019-2.66-0.212-0.823-0.676-1.459-1.476-1.803-0.745-0.32-1.522-0.318-2.308-0.199-0.168 0.026-0.148 0.136-0.148 0.249 0.001 1.070 0 2.139 0 3.209zM19.845 15.894c-0.053 0.283-0.093 0.57-0.163 0.849-0.329 1.313-0.667 2.624-0.999 3.936-0.031 0.122-0.103 0.145-0.215 0.144-0.339-0.004-0.678-0.009-1.017 0.003-0.159 0.006-0.222-0.052-0.259-0.204-0.198-0.803-0.409-1.604-0.613-2.406-0.336-1.32-0.671-2.64-1.006-3.96-0.022-0.086-0.035-0.173-0.061-0.302 0.348 0 0.668 0 0.989 0 0.513-0 0.521-0.002 0.615 0.5 0.287 1.523 0.568 3.047 0.852 4.57 0.014 0.073 0.034 0.144 0.086 0.219 0.078-0.363 0.149-0.729 0.236-1.090 0.321-1.339 0.65-2.676 0.969-4.015 0.036-0.151 0.11-0.189 0.251-0.185 0.271 0.008 0.543 0.011 0.813-0.001 0.162-0.008 0.222 0.058 0.256 0.209 0.374 1.658 0.753 3.315 1.131 4.973 0.008 0.035 0.017 0.070 0.069 0.109 0.023-0.118 0.046-0.237 0.069-0.355 0.312-1.579 0.625-3.158 0.934-4.738 0.028-0.142 0.087-0.2 0.238-0.196 0.405 0.010 0.811 0.003 1.256 0.003-0.095 0.366-0.18 0.705-0.271 1.042-0.505 1.866-1.014 3.731-1.514 5.599-0.044 0.165-0.104 0.237-0.285 0.228-0.308-0.015-0.618-0.013-0.926-0.001-0.172 0.006-0.251-0.045-0.292-0.222-0.346-1.51-0.703-3.018-1.056-4.526-0.014-0.061-0.030-0.122-0.044-0.183-0.015 0-0.030 0.001-0.045 0.001z"></path>
</svg>
