<?xml version="1.0" encoding="utf-8"?>
<!-- Generated by IcoMoon.io -->
<!DOCTYPE svg PUBLIC "-//W3C//DTD SVG 1.1//EN" "http://www.w3.org/Graphics/SVG/1.1/DTD/svg11.dtd">
<svg version="1.1" xmlns="http://www.w3.org/2000/svg" xmlns:xlink="http://www.w3.org/1999/xlink" width="32" height="32" viewBox="0 0 32 32">
<path fill="#444444" d="M6.568 16.58c-0.143-5.283 3.811-9.945 8.951-10.787-4.040 0.066-7.256 1.719-9.282 5.253-2.139 3.729-1.992 7.535 0.393 11.112 2.097 3.144 5.174 4.596 8.931 4.621-5.289-0.905-8.865-5.454-8.993-10.198zM7.627 13.092c-0.11 0.292-0.096 0.297 0.222 0.297 6.225 0 12.451 0 18.676 0 0.113 0 0.226 0 0.337 0 0.003-0.030 0.010-0.047 0.006-0.062-0.019-0.071-0.040-0.142-0.063-0.212-0.756-2.252-2.175-3.997-4.134-5.3-2.223-1.479-4.697-1.903-7.285-1.418-3.856 0.722-6.385 3.059-7.759 6.695zM7.437 14.524c-0.13-0.020-0.165 0.044-0.181 0.161-0.039 0.293-0.073 0.586-0.093 0.882-0.008 0.121 0.015 0.155 0.138 0.154 1.028-0.007 2.055-0.008 3.083-0.011 0.057 0.003 0.115 0.008 0.172 0.008 4.443 0 8.886 0 13.329 0 0.057 0 0.115-0.005 0.172-0.008 1.019 0.003 2.039 0.002 3.058 0.012 0.148 0.001 0.162-0.062 0.15-0.174-0.030-0.269-0.076-0.538-0.086-0.808-0.007-0.19-0.081-0.219-0.255-0.219-6.439 0.005-12.877 0.004-19.316 0.004-0.058 0-0.116 0.007-0.173-0.001zM27.117 16.851c-1.020 0.006-2.039 0.008-3.059 0.010-0.057-0.003-0.115-0.008-0.172-0.008-4.443-0-8.887-0-13.33 0-0.057 0-0.115 0.005-0.172 0.008-1.026-0.003-2.052-0.004-3.078-0.010-0.114-0.001-0.153 0.019-0.143 0.148 0.022 0.303 0.051 0.604 0.098 0.905 0.014 0.090 0.030 0.145 0.145 0.145 1.059-0.008 2.117-0.010 3.176-0.014 0.065 0.004 0.131 0.011 0.196 0.011 4.296 0 8.591 0 12.887 0 0.065 0 0.131-0.007 0.196-0.011 1.052 0.004 2.105 0.007 3.157 0.012 0.083 0 0.14-0.013 0.149-0.116 0.029-0.311 0.063-0.621 0.1-0.931 0.015-0.123-0.036-0.15-0.15-0.149zM10.484 17.593c-0.001-0.002-0.001-0.004-0.002-0.006 0.001 0.001 0.002 0.002 0.003 0.002-0 0.001-0.001 0.002-0.001 0.004zM26.644 19.183c-6.282-0.005-12.564-0.005-18.846-0.003-0.075 0-0.164-0.044-0.225 0.041v0c-0.019 0.104 0.037 0.192 0.067 0.284 1.333 3.989 5.716 7.889 11.823 6.6 2.469-0.521 4.376-1.925 5.892-3.897 0.665-0.866 1.175-1.818 1.474-2.874 0.114-0.261-0.111-0.151-0.185-0.151z"></path>
</svg>
