<?xml version="1.0" encoding="utf-8"?>
<!-- Generated by IcoMoon.io -->
<!DOCTYPE svg PUBLIC "-//W3C//DTD SVG 1.1//EN" "http://www.w3.org/Graphics/SVG/1.1/DTD/svg11.dtd">
<svg version="1.1" xmlns="http://www.w3.org/2000/svg" xmlns:xlink="http://www.w3.org/1999/xlink" width="32" height="32" viewBox="0 0 32 32">
<path fill="#444444" d="M22.019 19.266c0 0-0.146-0.516 0.397-1.509s0.966-0.45 0.966-0.45 0.463 0.503-0.066 1.257c-0.529 0.755-1.297 0.702-1.297 0.702zM17.85 19.98c-0.622 1.628-2.131 0.966-2.131 0.966s-0.172-0.582 0.318-2.21c0.49-1.628 1.641-0.993 1.641-0.993s0.794 0.609 0.172 2.237zM16.725 13.164c0 0 0.94-2.449 1.165-1.257s-1.972 4.738-1.972 4.738c0.026-0.794 0.807-3.481 0.807-3.481zM3.291 19.266c0.040-1.575 1.072-2.263 1.429-1.919s0.225 1.085-0.45 1.549c-0.675 0.463-0.979 0.371-0.979 0.371zM31.76 19.004c-0.053-0.529-0.53-0.333-0.53-0.333s-0.768 0.595-1.443 0.529c-0.675-0.066-0.463-1.576-0.463-1.576s0.146-1.383-0.251-1.499c-0.397-0.116-0.887 0.36-0.887 0.36s-0.609 0.675-0.9 1.535l-0.079 0.026c0 0 0.093-1.509-0.013-1.853-0.079-0.172-0.807-0.159-0.927 0.145s-0.701 2.422-0.741 3.309c0 0-1.138 0.966-2.131 1.125s-1.231-0.463-1.231-0.463 2.7-0.754 2.607-2.912c-0.093-2.157-2.177-1.36-2.413-1.182-0.228 0.172-1.447 0.906-1.802 2.941-0.012 0.069-0.033 0.372-0.033 0.372s-1.046 0.701-1.628 0.887c0 0 1.628-2.74-0.357-3.984-0.9-0.543-1.615 0.596-1.615 0.596s2.687-2.991 2.091-5.519c-0.284-1.204-0.885-1.333-1.438-1.138-0.839 0.331-1.156 0.821-1.156 0.821s-1.085 1.575-1.337 3.918c-0.252 2.343-0.622 5.175-0.622 5.175s-0.516 0.503-0.993 0.529c-0.476 0.027-0.265-1.416-0.265-1.416s0.371-2.197 0.344-2.568c-0.027-0.371-0.053-0.569-0.49-0.701s-0.913 0.424-0.913 0.424-1.257 1.906-1.363 2.197l-0.066 0.119-0.066-0.079c0 0 0.887-2.594 0.040-2.634s-1.403 0.926-1.403 0.926-0.966 1.614-1.006 1.8l-0.066-0.079c0 0 0.397-1.879 0.318-2.342s-0.516-0.371-0.516-0.371-0.556-0.066-0.702 0.291c-0.146 0.357-0.675 2.727-0.741 3.481 0 0-1.39 0.993-2.303 1.006s-0.821-0.579-0.821-0.579 3.349-1.146 2.435-3.409c-0.41-0.582-0.887-0.765-1.562-0.752s-1.513 0.425-2.055 1.643c-0.259 0.581-0.354 1.132-0.407 1.549 0 0-0.586 0.12-0.904-0.145s-0.481 0-0.481 0-0.545 0.695-0.003 0.907c0.543 0.212 1.39 0.311 1.39 0.311h-0.001c0.078 0.371 0.304 1 0.965 1.502 0.993 0.754 2.898-0.069 2.898-0.069l0.781-0.438c0 0 0.027 0.716 0.596 0.821s0.807-0.002 1.8-2.41c0.582-1.231 0.622-1.165 0.622-1.165l0.066-0.013c0 0-0.45 2.356-0.278 2.991s0.926 0.569 0.926 0.569 0.41 0.079 0.741-1.085c0.331-1.165 0.966-2.449 0.966-2.449h0.079c0 0-0.278 2.409 0.146 3.176s1.522 0.258 1.522 0.258 0.768-0.388 0.887-0.507c0 0 0.911 0.776 2.197 0.635 2.873-0.565 3.894-1.329 3.894-1.329s0.494 1.251 2.022 1.366c1.747 0.133 2.7-0.967 2.7-0.967s-0.013 0.715 0.596 0.966c0.609 0.252 1.019-1.162 1.019-1.162l1.019-2.809h0.093c0 0 0.053 1.827 1.059 2.118s2.316-0.682 2.316-0.682 0.318-0.176 0.265-0.705z"></path>
</svg>
