<?xml version="1.0" encoding="utf-8"?>
<!-- Generator: Adobe Illustrator 19.2.1, SVG Export Plug-In . SVG Version: 6.00 Build 0)  -->
<svg version="1.1" id="Layer_1" xmlns="http://www.w3.org/2000/svg" xmlns:xlink="http://www.w3.org/1999/xlink" x="0px" y="0px"
	 width="92px" height="92px" viewBox="0 0 92 92" enable-background="new 0 0 92 92" xml:space="preserve">
<path id="XMLID_1532_" d="M89,13v66c0,2.2-1.8,4-4,4H32.9c-2.2,0-3.9-1.8-3.9-4V60.7c0-2.2,1.8-4,4-4s4,1.8,4,4V75h44V17H37v14.3
	c0,2.2-1.8,4-4,4s-4-1.8-4-4V13c0-2.2,1.7-4,3.9-4H85C87.2,9,89,10.8,89,13z M46.5,58.9c-1.6,1.6-1.5,4.1,0,5.7
	c0.8,0.8,1.8,1.2,2.8,1.2c1,0,2.1-0.4,2.8-1.2l15.7-15.8c1.5-1.6,1.5-4.1,0-5.6L52.2,27.2c-1.6-1.6-4.1-1.6-5.7,0
	c-1.6,1.6-1.6,4.1,0,5.7l8.9,9L7,42c-2.2,0-4,1.8-4,4c0,2.2,1.8,4,4,4c0,0,0,0,0,0l48.4-0.1L46.5,58.9z"/>
</svg>
