<?xml version="1.0" encoding="utf-8"?>
<!-- Generator: Adobe Illustrator 19.2.1, SVG Export Plug-In . SVG Version: 6.00 Build 0)  -->
<svg version="1.1" id="Layer_1" xmlns="http://www.w3.org/2000/svg" xmlns:xlink="http://www.w3.org/1999/xlink" x="0px" y="0px"
	 width="92px" height="92px" viewBox="0 0 92 92" enable-background="new 0 0 92 92" xml:space="preserve">
<path id="XMLID_1456_" d="M60,60.7V79c0,2.2-1.6,4-3.8,4H4c-2.2,0-4-1.8-4-4V13c0-2.2,1.8-4,4-4h52.2c2.2,0,3.8,1.8,3.8,4v18.3
	c0,2.2-1.8,4-4,4s-4-1.8-4-4V17H8v58h44V60.7c0-2.2,1.8-4,4-4S60,58.5,60,60.7z M90.8,43L75.2,27.2c-1.6-1.6-4.1-1.6-5.7,0
	c-1.6,1.6-1.6,4.1,0,5.7l8.9,9L29.9,42c-2.2,0-4,1.8-4,4c0,2.2,1.8,4,4,4c0,0,0,0,0,0l48.5-0.1l-8.9,9c-1.6,1.6-1.5,4.1,0,5.7
	c0.8,0.8,1.8,1.2,2.8,1.2c1,0,2.1-0.4,2.8-1.2l15.7-15.8C92.4,47.1,92.4,44.6,90.8,43z"/>
</svg>
