<?xml version="1.0" encoding="utf-8"?>
<!-- Generator: Adobe Illustrator 19.2.1, SVG Export Plug-In . SVG Version: 6.00 Build 0)  -->
<svg version="1.1" id="Layer_1" xmlns="http://www.w3.org/2000/svg" xmlns:xlink="http://www.w3.org/1999/xlink" x="0px" y="0px"
	 width="92px" height="92px" viewBox="0 0 92 92" enable-background="new 0 0 92 92" xml:space="preserve">
<path id="XMLID_1120_" d="M90,6l0,20c0,2.2-1.8,4-4,4l0,0c-2.2,0-4-1.8-4-4V15.7L58.8,38.9c-0.8,0.8-1.8,1.2-2.8,1.2
	c-1,0-2-0.4-2.8-1.2c-1.6-1.6-1.6-4.1,0-5.7L76.3,10H66c-2.2,0-4-1.8-4-4c0-2.2,1.8-4,4-4h20c1.1,0,2.1,0.4,2.8,1.2
	C89.6,3.9,90,4.9,90,6z M86,62c-2.2,0-4,1.8-4,4v10.3L59.2,53.7c-1.6-1.6-4.2-1.6-5.8,0c-1.6,1.6-1.6,4.1-0.1,5.7L75.9,82H65.6
	c0,0,0,0,0,0c-2.2,0-4,1.8-4,4s1.8,4,4,4l20,0l0,0c1.1,0,2.3-0.4,3-1.2c0.8-0.8,1.4-1.8,1.4-2.8V66C90,63.8,88.2,62,86,62z
	 M32.8,53.5L10,76.3V66c0-2.2-1.8-4-4-4h0c-2.2,0-4,1.8-4,4l0,20c0,1.1,0.4,2.1,1.2,2.8C4,89.6,5,90,6.1,90h20c2.2,0,4-1.8,4-4
	c0-2.2-1.8-4-4-4H15.7l22.8-22.8c1.6-1.6,1.5-4.1,0-5.7C37,51.9,34.4,51.9,32.8,53.5z M15.7,10.4l10.3,0h0c2.2,0,4-1.8,4-4
	s-1.8-4-4-4l-20,0h0c-1.1,0-2.1,0.4-2.8,1.2C2.4,4.3,2,5.3,2,6.4l0,20c0,2.2,1.8,4,4,4c2.2,0,4-1.8,4-4V16l23.1,23.1
	c0.8,0.8,1.8,1.2,2.8,1.2c1,0,2-0.4,2.8-1.2c1.6-1.6,1.6-4.1,0-5.7L15.7,10.4z"/>
</svg>
