<?xml version="1.0" encoding="utf-8"?>
<!-- Generator: Adobe Illustrator 19.2.1, SVG Export Plug-In . SVG Version: 6.00 Build 0)  -->
<svg version="1.1" id="Layer_1" xmlns="http://www.w3.org/2000/svg" xmlns:xlink="http://www.w3.org/1999/xlink" x="0px" y="0px"
	 width="92px" height="92px" viewBox="0 0 92 92" enable-background="new 0 0 92 92" xml:space="preserve">
<path id="XMLID_1138_" d="M90,6l0,21c0,2.2-1.8,4-4,4l0,0c-2.2,0-4-1.8-4-4V15.7L56.7,40.9c-0.8,0.8-1.8,1.2-2.8,1.2
	c-1,0-2-0.4-2.8-1.2c-1.6-1.6-1.6-4.1,0-5.7L76.3,10H65c-2.2,0-4-1.8-4-4c0-2.2,1.8-4,4-4h21c1.1,0,2.1,0.4,2.8,1.2
	C89.6,3.9,90,4.9,90,6z M34.9,51.5L10,76.3V65c0-2.2-1.8-4-4-4l0,0c-2.2,0-4,1.8-4,4l0,21c0,1.1,0.4,2.1,1.2,2.8
	C3.9,89.6,4.9,90,6,90l21,0c2.2,0,4-1.8,4-4c0-2.2-1.8-4-4-4H15.7l24.9-24.9c1.6-1.6,1.6-4.1,0-5.7C39,49.9,36.4,49.9,34.9,51.5z"/>
</svg>
