<?xml version="1.0" encoding="utf-8"?>
<!-- Generator: Adobe Illustrator 19.2.1, SVG Export Plug-In . SVG Version: 6.00 Build 0)  -->
<svg version="1.1" id="Layer_1" xmlns="http://www.w3.org/2000/svg" xmlns:xlink="http://www.w3.org/1999/xlink" x="0px" y="0px"
	 width="92px" height="92px" viewBox="0 0 92 92" enable-background="new 0 0 92 92" xml:space="preserve">
<path id="XMLID_1550_" d="M89.6,4.1C88.9,2.8,87.5,2,86.1,2H5.9C4.5,2,3.1,2.8,2.4,4.1C1.7,5.4,2,7,2.8,8.2L34,54v30.3
	c0,3.1,2.1,5.7,5.3,5.7h13.4c3.1,0,5.3-2.5,5.3-5.7V54L89.2,8.2C90,7,90.3,5.4,89.6,4.1z M50.9,50.6C50.4,51.2,50,52,50,52.8V82h-8
	V52.8c0-0.8-0.4-1.6-0.9-2.2l-9.5-13.9c2-0.6,4.4-1.2,7-1.1c3.1,0,5.2,0.6,7.5,1.2c2.4,0.6,4.8,1.2,8.2,1.3c2,0,3.8-0.1,5.4-0.3
	L50.9,50.6z M65.5,29.2C65.5,29.2,65.5,29.2,65.5,29.2c-0.1,0-4.3,1.9-11.2,1.8c-2.5,0-4.4-0.5-6.5-1.1c-2.4-0.6-5.2-1.3-9.2-1.4
	c-4.5,0-8.5,1.1-11.2,2.1L13.5,10h65.1L65.5,29.2z M57.3,22.6c-0.7-0.7-1.2-1.8-1.2-2.8c0-1.1,0.4-2.1,1.2-2.8
	c0.7-0.7,1.8-1.2,2.8-1.2c1.1,0,2.1,0.4,2.8,1.2c0.7,0.8,1.2,1.8,1.2,2.8c0,1.1-0.4,2.1-1.2,2.8c-0.8,0.7-1.8,1.2-2.8,1.2
	C59.1,23.8,58,23.3,57.3,22.6z"/>
</svg>
