<?xml version="1.0" encoding="utf-8"?>
<!-- Generator: Adobe Illustrator 19.2.1, SVG Export Plug-In . SVG Version: 6.00 Build 0)  -->
<svg version="1.1" id="Layer_1" xmlns="http://www.w3.org/2000/svg" xmlns:xlink="http://www.w3.org/1999/xlink" x="0px" y="0px"
	 width="92px" height="92px" viewBox="0 0 92 92" enable-background="new 0 0 92 92" xml:space="preserve">
<path id="XMLID_1022_" d="M73,76.5v5c0,2.2-1.9,3.5-4.1,3.5H3.6C1.4,85,0,83.8,0,81.5V32.1c0-2.2,1.4-4.2,3.6-4.2h11.7
	c2.2,0,4,1.8,4,4s-1.8,4-4,4H8V77h57v-0.5c0-2.2,1.8-4,4-4S73,74.3,73,76.5z M90.8,39.2L66,64.5c-1.2,1.2-2.9,1.5-4.4,0.9
	C60,64.7,59,63.3,59,61.6V50.7c-8-0.2-27.2,0.6-34.2,12.9c-0.7,1.3-2.1,2.1-3.5,2.1c-0.3,0-0.7,0-1-0.1c-1.8-0.5-3-2.1-3-3.9
	c0-0.6,0-16.1,11.6-27.6C36.2,26.6,46,22.6,59,21.9V11c0-1.6,1-3.1,2.5-3.7C63.1,6.7,64.8,7,66,8.2l24.9,25.3
	C92.4,35.1,92.4,37.6,90.8,39.2z M82.2,36.3L67,20.9v4.9c0,2.2-1.7,4-4,4c-12.4,0-21.9,3.3-28.4,9.9c-3,3-5,6.3-6.3,9.5
	c9.4-5.6,21.3-6.6,28.6-6.6c3.8,0,6.3,0.3,6.6,0.3c2,0.2,3.5,2,3.5,4v4.9L82.2,36.3z"/>
</svg>
