<?xml version="1.0" encoding="utf-8"?>
<!-- Generated by IcoMoon.io -->
<!DOCTYPE svg PUBLIC "-//W3C//DTD SVG 1.1//EN" "http://www.w3.org/Graphics/SVG/1.1/DTD/svg11.dtd">
<svg version="1.1" xmlns="http://www.w3.org/2000/svg" xmlns:xlink="http://www.w3.org/1999/xlink" width="32" height="32" viewBox="0 0 32 32">
<path fill="#444444" d="M16.281 7.633c0.052 0.007 0.115 0.035 0.165 0.061 0.518 0.265 0.86 0.424 0.977 0.958 0.188 0.855 0.752 1.347 1.555 1.614 0.569 0.189 1.098 0.108 1.615-0.181 0.771-0.43 1.053-0.379 1.72 0.284 0.636 0.631 0.74 1.062 0.309 1.773-0.725 1.198 0.055 2.983 1.277 3.306 1.007 0.266 1.417 1.563 0.82 2.452-0.139 0.207-0.429 0.364-0.681 0.436-1.008 0.288-1.557 0.978-1.675 1.969-0.050 0.421 0.094 0.884 0.228 1.302 0.128 0.4 0.404 0.76 0.15 1.249-0.913-0.863-1.81-1.709-2.72-2.569 0.963-1.297 1.336-2.725 1.083-4.284-0.207-1.277-0.797-2.372-1.794-3.215-1.93-1.631-4.601-1.657-6.514-0.117-1.813 1.46-2.98 4.687-0.857 7.629-0.857 0.884-1.71 1.763-2.577 2.657-0.298-0.257-0.29-0.551-0.206-0.852 0.039-0.139 0.106-0.274 0.18-0.4 0.539-0.922 0.365-1.791-0.191-2.629-0.265-0.399-0.671-0.59-1.112-0.735-0.981-0.32-1.375-1.775-0.674-2.551 0.158-0.175 0.415-0.313 0.648-0.358 1.343-0.258 2.078-2.097 1.434-3.195-0.502-0.855-0.42-1.241 0.428-2.046 0.516-0.489 0.861-0.547 1.473-0.173 0.759 0.464 1.483 0.409 2.232 0.008 0.459-0.246 0.812-0.593 0.927-1.096 0.169-0.737 0.527-1.235 1.327-1.312 0.16-0 0.129-0.027 0.453 0.015zM22.537 24.954c-4.358 0-8.725 0-13.052 0 2.174-2.184 4.362-4.383 6.519-6.551 2.16 2.165 4.341 4.353 6.533 6.551z"></path>
</svg>
