<?xml version="1.0" encoding="utf-8"?>
<!-- Generated by IcoMoon.io -->
<!DOCTYPE svg PUBLIC "-//W3C//DTD SVG 1.1//EN" "http://www.w3.org/Graphics/SVG/1.1/DTD/svg11.dtd">
<svg version="1.1" xmlns="http://www.w3.org/2000/svg" xmlns:xlink="http://www.w3.org/1999/xlink" width="32" height="32" viewBox="0 0 32 32">
<path fill="#444444" d="M13.249 6.953c-2.833 0.351-4.585 1.184-4.794 2.293-0.038 0.18-0.038 1.184-0.019 2.236 0.038 1.573 0.066 1.971 0.208 2.226 0.152 0.294 0.152 0.341 0 0.739-0.142 0.369-0.152 0.654-0.104 2.188 0.038 0.966 0.114 1.904 0.18 2.075 0.085 0.237 0.085 0.369 0 0.559-0.142 0.303-0.152 2.975-0.019 3.78 0.057 0.379 0.18 0.673 0.36 0.9 0.843 1.052 3.079 1.677 6.366 1.781 4.083 0.133 7.2-0.635 7.939-1.952 0.199-0.341 0.208-0.493 0.208-2.226 0-1.468-0.028-1.933-0.151-2.226-0.123-0.313-0.123-0.417-0.028-0.597 0.085-0.161 0.114-0.71 0.095-2.018-0.019-1.876-0.047-2.151-0.256-2.454-0.104-0.152-0.095-0.227 0.019-0.464 0.123-0.227 0.152-0.644 0.142-2.302-0.009-1.175-0.057-2.15-0.123-2.33-0.256-0.786-1.393-1.506-2.937-1.876-1.895-0.445-4.964-0.587-7.086-0.332zM13.685 7.844c-0.028 0.047 0.502 0.057 1.213 0.028 1.052-0.038 3.827 0.123 3.733 0.218-0.019 0.019-0.445 0.076-0.957 0.133-0.521 0.057-1.023 0.152-1.137 0.208-0.189 0.104-0.189 0.114-0.028 0.237 0.161 0.114 0.151 0.123-0.095 0.18-0.777 0.161-1.279 0.36-1.459 0.587-0.455 0.578-0.057 1.156 0.919 1.364 0.739 0.152 3.657 0.057 4.462-0.142 0.891-0.227 1.345-0.483 1.345-0.767 0-0.388-0.569-0.673-1.942-0.957-0.73-0.142-0.265-0.171 0.644-0.028 0.9 0.142 1.63 0.417 1.866 0.72 0.171 0.227 0.189 0.379 0.189 2.027 0 2.037 0.019 1.989-0.909 2.416-1.345 0.635-3.534 0.872-7.333 0.805-0.72-0.019-0.777-0.028-0.578-0.142s0.133-0.133-0.663-0.18c-1.108-0.066-2.075-0.341-2.529-0.701-0.55-0.436-0.9-1.222-0.947-2.15-0.047-0.881 0.123-1.895 0.303-1.829 0.066 0.028 0.208-0.133 0.341-0.369 0.379-0.72 1.203-1.213 2.558-1.554 0.805-0.199 1.080-0.227 1.004-0.104zM10.123 14.949c0 0.388 0.189 0.549 0.928 0.767 2.672 0.805 8.697 0.701 10.421-0.18 0.351-0.18 0.398-0.237 0.398-0.53 0-0.36 0.095-0.417 0.322-0.18 0.18 0.18 0.171 0.019 0.151 1.98l-0.009 1.611-0.275 0.256c-0.587 0.54-2.624 0.966-5.116 1.080-3.088 0.142-6.622-0.464-7.162-1.232-0.104-0.152-0.133-0.559-0.133-1.847 0-1.402 0.019-1.677 0.161-1.828 0.218-0.246 0.313-0.208 0.313 0.104zM10.407 20.368c0.815 0.597 4.86 0.995 7.598 0.758 1.506-0.133 2.804-0.379 3.429-0.654 0.417-0.189 0.436-0.218 0.436-0.578 0-0.265 0.038-0.388 0.133-0.388 0.322 0 0.369 0.256 0.35 1.999-0.009 0.947-0.047 1.772-0.066 1.838-0.076 0.189-0.881 0.587-1.554 0.758-1.146 0.303-2.217 0.436-3.932 0.493-3.164 0.104-6.139-0.379-6.944-1.127-0.199-0.199-0.208-0.265-0.208-1.914 0-1.639 0.009-1.715 0.218-1.933l0.208-0.227 0.047 0.407c0.038 0.284 0.114 0.445 0.284 0.568z"></path>
</svg>
