<?xml version="1.0" encoding="utf-8"?>
<!-- Generated by IcoMoon.io -->
<!DOCTYPE svg PUBLIC "-//W3C//DTD SVG 1.1//EN" "http://www.w3.org/Graphics/SVG/1.1/DTD/svg11.dtd">
<svg version="1.1" xmlns="http://www.w3.org/2000/svg" xmlns:xlink="http://www.w3.org/1999/xlink" width="32" height="32" viewBox="0 0 32 32">
<path fill="#444444" d="M23.551 7.933c-0.062-0.061-0.125-0.122-0.189-0.182 0.063 0.060 0.125 0.121 0.189 0.182zM5.207 14.009c0 0-0.032 0.039-0.080 0.104-0.007 0.036-0.014 0.071-0.020 0.107 0.030-0.084 0.064-0.156 0.101-0.211zM8.386 8.874c0.021-0.021 0.041-0.042 0.061-0.063 0.958-0.958 2.074-1.711 3.316-2.236 1.286-0.544 2.652-0.82 4.061-0.82 1.33 0 2.621 0.246 3.844 0.731 0.714 0.123 1.665 0.361 2.458 0.812-1.779-1.264-3.954-2.006-6.302-2.006-3.044 0-5.797 1.249-7.774 3.262 0.092 0.112 0.203 0.22 0.335 0.32zM12.255 17.069c-0.076-0.063-0.141-0.131-0.196-0.201-0.019 0.156-0.031 0.323-0.031 0.499-0 0.328 0.041 0.681 0.153 1.032s0.294 0.698 0.581 1.021c0.191 0.215 0.43 0.42 0.728 0.605l-0.017 0.027c0.56 0.010 1.472-0.001 1.934-0.155 0.695-0.232 1.808-1.113 1.808-1.113 0.278-0.278 0.603-0.139 0.881-0.139s0.371-0.417 0-0.835c-0.371-0.417-1.669-0.835-2.643-0.185s-2.365 0.139-3.199-0.556zM12.927 10.95c-0.062 0.231-0.116 0.524-0.116 0.843 0 0.322 0.054 0.668 0.205 1.009 0.121 0.273 0.236 0.474 0.34 0.635 0.073 0.113 0.142 0.207 0.206 0.293 0.131-0.12 0.283-0.241 0.408-0.324 0.278-0.185 1.345-0.696 1.484-0.835s0.417-0.881 0.185-1.113c-0.232-0.232-1.716-0.093-2.179-0.185-0.195-0.039-0.382-0.177-0.533-0.323zM13.226 15.487c0.001 0.004 0.002 0.006 0.002 0.006 0.002-0.004 0.003-0.007 0.005-0.011l-0.007 0.005zM26.953 13.406c0 0.377-0.34 0.905-0.406 1.004 0.014-0.035 0.035-0.145 0.035-0.494 0-0.51 0.139-1.808-0.51-3.246s-1.623-2.133-1.623-2.133v0.325c-0.139-0.464-1.437-1.345-1.437-1.345v0.464c2.318 2.133 2.55 3.617 2.55 3.617-0.417-1.345-1.623-2.365-2.643-3.338s-3.153-1.484-3.153-1.484c2.272 1.298 3.385 3.338 3.385 3.338-1.159-1.113-2.087-1.020-2.087-1.020 0.696 0.51 1.020 1.066 1.669 2.087s0.603 3.431 0.603 3.431c-0.325-0.788-0.974-1.113-0.974-1.113s0.139 1.391 0.232 2.179c0.093 0.788-0.325 2.272-0.325 2.272 0-0.556-0.325-0.696-0.325-0.696s0.093 0.325-0.371 1.808c-0.464 1.484-1.345 1.994-1.484 1.947s0-0.278 0-0.278-0.232-0.185-0.556 0.325c-0.274 0.43-0.746 0.662-0.886 0.725 0.151-0.086 0.191-0.4 0.191-0.4s-0.325 0.185-1.808 0.417c-1.484 0.232-2.179-0.417-2.179-0.417 0.139-0.139 0.788 0 0.788 0 0-0.139-0.742-0.371-1.484-0.464-0.603-0.075-0.896-0.355-1.035-0.579-0.278-0.187-0.511-0.393-0.705-0.61-0.222-0.249-0.391-0.514-0.517-0.783-0.253-0.538-0.334-1.090-0.334-1.578 0-0.46 0.072-0.865 0.143-1.157s0.144-0.471 0.147-0.479v0l0.010 0.004c0.087-0.268 0.258-0.483 0.46-0.571-0.063-0.043-0.129-0.084-0.196-0.119-0.303-0.162-0.646-0.229-0.983-0.173-0.338 0.053-0.662 0.221-0.949 0.441-0.276 0.211-0.496 0.511-0.64 0.841-0.145 0.332-0.218 0.699-0.218 1.067s0.072 0.739 0.206 1.088c0.133 0.349 0.327 0.677 0.561 0.973s0.508 0.564 0.805 0.802c-0.31-0.221-0.6-0.473-0.854-0.761s-0.471-0.611-0.629-0.965c-0.159-0.354-0.257-0.738-0.279-1.131s0.033-0.793 0.173-1.167c0.14-0.374 0.362-0.724 0.677-0.995 0.153-0.128 0.319-0.244 0.499-0.34s0.376-0.171 0.582-0.213c0.206-0.042 0.421-0.050 0.632-0.021s0.414 0.093 0.603 0.183c0.189 0.090 0.364 0.204 0.524 0.333 0.080 0.065 0.156 0.134 0.229 0.207 0.036 0.036 0.072 0.074 0.107 0.113 0.029 0.033 0.056 0.063 0.085 0.1 0.165-0.428 0.049-1.144 0.022-1.294-0.087-0.124-0.211-0.28-0.351-0.503-0.105-0.168-0.219-0.375-0.336-0.637-0.182-0.411-0.245-0.824-0.245-1.197 0-0.436 0.085-0.819 0.169-1.095 0.026-0.085 0.052-0.16 0.076-0.224 0.262-1.14 1.517-2.261 1.517-2.261-1.762-0.232-2.967 1.391-2.967 1.391-0.005-0.003-0.010-0.006-0.015-0.009-0.125 0.138-0.549 0.634-0.588 1.029 0 0 0.015-0.71 0.192-1.206-0.672-0.214-1.464-0.102-1.869-0.018l0.003 0.015c-0.416 0.075-0.796 0.235-1.133 0.436s-0.631 0.444-0.873 0.679c-0.483 0.469-0.756 0.907-0.758 0.912v0l0 0-0.013-0.008c-0.853 1.237-1.39 3.874-1.39 3.874 0.093-0.417 0.51-0.927 0.51-0.927-0.464 0.696-0.371 3.895-0.371 3.895 0-0.51 0.278-1.113 0.278-1.113 0.093 1.066 0.556 4.498 3.57 7.094s5.564 2.829 5.564 2.829c-0.603-0.186-0.742-0.464-0.742-0.464 1.947 0.788 3.153 0.649 3.153 0.649-0.325-0.185-0.371-0.325-0.371-0.325 2.087 0.093 4.869-0.649 5.518-1.113s1.206-1.391 1.206-1.391c1.669-0.788 2.828-2.411 3.153-3.246s0-1.716 0-1.716 0-0.046 0.788-1.808c0.788-1.762-0-4.266-0-4.266zM7.485 9.458c0.196-0.117 0.407-0.223 0.632-0.311-0.893-0.744-0.823-1.723-0.823-1.723-0.893 0.862-1.111 2.318-1.157 3.198 0.013-0.015 0.025-0.030 0.038-0.045 0.302-0.348 0.743-0.78 1.31-1.12z"></path>
</svg>
