<?xml version="1.0" encoding="utf-8"?>
<!-- Generator: Adobe Illustrator 19.2.1, SVG Export Plug-In . SVG Version: 6.00 Build 0)  -->
<svg version="1.1" id="Layer_1" xmlns="http://www.w3.org/2000/svg" xmlns:xlink="http://www.w3.org/1999/xlink" x="0px" y="0px"
	 width="92px" height="92px" viewBox="0 0 92 92" enable-background="new 0 0 92 92" xml:space="preserve">
<path d="M42.8,46c0,1.7-1.3,3-3,3h-7.6c-1.7,0-3-1.3-3-3s1.3-3,3-3h7.6C41.5,43,42.8,44.3,42.8,46z M92,22.7v46.7
	c0,3.1-2.5,5.7-5.7,5.7h-9.6C60.3,75,50.4,66,47,62H5.7C2.6,62,0,59.4,0,56.3V35.6C0,32.4,2.6,30,5.7,30h41.2c3.4-4,13.3-13,29.8-13
	h9.6C89.5,17,92,19.5,92,22.7z M8,54h7V38H8V54z M71,66.6V25.4c-12,2-19.1,10.8-19.1,10.9c-0.8,1.1-1.7,1.7-3,1.7H21v16h27.8
	c1.3,0,2.3,0.6,3,1.7C52.1,56.1,59,64.6,71,66.6z M84,25h-7v42h7V25z"/>
</svg>
