<?xml version="1.0" encoding="utf-8"?>
<!-- Generator: Adobe Illustrator 19.2.1, SVG Export Plug-In . SVG Version: 6.00 Build 0)  -->
<svg version="1.1" id="Layer_1" xmlns="http://www.w3.org/2000/svg" xmlns:xlink="http://www.w3.org/1999/xlink" x="0px" y="0px"
	 width="92px" height="92px" viewBox="0 0 92 92" enable-background="new 0 0 92 92" xml:space="preserve">
<path id="XMLID_530_" d="M13,75c-0.3,0-0.7,0-1-0.1c-1.8-0.5-3-2-3-3.9c0-0.6,0.1-15.9,11.5-27.3c7.3-7.3,17.3-11.3,29.9-12V21
	c0-1.6,1-3.1,2.5-3.7c1.5-0.6,3.2-0.3,4.4,0.9l24.6,25c1.5,1.6,1.5,4.1,0,5.6l-24.6,25c-1.1,1.2-2.9,1.5-4.4,0.9
	c-1.5-0.6-2.5-2.1-2.5-3.7V60.2c-8-0.2-27,0.6-33.9,12.8C15.8,74.2,14.4,75,13,75z M48.2,52.1c3.7,0,6.3,0.3,6.6,0.3
	c2,0.2,3.6,1.9,3.6,4v4.8l15-15.2l-15-15.2v4.8c0,2.2-1.8,4-4,4c-12.3,0-21.8,3.3-28.2,9.8c-2.9,2.9-4.9,6.2-6.3,9.3
	C29.2,53.1,41,52.1,48.2,52.1z"/>
</svg>
