<?xml version="1.0" encoding="utf-8"?>
<!-- Generator: Adobe Illustrator 19.2.1, SVG Export Plug-In . SVG Version: 6.00 Build 0)  -->
<svg version="1.1" id="Layer_1" xmlns="http://www.w3.org/2000/svg" xmlns:xlink="http://www.w3.org/1999/xlink" x="0px" y="0px"
	 width="92px" height="92px" viewBox="0 0 92 92" enable-background="new 0 0 92 92" xml:space="preserve">
<path id="XMLID_1173_" d="M60.8,30.9c0.8,0.8,1.3,2,1.3,3.2c0,1.2-0.5,2.3-1.3,3.2c-0.8,0.8-2,1.3-3.2,1.3c-1.2,0-2.4-0.5-3.2-1.3
	c-0.8-0.8-1.3-2-1.3-3.2s0.5-2.3,1.3-3.2c0.8-0.8,2-1.3,3.2-1.3C58.8,29.6,60,30.1,60.8,30.9z M67.8,37.2c-1.2,0-2.3,0.5-3.2,1.3
	c-0.8,0.8-1.3,2-1.3,3.2c0,1.2,0.5,2.4,1.3,3.2c0.8,0.8,2,1.3,3.2,1.3c1.2,0,2.4-0.5,3.2-1.3c0.8-0.8,1.3-2,1.3-3.2
	c0-1.2-0.5-2.3-1.3-3.2C70.2,37.7,69,37.2,67.8,37.2z M33.8,35H31v-2.6c0-1.4-1.1-2.5-2.5-2.5S26,31,26,32.4V35h-2.6
	c-1.4,0-2.5,1.1-2.5,2.5s1.1,2.5,2.5,2.5H26v2.6c0,1.4,1.1,2.5,2.5,2.5S31,44,31,42.6V40h2.8c1.4,0,2.5-1.1,2.5-2.5S35.2,35,33.8,35
	z M92,66.1c0,4.3-2.4,7.8-6.2,9.3c-3.8,1.4-9.8,0.8-15.2-5.3c-2.6-3-7-8.4-9.4-11.4c-12.8,3-25,1.1-30.3,0c-2.4,3-6.8,8.4-9.4,11.4
	c-3.9,4.4-8.1,6-11.6,6c-1.4,0-2.6-0.2-3.7-0.6c-3.8-1.4-6.2-5-6.2-9.3c0-11.8,7.6-30.3,10-35.8c-0.8-2.8-0.5-5.7,1-8.3
	c1.9-3.3,5.3-5.8,8.3-6c2.6-0.2,6.1,1.3,8.4,2.4c4.5-0.8,18.7-2.9,36.6,0c2.2-1.1,5.8-2.6,8.4-2.4c2.9,0.2,6.4,2.7,8.3,6
	c1.5,2.6,1.9,5.5,1,8.3C84.4,35.8,92,54.3,92,66.1z M84,66.1c0-11.9-9.9-33.9-10-34.1c-0.5-1.1-0.5-2.4,0.1-3.5
	c0.4-0.8,0.4-1.5,0.1-2.2c-0.5-1.2-1.7-2.1-2.2-2.3c-0.9,0.1-3.3,1.1-5.2,2.1c-0.8,0.4-1.7,0.6-2.6,0.4c-20.5-3.6-36.2-0.1-36.3,0
	c-0.9,0.2-1.9,0.1-2.8-0.4c-1.9-1-4.3-2-5.2-2.1c-0.5,0.3-1.7,1.1-2.2,2.3c-0.3,0.8-0.3,1.4,0.1,2.2c0.5,1.1,0.6,2.4,0.1,3.5
	C17.9,32.2,8,54.2,8,66.1c0,0.9,0.4,1.5,1,1.8c1.4,0.5,3.9-0.3,6.4-3.1c3.5-4,10.7-13,10.8-13.1c1-1.3,2.7-1.8,4.2-1.3
	c0.2,0,15.8,4.4,31.1,0c0.4-0.1,0.7-0.2,1.1-0.2c1.2,0,2.4,0.5,3.1,1.5c0.1,0.1,7.3,9.1,10.8,13.1c2.5,2.9,5,3.7,6.4,3.1
	C83.6,67.6,84,67,84,66.1z"/>
</svg>
