<?xml version="1.0" encoding="utf-8"?>
<!-- Generated by IcoMoon.io -->
<!DOCTYPE svg PUBLIC "-//W3C//DTD SVG 1.1//EN" "http://www.w3.org/Graphics/SVG/1.1/DTD/svg11.dtd">
<svg version="1.1" xmlns="http://www.w3.org/2000/svg" xmlns:xlink="http://www.w3.org/1999/xlink" width="32" height="32" viewBox="0 0 32 32">
<path fill="#444444" d="M14.006 11.401l-0.457 0.067v7.452h1.211v-3.753l0.209-0.175c0.114-0.101 0.303-0.229 0.417-0.289 0.296-0.148 0.854-0.148 1.083 0.007 0.35 0.222 0.377 0.41 0.377 2.394v1.816h1.278v-1.802c0-1.95-0.054-2.354-0.363-2.811-0.531-0.787-1.782-0.928-2.65-0.296-0.155 0.108-0.296 0.202-0.316 0.202-0.014 0-0.040-0.646-0.047-1.433-0.020-1.634 0.054-1.493-0.74-1.379zM29.636 12.188c-0.161 0.027-0.316 0.087-0.343 0.135-0.034 0.047-0.094 0.343-0.134 0.666-0.114 0.814-0.121 0.821-0.343 0.821-0.39 0-0.518 0.101-0.632 0.491-0.060 0.202-0.108 0.39-0.108 0.41s0.215 0.040 0.471 0.040h0.471v1.446c0 0.794 0.034 1.594 0.074 1.789 0.188 0.874 1.244 1.251 2.26 0.8l0.283-0.128-0.101-0.357c-0.061-0.195-0.121-0.37-0.135-0.383-0.013-0.020-0.188 0.007-0.377 0.054-0.316 0.067-0.37 0.067-0.525-0.047l-0.168-0.128-0.020-1.526-0.014-1.52h1.211v-1.009h-1.204l-0.020-0.794c-0.020-0.895 0-0.868-0.646-0.76zM0.366 14.111v0.505h3.161v-1.009h-3.161v0.504zM4.67 14.111v0.505h1.009v-1.009h-1.009v0.504zM9.675 13.681c-0.148 0.034-0.437 0.161-0.639 0.282-0.289 0.168-0.397 0.296-0.558 0.605-0.377 0.733-0.229 1.735 0.33 2.179l0.215 0.175-0.249 0.249c-0.309 0.309-0.397 0.672-0.242 1.029 0.054 0.134 0.155 0.276 0.222 0.323 0.121 0.074 0.101 0.101-0.222 0.431-0.39 0.39-0.478 0.632-0.404 1.137 0.067 0.417 0.41 0.8 0.901 0.989 0.323 0.128 0.518 0.155 1.19 0.155 1.776 0.007 2.784-0.673 2.791-1.883 0-0.505-0.168-0.794-0.599-1.009-0.37-0.182-0.598-0.222-1.775-0.296-0.525-0.034-0.975-0.094-1.029-0.141-0.054-0.040-0.094-0.161-0.094-0.262 0-0.316 0.161-0.383 0.942-0.417 1.022-0.040 1.56-0.309 1.903-0.962 0.114-0.215 0.141-0.377 0.134-0.807-0.007-0.296-0.020-0.612-0.034-0.706-0.020-0.148 0.013-0.175 0.269-0.235l0.289-0.061-0.020-0.403c-0.027-0.511-0.101-0.538-0.699-0.242-0.39 0.188-0.437 0.202-0.578 0.108-0.404-0.262-1.406-0.377-2.045-0.235zM10.878 14.575c0.356 0.148 0.478 0.336 0.504 0.814 0.027 0.403 0.020 0.43-0.208 0.679-0.222 0.242-0.256 0.256-0.693 0.282-0.552 0.027-0.854-0.121-1.009-0.491-0.37-0.895 0.477-1.681 1.406-1.285zM11.632 19.081c0.484 0.208 0.343 0.8-0.269 1.116-0.283 0.141-0.424 0.168-0.942 0.168-0.713 0-1.002-0.121-1.143-0.464-0.121-0.289-0.027-0.652 0.222-0.854 0.175-0.134 0.229-0.141 1.042-0.101 0.498 0.020 0.955 0.081 1.090 0.134zM20.409 13.714c-1.117 0.296-1.755 1.238-1.755 2.583 0 0.726 0.134 1.217 0.477 1.715 0.861 1.251 3.181 1.285 4.123 0.061 0.686-0.895 0.713-2.522 0.054-3.484-0.552-0.8-1.782-1.17-2.899-0.874zM21.613 14.616c0.572 0.161 0.881 0.753 0.881 1.682 0 0.282-0.047 0.666-0.101 0.847-0.343 1.157-1.957 1.19-2.347 0.047-0.141-0.41-0.141-1.379-0.007-1.782 0.229-0.666 0.881-0.995 1.574-0.794zM25.453 13.708c-0.807 0.229-1.224 0.733-1.224 1.466 0 0.821 0.343 1.19 1.419 1.527 0.746 0.235 0.989 0.37 1.089 0.626 0.114 0.269-0.027 0.518-0.343 0.632-0.276 0.101-0.995 0.061-1.466-0.087-0.505-0.148-0.538-0.141-0.659 0.289-0.108 0.363-0.108 0.383 0.013 0.471 0.437 0.316 1.843 0.431 2.509 0.195 0.7-0.242 1.143-0.827 1.15-1.5 0-0.787-0.336-1.137-1.446-1.5-0.256-0.087-0.585-0.209-0.72-0.276-0.41-0.209-0.505-0.531-0.235-0.794 0.229-0.209 0.72-0.249 1.352-0.108 0.289 0.061 0.558 0.101 0.599 0.081 0.047-0.020 0.128-0.188 0.175-0.383 0.088-0.33 0.081-0.363-0.034-0.451-0.343-0.249-1.574-0.356-2.179-0.188zM0.366 16.263v0.504h5.313v-1.009h-5.313v0.504zM0.366 18.382v0.471h2.085v-0.942h-2.085v0.471zM3.594 18.382v0.471h2.085v-0.942h-2.085v0.471z"></path>
</svg>
