<?xml version="1.0" encoding="utf-8"?>
<!-- Generated by IcoMoon.io -->
<!DOCTYPE svg PUBLIC "-//W3C//DTD SVG 1.1//EN" "http://www.w3.org/Graphics/SVG/1.1/DTD/svg11.dtd">
<svg version="1.1" xmlns="http://www.w3.org/2000/svg" xmlns:xlink="http://www.w3.org/1999/xlink" width="32" height="32" viewBox="0 0 32 32">
<path fill="#444444" d="M26.852 15.281l-9.848-9.848c-0.567-0.567-1.487-0.567-2.054 0l-2.045 2.045 2.594 2.594c0.603-0.204 1.294-0.067 1.775 0.413 0.483 0.483 0.619 1.181 0.41 1.786l2.5 2.5c0.605-0.209 1.303-0.074 1.786 0.41 0.675 0.675 0.675 1.769 0 2.444s-1.769 0.675-2.445 0c-0.508-0.508-0.633-1.254-0.376-1.88l-2.332-2.332v6.136c0.164 0.082 0.32 0.19 0.457 0.327 0.675 0.675 0.675 1.769 0 2.445-0.675 0.675-1.77 0.675-2.444 0-0.675-0.676-0.675-1.77 0-2.445 0.167-0.167 0.36-0.293 0.566-0.377v-6.193c-0.206-0.084-0.399-0.209-0.566-0.377-0.511-0.511-0.634-1.262-0.372-1.889l-2.557-2.558-6.753 6.752c-0.567 0.568-0.567 1.488 0 2.055l9.849 9.848c0.567 0.567 1.486 0.567 2.054 0l9.802-9.802c0.567-0.567 0.567-1.488 0-2.055z"></path>
</svg>
