<?xml version="1.0" encoding="utf-8"?>
<!-- Generated by IcoMoon.io -->
<!DOCTYPE svg PUBLIC "-//W3C//DTD SVG 1.1//EN" "http://www.w3.org/Graphics/SVG/1.1/DTD/svg11.dtd">
<svg version="1.1" xmlns="http://www.w3.org/2000/svg" xmlns:xlink="http://www.w3.org/1999/xlink" width="34" height="32" viewBox="0 0 34 32">
<path fill="#444444" d="M29.308 14.846c-0.621-1.089-1.25-2.173-1.879-3.257-0.378-0.651-0.743-1.309-1.136-1.951-0.014-0.030-0.025-0.060-0.041-0.089-0.708-1.228-1.415-2.458-2.127-3.684-0.451-0.777-1.136-1.172-2.032-1.173-3.46-0.005-6.92-0.002-10.38-0.001-0.111 0-0.224 0.005-0.333 0.022-0.726 0.117-1.284 0.488-1.654 1.126-0.806 1.391-1.608 2.785-2.412 4.177-0.172 0.298-0.34 0.597-0.51 0.895 0 0 0 0 0 0-0.045 0.065-0.089 0.13-0.112 0.208-0.044 0.021-0.058 0.066-0.080 0.104-0.084 0.145-0.165 0.292-0.249 0.438-0.233 0.402-0.467 0.803-0.7 1.205-0.212 0.366-0.426 0.731-0.634 1.099-0.21 0.371-0.445 0.727-0.626 1.113-0.177 0.378-0.23 0.778-0.182 1.195 0.033 0.284 0.114 0.553 0.248 0.8 0.229 0.419 0.478 0.826 0.716 1.239 0.229 0.397 0.455 0.796 0.684 1.192 0.255 0.441 0.514 0.88 0.769 1.321 0.212 0.366 0.418 0.735 0.629 1.101 0.255 0.441 0.515 0.88 0.769 1.321 0.237 0.41 0.468 0.824 0.705 1.235 0.284 0.492 0.575 0.979 0.854 1.473 0.196 0.347 0.41 0.676 0.74 0.913 0.368 0.264 0.774 0.437 1.23 0.438 1.927 0.006 3.855 0.003 5.782 0.003 0.144 0 0.289-0.004 0.433-0.006 0.029 0.002 0.059 0.007 0.088 0.007 1.435 0 2.869-0 4.304 0.001 0.115 0 0.23-0.006 0.343-0.027 0.7-0.132 1.237-0.501 1.593-1.119 1.736-3.004 3.472-6.006 5.202-9.013 0.439-0.763 0.431-1.542-0.004-2.306zM6.478 16.572c-0.306 0.012-0.584-0.259-0.582-0.573 0.002-0.289 0.26-0.584 0.57-0.552 0.283-0.031 0.547 0.257 0.562 0.518 0.020 0.348-0.277 0.595-0.55 0.606zM22.146 6.385c0.31 0.001 0.562 0.254 0.562 0.564 0 0.316-0.25 0.569-0.566 0.571-0.307 0.002-0.56-0.252-0.561-0.565-0.001-0.318 0.25-0.571 0.565-0.57zM11.7 6.385c0.307 0.003 0.564 0.263 0.56 0.569-0.003 0.309-0.257 0.563-0.565 0.565-0.311 0.002-0.572-0.26-0.57-0.57 0.002-0.313 0.261-0.567 0.575-0.564zM11.684 25.627c-0.305 0.004-0.542-0.233-0.562-0.55-0.017-0.281 0.212-0.595 0.571-0.588 0.325 0.006 0.59 0.305 0.551 0.567 0.021 0.328-0.261 0.568-0.561 0.572zM22.138 25.618c-0.313-0.002-0.559-0.249-0.558-0.564 0-0.319 0.249-0.565 0.569-0.564 0.315 0.001 0.562 0.254 0.559 0.574-0.002 0.31-0.255 0.555-0.57 0.553zM24.651 16.156c-0.211 0.344-0.407 0.697-0.609 1.047-0.582 1.010-1.165 2.018-1.747 3.027-0.448 0.776-0.896 1.552-1.343 2.328-0.044 0.076-0.106 0.146-0.117 0.238-0.003-0.005-0.008-0.010-0.015-0.015-0.057-0.019-0.117-0.012-0.176-0.012-2.473-0-4.945-0-7.418-0-0.036 0-0.072-0.002-0.108 0-0.079 0.006-0.127-0.031-0.166-0.098-0.318-0.552-0.637-1.103-0.955-1.655-0.539-0.936-1.080-1.871-1.62-2.806-0.425-0.737-0.851-1.472-1.275-2.21-0.001-0.002-0.003-0.005-0.004-0.007 0.024-0.015 0.034-0.042 0.047-0.065 0.361-0.614 0.711-1.233 1.069-1.848 0.021-0.037 0.050-0.073 0.040-0.121 0.009-0.001 0.018-0.004 0.028-0.010 0.035-0.031 0.055-0.073 0.078-0.112 0.853-1.482 1.71-2.961 2.561-4.444 0.064-0.111 0.136-0.146 0.258-0.145 0.735 0.005 1.47 0.002 2.206 0.002 1.766 0 3.532 0 5.297-0.001 0.056 0 0.114 0.012 0.166-0.021-0.006 0.014-0.003 0.032 0.005 0.051 0.016 0.036 0.036 0.070 0.055 0.104 0.641 1.111 1.284 2.222 1.925 3.334 0.605 1.049 1.21 2.098 1.82 3.145 0.066 0.112 0.058 0.192-0.005 0.295zM27.364 16.57c-0.311-0.003-0.558-0.254-0.559-0.567-0-0.317 0.252-0.567 0.569-0.564 0.314 0.003 0.559 0.251 0.558 0.565-0 0.317-0.253 0.569-0.569 0.566z"></path>
<path fill="#444444" d="M16.924 12.603c-1.868-0.006-3.424 1.539-3.401 3.403-0.018 1.859 1.507 3.4 3.385 3.399 1.903-0.001 3.406-1.502 3.412-3.398 0.007-1.908-1.553-3.398-3.396-3.404z"></path>
</svg>
