<?xml version="1.0" encoding="utf-8"?>
<!-- Generated by IcoMoon.io -->
<!DOCTYPE svg PUBLIC "-//W3C//DTD SVG 1.1//EN" "http://www.w3.org/Graphics/SVG/1.1/DTD/svg11.dtd">
<svg version="1.1" xmlns="http://www.w3.org/2000/svg" xmlns:xlink="http://www.w3.org/1999/xlink" width="32" height="32" viewBox="0 0 32 32">
<path fill="#444444" d="M27.028 25.367c0 1.071-0.876 1.947-1.947 1.947h-18.163c-1.071 0-1.947-0.876-1.947-1.947v-18.163c0-1.071 0.876-1.947 1.947-1.947h18.163c1.071 0 1.947 0.876 1.947 1.947v18.163zM27.028 12.187l-1.992-1.342c0.040-0.172 0.064-0.351 0.064-0.536 0-1.294-1.049-2.344-2.344-2.344s-2.344 1.049-2.344 2.344c0 0.509 0.164 0.979 0.44 1.364l-4.307 6.586c-0.175-0.042-0.358-0.067-0.546-0.067-0.577 0-1.104 0.209-1.513 0.555l-2.883-1.659c0.015-0.106 0.025-0.213 0.025-0.323 0-1.294-1.049-2.344-2.344-2.344s-2.344 1.049-2.344 2.344c0 0.321 0.065 0.627 0.182 0.906l-2.153 1.997v2.125l3.198-2.967c0.332 0.18 0.712 0.282 1.116 0.282 0.62 0 1.182-0.242 1.601-0.636l2.813 1.619c-0.028 0.144-0.043 0.292-0.043 0.444 0 1.294 1.049 2.343 2.344 2.343s2.344-1.049 2.344-2.343c0-0.539-0.184-1.034-0.49-1.43l4.277-6.54c0.2 0.055 0.409 0.087 0.626 0.087 0.543 0 1.041-0.186 1.439-0.496l2.833 1.909v-1.878z"></path>
</svg>
