<?xml version="1.0" encoding="utf-8"?>
<!-- Generator: Adobe Illustrator 19.2.1, SVG Export Plug-In . SVG Version: 6.00 Build 0)  -->
<svg version="1.1" id="Layer_1" xmlns="http://www.w3.org/2000/svg" xmlns:xlink="http://www.w3.org/1999/xlink" x="0px" y="0px"
	 width="92px" height="92px" viewBox="0 0 92 92" enable-background="new 0 0 92 92" xml:space="preserve">
<path id="XMLID_1157_" d="M6,82c-0.9,0-1.8-0.2-2.6-0.7c-2.4-1.4-3.1-4.5-1.7-6.9L13.9,54c0.9-1.4,2.4-2.4,4.1-2.4
	c1.7-0.1,3.3,0.7,4.3,2.1l5.2,7.2l11-18.8c0.8-1.4,2.4-2.4,4-2.5c1.7-0.1,3.3,0.7,4.3,2l9.6,12.9l25.3-42c1.4-2.4,4.5-3.1,6.9-1.7
	c2.4,1.4,3.1,4.5,1.7,6.9L61.2,66c-0.9,1.4-2.4,2.3-4,2.4c-1.7,0.1-3.3-0.7-4.3-2l-9.6-12.8L32.2,72.4c-0.9,1.5-2.4,2.4-4.1,2.5
	c-1.7,0.1-3.3-0.7-4.3-2.1l-5.2-7.2l-8.3,13.9C9.4,81.1,7.7,82,6,82z"/>
</svg>
