<?xml version="1.0" encoding="utf-8"?>
<!-- Generated by IcoMoon.io -->
<!DOCTYPE svg PUBLIC "-//W3C//DTD SVG 1.1//EN" "http://www.w3.org/Graphics/SVG/1.1/DTD/svg11.dtd">
<svg version="1.1" xmlns="http://www.w3.org/2000/svg" xmlns:xlink="http://www.w3.org/1999/xlink" width="32" height="32" viewBox="0 0 32 32">
<path fill="#444444" d="M15.997 12.861v0.001c0.001 0 0.002-0 0.004-0s0.002 0 0.004 0v-0.001c0.639-0.007 1.365-0.893 1.365-0.893-0.499 0.302-0.944 0.406-1.369 0.416-0.425-0.009-0.87-0.114-1.369-0.416-0 0 0.726 0.886 1.365 0.893zM14.391 24.431h-0.321c-0.335 0-0.726 0-0.959 0l-0.195 0c-0.274 0-0.41 0.078-0.475 0.144-0.095 0.096-0.109 0.229-0.044 0.395 0.174 0.445 0.57 0.809 0.687 0.91 0.153 0.132 0.373 0.211 0.589 0.211 0.222 0 0.418-0.080 0.553-0.224 0.377-0.403 0.599-0.836 0.653-0.969 0.031-0.076 0.066-0.221-0.044-0.334-0.086-0.088-0.236-0.133-0.444-0.133zM9.447 12.943c-0.057 0.503 0.262 0.96 0.262 0.96 0.033-0.374 0.111-0.64 0.202-0.83 0.022 0.516 0.159 1.179 0.64 1.711 0.345 0.382 1.784 1.171 2.75 0.306 0.050 0.122 0.104 0.267 0.148 0.424 0.146 0.514-0.133 1.266-0.133 1.266s0.755-0.855 0.696-1.63c0.542-0.024 1.074-0.422 1.059-0.978 0 0-0.945 0.522-1.78-0.439-0.487-0.561-2.049-2.106-4.168-1.593 0.218 0.048 0.446 0.119 0.679 0.207-0.002 0.001-0.004 0.001-0.006 0.002-0.205 0.090-0.32 0.345-0.349 0.593zM10.869 12.852c0.979 0.55 1.877 1.287 2.251 1.856h-0c0 0 0.001 0.001 0.001 0.002-0.288 0.167-1.087 0.523-1.903-0.083-0.521-0.388-0.498-1.32-0.349-1.774zM19.085 24.432l-0.195-0c-0.233-0-0.624-0-0.959-0h-0.321c-0.209 0-0.358 0.045-0.444 0.133-0.11 0.114-0.075 0.258-0.045 0.334 0.054 0.133 0.277 0.567 0.653 0.969 0.135 0.144 0.331 0.224 0.553 0.224 0.216 0 0.436-0.078 0.589-0.211 0.117-0.101 0.513-0.464 0.687-0.91 0.065-0.166 0.050-0.3-0.044-0.395-0.065-0.066-0.2-0.144-0.474-0.144zM17.989 15.15c-0.058 0.775 0.696 1.63 0.696 1.63s-0.279-0.752-0.133-1.266c0.045-0.157 0.098-0.302 0.148-0.424 0.966 0.865 2.405 0.076 2.75-0.306 0.481-0.532 0.619-1.196 0.64-1.712 0.091 0.19 0.169 0.456 0.202 0.83 0 0 0.319-0.457 0.262-0.96-0.028-0.248-0.143-0.503-0.348-0.593-0.002-0.001-0.004-0.001-0.006-0.002 0.233-0.088 0.461-0.159 0.679-0.207-2.118-0.514-3.68 1.032-4.168 1.593-0.835 0.96-1.78 0.439-1.78 0.439-0.015 0.556 0.517 0.955 1.059 0.978zM18.88 14.709c0-0 0-0 0-0 0.374-0.569 1.273-1.306 2.251-1.856 0.149 0.455 0.172 1.387-0.349 1.774-0.816 0.606-1.616 0.25-1.903 0.083 0-0 0.001-0.001 0.001-0.001zM23.883 19.358c-0.12 0.896-0.653 1.697-1.232 2.193-0.154-1.139-0.186-2.783-0.186-3.128 0-0.737 0.476-1.229 0.611-1.307 0.127-0.074 0.269-0.149 0.417-0.229 0.902-0.483 2.026-1.084 2.026-2.193 0-0.81-0.466-1.162-0.774-1.394-0.039-0.029-0.075-0.057-0.108-0.083-0.104-0.084-0.187-0.151-0.217-0.218-0.218-0.491-0.178-1.717-0.084-1.886 0.028-0.032 0.839-1.049 0.59-1.963-0.102-0.373-0.346-0.667-0.707-0.852-0.266-0.136-0.595-0.212-0.979-0.226-0.005-0.099-0.025-0.197-0.046-0.294-0.028-0.131-0.058-0.266-0.046-0.404 0.020-0.233 0.038-0.453 0.108-0.564 0.424-0.668 1.446-0.882 1.456-0.884l0.615-0.12-0.407-0.476c-0.007-0.009-0.866-0.876-2.321-0.876-0.397 0-0.803 0.066-1.207 0.196-1.215 0.392-2.149 1.529-2.474 1.968-0.157-0.049-0.318-0.094-0.48-0.134-0.21-0.792 0.449-1.929 0.449-1.929s-0.679-0.151-1.687 0.764c-0.131-0.326-0.405-1.028-0.088-1.867-1.477 0.522-1.85 1.318-1.961 2.040-0.38-0.272-0.338-1.156-0.359-1.383-0.378 0.045-1.462 1.097-1.413 2.422-0.099 0.027-0.197 0.055-0.294 0.086-0.325-0.44-1.259-1.577-2.474-1.969-0.404-0.131-0.81-0.197-1.207-0.197-1.454 0-2.313 0.867-2.321 0.876l-0.407 0.476 0.615 0.12c0.010 0.002 1.033 0.216 1.456 0.884 0.070 0.111 0.089 0.331 0.108 0.564 0.012 0.139-0.018 0.274-0.046 0.404-0.021 0.097-0.042 0.195-0.047 0.295-0.384 0.014-0.713 0.090-0.979 0.226-0.361 0.185-0.606 0.479-0.707 0.852-0.249 0.913 0.562 1.93 0.59 1.963 0.095 0.169 0.135 1.395-0.084 1.886-0.030 0.068-0.112 0.134-0.217 0.218-0.033 0.026-0.069 0.054-0.108 0.083-0.308 0.233-0.774 0.584-0.774 1.394 0 1.108 1.123 1.709 2.026 2.193 0.148 0.080 0.289 0.155 0.417 0.229 0.135 0.078 0.611 0.57 0.611 1.307 0 0.345-0.032 1.989-0.186 3.128-0.579-0.496-1.113-1.297-1.233-2.193 0 0-1.465 1.131-1.035 3.551 0.391 2.198 2.183 2.963 4.263 3.125 0.697 1.625 1.803 3.083 4.651 3.085v0c0.001 0 0.002-0 0.004-0s0.002 0 0.004 0v-0c2.848-0.002 3.954-1.461 4.651-3.085 2.080-0.161 3.871-0.926 4.263-3.125 0.431-2.42-1.035-3.551-1.035-3.551zM21.701 5.342c0.283-0.091 0.58-0.138 0.885-0.138 0.552 0 1 0.15 1.238 0.251-0.154 0.069-0.321 0.158-0.486 0.267-0.121-0.021-0.278-0.039-0.461-0.039-0.527 0-1.025 0.155-1.441 0.447-0.618 0.434-0.904 0.848-1.035 1.121-0.11-0.063-0.227-0.126-0.354-0.188-0.078-0.038-0.158-0.075-0.238-0.111 0.308-0.45 0.998-1.323 1.892-1.611zM22.752 6.256c-0.040 0.052-0.079 0.105-0.114 0.162-0.166 0.262-0.193 0.583-0.219 0.893-0.027 0.322-0.054 0.628-0.219 0.85-0.209 0.039-0.405 0.087-0.575 0.134-0.113-0.157-0.282-0.351-0.527-0.559 0.072-0.241 0.277-0.809 0.679-1.129 0.275-0.219 0.604-0.336 0.976-0.351zM8.663 5.723c-0.165-0.11-0.332-0.198-0.486-0.268 0.238-0.101 0.686-0.251 1.238-0.251 0.305 0 0.603 0.046 0.886 0.137 0.894 0.288 1.584 1.161 1.892 1.612-0.080 0.036-0.16 0.073-0.239 0.111-0.126 0.062-0.244 0.124-0.354 0.187-0.132-0.273-0.418-0.687-1.035-1.121-0.416-0.292-0.915-0.447-1.441-0.447-0.182 0-0.34 0.018-0.46 0.039zM10.903 7.736c-0.245 0.208-0.413 0.402-0.527 0.56-0.171-0.047-0.366-0.095-0.575-0.134l-0.553-1.905c0.372 0.015 0.701 0.132 0.976 0.351l0.679 1.129zM9.29 16.483c-0.136-0.078-0.278-0.155-0.422-0.233-0.745-0.402-1.515-0.819-1.515-1.529 0-0.556 0.216-0.73 0.445-0.914l0.14-0.159c-0.048 0.383-0.1 0.714-0.141 0.796 0 0 0.608-0.754 0.789-2.223 0.071-0.578-0.055-1.719-0.256-2.158 0.008 0.244 0.001 0.489-0.016 0.72-0.020-0.041-0.041-0.078-0.065-0.108-0.161-0.201-0.593-0.878-0.469-1.333 0.047-0.174 0.157-0.302 0.335-0.393 0.188-0.097 0.443-0.145 0.756-0.145 0.615 0 1.298 0.187 1.65 0.299 1.258 0.399 2.776 1.548 3.211 1.891 0.012 0.010 0.020 0.015 0.021 0.016l0.278 0.194-0.174-0.291c-0.010-0.017-0.958-1.573-2.665-2.331 0.101-0.145 0.368-0.408 1.082-0.755 1.075-0.524 2.329-0.79 3.726-0.79s2.651 0.266 3.726 0.79c0.713 0.348 0.981 0.611 1.082 0.756-1.707 0.758-2.654 2.314-2.664 2.331l-0.174 0.291 0.279-0.194c0.001-0.001 0.009-0.007 0.021-0.016 0.435-0.343 1.953-1.492 3.211-1.891 0.352-0.111 1.035-0.299 1.65-0.299 0.314 0 0.568 0.049 0.756 0.145 0.178 0.091 0.287 0.22 0.335 0.393 0.124 0.455-0.308 1.132-0.469 1.333-0.024 0.030-0.045 0.067-0.065 0.108-0.017-0.232-0.025-0.476-0.016-0.721-0.201 0.439-0.327 1.579-0.256 2.158 0.18 1.468 0.788 2.223 0.788 2.223-0.039-0.079-0.088-0.386-0.135-0.748 0.037 0.032 0.074 0.062 0.11 0.091l0.025 0.020c0.229 0.184 0.445 0.358 0.445 0.914 0 0.711-0.77 1.127-1.515 1.529-0.144 0.078-0.286 0.155-0.422 0.233-0.435 0.251-0.903 0.838-0.956 1.714-0.044 0.733 0.044 2.502 0.171 3.803-0.624 0.241-1.339 0.321-1.99 0.34-0.102-0.207-0.197-0.428-0.275-0.659-0.034-0.098-0.982-2.56-1.323-3.12 0.274 1.955 0.878 3.693 1.178 4.492-0.173-0.024-0.367-0.037-0.587-0.037 0 0-2.082-0.001-2.926-0.002-0.001 0-0.003 0-0.004 0 0 0-0.003 0-0.004 0-0.843 0.001-2.926 0.002-2.926 0.002-0.22 0-0.414 0.014-0.587 0.037 0.3-0.799 0.905-2.537 1.178-4.492-0.341 0.561-1.289 3.022-1.323 3.12-0.079 0.23-0.174 0.452-0.275 0.659-0.65-0.019-1.365-0.098-1.989-0.34 0.127-1.301 0.215-3.069 0.171-3.803-0.052-0.876-0.521-1.463-0.956-1.714zM11.309 23.555c-0.026 0.025-0.050 0.049-0.072 0.073-0.362 0.391-0.431 0.929-0.205 1.598-1.131-0.018-2.313-0.502-2.914-1.49-0.609-1.001-0.438-2.711-0.188-2.961 0.547 1.726 2.367 2.219 3.729 2.278-0.134 0.21-0.259 0.381-0.35 0.502zM20.255 25.18c-0.331 0.947-1.22 3.241-4.255 3.245-3.036-0.004-3.925-2.297-4.255-3.245-0.183-0.526-0.169-0.915 0.043-1.156 0.145-0.165 0.477-0.362 1.235-0.362l0.792-0c0.584-0 1.317-0.001 2.186-0.001s1.602 0.001 2.186 0.001l0.791 0c0.758 0 1.090 0.197 1.236 0.362 0.211 0.242 0.226 0.631 0.043 1.156zM23.883 23.736c-0.601 0.988-1.783 1.472-2.914 1.49 0.226-0.669 0.157-1.207-0.205-1.598-0.023-0.025-0.047-0.049-0.073-0.074-0.092-0.121-0.215-0.292-0.349-0.5 1.363-0.060 3.183-0.553 3.729-2.278 0.25 0.25 0.421 1.96-0.188 2.961z"></path>
</svg>
