<?xml version="1.0" encoding="utf-8"?>
<!-- Generated by IcoMoon.io -->
<!DOCTYPE svg PUBLIC "-//W3C//DTD SVG 1.1//EN" "http://www.w3.org/Graphics/SVG/1.1/DTD/svg11.dtd">
<svg version="1.1" xmlns="http://www.w3.org/2000/svg" xmlns:xlink="http://www.w3.org/1999/xlink" width="32" height="32" viewBox="0 0 32 32">
<path fill="#444444" d="M27.193 16.806c0-1.75-0.409-3.4-1.132-4.851 0.203-0.544 0.444-1.287 0.705-2.288 0.843-3.236-1.097-5.163-4.073-4.848-1.808 0.191-3.51 0.707-5.155 1.479-0.133-0.005-0.266-0.009-0.4-0.009-4.951 0-9.066 3.742-9.901 8.67 2.069-3.125 5.086-4.782 5.086-4.782-2.060 2.258-3.837 4.479-5.157 6.82-0.025 0.042-0.050 0.084-0.074 0.128-1.101 1.983-1.872 4.055-2.204 6.311-0.455 3.093 1.031 4.745 4.205 4.271 1.091-0.163 3.067-1.16 3.627-1.45 1.334 0.683 2.833 1.068 4.418 1.068 4.378 0 8.102-2.927 9.483-7.012h-5.443c-0.772 1.409-2.224 2.359-3.888 2.359-2.402 0-4.363-1.978-4.474-4.462h14.288c0.058-0.459 0.089-0.927 0.089-1.402zM9.154 26.941c-1.697 0.187-3.89-1.748-1.391-6.325 0.806 2.169 2.28 3.988 4.158 5.182-0.519 0.305-1.852 1.042-2.767 1.143zM12.849 15.085c0.284-2.301 2.163-4.080 4.441-4.080s4.157 1.778 4.441 4.080h-8.882zM20.903 7.051c4.24-2.079 5.781 0.142 5.315 2.405-0.064 0.312-0.297 1.141-0.504 1.857-1.119-1.908-2.804-3.414-4.811-4.263z"></path>
</svg>
