<?xml version="1.0" encoding="utf-8"?>
<!-- Generated by IcoMoon.io -->
<!DOCTYPE svg PUBLIC "-//W3C//DTD SVG 1.1//EN" "http://www.w3.org/Graphics/SVG/1.1/DTD/svg11.dtd">
<svg version="1.1" xmlns="http://www.w3.org/2000/svg" xmlns:xlink="http://www.w3.org/1999/xlink" width="34" height="32" viewBox="0 0 34 32">
<path fill="#444444" d="M21.66 10.97c0.695 0 1.264-0.563 1.264-1.253s-0.569-1.253-1.264-1.253c-0.695 0-1.264 0.563-1.264 1.253 0 0.695 0.563 1.253 1.264 1.253z"></path>
<path fill="#444444" d="M20.425 12.067h2.442v9.183h-2.442v-9.183z"></path>
<path fill="#444444" d="M12.655 18.171h3.304l0.893 3.076h2.501l-3.632-12.066h-3.036v1.191l-3.185 10.875h2.262l0.893-3.076zM14.292 11.328l1.221 4.733h-2.441l1.22-4.733z"></path>
<path fill="#444444" d="M3.002 2.316v27.007h27.582v-27.007h-27.582zM28.516 27.197h-23.406v-22.755h23.406l-0 22.755z"></path>
</svg>
