<?xml version="1.0" encoding="utf-8"?>
<!-- Generator: Adobe Illustrator 19.2.1, SVG Export Plug-In . SVG Version: 6.00 Build 0)  -->
<svg version="1.1" id="Layer_1" xmlns="http://www.w3.org/2000/svg" xmlns:xlink="http://www.w3.org/1999/xlink" x="0px" y="0px"
	 width="92px" height="92px" viewBox="0 0 92 92" enable-background="new 0 0 92 92" xml:space="preserve">
<path id="XMLID_1997_" d="M92,39.2c0-0.1,0-0.3,0-0.4c0-0.1,0-0.2-0.1-0.4c0-0.1-0.1-0.3-0.1-0.4c0-0.1-0.1-0.2-0.1-0.4
	c-0.1-0.1-0.1-0.2-0.2-0.3c-0.1-0.1-0.2-0.2-0.2-0.4c0,0-0.1-0.1-0.1-0.1L69.6,10.5C68.8,9.5,67.7,9,66.5,9H25.5
	c-1.2,0-2.3,0.5-3.1,1.5L0.9,36.8c0,0-0.1,0.1-0.1,0.1c-0.1,0.1-0.2,0.2-0.2,0.4c-0.1,0.1-0.1,0.2-0.2,0.3c-0.1,0.1-0.1,0.2-0.1,0.4
	c0,0.1-0.1,0.2-0.1,0.4c0,0.1-0.1,0.2-0.1,0.4c0,0.1,0,0.3,0,0.4c0,0.1,0,0.1,0,0.2v35.8C0,79.5,3.6,83,8,83H84c4.4,0,8-3.5,8-7.9
	V39.3C92,39.3,92,39.2,92,39.2z M27.4,17h37.1l15,18H66.3c-1.1,0-2.2,0.7-3,1.5L54.2,47H37.8l-9.1-10.5c-0.8-0.9-1.8-1.5-3-1.5H12.4
	L27.4,17z M84,75L8,75V43h15.9l8.7,10c1,1.2,2.5,2,4.1,2h18.6c1.6,0,3-0.9,4.1-2l8.7-10H84V75z"/>
</svg>
