<?xml version="1.0" encoding="utf-8"?>
<!-- Generated by IcoMoon.io -->
<!DOCTYPE svg PUBLIC "-//W3C//DTD SVG 1.1//EN" "http://www.w3.org/Graphics/SVG/1.1/DTD/svg11.dtd">
<svg version="1.1" xmlns="http://www.w3.org/2000/svg" xmlns:xlink="http://www.w3.org/1999/xlink" width="34" height="32" viewBox="0 0 34 32">
<path fill="#444444" d="M5.852 8.2c0-0.18 0-0.36 0-0.54 0.014-0.065 0.029-0.129 0.041-0.194 0.255-1.419 1.48-2.345 2.817-2.342 3.763 0.010 7.526 0.003 11.289 0.003 0.057 0 0.114 0 0.185 0 0 0.074 0 0.132 0 0.189 0 3.524 0.003 7.049-0.003 10.573-0.001 0.507-0.036 1.015-0.078 1.52-0.063 0.748-0.236 1.477-0.473 2.188-0.655 1.959-1.768 3.612-3.339 4.955-1.294 1.107-2.765 1.874-4.413 2.303-0.674 0.175-1.357 0.301-2.054 0.323-0.507 0.016-1.019 0.048-1.521-0.006-1.128-0.119-2.048-0.946-2.34-2.042-0.047-0.177-0.074-0.358-0.111-0.537 0-0.135 0-0.27 0-0.405 0.021-0.105 0.042-0.21 0.061-0.315 0.252-1.367 1.482-2.345 2.918-2.3 0.427 0.013 0.865-0.014 1.284-0.093 1.301-0.247 2.374-0.897 3.208-1.927 0.777-0.96 1.193-2.062 1.203-3.298 0.014-1.768 0.004-3.537 0.004-5.305 0-0.19-0-0.191-0.191-0.191-1.809-0-3.618 0.002-5.426-0.002-0.237-0.001-0.478-0.012-0.71-0.056-1.128-0.215-1.868-0.882-2.229-1.967-0.057-0.172-0.082-0.356-0.122-0.534z"></path>
<path fill="#444444" d="M25.352 4.797c0.18 0.034 0.362 0.056 0.539 0.103 0.821 0.217 1.356 0.76 1.694 1.517 0.232 0.521 0.35 1.072 0.379 1.641 0.018 0.35 0.025 0.701 0.025 1.052 0.002 4.816 0.005 9.632-0.003 14.449-0.001 0.772-0.137 1.529-0.513 2.22-0.485 0.893-1.233 1.36-2.258 1.378-0.639 0.011-1.219-0.149-1.714-0.561-0.463-0.386-0.741-0.895-0.92-1.461-0.163-0.517-0.241-1.050-0.242-1.59-0.004-5.055-0.007-10.11 0.003-15.164 0.002-0.819 0.158-1.616 0.593-2.332 0.436-0.718 1.068-1.135 1.911-1.217 0.044-0.004 0.086-0.021 0.129-0.032 0.126 0 0.252 0 0.378 0z"></path>
<path fill="#444444" d="M5.852 15.871c0.021-0.085 0.046-0.169 0.061-0.254 0.24-1.371 1.312-2.431 2.677-2.645 1.735-0.272 3.398 0.933 3.673 2.662 0.279 1.75-0.914 3.397-2.656 3.686-1.756 0.291-3.409-0.922-3.693-2.624-0.016-0.095-0.042-0.189-0.063-0.284 0-0.18 0-0.36 0-0.54z"></path>
</svg>
