<?xml version="1.0" encoding="utf-8"?>
<!-- Generator: Adobe Illustrator 19.2.1, SVG Export Plug-In . SVG Version: 6.00 Build 0)  -->
<svg version="1.1" id="Layer_1" xmlns="http://www.w3.org/2000/svg" xmlns:xlink="http://www.w3.org/1999/xlink" x="0px" y="0px"
	 width="92px" height="92px" viewBox="0 0 92 92" enable-background="new 0 0 92 92" xml:space="preserve">
<path id="XMLID_2270_" d="M50.7,30.6c0.8,0.9,1.1,2.3,0.8,3.5L44.2,72c1.8-0.6,3.9,0.1,4.8,1.8c1.1,1.9,0.4,4.4-1.5,5.4l-2.5,1.4
	c-1,0.5-2,0.8-3.1,0.8c-1.3,0-2.6-0.4-3.7-1.3c-2-1.5-3-4-2.5-6.5L42.8,37h-1.7c-2.2,0-4-1.8-4-4s1.8-4,4-4h6.6
	C48.8,29,49.9,29.7,50.7,30.6z M48.9,13.4c-2.6,0-4.7,2.1-4.7,4.7s2.1,4.7,4.7,4.7s4.7-2.1,4.7-4.7S51.4,13.4,48.9,13.4z"/>
</svg>
