<?xml version="1.0" encoding="utf-8"?>
<!-- Generated by IcoMoon.io -->
<!DOCTYPE svg PUBLIC "-//W3C//DTD SVG 1.1//EN" "http://www.w3.org/Graphics/SVG/1.1/DTD/svg11.dtd">
<svg version="1.1" xmlns="http://www.w3.org/2000/svg" xmlns:xlink="http://www.w3.org/1999/xlink" width="32" height="32" viewBox="0 0 32 32">
<path fill="#444444" d="M4.698 3.419l2.057 23.073 9.231 2.563 9.256-2.566 2.059-23.069h-22.604zM13.226 9.394l-0.409 4.441 9.671 0.001-0.069 0.76-0.665 7.45-0.042 0.478-5.804 1.609-5.796-1.609-0.396-4.443h2.84l0.202 2.257 3.154 0.85 3.156-0.852 0.328-3.67-9.671-0.001 0.069-0.76 0.665-7.45 0.209-2.086h11.287l0.131 1.598 0.403 4.453h-2.841l-0.262-2.922-2.889-0.174h-0.515v-0.004l-2.755 0.074z"></path>
</svg>
