<?xml version="1.0" encoding="utf-8"?>
<!-- Generated by IcoMoon.io -->
<!DOCTYPE svg PUBLIC "-//W3C//DTD SVG 1.1//EN" "http://www.w3.org/Graphics/SVG/1.1/DTD/svg11.dtd">
<svg version="1.1" xmlns="http://www.w3.org/2000/svg" xmlns:xlink="http://www.w3.org/1999/xlink" width="32" height="32" viewBox="0 0 32 32">
<path fill="#444444" d="M12.307 25.27c-0.085 1.014 0.426 1.772 1.384 2.028 0.787 0.209 1.696-0.161 2.085-0.863 0.114-0.199 1.403-3.507 2.862-7.354 2.455-6.463 2.682-7.023 3.023-7.373 0.209-0.218 0.379-0.436 0.379-0.493s-0.18-0.265-0.398-0.455c-0.872-0.787-2.919-1.441-3.791-1.213-0.142 0.038-0.171 0.152-0.171 0.588 0 0.55-0.095 0.891-0.663 2.331-0.161 0.417-0.427 1.137-0.587 1.611-0.152 0.464-0.408 1.128-0.559 1.469-0.142 0.341-0.455 1.128-0.692 1.753s-0.682 1.81-0.995 2.644c-0.313 0.824-0.663 1.611-0.787 1.734zM20.003 10.116c0.957 0.398 1.45 0.881 1.052 1.033-0.379 0.142-2.075-0.464-2.521-0.91-0.171-0.171-0.18-0.227-0.085-0.351 0.161-0.18 0.787-0.095 1.554 0.227zM18.43 11.32c0.341 0.36 1.033 0.616 1.791 0.644 0.379 0.019 0.682 0.038 0.682 0.057 0 0.009-0.066 0.123-0.142 0.237s-0.389 0.881-0.701 1.696c-0.493 1.289-0.616 1.535-0.957 1.848-0.521 0.474-1.346 0.938-1.943 1.080-0.256 0.066-0.654 0.19-0.881 0.294-0.227 0.095-0.455 0.171-0.493 0.171-0.085 0 0.18-0.777 1.090-3.128 0.294-0.758 0.683-1.772 0.862-2.256 0.19-0.474 0.37-0.872 0.408-0.872s0.17 0.104 0.284 0.227zM19.264 16.096c-0.028 0.038-0.91 2.331-1.952 5.089-1.687 4.454-1.943 5.061-2.237 5.326-0.18 0.171-0.407 0.313-0.493 0.303-0.114 0-0.076-0.038 0.095-0.104 0.152-0.057 0.256-0.161 0.256-0.265 0-0.095 0.038-0.199 0.085-0.237 0.047-0.028 0.123-0.19 0.161-0.351 0.028-0.171 0.095-0.369 0.133-0.455 0.142-0.265 0.569-1.374 0.569-1.45 0-0.047 0.057-0.218 0.133-0.379 0.076-0.171 0.313-0.777 0.531-1.346 0.218-0.578 0.483-1.279 0.588-1.564 0.114-0.284 0.237-0.559 0.284-0.607 0.038-0.057 0.076-0.18 0.076-0.275s0.067-0.322 0.142-0.502c0.284-0.645 0.408-0.948 0.569-1.412 0.085-0.265 0.199-0.55 0.246-0.635 0.095-0.18 0.114-0.455 0.038-0.455-0.028 0-0.171 0.066-0.313 0.152-0.228 0.133-0.228 0.133 0.028-0.066 0.161-0.123 0.436-0.36 0.616-0.531 0.303-0.284 0.55-0.417 0.445-0.237zM16.639 17.442c0 0.047-0.066 0.095-0.152 0.095-0.18 0-0.445 0.616-0.445 1.014 0.009 0.171-0.028 0.313-0.076 0.313-0.152 0-0.483 0.777-0.531 1.279-0.047 0.436-0.028 0.512 0.133 0.607 0.256 0.133 0.322 0.426 0.152 0.663-0.142 0.209-0.54 0.265-0.644 0.104-0.142-0.228-0.246-0.076-0.19 0.265 0.047 0.322 0.029 0.379-0.17 0.464-0.152 0.076-0.294 0.275-0.398 0.569-0.332 0.9-0.635 1.696-0.815 2.161-0.104 0.256-0.218 0.683-0.246 0.929-0.047 0.389-0.019 0.483 0.171 0.701l0.227 0.256-0.303-0.208c-0.313-0.218-0.692-0.891-0.692-1.232 0-0.114 0.275-0.948 0.616-1.867 0.341-0.91 0.616-1.715 0.616-1.772 0-0.066 0.313-0.427 0.682-0.806 0.379-0.379 0.625-0.692 0.55-0.692s-0.275 0.133-0.445 0.303-0.313 0.256-0.313 0.19c0-0.285 0.891-2.369 1.118-2.616 0.208-0.227 1.023-0.815 1.128-0.815 0.019 0 0.029 0.038 0.029 0.095z"></path>
</svg>
