<?xml version="1.0" encoding="utf-8"?>
<!-- Generator: Adobe Illustrator 19.2.1, SVG Export Plug-In . SVG Version: 6.00 Build 0)  -->
<svg version="1.1" id="Layer_1" xmlns="http://www.w3.org/2000/svg" xmlns:xlink="http://www.w3.org/1999/xlink" x="0px" y="0px"
	 width="92px" height="92px" viewBox="0 0 92 92" enable-background="new 0 0 92 92" xml:space="preserve">
<path id="XMLID_1683_" d="M90.9,31.2L74,13.3c-0.8-0.8-1.8-1.3-2.9-1.3H20.9c-1.1,0-2.2,0.5-2.9,1.3l-16.9,18
	c-1.5,1.6-1.4,4,0.1,5.6l42,42c0.8,0.8,1.8,1.2,2.8,1.2s2.1-0.4,2.8-1.2l42-42C92.4,35.3,92.4,32.8,90.9,31.2z M27.4,37l7.4,21.6
	L13.2,37H27.4z M49.4,20l6.4,10H36.2l6.4-10H49.4z M46,70.3l0-0.2L34.8,37h22.4L46,70.1L46,70.3z M64.6,37h14.3L57.2,58.6L64.6,37z
	 M79.2,30H64l-6.4-10h11.7L79.2,30z M22.6,20h11.7L28,30H12.8L22.6,20z"/>
</svg>
