<?xml version="1.0" encoding="utf-8"?>
<!-- Generated by IcoMoon.io -->
<!DOCTYPE svg PUBLIC "-//W3C//DTD SVG 1.1//EN" "http://www.w3.org/Graphics/SVG/1.1/DTD/svg11.dtd">
<svg version="1.1" xmlns="http://www.w3.org/2000/svg" xmlns:xlink="http://www.w3.org/1999/xlink" width="32" height="32" viewBox="0 0 32 32">
<path fill="#444444" d="M24.81 6.334h-17.621c-1.391 0-2.517 1.114-2.517 2.488v7.464c0 5.495 4.508 9.951 10.069 9.951h2.518c5.561 0 10.069-4.456 10.069-9.951v-7.464c0-1.374-1.127-2.488-2.517-2.488zM16 22.506c-4.171 0-7.552-3.342-7.552-7.464v-3.732h3.776v3.732c0 2.061 1.69 3.732 3.776 3.732s3.775-1.671 3.775-3.732h3.776c0 4.122-3.381 7.464-7.552 7.464zM23.489 13.798l-3.65-0.933 0.881-3.608 3.713 0.933-0.944 3.607z"></path>
</svg>
