<?xml version="1.0" encoding="utf-8"?>
<!-- Generated by IcoMoon.io -->
<!DOCTYPE svg PUBLIC "-//W3C//DTD SVG 1.1//EN" "http://www.w3.org/Graphics/SVG/1.1/DTD/svg11.dtd">
<svg version="1.1" xmlns="http://www.w3.org/2000/svg" xmlns:xlink="http://www.w3.org/1999/xlink" width="32" height="32" viewBox="0 0 32 32">
<path fill="#444444" d="M25.781 14.375c-1.717-1.554-3.629-2.731-5.849-3.416-3.039-0.938-6.15-1.334-9.325-1.394-1.413 0.101-2.826 0.207-4.24 0.3-0.218 0.014-0.342 0.102-0.443 0.292-0.643 1.21-0.992 2.508-1.152 3.859-0.355 2.995 0.175 5.877 1.127 8.704 0.082 0.244 0.228 0.321 0.483 0.274 0.989-0.181 1.984-0.336 2.972-0.524 1.668-0.317 3.326-0.679 4.879-1.394 0.871-0.401 1.682-0.881 2.109-1.815 0.043-0.095 0.249-0.17 0.374-0.161 0.255 0.018 0.512 0.079 0.758 0.156 1.49 0.467 2.97 0.965 4.466 1.411 1.017 0.303 2.053 0.543 3.083 0.8 0.409 0.102 0.779-0.021 1.027-0.354 0.296-0.395 0.616-0.797 0.798-1.248 0.756-1.881 0.808-3.792-1.067-5.489zM14.534 19.776c-0.817 0.459-1.705 0.733-2.612 0.938-1.708 0.385-3.421 0.749-5.13 1.129-0.223 0.050-0.323 0.004-0.373-0.232-0.317-1.517-0.642-3.032-0.976-4.545-0.054-0.247 0.044-0.319 0.258-0.368 0.705-0.163 1.391-0.072 2.008 0.266 0.786 0.431 1.525 0.949 2.298 1.406 0.55 0.325 1.103 0.659 1.691 0.901 0.887 0.366 1.768 0.248 2.588-0.247 0.245-0.148 0.504-0.3 0.689-0.51 0.305-0.346 0.632-0.316 1.039-0.158-0.348 0.651-0.874 1.079-1.482 1.42zM26.054 19.603c-0.437 0.777-0.955 1.050-1.811 0.821-1.126-0.302-2.243-0.649-3.339-1.046-1.93-0.699-3.874-1.331-5.906-1.669-0.391-0.065-0.783-0.2-1.139-0.376-0.618-0.307-0.892-0.899-0.781-1.583 0.145-0.899 0.639-1.607 1.254-2.246 0.052-0.054 0.104-0.109 0.155-0.165 0.005-0.005 0.001-0.018 0.001-0.069-3.302-0.041-6.337 0.782-9.105 2.658 0-0.169-0.008-0.307 0.001-0.444 0.101-1.451 0.351-2.865 0.92-4.219 0.231-0.551 0.567-0.789 1.173-0.833 3.349-0.245 6.684-0.168 9.994 0.418 2.89 0.511 5.484 1.677 7.665 3.676 0.372 0.341 0.754 0.705 1.009 1.131 0.236 0.396 0.376 0.881 0.436 1.343 0.118 0.913-0.071 1.794-0.526 2.603zM25.117 15.595c-1.559-1.598-3.339-2.838-5.436-3.601-1.856-0.675-3.794-0.914-5.756-0.97-1.479-0.042-2.95 0.021-4.393 0.396-0.978 0.254-1.785 0.734-2.29 1.641-0.030 0.053-0.051 0.111-0.093 0.202 0.094-0.012 0.148-0.017 0.201-0.026 1.511-0.255 3.018-0.538 4.534-0.756 1.264-0.182 2.546-0.261 3.807-0.003 2.575 0.527 4.764 1.796 6.666 3.586 0.020 0.019 0.027 0.052 0.072 0.143-0.119-0.078-0.173-0.117-0.229-0.151-0.596-0.363-1.19-0.729-1.789-1.087-0.208-0.124-0.42-0.199-0.677-0.101-0.24 0.091-0.497 0.16-0.752 0.181-0.172 0.014-0.437-0.017-0.509-0.127-0.096-0.147-0.061-0.391-0.052-0.592 0.004-0.081 0.087-0.158 0.143-0.251-0.996-0.518-2.051-0.723-3.137-0.808-0.061-0.005-0.136 0.023-0.186 0.060-0.331 0.252-0.594 0.563-0.613 0.995-0.035 0.791 0.16 1.537 0.793 2.040 0.587 0.467 1.225 0.901 1.901 1.22 2.555 1.207 5.294 1.549 8.085 1.59 0.089 0.001 0.228-0.107 0.262-0.196 0.474-1.231 0.454-2.354-0.55-3.384z"></path>
</svg>
