<?xml version="1.0" encoding="utf-8"?>
<!-- Generated by IcoMoon.io -->
<!DOCTYPE svg PUBLIC "-//W3C//DTD SVG 1.1//EN" "http://www.w3.org/Graphics/SVG/1.1/DTD/svg11.dtd">
<svg version="1.1" xmlns="http://www.w3.org/2000/svg" xmlns:xlink="http://www.w3.org/1999/xlink" width="32" height="32" viewBox="0 0 32 32">
<path fill="#444444" d="M23.501 20.274c-0.031-0.212-0.118-0.412-0.231-0.574s-0.25-0.295-0.392-0.402c-0.286-0.215-0.596-0.346-0.911-0.428-0.026-0.007-0.051-0.013-0.077-0.019 0.079-0.103 0.151-0.208 0.217-0.317 0.134-0.223 0.246-0.46 0.322-0.715 0.074-0.254 0.109-0.529 0.076-0.799-0.032-0.27-0.134-0.529-0.288-0.737-0.076-0.105-0.161-0.199-0.253-0.283l-0.070-0.061c-0.024-0.020-0.048-0.039-0.072-0.058l-0.075-0.055-0.073-0.049c-0.033-0.022-0.078-0.020-0.108 0.009-0.035 0.033-0.036 0.087-0.003 0.122l0.061 0.064 0.055 0.063 0.053 0.065 0.050 0.066c0.064 0.090 0.119 0.183 0.162 0.28 0.086 0.193 0.122 0.395 0.108 0.593s-0.077 0.39-0.17 0.571c-0.092 0.181-0.213 0.353-0.351 0.51-0.069 0.078-0.142 0.154-0.217 0.223-0.019 0.017-0.037 0.034-0.056 0.049-0.009 0.008-0.018 0.016-0.026 0.022l-0.003 0.002-0.001 0c-0.001 0.001 0.012-0.011 0.005-0.005 0-0 0-0 0-0.001s-0.001 0-0.001 0.001l-0.011 0.007c-0.035 0.023-0.077 0.049-0.12 0.072-0.171 0.095-0.356 0.17-0.541 0.216-0.186 0.047-0.372 0.064-0.551 0.056s-0.354-0.046-0.521-0.107c-0.008-0.003-0.015-0.006-0.023-0.009 0.035-0.005 0.069-0.011 0.105-0.018 0.11-0.022 0.222-0.054 0.334-0.101s0.222-0.108 0.322-0.184c0.101-0.076 0.191-0.166 0.267-0.263s0.137-0.2 0.183-0.303c0.047-0.103 0.081-0.206 0.106-0.306 0.024-0.1 0.041-0.198 0.050-0.294 0.019-0.191 0.015-0.372 0.002-0.546l-0.006-0.065-0.007-0.067c-0.003-0.022-0.005-0.046-0.008-0.066l-0.009-0.057-0.004-0.029-0.002-0.014-0.001-0.007-0.001-0.003-0-0.002c0 0.001-0-0.006-0.001-0.008l-0.009-0.054-0.017-0.109c-0.023-0.146-0.043-0.291-0.059-0.437-0.010-0.073-0.014-0.146-0.021-0.219s-0.009-0.145-0.015-0.219c-0.006-0.145-0.011-0.291-0.006-0.435 0.001-0.072 0.007-0.144 0.011-0.216 0.007-0.071 0.012-0.143 0.022-0.213 0.018-0.141 0.045-0.281 0.084-0.415s0.090-0.263 0.158-0.382c0.066-0.119 0.15-0.226 0.253-0.309 0.051-0.042 0.108-0.077 0.169-0.103 0.030-0.013 0.061-0.024 0.093-0.033 0.016-0.004 0.030-0.006 0.045-0.010 0.017-0.003 0.038-0.004 0.056-0.006l0.002-0c0.039-0.004 0.072-0.036 0.076-0.077 0.005-0.047-0.029-0.090-0.077-0.095-0.020-0.002-0.037-0.005-0.059-0.006-0.023-0-0.047-0.002-0.069-0.001-0.044 0.002-0.088 0.007-0.131 0.015-0.087 0.017-0.171 0.047-0.249 0.088-0.157 0.080-0.292 0.195-0.404 0.325s-0.203 0.275-0.28 0.425c-0.076 0.15-0.137 0.305-0.188 0.462-0.027 0.078-0.048 0.158-0.070 0.237-0.020 0.079-0.040 0.159-0.055 0.239-0.034 0.16-0.057 0.32-0.079 0.481-0.019 0.161-0.033 0.322-0.042 0.482s-0.014 0.321-0.016 0.481v0.18c0 0.006-0.001-0.006-0-0.004v0.006l-0 0.007v0.014l-0 0.029-0.001 0.058c0 0.018-0.002 0.032-0.002 0.049l-0.003 0.048-0.004 0.049c-0.010 0.132-0.029 0.259-0.060 0.37-0.015 0.056-0.034 0.107-0.053 0.154-0.021 0.046-0.043 0.086-0.066 0.119-0.047 0.068-0.095 0.101-0.145 0.123s-0.112 0.036-0.196 0.038c-0.084 0.003-0.185-0.007-0.293-0.030-0.015-0.003-0.031-0.006-0.046-0.010 0 0-0.393-0.139-0.264-0.589 0.088-0.163 0.248-0.331 0.544-0.375 0 0 0.631-4.891-3.326-8.034-0.003-0.002-0.005 0-0.005 0-3.957 3.143-3.325 8.034-3.325 8.034 0.316 0.047 0.477 0.235 0.561 0.407 0.095 0.395-0.224 0.537-0.268 0.554-0.018 0.004-0.036 0.009-0.054 0.012-0.108 0.023-0.209 0.033-0.293 0.030s-0.146-0.017-0.196-0.038c-0.050-0.022-0.098-0.055-0.145-0.123-0.023-0.033-0.046-0.074-0.066-0.119-0.020-0.047-0.038-0.098-0.053-0.154-0.031-0.111-0.050-0.238-0.060-0.37l-0.004-0.049-0.003-0.047c-0.001-0.017-0.002-0.031-0.002-0.049l-0-0.058-0-0.029-0-0.014v-0.013c0-0.002-0.001 0.011-0.001 0.004v-0.060l-0-0.12c-0.001-0.16-0.006-0.321-0.016-0.481s-0.023-0.322-0.042-0.482c-0.022-0.161-0.045-0.321-0.079-0.482-0.015-0.080-0.035-0.16-0.055-0.239-0.023-0.079-0.044-0.158-0.070-0.237-0.052-0.157-0.112-0.312-0.188-0.462s-0.167-0.294-0.28-0.425c-0.112-0.13-0.247-0.246-0.404-0.325-0.078-0.040-0.162-0.070-0.249-0.088-0.043-0.008-0.087-0.013-0.131-0.015-0.022-0.001-0.047 0-0.069 0.001-0.022 0.001-0.039 0.004-0.059 0.006-0.047 0.005-0.082 0.048-0.077 0.095 0.004 0.041 0.037 0.072 0.076 0.076l0.002 0c0.019 0.002 0.040 0.003 0.056 0.006 0.015 0.004 0.029 0.006 0.045 0.010 0.032 0.008 0.063 0.019 0.093 0.033 0.061 0.026 0.117 0.060 0.169 0.102 0.103 0.083 0.187 0.19 0.253 0.31 0.067 0.118 0.119 0.247 0.158 0.381s0.065 0.274 0.084 0.415c0.010 0.070 0.015 0.143 0.022 0.213 0.003 0.072 0.010 0.143 0.010 0.216 0.005 0.144 0.001 0.29-0.005 0.435-0.005 0.073-0.008 0.146-0.015 0.219s-0.011 0.146-0.021 0.219c-0.016 0.146-0.035 0.291-0.059 0.437l-0.017 0.109-0.009 0.055c0-0.005-0.001 0.009-0.001 0.008l-0 0.002-0 0.004-0.001 0.007-0.002 0.014-0.005 0.028-0.009 0.057c-0.003 0.020-0.005 0.044-0.008 0.066l-0.007 0.067-0.006 0.065c-0.014 0.174-0.018 0.355 0.001 0.546 0.010 0.095 0.026 0.194 0.050 0.294 0.026 0.101 0.059 0.203 0.106 0.306s0.107 0.206 0.183 0.303c0.075 0.097 0.166 0.187 0.267 0.263s0.211 0.138 0.322 0.184c0.111 0.047 0.224 0.079 0.333 0.101 0.035 0.007 0.070 0.013 0.105 0.018-0.008 0.003-0.015 0.006-0.023 0.009-0.167 0.061-0.341 0.099-0.521 0.107s-0.366-0.009-0.551-0.056c-0.185-0.046-0.37-0.121-0.542-0.216-0.042-0.023-0.084-0.049-0.119-0.072l-0.011-0.008c-0-0-0.002-0.001-0.001-0s0 0 0 0c-0.007-0.006 0.006 0.006 0.005 0.005l-0.001-0-0.003-0.002c-0.008-0.006-0.017-0.014-0.026-0.022-0.018-0.016-0.037-0.032-0.056-0.049-0.075-0.069-0.148-0.145-0.217-0.223-0.138-0.157-0.259-0.328-0.351-0.51s-0.155-0.374-0.17-0.571c-0.015-0.197 0.021-0.399 0.108-0.593 0.043-0.097 0.098-0.19 0.162-0.28l0.050-0.066 0.053-0.065 0.055-0.063 0.061-0.064c0.033-0.035 0.031-0.089-0.003-0.122-0.030-0.028-0.075-0.031-0.108-0.009l-0.073 0.049-0.075 0.055c-0.024 0.019-0.048 0.038-0.072 0.058l-0.070 0.061c-0.092 0.084-0.177 0.179-0.253 0.283-0.154 0.208-0.256 0.467-0.288 0.737-0.033 0.27 0.002 0.545 0.076 0.799 0.075 0.255 0.188 0.493 0.322 0.715 0.066 0.109 0.138 0.214 0.217 0.317-0.026 0.006-0.052 0.012-0.077 0.019-0.314 0.082-0.624 0.214-0.911 0.429-0.142 0.108-0.278 0.24-0.392 0.402s-0.2 0.363-0.231 0.574c-0.033 0.212-0.004 0.426 0.058 0.608 0.032 0.091 0.070 0.175 0.114 0.253 0.044 0.077 0.091 0.15 0.143 0.215 0.051 0.067 0.105 0.127 0.16 0.185l0.045 0.044 0.022 0.022c0.008 0.007 0.015 0.015 0.021 0.020l0.081 0.072c0.111 0.095 0.226 0.184 0.343 0.267 0.237 0.164 0.486 0.302 0.737 0.42 0.23 0.108 0.462 0.198 0.691 0.283 0.001 0.003 0.002 0.006 0.004 0.010l0.018 0.043c0.007 0.014 0.014 0.027 0.022 0.041 0.015 0.027 0.030 0.054 0.046 0.081l0.012 0.020 0.013 0.018 0.027 0.037c0.018 0.024 0.036 0.049 0.055 0.072 0.157 0.183 0.356 0.309 0.559 0.384s0.412 0.099 0.61 0.090c0.024-0.001 0.050-0.002 0.074-0.004l0.072-0.009 0.072-0.010c0.024-0.004 0.047-0.010 0.070-0.015l0.070-0.016c0.012-0.003 0.023-0.005 0.035-0.009l0.037-0.011 0.073-0.023 0.036-0.012c0.012-0.004 0.025-0.008 0.033-0.012l0.117-0.051c0.007-0.003-0.012 0.004 0.017-0.007l0.003-0.001 0.006-0.003 0.023-0.011 0.046-0.022c0.031-0.015 0.062-0.028 0.093-0.041s0.062-0.027 0.094-0.038c0.127-0.049 0.257-0.088 0.389-0.117 0.265-0.057 0.54-0.079 0.804-0.040 0.132 0.020 0.26 0.054 0.379 0.107s0.228 0.123 0.314 0.214c0.011 0.012 0.022 0.023 0.033 0.035l0.029 0.037 0.015 0.019 0.013 0.020 0.025 0.040c0.030 0.056 0.058 0.115 0.073 0.178 0.004 0.016 0.009 0.032 0.013 0.048l0.008 0.049 0.004 0.025c0.001 0.008 0.001 0.017 0.002 0.025l0.004 0.051c0.002 0.034-0 0.066 0 0.1-0.003 0.037-0.008 0.075-0.012 0.113v0.001c-0.005 0.048 0.029 0.090 0.077 0.095 0.042 0.004 0.080-0.022 0.092-0.061 0.011-0.037 0.022-0.072 0.033-0.11 0.008-0.041 0.019-0.084 0.024-0.125l0.007-0.062c0.001-0.010 0.002-0.021 0.003-0.031l0-0.032 0-0.064c0-0.021-0.003-0.043-0.005-0.064-0.006-0.086-0.028-0.172-0.056-0.255l-0.025-0.061-0.013-0.031-0.015-0.029-0.032-0.059c-0.011-0.019-0.024-0.037-0.036-0.055-0.023-0.038-0.052-0.072-0.080-0.106-0.013-0.018-0.030-0.033-0.045-0.049s-0.030-0.033-0.046-0.047c-0.065-0.059-0.133-0.115-0.206-0.161-0.145-0.095-0.303-0.166-0.465-0.217-0.325-0.102-0.664-0.131-0.998-0.109-0.167 0.011-0.334 0.035-0.497 0.072-0.041 0.008-0.082 0.019-0.122 0.029s-0.082 0.021-0.121 0.033l-0.060 0.018-0.030 0.009-0.008 0.002-0.004 0.001c0.027-0.010 0.006-0.002 0.011-0.004l-0.014 0.004-0.11 0.030c-0.010 0.003-0.016 0.003-0.022 0.004l-0.018 0.002-0.036 0.005-0.018 0.003c-0.006 0.001-0.014 0.001-0.021 0.002l-0.042 0.003c-0.014 0.001-0.028 0.003-0.042 0.003l-0.041-0.001-0.040-0c-0.013-0.001-0.026-0.003-0.039-0.005-0.104-0.011-0.199-0.041-0.274-0.084s-0.13-0.098-0.161-0.152c-0.029-0.056-0.036-0.108-0.031-0.165 0.006-0.056 0.027-0.122 0.070-0.195s0.105-0.15 0.181-0.225c0.159-0.149 0.367-0.287 0.598-0.402l0.042-0.022 0.045-0.020 0.090-0.041c0.058-0.029 0.123-0.051 0.184-0.077l0.33-0.135 0.045-0.021v-0l0.060-0.028c0.074-0.035 0.148-0.069 0.217-0.105 0.467-0.212 1.445-0.601 2.32-0.601s1.853 0.389 2.321 0.601c0.069 0.037 0.143 0.071 0.217 0.105l0.091 0.042 0.015 0.007 0.013 0.005 0.317 0.13c0.061 0.026 0.126 0.048 0.184 0.077l0.135 0.061 0.042 0.022c0.231 0.115 0.439 0.254 0.598 0.402 0.077 0.075 0.139 0.152 0.181 0.225s0.063 0.139 0.070 0.195c0.006 0.056-0.002 0.108-0.030 0.165-0.031 0.054-0.086 0.11-0.161 0.152s-0.171 0.073-0.274 0.084c-0.013 0.002-0.026 0.004-0.039 0.005l-0.041 0-0.041 0.001c-0.013 0-0.027-0.002-0.041-0.003l-0.042-0.003c-0.007-0.001-0.015-0.001-0.020-0.002l-0.018-0.003-0.036-0.005-0.018-0.002c-0.006-0.001-0.011-0.001-0.022-0.004l-0.123-0.034c0.005 0.002-0.016-0.006 0.011 0.004l-0.004-0.001-0.008-0.002-0.090-0.028c-0.040-0.012-0.081-0.023-0.121-0.033s-0.081-0.021-0.122-0.029c-0.163-0.037-0.33-0.060-0.497-0.072-0.334-0.023-0.674 0.007-0.999 0.109-0.162 0.051-0.32 0.122-0.465 0.217-0.073 0.046-0.142 0.102-0.206 0.161-0.016 0.015-0.031 0.032-0.046 0.047s-0.031 0.031-0.045 0.049c-0.027 0.035-0.056 0.068-0.080 0.106-0.012 0.018-0.025 0.036-0.036 0.055l-0.032 0.059-0.015 0.029-0.013 0.031-0.026 0.061c-0.027 0.084-0.049 0.169-0.055 0.255-0.002 0.021-0.005 0.042-0.005 0.064l0 0.064 0 0.032c0 0.010 0.002 0.021 0.003 0.031l0.007 0.062c0.005 0.041 0.016 0.084 0.024 0.125 0.010 0.038 0.022 0.073 0.033 0.11 0.012 0.039 0.050 0.066 0.092 0.061 0.047-0.005 0.082-0.048 0.077-0.095v-0.001c-0.004-0.037-0.009-0.076-0.012-0.113 0.001-0.034-0.002-0.066 0-0.1l0.004-0.051c0-0.008 0.001-0.017 0.002-0.025l0.004-0.025 0.008-0.049c0.003-0.016 0.009-0.032 0.012-0.048 0.016-0.064 0.043-0.123 0.073-0.178l0.026-0.040 0.012-0.020 0.015-0.019 0.029-0.037c0.010-0.012 0.022-0.023 0.032-0.035 0.087-0.091 0.196-0.161 0.314-0.214s0.247-0.087 0.379-0.107c0.264-0.039 0.54-0.017 0.804 0.040 0.132 0.029 0.263 0.068 0.389 0.117 0.032 0.011 0.063 0.025 0.094 0.038s0.062 0.026 0.093 0.041l0.046 0.022 0.031 0.015c0.030 0.011 0.010 0.004 0.017 0.007l0.013 0.006 0.104 0.045c0.007 0.004 0.020 0.008 0.032 0.012l0.036 0.012 0.073 0.024 0.037 0.011c0.012 0.004 0.023 0.006 0.035 0.009l0.070 0.016c0.023 0.005 0.047 0.011 0.070 0.015l0.072 0.010 0.073 0.009c0.024 0.002 0.050 0.003 0.075 0.004 0.198 0.009 0.406-0.015 0.609-0.090s0.401-0.201 0.558-0.384c0.019-0.023 0.037-0.048 0.056-0.072l0.027-0.037 0.013-0.018 0.012-0.020c0.015-0.027 0.031-0.053 0.045-0.081 0.007-0.014 0.015-0.027 0.022-0.041l0.018-0.043c0.001-0.003 0.003-0.006 0.004-0.010 0.229-0.086 0.461-0.175 0.691-0.283 0.251-0.117 0.5-0.255 0.736-0.42 0.117-0.083 0.233-0.171 0.343-0.267l0.081-0.072c0.006-0.005 0.014-0.012 0.021-0.020l0.067-0.067c0.055-0.058 0.109-0.118 0.16-0.185 0.052-0.065 0.099-0.138 0.143-0.215 0.043-0.078 0.082-0.163 0.114-0.253 0.061-0.182 0.090-0.395 0.058-0.607zM11.942 20.449c-0.018 0.012-0.036 0.024-0.054 0.037l-0.053 0.040-0.106 0.081c-0.018 0.013-0.035 0.027-0.052 0.042l-0.052 0.044c-0.034 0.030-0.069 0.059-0.103 0.090l-0.1 0.098c-0.017 0.017-0.033 0.033-0.049 0.050l-0.048 0.054c-0.031 0.036-0.063 0.071-0.094 0.11-0.121 0.154-0.231 0.329-0.311 0.532-0.040 0.101-0.071 0.212-0.090 0.327l-0.011 0.088c-0 0.004-0.001 0.008-0.001 0.012-0.103-0.064-0.204-0.129-0.301-0.196-0.208-0.142-0.401-0.296-0.575-0.463-0.086-0.084-0.169-0.17-0.246-0.261l-0.057-0.069c-0.006-0.007-0.009-0.012-0.013-0.016l-0.010-0.015-0.021-0.029c-0.029-0.044-0.058-0.087-0.080-0.13-0.024-0.043-0.041-0.085-0.057-0.126-0.014-0.040-0.024-0.079-0.030-0.115-0.009-0.071-0.003-0.128 0.017-0.175s0.050-0.092 0.097-0.139c0.047-0.046 0.11-0.093 0.186-0.134 0.151-0.082 0.345-0.138 0.546-0.164s0.413-0.021 0.617 0.009c0.204 0.030 0.403 0.089 0.584 0.172 0.046 0.021 0.090 0.043 0.133 0.067l0.064 0.037 0.055 0.028 0.039 0.019 0.038 0.017c0.052 0.023 0.105 0.044 0.161 0.063l-0.023 0.016zM14.488 16.73c0-0.176 0.143-0.319 0.319-0.319 0.139 0 0.256 0.090 0.3 0.214 0.011 0.033 0.019 0.068 0.019 0.104 0 0.176-0.143 0.319-0.319 0.319-0.085 0-0.162-0.034-0.219-0.088-0.061-0.058-0.099-0.139-0.099-0.23zM17.414 16.959c-0.057 0.055-0.135 0.089-0.22 0.089-0.176 0-0.319-0.142-0.319-0.319 0-0.037 0.007-0.071 0.019-0.104 0.043-0.125 0.16-0.215 0.3-0.215 0.176 0 0.319 0.143 0.319 0.319 0 0.091-0.038 0.172-0.098 0.23zM22.571 20.633c-0.006 0.036-0.015 0.074-0.030 0.115-0.016 0.041-0.033 0.083-0.057 0.126-0.023 0.043-0.051 0.087-0.080 0.13l-0.021 0.029-0.010 0.015c-0.004 0.005-0.007 0.010-0.013 0.016l-0.057 0.069c-0.077 0.090-0.16 0.177-0.246 0.261-0.174 0.167-0.367 0.321-0.575 0.463-0.097 0.067-0.198 0.132-0.301 0.196-0-0.004-0.001-0.008-0.001-0.012l-0.011-0.088c-0.018-0.115-0.050-0.225-0.090-0.327-0.080-0.203-0.19-0.379-0.311-0.532-0.030-0.038-0.062-0.073-0.093-0.11l-0.048-0.054c-0.016-0.017-0.033-0.033-0.049-0.050l-0.1-0.098c-0.034-0.031-0.069-0.060-0.103-0.090l-0.052-0.044c-0.017-0.015-0.035-0.029-0.052-0.043l-0.159-0.121c-0.018-0.013-0.036-0.024-0.054-0.037l-0.023-0.015c0.056-0.019 0.109-0.040 0.16-0.063l0.038-0.017 0.039-0.019 0.055-0.028 0.064-0.037c0.043-0.024 0.088-0.046 0.133-0.067 0.182-0.083 0.38-0.142 0.584-0.172s0.415-0.036 0.617-0.009c0.201 0.026 0.395 0.082 0.546 0.164 0.076 0.040 0.139 0.087 0.185 0.134s0.078 0.091 0.097 0.139c0.020 0.047 0.026 0.104 0.017 0.175z"></path>
</svg>
