<?xml version="1.0" encoding="utf-8"?>
<!-- Generated by IcoMoon.io -->
<!DOCTYPE svg PUBLIC "-//W3C//DTD SVG 1.1//EN" "http://www.w3.org/Graphics/SVG/1.1/DTD/svg11.dtd">
<svg version="1.1" xmlns="http://www.w3.org/2000/svg" xmlns:xlink="http://www.w3.org/1999/xlink" width="32" height="32" viewBox="0 0 32 32">
<path fill="#444444" d="M27.226 15.777c-0.15-0.168-2.221-2.761-2.586-3.201s-0.543-0.36-0.767-0.328c-0.225 0.033-2.845 0.473-3.149 0.524s-0.496 0.173-0.309 0.435c0.166 0.233 1.889 2.675 2.269 3.213l-6.849 1.641-5.447-9.107c-0.217-0.322-0.262-0.434-0.755-0.411s-4.273 0.336-4.542 0.359c-0.269 0.023-0.565 0.142-0.295 0.778s4.562 9.885 4.681 10.154 0.431 0.706 1.159 0.531c0.746-0.179 3.334-0.855 4.748-1.225 0.747 1.353 2.271 4.097 2.553 4.491 0.376 0.525 0.635 0.438 1.213 0.263 0.451-0.137 7.056-2.512 7.354-2.634s0.481-0.21 0.28-0.508c-0.148-0.219-1.89-2.553-2.803-3.774 0.625-0.166 2.848-0.758 3.085-0.822 0.276-0.075 0.314-0.21 0.164-0.379zM14.774 18.323c-0.082 0.017-3.918 0.936-4.123 0.982s-0.205 0.023-0.228-0.047-4.561-9.427-4.624-9.544-0.060-0.21 0-0.21c0.060 0 3.623-0.319 3.749-0.325s0.113 0.020 0.159 0.1c0 0 5.026 8.675 5.114 8.827s0.035 0.199-0.047 0.216zM25.59 20.35c0.061 0.096 0.122 0.157-0.070 0.227s-6.493 2.196-6.615 2.249c-0.122 0.053-0.219 0.070-0.376-0.158s-2.207-3.775-2.207-3.775l6.678-1.738c0.166-0.052 0.219-0.087 0.324 0.079s2.205 3.019 2.266 3.115zM26.018 15.609c-0.15 0.033-2.602 0.641-2.602 0.641l-2.006-2.752c-0.056-0.079-0.103-0.159 0.037-0.178s2.419-0.431 2.522-0.454c0.103-0.023 0.192-0.051 0.318 0.122s1.861 2.368 1.926 2.452-0.047 0.136-0.197 0.168z"></path>
</svg>
