<?xml version="1.0" encoding="utf-8"?>
<!-- Generator: Adobe Illustrator 19.2.1, SVG Export Plug-In . SVG Version: 6.00 Build 0)  -->
<svg version="1.1" id="Layer_1" xmlns="http://www.w3.org/2000/svg" xmlns:xlink="http://www.w3.org/1999/xlink" x="0px" y="0px"
	 width="92px" height="92px" viewBox="0 0 92 92" enable-background="new 0 0 92 92" xml:space="preserve">
<path id="XMLID_2246_" d="M77,22v48c0,2.2-1.8,4-4,4s-4-1.8-4-4V50H23v20c0,2.2-1.8,4-4,4s-4-1.8-4-4V22c0-2.2,1.8-4,4-4s4,1.8,4,4
	v20h46V22c0-2.2,1.8-4,4-4S77,19.8,77,22z M6,27.9c-2.2,0-4,1.8-4,4v28.3c0,2.2,1.8,4,4,4s4-1.8,4-4V31.9C10,29.7,8.2,27.9,6,27.9z
	 M86,27.9c-2.2,0-4,1.8-4,4v28.3c0,2.2,1.8,4,4,4s4-1.8,4-4V31.9C90,29.7,88.2,27.9,86,27.9z"/>
</svg>
