<?xml version="1.0" encoding="utf-8"?>
<!-- Generator: Adobe Illustrator 19.2.1, SVG Export Plug-In . SVG Version: 6.00 Build 0)  -->
<svg version="1.1" id="Layer_1" xmlns="http://www.w3.org/2000/svg" xmlns:xlink="http://www.w3.org/1999/xlink" x="0px" y="0px"
	 width="92px" height="92px" viewBox="0 0 92 92" enable-background="new 0 0 92 92" xml:space="preserve">
<path d="M46,0C29.6,0,16,13.6,16,30.3c0,10.2,4,18.4,12,23.9V64c0,1.1,0.7,2.2,1.5,2.9c0.7,0.7,1.8,1.1,2.8,1.1c0.1,0,0.3,0,0.4,0
	l27.5-2.2c2.1-0.2,3.9-1.9,3.9-4v-7.5c7-5.1,12-13.9,12-24C76,13.6,62.4,0,46,0z M58,48.5c-1.3,0.7-2,2.1-2,3.5v6.1l-20,1.6V52
	c0-1.4-0.6-2.7-1.8-3.5c-6.9-4-10.1-10-10.1-18.2C24,18,33.9,8,46,8s22,10,22,22.3C67.9,38.3,64.3,45.1,58,48.5z M63.6,74.3
	c0.2,2.2-1.5,4.1-3.7,4.3l-27.3,2c-0.1,0-0.2,0-0.3,0c-2.1,0-3.8-1.6-4-3.7c-0.2-2.2,1.5-4.1,3.7-4.3l27.3-2
	C61.6,70.4,63.5,72.1,63.6,74.3z M54.9,86.9c0.2,2.2-1.5,4.1-3.7,4.3L41.4,92c-0.1,0-0.2,0-0.3,0c-2.1,0-3.8-1.6-4-3.7
	c-0.2-2.2,1.5-4.1,3.7-4.3l9.9-0.8C52.9,83.1,54.8,84.7,54.9,86.9z M61.9,30.2c-0.2,1.8-1.7,3.2-3.5,3.2c-0.1,0-0.2,0-0.3,0
	c-1.9-0.2-3.3-1.9-3.1-3.8c0.6-5.7-4.4-7.8-5-8c-1.8-0.7-2.7-2.7-2.1-4.5c0.6-1.8,2.6-2.8,4.4-2.1C56,16.3,62.8,21.2,61.9,30.2z"/>
</svg>
