<?xml version="1.0" encoding="utf-8"?>
<!-- Generator: Adobe Illustrator 19.2.1, SVG Export Plug-In . SVG Version: 6.00 Build 0)  -->
<svg version="1.1" id="Layer_1" xmlns="http://www.w3.org/2000/svg" xmlns:xlink="http://www.w3.org/1999/xlink" x="0px" y="0px"
	 width="92px" height="92px" viewBox="0 0 92 92" enable-background="new 0 0 92 92" xml:space="preserve">
<path id="XMLID_1488_" d="M37.2,48c0,2.2-1.8,4-4,4L27,52.2c-1,0-1.9-0.3-2.6-1L1.2,27.8C0.4,27,0,26,0,24.9c0-1.1,0.4-2.1,1.2-2.8
	L22.1,1.2c1.6-1.6,4.1-1.6,5.7,0l23.4,23.4c1.6,1.6,1.6,4.1,0,5.6c-1.6,1.6-4.1,1.5-5.7,0L24.9,9.6L9.7,24.8L29,44h4.1
	C35.4,44,37.2,45.8,37.2,48z M90.8,64.2L67.6,40.9c-0.8-0.8-1.6-1-2.6-1L58.8,40c-2.2,0-4,1.8-4,4c0,2.2,1.8,4,4,4H63l19.4,19.2
	L67.1,82.4L46.5,61.8c-1.6-1.6-4.1-1.6-5.7,0c-1.6,1.6-1.6,4.1,0,5.6l23.4,23.4C65,91.6,66,92,67.1,92c1,0,2-0.4,2.8-1.2l20.9-20.9
	c0.8-0.7,1.2-1.8,1.2-2.8C92,66,91.6,65,90.8,64.2z M61,22.7c2.2,0,4-1.8,4-4v-10c0-2.2-1.8-4-4-4s-4,1.8-4,4v10
	C57,20.9,58.8,22.7,61,22.7z M72.7,35h10c2.2,0,4-1.8,4-4s-1.8-4-4-4h-10c-2.2,0-4,1.8-4,4S70.5,35,72.7,35z M31,68.7
	c-2.2,0-4,1.8-4,4v10c0,2.2,1.8,4,4,4s4-1.8,4-4v-10C35,70.5,33.2,68.7,31,68.7z M18.7,57h-10c-2.2,0-4,1.8-4,4s1.8,4,4,4h10
	c2.2,0,4-1.8,4-4S20.9,57,18.7,57z"/>
</svg>
