<?xml version="1.0" encoding="utf-8"?>
<!-- Generated by IcoMoon.io -->
<!DOCTYPE svg PUBLIC "-//W3C//DTD SVG 1.1//EN" "http://www.w3.org/Graphics/SVG/1.1/DTD/svg11.dtd">
<svg version="1.1" xmlns="http://www.w3.org/2000/svg" xmlns:xlink="http://www.w3.org/1999/xlink" width="32" height="32" viewBox="0 0 32 32">
<path fill="#444444" d="M15.534 8.411c0 0.102-0.102 0.102-0.102 0.102h-0.102c-0.102 0-0.102-0.102-0.204-0.204 0 0-0.102-0.102-0.102-0.204s0-0.102 0.102-0.102l0.204 0.102c0.102 0.102 0.204 0.204 0.204 0.306zM13.698 7.391c0-0.51-0.204-0.816-0.51-0.816 0 0 0 0.102-0.102 0.102v0.204h0.306c0 0.204 0.102 0.306 0.102 0.51h0.204zM17.268 6.881c0.204 0 0.306 0.204 0.408 0.51h0.204c-0.102-0.102-0.102-0.204-0.102-0.306s0-0.204-0.102-0.306-0.204-0.204-0.306-0.204c0 0-0.102 0.102-0.204 0.102 0 0.102 0.102 0.102 0.102 0.204zM14.208 8.513c-0.102 0-0.102 0-0.102-0.102s0-0.204 0.102-0.306c0.204 0 0.306-0.102 0.306-0.102 0.102 0 0.102 0.102 0.102 0.102 0 0.102-0.102 0.204-0.306 0.408h-0.102zM13.086 8.411c-0.408-0.204-0.51-0.51-0.51-1.020 0-0.306 0-0.51 0.204-0.714 0.102-0.204 0.306-0.306 0.51-0.306s0.306 0.102 0.51 0.306c0.102 0.306 0.204 0.612 0.204 0.918v0.204h0.102v-0.102c0.102 0 0.102-0.204 0.102-0.612 0-0.306 0-0.612-0.204-0.918s-0.408-0.51-0.816-0.51c-0.306 0-0.612 0.204-0.714 0.51-0.204 0.408-0.245 0.714-0.245 1.224 0 0.408 0.143 0.816 0.551 1.224 0.102-0.102 0.204-0.102 0.306-0.204zM25.834 22.791c0.102 0 0.102-0.041 0.102-0.133 0-0.224-0.102-0.489-0.408-0.785-0.306-0.306-0.816-0.5-1.428-0.581-0.102-0.010-0.204-0.010-0.204-0.010-0.102-0.020-0.102-0.020-0.204-0.020-0.102-0.010-0.306-0.031-0.408-0.051 0.306-0.949 0.408-1.785 0.408-2.519 0-1.020-0.204-1.734-0.612-2.346s-0.816-0.918-1.326-1.020c-0.102 0.102-0.102 0.102-0.102 0.204 0.51 0.204 1.020 0.612 1.326 1.224 0.306 0.714 0.408 1.326 0.408 2.040 0 0.571-0.102 1.418-0.51 2.499-0.408 0.163-0.816 0.54-1.122 1.132 0 0.092 0 0.143 0.102 0.143 0 0 0.102-0.092 0.204-0.265 0.204-0.173 0.306-0.347 0.51-0.52 0.306-0.173 0.51-0.265 0.816-0.265 0.51 0 1.020 0.071 1.326 0.214 0.408 0.133 0.612 0.275 0.714 0.439 0.102 0.153 0.204 0.296 0.306 0.428 0 0.132 0.102 0.194 0.102 0.194zM16.452 8.003c-0.102-0.102-0.102-0.306-0.102-0.51 0-0.408 0-0.612 0.204-0.918 0.204-0.204 0.408-0.306 0.612-0.306 0.306 0 0.51 0.204 0.714 0.408 0.102 0.306 0.204 0.51 0.204 0.816 0 0.51-0.204 0.816-0.612 0.918 0 0 0.102 0.102 0.204 0.102 0.204 0 0.306 0.102 0.51 0.204 0.102-0.612 0.204-1.020 0.204-1.53 0-0.612-0.102-1.020-0.306-1.326-0.306-0.306-0.612-0.408-1.020-0.408-0.306 0-0.612 0.102-0.918 0.306-0.204 0.306-0.306 0.51-0.306 0.816 0 0.51 0.102 0.918 0.306 1.326 0.102 0 0.204 0.102 0.306 0.102zM17.676 9.635c-1.326 0.918-2.346 1.326-3.162 1.326-0.714 0-1.428-0.306-2.040-0.816 0.102 0.204 0.204 0.408 0.306 0.51l0.612 0.612c0.408 0.408 0.918 0.612 1.428 0.612 0.714 0 1.53-0.408 2.55-1.122l0.918-0.612c0.204-0.204 0.408-0.408 0.408-0.714 0-0.102 0-0.204-0.102-0.204-0.102-0.204-0.612-0.51-1.632-0.816-0.918-0.408-1.632-0.612-2.040-0.612-0.306 0-0.816 0.204-1.53 0.612-0.612 0.408-1.020 0.816-1.020 1.224 0 0 0.102 0.102 0.204 0.306 0.612 0.51 1.224 0.816 1.836 0.816 0.816 0 1.836-0.408 3.162-1.428v0.204c0.102-0 0.102 0.102 0.102 0.102zM20.021 30.236c0.408 0.767 1.122 1.152 1.938 1.152 0.204 0 0.408-0.031 0.612-0.092 0.204-0.041 0.408-0.112 0.51-0.194 0.102-0.071 0.204-0.143 0.306-0.224 0.204-0.071 0.204-0.122 0.306-0.173l1.734-1.499c0.408-0.325 0.816-0.61 1.326-0.857 0.408-0.245 0.816-0.408 1.020-0.5 0.306-0.082 0.51-0.204 0.714-0.367 0.102-0.153 0.204-0.347 0.204-0.592 0-0.296-0.204-0.52-0.408-0.683s-0.408-0.275-0.612-0.347-0.408-0.235-0.714-0.51c-0.204-0.265-0.408-0.632-0.51-1.112l-0.102-0.591c-0.102-0.275-0.102-0.479-0.204-0.592 0-0.031 0-0.041-0.102-0.041s-0.306 0.092-0.408 0.265c-0.204 0.173-0.408 0.367-0.612 0.571-0.102 0.204-0.408 0.387-0.612 0.561-0.306 0.173-0.612 0.265-0.816 0.265-0.816 0-1.224-0.224-1.53-0.663-0.204-0.326-0.306-0.704-0.408-1.132-0.204-0.173-0.306-0.265-0.51-0.265-0.51 0-0.714 0.53-0.714 1.601v3.172c0 0.092-0.102 0.296-0.102 0.612-0.102 0.316-0.102 0.675-0.102 1.081l-0.204 1.132v0.017zM5.233 29.693c0.948 0.139 2.040 0.435 3.274 0.888 1.234 0.449 1.989 0.683 2.264 0.683 0.714 0 1.306-0.316 1.795-0.927 0.102-0.198 0.102-0.43 0.102-0.698 0-0.964-0.581-2.183-1.744-3.661l-0.694-0.928c-0.143-0.194-0.316-0.49-0.54-0.887-0.214-0.398-0.408-0.704-0.561-0.918-0.133-0.235-0.347-0.469-0.622-0.704-0.265-0.235-0.571-0.387-0.908-0.469-0.428 0.082-0.724 0.224-0.867 0.418s-0.224 0.408-0.245 0.632c-0.031 0.214-0.092 0.357-0.194 0.428-0.102 0.061-0.275 0.112-0.51 0.163-0.051 0-0.143 0-0.275 0.010h-0.275c-0.541 0-0.908 0.061-1.101 0.163-0.255 0.296-0.388 0.632-0.388 0.989 0 0.163 0.041 0.439 0.122 0.826 0.082 0.377 0.122 0.683 0.122 0.897 0 0.418-0.122 0.836-0.377 1.254-0.255 0.439-0.388 0.765-0.388 0.997 0.102 0.396 0.775 0.674 2.009 0.837zM8.629 20.42c0-0.704 0.184-1.479 0.561-2.397 0.367-0.918 0.734-1.53 1.091-1.938-0.020-0.102-0.071-0.102-0.153-0.102l-0.102-0.102c-0.296 0.306-0.653 1.020-1.081 2.040-0.428 0.918-0.653 1.764-0.653 2.387 0 0.459 0.112 0.857 0.316 1.203 0.224 0.337 0.765 0.826 1.622 1.448l1.081 0.704c1.152 1 1.764 1.693 1.764 2.101 0 0.214-0.102 0.428-0.408 0.663-0.204 0.245-0.479 0.367-0.714 0.367-0.020 0-0.031 0.020-0.031 0.071 0 0.010 0.102 0.214 0.316 0.612 0.428 0.581 1.346 0.867 2.57 0.867 2.244 0 3.977-0.918 5.303-2.754 0-0.51 0-0.826-0.102-0.959v-0.377c0-0.663 0.102-1.163 0.306-1.489s0.408-0.479 0.714-0.479c0.204 0 0.408 0.071 0.612 0.224 0.102-0.785 0.102-1.469 0.102-2.081 0-0.928 0-1.693-0.204-2.407-0.102-0.612-0.306-1.122-0.51-1.53-0.204-0.306-0.408-0.612-0.612-0.918s-0.306-0.612-0.51-0.918c-0.102-0.408-0.204-0.714-0.204-1.224-0.306-0.51-0.51-1.020-0.816-1.53-0.204-0.51-0.408-1.020-0.612-1.428l-0.918 0.714c-1.020 0.714-1.836 1.020-2.55 1.020-0.612 0-1.122-0.102-1.428-0.51l-0.612-0.51c0 0.306-0.102 0.714-0.306 1.122l-0.643 1.224c-0.286 0.714-0.438 1.122-0.469 1.428-0.041 0.204-0.071 0.408-0.092 0.408l-0.765 1.53c-0.826 1.53-1.244 2.947-1.244 4.12 0 0.235 0.020 0.479 0.061 0.724-0.459-0.316-0.683-0.755-0.683-1.326zM15.932 30.068c-1.326 0-2.346 0.18-3.060 0.535v-0.031c-0.51 0.612-1.081 0.928-1.877 0.928-0.5 0-1.285-0.194-2.346-0.581-1.071-0.367-2.019-0.649-2.845-0.834-0.082-0.023-0.265-0.058-0.561-0.105-0.286-0.046-0.551-0.093-0.785-0.14-0.214-0.046-0.459-0.115-0.724-0.209-0.255-0.081-0.459-0.186-0.612-0.313-0.141-0.129-0.21-0.273-0.21-0.436s0.035-0.337 0.104-0.523c0.065-0.112 0.137-0.224 0.208-0.326 0.071-0.112 0.133-0.214 0.173-0.316 0.061-0.092 0.102-0.184 0.143-0.286 0.041-0.092 0.082-0.184 0.102-0.296 0.020-0.102 0.041-0.204 0.041-0.306s-0.041-0.408-0.122-0.948c-0.082-0.53-0.122-0.867-0.122-1.010 0-0.449 0.102-0.806 0.326-1.061s0.439-0.388 0.663-0.388h1.173c0.092 0 0.235-0.051 0.449-0.173 0.071-0.163 0.133-0.296 0.173-0.418 0.051-0.122 0.071-0.214 0.092-0.255 0.020-0.061 0.041-0.122 0.061-0.173 0.041-0.071 0.092-0.153 0.163-0.235-0.082-0.102-0.122-0.235-0.122-0.398 0-0.112 0-0.214 0.020-0.275 0-0.367 0.173-0.887 0.54-1.571l0.357-0.643c0.296-0.551 0.52-0.959 0.683-1.367 0.173-0.408 0.357-1.020 0.561-1.836 0.163-0.714 0.551-1.428 1.163-2.142l0.765-0.918c0.53-0.612 0.877-1.122 1.071-1.53s0.296-0.918 0.296-1.326c0-0.204-0.051-0.816-0.163-1.836-0.102-1.020-0.153-2.040-0.153-2.958 0-0.714 0.061-1.224 0.194-1.734s0.367-1.020 0.714-1.428c0.306-0.408 0.714-0.816 1.326-1.020s1.326-0.306 2.142-0.306c0.306 0 0.612 0 0.918 0.102 0.306 0 0.714 0.102 1.224 0.306 0.408 0.204 0.816 0.408 1.122 0.714 0.408 0.306 0.714 0.816 1.020 1.326 0.204 0.612 0.408 1.224 0.51 2.040 0.102 0.51 0.102 1.020 0.204 1.734 0 0.612 0.102 1.020 0.102 1.326 0.102 0.306 0.102 0.714 0.204 1.224 0.102 0.408 0.204 0.816 0.408 1.122 0.204 0.408 0.408 0.816 0.714 1.224 0.306 0.51 0.714 1.020 1.122 1.632 0.918 1.020 1.632 2.142 2.040 3.263 0.51 1.020 0.816 2.346 0.816 3.763 0 0.704-0.102 1.387-0.306 2.050 0.204 0 0.306 0.082 0.408 0.224s0.204 0.449 0.306 0.928l0.102 0.755c0.102 0.224 0.204 0.439 0.51 0.622 0.204 0.184 0.408 0.337 0.714 0.459 0.204 0.102 0.51 0.245 0.714 0.428 0.204 0.204 0.306 0.418 0.306 0.642 0 0.347-0.102 0.602-0.306 0.785-0.204 0.204-0.408 0.347-0.714 0.439-0.204 0.102-0.612 0.306-1.224 0.594-0.51 0.302-1.020 0.668-1.53 1.101l-1.020 0.868c-0.408 0.398-0.816 0.683-1.122 0.857-0.306 0.184-0.714 0.275-1.122 0.275l-0.714-0.082c-0.816-0.214-1.326-0.622-1.632-1.244-1.632-0.198-2.958-0.296-3.774-0.296z"></path>
</svg>
