<?xml version="1.0" encoding="utf-8"?>
<!-- Generator: Adobe Illustrator 19.2.1, SVG Export Plug-In . SVG Version: 6.00 Build 0)  -->
<svg version="1.1" id="Layer_1" xmlns="http://www.w3.org/2000/svg" xmlns:xlink="http://www.w3.org/1999/xlink" x="0px" y="0px"
	 width="92px" height="92px" viewBox="0 0 92 92" enable-background="new 0 0 92 92" xml:space="preserve">
<path id="XMLID_1186_" d="M91.2,15c0,3.3-2.7,6-6,6H30.1c-3.3,0-6-2.7-6-6s2.7-6,6-6h55.1C88.5,9,91.2,11.7,91.2,15z M30.1,52h31.3
	c3.3,0,6-2.7,6-6s-2.7-6-6-6H30.1c-3.3,0-6,2.7-6,6S26.8,52,30.1,52z M74.3,71H30.1c-3.3,0-6,2.7-6,6s2.7,6,6,6h44.2
	c3.3,0,6-2.7,6-6S77.7,71,74.3,71z M6.8,8.5c-1.7,0-3.4,0.7-4.6,1.9S0.2,13.3,0.2,15s0.7,3.4,1.9,4.6c1.2,1.2,2.9,1.9,4.6,1.9
	s3.4-0.7,4.6-1.9c1.2-1.2,1.9-2.9,1.9-4.6s-0.7-3.4-1.9-4.6C10.2,9.2,8.5,8.5,6.8,8.5z M6.8,39.5c-1.7,0-3.4,0.7-4.6,1.9
	S0.2,44.3,0.2,46s0.7,3.4,1.9,4.6c1.2,1.2,2.9,1.9,4.6,1.9s3.4-0.7,4.6-1.9c1.2-1.2,1.9-2.9,1.9-4.6s-0.7-3.4-1.9-4.6
	C10.2,40.2,8.5,39.5,6.8,39.5z M6.8,70.5c-1.7,0-3.4,0.7-4.6,1.9S0.2,75.3,0.2,77s0.7,3.4,1.9,4.6c1.2,1.2,2.9,1.9,4.6,1.9
	s3.4-0.7,4.6-1.9c1.2-1.2,1.9-2.9,1.9-4.6s-0.7-3.4-1.9-4.6C10.2,71.2,8.5,70.5,6.8,70.5z"/>
</svg>
