<?xml version="1.0" encoding="utf-8"?>
<!-- Generator: Adobe Illustrator 19.2.1, SVG Export Plug-In . SVG Version: 6.00 Build 0)  -->
<svg version="1.1" id="Layer_1" xmlns="http://www.w3.org/2000/svg" xmlns:xlink="http://www.w3.org/1999/xlink" x="0px" y="0px"
	 width="92px" height="92px" viewBox="0 0 92 92" enable-background="new 0 0 92 92" xml:space="preserve">
<path id="XMLID_1054_" d="M68.4,7.9C62.7,2.8,54.7,0,46,0S29.3,2.8,23.6,7.9C16.6,14.1,13,23.4,13,35c0,25.1,28.9,54.6,30.2,55.8
	c0.8,0.8,1.8,1.2,2.8,1.2s2.1-0.4,2.8-1.2C50.1,89.6,79,60.1,79,35C79,23.4,75.4,14.1,68.4,7.9z M46,82.1c-2.7-3-7-8-11.2-14
	C25.8,55.3,21,43.9,21,35c0-25,19.1-27,25-27c23.2,0,25,20.7,25,27C71,52.6,53.1,74.3,46,82.1z M46,17.3c-8.8,0-15.9,7.3-15.9,16.2
	S37.2,49.6,46,49.6c8.8,0,15.9-7.3,15.9-16.2S54.8,17.3,46,17.3z M46,42.6c-4.9,0-8.9-4.1-8.9-9.2s4-9.2,8.9-9.2
	c4.9,0,8.9,4.1,8.9,9.2S50.9,42.6,46,42.6z"/>
</svg>
