<?xml version="1.0" encoding="utf-8"?>
<!-- Generator: Adobe Illustrator 19.2.1, SVG Export Plug-In . SVG Version: 6.00 Build 0)  -->
<svg version="1.1" id="Layer_1" xmlns="http://www.w3.org/2000/svg" xmlns:xlink="http://www.w3.org/1999/xlink" x="0px" y="0px"
	 width="92px" height="92px" viewBox="0 0 92 92" enable-background="new 0 0 92 92" xml:space="preserve">
<path id="XMLID_1385_" d="M73,33h-3v-6.9C70,11.3,60,1,46,1C32,1,22,11.3,22,26.1V33h-3c-2.2,0-4,1.8-4,4v50c0,2.2,1.8,4,4,4h54
	c2.2,0,4-1.8,4-4V37C77,34.8,75.2,33,73,33z M30,26.1C30,15.9,36.6,9,46,9c9.4,0,16,6.9,16,17.1V33H30V26.1z M69,83H23V41h46V83z"/>
</svg>
