<?xml version="1.0" encoding="utf-8"?>
<!-- Generated by IcoMoon.io -->
<!DOCTYPE svg PUBLIC "-//W3C//DTD SVG 1.1//EN" "http://www.w3.org/Graphics/SVG/1.1/DTD/svg11.dtd">
<svg version="1.1" xmlns="http://www.w3.org/2000/svg" xmlns:xlink="http://www.w3.org/1999/xlink" width="32" height="32" viewBox="0 0 32 32">
<path fill="#444444" d="M27.295 16.646c-0.071-0.087-0.16-0.062-0.24-0.002-0.063 0.047-0.124 0.095-0.195 0.149 0.016-0.572-0.053-0.811-0.314-0.946-0.419-0.217-0.797-0.073-1.169 0.185-0.008-0.086-0.016-0.158-0.020-0.23-0.007-0.114-0.070-0.182-0.18-0.179s-0.172 0.076-0.172 0.189c-0 0.122 0.012 0.243 0.008 0.365-0.008 0.216-0.013 0.433-0.044 0.646-0.019 0.13-0.121 0.215-0.259 0.217-0.142 0.001-0.218-0.090-0.251-0.222-0.011-0.046-0.022-0.093-0.028-0.139-0.024-0.168-0.035-0.338-0.073-0.502-0.064-0.28-0.292-0.394-0.542-0.254-0.133 0.074-0.234 0.206-0.345 0.317-0.039 0.039-0.063 0.093-0.101 0.15-0.067-0.463-0.221-0.689-0.825-0.295 0.015-0.052 0.031-0.091 0.037-0.131 0.012-0.092 0.049-0.201-0.076-0.243s-0.188 0.044-0.228 0.142c-0.050 0.122-0.088 0.249-0.132 0.373-0.099 0.281-0.209 0.556-0.43 0.768-0.084 0.080-0.177 0.14-0.299 0.093-0.13-0.050-0.143-0.167-0.129-0.279 0.031-0.251 0.084-0.5 0.108-0.752 0.007-0.072-0.038-0.188-0.094-0.219-0.101-0.055-0.175 0.028-0.215 0.126-0.022 0.054-0.038 0.11-0.057 0.164-0.056 0.16-0.105 0.322-0.169 0.478-0.057 0.14-0.156 0.253-0.322 0.235-0.171-0.019-0.171-0.177-0.203-0.303-0.044-0.173-0.068-0.355-0.135-0.519-0.077-0.19-0.283-0.237-0.45-0.116-0.089 0.064-0.163 0.15-0.237 0.232-0.054 0.059-0.097 0.128-0.156 0.208-0.035-0.177 0.013-0.29 0.115-0.401 0.292-0.318 0.534-0.671 0.688-1.077 0.135-0.358 0.201-0.726 0.109-1.104-0.064-0.263-0.307-0.353-0.53-0.197-0.1 0.070-0.19 0.173-0.25 0.28-0.085 0.151-0.165 0.314-0.198 0.481-0.097 0.486-0.169 0.978-0.253 1.467-0.009 0.055-0.022 0.119-0.057 0.157-0.35 0.385-0.72 0.747-1.174 1.012-0.413 0.241-0.85 0.337-1.326 0.235-0.698-0.149-1.154-0.719-1.090-1.371 0.084-0.848 0.829-1.725 1.655-1.947 0.337-0.091 0.648-0.075 0.914 0.188 0.085 0.084 0.193 0.131 0.293 0.026 0.1-0.104 0.027-0.207-0.048-0.278-0.098-0.093-0.21-0.181-0.331-0.236-0.254-0.116-0.525-0.109-0.794-0.051-1.4 0.304-2.027 1.632-2.089 2.594-0.014 0.217-0.058 0.442-0.139 0.642-0.103 0.254-0.367 0.33-0.579 0.209-0.201-0.114-0.253-0.385-0.125-0.608 0.249-0.436 0.507-0.868 0.736-1.315 0.156-0.303 0.233-0.637 0.177-0.983-0.027-0.164-0.105-0.306-0.28-0.352-0.174-0.046-0.324 0.029-0.417 0.165-0.112 0.164-0.215 0.341-0.282 0.527-0.206 0.566-0.265 1.163-0.321 1.759-0.032 0.335-0.214 0.582-0.47 0.776-0.17 0.128-0.348 0.037-0.351-0.175-0.003-0.157 0.026-0.316 0.043-0.473 0.015-0.147 0.043-0.294 0.043-0.441-0-0.050-0.062-0.132-0.109-0.142-0.049-0.011-0.136 0.029-0.167 0.074-0.050 0.071-0.072 0.163-0.098 0.249-0.048 0.151-0.073 0.312-0.14 0.454-0.064 0.134-0.151 0.272-0.263 0.366-0.176 0.147-0.363 0.079-0.436-0.138-0.033-0.099-0.052-0.207-0.052-0.31 0.001-0.201 0.030-0.401 0.029-0.602-0.001-0.219-0.129-0.362-0.344-0.35-0.162 0.009-0.341 0.051-0.475 0.137-0.361 0.231-0.589 0.576-0.693 0.991-0.061 0.242-0.028 0.478 0.184 0.65 0.208 0.169 0.445 0.172 0.672 0.061 0.147-0.072 0.272-0.191 0.419-0.298 0.106 0.147 0.258 0.269 0.483 0.258 0.217-0.011 0.385-0.122 0.537-0.265 0.199 0.323 0.358 0.414 0.621 0.362 0.28-0.055 0.444-0.265 0.607-0.484 0.217 0.649 1.072 0.741 1.399-0.125 0.541 0.618 1.031 0.842 1.795 0.805 0.621-0.030 1.114-0.336 1.551-0.751 0.148-0.14 0.282-0.295 0.423-0.443 0.034 0.090 0.039 0.157 0.034 0.223-0.021 0.269-0.044 0.538-0.067 0.807-0.008 0.1-0.009 0.2 0.115 0.227s0.203-0.040 0.241-0.154c0.044-0.13 0.076-0.265 0.125-0.393 0.092-0.241 0.185-0.483 0.296-0.716 0.030-0.062 0.127-0.092 0.193-0.136 0.037 0.067 0.088 0.129 0.107 0.2 0.038 0.142 0.046 0.293 0.089 0.434 0.082 0.274 0.293 0.371 0.56 0.264 0.095-0.038 0.18-0.101 0.278-0.157 0.029 0.208 0.096 0.39 0.313 0.461 0.207 0.067 0.392-0.002 0.561-0.118 0.137 0.207 0.27 0.199 0.377-0.016 0.045-0.090 0.074-0.187 0.121-0.276 0.116-0.219 0.229-0.441 0.363-0.649 0.063-0.098 0.162-0.205 0.304-0.139 0.134 0.063 0.116 0.2 0.115 0.322-0 0.021-0.007 0.042-0.010 0.063-0.027 0.188-0.064 0.376-0.074 0.566-0.003 0.061 0.058 0.171 0.103 0.178 0.065 0.010 0.151-0.041 0.21-0.088 0.040-0.032 0.045-0.104 0.069-0.157 0.119-0.264 0.232-0.532 0.366-0.788 0.030-0.058 0.14-0.11 0.206-0.103 0.048 0.006 0.106 0.109 0.122 0.177 0.036 0.154 0.042 0.314 0.071 0.47 0.079 0.432 0.235 0.56 0.614 0.498 0.008-0.001 0.018 0.008 0.014 0.006-0.031 0.197-0.078 0.388-0.087 0.581-0.010 0.194-0.003 0.394 0.035 0.584 0.033 0.16 0.098 0.326 0.192 0.458 0.105 0.147 0.297 0.099 0.365-0.070 0.021-0.053 0.035-0.112 0.039-0.169 0.020-0.258 0.043-0.517 0.052-0.775 0.009-0.235 0.002-0.47 0.002-0.701 0.035-0.005 0.041-0.008 0.046-0.006 0.041 0.011 0.081 0.024 0.122 0.035 0.646 0.179 1.211 0.018 1.714-0.406 0.086-0.072 0.111-0.162 0.039-0.25zM19.684 14.049c0.019-0.043 0.045-0.093 0.082-0.114 0.055-0.032 0.129-0.067 0.183-0.053 0.043 0.011 0.091 0.092 0.094 0.144 0.006 0.114-0.003 0.233-0.028 0.345-0.094 0.426-0.295 0.801-0.563 1.143-0.016 0.020-0.019 0.050-0.028 0.075-0.018-0.012-0.036-0.025-0.054-0.038 0.063-0.509 0.096-1.025 0.314-1.504zM14.385 14.348c0.024-0.063 0.054-0.133 0.102-0.176s0.139-0.095 0.184-0.077c0.057 0.024 0.115 0.111 0.12 0.176 0.009 0.096-0.010 0.204-0.048 0.294-0.187 0.434-0.384 0.864-0.577 1.295-0.023-0.008-0.046-0.016-0.069-0.024 0.061-0.502 0.102-1.008 0.288-1.487zM11.278 16.758c-0.044 0.096-0.148 0.185-0.246 0.234-0.26 0.128-0.493-0.041-0.457-0.326 0.049-0.378 0.261-0.654 0.585-0.841 0.22-0.127 0.341-0.043 0.336 0.212 0.013 0.005 0.027 0.009 0.040 0.014-0.084 0.236-0.154 0.479-0.258 0.706zM25.071 18.593c-0.14-0.368-0.117-0.735 0-1.102 0 0.367 0 0.735 0 1.102zM26.235 16.98c-0.217 0.083-0.434 0.069-0.649-0.016-0.154-0.061-0.224-0.168-0.206-0.333-0.002-0.209 0.079-0.377 0.281-0.452 0.231-0.087 0.475-0.147 0.695 0.023 0.267 0.206 0.194 0.659-0.12 0.779zM10.141 17.163c-0.168-0.016-0.28-0.112-0.355-0.258-0.106-0.207-0.123-0.43-0.081-0.65 0.070-0.368 0.162-0.731 0.24-1.098 0.047-0.221 0.108-0.443 0.121-0.667 0.019-0.334-0.186-0.493-0.517-0.44-0.29 0.046-0.498 0.224-0.685 0.43-0.443 0.488-0.731 1.072-1.017 1.658-0.087 0.178-0.172 0.357-0.258 0.535-0.018-0.004-0.035-0.008-0.053-0.012 0.024-0.194 0.045-0.389 0.074-0.583 0.054-0.365 0.128-0.729 0.164-1.096 0.020-0.202 0.008-0.434-0.218-0.537s-0.41 0.036-0.551 0.183c-0.243 0.256-0.476 0.526-0.682 0.811-0.235 0.324-0.436 0.673-0.677 1.049 0.024-0.096 0.038-0.15 0.051-0.204 0.076-0.335 0.17-0.667 0.224-1.005 0.051-0.319 0.063-0.643-0.071-0.953-0.096-0.223-0.257-0.363-0.503-0.38-0.253-0.017-0.467 0.076-0.627 0.277-0.031 0.039-0.055 0.095-0.056 0.144-0.001 0.053 0.015 0.133 0.050 0.152 0.045 0.025 0.123 0.016 0.175-0.007 0.066-0.029 0.116-0.091 0.177-0.132 0.174-0.115 0.342-0.077 0.442 0.106 0.040 0.073 0.075 0.158 0.077 0.238 0.006 0.205 0.023 0.416-0.018 0.614-0.098 0.475-0.231 0.944-0.341 1.417-0.042 0.179-0.069 0.363-0.083 0.546-0.004 0.051 0.055 0.133 0.105 0.154s0.141 0.002 0.185-0.035c0.075-0.063 0.135-0.149 0.187-0.234 0.162-0.261 0.308-0.531 0.477-0.787 0.3-0.454 0.604-0.905 0.923-1.346 0.083-0.116 0.225-0.189 0.339-0.282 0.016 0.012 0.033 0.025 0.049 0.037 0 0.072 0.007 0.145-0.001 0.217-0.027 0.242-0.062 0.482-0.089 0.724-0.040 0.35-0.084 0.701-0.109 1.052-0.009 0.13 0.052 0.255 0.191 0.3 0.151 0.049 0.289 0.002 0.382-0.123 0.085-0.113 0.158-0.238 0.221-0.365 0.194-0.387 0.371-0.784 0.573-1.167 0.189-0.358 0.425-0.686 0.771-0.912 0.088-0.057 0.209-0.062 0.315-0.091 0.006 0.106 0.034 0.217 0.013 0.318-0.078 0.361-0.193 0.716-0.255 1.080-0.056 0.325-0.098 0.662-0.077 0.989 0.026 0.4 0.404 0.676 0.777 0.626 0.097-0.013 0.198-0.039 0.199-0.163 0.001-0.115-0.090-0.124-0.179-0.133zM21.334 15.528c0.191 0.009 0.349-0.147 0.354-0.349 0.003-0.157-0.088-0.275-0.218-0.281-0.178-0.009-0.334 0.177-0.34 0.404-0.004 0.141 0.067 0.22 0.205 0.226zM12.984 15.402c0.177 0.002 0.298-0.122 0.293-0.297-0.005-0.148-0.095-0.246-0.229-0.249-0.159-0.003-0.268 0.129-0.266 0.323 0.001 0.149 0.067 0.221 0.203 0.223z"></path>
</svg>
