<?xml version="1.0" encoding="utf-8"?>
<!-- Generated by IcoMoon.io -->
<!DOCTYPE svg PUBLIC "-//W3C//DTD SVG 1.1//EN" "http://www.w3.org/Graphics/SVG/1.1/DTD/svg11.dtd">
<svg version="1.1" xmlns="http://www.w3.org/2000/svg" xmlns:xlink="http://www.w3.org/1999/xlink" width="34" height="32" viewBox="0 0 34 32">
<path fill="#444444" d="M26.007 17.832l0.033 0.018-0.070-0.027c0.013-0 0.026 0.003 0.037 0.009zM26.007 17.832c0.010 0.008 0.022 0.012 0.035 0.014l-0.070-0.027 0.035 0.013z"></path>
<path fill="#444444" d="M25.964 17.964c-0.025 0.087-0.043 0.177-0.057 0.267s-0.032 0.18-0.057 0.267l-0.073-0.020c0.025-0.088 0.058-0.173 0.094-0.257s0.068-0.169 0.094-0.256zM25.964 17.964c-0.025 0.087-0.043 0.177-0.057 0.267s-0.032 0.179-0.057 0.266l-0.073-0.020c0.025-0.087 0.058-0.172 0.093-0.256s0.068-0.169 0.093-0.256z"></path>
<path fill="#444444" d="M23.919 23.335c-0.090-0.022-0.167-0.076-0.235-0.137-0.032-0.033-0.066-0.064-0.093-0.101l-0.043-0.054-0.039-0.057c-0.102-0.152-0.183-0.318-0.257-0.485-0.073-0.168-0.137-0.34-0.198-0.513-0.059-0.173-0.115-0.348-0.167-0.524-0.104-0.351-0.198-0.706-0.287-1.061s-0.172-0.712-0.251-1.070c-0.159-0.715-0.305-1.434-0.447-2.152l-0.209-1.079c-0.067-0.36-0.136-0.72-0.199-1.081l0.068-0.002-0.002 0.014-0-0.012c0.064 0.362 0.132 0.721 0.199 1.082l0.203 1.082c0.136 0.721 0.279 1.44 0.43 2.158 0.075 0.359 0.155 0.717 0.239 1.074s0.175 0.712 0.277 1.064c0.101 0.352 0.214 0.701 0.356 1.039 0.073 0.168 0.152 0.333 0.253 0.486l0.038 0.057 0.042 0.054c0.027 0.037 0.060 0.068 0.091 0.102 0.067 0.061 0.142 0.115 0.231 0.137l-0.001-0 0.084-0.007c0.028-0.002 0.054-0.013 0.081-0.018s0.053-0.018 0.078-0.029c0.026-0.011 0.052-0.022 0.075-0.038 0.023-0.015 0.049-0.028 0.071-0.045l0.066-0.053c0.022-0.017 0.040-0.039 0.061-0.058s0.040-0.039 0.058-0.061 0.073-0.086 0.105-0.132c0.016-0.023 0.035-0.045 0.048-0.069l0.042-0.074 0.042-0.073c0.015-0.024 0.026-0.050 0.038-0.075l0.074-0.152 0.005 0.002c-0.049 0.1-0.101 0.198-0.159 0.292-0.029 0.047-0.060 0.093-0.092 0.138s-0.067 0.088-0.104 0.13c-0.018 0.021-0.038 0.040-0.057 0.060s-0.041 0.038-0.061 0.056-0.087 0.069-0.135 0.097c-0.025 0.012-0.048 0.028-0.074 0.037-0.026 0.011-0.051 0.021-0.078 0.028-0.026 0.009-0.054 0.013-0.081 0.017s-0.055 0.004-0.083 0.006zM23.919 23.335c0.028-0.002 0.056-0.001 0.083-0.007s0.055-0.009 0.081-0.018c0.027-0.007 0.052-0.017 0.078-0.028 0.026-0.010 0.049-0.025 0.074-0.037 0.048-0.028 0.093-0.061 0.135-0.097 0.020-0.019 0.042-0.036 0.061-0.056s0.039-0.039 0.057-0.061c0.037-0.041 0.071-0.085 0.104-0.13s0.063-0.091 0.092-0.138c0.058-0.095 0.109-0.193 0.158-0.292l0.005 0.003-0.073 0.152c-0.013 0.025-0.023 0.051-0.038 0.075l-0.042 0.073-0.042 0.074c-0.013 0.026-0.032 0.047-0.048 0.070-0.032 0.047-0.068 0.090-0.104 0.133-0.017 0.023-0.038 0.042-0.058 0.062s-0.039 0.041-0.061 0.059l-0.066 0.053c-0.022 0.018-0.048 0.031-0.071 0.046s-0.049 0.028-0.076 0.039c-0.026 0.011-0.051 0.024-0.080 0.030s-0.055 0.017-0.083 0.019l-0.086 0.007-0.001-0c-0.092-0.022-0.17-0.077-0.238-0.138-0.032-0.033-0.066-0.065-0.094-0.102l-0.043-0.054-0.039-0.057c-0.103-0.153-0.185-0.319-0.26-0.486-0.146-0.337-0.264-0.686-0.369-1.038s-0.2-0.707-0.289-1.063c-0.089-0.356-0.172-0.714-0.251-1.072-0.159-0.717-0.302-1.437-0.442-2.157-0.069-0.36-0.14-0.72-0.205-1.082s-0.133-0.723-0.195-1.084l-0.001-0.006 0.001-0.005 0.002-0.012 0.035-0.194 0.033 0.193c0.062 0.361 0.129 0.721 0.195 1.081l0.199 1.081c0.134 0.72 0.273 1.439 0.424 2.156 0.075 0.358 0.155 0.716 0.239 1.072s0.175 0.711 0.278 1.063c0.051 0.176 0.106 0.35 0.165 0.524 0.060 0.173 0.123 0.345 0.195 0.513 0.073 0.168 0.154 0.333 0.255 0.486l0.038 0.057 0.043 0.054c0.027 0.037 0.061 0.068 0.092 0.102 0.068 0.061 0.144 0.116 0.234 0.138z"></path>
<path fill="#444444" d="M14.964 23.335l-0.052 0.019c-0.018 0.003-0.036 0.005-0.055 0.008v0c-0.091-0.022-0.169-0.077-0.237-0.139-0.032-0.033-0.066-0.065-0.093-0.103l-0.043-0.054-0.039-0.058c-0.103-0.154-0.184-0.321-0.258-0.491s-0.137-0.344-0.199-0.518c-0.059-0.175-0.116-0.352-0.168-0.529s-0.102-0.356-0.149-0.535c-0.048-0.179-0.093-0.358-0.138-0.538-0.089-0.359-0.172-0.72-0.252-1.081-0.159-0.723-0.306-1.448-0.449-2.175l-0.21-1.090-0.103-0.545c-0.035-0.183-0.066-0.364-0.099-0.547l0.064 0.001-0.008 0.042-0.008 0.041-0-0.011c0.033 0.182 0.063 0.362 0.099 0.542l0.104 0.542 0.211 1.083c0.143 0.721 0.285 1.443 0.441 2.162 0.078 0.359 0.159 0.718 0.245 1.075s0.177 0.713 0.28 1.066c0.102 0.353 0.217 0.702 0.359 1.039 0.074 0.167 0.154 0.332 0.255 0.484 0.049 0.077 0.108 0.146 0.172 0.21 0.067 0.060 0.141 0.112 0.227 0.136l-0.004-0.001c0.055-0.001 0.108-0.023 0.155-0.054 0.046-0.033 0.089-0.072 0.125-0.117 0.020-0.021 0.037-0.045 0.054-0.068s0.034-0.047 0.049-0.072 0.061-0.1 0.089-0.151c0.111-0.207 0.2-0.425 0.281-0.645 0.020-0.055 0.040-0.11 0.059-0.166 0.021-0.055 0.037-0.111 0.053-0.168l0.099-0.339 0.196-0.679 0.010 0.003c-0.116 0.433-0.239 0.864-0.39 1.286-0.038 0.105-0.078 0.21-0.121 0.314s-0.089 0.206-0.139 0.306c-0.024 0.051-0.053 0.099-0.080 0.148-0.030 0.047-0.057 0.096-0.092 0.141-0.017 0.022-0.033 0.046-0.051 0.067l-0.056 0.062c-0.020 0.019-0.043 0.036-0.064 0.055-0.023 0.016-0.048 0.029-0.072 0.043zM14.964 23.335c0.024-0.015 0.049-0.027 0.072-0.044 0.021-0.018 0.043-0.036 0.063-0.055l0.056-0.062c0.018-0.021 0.034-0.045 0.051-0.067 0.034-0.044 0.061-0.094 0.091-0.141 0.026-0.049 0.055-0.097 0.079-0.148 0.050-0.1 0.095-0.203 0.138-0.306s0.082-0.208 0.12-0.314c0.149-0.422 0.271-0.854 0.385-1.287l0.010 0.003-0.192 0.68-0.095 0.34c-0.015 0.056-0.032 0.114-0.052 0.169-0.018 0.056-0.038 0.111-0.058 0.167-0.080 0.222-0.167 0.441-0.277 0.651-0.028 0.052-0.056 0.104-0.089 0.154-0.016 0.025-0.032 0.050-0.050 0.074s-0.035 0.048-0.055 0.071-0.082 0.088-0.13 0.124c-0.051 0.034-0.109 0.060-0.173 0.062l-0.002 0-0.002-0.001c-0.094-0.025-0.173-0.080-0.244-0.142-0.067-0.066-0.128-0.137-0.179-0.215-0.105-0.154-0.188-0.32-0.264-0.488-0.147-0.339-0.266-0.689-0.371-1.041s-0.201-0.709-0.289-1.066c-0.088-0.358-0.171-0.716-0.249-1.076-0.157-0.719-0.306-1.44-0.446-2.162l-0.207-1.084-0.102-0.542c-0.035-0.18-0.066-0.363-0.097-0.544l-0.001-0.006 0.001-0.005 0.008-0.044 0.008-0.042 0.034-0.17 0.030 0.171 0.194 1.093 0.2 1.092c0.136 0.727 0.276 1.454 0.428 2.178 0.154 0.724 0.316 1.446 0.523 2.157 0.051 0.178 0.107 0.354 0.166 0.53 0.061 0.174 0.123 0.349 0.197 0.519s0.154 0.337 0.256 0.491l0.039 0.058 0.043 0.055c0.027 0.037 0.061 0.070 0.093 0.103 0.068 0.062 0.145 0.117 0.236 0.14v0c0.018-0.003 0.037-0.005 0.055-0.008l0.052-0.019z"></path>
<path fill="#444444" d="M5.744 23.335c-0.028-0.030-0.069-0.043-0.101-0.067-0.017-0.011-0.034-0.023-0.049-0.036s-0.032-0.026-0.045-0.041c-0.059-0.056-0.106-0.124-0.149-0.193-0.024-0.033-0.040-0.071-0.060-0.106s-0.038-0.072-0.054-0.109l-0.051-0.111-0.044-0.114c-0.031-0.075-0.056-0.153-0.081-0.23-0.027-0.077-0.050-0.155-0.072-0.233-0.047-0.156-0.084-0.315-0.123-0.473-0.037-0.159-0.070-0.318-0.104-0.477l-0.090-0.48c-0.030-0.16-0.054-0.321-0.088-0.48s-0.063-0.318-0.102-0.476l-0.056-0.237-0.063-0.235c-0.040-0.158-0.093-0.311-0.139-0.466-0.055-0.152-0.104-0.307-0.168-0.456-0.058-0.152-0.129-0.297-0.198-0.443l-0.116-0.213c-0.039-0.071-0.086-0.137-0.128-0.205-0.041-0.070-0.094-0.131-0.142-0.196-0.046-0.066-0.103-0.123-0.157-0.183-0.052-0.062-0.114-0.112-0.174-0.166-0.057-0.057-0.127-0.097-0.191-0.145-0.032-0.025-0.067-0.044-0.102-0.062l-0.106-0.057c-0.072-0.035-0.149-0.058-0.223-0.088l0.009 0.001-0.081 0 0.007-0.061c0.079 0.027 0.161 0.048 0.238 0.080l0.113 0.054c0.038 0.018 0.076 0.035 0.11 0.060 0.143 0.087 0.275 0.191 0.391 0.31 0.119 0.117 0.222 0.248 0.318 0.384 0.045 0.070 0.094 0.137 0.135 0.209l0.122 0.217c0.073 0.149 0.147 0.297 0.207 0.451 0.067 0.152 0.118 0.309 0.174 0.464 0.026 0.078 0.049 0.158 0.073 0.236s0.049 0.158 0.069 0.238c0.043 0.159 0.085 0.319 0.12 0.48 0.039 0.16 0.071 0.322 0.103 0.484 0.034 0.161 0.059 0.324 0.088 0.486l0.087 0.485c0.030 0.161 0.065 0.321 0.099 0.482 0.039 0.159 0.073 0.32 0.119 0.477 0.021 0.079 0.043 0.158 0.069 0.236 0.025 0.078 0.048 0.156 0.079 0.232l0.043 0.115 0.049 0.112c0.016 0.037 0.033 0.074 0.053 0.11s0.036 0.073 0.059 0.106c0.043 0.068 0.088 0.136 0.144 0.191 0.013 0.015 0.028 0.028 0.043 0.040s0.030 0.025 0.047 0.035c0.032 0.025 0.068 0.033 0.108 0.075l-0.021-0.010c0.054-0.001 0.107-0.023 0.154-0.054s0.088-0.074 0.127-0.117c0.038-0.045 0.072-0.093 0.105-0.143 0.031-0.050 0.062-0.102 0.090-0.154 0.112-0.211 0.203-0.434 0.285-0.66 0.021-0.057 0.041-0.112 0.058-0.17l0.163-0.517 0.192-0.695 0.037 0.010c-0.061 0.231-0.127 0.461-0.196 0.689s-0.144 0.456-0.227 0.68c-0.083 0.224-0.175 0.446-0.288 0.656-0.057 0.105-0.121 0.207-0.199 0.298-0.039 0.045-0.083 0.087-0.132 0.12s-0.107 0.056-0.167 0.056zM5.744 23.335c0.060-0.001 0.117-0.025 0.166-0.058s0.092-0.076 0.13-0.121c0.076-0.092 0.138-0.194 0.194-0.3 0.111-0.211 0.198-0.434 0.279-0.658 0.159-0.45 0.285-0.91 0.405-1.372l0.037 0.010-0.189 0.698-0.16 0.518c-0.017 0.058-0.038 0.116-0.058 0.172-0.082 0.227-0.172 0.452-0.285 0.667-0.028 0.054-0.059 0.106-0.091 0.158-0.033 0.051-0.068 0.101-0.108 0.149-0.041 0.046-0.083 0.093-0.137 0.127-0.052 0.035-0.114 0.063-0.182 0.063l-0.012 0-0.009-0.010c-0.017-0.019-0.062-0.038-0.096-0.063-0.018-0.011-0.035-0.024-0.051-0.038-0.017-0.013-0.033-0.027-0.047-0.043-0.061-0.060-0.109-0.13-0.153-0.201-0.024-0.035-0.040-0.073-0.061-0.109s-0.038-0.074-0.054-0.112l-0.050-0.114-0.044-0.116c-0.031-0.077-0.055-0.156-0.081-0.234-0.027-0.078-0.049-0.158-0.071-0.237-0.047-0.158-0.083-0.319-0.122-0.479-0.035-0.161-0.070-0.323-0.101-0.484l-0.089-0.486c-0.030-0.161-0.055-0.324-0.090-0.484-0.033-0.161-0.065-0.322-0.104-0.481-0.036-0.16-0.078-0.319-0.122-0.477-0.020-0.079-0.044-0.158-0.069-0.236s-0.048-0.157-0.074-0.234c-0.056-0.154-0.106-0.31-0.171-0.46-0.058-0.153-0.132-0.299-0.202-0.446l-0.119-0.214c-0.041-0.071-0.088-0.137-0.132-0.206-0.093-0.133-0.193-0.262-0.308-0.376-0.113-0.116-0.24-0.218-0.378-0.302-0.033-0.024-0.069-0.041-0.106-0.058l-0.109-0.053c-0.074-0.031-0.153-0.052-0.229-0.078l-0.175-0.061 0.268 0.001 0.003 0.001c0.077 0.031 0.156 0.056 0.23 0.092l0.109 0.059c0.037 0.019 0.073 0.039 0.105 0.065 0.066 0.049 0.138 0.092 0.196 0.15 0.061 0.056 0.125 0.108 0.177 0.171 0.055 0.062 0.113 0.12 0.159 0.188 0.048 0.067 0.102 0.129 0.143 0.2 0.043 0.070 0.090 0.137 0.129 0.209l0.116 0.216c0.069 0.148 0.141 0.295 0.198 0.448 0.064 0.15 0.112 0.306 0.167 0.46 0.046 0.156 0.098 0.311 0.137 0.469l0.062 0.236 0.055 0.238c0.038 0.158 0.068 0.319 0.1 0.478 0.033 0.16 0.057 0.32 0.086 0.48l0.084 0.48c0.031 0.159 0.063 0.319 0.097 0.478 0.037 0.158 0.072 0.317 0.117 0.473 0.020 0.079 0.043 0.157 0.068 0.234 0.024 0.078 0.048 0.155 0.078 0.231l0.042 0.114 0.049 0.112c0.015 0.038 0.033 0.074 0.053 0.11s0.036 0.073 0.059 0.107c0.043 0.069 0.088 0.137 0.146 0.194 0.013 0.015 0.029 0.029 0.045 0.041s0.031 0.026 0.048 0.037 0.073 0.038 0.1 0.069z"></path>
<path fill="#444444" d="M28.19 23.388c0 0 0.92-0.526 1.104-2.551 0.263-2.839 0.736-3.838 2.235-4.338h-4.285c-0.459 0.077-0.769 0.329-1.003 0.823 0.001 0.002 0.001 0.004 0.001 0.005-0.001 0.003-0.002 0.005-0.004 0.007 0.001 0.006 0.002 0.012 0.004 0.019-0.311 0.569-0.518 1.475-0.699 2.692-0.201 1.17-0.488 2.176-0.869 2.743-0.223 0.362-0.479 0.572-0.769 0.572z"></path>
<path fill="#444444" d="M26.224 17.364c-0.001-0.007-0.002-0.013-0.004-0.019-0.077 0.142-0.148 0.304-0.213 0.487-0.001 0.001-0.001 0.002-0.001 0.002-0.015 0.041-0.028 0.087-0.042 0.13-0.052 0.162-0.103 0.334-0.151 0.523-0.111 0.448-0.207 0.973-0.296 1.574-0.165 0.964-0.389 1.816-0.674 2.41-0.065 0.145-0.133 0.276-0.205 0.391 0.385-0.574 0.675-1.591 0.879-2.775 0.183-1.231 0.393-2.148 0.707-2.724z"></path>
<path fill="#444444" d="M23.57 8.618c-0.073 0.002-0.138 0.037-0.195 0.078-0.054 0.046-0.104 0.098-0.146 0.156-0.086 0.114-0.155 0.24-0.216 0.368-0.062 0.128-0.117 0.26-0.169 0.393s-0.099 0.268-0.143 0.403c-0.045 0.135-0.087 0.272-0.128 0.409s-0.079 0.274-0.117 0.412c-0.075 0.276-0.145 0.553-0.21 0.83-0.262 1.112-0.484 2.233-0.69 3.357l-0.023 0.128-0.022-0.129-0.002-0.012 0.046-0.001-0.002 0.009 0-0.008c0.063 0.361 0.131 0.72 0.199 1.081l0.205 1.079c0.139 0.719 0.283 1.438 0.439 2.153 0.078 0.358 0.159 0.715 0.246 1.070s0.18 0.709 0.284 1.060c0.052 0.175 0.107 0.349 0.166 0.522 0.060 0.172 0.124 0.343 0.196 0.51 0.074 0.166 0.154 0.33 0.254 0.479l0.038 0.056 0.042 0.052c0.026 0.036 0.059 0.066 0.089 0.098 0.065 0.058 0.137 0.108 0.218 0.128l-0.008-0.001c0.12-0.001 0.237-0.041 0.338-0.11 0.102-0.067 0.189-0.158 0.266-0.255s0.144-0.205 0.204-0.316c0.030-0.054 0.060-0.113 0.085-0.167l0.074-0.177c0.026-0.059 0.045-0.118 0.068-0.178 0.021-0.060 0.045-0.118 0.063-0.179 0.039-0.121 0.079-0.242 0.112-0.364 0.036-0.122 0.067-0.245 0.098-0.368s0.057-0.248 0.087-0.372l0.076-0.374 0.069-0.376 0.14-0.752c0.022-0.125 0.055-0.25 0.082-0.375l0.085-0.374c0.013-0.063 0.031-0.126 0.049-0.186l0.053-0.184c0.036-0.123 0.069-0.244 0.113-0.37l-0.001 0.003 0.091-0.244c0.016-0.040 0.035-0.080 0.052-0.12l0.053-0.119 0.035-0.081 0.017 0.087 0.004 0.020-0.052-0.006 0.016-0.030-0.002 0.017-0.095-0.569c-0.029-0.189-0.065-0.378-0.1-0.568l-0.21-1.134c-0.142-0.755-0.288-1.51-0.447-2.262-0.079-0.376-0.163-0.751-0.25-1.125s-0.18-0.747-0.285-1.117c-0.052-0.185-0.107-0.369-0.168-0.551s-0.124-0.363-0.199-0.54c-0.074-0.177-0.155-0.352-0.259-0.513-0.027-0.040-0.052-0.081-0.083-0.117-0.015-0.019-0.029-0.038-0.045-0.056l-0.050-0.052c-0.069-0.066-0.148-0.125-0.242-0.147l0.001 0-0.174-0.001c-0.029 0.001-0.058-0.002-0.087 0.003l-0.022 0.003c-0.007 0.001-0.015 0.001-0.021 0.004l-0.041 0.016-0-0.001 0.153 0.001zM23.57 8.618l-0.157 0.001 0.044-0.018c0.007-0.003 0.014-0.003 0.022-0.004l0.021-0.003c0.029-0.006 0.058-0.003 0.087-0.004l0.175-0.001c0.095 0.022 0.176 0.081 0.246 0.147l0.051 0.052c0.016 0.018 0.030 0.037 0.046 0.056 0.032 0.037 0.057 0.078 0.084 0.117 0.105 0.161 0.189 0.336 0.265 0.512s0.142 0.358 0.204 0.54c0.062 0.182 0.119 0.366 0.173 0.55 0.216 0.739 0.389 1.489 0.55 2.24s0.31 1.506 0.454 2.262l0.214 1.133c0.035 0.189 0.072 0.377 0.102 0.568l0.096 0.568 0.002 0.010-0.004 0.008-0.015 0.030-0.037 0.073-0.015-0.079-0.003-0.018 0.052 0.006-0.051 0.118c-0.017 0.040-0.035 0.078-0.051 0.118l-0.089 0.242-0.001 0.003c-0.039 0.115-0.074 0.24-0.108 0.362l-0.053 0.184c-0.018 0.062-0.035 0.121-0.048 0.184l-0.083 0.372c-0.027 0.125-0.058 0.248-0.080 0.373l-0.138 0.753-0.068 0.377-0.076 0.376c-0.029 0.125-0.054 0.25-0.086 0.374-0.031 0.124-0.061 0.248-0.098 0.371-0.033 0.124-0.073 0.246-0.112 0.368-0.018 0.061-0.042 0.121-0.063 0.182-0.023 0.060-0.042 0.122-0.068 0.18l-0.073 0.177c-0.029 0.061-0.057 0.117-0.088 0.174-0.062 0.113-0.13 0.224-0.21 0.326s-0.171 0.199-0.283 0.272c-0.11 0.075-0.243 0.121-0.379 0.122h-0.004l-0.004-0.001c-0.099-0.024-0.181-0.083-0.251-0.147-0.033-0.034-0.068-0.067-0.095-0.105l-0.044-0.055-0.039-0.058c-0.103-0.156-0.184-0.323-0.258-0.491s-0.136-0.342-0.197-0.516c-0.059-0.174-0.114-0.349-0.166-0.526-0.103-0.352-0.195-0.708-0.281-1.064s-0.167-0.714-0.244-1.072c-0.154-0.717-0.295-1.436-0.432-2.156l-0.202-1.080c-0.066-0.36-0.133-0.721-0.195-1.082l-0.001-0.005 0.001-0.004 0.001-0.004 0.027-0.113 0.019 0.112 0.002 0.013-0.046-0.001c0.105-0.562 0.213-1.123 0.329-1.683s0.238-1.118 0.376-1.673c0.068-0.277 0.141-0.554 0.218-0.829 0.039-0.138 0.078-0.275 0.121-0.411s0.085-0.273 0.132-0.408c0.046-0.136 0.095-0.27 0.147-0.403s0.109-0.265 0.172-0.393c0.063-0.128 0.133-0.254 0.22-0.367 0.043-0.057 0.093-0.109 0.148-0.155 0.058-0.041 0.124-0.076 0.197-0.077z"></path>
<path fill="#444444" d="M26.22 17.345c0.001-0.002 0.002-0.005 0.004-0.007-0-0.002-0.001-0.004-0.001-0.005-0.001 0.003-0.002 0.005-0.003 0.007 0 0.002 0 0.004 0.001 0.006z"></path>
<path fill="#444444" d="M26.006 17.835c-0.014 0.042-0.029 0.086-0.042 0.13 0.014-0.043 0.028-0.089 0.042-0.13z"></path>
<path fill="#444444" d="M26.204 17.37c-0.001-0.006-0.002-0.013-0.004-0.019-0.068 0.144-0.133 0.305-0.193 0.481 0.066-0.183 0.136-0.345 0.213-0.487-0-0.002-0.001-0.004-0.001-0.005-0.005 0.011-0.010 0.020-0.015 0.030z"></path>
<path fill="#444444" d="M24.843 22.472c0.285-0.594 0.508-1.447 0.674-2.41 0.089-0.601 0.185-1.126 0.296-1.574-0.117 0.461-0.224 1.001-0.331 1.63-0.159 0.928-0.371 1.756-0.639 2.355z"></path>
<path fill="#444444" d="M19.099 23.411c0.684-0.158 1.261-2.102 2.233-7.41 0.051-0.356 0.126-0.687 0.178-1.018-0.006-0.032-0.011-0.064-0.017-0.098 0.001-0.004 0.002-0.008 0.003-0.012-0.001-0.005-0.002-0.009-0.003-0.014 0.616-3.176 1.254-5.954 1.895-6.242h-3.786c-0.036-0.016-0.072-0.026-0.108-0.026h-0.236c-0.657 0.157-1.235 2.076-2.207 7.41-0.020 0.121-0.040 0.228-0.060 0.342 0.002 0.009 0.003 0.017 0.005 0.025-0.001 0.005-0.001 0.009-0.003 0.013 0.001 0.004 0.002 0.008 0.003 0.013-0.408 2.199-0.836 4.254-1.265 5.538-0.26 0.805-0.521 1.335-0.78 1.452z"></path>
<path fill="#444444" d="M21.512 14.916c-0.001 0.004-0.002 0.008-0.003 0.012 0.006 0.035 0.012 0.066 0.017 0.099 0.001-0.004 0.002-0.009 0.002-0.013-0.006-0.032-0.011-0.064-0.017-0.098z"></path>
<path fill="#444444" d="M16.977 16.435c-0.309 1.665-0.63 3.246-0.953 4.477-0.106 0.41-0.212 0.784-0.318 1.113 0.432-1.293 0.863-3.362 1.274-5.577-0.001-0.005-0.002-0.009-0.003-0.013z"></path>
<path fill="#444444" d="M21.51 14.903c0.001 0.005 0.002 0.009 0.003 0.014 0.619-3.218 1.261-6.010 1.905-6.299v0c-0.645 0.29-1.288 3.087-1.908 6.285z"></path>
<path fill="#444444" d="M21.533 15.020c0.635-3.439 1.349-6.403 2.037-6.403h-0.153c-0.644 0.289-1.286 3.081-1.905 6.299 0.006 0.034 0.011 0.066 0.017 0.098 0-0.002 0.001-0.004 0.001-0.007 0.001 0.004 0.002 0.008 0.002 0.013z"></path>
<path fill="#444444" d="M16.972 16.41c-0.261-1.351-0.522-2.702-0.823-4.045-0.151-0.671-0.31-1.341-0.509-1.998-0.101-0.328-0.211-0.654-0.35-0.967-0.070-0.156-0.149-0.308-0.246-0.448-0.048-0.070-0.103-0.134-0.163-0.192-0.063-0.053-0.133-0.099-0.212-0.119l0.006 0.001c-0.071 0.001-0.149-0.002-0.215 0.003-0.017 0.003-0.038 0.003-0.052 0.009l-0.044 0.018c-0.015 0.007-0.029 0.018-0.043 0.027s-0.028 0.019-0.041 0.032c-0.105 0.092-0.184 0.216-0.254 0.34s-0.13 0.258-0.185 0.391c-0.056 0.133-0.105 0.27-0.154 0.407-0.189 0.549-0.338 1.112-0.477 1.676-0.138 0.565-0.262 1.133-0.381 1.703s-0.231 1.14-0.34 1.712l0-0.013 0.098 0.546 0.1 0.546 0.203 1.091c0.138 0.727 0.28 1.453 0.435 2.176 0.077 0.362 0.158 0.723 0.245 1.082 0.043 0.18 0.088 0.359 0.135 0.538s0.095 0.357 0.147 0.534c0.051 0.177 0.107 0.353 0.165 0.528 0.061 0.174 0.123 0.348 0.196 0.517s0.154 0.335 0.254 0.487l0.038 0.057 0.042 0.053c0.027 0.037 0.059 0.068 0.091 0.101 0.066 0.060 0.14 0.113 0.225 0.133l-0.005-0.001c0.017-0.003 0.034-0.004 0.051-0.008 0.016-0.006 0.036-0.012 0.048-0.018 0.034-0.019 0.068-0.038 0.093-0.063 0.055-0.046 0.103-0.107 0.147-0.168 0.087-0.125 0.157-0.262 0.221-0.4s0.12-0.282 0.174-0.427c0.053-0.144 0.102-0.29 0.15-0.437 0.093-0.293 0.178-0.59 0.257-0.887l0.21-0.9 0.211-0.901c0.035-0.15 0.072-0.3 0.1-0.451l0.091-0.453 0.182-0.907 0.091-0.453c0.029-0.151 0.063-0.302 0.089-0.454zM16.972 16.41c-0.025 0.152-0.057 0.303-0.085 0.455l-0.087 0.454-0.174 0.909-0.087 0.454c-0.027 0.152-0.062 0.302-0.096 0.452l-0.203 0.903-0.102 0.451-0.104 0.451c-0.078 0.299-0.162 0.596-0.254 0.89-0.047 0.147-0.096 0.294-0.149 0.439s-0.11 0.289-0.174 0.43c-0.065 0.14-0.135 0.28-0.224 0.409-0.046 0.064-0.093 0.126-0.157 0.179-0.031 0.029-0.064 0.047-0.098 0.067-0.022 0.011-0.040 0.015-0.060 0.023-0.020 0.005-0.042 0.007-0.063 0.010l-0.002 0-0.004-0.001c-0.097-0.023-0.178-0.081-0.248-0.145-0.033-0.034-0.068-0.067-0.095-0.105l-0.044-0.055-0.039-0.058c-0.104-0.156-0.185-0.324-0.26-0.495s-0.138-0.345-0.199-0.52c-0.059-0.176-0.116-0.352-0.168-0.53s-0.102-0.356-0.149-0.535c-0.048-0.179-0.093-0.359-0.137-0.539-0.088-0.36-0.17-0.721-0.249-1.083-0.157-0.724-0.302-1.45-0.442-2.176l-0.207-1.091-0.102-0.546-0.096-0.547-0.001-0.006 0.001-0.007c0.111-0.571 0.225-1.142 0.346-1.712s0.247-1.138 0.387-1.704c0.141-0.565 0.291-1.129 0.484-1.68 0.049-0.138 0.099-0.275 0.156-0.409s0.117-0.268 0.189-0.396c0.073-0.127 0.153-0.254 0.267-0.354 0.014-0.013 0.029-0.025 0.045-0.035s0.032-0.022 0.049-0.031l0.058-0.022c0.019-0.007 0.036-0.006 0.055-0.009 0.079-0.005 0.147-0.001 0.222-0.002h0.003l0.003 0.001c0.090 0.023 0.166 0.074 0.234 0.131 0.064 0.062 0.121 0.128 0.17 0.201 0.099 0.144 0.179 0.298 0.249 0.457 0.14 0.316 0.249 0.644 0.349 0.974 0.198 0.66 0.354 1.331 0.503 2.003 0.29 1.345 0.537 2.699 0.786 4.053z"></path>
<path fill="#444444" d="M16.977 16.435c0.001-0.004 0.002-0.009 0.003-0.013-0.001-0.008-0.003-0.017-0.005-0.025-0.001 0.005-0.002 0.009-0.002 0.014 0.002 0.008 0.003 0.016 0.004 0.025z"></path>
<path fill="#444444" d="M16.956 16.502c-0.303 1.63-0.616 3.182-0.932 4.41 0.323-1.231 0.644-2.812 0.953-4.477-0.001-0.008-0.003-0.017-0.004-0.025-0.005 0.031-0.011 0.060-0.016 0.092z"></path>
<path fill="#444444" d="M10.041 23.388c0.684-0.157 1.233-2.050 2.206-7.359 0.051-0.357 0.126-0.69 0.179-1.022-0.005-0.028-0.010-0.054-0.015-0.083 0.245-1.276 0.494-2.486 0.746-3.497 0.377-1.546 0.764-2.635 1.153-2.809h-4.139c-0.657 0.158-1.235 2.076-2.234 7.411-0.068 0.319-0.119 0.638-0.182 0.958 0.006 0.008 0.012 0.014 0.018 0.022-0.001 0.007-0.003 0.014-0.004 0.022 0.001 0.002 0.003 0.003 0.004 0.005-0.39 2.012-0.789 3.857-1.192 5.012-0.282 0.834-0.567 1.34-0.851 1.34h2.939z"></path>
<path fill="#444444" d="M12.453 14.953c-0.002-0.008-0.003-0.016-0.005-0.025 0.235-1.272 0.477-2.477 0.723-3.489-0.253 1.017-0.503 2.232-0.75 3.515 0.005 0.030 0.010 0.056 0.015 0.084 0.002-0.010 0.004-0.020 0.005-0.030 0.004-0.019 0.007-0.037 0.011-0.055z"></path>
<path fill="#444444" d="M7.757 17.072c-0.27 1.39-0.544 2.699-0.821 3.758-0.124 0.482-0.249 0.915-0.374 1.284 0.405-1.162 0.807-3.015 1.198-5.037-0.002-0.002-0.003-0.003-0.004-0.005z"></path>
<path fill="#444444" d="M13.172 11.44c0.418-1.683 0.843-2.823 1.267-2.823h-0.108c-0.39 0.175-0.78 1.269-1.159 2.823z"></path>
<path fill="#444444" d="M14.476 8.617h-0.037c-0.424 0-0.849 1.14-1.267 2.823-0.247 1.012-0.489 2.217-0.723 3.489 0.002 0.009 0.003 0.016 0.005 0.025 0.657-3.41 1.34-6.336 2.023-6.336z"></path>
<path fill="#444444" d="M4.75 20.716l0.065 0.353c0.020 0.118 0.047 0.234 0.071 0.352s0.051 0.234 0.080 0.35c0.027 0.117 0.059 0.232 0.092 0.347 0.030 0.116 0.071 0.228 0.107 0.342l0.064 0.168c0.020 0.056 0.048 0.11 0.071 0.164s0.055 0.106 0.081 0.159c0.014 0.027 0.032 0.050 0.047 0.076s0.032 0.050 0.051 0.073 0.076 0.092 0.122 0.129c0.022 0.020 0.048 0.035 0.073 0.051s0.053 0.027 0.076 0.052l-0.006-0.003c0.067-0.002 0.131-0.031 0.184-0.072s0.099-0.092 0.141-0.147c0.082-0.109 0.149-0.229 0.208-0.352 0.119-0.246 0.214-0.504 0.3-0.764s0.163-0.523 0.236-0.788c0.036-0.132 0.071-0.265 0.104-0.397l0.091-0.401 0.183-0.803 0.092-0.401c0.032-0.134 0.055-0.269 0.084-0.403l0.324-1.613 0.006 0.028-0.012-0.016-0.010-0.014 0.003-0.016 0.024-0.124 0.008 0.030-0.108-0.123c-0.040-0.037-0.077-0.077-0.119-0.111-0.043-0.032-0.083-0.070-0.13-0.096l-0.068-0.043-0.073-0.034c-0.047-0.025-0.1-0.038-0.151-0.056-0.052-0.015-0.105-0.024-0.158-0.035-0.053-0.005-0.109-0.014-0.16-0.015l-1.499-0.003-2.665-0.014 0.005-0.037c0.096 0.040 0.197 0.068 0.286 0.124 0.045 0.026 0.093 0.047 0.135 0.078l0.126 0.091c0.044 0.028 0.079 0.067 0.118 0.101 0.037 0.036 0.079 0.067 0.112 0.107 0.068 0.078 0.142 0.151 0.2 0.236l0.092 0.124c0.029 0.043 0.055 0.087 0.083 0.131s0.056 0.086 0.081 0.132l0.073 0.136c0.051 0.090 0.092 0.184 0.135 0.278 0.045 0.093 0.081 0.189 0.12 0.285 0.040 0.095 0.073 0.192 0.107 0.29l0.051 0.146 0.045 0.148c0.029 0.099 0.061 0.196 0.086 0.296l0.078 0.299 0.069 0.301c0.024 0.1 0.041 0.201 0.062 0.302s0.040 0.202 0.057 0.303l0.052 0.304zM4.75 20.716l-0.054-0.304c-0.017-0.101-0.037-0.202-0.058-0.303s-0.039-0.202-0.064-0.302l-0.070-0.3-0.079-0.298c-0.025-0.1-0.058-0.197-0.087-0.296l-0.045-0.147-0.051-0.145c-0.034-0.097-0.067-0.194-0.108-0.289-0.039-0.095-0.075-0.191-0.121-0.283-0.044-0.093-0.086-0.187-0.137-0.276l-0.074-0.135c-0.025-0.045-0.055-0.087-0.082-0.13s-0.055-0.087-0.084-0.129l-0.093-0.122c-0.059-0.084-0.133-0.155-0.201-0.232-0.034-0.039-0.075-0.069-0.112-0.104-0.039-0.033-0.074-0.071-0.117-0.098l-0.125-0.088c-0.041-0.030-0.089-0.049-0.133-0.075-0.087-0.053-0.187-0.080-0.281-0.118l-0.089-0.036 4.258-0.018c0.060 0.001 0.114 0.010 0.171 0.015 0.056 0.011 0.112 0.020 0.167 0.036 0.054 0.018 0.11 0.032 0.161 0.059l0.078 0.036 0.073 0.045c0.051 0.028 0.093 0.067 0.138 0.101 0.044 0.036 0.083 0.078 0.124 0.117l0.123 0.14-0.003 0.018-0.024 0.125-0.007-0.030 0.013 0.019 0.009 0.013-0.003 0.015-0.332 1.614c-0.029 0.134-0.053 0.27-0.085 0.403l-0.095 0.401-0.287 1.201c-0.035 0.134-0.072 0.265-0.109 0.398-0.075 0.264-0.156 0.527-0.245 0.787s-0.188 0.517-0.31 0.764c-0.062 0.123-0.13 0.244-0.214 0.353-0.042 0.055-0.090 0.106-0.145 0.148s-0.123 0.072-0.194 0.073h-0.003l-0.003-0.003c-0.018-0.020-0.046-0.033-0.071-0.049s-0.051-0.032-0.074-0.053c-0.047-0.038-0.087-0.083-0.123-0.131-0.019-0.023-0.036-0.048-0.051-0.074s-0.033-0.050-0.047-0.077c-0.027-0.054-0.059-0.105-0.081-0.161s-0.051-0.109-0.070-0.165l-0.063-0.168c-0.035-0.114-0.076-0.227-0.106-0.343-0.032-0.115-0.064-0.231-0.090-0.347-0.028-0.116-0.056-0.233-0.079-0.35s-0.050-0.234-0.070-0.352l-0.064-0.353z"></path>
<path fill="#444444" d="M7.757 17.072c0.001-0.007 0.003-0.014 0.004-0.022-0.006-0.008-0.012-0.014-0.018-0.022-0.001 0.007-0.002 0.015-0.004 0.022 0.006 0.008 0.012 0.014 0.018 0.022z"></path>
<path fill="#444444" d="M7.715 17.175c0.004 0.006 0.008 0.012 0.012 0.018-0.26 1.339-0.524 2.601-0.791 3.638 0.277-1.059 0.551-2.368 0.821-3.758-0.006-0.008-0.012-0.014-0.018-0.022-0.008 0.042-0.015 0.083-0.024 0.125z"></path>
</svg>
