<?xml version="1.0" encoding="utf-8"?>
<!-- Generator: Adobe Illustrator 19.2.1, SVG Export Plug-In . SVG Version: 6.00 Build 0)  -->
<svg version="1.1" id="Layer_1" xmlns="http://www.w3.org/2000/svg" xmlns:xlink="http://www.w3.org/1999/xlink" x="0px" y="0px"
	 width="92px" height="92px" viewBox="0 0 92 92" enable-background="new 0 0 92 92" xml:space="preserve">
<path id="XMLID_1197_" d="M90.8,22.9C90.1,22.2,89.1,22,88,22H67V10c0-2.2-2-4-4.2-4H29.2C27,6,25,7.8,25,10v12H4
	c-2.2,0-4,1.3-4,3.5V82c0,2.2,1.8,4,4,4h84c2.2,0,4-1.8,4-4l0-56.3C92,24.6,91.6,23.7,90.8,22.9z M33,14h26v8H33V14z M84,78H8V30h76
	L84,78z M29.7,53.5c0-1.9,1.6-3.5,3.5-3.5H42v-8.9c0-1.9,1.6-3.5,3.5-3.5s3.5,1.6,3.5,3.5V50h9.8c1.9,0,3.5,1.6,3.5,3.5
	S60.7,57,58.8,57H49v9.4c0,1.9-1.6,3.5-3.5,3.5S42,68.4,42,66.4V57h-8.8C31.3,57,29.7,55.4,29.7,53.5z"/>
</svg>
