<?xml version="1.0" encoding="utf-8"?>
<!-- Generator: Adobe Illustrator 19.2.1, SVG Export Plug-In . SVG Version: 6.00 Build 0)  -->
<svg version="1.1" id="Layer_1" xmlns="http://www.w3.org/2000/svg" xmlns:xlink="http://www.w3.org/1999/xlink" x="0px" y="0px"
	 width="92px" height="92px" viewBox="0 0 92 92" enable-background="new 0 0 92 92" xml:space="preserve">
<path id="XMLID_646_" d="M78.7,9.4c-1.4-0.7-3-0.5-4.2,0.5L33,42.9c-1,0.8-1.5,1.9-1.5,3.1s0.6,2.4,1.5,3.1l41.5,33
	c0.7,0.6,1.6,0.9,2.5,0.9c0.6,0,1.2-0.1,1.7-0.4c1.4-0.7,2.3-2.1,2.3-3.6V13C81,11.5,80.1,10.1,78.7,9.4z M73,70.7L41.9,46L73,21.3
	V70.7z M19,14.6v63.5c0,2.5-2,4.5-4.5,4.5s-4.5-2-4.5-4.5V14.6c0-2.5,2-4.5,4.5-4.5S19,12.1,19,14.6z"/>
</svg>
