<?xml version="1.0" encoding="utf-8"?>
<!-- Generator: Adobe Illustrator 19.2.1, SVG Export Plug-In . SVG Version: 6.00 Build 0)  -->
<svg version="1.1" id="Layer_1" xmlns="http://www.w3.org/2000/svg" xmlns:xlink="http://www.w3.org/1999/xlink" x="0px" y="0px"
	 width="92px" height="92px" viewBox="0 0 92 92" enable-background="new 0 0 92 92" xml:space="preserve">
<path id="XMLID_659_" d="M59.5,42.9l-42-33c-1.2-0.9-2.8-1.1-4.2-0.5C11.9,10.1,11,11.5,11,13v66c0,1.5,0.9,2.9,2.3,3.6
	c0.6,0.3,1.2,0.4,1.7,0.4c0.9,0,1.8-0.3,2.5-0.9l42-33c1-0.8,1.5-1.9,1.5-3.1C61,44.8,60.4,43.6,59.5,42.9z M19,70.8V21.2L50.5,46
	L19,70.8z M81,14.6v63.5c0,2.5-2,4.5-4.5,4.5s-4.5-2-4.5-4.5V14.6c0-2.5,2-4.5,4.5-4.5S81,12.1,81,14.6z"/>
</svg>
