<?xml version="1.0" encoding="utf-8"?>
<!-- Generator: Adobe Illustrator 19.2.1, SVG Export Plug-In . SVG Version: 6.00 Build 0)  -->
<svg version="1.1" id="Layer_1" xmlns="http://www.w3.org/2000/svg" xmlns:xlink="http://www.w3.org/1999/xlink" x="0px" y="0px"
	 width="92px" height="92px" viewBox="0 0 92 92" enable-background="new 0 0 92 92" xml:space="preserve">
<path id="XMLID_237_" d="M79,32.3V72c0,2.2-1.8,4-4,4H17c-2.2,0-4-1.8-4-4V32.3c0-2.2,1.8-4.3,4-4.3h22.2l-5.4-5.3
	c-1.6-1.6-1.5-4,0-5.5c1.6-1.6,4.1-1.5,5.7,0l12.2,12.3c1.5,1.6,1.5,4.1,0,5.6L39.5,47.4c-0.8,0.8-1.8,1.2-2.8,1.2
	c-1,0-2-0.4-2.8-1.2c-1.6-1.6-1.6-4.2,0-5.7l5.4-5.6H21v32h50V36h-8.4c-2.2,0-4-1.8-4-4s1.8-4,4-4H75C77.2,28,79,30.1,79,32.3z"/>
</svg>
