<?xml version="1.0" encoding="utf-8"?>
<!-- Generator: Adobe Illustrator 19.2.1, SVG Export Plug-In . SVG Version: 6.00 Build 0)  -->
<svg version="1.1" id="Layer_1" xmlns="http://www.w3.org/2000/svg" xmlns:xlink="http://www.w3.org/1999/xlink" x="0px" y="0px"
	 width="92px" height="92px" viewBox="0 0 92 92" enable-background="new 0 0 92 92" xml:space="preserve">
<path id="XMLID_799_" d="M68.2,30C64,30,53.5,40.4,45.8,47.9C34.2,59.1,23.2,70,14.4,70H9c-2.2,0-4-1.8-4-4c0-2.2,1.8-4,4-4h5.4
	c5.6,0,16.8-11.2,25.8-19.9C51.2,31.5,60.7,22,68.2,22h5.2l-5.5-5.3c-1.6-1.6-1.6-3.9,0-5.5c1.6-1.6,4.1-1.6,5.7,0l12.3,12.3
	c0.8,0.8,1.2,1.8,1.2,2.8c0,1.1-0.4,2.1-1.2,2.8L73.5,41.4c-0.8,0.8-1.8,1.1-2.8,1.1c-1,0-2-0.4-2.8-1.2c-1.6-1.6-1.6-4.2,0-5.7
	l5.5-5.6H68.2z M73.5,50.6c-1.6-1.6-4.1-1.6-5.7,0c-1.6,1.6-1.6,4.2,0,5.8l5.5,5.6h-5.2c-3.3,0-8.8-4.9-14.2-9.9
	c-1.6-1.5-4.1-1.5-5.7,0.1c-1.5,1.6-1.4,4.3,0.2,5.8C56.8,65.7,62.4,70,68.2,70h5.2l-5.5,5.3c-1.6,1.6-1.6,4,0,5.6
	c0.8,0.8,1.8,1.1,2.8,1.1c1,0,2-0.4,2.8-1.2l12.3-12.3c0.8-0.8,1.2-1.8,1.2-2.8c0-1.1-0.4-2.1-1.2-2.8L73.5,50.6z M9,30h5.4
	c4.2,0,10.5,5.4,15.5,9.9c0.8,0.7,1.7,1.1,2.7,1.1c1.1,0,2.2-0.4,3-1.3c1.5-1.6,1.4-4.3-0.3-5.8c-7.8-7.1-14.4-12-20.9-12H9
	c-2.2,0-4,1.8-4,4S6.8,30,9,30z"/>
</svg>
