<?xml version="1.0" encoding="utf-8"?>
<!-- Generator: Adobe Illustrator 19.2.1, SVG Export Plug-In . SVG Version: 6.00 Build 0)  -->
<svg version="1.1" id="Layer_1" xmlns="http://www.w3.org/2000/svg" xmlns:xlink="http://www.w3.org/1999/xlink" x="0px" y="0px"
	 width="92px" height="92px" viewBox="0 0 92 92" enable-background="new 0 0 92 92" xml:space="preserve">
<path id="XMLID_101_" d="M78,23.5H14c-3.6,0-6.5-2.9-6.5-6.5s2.9-6.5,6.5-6.5h64c3.6,0,6.5,2.9,6.5,6.5S81.6,23.5,78,23.5z M84.5,46
	c0-3.6-2.9-6.5-6.5-6.5H14c-3.6,0-6.5,2.9-6.5,6.5s2.9,6.5,6.5,6.5h64C81.6,52.5,84.5,49.6,84.5,46z M84.5,75c0-3.6-2.9-6.5-6.5-6.5
	H14c-3.6,0-6.5,2.9-6.5,6.5s2.9,6.5,6.5,6.5h64C81.6,81.5,84.5,78.6,84.5,75z"/>
</svg>
