<?xml version="1.0" encoding="utf-8"?>
<!-- Generator: Adobe Illustrator 19.2.1, SVG Export Plug-In . SVG Version: 6.00 Build 0)  -->
<svg version="1.1" id="Layer_1" xmlns="http://www.w3.org/2000/svg" xmlns:xlink="http://www.w3.org/1999/xlink" x="0px" y="0px"
	 width="92px" height="92px" viewBox="0 0 92 92" enable-background="new 0 0 92 92" xml:space="preserve">
<path id="XMLID_1284_" d="M88,6H4c-2.2,0-4,1.8-4,4v51.1C0,63.3,1.8,65,4,65h47v17c0,1.7,1.3,3.2,2.8,3.8c0.5,0.2,1,0.2,1.5,0.2
	c1.2,0,2.3-0.5,3.1-1.4L75,65h13c2.2,0,4-1.7,4-3.9V10C92,7.8,90.2,6,88,6z M84,57H73.2c-1.2,0-2.5,0.6-3.3,1.4L59,71.1v-10
	c0-2.2-1.4-4.1-3.6-4.1H8V14h76V57z M18.6,28c0-2.2,1.8-4,4-4h29c2.2,0,4,1.8,4,4s-1.8,4-4,4h-29C20.4,32,18.6,30.2,18.6,28z
	 M62.5,31.1c-0.7-0.7-1.2-1.8-1.2-2.8c0-1.1,0.4-2.1,1.2-2.8c0.8-0.8,1.8-1.2,2.8-1.2c1.1,0,2.1,0.4,2.8,1.2
	c0.7,0.7,1.2,1.8,1.2,2.8c0,1.1-0.4,2.1-1.2,2.8c-0.8,0.8-1.8,1.2-2.8,1.2C64.3,32.2,63.3,31.8,62.5,31.1z"/>
</svg>
