<?xml version="1.0" encoding="utf-8"?>
<!-- Generated by IcoMoon.io -->
<!DOCTYPE svg PUBLIC "-//W3C//DTD SVG 1.1//EN" "http://www.w3.org/Graphics/SVG/1.1/DTD/svg11.dtd">
<svg version="1.1" xmlns="http://www.w3.org/2000/svg" xmlns:xlink="http://www.w3.org/1999/xlink" width="27" height="32" viewBox="0 0 27 32">
<path fill="#444444" d="M16.268 13.321c0.482 0.534 5.229 5.566 5.281 5.597 0.14 0.083 0.398-0.14 0.337-0.293-0.026-0.066-1.134-1.117-5.491-5.211-0.158-0.149-0.215-0.188-0.127-0.092zM19.903 15.966c1.695 1.835 2.045 2.194 2.141 2.194 0.153 0 0.28-0.14 0.25-0.271-0.018-0.061-0.907-0.915-2.181-2.093-1.187-1.095-2.176-2.001-2.198-2.010s0.871 0.972 1.988 2.181zM19.706 14.635c1.927 2.106 2.43 2.628 2.549 2.628 0.092 0 0.123-0.022 0.131-0.11 0.009-0.092-0.18-0.285-1.27-1.296-1.879-1.739-1.883-1.743-1.41-1.222zM18.694 17.122c1.979 2.146 2.010 2.176 2.176 2.176 0.136 0 0.175-0.022 0.206-0.096 0.017-0.053 0.026-0.131 0.017-0.171-0.017-0.066-4.103-3.876-4.318-4.024-0.053-0.035 0.81 0.915 1.918 2.115zM0.368 17.35v1.949h0.832l0.009-1.257 0.013-1.261 0.521 0.801c0.289 0.438 0.539 0.793 0.561 0.788 0.017-0.009 0.272-0.368 0.56-0.801l0.526-0.788 0.009 1.248 0.013 1.248h0.832l0.013-1.94 0.009-1.936h-0.959l-0.491 0.788c-0.267 0.434-0.499 0.788-0.517 0.788-0.013 0-0.241-0.355-0.508-0.788l-0.482-0.788h-0.941v1.949zM5.316 17.35v1.949h2.934v-0.788h-2.102v-0.788h1.839v-0.788h-1.839v-0.788h2.102v-0.744h-2.934v1.949zM9.301 15.795v0.394h1.182v3.114l0.854-0.026 0.013-1.541 0.009-1.541 1.16-0.026 0.013-0.385 0.013-0.381h-3.245v0.394zM13.593 17.35v1.949h2.934v-0.788h-2.102v-0.788h1.839v-0.788h-1.839v-0.788h2.102v-0.744h-2.934v1.949zM23.279 17.337l0.013 1.94 0.854 0.026v-1.274h0.657l0.425 0.635 0.42 0.635h0.477c0.346 0 0.473-0.013 0.473-0.052 0-0.031-0.197-0.346-0.438-0.696-0.241-0.355-0.438-0.653-0.438-0.666s0.044-0.031 0.101-0.048c0.184-0.044 0.495-0.359 0.6-0.604 0.153-0.355 0.14-0.837-0.026-1.165-0.079-0.149-0.201-0.302-0.315-0.39-0.324-0.245-0.508-0.276-1.725-0.276h-1.086l0.009 1.936zM25.508 16.356c0.105 0.114 0.127 0.18 0.127 0.359 0 0.175-0.022 0.245-0.123 0.355-0.149 0.166-0.346 0.21-0.937 0.215h-0.429v-1.104l0.617 0.018 0.617 0.013 0.127 0.145zM17.275 16.478c0.061 0.079 0.67 0.744 1.353 1.48 1.077 1.165 1.257 1.344 1.353 1.331 0.087-0.009 0.114-0.039 0.114-0.127s-0.184-0.28-0.941-0.981c-0.517-0.477-1.178-1.086-1.467-1.353s-0.473-0.425-0.412-0.35z"></path>
</svg>
