<?xml version="1.0" encoding="utf-8"?>
<!-- Generator: Adobe Illustrator 19.2.1, SVG Export Plug-In . SVG Version: 6.00 Build 0)  -->
<svg version="1.1" id="Layer_1" xmlns="http://www.w3.org/2000/svg" xmlns:xlink="http://www.w3.org/1999/xlink" x="0px" y="0px"
	 width="92px" height="92px" viewBox="0 0 92 92" enable-background="new 0 0 92 92" xml:space="preserve">
<path id="XMLID_57_" d="M68.3,88c0,2.2-1.8,4-4.1,4H27.6c-2.3,0-4.1-1.8-4.1-4s1.8-4,4.1-4h14.8l0-6.8c0-1.9,1.6-3.5,3.6-3.5
	c2,0,3.6,1.6,3.6,3.5l0,6.8h14.7C66.5,84,68.3,85.8,68.3,88z M67.4,29C67.4,29,67.4,29,67.4,29c-2,0-3.6,1.6-3.6,3.5l0,26
	c0,1.5-0.6,2.9-1.6,3.9c-1,1-2.3,1.6-3.7,1.6c0,0,0,0,0,0l-25,0c-1.4,0-2.7-0.6-3.7-1.6c-1-1.1-1.6-2.4-1.6-3.9l0-26
	c0-1.9-1.6-3.5-3.6-3.5c0,0,0,0,0,0c-2,0-3.6,1.6-3.6,3.5l0,26c0,3.3,1.3,6.5,3.6,8.8c2.4,2.4,5.5,3.7,8.9,3.7l25,0c0,0,0,0,0,0
	c3.4,0,6.5-1.3,8.9-3.7c2.3-2.4,3.6-5.5,3.6-8.8l0-26C71,30.6,69.4,29,67.4,29z M35.2,56.3c-1.4-1.7-2.2-3.7-2.2-5.7l0-41.7
	c0-2,0.8-4.1,2.3-5.8C36.9,1.1,39,0,41.1,0c0,0,0,0,0,0h9.7C55.4,0,59,4.8,59,8.8l0,41.6c0,4-3.6,8.6-8.1,8.6c0,0,0,0,0,0l-9.7,0.2
	C39,59.2,36.8,58.2,35.2,56.3z M41.1,50.6c0,0.2,0.3,0.6,0.5,0.8l8.7,0c0.2-0.2,0.5-0.6,0.5-0.9l0-41.7c0-0.2-0.3-0.6-0.5-0.8
	l-8.7,0c-0.2,0.2-0.5,0.7-0.5,0.9L41.1,50.6z"/>
</svg>
