<?xml version="1.0" encoding="utf-8"?>
<!-- Generator: Adobe Illustrator 19.2.1, SVG Export Plug-In . SVG Version: 6.00 Build 0)  -->
<svg version="1.1" id="Layer_1" xmlns="http://www.w3.org/2000/svg" xmlns:xlink="http://www.w3.org/1999/xlink" x="0px" y="0px"
	 width="92px" height="92px" viewBox="0 0 92 92" enable-background="new 0 0 92 92" xml:space="preserve">
<path id="XMLID_1719_" d="M92,13c0-2.2-1.8-4-4-4H4c-2.2,0-4,1.8-4,4v52c0,2.2,1.8,4,4,4h84c2.2,0,4-1.8,4-4V13z M84,61H8V17h76V61z
	 M69.5,79c0,2.2-1.8,4-4,4H26.5c-2.2,0-4-1.8-4-4s1.8-4,4-4h38.9C67.7,75,69.5,76.8,69.5,79z"/>
</svg>
