<?xml version="1.0" encoding="utf-8"?>
<!-- Generated by IcoMoon.io -->
<!DOCTYPE svg PUBLIC "-//W3C//DTD SVG 1.1//EN" "http://www.w3.org/Graphics/SVG/1.1/DTD/svg11.dtd">
<svg version="1.1" xmlns="http://www.w3.org/2000/svg" xmlns:xlink="http://www.w3.org/1999/xlink" width="32" height="32" viewBox="0 0 32 32">
<path fill="#444444" d="M26.301 18.397c-0.24-0.003-0.529-0.095-0.798-0.26-0.095-0.058-0.105-0.107-0.027-0.183 0.044-0.043 0.083-0.091 0.125-0.136 0.080-0.085 0.146-0.198 0.244-0.248 0.113-0.058 0.202 0.080 0.31 0.112 0.195 0.059 0.362 0.030 0.449-0.104 0.111-0.172 0.022-0.308-0.094-0.428-0.198-0.203-0.409-0.393-0.602-0.6-0.157-0.168-0.286-0.357-0.3-0.599-0.030-0.538 0.345-0.967 0.919-1.035 0.454-0.053 0.85 0.085 1.189 0.393 0.085 0.078 0.090 0.137-0.001 0.206-0.005 0.004-0.008 0.009-0.012 0.014-0.1 0.109-0.18 0.257-0.304 0.317-0.137 0.067-0.224-0.133-0.36-0.162-0.060-0.013-0.114-0.049-0.174-0.061-0.16-0.033-0.313-0.023-0.403 0.14-0.084 0.153 0.021 0.258 0.114 0.356 0.191 0.201 0.425 0.356 0.606 0.569 0.33 0.389 0.385 0.867 0.13 1.245-0.221 0.329-0.546 0.465-1.012 0.463zM7.887 18.018c0.012 0.020 0.032 0.040 0.035 0.061 0.038 0.271 0.037 0.272 0.303 0.272 0.068 0 0.136-0.006 0.203 0.001 0.155 0.016 0.274-0.004 0.238-0.206-0.001-0.004 0.005-0.014 0.007-0.014 0.011-0 0.021 0.002 0.032 0.003 0.010 0.262 0.010 0.262-0.236 0.262-0.159 0-0.319-0.007-0.478 0.002-0.118 0.007-0.153-0.032-0.13-0.146 0.016-0.077 0.017-0.157 0.024-0.236zM6.040 18.093c0.091 0.258 0.091 0.258 0.402 0.258 0.152 0 0.304 0.002 0.455 0.003-0.056 0.090-0.143 0.037-0.215 0.041-0.159 0.008-0.319-0.011-0.476 0.006-0.171 0.019-0.217-0.044-0.178-0.2 0.009-0.035 0.008-0.072 0.012-0.108zM4.228 18.278c0.045 0.055 0.1 0.088 0.173 0.073 0.204-0.041 0.428 0.090 0.617-0.073 0.009 0.028 0.018 0.056 0.027 0.084-0.256 0.076-0.518 0.020-0.778 0.030-0.075 0.003-0.044-0.069-0.039-0.114zM14.672 15.928c-0.277-0.658-0.898-1.035-1.675-1.010-0.551 0.018-1.011 0.243-1.393 0.653-0.369-0.465-0.853-0.662-1.429-0.654s-1.054 0.241-1.449 0.658c-0.489-0.796-1.523-0.836-2.015-0.298-0.053 0.058-0.081 0.042-0.129-0.004-0.356-0.346-0.793-0.426-1.251-0.311-0.257 0.065-0.507 0.088-0.764 0.080-0.126-0.004-0.151 0.042-0.157 0.159-0.025 0.498-0.064 0.995-0.094 1.493-0.032 0.528-0.059 1.057-0.088 1.585 0.018 0.082 0.074 0.094 0.149 0.093 0.223-0.005 0.446 0.003 0.668-0.009 0.009-0.067 0.021-0.133 0.026-0.2 0.042-0.632 0.081-1.264 0.123-1.896 0.020-0.306 0.236-0.521 0.501-0.505 0.283 0.018 0.459 0.248 0.441 0.564-0.034 0.589-0.064 1.178-0.095 1.768 0.032 0.057 0.016 0.119 0.016 0.179 0 0.068 0.025 0.101 0.096 0.098 0.248-0.010 0.497 0.018 0.745-0.016 0.008-0.054 0.021-0.108 0.024-0.162 0.039-0.644 0.077-1.288 0.115-1.932 0.016-0.283 0.248-0.504 0.517-0.491 0.264 0.013 0.434 0.226 0.419 0.519-0.030 0.576-0.057 1.153-0.086 1.729 0.039 0.058 0.018 0.118 0.008 0.177-0.021 0.124 0.018 0.186 0.155 0.176 0.116-0.009 0.233-0.002 0.35-0.002 0.257 0 0.257 0 0.307-0.233 0.048-0.052-0.008-0.134 0.058-0.189 0.226 0.199 0.477 0.35 0.774 0.408 0.694 0.137 1.306-0.027 1.825-0.515 0.044-0.042 0.072-0.123 0.15-0.024 0.588 0.748 1.93 0.806 2.711 0.029 0.526-0.523 0.711-1.291 0.447-1.917zM10.013 17.619c-0.517-0.003-0.939-0.412-0.928-0.9 0.012-0.557 0.509-1.026 1.081-1.018 0.518 0.007 0.939 0.415 0.93 0.902-0.011 0.554-0.506 1.020-1.082 1.016zM12.891 17.619c-0.528 0-0.933-0.385-0.933-0.888-0-0.557 0.489-1.030 1.064-1.030 0.518 0.001 0.935 0.397 0.938 0.892 0.003 0.551-0.492 1.025-1.068 1.025zM22.536 14.958c-0.679-0.132-1.284 0.036-1.788 0.52-0.078 0.075-0.119 0.107-0.208 0.003-0.339-0.394-0.785-0.561-1.296-0.564-0.678-0.003-1.356-0.001-2.034-0.001-0.616 0-1.233 0-1.849 0-0.465 0-0.465 0-0.48 0.465-0.010 0.309-0.010 0.309 0.305 0.309 0.438 0 0.424-0.001 0.386 0.44-0.048 0.558-0.080 1.118-0.102 1.678-0.014 0.356 0.161 0.558 0.48 0.582 0.184 0.014 0.37 0.002 0.554 0.007 0.090 0.003 0.116-0.040 0.12-0.122 0.007-0.166 0.017-0.332 0.033-0.497 0.011-0.111-0.009-0.173-0.142-0.167-0.099 0.004-0.157-0.069-0.17-0.164-0.012-0.085-0.017-0.172-0.011-0.257 0.032-0.448 0.071-0.896 0.099-1.344 0.007-0.118 0.047-0.16 0.166-0.158 0.283 0.007 0.567 0.001 0.851 0.003 0.052 0 0.123-0.030 0.154 0.024 0.032 0.055-0.035 0.097-0.061 0.143-0.328 0.588-0.377 1.185-0.011 1.769 0.557 0.888 1.831 1.044 2.699 0.344 0.086-0.069 0.159-0.202 0.247-0.21 0.104-0.009 0.159 0.147 0.246 0.221 1.020 0.877 2.765 0.304 3.066-1.009 0.219-0.954-0.321-1.834-1.252-2.014zM19.035 17.617c-0.519-0.004-0.937-0.406-0.931-0.897 0.006-0.549 0.515-1.032 1.079-1.022 0.524 0.009 0.928 0.403 0.925 0.901-0.004 0.561-0.49 1.021-1.072 1.017zM21.95 17.617c-0.533 0.002-0.935-0.377-0.937-0.881-0.002-0.561 0.474-1.028 1.056-1.037 0.507-0.007 0.944 0.403 0.945 0.888 0.002 0.554-0.488 1.027-1.064 1.029zM24.915 14.169c-0.037-0.010-0.076-0.012-0.105 0.014-0.035 0.032-0.006 0.068 0.006 0.1 0.053 0.138 0.105 0.276 0.16 0.413s0.005 0.236-0.122 0.28c-0.127 0.044-0.247 0.022-0.297-0.129-0.042-0.129-0.078-0.259-0.121-0.388-0.014-0.042-0.002-0.112-0.072-0.11-0.063 0.001-0.093 0.052-0.11 0.109-0.044 0.147-0.082 0.296-0.131 0.442-0.079 0.236-0.077 0.461 0.005 0.702 0.119 0.347 0.137 0.709 0.094 1.076-0.048 0.404-0.133 0.801-0.191 1.203-0.042 0.284 0.174 0.531 0.454 0.527 0.245-0.004 0.445-0.196 0.45-0.445 0.005-0.234 0.007-0.468 0-0.702-0.019-0.692 0.048-1.35 0.472-1.947 0.296-0.417 0.012-1.011-0.493-1.145zM24.493 18.182c-0.145-0.003-0.233-0.082-0.236-0.211s0.081-0.221 0.218-0.222c0.126-0.001 0.21 0.076 0.218 0.203 0.009 0.137-0.070 0.213-0.201 0.231z"></path>
</svg>
