<?xml version="1.0" encoding="utf-8"?>
<!-- Generated by IcoMoon.io -->
<!DOCTYPE svg PUBLIC "-//W3C//DTD SVG 1.1//EN" "http://www.w3.org/Graphics/SVG/1.1/DTD/svg11.dtd">
<svg version="1.1" xmlns="http://www.w3.org/2000/svg" xmlns:xlink="http://www.w3.org/1999/xlink" width="32" height="32" viewBox="0 0 32 32">
<path fill="#444444" d="M18.82 15.507l-4.709 1.536-4.094 1.808-1.147 0.303c-0.291 0.276-0.599 0.557-0.928 0.843-0.361 0.314-0.701 0.599-0.959 0.805-0.288 0.229-0.715 0.654-0.934 0.926-0.325 0.405-0.58 0.837-0.689 1.168-0.197 0.597-0.101 1.202 0.279 1.761 0.485 0.713 1.449 1.438 2.572 1.931 0.572 0.252 1.538 0.576 2.263 0.759 1.207 0.305 3.54 0.636 4.824 0.685 0.261 0.010 0.607 0.009 0.623-0.002 0.028-0.019 0.228-0.397 0.46-0.871 0.79-1.613 1.361-3.125 1.668-4.416 0.186-0.782 0.331-1.825 0.425-3.061 0.026-0.346 0.036-1.501 0.016-1.894-0.033-0.639-0.089-1.16-0.179-1.67-0.013-0.075-0.018-0.141-0.011-0.147 0.013-0.011 0.058-0.025 0.636-0.194l-0.115-0.27zM17.744 16.138c0.043 0 0.157 1.091 0.186 1.784 0.006 0.147 0.005 0.241-0.004 0.241-0.028 0-0.603-0.338-1.011-0.594-0.356-0.224-1.031-0.672-1.139-0.757-0.034-0.027-0.030-0.028 0.261-0.128 0.495-0.171 1.669-0.547 1.706-0.547zM15.345 16.926c0.030-0 0.113 0.046 0.309 0.168 0.735 0.46 1.729 1.014 2.155 1.2 0.132 0.058 0.147 0.035-0.157 0.242-0.649 0.441-1.455 0.874-2.446 1.314-0.173 0.077-0.319 0.139-0.325 0.139s0.013-0.088 0.042-0.195c0.24-0.887 0.375-1.783 0.379-2.502 0.002-0.355 0.002-0.357 0.036-0.366 0.002-0 0.004-0.001 0.006-0.001v0zM14.852 17.114c0.021 0.021 0.006 0.817-0.020 1.034-0.062 0.52-0.164 1.002-0.327 1.549-0.039 0.131-0.075 0.244-0.081 0.25-0.014 0.016-0.501-0.458-0.663-0.646-0.277-0.321-0.495-0.639-0.655-0.953-0.081-0.159-0.21-0.475-0.198-0.483 0.055-0.040 1.93-0.765 1.944-0.751zM12.526 18.031c0.004 0 0.008 0.002 0.010 0.004 0.007 0.008 0.032 0.066 0.055 0.129 0.113 0.308 0.368 0.766 0.59 1.058 0.242 0.32 0.557 0.66 0.821 0.886 0.085 0.073 0.164 0.14 0.175 0.15 0.023 0.020 0.030 0.017-0.55 0.237-0.673 0.255-1.406 0.511-2.247 0.783-0.321 0.104-0.592 0.191-0.602 0.195-0.032 0.012-0.022-0.008 0.071-0.154 0.418-0.653 1.051-1.929 1.405-2.832 0.061-0.157 0.12-0.313 0.13-0.349 0.015-0.052 0.031-0.069 0.079-0.091 0.027-0.012 0.050-0.018 0.063-0.016zM11.813 18.325c0.009 0.008-0.171 0.389-0.349 0.736-0.344 0.672-0.724 1.333-1.228 2.14-0.087 0.139-0.167 0.267-0.178 0.282-0.018 0.026-0.025 0.017-0.080-0.092-0.121-0.24-0.222-0.543-0.274-0.824-0.052-0.279-0.043-0.761 0.019-1.061 0.046-0.222 0.044-0.217 0.149-0.271 0.453-0.232 1.926-0.922 1.941-0.909zM17.952 18.574v0.151c-0.001 0.794-0.085 1.881-0.209 2.674-0.022 0.139-0.040 0.254-0.042 0.255s-0.102-0.028-0.223-0.066c-0.534-0.166-1.114-0.414-1.636-0.7-0.346-0.19-0.847-0.497-0.833-0.511 0.004-0.004 0.151-0.082 0.328-0.174 0.699-0.363 1.366-0.754 1.947-1.142 0.218-0.145 0.544-0.381 0.616-0.445l0.051-0.045zM9.125 19.627c0.014-0.001 0.011 0.027-0.012 0.158-0.016 0.091-0.034 0.263-0.040 0.382-0.029 0.52 0.056 0.904 0.314 1.43 0.072 0.146 0.128 0.268 0.125 0.27-0.026 0.022-2.38 0.71-3.12 0.913-0.219 0.060-0.411 0.113-0.427 0.118-0.026 0.008-0.028 0.002-0.019-0.058 0.081-0.522 0.479-1.207 1.036-1.783 0.37-0.383 0.666-0.609 1.17-0.897 0.362-0.206 0.923-0.516 0.964-0.532 0.003-0.001 0.005-0.001 0.008-0.001v0zM14.677 20.621c0.002-0.003 0.089 0.044 0.194 0.104 0.76 0.44 1.821 0.852 2.726 1.059l0.082 0.019-0.112 0.063c-0.473 0.262-2.029 0.91-3.618 1.506-0.232 0.087-0.458 0.172-0.503 0.19s-0.080 0.030-0.080 0.026 0.066-0.13 0.146-0.28c0.446-0.834 0.892-1.848 1.12-2.552 0.023-0.072 0.044-0.132 0.046-0.135v0zM14.111 20.806c0.002 0.002-0.025 0.077-0.062 0.165-0.31 0.75-0.716 1.568-1.235 2.487-0.132 0.234-0.243 0.425-0.247 0.424s-0.111-0.064-0.238-0.142c-0.755-0.462-1.423-1.031-1.861-1.584l-0.063-0.078 0.325-0.089c1.161-0.318 2.145-0.658 3.124-1.080 0.139-0.060 0.254-0.107 0.256-0.104v0zM17.627 22.034c0.002 0 0.002 0.002 0.002 0.003 0 0.079-0.18 0.811-0.329 1.341-0.125 0.445-0.231 0.792-0.426 1.408-0.086 0.272-0.16 0.494-0.165 0.493s-0.025-0.005-0.046-0.009c-1.057-0.191-2.005-0.458-2.892-0.815-0.248-0.1-0.607-0.259-0.626-0.277-0.006-0.006 0.208-0.107 0.476-0.224 1.62-0.707 3.299-1.512 3.873-1.857 0.069-0.041 0.12-0.066 0.132-0.063zM9.511 22.312c0.009 0.008-0.445 0.657-1.078 1.543-0.22 0.308-0.479 0.671-0.574 0.807s-0.24 0.35-0.322 0.477l-0.15 0.231-0.159-0.134c-0.187-0.157-0.514-0.49-0.663-0.675-0.306-0.381-0.513-0.782-0.594-1.15-0.038-0.17-0.039-0.256-0.003-0.267 0.052-0.016 1.002-0.239 1.894-0.446 0.495-0.115 1.068-0.249 1.273-0.299s0.375-0.088 0.377-0.086zM9.967 22.486l0.115 0.128c0.513 0.571 1.034 0.997 1.67 1.365 0.112 0.065 0.198 0.121 0.191 0.126-0.026 0.016-2.2 0.789-3.205 1.14-0.567 0.198-1.033 0.358-1.035 0.358s-0.035-0.021-0.071-0.047l-0.066-0.047 0.103-0.148c0.334-0.483 0.753-1.014 1.67-2.118l0.629-0.757zM12.807 24.516c0.003-0.003 0.161 0.053 0.354 0.125 0.464 0.173 0.827 0.286 1.32 0.41 0.605 0.151 1.478 0.303 1.996 0.346 0.079 0.007 0.12 0.016 0.107 0.024-0.024 0.015-0.548 0.19-0.933 0.311-0.611 0.192-2.48 0.744-4.004 1.183-0.283 0.081-0.524 0.15-0.537 0.153-0.034 0.007-0.153-0.024-0.153-0.040 0-0.008 0.085-0.116 0.189-0.24 0.512-0.613 1.021-1.297 1.446-1.944 0.116-0.177 0.213-0.325 0.216-0.328zM12.178 24.534c0.005 0.005-0.248 0.409-0.692 1.108-0.188 0.295-0.4 0.631-0.473 0.747s-0.18 0.291-0.237 0.391l-0.104 0.182-0.053-0.014c-0.128-0.035-1.028-0.352-1.265-0.447-0.295-0.117-0.602-0.258-0.828-0.381-0.283-0.153-0.642-0.38-0.614-0.389 0.008-0.003 0.495-0.136 1.081-0.296 1.56-0.425 2.423-0.669 2.989-0.846 0.106-0.033 0.194-0.058 0.196-0.056zM16.609 25.573c0.003-0.001 0.005-0.001 0.005 0 0.015 0.037-0.563 1.636-0.774 2.143-0.047 0.114-0.065 0.141-0.089 0.14-0.060-0.003-0.897-0.12-1.404-0.197-0.887-0.135-2.373-0.394-2.748-0.48l-0.087-0.019 0.532-0.12c1.14-0.257 1.687-0.395 2.242-0.564 0.7-0.214 1.394-0.482 2.094-0.807 0.111-0.052 0.205-0.091 0.229-0.096v0zM13.967 4.533c-0.079-0.009-1.343 0.446-2.155 0.776-1.1 0.447-1.954 0.875-2.481 1.245-0.196 0.138-0.443 0.385-0.479 0.48-0.014 0.036-0.020 0.077-0.020 0.12l0.478 0.451 1.134 0.362 2.702 0.483 3.088 0.531 0.031-0.265c-0.009-0.002-0.018-0.003-0.028-0.004l-0.407-0.064-0.083-0.145c-0.42-0.741-0.884-1.657-1.153-2.277-0.209-0.48-0.409-1.034-0.52-1.434-0.066-0.238-0.073-0.253-0.11-0.258v0zM13.908 4.716c0.003-0.001 0.005-0.001 0.005 0 0.002 0.003 0.017 0.102 0.031 0.221 0.061 0.497 0.172 0.98 0.346 1.499 0.131 0.391 0.133 0.368-0.023 0.325-0.363-0.101-1.99-0.381-3.167-0.544-0.19-0.026-0.348-0.050-0.35-0.052-0.015-0.015 0.849-0.468 1.232-0.646 0.491-0.229 1.829-0.785 1.926-0.803zM10.478 6.309l0.138 0.047c0.756 0.257 2.65 0.619 3.697 0.706 0.118 0.010 0.217 0.020 0.22 0.023s-0.097 0.056-0.223 0.119c-0.505 0.253-1.061 0.561-1.446 0.802-0.113 0.071-0.216 0.128-0.23 0.127s-0.088-0.013-0.166-0.026l-0.142-0.023-0.357-0.347c-0.628-0.607-1.118-1.077-1.307-1.255l-0.184-0.173zM10.338 6.421l0.5 0.625c0.275 0.344 0.552 0.685 0.613 0.758s0.109 0.136 0.106 0.138c-0.014 0.010-0.725-0.128-1.102-0.215-0.387-0.089-0.547-0.131-0.786-0.208l-0.195-0.063 0.001-0.048c0.002-0.24 0.305-0.594 0.818-0.956l0.046-0.031zM14.6 7.272c0.015 0.001 0.031 0.032 0.075 0.129 0.121 0.266 0.499 0.987 0.591 1.126 0.030 0.046 0.078 0.049-0.424-0.032-1.205-0.195-1.595-0.26-1.595-0.267 0-0.005 0.036-0.028 0.080-0.053 0.373-0.208 0.75-0.469 1.085-0.751 0.080-0.068 0.157-0.132 0.171-0.144 0.006-0.005 0.011-0.008 0.016-0.007zM8.874 6.986c0 0-0.078 0.124-0.004 0.308 0.046 0.114 0.183 0.251 0.334 0.396 0 0 1.582 1.543 1.775 1.767 0.876 1.011 1.257 2.007 1.292 3.382 0.023 0.882-0.148 1.658-0.561 2.559-0.741 1.615-2.301 3.397-4.711 5.378l0.354-0.117c0.227-0.17 0.536-0.352 1.265-0.751 1.677-0.918 3.561-1.762 5.875-2.631 3.329-1.251 8.806-2.719 11.922-3.196l0.325-0.050-0.050-0.078c-0.285-0.443-0.479-0.716-0.713-1.005-0.683-0.845-1.511-1.535-2.525-2.102-1.393-0.78-3.2-1.386-5.484-1.84-0.432-0.086-1.378-0.248-2.147-0.368-1.63-0.254-2.681-0.426-3.843-0.628-0.416-0.072-1.038-0.177-1.451-0.266-0.215-0.046-0.624-0.143-0.941-0.253-0.262-0.103-0.632-0.203-0.71-0.504zM9.791 7.876c0.002-0.002 0.062 0.016 0.134 0.041 0.133 0.045 0.31 0.098 0.515 0.156 0.144 0.040 0.302 0.082 0.469 0.125 0.214 0.055 0.391 0.102 0.393 0.104 0.024 0.027 0.383 1.174 0.506 1.614 0.047 0.168 0.082 0.308 0.079 0.311s-0.043-0.059-0.088-0.137c-0.416-0.731-1.074-1.475-1.836-2.073-0.095-0.075-0.172-0.138-0.172-0.141zM11.543 8.36c0.018-0.001 0.097 0.012 0.191 0.033 0.606 0.134 1.689 0.343 2.385 0.46 0.116 0.020 0.211 0.041 0.211 0.047s-0.043 0.034-0.096 0.060c-0.117 0.059-0.59 0.342-0.748 0.448-0.395 0.264-0.75 0.547-1.008 0.804-0.104 0.103-0.191 0.188-0.194 0.188s-0.021-0.060-0.040-0.134c-0.129-0.495-0.397-1.227-0.636-1.742-0.039-0.083-0.070-0.156-0.070-0.162 0-0.001 0.001-0.001 0.004-0.002v0zM14.626 8.946c0.020 0.007 0.059 0.127 0.127 0.395 0.13 0.515 0.191 1.094 0.171 1.629-0.006 0.149-0.015 0.287-0.021 0.308l-0.011 0.037-0.184-0.060c-0.379-0.121-0.999-0.304-1.53-0.451-0.302-0.084-0.549-0.158-0.549-0.165 0-0.022 0.44-0.462 0.629-0.629 0.361-0.32 1.334-1.076 1.368-1.064zM14.871 8.981c0.011-0.010 1.473 0.243 2.137 0.37 0.495 0.095 1.212 0.245 1.255 0.263 0.021 0.009-0.053 0.049-0.291 0.156-0.941 0.424-1.638 0.803-2.331 1.267-0.183 0.122-0.334 0.222-0.337 0.222s-0.006-0.102-0.006-0.226c-0.001-0.676-0.135-1.358-0.383-1.934-0.027-0.062-0.047-0.115-0.044-0.118v0zM18.651 9.729c0.011 0.011-0.037 0.3-0.078 0.47-0.129 0.53-0.472 1.317-0.895 2.056-0.075 0.13-0.141 0.239-0.149 0.241s-0.104-0.048-0.214-0.112c-0.414-0.242-0.882-0.471-1.396-0.683-0.143-0.059-0.266-0.112-0.272-0.118-0.023-0.022 1.12-0.779 1.726-1.142 0.485-0.291 1.265-0.726 1.279-0.712zM18.921 9.771c0.033 0 0.681 0.177 1.017 0.277 0.835 0.25 1.799 0.602 2.423 0.886l0.26 0.118-0.183 0.042c-1.529 0.351-2.84 0.757-4.102 1.269-0.105 0.043-0.196 0.078-0.203 0.078s0.027-0.081 0.074-0.18c0.379-0.806 0.625-1.652 0.688-2.37 0.006-0.065 0.018-0.118 0.026-0.118v0zM12.476 11.253c0.010-0.010 0.504 0.105 0.773 0.181 0.405 0.114 1.266 0.402 1.266 0.424 0 0.004-0.095 0.087-0.211 0.184-0.465 0.389-0.914 0.797-1.452 1.316-0.159 0.154-0.295 0.279-0.302 0.279s-0.010-0.023-0.006-0.050c0.081-0.598 0.064-1.366-0.049-2.147-0.014-0.099-0.023-0.183-0.019-0.187zM22.868 11.262c0.007 0.007-0.229 0.377-0.376 0.588-0.215 0.307-0.526 0.711-1.235 1.603-0.372 0.468-0.792 0.998-0.934 1.177s-0.26 0.326-0.264 0.326-0.049-0.064-0.101-0.142c-0.4-0.597-0.874-1.121-1.44-1.592-0.106-0.088-0.225-0.184-0.264-0.214s-0.072-0.057-0.072-0.061c-0-0.010 0.604-0.269 1.065-0.457 0.803-0.327 1.9-0.718 2.721-0.97 0.433-0.133 0.893-0.265 0.9-0.258zM23.141 11.334c0.013-0.003 0.099 0.039 0.203 0.098 0.865 0.495 1.712 1.132 2.379 1.786 0.19 0.186 0.653 0.668 0.646 0.672-0.002 0.001-0.162 0.014-0.356 0.028-1.499 0.113-3.415 0.431-5.259 0.875-0.125 0.030-0.234 0.055-0.241 0.055s0.13-0.138 0.305-0.305c1.083-1.041 1.578-1.699 2.159-2.874 0.087-0.175 0.16-0.326 0.163-0.335 0-0.001 0.001-0.001 0.002-0.001v0zM15.22 12.146c0.049 0.011 0.511 0.226 0.86 0.401 0.319 0.16 0.802 0.417 0.826 0.439 0.003 0.003-0.167 0.092-0.378 0.197-0.669 0.335-1.242 0.65-1.84 1.016-0.171 0.104-0.313 0.19-0.318 0.19-0.015 0-0.009-0.013 0.086-0.188 0.319-0.583 0.575-1.28 0.723-1.96 0.013-0.061 0.029-0.098 0.040-0.095v0zM14.754 12.229c0.010 0.010-0.11 0.45-0.186 0.685-0.146 0.451-0.392 1.018-0.629 1.445-0.056 0.1-0.141 0.247-0.189 0.326l-0.088 0.144-0.2-0.193c-0.232-0.225-0.421-0.364-0.662-0.489-0.095-0.049-0.172-0.094-0.172-0.101-0.001-0.029 0.607-0.582 1.075-0.978 0.335-0.284 1.042-0.849 1.050-0.84zM17.583 13.392l0.174 0.113c0.398 0.258 0.869 0.606 1.229 0.906 0.201 0.168 0.593 0.518 0.673 0.603l0.043 0.045-0.288 0.080c-1.63 0.452-2.89 0.855-4.359 1.395-0.163 0.060-0.304 0.11-0.314 0.11-0.020 0-0.040 0.019 0.326-0.319 0.94-0.865 1.77-1.818 2.391-2.745l0.125-0.188zM16.84 13.579c0.008 0.008-0.482 0.695-0.773 1.083-0.349 0.464-0.969 1.239-1.396 1.744-0.178 0.211-0.331 0.386-0.34 0.389s-0.015-0.049-0.015-0.13c-0.001-0.431-0.11-0.891-0.302-1.281-0.081-0.165-0.095-0.204-0.078-0.22 0.067-0.061 1.104-0.652 1.758-1.002 0.449-0.241 1.138-0.591 1.147-0.582zM12.344 14.68c0.009 0 0.092 0.042 0.185 0.093 0.227 0.126 0.431 0.264 0.611 0.414 0.007 0.006-0.086 0.082-0.207 0.169-0.337 0.243-0.851 0.631-1.148 0.868-0.314 0.25-0.324 0.257-0.289 0.203 0.235-0.359 0.353-0.563 0.477-0.823 0.11-0.231 0.219-0.505 0.297-0.744 0.033-0.099 0.066-0.18 0.075-0.18zM13.542 15.62c0.016-0.002 0.039 0.028 0.136 0.172 0.203 0.303 0.358 0.707 0.398 1.037l0.008 0.071-0.486 0.188c-0.873 0.339-1.677 0.673-2.219 0.921-0.152 0.070-0.42 0.198-0.595 0.285s-0.318 0.156-0.318 0.153c0-0.004 0.11-0.086 0.244-0.184 1.065-0.773 1.984-1.62 2.676-2.467 0.074-0.091 0.141-0.169 0.15-0.174 0.002-0.002 0.004-0.002 0.007-0.002v0zM12.989 15.757c0.014 0.014-0.393 0.475-0.667 0.754-0.686 0.701-1.367 1.25-2.21 1.784-0.105 0.067-0.202 0.127-0.214 0.135-0.023 0.014 0.007-0.021 0.378-0.424 0.233-0.254 0.412-0.465 0.614-0.728 0.133-0.173 0.159-0.198 0.355-0.339 0.527-0.38 1.731-1.196 1.745-1.182z"></path>
</svg>
