<?xml version="1.0" encoding="utf-8"?>
<!-- Generator: Adobe Illustrator 19.2.1, SVG Export Plug-In . SVG Version: 6.00 Build 0)  -->
<svg version="1.1" id="Layer_1" xmlns="http://www.w3.org/2000/svg" xmlns:xlink="http://www.w3.org/1999/xlink" x="0px" y="0px"
	 width="92px" height="92px" viewBox="0 0 92 92" enable-background="new 0 0 92 92" xml:space="preserve">
<path d="M88.9,6.3c0-1.2-0.5-2.4-1.5-3.1c-0.9-0.8-2.1-1.1-3.3-0.8L33.7,12.6c-1.9,0.4-3.2,2-3.2,3.9l0,45.9
	c-2.8-1.6-6.2-2.5-9.8-2.5c0,0,0,0,0,0c-4.6,0-8.9,1.4-12.3,4.2C4.9,67.1,3,70.7,3,75c0,8.5,8,15,17.7,15c0,0,0,0,0,0
	c4.6,0,8.7-1.2,12-3.9c3.5-2.9,5.2-6.7,5.2-10.9v0.1v0v0l0.3-39.2l42.5-8.6l0,23.8C78,49.7,74.8,49,71.2,49c0,0,0,0,0,0
	c-4.6,0-8.9,1.3-12.3,4c-3.5,2.9-5.5,6.6-5.5,10.9c0,8.5,8,15.1,17.7,15.1c0,0,0,0,0,0c9.3,0,17-6.1,17.7-14.1c0-0.1,0-0.5,0-1.6
	L88.9,6.3z M27.9,79.9C26,81.5,23.5,82,20.7,82c0,0,0,0,0,0c-5.3,0-9.7-3-9.7-7c0-1.8,0.9-3.4,2.6-4.7c1.9-1.6,4.4-2.2,7.2-2.2
	c0,0,0,0,0,0c5.3,0,9.8,3.2,9.8,7.2C30.5,77,29.6,78.5,27.9,79.9z M38.5,28.9l0-9.1l42.4-8.7l0,9.1L38.5,28.9z M71.2,71
	C71.2,71,71.2,71,71.2,71c-5.3,0-9.8-3.2-9.8-7.2c0-1.8,0.9-3.3,2.6-4.7c1.9-1.6,4.4-2.1,7.2-2.1c0,0,0,0,0,0c5,0,9.8,2.6,9.8,6.4
	v1.1C80,68.3,76.2,71,71.2,71z"/>
</svg>
