<?xml version="1.0" encoding="utf-8"?>
<!-- Generated by IcoMoon.io -->
<!DOCTYPE svg PUBLIC "-//W3C//DTD SVG 1.1//EN" "http://www.w3.org/Graphics/SVG/1.1/DTD/svg11.dtd">
<svg version="1.1" xmlns="http://www.w3.org/2000/svg" xmlns:xlink="http://www.w3.org/1999/xlink" width="32" height="32" viewBox="0 0 32 32">
<path fill="#444444" d="M26.501 8.255c-0.056-0.023-0.113-0.045-0.17-0.067-2.942-1.16-5.896-2.29-8.819-3.498-0.922-0.381-1.709-0.423-2.658-0.035-3.253 1.328-6.546 2.559-9.827 3.817-0.233 0.089-0.31 0.203-0.301 0.451 0.036 1.010 0.014 2.020 0.063 3.031 0.064 1.325 0.024 2.654 0.070 3.981 0.061 1.752 0.019 3.507 0.1 5.26 0 0.427 0.014 0.854-0.005 1.279-0.011 0.254 0.073 0.384 0.308 0.499 3.477 1.702 6.948 3.415 10.417 5.132 0.207 0.102 0.373 0.116 0.577-0.001 0.294-0.17 0.604-0.314 0.91-0.464 3.112-1.532 6.225-3.064 9.339-4.592 0.189-0.092 0.308-0.181 0.314-0.425 0.061-2.166 0.14-4.331 0.206-6.496 0.040-1.302 0.030-2.607 0.108-3.907 0.057-0.948 0.048-1.897 0.095-2.845 0.050-1.009 0.223-0.742-0.728-1.119zM15.263 25.898c0 0.295-0.038 0.359-0.33 0.213-2.745-1.367-5.494-2.724-8.247-4.075-0.207-0.102-0.269-0.224-0.271-0.447-0.020-1.874-0.047-3.749-0.083-5.623-0.034-1.764-0.082-3.527-0.123-5.291-0.003-0.133-0-0.266-0-0.463 1.144 0.495 2.226 0.96 3.305 1.43 1.828 0.797 3.654 1.6 5.485 2.391 0.209 0.090 0.285 0.198 0.284 0.43-0.014 3.811-0.020 7.623-0.019 11.434zM15.819 12.808c-2.706-1.186-5.415-2.364-8.123-3.546-0.073-0.032-0.17-0.040-0.213-0.171 2.84-1.092 5.665-2.178 8.487-3.268 0.137-0.053 0.253-0.043 0.385 0.009 2.67 1.050 5.34 2.096 8.011 3.143 0.055 0.022 0.119 0.035 0.148 0.134-0.679 0.304-1.361 0.611-2.045 0.915-2.067 0.918-4.134 1.834-6.201 2.752-0.148 0.066-0.279 0.107-0.448 0.032zM25.722 10.592c-0.051 1.885-0.103 3.771-0.161 5.656-0.039 1.277-0.088 2.553-0.134 3.829-0.020 0.559-0.058 1.118-0.058 1.677 0 0.241-0.145 0.306-0.311 0.388-2.37 1.165-4.739 2.331-7.109 3.496-0.39 0.192-0.782 0.383-1.228 0.601 0-0.369-0-0.661 0-0.952 0.006-3.569 0.016-7.137 0.010-10.706-0-0.317 0.101-0.458 0.394-0.587 2.74-1.202 5.472-2.424 8.205-3.642 0.398-0.177 0.404-0.181 0.392 0.239z"></path>
</svg>
