<?xml version="1.0" encoding="utf-8"?>
<!-- Generated by IcoMoon.io -->
<!DOCTYPE svg PUBLIC "-//W3C//DTD SVG 1.1//EN" "http://www.w3.org/Graphics/SVG/1.1/DTD/svg11.dtd">
<svg version="1.1" xmlns="http://www.w3.org/2000/svg" xmlns:xlink="http://www.w3.org/1999/xlink" width="32" height="32" viewBox="0 0 32 32">
<path fill="#444444" d="M22.62 11.53c-0.182 0.159-0.188 0.233-0.108 1.16 0.046 0.546 0.006 0.699-0.182 0.699-0.284 0-0.927 0.46-1.006 0.728-0.057 0.176 0.080 0.58 0.227 0.677 0.068 0.046 0.273 0.097 0.449 0.114 0.239 0.023 0.335 0.063 0.381 0.148 0.068 0.136 0.017 0.995-0.102 1.694-0.080 0.438-0.080 0.534 0 0.955 0.051 0.261 0.091 0.574 0.091 0.699s0.023 0.273 0.057 0.33c0.028 0.057 0.068 0.33 0.080 0.608 0.034 0.705 0.119 0.972 0.398 1.211 0.358 0.313 0.443 0.335 1.131 0.341 0.352 0 0.699 0.006 0.779 0.006 0.574 0.006 1.308-0.108 1.347-0.21 0.017-0.040 0.199-0.216 0.404-0.392 0.529-0.449 0.671-0.671 0.728-1.194 0.046-0.375-0.068-1.006-0.21-1.188-0.057-0.074-0.159-0.256-0.222-0.398-0.080-0.193-0.142-0.261-0.233-0.261-0.063 0-0.159-0.051-0.21-0.114-0.097-0.114-0.102-0.114-0.29-0.011-0.108 0.057-0.227 0.154-0.256 0.216-0.034 0.057-0.108 0.176-0.159 0.262-0.057 0.080-0.102 0.216-0.102 0.296s-0.046 0.267-0.108 0.415c-0.057 0.148-0.119 0.37-0.142 0.483-0.051 0.279-0.165 0.387-0.421 0.387-0.307 0-0.352-0.051-0.347-0.375 0.017-1.126 0-1.575-0.085-1.859-0.153-0.534-0.023-1.694 0.205-1.836 0.040-0.028 0.489-0.046 0.989-0.051 0.836 0 0.932-0.011 1.046-0.114 0.108-0.097 0.119-0.153 0.091-0.37-0.017-0.142-0.057-0.426-0.085-0.631-0.023-0.21-0.068-0.409-0.091-0.443-0.028-0.051-0.256-0.063-0.875-0.040-0.455 0.017-0.887 0.046-0.955 0.068-0.171 0.045-0.341-0.267-0.25-0.472 0.034-0.074 0.063-0.233 0.063-0.358 0-0.119 0.028-0.239 0.057-0.256 0.085-0.051 0.068-0.392-0.028-0.517-0.046-0.057-0.085-0.153-0.085-0.205 0-0.142-0.102-0.182-0.597-0.233-1.2-0.119-1.194-0.119-1.37 0.034zM18.561 13.56c-0.080 0.023-0.239 0.046-0.352 0.051-0.267 0.006-1.37 0.398-1.467 0.523-0.017 0.017-0.080 0.051-0.142 0.074-0.137 0.040-0.949 0.802-1.075 1.006-0.085 0.136-0.136 0.398-0.262 1.302-0.034 0.233-0.085 0.5-0.114 0.591-0.142 0.426 0.011 1.598 0.25 1.848 0.074 0.079 0.165 0.205 0.199 0.273 0.068 0.131 0.063 0.131-0.387 0.131h-0.449l-0.006-0.677c0-0.375-0.028-0.745-0.063-0.824-0.034-0.097-0.034-0.301 0.011-0.614 0.080-0.608 0.063-1.296-0.040-1.552-0.045-0.108-0.085-0.279-0.085-0.381 0-0.387-0.364-1.109-0.568-1.131-0.046-0.006-0.108-0.017-0.142-0.023-0.028-0.011-0.102-0.017-0.154-0.023-0.051 0-0.21-0.108-0.352-0.227-0.358-0.307-0.563-0.37-1.012-0.29-0.586 0.102-0.932 0.222-1.097 0.37-0.080 0.080-0.193 0.142-0.244 0.142-0.131 0-0.176 0.040-0.432 0.352-0.119 0.153-0.256 0.273-0.301 0.273-0.125 0-0.244-0.148-0.244-0.301 0-0.074-0.057-0.182-0.119-0.245-0.108-0.097-0.222-0.108-0.898-0.114-0.426-0.006-0.876-0.028-1.001-0.051-0.506-0.085-0.745 0.222-0.676 0.87 0.017 0.21 0.063 0.443 0.091 0.517 0.045 0.131 0.063 0.136 0.489 0.102l0.443-0.034 0.074 0.171c0.074 0.171 0.068 0.301-0.045 0.79-0.074 0.324-0.074 1.359 0 1.734 0.165 0.83 0.171 0.961 0.068 1.035-0.051 0.046-0.262 0.074-0.483 0.074-0.347 0-0.392 0.011-0.478 0.142-0.102 0.159-0.244 0.75-0.25 1.035 0 0.154 0.034 0.193 0.256 0.301 0.239 0.114 0.534 0.131 1.308 0.063 0.261-0.023 0.813 0.023 0.876 0.074 0.097 0.074 1.245 0.057 1.455-0.023 0.244-0.091 0.37-0.267 0.37-0.506 0-0.125-0.028-0.244-0.057-0.262-0.034-0.017-0.057-0.193-0.057-0.392 0-0.443-0.074-0.551-0.415-0.586-0.233-0.028-0.267-0.051-0.267-0.159 0-0.074-0.034-0.148-0.068-0.159-0.057-0.023-0.057-0.045-0.006-0.080 0.125-0.091 0.142-0.369 0.074-1.183-0.068-0.739-0.068-0.83 0.017-0.961 0.057-0.079 0.097-0.244 0.097-0.364 0-0.131 0.034-0.256 0.085-0.296 0.045-0.040 0.085-0.102 0.085-0.142 0-0.216 0.83-0.244 1.222-0.040 0.097 0.046 0.21 0.102 0.256 0.125s0.091 0.108 0.102 0.188c0.011 0.080 0.057 0.176 0.102 0.21 0.091 0.080 0.114 0.813 0.028 1.040-0.063 0.159-0.085 1.114-0.034 1.433 0.051 0.324-0.097 0.455-0.529 0.455-0.489 0-0.506 0.074-0.301 1.188 0.091 0.495 0.114 0.512 0.688 0.46s0.37-0.051 1.933 0l1.279 0.046 0.131-0.182c0.102-0.142 0.125-0.239 0.114-0.477l-0.017-0.301 0.597 0.398c0.728 0.483 1.001 0.557 2.087 0.546 0.614-0.006 0.807-0.029 1.109-0.131 0.193-0.074 0.392-0.154 0.438-0.182 0.046-0.023 0.216-0.080 0.381-0.119 0.421-0.097 0.733-0.364 0.876-0.745 0.063-0.171 0.165-0.409 0.227-0.529 0.063-0.125 0.114-0.262 0.114-0.307 0-0.119-0.279-0.432-0.392-0.432-0.051 0-0.188-0.051-0.307-0.114-0.222-0.119-0.387-0.114-0.551 0.028-0.046 0.040-0.176 0.085-0.29 0.108-0.114 0.017-0.256 0.091-0.313 0.153-0.063 0.068-0.205 0.159-0.324 0.205-0.114 0.046-0.262 0.159-0.324 0.244-0.085 0.114-0.193 0.171-0.444 0.227-0.188 0.040-0.398 0.051-0.472 0.028-0.171-0.051-0.677-0.375-0.677-0.426 0-0.023-0.108-0.154-0.233-0.284-0.222-0.227-0.233-0.256-0.199-0.5 0.046-0.358 0.108-0.409 0.472-0.409 0.171 0 0.387-0.040 0.483-0.091 0.256-0.137 1.131-0.125 1.342 0.011 0.125 0.085 0.279 0.102 0.807 0.102 0.688 0.006 1.006-0.057 1.245-0.239 0.148-0.108 0.148-0.125 0.148-0.813 0-0.762-0.080-1.154-0.284-1.444-0.068-0.097-0.171-0.267-0.227-0.387-0.057-0.125-0.142-0.233-0.193-0.256-0.051-0.017-0.188-0.136-0.301-0.267-0.148-0.171-0.273-0.25-0.415-0.273-0.108-0.017-0.358-0.108-0.551-0.205-0.739-0.352-0.91-0.392-1.239-0.29zM18.913 15.027c0.193 0.131 0.841 0.858 0.841 0.949 0 0.125-0.148 0.199-0.546 0.284-0.523 0.114-1.273 0.114-1.421 0-0.057-0.046-0.148-0.085-0.199-0.085-0.091 0-0.165-0.108-0.165-0.227 0-0.028 0.085-0.142 0.188-0.25 0.097-0.108 0.25-0.29 0.335-0.392 0.284-0.352 0.676-0.466 0.966-0.279zM5.343 19.040c-0.222 0.102-0.455 0.352-0.563 0.614-0.347 0.83 0.443 1.706 1.319 1.467 0.944-0.25 1.092-1.62 0.227-2.041-0.29-0.136-0.722-0.153-0.984-0.040z"></path>
</svg>
