<?xml version="1.0" encoding="utf-8"?>
<!-- Generator: Adobe Illustrator 19.2.1, SVG Export Plug-In . SVG Version: 6.00 Build 0)  -->
<svg version="1.1" id="Layer_1" xmlns="http://www.w3.org/2000/svg" xmlns:xlink="http://www.w3.org/1999/xlink" x="0px" y="0px"
	 width="92px" height="92px" viewBox="0 0 92 92" enable-background="new 0 0 92 92" xml:space="preserve">
<path d="M38.7,11.2c0-5.9-4.7-10.7-10.6-10.7C22.3,0.5,17,5.3,17,11.2c0,4.5,3,8.3,6,9.9v49.8c-3,1.6-6,5.4-6,9.9
	c0,5.9,5.1,10.7,10.9,10.7c5.9,0,10.6-4.8,10.6-10.7c0-4.5-2.6-8.3-6.6-9.9V21.1C36,19.5,38.7,15.7,38.7,11.2z M28.3,6.6
	c2.5,0,4.5,2.1,4.5,4.6s-2,4.6-4.5,4.6c-2.5,0-4.5-2.1-4.5-4.6S25.7,6.6,28.3,6.6z M28.3,85.4c-2.5,0-4.5-2.1-4.5-4.6s2-4.6,4.5-4.6
	c2.5,0,4.5,2.1,4.5,4.6S30.8,85.4,28.3,85.4z M69,70.9V21.1c3-1.6,6-5.4,6-9.9C75,5.3,69.9,0.5,64,0.5S53.4,5.3,53.4,11.2
	c0,4.5,2.6,8.3,6.6,9.9v49.8c-4,1.6-6.7,5.4-6.7,9.9c0,5.9,4.7,10.7,10.6,10.7S75,86.7,75,80.8C75,76.3,72,72.5,69,70.9z M63.7,6.6
	c2.5,0,4.5,2.1,4.5,4.6s-2,4.6-4.5,4.6c-2.5,0-4.5-2.1-4.5-4.6S61.2,6.6,63.7,6.6z M63.7,85.4c-2.5,0-4.5-2.1-4.5-4.6s2-4.6,4.5-4.6
	c2.5,0,4.5,2.1,4.5,4.6S66.3,85.4,63.7,85.4z"/>
</svg>
