<?xml version="1.0" encoding="utf-8"?>
<!-- Generator: Adobe Illustrator 19.2.1, SVG Export Plug-In . SVG Version: 6.00 Build 0)  -->
<svg version="1.1" id="Layer_1" xmlns="http://www.w3.org/2000/svg" xmlns:xlink="http://www.w3.org/1999/xlink" x="0px" y="0px"
	 width="92px" height="92px" viewBox="0 0 92 92" enable-background="new 0 0 92 92" xml:space="preserve">
<path id="XMLID_1883_" d="M83,70.6V49c0-6.1-4.3-11-10.4-11H50V21.5c0,0,0-0.1,0-0.1c3.9-1.6,6.6-5.4,6.6-9.8C56.6,5.8,51.9,1,46,1
	c-5.9,0-10.6,4.8-10.6,10.6c0,4.4,2.8,8.2,6.6,9.8c0,0,0,0.1,0,0.1V38H19.4C13.3,38,9,43,9,49v21.6c-4,1.6-6.9,5.4-6.9,9.8
	C2.1,86.2,6.7,91,12.5,91s10.8-4.8,10.8-10.6c0-4.4-3.4-8.2-6.4-9.8V49c0-1.7,0.8-3,2.4-3H42v24.6c-4,1.6-6.6,5.4-6.6,9.8
	C35.4,86.2,40.1,91,46,91c5.9,0,10.6-4.8,10.6-10.6c0-4.4-2.6-8.2-6.6-9.8V46h22.6c1.7,0,2.4,1.4,2.4,3v21.6c-3,1.6-6.3,5.4-6.3,9.8
	c0,5.8,4.9,10.6,10.8,10.6c5.9,0,10.4-4.8,10.4-10.6C89.9,76,87,72.2,83,70.6z M46,7c2.5,0,4.6,2.1,4.6,4.6s-2.1,4.6-4.6,4.6
	c-2.5,0-4.6-2.1-4.6-4.6S43.5,7,46,7z M12.4,85c-2.5,0-4.6-2.1-4.6-4.6s2.1-4.6,4.6-4.6c2.5,0,4.6,2.1,4.6,4.6S14.9,85,12.4,85z
	 M46,85c-2.5,0-4.6-2.1-4.6-4.6s2.1-4.6,4.6-4.6c2.5,0,4.6,2.1,4.6,4.6S48.5,85,46,85z M79.6,85c-2.5,0-4.6-2.1-4.6-4.6
	s2.1-4.6,4.6-4.6c2.5,0,4.6,2.1,4.6,4.6S82.1,85,79.6,85z"/>
</svg>
