<?xml version="1.0" encoding="utf-8"?>
<!-- Generator: Adobe Illustrator 19.2.1, SVG Export Plug-In . SVG Version: 6.00 Build 0)  -->
<svg version="1.1" id="Layer_1" xmlns="http://www.w3.org/2000/svg" xmlns:xlink="http://www.w3.org/1999/xlink" x="0px" y="0px"
	 width="92px" height="92px" viewBox="0 0 92 92" enable-background="new 0 0 92 92" xml:space="preserve">
<path id="XMLID_1871_" d="M65.4,69.6c-4.5,0-8.3,3.4-9.9,6.4H33.7C32,76,31,75.1,31,73.4V51h24.5c1.6,4,5.4,6.5,9.9,6.5
	c5.9,0,10.7-4.8,10.7-10.6s-4.8-10.6-10.7-10.6c-4.5,0-8.3,2.7-9.9,6.7H31V21.5c0,0-0.2-0.1-0.2-0.1c3.9-1.6,6.6-5.4,6.6-9.8
	c0-5.9-4.8-10.6-10.7-10.6C20.8,0.9,16,5.7,16,11.5c0,4.4,2.9,8.3,6.8,9.8c0,0,0.2,0.1,0.2,0.1v52C23,79.5,27.6,84,33.7,84h21.8
	c1.6,4,5.4,6.9,9.9,6.9c5.9,0,10.7-4.8,10.7-10.6S71.2,69.6,65.4,69.6z M65.4,42.3c2.6,0,4.7,2.1,4.7,4.6c0,2.5-2.1,4.6-4.7,4.6
	c-2.6,0-4.7-2.1-4.7-4.6C60.7,44.3,62.8,42.3,65.4,42.3z M26.6,6.9c2.6,0,4.7,2.1,4.7,4.6s-2.1,4.6-4.7,4.6c-2.6,0-4.7-2.1-4.7-4.6
	S24.1,6.9,26.6,6.9z M65.4,85.1c-2.6,0-4.7-2.1-4.7-4.6s2.1-4.6,4.7-4.6c2.6,0,4.7,2.1,4.7,4.6S67.9,85.1,65.4,85.1z"/>
</svg>
