<?xml version="1.0" encoding="utf-8"?>
<!-- Generator: Adobe Illustrator 19.2.1, SVG Export Plug-In . SVG Version: 6.00 Build 0)  -->
<svg version="1.1" id="Layer_1" xmlns="http://www.w3.org/2000/svg" xmlns:xlink="http://www.w3.org/1999/xlink" x="0px" y="0px"
	 width="92px" height="92px" viewBox="0 0 92 92" enable-background="new 0 0 92 92" xml:space="preserve">
<path d="M77.1,11.6C77.1,5.8,72.3,1,66.4,1c-5.9,0-10.7,4.8-10.7,10.6c0,4.4,2.7,8.2,6.6,9.8c-0.1,1.8-1.2,13-16.9,18.7
	C38.3,42.7,33,46.2,30,49.8V21.4c4-1.6,6.4-5.4,6.4-9.8C36.4,5.8,31.5,1,25.7,1c-5.9,0-10.5,4.8-10.5,10.6c0,4.4,2.8,8.2,6.8,9.8
	v49.2c-4,1.6-6.9,5.4-6.9,9.8c0,5.8,4.7,10.6,10.5,10.6c5.9,0,10.8-4.8,10.8-10.6c0-4.4-2.5-8.2-6.5-9.8v-3.2
	c0-1.1,0.5-13.3,18.3-19.8c21.2-7.7,22.2-24.2,22.2-26.2C74.4,19.8,77.1,16,77.1,11.6z M25.6,7c2.6,0,4.6,2.1,4.6,4.6
	s-2.1,4.6-4.6,4.6c-2.6,0-4.6-2.1-4.6-4.6S23,7,25.6,7z M25.6,85c-2.6,0-4.6-2.1-4.6-4.6s2.1-4.6,4.6-4.6c2.6,0,4.6,2.1,4.6,4.6
	S28.1,85,25.6,85z M66.4,16.2c-2.6,0-4.6-2.1-4.6-4.6S63.9,7,66.4,7c2.6,0,4.6,2.1,4.6,4.6S69,16.2,66.4,16.2z"/>
</svg>
