<?xml version="1.0" encoding="utf-8"?>
<!-- Generated by IcoMoon.io -->
<!DOCTYPE svg PUBLIC "-//W3C//DTD SVG 1.1//EN" "http://www.w3.org/Graphics/SVG/1.1/DTD/svg11.dtd">
<svg version="1.1" xmlns="http://www.w3.org/2000/svg" xmlns:xlink="http://www.w3.org/1999/xlink" width="32" height="32" viewBox="0 0 32 32">
<path fill="#444444" d="M5.304 16.563c0-0.095-0.050-0.183-0.132-0.23l-2.192-1.261c-0.037-0.022-0.079-0.033-0.121-0.035-0.004 0-0.020 0-0.023 0-0.042 0.002-0.083 0.013-0.121 0.035l-2.191 1.261c-0.082 0.047-0.133 0.135-0.133 0.23l0.005 3.396c0 0.047 0.025 0.091 0.066 0.114 0.041 0.024 0.091 0.024 0.132 0l1.302-0.746c0.082-0.049 0.132-0.135 0.132-0.23v-1.587c0-0.094 0.050-0.182 0.132-0.229l0.555-0.319c0.041-0.024 0.086-0.035 0.133-0.035 0.045 0 0.091 0.012 0.132 0.035l0.554 0.319c0.082 0.047 0.132 0.135 0.132 0.229v1.587c0 0.095 0.051 0.181 0.133 0.23l1.302 0.746c0.041 0.024 0.092 0.024 0.132 0 0.040-0.023 0.066-0.067 0.066-0.114l0.004-3.396zM17.006 11.894c-0.041-0.023-0.091-0.022-0.131 0.002s-0.065 0.067-0.065 0.114v3.363c0 0.033-0.018 0.064-0.046 0.080s-0.064 0.017-0.093 0l-0.549-0.316c-0.082-0.047-0.183-0.047-0.265 0l-2.192 1.265c-0.082 0.047-0.133 0.135-0.133 0.229v2.531c0 0.095 0.050 0.182 0.132 0.229l2.192 1.266c0.082 0.047 0.183 0.047 0.265 0l2.193-1.266c0.082-0.048 0.132-0.135 0.132-0.229v-6.309c0-0.096-0.052-0.184-0.136-0.231l-1.305-0.728zM16.803 18.331c0 0.024-0.012 0.046-0.033 0.057l-0.753 0.434c-0.020 0.012-0.046 0.012-0.066 0l-0.753-0.434c-0.021-0.012-0.033-0.034-0.033-0.057v-0.869c0-0.024 0.013-0.046 0.033-0.057l0.753-0.435c0.020-0.012 0.046-0.012 0.066 0l0.753 0.435c0.020 0.012 0.033 0.034 0.033 0.057v0.869zM24.85 17.439c0.081-0.047 0.132-0.134 0.132-0.229v-0.613c0-0.095-0.050-0.181-0.132-0.229l-2.178-1.265c-0.082-0.048-0.183-0.048-0.265-0l-2.192 1.265c-0.082 0.047-0.132 0.135-0.132 0.229v2.53c0 0.095 0.051 0.183 0.134 0.23l2.178 1.241c0.080 0.046 0.179 0.046 0.26 0.001l1.317-0.732c0.041-0.023 0.067-0.067 0.068-0.115s-0.025-0.092-0.066-0.116l-2.206-1.266c-0.041-0.023-0.066-0.067-0.066-0.115v-0.793c0-0.047 0.025-0.091 0.066-0.115l0.687-0.395c0.041-0.023 0.091-0.023 0.132 0l0.687 0.395c0.041 0.024 0.066 0.067 0.066 0.115v0.624c0 0.047 0.025 0.091 0.066 0.115s0.092 0.023 0.133-0l1.312-0.763zM9.291 15.090c0.082-0.047 0.183-0.047 0.265 0l2.192 1.265c0.082 0.047 0.132 0.134 0.132 0.229v2.532c0 0.095-0.051 0.182-0.132 0.229l-2.192 1.266c-0.082 0.047-0.183 0.047-0.265 0l-2.192-1.266c-0.082-0.047-0.132-0.135-0.132-0.229v-2.532c0-0.095 0.050-0.182 0.132-0.229l2.192-1.265zM29.106 20.647c-0.075 0-0.151-0.020-0.217-0.058l-0.69-0.408c-0.103-0.058-0.052-0.078-0.019-0.090 0.137-0.048 0.165-0.059 0.312-0.142 0.015-0.009 0.036-0.005 0.052 0.004l0.53 0.315c0.019 0.011 0.046 0.011 0.064 0l2.067-1.193c0.019-0.011 0.031-0.033 0.031-0.056v-2.386c0-0.023-0.012-0.045-0.032-0.057l-2.066-1.192c-0.019-0.011-0.045-0.011-0.064 0l-2.066 1.192c-0.020 0.011-0.033 0.034-0.033 0.057v2.386c0 0.023 0.013 0.044 0.032 0.055l0.566 0.327c0.307 0.154 0.495-0.027 0.495-0.209v-2.355c0-0.033 0.027-0.059 0.060-0.059h0.262c0.033 0 0.060 0.026 0.060 0.059v2.355c0 0.41-0.223 0.645-0.612 0.645-0.119 0-0.214 0-0.476-0.129l-0.542-0.312c-0.134-0.077-0.217-0.222-0.217-0.377v-2.386c0-0.155 0.083-0.3 0.217-0.377l2.067-1.194c0.131-0.074 0.305-0.074 0.434 0l2.067 1.194c0.134 0.077 0.217 0.222 0.217 0.377v2.386c0 0.155-0.083 0.299-0.217 0.377l-2.067 1.193c-0.066 0.038-0.141 0.058-0.218 0.058zM29.745 19.004c-0.905 0-1.094-0.415-1.094-0.764 0-0.033 0.026-0.059 0.060-0.059h0.267c0.030 0 0.055 0.022 0.059 0.051 0.040 0.272 0.16 0.41 0.708 0.41 0.435 0 0.621-0.099 0.621-0.329 0-0.133-0.052-0.232-0.729-0.298-0.565-0.056-0.915-0.181-0.915-0.633 0-0.417 0.352-0.666 0.941-0.666 0.662 0 0.99 0.23 1.031 0.723 0.002 0.017-0.004 0.033-0.016 0.046s-0.027 0.019-0.044 0.019h-0.268c-0.028 0-0.052-0.020-0.058-0.047-0.064-0.286-0.221-0.378-0.645-0.378-0.475 0-0.531 0.166-0.531 0.29 0 0.151 0.065 0.194 0.707 0.279 0.635 0.084 0.937 0.203 0.937 0.649 0 0.45-0.375 0.708-1.030 0.708zM22.506 17.321c0.016-0.009 0.035-0.009 0.051 0l0.421 0.243c0.016 0.009 0.026 0.026 0.026 0.044v0.486c0 0.018-0.010 0.035-0.026 0.044l-0.421 0.243c-0.016 0.009-0.035 0.009-0.051 0l-0.42-0.243c-0.016-0.009-0.025-0.026-0.025-0.044v-0.486c0-0.018 0.010-0.035 0.025-0.044l0.42-0.243z"></path>
</svg>
