<?xml version="1.0" encoding="utf-8"?>
<!-- Generated by IcoMoon.io -->
<!DOCTYPE svg PUBLIC "-//W3C//DTD SVG 1.1//EN" "http://www.w3.org/Graphics/SVG/1.1/DTD/svg11.dtd">
<svg version="1.1" xmlns="http://www.w3.org/2000/svg" xmlns:xlink="http://www.w3.org/1999/xlink" width="32" height="32" viewBox="0 0 32 32">
<path fill="#444444" d="M15.998 28.895c-0.337 0-0.673-0.088-0.969-0.259l-3.086-1.826c-0.46-0.257-0.235-0.349-0.083-0.402 0.614-0.213 0.739-0.262 1.394-0.635 0.069-0.038 0.159-0.024 0.231 0.018l2.37 1.407c0.087 0.048 0.207 0.048 0.287 0l9.241-5.333c0.086-0.049 0.141-0.149 0.141-0.25v-10.665c0-0.104-0.055-0.202-0.143-0.255l-9.237-5.329c-0.086-0.050-0.199-0.050-0.285 0l-9.235 5.331c-0.090 0.051-0.146 0.152-0.146 0.253v10.666c0 0.102 0.056 0.198 0.145 0.247l2.532 1.462c1.374 0.687 2.215-0.122 2.215-0.935v-10.53c0-0.149 0.12-0.266 0.269-0.266h1.172c0.146 0 0.267 0.117 0.267 0.266v10.53c0 1.833-0.998 2.885-2.736 2.885-0.534 0-0.955 0-2.129-0.579l-2.423-1.395c-0.598-0.346-0.969-0.993-0.969-1.686v-10.665c0-0.693 0.371-1.339 0.969-1.684l9.242-5.34c0.585-0.331 1.362-0.331 1.942 0l9.241 5.34c0.599 0.346 0.971 0.992 0.971 1.684v10.665c0 0.693-0.372 1.337-0.971 1.686l-9.241 5.335c-0.296 0.171-0.631 0.259-0.973 0.259zM18.853 21.547c-4.045 0-4.892-1.857-4.892-3.414 0-0.148 0.118-0.266 0.266-0.266h1.195c0.133 0 0.245 0.096 0.265 0.226 0.18 1.216 0.717 1.831 3.164 1.831 1.946 0 2.775-0.441 2.775-1.473 0-0.596-0.234-1.037-3.26-1.334-2.528-0.25-4.093-0.809-4.093-2.831 0-1.865 1.572-2.977 4.207-2.977 2.961 0 4.425 1.027 4.611 3.233 0.007 0.075-0.020 0.148-0.071 0.205-0.051 0.054-0.121 0.086-0.196 0.086h-1.2c-0.124 0-0.233-0.088-0.259-0.209-0.288-1.28-0.988-1.689-2.886-1.689-2.126 0-2.373 0.74-2.373 1.295 0 0.673 0.292 0.869 3.161 1.248 2.84 0.375 4.19 0.907 4.19 2.902 0 2.014-1.678 3.167-4.606 3.167z"></path>
</svg>
