<?xml version="1.0" encoding="utf-8"?>
<!-- Generated by IcoMoon.io -->
<!DOCTYPE svg PUBLIC "-//W3C//DTD SVG 1.1//EN" "http://www.w3.org/Graphics/SVG/1.1/DTD/svg11.dtd">
<svg version="1.1" xmlns="http://www.w3.org/2000/svg" xmlns:xlink="http://www.w3.org/1999/xlink" width="32" height="32" viewBox="0 0 32 32">
<path fill="#444444" d="M20.527 16.431c0-0.084 0.001-0.168 0.001-0.253h-0.003c-0.030-3.17-0.356-5.197-0.809-6.544-0.238-0.707-0.511-1.227-0.794-1.623s-0.577-0.667-0.845-0.875c-0.322-0.249-0.704-0.382-1.053-0.457s-0.668-0.088-0.87-0.089c-0.065 0-0.117 0.001-0.155 0.003-0.038-0.002-0.090-0.003-0.154-0.003-0.202 0-0.52 0.014-0.87 0.089s-0.731 0.208-1.053 0.457c-0.268 0.208-0.562 0.479-0.845 0.875-0.425 0.595-0.827 1.466-1.121 2.831-0.276 1.28-0.46 2.996-0.482 5.336h-0.002c0 0.072 0 0.143 0.001 0.215-0 0.086-0.001 0.172-0.001 0.259h0.003c0.031 3.081 0.357 5.051 0.81 6.363 0.238 0.689 0.511 1.196 0.795 1.582s0.577 0.65 0.845 0.853c0.322 0.242 0.703 0.372 1.052 0.445s0.667 0.086 0.869 0.086c0.065 0 0.117-0.002 0.154-0.003 0.038 0.002 0.090 0.003 0.154 0.003 0.202-0 0.52-0.014 0.869-0.086s0.73-0.202 1.052-0.445c0.268-0.202 0.562-0.466 0.846-0.853 0.426-0.58 0.828-1.43 1.123-2.759 0.276-1.245 0.46-2.913 0.482-5.185h0.002c-0-0.075-0-0.148-0.001-0.221zM19.374 22.896c-0.228 0.66-0.485 1.131-0.744 1.485s-0.522 0.59-0.771 0.778c-0.26 0.197-0.592 0.314-0.907 0.379s-0.612 0.079-0.796 0.079c-0.047 0-0.086-0.001-0.116-0.002l-0-0.004h-0c-0.001 0-0.014 0.001-0.037 0.002-0.011-0.001-0.021-0.001-0.027-0.001l-0.009-0-0.002-0h-0l-0 0.004c-0.031 0.001-0.070 0.002-0.116 0.002-0.184 0-0.481-0.014-0.796-0.079s-0.647-0.182-0.907-0.379c-0.249-0.188-0.512-0.424-0.772-0.778-0.389-0.53-0.773-1.328-1.060-2.622-0.277-1.25-0.463-2.962-0.475-5.33 0.014-3.29 0.346-5.352 0.792-6.678 0.228-0.678 0.485-1.163 0.745-1.527s0.523-0.606 0.772-0.799c0.26-0.202 0.591-0.322 0.906-0.389s0.611-0.081 0.795-0.081c0.047 0 0.086 0.001 0.117 0.002l0 0.004h0c0.001-0 0.014-0.001 0.037-0.002 0.011 0.001 0.020 0.001 0.026 0.001l0.011 0.001 0-0.004c0.031-0.001 0.070-0.002 0.117-0.002 0.184-0 0.48 0.014 0.795 0.081s0.646 0.187 0.906 0.389c0.249 0.193 0.512 0.436 0.772 0.799 0.39 0.545 0.774 1.366 1.062 2.696 0.278 1.285 0.463 3.044 0.476 5.476-0.014 3.203-0.345 5.211-0.791 6.5zM26.807 12.353c-2.018-6.779-7.28-8.176-10.808-8.176-3.571 0-8.789 1.397-10.807 8.176-0.398 1.337-0.556 2.66-0.53 3.933-0.026 1.273 0.132 2.595 0.53 3.933 2.018 6.779 7.236 8.176 10.807 8.176 3.527 0 8.789-1.397 10.808-8.176 0.398-1.337 0.556-2.66 0.53-3.933 0.026-1.273-0.132-2.595-0.53-3.933zM18.476 25.807c-0.76 0.608-2.017 0.708-2.472 0.723-0.455-0.015-1.72-0.115-2.48-0.723-1.027-0.822-2.36-2.563-2.38-9.521 0.020-6.959 1.353-8.7 2.38-9.521 0.76-0.608 2.025-0.708 2.48-0.723 0.455 0.015 1.712 0.115 2.472 0.723 1.027 0.822 2.36 2.563 2.38 9.522-0.020 6.959-1.352 8.7-2.38 9.521z"></path>
</svg>
