<?xml version="1.0" encoding="utf-8"?>
<!-- Generator: Adobe Illustrator 19.2.1, SVG Export Plug-In . SVG Version: 6.00 Build 0)  -->
<svg version="1.1" id="Layer_1" xmlns="http://www.w3.org/2000/svg" xmlns:xlink="http://www.w3.org/1999/xlink" x="0px" y="0px"
	 width="92px" height="92px" viewBox="0 0 92 92" enable-background="new 0 0 92 92" xml:space="preserve">
<path id="XMLID_1211_" d="M81.6,3c-1-0.6-2.2-0.7-3.2-0.2l-21.1,9.9L36.1,2.8c-0.1,0-0.1,0-0.2-0.1c-0.1-0.1-0.3-0.1-0.4-0.1
	c-0.1,0-0.3-0.1-0.4-0.1c-0.1,0-0.3,0-0.4,0c-0.1,0-0.3,0-0.4,0c-0.1,0-0.3,0-0.4,0.1c-0.1,0-0.3,0.1-0.4,0.1c-0.1,0-0.1,0-0.2,0.1
	L10.3,13.4C9,14,8,15.2,8,16.6V86c0,1.2,0.9,2.3,1.9,3c0.6,0.4,1.3,0.5,2,0.5c0.5,0,1.1-0.1,1.5-0.3l21.2-9.9l21.2,9.9c0,0,0,0,0,0
	c0.2,0.1,0.4,0.2,0.6,0.2c0.1,0,0.1,0,0.2,0c0.2,0,0.4,0.1,0.7,0.1s0.4,0,0.7-0.1c0.1,0,0.1,0,0.2,0c0.2-0.1,0.4-0.1,0.6-0.2
	c0,0,0,0,0,0l22.4-10.6c1.2-0.6,1.8-1.8,1.8-3.2V6C83,4.8,82.6,3.7,81.6,3z M54,80.5l-16-7.3V11.5l16,7.3V80.5z M15,18.8l16-7.3
	v61.7l-16,7.3V18.8z M76,73.2l-15,7.3V18.8l15-7.3V73.2z"/>
</svg>
