<?xml version="1.0" encoding="utf-8"?>
<!-- Generator: Adobe Illustrator 19.2.1, SVG Export Plug-In . SVG Version: 6.00 Build 0)  -->
<svg version="1.1" id="Layer_1" xmlns="http://www.w3.org/2000/svg" xmlns:xlink="http://www.w3.org/1999/xlink" x="0px" y="0px"
	 width="92px" height="92px" viewBox="0 0 92 92" enable-background="new 0 0 92 92" xml:space="preserve">
<path id="XMLID_228_" d="M85,36.6c1.4,1.4,1.4,3.6,0,5L45.2,81.3C38.6,88,31.1,91.5,23.9,91.5c-1.8,0-3.6-0.2-5.4-0.7
	c-7-1.9-12.4-7.3-14.3-14.6c-2.4-9,0.8-18.8,8.9-26.9L57.5,5c7.2-7.2,17.2-4.9,23,0.9c7.9,7.9,5.7,17.2,0.4,22.5L36.2,73
	c-5.9,5.9-12.6,5.5-16,2c-3.4-3.5-3.8-10,2.1-16l30.2-30.2c1.4-1.4,3.6-1.4,5,0c1.4,1.4,1.4,3.6,0,5L27.1,64c-2.6,2.6-3,5.1-2.1,6.1
	c1,1,3.5,0.6,6.1-2l44.7-44.7c4.5-4.5,2.6-9.6-0.4-12.6c-3.4-3.4-8.9-5.1-13.1-0.8L18.1,54.3c-6.3,6.3-8.9,13.6-7.1,20.1
	c1.3,4.8,4.8,8.4,9.4,9.6c6.2,1.7,13.3-1.1,19.9-7.7l39.8-39.8C81.4,35.3,83.6,35.3,85,36.6L85,36.6z"/>
</svg>
