<?xml version="1.0" encoding="utf-8"?>
<!-- Generator: Adobe Illustrator 19.2.1, SVG Export Plug-In . SVG Version: 6.00 Build 0)  -->
<svg version="1.1" id="Layer_1" xmlns="http://www.w3.org/2000/svg" xmlns:xlink="http://www.w3.org/1999/xlink" x="0px" y="0px"
	 width="92px" height="92px" viewBox="0 0 92 92" enable-background="new 0 0 92 92" xml:space="preserve">
<path id="XMLID_2170_" d="M89.1,6.1l-3.2-3.2C84,1,81.6,0,78.9,0c0,0,0,0,0,0c-2.7,0-5.1,1-7,2.9L8.7,66.2c-0.4,0.4-0.7,0.8-0.9,1.4
	L0.3,86.5C-0.3,88,0,89.7,1.2,90.8C1.9,91.6,3,92,4,92c0.5,0,1-0.1,1.5-0.3l19-7.4c0.5-0.2,1-0.5,1.4-0.9l63.3-63.3
	C93,16.3,93,10,89.1,6.1z M14.8,71.7l5.6,5.6l-9.3,3.6L14.8,71.7z M83.4,14.5L28.2,69.7l-5.8-5.8L77.5,8.6C78,8.1,78.6,8,78.9,8
	s0.9,0.1,1.4,0.6l3.2,3.2C84.2,12.5,84.2,13.7,83.4,14.5z"/>
</svg>
