<?xml version="1.0" encoding="utf-8"?>
<!-- Generated by IcoMoon.io -->
<!DOCTYPE svg PUBLIC "-//W3C//DTD SVG 1.1//EN" "http://www.w3.org/Graphics/SVG/1.1/DTD/svg11.dtd">
<svg version="1.1" xmlns="http://www.w3.org/2000/svg" xmlns:xlink="http://www.w3.org/1999/xlink" width="32" height="32" viewBox="0 0 32 32">
<path fill="#444444" d="M15.923 5.072c-0.516 0.191-0.852 0.568-1.017 1.136-0.114 0.387-0.114 0.506 0.124 7.828 0.114 3.522 0.238 7.601 0.284 9.062 0.057 1.921 0.103 2.762 0.16 3.031 0.191 0.898 0.909 1.461 1.869 1.461 0.361 0 8.298-1.348 8.701-1.477 0.367-0.119 0.806-0.547 1.007-0.986 0.31-0.676 0.31-0.666 0.098-3.79-0.289-4.244-0.697-10.482-0.785-12.067-0.093-1.57-0.15-1.854-0.465-2.324-0.227-0.336-0.718-0.702-1.074-0.811-0.15-0.041-1.058-0.196-2.024-0.336-6.047-0.878-6.387-0.914-6.878-0.728zM21.335 9.28c2.675 0.207 2.995 0.238 3.191 0.336 0.325 0.17 0.604 0.449 0.759 0.759 0.134 0.274 0.139 0.331 0.258 2.386 0.067 1.157 0.207 3.444 0.305 5.091 0.17 2.762 0.181 3.005 0.108 3.258-0.145 0.48-0.614 0.899-1.193 1.053-0.361 0.093-6.279 0.687-6.614 0.661-0.604-0.046-1.084-0.434-1.286-1.043-0.067-0.191-0.098-0.584-0.134-1.549-0.026-0.713-0.119-3.248-0.207-5.639-0.145-4.007-0.155-4.368-0.077-4.621 0.103-0.356 0.346-0.645 0.671-0.795 0.367-0.17 0.697-0.165 4.219 0.103zM17.39 9.373c-0.424 0.114-0.707 0.542-0.707 1.059 0 0.248-0.067 0.232 1.084 0.33 0.728 0.062 1.023 0.176 1.296 0.511 0.289 0.346 0.294 0.408 0.48 4.673 0.186 4.327 0.191 4.224-0.093 4.596-0.077 0.098-0.279 0.243-0.465 0.336-0.284 0.139-0.428 0.17-1.12 0.243-0.439 0.041-0.806 0.088-0.816 0.098-0.041 0.036 0.119 0.578 0.237 0.785 0.067 0.119 0.212 0.279 0.315 0.346 0.336 0.222 0.573 0.232 1.916 0.093 0.671-0.067 1.234-0.145 1.25-0.16 0.021-0.021-0.098-2.907-0.258-6.413l-0.289-6.377-1.084-0.088c-1.255-0.098-1.477-0.103-1.745-0.031zM11.266 7.225c-0.387 0.103-0.609 0.253-0.785 0.532-0.315 0.496-0.305-0.243-0.15 8.189 0.139 7.632 0.155 8.081 0.31 8.432 0.222 0.516 0.687 0.821 1.394 0.914 0.212 0.026 2.974-0.294 3.031-0.356 0.021-0.021-0.083-3.506-0.108-3.527-0.005-0.010-0.475 0.031-1.043 0.088-1.064 0.108-1.337 0.098-1.663-0.072-0.294-0.155-0.537-0.506-0.625-0.914-0.026-0.124-0.088-2.251-0.139-4.73-0.103-5.076-0.119-4.781 0.289-5.148 0.32-0.289 0.496-0.315 1.627-0.243 0.542 0.036 1.038 0.077 1.105 0.093l0.119 0.031-0.031-1.131c-0.016-0.625-0.046-1.317-0.062-1.544l-0.026-0.418-1.379-0.139c-1.559-0.16-1.487-0.16-1.864-0.057zM7.403 9.771c-0.403 0.103-0.702 0.403-0.769 0.774-0.021 0.103-0.010 1.766 0.026 3.697 0.103 5.757 0.15 7.286 0.222 7.523 0.093 0.315 0.387 0.589 0.749 0.692 0.284 0.083 0.351 0.083 1.203 0 0.496-0.052 1.002-0.103 1.12-0.119l0.222-0.031-0.031-1.244c-0.021-0.681-0.041-1.25-0.046-1.255-0.005-0.010-0.336 0.010-0.738 0.041-0.904 0.072-1.141 0.041-1.389-0.175-0.346-0.305-0.33-0.196-0.413-3.79l-0.072-3.258 0.109-0.217c0.083-0.16 0.17-0.243 0.346-0.32 0.217-0.098 0.299-0.103 1.141-0.067l0.904 0.041-0.036-1.053c-0.015-0.573-0.046-1.059-0.057-1.074-0.031-0.026-1.095-0.124-1.91-0.181-0.227-0.016-0.485-0.005-0.578 0.015zM12.159 10.721c-0.351 0.165-0.516 0.563-0.46 1.12l0.036 0.346 0.573 0.026c0.687 0.031 0.94 0.129 1.157 0.465l0.145 0.217v6.17l-0.155 0.165c-0.232 0.248-0.542 0.361-1.079 0.403l-0.47 0.031-0.015 0.284c-0.041 0.645 0.186 1.095 0.64 1.27 0.207 0.078 0.3 0.083 1.022 0.021 0.439-0.036 0.821-0.083 0.857-0.103 0.077-0.047 0.072-0.676-0.026-5.060-0.108-5.045-0.119-5.205-0.336-5.318-0.052-0.026-0.465-0.062-0.914-0.077-0.64-0.026-0.852-0.015-0.976 0.041zM5.033 12.822c-0.062 0.021-0.16 0.108-0.222 0.186-0.108 0.134-0.108 0.17-0.108 2.313 0 1.193 0.016 2.51 0.036 2.917 0.031 0.671 0.041 0.754 0.15 0.883 0.165 0.191 0.423 0.248 1.048 0.217l0.527-0.026-0.016-0.651-0.015-0.651-0.475-0.026c-0.759-0.041-0.707 0.098-0.728-1.993-0.016-1.957-0.021-1.936 0.356-2.034 0.119-0.036 0.33-0.041 0.49-0.021l0.279 0.031v-1.136l-0.16-0.031c-0.232-0.046-1.033-0.031-1.162 0.021zM7.801 13.411v0.547h0.16c0.212 0 0.501 0.139 0.573 0.279 0.093 0.16 0.129 3.232 0.041 3.434-0.067 0.165-0.325 0.315-0.537 0.315h-0.134v0.46c0 0.253 0.016 0.532 0.031 0.62 0.031 0.155 0.041 0.16 0.325 0.16 0.33 0 0.594-0.114 0.744-0.32 0.103-0.134 0.103-0.181 0.041-2.788-0.057-2.287-0.077-2.675-0.15-2.824-0.139-0.284-0.325-0.387-0.733-0.408l-0.361-0.021v0.547z"></path>
</svg>
