<?xml version="1.0" encoding="utf-8"?>
<!-- Generator: Adobe Illustrator 19.2.1, SVG Export Plug-In . SVG Version: 6.00 Build 0)  -->
<svg version="1.1" id="Layer_1" xmlns="http://www.w3.org/2000/svg" xmlns:xlink="http://www.w3.org/1999/xlink" x="0px" y="0px"
	 width="92px" height="92px" viewBox="0 0 92 92" enable-background="new 0 0 92 92" xml:space="preserve">
<path id="XMLID_1952_" d="M91.7,25.4l-9.5,45.8c-0.3,1.4-1.5,2.4-2.9,2.4c-0.2,0-0.4,0-0.6-0.1c-1.6-0.3-2.7-1.9-2.3-3.5l8.9-42.8
	L27.9,15.5l-1.4,6.4c-0.4,1.6-2,2.6-3.6,2.3c-1.6-0.4-2.6-2-2.3-3.6l2.1-9.3c0.4-1.6,1.9-2.6,3.5-2.3l63.2,12.8
	c0.8,0.2,1.5,0.6,1.9,1.3C91.7,23.8,91.8,24.6,91.7,25.4z M73,80c0,2.2-1.8,4-4,4H4c-2.2,0-4-1.8-4-4V31c0-2.2,1.8-4,4-4h65
	c2.2,0,4,1.8,4,4V80z M8,35v24.7L24.9,46c1.3-1.1,3.4-1.1,4.7,0.1l19,16.8l7.9-6.8c1.3-1.1,2.8-1.1,4.1,0l3.3,3.4V35H8z M64,76v-7.3
	l-5.6-5.3l-7.6,6.8c-1.3,1.1-3.2,1.1-4.5,0L27,53.3L8,68.8V76H64z M47.4,51.3c3.4,0,6.1-2.7,6.1-6.1c0-3.4-2.8-6.1-6.1-6.1
	c-3.4,0-6.1,2.7-6.1,6.1C41.2,48.5,44,51.3,47.4,51.3z"/>
</svg>
