<?xml version="1.0" encoding="utf-8"?>
<!-- Generator: Adobe Illustrator 19.2.1, SVG Export Plug-In . SVG Version: 6.00 Build 0)  -->
<svg version="1.1" id="Layer_1" xmlns="http://www.w3.org/2000/svg" xmlns:xlink="http://www.w3.org/1999/xlink" x="0px" y="0px"
	 width="92px" height="92px" viewBox="0 0 92 92" enable-background="new 0 0 92 92" xml:space="preserve">
<path id="XMLID_1638_" d="M90.8,26.4L65.6,1.2c-1.6-1.6-4.1-1.6-5.7,0c-0.3,0.3-7.6,7.8-4.8,17.6L43.7,30.2
	c-6.3-1.9-22.4-5.2-34.3,6.7c-1.6,1.6-1.6,4.1,0,5.7l17.2,17.2L1.2,85.2c-1.6,1.6-1.6,4.1,0,5.7C2,91.6,3,92,4,92s2-0.4,2.8-1.2
	l25.4-25.4l17.2,17.2c0.8,0.8,1.8,1.2,2.8,1.2c1,0,2-0.4,2.8-1.2c11.9-11.9,8.6-28.1,6.7-34.3l11.4-11.4c9.8,2.8,17.2-4.5,17.6-4.8
	C92.4,30.5,92.4,28,90.8,26.4z M73.9,28.6c-1.5-0.7-3.3-0.4-4.5,0.8l-15,15c-1.1,1.1-1.5,2.9-0.9,4.3c0,0,1.8,4.5,2.1,10.3
	c0.3,5.8-0.9,10.7-3.6,14.8L35,57c0,0,0,0,0,0s0,0,0,0l-17-17c10.7-7.2,24.5-1.8,25.1-1.5c1.5,0.6,3.2,0.3,4.4-0.9l15-15
	c1.2-1.2,1.5-3,0.8-4.5c-1.4-3-0.9-5.7,0-7.8l18.4,18.4C79.7,29.5,76.9,30,73.9,28.6z M50.2,50.3c0.1,0.3,1.4,3.2,1.3,6.3
	C51.5,58.5,49.9,60,48,60c0,0-0.1,0-0.1,0c-1.9-0.1-3.5-1.7-3.4-3.6c0-1.3-0.5-2.8-0.7-3.3c-0.8-1.8,0-3.8,1.8-4.6
	C47.4,47.8,49.5,48.5,50.2,50.3z"/>
</svg>
