<?xml version="1.0" encoding="utf-8"?>
<!-- Generated by IcoMoon.io -->
<!DOCTYPE svg PUBLIC "-//W3C//DTD SVG 1.1//EN" "http://www.w3.org/Graphics/SVG/1.1/DTD/svg11.dtd">
<svg version="1.1" xmlns="http://www.w3.org/2000/svg" xmlns:xlink="http://www.w3.org/1999/xlink" width="32" height="32" viewBox="0 0 32 32">
<path fill="#444444" d="M26.741 18.661c-0.24-0.278-0.65-0.202-0.967-0.139-0.762 0.136-1.591 0.294-2.329-0.023 1.318-2.080 2.355-4.351 2.935-6.748 0.211-0.911 0.374-1.843 0.343-2.781-0.023-0.525-0.096-1.084-0.417-1.519-0.794-1.047-1.945-1.81-3.214-2.151-1.585-0.43-3.285-0.302-4.844 0.18-0.129 0.026-0.256-0.032-0.382-0.048-1.415-0.287-2.975-0.174-4.202 0.645-1.473-0.53-3.056-0.85-4.624-0.686-1.166 0.121-2.337 0.663-3.006 1.656-0.846 1.239-0.961 2.821-0.826 4.273 0.272 1.928 0.742 3.826 1.34 5.677 0.394 1.154 0.828 2.317 1.529 3.325 0.356 0.495 0.829 0.994 1.466 1.072 0.566 0.069 1.078-0.282 1.425-0.698 0.6-0.718 1.217-1.423 1.857-2.105 0.418 0.205 0.872 0.323 1.336 0.358-0.251 0.298-0.458 0.687-0.858 0.804-0.539 0.208-1.17 0.18-1.645 0.539-0.274 0.196-0.287 0.623-0.041 0.848 0.445 0.432 1.101 0.525 1.693 0.575 0.839 0.064 1.687-0.218 2.324-0.768-0.004 1.334 0.002 2.672 0.152 3.999 0.075 0.777 0.41 1.551 1.001 2.074 0.557 0.486 1.351 0.587 2.058 0.464 0.694-0.132 1.407-0.34 1.949-0.814 0.576-0.508 0.822-1.275 0.936-2.011 0.207-1.319 0.364-2.644 0.514-3.969 1.483 0.25 3.161-0.034 4.269-1.117 0.237-0.223 0.462-0.609 0.228-0.912zM23.45 6.117c0.89 0.338 1.681 0.925 2.275 1.668 0.283 0.355 0.319 0.832 0.337 1.268 0.013 1.040-0.197 2.067-0.464 3.067-0.511 1.851-1.287 3.625-2.262 5.277-0.096 0.163-0.201 0.32-0.317 0.469-0.009-0.045-0.027-0.137-0.036-0.183 0.121-0.318 0.298-0.618 0.367-0.956 0.244-0.953 0.038-1.934-0.050-2.893-0.092-0.905 0.217-1.786 0.209-2.689 0.035-0.442-0.14-0.86-0.31-1.257-0.615-1.375-1.593-2.598-2.848-3.438-0.306-0.21-0.648-0.357-0.953-0.568 1.334-0.286 2.765-0.25 4.051 0.234zM22.637 13.836c0.078 1.071 0.389 2.221-0.116 3.237-0.677-1.347-1.552-2.633-1.857-4.133-0.086-0.477-0.108-1.081 0.316-1.413 0.538-0.382 1.241-0.296 1.863-0.258-0.027 0.859-0.291 1.702-0.205 2.567zM10.534 20.181c-0.243 0.286-0.571 0.627-0.985 0.542-0.484-0.14-0.792-0.582-1.062-0.979-0.729-1.166-1.168-2.483-1.571-3.79-0.451-1.547-0.831-3.119-1.050-4.717-0.109-1.216-0.041-2.52 0.581-3.603 0.466-0.82 1.335-1.343 2.248-1.514 1.462-0.281 2.961 0.017 4.364 0.445-0.619 0.68-1.101 1.481-1.382 2.358-0.383 1.171-0.558 2.417-0.466 3.648 0.053 0.867 0.030 1.738-0.091 2.598-0.152 1.123 0.299 2.278 1.133 3.036-0.568 0.664-1.17 1.297-1.72 1.977zM11.814 16.158c-0.143-0.636 0.044-1.276 0.065-1.913 0.049-0.721-0.002-1.443-0.016-2.164 0.674-0.436 1.462-0.777 2.279-0.73 0.423 0.018 0.813 0.317 0.915 0.734 0.371 1.477 0.486 3.121-0.225 4.52-0.248 0.54-0.449 1.099-0.622 1.666-1.182 0.012-2.187-0.987-2.396-2.112zM15.492 20.112c-0.742 1.005-2.227 1.197-3.3 0.65 0.529-0.245 1.148-0.226 1.659-0.528 0.494-0.266 0.69-0.851 1.152-1.152 0.503-0.071 0.87 0.676 0.49 1.029zM21.856 18.938c-0.282 0.454-0.183 1.008-0.252 1.512-0.162 1.413-0.321 2.828-0.551 4.232-0.109 0.673-0.395 1.388-1.030 1.723-0.651 0.331-1.407 0.539-2.139 0.426-0.695-0.122-1.133-0.77-1.33-1.401-0.144-0.529-0.159-1.082-0.2-1.627-0.070-1.315-0.071-2.633-0.037-3.949 0.029-0.514-0.235-1.049-0.694-1.299-0.222-0.125-0.482-0.142-0.73-0.162 0.195-0.967 0.784-1.802 0.986-2.768 0.262-1.195 0.117-2.439-0.151-3.619-0.131-0.589-0.579-1.11-1.175-1.253-0.918-0.231-1.844 0.128-2.665 0.512 0.104-1.334 0.461-2.7 1.278-3.783 0.601-0.806 1.533-1.344 2.528-1.473 1.642-0.209 3.366 0.243 4.671 1.27 1.078 0.852 1.93 2.006 2.389 3.304-0.763-0.027-1.628-0.058-2.245 0.472-0.56 0.472-0.632 1.277-0.506 1.953 0.292 1.608 1.241 2.975 1.941 4.421 0.186 0.339 0.436 0.635 0.674 0.939-0.283 0.143-0.599 0.28-0.76 0.571zM23.82 20.075c-0.504 0.060-1.028 0.078-1.514-0.089 0.002-0.275-0.013-0.601 0.208-0.806 0.175-0.129 0.424-0.248 0.626-0.107 0.86 0.453 1.86 0.232 2.775 0.121-0.559 0.544-1.333 0.798-2.095 0.881zM21.178 11.728c-0.179 0.147 0.014 0.367 0.168 0.436 0.373 0.219 0.884-0.087 0.896-0.513-0.337-0.157-0.76-0.141-1.065 0.077zM14.576 12.408c0.159-0.090 0.327-0.337 0.143-0.486-0.262-0.213-0.643-0.254-0.962-0.168-0.103 0.036-0.211 0.106-0.19 0.232 0.074 0.428 0.647 0.688 1.008 0.422z"></path>
</svg>
