<?xml version="1.0" encoding="utf-8"?>
<!-- Generator: Adobe Illustrator 19.2.1, SVG Export Plug-In . SVG Version: 6.00 Build 0)  -->
<svg version="1.1" id="Layer_1" xmlns="http://www.w3.org/2000/svg" xmlns:xlink="http://www.w3.org/1999/xlink" x="0px" y="0px"
	 width="92px" height="92px" viewBox="0 0 92 92" enable-background="new 0 0 92 92" xml:space="preserve">
<path id="XMLID_132_" d="M46,47.5c-2.2,0-4-1.8-4-4V9c0-2.2,1.8-4,4-4s4,1.8,4,4v34.5C50,45.7,48.3,47.5,46,47.5z M84,48.8
	c0-14.6-8.1-27.7-21.1-34.2c-2-1-4.4-0.2-5.4,1.8c-1,2-0.2,4.4,1.8,5.4C69.6,26.9,76,37.3,76,48.8C76,65.5,62.5,79,46,79
	c-16.5,0-30-13.5-30-30.2c0-11.6,6.4-21.9,16.7-27.1c2-1,2.8-3.4,1.8-5.4c-1-2-3.4-2.8-5.4-1.8C16.1,21.1,8,34.2,8,48.8
	C8,69.9,25,87,46,87C67,87,84,69.9,84,48.8z"/>
</svg>
