<?xml version="1.0" encoding="utf-8"?>
<!-- Generator: Adobe Illustrator 19.2.1, SVG Export Plug-In . SVG Version: 6.00 Build 0)  -->
<svg version="1.1" id="Layer_1" xmlns="http://www.w3.org/2000/svg" xmlns:xlink="http://www.w3.org/1999/xlink" x="0px" y="0px"
	 width="92px" height="92px" viewBox="0 0 92 92" enable-background="new 0 0 92 92" xml:space="preserve">
<path id="XMLID_1414_" d="M88,17H68V5c0-1.7-0.9-3-2.5-3H26.5C24.9,2,24,3.3,24,5v12H4c-2.2,0-4,1.7-4,3.9v45.9C0,69,1.8,71,4,71
	h14.7l-2.4,15.6c-0.2,1,0.1,2.2,0.8,3c0.7,0.8,1.6,1.4,2.7,1.4h52.5c1,0,2-0.7,2.7-1.5c0.7-0.8,1-1.8,0.8-2.8L73.3,71H88
	c2.2,0,4-2,4-4.2V20.9C92,18.7,90.2,17,88,17z M30,8h32v9H30V8z M23.8,84l3.8-25h36.8l3.8,25H23.8z M84,63H72.1l-1.3-8.2
	c-0.3-1.7-1.7-2.8-3.5-2.8H24.6c-1.7,0-3.2,1.1-3.5,2.8L19.9,63H8V25h76V63z M18.3,35c0-1.7,1.3-3,3-3h9.4c1.7,0,3,1.3,3,3
	s-1.3,3-3,3h-9.4C19.7,38,18.3,36.7,18.3,35z"/>
</svg>
