<?xml version="1.0" encoding="utf-8"?>
<!-- Generated by IcoMoon.io -->
<!DOCTYPE svg PUBLIC "-//W3C//DTD SVG 1.1//EN" "http://www.w3.org/Graphics/SVG/1.1/DTD/svg11.dtd">
<svg version="1.1" xmlns="http://www.w3.org/2000/svg" xmlns:xlink="http://www.w3.org/1999/xlink" width="32" height="32" viewBox="0 0 32 32">
<path fill="#444444" d="M24.378 15.097l-0.183-0.326c0.007-2.343-1.063-3.298-2.312-4.023 0.378-0.101 0.768-0.184 0.875-0.666 0.649-0.169 0.785-0.474 0.85-0.797 0.17-0.115 0.738-0.438 0.678-0.992 0.318-0.223 0.495-0.509 0.405-0.914 0.342-0.379 0.432-0.691 0.287-0.98 0.41-0.518 0.228-0.786 0.053-1.058 0.307-0.566 0.036-1.173-0.823-1.071-0.342-0.51-1.087-0.394-1.202-0.392-0.129-0.164-0.299-0.304-0.823-0.236-0.339-0.307-0.718-0.255-1.11-0.104-0.464-0.366-0.772-0.073-1.123 0.038-0.562-0.184-0.691 0.068-0.967 0.17-0.613-0.13-0.8 0.153-1.094 0.45l-0.342-0.007c-0.925 0.545-1.385 1.655-1.548 2.226-0.163-0.571-0.621-1.681-1.547-2.226l-0.342 0.007c-0.294-0.298-0.481-0.58-1.094-0.45-0.276-0.103-0.405-0.354-0.967-0.17-0.23-0.073-0.442-0.225-0.692-0.217l0 0c-0.131 0.004-0.271 0.052-0.431 0.178-0.391-0.151-0.77-0.203-1.11 0.104-0.524-0.068-0.694 0.072-0.823 0.236-0.115-0.002-0.86-0.118-1.202 0.392-0.859-0.102-1.131 0.505-0.823 1.071-0.175 0.272-0.357 0.54 0.053 1.058-0.145 0.288-0.055 0.601 0.287 0.98-0.090 0.405 0.087 0.691 0.405 0.914-0.060 0.555 0.509 0.877 0.678 0.992 0.065 0.323 0.201 0.628 0.85 0.797 0.107 0.482 0.497 0.565 0.875 0.666-1.248 0.726-2.319 1.681-2.312 4.024l-0.183 0.326c-1.431 0.871-2.72 3.669-0.706 5.943 0.131 0.712 0.352 1.223 0.549 1.789 0.294 2.28 2.211 3.348 2.717 3.475 0.741 0.564 1.53 1.1 2.599 1.475 1.007 1.038 2.098 1.434 3.195 1.434 0.016 0 0.032 0 0.049 0 1.097 0.001 2.188-0.395 3.195-1.434 1.068-0.375 1.858-0.911 2.599-1.475 0.506-0.126 2.423-1.194 2.717-3.475 0.196-0.566 0.417-1.077 0.549-1.789 2.014-2.274 0.726-5.073-0.706-5.943zM23.083 14.696c-0.075 0.944-4.918-3.286-4.082-3.426 2.27-0.383 4.158 0.965 4.082 3.426zM17.765 4.837c0.042 0.212 0.089 0.346 0.144 0.385 0.269-0.293 0.489-0.593 0.836-0.875 0.001 0.166-0.082 0.345 0.124 0.477 0.186-0.254 0.437-0.481 0.771-0.673-0.161 0.281-0.028 0.367 0.059 0.483 0.255-0.222 0.497-0.446 0.967-0.62-0.128 0.159-0.308 0.314-0.117 0.496 0.262-0.166 0.526-0.332 1.149-0.451-0.14 0.159-0.431 0.318-0.255 0.477 0.329-0.128 0.694-0.221 1.097-0.274-0.193 0.161-0.354 0.319-0.196 0.444 0.352-0.11 0.838-0.258 1.313-0.131l-0.3 0.307c-0.033 0.041 0.703 0.032 1.189 0.039-0.177 0.25-0.358 0.492-0.464 0.921 0.048 0.050 0.289 0.022 0.516 0-0.233 0.498-0.637 0.623-0.732 0.836 0.142 0.109 0.339 0.081 0.555 0.006-0.167 0.351-0.519 0.591-0.797 0.875 0.070 0.051 0.193 0.081 0.483 0.046-0.257 0.277-0.567 0.53-0.934 0.757 0.065 0.076 0.289 0.073 0.496 0.078-0.333 0.331-0.761 0.502-1.163 0.718 0.2 0.139 0.343 0.106 0.496 0.105-0.284 0.237-0.767 0.36-1.215 0.503 0.085 0.134 0.17 0.171 0.353 0.209-0.474 0.267-1.154 0.145-1.345 0.281 0.046 0.134 0.177 0.221 0.333 0.294-0.764 0.045-2.852-0.028-3.252-1.633 0.782-0.872 2.208-1.895 4.662-3.16-1.909 0.649-3.632 1.513-5.073 2.703-1.695-0.801-0.526-2.822 0.3-3.625zM15.99 10.624v-0c1.202-0.013 2.69 0.897 2.685 1.755-0.005 0.757-1.045 1.37-2.675 1.358-1.596-0.019-2.671-0.77-2.667-1.503 0.003-0.604 1.303-1.644 2.658-1.609zM9.914 9.977c0.182-0.038 0.267-0.075 0.353-0.209-0.448-0.143-0.931-0.266-1.215-0.503 0.153 0.002 0.296 0.034 0.496-0.105-0.401-0.216-0.83-0.388-1.162-0.718 0.207-0.005 0.431-0.002 0.496-0.078-0.367-0.228-0.677-0.481-0.934-0.757 0.29 0.035 0.413 0.005 0.483-0.046-0.278-0.284-0.629-0.525-0.797-0.875 0.216 0.074 0.413 0.103 0.555-0.006-0.094-0.213-0.499-0.338-0.731-0.836 0.227 0.022 0.468 0.050 0.516 0-0.105-0.429-0.286-0.671-0.464-0.921 0.486-0.007 1.222 0.002 1.189-0.039l-0.3-0.307c0.475-0.128 0.96 0.021 1.313 0.131 0.158-0.125-0.003-0.283-0.196-0.444 0.403 0.054 0.768 0.146 1.097 0.274 0.176-0.159-0.114-0.318-0.255-0.477 0.623 0.118 0.887 0.284 1.149 0.451 0.19-0.182 0.011-0.337-0.117-0.496 0.47 0.174 0.712 0.399 0.967 0.62 0.086-0.117 0.22-0.202 0.059-0.483 0.334 0.192 0.585 0.419 0.771 0.673 0.206-0.132 0.123-0.311 0.124-0.477 0.347 0.282 0.567 0.582 0.836 0.875 0.054-0.040 0.102-0.173 0.144-0.385 0.827 0.802 1.996 2.823 0.3 3.625-1.442-1.189-3.164-2.054-5.072-2.702 2.453 1.265 3.879 2.288 4.66 3.159-0.4 1.605-2.489 1.678-3.252 1.633 0.156-0.073 0.287-0.16 0.333-0.294-0.192-0.136-0.871-0.014-1.345-0.281zM12.73 11.197c0.836 0.14-4.008 4.37-4.082 3.427-0.076-2.461 1.812-3.81 4.082-3.427zM7.644 20.622c-1.177-0.947-1.556-3.72 0.626-4.966 1.315-0.353 0.444 5.441-0.626 4.966zM12.233 25.585c-0.664 0.4-2.276 0.235-3.422-1.411-0.773-1.381-0.673-2.787-0.131-3.2 0.811-0.494 2.065 0.173 3.030 1.293 0.841 1.013 1.224 2.793 0.522 3.318zM10.928 19.543c-1.218-0.798-1.438-2.607-0.49-4.041s2.703-1.949 3.921-1.151c1.218 0.798 1.438 2.607 0.491 4.041s-2.703 1.949-3.921 1.151zM15.994 28.407c-1.46 0.063-2.892-1.196-2.874-1.633-0.022-0.64 1.778-1.14 2.952-1.11 1.181-0.052 2.766 0.381 2.769 0.954 0.020 0.556-1.437 1.814-2.847 1.789zM19 22.096c0.009 1.497-1.301 2.718-2.925 2.725s-2.947-1.199-2.955-2.697c0-0.009 0-0.019 0-0.029-0.009-1.497 1.301-2.717 2.925-2.725s2.947 1.2 2.955 2.697c0 0.010 0 0.019 0 0.029zM17.156 18.248c-0.947-1.434-0.728-3.243 0.491-4.041s2.974-0.283 3.921 1.15c0.947 1.434 0.728 3.243-0.491 4.041s-2.974 0.283-3.921-1.15zM23.111 24.254c-1.258 1.746-2.962 1.814-3.596 1.328-0.664-0.626-0.157-2.57 0.753-3.636l-0-0c1.041-1.176 2.154-1.943 2.93-1.343 0.522 0.52 0.828 2.479-0.086 3.651zM24.096 20.55c-1.070 0.476-1.942-5.318-0.626-4.966 2.182 1.246 1.803 4.019 0.626 4.966z"></path>
</svg>
