<?xml version="1.0" encoding="utf-8"?>
<!-- Generated by IcoMoon.io -->
<!DOCTYPE svg PUBLIC "-//W3C//DTD SVG 1.1//EN" "http://www.w3.org/Graphics/SVG/1.1/DTD/svg11.dtd">
<svg version="1.1" xmlns="http://www.w3.org/2000/svg" xmlns:xlink="http://www.w3.org/1999/xlink" width="34" height="32" viewBox="0 0 34 32">
<path fill="#444444" d="M19.314 15.987c0 1.321-1.071 2.392-2.392 2.392s-2.392-1.071-2.392-2.392c0-1.321 1.071-2.392 2.392-2.392s2.392 1.071 2.392 2.392z"></path>
<path fill="#444444" d="M16.922 24.783c1.878 1.826 3.729 2.906 5.221 2.906 0.489 0 0.952-0.103 1.337-0.334 1.337-0.772 1.826-2.701 1.363-5.453-0.077-0.489-0.18-0.977-0.309-1.492 0.514-0.154 0.977-0.309 1.44-0.463 2.598-1.003 4.038-2.392 4.038-3.909 0-1.543-1.44-2.932-4.038-3.909-0.463-0.18-0.926-0.334-1.44-0.463 0.129-0.514 0.232-1.003 0.309-1.492 0.437-2.803-0.051-4.758-1.389-5.53-0.386-0.231-0.849-0.334-1.337-0.334-1.466 0-3.344 1.080-5.221 2.906-1.852-1.826-3.704-2.906-5.195-2.906-0.489 0-0.952 0.103-1.337 0.334-1.337 0.772-1.826 2.701-1.363 5.453 0.077 0.489 0.18 0.977 0.309 1.492-0.514 0.154-0.977 0.309-1.44 0.463-2.598 1.003-4.038 2.392-4.038 3.909 0 1.543 1.44 2.932 4.038 3.909 0.463 0.18 0.926 0.334 1.44 0.463-0.129 0.514-0.232 1.003-0.309 1.492-0.437 2.752 0.051 4.707 1.363 5.453 0.386 0.232 0.849 0.334 1.337 0.334 1.492 0.051 3.344-1.029 5.221-2.829v0zM15.481 21.311c0.463 0.026 0.952 0.026 1.44 0.026s0.977 0 1.44-0.026c-0.463 0.617-0.952 1.183-1.44 1.723-0.489-0.54-0.977-1.106-1.44-1.723zM12.292 18.662c0.257 0.437 0.489 0.849 0.772 1.26-0.797-0.103-1.543-0.232-2.263-0.386 0.232-0.694 0.489-1.415 0.797-2.135 0.206 0.411 0.437 0.849 0.694 1.26zM10.8 12.463c0.72-0.154 1.466-0.283 2.263-0.386-0.257 0.412-0.514 0.823-0.772 1.26s-0.489 0.849-0.694 1.286c-0.334-0.746-0.592-1.466-0.797-2.161zM12.215 15.987c0.334-0.694 0.694-1.389 1.106-2.083 0.386-0.669 0.823-1.337 1.26-2.006 0.772-0.051 1.543-0.077 2.341-0.077 0.823 0 1.595 0.026 2.341 0.077 0.463 0.669 0.874 1.337 1.26 2.006 0.412 0.694 0.772 1.389 1.106 2.083-0.334 0.694-0.694 1.389-1.106 2.083-0.386 0.669-0.823 1.337-1.26 2.006-0.772 0.051-1.543 0.077-2.341 0.077-0.823 0-1.595-0.026-2.341-0.077-0.463-0.669-0.874-1.337-1.26-2.006-0.412-0.695-0.772-1.389-1.106-2.083v0zM22.272 14.598l-0.694-1.286c-0.257-0.437-0.489-0.849-0.772-1.26 0.797 0.103 1.543 0.232 2.263 0.386-0.231 0.72-0.489 1.44-0.797 2.161v0zM22.272 17.376c0.309 0.72 0.566 1.44 0.797 2.135-0.72 0.154-1.466 0.283-2.263 0.386 0.257-0.412 0.514-0.823 0.772-1.26 0.232-0.386 0.463-0.823 0.694-1.26v0zM22.863 26.301c-0.206 0.129-0.463 0.18-0.746 0.18-1.26 0-2.829-1.029-4.372-2.572 0.746-0.797 1.466-1.698 2.186-2.701 1.209-0.103 2.366-0.283 3.447-0.54 0.129 0.463 0.206 0.926 0.283 1.389 0.36 2.186 0.077 3.755-0.797 4.244zM24.201 12.746c2.881 0.823 4.604 2.083 4.604 3.241 0 1.003-1.183 2.006-3.266 2.804-0.412 0.154-0.874 0.309-1.337 0.437-0.334-1.055-0.746-2.135-1.26-3.241 0.514-1.106 0.952-2.186 1.26-3.241v0zM22.143 5.493c0.283 0 0.514 0.051 0.746 0.18 0.849 0.489 1.157 2.032 0.797 4.244-0.077 0.437-0.18 0.9-0.283 1.389-1.080-0.232-2.238-0.412-3.447-0.54-0.694-1.003-1.44-1.903-2.186-2.701 1.543-1.518 3.112-2.572 4.372-2.572zM18.362 10.663c-0.463-0.026-0.952-0.026-1.44-0.026s-0.977 0-1.44 0.026c0.463-0.617 0.952-1.183 1.44-1.723 0.489 0.54 0.977 1.132 1.44 1.723v0zM10.98 5.673c0.206-0.129 0.463-0.18 0.746-0.18 1.26 0 2.829 1.029 4.372 2.572-0.746 0.797-1.466 1.697-2.186 2.701-1.209 0.103-2.366 0.283-3.447 0.54-0.129-0.463-0.206-0.926-0.283-1.389-0.36-2.186-0.077-3.729 0.797-4.244v0zM9.643 19.228c-2.881-0.823-4.604-2.083-4.604-3.241 0-1.003 1.183-2.006 3.266-2.803 0.412-0.154 0.874-0.309 1.337-0.437 0.334 1.055 0.746 2.135 1.26 3.241-0.514 1.106-0.952 2.212-1.26 3.241zM10.183 22.057c0.077-0.437 0.18-0.9 0.283-1.389 1.080 0.232 2.238 0.412 3.447 0.54 0.694 1.003 1.44 1.903 2.186 2.701-1.543 1.517-3.112 2.572-4.372 2.572-0.283 0-0.514-0.051-0.746-0.18-0.875-0.489-1.157-2.058-0.797-4.244z"></path>
</svg>
