<?xml version="1.0" encoding="utf-8"?>
<!-- Generated by IcoMoon.io -->
<!DOCTYPE svg PUBLIC "-//W3C//DTD SVG 1.1//EN" "http://www.w3.org/Graphics/SVG/1.1/DTD/svg11.dtd">
<svg version="1.1" xmlns="http://www.w3.org/2000/svg" xmlns:xlink="http://www.w3.org/1999/xlink" width="34" height="32" viewBox="0 0 34 32">
<path fill="#444444" d="M19.713 23.187c0.065 0.063 0.177 0.277 0.040 0.549-0.077 0.144-0.161 0.244-0.308 0.363-0.179 0.143-0.527 0.308-1.005 0.004-0.257-0.162-0.274-0.217-0.628-0.17-0.253 0.032-0.354-0.225-0.263-0.437 0.092-0.212 0.465-0.383 0.931-0.111 0.21 0.123 0.536 0.384 0.821 0.152 0.119-0.094 0.19-0.157 0.354-0.347 0.008-0.008 0.018-0.013 0.030-0.013 0.010-0 0.020 0.004 0.027 0.009z"></path>
<path fill="#444444" d="M19.137 7.996h-0.073c-0.137 0-0.279 0.008-0.424 0.024-0.484 0.048-0.907 0.168-1.191 0.318-0.013 0.006-0.023 0.020-0.023 0.035 0 0.020 0.018 0.038 0.040 0.038h0.007c0.081-0.013 0.164-0.024 0.251-0.033 0.786-0.079 1.448 0.052 1.481 0.291 0.024 0.181-0.319 0.373-0.824 0.49-0.027 0.007-0.044 0.029-0.044 0.053 0 0.026 0.017 0.048 0.044 0.054 0.212 0.061 0.459 0.1 0.721 0.106 0.814 0.017 1.479-0.276 1.489-0.655s-0.64-0.702-1.453-0.721z"></path>
<path fill="#444444" d="M15.613 10.010c-0.619 0-1.062 0.081-1.446 0.091s-0.681-0.272-0.819-0.445c-0.113-0.141-0.477-0.276-0.675 0.178-0.2 0.459 0.17 0.952 0.476 1.017 0 0 0.51 0.946 0.896 0.533 0.274-0.291 0.426-0.448 1.89-0.554 0.697-0.052 0.769-0.213 0.747-0.384-0.023-0.202-0.443-0.436-1.070-0.436z"></path>
<path fill="#444444" d="M16.922 4.797c-7 0-12.674 5.67-12.674 12.667 0 1.415 0.232 2.777 0.661 4.048h0.882c0.781 0 1.507-0.188 2.117-0.506 0.153-0.077 0.328-0.127 0.513-0.127 0.389 0 0.723 0.152 0.936 0.5 0.182 0.316 0.353 0.503 0.563 0.635 0.181 0.117 0.428 0.212 0.781 0.195 0.167-0.007 0.419-0.047 0.483-0.221 0.072-0.199-0.018-0.349-0.262-0.449-0.342-0.143-0.435-0.354-0.616-0.676-0.183-0.323-0.577-0.495-0.639-1.102-0.061-0.599 0.408-1.353 1.335-1.113 0.67 0.174 1.102 1.001 1.265 1.285 0.084 0.149 0.385 0.323 0.627 0.101 0.242-0.224 0.465-0.224 0.648 0.061 0.155 0.24 1.295 1.759 2.529 1.799 1.254 0.040 1.923-0.283 2.469-0.264 0.383 0.015 0.569 0.208 0.788 0.242 0.385 0.062 0.659-0.287 1.084-0.265 0.343 0.015 0.718 0.246 1.103 0.246s1.194-0.464 1.184-0.273c-0.020 0.339-0.28 0.937-0.343 1.214-0.045 0.191-0.006 0.655-0.121 1.027-0.103 0.379-0.456 0.859-0.548 0.996-0.31 0.464-0.536 0.605-0.79 1.091-0.282 0.546-0.747 1.051-0.869 1.214-0.155 0.208 0.878-0.006 1.244-0.355 0.311-0.294 0.857-1.184 1.72-1.374 0.582-0.129 0.699-0.352 0.628-0.559-0.012-0.023-0.018-0.053-0.018-0.081 0-0.079 0.046-0.148 0.114-0.181 0.601-0.25 1.417-0.405 2.314-0.405 0.523 0 1.042 0.070 1.53 0.182 1.287-1.984 2.034-4.346 2.034-6.884-0.001-6.997-5.675-12.667-12.673-12.667zM27.227 17.214c-0.607 3.334-6.065 4.456-11.373 2.85-5.058-1.53-9.499-4.581-8.985-6.366 0.298-1.041 1.949-1.484 4.148-1.246-0.333 0.68-0.309 1.479 1.147 2.369 1.78 1.010 4.788 1.873 5.601 1.788 0.303-0.030 0.576-0.181 0.303-0.363s-0.515-0.546-0.667-1.182c-0.086-0.354-0.182-0.849-2.092-1.212-4.102-0.782-3.943-1.94-3.822-2.608 0 0 0.364-1.637 0.517-2.213 0.151-0.576 0.542-1.897 3.183-1.303 1.526 0.344 2.349-0.084 2.77-0.191 1.143-0.294 2.406-0.091 3.104 0.626 0.722 0.743 1.717 3.035 2.194 4.749 0.243 0.87 0.178 1.288 0.057 1.582-0.088 0.2-0.14 0.327-0.44 0.837-0.052 0.091-0.010 0.188 0.106 0.129 0.793-0.407 0.971-0.945 1.096-1.365 2.153 0.485 3.43 1.605 3.154 3.12z"></path>
</svg>
