<?xml version="1.0" encoding="utf-8"?>
<!-- Generated by IcoMoon.io -->
<!DOCTYPE svg PUBLIC "-//W3C//DTD SVG 1.1//EN" "http://www.w3.org/Graphics/SVG/1.1/DTD/svg11.dtd">
<svg version="1.1" xmlns="http://www.w3.org/2000/svg" xmlns:xlink="http://www.w3.org/1999/xlink" width="32" height="32" viewBox="0 0 32 32">
<path fill="#444444" d="M22.624 11.916c0-0.58 0.002-1.129-0-1.677-0.002-0.545-0.24-0.784-0.791-0.784-4.983-0.001-9.965-0.001-14.947 0-0.537 0-0.772 0.236-0.772 0.768-0.001 1.566-0 3.132-0 4.698 0 0.090 0 0.181 0 0.289 0.338 0 0.655 0 0.999 0 0-1.581 0-3.151 0-4.731 4.849 0 9.67 0 14.52 0 0 0.486 0 0.957 0 1.437 0.338 0 0.647 0 0.992 0zM19.106 18.397c-3.301 0-6.585 0-9.878 0 0 0.662 0 1.306 0 1.957 3.302 0 6.585 0 9.878 0 0-0.66 0-1.306 0-1.957zM16.863 22.644c0.025-0.031 0.050-0.062 0.075-0.094-0.64-0.322-0.841-0.876-0.843-1.522-1.17 0-2.295 0-3.426 0-0.071 0.308-0.084 0.637-0.224 0.9-0.135 0.255-0.399 0.443-0.66 0.716 1.748 0 3.413 0 5.078 0zM27.343 22.017c-0.199 0.515-0.58 0.675-1.119 0.668-1.823-0.022-3.646-0.008-5.469-0.009-0.665-0-0.97-0.305-0.97-0.977-0.001-2.712-0.001-5.424-0-8.135 0-0.677 0.297-0.975 0.968-0.976 1.841-0.001 3.683 0.011 5.524-0.008 0.537-0.005 0.898 0.175 1.067 0.695 0 2.914 0 5.827 0 8.741zM26.778 21.024c0-2.589 0-5.147 0-7.707-2.163 0-4.303 0-6.45 0 0 2.579 0 5.143 0 7.707 2.162 0 4.301 0 6.45 0zM25.097 21.825c0.005-0.211-0.157-0.391-0.362-0.402-0.217-0.012-0.409 0.164-0.415 0.382-0.006 0.22 0.174 0.403 0.394 0.401 0.214-0.002 0.378-0.165 0.383-0.381zM22.787 21.82c0.002-0.221-0.18-0.401-0.399-0.397-0.203 0.004-0.379 0.183-0.383 0.388-0.004 0.217 0.18 0.399 0.401 0.395 0.208-0.004 0.38-0.177 0.381-0.386zM23.563 21.423c-0.204-0.007-0.388 0.163-0.398 0.369-0.011 0.223 0.158 0.408 0.379 0.414 0.213 0.006 0.386-0.155 0.397-0.367 0.011-0.223-0.158-0.408-0.378-0.416zM5.187 23.117c-0.404-0.121-0.533-0.393-0.529-0.809 0.016-1.904 0.006-3.809 0.007-5.713 0-0.498 0.192-0.701 0.695-0.705 0.833-0.008 1.666-0.007 2.5-0 0.483 0.004 0.689 0.214 0.689 0.689 0.002 1.941-0.004 3.882 0.005 5.823 0.002 0.38-0.18 0.59-0.508 0.715-0.953 0-1.906 0-2.859 0zM5.050 17.135c0 1.603 0 3.181 0 4.762 1.049 0 2.079 0 3.112 0 0-1.596 0-3.174 0-4.762-1.043 0-2.066 0-3.112 0zM22.624 11.916c-0.345 0-0.654 0-0.992 0 0-0.48 0-0.95 0-1.437-4.85 0-9.671 0-14.52 0 0 1.58 0 3.15 0 4.731-0.345 0-0.661 0-0.999 0 0-0.108 0-0.198 0-0.289 0-1.566-0-3.132 0-4.698 0-0.531 0.235-0.767 0.772-0.768 4.982-0.001 9.965-0.001 14.947 0 0.551 0 0.789 0.239 0.791 0.784 0.002 0.549 0 1.097 0 1.677zM19.106 18.397c0 0.651 0 1.297 0 1.957-3.293 0-6.577 0-9.878 0 0-0.651 0-1.295 0-1.957 3.294 0 6.577 0 9.878 0zM14.807 19.357c-0.006-0.248-0.216-0.439-0.468-0.427-0.24 0.012-0.424 0.21-0.417 0.45 0.006 0.234 0.209 0.434 0.44 0.435 0.242 0.001 0.451-0.214 0.446-0.458zM16.863 22.644c-1.665 0-3.331 0-5.078 0 0.261-0.273 0.525-0.46 0.66-0.716 0.139-0.263 0.153-0.592 0.224-0.9 1.132 0 2.256 0 3.426 0 0.001 0.646 0.203 1.2 0.843 1.522-0.025 0.031-0.050 0.062-0.075 0.094zM6.801 22.456c0 0.133-0.108 0.24-0.24 0.24s-0.24-0.108-0.24-0.24c0-0.133 0.108-0.24 0.24-0.24s0.24 0.108 0.24 0.24z"></path>
</svg>
