<?xml version="1.0" encoding="utf-8"?>
<!-- Generator: Adobe Illustrator 19.2.1, SVG Export Plug-In . SVG Version: 6.00 Build 0)  -->
<svg version="1.1" id="Layer_1" xmlns="http://www.w3.org/2000/svg" xmlns:xlink="http://www.w3.org/1999/xlink" x="0px" y="0px"
	 width="92px" height="92px" viewBox="0 0 92 92" enable-background="new 0 0 92 92" xml:space="preserve">
<path id="XMLID_223_" d="M82,32.3V72c0,2.2-1.8,4-4,4H19.1c-2.2,0-4-1.8-4-4s1.8-4,4-4H74V36H23.7l5.5,5.6c1.6,1.6,1.6,4.2,0,5.8
	c-0.8,0.8-1.8,1.2-2.8,1.2c-1,0-2-0.4-2.8-1.2L11.2,35.1c-0.8-0.8-1.2-1.8-1.2-2.8c0-1.1,0.4-2.1,1.2-2.8l12.4-12.3
	c1.6-1.6,4.1-1.6,5.7,0s1.5,4,0,5.6L23.7,28H78C80.2,28,82,30.1,82,32.3z"/>
</svg>
