<?xml version="1.0" encoding="utf-8"?>
<!-- Generator: Adobe Illustrator 19.2.1, SVG Export Plug-In . SVG Version: 6.00 Build 0)  -->
<svg version="1.1" id="Layer_1" xmlns="http://www.w3.org/2000/svg" xmlns:xlink="http://www.w3.org/1999/xlink" x="0px" y="0px"
	 width="92px" height="92px" viewBox="0 0 92 92" enable-background="new 0 0 92 92" xml:space="preserve">
<path id="XMLID_828_" d="M90.8,59.3L78.3,71.7c-0.8,0.8-1.8,1.2-2.8,1.2c-1,0-2.1-0.4-2.8-1.2L60,59.3c-1.6-1.6-1.6-4.1-0.1-5.6
	c1.6-1.6,4-1.6,5.5,0l5.5,5.7V33H35.9c-2.2,0-4-1.8-4-4s1.8-4,4-4h39.5c2.2,0,3.6,1.7,3.6,3.9v30.4l6-5.7c1.6-1.6,4.3-1.5,5.9,0
	C92.4,55.2,92.4,57.7,90.8,59.3z M56.1,65H21V38.5l5.5,5.7c0.8,0.8,1.7,1.2,2.7,1.2c1,0,2-0.4,2.8-1.2c1.6-1.6,1.5-4.1,0-5.6
	L19.4,26.1c-1.6-1.5-4.1-1.5-5.7,0L1.2,38.5c-1.6,1.6-1.6,4.1,0,5.6c1.6,1.6,4.3,1.6,5.9,0l6-5.7v30.4c0,2.2,1.3,4.1,3.6,4.1h39.5
	c2.2,0,4-1.8,4-4S58.3,65,56.1,65z"/>
</svg>
