<?xml version="1.0" encoding="utf-8"?>
<!-- Generated by IcoMoon.io -->
<!DOCTYPE svg PUBLIC "-//W3C//DTD SVG 1.1//EN" "http://www.w3.org/Graphics/SVG/1.1/DTD/svg11.dtd">
<svg version="1.1" xmlns="http://www.w3.org/2000/svg" xmlns:xlink="http://www.w3.org/1999/xlink" width="32" height="32" viewBox="0 0 32 32">
<path fill="#444444" d="M7.113 27.421h11.072c0 0-2.456-5.578-1.832-10.698s4.662-7.451 6.951-7.701c2.289-0.25 3.538 1.166 3.538 1.166l0.5-0.749c0 0-3.288-3.33-7.451-2.955s-7.035 3.122-8.824 6.452c-1.79 3.33-2.831 5.661-3.538 9.158s-0.416 5.328-0.416 5.328zM4.907 21.843l2.164 0.167-0.375 2.164-2.040-0.25 0.25-2.081zM8.32 17.264l0.583-1.623-1.915-0.749-0.624 1.748 1.956 0.624zM11.026 11.686l1.124-1.332-1.457-0.957-1.165 1.29 1.498 0.999zM13.981 6.525l0.999 1.207 1.374-0.791-0.999-1.124-1.374 0.708zM18.851 5.151l0.25 1.207 1.707-0.042-0.167-1.082-1.79-0.083zM24.637 6.441l-0.042 0.749 1.166 0.624 0.25-0.375-1.373-0.999zM24.387 9.647v0.624l1.124 0.125v-0.5l-1.124-0.25zM20.808 10.188l0.541 0.999 0.791-0.624-0.166-0.666-1.165 0.292zM19.101 11.478l0.832 1.249-0.499 0.874-1.207-1.332 0.874-0.791zM17.436 14.933l-0.541 1.082 1.415 1.207 0.333-1.374-1.207-0.916zM16.853 18.721l-0.083 1.457 1.748 0.749-0.083-1.374-1.582-0.833zM17.353 23.882l0.417 1.499 2.206 0.125-0.791-1.623h-1.832z"></path>
</svg>
