<?xml version="1.0" encoding="utf-8"?>
<!-- Generated by IcoMoon.io -->
<!DOCTYPE svg PUBLIC "-//W3C//DTD SVG 1.1//EN" "http://www.w3.org/Graphics/SVG/1.1/DTD/svg11.dtd">
<svg version="1.1" xmlns="http://www.w3.org/2000/svg" xmlns:xlink="http://www.w3.org/1999/xlink" width="32" height="32" viewBox="0 0 32 32">
<path fill="#444444" d="M16 6.243c-0.464 0-0.92 0.029-1.369 0.083-0.030-0.111-0.080-0.213-0.148-0.303 0.238-0.243 0.382-0.563 0.382-0.915 0-0.758-0.671-1.372-1.499-1.372s-1.499 0.614-1.499 1.372c0 0.607 0.431 1.122 1.029 1.303-0.008 0.047-0.013 0.096-0.013 0.145 0 0.041 0.004 0.080 0.009 0.12-4.728 1.35-8.189 5.702-8.189 10.863 0 6.239 5.057 11.296 11.296 11.296s11.296-5.057 11.296-11.296c-0-6.239-5.058-11.296-11.296-11.296zM12.223 5.108c0-0.578 0.512-1.046 1.143-1.046s1.143 0.468 1.143 1.046c0 0.263-0.106 0.502-0.28 0.686-0.133-0.080-0.289-0.127-0.456-0.127-0.325 0-0.608 0.175-0.764 0.435-0.456-0.137-0.786-0.53-0.786-0.994zM16 27.057c-5.257 0-9.518-4.261-9.518-9.518s4.261-9.518 9.518-9.518 9.518 4.261 9.518 9.518c0 5.256-4.261 9.518-9.518 9.518zM22.643 21.563l0.621 0.395c0.785-1.288 1.238-2.801 1.238-4.419 0-0.571-0.056-1.128-0.164-1.667l-0.673 0.15c-0.085 0.019-0.169-0.033-0.187-0.115s0.036-0.164 0.121-0.183l0.674-0.15c-0.498-2.103-1.776-3.905-3.513-5.081l-0.439 0.69c-0.046 0.072-0.141 0.094-0.212 0.049s-0.091-0.14-0.046-0.213l0.44-0.692c-1.306-0.818-2.85-1.291-4.504-1.291-0.544 0-1.076 0.052-1.591 0.149l0.175 0.787c0.019 0.084-0.033 0.167-0.115 0.186s-0.164-0.035-0.183-0.119l-0.176-0.791c-2.133 0.484-3.961 1.77-5.151 3.524l0.697 0.443c0.073 0.046 0.096 0.142 0.051 0.213s-0.141 0.091-0.214 0.044l-0.7-0.445c-0.82 1.308-1.295 2.854-1.295 4.511 0 0.567 0.056 1.12 0.162 1.655l0.811-0.181c0.085-0.019 0.168 0.032 0.187 0.115s-0.036 0.164-0.12 0.183l-0.813 0.181c0.503 2.139 1.814 3.966 3.593 5.142l0.498-0.783c0.046-0.072 0.141-0.094 0.212-0.049s0.091 0.14 0.045 0.213l-0.498 0.783c1.289 0.788 2.805 1.242 4.426 1.242 0.593 0 1.172-0.061 1.731-0.176l-0.179-0.802c-0.019-0.084 0.033-0.167 0.115-0.186s0.164 0.035 0.183 0.119l0.178 0.8c2.109-0.516 3.91-1.82 5.072-3.581l-0.621-0.395c-0.073-0.046-0.096-0.142-0.051-0.213s0.141-0.091 0.214-0.044zM12.579 15.153l1.553 0.566c0.223-0.229 0.489-0.418 0.784-0.553v-3.149l1.363 2.928c0.107 0.011 0.212 0.029 0.315 0.053l-0.228 0.214c-0.119-0.019-0.241-0.028-0.365-0.028-1.3 0-2.354 1.054-2.354 2.354 0 0.268 0.046 0.526 0.128 0.766l-0.165 0.275c-0.001-0.003-0.002-0.006-0.004-0.008h-3.109l2.917-1.358c0.041-0.333 0.145-0.646 0.299-0.928l-1.133-1.133zM10.902 23.754l4.192-6.968 5.874-5.509-4.192 6.968-0.030 0.028-5.844 5.481zM19.561 19.747l-1.522-0.582c-0.204 0.255-0.454 0.471-0.739 0.635l0.039-0.006-0.051 3.25-1.294-2.896c-0.224-0-0.442-0.030-0.65-0.083l0.225-0.211c0.139 0.026 0.283 0.040 0.43 0.040 1.3 0 2.354-1.054 2.354-2.354 0-0.363-0.082-0.707-0.229-1.014l0.153-0.255c0.003 0.005 0.006 0.010 0.009 0.015l3.183 0.050-2.864 1.279c-0.009 0.332-0.080 0.649-0.202 0.939l1.157 1.194zM15.973 16.81c-0.402 0.018-0.713 0.358-0.695 0.76s0.358 0.713 0.76 0.695c0.402-0.018 0.713-0.358 0.695-0.76s-0.358-0.713-0.76-0.695z"></path>
</svg>
