<?xml version="1.0" encoding="utf-8"?>
<!-- Generated by IcoMoon.io -->
<!DOCTYPE svg PUBLIC "-//W3C//DTD SVG 1.1//EN" "http://www.w3.org/Graphics/SVG/1.1/DTD/svg11.dtd">
<svg version="1.1" xmlns="http://www.w3.org/2000/svg" xmlns:xlink="http://www.w3.org/1999/xlink" width="32" height="32" viewBox="0 0 32 32">
<path fill="#444444" d="M31.641 21.161c-0.109-0.911-0.578-1.618-1.286-2.172-0.82-0.641-1.78-0.905-2.803-0.947-0.834-0.034-1.65 0.090-2.437 0.376-0.224 0.081-0.444 0.177-0.67 0.268-0.030-0.055-0.062-0.107-0.088-0.162-0.232-0.474-0.512-0.927-0.573-1.47-0.044-0.386-0.098-0.772-0.006-1.153 0.088-0.367 0.204-0.728 0.312-1.091 0.056-0.187 0.017-0.291-0.161-0.375-0.062-0.029-0.129-0.055-0.197-0.065-0.438-0.063-0.869-0.027-1.293 0.096-0.15 0.044-0.259 0.128-0.292 0.294-0.019 0.095-0.058 0.186-0.084 0.28-0.111 0.391-0.189 0.789-0.368 1.161-0.449 0.934-0.96 1.832-1.485 2.724-0.057 0.096-0.116 0.191-0.188 0.308-0.184-0.385-0.38-0.73-0.44-1.136-0.067-0.458-0.12-0.915-0.006-1.37 0.085-0.339 0.196-0.672 0.298-1.006 0.049-0.159 0.026-0.242-0.118-0.326-0.073-0.042-0.155-0.080-0.237-0.092-0.454-0.067-0.901-0.032-1.338 0.11-0.136 0.044-0.207 0.132-0.249 0.272-0.122 0.413-0.226 0.836-0.397 1.229-0.694 1.59-1.407 3.172-2.12 4.753-0.149 0.33-0.323 0.649-0.491 0.97-0.043 0.082-0.104 0.153-0.157 0.23-0.043-0.050-0.059-0.085-0.059-0.119 0.001-0.203-0.023-0.413 0.016-0.609 0.117-0.594 0.252-1.186 0.395-1.775 0.117-0.486 0.254-0.968 0.385-1.452 0.044-0.162 0.045-0.313-0.072-0.449-0.195-0.228-0.603-0.278-0.845-0.102-0.026 0.019-0.057 0.032-0.107 0.061 0.009-0.077 0.014-0.125 0.021-0.173 0.051-0.37 0.061-0.738-0.040-1.103-0.127-0.454-0.45-0.715-0.921-0.701-0.22 0.007-0.45 0.044-0.653 0.124-0.855 0.335-1.512 0.928-2.071 1.642-0.051 0.065-0.118 0.124-0.189 0.163-0.723 0.401-1.449 0.797-2.174 1.195-0.271 0.148-0.542 0.297-0.807 0.442-0.216-0.207-0.413-0.421-0.637-0.603-0.682-0.556-1.375-1.098-2.061-1.648-0.608-0.487-1.198-0.995-1.649-1.64-0.336-0.48-0.552-1.005-0.572-1.599-0.026-0.756 0.188-1.447 0.573-2.091 0.493-0.823 1.164-1.483 1.903-2.082 0.781-0.633 1.626-1.17 2.502-1.66 1.225-0.686 2.486-1.293 3.837-1.694 1.386-0.411 2.791-0.646 4.241-0.482 0.57 0.064 1.123 0.195 1.632 0.474 0.389 0.213 0.708 0.492 0.857 0.929 0.146 0.43 0.142 0.865 0.040 1.301-0.206 0.883-0.69 1.612-1.299 2.263-0.998 1.067-2.216 1.793-3.588 2.273-0.791 0.277-1.605 0.451-2.441 0.521-0.682 0.057-1.35-0.003-1.996-0.241-0.428-0.157-0.8-0.398-1.1-0.747-0.054-0.063-0.122-0.13-0.222-0.072-0.098 0.057-0.115 0.151-0.082 0.245 0.055 0.157 0.105 0.319 0.191 0.459 0.214 0.351 0.527 0.606 0.871 0.825 0.661 0.42 1.399 0.561 2.165 0.594 1.162 0.050 2.296-0.123 3.413-0.435 1.596-0.445 2.983-1.231 4.096-2.471 0.927-1.032 1.588-2.198 1.73-3.605 0.069-0.687-0.004-1.36-0.326-1.986-0.349-0.679-0.903-1.147-1.566-1.494-0.964-0.506-2.006-0.705-3.081-0.763-0.359-0-0.718-0-1.077-0-1.303 0.063-2.562 0.337-3.786 0.782-0.926 0.337-1.835 0.717-2.717 1.157-1.921 0.96-3.71 2.108-5.179 3.699-0.732 0.793-1.352 1.663-1.708 2.693-0.104 0.302-0.168 0.622-0.243 0.934-0.006 0.026 0.023 0.051-0.041 0.077 0 0.147 0 0.293 0 0.44 0.064 0.113 0.071 0.225 0.1 0.338 0.189 0.733 0.578 1.363 1.060 1.937 0.687 0.818 1.518 1.476 2.38 2.096 0.747 0.537 1.505 1.062 2.255 1.595 0.129 0.091 0.248 0.197 0.388 0.309-0.12 0.065-0.221 0.122-0.325 0.175-0.99 0.502-1.942 1.065-2.82 1.747-0.529 0.411-1.041 0.848-1.402 1.418-0.581 0.918-0.787 1.896-0.354 2.94 0.127 0.305 0.32 0.569 0.592 0.763 0.088 0.063 0.187 0.126 0.29 0.15 0.264 0.062 0.534 0.103 0.802 0.152 0.253-0 0.505-0 0.758-0 0.839-0.075 1.602-0.362 2.291-0.838 1.078-0.744 1.804-1.741 2.117-3.022 0.227-0.93 0.236-1.862-0.031-2.788-0.025-0.086-0.056-0.17-0.089-0.253s-0.071-0.164-0.116-0.268c0.572-0.329 1.146-0.659 1.719-0.989 0.009 0.007 0.017 0.015 0.026 0.022-0.031 0.102-0.064 0.204-0.093 0.308-0.204 0.746-0.34 1.505-0.291 2.279 0.052 0.825 0.282 1.597 0.765 2.287 0.39 0.558 1.321 0.578 1.736 0.019 0.147-0.199 0.29-0.406 0.397-0.628 0.28-0.579 0.54-1.168 0.807-1.753 0.012-0.025 0.022-0.050 0.047-0.107-0.019 0.277-0.042 0.52-0.052 0.764-0.016 0.38 0.006 0.758 0.136 1.12 0.111 0.31 0.3 0.541 0.655 0.581 0.242 0.028 0.436-0.083 0.614-0.224 0.279-0.22 0.505-0.491 0.673-0.8 0.475-0.873 0.963-1.74 1.394-2.635 0.466-0.968 0.873-1.964 1.306-2.948 0.024-0.054 0.045-0.109 0.072-0.175 0.102 0.402 0.174 0.795 0.305 1.168 0.152 0.432 0.341 0.854 0.547 1.264 0.097 0.194 0.086 0.32-0.049 0.482-0.564 0.68-1.118 1.368-1.673 2.056-0.123 0.152-0.245 0.306-0.347 0.472-0.062 0.101-0.103 0.223-0.12 0.341-0.033 0.225 0.105 0.441 0.346 0.493 0.219 0.047 0.453 0.065 0.677 0.048 0.774-0.057 1.477-0.329 2.099-0.789 0.805-0.597 1.064-1.41 0.869-2.375-0.053-0.262-0.146-0.517-0.237-0.769-0.041-0.114-0.043-0.194 0.031-0.3 0.644-0.919 1.194-1.895 1.705-2.892 0.020-0.039 0.041-0.079 0.076-0.121 0.166 0.863 0.415 1.694 0.862 2.448-0.228 0.22-0.454 0.419-0.658 0.639-0.45 0.483-0.84 1.009-1.043 1.649-0.087 0.276-0.155 0.556-0.116 0.852 0.061 0.458 0.436 0.755 0.886 0.651 0.963-0.223 1.795-0.677 2.403-1.481 0.409-0.541 0.446-1.145 0.275-1.778-0.047-0.172-0.103-0.341-0.163-0.539 0.238-0.074 0.47-0.162 0.709-0.217 1.245-0.284 2.476-0.234 3.675 0.215 0.7 0.262 1.266 0.702 1.601 1.393 0.41 0.845 0.183 1.646-0.613 2.18-0.074 0.050-0.159 0.089-0.221 0.151-0.038 0.038-0.060 0.115-0.051 0.167 0.005 0.031 0.087 0.069 0.133 0.069 0.262-0.002 0.474-0.139 0.678-0.28 0.511-0.353 0.848-0.829 0.928-1.454 0.002-0.018-0.024-0.035 0.040-0.052 0-0.139 0-0.277 0-0.416-0.064-0.017-0.037-0.034-0.039-0.052zM7.286 22.851c-0.083 1.115-0.588 2.019-1.414 2.75-0.465 0.412-0.997 0.705-1.618 0.808-0.225 0.037-0.455 0.046-0.674-0.047-0.311-0.133-0.381-0.409-0.387-0.704-0.009-0.469 0.155-0.893 0.38-1.296 0.294-0.526 0.725-0.927 1.185-1.301 0.725-0.59 1.512-1.090 2.317-1.561 0.013-0.008 0.029-0.012 0.061-0.025 0.124 0.46 0.184 0.914 0.149 1.377zM13.576 18.006c-0.059 0.356-0.132 0.712-0.236 1.057-0.36 1.194-0.821 2.352-1.32 3.493-0.092 0.211-0.226 0.404-0.343 0.604-0.018 0.031-0.045 0.058-0.071 0.084-0.144 0.143-0.282 0.135-0.355-0.052-0.085-0.217-0.137-0.449-0.182-0.679-0.030-0.154-0.023-0.316-0.032-0.474 0.010-1.123 0.352-2.145 0.934-3.095 0.24-0.392 0.501-0.765 0.899-1.014 0.123-0.076 0.26-0.137 0.399-0.177 0.212-0.060 0.343 0.039 0.308 0.252zM17.867 23.473c0.514-0.6 1.027-1.199 1.542-1.801 0.064 0.669-1.072 2.004-1.542 1.801zM22.793 22.262c-0.109 0.062-0.228 0.108-0.34 0.165-0.102 0.053-0.136-0-0.139-0.088-0.002-0.060 0.007-0.122 0.023-0.18 0.208-0.735 0.591-1.361 1.162-1.871 0.008-0.008 0.021-0.011 0.040-0.021 0.271 0.758-0.042 1.592-0.747 1.995z"></path>
</svg>
