<?xml version="1.0" encoding="utf-8"?>
<!-- Generated by IcoMoon.io -->
<!DOCTYPE svg PUBLIC "-//W3C//DTD SVG 1.1//EN" "http://www.w3.org/Graphics/SVG/1.1/DTD/svg11.dtd">
<svg version="1.1" xmlns="http://www.w3.org/2000/svg" xmlns:xlink="http://www.w3.org/1999/xlink" width="32" height="32" viewBox="0 0 32 32">
<path fill="#444444" d="M20.649 21.349c0.064 0.004 0.133 0.012 0.202 0.012 0.977 0.001 1.955-0.005 2.932 0.005 0.214 0.002 0.278-0.071 0.267-0.276-0.014-0.267-0.003-0.535-0.003-0.865 1.109 0.816 2.181 1.604 3.281 2.414-1.092 0.804-2.164 1.593-3.281 2.416 0-0.311 0-0.568-0-0.825-0-0.332-0-0.333-0.323-0.333-6.247 0-12.495 0-18.742 0-0.302 0-0.302-0-0.302-0.304 0-0.659 0.009-1.318-0.005-1.976-0.005-0.214 0.064-0.262 0.269-0.261 3.359 0.006 6.718 0.011 10.077 0.002 1.722-0.005 3.081-0.718 3.98-2.202 1.622-2.68-0.069-6.19-3.177-6.642-2.4-0.349-4.631 1.262-5.038 3.703-0.043 0.254-0.046 0.515-0.071 0.821 0.393-0.053 0.749-0.102 1.152-0.156-0.631 1.22-1.24 2.398-1.858 3.592-0.947-0.976-1.88-1.937-2.792-2.877 0.229-0.038 0.533-0.082 0.834-0.145 0.057-0.012 0.141-0.104 0.139-0.157-0.017-0.639 0.027-1.271 0.152-1.898 0.004-0.019-0.005-0.041-0.011-0.078-0.61-0.104-1.176-0.324-1.689-0.678-1.254-0.868-1.91-2.483-1.602-3.955 0.335-1.604 1.545-2.803 3.109-3.099 1.014-0.191 1.954-0.009 2.827 0.527 0.154 0.095 0.248 0.109 0.349-0.056 0.059-0.097 0.148-0.175 0.25-0.293 0.127 0.512 0.246 0.991 0.364 1.47 0.040 0.161 0.071 0.325 0.118 0.484 0.051 0.172-0.001 0.249-0.183 0.237-0.526-0.036-1.053-0.068-1.579-0.103-0.13-0.009-0.259-0.023-0.426-0.039 0.13-0.164 0.248-0.311 0.377-0.472-0.284-0.216-0.597-0.324-0.923-0.377-1.576-0.258-2.965 0.953-2.933 2.548 0.024 1.224 1.056 2.318 2.275 2.422 0.158 0.013 0.213-0.067 0.274-0.185 0.864-1.658 2.165-2.83 3.935-3.44 4.095-1.412 8.37 1.118 9.159 5.259 0.389 2.039-0.054 3.901-1.291 5.57-0.034 0.046-0.065 0.095-0.095 0.144-0.006 0.009 0.002 0.027 0.007 0.065z"></path>
</svg>
