<?xml version="1.0" encoding="utf-8"?>
<!-- Generated by IcoMoon.io -->
<!DOCTYPE svg PUBLIC "-//W3C//DTD SVG 1.1//EN" "http://www.w3.org/Graphics/SVG/1.1/DTD/svg11.dtd">
<svg version="1.1" xmlns="http://www.w3.org/2000/svg" xmlns:xlink="http://www.w3.org/1999/xlink" width="32" height="32" viewBox="0 0 32 32">
<path fill="#444444" d="M13.986 3.551l-0.001 0-0 0.001 0.001-0zM14.014 3.531c-0.003-0.007-0.022 0.006-0.028 0.020 0.011-0.005 0.041 0.012 0.028-0.020zM10.853 18.825c-0.009-0.007-0.018-0.015-0.026-0.022 0.003 0.014 0.011 0.022 0.026 0.022zM18.101 28.942c-0 0-0 0-0 0-0.031-0.006-0.050 0.019-0.076 0.029-0.028 0.014-0.066 0.019-0.078 0.071 0.036-0.012 0.062-0.015 0.077-0.040 0.042-0.010 0.082-0.025 0.113-0.057 0.014-0.002 0.026-0.007 0.030-0.022-0.004-0.005-0.008-0.010-0.013-0.014-0.023 0.003-0.043 0.011-0.054 0.034zM24.418 20.65c0.013-0.342-0.003-0.683-0.047-1.023-0-0.009-0.001-0.019-0.002-0.028 0.004-0.060 0.004-0.12-0.021-0.176v0c0-0-0-0-0-0-0.001-0.015-0.003-0.029-0.004-0.043-0-0.122-0.019-0.241-0.053-0.357 0.005-0.085-0.021-0.164-0.041-0.245-0.014-0.104-0.032-0.207-0.070-0.305 0.003-0.033 0.002-0.065-0.023-0.091 0.005-0.007 0.003-0.014-0.004-0.018 0.002-0.032 0.002-0.064-0.024-0.089 0.004-0.008 0.003-0.015-0.004-0.021-0.040-0.209-0.103-0.41-0.186-0.606-0.036-0.154-0.094-0.299-0.166-0.439-0.001-0.025-0.006-0.049-0.027-0.066v0c0.004-0.007 0.002-0.012-0.005-0.015-0.039-0.126-0.094-0.245-0.162-0.358 0.001-0.023-0.006-0.044-0.027-0.056-0.073-0.184-0.167-0.356-0.276-0.521-0.001-0.023-0.011-0.041-0.030-0.053 0.001-0.016-0.006-0.027-0.021-0.033-0.003-0.022-0.010-0.041-0.031-0.052-0.106-0.206-0.235-0.397-0.378-0.578-0.111-0.177-0.24-0.341-0.381-0.495v0c-0.225-0.289-0.475-0.554-0.751-0.795-0.213-0.212-0.44-0.408-0.688-0.577-0.028-0.039-0.067-0.064-0.11-0.082-0.020-0.030-0.047-0.048-0.082-0.057-0.005-0.015-0.015-0.022-0.030-0.023l-0.001-0.001c-0.011-0.021-0.028-0.031-0.050-0.034 0-0 0-0.001 0-0.001-0.282-0.212-0.582-0.393-0.9-0.547-0.033-0.032-0.074-0.048-0.117-0.061 0-0 0-0 0-0-0.012-0.017-0.029-0.021-0.048-0.022-0.037-0.037-0.086-0.052-0.13-0.074-0.298-0.15-0.596-0.299-0.895-0.447-0.11-0.055-0.213-0.125-0.332-0.161-0.035-0.038-0.085-0.052-0.129-0.074-0.758-0.38-1.516-0.758-2.274-1.136-0.15-0.075-0.294-0.164-0.453-0.221-0.158-0.101-0.331-0.173-0.497-0.257-0.163-0.082-0.321-0.173-0.492-0.238-0.039-0.040-0.092-0.056-0.141-0.079-0.22-0.108-0.436-0.222-0.637-0.364-0.088-0.063-0.175-0.128-0.263-0.192-0 0-0 0.001-0 0.001-0.004-0.016-0.014-0.024-0.030-0.027-0.004-0.015-0.014-0.024-0.029-0.028-0.221-0.212-0.424-0.439-0.604-0.686-0-0.014-0.005-0.024-0.018-0.029-0.006-0.012-0.010-0.026-0.017-0.037-0.46-0.718-0.656-1.5-0.573-2.35 0.055-0.555 0.229-1.069 0.52-1.545 0.259-0.423 0.595-0.774 0.993-1.068 0.052-0.028 0.107-0.053 0.142-0.105h-0c0.025 0.001 0.045-0.007 0.059-0.029 0-0 0-0 0-0 0.053-0.012 0.104-0.028 0.13-0.083-0.064 0.009-0.117 0.040-0.166 0.080-0.014 0.004-0.025 0.010-0.027 0.026v0c-0.065 0.010-0.118 0.043-0.169 0.081-0.428 0.217-0.856 0.434-1.285 0.65-0.812 0.409-1.543 0.93-2.19 1.568-0.704 0.694-1.272 1.486-1.705 2.375-0.519 1.064-0.793 2.189-0.853 3.368-0.024 0.476-0.004 0.952 0.056 1.425 0.018 0.144 0.023 0.291 0.074 0.43-0.001 0.104 0.022 0.204 0.056 0.302 0.002 0.009 0.003 0.019 0.005 0.028-0.004 0.032-0.001 0.062 0.021 0.088 0.003 0.016 0.005 0.033 0.008 0.049-0.004 0.024-0.001 0.046 0.018 0.064 0 0 0 0 0 0 0.034 0.206 0.090 0.406 0.166 0.6-0.003 0.009-0.002 0.016 0.005 0.023-0.003 0.024 0.002 0.046 0.022 0.062 0 0 0 0 0 0-0.003 0.008-0.002 0.015 0.005 0.020-0.003 0.024 0.003 0.046 0.023 0.062 0.021 0.106 0.057 0.207 0.109 0.302 0.048 0.161 0.109 0.316 0.192 0.462 0.001 0.024 0.006 0.047 0.028 0.062-0.002 0.008-0 0.015 0.007 0.019-0.001 0.017 0.006 0.029 0.020 0.037-0.003 0.008-0.001 0.014 0.007 0.018-0.002 0.022 0.006 0.040 0.025 0.053l0.001 0.001c-0.001 0.023 0.008 0.041 0.027 0.054l0.001 0.001c-0.001 0.023 0.008 0.041 0.027 0.054l0.001 0.001c-0.001 0.023 0.008 0.040 0.027 0.053 0.028 0.092 0.078 0.173 0.133 0.251h0c0.001 0.023 0.009 0.042 0.029 0.054 0.001 0.023 0.011 0.040 0.030 0.052l0.001 0.001c-0 0.018 0.008 0.030 0.023 0.038 0.037 0.098 0.095 0.184 0.158 0.267 0.116 0.202 0.244 0.396 0.394 0.575 0.002 0.015 0.009 0.026 0.024 0.031 0.003 0.021 0.014 0.037 0.034 0.046 0 0 0 0 0 0 0.106 0.157 0.224 0.303 0.357 0.438l0.004 0.005c0.001 0.015 0.009 0.022 0.023 0.025l0.002 0.003c0.001 0.015 0.009 0.025 0.024 0.028l0.001 0.001c0.002 0.015 0.011 0.025 0.027 0.028l0 0c0.003 0.015 0.011 0.025 0.025 0.029 0.003 0.016 0.012 0.026 0.028 0.030 0.093 0.115 0.19 0.227 0.306 0.321 0.193 0.203 0.397 0.393 0.624 0.557l0.001-0c0.004 0.016 0.015 0.024 0.031 0.026 0.004 0.015 0.014 0.023 0.029 0.024-0.010-0.008-0.019-0.016-0.029-0.024-0-0-0-0-0-0 0.012 0.006 0.020 0.015 0.029 0.024l0.002 0.001c0.008 0.009 0.016 0.016 0.026 0.022l0.005 0.004c0.009 0.019 0.024 0.031 0.044 0.035 0.005 0.015 0.016 0.022 0.030 0.024 0.004 0.015 0.013 0.023 0.029 0.024-0.009-0.008-0.019-0.016-0.029-0.024 0.010 0.007 0.020 0.015 0.029 0.024l0.003 0.002c0.003 0.012 0.009 0.020 0.023 0.019-0 0-0 0-0-0s0 0 0 0c0.004 0.009 0.010 0.013 0.020 0.013 0.006 0.016 0.018 0.024 0.035 0.026 0.004 0.015 0.014 0.022 0.029 0.023l0.003 0.002c0.003 0.012 0.009 0.020 0.023 0.019 0.104 0.086 0.211 0.166 0.331 0.228l0.002 0.001c0.010 0.021 0.028 0.030 0.050 0.032 0.005 0.015 0.016 0.021 0.031 0.021l0.002 0.001c0.010 0.021 0.028 0.029 0.050 0.032 0.005 0.015 0.016 0.021 0.031 0.021l0.004 0.002c0.011 0.019 0.028 0.029 0.050 0.031l-0-0c0.338 0.229 0.701 0.409 1.072 0.576 0.013 0.021 0.033 0.028 0.056 0.028 0.25 0.141 0.507 0.27 0.771 0.383 0.023 0.031 0.060 0.040 0.092 0.056 0.223 0.114 0.447 0.228 0.671 0.34 0.285 0.142 0.572 0.282 0.858 0.423 0.005 0.007 0.012 0.010 0.021 0.008 0.006 0.014 0.017 0.021 0.032 0.019 0.006 0.007 0.013 0.010 0.023 0.008 0.006 0.014 0.017 0.021 0.032 0.019 0.189 0.102 0.377 0.204 0.576 0.285 0.15 0.093 0.31 0.166 0.47 0.238 0.005 0.007 0.012 0.010 0.020 0.008 0.006 0.014 0.017 0.021 0.032 0.019 0.006 0.008 0.013 0.010 0.022 0.008 0.006 0.014 0.017 0.020 0.032 0.019 0.114 0.065 0.229 0.13 0.354 0.174 0-0 0-0 0-0 0.005 0.015 0.015 0.021 0.030 0.019 0.143 0.081 0.287 0.162 0.441 0.222l0.007 0.007 0.010-0c0.008 0.015 0.021 0.022 0.037 0.020 0.124 0.074 0.252 0.14 0.386 0.193l0.006 0.007 0.010-0.001c0.008 0.015 0.021 0.022 0.037 0.020 0.12 0.064 0.239 0.127 0.359 0.191v0c0.003 0.008 0.009 0.011 0.017 0.008 0.007 0.016 0.020 0.023 0.037 0.024v0c0.109 0.077 0.218 0.154 0.327 0.23 0.111 0.097 0.222 0.195 0.333 0.292v0c0.099 0.113 0.199 0.226 0.298 0.339 0.074 0.107 0.149 0.214 0.223 0.321 0.001 0.022 0.010 0.040 0.030 0.051l0.001 0.002c-0 0.015 0.005 0.027 0.020 0.032 0.003 0.022 0.009 0.041 0.030 0.053 0.001 0.023 0.009 0.043 0.030 0.055v0c0 0.022 0.010 0.039 0.029 0.051 0.027 0.080 0.059 0.157 0.107 0.226 0.055 0.156 0.11 0.311 0.165 0.467 0.022 0.12 0.045 0.241 0.081 0.358 0.002 0.017 0.004 0.033 0.006 0.050-0.005 0.049-0 0.098 0.020 0.143 0 0.001 0.001 0.003 0.001 0.004 0.014 0.262 0.019 0.524 0.006 0.787-0.038 0.269-0.097 0.535-0.168 0.797-0.103 0.264-0.224 0.52-0.361 0.768-0.139 0.196-0.284 0.388-0.439 0.572-0.177 0.163-0.351 0.331-0.546 0.474-0.052 0.018-0.091 0.056-0.136 0.086-0.025 0.010-0.050 0.019-0.063 0.045 0.004 0.005 0.009 0.009 0.013 0.014 0.019-0.002 0.039-0.003 0.050-0.023 0.058-0.025 0.117-0.050 0.166-0.091 0.197-0.095 0.396-0.185 0.581-0.302-0 0-0 0-0-0s0 0 0 0c0.009 0.003 0.016 0 0.021-0.008 0.016 0.002 0.028-0.004 0.035-0.020 0.042-0.007 0.079-0.024 0.109-0.055l0.013 0 0.009-0.009c0.016 0.002 0.027-0.004 0.033-0.019 0.010 0.003 0.017-0.001 0.022-0.010 0.015 0.002 0.025-0.004 0.028-0.019 0.023-0 0.043-0.005 0.054-0.028l0.001-0c0.023 0 0.043-0.005 0.054-0.027h0c0.023 0 0.043-0.005 0.055-0.027l0-0c0.023 0 0.044-0.005 0.056-0.027v0c0.282-0.129 0.559-0.268 0.817-0.442l0.005-0.003c0.016 0.001 0.026-0.006 0.030-0.021 0.022-0.001 0.041-0.007 0.051-0.030l0.002-0.001c0.017-0 0.030-0.007 0.037-0.023v0c0.009 0.002 0.015-0.001 0.018-0.010 0.016 0.002 0.024-0.006 0.027-0.020l0.001-0c0.022 0 0.038-0.010 0.048-0.030l0.006-0.003c0.016 0.002 0.026-0.006 0.029-0.021 0.022-0 0.037-0.012 0.047-0.030 0.035-0.020 0.072-0.038 0.105-0.061 0.575-0.395 1.096-0.851 1.559-1.372 0.245-0.276 0.481-0.561 0.677-0.876 0.021-0.009 0.030-0.027 0.033-0.049 0.015-0.005 0.022-0.016 0.021-0.032l0.001-0.001c0.021-0.010 0.030-0.028 0.033-0.049 0.015-0.005 0.022-0.016 0.021-0.032l0.001-0.001c0.021-0.010 0.029-0.029 0.031-0.051 0.015-0.005 0.022-0.015 0.021-0.031l0.002-0.003c0.021-0.010 0.029-0.028 0.030-0.050 0.023-0.009 0.029-0.029 0.032-0.051 0.015-0.005 0.021-0.017 0.020-0.033l0.001-0.001c0.076-0.091 0.127-0.198 0.183-0.301 0.126-0.23 0.254-0.459 0.342-0.709 0.023-0.014 0.027-0.037 0.027-0.061 0.094-0.182 0.167-0.373 0.221-0.57 0.072-0.169 0.13-0.343 0.163-0.525 0.024-0.025 0.028-0.055 0.024-0.087 0.008-0.006 0.009-0.013 0.005-0.021 0.067-0.197 0.114-0.399 0.136-0.606 0.026-0.034 0.027-0.073 0.023-0.114 0.002-0.015 0.004-0.030 0.006-0.046 0.004-0.012 0.006-0.022 0.006-0.031 0.045-0.199 0.071-0.401 0.075-0.605 0.034-0.128 0.029-0.258 0.026-0.389 0.031-0.071 0.014-0.145 0.016-0.216z"></path>
</svg>
