<?xml version="1.0" encoding="utf-8"?>
<!-- Generator: Adobe Illustrator 19.2.1, SVG Export Plug-In . SVG Version: 6.00 Build 0)  -->
<svg version="1.1" id="Layer_1" xmlns="http://www.w3.org/2000/svg" xmlns:xlink="http://www.w3.org/1999/xlink" x="0px" y="0px"
	 width="92px" height="92px" viewBox="0 0 92 92" enable-background="new 0 0 92 92" xml:space="preserve">
<path id="XMLID_1746_" d="M79.8,25.2C79.1,24.5,78.1,24,77,24H67v-1.8C67,10.5,57.4,1,46.2,1h-0.4C34.6,1,25,10.5,25,22.2V24H15
	c-2.2,0-4,1.9-4,4.2V87c0,2.2,1.8,4,4,4h62c2.2,0,4-1.8,4-4l0-58.9C81,27.1,80.6,26,79.8,25.2z M33,22.2C33,14.9,39,9,45.8,9h0.4
	C53,9,59,14.9,59,22.2V24H33V22.2z M73,83H19V32h6v6.9c0,2.2,1.8,4,4,4s4-1.8,4-4V32h26v6.9c0,2.2,1.8,4,4,4s4-1.8,4-4V32h6L73,83z"
	/>
</svg>
