<?xml version="1.0" encoding="utf-8"?>
<!-- Generated by IcoMoon.io -->
<!DOCTYPE svg PUBLIC "-//W3C//DTD SVG 1.1//EN" "http://www.w3.org/Graphics/SVG/1.1/DTD/svg11.dtd">
<svg version="1.1" xmlns="http://www.w3.org/2000/svg" xmlns:xlink="http://www.w3.org/1999/xlink" width="32" height="32" viewBox="0 0 32 32">
<path fill="#444444" d="M16.459 14.507l0.232-0.883c0.372-1.41 0.434-1.41 1.891-0.108 0.713 0.636 2.077 1.844 3.038 2.681 1.131 1.008 1.689 1.596 1.581 1.705-0.139 0.139-8.586 5.037-8.617 4.99-0.016 0 0.046-0.434 0.139-0.961 0.264-1.566 1.010-1.395-4.321-1.395l-5.025-0.063v0.45c0 0.682 0.837 1.302 3.239 2.449l2.108 0.992-0.372 0.31c-0.217 0.171-0.589 0.357-0.821 0.403-1.844 0.372 1.503 0.697 6.463 0.635l4.030-0.046 1.689-0.837c1.457-0.698 1.875-1.007 2.96-2.092 1.395-1.395 2.247-2.836 2.557-4.37 0.109-0.496 0.155-1.689 0.124-2.759-0.046-1.782-0.078-1.937-0.573-2.96-1.271-2.573-3.72-3.968-7.904-4.479-1.844-0.232-2.805-0.496-3.689-1.023l-0.511-0.294v0.418c0.016 0.232 0.109 0.589 0.232 0.806 0.325 0.558 0.294 0.62-0.264 0.62-0.279 0-0.821 0.155-1.209 0.325-1.069 0.48-2.092 0.636-3.146 0.45-0.496-0.093-1.007-0.217-1.131-0.264s-0.217 0-0.217 0.093c0 0.31 0.636 1.534 0.992 1.922l0.357 0.387-0.527 0.078c-0.279 0.046-1.131 0.434-1.875 0.868-1.519 0.852-2.046 1.023-2.774 0.806-0.604-0.17-0.604-0.155-0.17 0.62l0.341 0.604z"></path>
</svg>
