<?xml version="1.0" encoding="utf-8"?>
<!-- Generator: Adobe Illustrator 19.2.1, SVG Export Plug-In . SVG Version: 6.00 Build 0)  -->
<svg version="1.1" id="Layer_1" xmlns="http://www.w3.org/2000/svg" xmlns:xlink="http://www.w3.org/1999/xlink" x="0px" y="0px"
	 width="92px" height="92px" viewBox="0 0 92 92" enable-background="new 0 0 92 92" xml:space="preserve">
<path id="XMLID_1543_" d="M82.9,58.1L65.1,75.9c-0.9,0.9-2,1.3-3.2,1.3c-1.1,0-2.3-0.4-3.2-1.3c-1.7-1.7-1.8-4.6,0-6.3l10.2-10.2
	l-56.9,0c-1.2,0-2.5-0.5-3.3-1.3C7.8,57.3,7,56.1,7,55V32.2c0-2.5,2-4.5,4.5-4.5s4.5,2,4.5,4.5v18.3l52.6,0l-9.9-10.2
	c-1.7-1.7-1.7-4.6,0-6.3c1.7-1.7,4.6-1.7,6.3,0l17.8,17.8C84.7,53.6,84.7,56.4,82.9,58.1z M12.2,24.2c1.3,0,2.6-0.5,3.5-1.4
	c0.9-0.9,1.5-2.2,1.5-3.5c0-1.3-0.5-2.6-1.5-3.5c-0.9-0.9-2.2-1.4-3.5-1.4c-1.3,0-2.6,0.5-3.5,1.4c-0.9,0.9-1.5,2.2-1.5,3.5
	c0,1.3,0.5,2.6,1.5,3.5C9.6,23.6,10.9,24.2,12.2,24.2z"/>
</svg>
