<?xml version="1.0" encoding="utf-8"?>
<!-- Generated by IcoMoon.io -->
<!DOCTYPE svg PUBLIC "-//W3C//DTD SVG 1.1//EN" "http://www.w3.org/Graphics/SVG/1.1/DTD/svg11.dtd">
<svg version="1.1" xmlns="http://www.w3.org/2000/svg" xmlns:xlink="http://www.w3.org/1999/xlink" width="34" height="32" viewBox="0 0 34 32">
<path fill="rgb(0, 0, 0)" d="M26.588 15.625c0.53 0.138 1.059 0.276 1.751 0.456-0.34-0.655-0.596-1.212-0.911-1.732-0.195-0.321-0.159-0.526 0.088-0.793 0.461-0.498 0.883-1.032 1.321-1.551-0.021-0.043-0.043-0.086-0.064-0.129-0.539 0.139-1.092 0.238-1.613 0.428-0.549 0.2-0.894 0.125-1.147-0.447-0.201-0.453-0.511-0.858-0.866-1.434-0.134 0.7-0.281 1.246-0.333 1.8-0.053 0.575-0.279 0.891-0.871 1.011-0.557 0.113-1.091 0.34-1.801 0.57 0.696 0.299 1.252 0.537 1.882 0.808-0.381 0.249-0.704 0.468-1.036 0.67-0.085 0.052-0.225 0.104-0.299 0.069-0.616-0.287-1.269-0.527-1.818-0.914-0.519-0.366-0.387-1.031 0.229-1.282 0.731-0.297 1.489-0.533 2.247-0.752 0.349-0.101 0.496-0.272 0.541-0.628 0.075-0.587 0.197-1.169 0.313-1.751 0.038-0.192 0.093-0.388 0.181-0.561 0.351-0.692 0.939-0.741 1.378-0.103 0.326 0.474 0.637 0.964 0.897 1.476 0.215 0.422 0.466 0.5 0.905 0.357 0.665-0.218 1.345-0.409 2.033-0.526 0.293-0.050 0.622 0.115 0.935 0.183-0.084 0.312-0.089 0.682-0.267 0.924-0.468 0.637-1.001 1.228-1.53 1.818-0.223 0.249-0.273 0.449-0.091 0.755 0.33 0.556 0.654 1.125 0.891 1.724 0.11 0.279 0.129 0.728-0.027 0.939-0.156 0.21-0.6 0.332-0.888 0.291-0.581-0.083-1.2-0.209-1.69-0.504-0.276-0.166-0.327-0.705-0.48-1.077 0.047-0.031 0.094-0.063 0.141-0.095z"></path>
<path fill="rgb(0, 0, 0)" d="M9.035 21.264c-0.090 0.62-0.175 1.205-0.265 1.826-0.365 0-0.714 0-1.125 0 0.116-0.934 0.226-1.837 0.341-2.739 0.059-0.464 0.118-0.927 0.191-1.389 0.218-1.363 1.353-2.462 2.666-2.591 1.975-0.193 3.242 1.545 2.458 3.372-0.728 1.697-2.448 2.328-4.268 1.521zM12.317 18.829c0.007-0.748-0.537-1.299-1.286-1.3-0.903-0.002-1.698 0.789-1.695 1.687 0.003 0.734 0.566 1.281 1.318 1.278 0.869-0.003 1.654-0.79 1.663-1.666z"></path>
<path fill="rgb(0, 0, 0)" d="M3.315 20.211c0.404-0.216 0.782-0.418 1.19-0.636 0.116 0.19 0.206 0.362 0.319 0.517 0.322 0.441 0.833 0.495 1.276 0.145 0.41-0.324 0.435-0.637 0.043-1.109-0.333-0.401-0.69-0.784-1.050-1.163-0.546-0.576-0.857-1.229-0.527-2.008 0.357-0.844 1.022-1.325 1.946-1.422 0.879-0.092 1.478 0.32 1.938 1.097-0.363 0.277-0.727 0.553-1.089 0.829-0.183-0.195-0.319-0.467-0.507-0.511-0.294-0.068-0.685-0.082-0.925 0.063-0.354 0.215-0.133 0.533 0.085 0.772 0.339 0.373 0.67 0.756 1.030 1.107 0.608 0.594 0.869 1.288 0.596 2.107-0.296 0.888-0.926 1.453-1.847 1.642-1.306 0.268-2.062-0.168-2.48-1.431z"></path>
<path fill="rgb(0, 0, 0)" d="M18.955 21.507c-0.427 0-0.764 0-1.161 0 0.101-0.776 0.215-1.518 0.289-2.264 0.061-0.617-0.037-1.204-0.621-1.565-0.473-0.292-1.215-0.185-1.716 0.242-0.499 0.425-0.76 0.959-0.582 1.631 0.227 0.857 1.151 1.195 2.008 0.739 0.155-0.083 0.301-0.183 0.499-0.306-0.036 0.249-0.067 0.444-0.092 0.638-0.11 0.857-0.253 0.991-1.1 1.030-1.831 0.086-2.97-1.392-2.425-3.145 0.419-1.346 1.737-2.244 3.149-2.144 1.179 0.084 2.113 1.035 2.065 2.217-0.039 0.967-0.201 1.928-0.313 2.926z"></path>
<path fill="rgb(0, 0, 0)" d="M24.070 17.694c0.738-0.808 1.364-1.494 2.012-2.204 0.284 0.732 0.358 1.349-0.332 1.86-0.311 0.23-0.545 0.564-0.828 0.866 0.778 1.094 1.536 2.162 2.364 3.326-0.525 0-0.964 0.027-1.396-0.016-0.137-0.013-0.285-0.191-0.378-0.327-0.504-0.74-0.992-1.491-1.58-2.381-0.112 0.782-0.256 1.407-0.277 2.036-0.018 0.574-0.242 0.766-0.781 0.681-0.172-0.027-0.35-0.018-0.586-0.029 0.144-1.142 0.28-2.244 0.423-3.345 0.085-0.66 0.217-1.317 0.259-1.979 0.027-0.431 0.191-0.7 0.559-0.896 0.281-0.15 0.542-0.338 0.909-0.571-0.124 1.011-0.237 1.927-0.366 2.978z"></path>
<path fill="rgb(0, 0, 0)" d="M22.251 17.65c-0.212 0-0.355 0.008-0.496-0.001-0.422-0.027-0.627 0.177-0.678 0.588-0.114 0.909-0.28 1.814-0.349 2.726-0.036 0.477-0.198 0.641-0.653 0.575-0.173-0.025-0.352-0.004-0.602-0.004 0.11-0.886 0.21-1.717 0.316-2.547 0.043-0.339 0.090-0.677 0.148-1.013 0.172-1.008 0.748-1.489 1.777-1.493 0.18-0.001 0.36 0.004 0.539 0.011 0.032 0.001 0.064 0.028 0.128 0.057-0.040 0.341-0.081 0.691-0.129 1.102z"></path>
<path fill="rgb(255, 255, 255)" d="M12.317 18.829c-0.009 0.876-0.794 1.663-1.663 1.666-0.751 0.003-1.315-0.544-1.318-1.278-0.003-0.898 0.791-1.689 1.695-1.687 0.748 0.001 1.293 0.552 1.286 1.3z"></path>
</svg>
