<?xml version="1.0" encoding="utf-8"?>
<!-- Generator: Adobe Illustrator 19.2.1, SVG Export Plug-In . SVG Version: 6.00 Build 0)  -->
<svg version="1.1" id="Layer_1" xmlns="http://www.w3.org/2000/svg" xmlns:xlink="http://www.w3.org/1999/xlink" x="0px" y="0px"
	 width="92px" height="92px" viewBox="0 0 92 92" enable-background="new 0 0 92 92" xml:space="preserve">
<path id="XMLID_1694_" d="M81,16.1C81,5.5,63.4,0,46,0S11,5.5,11,16.1c0,0.1,0,0.2,0,0.3c0,0,0,0.1,0,0.1v59.9
	C11,86.6,28.6,92,46,92s35-5.4,35-15.7V16.5c0,0,0-0.1,0-0.1C81,16.2,81,16.2,81,16.1z M73,46.4c0,2.2-9.5,7.7-27,7.7
	s-27-5.4-27-7.7V26.7c6.8,3.6,16.9,5.5,27,5.5s20.2-1.9,27-5.5V46.4z M46,8c17.8,0,27,5.7,27,8.1s-9.2,8.1-27,8.1s-27-5.7-27-8.1
	S28.2,8,46,8z M46,84c-17.5,0-27-5.4-27-7.7V56.7c6.8,3.5,16.9,5.3,27,5.3s20.2-1.8,27-5.3v19.6C73,78.6,63.5,84,46,84z M63,42.9V38
	c0-1.9,1.6-3.5,3.5-3.5S70,36.1,70,38v4.9c0,1.9-1.6,3.5-3.5,3.5S63,44.9,63,42.9z"/>
</svg>
