<?xml version="1.0" encoding="utf-8"?>
<!-- Generated by IcoMoon.io -->
<!DOCTYPE svg PUBLIC "-//W3C//DTD SVG 1.1//EN" "http://www.w3.org/Graphics/SVG/1.1/DTD/svg11.dtd">
<svg version="1.1" xmlns="http://www.w3.org/2000/svg" xmlns:xlink="http://www.w3.org/1999/xlink" width="32" height="32" viewBox="0 0 32 32">
<path fill="#444444" d="M16 14.176c-5.915 0-10.549-2.085-10.549-4.747s4.634-4.747 10.549-4.747 10.549 2.085 10.549 4.747c0 2.662-4.634 4.747-10.549 4.747zM16 5.737c-4.491 0-9.494 1.516-9.494 3.692s5.003 3.692 9.494 3.692c4.491 0 9.494-1.516 9.494-3.692s-5.004-3.692-9.494-3.692zM16 18.396c-5.915 0-10.549-2.085-10.549-4.747v-4.22c0-0.292 0.236-0.527 0.527-0.527s0.527 0.236 0.527 0.527v4.22c0 2.176 5.003 3.692 9.494 3.692s9.494-1.516 9.494-3.692v-4.22c0-0.292 0.236-0.527 0.527-0.527s0.527 0.236 0.527 0.527v4.22c0 2.662-4.634 4.747-10.549 4.747zM16 23.143c-5.915 0-10.549-2.085-10.549-4.747v-4.747c0-0.291 0.236-0.527 0.527-0.527s0.527 0.236 0.527 0.527v4.747c0 2.176 5.003 3.692 9.494 3.692s9.494-1.517 9.494-3.692v-4.747c0-0.291 0.236-0.527 0.527-0.527s0.527 0.236 0.527 0.527v4.747c0 2.662-4.634 4.747-10.549 4.747zM16 27.89c-5.915 0-10.549-2.085-10.549-4.747v-4.747c0-0.291 0.236-0.527 0.527-0.527s0.527 0.236 0.527 0.527v4.747c0 2.176 5.003 3.692 9.494 3.692s9.494-1.517 9.494-3.692v-4.747c0-0.291 0.236-0.527 0.527-0.527s0.527 0.236 0.527 0.527v4.747c0 2.662-4.634 4.747-10.549 4.747z"></path>
</svg>
