<?xml version="1.0" encoding="utf-8"?>
<!-- Generated by IcoMoon.io -->
<!DOCTYPE svg PUBLIC "-//W3C//DTD SVG 1.1//EN" "http://www.w3.org/Graphics/SVG/1.1/DTD/svg11.dtd">
<svg version="1.1" xmlns="http://www.w3.org/2000/svg" xmlns:xlink="http://www.w3.org/1999/xlink" width="32" height="32" viewBox="0 0 32 32">
<path fill="#444444" d="M6.596 13.975c0.284 0 0.514 0.039 0.689 0.117s0.262 0.175 0.262 0.291c0 0.142-0.036 0.304-0.107 0.485s-0.139 0.33-0.204 0.446c-0.026 0.026-0.058 0.029-0.097 0.010s-0.058-0.055-0.058-0.107c0.039-0.090 0.058-0.22 0.058-0.388 0-0.181-0.048-0.33-0.146-0.446s-0.23-0.175-0.398-0.175c-0.22 0-0.398 0.068-0.534 0.204s-0.204 0.327-0.204 0.572c0 0.207 0.055 0.405 0.165 0.592s0.233 0.376 0.369 0.563c0.136 0.188 0.262 0.388 0.378 0.602s0.175 0.456 0.175 0.728c0 0.465-0.188 0.828-0.563 1.086s-0.867 0.388-1.475 0.388c-0.44 0-0.786-0.071-1.038-0.213s-0.378-0.297-0.378-0.465c0-0.052 0.019-0.123 0.058-0.213s0.090-0.187 0.155-0.291c0.065-0.103 0.136-0.207 0.213-0.31s0.162-0.187 0.252-0.252c0.039-0.026 0.074-0.020 0.107 0.019s0.036 0.078 0.010 0.117c-0.078 0.077-0.136 0.159-0.175 0.243s-0.058 0.197-0.058 0.34c0 0.233 0.078 0.424 0.233 0.572s0.356 0.223 0.601 0.223c0.336 0 0.598-0.094 0.786-0.281s0.281-0.417 0.281-0.689c0-0.246-0.055-0.475-0.165-0.689s-0.23-0.42-0.359-0.621c-0.129-0.201-0.249-0.404-0.359-0.611s-0.165-0.427-0.165-0.66c0-0.336 0.142-0.617 0.427-0.844s0.705-0.34 1.261-0.34zM11.893 14.073c0.065 0.026 0.090 0.062 0.078 0.107s-0.071 0.081-0.175 0.107c-0.194 0-0.417 0.007-0.669 0.019s-0.521 0.033-0.805 0.058c-0.259 0.634-0.472 1.251-0.64 1.853s-0.252 1.090-0.252 1.465c0 0.44 0.168 0.659 0.504 0.659s0.711-0.291 1.126-0.873c0.039-0.026 0.074-0.026 0.107 0s0.042 0.071 0.029 0.136c-0.22 0.362-0.498 0.676-0.834 0.941s-0.666 0.398-0.989 0.398c-0.337 0-0.585-0.081-0.747-0.243s-0.242-0.385-0.242-0.669c0-0.375 0.090-0.892 0.272-1.552s0.414-1.332 0.699-2.018c-0.337 0.039-0.647 0.091-0.931 0.155-0.065-0.013-0.081-0.045-0.048-0.097s0.090-0.107 0.175-0.165c0.084-0.059 0.184-0.11 0.301-0.155s0.226-0.068 0.33-0.068c0.052 0 0.103 0 0.155 0s0.103-0.006 0.155-0.019c0.168-0.375 0.343-0.737 0.524-1.087s0.362-0.666 0.543-0.951c0.077-0.090 0.184-0.171 0.32-0.242s0.268-0.126 0.398-0.165c0.129-0.039 0.236-0.061 0.32-0.068s0.119 0.017 0.107 0.068c-0.22 0.337-0.437 0.712-0.65 1.126s-0.417 0.847-0.611 1.3c0.246-0.013 0.495-0.019 0.747-0.019s0.488 0 0.708 0zM23.664 4.365c0.194 0 0.352 0.049 0.475 0.146s0.207 0.226 0.252 0.388c0.045 0.162 0.052 0.346 0.020 0.553s-0.107 0.414-0.223 0.621c-0.026 0.026-0.058 0.026-0.097 0s-0.065-0.058-0.078-0.097c0.026-0.155-0.029-0.285-0.165-0.388s-0.346-0.155-0.631-0.155c-0.53 0-1.064 0.197-1.601 0.592s-1.057 0.915-1.562 1.562c-0.504 0.647-0.977 1.391-1.416 2.231s-0.821 1.707-1.145 2.6c-0.323 0.892-0.579 1.778-0.767 2.658s-0.281 1.681-0.281 2.406c0 0.388 0.11 0.582 0.33 0.582 0.155 0 0.307-0.065 0.456-0.194s0.32-0.323 0.514-0.582c0.039-0.026 0.074-0.022 0.107 0.010s0.042 0.074 0.029 0.126c-0.259 0.388-0.563 0.711-0.912 0.97s-0.666 0.388-0.951 0.388c-0.246 0-0.417-0.071-0.514-0.213s-0.146-0.323-0.146-0.543c0-0.608 0.129-1.368 0.388-2.28s0.604-1.876 1.038-2.891c0.433-1.015 0.934-2.027 1.504-3.036s1.161-1.918 1.775-2.726c0.614-0.809 1.232-1.465 1.853-1.97s1.203-0.757 1.746-0.757zM6.438 28.206c-0.194 0-0.352-0.049-0.475-0.146s-0.207-0.226-0.252-0.388c-0.045-0.162-0.051-0.346-0.019-0.553s0.107-0.414 0.223-0.621c0.026-0.026 0.058-0.026 0.097 0s0.065 0.058 0.077 0.097c-0.026 0.155 0.029 0.285 0.165 0.388s0.346 0.155 0.63 0.155c0.53 0 1.064-0.197 1.601-0.592s1.057-0.915 1.562-1.561c0.504-0.647 0.977-1.391 1.416-2.231s0.822-1.707 1.145-2.6c0.323-0.892 0.579-1.778 0.766-2.658s0.281-1.681 0.281-2.406c0-0.388-0.11-0.582-0.33-0.582-0.155 0-0.307 0.064-0.456 0.194s-0.32 0.323-0.514 0.582c-0.039 0.026-0.074 0.022-0.107-0.010s-0.042-0.074-0.029-0.126c0.259-0.388 0.563-0.712 0.912-0.97s0.666-0.388 0.951-0.388c0.246 0 0.417 0.071 0.514 0.213s0.146 0.323 0.146 0.543c0 0.608-0.129 1.368-0.388 2.28s-0.604 1.875-1.038 2.891c-0.433 1.015-0.934 2.027-1.504 3.036s-1.161 1.918-1.775 2.726c-0.614 0.808-1.232 1.465-1.853 1.969s-1.203 0.757-1.746 0.757zM19.544 18.942c-0.543 0-0.815-0.297-0.815-0.892 0-0.207 0.022-0.446 0.068-0.718s0.116-0.553 0.213-0.844c0.097-0.291 0.21-0.585 0.34-0.883s0.284-0.582 0.466-0.854c-0.142 0.091-0.278 0.184-0.407 0.281s-0.246 0.197-0.349 0.301c-0.039 0.026-0.075 0.017-0.107-0.029s-0.036-0.087-0.010-0.126c0.22-0.233 0.533-0.472 0.941-0.718s0.798-0.44 1.174-0.582c0.064 0 0.113 0.017 0.145 0.049s0.036 0.075 0.010 0.126c-0.414 0.543-0.747 1.132-0.999 1.765s-0.378 1.249-0.378 1.843c0 0.375 0.116 0.563 0.349 0.563 0.168 0 0.375-0.113 0.621-0.34s0.504-0.524 0.776-0.893c0.272-0.368 0.546-0.786 0.825-1.251s0.533-0.938 0.766-1.417c0.039-0.077 0.152-0.155 0.34-0.233s0.378-0.117 0.572-0.117c0.194 0 0.252 0.052 0.175 0.155-0.181 0.337-0.34 0.65-0.475 0.941s-0.249 0.579-0.34 0.863c-0.091 0.284-0.159 0.572-0.204 0.863s-0.068 0.611-0.068 0.96c0 0.414 0.11 0.621 0.33 0.621s0.466-0.194 0.737-0.582c0.039-0.026 0.078-0.026 0.116 0s0.052 0.065 0.039 0.117c-0.22 0.336-0.463 0.592-0.728 0.766s-0.508 0.262-0.728 0.262c-0.543 0-0.815-0.317-0.815-0.951 0-0.66 0.116-1.313 0.349-1.96-0.492 0.892-1.009 1.601-1.552 2.125s-1.003 0.786-1.378 0.786zM27.557 13.975c0.284 0 0.514 0.039 0.689 0.117s0.262 0.175 0.262 0.291c0 0.142-0.036 0.304-0.107 0.485s-0.139 0.33-0.204 0.446c-0.026 0.026-0.058 0.029-0.097 0.010s-0.058-0.055-0.058-0.107c0.039-0.090 0.058-0.22 0.058-0.388 0-0.181-0.048-0.33-0.146-0.446s-0.23-0.175-0.398-0.175c-0.22 0-0.398 0.068-0.534 0.204s-0.204 0.327-0.204 0.572c0 0.207 0.055 0.405 0.165 0.592s0.233 0.376 0.369 0.563c0.136 0.188 0.262 0.388 0.378 0.602s0.175 0.456 0.175 0.728c0 0.465-0.188 0.828-0.563 1.086s-0.867 0.388-1.474 0.388c-0.44 0-0.786-0.071-1.038-0.213s-0.378-0.297-0.378-0.465c0-0.052 0.019-0.123 0.058-0.213s0.090-0.187 0.155-0.291c0.065-0.103 0.136-0.207 0.213-0.31s0.162-0.187 0.252-0.252c0.039-0.026 0.074-0.020 0.107 0.019s0.035 0.078 0.010 0.117c-0.078 0.077-0.136 0.159-0.175 0.243s-0.058 0.197-0.058 0.34c0 0.233 0.078 0.424 0.233 0.572s0.356 0.223 0.601 0.223c0.336 0 0.598-0.094 0.786-0.281s0.281-0.417 0.281-0.689c0-0.246-0.055-0.475-0.165-0.689s-0.23-0.42-0.359-0.621c-0.129-0.201-0.249-0.404-0.359-0.611s-0.165-0.427-0.165-0.66c0-0.336 0.142-0.617 0.427-0.844s0.705-0.34 1.261-0.34z"></path>
</svg>
