<?xml version="1.0" encoding="utf-8"?>
<!-- Generated by IcoMoon.io -->
<!DOCTYPE svg PUBLIC "-//W3C//DTD SVG 1.1//EN" "http://www.w3.org/Graphics/SVG/1.1/DTD/svg11.dtd">
<svg version="1.1" xmlns="http://www.w3.org/2000/svg" xmlns:xlink="http://www.w3.org/1999/xlink" width="32" height="32" viewBox="0 0 32 32">
<path fill="#444444" d="M20.948 9.155c-1.15 0.040-2.153 0.674-2.9 1.55-0.828 0.961-1.378 2.101-1.774 3.265-0.709-0.581-1.256-1.333-2.394-1.662-0.88-0.253-1.803-0.149-2.653 0.484-0.403 0.301-0.68 0.755-0.811 1.182-0.342 1.11 0.358 2.098 0.677 2.453l0.695 0.744c0.143 0.146 0.488 0.527 0.32 1.074-0.182 0.595-0.899 0.979-1.633 0.753-0.328-0.102-0.8-0.346-0.694-0.689 0.043-0.141 0.144-0.247 0.199-0.368 0.049-0.105 0.073-0.183 0.088-0.229 0.134-0.439-0.049-1.009-0.518-1.154-0.438-0.134-0.886-0.028-1.060 0.536-0.197 0.641 0.109 1.803 1.751 2.31 1.924 0.591 3.551-0.457 3.782-1.822 0.146-0.855-0.241-1.492-0.949-2.309l-0.576-0.637c-0.35-0.35-0.469-0.944-0.108-1.401 0.305-0.386 0.74-0.55 1.451-0.357 1.039 0.281 1.502 1.003 2.274 1.584-0.319 1.046-0.527 2.096-0.716 3.039l-0.116 0.702c-0.553 2.897-0.974 4.487-2.070 5.401-0.221 0.157-0.536 0.392-1.012 0.409-0.249 0.008-0.33-0.164-0.334-0.239-0.005-0.175 0.142-0.255 0.24-0.334 0.146-0.080 0.368-0.213 0.353-0.636-0.016-0.502-0.432-0.937-1.032-0.916-0.45 0.015-1.135 0.438-1.109 1.213 0.027 0.8 0.772 1.4 1.897 1.361 0.601-0.020 1.944-0.265 3.267-1.837 1.54-1.803 1.97-3.87 2.295-5.383l0.361-1.997c0.201 0.024 0.416 0.040 0.65 0.046 1.917 0.041 2.876-0.953 2.891-1.675 0.009-0.437-0.287-0.868-0.702-0.858-0.297 0.009-0.67 0.206-0.759 0.617-0.087 0.403 0.61 0.767 0.064 1.12-0.387 0.251-1.082 0.428-2.060 0.284l0.178-0.983c0.363-1.864 0.811-4.157 2.509-4.212 0.124-0.006 0.577 0.005 0.587 0.305 0.003 0.1-0.021 0.126-0.139 0.355-0.12 0.178-0.164 0.33-0.159 0.505 0.017 0.476 0.379 0.789 0.902 0.77 0.701-0.023 0.902-0.705 0.891-1.056-0.029-0.824-0.898-1.345-2.046-1.308z"></path>
</svg>
