<?xml version="1.0" encoding="utf-8"?>
<!-- Generator: Adobe Illustrator 19.2.1, SVG Export Plug-In . SVG Version: 6.00 Build 0)  -->
<svg version="1.1" id="Layer_1" xmlns="http://www.w3.org/2000/svg" xmlns:xlink="http://www.w3.org/1999/xlink" x="0px" y="0px"
	 width="92px" height="92px" viewBox="0 0 92 92" enable-background="new 0 0 92 92" xml:space="preserve">
<path d="M88,20H29c-1,0-1.9,0.4-2.6,1l-25,22C0.5,43.8,0,44.9,0,46c0,1.2,0.5,2.2,1.4,3l25,22c0.7,0.6,1.7,1,2.6,1h59
	c2.2,0,4-1.8,4-4V24C92,21.8,90.2,20,88,20z M84,64H30.5L10.1,46l20.5-18H84V64z M44.1,51.4l5.4-5.4l-5.4-5.4
	c-1.4-1.4-1.4-3.6,0-4.9c1.4-1.4,3.6-1.4,4.9,0l5.4,5.4l5.4-5.4c1.4-1.4,3.6-1.4,4.9,0c1.4,1.4,1.4,3.6,0,4.9L59.4,46l5.4,5.4
	c1.4,1.4,1.4,3.6,0,4.9c-0.7,0.7-1.6,1-2.5,1s-1.8-0.3-2.5-1l-5.4-5.4l-5.4,5.4c-0.7,0.7-1.6,1-2.5,1c-0.9,0-1.8-0.3-2.5-1
	C42.8,55,42.8,52.8,44.1,51.4z"/>
</svg>
