<?xml version="1.0" encoding="utf-8"?>
<!-- Generator: Adobe Illustrator 19.2.1, SVG Export Plug-In . SVG Version: 6.00 Build 0)  -->
<svg version="1.1" id="Layer_1" xmlns="http://www.w3.org/2000/svg" xmlns:xlink="http://www.w3.org/1999/xlink" x="0px" y="0px"
	 width="92px" height="92px" viewBox="0 0 92 92" enable-background="new 0 0 92 92" xml:space="preserve">
<path id="XMLID_1160_" d="M88,20H29c-1,0-1.9,0.4-2.6,1l-25,22C0.5,43.8,0,44.9,0,46c0,1.2,0.5,2.2,1.4,3l25,22c0.7,0.6,1.7,1,2.6,1
	h59c2.2,0,4-1.8,4-4V24C92,21.8,90.2,20,88,20z M84,64H30.5L10.1,46l20.5-18H84V64z M27.2,41.4c1.2-1.2,2.9-1.9,4.6-1.9
	c1.7,0,3.4,0.7,4.6,1.9c1.2,1.2,1.9,2.9,1.9,4.6s-0.7,3.4-1.9,4.6c-1.2,1.2-2.9,1.9-4.6,1.9c-1.7,0-3.4-0.7-4.6-1.9
	c-1.2-1.2-1.9-2.9-1.9-4.6S26,42.6,27.2,41.4z"/>
</svg>
