<?xml version="1.0" encoding="utf-8"?>
<!-- Generator: Adobe Illustrator 19.2.1, SVG Export Plug-In . SVG Version: 6.00 Build 0)  -->
<svg version="1.1" id="Layer_1" xmlns="http://www.w3.org/2000/svg" xmlns:xlink="http://www.w3.org/1999/xlink" x="0px" y="0px"
	 width="92px" height="92px" viewBox="0 0 92 92" enable-background="new 0 0 92 92" xml:space="preserve">
<path id="XMLID_1184_" d="M75.2,51.6c0-1.1-0.4-2.1-1.2-2.8L36.7,12c-0.7-0.7-1.6-1.1-2.6-1.1L4.3,9C3.1,8.9,2,9.4,1.2,10.2
	C0.4,11-0.1,12.1,0,13.3l1.9,29.3c0.1,1,0.5,1.9,1.2,2.6l37.4,36.7c0.8,0.8,1.8,1.2,2.8,1.2c1,0,2-0.4,2.8-1.2L74,54.4
	C74.8,53.7,75.2,52.7,75.2,51.6z M43.3,73.4L9.9,40.5L8.3,17.3l23.8,1.5l33.4,32.8L43.3,73.4z M26,26.2c1.1,1.1,1.8,2.7,1.8,4.2
	c0,1.6-0.6,3.1-1.8,4.2c-1.1,1.1-2.7,1.8-4.3,1.8c-1.6,0-3.1-0.6-4.3-1.8c-1.1-1.1-1.8-2.7-1.8-4.2c0-1.6,0.6-3.1,1.8-4.2
	c1.1-1.1,2.7-1.8,4.3-1.8C23.3,24.4,24.9,25.1,26,26.2z M92,51.6c0,0.9-0.4,1.8-1,2.5L63.1,81.5c-0.7,0.7-1.6,1-2.5,1
	c-0.9,0-1.8-0.3-2.5-1c-1.4-1.4-1.4-3.6,0-4.9l25.4-24.9L48.6,17.4c-1.4-1.4-1.4-3.6,0-4.9c1.4-1.4,3.6-1.4,5,0L91,49.1
	C91.6,49.8,92,50.7,92,51.6z"/>
</svg>
