<?xml version="1.0" encoding="utf-8"?>
<!-- Generator: Adobe Illustrator 19.2.1, SVG Export Plug-In . SVG Version: 6.00 Build 0)  -->
<svg version="1.1" id="Layer_1" xmlns="http://www.w3.org/2000/svg" xmlns:xlink="http://www.w3.org/1999/xlink" x="0px" y="0px"
	 width="92px" height="92px" viewBox="0 0 92 92" enable-background="new 0 0 92 92" xml:space="preserve">
<path id="XMLID_75_" d="M59.8,92c-12.4,0-31.9-4.1-36.7-7.5c-1.1-0.8-1.7-2-1.7-3.3V42.1c0-1.2,0.6-2.4,1.5-3.1
	c0.3-0.2,7.3-5.7,14.6-9.8c9.1-5,15.4-12,16.9-16.4C56.2,7.4,58.8,0,67,0c3.9,0,7.1,2.2,8.8,6c3.4,7.8-0.2,18.6-6.2,27.1
	c4,0.9,9,2.2,12,3.1c5.5,1.7,9.1,5.7,9.9,10.6c0.7,5-1.8,10.1-7.1,14c-3.9,10.5-10.6,27.1-15.5,29.8C67,91.6,63.7,92,59.8,92z
	 M29.4,78.8c7.6,3.2,31,6.5,35.4,4.8c2.3-2.1,8.2-15.5,12.3-26.8c0.3-0.8,0.8-1.5,1.5-2c3.3-2.2,5-4.8,4.7-7
	c-0.3-1.8-1.9-3.3-4.3-4.1c-5-1.6-17.4-4.3-17.6-4.3c-1.4-0.3-2.5-1.3-3-2.7s-0.1-2.9,0.9-3.9c9-9.7,10.6-19.6,8.9-23.6
	C67.8,8,67.3,8,67,8c-2,0-2.9,1.4-5,7.4c-2.4,7-10.7,15.4-20.6,20.8c-4.8,2.6-9.6,6.1-12,7.9V78.8z M13.6,81.6V41.6
	c0-3.6-2.9-6.5-6.5-6.5S0.5,38,0.5,41.6v39.9c0,3.6,2.9,6.5,6.5,6.5S13.6,85.1,13.6,81.6z"/>
</svg>
