<?xml version="1.0" encoding="utf-8"?>
<!-- Generator: Adobe Illustrator 19.2.1, SVG Export Plug-In . SVG Version: 6.00 Build 0)  -->
<svg version="1.1" id="Layer_1" xmlns="http://www.w3.org/2000/svg" xmlns:xlink="http://www.w3.org/1999/xlink" x="0px" y="0px"
	 width="92px" height="92px" viewBox="0 0 92 92" enable-background="new 0 0 92 92" xml:space="preserve">
<path id="XMLID_463_" d="M32.2,0C44.7,0,64.1,4.1,69,7.5c1.1,0.8,1.7,2,1.7,3.3v39.1c0,1.2-0.6,2.4-1.5,3.1
	c-0.3,0.2-7.3,5.7-14.6,9.8c-9.1,5-15.4,12-16.9,16.4C35.8,84.6,33.2,92,25,92c-3.9,0-7.1-2.2-8.8-6c-3.4-7.8,0.2-18.6,6.2-27.1
	c-4-0.9-9-2.2-12-3.1C5,54.1,1.3,50.1,0.6,45.2c-0.7-5,1.8-10.1,7.1-14C11.6,20.8,18.3,4.1,23.2,1.4C25,0.4,28.3,0,32.2,0z
	 M62.6,13.2C55,10,31.6,6.6,27.2,8.4c-2.3,2.1-8.2,15.5-12.3,26.8c-0.3,0.8-0.8,1.5-1.5,2c-3.3,2.2-5,4.8-4.7,7
	c0.3,1.8,1.9,3.3,4.3,4.1c5,1.6,17.4,4.3,17.6,4.3c1.4,0.3,2.5,1.3,3,2.7s0.1,2.9-0.9,3.9c-9,9.7-10.6,19.6-8.9,23.6
	C24.2,84,24.7,84,25,84c2,0,2.9-1.4,5-7.4c2.4-7,10.7-15.4,20.6-20.8c4.8-2.6,9.6-6.1,12-7.9V13.2z M78.4,10.4v39.9
	c0,3.6,2.9,6.5,6.5,6.5s6.5-2.9,6.5-6.5V10.4c0-3.6-2.9-6.5-6.5-6.5S78.4,6.9,78.4,10.4z"/>
</svg>
