<?xml version="1.0" encoding="utf-8"?>
<!-- Generator: Adobe Illustrator 19.2.1, SVG Export Plug-In . SVG Version: 6.00 Build 0)  -->
<svg version="1.1" id="Layer_1" xmlns="http://www.w3.org/2000/svg" xmlns:xlink="http://www.w3.org/1999/xlink" x="0px" y="0px"
	 width="92px" height="92px" viewBox="0 0 92 92" enable-background="new 0 0 92 92" xml:space="preserve">
<path id="XMLID_2028_" d="M27.2,42.2l22.6,22.6c0.9,0.9,2.1,1.4,3.3,1.4c1.2,0,2.4-0.5,3.3-1.4l8.4-8.4c0.9-0.9,1.4-2,1.4-3.3
	c0-1.2-0.5-2.4-1.4-3.3L42.2,27.2c-0.9-0.9-2-1.4-3.3-1.4c-1.2,0-2.4,0.5-3.3,1.4l-8.4,8.4C25.4,37.4,25.4,40.4,27.2,42.2z
	 M38.9,32.4l20.7,20.7l-6.5,6.5L32.4,38.9L38.9,32.4z M90.8,55.5L36.5,1.2c-1.6-1.6-4.1-1.6-5.7,0l-7.6,7.6
	c-1.1,1.1-1.5,2.8-0.9,4.3c1.1,2.7,0.4,5.7-1.6,7.7c-2,2-5,2.6-7.7,1.6c-1.5-0.6-3.2-0.2-4.3,0.9l-7.6,7.6C0.4,31.6,0,32.7,0,33.7
	c0,1.1,0.4,2.1,1.2,2.8l54.3,54.3c0.8,0.8,1.8,1.2,2.8,1.2c1.1,0,2.1-0.4,2.8-1.2l7.6-7.6c1.1-1.1,1.5-2.8,0.9-4.3
	c-1.1-2.7-0.4-5.7,1.6-7.7c2-2,5-2.6,7.7-1.6c1.5,0.6,3.2,0.2,4.3-0.9l7.6-7.6C92.4,59.5,92.4,57,90.8,55.5z M79.2,61.4
	c-4.9-1-10.1,0.5-13.7,4.2c-3.6,3.6-5.1,8.8-4.2,13.7l-3.1,3.1L9.7,33.7l3.1-3.1c4.9,1,10.1-0.5,13.7-4.2c3.6-3.6,5.1-8.8,4.2-13.7
	l3.1-3.1l48.6,48.6L79.2,61.4z"/>
</svg>
