<?xml version="1.0" encoding="utf-8"?>
<!-- Generator: Adobe Illustrator 19.2.1, SVG Export Plug-In . SVG Version: 6.00 Build 0)  -->
<svg version="1.1" id="Layer_1" xmlns="http://www.w3.org/2000/svg" xmlns:xlink="http://www.w3.org/1999/xlink" x="0px" y="0px"
	 width="92px" height="92px" viewBox="0 0 92 92" enable-background="new 0 0 92 92" xml:space="preserve">
<path d="M92,46c0,21.5-17.4,39-38.8,39c-7.9,0-15.5-2.4-22-6.8c-1.8-1.3-2.3-3.7-1-5.6c1.3-1.8,3.7-2.3,5.6-1
	c5.1,3.5,11.2,5.4,17.4,5.4C70.2,77,84,63.1,84,46c0-17.1-13.8-31-30.8-31C36.6,15,23,28.3,22.4,44.9l9.3-9.4c1.6-1.6,4.1-1.6,5.7,0
	c1.6,1.6,1.6,4.1,0,5.7L22.1,56.5c-0.8,0.8-1.8,1.2-2.8,1.2c-1.1,0-2.1-0.4-2.8-1.2L1.2,41.1c-1.6-1.6-1.6-4.1,0-5.7
	c1.6-1.6,4.1-1.6,5.7,0l7.6,7.7C15.9,23,32.7,7,53.2,7C74.6,7,92,24.5,92,46z M53,23.3c-2.2,0-4,1.8-4,4V46c0,1.1,0.5,2.1,1.3,2.8
	l8.6,8.6c0.8,0.8,1.8,1.2,2.9,1.2c1,0,2.1-0.4,2.8-1.2c1.6-1.6,1.5-4.1-0.1-5.7L57,44.3v-17C57,25.1,55.2,23.3,53,23.3z"/>
</svg>
