<?xml version="1.0" encoding="utf-8"?>
<!-- Generator: Adobe Illustrator 19.2.1, SVG Export Plug-In . SVG Version: 6.00 Build 0)  -->
<svg version="1.1" id="Layer_1" xmlns="http://www.w3.org/2000/svg" xmlns:xlink="http://www.w3.org/1999/xlink" x="0px" y="0px"
	 width="92px" height="92px" viewBox="0 0 92 92" enable-background="new 0 0 92 92" xml:space="preserve">
<path id="XMLID_1973_" d="M25,17.8V5c0-2.8,2.2-5,5-5s5,2.2,5,5v12.8c0,2.8-2.2,5-5,5S25,20.6,25,17.8z M62,22.8c2.8,0,5-2.2,5-5V5
	c0-2.8-2.2-5-5-5s-5,2.2-5,5v12.8C57,20.6,59.2,22.8,62,22.8z M28.2,40h35.5c2.2,0,4-1.8,4-4s-1.8-4-4-4H28.2c-2.2,0-4,1.8-4,4
	S26,40,28.2,40z M84,7h-8.3c-2.2,0-4,1.8-4,4s1.8,4,4,4H80v68H12V15h4.3c2.2,0,4-1.8,4-4s-1.8-4-4-4H8c-2.2,0-4,2.2-4,4.4V87
	c0,2.2,1.8,4,4,4h76c2.2,0,4-1.8,4-4V11.4C88,9.2,86.2,7,84,7z M42.7,15h6.6c2.2,0,4-1.8,4-4s-1.8-4-4-4h-6.6c-2.2,0-4,1.8-4,4
	S40.5,15,42.7,15z M28.2,58h35.5c2.2,0,4-1.8,4-4s-1.8-4-4-4H28.2c-2.2,0-4,1.8-4,4S26,58,28.2,58z"/>
</svg>
