<?xml version="1.0" encoding="utf-8"?>
<!-- Generated by IcoMoon.io -->
<!DOCTYPE svg PUBLIC "-//W3C//DTD SVG 1.1//EN" "http://www.w3.org/Graphics/SVG/1.1/DTD/svg11.dtd">
<svg version="1.1" xmlns="http://www.w3.org/2000/svg" xmlns:xlink="http://www.w3.org/1999/xlink" width="32" height="32" viewBox="0 0 32 32">
<path fill="#444444" d="M16 4.973c-6.248 0-11.313 5.065-11.313 11.313s5.065 11.313 11.313 11.313c6.248 0 11.313-5.065 11.313-11.313s-5.065-11.313-11.313-11.313zM18.538 8.869c0.417-0.722 1.341-0.97 2.063-0.553s0.97 1.341 0.552 2.063c-0.417 0.722-1.34 0.97-2.063 0.552s-0.97-1.34-0.553-2.062zM16 9.724c0.608 0 1.195 0.084 1.753 0.238 0.098 0.607 0.459 1.166 1.033 1.498s1.237 0.364 1.811 0.147c1.117 1.098 1.844 2.592 1.95 4.256l-2.152 0.032c-0.198-2.254-2.090-4.021-4.394-4.021-0.664 0-1.294 0.148-1.858 0.41l-1.050-1.881c0.877-0.434 1.864-0.679 2.908-0.679zM8.307 17.796c-0.835 0-1.511-0.676-1.511-1.51s0.676-1.511 1.511-1.511c0.834 0 1.51 0.676 1.51 1.511s-0.676 1.51-1.51 1.51zM9.646 17.931c0.477-0.389 0.782-0.981 0.782-1.645s-0.305-1.256-0.782-1.645c0.409-1.581 1.392-2.931 2.713-3.814l1.104 1.85c-1.135 0.799-1.876 2.117-1.876 3.61s0.741 2.811 1.876 3.609l-1.104 1.85c-1.322-0.883-2.305-2.233-2.713-3.815zM20.602 24.255c-0.723 0.417-1.646 0.17-2.063-0.553s-0.17-1.645 0.553-2.063c0.722-0.417 1.646-0.169 2.062 0.553s0.17 1.646-0.553 2.063zM20.597 20.964c-0.574-0.217-1.237-0.184-1.811 0.147-0.574 0.332-0.934 0.891-1.033 1.498-0.558 0.155-1.146 0.239-1.753 0.239-1.044 0-2.031-0.245-2.908-0.68l1.050-1.881c0.565 0.263 1.194 0.41 1.858 0.41 2.305 0 4.196-1.767 4.394-4.021l2.153 0.032c-0.106 1.664-0.833 3.158-1.95 4.256z"></path>
</svg>
