<?xml version="1.0" encoding="utf-8"?>
<!-- Generator: Adobe Illustrator 19.2.1, SVG Export Plug-In . SVG Version: 6.00 Build 0)  -->
<svg version="1.1" id="Layer_1" xmlns="http://www.w3.org/2000/svg" xmlns:xlink="http://www.w3.org/1999/xlink" x="0px" y="0px"
	 width="92px" height="92px" viewBox="0 0 92 92" enable-background="new 0 0 92 92" xml:space="preserve">
<path id="XMLID_1346_" d="M89,58.8V86c0,2.8-2.2,5-5,5H8c-2.8,0-5-2.2-5-5V58.8c0-2.8,2.2-5,5-5s5,2.2,5,5V81h66V58.8
	c0-2.8,2.2-5,5-5S89,56,89,58.8z M29.6,29.9L41,18.2v43.3c0,2.8,2.2,5,5,5s5-2.2,5-5V18.3l11.4,11.6c1,1,2.3,1.5,3.6,1.5
	c1.3,0,2.5-0.5,3.5-1.4c2-1.9,2-5.1,0.1-7.1L49.6,2.5C48.6,1.5,47.3,1,46,1c-1.3,0-2.6,0.5-3.6,1.5L22.5,22.9
	c-1.9,2-1.9,5.1,0.1,7.1C24.5,31.9,27.7,31.8,29.6,29.9z"/>
</svg>
