<?xml version="1.0" encoding="utf-8"?>
<!-- Generator: Adobe Illustrator 19.2.1, SVG Export Plug-In . SVG Version: 6.00 Build 0)  -->
<svg version="1.1" id="Layer_1" xmlns="http://www.w3.org/2000/svg" xmlns:xlink="http://www.w3.org/1999/xlink" x="0px" y="0px"
	 width="92px" height="92px" viewBox="0 0 92 92" enable-background="new 0 0 92 92" xml:space="preserve">
<path id="XMLID_1265_" d="M35.4,54.3c11.7,0,21.2-9.5,21.2-21.1c0-11.7-9.5-21.1-21.2-21.1s-21.2,9.5-21.2,21.1
	C14.3,44.8,23.8,54.3,35.4,54.3z M35.4,20c7.3,0,13.2,5.9,13.2,13.1c0,7.2-5.9,13.1-13.2,13.1s-13.2-5.9-13.2-13.1
	C22.3,25.9,28.2,20,35.4,20z M45,56.2c-1.1-0.3-2.3-0.2-3.3,0.4l-6.3,3.8l-6.3-3.8c-1-0.6-2.2-0.7-3.3-0.4C19.7,58.2,0,65.3,0,76
	c0,2.2,1.8,4,4,4h62.8c2.2,0,4-1.8,4-4C70.8,65.3,51.1,58.2,45,56.2z M11.2,72c3.4-2.6,9.1-5.4,15.3-7.6l6.8,4.1
	c1.3,0.8,2.9,0.8,4.1,0l6.8-4.1c6.2,2.1,11.9,5,15.3,7.6H11.2z M91,69c0,1.7-1.3,3-3,3H74.6c-1.7,0-3-1.3-3-3s1.3-3,3-3h8.9
	c-1.5-2-3.9-3.6-6.9-5.2c-1.5-0.8-2-2.6-1.2-4c0.8-1.5,2.6-2,4.1-1.2C83.8,57.9,91,62.8,91,69z M74.2,42.6c0-4.4-3.6-7.9-7.9-7.9
	c-1.1,0-2.1,0.2-3.1,0.6c-1.5,0.6-3.3-0.1-3.9-1.6c-0.6-1.5,0.1-3.3,1.6-3.9c1.7-0.7,3.5-1.1,5.4-1.1c7.7,0,13.9,6.2,13.9,13.9
	s-6.3,13.9-13.9,13.9c-4,0-7.8-1.7-10.4-4.7c-1.1-1.2-1-3.1,0.3-4.2c1.2-1.1,3.1-1,4.2,0.3c1.5,1.7,3.7,2.7,6,2.7
	C70.6,50.5,74.2,46.9,74.2,42.6z"/>
</svg>
