<?xml version="1.0" encoding="utf-8"?>
<!-- Generator: Adobe Illustrator 19.2.1, SVG Export Plug-In . SVG Version: 6.00 Build 0)  -->
<svg version="1.1" id="Layer_1" xmlns="http://www.w3.org/2000/svg" xmlns:xlink="http://www.w3.org/1999/xlink" x="0px" y="0px"
	 width="92px" height="92px" viewBox="0 0 92 92" enable-background="new 0 0 92 92" xml:space="preserve">
<path id="XMLID_1253_" d="M46,57.1c14.8,0,26.9-12.1,26.9-27C72.9,15.1,60.8,3,46,3S19.1,15.1,19.1,30C19.1,45,31.2,57.1,46,57.1z
	 M46,11c10.4,0,18.9,8.5,18.9,19c0,10.5-8.5,19-18.9,19s-18.9-8.5-18.9-19C27.1,19.5,35.6,11,46,11z M58.5,59.7
	c-1.3-0.4-2.8-0.1-3.8,0.8L46,67.9l-8.7-7.4c-1.1-0.9-2.5-1.2-3.8-0.8C27.9,61.5,0,71.1,0,85c0,2.2,1.8,4,4,4h84c2.2,0,4-1.8,4-4
	C92,71.1,64.1,61.5,58.5,59.7z M10.1,81c4.4-4.7,15-9.9,23.8-12.9l9.5,8.1c1.5,1.3,3.7,1.3,5.2,0l9.5-8.1
	c8.8,3.1,19.4,8.3,23.8,12.9H10.1z"/>
</svg>
