<?xml version="1.0" encoding="utf-8"?>
<!-- Generator: Adobe Illustrator 19.2.1, SVG Export Plug-In . SVG Version: 6.00 Build 0)  -->
<svg version="1.1" id="Layer_1" xmlns="http://www.w3.org/2000/svg" xmlns:xlink="http://www.w3.org/1999/xlink" x="0px" y="0px"
	 width="92px" height="92px" viewBox="0 0 92 92" enable-background="new 0 0 92 92" xml:space="preserve">
<path id="XMLID_1695_" d="M1,25.4c-1.6-1.9-1.3-4.7,0.5-6.2c16.1-13.5,32.6-8.8,46.6-2.4c14.8,6.8,26.7,6.1,36.5-2
	c1.9-1.6,4.7-1.3,6.3,0.6c1.6,1.9,1.3,4.7-0.6,6.2c-7,5.8-14.9,8.7-23.6,8.7c-6.9,0-14.4-1.8-22.3-5.5C30.6,18.5,18.9,16.2,7.3,26
	C5.4,27.5,2.6,27.3,1,25.4z M84.7,39.9c-9.8,8.1-21.8,8.7-36.5,2c-14-6.4-30.5-11.2-46.6,2.4c-1.9,1.6-2.1,4.4-0.5,6.2
	c1.6,1.9,4.4,2.1,6.3,0.5c11.6-9.7,23.2-7.5,37.1-1.1c7.9,3.6,15.4,5.5,22.3,5.5c8.7,0,16.6-2.9,23.6-8.7c1.9-1.6,2.2-4.4,0.6-6.2
	C89.4,38.6,86.6,38.3,84.7,39.9z M84.7,65c-9.8,8.1-21.8,8.7-36.5,2c-14-6.4-30.5-11.2-46.6,2.4c-1.9,1.6-2.1,4.4-0.5,6.2
	c1.6,1.9,4.4,2.1,6.3,0.5c11.6-9.7,23.2-7.5,37.1-1.1c7.9,3.6,15.4,5.5,22.3,5.5c8.7,0,16.6-2.9,23.6-8.7c1.9-1.6,2.2-4.4,0.6-6.2
	C89.4,63.7,86.6,63.4,84.7,65z"/>
</svg>
