<?xml version="1.0" encoding="utf-8"?>
<!-- Generator: Adobe Illustrator 19.2.1, SVG Export Plug-In . SVG Version: 6.00 Build 0)  -->
<svg version="1.1" id="Layer_1" xmlns="http://www.w3.org/2000/svg" xmlns:xlink="http://www.w3.org/1999/xlink" x="0px" y="0px"
	 width="92px" height="92px" viewBox="0 0 92 92" enable-background="new 0 0 92 92" xml:space="preserve">
<path id="XMLID_29_" d="M20,28c-1.8,0-3.7-0.8-5-2.1c-1.3-1.3-2-3.1-2-4.9c0-1.8,0.8-3.6,2-5c1.3-1.3,3.1-2,5-2c1.8,0,3.6,0.8,4.9,2
	c1.3,1.3,2.1,3.1,2.1,5c0,1.8-0.8,3.6-2.1,4.9C23.6,27.2,21.8,28,20,28z M50.9,25.9c1.3-1.3,2.1-3.1,2.1-4.9c0-1.8-0.8-3.6-2.1-5
	c-1.3-1.3-3.1-2-4.9-2c-1.8,0-3.7,0.8-5,2c-1.3,1.3-2,3.1-2,5c0,1.8,0.8,3.6,2,4.9c1.3,1.3,3.1,2.1,5,2.1
	C47.8,28,49.6,27.2,50.9,25.9z M76.9,25.9c1.3-1.3,2.1-3.1,2.1-4.9c0-1.8-0.8-3.6-2.1-5c-1.3-1.3-3.1-2-4.9-2c-1.8,0-3.7,0.8-5,2
	c-1.3,1.3-2,3.1-2,5c0,1.8,0.8,3.6,2,4.9c1.3,1.3,3.1,2.1,5,2.1C73.8,28,75.6,27.2,76.9,25.9z M24.9,50.9c1.3-1.3,2.1-3.1,2.1-4.9
	c0-1.8-0.8-3.6-2.1-5c-1.3-1.3-3.1-2-4.9-2c-1.8,0-3.7,0.8-5,2c-1.3,1.3-2,3.1-2,5c0,1.8,0.8,3.6,2,4.9c1.3,1.3,3.1,2.1,5,2.1
	C21.8,53,23.6,52.2,24.9,50.9z M50.9,50.9c1.3-1.3,2.1-3.1,2.1-4.9c0-1.8-0.8-3.6-2.1-5c-1.3-1.3-3.1-2-4.9-2c-1.8,0-3.7,0.8-5,2
	c-1.3,1.3-2,3.1-2,5c0,1.8,0.8,3.6,2,4.9c1.3,1.3,3.1,2.1,5,2.1C47.8,53,49.6,52.2,50.9,50.9z M76.9,50.9c1.3-1.3,2.1-3.1,2.1-4.9
	c0-1.8-0.8-3.6-2.1-5c-1.3-1.3-3.1-2-4.9-2c-1.8,0-3.7,0.8-5,2c-1.3,1.3-2,3.1-2,5c0,1.8,0.8,3.6,2,4.9c1.3,1.3,3.1,2.1,5,2.1
	C73.8,53,75.6,52.2,76.9,50.9z M24.9,75.9c1.3-1.3,2.1-3.1,2.1-4.9c0-1.8-0.8-3.6-2.1-5c-1.3-1.3-3.1-2-4.9-2c-1.8,0-3.7,0.8-5,2
	c-1.3,1.3-2,3.1-2,5c0,1.8,0.8,3.6,2,4.9c1.3,1.3,3.1,2.1,5,2.1C21.8,78,23.6,77.2,24.9,75.9z M50.9,75.9c1.3-1.3,2.1-3.1,2.1-4.9
	c0-1.8-0.8-3.6-2.1-5c-1.3-1.3-3.1-2-4.9-2c-1.8,0-3.7,0.8-5,2c-1.3,1.3-2,3.1-2,5c0,1.8,0.8,3.6,2,4.9c1.3,1.3,3.1,2.1,5,2.1
	C47.8,78,49.6,77.2,50.9,75.9z M76.9,75.9c1.3-1.3,2.1-3.1,2.1-4.9c0-1.8-0.8-3.6-2.1-5c-1.3-1.3-3.1-2-4.9-2c-1.8,0-3.7,0.8-5,2
	c-1.3,1.3-2,3.1-2,5c0,1.8,0.8,3.6,2,4.9c1.3,1.3,3.1,2.1,5,2.1C73.8,78,75.6,77.2,76.9,75.9z"/>
</svg>
