<?xml version="1.0" encoding="utf-8"?>
<!-- Generator: Adobe Illustrator 19.2.1, SVG Export Plug-In . SVG Version: 6.00 Build 0)  -->
<svg version="1.1" id="Layer_1" xmlns="http://www.w3.org/2000/svg" xmlns:xlink="http://www.w3.org/1999/xlink" x="0px" y="0px"
	 width="92px" height="92px" viewBox="0 0 92 92" enable-background="new 0 0 92 92" xml:space="preserve">
<path id="XMLID_80_" d="M86.6,41.3H41.8c-3,0-5.4-2.4-5.4-5.4V22.4c0-3,2.4-5.4,5.4-5.4h44.7c3,0,5.4,2.4,5.4,5.4v13.5
	C92,38.9,89.6,41.3,86.6,41.3z M44.4,33.3H84V25H44.4V33.3z M86.6,75H41.8c-3,0-5.4-2.4-5.4-5.4V56.1c0-3,2.4-5.4,5.4-5.4h44.7
	c3,0,5.4,2.4,5.4,5.4v13.5C92,72.6,89.6,75,86.6,75z M44.4,67H84v-8.3H44.4V67z M23.7,41.3H5.6c-3.1,0-5.6-2.5-5.6-5.6V22.6
	C0,19.5,2.5,17,5.6,17h18.1c3.1,0,5.6,2.5,5.6,5.6v13.2C29.3,38.8,26.8,41.3,23.7,41.3z M8,33.3h13.3V25H8V33.3z M23.7,75H5.6
	C2.5,75,0,72.5,0,69.4V56.2c0-3.1,2.5-5.6,5.6-5.6h18.1c3.1,0,5.6,2.5,5.6,5.6v13.2C29.3,72.5,26.8,75,23.7,75z M8,67h13.3v-8.3H8
	V67z"/>
</svg>
