<?xml version="1.0" encoding="utf-8"?>
<!-- Generator: Adobe Illustrator 19.2.1, SVG Export Plug-In . SVG Version: 6.00 Build 0)  -->
<svg version="1.1" id="Layer_1" xmlns="http://www.w3.org/2000/svg" xmlns:xlink="http://www.w3.org/1999/xlink" x="0px" y="0px"
	 width="92px" height="92px" viewBox="0 0 92 92" enable-background="new 0 0 92 92" xml:space="preserve">
<path id="XMLID_79_" d="M34.9,40.7H7.6c-3.1,0-5.6-2.5-5.6-5.6V13.6C2,10.5,4.5,8,7.6,8h27.3c3.1,0,5.6,2.5,5.6,5.6v21.5
	C40.5,38.2,38,40.7,34.9,40.7z M10,32.7h22.5V16H10V32.7z M84.4,40.7H57.1c-3.1,0-5.6-2.5-5.6-5.6V13.6c0-3.1,2.5-5.6,5.6-5.6h27.3
	c3.1,0,5.6,2.5,5.6,5.6v21.5C90,38.2,87.5,40.7,84.4,40.7z M59.5,32.7H82V16H59.5V32.7z M34.9,84H7.6C4.5,84,2,81.5,2,78.4V56.9
	c0-3.1,2.5-5.6,5.6-5.6h27.3c3.1,0,5.6,2.5,5.6,5.6v21.5C40.5,81.5,38,84,34.9,84z M10,76h22.5V59.3H10V76z M84.4,84H57.1
	c-3.1,0-5.6-2.5-5.6-5.6V56.9c0-3.1,2.5-5.6,5.6-5.6h27.3c3.1,0,5.6,2.5,5.6,5.6v21.5C90,81.5,87.5,84,84.4,84z M59.5,76H82V59.3
	H59.5V76z"/>
</svg>
