<?xml version="1.0" encoding="utf-8"?>
<!-- Generated by IcoMoon.io -->
<!DOCTYPE svg PUBLIC "-//W3C//DTD SVG 1.1//EN" "http://www.w3.org/Graphics/SVG/1.1/DTD/svg11.dtd">
<svg version="1.1" xmlns="http://www.w3.org/2000/svg" xmlns:xlink="http://www.w3.org/1999/xlink" width="32" height="32" viewBox="0 0 32 32">
<path fill="#444444" d="M17.319 9.414c-2.444 2.444-4.5 4.435-4.597 4.435-0.081 0-1.424-0.987-2.962-2.185l-2.784-2.185-2.266 1.133v11.331l2.266 1.133 2.574-2.007c1.425-1.117 2.736-2.12 2.914-2.234 0.324-0.194 0.647 0.097 4.84 4.274l4.484 4.484 2.752-1.117 2.752-1.101v-18.195l-2.104-0.842c-1.149-0.47-2.396-0.955-2.768-1.101l-0.664-0.259-4.435 4.435zM21.706 16.278c0 2.493-0.032 4.532-0.097 4.532-0.227 0-5.73-4.435-5.682-4.581 0.049-0.178 5.471-4.468 5.666-4.468 0.065-0.016 0.114 2.023 0.114 4.516zM8.837 14.659l1.619 1.619-1.619 1.619c-0.89 0.89-1.667 1.619-1.732 1.619-0.081 0-0.13-1.457-0.13-3.237s0.048-3.238 0.13-3.238c0.065 0 0.842 0.729 1.732 1.619z"></path>
</svg>
