<?xml version="1.0" encoding="utf-8"?>
<!-- Generator: Adobe Illustrator 19.2.1, SVG Export Plug-In . SVG Version: 6.00 Build 0)  -->
<svg version="1.1" id="Layer_1" xmlns="http://www.w3.org/2000/svg" xmlns:xlink="http://www.w3.org/1999/xlink" x="0px" y="0px"
	 width="92px" height="92px" viewBox="0 0 92 92" enable-background="new 0 0 92 92" xml:space="preserve">
<path id="XMLID_788_" d="M40.3,4.3c-1.5-0.6-3.3-0.2-4.5,0.9L16.5,25H7c-2.2,0-4,1.8-4,4V63c0,2.2,1.8,4,4,4h9.5l19.2,19.8
	c0.8,0.8,1.8,1.2,2.9,1.2c0.5,0,1.2-0.1,1.7-0.3c1.5-0.6,2.7-2.1,2.7-3.7V8C43,6.4,41.8,4.9,40.3,4.3z M35,74.2L21.2,60.2
	c-0.8-0.8-2-1.2-3.1-1.2H11V33h7.2c1.1,0,2.3-0.5,3.1-1.2L35,17.8V74.2z M87.9,58c1.5,1.6,1.5,4.1-0.1,5.7C87,64.4,86,64.8,85,64.8
	c-1,0-2.1-0.4-2.9-1.2L70.6,51.7L59.1,63.6c-0.8,0.8-1.8,1.2-2.9,1.2c-1,0-2-0.4-2.8-1.1c-1.6-1.5-1.6-4.1-0.1-5.7L65,46L53.4,34
	c-1.5-1.6-1.5-4.1,0.1-5.7c1.6-1.5,4.1-1.5,5.7,0.1l11.5,11.8l11.5-11.8c1.5-1.6,4.1-1.6,5.7-0.1c1.6,1.5,1.6,4.1,0.1,5.7L76.2,46
	L87.9,58z"/>
</svg>
