<?xml version="1.0" encoding="utf-8"?>
<!-- Generator: Adobe Illustrator 19.2.1, SVG Export Plug-In . SVG Version: 6.00 Build 0)  -->
<svg version="1.1" id="Layer_1" xmlns="http://www.w3.org/2000/svg" xmlns:xlink="http://www.w3.org/1999/xlink" x="0px" y="0px"
	 width="92px" height="92px" viewBox="0 0 92 92" enable-background="new 0 0 92 92" xml:space="preserve">
<path id="XMLID_749_" d="M37.7,4.3c-1.5-0.6-3.1-0.3-4.3,0.9L13.7,25H4c-2.2,0-4,1.8-4,4V63c0,2.2,1.8,4,4,4h9.8l19.7,19.8
	c0.8,0.8,1.8,1.2,2.8,1.2c0.5,0,0.9-0.1,1.4-0.3c1.5-0.6,2.3-2.1,2.3-3.7V8C40,6.4,39.2,4.9,37.7,4.3z M32,74.3L18.1,60.2
	c-0.8-0.8-1.6-1.2-2.7-1.2H8V33h7.4c1.1,0,1.9-0.4,2.7-1.2L32,17.7V74.3z M53.2,62.9c-0.8,0.9-1.9,1.3-3,1.3c-0.9,0-1.9-0.3-2.7-1
	c-1.6-1.5-1.8-4-0.3-5.6c10-11.2,1-22,0-23.2c-1.5-1.7-1.3-4.2,0.3-5.6c1.6-1.5,4.2-1.3,5.6,0.3C58.4,34.9,65.2,49.5,53.2,62.9z
	 M65.3,73.6c-0.8,0.9-1.9,1.3-3,1.3c-0.9,0-1.9-0.3-2.7-1c-1.6-1.5-1.8-4-0.3-5.6c19.7-22.1,0.8-43.7,0-44.6
	C57.8,22,58,19.5,59.6,18c1.6-1.5,4.2-1.3,5.7,0.3C65.5,18.6,89.7,46.3,65.3,73.6z M77.9,81.7c-0.8,0.9-1.9,1.3-3,1.3
	c-0.9,0-1.9-0.3-2.7-1c-1.6-1.5-1.8-4-0.3-5.6c11.2-12.6,14.7-26.6,10.2-41.5c-3.4-11.4-10.1-19-10.2-19.1c-1.5-1.6-1.3-4.2,0.3-5.6
	c1.6-1.5,4.2-1.3,5.7,0.3C78.2,10.7,109.4,46.4,77.9,81.7z"/>
</svg>
