<?xml version="1.0" encoding="utf-8"?>
<!-- Generator: Adobe Illustrator 19.2.1, SVG Export Plug-In . SVG Version: 6.00 Build 0)  -->
<svg version="1.1" id="Layer_1" xmlns="http://www.w3.org/2000/svg" xmlns:xlink="http://www.w3.org/1999/xlink" x="0px" y="0px"
	 width="92px" height="92px" viewBox="0 0 92 92" enable-background="new 0 0 92 92" xml:space="preserve">
<path id="XMLID_775_" d="M53.7,4.3c-1.5-0.6-3.1-0.3-4.3,0.9L29.8,25H20c-2.2,0-4,1.8-4,4V63c0,2.2,1.8,4,4,4h9.8l19.8,19.8
	c0.8,0.8,1.8,1.2,2.8,1.2c0.5,0,0.8-0.1,1.3-0.3c1.5-0.6,2.3-2.1,2.3-3.7V8C56,6.4,55.2,4.9,53.7,4.3z M48,74.3L34.1,60.2
	c-0.8-0.8-1.6-1.2-2.6-1.2H24V33h7.4c1.1,0,1.9-0.4,2.6-1.2L48,17.7V74.3z M69.3,62.9c-0.8,0.9-1.9,1.3-3,1.3c-1,0-1.9-0.3-2.7-1
	c-1.6-1.5-1.8-4-0.3-5.6c10.3-11.5,0.4-22.7,0-23.2c-1.5-1.6-1.3-4.2,0.3-5.6c1.6-1.5,4.2-1.3,5.6,0.3
	C74.5,34.9,81.3,49.5,69.3,62.9z"/>
</svg>
