<?xml version="1.0" encoding="utf-8"?>
<!-- Generator: Adobe Illustrator 19.2.1, SVG Export Plug-In . SVG Version: 6.00 Build 0)  -->
<svg version="1.1" id="Layer_1" xmlns="http://www.w3.org/2000/svg" xmlns:xlink="http://www.w3.org/1999/xlink" x="0px" y="0px"
	 width="92px" height="92px" viewBox="0 0 92 92" enable-background="new 0 0 92 92" xml:space="preserve">
<path id="XMLID_762_" d="M45.6,4.3c-1.5-0.6-3.2-0.3-4.3,0.9L21.7,25H12c-2.2,0-4,1.8-4,4V63c0,2.2,1.8,4,4,4h9.7l19.7,19.8
	c0.8,0.8,1.8,1.2,2.8,1.2c0.5,0,0.9-0.1,1.4-0.3c1.5-0.6,2.4-2.1,2.4-3.7V8C48,6.4,47.1,4.9,45.6,4.3z M40,74.3L26.1,60.2
	c-0.8-0.8-1.7-1.2-2.7-1.2H16V33h7.4c1.1,0,2-0.4,2.7-1.2L40,17.7V74.3z M61.1,62.9c-0.8,0.9-1.9,1.3-3,1.3c-0.9,0-1.9-0.3-2.7-1
	c-1.7-1.5-1.8-4-0.3-5.6c10-11.2,1-22,0-23.2c-1.5-1.7-1.3-4.2,0.4-5.6c1.7-1.5,4.2-1.3,5.6,0.3C66.3,34.9,73,49.5,61.1,62.9z
	 M73.1,73.6c-0.8,0.9-1.9,1.3-3,1.3c-0.9,0-1.9-0.3-2.7-1c-1.7-1.5-1.8-4-0.3-5.6c19.6-21.9,0.8-43.7,0-44.6
	c-1.5-1.7-1.3-4.2,0.3-5.6c1.7-1.5,4.2-1.3,5.6,0.3C73.4,18.6,97.5,46.3,73.1,73.6z"/>
</svg>
