<?xml version="1.0" encoding="utf-8"?>
<!-- Generated by IcoMoon.io -->
<!DOCTYPE svg PUBLIC "-//W3C//DTD SVG 1.1//EN" "http://www.w3.org/Graphics/SVG/1.1/DTD/svg11.dtd">
<svg version="1.1" xmlns="http://www.w3.org/2000/svg" xmlns:xlink="http://www.w3.org/1999/xlink" width="32" height="32" viewBox="0 0 32 32">
<path fill="#444444" d="M25.436 11.661l-0.393 0.783-0.052-0.092c-0.086-0.15-0.274-0.429-0.378-0.558-0.28-0.348-0.661-0.603-1.046-0.699-0.155-0.038-0.456-0.039-0.597-0.001-0.275 0.075-0.536 0.236-0.78 0.482-0.291 0.292-0.53 0.683-0.729 1.189-0.219 0.556-0.33 1.103-0.367 1.817-0.041 0.776 0.067 1.529 0.311 2.183 0.061 0.16 0.143 0.353 0.149 0.347 0.002-0.002-0.004-0.043-0.013-0.092-0.058-0.304-0.082-0.919-0.054-1.358 0.030-0.456 0.118-0.888 0.29-1.418 0.176-0.548 0.385-0.908 0.724-1.257 0.342-0.351 0.648-0.505 1.051-0.528 0.288-0.015 0.511 0.057 0.831 0.27 0.302 0.203 0.584 0.523 0.813 0.927 0.035 0.061 0.067 0.106 0.072 0.101 0.018-0.020 0.777-1.485 0.782-1.508 0.004-0.020-0.2-1.312-0.215-1.359-0.002-0.006-0.181 0.341-0.397 0.771zM5.873 10.969c0.003 0.016 0.718 2.429 1.588 5.365l1.581 5.338h0.141l0.99-3.315c0.544-1.824 0.993-3.316 0.996-3.316s0.452 1.492 0.996 3.316l0.99 3.315h0.139l1.362-4.596c1.344-4.536 1.363-4.597 1.424-4.703l0.063-0.108h2.245l-0.040 0.068c-0.023 0.038-0.44 0.76-0.928 1.606l-0.889 1.536v0.639h0.35c0.37 0 0.526 0.011 0.713 0.048 0.691 0.141 1.138 0.595 1.301 1.324 0.091 0.404 0.101 0.901 0.030 1.321-0.112 0.662-0.442 1.224-0.845 1.439-0.161 0.087-0.239 0.104-0.465 0.102-0.172-0.001-0.211-0.005-0.311-0.031-0.269-0.073-0.446-0.177-0.66-0.394-0.209-0.211-0.354-0.43-0.496-0.744-0.036-0.080-0.063-0.128-0.073-0.125-0.014 0.004-0.877 0.36-1.013 0.418l-0.057 0.024 0.048 0.133c0.293 0.821 0.829 1.474 1.476 1.797 0.306 0.154 0.597 0.23 0.953 0.25 0.63 0.036 1.198-0.126 1.659-0.477 0.13-0.098 0.36-0.322 0.469-0.457 0.429-0.53 0.679-1.133 0.782-1.883 0.035-0.255 0.044-0.796 0.018-1.066-0.106-1.107-0.581-1.981-1.348-2.482-0.148-0.097-0.386-0.216-0.566-0.282-0.075-0.029-0.142-0.056-0.146-0.060-0.005-0.005 0.43-0.766 0.968-1.693l0.978-1.685v-0.649h-5.214l-0.959 3.259c-0.527 1.792-0.96 3.259-0.964 3.259s-0.411-1.377-0.904-3.060c-0.494-1.682-0.926-3.148-0.958-3.259l-0.060-0.199h-0.696c-0.658 0-0.696 0.001-0.69 0.020 0.004 0.012 0.147 0.492 0.317 1.066l0.311 1.044-0.647 2.194c-0.356 1.207-0.649 2.193-0.653 2.193s-0.437-1.467-0.964-3.259l-0.958-3.259h-1.391l0.006 0.026zM20.606 18.477c0 0.020 0.194 0.587 0.245 0.718 0.069 0.179 0.251 0.549 0.362 0.742 0.199 0.343 0.45 0.676 0.703 0.929 0.418 0.422 0.835 0.651 1.346 0.741 0.119 0.020 0.548 0.020 0.667 0 0.355-0.063 0.667-0.193 0.941-0.394 0.475-0.347 0.885-0.823 1.189-1.38l0.073-0.133-0.1-0.519c-0.055-0.287-0.101-0.523-0.105-0.526-0.002-0.002-0.054 0.080-0.116 0.183-0.144 0.243-0.311 0.494-0.413 0.622-0.044 0.055-0.169 0.189-0.278 0.298-0.305 0.306-0.542 0.485-0.825 0.618-0.421 0.2-0.733 0.267-1.123 0.239-0.28-0.019-0.437-0.054-0.675-0.15-0.346-0.138-0.608-0.319-0.956-0.659-0.309-0.304-0.442-0.488-0.796-1.102-0.135-0.233-0.141-0.244-0.141-0.229z"></path>
</svg>
