<?xml version="1.0" encoding="utf-8"?>
<!-- Generator: Adobe Illustrator 19.2.1, SVG Export Plug-In . SVG Version: 6.00 Build 0)  -->
<svg version="1.1" id="Layer_1" xmlns="http://www.w3.org/2000/svg" xmlns:xlink="http://www.w3.org/1999/xlink" x="0px" y="0px"
	 width="92px" height="92px" viewBox="0 0 92 92" enable-background="new 0 0 92 92" xml:space="preserve">
<path d="M72.3,49.3c1.3,1.3,2,3.1,2,5c0,1.8-0.7,3.6-2,4.9c-1.3,1.3-3.1,2.1-5,2.1c-1.8,0-3.6-0.8-5-2.1c-1.3-1.3-2-3.1-2-4.9
	c0-1.9,0.8-3.6,2-5c1.3-1.3,3.1-2,5-2C69.2,47.2,71,48,72.3,49.3z M91,33.7v44.2c0,4.5-3.6,8.1-8.1,8.1H10.5C5.3,86,1,81.7,1,76.5
	v-36v-8.4V18C1,11.4,6.4,6,13,6h55.3c5.5,0,9.7,4.5,9.7,10v6h1.8C86,22,91,27.5,91,33.7z M8.4,18c0,2.2,1.8,4,4,4H70v-6.2
	c0-1-0.8-1.8-1.8-1.8H12.4C10.2,14,8.4,15.8,8.4,18z M83,33.7c0-1.7-1.4-3.7-3.2-3.7H10.6C9.7,30,9,31.2,9,32.1v8.4v36
	c0,0.8,0.7,1.5,1.5,1.5h72.4c0.1,0,0.1-0.1,0.1-0.1V33.7z"/>
</svg>
