<?xml version="1.0" encoding="utf-8"?>
<!-- Generator: Adobe Illustrator 19.2.1, SVG Export Plug-In . SVG Version: 6.00 Build 0)  -->
<svg version="1.1" id="Layer_1" xmlns="http://www.w3.org/2000/svg" xmlns:xlink="http://www.w3.org/1999/xlink" x="0px" y="0px"
	 width="92px" height="92px" viewBox="0 0 92 92" enable-background="new 0 0 92 92" xml:space="preserve">
<path id="XMLID_1666_" d="M46,0C20.6,0,0,20.6,0,46s20.6,46,46,46s46-20.6,46-46S71.4,0,46,0z M49.7,83.8c-0.2,0-0.4,0-0.7,0.1V62.2
	c5.2-0.1,9.9-0.2,14.2-0.5C59.4,73.4,52.3,81.2,49.7,83.8z M42.3,83.8c-2.7-2.7-9.7-10.5-13.5-22.1c4.2,0.3,9,0.5,14.2,0.5v21.7
	C42.8,83.9,42.6,83.8,42.3,83.8z M8,46c0-2.5,0.3-5,0.7-7.4c2.2-0.4,6.4-1,12.3-1.6c-0.5,2.9-0.8,5.9-0.8,9.1c0,3.2,0.3,6.2,0.7,9
	c-5.8-0.6-10.1-1.2-12.3-1.6C8.3,51,8,48.5,8,46z M26.3,46c0-3.4,0.4-6.6,1-9.6c4.6-0.3,9.8-0.6,15.7-0.6v20.4
	c-5.8-0.1-11.1-0.3-15.8-0.7C26.7,52.6,26.3,49.4,26.3,46z M49.6,8.2c2.7,2.7,9.6,10.7,13.5,22.1c-4.2-0.3-8.9-0.5-14.1-0.5V8.1
	C49.2,8.1,49.4,8.2,49.6,8.2z M43,8.1v21.7c-5.2,0.1-9.9,0.2-14.1,0.5c3.8-11.4,10.8-19.4,13.4-22.1C42.6,8.2,42.8,8.1,43,8.1z
	 M49,56.2V35.8c5.8,0.1,11.1,0.3,15.7,0.6c0.6,3,1,6.2,1,9.6c0,3.4-0.3,6.6-0.9,9.6C60.2,55.9,54.9,56.1,49,56.2z M70.9,37
	c5.9,0.6,10.1,1.2,12.3,1.6C83.7,41,84,43.5,84,46c0,2.5-0.3,5-0.7,7.4c-2.2,0.4-6.4,1-12.3,1.6c0.5-2.9,0.7-5.9,0.7-9.1
	C71.7,42.9,71.4,39.8,70.9,37z M81.4,32.2c-2.8-0.4-6.8-0.9-11.9-1.4c-2.4-8.6-6.6-15.5-10.1-20.4C69.5,14.2,77.5,22.2,81.4,32.2z
	 M32.6,10.4c-3.6,4.8-7.7,11.7-10.1,20.3c-5,0.4-9,1-11.9,1.4C14.5,22.2,22.6,14.2,32.6,10.4z M10.6,59.8c2.8,0.4,6.8,0.9,11.8,1.4
	c2.4,8.6,6.4,15.5,10,20.3C22.4,77.6,14.5,69.7,10.6,59.8z M59.6,81.5c3.6-4.8,7.6-11.6,10-20.2c5-0.4,9-1,11.8-1.4
	C77.5,69.7,69.6,77.6,59.6,81.5z"/>
</svg>
