<?xml version="1.0" encoding="utf-8"?>
<!-- Generated by IcoMoon.io -->
<!DOCTYPE svg PUBLIC "-//W3C//DTD SVG 1.1//EN" "http://www.w3.org/Graphics/SVG/1.1/DTD/svg11.dtd">
<svg version="1.1" xmlns="http://www.w3.org/2000/svg" xmlns:xlink="http://www.w3.org/1999/xlink" width="32" height="32" viewBox="0 0 32 32">
<path fill="#444444" d="M7.695 4.961c-0.253 0.042-0.601 0.163-0.866 0.3-0.699 0.357-1.227 0.981-1.483 1.741-0.154 0.463-0.143-0.225-0.143 8.724 0 7.142 0.004 8.102 0.033 8.274 0.128 0.736 0.533 1.428 1.102 1.873 0.571 0.445 1.166 0.648 1.895 0.648 0.646 0 1.179-0.159 1.712-0.509 0.181-0.121 0.535-0.465 3.131-3.058l2.924-2.922 2.926 2.922c2.593 2.593 2.948 2.937 3.129 3.058 0.533 0.35 1.067 0.509 1.712 0.509 0.346 0 0.626-0.037 0.897-0.123 1.108-0.348 1.917-1.269 2.1-2.393 0.029-0.181 0.033-1.205 0.033-8.281 0-8.946 0.011-8.259-0.143-8.722-0.308-0.921-1.011-1.624-1.932-1.932-0.304-0.101-0.582-0.143-0.954-0.143s-0.65 0.042-0.954 0.143c-1.062 0.357-1.816 1.223-2.047 2.353-0.033 0.165-0.037 0.555-0.044 4.442l-0.009 4.264-1.404-1.401c-1.525-1.52-1.538-1.531-2.012-1.756-0.811-0.388-1.785-0.388-2.596 0-0.474 0.225-0.487 0.236-2.012 1.756l-1.404 1.401-0.009-4.264c-0.009-4.715 0.002-4.361-0.15-4.839-0.339-1.066-1.287-1.888-2.378-2.067-0.26-0.042-0.8-0.040-1.056 0.002zM8.493 6.766c0.441 0.093 0.824 0.469 0.93 0.917 0.194 0.824-0.531 1.606-1.371 1.479-0.39-0.059-0.732-0.311-0.908-0.668-0.45-0.917 0.348-1.939 1.348-1.728zM24.027 6.766c0.701 0.148 1.133 0.915 0.89 1.582-0.141 0.39-0.403 0.641-0.809 0.778-0.086 0.029-0.185 0.042-0.342 0.042s-0.256-0.013-0.342-0.042c-0.35-0.117-0.597-0.326-0.747-0.632-0.45-0.917 0.348-1.939 1.349-1.728zM16.306 14.544c0.754 0.2 1.124 1.036 0.769 1.736-0.13 0.258-0.405 0.491-0.696 0.593-0.209 0.070-0.549 0.070-0.758 0-0.529-0.183-0.855-0.663-0.826-1.216 0.026-0.531 0.379-0.972 0.89-1.113 0.143-0.040 0.476-0.040 0.621 0zM8.618 22.334c0.851 0.289 1.106 1.36 0.474 1.994-0.247 0.249-0.516 0.364-0.855 0.364-0.337 0-0.615-0.115-0.855-0.352-0.476-0.472-0.48-1.236-0.009-1.708 0.154-0.154 0.388-0.286 0.591-0.333 0.187-0.042 0.474-0.026 0.654 0.035zM24.153 22.332c0.851 0.289 1.106 1.362 0.474 1.996-0.249 0.251-0.516 0.364-0.859 0.364-0.322 0-0.59-0.106-0.824-0.322-0.707-0.654-0.401-1.831 0.54-2.069 0.181-0.044 0.485-0.031 0.67 0.031z"></path>
</svg>
