<?xml version="1.0" encoding="utf-8"?>
<!-- Generator: Adobe Illustrator 19.2.1, SVG Export Plug-In . SVG Version: 6.00 Build 0)  -->
<svg version="1.1" id="Layer_1" xmlns="http://www.w3.org/2000/svg" xmlns:xlink="http://www.w3.org/1999/xlink" x="0px" y="0px"
	 width="92px" height="92px" viewBox="0 0 92 92" enable-background="new 0 0 92 92" xml:space="preserve">
<path id="XMLID_2112_" d="M81.2,31.1c-0.4-4-3.8-7.1-7.9-7.1H66v-1.8C66,10.5,57.4,1,46.2,1h-0.4C34.6,1,26,10.5,26,22.2V24h-7.3
	c-4.1,0-7.4,3.1-7.9,7.1L5,86.5c-0.1,1.1,0.2,2.3,1,3.1C6.8,90.5,7.9,91,9,91h74c1.1,0,2.2-0.5,3-1.3c0.8-0.8,1.1-2,1-3.1L81.2,31.1
	z M34,22.2C34,14.9,39.1,9,45.8,9h0.4C52.9,9,58,14.9,58,22.2V24H34V22.2z M13.4,83l5.3-51h54.4l5.3,51H13.4z"/>
</svg>
