<?xml version="1.0" encoding="utf-8"?>
<!-- Generator: Adobe Illustrator 19.2.1, SVG Export Plug-In . SVG Version: 6.00 Build 0)  -->
<svg version="1.1" id="Layer_1" xmlns="http://www.w3.org/2000/svg" xmlns:xlink="http://www.w3.org/1999/xlink" x="0px" y="0px"
	 width="92px" height="92px" viewBox="0 0 92 92" enable-background="new 0 0 92 92" xml:space="preserve">
<path id="XMLID_2134_" d="M76.1,40.6c2,1.9,2.2,5,0.3,7c-1,1.1-2.3,1.6-3.7,1.6c-1.2,0-2.4-0.4-3.4-1.3c-22.2-20.3-46.1-1-47.1-0.2
	c-2.1,1.8-5.3,1.5-7-0.6c-1.8-2.1-1.5-5.2,0.6-7C26.7,31,53.1,19.5,76.1,40.6z M46.3,68.4c-2.5,0-5,1-6.7,2.8
	c-1.8,1.8-2.8,4.2-2.8,6.7s1,4.9,2.8,6.7c1.8,1.8,4.2,2.8,6.7,2.8s5-1,6.7-2.8c1.8-1.8,2.8-4.2,2.8-6.7s-1-4.9-2.8-6.7
	C51.2,69.4,48.8,68.4,46.3,68.4z M90.3,27C66.6,6.3,43.7,7.4,28.6,12C12.5,16.9,2,26.5,1.6,27c-2,1.9-2.1,5-0.2,7
	c1.9,2,5.1,2.1,7.1,0.2c0.1-0.1,9.2-8.5,23.1-12.7c18.4-5.6,35.9-1.2,52.2,13c0.9,0.8,2.1,1.2,3.3,1.2c1.4,0,2.8-0.6,3.8-1.7
	C92.6,32,92.4,28.8,90.3,27z M29.5,54.3c-2.2,1.7-2.5,4.8-0.8,7c1.7,2.2,4.9,2.5,7,0.8c0.4-0.3,11-8.5,20-0.1c1,0.9,2.2,1.3,3.4,1.3
	c1.3,0,2.7-0.5,3.7-1.6c1.9-2,1.8-5.2-0.3-7C50.4,43.5,35.6,49.6,29.5,54.3z"/>
</svg>
