<?xml version="1.0" encoding="utf-8"?>
<!-- Generated by IcoMoon.io -->
<!DOCTYPE svg PUBLIC "-//W3C//DTD SVG 1.1//EN" "http://www.w3.org/Graphics/SVG/1.1/DTD/svg11.dtd">
<svg version="1.1" xmlns="http://www.w3.org/2000/svg" xmlns:xlink="http://www.w3.org/1999/xlink" width="32" height="32" viewBox="0 0 32 32">
<path fill="#444444" d="M4.681 16.27c0 4.473 2.6 8.342 6.371 10.171l-5.391-14.773c-0.628 1.407-0.98 2.962-0.98 4.602zM23.616 15.699c0-1.397-0.503-2.365-0.932-3.118-0.573-0.932-1.109-1.719-1.109-2.652 0-1.039 0.785-2.006 1.898-2.006 0.048 0 0.097 0.007 0.145 0.010-2.010-1.842-4.689-2.968-7.632-2.968-3.95 0-7.424 2.027-9.444 5.096 0.266 0.008 0.515 0.014 0.727 0.014 1.183 0 3.013-0.145 3.013-0.145 0.608-0.034 0.68 0.859 0.071 0.932 0 0-0.611 0.071-1.293 0.108l4.117 12.243 2.474-7.418-1.762-4.825c-0.609-0.037-1.185-0.108-1.185-0.108-0.61-0.037-0.537-0.966 0.073-0.932 0 0 1.865 0.145 2.976 0.145 1.182 0 3.014-0.145 3.014-0.145 0.607-0.034 0.679 0.859 0.070 0.932 0 0-0.611 0.071-1.292 0.108l4.085 12.15 1.128-3.766c0.573-1.47 0.861-2.686 0.861-3.655zM16.184 17.259l-3.393 9.856c1.012 0.297 2.082 0.459 3.194 0.459 1.315 0 2.579-0.228 3.754-0.642-0.030-0.048-0.058-0.099-0.081-0.154l-3.474-9.519zM25.904 10.846c0.050 0.361 0.078 0.747 0.078 1.164 0 1.146-0.215 2.435-0.861 4.049l-3.453 9.981c3.36-1.958 5.619-5.598 5.619-9.769 0-1.967-0.502-3.814-1.384-5.425z"></path>
</svg>
