<?xml version="1.0" encoding="utf-8"?>
<!-- Generator: Adobe Illustrator 19.2.1, SVG Export Plug-In . SVG Version: 6.00 Build 0)  -->
<svg version="1.1" id="Layer_1" xmlns="http://www.w3.org/2000/svg" xmlns:xlink="http://www.w3.org/1999/xlink" x="0px" y="0px"
	 width="92px" height="92px" viewBox="0 0 92 92" enable-background="new 0 0 92 92" xml:space="preserve">
<path id="XMLID_1517_" d="M78.5,13.5c-17.9-17.9-47.1-17.9-65.1,0c-17.9,17.9-17.9,47.1,0,65.1c9,9,20.8,13.5,32.5,13.5
	c11.8,0,23.6-4.5,32.5-13.5C96.5,60.6,96.5,31.4,78.5,13.5z M19.1,72.9C5.3,59,4.4,37,16.4,22.1l53.5,53.5
	C55,87.6,33,86.8,19.1,72.9z M75.6,69.9L22.1,16.4C29,10.8,37.5,8,46,8c9.7,0,19.5,3.7,26.9,11.1C86.7,33,87.6,55,75.6,69.9z"/>
</svg>
