<?xml version="1.0" encoding="utf-8"?>
<!-- Generated by IcoMoon.io -->
<!DOCTYPE svg PUBLIC "-//W3C//DTD SVG 1.1//EN" "http://www.w3.org/Graphics/SVG/1.1/DTD/svg11.dtd">
<svg version="1.1" xmlns="http://www.w3.org/2000/svg" xmlns:xlink="http://www.w3.org/1999/xlink" width="32" height="32" viewBox="0 0 32 32">
<path fill="#444444" d="M7.787 13.402l-0.001 0 0.001-0.001c-0.239 0.084-0.434 0.079-0.669 0l-0.001-0.001c-0.773 1.94-1.664 4.129-2.465 5.762l0.007-0.002-0.004 0.002c0.366-0.091 0.716-0.063 0.947-0-0-0-0.001-0.001-0.002-0.001l0.001 0c0.204-0.516 0.437-1.101 0.669-1.689l0.001 0.001c0.787-0.023 1.574-0.026 2.361 0l0-0c0.224 0.563 0.448 1.126 0.667 1.69v0c0 0 0 0 0 0 0.35-0.092 0.699-0.067 0.957-0.002h0l0.001 0-0.001-0c-0.577-1.078-1.735-3.898-2.472-5.76zM8.473 17.072c-0.681 0.024-1.362 0.024-2.042 0l-0 0c0.417-1.057 0.812-2.077 1.021-2.677 0.318 0.887 0.669 1.782 1.024 2.678l-0.003-0.001zM4.652 19.165l0.003-0.001c-0.001 0-0.002 0-0.003 0.001v0.001zM6.042 12.636c-0 0-0 0-0.001 0l0-0c-0.346 0.078-0.658 0.081-0.967 0-0.273 0.508-1.279 2.153-1.92 3.206-0.65-1.076-1.419-2.318-1.92-3.206-0.397 0.085-0.564 0.090-0.96 0 0.787 1.186 2.048 3.444 2.477 4.186l-0.057 3.091c0 0 0.277-0.046 0.462-0.046 0.205 0 0.46 0.046 0.46 0.046l-0.058-3.091c0.8-1.404 2.122-3.695 2.484-4.186zM18.976 13.326c-2.037 0-3.105 1.291-3.105 2.965 0 1.832 1.166 2.949 3.102 2.949 2.093 0 3.115-1.259 3.115-2.93 0-1.863-1.22-2.984-3.111-2.984zM18.982 18.915c-1.358 0-2.155-0.973-2.155-2.614 0-1.856 0.983-2.603 2.099-2.626 0.018-0 0.036 0 0.053 0 1.245 0 2.16 0.848 2.16 2.621-0 1.77-0.913 2.618-2.157 2.618zM30.221 19.015c-0.302 0-0.453 0.23-0.453 0.478 0 0.292 0.233 0.442 0.522 0.442 0.209 0 0.436-0.127 0.436-0.471 0-0.276-0.216-0.449-0.505-0.449zM31.323 12.72l-0 0v-0c0 0-0.060-0.008-0.1-0.008-0.23 0-0.459 0.135-0.459 0.48-0.137 1.734-0.279 3.472-0.513 5.126l-0.001 0.001c0 0 0 0 0.001-0v0l0.001-0c0.142-0.024 0.251 0.013 0.358 0.056l-0.001-0.001c0.266-1.68 0.897-4.197 1.058-4.909 0.023-0.1 0.058-0.219 0.058-0.303 0-0.254-0.161-0.402-0.402-0.442zM26.007 12.98c-2.028 0-3.578 1.152-3.578 3.293 0 1.764 1.031 3.317 3.595 3.317 2.171 0 3.588-1.193 3.588-3.286 0-1.973-1.322-3.324-3.605-3.324zM26.012 19.241c-1.373 0-2.624-0.806-2.624-2.981 0-2.255 1.387-2.922 2.622-2.922 1.523 0 2.645 0.925 2.645 2.966-0 2.218-1.357 2.938-2.642 2.938zM14.635 13.404c0.047 0.895 0.070 1.791 0.073 2.688-1.073 0.025-2.145 0.027-3.216 0 0.003-0.897 0.026-1.793 0.073-2.688-0.314 0.076-0.634 0.078-0.96 0 0.084 1.923 0.076 3.843 0 5.76 0.312-0.075 0.631-0.078 0.959 0l-0.002-0.001 0.003 0.001c-0.047-0.894-0.070-1.787-0.073-2.679 1.072-0.015 2.144-0.016 3.216-0.001-0.003 0.893-0.026 1.786-0.073 2.68l0.003-0.001-0.002 0.001c0.328-0.078 0.647-0.075 0.959 0-0.076-1.917-0.084-3.836 0-5.76-0.326 0.078-0.646 0.076-0.96-0z"></path>
</svg>
