<?xml version="1.0" encoding="utf-8"?>
<!-- Generated by IcoMoon.io -->
<!DOCTYPE svg PUBLIC "-//W3C//DTD SVG 1.1//EN" "http://www.w3.org/Graphics/SVG/1.1/DTD/svg11.dtd">
<svg version="1.1" xmlns="http://www.w3.org/2000/svg" xmlns:xlink="http://www.w3.org/1999/xlink" width="32" height="32" viewBox="0 0 32 32">
<path fill="#444444" d="M16.83 15.028l-0.069-0.189c-0.016 0.009-0.033 0.018-0.050 0.026l0.119 0.162zM17.336 14.624l-0.132-0.151c-0.012 0.015-0.026 0.028-0.038 0.042l0.17 0.109zM17.662 14.063l-0.178-0.093c-0.006 0.018-0.013 0.036-0.019 0.053l0.197 0.040zM17.763 13.423l-0.201-0.023c0.001 0.019 0.003 0.038 0.003 0.057l0.198-0.034zM17.627 12.789l-0.195 0.051c0.008 0.017 0.015 0.035 0.022 0.052l0.173-0.103zM14.977 14.908l0.138-0.145c-0.016-0.011-0.030-0.023-0.045-0.034l-0.092 0.179zM16.211 15.223l0.004-0.201c-0.019 0.003-0.037 0.007-0.056 0.008l0.052 0.193zM15.564 15.181l0.077-0.186c-0.018-0.004-0.037-0.009-0.055-0.014l-0.022 0.2zM15.115 14.763c0.142 0.098 0.301 0.171 0.472 0.218l0.088-0.806-0.559 0.588zM16.743 11.872l-0.11 0.169c0.017 0.008 0.034 0.016 0.051 0.025l0.058-0.193zM14.476 12.585l0.157 0.124c0.009-0.017 0.019-0.032 0.029-0.048l-0.187-0.076zM14.258 13.195l0.191 0.059c0.003-0.019 0.005-0.037 0.009-0.056l-0.2-0.003zM14.276 13.843l0.199-0.014c-0.004-0.018-0.009-0.036-0.013-0.055l-0.187 0.069zM17.271 12.248l-0.163 0.118c0.013 0.013 0.025 0.028 0.038 0.042l0.125-0.16zM14.526 14.441l0.181-0.085c-0.011-0.016-0.020-0.032-0.030-0.048l-0.151 0.133zM15.641 14.995c0.116 0.027 0.235 0.043 0.359 0.043 0.054 0 0.107-0.003 0.16-0.008l-0.21-0.784-0.309 0.749zM16.115 11.712l-0.041 0.198c0.019 0.001 0.038 0.001 0.057 0.003l-0.015-0.2zM15.471 11.789l0.033 0.198c0.018-0.006 0.036-0.012 0.054-0.017l-0.086-0.181zM14.899 12.094l0.102 0.172c0.015-0.012 0.030-0.023 0.045-0.034l-0.147-0.138zM16.761 14.84c0.153-0.085 0.289-0.196 0.405-0.325l-0.681-0.437 0.276 0.762zM16.476 13.543c0 0.263-0.213 0.476-0.476 0.476s-0.476-0.213-0.476-0.476c0-0.263 0.213-0.476 0.476-0.476s0.476 0.213 0.476 0.476zM14.476 13.829c0.040 0.172 0.109 0.334 0.201 0.479l0.608-0.536-0.809 0.057zM14.45 13.254c-0.010 0.071-0.017 0.144-0.017 0.218 0 0.103 0.011 0.204 0.030 0.302l0.762-0.281-0.775-0.239zM15.069 14.729l0.372-0.719-0.734 0.346c0.099 0.144 0.222 0.269 0.362 0.373zM16 15.642c1.197 0 2.17-0.973 2.17-2.169s-0.974-2.171-2.17-2.171-2.17 0.974-2.17 2.171c0 1.196 0.974 2.169 2.17 2.169zM16 11.67c0.994 0 1.802 0.809 1.802 1.802s-0.809 1.802-1.802 1.802-1.802-0.808-1.802-1.802c0-0.994 0.809-1.802 1.802-1.802zM14.633 12.709c-0.084 0.15-0.143 0.315-0.175 0.49l0.811 0.013-0.636-0.503zM21.889 22.537c-4.13-1.028-5.889 1.067-5.889 1.067-0.020 2.095 2.846 5.85 6.363 6.304s5.77-1.225 5.77-1.225-2.114-5.118-6.244-6.146zM10.111 22.537c-4.13 1.027-6.244 6.146-6.244 6.146s2.253 1.68 5.77 1.225c3.517-0.454 6.383-4.209 6.363-6.304 0-0-1.759-2.095-5.889-1.067zM16.216 15.022c0.176-0.024 0.343-0.078 0.495-0.156l-0.478-0.654-0.018 0.81zM4.499 18.209h23.002l0.711-2.134h-3.378l0.662-3.826 0.881-5.095c0 0-2.327-4.568-10.326-4.568-9.723 0-10.428 4.568-10.428 4.568l1.543 8.921h-3.379l0.711 2.134zM16 10.976c1.377 0 2.497 1.12 2.497 2.497 0 1.376-1.12 2.495-2.497 2.495s-2.497-1.12-2.497-2.495c0-1.377 1.12-2.497 2.497-2.497zM17.563 13.4c-0.008-0.178-0.046-0.349-0.109-0.508l-0.695 0.415 0.804 0.092zM17.484 13.97c0.053-0.156 0.082-0.324 0.082-0.498 0-0.005-0.001-0.010-0.001-0.015l-0.799 0.137 0.718 0.376zM17.204 14.473c0.111-0.133 0.198-0.285 0.261-0.449l-0.794-0.161 0.533 0.611zM17.432 12.84c-0.071-0.16-0.168-0.306-0.286-0.433l-0.497 0.637 0.784-0.205zM17.108 12.366c-0.122-0.123-0.266-0.224-0.423-0.3l-0.234 0.775 0.657-0.474zM15.001 12.267c-0.134 0.111-0.248 0.245-0.338 0.394l0.751 0.305-0.412-0.699zM16.073 11.909c-0.025-0.001-0.049-0.004-0.073-0.004-0.154 0-0.302 0.023-0.442 0.065l0.35 0.732 0.166-0.792zM15.504 11.987c-0.167 0.056-0.321 0.139-0.458 0.245l0.59 0.555-0.132-0.8zM16.633 12.040c-0.156-0.069-0.325-0.114-0.503-0.128l0.062 0.807 0.441-0.679z"></path>
</svg>
