<?xml version="1.0" encoding="utf-8"?>
<!-- Generated by IcoMoon.io -->
<!DOCTYPE svg PUBLIC "-//W3C//DTD SVG 1.1//EN" "http://www.w3.org/Graphics/SVG/1.1/DTD/svg11.dtd">
<svg version="1.1" xmlns="http://www.w3.org/2000/svg" xmlns:xlink="http://www.w3.org/1999/xlink" width="32" height="32" viewBox="0 0 32 32">
<path fill="#444444" d="M26.783 0.593c-3.563 0.133-7.895 4.609-6.413 8.783 1.569 4.141 2.574 7.087 2.784 11.708 3.766-3.789 7.225-7.902 7.504-12.675 0.092-3.873-1.741-6.728-3.876-7.815zM17.387 17.789c-0.535 0.956-1.237 1.994-2.152 3.132-1.923 2.423-3.862 6.398-3.265 11.058 7.943-0.877 10.423-6.838 10.641-10.114-1.497-2.259-4.213-3.649-5.224-4.076zM1.369 3.489c-0.282 3.646 1.277 9.067 7.599 10.792 2.662 0.788 4.527 1.274 6.546 2.007 2.952 1.073 5.269 2.442 7.105 4.805-0.341-4.066-2.015-8.726-4.69-12.36-3.815-5.185-10.422-7.674-16.561-5.244z"></path>
</svg>
