<?xml version="1.0" encoding="utf-8"?>
<!-- Generated by IcoMoon.io -->
<!DOCTYPE svg PUBLIC "-//W3C//DTD SVG 1.1//EN" "http://www.w3.org/Graphics/SVG/1.1/DTD/svg11.dtd">
<svg version="1.1" xmlns="http://www.w3.org/2000/svg" xmlns:xlink="http://www.w3.org/1999/xlink" width="32" height="32" viewBox="0 0 32 32">
<path fill="#444444" d="M15.334 14.023c0 0 0-2.972 2.972-2.972h8.917c0 0 0 2.972-2.972 2.972h-8.917zM15.334 17.821c0 0 0-2.972 2.972-2.972h4.459c0 0 0 2.972-2.972 2.972h-4.459zM15.334 21.619c0 0 0-2.972 2.972-2.972h1.486c0 0 0 2.972-2.972 2.972h-1.486zM14.336 19.3v2.371h-9.559l6.158-8.399h-5.286v-2.371h9.972l-6.129 8.4z"></path>
</svg>
