<?xml version="1.0" encoding="utf-8"?>
<!-- Generator: Adobe Illustrator 19.2.1, SVG Export Plug-In . SVG Version: 6.00 Build 0)  -->
<svg version="1.1" id="Layer_1" xmlns="http://www.w3.org/2000/svg" xmlns:xlink="http://www.w3.org/1999/xlink" x="0px" y="0px"
	 width="92px" height="92px" viewBox="0 0 92 92" enable-background="new 0 0 92 92" xml:space="preserve">
<path id="XMLID_1909_" d="M90.7,84.3L55.9,50c4.2-5.3,6.6-11.9,6.6-19c0-17.1-14-31-31.3-31S0,13.9,0,31s14,31,31.3,31
	c6.8,0,13-2.1,18.1-5.8l35,34.5c0.9,0.9,2,1.3,3.1,1.3c1.2,0,2.3-0.4,3.2-1.3C92.4,88.9,92.4,86.1,90.7,84.3z M8,31
	C8,18.3,18.4,8,31.3,8s23.3,10.3,23.3,23S44.1,54,31.3,54S8,43.6,8,31z M46.9,31.5c0,1.9-1.6,3.5-3.5,3.5H19.1
	c-1.9,0-3.5-1.6-3.5-3.5s1.6-3.5,3.5-3.5h24.3C45.4,28,46.9,29.6,46.9,31.5z"/>
</svg>
