<?xml version="1.0"?><svg xmlns="http://www.w3.org/2000/svg" width="40" height="40" viewBox="0 0 40 40"><path d="m35 2.5h-30c-1.25 0-2.5 1.25-2.5 2.5v30c0 1.25 1.25 2.5 2.5 2.5h30c1.25 0 2.5-1.25 2.5-2.5v-30c0-1.25-1.25-2.5-2.5-2.5z m-2.5 28.75c0 0.625-0.6625000000000014 1.25-1.25 1.25h-22.5c-0.7037499999999994 0-1.25-0.46875-1.25-1.25v-22.5c0-0.625 0.625-1.25 1.25-1.25h22.5c0.5874999999999986 0 1.25 0.625 1.25 1.25v22.5z m-12.5-16.25c-2.7749999999999986 0-5 2.2250000000000014-5 5s2.2250000000000014 5 5 5 5-2.2250000000000014 5-5-2.2250000000000014-5-5-5z"></path></svg>