<?xml version="1.0"?><svg xmlns="http://www.w3.org/2000/svg" width="40" height="40" viewBox="0 0 40 40"><path fill="#444" d="m35 20h-7.5c0-1.25-1.25-2.5-2.5-2.5h-5s-2.5 1.25-2.5 2.5v12.5h20v-10s-1.25-2.5-2.5-2.5z m-10 2.5h-5v-1.25s0.5874999999999986-1.25 1.25-1.25h2.5s1.25 0.5874999999999986 1.25 1.25v1.25z m10-12.5h-13.75s-1.25-0.6624999999999996-1.25-1.25v-1.25s-1.25-2.5-2.5-2.5h-12.5s-2.5 1.25-2.5 2.5v25h12.5v-15s1.25-2.5 2.5-2.5h10s2.5 1.25 2.5 2.5h7.5v-5s-1.25-2.5-2.5-2.5z m-17.5 0h-12.5v-1.25s0.625-1.25 1.25-1.25h10s1.25 0.6624999999999996 1.25 1.25v1.25z"></path></svg>