<svg viewBox="0 0 1024 1024.032" xmlns="http://www.w3.org/2000/svg"><path d="m768 64.001c-141.385 0-256 83.75-256 186.875 0 123.87499999999997 32 194.12499999999997 0 389.125 0-288-177-405.783-256-405.783 3.266-32.17-30.955-42.217-30.955-42.217s-14 7.124-19.354 21.583c-17.231-20.053-36.154-17.54-36.154-17.54l-8.491 37.081c0 0-117.045 40.876-118.635 206.292 13.588999999999956 21.583999999999946 98.89999999999996 38.68599999999998 159.47599999999994 27.701999999999998 57.157 2.956 42.991 50.648 30.193 63.446-53.997000000000014 53.997999999999934-104.08000000000001-18.564000000000078-168.08-18.564000000000078s-64 64 0 64 64 64 192 64c-198 77 0 256 0 256h-64c-64 0-64 64-64 64s256 0 384 0c192 0 320-64 320-222.182 0-54.34-27.699-114.629-64-162.228-70.94299999999998-93.02299999999991 14.452999999999975-171.1559999999999 64-127.58999999999992s192 64 192-128c0-141.38499999999996-114.61500000000001-255.99999999999997-256-255.99999999999997z m-608 320c-17.674 0-32-14.327-32-32 0-17.674 14.326-32 32-32 17.673 0 32 14.326 32 32 0 17.673000000000002-14.326999999999998 32-32 32z"/></svg>