<svg viewBox="0 0 1024 1024.032" xmlns="http://www.w3.org/2000/svg"><path d="m512 320.001h-64v-64h64v64z m256 192h-64v64h64v-64z m-448-192h-64v64h64v-64z m-64 192h-64v64h64v-64z m704-352l-32-32-416 320c-4-1-64 0-64 0-35 0-64 29-64 64v64c0 35 29 64 64 64h64c35 0 64-29 64-64v-59l384-357z m-102 262c12 39 19 80 19 122 0 219-178 397-397 397s-397-178-397-397 178-397 397-397c77 0 148 22 209 60l60-60c-76-52-169-83-269-83-265 2.842170943040401e-14-480 215-480 480s215 480 480 480 480-215 480-480c0-66-13-129-38-186l-64 64z"/></svg>