<svg viewBox="0 0 896 1024.032" xmlns="http://www.w3.org/2000/svg"><path d="m768 128.001h-64v96c0 18-14 32-32 32h-128c-18 0-32-14-32-32v-96h-192v96c0 18-14 32-32 32h-128c-18 0-32-14-32-32v-96h-64c-35 0-64 29-64 64v704c0 35 29 64 64 64h704c35 0 64-29 64-64v-704c0-35-29-64-64-64z m0 768h-704v-576h704v576z m-512-704h-64v-127.99999999999997h64v128z m384 0h-64v-127.99999999999997h64v128z m-320 256h-64v-64h64v64z m128 0h-64v-64h64v64z m128 0h-64v-64h64v64z m128 0h-64v-64h64v64z m-512 128h-64v-64h64v64z m128 0h-64v-64h64v64z m128 0h-64v-64h64v64z m128 0h-64v-64h64v64z m128 0h-64v-64h64v64z m-512 128h-64v-64h64v64z m128 0h-64v-64h64v64z m128 0h-64v-64h64v64z m128 0h-64v-64h64v64z m128 0h-64v-64h64v64z m-512 128h-64v-64h64v64z m128 0h-64v-64h64v64z m128 0h-64v-64h64v64z m128 0h-64v-64h64v64z"/></svg>