<svg viewBox="0 0 640 1024.032" xmlns="http://www.w3.org/2000/svg"><path d="m512 64.001c-71 0-128 57-128 128 0 47 26 88 64 110v82l-128 128-128-128v-82c38-22 64-63 64-110 0-71-57-128-128-128s-128 57.00000000000003-128 128.00000000000003c0 47 26 88 64 110v114l192 192v114c-38 22-64 63-64 110 0 71 57 128 128 128s128-57 128-128c0-47-26-88-64-110v-114l192-192v-114c38-22 64-63 64-110 0-71-57-128-128-128z m-384 204.99999999999997c-42 0-77-35-77-77s35-77 77-77 77 35 77 77-35 77-77 77z m192 640c-42 0-77-35-77-77s35-77 77-77 77 35 77 77-35 77-77 77z m192-640c-42 0-77-35-77-77s35-77 77-77 77 35 77 77-35 77-77 77z"/></svg>