<?xml version="1.0"?><svg viewBox="0 0 40 40" xmlns="http://www.w3.org/2000/svg" height="40" width="40"><path d="m25 2.5c-0.4 0-0.9 0.1-1.3 0.4-3.6 2.1-12.4 8.5-16.2 9.6-3.4 0-7.5 1.7-7.5 6.2s4.1 6.3 7.5 6.3c0.7 0.2 1.6 0.6 2.5 1v11.5h5v-8.6c3.4 2.1 6.7 4.5 8.7 5.7 0.4 0.3 0.9 0.4 1.3 0.4 1.3 0 2.5-1.1 2.5-2.5v-27.5c0-1.4-1.2-2.5-2.5-2.5z m0 30c-0.9-0.6-2.2-1.4-3.8-2.5-0.3-0.3-0.8-0.5-1.2-0.9v-20.8c0.4-0.3 0.8-0.5 1.2-0.8 1.5-1 2.9-1.9 3.8-2.5v27.5z m5-15h10v2.5h-10v-2.5z m0 5l10 5v2.5l-10-5v-2.5z m10-15v2.5l-10 5v-2.5l10-5z"></path></svg>