<svg viewBox="0 0 2856.857 1024.032" xmlns="http://www.w3.org/2000/svg"><path d="m552.73 332.136h-241.173c-6.205 0-11.25 5.045-11.25 11.297v117.887c0 6.252 5.045 11.272 11.25 11.272h94.109v146.542c0 0-21.145 7.057-79.496 7.057-68.914 0-165.156-25.244-165.156-236.795 0-211.642 100.197-239.491 194.307-239.491 81.465 0 116.514 14.304 138.869 21.241 7.01 2.203 13.404-4.831 13.404-11.105l26.948999999999955-113.91000000000008c0-2.912-1.041-6.417-4.262-8.785-9.095000000000027-6.393000000000004-64.41600000000005-37.345000000000006-204.11300000000006-37.345000000000006-161.035 2.3306009899748403e-15-326.168 68.487-326.168 397.757 0 329.22200000000004 189.051 378.243 348.381 378.243 131.883 0 212.021-56.314 212.021-56.314 3.268-1.801 3.6-6.395 3.6-8.479v-367.775c-0.04699999999991178-6.204999999999984-5.115000000000009-11.296999999999969-11.271999999999935-11.296999999999969z m1219.651-304.00100000000003h-135.695c-6.252 0-11.271 5.044-11.271 11.296v262.393h-211.619v-262.393c0-6.252-5.068-11.296-11.178-11.296h-135.838c-6.111 0-11.084 5.044-11.084 11.296v710.473c0 6.299 5.021 11.32 11.084 11.32h135.838c6.203 0 11.178-5.068 11.178-11.32v-303.836h211.619l-0.475 303.883c0 6.3 5.021 11.272 11.084 11.272h135.885c6.252 0 11.131-5.068 11.131-11.272l0.473-710.521c0.09399999999959618-6.251000000000062-4.9740000000003874-11.295000000000062-11.13200000000029-11.295000000000062z m-1057.4320000000002 16.10300000000001c-48.357 0-87.574 39.572-87.574 88.403 0 48.855 39.217 88.428 87.574 88.428s87.527-39.572 87.527-88.428c0.00100000000009004-48.83000000000001-39.16899999999987-88.40300000000002-87.52699999999993-88.40300000000002z m77.91200000000015 227.889c0-6.205-5.02-11.344-11.131-11.344h-135.40999999999997c-6.348 0-11.746 6.394-11.746 12.67 0 0 0 394.654 0 469.867 0 13.735 8.572 17.903 19.703 17.903 0 0 57.688 0 121.959 0 13.311 0 16.814-6.536 16.814-18.188-0.094-25.197-0.094-123.808-0.094-142.942-0.09500000000002728-18.187000000000126-0.09500000000002728-327.96600000000007-0.09500000000002728-327.96600000000007z m1505.112-10.27800000000002h-134.701c-6.158 0-11.084 5.092-11.084 11.344v348.31c0 0-34.244 25.197-82.934 25.197-48.547 0-61.525-22.024-61.525-69.719 0-47.553 0-303.835 0-303.835 0-6.252-5.068-11.345-11.131-11.345h-136.643c-6.252 0-11.178 5.093-11.178 11.345 0 0 0 185.521 0 326.807 0 141.284 78.766 175.906 186.99 175.906 88.854 0 160.609-49.115 160.609-49.115s3.363 25.766 5.068 28.844c1.422 3.078 5.447 6.158 9.852 6.158h86.58c6.158 0 11.178-5.069 11.178-11.321l0.379-477.278c-0.282999999999447-6.206999999999937-5.303999999999633-11.297999999999945-11.459999999999582-11.297999999999945z m368.95899999999983-16.008999999999986c-76.539 0-128.592 34.148-128.592 34.148v-240.55700000000002c0-6.252-5.068-11.296-11.131-11.296h-136.264c-6.109 0-11.131 5.044-11.131 11.296l-0.379 710.521c0 6.3 5.068 11.272 11.225 11.272 0 0 94.773 0 94.869 0 4.215 0 7.389-2.179 9.805-5.968 2.369-3.837 5.73-32.775 5.73-32.775s55.557 52.763 161.035 52.763c123.807 0 194.758-62.804 194.758-281.906 0.0020000000004074536-218.81900000000013-113.38599999999951-247.49800000000013-189.92499999999973-247.49800000000013z m-53.14099999999962 400.38599999999997c-46.701-1.421-78.34-22.64-78.34-22.64v-225.07c0 0 31.307-19.206 69.672-22.593 48.547-4.31 95.438 10.326 95.438 126.13-0.23900000000003274 122.00699999999995-21.36200000000008 146.11400000000003-86.76999999999998 144.173z m-1428.6660000000002-2.5579999999999927c-5.969 0-21.219 2.368-36.85 2.368-49.92 0-66.971-23.256-66.971-53.331 0-30.218 0-199.85 0-199.85h101.926c6.252 0 11.178-5.044 11.178-11.343v-109.48c0.094-6.299-4.926-11.344-11.178-11.344h-101.926l-0.143-134.535c0-5.092-2.699-7.625-8.572-7.625h-138.72800000000018c-5.352 0-8.336 2.391-8.336 7.578v139.035c0 0-69.576 16.79-74.266 18.188-4.641 1.326-8.051 5.684-8.051 10.822v87.408c0 6.252 5.068 11.344 11.178 11.344h71.139c0 0 0 91.34 0 210.222 0 156.109 109.553 171.455 183.439 171.455 33.723 0 74.076-10.988 80.848-13.356 4.074-1.421 6.395-5.637 6.395-10.136l0.047-96.101c0-6.2980000000001155-5.255999999999858-11.414000000000101-11.128999999999905-11.319000000000074z"/></svg>