<svg viewBox="0 0 896 1024.032" xmlns="http://www.w3.org/2000/svg"><path d="m224 384.001l-32 32v320l32 32h128l32-32v-320l-32-32h-128z m96 320h-64v-256h64v256z m401-464c-14-88-20-168-17-240h-191c0 17-8 31-25 44-16 13-40 19-72 19s-56-6-72-19c-15-13-23-27-23-44h-193c3 72-2 152-16 240-13 88-51 136-112 144v576c1 17 7 31 20 44s27 19 44 20h704c17-1 31-7 44-20s19-27 20-44v-576c-61-8-98-56-112-144z m47 720h-704v-512c57-32 95-80 110-144s20-144 18-240h64c-1 50 10 94 33 132 23 37 65 57 128 60 63-1 105-21 128-60 23-38 32-82 31-132h64c1 91 8 163 21 216 13 52 44 128 107 168v512z m-288-576l-32 32v320l32 32h128l32-32v-320l-32-32h-128z m96 320h-64v-256h64v256z"/></svg>