<svg viewBox="0 0 1024 1024.032" xmlns="http://www.w3.org/2000/svg"><path d="m576 576.001h-64c35 0 64-29 64-64v-64c0-35-29-64-64-64h-64c-35 0-64 29-64 64v64c0 35 29 64 64 64h-64c-35 0-64 29-64 64v128h64v192c0 35 29 64 64 64h64c35 0 64-29 64-64v-192h64v-128c0-35-29-64-64-64z m-128-128h64v64h-64v-64z m128 256h-64v256h-64v-256h-64v-64h192v64z m134-224c0-127-103-230-230-230s-230 103-230 230c0 18 2 35 6 52v127c-39-49-64-111-64-179 0-159 129-288 288-288s288 129 288 288c0 68-25 130-64 179v-127c4-17 6-34 6-52z m250 0c0 184-104 344-256 424v-67c119-74 198-206 198-357 0-233-189-422-422-422s-422 189.00000000000003-422 422c0 151 79 283 198 357v67c-152-80-256-240-256-424 0-265 215-480 480-480s480 215 480 480z"/></svg>