<?xml version="1.0"?><svg viewBox="0 0 40 40" xmlns="http://www.w3.org/2000/svg" height="40" width="40"><path d="m32.5 15h-25c-1.4 0-2.5 1.1-2.5 2.5v5c0 1.4 1.1 2.5 2.5 2.5h25c1.4 0 2.5-1.1 2.5-2.5v-5c0-1.4-1.1-2.5-2.5-2.5z m-22.5 7.5h-2.5v-5h2.5v5z m5 0h-2.5v-5h2.5v5z m5 0h-2.5v-5h2.5v5z m5 0h-2.5v-5h2.5v5z m7.5-20h-25c-1.4 0-2.5 1.1-2.5 2.5v5c0 1.4 1.1 2.5 2.5 2.5h25c1.4 0 2.5-1.1 2.5-2.5v-5c0-1.4-1.1-2.5-2.5-2.5z m-22.5 7.5h-2.5v-5h2.5v5z m5 0h-2.5v-5h2.5v5z m5 0h-2.5v-5h2.5v5z m5 0h-2.5v-5h2.5v5z m7.5-2.5h-2.5v-2.5h2.5v2.5z m0 20h-25c-1.4 0-2.5 1.1-2.5 2.5v5c0 1.4 1.1 2.5 2.5 2.5h25c1.4 0 2.5-1.1 2.5-2.5v-5c0-1.4-1.1-2.5-2.5-2.5z m-22.5 7.5h-2.5v-5h2.5v5z m5 0h-2.5v-5h2.5v5z m5 0h-2.5v-5h2.5v5z m5 0h-2.5v-5h2.5v5z"></path></svg>