<svg viewBox="0 0 768 1024.032" xmlns="http://www.w3.org/2000/svg"><path d="m640 448.001c-47 0-88 26-111 65v-1c-67-1-145-23-200-65-48-37-96-103-121-156 29-23 48-59 48-99 0-71-57-128-128-128s-128 57.00000000000003-128 128.00000000000003c0 47 26 88 64 110v420c-38 22-64 63-64 110 0 71 57 128 128 128s128-57 128-128c0-47-26-88-64-110v-231c43 45 92 81 147 108s130 40 190 41v-1c23 39 64 65 111 65 71 0 128-57 128-128s-57-128-128-128z m-435 384c0 42-35 77-77 77s-77-35-77-77 35-77 77-77 77 35 77 77z m-77-563c-42 0-77-35-77-77s35-77 77-77 77 35 77 77-35 77-77 77z m512 384c-42 0-77-35-77-77s35-77 77-77 77 35 77 77-35 77-77 77z"/></svg>