<svg viewBox="0 0 768 1024.032" xmlns="http://www.w3.org/2000/svg"><path d="m384 960.001c-212.031 0-384-57.375-384-128 0-38.625 0-80.875 0-128 0-11.125 5.562-21.688 13.562-32 42.813 55.125 191.688 96 370.438 96s327.625-40.875 370.438-96c8 10.312 13.562 20.875 13.562 32 0 37.062 0 76.375 0 128 0 70.625-172 128-384 128z m0-256c-212.031 0-384-57.375-384-128 0-38.656 0-80.844 0-128 0-6.781 2.562-13.375 6-19.906l0 0c1.9379999999999997-4.093999999999994 4.5-8.124999999999943 7.561999999999999-12.093999999999994 42.813 55.09400000000005 191.688 96 370.438 96s327.625-40.906 370.438-96c3.062 3.969 5.625 8 7.562 12.094l0 0c3.438 6.531 6 13.125 6 19.906 0 37.062 0 76.344 0 128 0 70.625-172 128-384 128z m0-256c-212.031 0-384-57.343999999999994-384-128 0-20.219 0-41.594 0-64 0-20.344 0-41.469 0-64 0-70.65599999999998 171.969-127.99999999999997 384-127.99999999999997 212 0 384 57.344 384 128 0 19.969 0 41.156 0 64 0 19.594 0 40.25 0 64 0 70.656-172 128-384 128z m0-320c-141.375 0-256 28.594-256 64s114.625 64 256 64 256-28.594 256-64-114.625-63.99999999999997-256-63.99999999999997z"/></svg>