<svg viewBox="0 0 832.0839 1024.032" xmlns="http://www.w3.org/2000/svg"><path d="m466.7386 99.102c-228.037-27.99900000000001-435.59700000000004 134.164-463.595 362.201-28 228.038 134.163 435.598 362.2 463.597 71.429 8.756 145.115-0.913 213.325-29.946l-0.016-0.032c24.404-10.357 35.788-38.538 25.431-62.939-10.359-24.403-38.538-35.787-62.94-25.43l-0.001-0.004c-52.472 22.339-109.15 29.799-164.1 23.067-175.413-21.538-300.153-181.2-278.616-356.613 21.538-175.413 181.199-300.154 356.613-278.616 175.412 21.538 300.154 181.199 278.617 356.612-4.309 35.083-21.542 55.725-61.6 55.725-42.5 0-64-45.889-64-81.222v-125.50100000000009c0-26.51-21.49-48-48-48-9.699 0-18.72 2.887-26.269 7.833-25.684-20.259-57.437-33.87-94.349-38.402-105.246-12.923-201.045 61.924-213.967 167.17-12.92200000000011 105.24700000000007 61.92399999999989 201.04500000000007 167.16999999999987 213.96699999999998 57.379 7.045 116.216-14.707 157.871-53.13 24.959 28.124 59.866 47.624 100.121 52.567 87.707 10.769 167.537-51.602 178.307-139.309 27.999000000000024-228.036-134.16499999999996-435.595-362.202-463.595z m44.587999999999965 424.59800000000007c-6.462 52.623-54.361 90.047-106.985 83.585-52.623-6.461-90.046-54.36-83.585-106.984 6.461-52.623 54.361-90.046 106.984-83.585 52.62300000000005 6.461999999999875 90.04700000000003 54.360999999999876 83.58600000000001 106.98399999999992z"/></svg>