<?xml version="1.0"?><svg xmlns="http://www.w3.org/2000/svg" width="40" height="40" viewBox="0 0 40 40"><path fill="#444" d="m32.5 15h-25c-1.4 0-2.5 1.3-2.5 2.5v5c0 1.3 1.3 2.5 2.5 2.5h25c1.3 0 2.5-1.2 2.5-2.5v-5c0-1.2-1.2-2.5-2.5-2.5z m-22.5 7.5h-2.5v-5h2.5v5z m5 0h-2.5v-5h2.5v5z m5 0h-2.5v-5h2.5v5z m5 0h-2.5v-5h2.5v5z m7.5 5h-25c-1.4 0-2.5 1.3-2.5 2.5v5c0 1.3 1.3 2.5 2.5 2.5h25c1.3 0 2.5-1.2 2.5-2.5v-5c0-1.2-1.2-2.5-2.5-2.5z m-22.5 7.5h-2.5v-5h2.5v5z m5 0h-2.5v-5h2.5v5z m5 0h-2.5v-5h2.5v5z m5 0h-2.5v-5h2.5v5z m7.5-32.5h-25c-1.4 0-2.5 1.3-2.5 2.5v5c0 1.3 1.3 2.5 2.5 2.5h25c1.3 0 2.5-1.2 2.5-2.5v-5c0-1.2-1.2-2.5-2.5-2.5z m-22.5 7.5h-2.5v-5h2.5v5z m5 0h-2.5v-5h2.5v5z m5 0h-2.5v-5h2.5v5z m5 0h-2.5v-5h2.5v5z m7.5-2.5h-2.5v-2.5h2.5v2.5z"></path></svg>